<svg width="65" height="65" viewBox="0 0 65 65" fill="none" xmlns="http://www.w3.org/2000/svg">
<circle cx="32.5" cy="32.5" r="32.5" fill="#34302D"/>
<rect width="39" height="39" transform="translate(13 13)" fill="#34302D"/>
<path d="M34.8882 26.8618C34.4123 26.3858 34.4123 25.6142 34.8882 25.1382C35.3642 24.6623 36.1358 24.6623 36.6118 25.1382L43.1118 31.6382C43.5877 32.1142 43.5877 32.8858 43.1118 33.3618L36.6118 39.8618C36.1358 40.3377 35.3642 40.3377 34.8882 39.8618C34.4123 39.3858 34.4123 38.6142 34.8882 38.1382L39.3077 33.7188H23.5625C22.8894 33.7188 22.3438 33.1731 22.3438 32.5C22.3438 31.8269 22.8894 31.2812 23.5625 31.2812H39.3077L34.8882 26.8618Z" fill="white"/>
</svg>
