<svg width="65" height="65" viewBox="0 0 65 65" fill="none" xmlns="http://www.w3.org/2000/svg">
<circle cx="32.5" cy="32.5" r="32.5" transform="matrix(-1 0 0 1 65 0)" fill="#34302D"/>
<rect width="39" height="39" transform="matrix(-1 0 0 1 52 13)" fill="#34302D"/>
<path d="M30.1118 26.8618C30.5877 26.3858 30.5877 25.6142 30.1118 25.1382C29.6358 24.6623 28.8642 24.6623 28.3882 25.1382L21.8882 31.6382C21.4123 32.1142 21.4123 32.8858 21.8882 33.3618L28.3882 39.8618C28.8642 40.3377 29.6358 40.3377 30.1118 39.8618C30.5877 39.3858 30.5877 38.6142 30.1118 38.1382L25.6923 33.7188H41.4375C42.1106 33.7188 42.6562 33.1731 42.6562 32.5C42.6562 31.8269 42.1106 31.2812 41.4375 31.2812H25.6923L30.1118 26.8618Z" fill="white"/>
</svg>
