<svg width="26" height="26" viewBox="0 0 26 26" fill="none" xmlns="http://www.w3.org/2000/svg">
<path d="M5.66666 6.25C5.66666 4.73122 6.89787 3.5 8.41666 3.5H14.3382C15.0676 3.5 15.767 3.78973 16.2828 4.30546L20.8612 8.88388C21.3769 9.39961 21.6667 10.0991 21.6667 10.8284V20.75C21.6667 22.2688 20.4354 23.5 18.9167 23.5H8.41666C6.89787 23.5 5.66666 22.2688 5.66666 20.75V6.25ZM8.41666 5C7.7263 5 7.16666 5.55964 7.16666 6.25V20.75C7.16666 21.4404 7.7263 22 8.41666 22H18.9167C19.607 22 20.1667 21.4404 20.1667 20.75V11.5H16.4167C14.8979 11.5 13.6667 10.2688 13.6667 8.75V5H8.41666ZM16.4167 10H19.8527C19.8359 9.98104 19.8185 9.96255 19.8005 9.94454L15.2221 5.36612C15.2041 5.34811 15.1856 5.33072 15.1667 5.31394V8.75C15.1667 9.44036 15.7263 10 16.4167 10Z" fill="#020200"/>
<path d="M13.6341 18.6509L15.3775 16.9075C15.5653 16.7197 15.8697 16.7197 16.0574 16.9075C16.2452 17.0952 16.2452 17.3996 16.0574 17.5874L13.4933 20.1515C13.3056 20.3393 13.0012 20.3393 12.8134 20.1515L10.2493 17.5874C10.0616 17.3996 10.0616 17.0952 10.2493 16.9075C10.4371 16.7197 10.7415 16.7197 10.9292 16.9075L12.6726 18.6509L12.6726 12.4398C12.6726 12.1742 12.8878 11.959 13.1534 11.959C13.4189 11.959 13.6341 12.1742 13.6341 12.4398L13.6341 18.6509Z" fill="#020200" stroke="#020200" stroke-width="0.5" stroke-linecap="round"/>
</svg>
