<svg width="150" height="151" viewBox="0 0 150 151" fill="none" xmlns="http://www.w3.org/2000/svg">
<g filter="url(#filter0_d_544_13719)">
<rect x="15" y="11.5" width="120" height="120" rx="10" fill="white"/>
<path d="M109.574 39H41.0075C39.8988 39 39 39.8988 39 41.0075V92.1547C39 93.2634 39.8988 94.1622 41.0075 94.1622H109.574C110.683 94.1622 111.581 93.2634 111.581 92.1547V41.0075C111.581 39.8988 110.683 39 109.574 39Z" fill="#18292D" stroke="#18292D" stroke-width="1.3" stroke-linecap="round" stroke-linejoin="round"/>
<path d="M62.959 98.4463H87.6219C89.1534 98.4463 90.4021 99.6881 90.4021 101.226V101.834C90.4021 103.034 89.4294 104 88.2359 104H62.3519C61.1515 104 60.1857 103.027 60.1857 101.834V101.226C60.1857 99.695 61.4274 98.4463 62.9659 98.4463H62.959Z" fill="#18292D" stroke="#18292D" stroke-width="1.3" stroke-linecap="round" stroke-linejoin="round"/>
<path d="M70.0703 92.5615H80.515V97.6321C80.515 99.4809 79.018 100.978 77.1691 100.978H73.4162C71.5673 100.978 70.0703 99.4809 70.0703 97.6321V92.5615Z" fill="white" stroke="#18292D" stroke-width="1.3" stroke-linecap="round" stroke-linejoin="round"/>
<path d="M105.331 43.043H45.2641C44.1706 43.043 43.2842 43.9294 43.2842 45.0229V88.1468C43.2842 89.2403 44.1706 90.1268 45.2641 90.1268H105.331C106.425 90.1268 107.311 89.2403 107.311 88.1468V45.0229C107.311 43.9294 106.425 43.043 105.331 43.043Z" fill="white" stroke="#18292D" stroke-width="1.3" stroke-linecap="round" stroke-linejoin="round"/>
<path d="M59.9521 68.5206L61.4423 65.9404" stroke="#4A7C88" stroke-width="1.3" stroke-linecap="round" stroke-linejoin="round"/>
<path d="M61.5236 75.013L60.0197 72.4053" stroke="#4A7C88" stroke-width="1.3" stroke-linecap="round" stroke-linejoin="round"/>
<path d="M67.9137 76.9707H64.8369" stroke="#4A7C88" stroke-width="1.3" stroke-linecap="round" stroke-linejoin="round"/>
<path d="M72.8733 72.4111L71.3418 75.0671" stroke="#4A7C88" stroke-width="1.3" stroke-linecap="round" stroke-linejoin="round"/>
<path d="M71.4033 65.8506L72.9141 68.4721" stroke="#4A7C88" stroke-width="1.3" stroke-linecap="round" stroke-linejoin="round"/>
<path d="M64.8566 63.8359H67.9128" stroke="#4A7C88" stroke-width="1.3" stroke-linecap="round" stroke-linejoin="round"/>
<path d="M87.8359 63.8359H90.899" stroke="#4A7C88" stroke-width="1.3" stroke-linecap="round" stroke-linejoin="round"/>
<path d="M73.1631 81.5804L71.6592 78.9727" stroke="#4A7C88" stroke-width="1.3" stroke-linecap="round" stroke-linejoin="round"/>
<path d="M79.5505 83.5391H76.4737" stroke="#4A7C88" stroke-width="1.3" stroke-linecap="round" stroke-linejoin="round"/>
<path d="M84.512 78.9785L82.9805 81.6345" stroke="#4A7C88" stroke-width="1.3" stroke-linecap="round" stroke-linejoin="round"/>
<path d="M83.042 72.418L84.5528 75.0395" stroke="#4A7C88" stroke-width="1.3" stroke-linecap="round" stroke-linejoin="round"/>
<path d="M94.7354 78.9922L96.2462 81.6206" stroke="#4A7C88" stroke-width="1.3" stroke-linecap="round" stroke-linejoin="round"/>
<path d="M76.4961 70.4043H79.5522" stroke="#4A7C88" stroke-width="1.3" stroke-linecap="round" stroke-linejoin="round"/>
<path d="M71.543 61.9942L73.0331 59.4141" stroke="#4A7C88" stroke-width="1.3" stroke-linecap="round" stroke-linejoin="round"/>
<path d="M60.1807 81.4482L61.6639 78.875" stroke="#4A7C88" stroke-width="1.3" stroke-linecap="round" stroke-linejoin="round"/>
<path d="M79.5036 70.4453H76.4199" stroke="#4A7C88" stroke-width="1.3" stroke-linecap="round" stroke-linejoin="round"/>
<path d="M90.9333 76.9707H87.8564" stroke="#4A7C88" stroke-width="1.3" stroke-linecap="round" stroke-linejoin="round"/>
<path d="M84.4631 65.8848L82.9247 68.5408" stroke="#4A7C88" stroke-width="1.3" stroke-linecap="round" stroke-linejoin="round"/>
<path d="M82.9863 59.3242L84.504 61.9457" stroke="#4A7C88" stroke-width="1.3" stroke-linecap="round" stroke-linejoin="round"/>
<path d="M71.2451 52.8047L72.7628 55.4262" stroke="#4A7C88" stroke-width="1.3" stroke-linecap="round" stroke-linejoin="round"/>
<path d="M76.4404 57.3105H79.5035" stroke="#4A7C88" stroke-width="1.3" stroke-linecap="round" stroke-linejoin="round"/>
<path d="M64.1738 63.8774C64.1738 64.6776 63.5253 65.3192 62.732 65.3192C61.9386 65.3192 61.2902 64.6707 61.2902 63.8774C61.2902 63.084 61.9386 62.4355 62.732 62.4355C63.5253 62.4355 64.1738 63.084 64.1738 63.8774Z" stroke="#4A7C88" stroke-width="1.3" stroke-linecap="round" stroke-linejoin="round"/>
<path d="M60.3094 70.4037C60.3094 71.204 59.661 71.8456 58.8676 71.8456C58.0743 71.8456 57.4258 71.1971 57.4258 70.4037C57.4258 69.6104 58.0743 68.9619 58.8676 68.9619C59.661 68.9619 60.3094 69.6104 60.3094 70.4037Z" stroke="#4A7C88" stroke-width="1.3" stroke-linecap="round" stroke-linejoin="round"/>
<path d="M64.1738 76.9711C64.1738 77.7714 63.5253 78.413 62.732 78.413C61.9386 78.413 61.2902 77.7645 61.2902 76.9711C61.2902 76.1778 61.9386 75.5293 62.732 75.5293C63.5253 75.5293 64.1738 76.1778 64.1738 76.9711Z" stroke="#4A7C88" stroke-width="1.3" stroke-linecap="round" stroke-linejoin="round"/>
<path d="M71.7692 76.9711C71.7692 77.7714 71.1207 78.413 70.3274 78.413C69.534 78.413 68.8856 77.7645 68.8856 76.9711C68.8856 76.1778 69.534 75.5293 70.3274 75.5293C71.1207 75.5293 71.7692 76.1778 71.7692 76.9711Z" stroke="#4A7C88" stroke-width="1.3" stroke-linecap="round" stroke-linejoin="round"/>
<path d="M75.4744 70.4037C75.4744 71.204 74.8259 71.8456 74.0326 71.8456C73.2392 71.8456 72.5908 71.1971 72.5908 70.4037C72.5908 69.6104 73.2392 68.9619 74.0326 68.9619C74.8259 68.9619 75.4744 69.6104 75.4744 70.4037Z" stroke="#4A7C88" stroke-width="1.3" stroke-linecap="round" stroke-linejoin="round"/>
<path d="M70.3274 65.3192C71.1237 65.3192 71.7692 64.6737 71.7692 63.8774C71.7692 63.0811 71.1237 62.4355 70.3274 62.4355C69.5311 62.4355 68.8856 63.0811 68.8856 63.8774C68.8856 64.6737 69.5311 65.3192 70.3274 65.3192Z" stroke="#4A7C88" stroke-width="1.3" stroke-linecap="round" stroke-linejoin="round"/>
<path d="M83.1378 70.4037C83.1378 71.204 82.4893 71.8456 81.696 71.8456C80.9026 71.8456 80.2542 71.1971 80.2542 70.4037C80.2542 69.6104 80.9026 68.9619 81.696 68.9619C82.4893 68.9619 83.1378 69.6104 83.1378 70.4037Z" stroke="#4A7C88" stroke-width="1.3" stroke-linecap="round" stroke-linejoin="round"/>
<path d="M86.9337 63.8364C86.9337 64.6366 86.2852 65.2782 85.4919 65.2782C84.6985 65.2782 84.05 64.6297 84.05 63.8364C84.05 63.043 84.6985 62.3945 85.4919 62.3945C86.2852 62.3945 86.9337 63.043 86.9337 63.8364Z" stroke="#4A7C88" stroke-width="1.3" stroke-linecap="round" stroke-linejoin="round"/>
<path d="M94.7362 63.8364C94.7362 64.6366 94.0877 65.2782 93.2944 65.2782C92.501 65.2782 91.8525 64.6297 91.8525 63.8364C91.8525 63.043 92.501 62.3945 93.2944 62.3945C94.0877 62.3945 94.7362 63.043 94.7362 63.8364Z" stroke="#4A7C88" stroke-width="1.3" stroke-linecap="round" stroke-linejoin="round"/>
<path d="M83.1378 57.268C83.1378 58.0683 82.4893 58.7098 81.696 58.7098C80.9026 58.7098 80.2542 58.0614 80.2542 57.268C80.2542 56.4747 80.9026 55.8262 81.696 55.8262C82.4893 55.8262 83.1378 56.4747 83.1378 57.268Z" stroke="#4A7C88" stroke-width="1.3" stroke-linecap="round" stroke-linejoin="round"/>
<path d="M75.4744 57.268C75.4744 58.0683 74.8259 58.7098 74.0326 58.7098C73.2392 58.7098 72.5908 58.0614 72.5908 57.268C72.5908 56.4747 73.2392 55.8262 74.0326 55.8262C74.8259 55.8262 75.4744 56.4747 75.4744 57.268Z" stroke="#4A7C88" stroke-width="1.3" stroke-linecap="round" stroke-linejoin="round"/>
<path d="M81.696 84.9813C82.4923 84.9813 83.1378 84.3358 83.1378 83.5395C83.1378 82.7432 82.4923 82.0977 81.696 82.0977C80.8997 82.0977 80.2542 82.7432 80.2542 83.5395C80.2542 84.3358 80.8997 84.9813 81.696 84.9813Z" stroke="#4A7C88" stroke-width="1.3" stroke-linecap="round" stroke-linejoin="round"/>
<path d="M98.9706 83.5395C98.9706 84.3397 98.3222 84.9813 97.5288 84.9813C96.7355 84.9813 96.087 84.3328 96.087 83.5395C96.087 82.7461 96.7355 82.0977 97.5288 82.0977C98.3222 82.0977 98.9706 82.7461 98.9706 83.5395Z" stroke="#4A7C88" stroke-width="1.3" stroke-linecap="round" stroke-linejoin="round"/>
<path d="M61.463 61.9946L59.9521 59.373" stroke="#4A7C88" stroke-width="1.3" stroke-linecap="round" stroke-linejoin="round"/>
<path d="M57.4199 57.3647C57.4199 56.5644 58.0684 55.9229 58.8618 55.9229C59.6551 55.9229 60.3036 56.5713 60.3036 57.3647C60.3036 58.158 59.6551 58.8065 58.8618 58.8065C58.0684 58.8065 57.4199 58.158 57.4199 57.3647Z" stroke="#4A7C88" stroke-width="1.3" stroke-linecap="round" stroke-linejoin="round"/>
<path d="M75.4744 83.5395C75.4744 84.3397 74.8259 84.9813 74.0326 84.9813C73.2392 84.9813 72.5908 84.3328 72.5908 83.5395C72.5908 82.7461 73.2392 82.0977 74.0326 82.0977C74.8259 82.0977 75.4744 82.7461 75.4744 83.5395Z" stroke="#4A7C88" stroke-width="1.3" stroke-linecap="round" stroke-linejoin="round"/>
<path d="M86.9337 76.9711C86.9337 77.7714 86.2852 78.413 85.4919 78.413C84.6985 78.413 84.05 77.7645 84.05 76.9711C84.05 76.1778 84.6985 75.5293 85.4919 75.5293C86.2852 75.5293 86.9337 76.1778 86.9337 76.9711Z" stroke="#4A7C88" stroke-width="1.3" stroke-linecap="round" stroke-linejoin="round"/>
<path d="M71.5829 50.811C71.5829 51.6112 70.9344 52.2528 70.1411 52.2528C69.3477 52.2528 68.6992 51.6043 68.6992 50.811C68.6992 50.0176 69.3477 49.3691 70.1411 49.3691C70.9344 49.3691 71.5829 50.0176 71.5829 50.811Z" stroke="#4A7C88" stroke-width="1.3" stroke-linecap="round" stroke-linejoin="round"/>
<path d="M60.6074 83.2563C60.6074 84.0565 59.9589 84.6981 59.1655 84.6981C58.3722 84.6981 57.7237 84.0496 57.7237 83.2563C57.7237 82.4629 58.3722 81.8145 59.1655 81.8145C59.9589 81.8145 60.6074 82.4629 60.6074 83.2563Z" stroke="#4A7C88" stroke-width="1.3" stroke-linecap="round" stroke-linejoin="round"/>
<path d="M94.7362 76.9711C94.7362 77.7714 94.0877 78.413 93.2944 78.413C92.501 78.413 91.8525 77.7645 91.8525 76.9711C91.8525 76.1778 92.501 75.5293 93.2944 75.5293C94.0877 75.5293 94.7362 76.1778 94.7362 76.9711Z" stroke="#4A7C88" stroke-width="1.3" stroke-linecap="round" stroke-linejoin="round"/>
<path d="M85.3662 48.6855H91.6509" stroke="#18292D" stroke-width="1.3" stroke-linecap="round" stroke-linejoin="round"/>
<path d="M77.9414 48.6855H79.8317" stroke="#18292D" stroke-width="1.3" stroke-linecap="round" stroke-linejoin="round"/>
<path d="M94.8242 53.6113H103.972" stroke="#18292D" stroke-width="1.3" stroke-linecap="round" stroke-linejoin="round"/>
<path d="M100.206 58.5088H103.973" stroke="#18292D" stroke-width="1.3" stroke-linecap="round" stroke-linejoin="round"/>
<path d="M47.1328 58.5088H50.9202" stroke="#18292D" stroke-width="1.3" stroke-linecap="round" stroke-linejoin="round"/>
<path d="M49.548 60.3584H52.4592" stroke="#18292D" stroke-width="1.3" stroke-linecap="round" stroke-linejoin="round"/>
<path d="M99.3965 71.7275H103.97" stroke="#18292D" stroke-width="1.3" stroke-linecap="round" stroke-linejoin="round"/>
<path d="M47.1328 76.6045H53.1554" stroke="#18292D" stroke-width="1.3" stroke-linecap="round" stroke-linejoin="round"/>
<path d="M47.1328 73.1562H49.1334" stroke="#18292D" stroke-width="1.3" stroke-linecap="round" stroke-linejoin="round"/>
<path d="M101.392 68.0781H103.972" stroke="#18292D" stroke-width="1.3" stroke-linecap="round" stroke-linejoin="round"/>
<path d="M100.206 79.123H103.973" stroke="#18292D" stroke-width="1.3" stroke-linecap="round" stroke-linejoin="round"/>
<path d="M102.683 83.5391H103.973" stroke="#18292D" stroke-width="1.3" stroke-linecap="round" stroke-linejoin="round"/>
<path d="M47.838 47.4785H47.8311L47.3758 47.7269L47.3068 47.4578L47.8794 47.1543H48.183V49.7758H47.838V47.4854V47.4785Z" fill="#18292D"/>
<path d="M49.163 49.5551C49.163 49.4033 49.2665 49.2998 49.4045 49.2998C49.5425 49.2998 49.6459 49.4033 49.6459 49.5551C49.6459 49.7068 49.5563 49.8103 49.4045 49.8103C49.2665 49.8103 49.1699 49.6999 49.1699 49.5551H49.163Z" fill="#18292D"/>
<path d="M51.7078 48.431C51.7078 49.3209 51.3766 49.8176 50.7972 49.8176C50.2867 49.8176 49.9348 49.3347 49.9279 48.4724C49.9279 47.5963 50.3073 47.1064 50.8386 47.1064C51.3698 47.1064 51.7078 47.5963 51.7078 48.431ZM50.2867 48.4724C50.2867 49.1554 50.4936 49.5417 50.8179 49.5417C51.1835 49.5417 51.356 49.1209 51.356 48.4517C51.356 47.7825 51.1904 47.3824 50.8248 47.3824C50.5143 47.3824 50.2867 47.7618 50.2867 48.4724Z" fill="#18292D"/>
<path d="M52.0322 49.7694V49.5487L52.3081 49.2796C52.9773 48.6449 53.2808 48.3 53.2808 47.9068C53.2808 47.6377 53.1498 47.3963 52.7634 47.3963C52.5289 47.3963 52.3288 47.5204 52.2046 47.617L52.0943 47.3687C52.2736 47.2169 52.5358 47.0996 52.8393 47.0996C53.405 47.0996 53.6396 47.4859 53.6396 47.8585C53.6396 48.3414 53.2877 48.7346 52.7358 49.2658L52.5289 49.459L53.7086 49.4659V49.7625H52.0322V49.7694Z" fill="#18292D"/>
<path d="M55.6601 47.444H54.6598L54.5563 48.1201C54.6184 48.1132 54.6736 48.1063 54.7701 48.1063C54.9702 48.1063 55.1772 48.1477 55.3358 48.2442C55.5428 48.3615 55.7084 48.5892 55.7084 48.9203C55.7084 49.4308 55.3013 49.8171 54.7356 49.8171C54.4528 49.8171 54.2044 49.7344 54.0803 49.6585L54.1699 49.3894C54.2803 49.4515 54.4942 49.5343 54.7287 49.5343C55.0599 49.5343 55.3496 49.3135 55.3496 48.9686C55.3496 48.6306 55.122 48.3891 54.5977 48.3891C54.4459 48.3891 54.3355 48.4029 54.2389 48.4167L54.4114 47.1611H55.667V47.4578L55.6601 47.444Z" fill="#18292D"/>
<path d="M57.6615 47.3962C57.5925 47.3962 57.496 47.3962 57.3925 47.41C56.8337 47.4997 56.5439 47.9136 56.4818 48.3413H56.4956C56.6198 48.1757 56.8406 48.0378 57.1303 48.0378C57.5925 48.0378 57.9237 48.3758 57.9237 48.8863C57.9237 49.3692 57.5994 49.8107 57.0544 49.8107C56.5094 49.8107 56.13 49.3761 56.13 48.6932C56.13 48.1757 56.3163 47.7687 56.5715 47.5135C56.7854 47.2996 57.082 47.1685 57.4132 47.1271C57.5166 47.1133 57.6063 47.1064 57.6684 47.1064V47.3962H57.6615ZM57.558 48.907C57.558 48.5345 57.3442 48.3068 57.0199 48.3068C56.8061 48.3068 56.606 48.4379 56.5094 48.6311C56.4887 48.6725 56.468 48.7207 56.468 48.7897C56.4749 49.2244 56.675 49.5417 57.0475 49.5417C57.3511 49.5417 57.558 49.2864 57.558 48.9139V48.907Z" fill="#18292D"/>
<path d="M48.1149 83.2065C48.1149 83.9515 47.839 84.3654 47.3492 84.3654C46.9215 84.3654 46.6317 83.9653 46.6248 83.2341C46.6248 82.4959 46.9422 82.0889 47.3906 82.0889C47.839 82.0889 48.1149 82.5028 48.1149 83.1996V83.2065ZM46.9215 83.241C46.9215 83.8135 47.1008 84.1378 47.3699 84.1378C47.6734 84.1378 47.8183 83.786 47.8183 83.2203C47.8183 82.6546 47.6803 82.3234 47.3699 82.3234C47.1077 82.3234 46.9215 82.6408 46.9215 83.241Z" fill="#18292D"/>
<path d="M48.41 84.1523C48.41 84.0282 48.4928 83.9385 48.61 83.9385C48.7273 83.9385 48.8101 84.0282 48.8101 84.1523C48.8101 84.2765 48.7342 84.3662 48.61 84.3662C48.4928 84.3662 48.41 84.2765 48.41 84.1523Z" fill="#18292D"/>
<path d="M49.7354 82.4068L49.356 82.6138L49.3008 82.3861L49.7837 82.1309H50.0389V84.3316H49.7492V82.4137L49.7354 82.4068Z" fill="#18292D"/>
<path d="M52.2477 82.1309V82.324L51.2887 84.3247H50.9783L51.9303 82.3792H50.8541V82.1309H52.2408H52.2477Z" fill="#18292D"/>
<path d="M53.4808 84.3305V83.7303H52.4598V83.5372L53.4394 82.1367H53.7636V83.5027H54.0741V83.7372H53.7636V84.3374H53.4808V84.3305ZM53.4808 83.4958V82.7645C53.4808 82.6472 53.4808 82.5368 53.4877 82.4196H53.4808C53.4118 82.5506 53.3566 82.6403 53.2945 82.7438L52.7564 83.4889L53.4739 83.4958H53.4808Z" fill="#18292D"/>
<path d="M95.8361 47.4795H95.8292L95.3739 47.7279L95.3049 47.4588L95.8775 47.1553H96.1811V49.7768H95.8361V47.4864V47.4795Z" fill="#18292D"/>
<path d="M97.1611 49.556C97.1611 49.4043 97.2646 49.3008 97.4026 49.3008C97.5406 49.3008 97.644 49.4043 97.644 49.556C97.644 49.7078 97.5544 49.8113 97.4026 49.8113C97.2646 49.8113 97.168 49.7009 97.168 49.556H97.1611Z" fill="#18292D"/>
<path d="M98.7395 47.4795H98.7326L98.2772 47.7279L98.2083 47.4588L98.7808 47.1553H99.0844V49.7768H98.7395V47.4864V47.4795Z" fill="#18292D"/>
<path d="M101.596 47.445H100.596L100.493 48.121C100.555 48.1141 100.61 48.1072 100.707 48.1072C100.907 48.1072 101.114 48.1486 101.272 48.2452C101.479 48.3625 101.645 48.5901 101.645 48.9213C101.645 49.4318 101.238 49.8181 100.672 49.8181C100.389 49.8181 100.141 49.7353 100.017 49.6594L100.106 49.3904C100.217 49.4525 100.431 49.5353 100.665 49.5353C100.996 49.5353 101.286 49.3145 101.286 48.9696C101.286 48.6315 101.058 48.3901 100.534 48.3901C100.382 48.3901 100.272 48.4039 100.175 48.4177L100.348 47.1621H101.603V47.4588L101.596 47.445Z" fill="#18292D"/>
</g>
<defs>
<filter id="filter0_d_544_13719" x="0" y="0.5" width="150" height="150" filterUnits="userSpaceOnUse" color-interpolation-filters="sRGB">
<feFlood flood-opacity="0" result="BackgroundImageFix"/>
<feColorMatrix in="SourceAlpha" type="matrix" values="0 0 0 0 0 0 0 0 0 0 0 0 0 0 0 0 0 0 127 0" result="hardAlpha"/>
<feOffset dy="4"/>
<feGaussianBlur stdDeviation="7.5"/>
<feComposite in2="hardAlpha" operator="out"/>
<feColorMatrix type="matrix" values="0 0 0 0 0 0 0 0 0 0 0 0 0 0 0 0 0 0 0.03 0"/>
<feBlend mode="normal" in2="BackgroundImageFix" result="effect1_dropShadow_544_13719"/>
<feBlend mode="normal" in="SourceGraphic" in2="effect1_dropShadow_544_13719" result="shape"/>
</filter>
</defs>
</svg>
