<svg width="150" height="150" viewBox="0 0 150 150" fill="none" xmlns="http://www.w3.org/2000/svg">
<g filter="url(#filter0_d_544_15515)">
<rect x="15" y="11" width="120" height="120" rx="10" fill="white"/>
<path d="M75.9787 70.2716C84.153 70.2716 90.7796 63.6451 90.7796 55.4708C90.7796 47.2965 84.153 40.6699 75.9787 40.6699C67.8044 40.6699 61.1779 47.2965 61.1779 55.4708C61.1779 63.6451 67.8044 70.2716 75.9787 70.2716Z" fill="white" stroke="#18292D" stroke-width="1.3" stroke-linecap="round" stroke-linejoin="round"/>
<path d="M75.9778 67.5365C82.6415 67.5365 88.0435 62.1346 88.0435 55.4709C88.0435 48.8072 82.6415 43.4053 75.9778 43.4053C69.3142 43.4053 63.9122 48.8072 63.9122 55.4709C63.9122 62.1346 69.3142 67.5365 75.9778 67.5365Z" fill="white" stroke="#18292D" stroke-width="1.3" stroke-linecap="round" stroke-linejoin="round"/>
<path d="M75.9778 67.5365C82.6415 67.5365 88.0435 62.1346 88.0435 55.4709C88.0435 48.8072 82.6415 43.4053 75.9778 43.4053C69.3142 43.4053 63.9122 48.8072 63.9122 55.4709C63.9122 62.1346 69.3142 67.5365 75.9778 67.5365Z" fill="white" stroke="#18292D" stroke-width="1.3" stroke-linecap="round" stroke-linejoin="round"/>
<path d="M59.506 55.4717H65.3624" stroke="#18292D" stroke-width="1.3" stroke-linecap="round" stroke-linejoin="round"/>
<path d="M86.5929 55.4717H92.4493" stroke="#18292D" stroke-width="1.3" stroke-linecap="round" stroke-linejoin="round"/>
<path d="M59.2472 55.4717H65.097" stroke="#18292D" stroke-width="1.3" stroke-linecap="round" stroke-linejoin="round"/>
<path d="M86.3331 55.4717H92.1829" stroke="#18292D" stroke-width="1.3" stroke-linecap="round" stroke-linejoin="round"/>
<path d="M75.7122 71.9426V66.0928" stroke="#18292D" stroke-width="1.3" stroke-linecap="round" stroke-linejoin="round"/>
<path d="M75.7122 44.8565V39" stroke="#18292D" stroke-width="1.3" stroke-linecap="round" stroke-linejoin="round"/>
<path d="M76.7841 60.9814H74.6878" stroke="#4A7C88" stroke-width="1.3" stroke-linecap="round" stroke-linejoin="round"/>
<path d="M74.0695 58.8652H77.2972" stroke="#4A7C88" stroke-width="1.3" stroke-linecap="round" stroke-linejoin="round"/>
<path d="M77.1434 58.8655C77.1434 58.8655 77.7158 58.5993 77.8954 57.2616C77.9886 56.5761 78.2016 56.5229 78.5543 55.9239C78.5876 55.8641 78.6209 55.8108 78.6541 55.7576C78.8405 55.4581 79.0534 55.1719 79.2664 54.8924C79.892 54.0805 80.2513 53.029 80.2181 51.9243C80.1382 49.422 77.9953 47.4321 75.493 47.5319C73.0705 47.6251 71.1339 49.6216 71.1339 52.0707C71.1339 53.1421 71.4999 54.1271 72.1189 54.9057C72.2852 55.112 72.4316 55.3316 72.5714 55.5513C72.5914 55.5779 72.6047 55.6112 72.6246 55.6378C73.0639 56.3632 73.3434 56.5628 73.4831 57.4014C73.6828 58.6192 74.2152 58.8588 74.2152 58.8588" fill="white"/>
<path d="M77.1434 58.8655C77.1434 58.8655 77.7158 58.5993 77.8954 57.2616C77.9886 56.5761 78.2016 56.5229 78.5543 55.9239C78.5876 55.8641 78.6209 55.8108 78.6541 55.7576C78.8405 55.4581 79.0534 55.1719 79.2664 54.8924C79.892 54.0805 80.2513 53.029 80.2181 51.9243C80.1382 49.422 77.9953 47.4321 75.493 47.5319C73.0705 47.6251 71.1339 49.6216 71.1339 52.0707C71.1339 53.1421 71.4999 54.1271 72.1189 54.9057C72.2852 55.112 72.4316 55.3316 72.5714 55.5513C72.5914 55.5779 72.6047 55.6112 72.6246 55.6378C73.0639 56.3632 73.3434 56.5628 73.4831 57.4014C73.6828 58.6192 74.2152 58.8588 74.2152 58.8588" stroke="#4A7C88" stroke-width="1.3" stroke-linecap="round" stroke-linejoin="round"/>
<path d="M75.3007 58.8656L74.6751 54.2536C74.6751 54.1737 74.6485 54.1005 74.6019 54.034L73.8965 52.9492" fill="white"/>
<path d="M75.3007 58.8656L74.6751 54.2536C74.6751 54.1737 74.6485 54.1005 74.6019 54.034L73.8965 52.9492" stroke="#4A7C88" stroke-width="1.3" stroke-linecap="round" stroke-linejoin="round"/>
<path d="M77.4826 52.9492L76.7771 54.034C76.7372 54.1005 76.7106 54.1737 76.7039 54.2536L76.0784 58.8656" fill="white"/>
<path d="M77.4826 52.9492L76.7771 54.034C76.7372 54.1005 76.7106 54.1737 76.7039 54.2536L76.0784 58.8656" stroke="#4A7C88" stroke-width="1.3" stroke-linecap="round" stroke-linejoin="round"/>
<path d="M107.748 95.541V103.813" stroke="#18292D" stroke-width="1.3" stroke-linecap="round" stroke-linejoin="round"/>
<path d="M97.5 88L95.8668 86.7751C94.8916 86.0437 92.7049 86.8146 91.5 87C89.3333 87.3333 84.7 88.1 83.5 88.5C82.3 88.9 81 91 81 92C80.8333 94.8333 80 100.919 80 102.5C80 104 81.0004 104 81.5 104H113.5C114.7 104 115 103.333 115 103C114.833 101 114.4 96.2 114 93C113.6 89.8 111.5 88.6667 110.5 88.5C109 88.1667 105.7 87.4 104.5 87C104.42 86.9735 104.342 86.9439 104.264 86.9116C102.735 86.2735 100.882 85.745 99.5038 86.6641L97.5 88Z" fill="#7CCFE3" stroke="#18292D" stroke-width="1.3"/>
<path d="M98.0998 91.4679H96.4027C95.9502 91.4679 95.5908 91.1484 95.5908 90.7558V88.9855C95.5908 88.5929 95.9568 88.2734 96.4027 88.2734H98.0998C98.5523 88.2734 98.9117 88.5929 98.9117 88.9855V90.7558C98.9117 91.1484 98.5457 91.4679 98.0998 91.4679Z" fill="white" stroke="#18292D" stroke-width="1.3" stroke-linecap="round" stroke-linejoin="round"/>
<path d="M96.3625 91.7939L95.2578 103.999H99.2441L98.1394 91.7939" fill="white"/>
<path d="M96.3625 91.7939L95.2578 103.999H99.2441L98.1394 91.7939" stroke="#18292D" stroke-width="1.3" stroke-linecap="round" stroke-linejoin="round"/>
<path d="M104.381 74.1648C104.8 73.9252 105.153 74.1448 105.153 75.0832C105.153 76.0215 104.906 76.1147 104.56 78.2576C104.447 78.9564 103.675 78.9498 103.675 78.9498C103.509 80.0944 103.003 81.1592 102.238 82.0177L101.945 82.3438V84.5201C101.945 85.5649 102.637 86.49 103.642 86.7828C105.539 87.3285 108.427 87.8942 110.537 88.4332C111.109 88.5796 111.628 88.8392 112.074 89.1919C112.946 89.884 113.465 90.9355 113.565 92.0469L114.596 103.44C114.616 103.647 114.45 103.826 114.243 103.826L80.1229 103.806C79.9166 103.806 79.7502 103.627 79.7702 103.42L80.9348 91.8473C81.0346 90.8357 81.4805 89.8774 82.2326 89.2052C82.7184 88.7726 83.3107 88.4532 83.9629 88.2868C86.0725 87.7478 89.4533 87.3418 91.3433 86.7961C92.3482 86.5033 93.0404 85.5849 93.0404 84.5334V82.3572L92.7475 82.0311C91.9756 81.1726 91.4764 80.1011 91.3101 78.9631C91.3101 78.9631 90.5381 78.9697 90.4249 78.271C90.0789 76.1347 89.8326 76.0415 89.8326 75.0965C89.8326 74.1515 90.1787 73.9319 90.6046 74.1781" stroke="#18292D" stroke-width="1.3" stroke-linecap="round" stroke-linejoin="round"/>
<path d="M101.945 82.3506L98.8836 84.0144C97.8388 84.4336 96.6675 84.407 95.6359 83.9478L93.0538 82.3506" stroke="#18292D" stroke-width="1.3" stroke-linecap="round" stroke-linejoin="round"/>
<path d="M93.3534 68.0221L95.4164 69.8523C96.3016 70.6375 97.4462 71.0701 98.6242 71.0701H100.534C101.652 71.0701 102.73 71.4694 103.576 72.1948L103.596 72.2081C103.902 72.4743 104.115 72.8337 104.194 73.233L104.481 74.6838L104.9 74.604C104.9 74.604 107.509 63.4102 97.7324 63.4102C89.7863 63.4102 90.0192 70.3181 90.139 74.0516L90.6581 74.371V74.3378C90.9309 72.3013 91.6896 70.358 92.8742 68.681L93.3401 68.0155L93.3534 68.0221Z" fill="#18292D" stroke="#18292D" stroke-width="1.3" stroke-linecap="round" stroke-linejoin="round"/>
<path d="M102.763 86.3237L101.219 90.9556L97.499 87.7612L101.971 84.8662C101.971 84.8662 102.044 85.9244 102.763 86.3237Z" fill="white" stroke="#18292D" stroke-width="1.3" stroke-linecap="round" stroke-linejoin="round"/>
<path d="M92.2344 86.297L93.5987 90.9556L97.4985 87.7612L93.0263 84.8662C93.0263 84.8662 92.8001 85.7247 92.241 86.297H92.2344Z" fill="white" stroke="#18292D" stroke-width="1.3" stroke-linecap="round" stroke-linejoin="round"/>
<path d="M68.4514 74.1645C68.0321 73.925 67.6794 74.1446 67.6794 75.0829C67.6794 76.0213 67.9256 76.1145 68.2717 78.2574C68.3848 78.9562 69.1568 78.9495 69.1568 78.9495C69.3232 80.0942 69.829 81.159 70.5943 82.0175L70.8871 82.3436V84.5198C70.8871 85.5647 70.195 86.4897 69.1901 86.7825C67.2934 87.3283 63.9193 87.7409 61.8096 88.2733C61.1574 88.4396 60.5651 88.7591 60.0793 89.1917C59.3206 89.8705 58.8814 90.8288 58.7816 91.8337L57.6169 103.407C57.597 103.613 57.7567 103.793 57.9696 103.793L92.0901 103.813C92.2964 103.813 92.4628 103.633 92.4428 103.427L91.4113 92.0334C91.3115 90.922 90.799 89.8705 89.9206 89.1784C89.4747 88.8256 88.9556 88.5661 88.3833 88.4197C86.2736 87.8806 83.3853 87.3149 81.4886 86.7692C80.4837 86.4764 79.7916 85.558 79.7916 84.5065V82.3303L80.0844 82.0042C80.8564 81.1457 81.3555 80.0742 81.5219 78.9362C81.5219 78.9362 82.2939 78.9429 82.407 78.2441C82.7531 76.1078 82.9993 76.0147 82.9993 75.0696C82.9993 74.1246 82.6532 73.905 82.2273 74.1512C82.2273 74.1512 85.8077 63.4033 75.5922 63.4033C66.2086 63.4033 68.458 74.1512 68.458 74.1512L68.4514 74.1645Z" fill="white" stroke="#18292D" stroke-width="1.3" stroke-linecap="round" stroke-linejoin="round"/>
<path d="M79.7847 82.3506L76.7234 84.0144C75.6785 84.4336 74.5073 84.407 73.4757 83.9478L70.8936 82.3506" fill="white"/>
<path d="M79.7847 82.3506L76.7234 84.0144C75.6785 84.4336 74.5073 84.407 73.4757 83.9478L70.8936 82.3506" stroke="#18292D" stroke-width="1.3" stroke-linecap="round" stroke-linejoin="round"/>
<path d="M71.1932 68.0221L73.2562 69.8523C74.1413 70.6375 75.286 71.0701 76.464 71.0701H78.374C79.492 71.0701 80.5701 71.4694 81.4153 72.1948L81.4353 72.2081C81.7414 72.4743 81.9544 72.8337 82.0342 73.233L82.3204 74.6838L82.7397 74.604C82.7397 74.604 85.3485 63.4102 75.5722 63.4102C67.626 63.4102 67.859 70.3181 67.9788 74.0516L68.4979 74.371V74.3378C68.7707 72.3013 69.5294 70.358 70.714 68.681L71.1798 68.0155L71.1932 68.0221Z" fill="#18292D" stroke="#18292D" stroke-width="1.3" stroke-linecap="round" stroke-linejoin="round"/>
<path d="M75.5 88L73.8668 86.7751C72.8916 86.0437 70.7049 86.8146 69.5 87C67.3333 87.3333 62.7 88.1 61.5 88.5C60.3 88.9 59 91 59 92C58.8333 94.8333 58 100.919 58 102.5C58 104 59.0004 104 59.5 104H91.5C92.7 104 93 103.333 93 103C92.8333 101 92.4 96.2 92 93C91.6 89.8 89.5 88.6667 88.5 88.5C87 88.1667 83.7 87.4 82.5 87C82.4204 86.9735 82.3419 86.9439 82.2645 86.9116C80.7354 86.2735 78.8824 85.745 77.5038 86.6641L75.5 88Z" fill="#7CCFE3" stroke="#18292D" stroke-width="1.3"/>
<path d="M76.1388 91.4679H74.4418C73.9893 91.4679 73.6299 91.1484 73.6299 90.7558V88.9855C73.6299 88.5929 73.9959 88.2734 74.4418 88.2734H76.1388C76.5914 88.2734 76.9508 88.5929 76.9508 88.9855V90.7558C76.9508 91.1484 76.5847 91.4679 76.1388 91.4679Z" fill="white" stroke="#18292D" stroke-width="1.3" stroke-linecap="round" stroke-linejoin="round"/>
<path d="M74.4006 91.7939L73.2959 103.999H77.2823L76.1775 91.7939" fill="white"/>
<path d="M74.4006 91.7939L73.2959 103.999H77.2823L76.1775 91.7939" stroke="#18292D" stroke-width="1.3" stroke-linecap="round" stroke-linejoin="round"/>
<path d="M80.604 86.3237L79.06 90.9556L75.3398 87.7612L79.812 84.8662C79.812 84.8662 79.8853 85.9244 80.604 86.3237Z" fill="white" stroke="#18292D" stroke-width="1.3" stroke-linecap="round" stroke-linejoin="round"/>
<path d="M70.0752 86.297L71.4395 90.9556L75.3393 87.7612L70.8671 84.8662C70.8671 84.8662 70.6409 85.7247 70.0818 86.297H70.0752Z" fill="white" stroke="#18292D" stroke-width="1.3" stroke-linecap="round" stroke-linejoin="round"/>
<path d="M85.5879 95.541V103.813" stroke="#18292D" stroke-width="1.3" stroke-linecap="round" stroke-linejoin="round"/>
<path d="M60.613 74.1658C61.0323 73.9262 61.385 74.1458 61.385 75.0842C61.385 76.0225 61.1388 76.1157 60.7927 78.2586C60.6796 78.9574 59.9076 78.9507 59.9076 78.9507C59.7412 80.0954 59.2354 81.1602 58.4701 82.0187L58.1773 82.3448V84.521C58.1773 85.5659 58.8694 86.4909 59.8743 86.7838C61.771 87.3295 64.6593 87.8951 66.7689 88.4342C67.3413 88.5806 67.8604 88.8402 68.3063 89.1929C69.1781 89.885 69.6972 90.9365 69.797 92.0479L70.8285 103.441C70.8485 103.648 70.6821 103.827 70.4758 103.827L36.3553 103.807C36.149 103.807 35.9826 103.628 36.0026 103.421L37.1672 91.8482C37.2671 90.8367 37.713 89.8784 38.465 89.2062C38.9508 88.7736 39.5431 88.4542 40.1953 88.2878C42.3049 87.7487 45.6857 87.3428 47.5758 86.7971C48.5807 86.5042 49.2728 85.5858 49.2728 84.5343V82.3581L48.98 82.032C48.208 81.1735 47.7089 80.1021 47.5425 78.9641C47.5425 78.9641 46.7705 78.9707 46.6574 78.2719C46.3113 76.1357 46.0651 76.0425 46.0651 75.0975C46.0651 74.1524 46.4111 73.9328 46.837 74.1791" fill="white"/>
<path d="M60.613 74.1658C61.0323 73.9262 61.385 74.1458 61.385 75.0842C61.385 76.0225 61.1388 76.1157 60.7927 78.2586C60.6796 78.9574 59.9076 78.9507 59.9076 78.9507C59.7412 80.0954 59.2354 81.1602 58.4701 82.0187L58.1773 82.3448V84.521C58.1773 85.5659 58.8694 86.4909 59.8743 86.7838C61.771 87.3295 64.6593 87.8951 66.7689 88.4342C67.3413 88.5806 67.8604 88.8402 68.3063 89.1929C69.1781 89.885 69.6972 90.9365 69.797 92.0479L70.8285 103.441C70.8485 103.648 70.6821 103.827 70.4758 103.827L36.3553 103.807C36.149 103.807 35.9826 103.628 36.0026 103.421L37.1672 91.8482C37.2671 90.8367 37.713 89.8784 38.465 89.2062C38.9508 88.7736 39.5431 88.4542 40.1953 88.2878C42.3049 87.7487 45.6857 87.3428 47.5758 86.7971C48.5807 86.5042 49.2728 85.5858 49.2728 84.5343V82.3581L48.98 82.032C48.208 81.1735 47.7089 80.1021 47.5425 78.9641C47.5425 78.9641 46.7705 78.9707 46.6574 78.2719C46.3113 76.1357 46.0651 76.0425 46.0651 75.0975C46.0651 74.1524 46.4111 73.9328 46.837 74.1791" stroke="#18292D" stroke-width="1.3" stroke-linecap="round" stroke-linejoin="round"/>
<path d="M58.1774 82.3516L55.116 84.0153C54.0712 84.4346 52.8999 84.408 51.8684 83.9488L49.2862 82.3516" fill="white"/>
<path d="M58.1774 82.3516L55.116 84.0153C54.0712 84.4346 52.8999 84.408 51.8684 83.9488L49.2862 82.3516" stroke="#18292D" stroke-width="1.3" stroke-linecap="round" stroke-linejoin="round"/>
<path d="M49.5865 68.0231L51.6496 69.8532C52.5347 70.6385 53.6794 71.0711 54.8573 71.0711H56.7673C57.8854 71.0711 58.9635 71.4704 59.8087 72.1958L59.8287 72.2091C60.1348 72.4753 60.3478 72.8347 60.4276 73.234L60.7138 74.6848L61.133 74.6049C61.133 74.6049 63.7418 63.4111 53.9656 63.4111C46.0194 63.4111 46.2523 70.3191 46.3721 74.0526L46.8912 74.372V74.3387C47.1641 72.3023 47.9228 70.359 49.1074 68.6819L49.5732 68.0164L49.5865 68.0231Z" fill="#18292D" stroke="#18292D" stroke-width="1.3" stroke-linecap="round" stroke-linejoin="round"/>
<path d="M53.5 88L51.8668 86.7751C50.8916 86.0437 48.7049 86.8146 47.5 87C45.3333 87.3333 40.7 88.1 39.5 88.5C38.3 88.9 37 91 37 92C36.8333 94.8333 36 100.919 36 102.5C36 104 37.0004 104 37.5 104H69.5C70.7 104 71 103.333 71 103C70.8333 101 70.4 96.2 70 93C69.6 89.8 67.5 88.6667 66.5 88.5C65 88.1667 61.7 87.4 60.5 87C60.4204 86.9735 60.3419 86.9439 60.2645 86.9116C58.7354 86.2735 56.8824 85.745 55.5038 86.6641L53.5 88Z" fill="#7CCFE3" stroke="#18292D" stroke-width="1.3"/>
<path d="M54.5773 91.2755H52.8803C52.4277 91.2755 52.0684 90.956 52.0684 90.5634V88.7931C52.0684 88.4005 52.4344 88.0811 52.8803 88.0811H54.5773C55.0299 88.0811 55.3892 88.4005 55.3892 88.7931V90.5634C55.3892 90.956 55.0232 91.2755 54.5773 91.2755Z" fill="white" stroke="#18292D" stroke-width="1.3" stroke-linecap="round" stroke-linejoin="round"/>
<path d="M52.8401 91.6016L51.7354 103.807H55.7217L54.617 91.6016" fill="white"/>
<path d="M52.8401 91.6016L51.7354 103.807H55.7217L54.617 91.6016" stroke="#18292D" stroke-width="1.3" stroke-linecap="round" stroke-linejoin="round"/>
<path d="M58.9954 86.3246L57.4514 90.9566L53.7313 87.7621L58.2035 84.8672C58.2035 84.8672 58.2767 85.9253 58.9954 86.3246Z" fill="white" stroke="#18292D" stroke-width="1.3" stroke-linecap="round" stroke-linejoin="round"/>
<path d="M48.4668 86.298L49.8311 90.9566L53.7309 87.7621L49.2587 84.8672C49.2587 84.8672 49.0325 85.7257 48.4735 86.298H48.4668Z" fill="white" stroke="#18292D" stroke-width="1.3" stroke-linecap="round" stroke-linejoin="round"/>
<path d="M43.8301 95.541V103.813" stroke="#18292D" stroke-width="1.3" stroke-linecap="round" stroke-linejoin="round"/>
<path d="M63.9814 95.541V103.813" stroke="#18292D" stroke-width="1.3" stroke-linecap="round" stroke-linejoin="round"/>
</g>
<defs>
<filter id="filter0_d_544_15515" x="0" y="0" width="150" height="150" filterUnits="userSpaceOnUse" color-interpolation-filters="sRGB">
<feFlood flood-opacity="0" result="BackgroundImageFix"/>
<feColorMatrix in="SourceAlpha" type="matrix" values="0 0 0 0 0 0 0 0 0 0 0 0 0 0 0 0 0 0 127 0" result="hardAlpha"/>
<feOffset dy="4"/>
<feGaussianBlur stdDeviation="7.5"/>
<feComposite in2="hardAlpha" operator="out"/>
<feColorMatrix type="matrix" values="0 0 0 0 0 0 0 0 0 0 0 0 0 0 0 0 0 0 0.03 0"/>
<feBlend mode="normal" in2="BackgroundImageFix" result="effect1_dropShadow_544_15515"/>
<feBlend mode="normal" in="SourceGraphic" in2="effect1_dropShadow_544_15515" result="shape"/>
</filter>
</defs>
</svg>
