<svg width="150" height="151" viewBox="0 0 150 151" fill="none" xmlns="http://www.w3.org/2000/svg">
<g filter="url(#filter0_d_544_15887)">
<rect x="15" y="11.75" width="120" height="120" rx="10" fill="white"/>
<path d="M63.0991 53.6985C65.444 53.6985 67.3449 51.7296 67.3449 49.3009C67.3449 46.8722 65.444 44.9033 63.0991 44.9033C60.7543 44.9033 58.8534 46.8722 58.8534 49.3009C58.8534 51.7296 60.7543 53.6985 63.0991 53.6985Z" fill="white" stroke="#18292D" stroke-width="1.3" stroke-linecap="round" stroke-linejoin="round"/>
<path d="M65.7095 56.3265C63.648 56.2564 61.8609 56.3265 60.36 56.3148C56.4472 56.2973 55.5887 61.4307 55.1273 64.2749C55.0456 64.7654 55.4252 65.2151 55.9274 65.2093L70.3874 65.1976C70.8838 65.1976 71.2634 64.7596 71.1875 64.269C70.7612 61.4716 70.0487 56.4725 65.7095 56.3207V56.3265Z" fill="white" stroke="#18292D" stroke-width="1.3" stroke-linecap="round" stroke-linejoin="round"/>
<path d="M97.4564 104.244H52.704C51.2147 104.244 50 103.035 50 101.54V41.954C50 40.4647 51.2147 39.25 52.704 39.25H90.4834C91.1725 39.25 91.8324 39.5128 92.3347 39.9858L99.3077 46.5559C99.8508 47.064 100.155 47.7765 100.155 48.524V101.546C100.155 103.035 98.9456 104.25 97.4506 104.25L97.4564 104.244Z" stroke="#18292D" stroke-width="1.3" stroke-linecap="round" stroke-linejoin="round"/>
<path d="M76.3388 51.4502H93.5086" stroke="#4A7C88" stroke-width="1.3" stroke-linecap="round" stroke-linejoin="round"/>
<path d="M76.3389 55.959H96.3236" stroke="#4A7C88" stroke-width="1.3" stroke-linecap="round" stroke-linejoin="round"/>
<path d="M76.502 60.4912H93.0878" stroke="#4A7C88" stroke-width="1.3" stroke-linecap="round" stroke-linejoin="round"/>
<path d="M64.6716 87.5479H61.8683V99.9814H64.6716V87.5479Z" stroke="#18292D" stroke-width="1.3" stroke-linecap="round" stroke-linejoin="round"/>
<path d="M59.2515 91.21H56.4482V99.9817H59.2515V91.21Z" stroke="#18292D" stroke-width="1.3" stroke-linecap="round" stroke-linejoin="round"/>
<path d="M69.5059 91.21H96.814" stroke="#4A7C88" stroke-width="1.3" stroke-linecap="round" stroke-linejoin="round"/>
<path d="M69.5059 94.7256H93.9991" stroke="#4A7C88" stroke-width="1.3" stroke-linecap="round" stroke-linejoin="round"/>
<path d="M69.5059 98.2412L96.1191 98.3639" stroke="#4A7C88" stroke-width="1.3" stroke-linecap="round" stroke-linejoin="round"/>
<path d="M64.1791 80.7667C64.1791 81.8238 62.4213 82.6822 60.2546 82.6822C58.0879 82.6822 56.3301 81.8238 56.3301 80.7667V77.251H64.1791V80.7667Z" stroke="#18292D" stroke-width="1.3" stroke-linecap="round" stroke-linejoin="round"/>
<path d="M60.2603 79.9081L53.6318 77.2567L60.237 74.5586L66.8654 77.21L60.2603 79.9081Z" fill="#18292D" stroke="#18292D" stroke-width="1.3" stroke-linecap="round" stroke-linejoin="round"/>
<path d="M69.5059 74.5947H93.0881" stroke="#4A7C88" stroke-width="1.3" stroke-linecap="round" stroke-linejoin="round"/>
<path d="M70.002 78.6182H86.3308" stroke="#4A7C88" stroke-width="1.3" stroke-linecap="round" stroke-linejoin="round"/>
<path d="M70.002 82.4023H90.0451" stroke="#4A7C88" stroke-width="1.3" stroke-linecap="round" stroke-linejoin="round"/>
<path d="M91.5526 39.7109V47.3556H99.7462" fill="#18292D"/>
<path d="M91.5526 39.7109V47.3556H99.7462" stroke="#18292D" stroke-width="1.3" stroke-linecap="round" stroke-linejoin="round"/>
</g>
<defs>
<filter id="filter0_d_544_15887" x="0" y="0.75" width="150" height="150" filterUnits="userSpaceOnUse" color-interpolation-filters="sRGB">
<feFlood flood-opacity="0" result="BackgroundImageFix"/>
<feColorMatrix in="SourceAlpha" type="matrix" values="0 0 0 0 0 0 0 0 0 0 0 0 0 0 0 0 0 0 127 0" result="hardAlpha"/>
<feOffset dy="4"/>
<feGaussianBlur stdDeviation="7.5"/>
<feComposite in2="hardAlpha" operator="out"/>
<feColorMatrix type="matrix" values="0 0 0 0 0 0 0 0 0 0 0 0 0 0 0 0 0 0 0.03 0"/>
<feBlend mode="normal" in2="BackgroundImageFix" result="effect1_dropShadow_544_15887"/>
<feBlend mode="normal" in="SourceGraphic" in2="effect1_dropShadow_544_15887" result="shape"/>
</filter>
</defs>
</svg>
