<svg width="150" height="150" viewBox="0 0 150 150" fill="none" xmlns="http://www.w3.org/2000/svg">
<g filter="url(#filter0_d_544_14825)">
<rect x="15" y="11" width="120" height="120" rx="10" fill="white"/>
<path d="M73.3495 46.8657C73.3495 47.8869 72.5186 48.7177 71.4974 48.7177C70.4763 48.7177 69.6454 47.8869 69.6454 46.8657C69.6454 45.8446 70.4763 45.0137 71.4974 45.0137C72.5186 45.0137 73.3495 45.8446 73.3495 46.8657Z" fill="white" stroke="#18292D" stroke-width="1.3" stroke-linecap="round" stroke-linejoin="round"/>
<path d="M73.018 60.2498C73.018 61.4168 72.0729 62.3619 70.9059 62.3619C69.7389 62.3619 68.7938 61.4168 68.7938 60.2498C68.7938 59.0827 69.7389 58.1377 70.9059 58.1377C72.0729 58.1377 73.018 59.0827 73.018 60.2498Z" fill="white" stroke="#18292D" stroke-width="1.3" stroke-linecap="round" stroke-linejoin="round"/>
<path d="M84.5672 46.8657C84.5672 47.8869 83.7364 48.7177 82.7152 48.7177C81.694 48.7177 80.8632 47.8869 80.8632 46.8657C80.8632 45.8446 81.694 45.0137 82.7152 45.0137C83.7364 45.0137 84.5672 45.8446 84.5672 46.8657Z" fill="white" stroke="#18292D" stroke-width="1.3" stroke-linecap="round" stroke-linejoin="round"/>
<path d="M94.8683 38.5H61.6205C60.9418 38.5 60.3964 39.0011 60.3964 39.6226V39.648C60.3964 40.2696 60.9418 40.7706 61.6205 40.7706H94.8493C95.5343 40.7706 96.0861 40.2632 96.0861 39.6353V39.61C96.0861 38.9947 95.5407 38.5 94.8747 38.5H94.8683Z" fill="#18292D" stroke="#18292D" stroke-width="1.3" stroke-linecap="round" stroke-linejoin="round"/>
<path d="M94.058 66.0462H63.0681C62.3324 66.0462 61.7361 65.5008 61.7361 64.8221V40.7773H95.0347V64.9426C95.0347 65.5515 94.5971 66.0399 94.058 66.0399V66.0462Z" stroke="#18292D" stroke-width="1.3" stroke-linecap="round" stroke-linejoin="round"/>
<path d="M74.748 50.4375L77.2026 53.8181" stroke="#18292D" stroke-width="1.3" stroke-linecap="round" stroke-linejoin="round"/>
<path d="M77.2026 50.4375L74.748 53.8181" stroke="#18292D" stroke-width="1.3" stroke-linecap="round" stroke-linejoin="round"/>
<path d="M85.7041 51.0205L88.1587 54.4075" stroke="#18292D" stroke-width="1.3" stroke-linecap="round" stroke-linejoin="round"/>
<path d="M88.1587 51.0205L85.7041 54.4075" stroke="#18292D" stroke-width="1.3" stroke-linecap="round" stroke-linejoin="round"/>
<path d="M75.493 60.0515C75.493 60.0515 79.8758 59.1572 81.7785 54.7871" stroke="#18292D" stroke-width="1.3" stroke-linecap="round" stroke-linejoin="round"/>
<path d="M78.6395 55.6943L81.9313 54.3877L82.9588 57.2292" stroke="#18292D" stroke-width="1.3" stroke-linecap="round" stroke-linejoin="round"/>
<path d="M52.2186 47.8622L52.7958 43.1877C52.7958 43.1877 60.3435 41.8621 63.4323 49.118C64.8911 52.543 64.5106 56.1393 63.5084 59.7228C62.8044 62.2408 62.5887 63.3318 63.6543 63.7821C65.3034 64.4734 65.944 63.3825 65.944 63.3825C65.2843 65.7039 63.3689 66.3826 60.5337 66.2811C60.5337 66.2811 59.2716 66.2303 58.7832 65.9195L58.669 62.6024C57.4132 63.3445 56.354 64.4798 54.8825 64.4227C53.633 64.372 52.7577 63.7504 52.022 63.2747C51.2736 62.7863 50.6837 62.4375 50.6837 62.4375L50.5695 65.9195C49.9289 66.1923 49.3771 66.2811 49.3771 66.2811C46.4786 66.6236 44.3094 65.9893 43.2502 63.8772C43.2502 63.8772 43.9859 64.4227 45.4955 63.9407C46.6815 63.5601 46.8972 62.2408 46.1931 59.7228C45.191 56.1393 44.6582 52.8855 45.7618 49.3273C47.449 43.9108 52.7894 43.1877 52.7894 43.1877" fill="#18292D"/>
<path d="M52.2186 47.8622L52.7958 43.1877C52.7958 43.1877 60.3435 41.8621 63.4323 49.118C64.8911 52.543 64.5106 56.1393 63.5084 59.7228C62.8044 62.2408 62.5887 63.3318 63.6543 63.7821C65.3034 64.4734 65.944 63.3825 65.944 63.3825C65.2843 65.7039 63.3689 66.3826 60.5337 66.2811C60.5337 66.2811 59.2716 66.2303 58.7832 65.9195L58.669 62.6024C57.4132 63.3445 56.354 64.4798 54.8825 64.4227C53.633 64.372 52.7577 63.7504 52.022 63.2747C51.2736 62.7863 50.6837 62.4375 50.6837 62.4375L50.5695 65.9195C49.9289 66.1923 49.3771 66.2811 49.3771 66.2811C46.4786 66.6236 44.3094 65.9893 43.2502 63.8772C43.2502 63.8772 43.9859 64.4227 45.4955 63.9407C46.6815 63.5601 46.8972 62.2408 46.1931 59.7228C45.191 56.1393 44.6582 52.8855 45.7618 49.3273C47.449 43.9108 52.7894 43.1877 52.7894 43.1877" stroke="#18292D" stroke-width="1.3" stroke-linecap="round" stroke-linejoin="round"/>
<path d="M48.0381 53.0383C48.0381 53.0383 51.6407 51.7825 52.2179 47.8564C52.2179 47.8564 54.3299 52.0299 61.5415 52.569" stroke="#18292D" stroke-width="1.3" stroke-linecap="round" stroke-linejoin="round"/>
<path d="M50.6894 62.4375V65.1648C50.6894 66.3319 49.922 67.3594 48.8057 67.6828C46.6936 68.2917 43.5287 68.926 41.1692 69.5222C39.5328 69.9408 38.258 71.2156 37.8584 72.852L36 84.6429C36 85.8987 37.0846 86.0129 37.0846 86.0129C48.4822 89.3555 60.5902 89.3618 71.9815 86.0383C72.4445 85.9051 72.8505 85.5943 73.0344 85.1503C73.0978 84.9981 73.1422 84.8205 73.1359 84.6366L71.3282 72.6808C70.9287 71.0444 69.6538 69.7695 68.0174 69.3509C65.6643 68.7547 62.6896 68.2981 60.5775 67.6892C59.4486 67.3657 58.6748 66.3382 58.6748 65.1648V62.6024" fill="white"/>
<path d="M50.6894 62.4375V65.1648C50.6894 66.3319 49.922 67.3594 48.8057 67.6828C46.6936 68.2917 43.5287 68.926 41.1692 69.5222C39.5328 69.9408 38.258 71.2156 37.8584 72.852L36 84.6429C36 85.8987 37.0846 86.0129 37.0846 86.0129C48.4822 89.3555 60.5902 89.3618 71.9815 86.0383C72.4445 85.9051 72.8505 85.5943 73.0344 85.1503C73.0978 84.9981 73.1422 84.8205 73.1359 84.6366L71.3282 72.6808C70.9287 71.0444 69.6538 69.7695 68.0174 69.3509C65.6643 68.7547 62.6896 68.2981 60.5775 67.6892C59.4486 67.3657 58.6748 66.3382 58.6748 65.1648V62.6024" stroke="#18292D" stroke-width="1.3" stroke-linecap="round" stroke-linejoin="round"/>
<path d="M38.0001 72C39.0003 69.5 45.1668 68.1667 48.5001 67.5L54.3266 76.2394C54.4076 76.361 54.5874 76.3574 54.6636 76.2327L60.0003 67.5C61.667 67.8333 66.2003 68.7 69.0003 69.5C72.7901 70.5828 73.5003 82 73.5003 84C73.5003 85.6492 72.167 86.3333 71.5003 86.5C54.5003 91.5 39.5001 86.5 37.5001 86C35.9001 85.6 36 85 36.0001 84.5C36.5001 81.1667 37.2425 73.8937 38.0001 72Z" fill="#4A7C88" stroke="#18292D" stroke-width="1.3"/>
<path d="M49.9027 67.043L44.8604 71.6731L49.7822 72.7323L53.2009 75.9733C53.5941 76.3476 54.1142 76.5505 54.6533 76.5505L49.9027 67.043Z" fill="white" stroke="#18292D" stroke-width="1.3" stroke-linecap="round" stroke-linejoin="round"/>
<path d="M59.5954 67.1567L64.7075 71.6663L59.7856 72.7255L56.2338 75.9349C55.8025 76.3281 55.238 76.5438 54.6545 76.5438L59.5954 67.1504V67.1567Z" fill="white" stroke="#18292D" stroke-width="1.3" stroke-linecap="round" stroke-linejoin="round"/>
<path d="M48.0396 53.037C48.084 53.4049 48.1474 53.684 48.1918 53.8426C47.7922 53.5889 47.4561 53.8235 47.4561 54.7939C47.4561 55.7644 47.6971 55.8658 48.0269 58.0857C48.1347 58.8088 48.8768 58.8025 48.8768 58.8025C49.0417 59.9885 49.5174 61.0921 50.2531 61.9864L50.4624 62.2465C50.5068 62.2972 50.5576 62.3416 50.6147 62.3797L53.3674 64.0985C54.3822 64.5362 55.5238 64.5108 56.5196 64.0288L58.9679 62.386C59.0123 62.3543 59.0503 62.3226 59.082 62.2782L59.323 61.9864C60.0588 61.0921 60.5408 59.9822 60.6994 58.8025C60.6994 58.8025 61.4351 58.8088 61.5493 58.0857C61.8791 55.8658 62.1201 55.7707 62.1201 54.7939C62.1201 53.8172 61.784 53.5889 61.3844 53.8426C61.4542 53.5952 61.5683 53.0688 61.5873 52.3457" fill="white"/>
<path d="M48.0396 53.037C48.084 53.4049 48.1474 53.684 48.1918 53.8426C47.7922 53.5889 47.4561 53.8235 47.4561 54.7939C47.4561 55.7644 47.6971 55.8658 48.0269 58.0857C48.1347 58.8088 48.8768 58.8025 48.8768 58.8025C49.0417 59.9885 49.5174 61.0921 50.2531 61.9864L50.4624 62.2465C50.5068 62.2972 50.5576 62.3416 50.6147 62.3797L53.3674 64.0985C54.3822 64.5362 55.5238 64.5108 56.5196 64.0288L58.9679 62.386C59.0123 62.3543 59.0503 62.3226 59.082 62.2782L59.323 61.9864C60.0588 61.0921 60.5408 59.9822 60.6994 58.8025C60.6994 58.8025 61.4351 58.8088 61.5493 58.0857C61.8791 55.8658 62.1201 55.7707 62.1201 54.7939C62.1201 53.8172 61.784 53.5889 61.3844 53.8426C61.4542 53.5952 61.5683 53.0688 61.5873 52.3457C58.8572 53.4223 54.0582 50.2305 52 48.5C52 50.1 49.3597 52.1914 48.0396 53.037Z" fill="white"/>
<path d="M48.0396 53.037C48.084 53.4049 48.1474 53.684 48.1918 53.8426C47.7922 53.5889 47.4561 53.8235 47.4561 54.7939C47.4561 55.7644 47.6971 55.8658 48.0269 58.0857C48.1347 58.8088 48.8768 58.8025 48.8768 58.8025C49.0417 59.9885 49.5174 61.0921 50.2531 61.9864L50.4624 62.2465C50.5068 62.2972 50.5576 62.3416 50.6147 62.3797L53.3674 64.0985C54.3822 64.5362 55.5238 64.5108 56.5196 64.0288L58.9679 62.386C59.0123 62.3543 59.0503 62.3226 59.082 62.2782L59.323 61.9864C60.0588 61.0921 60.5408 59.9822 60.6994 58.8025C60.6994 58.8025 61.4351 58.8088 61.5493 58.0857C61.8791 55.8658 62.1201 55.7707 62.1201 54.7939C62.1201 53.8172 61.784 53.5889 61.3844 53.8426C61.4542 53.5952 61.5683 53.0688 61.5873 52.3457C58.8572 53.4223 54.0582 50.2305 52 48.5C52 50.1 49.3597 52.1914 48.0396 53.037Z" stroke="#18292D" stroke-width="1.3" stroke-linecap="round" stroke-linejoin="round"/>
<path d="M43.2705 79.3164V87.454" stroke="#18292D" stroke-width="1.3" stroke-linecap="round" stroke-linejoin="round"/>
<path d="M65.7294 79.3164V87.454" stroke="#18292D" stroke-width="1.3" stroke-linecap="round" stroke-linejoin="round"/>
<path d="M90.1525 78.9023V81.1413C90.1525 82.3147 89.3787 83.3485 88.2497 83.6783C86.1249 84.2935 82.9473 84.9278 80.5815 85.5303C79.5921 85.7841 78.7358 86.3422 78.1206 87.1097C77.5878 87.7756 77.2834 88.5938 77.1819 89.4374L75.9324 98.9893C75.8373 99.6046 76.1354 100.213 76.6745 100.524H76.6872C76.776 100.581 76.8648 100.619 76.9662 100.651C88.3195 104.444 100.592 104.45 111.952 100.67C112.041 100.638 112.13 100.6 112.212 100.556L112.301 100.505C112.846 100.207 113.151 99.5982 113.062 98.983L111.958 89.3422C111.831 88.1372 111.267 86.9955 110.328 86.2344C109.821 85.8221 109.218 85.5177 108.559 85.3464C106.193 84.7439 103.675 84.2872 101.55 83.672C100.421 83.3485 99.6473 82.3083 99.6473 81.1349V79.0355" fill="white"/>
<path d="M90.1525 78.9023V81.1413C90.1525 82.3147 89.3787 83.3485 88.2497 83.6783C86.1249 84.2935 82.9473 84.9278 80.5815 85.5303C79.5921 85.7841 78.7358 86.3422 78.1206 87.1097C77.5878 87.7756 77.2834 88.5938 77.1819 89.4374L75.9324 98.9893C75.8373 99.6046 76.1354 100.213 76.6745 100.524H76.6872C76.776 100.581 76.8648 100.619 76.9662 100.651C88.3195 104.444 100.592 104.45 111.952 100.67C112.041 100.638 112.13 100.6 112.212 100.556L112.301 100.505C112.846 100.207 113.151 99.5982 113.062 98.983L111.958 89.3422C111.831 88.1372 111.267 86.9955 110.328 86.2344C109.821 85.8221 109.218 85.5177 108.559 85.3464C106.193 84.7439 103.675 84.2872 101.55 83.672C100.421 83.3485 99.6473 82.3083 99.6473 81.1349V79.0355" stroke="#18292D" stroke-width="1.3" stroke-linecap="round" stroke-linejoin="round"/>
<path d="M90.4701 63.1215L92.7345 65.1257C93.7049 65.9883 94.9607 66.464 96.2546 66.464H98.354C99.5781 66.464 100.764 66.9016 101.69 67.7008L101.709 67.7198C102.045 68.0116 102.28 68.4048 102.363 68.8425L102.68 70.4345L103.143 70.3457C103.143 70.3457 106.003 58.0664 95.2842 58.0664C86.5695 58.0664 86.8232 65.6395 86.95 69.7368L87.5208 70.0856V70.0539C87.8253 67.7959 88.6562 65.6775 89.9501 63.8445L90.4638 63.1151L90.4701 63.1215Z" fill="#18292D" stroke="#18292D" stroke-width="1.3" stroke-linecap="round" stroke-linejoin="round"/>
<path d="M78.0001 87C79.0003 84.5 85.1668 83.1667 88.5001 82.5L94.3266 91.2394C94.4076 91.361 94.5874 91.3574 94.6636 91.2327L100 82.5C101.667 82.8333 106.2 83.7 109 84.5C112.79 85.5828 113.5 97 113.5 99C113.5 100.649 112.167 101.333 111.5 101.5C94.5003 106.5 79.5001 101.5 77.5001 101C75.9001 100.6 76 100 76.0001 99.5C76.5001 96.1667 77.2425 88.8937 78.0001 87Z" fill="#7CCFE3" stroke="#18292D" stroke-width="1.3"/>
<path d="M83.7597 93.2314V102.308" stroke="#18292D" stroke-width="1.3" stroke-linecap="round" stroke-linejoin="round"/>
<path d="M105.863 93.2314V102.308" stroke="#18292D" stroke-width="1.3" stroke-linecap="round" stroke-linejoin="round"/>
<path d="M95.9867 88.6128L97.1982 103.34H97.1728C95.7394 103.537 94.2869 103.55 92.8472 103.385H92.8281L94.0396 88.6064" fill="white"/>
<path d="M95.9867 88.6128L97.1982 103.34H97.1728C95.7394 103.537 94.2869 103.55 92.8472 103.385H92.8281L94.0396 88.6064" stroke="#18292D" stroke-width="1.3" stroke-linecap="round" stroke-linejoin="round"/>
<path d="M94.0779 88.6124H95.9363C96.431 88.6124 96.8306 88.2636 96.8306 87.8323V85.8915C96.8306 85.4602 96.431 85.1113 95.9363 85.1113H94.0779C93.5832 85.1113 93.1836 85.4602 93.1836 85.8915V87.8323C93.1836 88.2636 93.5832 88.6124 94.0779 88.6124Z" fill="white" stroke="#18292D" stroke-width="1.3" stroke-linecap="round" stroke-linejoin="round"/>
<path d="M100.753 83.2981L98.9137 88.4991L94.8037 85.0106L99.7256 81.833C99.7256 81.833 99.9729 82.7717 100.753 83.2981Z" fill="white" stroke="#18292D" stroke-width="1.3" stroke-linecap="round" stroke-linejoin="round"/>
<path d="M89.0127 83.3176L90.5603 88.4995L94.8352 84.992L90.0909 81.7256C90.148 81.751 89.8245 82.7848 89.0127 83.3112V83.3176Z" fill="white" stroke="#18292D" stroke-width="1.3" stroke-linecap="round" stroke-linejoin="round"/>
<path d="M102.558 69.9268C102.558 69.9268 103.008 65.9626 95.9808 66.451C93.4945 66.6223 90.9448 63.1909 90.4691 63.1212C90.3803 63.1085 89.245 64.7195 88.5092 66.4447C87.7862 68.1318 87.4627 69.9268 87.4627 69.9268C86.9997 69.6604 86.6191 69.9077 86.6191 70.9352C86.6191 71.9627 86.8919 72.0642 87.2724 74.411C87.3993 75.1784 88.2428 75.1721 88.2428 75.1721C88.4268 76.4216 88.9786 77.595 89.8222 78.54L90.0568 78.8001C90.1139 78.8635 90.1773 78.9142 90.2471 78.9586L92.9744 80.6521C94.1034 81.1532 95.3846 81.1849 96.5326 80.7219L99.7229 78.984C99.8181 78.9079 100.205 78.5273 100.205 78.5273C101.049 77.5823 101.6 76.4089 101.784 75.1594C101.784 75.1594 102.628 75.1657 102.755 74.3983C103.135 72.0515 103.408 71.9501 103.408 70.9226C103.408 69.8951 103.027 69.6477 102.564 69.9141" fill="white"/>
<path d="M102.558 69.9268C102.558 69.9268 103.008 65.9626 95.9808 66.451C93.4945 66.6223 90.9448 63.1909 90.4691 63.1212C90.3803 63.1085 89.245 64.7195 88.5092 66.4447C87.7862 68.1318 87.4627 69.9268 87.4627 69.9268C86.9997 69.6604 86.6191 69.9077 86.6191 70.9352C86.6191 71.9627 86.8919 72.0642 87.2724 74.411C87.3993 75.1784 88.2428 75.1721 88.2428 75.1721C88.4268 76.4216 88.9786 77.595 89.8222 78.54L90.0568 78.8001C90.1139 78.8635 90.1773 78.9142 90.2471 78.9586L92.9744 80.6521C94.1034 81.1532 95.3846 81.1849 96.5326 80.7219L99.7229 78.984C99.8181 78.9079 100.205 78.5273 100.205 78.5273C101.049 77.5823 101.6 76.4089 101.784 75.1594C101.784 75.1594 102.628 75.1657 102.755 74.3983C103.135 72.0515 103.408 71.9501 103.408 70.9226C103.408 69.8951 103.027 69.6477 102.564 69.9141" stroke="#18292D" stroke-width="1.3" stroke-linecap="round" stroke-linejoin="round"/>
</g>
<defs>
<filter id="filter0_d_544_14825" x="0" y="0" width="150" height="150" filterUnits="userSpaceOnUse" color-interpolation-filters="sRGB">
<feFlood flood-opacity="0" result="BackgroundImageFix"/>
<feColorMatrix in="SourceAlpha" type="matrix" values="0 0 0 0 0 0 0 0 0 0 0 0 0 0 0 0 0 0 127 0" result="hardAlpha"/>
<feOffset dy="4"/>
<feGaussianBlur stdDeviation="7.5"/>
<feComposite in2="hardAlpha" operator="out"/>
<feColorMatrix type="matrix" values="0 0 0 0 0 0 0 0 0 0 0 0 0 0 0 0 0 0 0.03 0"/>
<feBlend mode="normal" in2="BackgroundImageFix" result="effect1_dropShadow_544_14825"/>
<feBlend mode="normal" in="SourceGraphic" in2="effect1_dropShadow_544_14825" result="shape"/>
</filter>
</defs>
</svg>
