<svg width="82" height="83" viewBox="0 0 82 83" fill="none" xmlns="http://www.w3.org/2000/svg">
<rect x="0.5" y="1" width="81" height="81" rx="40.5" fill="#F2F7F8" stroke="#18292D"/>
<mask id="mask0_548_52176" style="mask-type:alpha" maskUnits="userSpaceOnUse" x="1" y="1" width="80" height="81">
<rect x="1" y="1.5" width="80" height="80" rx="40" fill="#F2F7F8"/>
</mask>
<g mask="url(#mask0_548_52176)">
<path d="M60.8579 77.1954L79.7469 85.3764C81.6336 86.162 82.9883 84.2289 84.7792 83.3134C87.5598 81.8937 88.364 78.9306 86.5639 76.716L71.9092 58.6776C68.977 55.068 64.4086 52.5039 59.166 51.5265L44.0381 49.6367V83.5299H61.0063L60.8579 77.1923V77.1954Z" fill="#18292D"/>
<path d="M25.7057 78.2031L15.4709 83.52C11.1624 85.4407 5.14029 84.2252 3.34944 83.3097L5.37226 84.0922C2.59165 82.6725 -0.232267 78.9269 1.56477 76.7123L16.2194 58.6738C19.1516 55.0643 23.72 52.5002 28.9626 51.5228L44.0905 48.7051V83.5262H25.5046L25.7057 78.2V78.2031Z" fill="#18292D"/>
<path d="M44.2234 81.6366C42.182 79.8519 39.5963 78.8127 36.8868 78.6797L21.1187 77.9219L21.6445 80.8633L44.2234 81.6366Z" fill="white"/>
<path d="M44.2235 81.9448C44.2235 81.9448 44.2173 81.9448 44.2142 81.9448L21.6353 81.1716C21.4899 81.1654 21.3662 81.0602 21.3415 80.9179L20.8156 77.9765C20.8002 77.8837 20.8249 77.7878 20.8868 77.7167C20.9486 77.6455 21.0414 77.6084 21.1342 77.6115L36.9024 78.3693C39.6675 78.5023 42.3399 79.5787 44.4277 81.4004C44.5266 81.487 44.5607 81.6262 44.5112 81.7469C44.4648 81.8644 44.3503 81.9417 44.2235 81.9417V81.9448ZM21.9044 80.5622L43.308 81.2953C41.446 79.9127 39.1943 79.1023 36.8714 78.991L21.493 78.2518L21.9075 80.5653L21.9044 80.5622Z" fill="#18292D"/>
<path d="M61.8137 30.0943C61.9559 29.287 61.7765 28.4705 61.3033 27.7993C60.9322 27.2704 60.4125 26.8868 59.8156 26.6734C59.9177 26.5652 60.0197 26.4569 60.1094 26.3332C60.5796 25.662 60.762 24.8455 60.6198 24.0382C60.36 22.5659 59.0887 21.4988 57.5948 21.4988C57.5886 21.4988 57.5793 21.4988 57.5732 21.4988C57.9412 20.639 57.9258 19.6245 57.4216 18.7522C56.8741 17.8027 55.8534 17.215 54.7585 17.215C54.3935 17.215 54.0348 17.2861 53.6945 17.413C53.7038 17.2645 53.7131 17.116 53.6976 16.9645C53.6265 16.1479 53.2398 15.4056 52.612 14.8798C52.0583 14.4158 51.3593 14.1622 50.6386 14.1622C49.918 14.1622 49.2066 14.4344 48.6529 14.9045C48.3838 14.0014 47.7188 13.2312 46.7693 12.8848C46.429 12.7611 46.0764 12.6992 45.7177 12.6992C44.6042 12.6992 43.5897 13.3085 43.0515 14.255C42.4916 13.5034 41.604 13.0116 40.5956 13.0116C39.077 13.0116 37.8212 14.1189 37.5738 15.5695C37.082 15.2448 36.5005 15.0561 35.885 15.0561C35.5262 15.0561 35.1736 15.118 34.8334 15.2417C34.0632 15.5231 33.4446 16.0861 33.0982 16.8315C32.826 17.4161 32.7518 18.0532 32.8662 18.6749C32.6373 18.6192 32.3992 18.5883 32.1579 18.5883C31.4372 18.5883 30.7351 18.845 30.1846 19.3059C29.5567 19.8348 29.1701 20.574 29.0989 21.3906C29.0432 22.0308 29.1917 22.6556 29.5103 23.2C28.5546 23.3144 27.6947 23.8681 27.206 24.7125C26.7946 25.4239 26.6864 26.2528 26.8998 27.0446C27.0668 27.6694 27.4225 28.2045 27.9112 28.6096C27.0668 29.0334 26.4327 29.8283 26.2595 30.815C26.1173 31.6222 26.2967 32.4388 26.7699 33.11C27.141 33.6389 27.6607 34.0224 28.2576 34.2358C27.6143 34.9194 27.2802 35.8813 27.4565 36.8742C27.7163 38.3464 28.9876 39.4135 30.4784 39.4135C30.4846 39.4135 30.4939 39.4135 30.5001 39.4135C30.132 40.2734 30.1474 41.2879 30.6516 42.1601C31.1991 43.1097 32.2198 43.6973 33.3147 43.6973C33.6797 43.6973 34.0385 43.6262 34.3787 43.4994C34.3694 43.6479 34.3601 43.7963 34.3756 43.9479C34.4467 44.7644 34.8334 45.5067 35.4612 46.0326C36.0149 46.4965 36.7139 46.7501 37.4346 46.7501C38.1552 46.7501 38.8666 46.478 39.4203 46.0078C39.6894 46.911 40.3544 47.6811 41.307 48.0275C41.6473 48.1513 41.9999 48.2131 42.3586 48.2131C43.4721 48.2131 44.4866 47.6038 45.0279 46.6573C45.5877 47.409 46.4754 47.9007 47.4838 47.9007C49.0024 47.9007 50.2582 46.7934 50.5056 45.3428C50.9974 45.6676 51.5789 45.8563 52.1944 45.8563C52.5532 45.8563 52.9058 45.7944 53.246 45.6707C54.0162 45.3892 54.6317 44.8263 54.9812 44.0809C55.2534 43.4963 55.3276 42.8591 55.2132 42.2374C55.4421 42.2931 55.6802 42.324 55.9215 42.324C56.6422 42.324 57.3443 42.0673 57.8948 41.6065C59.0547 40.6322 59.3052 38.9774 58.5691 37.7093C59.5248 37.5979 60.3878 37.0412 60.8734 36.1968C61.2848 35.4854 61.393 34.6596 61.1796 33.8647C61.0126 33.2399 60.6569 32.7048 60.1682 32.2996C61.0126 31.8759 61.6466 31.081 61.8229 30.0943H61.8137Z" fill="#18292D"/>
<path d="M46.797 50.1864C46.8248 50.0008 46.8434 49.8152 46.8434 49.6203V35.2286C46.8434 33.0449 45.0742 31.2757 42.8936 31.2695C40.7099 31.2757 38.9438 33.0449 38.9438 35.2286V49.6203C38.9438 49.775 38.9345 50.1059 38.9531 50.2544C37.6819 50.3534 36.6581 50.4214 36.3704 50.5111C36.3302 50.5235 36.3148 50.5699 36.3426 50.6039C36.5746 50.8947 37.4499 51.7824 37.8396 52.0917C39.9027 53.7464 42.5348 54.3465 44.9783 53.799C46.3083 53.5021 47.5362 52.8216 48.7023 52.0298C49.1817 51.7019 49.6704 51.371 50.1189 50.9844C50.1838 50.9287 50.2457 50.873 50.3075 50.8173C50.3477 50.7802 50.3849 50.74 50.422 50.6998C49.3054 50.4833 48.0868 50.3101 46.797 50.1833V50.1864Z" fill="white"/>
<path d="M43.1689 54.3081C41.1986 54.3081 39.2531 53.6245 37.6417 52.3348C37.2427 52.0162 36.355 51.1223 36.0983 50.7975C36.0209 50.7017 35.9962 50.5748 36.0333 50.4573C36.0704 50.3429 36.1601 50.2501 36.2777 50.216C36.556 50.1325 37.2365 50.0769 38.5139 49.9779L38.6314 49.9686C38.6314 49.8975 38.6314 49.8201 38.6314 49.7366V49.6191V35.2273C38.6314 32.8797 40.5429 30.9652 42.8905 30.959C45.2412 30.9652 47.1496 32.8797 47.1496 35.2273V49.6191C47.1496 49.7119 47.1465 49.8078 47.1372 49.9067C48.3249 50.0336 49.4477 50.1975 50.4777 50.3954C50.5921 50.4171 50.6818 50.5006 50.7158 50.612C50.7498 50.7233 50.7158 50.8408 50.6354 50.9213L50.5952 50.9646C50.5705 50.9924 50.5426 51.0171 50.5148 51.045C50.4498 51.1037 50.3849 51.1625 50.3168 51.2213C49.8653 51.611 49.3735 51.945 48.9002 52.2667L48.8724 52.2853C47.4403 53.2596 46.2248 53.8349 45.0433 54.1009C44.4216 54.24 43.7937 54.3081 43.172 54.3081H43.1689ZM36.8746 50.7388C37.2241 51.1099 37.753 51.6296 38.0283 51.8492C40.0047 53.4328 42.5132 54.0328 44.9072 53.4946C46.0114 53.2472 47.1589 52.6997 48.526 51.7718L48.5538 51.7533C48.9528 51.4811 49.3673 51.1996 49.7477 50.8872C48.8167 50.7264 47.8177 50.5903 46.7692 50.4882C46.6856 50.479 46.6083 50.4387 46.5557 50.3707C46.5032 50.3057 46.4815 50.2191 46.4939 50.1356C46.5217 49.9377 46.5372 49.7707 46.5372 49.616V35.2242C46.5372 33.2169 44.9041 31.5807 42.8967 31.5745C40.8893 31.5807 39.2562 33.2169 39.2562 35.2242V49.7397C39.2562 49.8913 39.2531 50.1171 39.2624 50.216C39.2717 50.2996 39.247 50.3831 39.1944 50.448C39.1418 50.513 39.0645 50.5532 38.981 50.5594L38.5665 50.5903C37.9139 50.6398 37.2891 50.6862 36.8808 50.7357L36.8746 50.7388Z" fill="#18292D"/>
<path d="M42.8998 31.5804C42.8998 31.5804 42.8658 31.5804 42.8565 31.5804C42.6926 31.5649 42.5689 31.4226 42.5751 31.2587C42.5812 31.1009 42.705 30.9772 42.8596 30.9648C42.8596 30.9648 42.8689 30.9648 42.8751 30.9648H42.8998C43.0699 30.9648 43.2091 31.104 43.2091 31.2741C43.2091 31.4443 43.0699 31.5834 42.8998 31.5834V31.5804Z" fill="#18292D"/>
<path d="M36.6953 33.4143C37.1871 35.2268 36.8159 36.9063 35.8633 37.1661C34.9106 37.4228 33.7415 36.1639 33.2497 34.3514C32.7579 32.5389 33.1291 30.8594 34.0817 30.5996C35.0343 30.3429 36.2035 31.6018 36.6953 33.4143Z" fill="white"/>
<path d="M35.6065 37.509C35.1271 37.509 34.6229 37.2461 34.159 36.7451C33.6332 36.176 33.2032 35.3563 32.9527 34.4315C32.4083 32.4241 32.8692 30.6085 34.0012 30.3023C35.1333 29.993 36.4509 31.3261 36.9953 33.3366C37.5396 35.3439 37.0788 37.1595 35.9467 37.4657C35.8354 37.4967 35.724 37.5121 35.6096 37.5121L35.6065 37.509ZM34.3229 30.8776C34.2672 30.8776 34.2116 30.8838 34.159 30.8993C33.4847 31.0818 33.0672 32.5107 33.5435 34.2707C33.7693 35.0996 34.1466 35.8295 34.6075 36.3244C35.0127 36.7605 35.4395 36.9585 35.7797 36.8688C36.454 36.6863 36.8715 35.2573 36.3952 33.4974C35.9529 31.8736 34.9972 30.8776 34.3229 30.8776Z" fill="#18292D"/>
<path d="M48.696 33.4162C48.2042 35.2287 48.5753 36.9082 49.528 37.168C50.4806 37.4279 51.6498 36.1659 52.1416 34.3534C52.6334 32.5409 52.2622 30.8614 51.3096 30.6016C50.3569 30.3449 49.1878 31.6037 48.696 33.4162Z" fill="white"/>
<path d="M49.7817 37.5116C49.6703 37.5116 49.559 37.4961 49.4507 37.4682C48.8754 37.3105 48.4548 36.7692 48.2723 35.9434C48.1053 35.1856 48.1517 34.2608 48.4022 33.336C48.6527 32.4112 49.0827 31.5884 49.6085 31.0224C50.1838 30.4038 50.8209 30.1471 51.3962 30.3018C52.5283 30.608 52.9891 32.4236 52.4448 34.4309C51.953 36.2465 50.8302 37.5085 49.7848 37.5085L49.7817 37.5116ZM51.0622 30.8801C50.756 30.8801 50.4003 31.0781 50.0601 31.4462C49.5992 31.941 49.2219 32.671 48.9961 33.4999C48.7703 34.3288 48.727 35.1516 48.8723 35.8104C49.0023 36.3919 49.2713 36.7785 49.6085 36.8713C50.2828 37.0507 51.3653 36.0331 51.8416 34.2732C52.318 32.5133 51.9004 31.0843 51.2261 30.9018C51.1704 30.8863 51.1148 30.8801 51.056 30.8801H51.0622Z" fill="#18292D"/>
<path d="M42.7174 46.8862C38.6099 46.8862 35.2787 42.0611 35.2787 37.9536V29.1262C35.2787 25.0187 39.9924 27.3353 42.7174 21.6875C43.97 25.8445 50.1561 25.0187 50.1561 29.1262V37.9536C50.1561 42.0611 46.8249 46.8862 42.7174 46.8862Z" fill="white"/>
<path d="M42.7173 47.1951C38.4243 47.1951 34.9694 42.1381 34.9694 37.9532V29.1258C34.9694 26.9143 36.2591 26.3699 37.7531 25.742C39.2439 25.1141 41.0966 24.3347 42.439 21.551C42.4947 21.4366 42.6153 21.3685 42.7421 21.3778C42.8689 21.3871 42.9772 21.4737 43.0143 21.5974C43.5772 23.4718 45.2443 24.2759 46.8558 25.0554C48.6312 25.9152 50.4653 26.8029 50.4653 29.1258V37.9532C50.4653 42.1381 47.0104 47.1951 42.7173 47.1951ZM42.6771 22.4356C41.2698 24.9348 39.4666 25.6925 37.9943 26.3111C36.5468 26.9205 35.5911 27.3226 35.5911 29.1227V37.9501C35.5911 41.8566 38.7707 46.5734 42.7204 46.5734C46.6702 46.5734 49.8498 41.8566 49.8498 37.9501V29.1227C49.8498 27.1896 48.3373 26.4565 46.5898 25.6121C45.1206 24.9007 43.4782 24.1058 42.6802 22.4356H42.6771Z" fill="#18292D"/>
<path d="M37.9077 33.715C38.1026 34.213 38.5511 34.5037 38.9099 34.3646C39.2687 34.2254 39.4017 33.7057 39.2068 33.2078C39.0119 32.7098 38.5635 32.4191 38.2047 32.5582C37.8459 32.6974 37.7129 33.2171 37.9077 33.715Z" fill="#18292D"/>
<path d="M40.3605 32.1173C40.2955 32.1173 40.2275 32.0956 40.1718 32.0523C39.8347 31.7894 39.3645 31.6255 38.8511 31.5884C38.2232 31.5451 37.6324 31.6997 37.2644 32.0059C37.1314 32.1142 36.9365 32.0956 36.8283 31.9657C36.72 31.8327 36.7386 31.6378 36.8685 31.5296C37.3572 31.1244 38.1149 30.9141 38.8944 30.9698C39.5284 31.0131 40.1161 31.2234 40.5522 31.5605C40.6883 31.6657 40.7131 31.8605 40.6079 31.9935C40.546 32.0709 40.4563 32.1142 40.3636 32.1142L40.3605 32.1173Z" fill="#18292D"/>
<path d="M45.8753 33.715C46.0701 34.213 46.5186 34.5037 46.8774 34.3646C47.2362 34.2254 47.3692 33.7057 47.1743 33.2078C46.9795 32.7098 46.531 32.4191 46.1722 32.5582C45.8134 32.6974 45.6804 33.2171 45.8753 33.715Z" fill="#18292D"/>
<path d="M48.3312 32.1173C48.2662 32.1173 48.1982 32.0956 48.1425 32.0523C47.8023 31.7894 47.3352 31.6255 46.8218 31.5884C46.197 31.5451 45.6062 31.6997 45.2351 32.0059C45.1021 32.1142 44.9072 32.0956 44.799 31.9657C44.6907 31.8327 44.7093 31.6378 44.8392 31.5296C45.3279 31.1244 46.0856 30.9141 46.8651 30.9698C47.4992 31.0131 48.0868 31.2234 48.5229 31.5605C48.659 31.6657 48.6838 31.8605 48.5786 31.9935C48.5168 32.0709 48.4271 32.1142 48.3343 32.1142L48.3312 32.1173Z" fill="#18292D"/>
<path d="M42.3245 37.104C42.1204 37.104 41.9163 37.0174 41.7895 36.8689C41.5358 36.5689 41.5606 36.1668 41.576 35.9286C41.6657 34.543 41.7925 33.1418 41.9472 31.7623C41.9658 31.5922 42.1173 31.4716 42.2905 31.4902C42.4606 31.5087 42.5813 31.6634 42.5627 31.8335C42.4081 33.2006 42.2843 34.5925 42.1946 35.9688C42.1823 36.1668 42.1761 36.3678 42.2627 36.4699C42.272 36.4792 42.2905 36.4885 42.3276 36.4854C42.374 36.3462 42.5163 36.2565 42.6648 36.2781C42.8349 36.3029 42.9493 36.4606 42.9246 36.6277C42.8937 36.8442 42.7421 37.0112 42.5194 37.0761C42.4575 37.0947 42.3895 37.104 42.3245 37.104Z" fill="#18292D"/>
<path d="M43.8246 39.4615C43.5771 39.4615 43.3328 39.4182 43.107 39.3316C42.9462 39.2698 42.8688 39.0904 42.9307 38.9326C42.9926 38.7718 43.172 38.6945 43.3297 38.7563C43.7132 38.9048 44.171 38.8677 44.5855 38.6574C44.9999 38.447 45.2969 38.0975 45.402 37.6985C45.4453 37.5346 45.6154 37.4356 45.7794 37.4789C45.9433 37.5222 46.0423 37.6923 45.999 37.8563C45.8474 38.4223 45.436 38.9172 44.8669 39.2079C44.5329 39.378 44.1741 39.4646 43.8246 39.4646V39.4615Z" fill="#18292D"/>
<path d="M35.6375 30.7592C35.6375 30.7592 36.2282 25.9279 37.7438 26.5898C39.2594 27.2517 39.315 28.6343 41.6719 28.7982C44.0288 28.9652 45.5444 28.1363 46.3857 28.9652C47.227 29.7941 48.7425 31.6159 50.7623 30.289C52.782 28.9652 52.98 25.7887 49.7787 24.1339C46.5805 22.4761 41.7802 22.2286 39.0862 22.0647C36.3922 21.8977 33.6146 26.7846 35.6344 30.7623L35.6375 30.7592Z" fill="#18292D"/>
<path d="M12.5232 50.4868L14.0047 49.2186C17.6328 46.1163 19.5103 41.4335 19.0278 36.6858L18.0133 26.683C17.8493 25.8108 16.8998 25.3344 16.1049 25.718C15.6811 25.9221 15.409 26.3489 15.3471 26.816L14.7069 31.87C14.4687 31.2947 13.9027 30.8771 13.2222 30.8709C12.3716 30.8647 11.6757 31.5514 11.5984 32.3958L11.5674 32.7391C11.2984 32.5875 10.9829 32.5071 10.6395 32.535C9.84774 32.5968 9.22914 33.2587 9.158 34.0505L9.08376 34.8454C8.24247 34.5702 7.33312 35.0248 7.05166 35.8661L6.53822 37.3879C6.31862 38.0374 6.33408 38.7519 6.62173 39.3767C6.86917 39.9118 7.17538 40.0541 7.48468 40.1283L7.26508 44.0317C7.08568 47.2175 9.36213 50.0166 12.5201 50.4837L12.5232 50.4868Z" fill="white"/>
<path d="M12.5232 50.7958C12.5232 50.7958 12.4922 50.7958 12.4768 50.7927C9.13943 50.2978 6.76709 47.3842 6.95886 44.0159L7.16609 40.3538C6.87844 40.2393 6.58151 40.0197 6.34644 39.5094C6.03405 38.8289 6.00003 38.0433 6.25056 37.2917L6.764 35.77C7.05784 34.8946 7.93006 34.3657 8.81466 34.4709L8.85487 34.0224C8.94457 33.0543 9.68689 32.2996 10.621 32.2254C10.853 32.2068 11.0818 32.2316 11.3045 32.2934C11.4313 31.3129 12.2572 30.5613 13.216 30.5613H13.2315C13.714 30.5644 14.1625 30.7469 14.5058 31.0531L15.0471 26.7755C15.1213 26.1816 15.4708 25.6806 15.975 25.4362C16.442 25.2104 16.9771 25.2135 17.4411 25.4486C17.905 25.6837 18.2267 26.1105 18.3226 26.6208L19.3402 36.6484C19.832 41.4951 17.9143 46.2831 14.2089 49.4472L12.7273 50.7154C12.6716 50.7649 12.6005 50.7896 12.5263 50.7896L12.5232 50.7958ZM8.58887 35.0802C8.04141 35.0802 7.53107 35.4266 7.34858 35.971L6.83823 37.4928C6.63719 38.0928 6.66193 38.7176 6.90937 39.2527C7.11351 39.6919 7.33311 39.7785 7.562 39.8311C7.70737 39.8651 7.80944 40.0012 7.80016 40.1497L7.58055 44.053C7.41044 47.0532 9.48894 49.6545 12.4366 50.1617L13.8099 48.9895C17.3606 45.9552 19.1979 41.3683 18.7278 36.7226L17.7132 26.7198C17.6576 26.426 17.4565 26.1569 17.1658 26.0115C16.875 25.8661 16.541 25.863 16.2472 26.0022C15.9348 26.1538 15.7121 26.4817 15.6626 26.8621L15.0223 31.9161C15.0038 32.0553 14.8955 32.1635 14.7563 32.1852C14.6171 32.2037 14.4841 32.1264 14.4285 31.9965C14.2274 31.5109 13.7542 31.1923 13.2284 31.1892C12.5665 31.1892 11.9788 31.7305 11.917 32.4326L11.886 32.7759C11.8767 32.8811 11.8149 32.9739 11.7221 33.0234C11.6293 33.0729 11.518 33.0698 11.4252 33.0203C11.1963 32.8904 10.9396 32.8347 10.6736 32.8532C10.0519 32.9027 9.53533 33.4347 9.47657 34.0905L9.40234 34.8854C9.39306 34.9781 9.34357 35.0647 9.26315 35.1142C9.18273 35.1637 9.08685 35.1792 8.99715 35.1483C8.86415 35.105 8.72806 35.0833 8.59506 35.0833L8.58887 35.0802Z" fill="#18292D"/>
<path d="M11.753 38.8396C11.6603 38.8396 11.5644 38.7963 11.5056 38.7158C11.2396 38.3601 11.1035 37.9179 11.1252 37.4725L11.2829 32.5793C11.2891 32.4123 11.4252 32.2793 11.5922 32.2793C11.5953 32.2793 11.5984 32.2793 11.6015 32.2793C11.7716 32.2855 11.9077 32.4278 11.9015 32.5979L11.7438 37.4972C11.7283 37.8034 11.8211 38.1034 12.0005 38.3478C12.1026 38.4839 12.0747 38.6787 11.9386 38.7808C11.8829 38.821 11.818 38.8427 11.753 38.8427V38.8396Z" fill="#18292D"/>
<path d="M14.7348 33.8733H14.7286C14.5585 33.8733 14.4224 33.7311 14.4255 33.5578L14.4502 31.9711C14.4502 31.801 14.5801 31.6649 14.7657 31.668C14.9358 31.668 15.0719 31.8103 15.0688 31.9835L15.0441 33.5702C15.0441 33.7403 14.9049 33.8733 14.7348 33.8733Z" fill="#18292D"/>
<path d="M7.85906 40.4843C7.65183 40.4843 7.4446 40.4502 7.24355 40.3822C7.08272 40.3265 6.99611 40.1533 7.04869 39.9894C7.10437 39.8286 7.27758 39.7419 7.4415 39.7945C7.86525 39.9368 8.3292 39.8533 8.67871 39.5749C8.81171 39.4667 9.00657 39.4883 9.11482 39.6213C9.22308 39.7543 9.20143 39.9492 9.06843 40.0574C8.71892 40.3389 8.29517 40.4843 7.86525 40.4843H7.85906Z" fill="#18292D"/>
<path d="M10.5746 44.7183C10.4354 44.7183 10.3086 44.6225 10.2746 44.4802L10.1973 44.1523C9.62196 41.746 10.4138 39.253 12.2634 37.6199L12.8232 34.4063C12.9284 33.8 13.4078 33.3206 14.0109 33.2155C14.7563 33.0855 15.4739 33.5402 15.6719 34.2702L17.4132 40.6418C17.4596 40.8057 17.3607 40.9758 17.1967 41.0222C17.0328 41.0655 16.8627 40.9696 16.8163 40.8057L15.0749 34.4341C14.9605 34.0135 14.546 33.7505 14.1161 33.8248C13.7666 33.8866 13.4913 34.1619 13.4294 34.5114L12.8511 37.8364C12.8387 37.9075 12.8016 37.9725 12.7459 38.0189C11.0138 39.4974 10.2653 41.7955 10.7942 44.0101L10.8715 44.3379C10.9117 44.5049 10.8097 44.672 10.6426 44.7122C10.6179 44.7183 10.5932 44.7214 10.5715 44.7214L10.5746 44.7183Z" fill="#18292D"/>
<path d="M10.4602 41.2067C10.4014 41.2067 10.3427 41.2067 10.2808 41.1974C9.76737 41.151 9.30342 40.9066 8.97556 40.5107C8.6477 40.1148 8.49305 39.6168 8.53945 39.1034L8.79926 34.9062C8.81163 34.7361 8.957 34.6093 9.12712 34.6155C9.29723 34.6247 9.42714 34.7732 9.41786 34.9433L9.15805 39.1498C9.12402 39.5055 9.22919 39.8457 9.45498 40.1148C9.67767 40.3839 9.99316 40.5478 10.3396 40.5819C10.4014 40.5881 10.4633 40.588 10.5282 40.585C10.6984 40.5726 10.8437 40.7087 10.853 40.8788C10.8623 41.0489 10.7293 41.1943 10.5592 41.2036C10.5282 41.2036 10.4973 41.2036 10.4633 41.2036L10.4602 41.2067Z" fill="#18292D"/>
<path d="M9.07459 48.7924L2.06274 77.1367C2.06274 77.1367 2.3937 81.9185 7.00228 82.8804C11.3603 83.7897 15.4926 80.5204 15.8143 76.0789L18.1928 43.1445L9.07459 48.7924Z" fill="white"/>
<path d="M8.45592 83.3421C7.94867 83.3421 7.44142 83.2895 6.94035 83.1843C2.15547 82.1853 1.75956 77.2086 1.75647 77.1592C1.75647 77.1282 1.75647 77.0942 1.76575 77.0633L8.7745 48.7189C8.81471 48.5519 8.98174 48.4529 9.14876 48.4932C9.31578 48.5334 9.41476 48.7004 9.37455 48.8674L2.37507 77.1622C2.42147 77.6726 2.93181 81.7152 7.06407 82.5781C9.00648 82.9833 11.0386 82.5193 12.647 81.3069C14.311 80.0511 15.3533 78.1365 15.5049 76.058L17.8834 43.1237C17.8958 42.9536 18.0473 42.8237 18.2144 42.8391C18.3845 42.8515 18.5113 43 18.4989 43.1701L16.1204 76.1044C15.9565 78.3623 14.8275 80.4408 13.0181 81.8049C11.685 82.8101 10.0798 83.3421 8.45283 83.3421H8.45592Z" fill="#18292D"/>
<path d="M74.8629 68.4707L81.8655 73.1071C84.077 74.5732 85.905 76.5496 87.1917 78.8694C88.234 81.0995 87.4979 83.7563 85.4565 85.1327C83.4553 86.4813 80.7768 86.206 79.0911 84.4801L70.6874 75.8785L74.8629 68.4707Z" fill="white"/>
<path d="M82.6665 86.2947C81.2777 86.2947 79.8983 85.7504 78.8683 84.6956L70.4646 76.094C70.3687 75.995 70.3501 75.8465 70.4151 75.7259L74.5907 68.3182C74.634 68.2439 74.7051 68.1883 74.7886 68.1697C74.8721 68.1481 74.9587 68.1635 75.033 68.213L82.0355 72.8525C84.281 74.3403 86.1554 76.3693 87.4638 78.723C88.5865 81.1263 87.8133 83.9224 85.6296 85.3916C84.7264 86.0009 83.6934 86.2978 82.6696 86.2978L82.6665 86.2947ZM71.0708 75.8249L79.3106 84.2626C80.8911 85.8834 83.4026 86.1401 85.2801 84.875C87.2101 83.576 87.8937 81.1047 86.9101 78.9983C85.6636 76.7497 83.8542 74.7949 81.6922 73.3629L74.968 68.9089L71.0708 75.8249Z" fill="#18292D"/>
<path d="M43.6854 81.7391L65.7045 74.5664L63.258 61.2324L61.1022 61.9717C54.2264 64.3254 48.758 69.3887 46.1011 75.8562L43.6854 81.7391Z" fill="white"/>
<path d="M43.6855 82.0483C43.602 82.0483 43.5185 82.0143 43.4597 81.9493C43.3793 81.8596 43.3546 81.7328 43.4009 81.6215L45.8166 75.7386C48.5075 69.1876 54.0409 64.0655 61.0033 61.6808L63.1591 60.9416C63.2457 60.9138 63.3385 60.923 63.4158 60.9664C63.4931 61.0127 63.5488 61.0901 63.5643 61.1767L66.0108 74.5106C66.0387 74.6622 65.949 74.8137 65.8036 74.8601L43.7845 82.0328C43.7535 82.0421 43.7195 82.0483 43.6886 82.0483H43.6855ZM63.0199 61.6437L61.2043 62.2654C54.4121 64.5914 49.0117 69.5866 46.3888 75.9736L44.2268 81.2379L65.3551 74.356L63.023 61.6406L63.0199 61.6437Z" fill="#18292D"/>
<path d="M67.2015 72.3424L68.4665 72.6517C68.4665 72.6517 68.1294 76.4902 71.8503 77.0005C72.7596 77.1242 76.1031 73.5611 76.1774 71.3527C76.3227 67.0287 75.2402 60.4498 71.6028 59.8683C67.9654 59.2869 62.2681 59.4539 62.2681 59.4539C62.2681 59.4539 61.999 62.2376 64.0157 62.417C66.8427 62.6675 69.7285 63.6232 69.7285 63.6232L61.4918 65.377C61.4918 65.377 61.4516 66.8987 62.1413 68.1205C62.831 69.3422 63.329 71.4764 67.2046 72.3424H67.2015Z" fill="white"/>
<path d="M76.1772 71.6624C76.0071 71.6624 75.8679 71.5232 75.8679 71.3531C75.8586 68.291 75.4194 61.0719 71.5315 60.1688C68.3859 59.4388 63.6103 59.7172 62.3762 59.8038C62.4318 60.4131 62.6824 61.8081 63.7866 62.0648C64.4021 62.2071 65.2186 62.3091 66.0847 62.4205C67.7858 62.6339 69.5458 62.8566 70.285 63.4443C70.418 63.5494 70.4396 63.7443 70.3345 63.8804C70.2293 64.0134 70.0345 64.035 69.8984 63.9299C69.2921 63.4505 67.5446 63.2278 66.0043 63.036C65.1228 62.9246 64.2907 62.8195 63.6443 62.671C61.7514 62.2318 61.739 59.6337 61.739 59.5223C61.739 59.3615 61.8627 59.2285 62.0205 59.2161C62.2617 59.1945 67.9529 58.7089 71.6676 59.5718C73.4553 59.9863 76.4586 62.0679 76.4834 71.3562C76.4834 71.5263 76.3442 71.6655 76.1741 71.6655L76.1772 71.6624Z" fill="#18292D"/>
<path d="M62.3577 67.9756C62.3237 67.9756 62.2897 67.9694 62.2557 67.957C60.8885 67.4776 60.9751 65.9094 61.2102 65.1486C61.2442 65.0372 61.3401 64.9537 61.4546 64.9351L72.5739 63.0948C72.744 63.0639 72.9018 63.1814 72.9296 63.3484C72.9575 63.5154 72.843 63.6763 72.676 63.7041L61.7577 65.5104C61.6649 65.9496 61.535 67.0446 62.4629 67.3693C62.6237 67.425 62.7103 67.6013 62.6516 67.7652C62.6083 67.892 62.4876 67.9725 62.3608 67.9725L62.3577 67.9756Z" fill="#18292D"/>
<path d="M64.4673 70.4384C64.0311 70.4384 63.694 70.4292 63.5053 70.4106C61.999 70.2529 61.5382 68.0352 61.5196 67.9424C61.5042 67.8589 61.5196 67.7692 61.5722 67.7011C61.6217 67.63 61.7021 67.5867 61.7856 67.5743L73.2112 66.2505C73.3813 66.2289 73.536 66.3526 73.5545 66.5227C73.5731 66.6928 73.4524 66.8444 73.2823 66.866L62.2094 68.1465C62.398 68.7651 62.8434 69.7178 63.5672 69.7951C64.826 69.925 73.0782 69.5198 73.1617 69.5167C73.3411 69.5074 73.4772 69.6404 73.4865 69.8106C73.4957 69.9807 73.3627 70.126 73.1926 70.1353C72.9019 70.1508 67.0004 70.4384 64.4642 70.4384H64.4673Z" fill="#18292D"/>
<path d="M70.4119 73.0368C67.854 73.0368 64.0063 72.6286 63.3599 70.2346C63.3166 70.0706 63.4124 69.9005 63.5795 69.8541C63.7434 69.8108 63.9135 69.9067 63.9599 70.0737C64.6466 72.61 70.4645 72.5512 72.6513 72.3131C72.8152 72.2945 72.9729 72.4182 72.9915 72.5883C73.01 72.7585 72.8863 72.91 72.7162 72.9286C72.6049 72.9409 71.6615 73.0368 70.415 73.0368H70.4119Z" fill="#18292D"/>
<path d="M71.9708 77.4601C71.9708 77.4601 71.9429 77.4601 71.9306 77.4601C71.8934 77.4539 68.222 76.9219 68.222 72.8577C68.222 72.6876 68.3612 72.5484 68.5313 72.5484C68.7015 72.5484 68.8406 72.6876 68.8406 72.8577C68.8406 76.0435 71.346 76.7177 71.9058 76.8291C73.74 75.663 75.8741 73.7856 75.868 71.3576C75.8587 68.2955 75.4195 61.0764 71.5316 60.1732C71.3645 60.1361 71.2625 59.9691 71.2996 59.8021C71.3367 59.6351 71.5068 59.533 71.6707 59.5701C73.4585 59.9846 76.4618 62.0662 76.4866 71.3545C76.4927 74.1103 74.1235 76.1703 72.1347 77.4137C72.0852 77.4446 72.0295 77.4601 71.9708 77.4601Z" fill="#18292D"/>
<path d="M66.1532 79.7539H48.223C46.7353 79.7539 45.3063 80.3261 44.23 81.3468L43.9887 81.5757C42.8938 80.4127 41.3658 79.7539 39.7667 79.7539H20.5437V82.2098H66.1532V79.7539Z" fill="white"/>
<path d="M66.1532 82.5217H20.5437C20.3736 82.5217 20.2344 82.3825 20.2344 82.2124V79.7566C20.2344 79.5865 20.3736 79.4473 20.5437 79.4473H39.7667C41.338 79.4473 42.8628 80.0628 43.9949 81.1484L44.0165 81.1268C45.1578 80.0442 46.6518 79.4473 48.223 79.4473H66.1532C66.3233 79.4473 66.4625 79.5865 66.4625 79.7566V82.2124C66.4625 82.3825 66.3233 82.5217 66.1532 82.5217ZM20.853 81.9031H65.8439V80.0659H48.223C46.8095 80.0659 45.4671 80.601 44.4433 81.5753L44.2021 81.8041C44.1433 81.8598 44.0598 81.8846 43.9794 81.8876C43.8959 81.8876 43.8186 81.8505 43.7629 81.7918C42.7298 80.6937 41.273 80.0659 39.7667 80.0659H20.853V81.9031Z" fill="#18292D"/>
</g>
</svg>
