<svg width="82" height="83" viewBox="0 0 82 83" fill="none" xmlns="http://www.w3.org/2000/svg">
<rect x="0.5" y="1" width="81" height="81" rx="40.5" fill="#F2F7F8" stroke="#4A7C88"/>
<mask id="mask0_548_52651" style="mask-type:alpha" maskUnits="userSpaceOnUse" x="1" y="1" width="80" height="81">
<rect x="1" y="1.5" width="80" height="80" rx="40" fill="#F2F7F8"/>
</mask>
<g mask="url(#mask0_548_52651)">
<path d="M53.586 56.9095C53.586 56.9095 61.7808 57.0378 64.3512 53.5911C66.9196 50.1445 63.2826 46.033 63.4672 43.7683C63.6498 41.5036 66.2648 38.8715 65.9618 37.2503C65.6587 35.631 62.3442 34.1069 62.3248 31.5992C62.3073 29.0915 63.5857 24.912 61.4583 21.6403C59.3309 18.3687 56.3176 15.7852 53.0906 15.3322C49.8636 14.8812 43.225 14.1892 41.1346 18.635C34.8573 31.9841 30.8415 26.3136 29.4719 29.8905C25.7961 39.4897 34.9856 54.7906 53.588 56.9075L53.586 56.9095Z" fill="black"/>
<path d="M56.0069 58.8857C56.0069 58.8857 55.9953 58.8857 55.9894 58.8857C40.0059 58.075 29.165 43.7248 29.1611 39.1409C29.1611 37.9551 29.9227 37.786 30.2511 37.7685C32.835 37.6324 36.0737 30.8014 38.4381 25.8132C39.3823 23.8187 40.2002 22.0983 40.886 20.9436C42.7977 17.7303 46.9651 16.2723 52.9353 16.7311C56.038 16.9682 59.3175 19.1221 61.9325 22.6407C63.7451 25.0784 63.615 28.1168 63.5101 30.5603C63.477 31.3496 63.444 32.0961 63.4867 32.7084C63.5781 34.0167 64.7127 35.0217 65.7132 35.9101C66.5098 36.6177 67.2636 37.2845 67.4598 38.0601C67.6988 39.0029 67.1237 40.2004 66.5156 41.4698C65.9697 42.607 65.4062 43.7831 65.3888 44.8114C65.3752 45.5113 65.8201 46.4696 66.2902 47.4863C67.2655 49.5936 68.4778 52.216 66.8303 54.7431C64.4135 58.4502 56.3624 58.8701 56.0205 58.8857C56.0147 58.8857 56.0089 58.8857 56.005 58.8857H56.0069ZM50.8798 17.3415C47.3109 17.3415 43.3553 18.1502 41.4805 21.2974C40.8102 22.4249 40.0001 24.1317 39.0617 26.1106C36.4875 31.542 33.2818 38.3012 30.286 38.4606C30.1442 38.4683 29.8508 38.4839 29.8508 39.1409C29.8528 41.1277 32.5572 45.764 36.9227 49.7899C40.8122 53.3765 47.2817 57.7465 56.005 58.1936C56.411 58.1722 64.0754 57.7018 66.2514 54.364C67.689 52.1576 66.6127 49.8307 65.6627 47.776C65.1362 46.6388 64.6816 45.6571 64.6971 44.7978C64.7185 43.6179 65.3149 42.3737 65.8919 41.1704C66.4437 40.0177 66.9663 38.9291 66.7895 38.2292C66.6458 37.6597 65.9697 37.0609 65.2547 36.4272C64.1551 35.4513 62.9078 34.3452 62.797 32.757C62.7504 32.1058 62.7834 31.3399 62.8184 30.5312C62.9175 28.1984 63.0418 25.2961 61.3768 23.0547C58.8823 19.6975 55.7854 17.6447 52.8809 17.4212C52.2398 17.3726 51.5656 17.3415 50.8779 17.3415H50.8798Z" fill="#080717"/>
<path d="M28.8659 34.5867C28.7299 34.5867 28.6017 34.505 28.5473 34.3728C27.5584 31.9682 27.4476 30.0961 28.217 28.8112C28.897 27.6779 30.253 27.0014 32.2503 26.8011C36.1029 26.4143 38.2788 23.6539 38.3002 23.6267C38.4167 23.475 38.6324 23.4478 38.7839 23.5645C38.9355 23.6811 38.9627 23.8969 38.8461 24.0485C38.7509 24.171 36.4759 27.0733 32.3182 27.4893C30.5503 27.6662 29.371 28.2319 28.8095 29.1669C28.1567 30.2555 28.285 31.9176 29.1864 34.1104C29.2583 34.2873 29.1748 34.4895 28.998 34.5614C28.9552 34.5789 28.9106 34.5867 28.8659 34.5867Z" fill="#080717"/>
<path d="M61 80L37.5 86L10 75L27.4844 47.4522C30.2141 43.1619 34.5135 40.6348 39.0811 40.6348H45.98C55.1151 40.6348 63.5449 45.8912 68.0406 54.3921L71.7922 61.4817C74.6908 66.9598 66.8867 80 61 80Z" fill="#96D8E8"/>
<path d="M14.4757 36.4388L12.7835 39.3275C11.4333 41.6331 10.934 44.3391 11.373 46.9751L11.8063 49.5741L-2.65796 74.2934H15.6258L25.3768 50.6861L25.1709 34.2441C25.1612 33.486 24.5453 32.8775 23.7876 32.8775C23.1523 32.8775 22.5986 33.3091 22.4451 33.9273L21.3727 38.2214L11.2448 28.6825C10.6367 28.1109 9.6517 28.2859 9.27868 29.0324C9.0572 29.4756 9.11937 30.0063 9.43605 30.3873L14.4776 36.4408L14.4757 36.4388Z" fill="white"/>
<path d="M15.6259 74.2934L25.3768 50.6861L25.1709 34.2441C25.1612 33.486 24.5453 32.8775 23.7876 32.8775C23.1523 32.8775 22.5986 33.3091 22.4451 33.9273L21.3727 38.2214L11.2448 28.6825C10.6367 28.1109 9.65171 28.2859 9.27869 29.0324C9.05721 29.4756 9.11938 30.0063 9.43605 30.3873L14.4776 36.4408L12.7855 39.3295C11.4352 41.635 10.9359 44.341 11.375 46.977L11.8082 49.5761L-2.65601 74.2953H15.6278L15.6259 74.2934Z" fill="white"/>
<path d="M15.6259 74.6394C15.5812 74.6394 15.5365 74.6316 15.4938 74.6121C15.317 74.5383 15.2334 74.338 15.3073 74.1611L25.031 50.6199L24.827 34.2479C24.8193 33.6823 24.3549 33.2215 23.7896 33.2215C23.3116 33.2215 22.8978 33.5462 22.7813 34.0088L21.7088 38.303C21.6797 38.4216 21.5884 38.5169 21.4718 38.5519C21.3533 38.5849 21.227 38.5557 21.1376 38.4721L11.0098 28.9332C10.7999 28.7368 10.5182 28.6533 10.2365 28.7019C9.95287 28.7524 9.71779 28.9293 9.58957 29.1859C9.43025 29.5066 9.47494 29.8896 9.70225 30.1637L14.7438 36.2172C14.8371 36.3299 14.8507 36.4874 14.7769 36.6137L13.0847 39.5024C11.7772 41.7341 11.2915 44.3662 11.7169 46.9186L12.1502 49.5177C12.1638 49.5974 12.1502 49.679 12.1074 49.749L-2.35679 74.4683C-2.45393 74.6335 -2.66569 74.688 -2.82889 74.5927C-2.99403 74.4955 -3.04843 74.2836 -2.95323 74.1203L11.4488 49.5099L11.037 47.0353C10.5862 44.3254 11.1011 41.5261 12.4902 39.1564L14.06 36.4777L9.1738 30.6108C8.7697 30.1248 8.69004 29.4464 8.97369 28.8807C9.201 28.4258 9.61677 28.1148 10.118 28.0254C10.6193 27.9359 11.1166 28.0856 11.4877 28.4336L21.1862 37.5682L22.1168 33.8475C22.3092 33.0757 22.9989 32.5373 23.7954 32.5373C24.7377 32.5373 25.5129 33.3032 25.5245 34.246L25.7304 50.6879C25.7304 50.7346 25.7227 50.7812 25.7032 50.824L15.9523 74.4314C15.8979 74.5655 15.7696 74.6452 15.6337 74.6452L15.6259 74.6394Z" fill="#080717"/>
<path d="M19.1521 41.5519C18.9812 41.5519 18.8316 41.4236 18.8102 41.2486C18.7869 41.0601 18.9209 40.887 19.1094 40.8618C19.8652 40.7665 20.0905 39.952 20.1546 39.5496L14.3262 36.7503C14.1533 36.6667 14.0814 36.4607 14.1649 36.2896C14.2465 36.1185 14.4544 36.0447 14.6254 36.1283L20.6753 39.0345C20.7996 39.0947 20.8774 39.223 20.8715 39.363C20.8385 40.0511 20.4461 41.3944 19.1949 41.5499C19.1813 41.5499 19.1657 41.5519 19.1521 41.5519Z" fill="#080717"/>
<path d="M19.0123 44.1619C18.9093 44.1619 18.8044 44.1541 18.6956 44.1366C18.5072 44.1075 18.377 43.9325 18.4042 43.7439C18.4333 43.5554 18.6043 43.429 18.7967 43.4524C19.1211 43.5009 19.3873 43.4426 19.6126 43.2716C19.9701 42.9994 20.1411 42.5095 20.213 42.2141L13.0226 38.9307C12.8497 38.851 12.772 38.6469 12.8516 38.4719C12.9313 38.2989 13.1353 38.2212 13.3101 38.3009L20.7492 41.6989C20.8871 41.7611 20.9668 41.905 20.9493 42.0546C20.9435 42.1032 20.7997 43.2366 20.0342 43.8198C19.7389 44.0453 19.395 44.1599 19.0123 44.1599V44.1619Z" fill="#080717"/>
<path d="M15.1092 46.8922C15.082 46.8922 15.0567 46.8883 15.0295 46.8825C14.843 46.8378 14.7284 46.6531 14.773 46.4665C15.0353 45.3487 14.2174 44.75 14.1844 44.7247C14.0406 44.6217 13.9959 44.4254 14.0834 44.2718C14.1708 44.1182 14.3592 44.0541 14.5205 44.124C15.5366 44.5692 17.2016 45.0882 17.7164 44.855C18.1652 44.6508 18.2468 44.2076 18.2546 43.953L12.5582 41.6883C12.3814 41.6183 12.294 41.4161 12.364 41.2392C12.4339 41.0623 12.636 40.9768 12.8128 41.0448L18.715 43.3912C18.8296 43.4359 18.9112 43.5389 18.9287 43.6594C18.9987 44.1124 18.8938 45.0766 18.002 45.4829C17.3861 45.7647 16.2418 45.4829 15.3617 45.1874C15.5094 45.5664 15.5813 46.0447 15.4453 46.622C15.4084 46.7814 15.2665 46.8883 15.1092 46.8883V46.8922Z" fill="#080717"/>
<path d="M45.8109 47.6811L45.9586 47.7083C48.5406 48.1962 51.0701 46.643 51.8045 44.1197L55.183 32.5202L44.958 30.5898L41.8573 41.2349C41.0141 44.1295 42.8481 47.1232 45.8109 47.683V47.6811Z" fill="white"/>
<path d="M53.0731 18.9737L53.0517 19.069C52.0628 23.3709 52.84 27.8925 55.2102 31.6172L49.8053 36.5062L43.3901 33.7127C42.4245 33.2928 41.5755 32.6455 40.915 31.8271C38.6613 29.0375 39.0732 24.9533 41.8359 22.6692L45.6069 19.553C47.7245 17.8034 50.7126 17.5721 53.0731 18.9756V18.9737Z" fill="white"/>
<path d="M57.9437 32.3697C57.0617 33.5924 55.3539 33.8685 54.1319 32.9859C52.9099 32.1034 52.634 30.3946 53.516 29.1719C54.3981 27.9491 56.1058 27.6731 57.3278 28.5556C58.5499 29.4382 58.8257 31.1469 57.9437 32.3697Z" fill="white"/>
<path d="M54.907 30.866C54.806 30.866 54.705 30.8213 54.637 30.7358C54.5185 30.5861 54.5418 30.3703 54.6914 30.2498C54.7516 30.2031 56.164 29.0893 57.3083 29.6569C57.4793 29.7424 57.5492 29.9485 57.4638 30.1196C57.3783 30.2906 57.1704 30.3606 57.0014 30.2751C56.3777 29.966 55.4335 30.5414 55.1207 30.7883C55.0566 30.8388 54.9808 30.8641 54.9051 30.8641L54.907 30.866Z" fill="#080717"/>
<path d="M46.0925 31.5874C45.941 31.5874 45.7836 31.566 45.6243 31.5193C44.0215 31.0547 44.0526 28.2204 44.0545 28.0999C44.0565 27.9872 44.1128 27.8822 44.208 27.818C44.3012 27.7558 44.4198 27.7422 44.5247 27.783L48.4025 29.2857C48.4977 29.3227 48.5715 29.4004 48.6046 29.4957C48.6376 29.5929 48.6259 29.6978 48.5735 29.7853C48.5249 29.867 47.4719 31.5854 46.0906 31.5854L46.0925 31.5874ZM44.7656 28.6189C44.8316 29.4354 45.0861 30.6445 45.8186 30.8564C46.5918 31.08 47.3631 30.2596 47.742 29.7698L44.7656 28.617V28.6189Z" fill="#080717"/>
<path d="M45.0415 22.118C45.0784 21.9178 44.9288 21.7292 44.7365 21.6942C44.4761 21.6456 44.1905 21.7214 43.9827 21.8847C43.9652 21.8983 43.9516 21.9158 43.936 21.9314C43.8642 21.9528 43.7942 21.9878 43.7359 22.0383C43.6524 22.1141 43.5766 22.1996 43.5397 22.3085C43.495 22.4426 43.4795 22.5807 43.53 22.7167C43.5844 22.8625 43.6932 22.9656 43.8253 23.0414C43.9322 23.1016 44.0546 23.1172 44.175 23.1152C44.4023 23.1152 44.6238 22.9908 44.7676 22.8178C44.9308 22.6195 44.9968 22.3649 45.0415 22.118Z" fill="black"/>
<path d="M49.5449 24.8111C49.5352 24.6945 49.4633 24.5973 49.3662 24.537C49.3273 24.5079 49.2807 24.4904 49.2321 24.4846C49.168 24.4748 49.1058 24.4826 49.0456 24.5059C48.8338 24.5584 48.6357 24.7042 48.5016 24.8734C48.4472 24.9433 48.4006 25.023 48.3637 25.1047C48.3404 25.1436 48.319 25.1844 48.2996 25.2252C48.2296 25.3827 48.1985 25.579 48.2374 25.7501C48.2452 25.8142 48.2665 25.8725 48.3054 25.927C48.3345 25.9697 48.3714 26.0028 48.4161 26.0242C48.5191 26.0864 48.624 26.0922 48.7367 26.0553C49.2535 25.892 49.5896 25.3438 49.5449 24.8111Z" fill="black"/>
<path d="M44.7422 25.8114C44.5868 25.8114 44.445 25.7045 44.4061 25.5451C44.3615 25.3585 44.4761 25.1738 44.6626 25.1291C44.6626 25.1291 45.5951 24.8355 46.3431 22.7399C46.4072 22.5592 46.6054 22.4659 46.7841 22.53C46.9629 22.5942 47.0581 22.7924 46.994 22.9713C46.1178 25.4245 44.9521 25.7686 44.8239 25.7997C44.7967 25.8056 44.7694 25.8094 44.7422 25.8094V25.8114Z" fill="#080717"/>
<path d="M42.9569 24.8377C42.2963 24.8377 41.6494 24.6453 41.084 24.274C40.3186 23.7724 39.7959 23.0007 39.6094 22.1045C39.4229 21.2083 39.5978 20.2927 40.099 19.5268C40.6003 18.7609 41.3716 18.238 42.2672 18.0514C43.1609 17.8647 44.0779 18.0397 44.8434 18.5412C45.6088 19.0428 46.1315 19.8145 46.318 20.7107C46.5045 21.6069 46.3296 22.5225 45.8284 23.2884C45.3271 24.0543 44.5558 24.5772 43.6602 24.7638C43.4271 24.8124 43.19 24.8358 42.9569 24.8358V24.8377ZM42.9685 18.6715C42.0768 18.6715 41.2025 19.1069 40.678 19.9059C39.8503 21.1675 40.202 22.8685 41.4648 23.6966C42.7276 24.5267 44.4257 24.1729 45.2533 22.9093C46.0809 21.6477 45.7293 19.9467 44.4665 19.1186C44.0041 18.8153 43.4853 18.6715 42.9705 18.6715H42.9685Z" fill="#FFBE0A"/>
<path d="M50.2269 28.6304C49.5819 28.6304 48.931 28.4496 48.3521 28.0686C46.7726 27.0306 46.3316 24.9019 47.3671 23.3195C48.4045 21.7391 50.5339 21.2978 52.1134 22.334C53.6929 23.372 54.1339 25.5007 53.0984 27.083C52.4417 28.0861 51.346 28.6285 50.2288 28.6285L50.2269 28.6304ZM50.2366 22.4662C49.3449 22.4662 48.4706 22.9016 47.946 23.7006C47.1184 24.9622 47.472 26.6631 48.7329 27.4913C49.9938 28.3194 51.6937 27.9675 52.5214 26.704C53.349 25.4423 52.9954 23.7414 51.7345 22.9133C51.2721 22.61 50.7534 22.4662 50.2386 22.4662H50.2366Z" fill="#FFBE0A"/>
<path d="M45.9449 34.8775C45.329 34.8775 44.6704 34.8212 43.9807 34.6812C43.7942 34.6423 43.6738 34.4596 43.7126 34.273C43.7515 34.0864 43.9321 33.9658 44.1206 34.0047C47.1922 34.6346 49.7295 33.4176 49.7547 33.406C49.9257 33.3224 50.1336 33.3943 50.2171 33.5654C50.3007 33.7364 50.2307 33.9444 50.0578 34.028C49.9704 34.0708 48.2821 34.8814 45.9449 34.8814V34.8775Z" fill="#080717"/>
<path d="M43.8424 63.1647L57.8598 60.4062L61.217 64.6927C63.2084 67.2354 63.426 70.7422 61.7649 73.5124H46.3642C43.1158 73.5124 38.8747 70.7928 39.7043 67.6494L43.8405 63.1647H43.8424Z" fill="white"/>
<path d="M61.767 73.8575H46.3663C44.0893 73.8575 41.4801 72.6153 40.1629 70.9047C39.3489 69.8452 39.0749 68.6905 39.3722 67.5611C39.3858 67.5066 39.4149 67.4561 39.4518 67.4153L43.5881 62.9306C43.6386 62.8761 43.7027 62.8392 43.7746 62.8256L57.792 60.0671C57.9183 60.0419 58.0504 60.0905 58.13 60.1935L61.4872 64.4799C63.5524 67.1159 63.7836 70.8191 62.0603 73.6903C61.9982 73.7934 61.8855 73.8575 61.765 73.8575H61.767ZM40.0191 67.8196C39.7588 68.9374 40.2464 69.8821 40.7088 70.4828C41.8862 72.0127 44.3186 73.1674 46.3644 73.1674H61.5669C63.0356 70.5645 62.7947 67.2675 60.9452 64.9056L57.7182 60.7864L44.0194 63.4827L40.0191 67.8196Z" fill="#080717"/>
<path d="M39.1548 70.4299L40.4506 69.7126C40.4506 69.7126 43.1317 73.1825 46.6327 70.7351C47.4875 70.1364 47.5322 64.5728 45.8886 62.6697C42.6713 58.9431 36.6913 54.2796 33.2001 56.6026C29.7108 58.9256 25.0811 63.4667 25.0811 63.4667C25.0811 63.4667 27.0025 66.0016 28.8287 64.5942C31.3855 62.6211 34.5328 61.1903 34.5328 61.1903L29.0036 69.0186C29.0036 69.0186 30.144 70.323 31.6633 70.809C33.1826 71.295 35.2478 72.6966 39.1528 70.4299H39.1548Z" fill="white"/>
<path d="M27.5622 65.3896C26.0643 65.3896 24.7665 63.9958 24.6985 63.9219C24.578 63.7897 24.578 63.5876 24.6985 63.4554C24.8831 63.2513 29.2622 58.4497 33.0332 56.3016C34.8458 55.2694 38.9587 54.692 46.1452 62.4328C46.2754 62.5728 46.2676 62.7905 46.1277 62.9208C45.9878 63.051 45.7683 63.0432 45.6401 62.9033C43.2679 60.3489 37.3268 54.6512 33.377 56.9023C30.1792 58.7257 26.3946 62.6545 25.4406 63.675C25.9555 64.1396 27.2475 65.1233 28.3762 64.4798C28.9999 64.1241 29.7615 63.5798 30.5697 63.0024C32.155 61.8691 33.7967 60.695 34.8691 60.6152C35.0595 60.6055 35.2246 60.7436 35.2402 60.9341C35.2538 61.1246 35.112 61.2898 34.9216 61.3054C34.0434 61.3715 32.4115 62.5378 30.9738 63.5662C30.152 64.1532 29.3748 64.7092 28.7201 65.0825C28.3335 65.3021 27.9449 65.3896 27.568 65.3896H27.5622Z" fill="#080717"/>
<path d="M30.8493 70.7478C29.738 70.7478 28.9201 69.7098 28.6015 69.043C28.5451 68.9244 28.5607 68.7845 28.6403 68.6814L36.5107 58.5554C36.6272 58.4057 36.8448 58.3765 36.9964 58.4951C37.146 58.6118 37.1751 58.8295 37.0566 58.9811L29.3261 68.9283C29.5845 69.3657 30.3267 70.3921 31.3622 69.9431C31.5371 69.8672 31.7411 69.9469 31.8168 70.1238C31.8926 70.2988 31.811 70.5029 31.6361 70.5787C31.3603 70.6973 31.098 70.7498 30.8512 70.7498L30.8493 70.7478Z" fill="#080717"/>
<path d="M33.4235 72.0263C32.2578 72.0263 31.0766 71.1826 31.0106 71.136C30.9328 71.0796 30.8804 70.9921 30.8707 70.8968C30.859 70.8016 30.8882 70.7044 30.9523 70.6305L39.4773 60.6989C39.6017 60.5531 39.8212 60.5375 39.965 60.6619C40.1107 60.7864 40.1262 61.0041 40.0019 61.1499L31.7333 70.7802C32.3705 71.1515 33.4838 71.6122 34.154 71.1126C35.3061 70.2495 41.8923 63.5351 41.9583 63.4671C42.0924 63.331 42.31 63.329 42.446 63.4632C42.5819 63.5973 42.5839 63.815 42.4498 63.9511C42.1778 64.2291 35.7607 70.7724 34.5659 71.6647C34.2162 71.9271 33.8199 72.0243 33.4216 72.0243L33.4235 72.0263Z" fill="#080717"/>
<path d="M35.9162 72.0707C35.3489 72.0707 34.8088 71.9365 34.3172 71.6274C34.156 71.5263 34.1074 71.3125 34.2084 71.1512C34.3095 70.9898 34.5232 70.9412 34.6844 71.0423C36.2387 72.0201 38.5739 70.6885 40.2564 69.3997C42.1507 67.9495 43.668 66.2174 43.6835 66.1999C43.8098 66.0561 44.0274 66.0425 44.1712 66.1669C44.315 66.2932 44.3305 66.5109 44.2042 66.6548C43.9827 66.9095 39.4385 72.0707 35.9162 72.0707Z" fill="#080717"/>
<path d="M47.3244 68.6904C47.3127 68.6904 47.2991 68.6904 47.2855 68.6885C47.0951 68.6671 46.9591 68.496 46.9805 68.3075C47.2389 65.9611 46.7882 64.1435 45.638 62.9052C43.2659 60.3509 37.3247 54.6532 33.375 56.9042C33.2079 56.9976 32.9981 56.9412 32.9029 56.774C32.8077 56.6088 32.866 56.3969 33.0331 56.3016C34.8457 55.2694 38.9586 54.692 46.1451 62.4328C47.439 63.8267 47.9519 65.827 47.6683 68.3813C47.6488 68.5582 47.4992 68.6885 47.3244 68.6885V68.6904Z" fill="#080717"/>
<path d="M57.8602 60.752C57.6931 60.752 57.5454 60.6296 57.5182 60.4585C57.4891 60.2699 57.6193 60.093 57.8077 60.0658L61.6001 59.4924C61.7885 59.4632 61.9653 59.5934 61.9925 59.782C62.0217 59.9706 61.8915 60.1475 61.7031 60.1747L57.9107 60.7482C57.8932 60.7501 57.8757 60.752 57.8582 60.752H57.8602Z" fill="#080717"/>
<path d="M44.2625 49.5128C49.1545 51.1768 54.301 49.056 55.7542 44.7754C55.964 44.1591 56.0825 43.5313 56.1233 42.9034C52.974 41.4318 49.5314 40.6348 45.9799 40.6348H39.081C38.605 40.6348 38.1329 40.6678 37.6627 40.7222C37.4801 44.4196 40.1126 48.0995 44.2625 49.5128Z" fill="white"/>
</g>
</svg>
