<svg width="460" height="460" viewBox="0 0 460 460" fill="none" xmlns="http://www.w3.org/2000/svg">
<rect width="460" height="460" fill="white"/>
<path d="M354 68.2C354.11 68.2 354.2 68.1105 354.2 68V67C354.2 66.8895 354.11 66.8 354 66.8H349C348.89 66.8 348.8 66.8895 348.8 67V68C348.8 68.1105 348.89 68.2 349 68.2H354ZM341 68.2C341.11 68.2 341.2 68.1105 341.2 68V67C341.2 66.8895 341.11 66.8 341 66.8H336C335.89 66.8 335.8 66.8895 335.8 67V68C335.8 68.1105 335.89 68.2 336 68.2H341ZM328 68.2C328.11 68.2 328.2 68.1105 328.2 68V67C328.2 66.8895 328.11 66.8 328 66.8H323C322.89 66.8 322.8 66.8895 322.8 67V68C322.8 68.1105 322.89 68.2 323 68.2H328ZM315 68.2C315.11 68.2 315.2 68.1105 315.2 68V67C315.2 66.8895 315.11 66.8 315 66.8H310C309.89 66.8 309.8 66.8895 309.8 67V68C309.8 68.1105 309.89 68.2 310 68.2H315ZM302 68.2C302.11 68.2 302.2 68.1105 302.2 68V67C302.2 66.8895 302.11 66.8 302 66.8H297C296.89 66.8 296.8 66.8895 296.8 67V68C296.8 68.1105 296.89 68.2 297 68.2H302ZM289 68.2C289.11 68.2 289.2 68.1105 289.2 68V67C289.2 66.8895 289.11 66.8 289 66.8H284C283.89 66.8 283.8 66.8895 283.8 67V68C283.8 68.1105 283.89 68.2 284 68.2H289ZM276 68.2C276.11 68.2 276.2 68.1105 276.2 68V67C276.2 66.8895 276.11 66.8 276 66.8H271C270.89 66.8 270.8 66.8895 270.8 67V68C270.8 68.1105 270.89 68.2 271 68.2H276ZM263 68.2C263.11 68.2 263.2 68.1105 263.2 68V67C263.2 66.8895 263.11 66.8 263 66.8H258C257.89 66.8 257.8 66.8895 257.8 67V68C257.8 68.1105 257.89 68.2 258 68.2H263ZM250 68.2C250.11 68.2 250.2 68.1105 250.2 68V67C250.2 66.8895 250.11 66.8 250 66.8H245C244.89 66.8 244.8 66.8895 244.8 67V68C244.8 68.1105 244.89 68.2 245 68.2H250ZM237 68.2C237.11 68.2 237.2 68.1105 237.2 68V67C237.2 66.8895 237.11 66.8 237 66.8H232C231.89 66.8 231.8 66.8895 231.8 67V68C231.8 68.1105 231.89 68.2 232 68.2H237ZM224 68.2C224.11 68.2 224.2 68.1105 224.2 68V67C224.2 66.8895 224.11 66.8 224 66.8H219C218.89 66.8 218.8 66.8895 218.8 67V68C218.8 68.1105 218.89 68.2 219 68.2H224ZM211 68.2C211.11 68.2 211.2 68.1105 211.2 68V67C211.2 66.8895 211.11 66.8 211 66.8H206C205.89 66.8 205.8 66.8895 205.8 67V68C205.8 68.1105 205.89 68.2 206 68.2H211ZM198 68.2C198.11 68.2 198.2 68.1105 198.2 68V67C198.2 66.8895 198.11 66.8 198 66.8H193C192.89 66.8 192.8 66.8895 192.8 67V68C192.8 68.1105 192.89 68.2 193 68.2H198ZM185 68.2C185.11 68.2 185.2 68.1105 185.2 68V67C185.2 66.8895 185.11 66.8 185 66.8H180C179.89 66.8 179.8 66.8895 179.8 67V68C179.8 68.1105 179.89 68.2 180 68.2H185ZM172 68.2C172.11 68.2 172.2 68.1105 172.2 68V67C172.2 66.8895 172.11 66.8 172 66.8H167C166.89 66.8 166.8 66.8895 166.8 67V68C166.8 68.1105 166.89 68.2 167 68.2H172ZM159 68.2C159.11 68.2 159.2 68.1105 159.2 68V67C159.2 66.8895 159.11 66.8 159 66.8H154C153.89 66.8 153.8 66.8895 153.8 67V68C153.8 68.1105 153.89 68.2 154 68.2H159ZM146 68.2C146.11 68.2 146.2 68.1105 146.2 68V67C146.2 66.8895 146.11 66.8 146 66.8H141C140.89 66.8 140.8 66.8895 140.8 67V68C140.8 68.1105 140.89 68.2 141 68.2H146ZM133 68.2C133.11 68.2 133.2 68.1105 133.2 68V67C133.2 66.8895 133.11 66.8 133 66.8H128C127.89 66.8 127.8 66.8895 127.8 67V68C127.8 68.1105 127.89 68.2 128 68.2H133ZM120 68.2C120.11 68.2 120.2 68.1105 120.2 68V67C120.2 66.8895 120.11 66.8 120 66.8H115C114.89 66.8 114.8 66.8895 114.8 67V68C114.8 68.1105 114.89 68.2 115 68.2H120Z" fill="black" stroke="black" stroke-width="0.4" stroke-linejoin="round"/>
<mask id="path-2-outside-1_938_11463" maskUnits="userSpaceOnUse" x="140.05" y="82.9827" width="208.32" height="195.549" fill="black">
<rect fill="white" x="140.05" y="82.9827" width="208.32" height="195.549"/>
<path d="M331.085 274.65C331.111 274.616 331.769 273.71 332.837 271.756L332.25 271.439C331.216 273.346 330.557 274.245 330.551 274.258L331.092 274.656L331.085 274.65ZM335.189 266.936C335.625 265.953 336.061 264.911 336.483 263.849L335.865 263.6C335.443 264.655 335.013 265.691 334.577 266.666L335.189 266.936ZM338.338 258.824C338.681 257.817 339.029 256.757 339.377 255.649L338.739 255.447C338.392 256.554 338.043 257.608 337.707 258.609L338.338 258.824ZM340.882 250.51C341.165 249.471 341.446 248.391 341.727 247.279L341.077 247.116C340.796 248.229 340.514 249.302 340.232 250.335L340.876 250.511L340.882 250.51ZM342.951 242.071C343.186 241.012 343.414 239.92 343.635 238.802L342.978 238.673C342.751 239.792 342.523 240.877 342.295 241.936L342.944 242.078L342.951 242.071ZM344.624 233.545C344.812 232.467 344.993 231.37 345.174 230.252L344.518 230.15C344.338 231.268 344.157 232.365 343.968 233.437L344.624 233.552L344.624 233.545ZM345.882 224.94C345.997 223.837 346.091 222.714 346.158 221.598L345.49 221.556C345.422 222.665 345.328 223.775 345.214 224.871L345.876 224.94L345.882 224.94ZM346.331 216.249C346.335 215.674 346.325 215.094 346.315 214.52C346.305 213.98 346.296 213.439 346.273 212.906L345.606 212.931C345.622 213.464 345.638 213.998 345.647 214.538C345.658 215.112 345.668 215.686 345.664 216.253L346.332 216.255L346.331 216.249ZM345.266 207.617L345.933 207.552C345.833 206.446 345.707 205.327 345.561 204.221L344.902 204.306C345.041 205.405 345.167 206.517 345.266 207.61L345.266 207.617ZM344.076 199.054L344.734 198.936C344.535 197.845 344.309 196.741 344.07 195.657L343.418 195.802C343.657 196.879 343.877 197.977 344.076 199.061L344.076 199.054ZM342.133 190.632L342.778 190.454C342.478 189.377 342.159 188.302 341.827 187.24L341.19 187.438C341.522 188.486 341.834 189.562 342.133 190.625L342.133 190.632ZM339.467 182.408L340.09 182.177C339.698 181.136 339.293 180.089 338.868 179.055L338.251 179.313C338.67 180.333 339.082 181.374 339.467 182.408ZM336.091 174.445L336.693 174.161C336.215 173.154 335.71 172.142 335.199 171.163L334.604 171.474C335.115 172.453 335.613 173.452 336.091 174.451L336.091 174.445ZM332.019 166.813L332.594 166.47C332.023 165.512 331.433 164.548 330.829 163.617L330.268 163.981C330.865 164.905 331.455 165.855 332.019 166.813ZM327.255 159.601L327.795 159.205C327.132 158.302 326.449 157.406 325.76 156.544L325.24 156.96C325.922 157.816 326.598 158.705 327.255 159.601ZM321.792 152.909L322.284 152.46C321.529 151.632 320.754 150.811 319.979 150.03L319.507 150.499C320.275 151.273 321.05 152.087 321.792 152.909ZM315.58 146.937L316.005 146.422C315.159 145.729 314.259 145.044 313.34 144.379L312.949 144.92C313.854 145.572 314.741 146.25 315.58 146.937ZM308.513 142.001L308.856 141.427C307.919 140.863 306.935 140.306 305.944 139.77L305.627 140.356C306.611 140.886 307.582 141.443 308.513 142.001ZM300.867 137.983L301.143 137.377C300.148 136.921 299.112 136.465 298.076 136.036L297.82 136.654C298.856 137.083 299.878 137.533 300.867 137.989L300.867 137.983ZM292.854 134.739L293.077 134.107C292.043 133.738 290.975 133.376 289.908 133.035L289.705 133.672C290.766 134.014 291.827 134.369 292.854 134.739ZM284.6 132.159L284.775 131.516C283.709 131.227 282.629 130.946 281.537 130.678L281.381 131.328C282.467 131.596 283.54 131.871 284.606 132.159L284.6 132.159ZM276.181 130.157L276.317 129.501C275.232 129.279 274.133 129.072 273.029 128.871L272.913 129.527C274.011 129.728 275.103 129.936 276.181 130.157ZM198.568 130.798L198.557 130.131C197.449 130.137 196.327 130.123 195.239 130.095L195.224 130.763C196.319 130.79 197.447 130.804 198.568 130.798ZM203.919 130.664C205.033 130.612 206.146 130.545 207.259 130.473L207.214 129.806C206.108 129.885 204.994 129.951 203.894 129.997L203.926 130.664L203.919 130.664ZM189.873 130.502L189.921 129.834C188.805 129.753 187.696 129.653 186.605 129.532L186.537 130.193C187.627 130.315 188.75 130.415 189.873 130.496L189.873 130.502ZM212.591 129.992C213.697 129.873 214.809 129.74 215.914 129.594L215.829 128.935C214.731 129.081 213.625 129.207 212.526 129.326L212.597 129.992L212.591 129.992ZM267.652 128.677L267.748 128.015C266.65 127.861 265.54 127.713 264.429 127.579L264.348 128.241C265.451 128.376 266.555 128.523 267.652 128.677ZM221.2 128.821C222.292 128.655 223.391 128.502 224.496 128.356L224.411 127.697C223.299 127.843 222.2 127.996 221.102 128.162L221.2 128.821ZM181.231 129.472L181.34 128.816C180.236 128.628 179.137 128.42 178.072 128.199L177.937 128.849C179.009 129.077 180.114 129.284 181.231 129.472ZM259.058 127.693L259.114 127.031C258.004 126.937 256.895 126.85 255.785 126.775L255.744 127.444C256.853 127.518 257.956 127.605 259.059 127.699L259.058 127.693ZM229.799 127.77C230.905 127.664 232.011 127.578 233.118 127.492L233.073 126.825C231.96 126.904 230.847 126.997 229.74 127.103L229.805 127.77L229.799 127.77ZM250.426 127.169L250.448 126.502C249.332 126.461 248.224 126.44 247.102 126.42L247.094 127.087C248.202 127.101 249.317 127.129 250.419 127.17L250.426 127.169ZM238.439 127.198C239.546 127.152 240.66 127.126 241.768 127.1L241.756 126.433C240.642 126.452 239.528 126.485 238.414 126.531L238.439 127.198ZM172.741 127.544L172.93 126.9C171.85 126.585 170.79 126.243 169.769 125.887L169.546 126.519C170.58 126.881 171.654 127.223 172.741 127.538L172.741 127.544ZM164.565 124.517L164.849 123.911C163.833 123.441 162.836 122.945 161.886 122.427L161.569 123.014C162.533 123.538 163.543 124.047 164.572 124.516L164.565 124.517ZM157.007 120.163L157.398 119.622C156.493 118.977 155.613 118.292 154.787 117.586L154.355 118.094C155.195 118.807 156.088 119.505 157.007 120.163ZM150.511 114.33L151.011 113.887C150.282 113.059 149.586 112.197 148.95 111.313L148.41 111.703C149.06 112.6 149.769 113.482 150.511 114.33ZM145.587 107.127L146.182 106.823C145.678 105.857 145.213 104.844 144.802 103.83L144.185 104.081C144.611 105.122 145.082 106.148 145.594 107.134L145.587 107.127ZM142.494 98.978L143.139 98.8133C142.867 97.7635 142.628 96.6797 142.435 95.5818L141.776 95.7001C141.976 96.8112 142.215 97.915 142.494 98.978ZM141.123 90.3719L141.789 90.3269C141.727 89.4069 141.683 88.4665 141.667 87.5324L141 87.544C141.016 88.4915 141.06 89.4452 141.123 90.3785L141.123 90.3719Z"/>
</mask>
<path d="M331.085 274.65C331.111 274.616 331.769 273.71 332.837 271.756L332.25 271.439C331.216 273.346 330.557 274.245 330.551 274.258L331.092 274.656L331.085 274.65ZM335.189 266.936C335.625 265.953 336.061 264.911 336.483 263.849L335.865 263.6C335.443 264.655 335.013 265.691 334.577 266.666L335.189 266.936ZM338.338 258.824C338.681 257.817 339.029 256.757 339.377 255.649L338.739 255.447C338.392 256.554 338.043 257.608 337.707 258.609L338.338 258.824ZM340.882 250.51C341.165 249.471 341.446 248.391 341.727 247.279L341.077 247.116C340.796 248.229 340.514 249.302 340.232 250.335L340.876 250.511L340.882 250.51ZM342.951 242.071C343.186 241.012 343.414 239.92 343.635 238.802L342.978 238.673C342.751 239.792 342.523 240.877 342.295 241.936L342.944 242.078L342.951 242.071ZM344.624 233.545C344.812 232.467 344.993 231.37 345.174 230.252L344.518 230.15C344.338 231.268 344.157 232.365 343.968 233.437L344.624 233.552L344.624 233.545ZM345.882 224.94C345.997 223.837 346.091 222.714 346.158 221.598L345.49 221.556C345.422 222.665 345.328 223.775 345.214 224.871L345.876 224.94L345.882 224.94ZM346.331 216.249C346.335 215.674 346.325 215.094 346.315 214.52C346.305 213.98 346.296 213.439 346.273 212.906L345.606 212.931C345.622 213.464 345.638 213.998 345.647 214.538C345.658 215.112 345.668 215.686 345.664 216.253L346.332 216.255L346.331 216.249ZM345.266 207.617L345.933 207.552C345.833 206.446 345.707 205.327 345.561 204.221L344.902 204.306C345.041 205.405 345.167 206.517 345.266 207.61L345.266 207.617ZM344.076 199.054L344.734 198.936C344.535 197.845 344.309 196.741 344.07 195.657L343.418 195.802C343.657 196.879 343.877 197.977 344.076 199.061L344.076 199.054ZM342.133 190.632L342.778 190.454C342.478 189.377 342.159 188.302 341.827 187.24L341.19 187.438C341.522 188.486 341.834 189.562 342.133 190.625L342.133 190.632ZM339.467 182.408L340.09 182.177C339.698 181.136 339.293 180.089 338.868 179.055L338.251 179.313C338.67 180.333 339.082 181.374 339.467 182.408ZM336.091 174.445L336.693 174.161C336.215 173.154 335.71 172.142 335.199 171.163L334.604 171.474C335.115 172.453 335.613 173.452 336.091 174.451L336.091 174.445ZM332.019 166.813L332.594 166.47C332.023 165.512 331.433 164.548 330.829 163.617L330.268 163.981C330.865 164.905 331.455 165.855 332.019 166.813ZM327.255 159.601L327.795 159.205C327.132 158.302 326.449 157.406 325.76 156.544L325.24 156.96C325.922 157.816 326.598 158.705 327.255 159.601ZM321.792 152.909L322.284 152.46C321.529 151.632 320.754 150.811 319.979 150.03L319.507 150.499C320.275 151.273 321.05 152.087 321.792 152.909ZM315.58 146.937L316.005 146.422C315.159 145.729 314.259 145.044 313.34 144.379L312.949 144.92C313.854 145.572 314.741 146.25 315.58 146.937ZM308.513 142.001L308.856 141.427C307.919 140.863 306.935 140.306 305.944 139.77L305.627 140.356C306.611 140.886 307.582 141.443 308.513 142.001ZM300.867 137.983L301.143 137.377C300.148 136.921 299.112 136.465 298.076 136.036L297.82 136.654C298.856 137.083 299.878 137.533 300.867 137.989L300.867 137.983ZM292.854 134.739L293.077 134.107C292.043 133.738 290.975 133.376 289.908 133.035L289.705 133.672C290.766 134.014 291.827 134.369 292.854 134.739ZM284.6 132.159L284.775 131.516C283.709 131.227 282.629 130.946 281.537 130.678L281.381 131.328C282.467 131.596 283.54 131.871 284.606 132.159L284.6 132.159ZM276.181 130.157L276.317 129.501C275.232 129.279 274.133 129.072 273.029 128.871L272.913 129.527C274.011 129.728 275.103 129.936 276.181 130.157ZM198.568 130.798L198.557 130.131C197.449 130.137 196.327 130.123 195.239 130.095L195.224 130.763C196.319 130.79 197.447 130.804 198.568 130.798ZM203.919 130.664C205.033 130.612 206.146 130.545 207.259 130.473L207.214 129.806C206.108 129.885 204.994 129.951 203.894 129.997L203.926 130.664L203.919 130.664ZM189.873 130.502L189.921 129.834C188.805 129.753 187.696 129.653 186.605 129.532L186.537 130.193C187.627 130.315 188.75 130.415 189.873 130.496L189.873 130.502ZM212.591 129.992C213.697 129.873 214.809 129.74 215.914 129.594L215.829 128.935C214.731 129.081 213.625 129.207 212.526 129.326L212.597 129.992L212.591 129.992ZM267.652 128.677L267.748 128.015C266.65 127.861 265.54 127.713 264.429 127.579L264.348 128.241C265.451 128.376 266.555 128.523 267.652 128.677ZM221.2 128.821C222.292 128.655 223.391 128.502 224.496 128.356L224.411 127.697C223.299 127.843 222.2 127.996 221.102 128.162L221.2 128.821ZM181.231 129.472L181.34 128.816C180.236 128.628 179.137 128.42 178.072 128.199L177.937 128.849C179.009 129.077 180.114 129.284 181.231 129.472ZM259.058 127.693L259.114 127.031C258.004 126.937 256.895 126.85 255.785 126.775L255.744 127.444C256.853 127.518 257.956 127.605 259.059 127.699L259.058 127.693ZM229.799 127.77C230.905 127.664 232.011 127.578 233.118 127.492L233.073 126.825C231.96 126.904 230.847 126.997 229.74 127.103L229.805 127.77L229.799 127.77ZM250.426 127.169L250.448 126.502C249.332 126.461 248.224 126.44 247.102 126.42L247.094 127.087C248.202 127.101 249.317 127.129 250.419 127.17L250.426 127.169ZM238.439 127.198C239.546 127.152 240.66 127.126 241.768 127.1L241.756 126.433C240.642 126.452 239.528 126.485 238.414 126.531L238.439 127.198ZM172.741 127.544L172.93 126.9C171.85 126.585 170.79 126.243 169.769 125.887L169.546 126.519C170.58 126.881 171.654 127.223 172.741 127.538L172.741 127.544ZM164.565 124.517L164.849 123.911C163.833 123.441 162.836 122.945 161.886 122.427L161.569 123.014C162.533 123.538 163.543 124.047 164.572 124.516L164.565 124.517ZM157.007 120.163L157.398 119.622C156.493 118.977 155.613 118.292 154.787 117.586L154.355 118.094C155.195 118.807 156.088 119.505 157.007 120.163ZM150.511 114.33L151.011 113.887C150.282 113.059 149.586 112.197 148.95 111.313L148.41 111.703C149.06 112.6 149.769 113.482 150.511 114.33ZM145.587 107.127L146.182 106.823C145.678 105.857 145.213 104.844 144.802 103.83L144.185 104.081C144.611 105.122 145.082 106.148 145.594 107.134L145.587 107.127ZM142.494 98.978L143.139 98.8133C142.867 97.7635 142.628 96.6797 142.435 95.5818L141.776 95.7001C141.976 96.8112 142.215 97.915 142.494 98.978ZM141.123 90.3719L141.789 90.3269C141.727 89.4069 141.683 88.4665 141.667 87.5324L141 87.544C141.016 88.4915 141.06 89.4452 141.123 90.3785L141.123 90.3719Z" fill="black"/>
<path d="M331.085 274.65C331.111 274.616 331.769 273.71 332.837 271.756L332.25 271.439C331.216 273.346 330.557 274.245 330.551 274.258L331.092 274.656L331.085 274.65ZM335.189 266.936C335.625 265.953 336.061 264.911 336.483 263.849L335.865 263.6C335.443 264.655 335.013 265.691 334.577 266.666L335.189 266.936ZM338.338 258.824C338.681 257.817 339.029 256.757 339.377 255.649L338.739 255.447C338.392 256.554 338.043 257.608 337.707 258.609L338.338 258.824ZM340.882 250.51C341.165 249.471 341.446 248.391 341.727 247.279L341.077 247.116C340.796 248.229 340.514 249.302 340.232 250.335L340.876 250.511L340.882 250.51ZM342.951 242.071C343.186 241.012 343.414 239.92 343.635 238.802L342.978 238.673C342.751 239.792 342.523 240.877 342.295 241.936L342.944 242.078L342.951 242.071ZM344.624 233.545C344.812 232.467 344.993 231.37 345.174 230.252L344.518 230.15C344.338 231.268 344.157 232.365 343.968 233.437L344.624 233.552L344.624 233.545ZM345.882 224.94C345.997 223.837 346.091 222.714 346.158 221.598L345.49 221.556C345.422 222.665 345.328 223.775 345.214 224.871L345.876 224.94L345.882 224.94ZM346.331 216.249C346.335 215.674 346.325 215.094 346.315 214.52C346.305 213.98 346.296 213.439 346.273 212.906L345.606 212.931C345.622 213.464 345.638 213.998 345.647 214.538C345.658 215.112 345.668 215.686 345.664 216.253L346.332 216.255L346.331 216.249ZM345.266 207.617L345.933 207.552C345.833 206.446 345.707 205.327 345.561 204.221L344.902 204.306C345.041 205.405 345.167 206.517 345.266 207.61L345.266 207.617ZM344.076 199.054L344.734 198.936C344.535 197.845 344.309 196.741 344.07 195.657L343.418 195.802C343.657 196.879 343.877 197.977 344.076 199.061L344.076 199.054ZM342.133 190.632L342.778 190.454C342.478 189.377 342.159 188.302 341.827 187.24L341.19 187.438C341.522 188.486 341.834 189.562 342.133 190.625L342.133 190.632ZM339.467 182.408L340.09 182.177C339.698 181.136 339.293 180.089 338.868 179.055L338.251 179.313C338.67 180.333 339.082 181.374 339.467 182.408ZM336.091 174.445L336.693 174.161C336.215 173.154 335.71 172.142 335.199 171.163L334.604 171.474C335.115 172.453 335.613 173.452 336.091 174.451L336.091 174.445ZM332.019 166.813L332.594 166.47C332.023 165.512 331.433 164.548 330.829 163.617L330.268 163.981C330.865 164.905 331.455 165.855 332.019 166.813ZM327.255 159.601L327.795 159.205C327.132 158.302 326.449 157.406 325.76 156.544L325.24 156.96C325.922 157.816 326.598 158.705 327.255 159.601ZM321.792 152.909L322.284 152.46C321.529 151.632 320.754 150.811 319.979 150.03L319.507 150.499C320.275 151.273 321.05 152.087 321.792 152.909ZM315.58 146.937L316.005 146.422C315.159 145.729 314.259 145.044 313.34 144.379L312.949 144.92C313.854 145.572 314.741 146.25 315.58 146.937ZM308.513 142.001L308.856 141.427C307.919 140.863 306.935 140.306 305.944 139.77L305.627 140.356C306.611 140.886 307.582 141.443 308.513 142.001ZM300.867 137.983L301.143 137.377C300.148 136.921 299.112 136.465 298.076 136.036L297.82 136.654C298.856 137.083 299.878 137.533 300.867 137.989L300.867 137.983ZM292.854 134.739L293.077 134.107C292.043 133.738 290.975 133.376 289.908 133.035L289.705 133.672C290.766 134.014 291.827 134.369 292.854 134.739ZM284.6 132.159L284.775 131.516C283.709 131.227 282.629 130.946 281.537 130.678L281.381 131.328C282.467 131.596 283.54 131.871 284.606 132.159L284.6 132.159ZM276.181 130.157L276.317 129.501C275.232 129.279 274.133 129.072 273.029 128.871L272.913 129.527C274.011 129.728 275.103 129.936 276.181 130.157ZM198.568 130.798L198.557 130.131C197.449 130.137 196.327 130.123 195.239 130.095L195.224 130.763C196.319 130.79 197.447 130.804 198.568 130.798ZM203.919 130.664C205.033 130.612 206.146 130.545 207.259 130.473L207.214 129.806C206.108 129.885 204.994 129.951 203.894 129.997L203.926 130.664L203.919 130.664ZM189.873 130.502L189.921 129.834C188.805 129.753 187.696 129.653 186.605 129.532L186.537 130.193C187.627 130.315 188.75 130.415 189.873 130.496L189.873 130.502ZM212.591 129.992C213.697 129.873 214.809 129.74 215.914 129.594L215.829 128.935C214.731 129.081 213.625 129.207 212.526 129.326L212.597 129.992L212.591 129.992ZM267.652 128.677L267.748 128.015C266.65 127.861 265.54 127.713 264.429 127.579L264.348 128.241C265.451 128.376 266.555 128.523 267.652 128.677ZM221.2 128.821C222.292 128.655 223.391 128.502 224.496 128.356L224.411 127.697C223.299 127.843 222.2 127.996 221.102 128.162L221.2 128.821ZM181.231 129.472L181.34 128.816C180.236 128.628 179.137 128.42 178.072 128.199L177.937 128.849C179.009 129.077 180.114 129.284 181.231 129.472ZM259.058 127.693L259.114 127.031C258.004 126.937 256.895 126.85 255.785 126.775L255.744 127.444C256.853 127.518 257.956 127.605 259.059 127.699L259.058 127.693ZM229.799 127.77C230.905 127.664 232.011 127.578 233.118 127.492L233.073 126.825C231.96 126.904 230.847 126.997 229.74 127.103L229.805 127.77L229.799 127.77ZM250.426 127.169L250.448 126.502C249.332 126.461 248.224 126.44 247.102 126.42L247.094 127.087C248.202 127.101 249.317 127.129 250.419 127.17L250.426 127.169ZM238.439 127.198C239.546 127.152 240.66 127.126 241.768 127.1L241.756 126.433C240.642 126.452 239.528 126.485 238.414 126.531L238.439 127.198ZM172.741 127.544L172.93 126.9C171.85 126.585 170.79 126.243 169.769 125.887L169.546 126.519C170.58 126.881 171.654 127.223 172.741 127.538L172.741 127.544ZM164.565 124.517L164.849 123.911C163.833 123.441 162.836 122.945 161.886 122.427L161.569 123.014C162.533 123.538 163.543 124.047 164.572 124.516L164.565 124.517ZM157.007 120.163L157.398 119.622C156.493 118.977 155.613 118.292 154.787 117.586L154.355 118.094C155.195 118.807 156.088 119.505 157.007 120.163ZM150.511 114.33L151.011 113.887C150.282 113.059 149.586 112.197 148.95 111.313L148.41 111.703C149.06 112.6 149.769 113.482 150.511 114.33ZM145.587 107.127L146.182 106.823C145.678 105.857 145.213 104.844 144.802 103.83L144.185 104.081C144.611 105.122 145.082 106.148 145.594 107.134L145.587 107.127ZM142.494 98.978L143.139 98.8133C142.867 97.7635 142.628 96.6797 142.435 95.5818L141.776 95.7001C141.976 96.8112 142.215 97.915 142.494 98.978ZM141.123 90.3719L141.789 90.3269C141.727 89.4069 141.683 88.4665 141.667 87.5324L141 87.544C141.016 88.4915 141.06 89.4452 141.123 90.3785L141.123 90.3719Z" stroke="black" stroke-width="1.09176" stroke-linejoin="round" mask="url(#path-2-outside-1_938_11463)"/>
<path d="M240.827 165.033C279.245 162.016 316.132 174.484 342.226 191.463C368.578 208.778 384.128 230.606 385.827 253.932C387.538 277.484 375.724 299.853 358.221 321.95C340.482 343.711 317.052 365.203 290.199 379.132C238.299 408.257 178.831 384.681 150.484 314.293C122.107 244.349 161.831 169.05 240.827 165.033Z" fill="#F2F7F8"/>
<path d="M272.448 148H56.8384C51.4048 148 47 152.405 47 157.838V302.044C47 307.478 51.4048 311.883 56.8384 311.883H272.448C277.881 311.883 282.286 307.478 282.286 302.044V157.838C282.286 152.405 277.881 148 272.448 148Z" fill="white" stroke="#18292D" stroke-width="1.99857" stroke-linecap="round" stroke-linejoin="round"/>
<path d="M60.4445 163.217C62.5467 163.217 64.2509 161.513 64.2509 159.41C64.2509 157.308 62.5467 155.604 60.4445 155.604C58.3424 155.604 56.6382 157.308 56.6382 159.41C56.6382 161.513 58.3424 163.217 60.4445 163.217Z" stroke="#18292D" stroke-width="1.99857" stroke-linecap="round" stroke-linejoin="round"/>
<path d="M73.2534 163.217C75.3556 163.217 77.0598 161.513 77.0598 159.41C77.0598 157.308 75.3556 155.604 73.2534 155.604C71.1512 155.604 69.447 157.308 69.447 159.41C69.447 161.513 71.1512 163.217 73.2534 163.217Z" stroke="#18292D" stroke-width="1.99857" stroke-linecap="round" stroke-linejoin="round"/>
<path d="M86.0532 163.217C88.1554 163.217 89.8596 161.513 89.8596 159.41C89.8596 157.308 88.1554 155.604 86.0532 155.604C83.951 155.604 82.2468 157.308 82.2468 159.41C82.2468 161.513 83.951 163.217 86.0532 163.217Z" stroke="#18292D" stroke-width="1.99857" stroke-linecap="round" stroke-linejoin="round"/>
<line x1="165.735" y1="218.858" x2="165.735" y2="234.302" stroke="#18292D" stroke-width="1.27526"/>
<path d="M111.957 249.287C112.206 249.536 112.61 249.536 112.859 249.287L116.917 245.23C117.166 244.981 117.166 244.577 116.917 244.328C116.668 244.079 116.264 244.079 116.015 244.328L112.408 247.935L108.801 244.328C108.552 244.079 108.148 244.079 107.899 244.328C107.65 244.577 107.65 244.981 107.899 245.23L111.957 249.287ZM111.771 233.393L111.771 248.837L113.046 248.837L113.046 233.393L111.771 233.393Z" fill="#18292D"/>
<path d="M217.336 249.287C217.585 249.536 217.988 249.536 218.237 249.287L222.295 245.23C222.544 244.981 222.544 244.577 222.295 244.328C222.046 244.079 221.643 244.079 221.394 244.328L217.787 247.935L214.18 244.328C213.931 244.079 213.527 244.079 213.278 244.328C213.029 244.577 213.029 244.981 213.278 245.23L217.336 249.287ZM217.149 233.393L217.149 248.837L218.424 248.837L218.424 233.393L217.149 233.393Z" fill="#18292D"/>
<rect x="123.947" y="177.707" width="82.3013" height="40.513" rx="3.54119" fill="#F2F7F8" stroke="#18292D" stroke-width="1.27526"/>
<rect x="71.2573" y="250.382" width="82.3013" height="40.513" rx="3.54119" fill="#F2F7F8" stroke="#18292D" stroke-width="1.27526"/>
<rect x="176.636" y="250.382" width="82.3013" height="40.513" rx="3.54119" fill="#F2F7F8" stroke="#18292D" stroke-width="1.27526"/>
<line x1="112.408" y1="233.664" x2="217.787" y2="233.664" stroke="#18292D" stroke-width="1.27526"/>
<path d="M229.297 272.176L217.401 271.335L208.372 268.658C205.418 267.785 202.225 268.182 199.573 269.754L199.438 269.834L198.803 269.746C195.07 269.238 191.338 270.66 188.892 273.518L183.945 279.292L182.865 270.771L190.782 264.513C192.251 263.147 192.831 261.083 192.299 259.153L191.854 257.549C191.481 256.183 189.837 255.635 188.718 256.493L176.226 266.078C174.304 267.555 173.296 269.921 173.558 272.335L175.011 285.494C171.978 291.823 171.072 298.962 172.43 305.847L174.717 317.401L164.14 367.74L196.984 366.533L203.385 314.042L207.967 314.392C212.223 314.717 216.337 312.803 218.823 309.341L228.542 295.841C229.495 294.515 229.019 292.649 227.55 291.942L226.343 291.362C223.77 290.131 220.697 290.711 218.759 292.8L213.486 298.477C211.834 300.256 209.373 301.027 206.998 300.51H206.958L212.176 280.777L225.048 279.252C227.169 278.998 229.075 277.862 230.298 276.115L230.806 275.385C231.719 274.082 230.861 272.288 229.281 272.176H229.297Z" fill="white" stroke="#18292D" stroke-width="1.74706" stroke-linecap="round" stroke-linejoin="round"/>
<path d="M191.124 282.865L198.811 269.754" stroke="#18292D" stroke-width="1.74706" stroke-linecap="round" stroke-linejoin="round"/>
<path d="M182.849 281.801L183.953 279.292" stroke="#18292D" stroke-width="1.74706" stroke-linecap="round" stroke-linejoin="round"/>
<path d="M161.575 312.017L231.235 276.544L234.903 283.747L165.236 319.22C162.52 317.933 161.011 314.971 161.567 312.017H161.575Z" fill="#4A7C88"/>
<path d="M161.575 312.018L231.235 276.544L243.988 274.583L234.896 283.747L165.236 319.22C162.52 317.934 161.011 314.972 161.567 312.018H161.575Z" stroke="#4A7C88" stroke-width="1.74706" stroke-linecap="round" stroke-linejoin="round"/>
<path d="M313.235 363.341L280.248 342.614L286.037 306.665L319.421 312.041L313.235 363.341Z" fill="white" stroke="#18292D" stroke-width="1.74706" stroke-linecap="round" stroke-linejoin="round"/>
<path d="M314.672 265.228C314.672 265.228 296.312 275.488 292.469 273.074C288.625 270.66 279.715 262.631 283.781 255.516C287.839 248.401 289.753 251.498 292.993 252.975C296.233 254.452 298.917 246.408 301.109 247.035C303.3 247.662 305.198 249.592 308.51 253.833C311.813 258.073 314.68 265.228 314.68 265.228H314.672Z" fill="#18292D"/>
<path d="M308.835 323.619C316.928 322.595 324.734 318.513 330.38 311.58C341.783 297.572 339.782 277.576 326.473 266.228C304.643 247.606 285.036 264.751 282.376 269.373C281.756 270.453 281.145 271.501 280.549 272.51C279.35 274.082 278.318 275.726 277.436 277.425C275.054 280.824 272.695 283.143 269.948 283.548C265.739 284.167 262.213 315.273 285.592 317.258" fill="white"/>
<path d="M308.835 323.619C316.928 322.595 324.734 318.513 330.38 311.58C341.783 297.572 339.782 277.576 326.473 266.228C304.643 247.606 285.036 264.751 282.376 269.373C281.756 270.453 281.145 271.501 280.549 272.51C279.35 274.082 278.318 275.726 277.436 277.425C275.054 280.824 272.695 283.143 269.948 283.548C265.739 284.167 262.213 315.273 285.592 317.258" stroke="#18292D" stroke-width="1.74706" stroke-linecap="round" stroke-linejoin="round"/>
<path d="M333.024 261.877C323.963 254.499 312.155 252.665 301.53 255.889C304.412 257.168 307.168 258.811 309.701 260.876C326.909 274.892 328.077 301.956 312.306 321.324C311.432 322.396 310.519 323.421 309.574 324.406C319.842 324.39 330.142 319.831 337.265 311.08C349.637 295.889 347.739 273.86 333.024 261.877Z" fill="#18292D"/>
<path d="M303.277 274.551C305.254 270.064 311.147 271.811 307.557 268.73C300.759 262.909 299.759 253.3 299.759 253.3C319.437 251.704 333.668 283.286 333.668 283.286L321.939 319.784L317.364 327.915L308.057 325.358C304.968 324.509 302.792 321.745 302.689 318.545L302.149 301.813C302.276 301.932 302.403 302.051 302.538 302.162C305.778 304.799 310.543 304.314 313.187 301.074C315.824 297.834 315.339 293.07 312.099 290.425C308.859 287.781 304.095 288.273 301.45 291.513C301.434 291.529 301.427 291.553 301.411 291.569C300.466 291.013 298.353 289.512 299.505 287.797C300.966 285.629 301.299 279.038 303.277 274.551Z" fill="#18292D"/>
<path d="M276.96 296.842C276.96 296.842 275.022 299.225 272.139 299.018" stroke="#18292D" stroke-width="1.74706" stroke-linecap="round" stroke-linejoin="round"/>
<path d="M304.015 295.476C304.015 295.476 305.572 292.824 308.454 292.593" stroke="#18292D" stroke-width="1.74706" stroke-linecap="round" stroke-linejoin="round"/>
<path d="M284.194 270.279C288.728 269.89 291.143 274.932 290.436 277.1" stroke="#18292D" stroke-width="1.74706" stroke-linecap="round" stroke-linejoin="round"/>
<path d="M282.662 280.943C281.963 281.626 280.994 281.769 280.502 281.269C280.009 280.761 280.184 279.8 280.883 279.117C281.582 278.434 282.55 278.291 283.043 278.791C283.535 279.3 283.36 280.26 282.662 280.943Z" fill="#18292D"/>
<path d="M369.085 439.489L340.568 354.074C336.51 343.893 326.568 337.286 315.609 337.485L273.489 338.247C265.159 338.501 257.011 340.772 249.753 344.862L200.208 372.084L199.74 353.923L165.632 359.093L154.332 390.468C146.955 410.949 167.308 430.492 187.471 422.289L249.285 397.147L257.599 439.902" fill="#96D8E8"/>
<path d="M246.895 383.846L249.277 397.147" stroke="white" stroke-width="1.74706" stroke-linecap="round" stroke-linejoin="round"/>
<path d="M177.33 385.585L199.335 372.95" stroke="white" stroke-width="1.74706" stroke-linecap="round" stroke-linejoin="round"/>
<path d="M275.197 347.888L278.675 328.757L320.215 330.822L325.631 346.148L275.197 347.888Z" fill="#96D8E8"/>
<path d="M324.543 337.294C324.543 337.294 290.634 336.428 278.461 337.294" stroke="white" stroke-width="1.74706" stroke-linecap="round" stroke-linejoin="round"/>
<circle cx="145" cy="70" r="49.5" fill="white" stroke="#18292D"/>
<line x1="145.573" y1="62.9663" x2="145.573" y2="69.0436" stroke="#18292D" stroke-width="0.8"/>
<path d="M124.156 75.0461C124.312 75.2023 124.565 75.2023 124.722 75.0461L127.267 72.5005C127.423 72.3443 127.423 72.0911 127.267 71.9349C127.111 71.7786 126.858 71.7786 126.701 71.9349L124.439 74.1976L122.176 71.9349C122.02 71.7786 121.767 71.7786 121.61 71.9349C121.454 72.0911 121.454 72.3443 121.61 72.5005L124.156 75.0461ZM124.039 68.686L124.039 74.7633L124.839 74.7633L124.839 68.686L124.039 68.686Z" fill="#18292D"/>
<path d="M165.514 75.1499C165.67 75.3061 165.923 75.3061 166.079 75.1499L168.625 72.6043C168.781 72.4481 168.781 72.1948 168.625 72.0386C168.469 71.8824 168.215 71.8824 168.059 72.0386L165.796 74.3014L163.534 72.0386C163.377 71.8824 163.124 71.8824 162.968 72.0386C162.812 72.1948 162.812 72.4481 162.968 72.6043L165.514 75.1499ZM165.396 68.6724L165.396 74.8671L166.196 74.8671L166.196 68.6724L165.396 68.6724Z" fill="#18292D"/>
<rect x="134.739" y="46.9488" width="21.781" height="15.6443" rx="1.45821" fill="white" stroke="#18292D" stroke-width="0.8"/>
<path d="M139.248 52.7432H151.637" stroke="#FFC31F" stroke-width="1.24344" stroke-linecap="round" stroke-linejoin="round"/>
<path d="M139.248 55.3984H151.637" stroke="#FFC31F" stroke-width="1.24344" stroke-linecap="round" stroke-linejoin="round"/>
<path d="M139.248 58.0532H145.442" stroke="#FFC31F" stroke-width="1.24344" stroke-linecap="round" stroke-linejoin="round"/>
<rect x="113.099" y="76.0597" width="21.781" height="15.6443" rx="1.45821" fill="white" stroke="#18292D" stroke-width="0.8"/>
<path d="M117.124 81.9468H129.513" stroke="#18292D" stroke-width="1.24344" stroke-linecap="round" stroke-linejoin="round"/>
<path d="M117.124 84.6016H129.513" stroke="#18292D" stroke-width="1.24344" stroke-linecap="round" stroke-linejoin="round"/>
<path d="M117.124 87.2568H123.318" stroke="#18292D" stroke-width="1.24344" stroke-linecap="round" stroke-linejoin="round"/>
<rect x="155.439" y="76.0597" width="21.781" height="15.6443" rx="1.45821" fill="white" stroke="#18292D" stroke-width="0.8"/>
<line x1="124.439" y1="68.6439" x2="165.907" y2="68.6439" stroke="#18292D" stroke-width="0.8"/>
<path d="M159.602 81.9468H171.991" stroke="#18292D" stroke-width="1.24344" stroke-linecap="round" stroke-linejoin="round"/>
<path d="M159.602 84.6016H171.991" stroke="#18292D" stroke-width="1.24344" stroke-linecap="round" stroke-linejoin="round"/>
<path d="M159.602 87.2568H165.796" stroke="#18292D" stroke-width="1.24344" stroke-linecap="round" stroke-linejoin="round"/>
<circle cx="364" cy="70" r="49.5" fill="white" stroke="#18292D"/>
<g clip-path="url(#clip0_938_11463)">
<path d="M376.371 97.5389H344.439C341.627 97.5389 339.346 95.3825 339.346 92.7239V50.9253C339.346 48.2667 341.627 46.1104 344.439 46.1104H376.371C379.184 46.1104 381.464 48.2667 381.464 50.9253V92.7239C381.464 95.3825 379.184 97.5389 376.371 97.5389Z" fill="white" stroke="#18292D" stroke-width="1.28846" stroke-linecap="round" stroke-linejoin="round"/>
<path d="M344.439 46.1108C341.627 46.1108 339.346 48.2672 339.346 50.9258V54.9552H381.464V50.9258C381.464 48.2672 379.184 46.1108 376.371 46.1108H344.439Z" fill="#18292D" stroke="#18292D" stroke-width="1.28846" stroke-linecap="round" stroke-linejoin="round"/>
<path d="M346.5 50.7189C345.785 50.7189 345.212 50.1399 345.212 49.4309V44.8641C345.212 44.1551 345.791 43.5762 346.5 43.5762C347.215 43.5762 347.788 44.1551 347.788 44.8641V49.4309C347.788 50.1399 347.209 50.7189 346.5 50.7189Z" fill="white" stroke="#18292D" stroke-width="1.28846" stroke-linecap="round" stroke-linejoin="round"/>
<path d="M355.77 50.7189C355.055 50.7189 354.482 50.1399 354.482 49.4309V44.8641C354.482 44.1551 355.061 43.5762 355.77 43.5762C356.485 43.5762 357.058 44.1551 357.058 44.8641V49.4309C357.058 50.1399 356.479 50.7189 355.77 50.7189Z" fill="white" stroke="#18292D" stroke-width="1.28846" stroke-linecap="round" stroke-linejoin="round"/>
<path d="M365.045 50.7189C364.33 50.7189 363.757 50.1399 363.757 49.4309V44.8641C363.757 44.1551 364.336 43.5762 365.045 43.5762C365.76 43.5762 366.333 44.1551 366.333 44.8641V49.4309C366.333 50.1399 365.754 50.7189 365.045 50.7189Z" fill="white" stroke="#18292D" stroke-width="1.28846" stroke-linecap="round" stroke-linejoin="round"/>
<path d="M374.315 50.7189C373.6 50.7189 373.027 50.1399 373.027 49.4309V44.8641C373.027 44.1551 373.606 43.5762 374.315 43.5762C375.03 43.5762 375.603 44.1551 375.603 44.8641V49.4309C375.603 50.1399 375.024 50.7189 374.315 50.7189Z" fill="white" stroke="#18292D" stroke-width="1.28846" stroke-linecap="round" stroke-linejoin="round"/>
<path d="M339.612 55.1021H381.464" stroke="#18292D" stroke-width="1.28846" stroke-linecap="round" stroke-linejoin="round"/>
<path d="M352.686 62.2627H377.582" stroke="#18292D" stroke-width="1.28846" stroke-linecap="round" stroke-linejoin="round"/>
<path d="M343.937 69.1221H377.139" stroke="#18292D" stroke-width="1.28846" stroke-linecap="round" stroke-linejoin="round"/>
<path d="M343.937 75.9751H377.139" stroke="#18292D" stroke-width="1.28846" stroke-linecap="round" stroke-linejoin="round"/>
<path d="M343.937 82.8345H377.139" stroke="#18292D" stroke-width="1.28846" stroke-linecap="round" stroke-linejoin="round"/>
<path d="M343.937 89.6929H363.214" stroke="#18292D" stroke-width="1.28846" stroke-linecap="round" stroke-linejoin="round"/>
<path d="M399.134 55.7642C398.1 54.9666 396.588 55.1615 395.778 56.2013L375.502 82.1726C375.408 82.2908 375.331 82.4148 375.266 82.5448L372.088 90.2665C372.017 90.4142 372.094 90.4732 372.218 90.3669L378.953 85.4101C379.059 85.3156 379.165 85.2093 379.254 85.0911L399.548 59.108C400.357 58.0682 400.174 56.5676 399.14 55.7701L399.134 55.7642Z" fill="white" stroke="#18292D" stroke-width="1.28846" stroke-linecap="round" stroke-linejoin="round"/>
<path d="M393.451 59.2202L397.132 62.0856" stroke="#18292D" stroke-width="1.28846" stroke-linecap="round" stroke-linejoin="round"/>
<path d="M373.795 86.125L375.845 87.7024" stroke="#18292D" stroke-width="1.28846" stroke-linecap="round" stroke-linejoin="round"/>
<path d="M395.318 56.916L399.01 59.7577" stroke="#18292D" stroke-width="1.28846" stroke-linecap="round" stroke-linejoin="round"/>
<path d="M377.34 83.8091L395.258 60.6382" stroke="#18292D" stroke-width="1.28846" stroke-linecap="round" stroke-linejoin="round"/>
<path d="M375.396 82.314L379.159 85.2089" stroke="#18292D" stroke-width="1.28846" stroke-linecap="round" stroke-linejoin="round"/>
<path d="M348.031 58.4634C348.019 58.4279 347.984 58.4043 347.943 58.4043H346.696C346.655 58.4043 346.619 58.4279 346.607 58.4693L343.896 66.4391C343.896 66.4391 343.896 66.4982 343.908 66.5218C343.925 66.5454 343.955 66.5572 343.984 66.5572H345.048C345.089 66.5572 345.125 66.5336 345.136 66.4923L345.946 64.0464H348.646L349.479 66.4923C349.491 66.5277 349.526 66.5572 349.567 66.5572H350.666C350.696 66.5572 350.725 66.5454 350.743 66.5218C350.761 66.4982 350.767 66.4686 350.755 66.4391L348.031 58.4693V58.4634ZM347.293 59.7277C347.387 60.094 347.494 60.478 347.63 60.8856L348.368 63.0597H346.218L346.956 60.8738C347.062 60.5312 347.169 60.159 347.281 59.7277H347.293Z" fill="#FFC31F"/>
<path d="M371.255 92.723H366.937L371.267 86.3897C371.267 86.3897 371.285 86.3542 371.285 86.3365V85.7102C371.285 85.6571 371.244 85.6157 371.191 85.6157H365.802C365.749 85.6157 365.708 85.6571 365.708 85.7102V86.5728C365.708 86.626 365.749 86.6673 365.802 86.6673H369.702L365.348 93.0243C365.348 93.0243 365.33 93.0597 365.33 93.0774V93.68C365.33 93.7332 365.371 93.7746 365.424 93.7746H371.255C371.309 93.7746 371.35 93.7332 371.35 93.68V92.8175C371.35 92.7643 371.309 92.723 371.255 92.723Z" fill="#FFC31F"/>
</g>
<defs>
<clipPath id="clip0_938_11463">
<rect width="61.8442" height="55.0973" fill="white" transform="translate(338.779 43.0088)"/>
</clipPath>
</defs>
</svg>
