<svg width="460" height="460" viewBox="0 0 460 460" fill="none" xmlns="http://www.w3.org/2000/svg">
<rect width="460" height="460" fill="white"/>
<path d="M128 78.3678C133.942 77.8726 139.677 73.336 144.926 70.8822C154.776 66.277 164.94 62.2253 175.534 59.6953C191.818 55.8066 217.58 51.4616 228.931 66.8067C234.201 73.9311 236.142 82.7092 236.5 91.4676C236.816 99.2155 234.718 103.527 229.389 109.017C222.562 116.05 209.415 120.316 205.518 108.269C194.505 74.2282 242.393 68.5187 265.153 65.4759C276.77 63.9229 288.306 64.1451 300.003 64.1451C307.128 64.1451 324.015 65.3363 330.782 67.7466C336.173 69.6664 331.854 69.1333 336.849 71.6307" stroke="black" stroke-width="1.5" stroke-linecap="round" stroke-linejoin="round" stroke-dasharray="5 5"/>
<ellipse cx="125.697" cy="59.8063" rx="125.697" ry="59.8063" transform="matrix(0.930064 -0.367398 -0.367398 -0.930064 108.945 332.609)" fill="#F2F7F8"/>
<path d="M261.434 293.234L262.115 295.482C263.747 300.832 268.329 304.766 273.862 305.554L278.196 306.17L286.96 307.586C289.673 308.029 291.845 305.371 290.883 302.788C290.44 301.61 289.424 300.756 288.192 300.529L282.508 299.459L289.219 290.835L296.395 289.809C300.101 289.279 303.019 286.383 303.592 282.687L280.595 281.25L261.423 293.224L261.434 293.234Z" fill="white"/>
<path d="M287.565 308.71C287.316 308.71 287.057 308.689 286.798 308.645L278.033 307.23L273.721 306.614C267.788 305.771 262.828 301.513 261.088 295.785L260.407 293.537C260.266 293.072 260.45 292.565 260.872 292.305L280.043 280.32C280.238 280.201 280.465 280.147 280.681 280.158L303.678 281.595C303.981 281.617 304.262 281.758 304.456 281.995C304.651 282.233 304.726 282.536 304.683 282.838C304.035 287.042 300.782 290.263 296.567 290.868L289.824 291.83L284.474 298.714L288.419 299.449C290.007 299.751 291.358 300.875 291.92 302.399C292.515 303.977 292.223 305.684 291.164 306.992C290.267 308.094 288.959 308.699 287.576 308.699L287.565 308.71ZM262.709 293.71L263.152 295.158C264.654 300.086 268.923 303.75 274.024 304.474L278.357 305.09L287.143 306.506C288.03 306.646 288.905 306.322 289.478 305.619C290.051 304.917 290.202 303.998 289.888 303.155C289.586 302.345 288.862 301.729 288.008 301.578L282.324 300.508C281.956 300.443 281.643 300.183 281.513 299.827C281.383 299.47 281.437 299.081 281.675 298.779L288.386 290.155C288.559 289.938 288.808 289.787 289.089 289.744L296.265 288.717C299.118 288.307 301.42 286.34 302.273 283.67L280.897 282.33L262.73 293.688L262.709 293.71Z" fill="#18292D"/>
<path d="M282.994 285.68C282.475 285.68 282.021 285.313 281.935 284.783C281.837 284.2 282.226 283.638 282.821 283.53L296.719 281.131C297.302 281.033 297.864 281.422 297.972 282.017C298.069 282.6 297.68 283.162 297.086 283.27L283.188 285.67C283.123 285.67 283.069 285.68 283.005 285.68H282.994Z" fill="#18292D"/>
<path d="M285.036 372.611L265.097 384.077L252.355 359.038L272.294 347.571L285.036 372.611Z" fill="white"/>
<path d="M265.097 385.159C264.989 385.159 264.892 385.148 264.783 385.115C264.502 385.029 264.265 384.834 264.124 384.564L251.383 359.524C251.123 359.017 251.307 358.39 251.804 358.098L271.743 346.632C272.003 346.48 272.305 346.448 272.586 346.534C272.867 346.621 273.105 346.815 273.245 347.086L285.987 372.125C286.246 372.633 286.062 373.26 285.565 373.552L265.626 385.018C265.464 385.115 265.27 385.159 265.086 385.159H265.097ZM253.782 359.47L265.54 382.576L283.598 372.19L271.84 349.085L253.782 359.47Z" fill="#18292D"/>
<path d="M220.119 340.666H197.122L198.559 315.27H221.557L220.119 340.666Z" fill="white"/>
<path d="M220.119 341.747H197.122C196.819 341.747 196.538 341.628 196.333 341.412C196.127 341.196 196.019 340.904 196.041 340.612L197.478 315.216C197.511 314.643 197.986 314.2 198.559 314.2H221.556C221.859 314.2 222.14 314.319 222.345 314.535C222.55 314.751 222.659 315.043 222.637 315.334L221.2 340.731C221.167 341.304 220.692 341.747 220.119 341.747ZM198.267 339.585H219.103L220.421 316.35H199.586L198.267 339.585Z" fill="#18292D"/>
<path d="M182.218 220.352C184.347 222.492 185.233 224.448 185.146 225.734C185.146 225.734 234.696 258.274 251.231 251.022C264.61 245.154 254.895 233.32 251.523 231.753C245.19 228.803 244.898 228.349 249.416 221.973C253.933 215.597 259.023 212.376 248.778 209.026C241.537 206.649 241.656 204.347 243.169 195.755C244.682 187.164 231.595 183.111 226.299 184.267C220.993 185.424 227.034 180.939 222.841 178.842C218.648 176.756 216.962 179.102 215.817 180.787C214.671 182.473 205.247 181.176 201.93 187.434C198.612 193.691 191.371 191.313 191.512 202.996C191.652 214.667 188.929 209.415 185.73 209.869C182.52 210.323 177.808 215.889 182.25 220.363L182.218 220.352Z" fill="#18292D"/>
<path d="M167.413 261.602L184.185 240.517L141.066 235.244L183.818 220.06C189.308 218.104 195.327 218.212 200.753 220.352L222.81 229.062C226.711 230.597 230.137 233.125 232.763 236.4L278.109 291.31L277.698 291.959C274.543 296.962 268.437 299.243 262.774 297.546L221.567 259.213L218.217 274.073L167.424 261.613L167.413 261.602Z" fill="#96D8E8"/>
<path d="M266.524 299.178C265.173 299.178 263.801 298.983 262.461 298.583C262.298 298.54 262.158 298.454 262.039 298.335L222.204 261.278L219.265 274.3C219.2 274.581 219.027 274.83 218.779 274.981C218.53 275.132 218.238 275.176 217.957 275.111L167.164 262.65C166.808 262.564 166.516 262.294 166.397 261.948C166.278 261.602 166.343 261.213 166.57 260.921L182.143 241.35L140.936 236.314C140.439 236.249 140.05 235.86 139.996 235.363C139.942 234.865 140.233 234.39 140.709 234.228L183.461 219.044C189.2 217.001 195.49 217.11 201.152 219.357L223.21 228.068C227.273 229.667 230.872 232.326 233.606 235.73L278.952 290.63C279.244 290.986 279.276 291.494 279.028 291.894L278.617 292.542C275.958 296.746 271.333 299.178 266.535 299.178H266.524ZM263.314 296.584C268.415 298 273.927 295.893 276.769 291.408L231.92 237.102C229.413 233.979 226.117 231.558 222.41 230.089L200.353 221.378C195.176 219.336 189.427 219.238 184.185 221.097L145.756 234.747L184.326 239.458C184.715 239.502 185.05 239.761 185.19 240.118C185.342 240.474 185.277 240.896 185.039 241.198L169.315 260.964L217.395 272.755L220.508 258.976C220.594 258.598 220.875 258.295 221.243 258.187C221.61 258.068 222.01 258.165 222.302 258.425L263.325 296.584H263.314Z" fill="#18292D"/>
<path d="M211.732 285.323L218.389 287.29C228.299 290.219 237.01 296.249 243.245 304.495L285.76 360.799H285.522C275.958 360.335 266.556 363.415 259.132 369.456L253.425 374.092L218.929 311.919L211.743 285.323H211.732Z" fill="white"/>
<path d="M253.414 375.173C253.349 375.173 253.274 375.173 253.209 375.151C252.895 375.086 252.625 374.892 252.474 374.611L217.978 312.438C217.935 312.363 217.902 312.276 217.881 312.2L210.694 285.604C210.597 285.226 210.694 284.826 210.986 284.545C211.267 284.275 211.678 284.178 212.045 284.286L218.702 286.253C228.763 289.225 237.787 295.471 244.109 303.836L286.624 360.14C286.873 360.475 286.916 360.929 286.721 361.297C286.527 361.664 286.127 361.902 285.716 361.869H285.479C276.163 361.426 267.053 364.409 259.823 370.288L254.117 374.924C253.922 375.086 253.684 375.162 253.436 375.162L253.414 375.173ZM219.923 311.509L253.738 372.439L258.45 368.613C265.572 362.82 274.423 359.686 283.555 359.654L242.391 305.143C236.35 297.135 227.715 291.17 218.097 288.328L213.288 286.912L219.934 311.509H219.923Z" fill="#18292D"/>
<path d="M191.966 328.443L199.79 324.445C206.134 321.203 213.364 320.133 220.389 321.376L225.749 322.327L218.67 267.762C217.363 257.658 206.729 251.617 197.37 255.669L181.192 262.672H166.462L159.124 270.172C144.967 284.654 155.936 308.98 176.156 307.953L190.172 303.285L191.966 328.443Z" fill="white"/>
<path d="M191.966 329.535C191.782 329.535 191.598 329.492 191.436 329.395C191.123 329.211 190.918 328.898 190.885 328.53L189.189 304.766L176.49 309.002C176.393 309.034 176.296 309.056 176.199 309.056C166.375 309.531 157.783 304.301 153.752 295.342C149.711 286.383 151.472 276.462 158.335 269.437L165.672 261.937C165.878 261.732 166.159 261.613 166.44 261.613H180.954L196.926 254.697C201.703 252.633 207.031 252.924 211.559 255.486C216.076 258.058 219.059 262.489 219.729 267.644L226.808 322.208C226.851 322.554 226.732 322.889 226.483 323.127C226.235 323.364 225.878 323.472 225.543 323.408L220.183 322.457C213.439 321.257 206.372 322.316 200.266 325.429L192.441 329.427C192.29 329.503 192.117 329.546 191.955 329.546L191.966 329.535ZM190.172 302.215C190.388 302.215 190.593 302.28 190.777 302.399C191.058 302.583 191.231 302.885 191.253 303.22L192.939 326.747L199.315 323.494C205.831 320.166 213.385 319.042 220.594 320.328L224.506 321.019L217.611 267.914C217.027 263.44 214.444 259.582 210.522 257.355C206.599 255.118 201.962 254.87 197.823 256.674L181.645 263.677C181.505 263.731 181.364 263.764 181.213 263.764H166.937L159.923 270.94C153.698 277.316 152.099 286.318 155.762 294.445C159.404 302.529 167.142 307.262 175.982 306.895L189.859 302.269C189.967 302.226 190.086 302.215 190.204 302.215H190.172Z" fill="#18292D"/>
<path d="M190.172 304.377C189.589 304.377 189.113 303.912 189.091 303.329L188.367 276.732C188.357 276.138 188.821 275.641 189.416 275.619C190.01 275.598 190.507 276.073 190.529 276.668L191.253 303.264C191.264 303.858 190.799 304.355 190.205 304.377H190.172Z" fill="#18292D"/>
<path d="M164.657 270.95C164.235 270.95 163.846 270.713 163.662 270.302C163.425 269.751 163.673 269.113 164.224 268.875L180.759 261.689C181.31 261.451 181.948 261.7 182.186 262.251C182.423 262.802 182.175 263.439 181.624 263.677L165.089 270.864C164.948 270.929 164.808 270.95 164.657 270.95Z" fill="#18292D"/>
<path d="M225.752 211.364C232.95 203.299 232.247 190.927 224.183 183.73C216.119 176.532 203.747 177.235 196.549 185.299C189.352 193.363 190.054 205.735 198.118 212.933C206.183 220.13 218.555 219.428 225.752 211.364Z" fill="#18292D"/>
<path d="M232.634 209.869C231.867 209.545 231.056 209.426 230.278 209.491C233.434 202.131 231.045 193.464 224.323 188.806C216.65 183.5 206.07 185.651 200.602 193.205L197.792 197.085C192.864 203.904 195.49 213.522 203.206 216.883L204.611 217.499L203.714 221.552C202.709 226.101 205.584 230.597 210.134 231.602L213.095 232.251C217.083 233.126 221.027 230.608 221.902 226.631L223.124 221.109C224.464 220.244 225.598 219.023 226.355 217.499L226.495 217.229C227.003 218.018 227.738 218.666 228.657 219.077C231.186 220.212 234.158 219.077 235.292 216.537C236.416 214.019 235.195 210.928 232.645 209.858L232.634 209.869Z" fill="white"/>
<path d="M214.694 233.536C214.078 233.536 213.462 233.471 212.857 233.331L209.896 232.683C207.41 232.131 205.292 230.651 203.93 228.511C202.558 226.371 202.115 223.821 202.655 221.335L203.357 218.147L202.763 217.888C198.786 216.159 195.846 212.765 194.712 208.572C193.566 204.39 194.366 199.97 196.916 196.457L199.726 192.578C205.605 184.451 216.909 182.365 224.939 187.92C231.564 192.502 234.309 200.953 231.812 208.496C232.234 208.572 232.655 208.702 233.055 208.864C234.536 209.491 235.735 210.723 236.34 212.257C236.945 213.792 236.924 215.51 236.265 216.98C234.892 220.049 231.283 221.443 228.203 220.071C227.641 219.822 227.133 219.498 226.679 219.098C225.987 220.136 225.101 221.043 224.074 221.778L222.95 226.879C222.464 229.084 221.146 230.975 219.233 232.196C217.849 233.072 216.282 233.526 214.694 233.526V233.536ZM214.867 186.98C209.787 186.98 204.697 189.39 201.466 193.853L198.656 197.733C196.495 200.715 195.814 204.465 196.787 208.01C197.759 211.555 200.245 214.44 203.617 215.91L205.022 216.526C205.497 216.731 205.756 217.25 205.648 217.747L204.751 221.8C204.33 223.713 204.676 225.69 205.735 227.344C206.794 228.997 208.437 230.143 210.349 230.564L213.311 231.213C216.704 231.958 220.076 229.808 220.832 226.414L222.053 220.892C222.118 220.611 222.28 220.373 222.518 220.222C223.739 219.433 224.723 218.331 225.371 217.045L225.512 216.775C225.685 216.429 226.03 216.202 226.419 216.18C226.809 216.148 227.176 216.342 227.392 216.667C227.814 217.304 228.397 217.812 229.089 218.115C231.077 219.001 233.412 218.104 234.298 216.115C234.719 215.175 234.73 214.073 234.33 213.068C233.93 212.074 233.163 211.263 232.212 210.874C231.628 210.625 231.002 210.539 230.364 210.582C229.986 210.615 229.618 210.442 229.402 210.139C229.175 209.826 229.132 209.426 229.283 209.08C232.255 202.153 229.91 194.004 223.707 189.714C221.038 187.866 217.958 186.98 214.878 186.98H214.867Z" fill="#18292D"/>
<path d="M228.18 215.9C228.029 215.9 227.888 215.867 227.737 215.802C227.196 215.565 226.948 214.916 227.186 214.376C228.266 211.966 231.098 210.874 233.508 211.955C234.048 212.193 234.297 212.841 234.059 213.382C233.821 213.922 233.173 214.17 232.632 213.933C231.314 213.349 229.747 213.933 229.163 215.262C228.98 215.662 228.59 215.9 228.18 215.9Z" fill="#18292D"/>
<path d="M206.923 199.819C206.588 199.819 206.263 199.668 206.047 199.376C205.701 198.889 205.809 198.219 206.285 197.863L209.668 195.41C210.456 194.837 210.954 193.961 211.029 193C211.116 192.038 210.77 191.087 210.1 190.395C210.067 190.363 210.046 190.33 210.013 190.298C209.981 190.255 208.857 188.969 206.004 189.585C205.42 189.703 204.848 189.347 204.718 188.763C204.588 188.18 204.956 187.607 205.539 187.477C209.441 186.623 211.332 188.515 211.667 188.915C212.758 190.06 213.309 191.616 213.18 193.194C213.039 194.783 212.229 196.231 210.932 197.171L207.549 199.624C207.355 199.765 207.139 199.83 206.912 199.83L206.923 199.819Z" fill="#18292D"/>
<path d="M220.616 200.035C219.838 200.683 218.908 200.705 218.541 200.1C218.174 199.495 218.519 198.468 219.297 197.819C220.076 197.171 221.005 197.149 221.372 197.755C221.74 198.36 221.394 199.387 220.616 200.035Z" fill="#18292D"/>
<path d="M207.517 193.788C206.739 194.437 205.81 194.458 205.442 193.853C205.075 193.237 205.41 192.221 206.199 191.573C206.988 190.924 207.906 190.903 208.274 191.508C208.641 192.124 208.306 193.14 207.517 193.788Z" fill="#18292D"/>
<path d="M204.545 203.039L213.775 205.125C213.775 205.125 206.447 214.721 204.545 203.039Z" fill="white"/>
<path d="M208.339 209.912C208.047 209.912 207.755 209.88 207.463 209.804C205.421 209.296 204.113 207.135 203.475 203.212C203.421 202.855 203.54 202.498 203.8 202.25C204.059 202.001 204.426 201.904 204.783 201.98L214.012 204.065C214.369 204.152 214.661 204.4 214.79 204.746C214.92 205.092 214.855 205.481 214.639 205.773C214.293 206.227 211.386 209.912 208.349 209.912H208.339ZM205.939 204.465C206.426 206.367 207.139 207.502 207.982 207.707C209.052 207.978 210.597 206.875 211.732 205.773L205.939 204.465Z" fill="#18292D"/>
<path d="M230.515 208.854C233.108 202.056 231.087 194.296 225.381 189.639C223.533 196.112 225.608 203.255 230.515 208.854Z" fill="#18292D"/>
<path d="M225.911 201.753C225.359 201.753 224.884 201.332 224.83 200.77C224.387 195.993 219.178 194.35 218.962 194.286C218.389 194.113 218.065 193.507 218.238 192.935C218.411 192.362 219.005 192.038 219.578 192.211C219.859 192.297 226.408 194.318 226.981 200.564C227.035 201.159 226.602 201.688 226.008 201.742C225.975 201.742 225.943 201.742 225.911 201.742V201.753Z" fill="#18292D"/>
<path d="M206.923 218.763C206.026 218.763 205.161 218.709 204.416 218.579C203.832 218.471 203.432 217.909 203.54 217.326C203.648 216.742 204.189 216.342 204.794 216.45C208.025 217.023 214.099 215.834 214.153 215.824C214.747 215.705 215.309 216.083 215.428 216.677C215.547 217.261 215.169 217.834 214.574 217.953C214.369 217.996 210.37 218.785 206.923 218.785V218.763Z" fill="#18292D"/>
<path d="M198.894 337.932L212.554 331.264C218.768 328.239 225.717 328.357 231.844 331.61C236.178 333.901 235.843 341.239 231.325 342.979L205.875 352.792C204.124 353.462 202.211 353.008 200.817 351.603L197.467 348.188C194.549 345.216 195.306 339.683 198.883 337.932H198.894Z" fill="#18292D"/>
<path d="M221.555 260.295C221.458 260.295 221.35 260.284 221.252 260.251C220.68 260.089 220.355 259.484 220.517 258.911L223.868 247.413C224.03 246.84 224.624 246.505 225.208 246.678C225.78 246.84 226.105 247.445 225.943 248.018L222.592 259.517C222.452 259.992 222.02 260.295 221.555 260.295Z" fill="#18292D"/>
<path d="M186.324 234.379L190.993 227.419L191.663 227.917C192.895 228.824 193.424 230.391 192.992 231.861L186.324 234.39V234.379Z" fill="white"/>
<path d="M186.324 235.46C186.119 235.46 185.913 235.406 185.719 235.276C185.222 234.941 185.092 234.271 185.427 233.774L190.096 226.815C190.258 226.566 190.517 226.404 190.809 226.35C191.101 226.307 191.393 226.371 191.63 226.544L192.3 227.042C193.889 228.209 194.581 230.273 194.019 232.164C193.846 232.737 193.251 233.072 192.679 232.888C192.106 232.715 191.782 232.121 191.954 231.548C192.225 230.619 191.954 229.624 191.252 228.976L187.221 234.985C187.016 235.298 186.67 235.46 186.324 235.46Z" fill="#18292D"/>
<path d="M188.011 234.293H145.129C140.168 234.293 136.072 238.194 135.845 243.155C135.565 249.001 140.687 253.637 146.469 252.795L186.66 247.024C189.751 246.581 192.615 245.122 194.798 242.885L198.796 238.789H201.855C204.351 238.789 206.048 236.271 205.129 233.958L204.308 231.905L194.247 230.467L188.022 234.304L188.011 234.293Z" fill="white"/>
<path d="M145.118 253.973C142.557 253.973 140.082 253.022 138.147 251.271C135.846 249.185 134.614 246.202 134.754 243.09C135.024 237.546 139.574 233.202 145.118 233.202H187.698L193.663 229.527C193.879 229.398 194.138 229.343 194.387 229.376L204.448 230.813C204.827 230.867 205.151 231.127 205.302 231.483L206.123 233.537C206.696 234.952 206.523 236.563 205.659 237.827C204.805 239.091 203.378 239.848 201.844 239.848H199.239L195.554 243.62C193.22 246.019 190.107 247.596 186.79 248.072L146.598 253.854C146.101 253.929 145.593 253.962 145.096 253.962L145.118 253.973ZM145.129 235.374C140.73 235.374 137.132 238.81 136.915 243.198C136.797 245.662 137.78 248.018 139.596 249.671C141.422 251.325 143.854 252.071 146.307 251.725L186.498 245.943C189.34 245.532 192.01 244.181 194.02 242.117L198.018 238.021C198.224 237.816 198.505 237.697 198.796 237.697H201.855C202.676 237.697 203.411 237.308 203.876 236.627C204.34 235.947 204.427 235.114 204.124 234.347L203.53 232.867L194.474 231.57L188.573 235.201C188.4 235.309 188.205 235.363 188.011 235.363H145.129V235.374Z" fill="#18292D"/>
<path d="M205.128 235.936L196.634 235.914C196.039 235.914 195.553 235.428 195.553 234.834C195.553 234.239 196.039 233.753 196.634 233.753L205.128 233.775C205.723 233.775 206.209 234.261 206.209 234.855C206.209 235.45 205.723 235.936 205.128 235.936Z" fill="#18292D"/>
<path d="M281.211 366.063L278.422 372.244C272.143 373.963 258.213 375.162 263.963 383.786L264.157 384.705C265.638 387.849 265.994 388.855 270.328 387.374L294.708 379.074C296.384 378.501 297.605 377.313 297.918 375.929L298.675 372.601C299.334 369.694 284.831 365.058 281.221 366.052L281.211 366.063Z" fill="#18292D"/>
<path d="M329.961 415.656L330.079 401.758L307.504 387.925C303.03 385.18 297.507 384.802 292.698 386.909L289.521 380.836C288.159 378.231 286.095 376.048 283.566 374.525L215.558 333.717L86.6626 365.349L83.3124 373.973L205.983 406.081L329.971 415.667L329.961 415.656Z" fill="white"/>
<path d="M329.961 416.737C329.961 416.737 329.907 416.737 329.874 416.737L205.885 407.151C205.821 407.151 205.756 407.14 205.691 407.119L83.0423 375.011C82.7397 374.935 82.4911 374.73 82.3506 374.46C82.2101 374.19 82.1993 373.865 82.3074 373.574L85.6576 364.95C85.7873 364.625 86.0682 364.377 86.4033 364.29L215.298 332.669C215.569 332.604 215.871 332.648 216.109 332.788L284.117 373.595C286.819 375.216 289.013 377.54 290.472 380.328L293.195 385.537C298.091 383.732 303.581 384.262 308.055 387.007L330.631 400.84C330.955 401.034 331.149 401.391 331.149 401.769L331.03 415.667C331.03 415.969 330.901 416.25 330.685 416.456C330.49 416.64 330.22 416.737 329.95 416.737H329.961ZM206.156 405L328.891 414.489L328.999 402.363L306.942 388.844C302.781 386.293 297.615 385.937 293.141 387.893C292.622 388.12 292.017 387.904 291.747 387.407L288.57 381.333C287.295 378.901 285.371 376.87 283.015 375.454L215.385 334.874L87.4732 366.257L84.7606 373.228L206.166 405H206.156Z" fill="#18292D"/>
<path d="M333.44 416.618C330.565 413.743 211.732 345.227 211.732 345.227L79 375.887L188.734 423.805L333.44 416.618Z" fill="#4A7C88"/>
<path d="M158.064 411.95C157.535 411.95 157.07 411.56 156.995 411.009C156.919 410.415 157.33 409.875 157.924 409.799L285.382 392.551C285.976 392.475 286.516 392.886 286.592 393.48C286.668 394.075 286.257 394.615 285.663 394.691L158.205 411.939C158.205 411.939 158.108 411.939 158.064 411.939V411.95Z" fill="#18292D"/>
<path d="M209.938 174.963L210.579 175.093L210.688 174.448C211.293 170.869 213.004 163.717 215.903 156.328C218.809 148.922 222.872 141.372 228.135 136.903L228.135 136.902C232.965 132.8 239.333 131.206 245.388 132.423L245.388 132.423C246.784 132.703 248.861 133.456 250.493 134.788C252.107 136.105 253.251 137.951 252.961 140.487L252.961 140.487C252.886 141.144 252.544 141.91 252.062 142.811C251.924 143.069 251.774 143.338 251.619 143.616C251.259 144.263 250.875 144.952 250.568 145.629C250.124 146.607 249.783 147.673 249.867 148.752C249.954 149.865 250.485 150.91 251.619 151.836C252.704 152.724 253.749 153.056 254.654 152.684C255.522 152.326 255.969 151.43 256.16 150.579C256.356 149.699 256.327 148.684 256.088 147.811C255.98 147.417 255.819 147.016 255.592 146.665C255.797 146.655 255.982 146.672 256.148 146.708C256.561 146.797 256.904 147.014 257.184 147.324C257.763 147.965 258.059 148.996 258.034 149.937C258.011 150.844 257.594 152.076 256.794 153.059C256.008 154.025 254.893 154.703 253.465 154.644L253.439 155.276L253.465 154.644C251.856 154.577 250.014 154.044 248.646 152.964C247.305 151.906 246.397 150.313 246.601 148.008C246.814 145.603 247.54 144.109 248.114 142.93C248.196 142.761 248.276 142.598 248.35 142.44C248.637 141.827 248.904 141.176 248.839 140.485C248.771 139.757 248.354 139.129 247.633 138.495L247.633 138.495C246.747 137.716 245.527 137.504 244.293 137.672C243.053 137.84 241.729 138.395 240.523 139.252C238.112 140.965 236.071 143.961 236.144 147.758C236.169 149.041 236.449 150.721 236.776 152.684L236.8 152.829C237.141 154.875 237.537 157.27 237.792 159.98C238.302 165.395 238.251 172.056 236.063 179.579L235.871 180.239L236.545 180.376C239.222 180.921 242.169 181.929 244.402 182.974C245.521 183.498 246.434 184.019 247.038 184.48C247.342 184.713 247.54 184.909 247.65 185.06C247.682 185.103 247.701 185.137 247.714 185.161C247.659 185.215 247.563 185.291 247.413 185.383C247.102 185.573 246.628 185.786 245.988 186.004C244.715 186.436 242.871 186.854 240.569 187.135C235.969 187.698 229.6 187.709 222.42 186.249C215.218 184.783 208.752 182.514 204.152 180.344C201.849 179.258 200.035 178.207 198.835 177.307C198.232 176.855 197.81 176.46 197.557 176.137C197.307 175.817 197.302 175.672 197.301 175.657C197.301 175.657 197.301 175.657 197.301 175.657C197.306 175.646 197.337 175.583 197.473 175.481C197.635 175.36 197.89 175.227 198.25 175.097C198.968 174.837 199.993 174.627 201.231 174.501C203.7 174.25 206.902 174.345 209.938 174.963Z" fill="white" stroke="#18292D" stroke-width="1.26612"/>
<path d="M221.672 179.265C226.937 180.548 233.366 181.258 238.721 180.245C239.062 180.181 237.867 176.398 237.663 176.411C232.582 176.735 227.457 176.208 222.539 175.004C217.814 173.848 214.914 172.835 210.607 170.507C210.175 170.274 207.992 173.603 208.649 174.088C211.468 176.168 216.603 178.03 221.672 179.265Z" fill="#18292D"/>
<path d="M223.16 180.757C222.053 180.532 221.311 179.467 221.495 178.343L221.9 175.866C221.992 175.31 222.294 174.822 222.754 174.492C223.214 174.161 223.773 174.03 224.329 174.121L229.974 175.044C231.141 175.225 231.908 176.322 231.72 177.473L231.314 179.949C231.223 180.506 230.92 180.994 230.46 181.324C230.001 181.655 229.441 181.786 228.886 181.695L223.24 180.772C223.213 180.767 223.186 180.762 223.16 180.757ZM229.881 175.911C229.866 175.908 229.849 175.905 229.834 175.903L224.188 174.979C223.862 174.926 223.533 175.004 223.262 175.198C222.991 175.393 222.812 175.68 222.758 176.007L222.353 178.484C222.299 178.81 222.378 179.139 222.572 179.41C222.767 179.681 223.055 179.859 223.381 179.914L229.026 180.837C229.353 180.891 229.681 180.813 229.952 180.618C230.224 180.423 230.402 180.136 230.456 179.81L230.861 177.332C230.915 177.006 230.836 176.677 230.642 176.406C230.457 176.148 230.188 175.974 229.881 175.912L229.881 175.911Z" fill="#FFC31F"/>
<path d="M223.823 177.48C223.881 177.196 223.697 176.918 223.413 176.86C223.129 176.802 222.851 176.986 222.793 177.271C222.735 177.555 222.919 177.833 223.203 177.891C223.488 177.949 223.766 177.765 223.823 177.48Z" fill="#16325B"/>
<path d="M223.24 177.774L221.399 177.479C221.178 177.443 221.028 177.235 221.063 177.015C221.098 176.795 221.307 176.644 221.527 176.679L223.368 176.974C223.588 177.01 223.739 177.218 223.704 177.438C223.669 177.658 223.46 177.809 223.24 177.774Z" fill="#FFC31F"/>
<circle cx="91" cy="98" r="49.5" fill="white" stroke="#18292D"/>
<g clip-path="url(#clip0_930_8463)">
<path d="M75.6194 125.102L91.4157 98.6948L108.816 125.102" stroke="#18292D" stroke-width="1.20475" stroke-linecap="round" stroke-linejoin="round"/>
<path d="M91.7574 90.6064V125.102" stroke="#18292D" stroke-width="1.20475" stroke-linecap="round" stroke-linejoin="round"/>
<path d="M115.687 107.353H67.1382C66.238 107.353 65.5027 106.567 65.5027 105.597V72.1221C65.5027 71.1522 66.238 70.3599 67.1382 70.3599H115.687C116.587 70.3599 117.323 71.1459 117.323 72.1157V105.597C117.323 106.567 116.594 107.353 115.687 107.353Z" fill="#18292D" stroke="#18292D" stroke-width="1.20475" stroke-linecap="round" stroke-linejoin="round"/>
<path d="M67.7276 103.024V74.6957C67.7276 73.6815 68.4946 72.8574 69.439 72.8574H113.392C114.337 72.8574 115.104 73.6815 115.104 74.6957V103.024C115.104 104.038 114.337 104.862 113.392 104.862H69.4327C68.4882 104.862 67.7212 104.038 67.7212 103.024H67.7276Z" fill="white" stroke="#18292D" stroke-width="1.20475" stroke-linecap="round" stroke-linejoin="round"/>
<path d="M92.3485 82.0537C88.9596 82.0537 86.2168 84.8206 86.2168 88.2417C86.2168 91.6552 88.9671 94.4297 92.3485 94.4297C95.7375 94.4297 98.4803 91.6627 98.4803 88.2417C98.4803 84.8281 95.73 82.0537 92.3485 82.0537ZM90.5751 90.9936V85.4823L95.3092 88.2342L90.5751 90.9861V90.9936Z" fill="#FFC31F"/>
</g>
<circle cx="369" cy="87" r="49.5" fill="white" stroke="#18292D"/>
<g clip-path="url(#clip1_930_8463)">
<path d="M393.142 59.6035H363.721C362.974 59.6035 362.368 60.2093 362.368 60.9565V61.5356C362.368 62.2829 362.974 62.8886 363.721 62.8886H393.142C393.89 62.8886 394.495 62.2829 394.495 61.5356V60.9565C394.495 60.2093 393.89 59.6035 393.142 59.6035Z" fill="#18292D" stroke="#18292D" stroke-width="1.3" stroke-linecap="round" stroke-linejoin="round"/>
<path d="M367.111 81.6353L371.285 76.0886C371.355 75.9937 371.465 75.9288 371.585 75.9188C371.704 75.9038 371.824 75.9388 371.914 76.0187L373.976 77.7561L377.281 73.088C377.421 72.8933 377.69 72.8434 377.885 72.9832L381.68 75.6143L388.325 67.8408" stroke="#FFC31F" stroke-width="1.3" stroke-linecap="round" stroke-linejoin="round"/>
<path d="M389.932 65.5845L386.408 67.6314L388.854 69.5186L389.932 65.5845L386.408 67.6314L388.854 69.5186L389.932 65.5845Z" fill="white"/>
<path d="M389.932 65.5845L386.408 67.6314L388.854 69.5186L389.932 65.5845ZM389.932 65.5845L386.408 67.6314L388.854 69.5186L389.932 65.5845Z" stroke="#FFC31F" stroke-width="1.3" stroke-linecap="round" stroke-linejoin="round"/>
<path d="M393.287 62.8882H363.771V84.1716H393.287V62.8882Z" stroke="#18292D" stroke-width="1.3" stroke-linecap="round" stroke-linejoin="round"/>
<path d="M352.713 92.1252V111.511C352.713 113.104 354.001 114.392 355.594 114.392C357.186 114.392 358.474 113.104 358.474 111.511L358.31 92.1252L358.03 78.3457C358.584 79.1745 359.163 79.9883 359.792 80.7771L359.822 80.817C360.237 81.3313 360.861 81.6308 361.52 81.6308C362.189 81.6308 362.818 81.3263 363.232 80.7971L369.568 72.734C370.307 71.7954 370.227 70.4125 369.308 69.6486C368.36 68.8548 366.952 69.0096 366.198 69.9731L361.59 75.8344C361.125 75.1405 360.666 74.4115 360.192 73.6477C359.143 71.9652 357.511 70.9367 355.059 70.9667C355.029 70.9667 354.994 70.9667 354.964 70.9667L349.118 71.0465C344.785 71.0266 343.017 73.1135 342.967 75.7446C342.967 75.8444 342.932 90.8322 342.932 90.8322C342.907 92.0354 343.861 93.0289 345.064 93.0589C345.079 93.0589 345.094 93.0589 345.114 93.0589C345.873 93.0589 346.547 92.6644 346.936 92.0703" fill="white"/>
<path d="M352.713 92.1252V111.511C352.713 113.104 354.001 114.392 355.594 114.392C357.186 114.392 358.474 113.104 358.474 111.511L358.31 92.1252L358.03 78.3457C358.584 79.1745 359.163 79.9883 359.792 80.7771L359.822 80.817C360.237 81.3313 360.861 81.6308 361.52 81.6308C362.189 81.6308 362.818 81.3263 363.232 80.7971L369.568 72.734C370.307 71.7954 370.227 70.4125 369.308 69.6486C368.36 68.8548 366.952 69.0096 366.198 69.9731L361.59 75.8344C361.125 75.1405 360.666 74.4115 360.192 73.6477C359.143 71.9652 357.511 70.9367 355.059 70.9667C355.029 70.9667 354.994 70.9667 354.964 70.9667L349.118 71.0465C344.785 71.0266 343.017 73.1135 342.967 75.7446C342.967 75.8444 342.932 90.8322 342.932 90.8322C342.907 92.0354 343.861 93.0289 345.064 93.0589C345.079 93.0589 345.094 93.0589 345.114 93.0589C345.873 93.0589 346.547 92.6644 346.936 92.0703" stroke="#18292D" stroke-width="1.3" stroke-linecap="round" stroke-linejoin="round"/>
<path d="M351.734 69.1747C354.376 69.1747 356.517 67.0333 356.517 64.3918C356.517 61.7503 354.376 59.6089 351.734 59.6089C349.093 59.6089 346.951 61.7503 346.951 64.3918C346.951 67.0333 349.093 69.1747 351.734 69.1747Z" fill="white" stroke="#18292D" stroke-width="1.3" stroke-linecap="round" stroke-linejoin="round"/>
<path d="M352.713 92.1255V111.512C352.713 113.104 351.425 114.392 349.832 114.392C348.24 114.392 346.951 113.104 346.951 111.512V92.1255" fill="white"/>
<path d="M352.713 92.1255V111.512C352.713 113.104 351.425 114.392 349.832 114.392C348.24 114.392 346.951 113.104 346.951 111.512V92.1255" stroke="#18292D" stroke-width="1.3" stroke-linecap="round" stroke-linejoin="round"/>
<path d="M346.951 78.875V92.1253" stroke="#18292D" stroke-width="1.3" stroke-linecap="round" stroke-linejoin="round"/>
</g>
<defs>
<clipPath id="clip0_930_8463">
<rect width="53.0368" height="55.9654" fill="white" transform="translate(64.8938 69.752)"/>
</clipPath>
<clipPath id="clip1_930_8463">
<rect width="52.522" height="55.7522" fill="white" transform="translate(342.452 59.124)"/>
</clipPath>
</defs>
</svg>
