<svg width="460" height="460" viewBox="0 0 460 460" fill="none" xmlns="http://www.w3.org/2000/svg">
<rect width="460" height="460" fill="white"/>
<path d="M184.9 135.293C184.077 134.959 176.832 139.206 175.967 139.334C172.956 139.779 169.876 139.664 166.859 139.521C157.302 139.068 148.661 135.972 141.498 129.577C136.26 124.9 129.619 114.993 134.373 107.886C137.942 102.551 142.235 103.394 146.616 106.686C150.481 109.591 148.923 113.553 145.881 116.752C143.067 119.711 141.17 120.343 137.276 120.515C128.909 120.885 122.032 119.467 114.454 115.925C112.486 115.006 103.743 111.952 103.846 109.226" stroke="black" stroke-width="1.23053" stroke-linecap="round" stroke-linejoin="round" stroke-dasharray="3.69 3.69"/>
<circle cx="71" cy="80" r="49.5" fill="white" stroke="#18292D"/>
<path d="M87.4632 90.3931L80.1552 77.7346L87.115 76.3332C87.5057 76.2526 87.8581 76.0402 88.1087 75.7303L92.0239 70.8809L97.5866 80.516C98.0538 81.327 98.3722 82.2188 98.4869 83.1487C98.6695 84.6392 98.5081 86.7412 96.7204 88.3421C94.8647 90.0024 92.4782 90.2445 91.1151 90.3804L87.4632 90.3973V90.3931Z" fill="#18292D" stroke="#18292D" stroke-width="1.5" stroke-linecap="round" stroke-linejoin="round"/>
<path d="M97.7607 87.0857L88.6395 101.018C87.7647 102.343 86.2742 103.133 84.6903 103.112L78.4736 103.035L78.3207 108.012L71.743 96.6656L78.3249 84.4827L78.3334 90.2281C78.3334 90.2281 89.7435 90.5083 91.1066 90.3767C92.4697 90.245 94.8562 89.9987 96.7119 88.3384L97.7523 87.0857H97.7607Z" fill="#FFC31F" stroke="#18292D" stroke-width="1.5" stroke-linecap="round" stroke-linejoin="round"/>
<path d="M71.4712 60.7586L64.2056 73.4383L59.4964 68.1261C59.2331 67.8288 58.8679 67.6292 58.473 67.5698L52.3114 66.6228L57.8445 56.9708C58.3116 56.1597 58.9231 55.4378 59.6662 54.8688C60.8637 53.9601 62.7618 53.0428 65.0422 53.786C67.4074 54.5546 68.8215 56.4952 69.6198 57.6077L71.4712 60.7586Z" fill="#18292D" stroke="#18292D" stroke-width="1.5" stroke-linecap="round" stroke-linejoin="round"/>
<path d="M63.4327 53.5137L80.0659 54.3927C81.6498 54.4819 83.0809 55.3736 83.8622 56.7537L86.9196 62.1636L91.2977 59.7941L84.7964 71.183L70.9531 71.6203L75.9129 68.7243C75.9129 68.7243 70.4181 58.7198 69.6155 57.6072C68.8172 56.4946 67.4031 54.554 65.0379 53.7854L63.4285 53.5137H63.4327Z" fill="#FFC31F" stroke="#18292D" stroke-width="1.5" stroke-linecap="round" stroke-linejoin="round"/>
<path d="M53.5386 89.5782L68.1547 89.489L65.9296 96.2323C65.8022 96.6102 65.815 97.0221 65.9636 97.3958L68.2397 103.196L57.1141 103.264C56.1799 103.269 55.2457 103.103 54.3837 102.746C52.9951 102.169 51.2498 100.988 50.7445 98.64C50.2179 96.2068 51.1861 94.0114 51.7466 92.763L53.5386 89.5782Z" fill="#18292D" stroke="#18292D" stroke-width="1.5" stroke-linecap="round" stroke-linejoin="round"/>
<path d="M51.3178 100.165L43.7209 85.3453C43.0033 83.9312 43.0543 82.2454 43.8568 80.8738L46.9992 75.5106L42.7443 72.9203L55.8572 72.8184L63.1907 84.5682L58.1927 81.7358C58.1927 81.7358 52.3029 91.5153 51.7466 92.7637C51.1861 94.0122 50.2179 96.2118 50.7445 98.6408L51.3178 100.165Z" fill="#FFC31F" stroke="#18292D" stroke-width="1.5" stroke-linecap="round" stroke-linejoin="round"/>
<path opacity="0.9" d="M244.743 229.45C231.462 229.399 198.781 223.321 187.459 211.557C170.111 193.532 154.296 182 125.594 182C73.3547 182 30.54 220.591 31.0037 267.241C31.4639 313.543 73.6375 350.952 125.594 350.952C135.93 350.952 145.877 349.471 155.186 346.736C174.51 341.056 195.495 342.517 213.816 350.413C223.17 354.444 233.661 356.704 244.743 356.704C284.298 356.704 316.326 327.918 315.988 292.524C315.655 257.501 283.962 229.601 244.743 229.45Z" fill="#F2F7F8"/>
<path d="M228.513 447C348.642 447 446.026 444.215 446.026 440.779C446.026 437.343 348.642 434.558 228.513 434.558C108.384 434.558 11 437.343 11 440.779C11 444.215 108.384 447 228.513 447Z" fill="#BACCED"/>
<g clip-path="url(#clip0_735_70323)">
<path opacity="0.85" d="M333.825 288.72C333.825 288.72 325.217 281.248 333.825 277.483C344.992 272.599 353.141 283.213 358.707 280.126C364.274 277.042 361.49 270.983 376.714 269C376.714 269 386.045 269 393.412 274.948C400.778 280.897 409.782 280.237 406.18 288.72H333.825Z" fill="#E7E6E6"/>
</g>
<path d="M386.681 207.004C421.334 171.288 421.334 113.383 386.681 77.6678C352.028 41.9528 295.845 41.9528 261.192 77.6678C226.539 113.383 226.539 171.288 261.192 207.004C295.845 242.719 352.028 242.719 386.681 207.004Z" fill="#F2F7F8"/>
<path d="M335.286 105.482C331.142 104.698 329.102 106.622 328.118 108.373C327.982 108.617 327.859 108.869 327.748 109.127C326.914 100.636 324.031 94.8811 319.148 91.9867C314.905 89.4717 309.063 89.1778 302.252 91.136C297.139 92.6035 293.225 94.8458 293.185 94.8687C293.067 94.9367 292.987 95.0576 292.966 95.1961C292.814 96.2303 289.289 120.645 293.21 131.649C297.136 142.667 298.358 146.158 298.358 146.159C298.4 146.281 298.492 146.379 298.61 146.427C298.687 146.457 303.551 148.317 310.75 146.321L312.374 156.27C312.396 156.405 312.475 156.523 312.592 156.59C312.743 156.678 314.988 157.874 320.906 156.039C325.078 154.745 331.076 151.946 339.453 146.189C339.607 146.083 339.68 145.889 339.635 145.704L334.325 123.719C337.275 123.066 339.862 119.906 340.521 115.762C341.325 110.704 339.026 106.188 335.286 105.481L335.286 105.482Z" fill="white"/>
<path d="M322.634 80.7622C318.994 81.8908 316.043 84.2558 314.083 87.2782C324.812 87.0558 334.909 94.4295 338.251 105.881C338.398 106.386 338.526 106.891 338.643 107.397C342.353 103.313 343.924 97.3716 342.247 91.6286C339.743 83.0459 330.962 78.181 322.634 80.7631V80.7622Z" fill="#18292D"/>
<path d="M330.681 118.33L339.755 114.994L341.888 102.886C342.942 96.9015 340.699 90.8029 336.048 87.0578C330.869 82.8891 324.708 78.2351 323.457 78.6233C322.039 79.0628 304.687 81.7507 294.14 84.4042C288.207 85.8973 284.577 92.063 286.027 98.1775L291.306 110.349L293.232 94.6892C293.232 94.6892 305.563 102.163 320.863 96.1655L330.681 118.332V118.33Z" fill="#18292D"/>
<path d="M313.308 115.739C315.775 113.197 315.775 109.075 313.308 106.533C310.842 103.99 306.842 103.99 304.376 106.533C301.909 109.075 301.909 113.197 304.376 115.739C306.842 118.281 310.842 118.281 313.308 115.739Z" stroke="#FFC31F" stroke-width="1.27507" stroke-linecap="round" stroke-linejoin="round"/>
<path d="M309.048 127.496C308.722 129.36 303.116 130.119 303.116 130.119" stroke="#18292D" stroke-width="1.27507" stroke-linecap="round" stroke-linejoin="round"/>
<path d="M332.435 123.333C335.896 123.918 339.322 120.496 340.087 115.69C340.853 110.883 338.668 106.512 335.207 105.926C331.746 105.341 328.32 108.763 327.555 113.57" fill="white"/>
<path d="M332.435 123.333C335.896 123.918 339.322 120.496 340.087 115.69C340.853 110.883 338.668 106.512 335.207 105.926C331.746 105.341 328.32 108.763 327.555 113.57" stroke="#18292D" stroke-width="1.27507" stroke-linecap="round" stroke-linejoin="round"/>
<path d="M301.512 110.637L297.349 111.928" stroke="#FFC31F" stroke-width="1.27507" stroke-linecap="round" stroke-linejoin="round"/>
<path d="M307.183 110.5C307.546 111.745 308.362 112.593 309.004 112.393C309.647 112.194 309.874 111.024 309.51 109.779C309.147 108.534 308.331 107.686 307.688 107.885C307.046 108.084 306.819 109.255 307.183 110.5Z" fill="#18292D"/>
<path d="M293.277 112.927C293.64 114.173 294.456 115.021 295.098 114.821C295.74 114.622 295.967 113.452 295.603 112.206C295.24 110.961 294.424 110.113 293.782 110.313C293.14 110.512 292.913 111.682 293.277 112.927Z" fill="#18292D"/>
<path d="M328.487 110.118L314.891 109.26" stroke="#FFC31F" stroke-width="1.27507" stroke-linecap="round" stroke-linejoin="round"/>
<path d="M293.399 95.2637C293.399 95.2637 289.693 120.472 293.62 131.493C297.547 142.515 298.769 146.006 298.769 146.006C298.769 146.006 311.08 150.977 325.853 136.564" stroke="#18292D" stroke-width="1.27507" stroke-linecap="round" stroke-linejoin="round"/>
<path d="M333.85 123.625L339.209 145.813" stroke="#18292D" stroke-width="1.27507" stroke-linecap="round" stroke-linejoin="round"/>
<path d="M311.132 145.939L312.805 156.195" stroke="#18292D" stroke-width="1.27507" stroke-linecap="round" stroke-linejoin="round"/>
<path d="M297.665 111.033C296.272 108.367 293.209 106.986 290.286 107.893C286.945 108.929 285.052 112.559 286.056 116.002C287.062 119.446 290.584 121.397 293.925 120.362C294.76 120.103 295.505 119.681 296.137 119.142" stroke="#FFC31F" stroke-width="1.27507" stroke-linecap="round" stroke-linejoin="round"/>
<path d="M298.295 106.822C298.295 106.822 296.685 121.129 296.184 122.539C295.682 123.95 301.716 125.845 301.716 125.845" stroke="#18292D" stroke-width="1.27507" stroke-linecap="round" stroke-linejoin="round"/>
<path d="M343.933 165.032L318.324 172.971C316.145 173.646 313.847 172.374 313.192 170.128L309.274 156.703C308.619 154.458 309.854 152.09 312.033 151.414L337.642 143.475C339.821 142.8 342.119 144.072 342.774 146.318L346.692 159.743C347.347 161.988 346.112 164.357 343.933 165.032Z" fill="#18292D"/>
<path d="M289.575 225.936C312.879 237.655 338.491 234.284 359.512 225.936C384.516 219.214 400.46 188.589 400.46 188.589L393.635 162.534C388.316 149.631 370.556 145.061 353.968 152.325L295.796 177.8C283.389 183.233 274.705 194.04 273.939 205L278.704 213.238C278.704 213.238 282.835 222.547 289.575 225.936Z" fill="#18292D"/>
<path d="M218.707 140.837L206.072 152.547L207.183 153.82C209.216 156.151 212.697 156.341 214.959 154.245L222.4 147.349L218.707 140.837Z" fill="white" stroke="#18292D" stroke-width="1.27507" stroke-linecap="round" stroke-linejoin="round"/>
<path d="M217.114 140.401L200.745 145.099L201.191 146.748C202.007 149.767 205.043 151.533 207.973 150.693L217.613 147.925L217.114 140.4V140.401Z" fill="white" stroke="#18292D" stroke-width="1.27507" stroke-linecap="round" stroke-linejoin="round"/>
<path d="M233.994 190.813L217.9 169.1C214.273 164.943 212.396 159.47 212.684 153.886L213.771 132.786L199.622 132.012C196.329 131.832 193.801 128.934 193.976 125.54L194.072 123.686L222.652 125.249L239.342 137.832L244.157 167.999L255.881 184.712" fill="white"/>
<path d="M233.994 190.813L217.9 169.1C214.273 164.943 212.396 159.47 212.684 153.886L213.771 132.786L199.622 132.012C196.329 131.832 193.801 128.934 193.976 125.54L194.072 123.686L222.652 125.249L239.342 137.832L244.157 167.999L255.881 184.712" stroke="#18292D" stroke-width="1.27507" stroke-linecap="round" stroke-linejoin="round"/>
<path d="M215.502 137.792L198.534 136.864L198.446 138.574C198.285 141.704 200.616 144.376 203.653 144.542L213.646 145.089L215.502 137.793V137.792Z" fill="white" stroke="#18292D" stroke-width="1.27507" stroke-linecap="round" stroke-linejoin="round"/>
<path d="M252.949 134.328L192.88 131.514L183.001 135.573L191.96 140.514L252.029 143.327L252.169 143.112C253.862 140.512 254.156 137.202 252.949 134.328H252.949Z" fill="#18292D"/>
<path d="M249.752 134.464L249.125 142.94" stroke="white" stroke-width="0.858627" stroke-linecap="round" stroke-linejoin="round"/>
<path d="M187.332 133.792L183 135.571L187.124 137.846L187.332 133.792Z" fill="#18292D"/>
<path d="M224.127 148.123L207.922 129.549L207.835 129.642C205.054 132.615 204.692 137.197 206.969 140.594L212.924 150.689" fill="white"/>
<path d="M224.127 148.123L207.922 129.549L207.835 129.642C205.054 132.615 204.692 137.197 206.969 140.594L212.924 150.689" stroke="#18292D" stroke-width="1.27507" stroke-linecap="round" stroke-linejoin="round"/>
<path d="M228.54 195.88L250.179 252.626C255.26 265.949 271.983 269.437 281.689 259.198L322.183 216.48L279 191.069L271.178 204.916L253.243 174.668L228.539 195.88H228.54Z" fill="#18292D"/>
<path d="M328.79 229.637L335.201 229.202L330.786 225.092C329.08 223.505 326.876 222.605 324.578 222.558C322.534 222.516 321.536 223.338 320.219 225.969L313.855 239.844L316.938 240.214C319.136 240.478 321.309 239.54 322.668 237.74L328.79 229.637Z" fill="white" stroke="#18292D" stroke-width="1.27507" stroke-linecap="round" stroke-linejoin="round"/>
<path d="M337.224 229.064L343.635 228.629L339.219 224.519C337.514 222.932 335.31 222.032 333.012 221.985C330.967 221.944 329.163 223.355 328.652 225.397L324.038 242.817L328.275 242.753C330.467 242.721 332.436 241.364 333.302 239.288L337.224 229.065V229.064Z" fill="white" stroke="#18292D" stroke-width="1.27507" stroke-linecap="round" stroke-linejoin="round"/>
<path d="M345.658 228.491L352.069 228.056L347.654 223.947C345.948 222.359 343.745 221.459 341.446 221.412C339.402 221.371 337.597 222.783 337.087 224.824L332.928 240.758L337.165 240.695C339.356 240.662 341.326 239.305 342.192 237.229L345.658 228.491Z" fill="white" stroke="#18292D" stroke-width="1.27507" stroke-linecap="round" stroke-linejoin="round"/>
<path d="M353.672 227.949L359.063 225.718L355.668 223.404C353.962 221.816 351.759 220.916 349.461 220.87C347.416 220.828 345.611 222.24 345.101 224.281L341.644 238.098L345.881 238.034C348.073 238.001 350.042 236.644 350.908 234.569L353.672 227.949V227.949Z" fill="white" stroke="#18292D" stroke-width="1.27507" stroke-linecap="round" stroke-linejoin="round"/>
<g clip-path="url(#clip1_735_70323)">
<path d="M272.245 215H272.315C273.471 215 274.408 215.959 274.408 217.141V226.077H270.152V217.141C270.152 215.959 271.09 215 272.245 215Z" fill="#4A7C88"/>
<path opacity="0.3" d="M274.407 224.5H270.151V226.077H274.407V224.5Z" fill="white"/>
<path d="M307.962 226.077H265.337V397.876H307.962V226.077Z" fill="#4A7C88"/>
<path d="M286.649 268.474C278.903 268.474 272.6 262.027 272.6 254.102C272.6 246.177 278.902 239.729 286.649 239.729C294.396 239.729 300.698 246.177 300.698 254.102C300.698 262.027 294.396 268.474 286.649 268.474ZM286.649 240.682C279.416 240.682 273.532 246.702 273.532 254.102C273.532 261.502 279.416 267.522 286.649 267.522C293.882 267.522 299.767 261.502 299.767 254.102C299.767 246.702 293.882 240.682 286.649 240.682Z" fill="#FEFEFE"/>
<path d="M286.275 256.156L284.617 264.908L294.401 252.93H288.307L291.568 244.889H285.045L281.57 256.211L286.275 256.156Z" fill="#FEFEFF"/>
</g>
<path d="M165 238H53V439H165V238Z" fill="#7CCFE3"/>
<path opacity="0.2" d="M164.814 267H53.1376V270.489H164.814V267Z" fill="#FEFEFF"/>
<path d="M106.201 379.246H19.4841V439.006H106.201V379.246Z" fill="#4A7C88"/>
<path d="M106.201 408.854H19.4841V411.761H106.201V408.854Z" fill="#F5F5F5"/>
<path d="M106.201 398.137H19.4841V401.044H106.201V398.137Z" fill="#F5F5F5"/>
<path d="M287 285H106V439H287V285Z" fill="#3DA1B9"/>
<g opacity="0.7">
<path d="M153.376 314H126.359V345.123H153.376V314Z" fill="#7CCFE3"/>
<path d="M191.141 314H164.124V345.123H191.141V314Z" fill="#7CCFE3"/>
<path d="M228.907 314H201.89V345.123H228.907V314Z" fill="#7CCFE3"/>
<path d="M266.674 314H239.657V345.123H266.674V314Z" fill="#7CCFE3"/>
<path d="M153.376 352.562H126.359V383.684H153.376V352.562Z" fill="#7CCFE3"/>
<path d="M191.141 352.562H164.124V383.684H191.141V352.562Z" fill="#7CCFE3"/>
<path d="M228.907 352.562H201.89V383.684H228.907V352.562Z" fill="#7CCFE3"/>
<path d="M266.674 352.562H239.657V383.684H266.674V352.562Z" fill="#7CCFE3"/>
<path d="M153.65 391.123H126.633V422.246H153.65V391.123Z" fill="#7CCFE3"/>
<path d="M191.417 391.123H164.4V422.246H191.417V391.123Z" fill="#7CCFE3"/>
<path d="M229.183 391.123H202.166V422.246H229.183V391.123Z" fill="#7CCFE3"/>
<path d="M266.949 391.123H239.932V422.246H266.949V391.123Z" fill="#7CCFE3"/>
</g>
<path d="M379.316 347.822H287.107V439.006H379.316V347.822Z" fill="#7CCFE3"/>
<g opacity="0.8">
<path d="M311.093 371.677H303.911V386.814H311.093V371.677Z" fill="white"/>
<path d="M329.046 371.677H321.864V386.814H329.046V371.677Z" fill="white"/>
<path d="M347 371.677H339.819V386.814H347V371.677Z" fill="white"/>
<path d="M364.953 371.677H357.772V386.814H364.953V371.677Z" fill="white"/>
<path d="M311.093 400.74H303.911V415.877H311.093V400.74Z" fill="white"/>
<path d="M329.046 400.74H321.864V415.877H329.046V400.74Z" fill="white"/>
<path d="M347 400.74H339.819V415.877H347V400.74Z" fill="white"/>
<path d="M364.953 400.74H357.772V415.877H364.953V400.74Z" fill="white"/>
</g>
<g clip-path="url(#clip2_735_70323)">
<path d="M398.728 421.817C401.502 418.064 404.833 416.385 411.383 417.273C417.934 418.163 421.027 432.103 427.021 431.117C433.017 430.129 436.2 434.312 434.806 439.006H382.015C382.015 439.006 380.09 438.17 380.116 435.582C380.131 433.988 381.944 428.824 386.867 428.024C386.962 428.008 395.951 425.572 398.726 421.819L398.728 421.817Z" fill="#91DBA3"/>
</g>
<g clip-path="url(#clip3_735_70323)">
<path d="M407.232 438.86H391.614L396.039 332.098C396.119 330.161 397.668 328.633 399.552 328.633C401.439 328.633 402.989 330.166 403.065 332.107L407.232 438.86Z" fill="#4A7C88"/>
<path d="M402.885 323.022C403.196 321.055 401.898 319.201 399.986 318.882C398.075 318.562 396.274 319.898 395.963 321.866C395.653 323.833 396.951 325.687 398.863 326.006C400.774 326.325 402.575 324.989 402.885 323.022Z" fill="#FFBE0A"/>
<path d="M398.36 319.216C398.149 319.216 397.945 319.235 397.745 319.273C396.656 319.884 395.917 321.074 395.917 322.442C395.917 324.435 397.486 326.05 399.423 326.05C399.633 326.05 399.837 326.031 400.037 325.993C401.127 325.382 401.866 324.192 401.866 322.824C401.866 320.831 400.296 319.216 398.36 319.216Z" fill="#FFC31F"/>
<path d="M440.754 349.118C441.762 347.621 434.35 340.536 424.199 333.293C414.047 326.05 405.001 321.392 403.993 322.889C402.984 324.387 410.396 331.471 420.547 338.714C430.699 345.957 439.745 350.615 440.754 349.118Z" fill="#4A7C88"/>
<path opacity="0.4" d="M424.197 333.287C414.135 326.109 405.16 321.471 404.021 322.848C404.028 322.839 404.035 322.829 404.043 322.82C407.545 323.801 414.847 327.939 422.808 333.619C432.339 340.417 439.529 347.081 439.963 349.39C440.352 349.396 440.622 349.306 440.753 349.111C441.761 347.614 434.348 340.53 424.197 333.287Z" fill="#5473BB"/>
<path d="M399.517 318.038C401.286 318.038 402.721 307.732 402.721 295.019C402.721 282.306 401.286 272 399.517 272C397.747 272 396.312 282.306 396.312 295.019C396.312 307.732 397.747 318.038 399.517 318.038Z" fill="#4A7C88"/>
<path opacity="0.4" d="M399.517 272C399.143 272 398.783 272.463 398.449 273.311C398.626 272.861 398.81 272.519 399 272.298C400.322 275.467 401.286 285.294 401.286 296.928C401.286 305.541 400.758 313.165 399.947 317.829C399.879 317.896 399.809 317.946 399.74 317.981C401.406 317.155 402.72 307.191 402.72 295.019C402.72 282.847 401.287 272 399.517 272Z" fill="#5473BB"/>
<path d="M378.302 338.705C388.453 331.462 395.865 324.377 394.857 322.88C393.849 321.383 384.802 326.041 374.651 333.284C364.499 340.527 357.088 347.612 358.096 349.109C359.104 350.606 368.151 345.948 378.302 338.705Z" fill="#4A7C88"/>
<path opacity="0.4" d="M402.025 333.117C402.171 336.932 404.154 424.55 404.477 438.86H407.231L403.064 332.107C402.988 330.166 401.438 328.633 399.551 328.633C399.551 328.633 401.866 328.961 402.025 333.117Z" fill="#5473BB"/>
</g>
<path d="M265.636 272C260.216 271.968 257.969 274.568 252.07 281.925C245.926 289.586 245.191 277.505 235.789 276.494C235.691 276.483 235.594 276.473 235.496 276.464C229.643 275.916 224.863 279.459 223.237 284.771H265.636V272Z" fill="#8CD299"/>
<defs>
<clipPath id="clip0_735_70323">
<rect width="77" height="19.7198" fill="white" transform="translate(330 269)"/>
</clipPath>
<clipPath id="clip1_735_70323">
<rect width="42.6247" height="182.876" fill="white" transform="translate(265.337 215)"/>
</clipPath>
<clipPath id="clip2_735_70323">
<rect width="55.0156" height="21.9656" fill="white" transform="matrix(-1 0 0 1 435.132 417.041)"/>
</clipPath>
<clipPath id="clip3_735_70323">
<rect width="82.8442" height="166.861" fill="white" transform="translate(358 272)"/>
</clipPath>
</defs>
</svg>
