<svg width="460" height="460" viewBox="0 0 460 460" fill="none" xmlns="http://www.w3.org/2000/svg">
<rect width="460" height="460" fill="white"/>
<path d="M119 71.5C165.333 59 276.8 45 352 89" stroke="black" stroke-width="1.5" stroke-linecap="round" stroke-dasharray="5 5"/>
<mask id="path-2-outside-1_930_8037" maskUnits="userSpaceOnUse" x="144.941" y="106.945" width="216.339" height="204.157" fill="black">
<rect fill="white" x="144.941" y="106.945" width="216.339" height="204.157"/>
<path d="M173.87 309.443C173.841 309.411 173.114 308.56 171.896 306.695L172.456 306.333C173.637 308.153 174.364 308.998 174.371 309.011L173.863 309.45L173.87 309.443ZM169.173 302.074C168.661 301.13 168.145 300.125 167.641 299.099L168.238 298.802C168.741 299.821 169.25 300.819 169.762 301.758L169.173 302.074ZM165.398 294.235C164.977 293.258 164.546 292.228 164.113 291.152L164.732 290.9C165.166 291.976 165.596 293 166.01 293.971L165.398 294.235ZM162.209 286.147C161.846 285.132 161.48 284.078 161.113 282.991L161.748 282.778C162.116 283.866 162.481 284.913 162.843 285.921L162.215 286.146L162.209 286.147ZM159.484 277.896C159.167 276.859 158.854 275.788 158.546 274.69L159.19 274.51C159.505 275.608 159.817 276.672 160.128 277.709L159.491 277.902L159.484 277.896ZM157.147 269.527C156.875 268.468 156.608 267.387 156.34 266.287L156.986 266.134C157.254 267.234 157.521 268.314 157.792 269.368L157.147 269.534L157.147 269.527ZM155.218 261.047C155.017 259.956 154.836 258.844 154.681 257.737L155.344 257.643C155.498 258.743 155.679 259.842 155.879 260.927L155.224 261.047L155.218 261.047ZM154.088 252.418C154.04 251.846 154.004 251.266 153.969 250.693C153.936 250.154 153.903 249.614 153.884 249.081L154.551 249.053C154.577 249.587 154.603 250.12 154.636 250.659C154.671 251.232 154.706 251.805 154.754 252.37L154.089 252.425L154.088 252.418ZM154.473 243.729L153.803 243.717C153.816 242.606 153.854 241.481 153.913 240.367L154.577 240.4C154.524 241.506 154.485 242.625 154.472 243.723L154.473 243.729ZM154.988 235.1L154.322 235.033C154.435 233.93 154.574 232.812 154.727 231.713L155.388 231.806C155.234 232.898 155.102 234.01 154.988 235.106L154.988 235.1ZM156.264 226.551L155.607 226.424C155.821 225.327 156.055 224.23 156.303 223.145L156.953 223.292C156.705 224.364 156.478 225.461 156.263 226.544L156.264 226.551ZM158.277 218.144L157.637 217.962C157.946 216.893 158.268 215.817 158.611 214.753L159.245 214.962C158.908 216.012 158.579 217.082 158.277 218.144ZM161.018 209.939L160.395 209.703C160.792 208.663 161.216 207.614 161.649 206.598L162.267 206.861C161.834 207.877 161.416 208.912 161.018 209.946L161.018 209.939ZM164.477 202.012L163.877 201.715C164.371 200.715 164.885 199.707 165.413 198.732L166.001 199.051C165.479 200.019 164.964 201.013 164.477 202.012ZM168.661 194.449L168.092 194.096C168.682 193.144 169.293 192.197 169.912 191.283L170.463 191.657C169.85 192.564 169.246 193.504 168.661 194.449ZM173.583 187.348L173.056 186.939C173.744 186.054 174.453 185.175 175.164 184.336L175.671 184.766C174.967 185.598 174.258 186.471 173.583 187.348ZM179.306 180.907L178.842 180.427C179.632 179.67 180.475 178.917 181.339 178.182L181.772 178.69C180.92 179.411 180.09 180.157 179.306 180.907ZM185.965 175.432L185.577 174.887C186.468 174.251 187.405 173.619 188.351 173.006L188.712 173.565C187.773 174.171 186.849 174.803 185.965 175.432ZM193.272 170.826L192.949 170.244C193.906 169.711 194.903 169.175 195.901 168.666L196.205 169.263C195.206 169.772 194.222 170.3 193.272 170.833L193.272 170.826ZM201.005 166.963L200.734 166.352C201.736 165.902 202.772 165.458 203.809 165.034L204.061 165.653C203.03 166.077 202.001 166.515 201.005 166.963ZM209.032 163.745L208.806 163.117C209.847 162.745 210.901 162.38 211.969 162.027L212.175 162.663C211.114 163.016 210.066 163.374 209.025 163.745L209.032 163.745ZM217.267 161.088L217.081 160.444C218.145 160.138 219.224 159.845 220.309 159.558L220.476 160.203C219.397 160.49 218.325 160.783 217.267 161.088ZM294.691 155.637L294.651 154.971C295.756 154.89 296.873 154.788 297.956 154.675L298.023 155.34C296.933 155.453 295.81 155.555 294.691 155.637ZM289.347 155.924C288.232 155.959 287.117 155.98 286.001 155.995L285.994 155.327C287.103 155.319 288.219 155.298 289.319 155.257L289.34 155.924L289.347 155.924ZM303.337 154.66L303.236 153.998C304.342 153.83 305.441 153.643 306.518 153.436L306.638 154.091C305.561 154.297 304.449 154.485 303.336 154.654L303.337 154.66ZM280.649 155.934C279.537 155.902 278.418 155.857 277.304 155.798L277.337 155.134C278.444 155.193 279.556 155.232 280.662 155.265L280.642 155.935L280.649 155.934ZM225.654 158.944L225.507 158.291C226.589 158.051 227.684 157.817 228.781 157.596L228.914 158.25C227.825 158.47 226.736 158.704 225.654 158.944ZM271.974 155.442C270.873 155.362 269.765 155.296 268.652 155.237L268.685 154.573C269.805 154.632 270.912 154.698 272.02 154.777L271.974 155.442ZM311.871 152.955L311.711 152.31C312.797 152.036 313.876 151.743 314.92 151.438L315.106 152.075C314.056 152.387 312.97 152.681 311.871 152.955ZM234.144 157.288L234.037 156.632C235.136 156.452 236.235 156.277 237.335 156.116L237.429 156.779C236.329 156.94 235.237 157.114 234.144 157.294L234.144 157.288ZM263.32 155.069C262.209 155.05 261.099 155.051 259.989 155.052L259.982 154.384C261.098 154.376 262.214 154.381 263.325 154.4L263.313 155.069L263.32 155.069ZM242.709 156.089L242.635 155.425C243.744 155.297 244.847 155.189 245.964 155.081L246.024 155.746C244.921 155.846 243.811 155.961 242.716 156.088L242.709 156.089ZM254.661 155.177C253.554 155.218 252.441 155.279 251.335 155.34L251.294 154.674C252.407 154.606 253.52 154.552 254.634 154.51L254.661 155.177ZM320.184 150.367L319.945 149.74C320.997 149.341 322.027 148.917 323.017 148.482L323.288 149.094C322.286 149.537 321.242 149.962 320.183 150.361L320.184 150.367ZM328.097 146.707L327.767 146.126C328.743 145.578 329.697 145.005 330.604 144.415L330.966 144.974C330.046 145.572 329.079 146.159 328.09 146.708L328.097 146.707ZM335.29 141.775L334.857 141.266C335.71 140.552 336.533 139.8 337.302 139.031L337.772 139.503C336.99 140.28 336.155 141.046 335.29 141.775ZM341.308 135.449L340.775 135.047C341.437 134.164 342.063 133.25 342.628 132.32L343.197 132.666C342.62 133.611 341.982 134.546 341.308 135.449ZM345.652 127.883L345.035 127.626C345.462 126.624 345.846 125.577 346.176 124.534L346.811 124.736C346.468 125.807 346.078 126.867 345.646 127.89L345.652 127.883ZM348.096 119.516L347.44 119.402C347.629 118.334 347.783 117.235 347.889 116.126L348.554 116.192C348.443 117.315 348.29 118.434 348.096 119.516ZM348.788 110.829L348.12 110.836C348.11 109.914 348.08 108.973 348.023 108.041L348.689 108C348.746 108.946 348.778 109.9 348.789 110.835L348.788 110.829Z"/>
</mask>
<path d="M173.87 309.443C173.841 309.411 173.114 308.56 171.896 306.695L172.456 306.333C173.637 308.153 174.364 308.998 174.371 309.011L173.863 309.45L173.87 309.443ZM169.173 302.074C168.661 301.13 168.145 300.125 167.641 299.099L168.238 298.802C168.741 299.821 169.25 300.819 169.762 301.758L169.173 302.074ZM165.398 294.235C164.977 293.258 164.546 292.228 164.113 291.152L164.732 290.9C165.166 291.976 165.596 293 166.01 293.971L165.398 294.235ZM162.209 286.147C161.846 285.132 161.48 284.078 161.113 282.991L161.748 282.778C162.116 283.866 162.481 284.913 162.843 285.921L162.215 286.146L162.209 286.147ZM159.484 277.896C159.167 276.859 158.854 275.788 158.546 274.69L159.19 274.51C159.505 275.608 159.817 276.672 160.128 277.709L159.491 277.902L159.484 277.896ZM157.147 269.527C156.875 268.468 156.608 267.387 156.34 266.287L156.986 266.134C157.254 267.234 157.521 268.314 157.792 269.368L157.147 269.534L157.147 269.527ZM155.218 261.047C155.017 259.956 154.836 258.844 154.681 257.737L155.344 257.643C155.498 258.743 155.679 259.842 155.879 260.927L155.224 261.047L155.218 261.047ZM154.088 252.418C154.04 251.846 154.004 251.266 153.969 250.693C153.936 250.154 153.903 249.614 153.884 249.081L154.551 249.053C154.577 249.587 154.603 250.12 154.636 250.659C154.671 251.232 154.706 251.805 154.754 252.37L154.089 252.425L154.088 252.418ZM154.473 243.729L153.803 243.717C153.816 242.606 153.854 241.481 153.913 240.367L154.577 240.4C154.524 241.506 154.485 242.625 154.472 243.723L154.473 243.729ZM154.988 235.1L154.322 235.033C154.435 233.93 154.574 232.812 154.727 231.713L155.388 231.806C155.234 232.898 155.102 234.01 154.988 235.106L154.988 235.1ZM156.264 226.551L155.607 226.424C155.821 225.327 156.055 224.23 156.303 223.145L156.953 223.292C156.705 224.364 156.478 225.461 156.263 226.544L156.264 226.551ZM158.277 218.144L157.637 217.962C157.946 216.893 158.268 215.817 158.611 214.753L159.245 214.962C158.908 216.012 158.579 217.082 158.277 218.144ZM161.018 209.939L160.395 209.703C160.792 208.663 161.216 207.614 161.649 206.598L162.267 206.861C161.834 207.877 161.416 208.912 161.018 209.946L161.018 209.939ZM164.477 202.012L163.877 201.715C164.371 200.715 164.885 199.707 165.413 198.732L166.001 199.051C165.479 200.019 164.964 201.013 164.477 202.012ZM168.661 194.449L168.092 194.096C168.682 193.144 169.293 192.197 169.912 191.283L170.463 191.657C169.85 192.564 169.246 193.504 168.661 194.449ZM173.583 187.348L173.056 186.939C173.744 186.054 174.453 185.175 175.164 184.336L175.671 184.766C174.967 185.598 174.258 186.471 173.583 187.348ZM179.306 180.907L178.842 180.427C179.632 179.67 180.475 178.917 181.339 178.182L181.772 178.69C180.92 179.411 180.09 180.157 179.306 180.907ZM185.965 175.432L185.577 174.887C186.468 174.251 187.405 173.619 188.351 173.006L188.712 173.565C187.773 174.171 186.849 174.803 185.965 175.432ZM193.272 170.826L192.949 170.244C193.906 169.711 194.903 169.175 195.901 168.666L196.205 169.263C195.206 169.772 194.222 170.3 193.272 170.833L193.272 170.826ZM201.005 166.963L200.734 166.352C201.736 165.902 202.772 165.458 203.809 165.034L204.061 165.653C203.03 166.077 202.001 166.515 201.005 166.963ZM209.032 163.745L208.806 163.117C209.847 162.745 210.901 162.38 211.969 162.027L212.175 162.663C211.114 163.016 210.066 163.374 209.025 163.745L209.032 163.745ZM217.267 161.088L217.081 160.444C218.145 160.138 219.224 159.845 220.309 159.558L220.476 160.203C219.397 160.49 218.325 160.783 217.267 161.088ZM294.691 155.637L294.651 154.971C295.756 154.89 296.873 154.788 297.956 154.675L298.023 155.34C296.933 155.453 295.81 155.555 294.691 155.637ZM289.347 155.924C288.232 155.959 287.117 155.98 286.001 155.995L285.994 155.327C287.103 155.319 288.219 155.298 289.319 155.257L289.34 155.924L289.347 155.924ZM303.337 154.66L303.236 153.998C304.342 153.83 305.441 153.643 306.518 153.436L306.638 154.091C305.561 154.297 304.449 154.485 303.336 154.654L303.337 154.66ZM280.649 155.934C279.537 155.902 278.418 155.857 277.304 155.798L277.337 155.134C278.444 155.193 279.556 155.232 280.662 155.265L280.642 155.935L280.649 155.934ZM225.654 158.944L225.507 158.291C226.589 158.051 227.684 157.817 228.781 157.596L228.914 158.25C227.825 158.47 226.736 158.704 225.654 158.944ZM271.974 155.442C270.873 155.362 269.765 155.296 268.652 155.237L268.685 154.573C269.805 154.632 270.912 154.698 272.02 154.777L271.974 155.442ZM311.871 152.955L311.711 152.31C312.797 152.036 313.876 151.743 314.92 151.438L315.106 152.075C314.056 152.387 312.97 152.681 311.871 152.955ZM234.144 157.288L234.037 156.632C235.136 156.452 236.235 156.277 237.335 156.116L237.429 156.779C236.329 156.94 235.237 157.114 234.144 157.294L234.144 157.288ZM263.32 155.069C262.209 155.05 261.099 155.051 259.989 155.052L259.982 154.384C261.098 154.376 262.214 154.381 263.325 154.4L263.313 155.069L263.32 155.069ZM242.709 156.089L242.635 155.425C243.744 155.297 244.847 155.189 245.964 155.081L246.024 155.746C244.921 155.846 243.811 155.961 242.716 156.088L242.709 156.089ZM254.661 155.177C253.554 155.218 252.441 155.279 251.335 155.34L251.294 154.674C252.407 154.606 253.52 154.552 254.634 154.51L254.661 155.177ZM320.184 150.367L319.945 149.74C320.997 149.341 322.027 148.917 323.017 148.482L323.288 149.094C322.286 149.537 321.242 149.962 320.183 150.361L320.184 150.367ZM328.097 146.707L327.767 146.126C328.743 145.578 329.697 145.005 330.604 144.415L330.966 144.974C330.046 145.572 329.079 146.159 328.09 146.708L328.097 146.707ZM335.29 141.775L334.857 141.266C335.71 140.552 336.533 139.8 337.302 139.031L337.772 139.503C336.99 140.28 336.155 141.046 335.29 141.775ZM341.308 135.449L340.775 135.047C341.437 134.164 342.063 133.25 342.628 132.32L343.197 132.666C342.62 133.611 341.982 134.546 341.308 135.449ZM345.652 127.883L345.035 127.626C345.462 126.624 345.846 125.577 346.176 124.534L346.811 124.736C346.468 125.807 346.078 126.867 345.646 127.89L345.652 127.883ZM348.096 119.516L347.44 119.402C347.629 118.334 347.783 117.235 347.889 116.126L348.554 116.192C348.443 117.315 348.29 118.434 348.096 119.516ZM348.788 110.829L348.12 110.836C348.11 109.914 348.08 108.973 348.023 108.041L348.689 108C348.746 108.946 348.778 109.9 348.789 110.835L348.788 110.829Z" fill="black"/>
<path d="M173.87 309.443C173.841 309.411 173.114 308.56 171.896 306.695L172.456 306.333C173.637 308.153 174.364 308.998 174.371 309.011L173.863 309.45L173.87 309.443ZM169.173 302.074C168.661 301.13 168.145 300.125 167.641 299.099L168.238 298.802C168.741 299.821 169.25 300.819 169.762 301.758L169.173 302.074ZM165.398 294.235C164.977 293.258 164.546 292.228 164.113 291.152L164.732 290.9C165.166 291.976 165.596 293 166.01 293.971L165.398 294.235ZM162.209 286.147C161.846 285.132 161.48 284.078 161.113 282.991L161.748 282.778C162.116 283.866 162.481 284.913 162.843 285.921L162.215 286.146L162.209 286.147ZM159.484 277.896C159.167 276.859 158.854 275.788 158.546 274.69L159.19 274.51C159.505 275.608 159.817 276.672 160.128 277.709L159.491 277.902L159.484 277.896ZM157.147 269.527C156.875 268.468 156.608 267.387 156.34 266.287L156.986 266.134C157.254 267.234 157.521 268.314 157.792 269.368L157.147 269.534L157.147 269.527ZM155.218 261.047C155.017 259.956 154.836 258.844 154.681 257.737L155.344 257.643C155.498 258.743 155.679 259.842 155.879 260.927L155.224 261.047L155.218 261.047ZM154.088 252.418C154.04 251.846 154.004 251.266 153.969 250.693C153.936 250.154 153.903 249.614 153.884 249.081L154.551 249.053C154.577 249.587 154.603 250.12 154.636 250.659C154.671 251.232 154.706 251.805 154.754 252.37L154.089 252.425L154.088 252.418ZM154.473 243.729L153.803 243.717C153.816 242.606 153.854 241.481 153.913 240.367L154.577 240.4C154.524 241.506 154.485 242.625 154.472 243.723L154.473 243.729ZM154.988 235.1L154.322 235.033C154.435 233.93 154.574 232.812 154.727 231.713L155.388 231.806C155.234 232.898 155.102 234.01 154.988 235.106L154.988 235.1ZM156.264 226.551L155.607 226.424C155.821 225.327 156.055 224.23 156.303 223.145L156.953 223.292C156.705 224.364 156.478 225.461 156.263 226.544L156.264 226.551ZM158.277 218.144L157.637 217.962C157.946 216.893 158.268 215.817 158.611 214.753L159.245 214.962C158.908 216.012 158.579 217.082 158.277 218.144ZM161.018 209.939L160.395 209.703C160.792 208.663 161.216 207.614 161.649 206.598L162.267 206.861C161.834 207.877 161.416 208.912 161.018 209.946L161.018 209.939ZM164.477 202.012L163.877 201.715C164.371 200.715 164.885 199.707 165.413 198.732L166.001 199.051C165.479 200.019 164.964 201.013 164.477 202.012ZM168.661 194.449L168.092 194.096C168.682 193.144 169.293 192.197 169.912 191.283L170.463 191.657C169.85 192.564 169.246 193.504 168.661 194.449ZM173.583 187.348L173.056 186.939C173.744 186.054 174.453 185.175 175.164 184.336L175.671 184.766C174.967 185.598 174.258 186.471 173.583 187.348ZM179.306 180.907L178.842 180.427C179.632 179.67 180.475 178.917 181.339 178.182L181.772 178.69C180.92 179.411 180.09 180.157 179.306 180.907ZM185.965 175.432L185.577 174.887C186.468 174.251 187.405 173.619 188.351 173.006L188.712 173.565C187.773 174.171 186.849 174.803 185.965 175.432ZM193.272 170.826L192.949 170.244C193.906 169.711 194.903 169.175 195.901 168.666L196.205 169.263C195.206 169.772 194.222 170.3 193.272 170.833L193.272 170.826ZM201.005 166.963L200.734 166.352C201.736 165.902 202.772 165.458 203.809 165.034L204.061 165.653C203.03 166.077 202.001 166.515 201.005 166.963ZM209.032 163.745L208.806 163.117C209.847 162.745 210.901 162.38 211.969 162.027L212.175 162.663C211.114 163.016 210.066 163.374 209.025 163.745L209.032 163.745ZM217.267 161.088L217.081 160.444C218.145 160.138 219.224 159.845 220.309 159.558L220.476 160.203C219.397 160.49 218.325 160.783 217.267 161.088ZM294.691 155.637L294.651 154.971C295.756 154.89 296.873 154.788 297.956 154.675L298.023 155.34C296.933 155.453 295.81 155.555 294.691 155.637ZM289.347 155.924C288.232 155.959 287.117 155.98 286.001 155.995L285.994 155.327C287.103 155.319 288.219 155.298 289.319 155.257L289.34 155.924L289.347 155.924ZM303.337 154.66L303.236 153.998C304.342 153.83 305.441 153.643 306.518 153.436L306.638 154.091C305.561 154.297 304.449 154.485 303.336 154.654L303.337 154.66ZM280.649 155.934C279.537 155.902 278.418 155.857 277.304 155.798L277.337 155.134C278.444 155.193 279.556 155.232 280.662 155.265L280.642 155.935L280.649 155.934ZM225.654 158.944L225.507 158.291C226.589 158.051 227.684 157.817 228.781 157.596L228.914 158.25C227.825 158.47 226.736 158.704 225.654 158.944ZM271.974 155.442C270.873 155.362 269.765 155.296 268.652 155.237L268.685 154.573C269.805 154.632 270.912 154.698 272.02 154.777L271.974 155.442ZM311.871 152.955L311.711 152.31C312.797 152.036 313.876 151.743 314.92 151.438L315.106 152.075C314.056 152.387 312.97 152.681 311.871 152.955ZM234.144 157.288L234.037 156.632C235.136 156.452 236.235 156.277 237.335 156.116L237.429 156.779C236.329 156.94 235.237 157.114 234.144 157.294L234.144 157.288ZM263.32 155.069C262.209 155.05 261.099 155.051 259.989 155.052L259.982 154.384C261.098 154.376 262.214 154.381 263.325 154.4L263.313 155.069L263.32 155.069ZM242.709 156.089L242.635 155.425C243.744 155.297 244.847 155.189 245.964 155.081L246.024 155.746C244.921 155.846 243.811 155.961 242.716 156.088L242.709 156.089ZM254.661 155.177C253.554 155.218 252.441 155.279 251.335 155.34L251.294 154.674C252.407 154.606 253.52 154.552 254.634 154.51L254.661 155.177ZM320.184 150.367L319.945 149.74C320.997 149.341 322.027 148.917 323.017 148.482L323.288 149.094C322.286 149.537 321.242 149.962 320.183 150.361L320.184 150.367ZM328.097 146.707L327.767 146.126C328.743 145.578 329.697 145.005 330.604 144.415L330.966 144.974C330.046 145.572 329.079 146.159 328.09 146.708L328.097 146.707ZM335.29 141.775L334.857 141.266C335.71 140.552 336.533 139.8 337.302 139.031L337.772 139.503C336.99 140.28 336.155 141.046 335.29 141.775ZM341.308 135.449L340.775 135.047C341.437 134.164 342.063 133.25 342.628 132.32L343.197 132.666C342.62 133.611 341.982 134.546 341.308 135.449ZM345.652 127.883L345.035 127.626C345.462 126.624 345.846 125.577 346.176 124.534L346.811 124.736C346.468 125.807 346.078 126.867 345.646 127.89L345.652 127.883ZM348.096 119.516L347.44 119.402C347.629 118.334 347.783 117.235 347.889 116.126L348.554 116.192C348.443 117.315 348.29 118.434 348.096 119.516ZM348.788 110.829L348.12 110.836C348.11 109.914 348.08 108.973 348.023 108.041L348.689 108C348.746 108.946 348.778 109.9 348.789 110.835L348.788 110.829Z" stroke="black" stroke-width="1.09176" stroke-linejoin="round" mask="url(#path-2-outside-1_930_8037)"/>
<ellipse cx="232.597" cy="298.216" rx="172.081" ry="81.8756" transform="rotate(-165.945 232.597 298.216)" fill="#F2F7F8"/>
<path d="M192.796 273.854C192.796 273.854 174.881 262.928 174.029 251.969C173.178 241.011 186.658 237.085 189.356 231.932C192.055 226.778 189.987 217.511 192.862 214.426C195.737 211.341 204.982 212.568 208.454 207.172C211.916 201.775 214.857 190.982 223.936 186.824C233.004 182.655 243.056 181.184 250.654 184.612C258.251 188.04 271.554 195.527 272.019 208.089C272.472 220.652 267.33 254.48 275.668 259.633C284.006 264.786 235.957 294.688 192.807 273.854H192.796Z" fill="#18292D"/>
<path d="M222.886 284.636C210.533 284.636 197.219 282.037 184.789 275.048C184.756 275.026 184.723 275.015 184.701 274.993C183.982 274.484 167.04 262.519 166.875 251.085C166.753 243.244 173.023 239.197 178.055 235.946C180.432 234.408 182.688 232.949 183.584 231.467C184.922 229.255 185.309 225.971 185.674 222.786C186.094 219.17 186.492 215.753 188.35 213.983C189.887 212.524 192.453 212.103 195.184 211.661C198.679 211.086 202.306 210.5 204.23 207.868C205.148 206.607 206.099 204.96 207.105 203.212C210.235 197.761 214.127 190.971 221.448 188.151C231.976 184.092 242.072 183.915 249.172 187.675C262.796 194.885 269.862 203.799 269.608 213.453C269.519 216.903 268.933 221.746 268.259 227.353C266.567 241.32 264.256 260.44 269.564 264.189C271.101 265.273 271.3 267.053 270.106 268.944C265.992 275.446 246.142 284.658 222.886 284.658V284.636ZM185.928 273.146C205.358 284.061 225.263 283.453 238.545 281.02C253.429 278.288 265.549 272.007 268.248 267.75C269.033 266.511 268.557 266.168 268.292 265.98C261.922 261.469 264.123 243.2 266.08 227.077C266.755 221.525 267.33 216.726 267.418 213.386C267.706 202.328 257.101 194.355 248.154 189.622C241.619 186.171 232.186 186.381 222.267 190.208C215.676 192.751 212.004 199.154 209.052 204.307C208.012 206.11 207.039 207.813 206.044 209.173C203.578 212.535 199.32 213.231 195.571 213.84C193.194 214.227 190.949 214.592 189.909 215.587C188.627 216.803 188.273 219.833 187.897 223.04C187.499 226.457 187.089 229.985 185.497 232.606C184.336 234.53 181.992 236.045 179.271 237.803C174.461 240.911 168.998 244.438 169.097 251.063C169.252 261.115 184.999 272.494 185.939 273.157L185.928 273.146Z" fill="#18292D"/>
<path d="M113.363 276.796L113.042 246.141C110.432 244.35 108.265 241.851 106.905 238.732C104.538 233.347 102.536 228.647 102.592 228.37L86.5016 209.98C85.1635 208.454 85.0087 206.397 86.1367 205.214C87.3642 203.92 89.6643 204.097 91.2678 205.623L100.944 214.791L94.3863 198.623C93.5348 196.533 94.1983 194.056 96.1114 192.862C98.3563 191.468 101.276 192.253 102.525 194.532L111.129 210.257L102.636 189.301C101.685 186.945 102.835 184.214 105.312 183.307C107.446 182.522 109.835 183.561 110.93 185.563L114.325 191.778L113.816 190.208C113.119 188.062 113.949 185.629 115.939 184.579C118.273 183.34 121.137 184.336 122.22 186.702L133.821 211.993L137.559 220.132L140.157 208.609C140.821 205.667 142.668 203.135 145.266 201.62C146.969 200.625 149.115 201.985 149.048 203.953L148.639 216.04C148.418 222.498 146.826 228.846 143.95 234.641C143.519 235.503 143.044 236.322 142.535 237.129L147.434 294.102L113.374 276.796H113.363Z" fill="white"/>
<path d="M147.434 295.219C146.87 295.219 146.383 294.788 146.328 294.213L141.429 237.25C141.407 237.007 141.462 236.764 141.595 236.565C142.148 235.702 142.59 234.917 142.955 234.176C145.775 228.481 147.312 222.377 147.522 216.029L147.931 203.942C147.954 203.4 147.677 202.903 147.202 202.615C146.991 202.494 146.427 202.239 145.819 202.593C143.497 203.953 141.816 206.242 141.23 208.874L138.631 220.397C138.532 220.862 138.134 221.205 137.669 221.249C137.205 221.304 136.751 221.039 136.552 220.607L121.225 187.178C120.827 186.304 120.108 185.652 119.201 185.353C118.295 185.043 117.333 185.121 116.47 185.574C115.01 186.348 114.325 188.195 114.878 189.887L115.386 191.457C115.563 191.999 115.298 192.585 114.778 192.817C114.258 193.05 113.639 192.84 113.374 192.331L109.979 186.116C109.116 184.546 107.291 183.794 105.71 184.369C104.814 184.701 104.107 185.353 103.72 186.216C103.333 187.078 103.321 188.04 103.675 188.914L112.168 209.87C112.389 210.411 112.146 211.031 111.615 211.285C111.085 211.539 110.454 211.329 110.167 210.821L101.563 195.095C101.099 194.255 100.336 193.658 99.4068 193.415C98.4779 193.171 97.5158 193.315 96.6975 193.824C95.3041 194.697 94.7401 196.588 95.4147 198.236L101.972 214.404C102.171 214.89 102.006 215.443 101.574 215.731C101.143 216.018 100.568 215.974 100.192 215.62L90.5158 206.453C89.9186 205.889 89.1998 205.546 88.481 205.49C87.8507 205.446 87.3088 205.623 86.9439 205.999C86.2251 206.762 86.391 208.2 87.3309 209.284L103.421 227.674C103.576 227.851 103.664 228.072 103.686 228.293C103.797 228.669 104.438 230.405 107.911 238.323C109.138 241.121 111.129 243.521 113.661 245.268C113.96 245.467 114.137 245.81 114.137 246.164L114.457 276.818C114.457 277.426 113.971 277.924 113.363 277.935H113.352C112.743 277.935 112.257 277.448 112.246 276.84L111.925 246.75C109.271 244.803 107.181 242.205 105.876 239.208C102.846 232.296 101.862 229.908 101.574 228.934L85.65 210.732C83.936 208.775 83.7922 206.077 85.3183 204.473C86.1477 203.599 87.3199 203.179 88.6358 203.279C89.8523 203.378 91.0576 203.931 92.0197 204.838L97.9913 210.5L93.3578 199.054C92.2962 196.434 93.2251 193.37 95.5253 191.933C96.8633 191.103 98.4336 190.86 99.9597 191.258C101.209 191.59 102.304 192.331 103.067 193.359L101.596 189.732C101.01 188.295 101.043 186.724 101.674 185.309C102.304 183.893 103.454 182.821 104.925 182.279C107.524 181.339 110.521 182.522 111.892 185.043L112.81 186.713C113.274 185.408 114.181 184.28 115.431 183.617C116.824 182.876 118.416 182.754 119.898 183.252C121.369 183.749 122.585 184.844 123.227 186.249L137.194 216.704L139.074 208.377C139.803 205.148 141.849 202.339 144.702 200.669C145.83 200.005 147.19 200.017 148.33 200.691C149.491 201.388 150.187 202.648 150.143 203.998L149.734 216.084C149.513 222.753 147.898 229.167 144.935 235.138C144.581 235.857 144.16 236.598 143.652 237.416L148.518 294.014C148.573 294.622 148.119 295.164 147.511 295.208C147.478 295.208 147.445 295.208 147.412 295.208L147.434 295.219Z" fill="#18292D"/>
<path d="M121.911 209.018C121.491 209.018 121.093 208.774 120.905 208.376L112.788 190.683C112.533 190.13 112.788 189.466 113.329 189.212C113.882 188.958 114.546 189.212 114.8 189.754L122.917 207.447C123.172 208 122.917 208.664 122.375 208.918C122.232 208.985 122.066 209.018 121.911 209.018Z" fill="#18292D"/>
<path d="M125.992 239.44C125.538 239.44 125.118 239.164 124.952 238.71C124.786 238.246 120.938 227.198 128.137 217.555C128.502 217.069 129.199 216.969 129.685 217.334C130.172 217.699 130.271 218.396 129.906 218.882C123.437 227.552 126.998 237.859 127.031 237.969C127.241 238.544 126.932 239.175 126.357 239.385C126.235 239.429 126.113 239.451 125.981 239.451L125.992 239.44Z" fill="#18292D"/>
<path d="M105.179 222.731C104.991 222.731 104.804 222.687 104.627 222.587C104.096 222.278 103.919 221.603 104.217 221.072C109.835 211.352 126.821 208.665 127.54 208.554C128.148 208.466 128.712 208.875 128.8 209.483C128.889 210.091 128.48 210.655 127.871 210.744C127.706 210.766 111.206 213.387 106.131 222.178C105.92 222.532 105.555 222.731 105.168 222.731H105.179Z" fill="#18292D"/>
<path d="M208.078 366.889L290.287 361.847C300.604 361.216 309.816 355.178 314.527 345.978C318.199 338.812 318.74 330.441 316.042 322.854L296.767 268.734C292.112 255.663 278.819 247.734 265.107 249.857L237.803 254.082L213.928 245.711C200.216 240.9 184.955 245.135 175.666 256.316L146.836 291.072L145.454 269.298L113.152 276.696L111.482 314.859C110.952 327.101 121.623 336.843 133.765 335.185C135.988 334.886 138.155 334.201 140.146 333.161L188.881 309.629L196.721 356.207L185.64 358.983L208.078 366.867V366.889Z" fill="#96D8E8"/>
<path d="M237.803 254.081L272.591 249.248C268.047 257.923 255.984 274.944 244.086 273.622C229.213 271.97 212.689 266.96 213.928 245.71L237.803 254.081Z" fill="white"/>
<path d="M208.078 367.995C207.957 367.995 207.835 367.973 207.713 367.929L185.276 360.044C184.811 359.878 184.513 359.436 184.535 358.949C184.557 358.463 184.9 358.042 185.375 357.932L195.46 355.41L188.029 311.287L140.621 334.178C138.531 335.262 136.264 335.981 133.909 336.301C127.794 337.131 121.678 335.229 117.111 331.071C112.555 326.913 110.089 320.996 110.365 314.826L112.035 276.663C112.057 276.165 112.411 275.745 112.898 275.635L145.2 268.236C145.52 268.17 145.852 268.236 146.106 268.424C146.372 268.623 146.527 268.922 146.549 269.243L147.754 288.241L174.803 255.63C184.336 244.14 200.194 239.739 214.282 244.682L237.903 252.965L264.93 248.785C279.14 246.573 292.974 254.822 297.807 268.38L317.082 322.5C319.879 330.341 319.304 339.088 315.511 346.497C310.646 355.996 301.014 362.311 290.364 362.963L208.156 368.006C208.156 368.006 208.111 368.006 208.089 368.006L208.078 367.995ZM189.489 359.181L208.244 365.772L290.232 360.741C300.107 360.132 309.042 354.282 313.554 345.48C317.071 338.613 317.601 330.507 315.014 323.23L295.739 269.11C291.271 256.548 278.454 248.917 265.284 250.952L237.98 255.176C237.803 255.198 237.615 255.176 237.45 255.132L213.574 246.761C200.359 242.127 185.475 246.252 176.528 257.034L147.699 291.791C147.411 292.134 146.936 292.278 146.505 292.134C146.073 291.99 145.775 291.603 145.742 291.15L144.437 270.669L114.225 277.592L112.588 314.914C112.345 320.421 114.546 325.707 118.615 329.423C122.685 333.139 128.159 334.842 133.621 334.101C135.734 333.813 137.757 333.172 139.648 332.188L188.416 308.644C188.726 308.489 189.102 308.5 189.4 308.655C189.71 308.81 189.92 309.109 189.987 309.451L197.827 356.03C197.927 356.594 197.562 357.147 197.009 357.29L189.5 359.17L189.489 359.181Z" fill="#18292D"/>
<path d="M202.262 395.773L92.7055 356.527C92.7055 356.527 38.4525 340.702 40.0339 387.745C41.0292 417.503 55.0403 433.228 91.6549 433.228H201.211L202.262 395.773Z" fill="#4A7C88"/>
<path d="M203.81 433.228H63.1792C63.1792 433.228 60.0165 420.301 78.9818 416.286C97.9471 412.272 94.7844 415.612 102.68 412.272C110.576 408.933 120.849 400.23 132.704 408.258L144.559 416.286L202.759 395.773L203.81 433.228Z" fill="white"/>
<path d="M203.81 434.334H63.1793C62.6706 434.334 62.2282 433.991 62.1066 433.494C62.0623 433.295 60.9676 428.65 63.9644 423.884C66.6406 419.637 71.6058 416.718 78.7496 415.203C88.5585 413.124 92.5063 413.002 95.1272 412.914C97.5048 412.836 98.5885 412.803 102.249 411.255C103.709 410.636 105.268 409.817 106.916 408.955C114.159 405.173 123.172 400.473 133.323 407.34L144.713 415.059L202.394 394.734C202.726 394.612 203.091 394.667 203.39 394.866C203.677 395.065 203.854 395.397 203.865 395.751L204.916 433.206C204.916 433.505 204.816 433.792 204.606 434.013C204.396 434.223 204.109 434.345 203.81 434.345V434.334ZM64.1303 432.122H202.682L201.698 397.321L144.924 417.326C144.603 417.448 144.227 417.392 143.939 417.193L132.085 409.165C123.028 403.038 115.021 407.219 107.944 410.912C106.252 411.797 104.649 412.626 103.111 413.279C99.064 414.993 97.6928 415.037 95.1936 415.114C92.6501 415.192 88.8239 415.324 79.203 417.359C72.6674 418.742 68.1777 421.329 65.8333 425.056C64.0197 427.931 63.9976 430.762 64.1192 432.122H64.1303Z" fill="#18292D"/>
<path d="M198.635 395.961L310.978 353.276C310.978 353.276 366.613 336.058 364.988 387.225C363.959 419.593 349.594 436.701 312.051 436.701H199.708L198.624 395.961H198.635Z" fill="#4A7C88"/>
<path d="M81.1049 362.111L167.505 399.777L264.83 391.549L308.777 367.707C311.663 366.137 310.679 361.769 307.395 361.592L202.129 355.963L157.342 328.936L81.315 356.062C78.5393 357.058 78.4066 360.928 81.1049 362.111Z" fill="#18292D"/>
<path d="M167.604 379.44L208.819 354.758L300.317 343.909L259.268 365.573L167.604 379.44Z" fill="white"/>
<path d="M167.604 380.546C167.14 380.546 166.719 380.259 166.565 379.816C166.388 379.319 166.587 378.766 167.04 378.489L208.255 353.807C208.388 353.729 208.543 353.674 208.697 353.652L300.195 342.815C300.715 342.748 301.224 343.08 301.379 343.589C301.533 344.097 301.312 344.65 300.837 344.894L259.788 366.557C259.677 366.612 259.555 366.657 259.434 366.668L167.77 380.535C167.77 380.535 167.659 380.546 167.604 380.546ZM209.184 355.83L172.979 377.516L258.914 364.522L294.533 345.723L209.184 355.83Z" fill="#18292D"/>
<path d="M303.635 364.765L300.317 343.909L259.268 365.573L262.862 384.903L303.635 364.765Z" fill="white"/>
<path d="M262.862 386.009C262.696 386.009 262.519 385.965 262.364 385.887C262.055 385.733 261.834 385.445 261.767 385.102L258.173 365.772C258.085 365.296 258.317 364.821 258.748 364.589L299.797 342.925C300.118 342.759 300.494 342.759 300.804 342.925C301.124 343.08 301.346 343.39 301.401 343.744L304.718 364.6C304.796 365.075 304.553 365.551 304.121 365.761L263.349 385.898C263.194 385.976 263.028 386.009 262.862 386.009ZM260.507 366.17L263.68 383.267L302.418 364.135L299.466 345.612L260.507 366.17Z" fill="#18292D"/>
<path d="M168.588 393.683L167.604 379.44L259.268 365.573L262.862 384.903L168.588 393.683Z" fill="white"/>
<path d="M168.588 394.789C168.323 394.789 168.069 394.701 167.87 394.524C167.637 394.336 167.505 394.06 167.483 393.761L166.498 379.518C166.454 378.943 166.863 378.434 167.438 378.345L259.102 364.478C259.699 364.39 260.241 364.788 260.352 365.374L263.946 384.704C264.001 385.014 263.924 385.323 263.736 385.578C263.548 385.821 263.26 385.987 262.961 386.009L168.688 394.778C168.688 394.778 168.622 394.778 168.588 394.778V394.789ZM168.776 380.38L169.606 392.467L261.546 383.908L258.372 366.823L168.776 380.369V380.38Z" fill="#18292D"/>
<path d="M160.073 324.989L208.819 354.758L167.604 379.441L86.6119 340.614L160.073 324.989Z" fill="white"/>
<path d="M167.604 380.546C167.438 380.546 167.284 380.513 167.129 380.435L86.1365 341.609C85.7053 341.41 85.462 340.956 85.5173 340.481C85.5726 340.005 85.9264 339.629 86.3909 339.53L159.863 323.915C160.14 323.86 160.427 323.915 160.671 324.048L209.416 353.817C209.748 354.017 209.947 354.381 209.947 354.768C209.947 355.156 209.737 355.509 209.405 355.708L168.19 380.391C168.014 380.491 167.826 380.546 167.626 380.546H167.604ZM90.0181 341.012L167.549 378.179L206.685 354.735L159.874 326.149L90.0181 341.001V341.012Z" fill="#18292D"/>
<path d="M87.1094 358.65L86.6117 340.614L167.604 379.44L168.588 393.683L87.1094 358.65Z" fill="white"/>
<path d="M168.588 394.79C168.445 394.79 168.29 394.757 168.157 394.701L86.6671 359.668C86.269 359.502 86.0147 359.115 85.9925 358.684L85.4949 340.647C85.4949 340.26 85.6718 339.896 86.0036 339.685C86.3243 339.475 86.7335 339.453 87.0873 339.619L168.08 378.445C168.434 378.622 168.677 378.965 168.71 379.363L169.694 393.607C169.716 393.994 169.55 394.359 169.23 394.58C169.042 394.712 168.821 394.779 168.588 394.779V394.79ZM88.1932 357.921L167.361 391.959L166.543 380.171L87.7619 342.406L88.1821 357.932L88.1932 357.921Z" fill="#18292D"/>
<path d="M272.008 326.636C272.008 326.636 282.69 318.331 285.212 317.38C287.733 316.429 302.618 310.103 309.728 318.242C316.839 326.381 320.212 332.187 315.998 342.604C312.128 352.181 307.638 356.261 305.404 358.517C303.712 360.231 286.948 369.576 286.948 369.576C286.948 369.576 292.554 366.9 295.164 364.069C305.028 353.375 290.066 329.599 272.019 326.636H272.008Z" fill="white"/>
<path d="M257.234 357.799C257.234 357.799 262.099 367.01 270.537 369.819C278.963 372.617 289.967 369.554 298.15 361.216C302.474 356.814 292.72 339.696 287.412 334.509C278.167 325.464 267.573 328.682 267.573 328.682L264.665 332.408L257.222 357.799H257.234Z" fill="white"/>
<path d="M277.083 371.953C274.706 371.953 272.384 371.599 270.183 370.87C261.436 367.961 256.459 358.716 256.249 358.318C255.962 357.776 256.172 357.113 256.714 356.825C257.256 356.538 257.919 356.748 258.207 357.29C258.251 357.378 262.984 366.148 270.88 368.768C279.129 371.511 289.768 368.16 297.354 360.441C297.873 359.922 298.128 359.037 298.117 357.832C298.061 351.639 291.028 339.585 286.638 335.294C278.775 327.598 270.028 329.212 268.215 329.655L265.538 333.094C265.162 333.569 264.466 333.658 263.99 333.282C263.504 332.906 263.426 332.209 263.802 331.734L266.711 328.007C266.854 327.83 267.042 327.697 267.264 327.631C267.717 327.498 278.598 324.324 288.197 333.724C292.422 337.86 300.273 350.577 300.339 357.821C300.362 359.634 299.886 361.039 298.946 362.001C292.643 368.415 284.614 371.964 277.095 371.964L277.083 371.953Z" fill="#18292D"/>
<path d="M233.778 330.506C233.778 330.506 253.706 326.47 262.022 330.882C273.733 337.086 273.677 349.515 273.732 350.876L233.778 330.517V330.506Z" fill="white"/>
<path d="M293.339 366.48C292.897 366.48 292.477 366.203 292.3 365.761C292.079 365.186 292.377 364.556 292.941 364.334C299.466 361.868 321.981 344.473 315.832 327.067C313.753 321.173 309.507 317.336 303.214 315.633C295.927 313.665 288.053 315.224 281.606 319.89L268.225 329.567C267.728 329.92 267.042 329.81 266.677 329.323C266.323 328.826 266.434 328.14 266.921 327.775L280.301 318.099C287.301 313.034 295.85 311.364 303.789 313.499C310.834 315.401 315.589 319.714 317.922 326.338C324.557 345.159 300.66 363.793 293.726 366.413C293.594 366.458 293.461 366.48 293.339 366.48Z" fill="#18292D"/>
<path d="M243.189 332.862C242.337 330.606 239.993 329.19 237.527 329.588C220.519 332.364 215.775 345.17 215.587 345.723C214.625 348.41 216.029 351.374 218.716 352.336C221.382 353.287 224.312 351.915 225.296 349.272C225.462 348.841 228.492 341.554 239.208 339.806C242.017 339.342 243.93 336.688 243.465 333.868C243.41 333.525 243.322 333.182 243.2 332.873L243.189 332.862Z" fill="white"/>
<path d="M220.442 353.74C219.745 353.74 219.037 353.618 218.341 353.375C215.09 352.214 213.387 348.609 214.548 345.358C214.747 344.782 219.723 331.391 237.35 328.504C240.281 328.018 243.178 329.699 244.229 332.474C244.372 332.861 244.483 333.271 244.549 333.68C244.826 335.339 244.428 336.997 243.455 338.369C242.481 339.729 241.033 340.624 239.385 340.89C229.244 342.549 226.436 349.383 226.325 349.67C225.407 352.17 222.996 353.74 220.442 353.74ZM238.357 330.628C238.147 330.628 237.925 330.65 237.704 330.683C221.338 333.359 216.815 345.568 216.627 346.087C215.875 348.2 216.981 350.533 219.082 351.285C221.161 352.026 223.483 350.953 224.246 348.874C224.39 348.509 227.652 340.558 239.02 338.7C240.082 338.523 241.022 337.948 241.652 337.064C242.282 336.179 242.537 335.106 242.36 334.034C242.316 333.768 242.249 333.503 242.15 333.249C241.553 331.656 240.015 330.617 238.346 330.617L238.357 330.628Z" fill="#18292D"/>
<path d="M247.082 329.467C230.936 335.483 228.758 348.974 228.669 349.538C228.249 352.358 230.195 354.99 233.015 355.421C235.813 355.841 238.423 353.928 238.876 351.141C238.954 350.688 240.524 342.947 250.698 339.154L247.082 329.467Z" fill="white"/>
<path d="M233.779 356.593C233.469 356.593 233.159 356.571 232.85 356.527C229.433 356.007 227.066 352.811 227.575 349.383C227.663 348.786 229.952 334.675 246.695 328.438C247.27 328.228 247.9 328.516 248.121 329.091C248.332 329.666 248.044 330.296 247.469 330.517C231.932 336.312 229.842 349.173 229.764 349.715C229.433 351.927 230.97 354.005 233.181 354.337C235.36 354.68 237.428 353.154 237.782 350.975C237.948 350.058 239.717 342.084 250.311 338.137C250.886 337.926 251.516 338.214 251.738 338.789C251.948 339.364 251.66 339.994 251.085 340.216C241.464 343.799 240.016 351.053 239.96 351.363C239.474 354.404 236.798 356.604 233.779 356.604V356.593Z" fill="#18292D"/>
<path d="M254.402 331.999C240.203 338.39 238.201 350.676 238.124 351.229C237.704 354.06 239.65 356.703 242.481 357.123C245.29 357.544 247.911 355.619 248.364 352.822C248.453 352.368 250.023 344.605 260.241 340.801L254.391 331.999H254.402Z" fill="white"/>
<path d="M243.244 358.285C242.935 358.285 242.625 358.263 242.315 358.218C238.887 357.699 236.51 354.492 237.029 351.064C237.107 350.522 239.186 337.639 253.949 330.993C254.502 330.738 255.154 330.993 255.409 331.545C255.663 332.098 255.409 332.762 254.856 333.005C241.176 339.165 239.285 350.887 239.219 351.384C238.887 353.607 240.424 355.686 242.647 356.018C244.848 356.35 246.927 354.835 247.281 352.634C247.347 352.258 249.017 343.798 259.865 339.751C260.44 339.541 261.071 339.828 261.292 340.403C261.502 340.978 261.214 341.609 260.639 341.83C250.952 345.435 249.514 352.711 249.459 353.01C248.961 356.062 246.274 358.274 243.244 358.274V358.285Z" fill="#18292D"/>
<path d="M261.867 338.524C252.202 342.759 249.625 350.987 249.36 351.905C248.575 354.658 250.178 357.522 252.932 358.308C255.663 359.082 258.505 357.511 259.312 354.802C259.412 354.503 260.872 350.279 266.025 348.023L261.867 338.524Z" fill="white"/>
<path d="M254.336 359.612C253.772 359.612 253.197 359.535 252.633 359.38C251.019 358.927 249.681 357.865 248.851 356.394C248.033 354.923 247.834 353.231 248.287 351.617C248.564 350.644 251.273 341.963 261.414 337.517C261.978 337.274 262.63 337.517 262.873 338.081C263.117 338.645 262.873 339.298 262.309 339.541C253.098 343.577 250.676 351.34 250.421 352.214C250.123 353.265 250.256 354.359 250.786 355.31C251.317 356.261 252.191 356.947 253.23 357.246C255.365 357.854 257.621 356.615 258.251 354.481C258.428 353.939 260.042 349.427 265.572 347.006C266.136 346.762 266.788 347.006 267.031 347.57C267.275 348.133 267.031 348.786 266.467 349.029C261.734 351.097 260.418 354.979 260.363 355.145C259.567 357.832 257.046 359.612 254.325 359.612H254.336Z" fill="#18292D"/>
<path d="M273.732 351.971C273.146 351.971 272.649 351.506 272.627 350.909V350.71C272.505 346.751 271.189 336.976 261.502 331.844C253.639 327.675 234.187 331.535 233.988 331.579C233.391 331.69 232.805 331.314 232.683 330.716C232.562 330.119 232.949 329.533 233.546 329.412C234.375 329.246 253.96 325.353 262.53 329.887C273.246 335.56 274.695 346.287 274.827 350.644V350.81C274.86 351.418 274.385 351.938 273.777 351.96C273.766 351.96 273.743 351.96 273.732 351.96V351.971Z" fill="#18292D"/>
<path d="M186.924 278.21L189.998 283.474C189.998 283.474 173.83 303.534 192.63 316.948L186.924 278.21Z" fill="#96D8E8"/>
<path d="M192.63 318.054C192.409 318.054 192.187 317.988 191.988 317.844C186.537 313.952 183.385 309.141 182.611 303.524C181.339 294.234 186.968 285.719 188.671 283.386L185.973 278.764C185.663 278.233 185.84 277.558 186.371 277.249C186.901 276.939 187.576 277.116 187.886 277.647L190.96 282.91C191.192 283.309 191.159 283.806 190.871 284.16C190.794 284.249 183.473 293.493 184.811 303.236C185.497 308.212 188.35 312.525 193.282 316.042C193.78 316.396 193.89 317.092 193.537 317.59C193.315 317.888 192.984 318.054 192.63 318.054Z" fill="#18292D"/>
<path d="M148.031 306.133C147.467 306.133 146.98 305.702 146.925 305.127L145.709 291.182C145.653 290.574 146.107 290.032 146.715 289.988C147.301 289.921 147.865 290.386 147.909 290.994L149.126 304.939C149.181 305.547 148.728 306.089 148.119 306.133C148.086 306.133 148.053 306.133 148.02 306.133H148.031Z" fill="#18292D"/>
<path d="M243.056 274.252C242.26 274.252 241.475 274.219 240.668 274.141L236.145 273.71C221.979 272.383 211.517 259.776 212.8 245.61C212.855 245.002 213.386 244.56 214.006 244.604C214.614 244.659 215.067 245.201 215.012 245.809C213.829 258.759 223.405 270.293 236.355 271.509L240.878 271.941C249.083 272.704 257.222 269.077 262.121 262.453L272.284 248.718C272.649 248.231 273.334 248.121 273.832 248.486C274.318 248.851 274.429 249.536 274.064 250.034L263.901 263.768C259.025 270.37 251.195 274.252 243.067 274.252H243.056Z" fill="#18292D"/>
<path d="M255.962 219.015H229.333V258.483H255.962V219.015Z" fill="white"/>
<path d="M231.677 193.868L231.776 194.1C236.167 204.506 244.549 212.711 255.043 216.891L251.151 235.127L233.656 238.942C231.024 239.517 228.293 239.451 225.694 238.743C216.847 236.332 211.584 227.253 213.895 218.373L217.058 206.264C218.827 199.463 224.688 194.509 231.688 193.879L231.677 193.868Z" fill="white"/>
<path d="M257.886 228.503C261.746 228.503 264.875 225.374 264.875 221.514C264.875 217.654 261.746 214.525 257.886 214.525C254.026 214.525 250.897 217.654 250.897 221.514C250.897 225.374 254.026 228.503 257.886 228.503Z" fill="white"/>
<path d="M229.078 241.375C228.47 241.375 227.973 240.877 227.973 240.269C227.973 239.661 228.47 239.163 229.078 239.163C244.936 239.163 248.497 230.892 248.641 230.538C248.873 229.974 249.515 229.697 250.079 229.93C250.642 230.151 250.919 230.792 250.698 231.356C250.532 231.765 246.54 241.375 229.078 241.375Z" fill="#18292D"/>
<path d="M255.807 223.726C255.707 223.726 255.608 223.715 255.508 223.682C254.922 223.516 254.58 222.908 254.745 222.322C254.801 222.112 256.205 217.224 259.799 216.627C260.407 216.527 260.971 216.936 261.071 217.534C261.17 218.131 260.761 218.706 260.164 218.805C258.328 219.115 257.167 221.88 256.88 222.919C256.747 223.406 256.294 223.726 255.818 223.726H255.807Z" fill="#18292D"/>
<path d="M233.69 231.499C230.096 231.499 226.856 227.01 226.458 226.435C226.248 226.136 226.203 225.76 226.325 225.417C226.447 225.074 226.734 224.82 227.088 224.732L237.384 222.033C237.693 221.956 238.036 222.011 238.301 222.199C238.567 222.387 238.733 222.686 238.766 223.007C238.788 223.283 239.275 229.752 235.094 231.245C234.63 231.411 234.154 231.488 233.69 231.488V231.499ZM229.3 226.446C230.627 227.928 232.739 229.752 234.354 229.177C236.057 228.569 236.477 226.114 236.565 224.544L229.311 226.446H229.3Z" fill="#18292D"/>
<path d="M225.517 211.041C225.451 210.521 224.942 210.179 224.445 210.245C223.77 210.322 223.129 210.732 222.753 211.296C222.72 211.34 222.698 211.395 222.675 211.439C222.51 211.55 222.377 211.683 222.266 211.86C222.122 212.103 222.001 212.379 221.99 212.667C221.99 213.032 222.056 213.375 222.277 213.673C222.521 213.983 222.863 214.16 223.25 214.237C223.56 214.303 223.87 214.237 224.168 214.149C224.721 213.972 225.164 213.496 225.385 212.965C225.628 212.357 225.595 211.683 225.517 211.041Z" fill="#18292D"/>
<path d="M242.526 212.866C242.493 212.568 242.305 212.324 242.05 212.181C241.951 212.114 241.829 212.07 241.696 212.059C241.531 212.037 241.376 212.059 241.221 212.125C240.679 212.28 240.193 212.667 239.861 213.11C239.728 213.298 239.617 213.497 239.529 213.718C239.474 213.817 239.418 213.928 239.374 214.027C239.208 214.437 239.142 214.945 239.264 215.377C239.286 215.542 239.352 215.686 239.452 215.819C239.529 215.93 239.629 216.007 239.739 216.062C240.005 216.206 240.281 216.217 240.569 216.118C241.873 215.653 242.692 214.227 242.526 212.866Z" fill="#18292D"/>
<path d="M227.365 220.54C226.989 220.54 226.624 220.352 226.414 219.998C226.104 219.479 226.27 218.793 226.79 218.483C226.79 218.483 228.736 217.068 228.946 211.539C229.023 209.537 228.526 208.133 227.475 207.381C225.385 205.877 221.305 206.938 219.9 207.469C219.336 207.69 218.695 207.403 218.474 206.828C218.252 206.253 218.54 205.622 219.115 205.401C219.358 205.302 225.275 203.079 228.758 205.578C230.45 206.795 231.257 208.829 231.158 211.627C230.892 218.406 228.227 220.198 227.929 220.374C227.752 220.485 227.553 220.529 227.365 220.529V220.54Z" fill="#18292D"/>
<path d="M277.625 320.067C277.139 320.067 276.696 319.747 276.563 319.26L271.167 299.642C271.001 299.056 271.355 298.448 271.941 298.282C272.527 298.116 273.135 298.47 273.301 299.056L278.698 318.674C278.864 319.26 278.51 319.868 277.924 320.034C277.824 320.056 277.725 320.078 277.625 320.078V320.067Z" fill="#18292D"/>
<circle cx="99" cy="74" r="49.5" fill="white" stroke="#18292D"/>
<path d="M86.9834 91.5908C86.5311 93.2381 85.0391 94.4263 83.25 94.4263C81.2584 94.4263 79.6179 92.9815 79.3951 91.0439" stroke="#18292D" stroke-width="1.3" stroke-linecap="round" stroke-linejoin="round"/>
<path d="M94.6324 91.9762C94.099 93.421 92.7015 94.3931 91.0205 94.4269C89.2247 94.4606 87.7327 93.2522 87.2803 91.5981" stroke="#18292D" stroke-width="1.3" stroke-linecap="round" stroke-linejoin="round"/>
<path d="M93.6466 82.9157C93.6466 82.9157 92.5935 77.724 87.4558 76.7788C87.206 76.7316 87.1317 73.0859 87.1317 73.0859" stroke="#18292D" stroke-width="1.3" stroke-linecap="round" stroke-linejoin="round"/>
<path d="M87.1318 73.0792L79.4085 79.3038L79.368 79.3714C77.7612 81.6735 74.5206 86.3858 71.0505 84.0837C68.9981 82.7199 68.8766 80.7148 70.5509 78.2304C71.7189 75.989 81.1098 67.2597 84.8027 64.3567C87.861 61.9533 91.2906 59.5971 93.8358 59.9887C97.4206 60.5423 99.7228 61.2309 101.08 62.2638C108.702 68.0834 111.267 69.2716 115.919 70.7703C117.505 71.2834 120.483 70.8581 120.483 70.8581L119.524 94.5008L115.197 93.9877V94.0012C105.765 96.8097 97.4814 93.2991 95.267 92.2121C94.8552 92.0096 94.4096 91.9016 93.9505 91.8813L80.968 91.3277" stroke="#18292D" stroke-width="1.3" stroke-linecap="round" stroke-linejoin="round"/>
<path d="M103.382 51.8134C102.045 50.7805 100.101 51.0371 99.0546 52.3805L72.914 85.9407C72.7924 86.096 72.6912 86.258 72.6102 86.42L68.5054 96.3983C68.4109 96.5873 68.5122 96.6683 68.6742 96.5333L77.363 90.1264C77.5048 90.0049 77.633 89.8631 77.7546 89.7146L103.909 56.1274C104.955 54.784 104.719 52.8464 103.382 51.8134Z" fill="#FFC31F" stroke="#18292D" stroke-width="1.3" stroke-linecap="round" stroke-linejoin="round"/>
<path d="M96.0505 56.2827L100.797 59.9756" stroke="#18292D" stroke-width="1.3" stroke-linecap="round" stroke-linejoin="round"/>
<path d="M70.7061 91.0376L73.3526 93.0765" stroke="#18292D" stroke-width="1.3" stroke-linecap="round" stroke-linejoin="round"/>
<path d="M98.4538 53.3052L103.213 56.9778" stroke="#18292D" stroke-width="1.3" stroke-linecap="round" stroke-linejoin="round"/>
<path d="M75.2837 88.0533L98.3795 58.1118" stroke="#18292D" stroke-width="1.3" stroke-linecap="round" stroke-linejoin="round"/>
<path d="M72.7723 86.1157L77.6264 89.8626" stroke="#18292D" stroke-width="1.3" stroke-linecap="round" stroke-linejoin="round"/>
<path d="M80.8061 91.3074C77.7275 90.9293 75.8845 89.4238 75.9385 87.3242C75.9992 84.8802 77.3022 82.4971 80.5428 82.5308C80.9951 82.5308 81.4407 82.4836 81.893 82.4971L93.6266 82.9089" fill="white"/>
<path d="M80.8061 91.3074C77.7275 90.9293 75.8845 89.4238 75.9385 87.3242C75.9992 84.8802 77.3022 82.4971 80.5428 82.5308C80.9951 82.5308 81.4407 82.4836 81.893 82.4971L93.6266 82.9089" stroke="#18292D" stroke-width="1.3" stroke-linecap="round" stroke-linejoin="round"/>
<path d="M131.197 69.2578L120.901 68.5962C119.632 68.6029 118.566 69.6561 118.512 70.9524L117.58 93.13C117.526 94.4262 118.505 95.4727 119.774 95.4659L130.164 95.4119L131.204 69.2646L131.197 69.2578Z" fill="#18292D" stroke="#18292D" stroke-width="1.3" stroke-linecap="round" stroke-linejoin="round"/>
<path d="M80.6439 91.2808L81.6363 91.355" stroke="#18292D" stroke-width="1.3" stroke-linecap="round" stroke-linejoin="round"/>
<circle cx="351" cy="82" r="49.5" fill="white" stroke="#18292D"/>
<path d="M380.611 77.6718C381.365 78.3465 381.365 79.5259 380.611 80.2006C376.775 83.6219 365.204 92.8128 351.519 92.8128C337.834 92.8128 326.268 83.6219 322.432 80.2006C321.678 79.5259 321.678 78.3465 322.432 77.6718C326.268 74.2504 337.839 65.0596 351.524 65.0596C365.21 65.0596 376.78 74.2504 380.616 77.6718H380.611Z" fill="white" stroke="#18292D" stroke-width="1.3" stroke-linecap="round" stroke-linejoin="round"/>
<path d="M352.018 92.8075C359.679 92.8075 365.89 86.5971 365.89 78.9362C365.89 71.2753 359.679 65.0649 352.018 65.0649C344.357 65.0649 338.147 71.2753 338.147 78.9362C338.147 86.5971 344.357 92.8075 352.018 92.8075Z" fill="white" stroke="#18292D" stroke-width="1.3" stroke-linecap="round" stroke-linejoin="round"/>
<path d="M369.546 97.9394L367.987 99.4984C367.651 99.8345 367.651 100.379 367.987 100.716L378.156 110.885C378.492 111.221 379.037 111.221 379.373 110.885L380.932 109.326C381.268 108.99 381.268 108.445 380.932 108.108L370.763 97.9394C370.427 97.6033 369.882 97.6033 369.546 97.9394Z" fill="white" stroke="#18292D" stroke-width="1.3" stroke-linecap="round" stroke-linejoin="round"/>
<path d="M377.025 109.76L379.804 106.982" stroke="#18292D" stroke-width="1.3" stroke-linecap="round" stroke-linejoin="round"/>
<path d="M368.764 98.7203L366.734 96.6909" stroke="#18292D" stroke-width="1.3" stroke-linecap="round" stroke-linejoin="round"/>
<path d="M380.933 109.326C381.269 108.989 381.269 108.444 380.933 108.108L379.761 107.221L377.106 109.876L378.156 110.885C378.493 111.221 379.037 111.221 379.374 110.885L380.933 109.326Z" fill="#18292D"/>
<path d="M371.596 88.9351C373.395 81.3162 368.676 73.6822 361.057 71.884C353.438 70.0858 345.804 74.8044 344.006 82.4232C342.208 90.042 346.927 97.676 354.545 99.4742C362.164 101.272 369.798 96.5539 371.596 88.9351Z" stroke="#18292D" stroke-width="1.3" stroke-linecap="round" stroke-linejoin="round"/>
<path d="M357.799 97.6578C364.412 97.6578 369.774 92.2966 369.774 85.6832C369.774 79.0697 364.412 73.7085 357.799 73.7085C351.185 73.7085 345.824 79.0697 345.824 85.6832C345.824 92.2966 351.185 97.6578 357.799 97.6578Z" stroke="#18292D" stroke-width="1.3" stroke-linecap="round" stroke-linejoin="round"/>
<path d="M357.798 72.0034C350.26 72.0034 344.129 78.1448 344.129 85.6834C344.129 93.2221 350.26 99.3529 357.798 99.3529C365.337 99.3529 371.468 93.2221 371.468 85.6834C371.468 78.1448 365.337 72.0034 357.798 72.0034ZM357.798 98.1309C351.014 98.1309 345.314 92.4624 345.314 85.6728C345.314 78.8833 351.014 73.2359 357.798 73.2359C364.583 73.2359 370.278 78.7186 370.278 85.5028C370.278 92.287 364.583 98.1256 357.798 98.1256V98.1309Z" fill="#18292D"/>
<path d="M352.018 92.8131V92.8131C351.748 85.2305 357.822 78.9365 365.41 78.9365H365.895" fill="#FFC31F"/>
<path d="M352.018 92.8131V92.8131C351.748 85.2305 357.822 78.9365 365.41 78.9365H365.895C365.421 89.9369 356.446 92.7711 352.018 92.8131Z" fill="#FFC31F"/>
<path d="M352.018 92.8131V92.8131C351.748 85.2305 357.822 78.9365 365.41 78.9365H365.895" stroke="#18292D" stroke-width="1.3" stroke-linecap="round" stroke-linejoin="round"/>
<path d="M352.018 92.8131V92.8131C351.748 85.2305 357.822 78.9365 365.41 78.9365H365.895C365.421 89.9369 356.446 92.7711 352.018 92.8131Z" stroke="#18292D" stroke-width="1.3" stroke-linecap="round" stroke-linejoin="round"/>
<path d="M352.22 53.749V61.4736" stroke="#18292D" stroke-width="1.3" stroke-linecap="round" stroke-linejoin="round"/>
<path d="M371.495 57.6108L366.033 63.0722" stroke="#18292D" stroke-width="1.3" stroke-linecap="round" stroke-linejoin="round"/>
<path d="M334.891 57.6108L340.352 63.0722" stroke="#18292D" stroke-width="1.3" stroke-linecap="round" stroke-linejoin="round"/>
</svg>
