<svg width="460" height="460" viewBox="0 0 460 460" fill="none" xmlns="http://www.w3.org/2000/svg">
<rect width="460" height="460" fill="white"/>
<path d="M368.763 110.047C368.11 110.675 369.063 119.19 368.823 120.05C367.987 123.042 366.603 125.865 365.217 128.617C360.828 137.338 354.357 144.107 345.423 148.13C338.89 151.072 326.9 153.15 322.248 145.77C318.757 140.229 321.324 136.576 326.211 133.859C330.522 131.462 333.568 134.559 335.288 138.722C336.878 142.573 336.68 144.604 335.224 148.305C332.097 156.257 327.921 162.079 321.475 167.673C319.802 169.125 313.326 176.007 310.828 174.78" stroke="black" stroke-width="1.25554" stroke-linecap="round" stroke-linejoin="round" stroke-dasharray="3.77 3.77"/>
<path d="M363 71.2C363.11 71.2 363.2 71.1105 363.2 71V70C363.2 69.8895 363.11 69.8 363 69.8H358C357.89 69.8 357.8 69.8895 357.8 70V71C357.8 71.1105 357.89 71.2 358 71.2H363ZM350 71.2C350.11 71.2 350.2 71.1105 350.2 71V70C350.2 69.8895 350.11 69.8 350 69.8H345C344.89 69.8 344.8 69.8895 344.8 70V71C344.8 71.1105 344.89 71.2 345 71.2H350ZM337 71.2C337.11 71.2 337.2 71.1105 337.2 71V70C337.2 69.8895 337.11 69.8 337 69.8H332C331.89 69.8 331.8 69.8895 331.8 70V71C331.8 71.1105 331.89 71.2 332 71.2H337ZM324 71.2C324.11 71.2 324.2 71.1105 324.2 71V70C324.2 69.8895 324.11 69.8 324 69.8H319C318.89 69.8 318.8 69.8895 318.8 70V71C318.8 71.1105 318.89 71.2 319 71.2H324ZM311 71.2C311.11 71.2 311.2 71.1105 311.2 71V70C311.2 69.8895 311.11 69.8 311 69.8H306C305.89 69.8 305.8 69.8895 305.8 70V71C305.8 71.1105 305.89 71.2 306 71.2H311ZM298 71.2C298.11 71.2 298.2 71.1105 298.2 71V70C298.2 69.8895 298.11 69.8 298 69.8H293C292.89 69.8 292.8 69.8895 292.8 70V71C292.8 71.1105 292.89 71.2 293 71.2H298ZM285 71.2C285.11 71.2 285.2 71.1105 285.2 71V70C285.2 69.8895 285.11 69.8 285 69.8H280C279.89 69.8 279.8 69.8895 279.8 70V71C279.8 71.1105 279.89 71.2 280 71.2H285ZM272 71.2C272.11 71.2 272.2 71.1105 272.2 71V70C272.2 69.8895 272.11 69.8 272 69.8H267C266.89 69.8 266.8 69.8895 266.8 70V71C266.8 71.1105 266.89 71.2 267 71.2H272ZM259 71.2C259.11 71.2 259.2 71.1105 259.2 71V70C259.2 69.8895 259.11 69.8 259 69.8H254C253.89 69.8 253.8 69.8895 253.8 70V71C253.8 71.1105 253.89 71.2 254 71.2H259ZM246 71.2C246.11 71.2 246.2 71.1105 246.2 71V70C246.2 69.8895 246.11 69.8 246 69.8H241C240.89 69.8 240.8 69.8895 240.8 70V71C240.8 71.1105 240.89 71.2 241 71.2H246ZM233 71.2C233.11 71.2 233.2 71.1105 233.2 71V70C233.2 69.8895 233.11 69.8 233 69.8H228C227.89 69.8 227.8 69.8895 227.8 70V71C227.8 71.1105 227.89 71.2 228 71.2H233ZM220 71.2C220.11 71.2 220.2 71.1105 220.2 71V70C220.2 69.8895 220.11 69.8 220 69.8H215C214.89 69.8 214.8 69.8895 214.8 70V71C214.8 71.1105 214.89 71.2 215 71.2H220ZM207 71.2C207.11 71.2 207.2 71.1105 207.2 71V70C207.2 69.8895 207.11 69.8 207 69.8H202C201.89 69.8 201.8 69.8895 201.8 70V71C201.8 71.1105 201.89 71.2 202 71.2H207ZM194 71.2C194.11 71.2 194.2 71.1105 194.2 71V70C194.2 69.8895 194.11 69.8 194 69.8H189C188.89 69.8 188.8 69.8895 188.8 70V71C188.8 71.1105 188.89 71.2 189 71.2H194ZM181 71.2C181.11 71.2 181.2 71.1105 181.2 71V70C181.2 69.8895 181.11 69.8 181 69.8H176C175.89 69.8 175.8 69.8895 175.8 70V71C175.8 71.1105 175.89 71.2 176 71.2H181ZM168 71.2C168.11 71.2 168.2 71.1105 168.2 71V70C168.2 69.8895 168.11 69.8 168 69.8H163C162.89 69.8 162.8 69.8895 162.8 70V71C162.8 71.1105 162.89 71.2 163 71.2H168ZM155 71.2C155.11 71.2 155.2 71.1105 155.2 71V70C155.2 69.8895 155.11 69.8 155 69.8H150C149.89 69.8 149.8 69.8895 149.8 70V71C149.8 71.1105 149.89 71.2 150 71.2H155ZM142 71.2C142.11 71.2 142.2 71.1105 142.2 71V70C142.2 69.8895 142.11 69.8 142 69.8H137C136.89 69.8 136.8 69.8895 136.8 70V71C136.8 71.1105 136.89 71.2 137 71.2H142ZM129 71.2C129.11 71.2 129.2 71.1105 129.2 71V70C129.2 69.8895 129.11 69.8 129 69.8H124C123.89 69.8 123.8 69.8895 123.8 70V71C123.8 71.1105 123.89 71.2 124 71.2H129Z" fill="black" stroke="black" stroke-width="0.4" stroke-linejoin="round"/>
<ellipse cx="189.92" cy="90.3634" rx="189.92" ry="90.3634" transform="matrix(0.930064 -0.367398 -0.367398 -0.930064 81.3987 435.64)" fill="#F2F7F8"/>
<path fill-rule="evenodd" clip-rule="evenodd" d="M94.6007 211.929C94.5159 227.636 89.4236 419.256 89.4236 419.256L390.923 419.262L389.452 315.825L197.727 307.194C197.727 307.194 182.924 210.253 185.323 210.253L94.6036 211.929H94.6007Z" fill="#7CCFE3"/>
<path fill-rule="evenodd" clip-rule="evenodd" d="M147.907 239.433C139.832 239.067 124.964 245.192 124.719 260.858C124.572 270.147 129.03 279.086 140.18 282.271C150.668 285.269 162.508 276.494 164.764 266.123C168.019 251.156 156.834 239.839 147.907 239.433Z" fill="#4A7C88"/>
<path fill-rule="evenodd" clip-rule="evenodd" d="M147.878 245.762C139.902 245.06 130.665 250.845 131.071 261.287C131.335 268.015 134.195 274.499 142.277 276.807C149.879 278.977 158.46 272.621 160.095 265.101C162.453 254.253 154.33 246.329 147.878 245.759V245.762Z" fill="white"/>
<path fill-rule="evenodd" clip-rule="evenodd" d="M147.454 243.182H144.195V277.324H147.454V243.182Z" fill="#4A7C88"/>
<path fill-rule="evenodd" clip-rule="evenodd" d="M163.131 262.738L163.137 259.479L128.995 259.403L128.989 262.662L163.131 262.738Z" fill="#4A7C88"/>
<path fill-rule="evenodd" clip-rule="evenodd" d="M189.947 215.489C189.374 217.019 90.2163 217.297 90.1051 215.787C88.0606 187.691 113.583 153.522 145.263 154.677C183.053 156.055 191.284 211.932 189.947 215.489Z" fill="#4A7C88"/>
<path fill-rule="evenodd" clip-rule="evenodd" d="M190.02 254.101C190.02 254.101 367.547 253.805 369.65 257.488C379.691 275.052 392.092 300.87 397.416 317.536C397.732 318.522 198.695 315.126 198.695 315.126L190.017 254.101H190.02Z" fill="#4A7C88"/>
<path fill-rule="evenodd" clip-rule="evenodd" d="M117.292 194.468C117.357 194.532 117.421 194.605 117.471 194.67C117.737 195.003 118.015 195.41 118.328 195.843C119.773 197.837 121.849 200.224 125.815 200.271C127.293 200.288 128.699 199.744 129.989 198.8C131.665 197.571 133.151 195.641 134.345 193.64C134.754 192.953 134.529 192.061 133.841 191.651C133.154 191.242 132.262 191.467 131.853 192.154C131.019 193.555 130.033 194.927 128.913 195.939C127.983 196.778 126.971 197.381 125.856 197.369C122.528 197.328 121.18 194.807 120.103 193.333C119.682 192.76 119.284 192.289 118.898 191.985C118.445 191.628 117.974 191.443 117.491 191.405C117.006 191.367 116.494 191.49 115.973 191.818C115.549 192.084 115.087 192.529 114.593 193.093C113.882 193.903 113.06 195.006 112.019 195.904C111.173 196.635 110.17 197.238 108.91 197.246C107.775 197.255 106.862 196.609 106.093 195.705C105.136 194.582 104.405 193.064 103.846 191.528C103.572 190.777 102.738 190.388 101.986 190.662C101.235 190.937 100.846 191.771 101.12 192.523C101.945 194.79 103.13 196.998 104.677 198.411C105.882 199.51 107.301 200.163 108.933 200.148C112.2 200.122 114.464 197.744 116.119 195.775C116.476 195.354 116.798 194.962 117.102 194.646C117.158 194.588 117.228 194.523 117.298 194.465L117.292 194.468Z" fill="white"/>
<path fill-rule="evenodd" clip-rule="evenodd" d="M166.486 191.765C166.653 191.981 166.855 192.241 167.013 192.461C168.159 194.046 169.818 195.924 172.968 195.962C174.161 195.977 175.302 195.544 176.343 194.78C177.648 193.824 178.809 192.326 179.739 190.764C180.148 190.077 179.923 189.185 179.236 188.775C178.548 188.366 177.656 188.591 177.247 189.279C176.633 190.308 175.91 191.32 175.082 192.066C174.448 192.639 173.766 193.069 173.006 193.057C170.631 193.028 169.692 191.194 168.923 190.141C168.188 189.135 167.405 188.591 166.688 188.538C166.252 188.503 165.79 188.609 165.322 188.904C164.977 189.121 164.6 189.477 164.199 189.934C163.669 190.536 163.058 191.361 162.283 192.031C161.704 192.531 161.019 192.955 160.154 192.964C159.396 192.97 158.802 192.519 158.291 191.92C157.589 191.098 157.059 189.983 156.65 188.863C156.375 188.111 155.541 187.722 154.789 187.994C154.038 188.269 153.649 189.103 153.921 189.855C154.567 191.627 155.5 193.353 156.711 194.456C157.691 195.351 158.849 195.877 160.177 195.865C162.766 195.845 164.576 193.988 165.889 192.426C166.068 192.212 166.296 191.964 166.486 191.759V191.765Z" fill="white"/>
<path fill-rule="evenodd" clip-rule="evenodd" d="M121.384 419.502C121.039 403.597 120.469 385.86 120.802 365.868C121.264 338.283 135.842 325.548 146.837 325.615C170.183 325.756 172.073 351.425 172.664 375.789C172.889 385.079 171.362 420.143 171.362 419.224L121.384 419.502Z" fill="#4A7C88"/>
<path fill-rule="evenodd" clip-rule="evenodd" d="M118.281 168.193C119.164 171.484 121.434 173.452 123.902 174.157C127.725 175.251 132.077 173.365 133.013 168.544C133.165 167.757 132.654 166.994 131.867 166.842C131.08 166.69 130.32 167.202 130.165 167.989C129.603 170.881 126.994 172.022 124.698 171.367C123.089 170.908 121.659 169.586 121.083 167.442C120.875 166.669 120.079 166.207 119.304 166.415C118.529 166.623 118.07 167.418 118.278 168.193H118.281Z" fill="white"/>
<path fill-rule="evenodd" clip-rule="evenodd" d="M130.507 168.712C131.212 171.335 133.025 172.897 134.994 173.462C138.065 174.339 141.563 172.824 142.318 168.951C142.47 168.165 141.958 167.401 141.171 167.249C140.384 167.097 139.621 167.609 139.469 168.396C139.091 170.344 137.337 171.11 135.792 170.668C134.684 170.352 133.707 169.434 133.312 167.96C133.104 167.188 132.309 166.726 131.534 166.933C130.758 167.141 130.299 167.937 130.507 168.712Z" fill="white"/>
<path fill-rule="evenodd" clip-rule="evenodd" d="M119.769 207.135C120.653 210.426 122.923 212.391 125.391 213.099C129.214 214.19 133.566 212.304 134.505 207.483C134.657 206.696 134.145 205.933 133.359 205.781C132.572 205.629 131.811 206.141 131.656 206.928C131.095 209.82 128.486 210.961 126.19 210.306C124.581 209.847 123.151 208.525 122.574 206.381C122.367 205.608 121.571 205.146 120.796 205.354C120.021 205.562 119.562 206.357 119.769 207.132V207.135Z" fill="white"/>
<path fill-rule="evenodd" clip-rule="evenodd" d="M157.293 168.72C158.065 172.352 160.473 174.043 162.666 174.116C164.948 174.189 167.32 172.581 167.87 169.006C167.993 168.214 167.449 167.474 166.656 167.351C165.863 167.228 165.123 167.772 165 168.565C164.74 170.264 163.845 171.25 162.76 171.215C161.59 171.177 160.543 170.056 160.133 168.117C159.967 167.333 159.194 166.833 158.411 167C157.627 167.167 157.127 167.939 157.293 168.72Z" fill="white"/>
<path fill-rule="evenodd" clip-rule="evenodd" d="M135.845 181.189C136.792 184.462 139.1 186.381 141.583 187.039C145.427 188.054 149.741 186.082 150.58 181.245C150.718 180.455 150.189 179.703 149.399 179.566C148.609 179.428 147.857 179.958 147.72 180.747C147.214 183.652 144.631 184.842 142.323 184.234C140.706 183.807 139.246 182.514 138.629 180.382C138.407 179.613 137.6 179.168 136.83 179.39C136.061 179.613 135.617 180.42 135.839 181.189H135.845Z" fill="white"/>
<path fill-rule="evenodd" clip-rule="evenodd" d="M148.191 201.581C149.074 204.872 151.344 206.837 153.813 207.545C157.636 208.636 161.988 206.75 162.924 201.929C163.076 201.142 162.564 200.382 161.777 200.227C160.99 200.075 160.227 200.587 160.075 201.374C159.513 204.266 156.904 205.407 154.608 204.752C153 204.293 151.566 202.971 150.993 200.829C150.785 200.054 149.99 199.595 149.215 199.803C148.443 200.011 147.98 200.806 148.188 201.581H148.191Z" fill="white"/>
<path fill-rule="evenodd" clip-rule="evenodd" d="M216.256 269.167C216.52 269.568 216.853 270.065 217.14 270.46C218.193 271.919 219.702 273.274 222.203 273.268C225.327 273.259 227.131 271.34 228.412 269.691C228.597 269.451 228.825 269.179 229.018 268.948C229.284 269.354 229.644 269.898 229.933 270.32C231.062 271.969 232.662 273.47 235.119 273.265C238.31 272.996 240.82 270.17 241.855 267.646C242.159 266.906 241.806 266.058 241.066 265.751C240.326 265.447 239.477 265.801 239.17 266.541C238.489 268.196 236.968 270.194 234.873 270.369C234.072 270.437 233.499 270.05 233.037 269.571C232.355 268.863 231.873 267.953 231.443 267.289C231.094 266.748 230.746 266.327 230.422 266.073C229.93 265.689 229.416 265.558 228.904 265.616C228.196 265.698 227.397 266.269 226.619 267.26C225.727 268.401 224.628 270.358 222.194 270.363C220.129 270.369 219.363 268.591 218.696 267.532C218.064 266.532 217.374 265.912 216.751 265.76C216.221 265.631 215.677 265.713 215.136 266.078C214.797 266.307 214.42 266.716 214.036 267.254C213.563 267.918 213.019 268.848 212.296 269.597C211.796 270.112 211.202 270.554 210.401 270.524C209.617 270.495 208.862 270.434 208.14 269.992C207.365 269.515 206.657 268.629 205.923 267.093C205.578 266.371 204.709 266.064 203.986 266.412C203.264 266.757 202.957 267.626 203.305 268.348C204.37 270.574 205.496 271.773 206.622 272.466C207.801 273.192 209.011 273.379 210.29 273.426C212.981 273.528 214.744 271.381 215.961 269.582C216.049 269.451 216.154 269.308 216.256 269.164V269.167Z" fill="white"/>
<path fill-rule="evenodd" clip-rule="evenodd" d="M275.416 288.568C276.434 290.265 278.23 292.33 281.412 292.391C283.565 292.432 285.089 291.537 286.279 290.218C287.28 289.115 288.023 287.679 288.739 286.357C289.123 285.652 288.859 284.772 288.157 284.389C287.452 284.005 286.572 284.269 286.189 284.971C285.689 285.892 285.188 286.884 284.563 287.735C283.834 288.72 282.922 289.516 281.468 289.487C279.192 289.443 278.142 287.641 277.566 286.489C277.154 285.667 276.855 285.044 276.686 284.859C276.303 284.444 275.884 284.353 275.563 284.351C275.124 284.348 274.621 284.479 274.249 285.096C273.705 286.006 273.068 286.998 272.281 287.752C271.69 288.32 271.014 288.758 270.187 288.741C267.285 288.671 266.229 286.404 265.627 284.473C265.387 283.71 264.574 283.283 263.807 283.523C263.044 283.763 262.617 284.576 262.857 285.342C263.787 288.317 265.65 291.537 270.119 291.645C271.444 291.677 272.611 291.207 273.626 290.426C274.29 289.917 274.884 289.267 275.419 288.565L275.416 288.568Z" fill="white"/>
<path fill-rule="evenodd" clip-rule="evenodd" d="M325.524 273.218C325.933 273.733 326.445 274.318 326.972 274.78C328.019 275.698 329.329 276.383 330.859 276.374C334.5 276.359 336.545 273.274 337.44 271.285C337.767 270.553 337.44 269.694 336.712 269.366C335.98 269.038 335.12 269.366 334.793 270.094C334.234 271.337 333.123 273.464 330.847 273.473C329.826 273.478 329.039 272.806 328.425 272.15C327.53 271.203 326.931 270.191 326.647 269.916C325.854 269.147 325.097 269.419 324.693 269.688C324.404 269.881 323.988 270.396 323.503 271.074C322.9 271.911 321.993 273.195 320.282 273.122C318.355 273.037 316.922 271.998 316.477 269.793C316.319 269.006 315.553 268.497 314.769 268.658C313.982 268.816 313.473 269.582 313.634 270.369C314.392 274.131 316.866 275.88 320.159 276.023C322.728 276.134 324.368 274.689 325.439 273.335L325.527 273.224L325.524 273.218Z" fill="white"/>
<path fill-rule="evenodd" clip-rule="evenodd" d="M335.237 304.409C335.647 304.924 336.159 305.509 336.685 305.971C337.732 306.89 339.043 307.574 340.572 307.565C344.214 307.551 346.258 304.465 347.153 302.476C347.481 301.745 347.153 300.885 346.425 300.557C345.694 300.23 344.834 300.557 344.506 301.286C343.948 302.529 342.836 304.655 340.561 304.664C339.54 304.67 338.753 303.997 338.139 303.342C337.247 302.394 336.644 301.382 336.363 301.107C335.571 300.338 334.813 300.61 334.41 300.879C334.12 301.072 333.708 301.587 333.219 302.266C332.617 303.102 331.71 304.386 329.999 304.313C328.071 304.228 326.638 303.19 326.194 300.984C326.036 300.201 325.269 299.692 324.482 299.85C323.699 300.007 323.19 300.774 323.348 301.561C324.105 305.322 326.58 307.071 329.873 307.214C332.441 307.326 334.082 305.881 335.153 304.526L335.24 304.412L335.237 304.409Z" fill="white"/>
<path fill-rule="evenodd" clip-rule="evenodd" d="M359.239 287.919C360.126 291.134 362.144 292.956 364.358 293.614C367.713 294.609 371.676 292.927 373.317 288.829C373.615 288.086 373.253 287.241 372.51 286.942C371.767 286.644 370.921 287.007 370.623 287.75C369.614 290.271 367.248 291.444 365.186 290.83C363.788 290.414 362.6 289.183 362.038 287.15C361.825 286.378 361.026 285.924 360.254 286.135C359.482 286.349 359.029 287.147 359.239 287.919Z" fill="white"/>
<path fill-rule="evenodd" clip-rule="evenodd" d="M344.682 302.081C345.565 305.295 347.586 307.118 349.8 307.773C353.155 308.767 357.119 307.085 358.759 302.988C359.058 302.245 358.695 301.399 357.952 301.101C357.209 300.803 356.364 301.165 356.066 301.908C355.056 304.43 352.693 305.602 350.628 304.988C349.227 304.573 348.043 303.339 347.481 301.306C347.267 300.534 346.469 300.08 345.697 300.291C344.925 300.504 344.471 301.303 344.682 302.075V302.081Z" fill="white"/>
<path fill-rule="evenodd" clip-rule="evenodd" d="M221.126 300.215C221.618 300.765 222.293 301.481 222.922 302.002C223.975 302.873 225.207 303.482 226.467 303.464C229.196 303.426 231.01 301.809 232.665 298.632C233.034 297.922 232.759 297.044 232.048 296.676C231.337 296.307 230.46 296.582 230.091 297.293C229.059 299.279 228.134 300.539 226.429 300.563C225.739 300.572 225.119 300.077 224.563 299.58C223.773 298.878 223.133 298.053 222.72 297.594C222.346 297.179 222.01 296.95 221.823 296.869C221.489 296.725 221.191 296.716 220.945 296.757C220.404 296.848 219.702 297.348 218.997 298.22C218.254 299.141 217.292 300.729 215.408 300.718C215.063 300.718 214.677 300.522 214.291 300.238C213.51 299.659 212.799 298.67 212.466 297.366C212.267 296.591 211.474 296.123 210.699 296.322C209.924 296.521 209.456 297.313 209.655 298.088C210.576 301.671 213.46 303.608 215.391 303.619C217.988 303.637 219.658 302.014 220.819 300.586C220.916 300.469 221.024 300.338 221.132 300.209L221.126 300.215Z" fill="white"/>
<path fill-rule="evenodd" clip-rule="evenodd" d="M221.074 337.574C220.43 337.601 220.035 376.762 220.954 376.906C226.707 377.801 259.896 376.838 259.893 376.616C259.846 374.247 260.478 337.993 259.922 337.887C257.504 337.431 227.424 337.317 221.077 337.574H221.074Z" fill="#4A7C88"/>
<path fill-rule="evenodd" clip-rule="evenodd" d="M278.314 338.274C277.671 338.3 277.276 377.462 278.192 377.605C283.945 378.5 317.134 377.538 317.131 377.316C317.084 374.947 317.716 338.692 317.16 338.587C314.741 338.134 284.661 338.02 278.314 338.274Z" fill="#4A7C88"/>
<path fill-rule="evenodd" clip-rule="evenodd" d="M223.926 341.591C223.373 341.62 223.493 372.753 223.797 372.779C228.126 373.139 256.86 372.534 256.857 372.344C256.816 370.305 257.384 342.179 256.907 342.091C254.827 341.699 228.658 341.351 223.926 341.591Z" fill="white"/>
<path fill-rule="evenodd" clip-rule="evenodd" d="M281.166 342.29C280.613 342.319 280.733 373.452 281.038 373.478C285.366 373.838 314.101 373.232 314.098 373.042C314.057 371.007 314.624 342.881 314.148 342.79C312.068 342.398 285.899 342.05 281.166 342.29Z" fill="white"/>
<path fill-rule="evenodd" clip-rule="evenodd" d="M242.174 339.274H237.725V374.809H242.174V339.274Z" fill="#4A7C88"/>
<path fill-rule="evenodd" clip-rule="evenodd" d="M299.415 339.97H294.966V375.504H299.415V339.97Z" fill="#4A7C88"/>
<path fill-rule="evenodd" clip-rule="evenodd" d="M258.919 355.777H222.001V359.342H258.919V355.777Z" fill="#4A7C88"/>
<path fill-rule="evenodd" clip-rule="evenodd" d="M316.16 356.473H279.242V360.041H316.16V356.473Z" fill="#4A7C88"/>
<path d="M225.528 256.479L224.444 215.416L277.314 202.377C286.557 200.097 296.309 201.323 304.701 205.807L357.122 233.829C360.141 236.684 362.009 240.547 362.383 244.68C363.399 256.053 353.139 265.177 341.96 262.846L311.434 256.479H225.528Z" fill="#18292D"/>
<path d="M239.606 191.191L241.684 202.669L238.179 207.593L249.732 215.619C257.003 220.67 266.799 214.64 265.574 205.874L264.386 197.423L239.599 191.183L239.606 191.191Z" fill="white" stroke="#18292D" stroke-width="1.06319" stroke-linecap="round" stroke-linejoin="round"/>
<path d="M224.863 152.444C230.363 145.114 240.869 142.244 243.799 144.359C244.523 142.282 245.936 140.316 247.976 138.829C252.728 135.369 259.028 135.863 262.047 139.92C264.662 143.44 263.952 148.476 260.627 152.011C263.078 154.074 265.402 156.517 267.479 159.312C275.759 170.454 258.191 184.614 254.768 187.103C245.495 193.851 231.917 191.16 224.437 181.095C216.957 171.029 218.227 161.3 224.87 152.444H224.863Z" fill="#18292D"/>
<path d="M226.417 155.523C229.57 154.672 232.515 154.769 234.884 156.024C241.549 159.566 244.165 174.325 234.256 181.984C233.636 182.462 232.776 182.627 232.298 183.232C225.543 174.093 223.585 163.534 226.424 155.516L226.417 155.523Z" fill="#18292D"/>
<path d="M260.993 151.667C257.892 155.882 252.84 159.902 246.541 162.749C235.945 167.531 225.184 167.472 219.998 163.123C220.215 156.278 222.89 150.299 228.039 146.638C236.841 140.383 250.203 142.819 260.986 151.667H260.993Z" fill="#18292D"/>
<path d="M232.134 179.765C233.77 179.025 235.511 178.846 237.148 179.137C240.525 174.885 241.34 169.535 240.488 164.969C242.483 164.401 244.516 163.669 246.548 162.75C252.721 159.962 257.69 156.047 260.806 151.922C263.19 153.984 265.454 156.413 267.487 159.178C277.463 172.741 278.195 189.143 269.123 195.809C262.331 200.801 251.966 198.925 242.999 191.96C242.132 193.403 240.839 194.613 239.188 195.36C234.876 197.303 229.81 195.39 227.867 191.086C225.924 186.774 227.837 181.708 232.141 179.765H232.134Z" fill="white" stroke="#18292D" stroke-width="1.06319" stroke-linecap="round" stroke-linejoin="round"/>
<path d="M255.12 133.725C255.12 133.725 243.903 134.891 243.529 144.09" stroke="#18292D" stroke-width="1.64399" stroke-linecap="round" stroke-linejoin="round"/>
<path d="M269.639 165.566C269.983 166.844 269.594 168.055 268.787 168.271C267.973 168.488 267.039 167.629 266.695 166.351C266.351 165.073 266.74 163.862 267.547 163.646C268.354 163.429 269.295 164.288 269.639 165.566Z" fill="#18292D"/>
<path d="M264.318 161.711C264.318 161.711 266.68 160.127 269.497 160.097" stroke="#18292D" stroke-width="1.06319" stroke-linecap="round" stroke-linejoin="round"/>
<path d="M258.221 171.118C258.565 172.396 258.176 173.607 257.369 173.824C256.554 174.04 255.62 173.181 255.277 171.903C254.933 170.625 255.321 169.415 256.128 169.198C256.943 168.981 257.877 169.841 258.221 171.118Z" fill="#18292D"/>
<path d="M250.569 170.588C250.569 170.588 252.504 165.925 256.734 165.267" stroke="#18292D" stroke-width="1.06319" stroke-linecap="round" stroke-linejoin="round"/>
<path d="M262.801 165.357C262.801 165.357 266.471 170.416 267.898 171.888C269.676 173.712 265.91 175.415 265.91 175.415" stroke="#18292D" stroke-width="1.06319" stroke-linecap="round" stroke-linejoin="round"/>
<path d="M269.176 181.109C269.176 181.109 264.251 185.316 258.4 179.047" stroke="#18292D" stroke-width="1.06319" stroke-linecap="round" stroke-linejoin="round"/>
<path d="M238.224 184.322C238.224 184.322 234.913 182.417 231.977 184.337" stroke="#18292D" stroke-width="1.64399" stroke-linecap="round" stroke-linejoin="round"/>
<path d="M332.776 237.678L309.752 238.074" stroke="white" stroke-width="1.64399" stroke-linecap="round" stroke-linejoin="round"/>
<path d="M280.347 244.65L266.65 252.654C265.918 253.199 266.179 254.35 267.069 254.537C267.876 254.709 269.363 255.097 270.977 253.924C271.948 253.222 275.318 250.412 275.318 250.412L280.34 244.658L280.347 244.65Z" fill="white"/>
<path d="M308.975 239.889L305.299 239.583L284.973 244.635L291.609 253.886C292.304 254.857 293.23 255.649 294.291 256.195L296.13 257.136H306.106C309.02 254.655 310.477 250.867 309.954 247.071L308.968 239.889H308.975Z" fill="white"/>
<path d="M308.968 239.404L298.371 239.8L282.582 244.373C281.124 244.799 279.787 245.576 278.711 246.645L270.311 254.925C269.467 255.762 270.028 257.204 271.216 257.241C272.441 257.278 273.637 256.867 274.578 256.083L284.226 248.042" fill="white"/>
<path d="M308.968 239.404L298.371 239.8L282.582 244.373C281.124 244.799 279.787 245.576 278.711 246.645L270.311 254.925C269.467 255.762 270.028 257.204 271.216 257.241C272.441 257.278 273.637 256.867 274.578 256.083L284.226 248.042" stroke="#18292D" stroke-width="1.06319" stroke-linecap="round" stroke-linejoin="round"/>
<path d="M286.415 246.032L276.372 255.941C275.528 256.778 276.088 258.22 277.276 258.258C278.502 258.295 279.697 257.884 280.639 257.099L290.286 249.059" fill="white"/>
<path d="M286.415 246.032L276.372 255.941C275.528 256.778 276.088 258.22 277.276 258.258C278.502 258.295 279.697 257.884 280.639 257.099L290.286 249.059" stroke="#18292D" stroke-width="1.06319" stroke-linecap="round" stroke-linejoin="round"/>
<path d="M291.467 247.878L283.441 255.933C282.597 256.77 283.157 258.213 284.345 258.25C285.571 258.287 286.767 257.876 287.708 257.092L297.355 249.051" fill="white"/>
<path d="M291.467 247.878L283.441 255.933C282.597 256.77 283.157 258.213 284.345 258.25C285.571 258.287 286.767 257.876 287.708 257.092L293.821 252.085" stroke="#18292D" stroke-width="1.06319" stroke-linecap="round" stroke-linejoin="round"/>
<path d="M299.694 239.426L286.983 239.479C286.072 239.479 285.593 240.562 286.206 241.242C286.587 241.661 287.155 242.356 288.112 242.752C288.56 242.939 295.345 240.562 295.345 240.562L299.687 239.419L299.694 239.426Z" fill="white"/>
<path d="M278.703 246.645C279.787 245.576 281.117 244.799 282.574 244.373L298.364 239.8L309.229 239.374C309.229 239.374 315.731 256.972 303.58 256.972H297.288C295.016 256.972 292.887 255.836 291.624 253.946" stroke="#18292D" stroke-width="1.06319" stroke-linecap="round" stroke-linejoin="round"/>
<path d="M253.311 189.666C253.311 189.666 243.074 185.123 242.237 178.584L242.072 177.919C241.542 175.819 239.412 174.541 237.312 175.072C236.498 175.274 235.818 175.722 235.309 176.312C234.39 175.849 233.299 175.73 232.253 176.096C230.206 176.806 229.122 179.032 229.825 181.08L230.049 181.73C231.304 185.362 233.845 188.388 237.215 190.242C238.799 191.116 240.017 192.521 240.667 194.21L241.004 195.091L203.289 233.105C194.695 241.766 200.83 256.487 213.026 256.487H217.046C222.247 256.487 227 253.543 229.324 248.895L253.102 201.234C255.03 197.37 256.315 192.782 253.326 189.666H253.311Z" fill="white" stroke="#18292D" stroke-width="1.06319" stroke-linecap="round" stroke-linejoin="round"/>
<path d="M241.616 189.592C238.418 187.455 236.146 184.226 235.212 180.497L235.048 179.832C234.517 177.733 235.795 175.603 237.895 175.072" stroke="#18292D" stroke-width="1.06319" stroke-linecap="round" stroke-linejoin="round"/>
<path d="M235.452 200.673L203.282 233.097C194.688 241.758 200.823 256.479 213.019 256.479H217.039C222.24 256.479 226.993 253.535 229.317 248.887L249.134 209.162C245.039 205.605 240.436 202.728 235.452 200.673Z" fill="#18292D"/>
<path d="M217.039 256.479C222.24 256.479 226.992 253.535 229.316 248.887L249.134 209.162" stroke="white" stroke-width="1.64399" stroke-linecap="round" stroke-linejoin="round"/>
<circle cx="130" cy="74" r="49.5" fill="white" stroke="#18292D"/>
<path d="M132.6 101.246V102.035C132.6 103.027 132.045 103.636 131.364 103.636H128.477C127.796 103.636 127.241 103.027 127.241 102.035V101.246" fill="white"/>
<path d="M132.6 101.246V102.035C132.6 103.027 132.045 103.636 131.364 103.636H128.477C127.796 103.636 127.241 103.027 127.241 102.035V101.246" stroke="#18292D" stroke-width="1.3" stroke-linecap="round" stroke-linejoin="round"/>
<path d="M124.688 92.9186C124.688 92.9186 122.784 92.039 122.072 87.6724C121.58 84.6591 120.588 81.7406 119.009 79.1287C118.941 79.016 118.873 78.9077 118.815 78.8085C118.314 78.0055 117.782 77.2251 117.195 76.4853C114.985 73.6931 113.663 70.1385 113.663 66.2997C113.663 57.5034 120.592 50.3355 129.271 49.9927C138.216 49.6408 145.894 56.7951 146.169 65.7809C146.291 69.7595 145.014 73.5262 142.768 76.4402C141.992 77.4462 141.234 78.4611 140.575 79.5482C140.458 79.7377 140.336 79.9407 140.215 80.1527C138.947 82.2954 138.176 84.6862 137.851 87.1582C137.21 91.9713 135.158 92.9231 135.158 92.9231H124.688V92.9186Z" fill="white" stroke="#18292D" stroke-width="1.3" stroke-linecap="round" stroke-linejoin="round"/>
<path d="M135.695 92.9185H124.156V96.9648H135.695V92.9185Z" fill="#18292D" stroke="#18292D" stroke-width="1.3" stroke-linecap="round" stroke-linejoin="round"/>
<path d="M124.156 96.9648V99.527C124.156 100.366 124.837 101.047 125.676 101.047H134.567C135.189 101.047 135.695 100.542 135.695 99.9195V96.9648H124.156Z" fill="#18292D" stroke="#18292D" stroke-width="1.3" stroke-linecap="round" stroke-linejoin="round"/>
<path d="M125.062 81.1858L127.81 85.4531L128.563 92.9187" stroke="#18292D" stroke-width="1.3" stroke-linecap="round" stroke-linejoin="round"/>
<path d="M134.869 81.1858L132.122 85.4531L131.369 92.9187" stroke="#18292D" stroke-width="1.3" stroke-linecap="round" stroke-linejoin="round"/>
<path d="M129.925 74.6133C133.205 77.4191 137.995 74.1983 137.995 69.7324C137.995 62.9255 129.492 55.1035 129.492 55.1035C129.492 55.1035 121.855 62.9255 121.855 69.7324C121.855 74.1983 126.646 77.4191 129.925 74.6133Z" fill="#FFC31F" stroke="#18292D" stroke-width="1.3" stroke-linecap="round" stroke-linejoin="round"/>
<path d="M129.492 55.1035C130.886 60.273 131.59 68.6634 129.925 74.6133C128.847 78.4701 129.925 81.8217 129.925 81.8217" stroke="#18292D" stroke-width="1.3" stroke-linecap="round" stroke-linejoin="round"/>
<path d="M147.017 56.4162L151.591 54.2329" stroke="#18292D" stroke-width="1.3" stroke-linecap="round" stroke-linejoin="round"/>
<path d="M149.358 65.4741H152.417" stroke="#18292D" stroke-width="1.3" stroke-linecap="round" stroke-linejoin="round"/>
<path d="M140.729 49.6813L142.448 47.1416" stroke="#18292D" stroke-width="1.3" stroke-linecap="round" stroke-linejoin="round"/>
<path d="M112.833 56.4162L108.255 54.2329" stroke="#18292D" stroke-width="1.3" stroke-linecap="round" stroke-linejoin="round"/>
<path d="M110.492 65.4741H107.434" stroke="#18292D" stroke-width="1.3" stroke-linecap="round" stroke-linejoin="round"/>
<path d="M119.117 49.6813L117.398 47.1416" stroke="#18292D" stroke-width="1.3" stroke-linecap="round" stroke-linejoin="round"/>
<path d="M130.182 47.038V44.354" stroke="#18292D" stroke-width="1.3" stroke-linecap="round" stroke-linejoin="round"/>
<circle cx="361" cy="74" r="49.5" fill="white" stroke="#18292D"/>
<path d="M335.779 50.4169V89.4432C335.779 90.8341 336.906 91.9617 338.297 91.9617H356.424C357.815 91.9617 358.943 90.8341 358.943 89.4432V50.4169C358.943 49.026 357.815 47.8984 356.424 47.8984H338.297C336.906 47.8984 335.779 49.026 335.779 50.4169Z" fill="#18292D" stroke="#18292D" stroke-width="1.3" stroke-linecap="round" stroke-linejoin="round"/>
<path d="M338.389 68.6155V50.5088L356.328 50.5139L356.323 68.6155H338.389Z" fill="white" stroke="#18292D" stroke-width="1.3" stroke-linecap="round" stroke-linejoin="round"/>
<path d="M355.058 73.2107H350.651C349.955 73.2107 349.382 72.642 349.382 71.9413C349.382 71.2406 349.95 70.6719 350.651 70.6719H355.058C355.754 70.6719 356.328 71.2406 356.328 71.9413C356.328 72.642 355.759 73.2107 355.058 73.2107Z" fill="white" stroke="white" stroke-width="1.3" stroke-linecap="round" stroke-linejoin="round"/>
<path d="M339.658 73.2107H344.065C344.761 73.2107 345.335 72.642 345.335 71.9413C345.335 71.2406 344.766 70.6719 344.065 70.6719H339.658C338.962 70.6719 338.389 71.2406 338.389 71.9413C338.389 72.642 338.957 73.2107 339.658 73.2107Z" fill="white" stroke="white" stroke-width="1.3" stroke-linecap="round" stroke-linejoin="round"/>
<path d="M347.356 89.3475C351.242 89.3475 354.393 86.1967 354.393 82.31C354.393 78.4233 351.242 75.2725 347.356 75.2725C343.469 75.2725 340.318 78.4233 340.318 82.31C340.318 86.1967 343.469 89.3475 347.356 89.3475Z" fill="white" stroke="#18292D" stroke-width="1.3" stroke-linecap="round" stroke-linejoin="round"/>
<path d="M349.696 82.31C349.696 83.6048 348.65 84.6508 347.356 84.6508C346.061 84.6508 345.015 83.6048 345.015 82.31C345.015 81.0152 346.061 79.9692 347.356 79.9692C348.65 79.9692 349.696 81.0152 349.696 82.31Z" fill="#FFC31F" stroke="#FFC31F" stroke-width="1.3" stroke-linecap="round" stroke-linejoin="round"/>
<path d="M347.356 76.7905V78.456" stroke="#18292D" stroke-width="1.3" stroke-linecap="round" stroke-linejoin="round"/>
<path d="M348.188 77.6233H346.523" stroke="#18292D" stroke-width="1.3" stroke-linecap="round" stroke-linejoin="round"/>
<path d="M348.188 87.0017H346.523" stroke="#18292D" stroke-width="1.3" stroke-linecap="round" stroke-linejoin="round"/>
<path d="M343.243 83.4627L342.095 82.3101L343.243 81.1626" stroke="#18292D" stroke-width="1.3" stroke-linecap="round" stroke-linejoin="round"/>
<path d="M351.474 83.4627L352.621 82.3101L351.474 81.1626" stroke="#18292D" stroke-width="1.3" stroke-linecap="round" stroke-linejoin="round"/>
<path d="M347.356 91.9617V93.9013C347.356 99.2328 351.677 100.147 357.008 100.147H364.741" stroke="#18292D" stroke-width="1.3" stroke-linecap="round" stroke-linejoin="round"/>
<path d="M374.404 70.5444V90.4892C374.404 95.8206 370.083 100.142 364.751 100.142" stroke="#18292D" stroke-width="1.3" stroke-linecap="round" stroke-linejoin="round"/>
<path d="M369.529 58.1348H373.17C374.764 58.1348 376.059 59.4295 376.059 61.0239V70.5444H372.784V65.4871C372.784 64.888 372.297 64.4056 371.703 64.4056H369.534V58.1348H369.529Z" fill="white" stroke="#18292D" stroke-width="1.3" stroke-linecap="round" stroke-linejoin="round"/>
<path d="M369.529 58.1348C366.854 58.1348 366.077 58.8101 364.99 59.9018V62.6437C366.082 63.7353 366.854 64.4107 369.529 64.4107V58.1398V58.1348Z" fill="#18292D" stroke="#18292D" stroke-width="1.3" stroke-linecap="round" stroke-linejoin="round"/>
<path d="M364.746 100.147H373.901C380.324 100.167 385.514 94.9778 385.514 88.5699V60.303" stroke="#18292D" stroke-width="1.3" stroke-linecap="round" stroke-linejoin="round"/>
<path d="M380.522 47.8931H384.163C385.757 47.8931 387.052 49.1879 387.052 50.7771V60.3027H383.777V55.2505C383.777 54.6513 383.29 54.169 382.695 54.169H380.527V47.8931H380.522Z" fill="white" stroke="#18292D" stroke-width="1.3" stroke-linecap="round" stroke-linejoin="round"/>
<path d="M380.522 47.8933C377.847 47.8933 377.07 48.5686 375.983 49.6603V52.4022C377.075 53.4939 377.847 54.1692 380.522 54.1692V47.8933Z" fill="#18292D" stroke="#18292D" stroke-width="1.3" stroke-linecap="round" stroke-linejoin="round"/>
<path d="M363.832 98.7402H357.927C357.422 98.7402 357.013 99.1494 357.013 99.6542V100.634C357.013 101.139 357.422 101.548 357.927 101.548H363.832C364.337 101.548 364.746 101.139 364.746 100.634V99.6542C364.746 99.1494 364.337 98.7402 363.832 98.7402Z" fill="#18292D" stroke="#18292D" stroke-width="1.3" stroke-linecap="round" stroke-linejoin="round"/>
</svg>
