<svg width="460" height="460" viewBox="0 0 460 460" fill="none" xmlns="http://www.w3.org/2000/svg">
<rect width="460" height="460" fill="white"/>
<path d="M358 85.2C358.11 85.2 358.2 85.1105 358.2 85V84C358.2 83.8895 358.11 83.8 358 83.8H353C352.89 83.8 352.8 83.8895 352.8 84V85C352.8 85.1105 352.89 85.2 353 85.2H358ZM345 85.2C345.11 85.2 345.2 85.1105 345.2 85V84C345.2 83.8895 345.11 83.8 345 83.8H340C339.89 83.8 339.8 83.8895 339.8 84V85C339.8 85.1105 339.89 85.2 340 85.2H345ZM332 85.2C332.11 85.2 332.2 85.1105 332.2 85V84C332.2 83.8895 332.11 83.8 332 83.8H327C326.89 83.8 326.8 83.8895 326.8 84V85C326.8 85.1105 326.89 85.2 327 85.2H332ZM319 85.2C319.11 85.2 319.2 85.1105 319.2 85V84C319.2 83.8895 319.11 83.8 319 83.8H314C313.89 83.8 313.8 83.8895 313.8 84V85C313.8 85.1105 313.89 85.2 314 85.2H319ZM306 85.2C306.11 85.2 306.2 85.1105 306.2 85V84C306.2 83.8895 306.11 83.8 306 83.8H301C300.89 83.8 300.8 83.8895 300.8 84V85C300.8 85.1105 300.89 85.2 301 85.2H306ZM293 85.2C293.11 85.2 293.2 85.1105 293.2 85V84C293.2 83.8895 293.11 83.8 293 83.8H288C287.89 83.8 287.8 83.8895 287.8 84V85C287.8 85.1105 287.89 85.2 288 85.2H293ZM280 85.2C280.11 85.2 280.2 85.1105 280.2 85V84C280.2 83.8895 280.11 83.8 280 83.8H275C274.89 83.8 274.8 83.8895 274.8 84V85C274.8 85.1105 274.89 85.2 275 85.2H280ZM267 85.2C267.11 85.2 267.2 85.1105 267.2 85V84C267.2 83.8895 267.11 83.8 267 83.8H262C261.89 83.8 261.8 83.8895 261.8 84V85C261.8 85.1105 261.89 85.2 262 85.2H267ZM254 85.2C254.11 85.2 254.2 85.1105 254.2 85V84C254.2 83.8895 254.11 83.8 254 83.8H249C248.89 83.8 248.8 83.8895 248.8 84V85C248.8 85.1105 248.89 85.2 249 85.2H254ZM241 85.2C241.11 85.2 241.2 85.1105 241.2 85V84C241.2 83.8895 241.11 83.8 241 83.8H236C235.89 83.8 235.8 83.8895 235.8 84V85C235.8 85.1105 235.89 85.2 236 85.2H241ZM228 85.2C228.11 85.2 228.2 85.1105 228.2 85V84C228.2 83.8895 228.11 83.8 228 83.8H223C222.89 83.8 222.8 83.8895 222.8 84V85C222.8 85.1105 222.89 85.2 223 85.2H228ZM215 85.2C215.11 85.2 215.2 85.1105 215.2 85V84C215.2 83.8895 215.11 83.8 215 83.8H210C209.89 83.8 209.8 83.8895 209.8 84V85C209.8 85.1105 209.89 85.2 210 85.2H215ZM202 85.2C202.11 85.2 202.2 85.1105 202.2 85V84C202.2 83.8895 202.11 83.8 202 83.8H197C196.89 83.8 196.8 83.8895 196.8 84V85C196.8 85.1105 196.89 85.2 197 85.2H202ZM189 85.2C189.11 85.2 189.2 85.1105 189.2 85V84C189.2 83.8895 189.11 83.8 189 83.8H184C183.89 83.8 183.8 83.8895 183.8 84V85C183.8 85.1105 183.89 85.2 184 85.2H189ZM176 85.2C176.11 85.2 176.2 85.1105 176.2 85V84C176.2 83.8895 176.11 83.8 176 83.8H171C170.89 83.8 170.8 83.8895 170.8 84V85C170.8 85.1105 170.89 85.2 171 85.2H176ZM163 85.2C163.11 85.2 163.2 85.1105 163.2 85V84C163.2 83.8895 163.11 83.8 163 83.8H158C157.89 83.8 157.8 83.8895 157.8 84V85C157.8 85.1105 157.89 85.2 158 85.2H163ZM150 85.2C150.11 85.2 150.2 85.1105 150.2 85V84C150.2 83.8895 150.11 83.8 150 83.8H145C144.89 83.8 144.8 83.8895 144.8 84V85C144.8 85.1105 144.89 85.2 145 85.2H150ZM137 85.2C137.11 85.2 137.2 85.1105 137.2 85V84C137.2 83.8895 137.11 83.8 137 83.8H132C131.89 83.8 131.8 83.8895 131.8 84V85C131.8 85.1105 131.89 85.2 132 85.2H137ZM124 85.2C124.11 85.2 124.2 85.1105 124.2 85V84C124.2 83.8895 124.11 83.8 124 83.8H119C118.89 83.8 118.8 83.8895 118.8 84V85C118.8 85.1105 118.89 85.2 119 85.2H124Z" fill="black" stroke="black" stroke-width="0.4" stroke-linejoin="round"/>
<mask id="path-2-outside-1_935_9730" maskUnits="userSpaceOnUse" x="96.9408" y="96.9449" width="216.339" height="204.157" fill="black">
<rect fill="white" x="96.9408" y="96.9449" width="216.339" height="204.157"/>
<path d="M125.87 299.443C125.841 299.411 125.114 298.56 123.896 296.695L124.456 296.333C125.637 298.153 126.364 298.998 126.371 299.011L125.863 299.45L125.87 299.443ZM121.173 292.074C120.661 291.13 120.145 290.125 119.641 289.099L120.238 288.802C120.741 289.821 121.25 290.819 121.762 291.758L121.173 292.074ZM117.398 284.235C116.977 283.258 116.546 282.228 116.113 281.152L116.732 280.9C117.166 281.976 117.596 283 118.01 283.971L117.398 284.235ZM114.209 276.147C113.846 275.132 113.48 274.078 113.113 272.991L113.748 272.778C114.116 273.866 114.481 274.913 114.843 275.921L114.215 276.146L114.209 276.147ZM111.484 267.896C111.167 266.859 110.854 265.788 110.546 264.69L111.19 264.51C111.505 265.608 111.817 266.672 112.128 267.709L111.491 267.902L111.484 267.896ZM109.147 259.527C108.875 258.468 108.608 257.387 108.34 256.287L108.986 256.134C109.254 257.234 109.521 258.314 109.792 259.368L109.147 259.534L109.147 259.527ZM107.218 251.047C107.017 249.956 106.836 248.844 106.681 247.737L107.344 247.643C107.498 248.743 107.679 249.842 107.879 250.927L107.224 251.047L107.218 251.047ZM106.088 242.418C106.04 241.846 106.004 241.266 105.969 240.693C105.936 240.154 105.903 239.614 105.884 239.081L106.551 239.053C106.577 239.587 106.603 240.12 106.636 240.659C106.671 241.232 106.706 241.805 106.754 242.37L106.089 242.425L106.088 242.418ZM106.473 233.729L105.803 233.717C105.816 232.606 105.854 231.481 105.913 230.367L106.577 230.4C106.524 231.506 106.485 232.625 106.472 233.723L106.473 233.729ZM106.988 225.1L106.322 225.033C106.435 223.93 106.574 222.812 106.727 221.713L107.388 221.806C107.234 222.898 107.102 224.01 106.988 225.106L106.988 225.1ZM108.264 216.551L107.607 216.424C107.821 215.327 108.055 214.23 108.303 213.145L108.953 213.292C108.705 214.364 108.478 215.461 108.263 216.544L108.264 216.551ZM110.277 208.144L109.637 207.962C109.946 206.893 110.268 205.817 110.611 204.753L111.245 204.962C110.908 206.012 110.579 207.082 110.277 208.144ZM113.018 199.939L112.395 199.703C112.792 198.663 113.216 197.614 113.649 196.598L114.267 196.861C113.834 197.877 113.416 198.912 113.018 199.946L113.018 199.939ZM116.477 192.012L115.877 191.715C116.371 190.715 116.885 189.707 117.413 188.732L118.001 189.051C117.479 190.019 116.964 191.013 116.477 192.012ZM120.661 184.449L120.092 184.096C120.682 183.144 121.293 182.197 121.912 181.283L122.463 181.657C121.85 182.564 121.246 183.504 120.661 184.449ZM125.583 177.348L125.056 176.939C125.744 176.054 126.453 175.175 127.164 174.336L127.671 174.766C126.967 175.598 126.258 176.471 125.583 177.348ZM131.306 170.907L130.842 170.427C131.632 169.67 132.475 168.917 133.339 168.182L133.772 168.69C132.92 169.411 132.09 170.157 131.306 170.907ZM137.965 165.432L137.577 164.887C138.468 164.251 139.405 163.619 140.351 163.006L140.712 163.565C139.773 164.171 138.849 164.803 137.965 165.432ZM145.272 160.826L144.949 160.244C145.906 159.711 146.903 159.175 147.901 158.666L148.205 159.263C147.206 159.772 146.222 160.3 145.272 160.833L145.272 160.826ZM153.005 156.963L152.734 156.352C153.736 155.902 154.772 155.458 155.809 155.034L156.061 155.653C155.03 156.077 154.001 156.515 153.005 156.963ZM161.032 153.745L160.806 153.117C161.847 152.745 162.901 152.38 163.969 152.027L164.175 152.663C163.114 153.016 162.066 153.374 161.025 153.745L161.032 153.745ZM169.267 151.088L169.081 150.444C170.145 150.138 171.224 149.845 172.309 149.558L172.476 150.203C171.397 150.49 170.325 150.783 169.267 151.088ZM246.691 145.637L246.651 144.971C247.756 144.89 248.873 144.788 249.956 144.675L250.023 145.34C248.933 145.453 247.81 145.555 246.691 145.637ZM241.347 145.924C240.232 145.959 239.117 145.98 238.001 145.995L237.994 145.327C239.103 145.319 240.219 145.298 241.319 145.257L241.34 145.924L241.347 145.924ZM255.337 144.66L255.236 143.998C256.342 143.83 257.441 143.643 258.518 143.436L258.638 144.091C257.561 144.297 256.449 144.485 255.336 144.654L255.337 144.66ZM232.649 145.934C231.537 145.902 230.418 145.857 229.304 145.798L229.337 145.134C230.444 145.193 231.556 145.232 232.662 145.265L232.642 145.935L232.649 145.934ZM177.654 148.944L177.507 148.291C178.589 148.051 179.684 147.817 180.781 147.596L180.914 148.25C179.825 148.47 178.736 148.704 177.654 148.944ZM223.974 145.442C222.873 145.362 221.765 145.296 220.652 145.237L220.685 144.573C221.805 144.632 222.912 144.698 224.02 144.777L223.974 145.442ZM263.871 142.955L263.711 142.31C264.797 142.036 265.876 141.743 266.92 141.438L267.106 142.075C266.056 142.387 264.97 142.681 263.871 142.955ZM186.144 147.288L186.037 146.632C187.136 146.452 188.235 146.277 189.335 146.116L189.429 146.779C188.329 146.94 187.237 147.114 186.144 147.294L186.144 147.288ZM215.32 145.069C214.209 145.05 213.099 145.051 211.989 145.052L211.982 144.384C213.098 144.376 214.214 144.381 215.325 144.4L215.313 145.069L215.32 145.069ZM194.709 146.089L194.635 145.425C195.744 145.297 196.847 145.189 197.964 145.081L198.024 145.746C196.921 145.846 195.811 145.961 194.716 146.088L194.709 146.089ZM206.661 145.177C205.554 145.218 204.441 145.279 203.335 145.34L203.294 144.674C204.407 144.606 205.52 144.552 206.634 144.51L206.661 145.177ZM272.184 140.367L271.945 139.74C272.997 139.341 274.027 138.917 275.017 138.482L275.288 139.094C274.286 139.537 273.242 139.962 272.183 140.361L272.184 140.367ZM280.097 136.707L279.767 136.126C280.743 135.578 281.697 135.005 282.604 134.415L282.966 134.974C282.046 135.572 281.079 136.159 280.09 136.708L280.097 136.707ZM287.29 131.775L286.857 131.266C287.71 130.552 288.533 129.8 289.302 129.031L289.772 129.503C288.99 130.28 288.155 131.046 287.29 131.775ZM293.308 125.449L292.775 125.047C293.437 124.164 294.063 123.25 294.628 122.32L295.197 122.666C294.62 123.611 293.982 124.546 293.308 125.449ZM297.652 117.883L297.035 117.626C297.462 116.624 297.846 115.577 298.176 114.534L298.811 114.736C298.468 115.807 298.078 116.867 297.646 117.89L297.652 117.883ZM300.096 109.516L299.44 109.402C299.629 108.334 299.783 107.235 299.889 106.126L300.554 106.192C300.443 107.315 300.29 108.434 300.096 109.516ZM300.788 100.829L300.12 100.836C300.11 99.9141 300.08 98.9733 300.023 98.0407L300.689 98C300.746 98.9459 300.778 99.9 300.789 100.835L300.788 100.829Z"/>
</mask>
<path d="M125.87 299.443C125.841 299.411 125.114 298.56 123.896 296.695L124.456 296.333C125.637 298.153 126.364 298.998 126.371 299.011L125.863 299.45L125.87 299.443ZM121.173 292.074C120.661 291.13 120.145 290.125 119.641 289.099L120.238 288.802C120.741 289.821 121.25 290.819 121.762 291.758L121.173 292.074ZM117.398 284.235C116.977 283.258 116.546 282.228 116.113 281.152L116.732 280.9C117.166 281.976 117.596 283 118.01 283.971L117.398 284.235ZM114.209 276.147C113.846 275.132 113.48 274.078 113.113 272.991L113.748 272.778C114.116 273.866 114.481 274.913 114.843 275.921L114.215 276.146L114.209 276.147ZM111.484 267.896C111.167 266.859 110.854 265.788 110.546 264.69L111.19 264.51C111.505 265.608 111.817 266.672 112.128 267.709L111.491 267.902L111.484 267.896ZM109.147 259.527C108.875 258.468 108.608 257.387 108.34 256.287L108.986 256.134C109.254 257.234 109.521 258.314 109.792 259.368L109.147 259.534L109.147 259.527ZM107.218 251.047C107.017 249.956 106.836 248.844 106.681 247.737L107.344 247.643C107.498 248.743 107.679 249.842 107.879 250.927L107.224 251.047L107.218 251.047ZM106.088 242.418C106.04 241.846 106.004 241.266 105.969 240.693C105.936 240.154 105.903 239.614 105.884 239.081L106.551 239.053C106.577 239.587 106.603 240.12 106.636 240.659C106.671 241.232 106.706 241.805 106.754 242.37L106.089 242.425L106.088 242.418ZM106.473 233.729L105.803 233.717C105.816 232.606 105.854 231.481 105.913 230.367L106.577 230.4C106.524 231.506 106.485 232.625 106.472 233.723L106.473 233.729ZM106.988 225.1L106.322 225.033C106.435 223.93 106.574 222.812 106.727 221.713L107.388 221.806C107.234 222.898 107.102 224.01 106.988 225.106L106.988 225.1ZM108.264 216.551L107.607 216.424C107.821 215.327 108.055 214.23 108.303 213.145L108.953 213.292C108.705 214.364 108.478 215.461 108.263 216.544L108.264 216.551ZM110.277 208.144L109.637 207.962C109.946 206.893 110.268 205.817 110.611 204.753L111.245 204.962C110.908 206.012 110.579 207.082 110.277 208.144ZM113.018 199.939L112.395 199.703C112.792 198.663 113.216 197.614 113.649 196.598L114.267 196.861C113.834 197.877 113.416 198.912 113.018 199.946L113.018 199.939ZM116.477 192.012L115.877 191.715C116.371 190.715 116.885 189.707 117.413 188.732L118.001 189.051C117.479 190.019 116.964 191.013 116.477 192.012ZM120.661 184.449L120.092 184.096C120.682 183.144 121.293 182.197 121.912 181.283L122.463 181.657C121.85 182.564 121.246 183.504 120.661 184.449ZM125.583 177.348L125.056 176.939C125.744 176.054 126.453 175.175 127.164 174.336L127.671 174.766C126.967 175.598 126.258 176.471 125.583 177.348ZM131.306 170.907L130.842 170.427C131.632 169.67 132.475 168.917 133.339 168.182L133.772 168.69C132.92 169.411 132.09 170.157 131.306 170.907ZM137.965 165.432L137.577 164.887C138.468 164.251 139.405 163.619 140.351 163.006L140.712 163.565C139.773 164.171 138.849 164.803 137.965 165.432ZM145.272 160.826L144.949 160.244C145.906 159.711 146.903 159.175 147.901 158.666L148.205 159.263C147.206 159.772 146.222 160.3 145.272 160.833L145.272 160.826ZM153.005 156.963L152.734 156.352C153.736 155.902 154.772 155.458 155.809 155.034L156.061 155.653C155.03 156.077 154.001 156.515 153.005 156.963ZM161.032 153.745L160.806 153.117C161.847 152.745 162.901 152.38 163.969 152.027L164.175 152.663C163.114 153.016 162.066 153.374 161.025 153.745L161.032 153.745ZM169.267 151.088L169.081 150.444C170.145 150.138 171.224 149.845 172.309 149.558L172.476 150.203C171.397 150.49 170.325 150.783 169.267 151.088ZM246.691 145.637L246.651 144.971C247.756 144.89 248.873 144.788 249.956 144.675L250.023 145.34C248.933 145.453 247.81 145.555 246.691 145.637ZM241.347 145.924C240.232 145.959 239.117 145.98 238.001 145.995L237.994 145.327C239.103 145.319 240.219 145.298 241.319 145.257L241.34 145.924L241.347 145.924ZM255.337 144.66L255.236 143.998C256.342 143.83 257.441 143.643 258.518 143.436L258.638 144.091C257.561 144.297 256.449 144.485 255.336 144.654L255.337 144.66ZM232.649 145.934C231.537 145.902 230.418 145.857 229.304 145.798L229.337 145.134C230.444 145.193 231.556 145.232 232.662 145.265L232.642 145.935L232.649 145.934ZM177.654 148.944L177.507 148.291C178.589 148.051 179.684 147.817 180.781 147.596L180.914 148.25C179.825 148.47 178.736 148.704 177.654 148.944ZM223.974 145.442C222.873 145.362 221.765 145.296 220.652 145.237L220.685 144.573C221.805 144.632 222.912 144.698 224.02 144.777L223.974 145.442ZM263.871 142.955L263.711 142.31C264.797 142.036 265.876 141.743 266.92 141.438L267.106 142.075C266.056 142.387 264.97 142.681 263.871 142.955ZM186.144 147.288L186.037 146.632C187.136 146.452 188.235 146.277 189.335 146.116L189.429 146.779C188.329 146.94 187.237 147.114 186.144 147.294L186.144 147.288ZM215.32 145.069C214.209 145.05 213.099 145.051 211.989 145.052L211.982 144.384C213.098 144.376 214.214 144.381 215.325 144.4L215.313 145.069L215.32 145.069ZM194.709 146.089L194.635 145.425C195.744 145.297 196.847 145.189 197.964 145.081L198.024 145.746C196.921 145.846 195.811 145.961 194.716 146.088L194.709 146.089ZM206.661 145.177C205.554 145.218 204.441 145.279 203.335 145.34L203.294 144.674C204.407 144.606 205.52 144.552 206.634 144.51L206.661 145.177ZM272.184 140.367L271.945 139.74C272.997 139.341 274.027 138.917 275.017 138.482L275.288 139.094C274.286 139.537 273.242 139.962 272.183 140.361L272.184 140.367ZM280.097 136.707L279.767 136.126C280.743 135.578 281.697 135.005 282.604 134.415L282.966 134.974C282.046 135.572 281.079 136.159 280.09 136.708L280.097 136.707ZM287.29 131.775L286.857 131.266C287.71 130.552 288.533 129.8 289.302 129.031L289.772 129.503C288.99 130.28 288.155 131.046 287.29 131.775ZM293.308 125.449L292.775 125.047C293.437 124.164 294.063 123.25 294.628 122.32L295.197 122.666C294.62 123.611 293.982 124.546 293.308 125.449ZM297.652 117.883L297.035 117.626C297.462 116.624 297.846 115.577 298.176 114.534L298.811 114.736C298.468 115.807 298.078 116.867 297.646 117.89L297.652 117.883ZM300.096 109.516L299.44 109.402C299.629 108.334 299.783 107.235 299.889 106.126L300.554 106.192C300.443 107.315 300.29 108.434 300.096 109.516ZM300.788 100.829L300.12 100.836C300.11 99.9141 300.08 98.9733 300.023 98.0407L300.689 98C300.746 98.9459 300.778 99.9 300.789 100.835L300.788 100.829Z" fill="black"/>
<path d="M125.87 299.443C125.841 299.411 125.114 298.56 123.896 296.695L124.456 296.333C125.637 298.153 126.364 298.998 126.371 299.011L125.863 299.45L125.87 299.443ZM121.173 292.074C120.661 291.13 120.145 290.125 119.641 289.099L120.238 288.802C120.741 289.821 121.25 290.819 121.762 291.758L121.173 292.074ZM117.398 284.235C116.977 283.258 116.546 282.228 116.113 281.152L116.732 280.9C117.166 281.976 117.596 283 118.01 283.971L117.398 284.235ZM114.209 276.147C113.846 275.132 113.48 274.078 113.113 272.991L113.748 272.778C114.116 273.866 114.481 274.913 114.843 275.921L114.215 276.146L114.209 276.147ZM111.484 267.896C111.167 266.859 110.854 265.788 110.546 264.69L111.19 264.51C111.505 265.608 111.817 266.672 112.128 267.709L111.491 267.902L111.484 267.896ZM109.147 259.527C108.875 258.468 108.608 257.387 108.34 256.287L108.986 256.134C109.254 257.234 109.521 258.314 109.792 259.368L109.147 259.534L109.147 259.527ZM107.218 251.047C107.017 249.956 106.836 248.844 106.681 247.737L107.344 247.643C107.498 248.743 107.679 249.842 107.879 250.927L107.224 251.047L107.218 251.047ZM106.088 242.418C106.04 241.846 106.004 241.266 105.969 240.693C105.936 240.154 105.903 239.614 105.884 239.081L106.551 239.053C106.577 239.587 106.603 240.12 106.636 240.659C106.671 241.232 106.706 241.805 106.754 242.37L106.089 242.425L106.088 242.418ZM106.473 233.729L105.803 233.717C105.816 232.606 105.854 231.481 105.913 230.367L106.577 230.4C106.524 231.506 106.485 232.625 106.472 233.723L106.473 233.729ZM106.988 225.1L106.322 225.033C106.435 223.93 106.574 222.812 106.727 221.713L107.388 221.806C107.234 222.898 107.102 224.01 106.988 225.106L106.988 225.1ZM108.264 216.551L107.607 216.424C107.821 215.327 108.055 214.23 108.303 213.145L108.953 213.292C108.705 214.364 108.478 215.461 108.263 216.544L108.264 216.551ZM110.277 208.144L109.637 207.962C109.946 206.893 110.268 205.817 110.611 204.753L111.245 204.962C110.908 206.012 110.579 207.082 110.277 208.144ZM113.018 199.939L112.395 199.703C112.792 198.663 113.216 197.614 113.649 196.598L114.267 196.861C113.834 197.877 113.416 198.912 113.018 199.946L113.018 199.939ZM116.477 192.012L115.877 191.715C116.371 190.715 116.885 189.707 117.413 188.732L118.001 189.051C117.479 190.019 116.964 191.013 116.477 192.012ZM120.661 184.449L120.092 184.096C120.682 183.144 121.293 182.197 121.912 181.283L122.463 181.657C121.85 182.564 121.246 183.504 120.661 184.449ZM125.583 177.348L125.056 176.939C125.744 176.054 126.453 175.175 127.164 174.336L127.671 174.766C126.967 175.598 126.258 176.471 125.583 177.348ZM131.306 170.907L130.842 170.427C131.632 169.67 132.475 168.917 133.339 168.182L133.772 168.69C132.92 169.411 132.09 170.157 131.306 170.907ZM137.965 165.432L137.577 164.887C138.468 164.251 139.405 163.619 140.351 163.006L140.712 163.565C139.773 164.171 138.849 164.803 137.965 165.432ZM145.272 160.826L144.949 160.244C145.906 159.711 146.903 159.175 147.901 158.666L148.205 159.263C147.206 159.772 146.222 160.3 145.272 160.833L145.272 160.826ZM153.005 156.963L152.734 156.352C153.736 155.902 154.772 155.458 155.809 155.034L156.061 155.653C155.03 156.077 154.001 156.515 153.005 156.963ZM161.032 153.745L160.806 153.117C161.847 152.745 162.901 152.38 163.969 152.027L164.175 152.663C163.114 153.016 162.066 153.374 161.025 153.745L161.032 153.745ZM169.267 151.088L169.081 150.444C170.145 150.138 171.224 149.845 172.309 149.558L172.476 150.203C171.397 150.49 170.325 150.783 169.267 151.088ZM246.691 145.637L246.651 144.971C247.756 144.89 248.873 144.788 249.956 144.675L250.023 145.34C248.933 145.453 247.81 145.555 246.691 145.637ZM241.347 145.924C240.232 145.959 239.117 145.98 238.001 145.995L237.994 145.327C239.103 145.319 240.219 145.298 241.319 145.257L241.34 145.924L241.347 145.924ZM255.337 144.66L255.236 143.998C256.342 143.83 257.441 143.643 258.518 143.436L258.638 144.091C257.561 144.297 256.449 144.485 255.336 144.654L255.337 144.66ZM232.649 145.934C231.537 145.902 230.418 145.857 229.304 145.798L229.337 145.134C230.444 145.193 231.556 145.232 232.662 145.265L232.642 145.935L232.649 145.934ZM177.654 148.944L177.507 148.291C178.589 148.051 179.684 147.817 180.781 147.596L180.914 148.25C179.825 148.47 178.736 148.704 177.654 148.944ZM223.974 145.442C222.873 145.362 221.765 145.296 220.652 145.237L220.685 144.573C221.805 144.632 222.912 144.698 224.02 144.777L223.974 145.442ZM263.871 142.955L263.711 142.31C264.797 142.036 265.876 141.743 266.92 141.438L267.106 142.075C266.056 142.387 264.97 142.681 263.871 142.955ZM186.144 147.288L186.037 146.632C187.136 146.452 188.235 146.277 189.335 146.116L189.429 146.779C188.329 146.94 187.237 147.114 186.144 147.294L186.144 147.288ZM215.32 145.069C214.209 145.05 213.099 145.051 211.989 145.052L211.982 144.384C213.098 144.376 214.214 144.381 215.325 144.4L215.313 145.069L215.32 145.069ZM194.709 146.089L194.635 145.425C195.744 145.297 196.847 145.189 197.964 145.081L198.024 145.746C196.921 145.846 195.811 145.961 194.716 146.088L194.709 146.089ZM206.661 145.177C205.554 145.218 204.441 145.279 203.335 145.34L203.294 144.674C204.407 144.606 205.52 144.552 206.634 144.51L206.661 145.177ZM272.184 140.367L271.945 139.74C272.997 139.341 274.027 138.917 275.017 138.482L275.288 139.094C274.286 139.537 273.242 139.962 272.183 140.361L272.184 140.367ZM280.097 136.707L279.767 136.126C280.743 135.578 281.697 135.005 282.604 134.415L282.966 134.974C282.046 135.572 281.079 136.159 280.09 136.708L280.097 136.707ZM287.29 131.775L286.857 131.266C287.71 130.552 288.533 129.8 289.302 129.031L289.772 129.503C288.99 130.28 288.155 131.046 287.29 131.775ZM293.308 125.449L292.775 125.047C293.437 124.164 294.063 123.25 294.628 122.32L295.197 122.666C294.62 123.611 293.982 124.546 293.308 125.449ZM297.652 117.883L297.035 117.626C297.462 116.624 297.846 115.577 298.176 114.534L298.811 114.736C298.468 115.807 298.078 116.867 297.646 117.89L297.652 117.883ZM300.096 109.516L299.44 109.402C299.629 108.334 299.783 107.235 299.889 106.126L300.554 106.192C300.443 107.315 300.29 108.434 300.096 109.516ZM300.788 100.829L300.12 100.836C300.11 99.9141 300.08 98.9733 300.023 98.0407L300.689 98C300.746 98.9459 300.778 99.9 300.789 100.835L300.788 100.829Z" stroke="black" stroke-width="1.09176" stroke-linejoin="round" mask="url(#path-2-outside-1_935_9730)"/>
<ellipse cx="240.942" cy="272.835" rx="161.604" ry="76.8906" transform="rotate(-165.945 240.942 272.835)" fill="#F2F7F8"/>
<path d="M317.483 404.84L334.827 432.017L382.289 406.431C380.267 403.07 376.572 401.082 372.654 401.251L352.466 402.107C348.466 399.273 344.974 395.786 342.13 391.79L340.012 388.816L317.488 404.845L317.483 404.84Z" fill="white"/>
<path d="M334.822 432.602C334.629 432.602 334.44 432.506 334.334 432.336L316.989 405.159C316.825 404.898 316.888 404.555 317.144 404.376L339.668 388.347C339.794 388.26 339.954 388.221 340.104 388.245C340.254 388.27 340.389 388.357 340.481 388.482L342.599 391.457C345.371 395.355 348.747 398.741 352.636 401.522L372.625 400.676C376.737 400.506 380.649 402.596 382.782 406.136C382.865 406.272 382.889 406.436 382.845 406.591C382.802 406.746 382.7 406.871 382.56 406.949L335.098 432.535C335.011 432.583 334.914 432.602 334.822 432.602ZM318.266 404.995L335.02 431.253L381.452 406.223C379.484 403.355 376.19 401.691 372.669 401.836L352.481 402.692C352.355 402.702 352.224 402.659 352.123 402.586C348.06 399.703 344.534 396.187 341.651 392.129L339.872 389.629L318.266 405V404.995Z" fill="#18292D"/>
<path d="M382.284 406.437C382.149 406.209 381.999 405.987 381.849 405.774C381.805 405.711 381.752 405.648 381.704 405.586C381.593 405.436 381.481 405.291 381.365 405.145C381.307 405.078 381.249 405.015 381.196 404.947C381.08 404.812 380.959 404.681 380.838 404.55C380.78 404.492 380.722 404.43 380.664 404.372C380.529 404.241 380.393 404.11 380.258 403.985C380.205 403.936 380.151 403.893 380.098 403.844C379.939 403.704 379.769 403.573 379.6 403.443C379.566 403.419 379.532 403.39 379.498 403.366C378.85 402.887 378.154 402.48 377.419 402.156C375.943 401.508 374.323 401.189 372.655 401.257L356.993 401.919L352.466 402.113C352.278 401.977 352.089 401.832 351.9 401.697C349.922 402.398 348.694 403.375 348.462 404.613C348.258 405.697 348.844 406.877 350.062 408.067C346.711 410.301 342.609 412.357 338.024 413.977C333.531 415.564 329.139 416.536 325.192 416.923L334.827 432.018L382.289 406.432L382.284 406.437Z" fill="#18292D"/>
<path d="M99.9877 302.797L71.1418 288.398L43.5825 334.743C47.0456 336.586 51.2341 336.392 54.5085 334.235L71.3885 323.125C76.2783 323.502 81.0666 324.697 85.5599 326.661L88.9069 328.126L99.9925 302.802L99.9877 302.797Z" fill="white"/>
<path d="M48.6175 336.581C46.7989 336.581 44.9755 336.141 43.3069 335.255C43.1666 335.183 43.065 335.052 43.0215 334.898C42.978 334.743 43.0021 334.583 43.0795 334.443L70.6388 288.103C70.7936 287.842 71.1273 287.745 71.3982 287.88L100.244 302.279C100.52 302.419 100.641 302.748 100.515 303.029L89.4292 328.354C89.3664 328.494 89.2503 328.605 89.11 328.663C88.9649 328.721 88.8053 328.716 88.6651 328.653L85.3181 327.188C80.9361 325.273 76.2977 324.102 71.5336 323.715L54.8229 334.719C52.9463 335.957 50.7795 336.581 48.6127 336.581H48.6175ZM44.3999 334.501C47.5631 335.947 51.2583 335.676 54.1893 333.751L71.0693 322.641C71.1757 322.569 71.2966 322.535 71.432 322.55C76.3944 322.932 81.2263 324.136 85.7872 326.134L88.6022 327.367L99.2332 303.077L71.3643 289.167L44.3999 334.501Z" fill="#18292D"/>
<path d="M235.245 254.614L237.929 267.354L284.119 308.63C295.311 318.632 305.406 329.8 314.228 341.945L352.587 394.751L314.368 409.503L300.158 389.46C274.93 353.881 244.115 322.622 208.909 296.881C194.815 286.579 193.045 266.212 205.142 253.627L215.802 242.542L235.245 254.609V254.614Z" fill="#18292D"/>
<path d="M250.664 264.002L213.021 327.913C201.18 348.014 177.418 357.799 154.86 351.86L78.3438 331.725L90.4112 295.517L153.191 318.119C165.447 322.53 179.116 317.747 185.94 306.651L222.5 247.238L250.664 264.002Z" fill="#18292D"/>
<path d="M43.5825 334.743C43.8195 334.869 44.0565 334.98 44.2983 335.086C44.3709 335.12 44.4434 335.144 44.5208 335.178C44.6901 335.251 44.8642 335.319 45.0384 335.381C45.1206 335.41 45.2028 335.435 45.2899 335.464C45.4591 335.517 45.6284 335.57 45.8025 335.618C45.8848 335.643 45.9622 335.662 46.0444 335.681C46.2282 335.725 46.4071 335.768 46.5909 335.802C46.6586 335.817 46.7312 335.831 46.7989 335.841C47.0069 335.88 47.2197 335.909 47.4325 335.928C47.476 335.928 47.5196 335.938 47.5583 335.943C48.3611 336.025 49.1689 336.01 49.9669 335.909C51.563 335.706 53.1204 335.149 54.5134 334.23L67.6062 325.611L71.3933 323.121C71.6255 323.14 71.8576 323.169 72.0898 323.188C73.4247 321.568 73.9761 320.098 73.5408 318.917C73.1539 317.882 72.0511 317.171 70.3921 316.78C72.1188 313.138 74.5807 309.268 77.681 305.52C80.7184 301.849 83.9831 298.758 87.1705 296.393L71.1466 288.393L43.5825 334.743Z" fill="#18292D"/>
<path d="M224.091 308.567C223.971 308.567 223.854 308.528 223.748 308.456L208.561 297.351C204.198 294.163 200.808 289.859 198.757 284.911C198.636 284.616 198.776 284.277 199.071 284.151C199.366 284.03 199.71 284.171 199.831 284.466C201.799 289.22 205.054 293.351 209.248 296.412L224.435 307.512C224.696 307.701 224.749 308.064 224.561 308.325C224.445 308.48 224.27 308.562 224.091 308.562V308.567Z" fill="white"/>
<path d="M373.104 213.574C372.887 213.235 372.616 212.95 372.316 212.708C372.756 211.649 372.684 210.396 372.011 209.356C371.349 208.336 370.26 207.765 369.134 207.717C369.661 206.619 369.622 205.289 368.911 204.191C368.244 203.161 367.136 202.585 365.99 202.551C366.343 201.536 366.246 200.37 365.612 199.398C364.529 197.724 362.295 197.25 360.621 198.334L353.618 202.875C351.32 204.365 350.15 206.943 350.348 209.497L307.577 229.433L264.995 208.481C258.011 205.047 249.576 208.21 246.582 215.397C244.043 221.487 246.278 228.519 251.864 232.026L285 252.814C299.49 261.907 318.16 260.765 331.432 249.98L363.697 223.765C364.06 223.663 364.408 223.513 364.742 223.296L372.031 218.57C373.704 217.487 374.178 215.252 373.095 213.579L373.104 213.574Z" fill="white"/>
<path d="M306.242 259.503C298.794 259.503 291.321 257.453 284.7 253.303L251.564 232.515C245.711 228.844 243.395 221.55 246.055 215.171C247.564 211.548 250.422 208.791 254.098 207.413C257.774 206.034 261.74 206.228 265.261 207.959L307.592 228.786L349.753 209.134C349.685 206.426 351.02 203.872 353.308 202.387L360.311 197.846C362.251 196.588 364.848 197.144 366.106 199.079C366.686 199.969 366.894 201.023 366.72 202.049C367.813 202.271 368.785 202.924 369.399 203.872C370.057 204.883 370.236 206.097 369.927 207.238C370.976 207.48 371.905 208.124 372.5 209.038C373.172 210.078 373.351 211.354 372.993 212.53C373.22 212.747 373.419 212.989 373.588 213.255C374.845 215.195 374.289 217.792 372.355 219.05L365.066 223.775C364.737 223.988 364.374 224.157 363.997 224.268L331.814 250.42C324.404 256.442 315.345 259.499 306.247 259.499L306.242 259.503ZM259.061 207.659C257.527 207.659 255.994 207.935 254.509 208.496C251.138 209.763 248.517 212.293 247.129 215.616C244.686 221.468 246.814 228.162 252.183 231.528L285.319 252.316C299.602 261.278 317.99 260.152 331.079 249.521L363.291 223.349C363.363 223.272 363.455 223.214 363.562 223.185C363.876 223.103 364.171 222.972 364.437 222.798L371.726 218.073C373.128 217.163 373.525 215.287 372.621 213.884C372.442 213.608 372.219 213.366 371.958 213.159C371.755 212.999 371.682 212.718 371.784 212.481C372.166 211.558 372.074 210.508 371.532 209.671C371 208.854 370.096 208.336 369.114 208.298C368.921 208.288 368.742 208.182 368.64 208.017C368.538 207.848 368.529 207.645 368.616 207.466C369.075 206.503 369.008 205.396 368.432 204.511C367.89 203.679 366.976 203.166 365.98 203.132C365.796 203.127 365.622 203.035 365.52 202.881C365.414 202.731 365.39 202.537 365.453 202.358C365.762 201.463 365.651 200.501 365.138 199.713C364.229 198.31 362.352 197.909 360.95 198.818L353.946 203.359C351.905 204.685 350.754 207.016 350.938 209.449C350.957 209.691 350.822 209.918 350.604 210.02L307.834 229.951C307.674 230.024 307.49 230.024 307.331 229.947L264.749 208.994C262.94 208.104 261.005 207.654 259.061 207.654V207.659Z" fill="#18292D"/>
<path d="M264.11 206.209L228.837 189.295C213.412 181.9 194.99 185.145 183.019 197.362L153.926 227.059C153.578 227.2 153.244 227.393 152.94 227.64L146.231 233.163C144.693 234.43 144.471 236.704 145.738 238.242C145.994 238.551 146.294 238.808 146.618 239.011C146.299 240.114 146.512 241.352 147.3 242.305C148.074 243.243 149.22 243.688 150.347 243.606C149.951 244.752 150.139 246.077 150.966 247.083C151.75 248.031 152.916 248.481 154.052 248.384C153.815 249.434 154.042 250.58 154.782 251.475C156.05 253.013 158.323 253.235 159.861 251.968L166.303 246.667C168.417 244.926 169.288 242.232 168.804 239.722L209.045 215.084L253.721 231.088C261.049 233.715 269.073 229.613 271.235 222.136C273.073 215.8 270.055 209.062 264.105 206.209H264.11Z" fill="white"/>
<path d="M157.578 253.376C157.442 253.376 157.302 253.371 157.167 253.357C156.054 253.25 155.048 252.713 154.337 251.848C153.665 251.03 153.331 250.005 153.389 248.965C152.277 248.868 151.237 248.331 150.516 247.456C149.747 246.522 149.433 245.337 149.612 244.172C148.543 244.051 147.547 243.519 146.855 242.677C146.067 241.72 145.752 240.472 145.97 239.267C145.718 239.074 145.496 238.856 145.293 238.614C143.827 236.83 144.084 234.184 145.863 232.719L152.572 227.195C152.877 226.944 153.215 226.74 153.583 226.581L182.608 196.961C194.757 184.56 213.432 181.271 229.088 188.778L264.362 205.691C270.591 208.68 273.721 215.665 271.796 222.3C270.702 226.073 268.178 229.135 264.681 230.919C261.184 232.709 257.223 232.96 253.527 231.635L209.112 215.723L169.442 240.012C169.819 242.692 168.779 245.386 166.676 247.117L160.233 252.418C159.474 253.042 158.545 253.371 157.578 253.371V253.376ZM154.052 247.809C154.221 247.809 154.381 247.882 154.492 248.007C154.613 248.148 154.661 248.336 154.618 248.515C154.41 249.439 154.632 250.382 155.227 251.108C155.74 251.731 156.465 252.118 157.273 252.196C158.076 252.273 158.864 252.036 159.488 251.519L165.931 246.218C167.812 244.67 168.692 242.223 168.228 239.828C168.18 239.591 168.286 239.35 168.494 239.224L208.735 214.581C208.885 214.489 209.069 214.47 209.233 214.528L253.91 230.532C257.3 231.746 260.937 231.514 264.144 229.875C267.351 228.235 269.672 225.425 270.673 221.967C272.439 215.877 269.566 209.469 263.849 206.726L228.575 189.813C213.369 182.524 195.226 185.716 183.425 197.759L154.381 227.403C154.318 227.485 154.236 227.553 154.129 227.592C153.829 227.708 153.549 227.872 153.302 228.075L146.594 233.599C145.302 234.658 145.119 236.573 146.178 237.86C146.386 238.111 146.632 238.329 146.918 238.503C147.14 238.639 147.242 238.909 147.169 239.156C146.894 240.119 147.106 241.149 147.74 241.923C148.359 242.677 149.312 243.088 150.294 243.016C150.487 243.001 150.676 243.088 150.797 243.243C150.913 243.398 150.947 243.601 150.884 243.785C150.536 244.791 150.729 245.884 151.401 246.701C152.03 247.466 152.997 247.877 153.994 247.794C154.008 247.794 154.028 247.794 154.042 247.794L154.052 247.809Z" fill="#18292D"/>
<path d="M298.465 223.862C298.465 223.862 249.581 191.969 211.115 183.998C208.992 193.507 208.392 203.287 209.335 212.984L210.317 223.069L217.282 225.864C208.116 238.817 191.918 262.758 191.918 262.758L248.285 277.428L268.004 249.82L276.835 257.351L298.475 223.867L298.465 223.862Z" fill="#96D8E8"/>
<path d="M248.28 278.004C248.231 278.004 248.183 277.999 248.135 277.984L191.768 263.315C191.584 263.266 191.439 263.136 191.372 262.957C191.304 262.778 191.328 262.584 191.435 262.425C191.594 262.188 207.25 239.059 216.382 226.121L210.099 223.601C209.896 223.519 209.761 223.335 209.736 223.117L208.755 213.033C207.802 203.263 208.406 193.449 210.549 183.868C210.617 183.558 210.926 183.36 211.231 183.428C249.363 191.331 298.291 223.054 298.779 223.374C299.045 223.548 299.123 223.906 298.949 224.176L277.309 257.665C277.218 257.806 277.072 257.902 276.908 257.927C276.744 257.951 276.574 257.902 276.449 257.796L268.1 250.676L248.749 277.767C248.638 277.921 248.459 278.008 248.275 278.008L248.28 278.004ZM192.857 262.401L248.038 276.765L267.525 249.487C267.617 249.356 267.767 249.269 267.926 249.25C268.091 249.23 268.25 249.279 268.371 249.385L276.7 256.485L297.662 224.046C292.487 220.733 247.351 192.313 211.56 184.695C209.548 193.981 208.992 203.48 209.911 212.936L210.859 222.667L217.494 225.332C217.659 225.4 217.785 225.536 217.833 225.705C217.881 225.874 217.852 226.058 217.751 226.203C209.557 237.782 195.56 258.41 192.852 262.405L192.857 262.401Z" fill="#18292D"/>
<path d="M227.54 227.273C224.256 227.273 220.648 226.939 216.716 226.262C216.401 226.209 216.189 225.909 216.242 225.589C216.295 225.275 216.59 225.062 216.914 225.115C229.707 227.311 238.969 225.875 244.44 220.849C250.098 215.65 249.542 208.289 249.537 208.216C249.508 207.897 249.745 207.616 250.065 207.587C250.384 207.558 250.664 207.795 250.693 208.115C250.722 208.439 251.317 216.1 245.242 221.691C241.209 225.406 235.279 227.268 227.545 227.268L227.54 227.273Z" fill="#18292D"/>
<path d="M267.583 250.59C267.467 250.59 267.351 250.556 267.249 250.484C266.988 250.3 266.92 249.937 267.104 249.676C272.782 241.531 275.5 234.058 275.525 233.986C275.631 233.686 275.965 233.526 276.269 233.638C276.569 233.744 276.729 234.078 276.618 234.382C276.589 234.46 273.822 242.078 268.052 250.348C267.941 250.508 267.757 250.595 267.573 250.595L267.583 250.59Z" fill="#18292D"/>
<path d="M281.706 197.604L276.521 194.291C270.562 190.48 268.807 182.49 272.618 176.531L273.934 174.475C278.707 167.017 288.714 164.816 296.173 169.585L295.428 172.004C300.105 174.993 301.483 181.266 298.489 185.943L292.555 195.22C290.228 198.862 285.343 199.931 281.706 197.604Z" fill="#18292D"/>
<path d="M296.054 195.066C301.676 190.12 301.964 181.258 296.697 175.272C291.43 169.285 282.603 168.441 276.982 173.387C271.36 178.332 271.073 187.195 276.339 193.181C281.606 199.168 290.433 200.012 296.054 195.066Z" fill="#18292D"/>
<path d="M282.654 182.795C285.464 179.114 290.339 177.349 294.557 178.785C297.188 179.68 299.036 181.644 299.863 184.052C298.939 183.186 296.196 180.904 293.986 181.924C291.287 183.172 287.133 186.683 282.654 182.795Z" fill="#18292D"/>
<path d="M305.372 188.608C303.452 191.612 299.456 192.487 296.453 190.567C293.449 188.647 292.574 184.652 294.494 181.648C296.414 178.645 300.409 177.769 303.413 179.69C306.416 181.61 307.292 185.605 305.372 188.608Z" fill="#18292D"/>
<path d="M292.932 169.885C286.572 166.872 278.848 168.86 274.775 174.756C275.539 176.487 276.821 178.035 278.562 179.147C283.085 182.04 288.985 180.898 291.737 176.594C293.048 174.543 293.406 172.149 292.937 169.885H292.932Z" fill="#18292D"/>
<path d="M298.426 178.698C296.506 181.701 292.511 182.577 289.508 180.657C286.504 178.736 285.629 174.741 287.549 171.738C289.469 168.734 293.464 167.859 296.468 169.779C299.471 171.699 300.347 175.694 298.426 178.698Z" fill="#18292D"/>
<path d="M304.593 183.022C302.615 186.112 298.513 187.012 295.423 185.039C292.332 183.06 291.433 178.959 293.406 175.868C295.384 172.778 299.486 171.878 302.576 173.851C305.667 175.83 306.566 179.931 304.593 183.022Z" fill="#18292D"/>
<path d="M284.506 170.615C284.448 170.615 284.395 170.606 284.337 170.591C284.032 170.499 283.858 170.175 283.95 169.866C284.458 168.207 282.983 166.761 282.968 166.746C282.736 166.524 282.731 166.156 282.954 165.924C283.176 165.692 283.544 165.687 283.776 165.909C283.858 165.987 285.778 167.868 285.063 170.204C284.985 170.456 284.758 170.615 284.506 170.615Z" fill="#18292D"/>
<path d="M284.811 170.625C284.593 170.625 284.381 170.499 284.284 170.287C283.258 168.071 284.913 165.948 284.98 165.856C285.179 165.605 285.546 165.561 285.798 165.759C286.049 165.958 286.093 166.32 285.894 166.572C285.87 166.606 284.622 168.241 285.343 169.793C285.478 170.083 285.353 170.432 285.058 170.562C284.98 170.601 284.898 170.615 284.816 170.615L284.811 170.625Z" fill="#18292D"/>
<path d="M300.076 193.856L300.482 192.825C302.518 187.674 299.993 181.846 294.838 179.81C290.489 178.093 285.667 179.621 283.041 183.234C281.435 182.223 279.288 182.456 277.943 183.892C276.768 185.145 276.55 186.944 277.251 188.405L262.311 201.546L257.566 200.801C255.68 204.109 255.274 208.83 256.826 213.531C259.288 220.999 265.755 225.579 271.264 223.761C275.573 222.339 278.011 217.42 277.692 211.775L276.391 210.528L281.74 205.822C282.436 206.344 283.205 206.789 284.052 207.123C289.203 209.159 295.031 206.629 297.067 201.478L298.489 197.885C299.544 198.175 300.675 197.643 301.096 196.603C301.522 195.553 301.062 194.373 300.08 193.856H300.076Z" fill="white"/>
<path d="M268.749 224.738C266.683 224.738 264.555 224.012 262.558 222.595C259.733 220.593 257.499 217.434 256.265 213.705C254.717 209.018 255.012 204.085 257.054 200.506C257.174 200.298 257.407 200.182 257.648 200.221L262.122 200.922L276.545 188.235C275.941 186.601 276.303 184.777 277.513 183.486C278.901 182.006 281.082 181.619 282.877 182.475C285.774 178.867 290.702 177.541 295.046 179.259C297.682 180.298 299.756 182.306 300.883 184.908C302.01 187.51 302.059 190.392 301.019 193.028L300.787 193.619C301.73 194.368 302.093 195.655 301.628 196.806C301.169 197.938 300.047 198.615 298.852 198.523L297.604 201.681C296.564 204.317 294.557 206.392 291.955 207.519C289.353 208.646 286.47 208.694 283.834 207.655C283.123 207.374 282.432 207.006 281.774 206.552L277.247 210.537L278.093 211.35C278.199 211.451 278.262 211.592 278.272 211.737C278.611 217.797 275.868 222.846 271.447 224.307C270.577 224.597 269.672 224.738 268.758 224.738H268.749ZM257.876 201.435C256.173 204.704 255.98 209.12 257.373 213.342C258.524 216.839 260.609 219.785 263.235 221.647C265.808 223.47 268.594 224.022 271.075 223.204C274.94 221.932 277.348 217.454 277.116 212.027L275.984 210.939C275.868 210.827 275.8 210.668 275.805 210.508C275.805 210.344 275.883 210.194 276.004 210.083L281.353 205.376C281.561 205.193 281.866 205.183 282.083 205.347C282.775 205.865 283.505 206.276 284.265 206.576C286.615 207.505 289.179 207.461 291.495 206.455C293.812 205.449 295.597 203.606 296.526 201.256L297.948 197.662C298.059 197.386 298.349 197.236 298.639 197.314C299.428 197.531 300.25 197.125 300.554 196.375C300.864 195.611 300.54 194.745 299.81 194.359C299.548 194.218 299.432 193.909 299.539 193.633L299.945 192.603C300.874 190.257 300.83 187.684 299.824 185.372C298.818 183.055 296.975 181.271 294.625 180.342C290.61 178.755 286.04 180.086 283.51 183.568C283.331 183.815 282.988 183.882 282.731 183.718C281.334 182.838 279.496 183.075 278.364 184.279C277.382 185.329 277.15 186.842 277.769 188.143C277.88 188.376 277.822 188.656 277.629 188.83L262.688 201.971C262.558 202.088 262.384 202.136 262.214 202.107L257.876 201.425V201.435Z" fill="#18292D"/>
<path d="M278.02 190.18C277.88 190.18 277.735 190.127 277.624 190.025C275.762 188.284 275.67 185.353 277.411 183.491C277.628 183.254 277.996 183.244 278.233 183.462C278.465 183.68 278.48 184.047 278.262 184.284C276.956 185.677 277.029 187.873 278.422 189.179C278.654 189.397 278.668 189.764 278.451 190.001C278.335 190.122 278.18 190.185 278.025 190.185L278.02 190.18Z" fill="#18292D"/>
<path d="M280.589 188.468C280.468 188.468 280.352 188.434 280.245 188.357C279.984 188.168 279.931 187.805 280.12 187.544C280.874 186.509 280.25 185.474 280.226 185.43C280.057 185.16 280.139 184.802 280.41 184.632C280.681 184.463 281.034 184.54 281.208 184.811C281.251 184.879 282.286 186.548 281.063 188.226C280.947 188.381 280.772 188.463 280.594 188.463L280.589 188.468Z" fill="#18292D"/>
<path d="M295.732 198.513C295.732 198.513 295.723 198.513 295.713 198.513C294.857 198.489 293.227 197.783 293.154 195.297C293.145 194.978 293.396 194.707 293.72 194.702C294.025 194.683 294.31 194.944 294.315 195.268C294.373 197.227 295.616 197.353 295.756 197.358C296.076 197.377 296.322 197.643 296.308 197.962C296.293 198.272 296.042 198.518 295.732 198.518V198.513Z" fill="#18292D"/>
<path d="M297.788 192.71C297.503 193.193 296.946 193.391 296.545 193.159C296.143 192.922 296.052 192.337 296.337 191.853C296.622 191.37 297.178 191.171 297.58 191.404C297.981 191.636 298.073 192.226 297.788 192.71Z" fill="#18292D"/>
<path d="M298.663 189.203C298.639 189.556 297.836 189.788 296.859 189.725C295.887 189.662 295.118 189.329 295.137 188.976C295.162 188.622 295.964 188.39 296.941 188.453C297.918 188.516 298.683 188.85 298.663 189.203Z" fill="#18292D"/>
<path d="M291.757 178.693C288.279 176.632 283.762 177.358 281.116 180.511C281.459 181.542 282.112 182.495 283.046 183.225C285.479 185.116 288.908 184.777 290.712 182.466C291.568 181.363 291.902 180.013 291.752 178.693H291.757Z" fill="#18292D"/>
<path d="M360.718 207.858C359.736 207.858 358.754 207.51 357.98 206.823L357.042 205.986C356.805 205.774 356.781 205.406 356.993 205.169C357.206 204.927 357.574 204.908 357.811 205.121L358.749 205.957C359.837 206.93 361.492 206.954 362.609 206.015C362.696 205.943 362.749 205.836 362.759 205.725C362.768 205.609 362.735 205.503 362.657 205.416L359.895 202.161C359.122 201.251 357.782 201.053 356.776 201.701L356.423 201.928C356.152 202.103 355.794 202.025 355.62 201.759C355.446 201.488 355.523 201.13 355.789 200.956L356.142 200.729C357.632 199.762 359.625 200.052 360.776 201.411L363.537 204.666C363.813 204.99 363.944 205.401 363.91 205.827C363.876 206.252 363.678 206.635 363.349 206.91C362.589 207.549 361.646 207.868 360.703 207.868L360.718 207.858Z" fill="#18292D"/>
<path d="M356.602 215.757C356.389 215.757 356.186 215.64 356.084 215.442C355.939 215.157 356.05 214.809 356.336 214.659C356.529 214.557 360.926 212.206 359.146 207.602C359.03 207.302 359.18 206.968 359.479 206.852C359.779 206.736 360.113 206.886 360.229 207.186C362.391 212.777 356.926 215.665 356.868 215.694C356.781 215.737 356.694 215.757 356.602 215.757Z" fill="#18292D"/>
<path d="M364.703 215.369C363.741 215.369 362.957 214.982 362.362 214.203L361.97 213.647C361.951 213.623 361.937 213.599 361.927 213.57C361.356 212.404 361.816 211.171 363.16 210.271L368.451 207.176C368.732 207.016 369.085 207.108 369.245 207.384C369.404 207.659 369.312 208.017 369.037 208.177L363.774 211.253C363.218 211.625 362.604 212.254 362.952 213.018L363.3 213.517C363.707 214.049 364.427 214.585 366.256 213.845C366.551 213.725 366.889 213.87 367.01 214.165C367.131 214.46 366.986 214.798 366.691 214.919C365.961 215.214 365.293 215.364 364.703 215.364V215.369Z" fill="#18292D"/>
<path d="M362.672 211.21C361.525 211.21 360.432 210.668 359.668 209.667C359.475 209.411 359.523 209.048 359.779 208.855C360.036 208.661 360.398 208.71 360.592 208.966C361.361 209.972 362.536 210.311 363.668 209.851C363.963 209.73 364.302 209.875 364.423 210.17C364.544 210.465 364.398 210.804 364.103 210.925C363.629 211.118 363.151 211.21 362.672 211.21Z" fill="#18292D"/>
<path d="M362.918 205.082C362.715 205.082 362.517 204.976 362.41 204.782C362.256 204.502 362.352 204.149 362.633 203.994L365.327 202.49C365.607 202.335 365.961 202.432 366.115 202.712C366.27 202.993 366.173 203.346 365.893 203.501L363.199 205.005C363.107 205.053 363.01 205.077 362.918 205.077V205.082Z" fill="#18292D"/>
<path d="M367.387 219.79C366.135 219.79 364.916 219.185 364.181 218.111C363.431 217.018 363.697 215.572 364.79 214.822L368.829 212.041C369.09 211.857 369.453 211.925 369.636 212.191C369.82 212.457 369.752 212.815 369.486 212.999L365.448 215.78C364.892 216.162 364.756 216.897 365.138 217.458C365.849 218.493 367.266 218.909 368.437 218.421L370.149 217.705C370.444 217.584 370.783 217.719 370.908 218.019C371.034 218.314 370.894 218.653 370.599 218.779L368.887 219.495C368.403 219.698 367.89 219.794 367.387 219.794V219.79Z" fill="#18292D"/>
<path d="M281.841 206.514C281.716 206.514 281.59 206.475 281.484 206.388C277.812 203.515 276.449 198.475 278.161 194.137C278.277 193.837 278.615 193.692 278.915 193.808C279.215 193.924 279.36 194.262 279.244 194.562C277.716 198.427 278.935 202.915 282.199 205.474C282.451 205.672 282.494 206.035 282.301 206.286C282.185 206.431 282.016 206.509 281.841 206.509V206.514Z" fill="#18292D"/>
<circle cx="122" cy="78" r="49.5" fill="white" stroke="#18292D"/>
<g clip-path="url(#clip0_935_9730)">
<path d="M129.183 53.8352H141.506C141.971 53.8352 142.344 54.2081 142.344 54.6726V106.221C142.344 106.686 141.971 107.059 141.506 107.059H101.749C101.284 107.059 100.912 106.686 100.912 106.221V54.6726C100.912 54.2081 101.284 53.8352 101.749 53.8352H114.066" fill="#18292D"/>
<path d="M129.183 53.8352H141.506C141.971 53.8352 142.344 54.2081 142.344 54.6726V106.221C142.344 106.686 141.971 107.059 141.506 107.059H101.749C101.284 107.059 100.912 106.686 100.912 106.221V54.6726C100.912 54.2081 101.284 53.8352 101.749 53.8352H114.066" stroke="#18292D" stroke-width="1.33312" stroke-linecap="round" stroke-linejoin="round"/>
<path d="M130.393 57.6138H138.162V103.282H105.086V57.6138H112.856" fill="white"/>
<path d="M130.393 57.6138H138.162V103.282H105.086V57.6138H112.856" stroke="#18292D" stroke-width="1.33312" stroke-linecap="round" stroke-linejoin="round"/>
<path d="M116.432 71.1277H132.857" stroke="#18292D" stroke-width="1.33312" stroke-linecap="round" stroke-linejoin="round"/>
<path d="M114.463 69.0007H110.215V73.2491H114.463V69.0007Z" stroke="#18292D" stroke-width="1.33312" stroke-linecap="round" stroke-linejoin="round"/>
<path d="M116.432 78.8425H132.857" stroke="#18292D" stroke-width="1.33312" stroke-linecap="round" stroke-linejoin="round"/>
<path d="M116.432 86.551H132.857" stroke="#18292D" stroke-width="1.33312" stroke-linecap="round" stroke-linejoin="round"/>
<path d="M114.463 84.4299H110.215V88.6783H114.463V84.4299Z" stroke="#18292D" stroke-width="1.33312" stroke-linecap="round" stroke-linejoin="round"/>
<path d="M116.432 94.2654H132.857" stroke="#18292D" stroke-width="1.33312" stroke-linecap="round" stroke-linejoin="round"/>
<path d="M114.463 78.7099V80.9166H110.215V76.6682H112.575" stroke="#18292D" stroke-width="1.33312" stroke-linecap="round" stroke-linejoin="round"/>
<path d="M111.303 78.5686L112.55 79.2288L115.063 75.6406" stroke="#FFC31F" stroke-width="1.33312" stroke-linecap="round" stroke-linejoin="round"/>
<path d="M114.463 94.1862V96.3929H110.215V92.1445H112.575" stroke="#18292D" stroke-width="1.33312" stroke-linecap="round" stroke-linejoin="round"/>
<path d="M111.303 94.0454L112.55 94.7056L115.063 91.1113" stroke="#FFC31F" stroke-width="1.33312" stroke-linecap="round" stroke-linejoin="round"/>
<path d="M119.078 51.9653H114.671L114.066 53.8358L112.856 57.6135L112.189 59.6857H131.053L130.393 57.6135L129.183 53.8358L128.584 51.9653H124.17" fill="white"/>
<path d="M119.078 51.9653H114.671L114.066 53.8358L112.856 57.6135L112.189 59.6857H131.053L130.393 57.6135L129.183 53.8358L128.584 51.9653H124.17" stroke="#18292D" stroke-width="1.33312" stroke-linecap="round" stroke-linejoin="round"/>
<path d="M121.628 54.0985C123.032 54.0985 124.171 53.1433 124.171 51.9651C124.171 50.7869 123.032 49.8318 121.628 49.8318C120.223 49.8318 119.085 50.7869 119.085 51.9651C119.085 53.1433 120.223 54.0985 121.628 54.0985Z" stroke="#18292D" stroke-width="1.33312" stroke-linecap="round" stroke-linejoin="round"/>
</g>
<circle cx="341" cy="78" r="49.5" fill="white" stroke="#18292D"/>
<path d="M332.517 85.3697C341.272 85.3697 348.37 78.2721 348.37 69.5168C348.37 60.7614 341.272 53.6638 332.517 53.6638C323.761 53.6638 316.664 60.7614 316.664 69.5168C316.664 78.2721 323.761 85.3697 332.517 85.3697Z" fill="white" stroke="#18292D" stroke-width="1.0461" stroke-linecap="round" stroke-linejoin="round"/>
<path d="M332.387 66.8787C334.599 66.8787 336.392 65.0232 336.392 62.7344C336.392 60.4456 334.599 58.5901 332.387 58.5901C330.175 58.5901 328.382 60.4456 328.382 62.7344C328.382 65.0232 330.175 66.8787 332.387 66.8787Z" fill="white" stroke="#18292D" stroke-width="1.0461" stroke-linecap="round" stroke-linejoin="round"/>
<path d="M340.057 77.8392C340.057 77.8392 339.683 69.7904 334.929 69.6417C332.982 69.5794 331.298 69.6033 329.883 69.6321C324.928 69.7281 324.976 77.8872 324.976 77.892C324.976 78.6211 328.353 79.2111 332.517 79.2111C336.68 79.2111 340.057 78.6211 340.057 77.892C340.057 77.8728 340.057 77.8584 340.047 77.8392H340.057Z" fill="white" stroke="#18292D" stroke-width="1.0461" stroke-linecap="round" stroke-linejoin="round"/>
<path d="M328.564 100.881H323.715C319.882 100.881 316.774 97.7827 316.774 93.9598V82.9514" stroke="#FFC31F" stroke-width="1.0461" stroke-linecap="round" stroke-linejoin="round"/>
<path d="M333.826 100.881L328.564 97.8496V103.908L333.826 100.881Z" fill="#FFC31F" stroke="#FFC31F" stroke-width="1.0461" stroke-linecap="round" stroke-linejoin="round"/>
<path d="M355.085 56.863H359.939C363.772 56.863 366.88 59.9617 366.88 63.7846V74.793" stroke="#FFC31F" stroke-width="1.0461" stroke-linecap="round" stroke-linejoin="round"/>
<path d="M349.823 56.8634L355.085 59.8949V53.8367L349.823 56.8634Z" fill="#FFC31F" stroke="#FFC31F" stroke-width="1.0461" stroke-linecap="round" stroke-linejoin="round"/>
<path d="M357.569 103.097C365.658 99.7466 369.499 90.4731 366.149 82.3842C362.798 74.2953 353.525 70.4541 345.436 73.8047C337.347 77.1552 333.506 86.4287 336.856 94.5176C340.207 102.606 349.48 106.448 357.569 103.097Z" fill="white" stroke="#18292D" stroke-width="1.0461" stroke-linecap="round" stroke-linejoin="round"/>
<path d="M351.367 85.5228C353.579 85.5228 355.372 83.6673 355.372 81.3784C355.372 79.0896 353.579 77.2341 351.367 77.2341C349.155 77.2341 347.362 79.0896 347.362 81.3784C347.362 83.6673 349.155 85.5228 351.367 85.5228Z" fill="#18292D" stroke="#18292D" stroke-width="1.0461" stroke-linecap="round" stroke-linejoin="round"/>
<path d="M359.037 96.483C359.037 96.483 358.663 88.4342 353.91 88.2855C351.962 88.2232 350.279 88.2471 348.864 88.2759C343.909 88.3719 343.957 96.531 343.957 96.5358C343.957 97.2649 347.333 97.8549 351.497 97.8549C355.66 97.8549 359.037 97.2649 359.037 96.5358C359.037 96.5166 359.037 96.5022 359.028 96.483H359.037Z" fill="#18292D" stroke="#18292D" stroke-width="1.0461" stroke-linecap="round" stroke-linejoin="round"/>
<defs>
<clipPath id="clip0_935_9730">
<rect width="42.6118" height="58.4071" fill="white" transform="translate(100.319 49.239)"/>
</clipPath>
</defs>
</svg>
