<svg width="460" height="460" viewBox="0 0 460 460" fill="none" xmlns="http://www.w3.org/2000/svg">
<rect width="460" height="460" fill="white"/>
<path d="M249.081 87.9227L246.781 87.2548C246.781 87.2548 245.091 93.0086 241.621 100.484L243.787 101.488C247.342 93.8243 249.011 88.1517 249.069 87.9198L249.081 87.9227ZM241.106 106.917L238.993 105.803C236.674 110.188 234.133 114.234 231.473 117.818L233.397 119.242C236.129 115.565 238.723 111.41 241.106 106.917ZM229.583 123.977L227.784 122.4C224.486 126.168 220.986 129.317 217.355 131.767L218.694 133.747C222.491 131.178 226.148 127.896 229.571 123.974L229.583 123.977ZM213.394 136.836L212.332 134.692C208.35 136.671 203.899 138.26 199.087 139.424L199.659 141.752C204.643 140.545 209.271 138.89 213.394 136.836ZM193.688 142.957L193.311 140.591C191.24 140.919 189.164 141.171 187.074 141.334C187.296 139.626 187.46 137.903 187.557 136.2L185.175 136.054C185.063 137.864 184.887 139.683 184.641 141.484C182.83 141.568 181.025 141.581 179.222 141.532L179.149 143.919C180.853 143.968 182.56 143.955 184.267 143.893C183.934 145.845 183.531 147.779 183.047 149.692L182.974 149.982L185.292 150.58L185.368 150.279C185.913 148.122 186.363 145.953 186.72 143.761C189.045 143.596 191.371 143.333 193.688 142.957ZM183.562 156.398L181.3 155.628C179.811 160.002 177.873 164.348 175.555 168.537L177.644 169.694C180.03 165.387 182.015 160.905 183.559 156.409L183.562 156.398ZM187.674 130.123C187.568 125.272 186.994 120.414 185.973 115.665L183.635 116.172C184.63 120.779 185.193 125.486 185.291 130.174L187.686 130.126L187.674 130.123ZM174.531 174.878L172.529 173.57C169.906 177.595 166.936 181.286 163.698 184.526L165.394 186.213C168.749 182.854 171.824 179.042 174.531 174.878ZM184.449 109.777C183.024 105.062 181.158 100.531 178.905 96.3094L176.792 97.4407C178.978 101.534 180.784 105.914 182.16 110.482L184.446 109.789L184.449 109.777ZM173.087 143.485L173.354 141.109C170.473 140.788 167.665 140.275 164.984 139.598C163.174 139.14 161.376 138.587 159.668 137.97L158.852 140.219C160.639 140.868 162.507 141.439 164.398 141.917C167.183 142.621 170.11 143.151 173.087 143.485ZM160.899 190.32L159.366 188.476C155.756 191.475 151.808 194.054 147.608 196.163L148.685 198.298C153.051 196.12 157.162 193.434 160.899 190.32ZM175.786 91.0671C173.305 87.3061 170.617 84.0726 167.768 81.4275C167.249 80.9386 166.664 80.4699 166.05 80.0185L164.637 81.9437C165.179 82.3398 165.68 82.7503 166.138 83.1867C168.839 85.6834 171.415 88.7774 173.789 92.3756L175.786 91.0671ZM143.097 200.772L142.229 198.541C137.903 200.223 133.32 201.458 128.624 202.208L129.002 204.573C133.862 203.803 138.606 202.523 143.097 200.772ZM154.269 135.692C149.979 133.57 146.143 130.873 142.862 127.687L141.195 129.4C144.643 132.752 148.691 135.589 153.199 137.827L154.261 135.677L154.269 135.692ZM160.566 77.0034C159.18 76.4308 157.721 75.951 156.213 75.5696C152.836 74.7159 149.29 74.3868 145.96 74.6182L146.134 77.0063C149.203 76.7828 152.494 77.0967 155.626 77.8888C157.019 78.2408 158.376 78.6827 159.649 79.2143L160.566 77.0034ZM122.948 205.275L122.774 202.887C117.421 203.261 113.959 202.842 113.921 202.845L113.631 205.214C113.773 205.238 117.342 205.672 122.948 205.275ZM138.989 123.377C136.203 119.798 133.932 115.695 132.257 111.188L130.012 112.014C131.776 116.754 134.165 121.072 137.099 124.848L138.989 123.377ZM140.559 78.064L139.827 75.7817C134.572 77.4756 130.666 80.8182 128.526 85.4713L130.703 86.4783C132.56 82.4569 135.972 79.5567 140.57 78.0669L140.559 78.064ZM130.475 105.593C129.083 100.405 128.657 95.7937 129.18 91.8671L126.804 91.55C126.236 95.7985 126.694 100.726 128.157 106.216L130.472 105.604L130.475 105.593Z" fill="black"/>
<ellipse cx="230" cy="314.805" rx="151.149" ry="71.9162" transform="rotate(-158.445 230 314.805)" fill="#F2F7F8"/>
<path d="M108.528 399.512V256.491C108.528 249.313 114.083 243.489 120.942 243.489H330.146C336.997 243.489 342.559 249.313 342.559 256.491V399.512H108.528Z" fill="#18292D"/>
<path d="M119.907 388.134V256.5C119.907 255.507 120.522 254.876 120.934 254.876H330.138C330.559 254.876 331.165 255.507 331.165 256.5V388.134H119.907Z" fill="white"/>
<path d="M238.547 395.439H359.896V398.132C359.896 402.584 354.342 409.729 347.483 409.729H103.605C96.7544 409.729 91.1914 402.584 91.1914 398.132V395.439H238.547Z" fill="white" stroke="#18292D" stroke-width="1.85151" stroke-linecap="round" stroke-linejoin="round"/>
<path d="M276.628 389.151L252.247 316.698C247.543 302.719 235.929 292.183 221.563 288.85L194.295 282.53L141.451 302.189L166.034 389.143C166.034 389.143 276.645 388.529 276.645 389.143L276.628 389.151Z" fill="white" stroke="#18292D" stroke-width="1.85151" stroke-linecap="round" stroke-linejoin="round"/>
<path d="M356.017 194.97H290.204C283.597 194.97 278.236 200.331 278.236 206.938V254.808C278.236 261.414 283.597 266.775 290.204 266.775H296.188V287.714L317.127 266.775H356.017C362.623 266.775 367.984 261.414 367.984 254.808V206.938C367.984 200.331 362.623 194.97 356.017 194.97Z" fill="#96D8E8"/>
<path d="M303.207 238.793C306.539 238.793 309.241 236.091 309.241 232.759C309.241 229.426 306.539 226.724 303.207 226.724C299.874 226.724 297.172 229.426 297.172 232.759C297.172 236.091 299.874 238.793 303.207 238.793Z" fill="white"/>
<path d="M323.11 238.793C326.443 238.793 329.145 236.091 329.145 232.759C329.145 229.426 326.443 226.724 323.11 226.724C319.778 226.724 317.076 229.426 317.076 232.759C317.076 236.091 319.778 238.793 323.11 238.793Z" fill="white"/>
<path d="M343.014 238.793C346.347 238.793 349.048 236.091 349.048 232.759C349.048 229.426 346.347 226.724 343.014 226.724C339.682 226.724 336.98 229.426 336.98 232.759C336.98 236.091 339.682 238.793 343.014 238.793Z" fill="white"/>
<path d="M226.293 226.067C235.826 226.067 243.554 218.339 243.554 208.806C243.554 199.273 235.826 191.545 226.293 191.545C216.76 191.545 209.032 199.273 209.032 208.806C209.032 218.339 216.76 226.067 226.293 226.067Z" fill="#18292D"/>
<path d="M182.799 286.552L194.556 249.505L224.946 259.15L214.359 292.519C218.744 297.198 221.572 302.517 218.609 307.163C211.355 318.516 190.534 307.163 181.385 298.957L172.237 290.752L182.799 286.552Z" fill="white" stroke="#18292D" stroke-width="1.85151" stroke-linecap="round" stroke-linejoin="round"/>
<path d="M174.467 237.16C173.179 219.697 184.919 203.522 202.526 199.743L208.728 198.413C222.497 195.459 236.055 204.228 239.009 217.997L245.186 246.796C248.14 260.565 239.371 274.123 225.602 277.085L220.679 278.146C204.352 281.647 188.235 273.77 180.568 259.858C177.564 260.834 174.181 260.615 171.201 258.957C165.521 255.793 163.476 248.623 166.64 242.942C168.357 239.853 171.26 237.859 174.458 237.169L174.467 237.16Z" fill="white" stroke="#18292D" stroke-width="1.85151" stroke-linecap="round" stroke-linejoin="round"/>
<path d="M245.693 249.818C251.759 247.956 255.167 241.53 253.306 235.465C251.444 229.4 245.018 225.992 238.953 227.853C232.888 229.714 229.48 236.14 231.341 242.205C233.202 248.271 239.628 251.679 245.693 249.818Z" stroke="#FFC31F" stroke-width="1.85151" stroke-linecap="round" stroke-linejoin="round"/>
<path d="M204.823 237.791C202.803 243.808 206.044 250.314 212.061 252.334C218.078 254.354 224.584 251.113 226.604 245.096C228.624 239.079 225.383 232.573 219.366 230.553C213.349 228.533 206.843 231.774 204.823 237.791Z" stroke="#FFC31F" stroke-width="1.85151" stroke-linecap="round" stroke-linejoin="round"/>
<path d="M187.436 242.344L204.335 239.928" stroke="#FFC31F" stroke-width="1.85151" stroke-linecap="round" stroke-linejoin="round"/>
<path d="M231.207 237.185L227.151 238.043" stroke="#FFC31F" stroke-width="1.85151" stroke-linecap="round" stroke-linejoin="round"/>
<path d="M213.938 241.368C214.199 243.27 215.385 244.675 216.597 244.507C217.809 244.338 218.575 242.672 218.314 240.77C218.053 238.868 216.866 237.463 215.655 237.631C214.443 237.799 213.677 239.466 213.938 241.368Z" fill="#18292D"/>
<path d="M233.926 238.91C234.187 240.812 235.374 242.218 236.585 242.049C237.797 241.881 238.563 240.215 238.302 238.313C238.041 236.411 236.855 235.005 235.643 235.174C234.431 235.342 233.665 237.008 233.926 238.91Z" fill="#18292D"/>
<path d="M233.985 256.601C233.985 256.601 228.927 259.151 225.611 254.791" stroke="#18292D" stroke-width="1.85151" stroke-linecap="round" stroke-linejoin="round"/>
<path d="M219.291 225.091C219.291 225.091 212.112 223.677 207.913 228.263" stroke="#18292D" stroke-width="1.85151" stroke-linecap="round" stroke-linejoin="round"/>
<path d="M233.06 225.714C233.06 225.714 237.958 222.028 243.832 224.334" stroke="#18292D" stroke-width="1.85151" stroke-linecap="round" stroke-linejoin="round"/>
<path d="M184.179 252.09C184.179 252.09 183.674 241.183 175.157 242.058" stroke="#18292D" stroke-width="1.85151" stroke-linecap="round" stroke-linejoin="round"/>
<path d="M188.783 205.55C187.992 201.14 192.924 198.11 192.924 198.11" stroke="#18292D" stroke-width="1.85151" stroke-linecap="round" stroke-linejoin="round"/>
<path d="M185.164 201.012C185.164 201.012 187.427 200.827 188.168 203.403" stroke="#18292D" stroke-width="1.85151" stroke-linecap="round" stroke-linejoin="round"/>
<path d="M197.703 219.94C197.703 211.71 201.406 204.236 207.441 198.69L192.14 201.972C178.633 204.868 170.04 218.165 172.935 231.672L174.13 237.235C176.916 236.545 179.962 236.857 182.672 238.363C187.756 241.191 189.919 247.233 188.05 252.544C191.114 251.997 193.192 249.119 192.738 246.03L191.543 237.993L193.226 236.234C195.827 233.524 197.358 229.955 197.518 226.202L197.737 221.169C197.72 220.757 197.703 220.336 197.703 219.915V219.94Z" fill="#18292D"/>
<path d="M212.533 214.479C218.701 214.479 223.701 209.479 223.701 203.311C223.701 197.143 218.701 192.143 212.533 192.143C206.365 192.143 201.365 197.143 201.365 203.311C201.365 209.479 206.365 214.479 212.533 214.479Z" fill="#18292D"/>
<path d="M200.599 224.56C207.138 224.56 212.44 219.259 212.44 212.719C212.44 206.179 207.138 200.878 200.599 200.878C194.059 200.878 188.757 206.179 188.757 212.719C188.757 219.259 194.059 224.56 200.599 224.56Z" fill="#18292D"/>
<path d="M251.432 387.923L251.339 344.387L250.388 326.427C249.959 318.331 252.719 310.387 258.072 304.302L273.406 286.872C274.761 285.332 276.915 284.76 278.859 285.442C281.847 286.477 283.152 289.978 281.586 292.721L273.532 306.801L295.203 312.718L320.527 302.736C322.866 301.811 325.534 302.72 326.822 304.883C327.622 306.212 327.15 307.938 325.787 308.687L280.374 333.497L297.72 387.94" fill="white"/>
<path d="M251.432 387.923L251.339 344.387L250.388 326.427C249.959 318.331 252.719 310.387 258.072 304.302L273.406 286.872C274.761 285.332 276.915 284.76 278.859 285.442C281.847 286.477 283.152 289.978 281.586 292.721L273.532 306.801L295.203 312.718L320.527 302.736C322.866 301.811 325.534 302.72 326.822 304.883C327.622 306.212 327.15 307.938 325.787 308.687L280.374 333.497L297.72 387.94" stroke="#18292D" stroke-width="1.85151" stroke-linecap="round" stroke-linejoin="round"/>
<path d="M306.758 313.315L316.52 296.181C317.421 294.598 316.15 292.654 314.341 292.848C312.026 293.1 309.931 294.304 308.551 296.172L296.583 311.472" fill="white"/>
<path d="M306.758 313.315L316.52 296.181C317.421 294.598 316.15 292.654 314.341 292.848C312.026 293.1 309.931 294.304 308.551 296.172L296.583 311.472" stroke="#18292D" stroke-width="1.85151" stroke-linecap="round" stroke-linejoin="round"/>
<path d="M272.581 323.01L287.486 315.108L295.632 298.36C296.743 296.071 298.982 294.539 301.515 294.329C303.156 294.194 304.402 295.768 303.905 297.333L296.903 319.097" fill="white"/>
<path d="M272.581 323.01L287.486 315.108L295.632 298.36C296.743 296.071 298.982 294.539 301.515 294.329C303.156 294.194 304.402 295.768 303.905 297.333L296.903 319.097" stroke="#18292D" stroke-width="1.85151" stroke-linecap="round" stroke-linejoin="round"/>
<path d="M166.11 336.022L140.77 246.636C141.132 245.853 141.468 245.054 141.754 244.229C143.656 238.666 144.338 232.758 143.766 226.909L142.697 215.968C142.52 214.184 140.433 213.208 139.019 214.31C136.856 215.993 135.493 218.493 135.241 221.22L134.264 231.908L129.938 225.015L116.49 203.605C115.227 201.602 112.543 201.047 110.582 202.435C108.915 203.622 108.452 205.911 109.336 207.763L109.984 209.118L106.189 203.916C104.968 202.242 102.696 201.594 100.861 202.553C98.7321 203.664 98.0167 206.264 99.1613 208.276L109.303 226.143L99.6915 212.997C98.2944 211.087 95.5677 210.725 93.7161 212.248C92.1339 213.553 91.831 215.867 92.8409 217.643L100.668 231.437L90.8631 224.317C89.2389 223.138 87.1433 223.239 86.1923 224.552C85.317 225.756 85.6957 227.591 87.0844 228.802L103.765 243.463C103.74 243.716 106.113 247.713 108.873 252.291C110.472 254.934 112.719 256.929 115.286 258.241L130.932 356.557C133.751 374.272 155.498 381.274 168.122 368.533" fill="white"/>
<path d="M166.11 336.022L140.77 246.636C141.132 245.853 141.468 245.054 141.754 244.229C143.656 238.666 144.338 232.758 143.766 226.909L142.697 215.968C142.52 214.184 140.433 213.208 139.019 214.31C136.856 215.993 135.493 218.493 135.241 221.22L134.264 231.908L129.938 225.015L116.49 203.605C115.227 201.602 112.543 201.047 110.582 202.435C108.915 203.622 108.452 205.911 109.336 207.763L109.984 209.118L106.189 203.916C104.968 202.242 102.696 201.594 100.861 202.553C98.7321 203.664 98.0167 206.264 99.1613 208.276L109.303 226.143L99.6915 212.997C98.2944 211.087 95.5677 210.725 93.7161 212.248C92.1339 213.553 91.831 215.867 92.8409 217.643L100.668 231.437L90.8631 224.317C89.2389 223.138 87.1433 223.239 86.1923 224.552C85.317 225.756 85.6957 227.591 87.0844 228.802L103.765 243.463C103.74 243.716 106.113 247.713 108.873 252.291C110.472 254.934 112.719 256.929 115.286 258.241L130.932 356.557C133.751 374.272 155.498 381.274 168.122 368.533" stroke="#18292D" stroke-width="1.85151" stroke-linecap="round" stroke-linejoin="round"/>
<path d="M118.737 222.743L109.32 207.763" stroke="#18292D" stroke-width="1.85151" stroke-linecap="round" stroke-linejoin="round"/>
<path d="M126.016 249.666C126.016 249.666 121.228 240.366 126.362 231.184" stroke="#18292D" stroke-width="1.85151" stroke-linecap="round" stroke-linejoin="round"/>
<path d="M124.165 223.627C124.165 223.627 109.05 228.003 105.288 237.084" stroke="#18292D" stroke-width="1.85151" stroke-linecap="round" stroke-linejoin="round"/>
<path d="M127.405 323.651L158.772 312.651" stroke="#18292D" stroke-width="1.85151" stroke-linecap="round" stroke-linejoin="round"/>
<path d="M293 121.597C265.608 121.597 243.403 99.3916 243.403 72.0001C243.403 44.6086 265.608 22.4033 293 22.4033C320.391 22.4033 342.597 44.6086 342.597 72.0001C342.597 99.3916 320.391 121.597 293 121.597Z" fill="white"/>
<g clip-path="url(#clip0_935_9994)">
<path d="M308.591 47.0847H277.307C275.625 47.0847 274.261 48.4476 274.261 50.1288V94.1446C274.261 95.8258 275.625 97.1887 277.307 97.1887H308.591C310.273 97.1887 311.637 95.8258 311.637 94.1446V50.1288C311.637 48.4476 310.273 47.0847 308.591 47.0847Z" fill="#18292D"/>
<path d="M289.025 94.5522C289.187 94.8319 288.973 95.1828 288.646 95.1828H281.226C280.073 95.1828 279.138 94.2487 279.138 93.0965C279.138 91.9443 280.073 91.0103 281.226 91.0103H288.651C288.973 91.0103 289.191 91.3611 289.03 91.6409C288.541 92.4801 288.489 93.6276 289.03 94.5522H289.025Z" fill="white"/>
<path d="M296.877 94.5522C296.716 94.8319 296.929 95.1828 297.257 95.1828H304.682C305.835 95.1828 306.769 94.2487 306.769 93.0965C306.769 91.9443 305.835 91.0103 304.682 91.0103H297.257C296.934 91.0103 296.716 91.3611 296.877 91.6409C297.366 92.4801 297.418 93.6276 296.877 94.5522Z" fill="white"/>
<path d="M295.036 93.0965C295.036 94.2487 294.102 95.1828 292.949 95.1828C291.796 95.1828 290.861 94.2487 290.861 93.0965C290.861 91.9443 291.796 91.0103 292.949 91.0103C294.102 91.0103 295.036 91.9443 295.036 93.0965Z" fill="#FFC31F" stroke="#FFC31F" stroke-width="1.04033" stroke-linecap="round" stroke-linejoin="round"/>
<path d="M308.392 89.0051V50.333H277.507V89.0051H308.392Z" fill="white"/>
<path d="M281.852 57.1094H304.046" stroke="#18292D" stroke-width="1.04033" stroke-linecap="round" stroke-linejoin="round"/>
<path d="M281.852 63.6904H304.046" stroke="#18292D" stroke-width="1.04033" stroke-linecap="round" stroke-linejoin="round"/>
<path d="M281.852 70.2715H304.046" stroke="#18292D" stroke-width="1.04033" stroke-linecap="round" stroke-linejoin="round"/>
</g>
<path d="M293 22.8065C265.871 22.8065 243.806 44.871 243.806 72C243.806 99.129 265.871 121.194 293 121.194C320.129 121.194 342.194 99.129 342.194 72C342.194 44.871 320.129 22.8065 293 22.8065ZM293 22C320.613 22 343 44.3871 343 72C343 99.6129 320.613 122 293 122C265.387 122 243 99.6129 243 72C243 44.3871 265.387 22 293 22Z" fill="black"/>
<defs>
<clipPath id="clip0_935_9994">
<rect width="38.2915" height="51.0191" fill="white" transform="translate(273.806 46.6299)"/>
</clipPath>
</defs>
</svg>
