<svg width="460" height="460" viewBox="0 0 460 460" fill="none" xmlns="http://www.w3.org/2000/svg">
<rect width="460" height="460" fill="white"/>
<path d="M207.023 161.371C245.774 158.328 282.981 170.905 309.301 188.031C335.882 205.496 351.567 227.513 353.281 251.042C355.007 274.799 343.09 297.361 325.435 319.65C307.542 341.6 283.909 363.278 256.824 377.328C204.473 406.706 144.489 382.926 115.896 311.926C87.2731 241.376 127.342 165.424 207.023 161.371Z" fill="#F2F7F8"/>
<path d="M280.192 284.127L273.67 295.711L273.594 295.559C266.539 281.895 252.374 273.381 237 273.566L201.986 273.991L156.835 286.457C137.455 291.814 121.842 306.185 114.928 325.075L92.1622 387.2C87.8289 399.035 96.5826 411.578 109.19 411.578H156.367L160.243 374.995L167.232 391.305H226.614L238.928 359.448L248.574 376.726C253.332 385.251 262.412 390.466 272.178 390.27C284.166 390.031 294.487 381.745 297.329 370.096L314.248 303.692L280.213 284.138L280.192 284.127Z" fill="#96D8E8"/>
<path d="M308.642 303.921L317.417 291.052L378.388 290.29C380.217 290.268 381.654 288.733 381.567 286.904C381.414 283.942 379.139 281.525 376.188 281.199L344.309 277.606L325.017 259.478L341.174 249.276C344.32 247.284 344.897 242.929 342.361 240.196C340.716 238.421 338.158 237.822 335.893 238.682L310.307 248.361C301.369 251.748 294.117 258.487 290.089 267.154L281.161 286.381L308.642 303.921Z" fill="white"/>
<path d="M308.641 305.009C308.435 305.009 308.217 304.944 308.032 304.824C307.531 304.487 307.411 303.812 307.749 303.311L316.524 290.442C316.72 290.148 317.058 289.974 317.406 289.963L378.377 289.201C378.965 289.201 379.509 288.95 379.901 288.525C380.304 288.101 380.511 287.546 380.478 286.958C380.347 284.519 378.496 282.548 376.069 282.276L344.19 278.683C343.961 278.661 343.732 278.552 343.569 278.4L324.276 260.272C324.026 260.043 323.906 259.706 323.939 259.379C323.971 259.042 324.156 258.737 324.439 258.563L340.597 248.361C341.827 247.588 342.633 246.314 342.818 244.877C343.003 243.44 342.546 242.003 341.555 240.936C340.205 239.477 338.125 238.987 336.274 239.694L310.688 249.374C301.967 252.673 294.999 259.151 291.069 267.61L282.141 286.838C281.891 287.382 281.237 287.622 280.693 287.371C280.149 287.121 279.909 286.468 280.159 285.923L289.087 266.696C293.257 257.713 300.65 250.843 309.904 247.338L335.49 237.658C338.18 236.635 341.185 237.343 343.144 239.455C344.571 240.99 345.235 243.07 344.963 245.16C344.69 247.24 343.515 249.08 341.74 250.201L326.769 259.651L344.777 276.571L376.297 280.12C379.792 280.512 382.46 283.343 382.634 286.86C382.699 288.046 382.285 289.168 381.469 290.028C380.663 290.888 379.563 291.378 378.377 291.389L317.972 292.14L309.523 304.541C309.316 304.846 308.968 305.02 308.62 305.02L308.641 305.009Z" fill="#18292D"/>
<path d="M356.002 284.627L375.633 272.183C377.451 271.029 377.19 268.307 375.197 267.512C372.65 266.499 369.797 266.587 367.336 267.784L346.432 277.104L356.002 284.627Z" fill="white"/>
<path d="M356.013 285.717C355.654 285.717 355.295 285.542 355.088 285.216C354.761 284.704 354.914 284.04 355.425 283.713L375.056 271.269C375.557 270.953 375.818 270.409 375.763 269.821C375.709 269.233 375.35 268.754 374.794 268.525C372.541 267.621 369.993 267.709 367.805 268.765L346.868 278.095C346.312 278.335 345.67 278.095 345.43 277.54C345.191 276.996 345.43 276.342 345.986 276.103L366.89 266.783C369.601 265.477 372.78 265.379 375.6 266.5C376.907 267.023 377.799 268.22 377.919 269.614C378.05 271.007 377.397 272.347 376.21 273.098L356.579 285.542C356.394 285.651 356.198 285.717 356.002 285.717H356.013Z" fill="#18292D"/>
<path d="M315.076 275.852H334.956L352.692 262.918C355.11 261.154 358.289 260.795 361.043 261.97C362.829 262.733 363.253 265.062 361.871 266.413L342.567 285.205L315.087 275.852H315.076Z" fill="white"/>
<path d="M342.556 286.304C342.273 286.304 341.99 286.196 341.772 285.978C341.347 285.542 341.358 284.856 341.794 284.443L361.098 265.651C361.49 265.27 361.664 264.725 361.566 264.181C361.468 263.636 361.119 263.201 360.608 262.983C358.223 261.96 355.425 262.275 353.335 263.811L335.599 276.745C335.414 276.876 335.185 276.952 334.956 276.952H315.076C314.477 276.952 313.987 276.462 313.987 275.863C313.987 275.264 314.477 274.774 315.076 274.774H334.597L352.039 262.047C354.761 260.065 358.365 259.652 361.457 260.98C362.633 261.481 363.471 262.526 363.7 263.789C363.928 265.041 363.526 266.326 362.611 267.208L343.307 286C343.1 286.206 342.817 286.304 342.545 286.304H342.556Z" fill="#18292D"/>
<path d="M217.323 239.104C232.421 230.869 237.984 211.954 229.749 196.856C221.514 181.759 202.6 176.196 187.502 184.43C172.405 192.665 166.841 211.58 175.076 226.678C183.311 241.775 202.226 247.339 217.323 239.104Z" fill="#18292D"/>
<path d="M239.119 209.278C243.789 200.11 240.142 188.893 230.974 184.223C221.806 179.554 210.589 183.201 205.92 192.369C201.25 201.537 204.897 212.754 214.065 217.423C223.233 222.092 234.45 218.445 239.119 209.278Z" fill="#18292D"/>
<path d="M200.764 228.908C202.246 214.118 191.457 200.927 176.667 199.446C161.876 197.964 148.685 208.753 147.204 223.544C145.722 238.334 156.511 251.525 171.302 253.006C186.092 254.488 199.283 243.699 200.764 228.908Z" fill="#18292D"/>
<path d="M178.926 250.615C178.403 250.615 177.946 250.234 177.859 249.711C177.761 249.123 178.153 248.557 178.752 248.459C180.777 248.121 182.671 247.239 184.239 245.922C184.968 245.301 185.633 244.583 186.188 243.799C186.536 243.309 187.211 243.189 187.701 243.538C188.191 243.886 188.311 244.561 187.962 245.051C187.298 245.987 186.514 246.837 185.643 247.566C183.782 249.134 181.528 250.179 179.111 250.593C179.045 250.593 178.991 250.604 178.926 250.604V250.615Z" fill="#18292D"/>
<path d="M229.967 262.526C245.112 256.712 251.35 236.265 243.903 216.852C236.456 197.439 218.143 186.421 202.988 192.224C190.347 197.08 183.912 212.127 186.46 228.262C183.695 224.789 179.176 222.895 174.484 223.711C167.962 224.854 163.346 231.104 164.195 237.669C165.11 244.779 171.74 249.635 178.741 248.459C180.243 248.208 181.626 247.686 182.867 246.967L183.368 280.947C179.372 281.808 175.453 282.755 171.664 283.8C176.999 299.315 194.256 308.983 212.59 305.891C228.889 303.136 241.051 291.138 243.522 276.984C237.186 276.342 230.446 276.081 223.402 276.211L223.239 263.995C225.514 263.832 227.768 263.353 229.956 262.515L229.967 262.526Z" fill="white"/>
<path d="M205.916 307.546C189.988 307.546 175.507 298.27 170.651 284.159C170.553 283.876 170.575 283.561 170.716 283.299C170.858 283.038 171.098 282.842 171.391 282.755C174.81 281.808 178.479 280.904 182.29 280.076L181.822 248.698C180.885 249.079 179.927 249.362 178.937 249.526C175.246 250.157 171.555 249.264 168.539 247.033C165.534 244.801 163.607 241.523 163.128 237.8C162.213 230.668 167.222 223.875 174.309 222.633C178.142 221.969 182.007 222.971 185.012 225.29C183.607 209.568 190.575 195.817 202.606 191.201C210.249 188.272 218.883 189.306 226.897 194.14C234.834 198.92 241.236 206.835 244.916 216.449C248.607 226.063 249.151 236.232 246.44 245.095C243.707 254.044 237.991 260.598 230.348 263.527C228.432 264.257 226.418 264.747 224.349 264.986L224.48 275.101C231.132 275.014 237.567 275.286 243.631 275.896C243.936 275.928 244.208 276.081 244.393 276.32C244.578 276.56 244.654 276.865 244.6 277.169C241.976 292.216 229.183 304.193 212.775 306.958C210.478 307.35 208.17 307.535 205.905 307.535L205.916 307.546ZM173.112 284.54C178.752 299.01 195.41 307.688 212.427 304.813C227.506 302.265 239.341 291.541 242.248 277.953C236.282 277.398 229.967 277.18 223.445 277.3C223.162 277.3 222.879 277.191 222.672 276.995C222.465 276.788 222.346 276.516 222.346 276.222L222.182 264.006C222.182 263.429 222.618 262.95 223.195 262.907C225.416 262.743 227.572 262.275 229.597 261.502C236.598 258.813 241.856 252.759 244.393 244.463C246.952 236.069 246.429 226.4 242.912 217.233C239.396 208.066 233.32 200.531 225.797 196.002C218.361 191.527 210.413 190.547 203.401 193.237C191.544 197.788 185.034 212.116 187.56 228.088C187.636 228.578 187.375 229.057 186.928 229.253C186.471 229.46 185.948 229.318 185.643 228.937C183.019 225.649 178.839 224.06 174.701 224.778C168.746 225.813 164.532 231.539 165.305 237.517C165.708 240.641 167.32 243.396 169.845 245.269C172.371 247.141 175.474 247.893 178.577 247.359C179.884 247.141 181.158 246.684 182.344 245.998C182.682 245.802 183.085 245.813 183.422 245.998C183.76 246.194 183.967 246.543 183.967 246.924L184.468 280.904C184.468 281.427 184.119 281.873 183.607 281.982C179.949 282.766 176.422 283.615 173.101 284.508L173.112 284.54Z" fill="#18292D"/>
<path d="M182.529 240.097C181.963 240.097 181.484 239.662 181.441 239.096C181.201 235.993 180.189 233.685 178.436 232.236C175.932 230.168 172.741 230.505 172.709 230.516C172.121 230.582 171.576 230.157 171.5 229.558C171.435 228.959 171.86 228.426 172.458 228.35C172.622 228.328 176.607 227.903 179.818 230.549C182.05 232.389 183.324 235.209 183.607 238.921C183.651 239.52 183.204 240.043 182.606 240.086C182.573 240.086 182.551 240.086 182.519 240.086L182.529 240.097Z" fill="#18292D"/>
<path d="M185.393 227.849C185.687 227.882 185.981 227.925 186.275 227.947C202.857 229.308 217.751 213.292 219.558 192.17C219.58 191.931 219.591 191.691 219.602 191.463C213.908 189.633 207.985 189.568 202.465 191.669C189.639 196.569 183.03 211.616 185.393 227.838V227.849Z" fill="#18292D"/>
<path d="M221.474 266.391C212.666 266.391 203.673 261.894 196.661 253.935C196.259 253.489 196.302 252.792 196.759 252.4C197.217 251.997 197.903 252.041 198.295 252.498C205.154 260.272 213.94 264.54 222.432 264.191C223.02 264.159 223.543 264.638 223.565 265.237C223.587 265.835 223.118 266.347 222.52 266.369C222.171 266.38 221.823 266.391 221.474 266.391Z" fill="#18292D"/>
<path d="M235.378 212.541C235.008 213.521 236.924 215.143 239.646 216.155C242.368 217.168 244.872 217.19 245.232 216.21C245.602 215.23 243.686 213.608 240.964 212.595C238.242 211.583 235.738 211.561 235.378 212.541Z" fill="#18292D"/>
<path d="M210.794 220.924C211.273 222.133 214.376 222.035 217.718 220.707C221.061 219.378 223.391 217.321 222.912 216.112C222.433 214.904 219.33 215.002 215.987 216.33C212.645 217.658 210.315 219.716 210.794 220.924Z" fill="#18292D"/>
<path d="M233.255 231.648C233.016 231.648 232.776 231.572 232.58 231.42C232.112 231.05 232.025 230.364 232.395 229.895C233.092 229.003 233.266 227.849 232.863 226.792L229.782 218.855C229.564 218.289 229.836 217.669 230.403 217.451C230.969 217.233 231.589 217.505 231.807 218.071L234.888 226.009C235.574 227.761 235.269 229.776 234.104 231.246C233.887 231.518 233.571 231.659 233.244 231.659L233.255 231.648Z" fill="#18292D"/>
<path d="M217.947 227.958C217.795 227.958 217.653 227.925 217.501 227.86C216.956 227.62 216.706 226.978 216.945 226.422C218.829 222.165 222.041 222.089 223.478 222.655C224.033 222.873 224.316 223.505 224.099 224.06C223.881 224.615 223.26 224.898 222.705 224.68C222.465 224.593 220.408 223.995 218.938 227.304C218.753 227.707 218.361 227.947 217.947 227.947V227.958Z" fill="#18292D"/>
<path d="M242.619 222.22C242.259 222.22 241.922 222.045 241.704 221.73C241.562 221.512 240.256 219.824 237.12 221.621C236.598 221.915 235.934 221.74 235.629 221.218C235.335 220.695 235.509 220.031 236.032 219.726C240.071 217.407 242.706 219.236 243.533 220.532C243.86 221.044 243.707 221.708 243.206 222.034C243.021 222.154 242.825 222.209 242.619 222.209V222.22Z" fill="#18292D"/>
<path d="M229.695 238.758C228.192 238.758 227.06 238.072 226.494 237.451C226.091 237.005 226.113 236.319 226.559 235.916C226.994 235.513 227.68 235.535 228.083 235.971C228.257 236.156 229.847 237.604 232.623 235.285C233.081 234.904 233.767 234.958 234.159 235.426C234.54 235.884 234.485 236.57 234.017 236.962C232.406 238.312 230.925 238.769 229.695 238.769V238.758Z" fill="#18292D"/>
<path d="M256.293 338.706C256.163 338.706 256.043 338.684 255.912 338.63C255.411 338.423 255.161 337.846 255.379 337.334L272.755 295.341C272.962 294.84 273.539 294.59 274.051 294.807C274.552 295.014 274.791 295.591 274.585 296.103L257.208 338.096C257.045 338.478 256.685 338.706 256.293 338.706Z" fill="#18292D"/>
<path d="M159.502 376.215H129.812C129.213 376.215 128.723 375.725 128.723 375.126C128.723 374.527 129.213 374.037 129.812 374.037H159.502C160.101 374.037 160.591 374.527 160.591 375.126C160.591 375.725 160.101 376.215 159.502 376.215Z" fill="#18292D"/>
<path d="M198.012 363.182L215.824 326.926C216.543 325.467 217.958 324.487 219.569 324.324L261.03 320.187C264.699 319.817 267.333 323.627 265.711 326.937L232.852 393.657C232.134 395.126 230.697 396.117 229.063 396.259L187.745 399.993C184.087 400.32 181.484 396.52 183.118 393.232L198.023 363.193L198.012 363.182Z" fill="#18292D"/>
<path d="M155.093 411.61L209.008 411.251L223.445 407.854C224.774 407.538 225.242 405.905 224.295 404.936C222.563 403.172 220.244 402.094 217.784 401.909L210.108 401.343L222.041 389.955C223.848 388.223 224.665 385.697 224.186 383.237L223.75 380.983L226.494 377.434C227.746 375.812 228.399 373.819 228.367 371.783L228.323 369.627L231.644 365.555C232.885 364.042 232.732 361.821 231.306 360.482C229.967 359.23 227.909 359.175 226.494 360.34L210.685 373.503L192.002 375.594L202.868 363.215C205.263 360.482 206.047 356.693 204.925 353.241C204.25 351.173 201.692 350.454 200.037 351.859L172.339 375.507L155.104 375.006V411.599L155.093 411.61Z" fill="white"/>
<path d="M155.093 412.699C154.494 412.699 154.004 412.22 154.004 411.621C154.004 411.022 154.483 410.532 155.082 410.521L208.878 410.162L223.195 406.798C223.533 406.722 223.642 406.449 223.674 406.341C223.707 406.232 223.751 405.949 223.511 405.698C221.965 404.119 219.896 403.161 217.697 402.998L210.021 402.432C209.597 402.399 209.226 402.116 209.074 401.713C208.932 401.31 209.041 400.853 209.346 400.559L221.279 389.171C222.825 387.69 223.511 385.545 223.108 383.444L222.673 381.19C222.607 380.885 222.684 380.57 222.88 380.319L225.623 376.77C226.712 375.354 227.3 373.591 227.267 371.805L227.224 369.649C227.224 369.388 227.311 369.137 227.474 368.942L230.795 364.87C231.666 363.803 231.557 362.224 230.555 361.288C229.619 360.406 228.171 360.373 227.191 361.19L211.382 374.353C211.219 374.483 211.023 374.57 210.805 374.603L192.122 376.694C191.676 376.748 191.24 376.508 191.033 376.116C190.826 375.714 190.881 375.235 191.186 374.897L202.052 362.518C204.185 360.09 204.882 356.671 203.892 353.601C203.685 352.969 203.195 352.501 202.552 352.316C201.91 352.131 201.246 352.283 200.745 352.708L173.036 375.975C172.84 376.138 172.59 376.225 172.339 376.225H155.104C154.505 376.225 154.015 375.735 154.015 375.137C154.015 374.538 154.505 374.048 155.104 374.048H171.947L199.34 351.042C200.386 350.149 201.812 349.834 203.151 350.215C204.49 350.596 205.536 351.598 205.96 352.926C207.19 356.726 206.319 360.95 203.685 363.955L194.681 374.222L210.25 372.48L225.808 359.524C227.637 357.999 230.327 358.076 232.058 359.698C233.898 361.418 234.094 364.303 232.493 366.252L229.423 370.008L229.456 371.761C229.499 374.048 228.759 376.291 227.365 378.109L224.916 381.277L225.264 383.041C225.819 385.872 224.894 388.757 222.803 390.76L212.645 400.45L217.882 400.842C220.615 401.049 223.174 402.236 225.09 404.196C225.819 404.936 226.07 405.97 225.787 406.972C225.493 407.963 224.72 408.703 223.718 408.943L209.281 412.34C209.205 412.361 209.118 412.372 209.041 412.372L155.126 412.732L155.093 412.699Z" fill="#18292D"/>
<path d="M206.297 388.506C205.982 388.506 205.677 388.376 205.459 388.114C205.078 387.657 205.132 386.96 205.601 386.579L226.951 368.789C227.408 368.408 228.105 368.462 228.486 368.93C228.867 369.388 228.813 370.085 228.345 370.466L206.994 388.256C206.787 388.43 206.548 388.506 206.297 388.506Z" fill="#18292D"/>
<path d="M208.159 394.789C207.843 394.789 207.528 394.647 207.31 394.386C206.929 393.918 206.994 393.232 207.462 392.851L223.053 380.134C223.522 379.753 224.208 379.818 224.589 380.286C224.97 380.755 224.904 381.441 224.436 381.822L208.845 394.538C208.638 394.702 208.399 394.789 208.159 394.789Z" fill="#18292D"/>
<path d="M145.261 376.704C145.109 376.704 144.945 376.672 144.804 376.606C144.26 376.356 144.02 375.703 144.281 375.158L157.314 347.155C157.564 346.611 158.217 346.371 158.762 346.633C159.306 346.883 159.546 347.536 159.284 348.081L146.252 376.084C146.067 376.476 145.675 376.715 145.261 376.715V376.704Z" fill="#18292D"/>
<path d="M102.5 100.5C140.333 80.3333 244.6 52.1 359 100.5" stroke="black" stroke-width="1.5" stroke-linecap="round" stroke-dasharray="5 5"/>
<path d="M77.0001 175.597C104.392 175.597 126.597 153.392 126.597 126C126.597 98.6085 104.392 76.4032 77.0001 76.4032C49.6086 76.4032 27.4033 98.6085 27.4033 126C27.4033 153.392 49.6086 175.597 77.0001 175.597Z" fill="white"/>
<path d="M77 76.8065C104.129 76.8065 126.194 98.871 126.194 126C126.194 153.129 104.129 175.194 77 175.194C49.871 175.194 27.8065 153.129 27.8065 126C27.8065 98.871 49.871 76.8065 77 76.8065ZM77 76C49.3871 76 27 98.3871 27 126C27 153.613 49.3871 176 77 176C104.613 176 127 153.613 127 126C127 98.3871 104.613 76 77 76Z" fill="black"/>
<path d="M84.3021 102.982H56.2372C53.7679 102.982 51.7661 104.983 51.7661 107.451V147.485C51.7661 149.953 53.7679 151.954 56.2372 151.954H84.3021C86.7714 151.954 88.7732 149.953 88.7732 147.485V107.451C88.7732 104.983 86.7714 102.982 84.3021 102.982Z" fill="white" stroke="#18292D" stroke-width="1.5" stroke-linecap="round" stroke-linejoin="round"/>
<path d="M84.3021 102.982H56.2372C53.7679 102.982 51.7661 104.983 51.7661 107.451V111.186H88.7732V107.451C88.7732 104.983 86.7714 102.982 84.3021 102.982Z" fill="#18292D" stroke="#18292D" stroke-width="1.5" stroke-linecap="round" stroke-linejoin="round"/>
<path d="M83.1742 107.264C83.8375 107.264 84.368 106.728 84.368 106.071V101.823C84.368 101.16 83.8319 100.63 83.1742 100.63C82.511 100.63 81.9805 101.166 81.9805 101.823V106.065C81.9805 106.728 82.5166 107.258 83.1742 107.258V107.264Z" fill="white" stroke="#18292D" stroke-width="1.5" stroke-linecap="round" stroke-linejoin="round"/>
<path d="M74.5746 107.264C75.2378 107.264 75.7684 106.728 75.7684 106.071V101.823C75.7684 101.16 75.2323 100.63 74.5746 100.63C73.9114 100.63 73.3809 101.166 73.3809 101.823V106.065C73.3809 106.728 73.917 107.258 74.5746 107.258V107.264Z" fill="white" stroke="#18292D" stroke-width="1.5" stroke-linecap="round" stroke-linejoin="round"/>
<path d="M65.9692 107.264C66.6324 107.264 67.1629 106.728 67.1629 106.071V101.823C67.1629 101.16 66.6268 100.63 65.9692 100.63C65.306 100.63 64.7754 101.166 64.7754 101.823V106.065C64.7754 106.728 65.3115 107.258 65.9692 107.258V107.264Z" fill="white" stroke="#18292D" stroke-width="1.5" stroke-linecap="round" stroke-linejoin="round"/>
<path d="M57.37 107.264C58.0333 107.264 58.5638 106.728 58.5638 106.071V101.823C58.5638 101.16 58.0277 100.63 57.37 100.63C56.7068 100.63 56.1763 101.166 56.1763 101.823V106.065C56.1763 106.728 56.7124 107.258 57.37 107.258V107.264Z" fill="white" stroke="#18292D" stroke-width="1.5" stroke-linecap="round" stroke-linejoin="round"/>
<path d="M88.6571 111.334H51.6445" stroke="#18292D" stroke-width="1.5" stroke-linecap="round" stroke-linejoin="round"/>
<path d="M77.5642 123.983H83.207V118.344H77.5642V123.983Z" fill="white" stroke="#18292D" stroke-width="1.5" stroke-linecap="round" stroke-linejoin="round"/>
<path d="M77.5642 134.539H83.207V128.899H77.5642V134.539Z" fill="white" stroke="#18292D" stroke-width="1.5" stroke-linecap="round" stroke-linejoin="round"/>
<path d="M77.5642 145.094H83.207V139.455H77.5642V145.094Z" stroke="#18292D" stroke-width="1.5" stroke-linecap="round" stroke-linejoin="round"/>
<path d="M68.009 119.769H56.1763" stroke="#18292D" stroke-width="1.5" stroke-linecap="round" stroke-linejoin="round"/>
<path d="M74.2433 119.769H70.4409" stroke="#18292D" stroke-width="1.5" stroke-linecap="round" stroke-linejoin="round"/>
<path d="M74.2432 122.564H56.1763" stroke="#18292D" stroke-width="1.5" stroke-linecap="round" stroke-linejoin="round"/>
<path d="M74.2432 130.324H56.1763" stroke="#18292D" stroke-width="1.5" stroke-linecap="round" stroke-linejoin="round"/>
<path d="M60.4153 133.119H56.1763" stroke="#18292D" stroke-width="1.5" stroke-linecap="round" stroke-linejoin="round"/>
<path d="M74.2432 133.119H62.731" stroke="#18292D" stroke-width="1.5" stroke-linecap="round" stroke-linejoin="round"/>
<path d="M74.2432 140.88H56.1763" stroke="#18292D" stroke-width="1.5" stroke-linecap="round" stroke-linejoin="round"/>
<path d="M62.731 143.675H56.1763" stroke="#18292D" stroke-width="1.5" stroke-linecap="round" stroke-linejoin="round"/>
<path d="M74.243 143.675H68.0088" stroke="#18292D" stroke-width="1.5" stroke-linecap="round" stroke-linejoin="round"/>
<path d="M83.2078 139.455L80.6323 143.172L79.3667 142.1" stroke="#FFC31F" stroke-width="1.5" stroke-linecap="round" stroke-linejoin="round"/>
<path d="M102.341 105.004C101.368 104.485 100.136 104.855 99.6051 105.838L86.3409 130.313C86.2801 130.423 86.2303 130.539 86.1972 130.655L84.6221 137.538C84.5834 137.67 84.6552 137.709 84.7436 137.604L89.6624 132.533C89.7398 132.44 89.8117 132.335 89.8725 132.224L103.148 107.733C103.678 106.755 103.314 105.523 102.341 105.004Z" fill="white" stroke="#18292D" stroke-width="1.5" stroke-linecap="round" stroke-linejoin="round"/>
<path d="M98.293 108.547L99.1731 106.787L102.254 108.547L101.374 110.306L98.293 108.547Z" fill="#FFC31F"/>
<path d="M98.0908 108.677L101.551 110.55" stroke="#18292D" stroke-width="1.5" stroke-linecap="round" stroke-linejoin="round"/>
<path d="M85.4678 133.842L87.3911 134.87" stroke="#18292D" stroke-width="1.5" stroke-linecap="round" stroke-linejoin="round"/>
<path d="M99.3179 106.495L102.789 108.351" stroke="#18292D" stroke-width="1.5" stroke-linecap="round" stroke-linejoin="round"/>
<path d="M88.0986 131.418L99.7877 109.605" stroke="#18292D" stroke-width="1.5" stroke-linecap="round" stroke-linejoin="round"/>
<path d="M86.269 130.44L89.8062 132.335" stroke="#18292D" stroke-width="1.5" stroke-linecap="round" stroke-linejoin="round"/>
<path d="M230 130.597C257.392 130.597 279.597 108.392 279.597 81C279.597 53.6085 257.392 31.4032 230 31.4032C202.609 31.4032 180.403 53.6085 180.403 81C180.403 108.392 202.609 130.597 230 130.597Z" fill="white"/>
<path d="M247.047 58.1151H212.245C210.235 58.1151 208.605 59.7441 208.605 61.7535V107.848C208.605 109.858 210.235 111.487 212.245 111.487H247.047C249.057 111.487 250.687 109.858 250.687 107.848V61.7535C250.687 59.7441 249.057 58.1151 247.047 58.1151Z" fill="#18292D" stroke="#18292D" stroke-width="1.5" stroke-linecap="round" stroke-linejoin="round"/>
<path d="M247.429 74.5789V107.751H212.309V61.8562H247.429V74.5789Z" fill="white" stroke="white" stroke-width="1.5" stroke-linecap="round" stroke-linejoin="round"/>
<path d="M233.214 96.8357L231.708 103.593" stroke="#FFC31F" stroke-width="1.5" stroke-linecap="round" stroke-linejoin="round"/>
<path d="M233.215 96.8357L235.594 102.721" stroke="#FFC31F" stroke-width="1.5" stroke-linecap="round" stroke-linejoin="round"/>
<path d="M231.082 101.598L234.579 100.588" stroke="#FFC31F" stroke-width="1.5" stroke-linecap="round" stroke-linejoin="round"/>
<path d="M238.602 96.8357L240.107 101.227" stroke="#FFC31F" stroke-width="1.5" stroke-linecap="round" stroke-linejoin="round"/>
<path d="M237.353 99.7783L241.489 98.2329" stroke="#FFC31F" stroke-width="1.5" stroke-linecap="round" stroke-linejoin="round"/>
<path d="M222.146 71.3801H242.836" stroke="#18292D" stroke-width="1.5" stroke-linecap="round" stroke-linejoin="round"/>
<path d="M216.034 71.6073L217.523 72.6338L219.224 70.1246" stroke="#18292D" stroke-width="1.5" stroke-linecap="round" stroke-linejoin="round"/>
<path d="M222.146 77.7552H242.836" stroke="#18292D" stroke-width="1.5" stroke-linecap="round" stroke-linejoin="round"/>
<path d="M216.034 77.989L217.523 79.0098L219.224 76.5006" stroke="#18292D" stroke-width="1.5" stroke-linecap="round" stroke-linejoin="round"/>
<path d="M222.146 84.2732H242.836" stroke="#18292D" stroke-width="1.5" stroke-linecap="round" stroke-linejoin="round"/>
<path d="M216.034 84.3644L217.523 85.3909L219.224 82.8817" stroke="#18292D" stroke-width="1.5" stroke-linecap="round" stroke-linejoin="round"/>
<path d="M222.642 90.5175H243.326" stroke="#18292D" stroke-width="1.5" stroke-linecap="round" stroke-linejoin="round"/>
<path d="M216.034 90.7455L217.523 91.772L219.224 89.2628" stroke="#18292D" stroke-width="1.5" stroke-linecap="round" stroke-linejoin="round"/>
<path d="M239.205 57.8183C239.205 57.1511 238.663 56.6093 237.996 56.6093H235.194C234.321 56.6093 233.642 55.8908 233.648 55.0183C233.648 55.0183 233.648 55.0126 233.648 55.0069C233.517 52.1954 231.628 51.2317 229.808 51.2317C228.261 51.2317 226.087 52.1954 226.087 54.8415C226.087 54.9156 226.087 54.9955 226.087 55.0696C226.099 55.925 225.397 56.615 224.541 56.615H221.739C221.072 56.615 220.53 57.1568 220.53 57.824L219.725 63.6521H240.01L239.205 57.824V57.8183Z" fill="white" stroke="#18292D" stroke-width="1.5" stroke-linecap="round" stroke-linejoin="round"/>
<path d="M231.469 54.8759C231.469 55.7598 230.75 56.4783 229.866 56.4783C228.981 56.4783 228.262 55.7598 228.262 54.8759C228.262 53.992 228.981 53.2734 229.866 53.2734C230.75 53.2734 231.469 53.992 231.469 54.8759Z" fill="white" stroke="#18292D" stroke-width="1.5" stroke-linecap="round" stroke-linejoin="round"/>
<path d="M230 31.8065C257.129 31.8065 279.194 53.871 279.194 81C279.194 108.129 257.129 130.194 230 130.194C202.871 130.194 180.806 108.129 180.806 81C180.806 53.871 202.871 31.8065 230 31.8065ZM230 31C202.387 31 180 53.3871 180 81C180 108.613 202.387 131 230 131C257.613 131 280 108.613 280 81C280 53.3871 257.613 31 230 31Z" fill="black"/>
<path d="M383 175.597C410.392 175.597 432.597 153.392 432.597 126C432.597 98.6085 410.392 76.4032 383 76.4032C355.609 76.4032 333.403 98.6085 333.403 126C333.403 153.392 355.609 175.597 383 175.597Z" fill="white"/>
<path d="M383 76.8065C410.129 76.8065 432.194 98.871 432.194 126C432.194 153.129 410.129 175.194 383 175.194C355.871 175.194 333.806 153.129 333.806 126C333.806 98.871 355.871 76.8065 383 76.8065ZM383 76C355.387 76 333 98.3871 333 126C333 153.613 355.387 176 383 176C410.613 176 433 153.613 433 126C433 98.3871 410.613 76 383 76Z" fill="black"/>
<path d="M387.746 119.56C390.073 119.56 391.959 117.608 391.959 115.201C391.959 112.795 390.073 110.843 387.746 110.843C385.419 110.843 383.533 112.795 383.533 115.201C383.533 117.608 385.419 119.56 387.746 119.56Z" fill="#FFC31F"/>
<path d="M379.672 130.417C379.672 130.417 380.065 121.955 385.068 121.797C387.113 121.736 388.888 121.757 390.372 121.787C395.585 121.889 395.534 130.468 395.534 130.468C395.534 131.232 391.984 131.854 387.603 131.854C383.222 131.854 379.672 131.232 379.672 130.468C379.672 130.448 379.672 130.432 379.682 130.417H379.672Z" fill="#FFC31F"/>
<path d="M357.553 152.967L359.58 154.993C360.017 155.429 360.724 155.429 361.16 154.993L374.374 141.786C374.81 141.35 374.81 140.644 374.374 140.208L372.347 138.182C371.911 137.746 371.204 137.746 370.768 138.182L357.553 151.388C357.117 151.824 357.117 152.531 357.553 152.967Z" fill="#18292D" stroke="#18292D" stroke-width="0.878223" stroke-linecap="round" stroke-linejoin="round"/>
<path d="M357.553 152.967L359.58 154.993C360.017 155.429 360.724 155.429 361.16 154.993L362.533 153.58L359.054 150.103L357.553 151.388C357.117 151.824 357.117 152.531 357.553 152.967Z" fill="white" stroke="#18292D" stroke-width="0.878223" stroke-linecap="round" stroke-linejoin="round"/>
<path d="M362.621 153.533L359.015 149.93" stroke="#18292D" stroke-width="0.878223" stroke-linecap="round" stroke-linejoin="round"/>
<path d="M373.357 139.195L375.994 136.56" stroke="#18292D" stroke-width="0.878223" stroke-linecap="round" stroke-linejoin="round"/>
<path d="M400.321 109.561C407.344 116.58 407.344 127.959 400.321 134.978C393.298 141.997 381.912 141.997 374.889 134.978C367.866 127.959 367.866 116.58 374.889 109.561C381.912 102.542 393.298 102.542 400.321 109.561Z" stroke="#18292D" stroke-width="0.878223" stroke-linecap="round" stroke-linejoin="round"/>
<path d="M369.843 122.266C369.843 132.053 377.81 140.015 387.603 140.015C397.395 140.015 405.362 132.053 405.362 122.266C405.362 112.48 397.395 104.507 387.603 104.507C377.81 104.507 369.843 112.48 369.843 122.266ZM371.389 122.042C371.389 113.229 378.784 106.113 387.603 106.113C396.421 106.113 403.827 113.448 403.827 122.261C403.827 131.075 396.421 138.435 387.603 138.435C378.784 138.435 371.389 130.855 371.389 122.042Z" fill="#18292D"/>
</svg>
