<svg width="460" height="460" viewBox="0 0 460 460" fill="none" xmlns="http://www.w3.org/2000/svg">
<g clip-path="url(#clip0_938_11206)">
<rect width="460" height="460" fill="white"/>
<path d="M338 81.2C338.11 81.2 338.2 81.1105 338.2 81V80C338.2 79.8895 338.11 79.8 338 79.8H333C332.89 79.8 332.8 79.8895 332.8 80V81C332.8 81.1105 332.89 81.2 333 81.2H338ZM325 81.2C325.11 81.2 325.2 81.1105 325.2 81V80C325.2 79.8895 325.11 79.8 325 79.8H320C319.89 79.8 319.8 79.8895 319.8 80V81C319.8 81.1105 319.89 81.2 320 81.2H325ZM312 81.2C312.11 81.2 312.2 81.1105 312.2 81V80C312.2 79.8895 312.11 79.8 312 79.8H307C306.89 79.8 306.8 79.8895 306.8 80V81C306.8 81.1105 306.89 81.2 307 81.2H312ZM299 81.2C299.11 81.2 299.2 81.1105 299.2 81V80C299.2 79.8895 299.11 79.8 299 79.8H294C293.89 79.8 293.8 79.8895 293.8 80V81C293.8 81.1105 293.89 81.2 294 81.2H299ZM286 81.2C286.11 81.2 286.2 81.1105 286.2 81V80C286.2 79.8895 286.11 79.8 286 79.8H281C280.89 79.8 280.8 79.8895 280.8 80V81C280.8 81.1105 280.89 81.2 281 81.2H286ZM273 81.2C273.11 81.2 273.2 81.1105 273.2 81V80C273.2 79.8895 273.11 79.8 273 79.8H268C267.89 79.8 267.8 79.8895 267.8 80V81C267.8 81.1105 267.89 81.2 268 81.2H273ZM260 81.2C260.11 81.2 260.2 81.1105 260.2 81V80C260.2 79.8895 260.11 79.8 260 79.8H255C254.89 79.8 254.8 79.8895 254.8 80V81C254.8 81.1105 254.89 81.2 255 81.2H260ZM247 81.2C247.11 81.2 247.2 81.1105 247.2 81V80C247.2 79.8895 247.11 79.8 247 79.8H242C241.89 79.8 241.8 79.8895 241.8 80V81C241.8 81.1105 241.89 81.2 242 81.2H247ZM234 81.2C234.11 81.2 234.2 81.1105 234.2 81V80C234.2 79.8895 234.11 79.8 234 79.8H229C228.89 79.8 228.8 79.8895 228.8 80V81C228.8 81.1105 228.89 81.2 229 81.2H234ZM221 81.2C221.11 81.2 221.2 81.1105 221.2 81V80C221.2 79.8895 221.11 79.8 221 79.8H216C215.89 79.8 215.8 79.8895 215.8 80V81C215.8 81.1105 215.89 81.2 216 81.2H221ZM208 81.2C208.11 81.2 208.2 81.1105 208.2 81V80C208.2 79.8895 208.11 79.8 208 79.8H203C202.89 79.8 202.8 79.8895 202.8 80V81C202.8 81.1105 202.89 81.2 203 81.2H208ZM195 81.2C195.11 81.2 195.2 81.1105 195.2 81V80C195.2 79.8895 195.11 79.8 195 79.8H190C189.89 79.8 189.8 79.8895 189.8 80V81C189.8 81.1105 189.89 81.2 190 81.2H195ZM182 81.2C182.11 81.2 182.2 81.1105 182.2 81V80C182.2 79.8895 182.11 79.8 182 79.8H177C176.89 79.8 176.8 79.8895 176.8 80V81C176.8 81.1105 176.89 81.2 177 81.2H182ZM169 81.2C169.11 81.2 169.2 81.1105 169.2 81V80C169.2 79.8895 169.11 79.8 169 79.8H164C163.89 79.8 163.8 79.8895 163.8 80V81C163.8 81.1105 163.89 81.2 164 81.2H169ZM156 81.2C156.11 81.2 156.2 81.1105 156.2 81V80C156.2 79.8895 156.11 79.8 156 79.8H151C150.89 79.8 150.8 79.8895 150.8 80V81C150.8 81.1105 150.89 81.2 151 81.2H156ZM143 81.2C143.11 81.2 143.2 81.1105 143.2 81V80C143.2 79.8895 143.11 79.8 143 79.8H138C137.89 79.8 137.8 79.8895 137.8 80V81C137.8 81.1105 137.89 81.2 138 81.2H143ZM130 81.2C130.11 81.2 130.2 81.1105 130.2 81V80C130.2 79.8895 130.11 79.8 130 79.8H125C124.89 79.8 124.8 79.8895 124.8 80V81C124.8 81.1105 124.89 81.2 125 81.2H130ZM117 81.2C117.11 81.2 117.2 81.1105 117.2 81V80C117.2 79.8895 117.11 79.8 117 79.8H112C111.89 79.8 111.8 79.8895 111.8 80V81C111.8 81.1105 111.89 81.2 112 81.2H117ZM104 81.2C104.11 81.2 104.2 81.1105 104.2 81V80C104.2 79.8895 104.11 79.8 104 79.8H99C98.8895 79.8 98.8 79.8895 98.8 80V81C98.8 81.1105 98.8895 81.2 99 81.2H104Z" fill="black" stroke="black" stroke-width="0.4" stroke-linejoin="round"/>
<mask id="path-2-outside-1_938_11206" maskUnits="userSpaceOnUse" x="119.99" y="103.983" width="208.32" height="195.549" fill="black">
<rect fill="white" x="119.99" y="103.983" width="208.32" height="195.549"/>
<path d="M137.274 295.65C137.248 295.616 136.59 294.71 135.523 292.756L136.109 292.439C137.144 294.346 137.802 295.245 137.808 295.258L137.268 295.656L137.274 295.65ZM133.171 287.936C132.734 286.953 132.298 285.911 131.876 284.849L132.495 284.6C132.917 285.655 133.346 286.691 133.783 287.666L133.171 287.936ZM130.022 279.824C129.679 278.817 129.33 277.757 128.982 276.649L129.62 276.447C129.968 277.554 130.317 278.608 130.653 279.609L130.022 279.824ZM127.477 271.51C127.195 270.471 126.913 269.391 126.632 268.279L127.283 268.116C127.564 269.229 127.845 270.302 128.127 271.335L127.484 271.511L127.477 271.51ZM125.408 263.071C125.173 262.012 124.945 260.92 124.725 259.802L125.381 259.673C125.608 260.792 125.836 261.877 126.065 262.936L125.415 263.078L125.408 263.071ZM123.735 254.545C123.547 253.467 123.366 252.37 123.185 251.252L123.841 251.15C124.022 252.268 124.203 253.365 124.391 254.437L123.735 254.552L123.735 254.545ZM122.477 245.94C122.363 244.837 122.269 243.714 122.202 242.598L122.87 242.556C122.937 243.665 123.031 244.775 123.146 245.871L122.484 245.94L122.477 245.94ZM122.028 237.249C122.025 236.674 122.035 236.094 122.045 235.52C122.054 234.98 122.064 234.439 122.086 233.906L122.753 233.931C122.737 234.464 122.721 234.998 122.712 235.538C122.702 236.112 122.692 236.686 122.695 237.253L122.028 237.255L122.028 237.249ZM123.093 228.617L122.427 228.552C122.526 227.446 122.652 226.327 122.799 225.221L123.458 225.306C123.319 226.405 123.192 227.517 123.093 228.61L123.093 228.617ZM124.284 220.054L123.625 219.936C123.824 218.845 124.05 217.741 124.29 216.657L124.941 216.802C124.702 217.879 124.483 218.977 124.284 220.061L124.284 220.054ZM126.226 211.632L125.582 211.454C125.881 210.377 126.2 209.302 126.532 208.24L127.17 208.438C126.838 209.486 126.525 210.562 126.226 211.625L126.226 211.632ZM128.893 203.408L128.269 203.177C128.661 202.136 129.067 201.089 129.492 200.055L130.108 200.313C129.69 201.333 129.278 202.374 128.893 203.408ZM132.269 195.445L131.666 195.161C132.144 194.154 132.649 193.142 133.16 192.163L133.756 192.474C133.245 193.453 132.747 194.452 132.269 195.451L132.269 195.445ZM136.34 187.813L135.765 187.47C136.336 186.512 136.927 185.548 137.53 184.617L138.091 184.981C137.495 185.905 136.904 186.855 136.34 187.813ZM141.105 180.601L140.564 180.205C141.227 179.302 141.91 178.406 142.6 177.544L143.12 177.96C142.437 178.816 141.761 179.705 141.105 180.601ZM146.568 173.909L146.075 173.46C146.83 172.632 147.605 171.811 148.38 171.03L148.852 171.499C148.085 172.273 147.31 173.087 146.568 173.909ZM152.779 167.937L152.354 167.422C153.201 166.729 154.1 166.044 155.02 165.379L155.411 165.92C154.505 166.572 153.619 167.25 152.779 167.937ZM159.847 163.001L159.503 162.427C160.441 161.863 161.425 161.306 162.415 160.77L162.732 161.356C161.748 161.886 160.778 162.443 159.847 163.001ZM167.492 158.983L167.216 158.377C168.212 157.921 169.248 157.465 170.283 157.036L170.539 157.654C169.504 158.083 168.481 158.533 167.492 158.989L167.492 158.983ZM175.505 155.739L175.283 155.107C176.317 154.738 177.384 154.376 178.452 154.035L178.654 154.672C177.594 155.014 176.533 155.369 175.505 155.739ZM183.76 153.159L183.584 152.516C184.65 152.227 185.73 151.946 186.823 151.678L186.978 152.328C185.892 152.596 184.819 152.871 183.753 153.159L183.76 153.159ZM192.178 151.157L192.043 150.501C193.128 150.279 194.226 150.072 195.331 149.871L195.446 150.527C194.348 150.728 193.256 150.936 192.178 151.157ZM269.791 151.798L269.803 151.131C270.911 151.137 272.032 151.123 273.121 151.095L273.136 151.763C272.041 151.79 270.912 151.804 269.791 151.798ZM264.441 151.664C263.327 151.612 262.213 151.545 261.1 151.473L261.145 150.806C262.252 150.885 263.365 150.951 264.466 150.997L264.434 151.664L264.441 151.664ZM278.486 151.502L278.438 150.834C279.554 150.753 280.664 150.653 281.754 150.532L281.822 151.193C280.732 151.315 279.609 151.415 278.487 151.496L278.486 151.502ZM255.769 150.992C254.663 150.873 253.551 150.74 252.445 150.594L252.53 149.935C253.629 150.081 254.735 150.207 255.834 150.326L255.762 150.992L255.769 150.992ZM200.707 149.677L200.612 149.015C201.709 148.861 202.82 148.713 203.93 148.579L204.012 149.241C202.908 149.376 201.804 149.523 200.707 149.677ZM247.159 149.821C246.067 149.655 244.969 149.502 243.863 149.356L243.948 148.697C245.06 148.843 246.159 148.996 247.257 149.162L247.159 149.821ZM287.128 150.472L287.019 149.816C288.124 149.628 289.222 149.42 290.287 149.199L290.423 149.849C289.351 150.077 288.246 150.284 287.128 150.472ZM209.301 148.693L209.246 148.031C210.355 147.937 211.465 147.85 212.574 147.775L212.616 148.444C211.507 148.518 210.404 148.605 209.301 148.699L209.301 148.693ZM238.561 148.77C237.454 148.664 236.348 148.578 235.242 148.492L235.287 147.825C236.4 147.904 237.513 147.997 238.619 148.103L238.554 148.77L238.561 148.77ZM217.934 148.169L217.912 147.502C219.027 147.461 220.135 147.44 221.257 147.42L221.266 148.087C220.157 148.101 219.042 148.129 217.94 148.17L217.934 148.169ZM229.92 148.198C228.813 148.152 227.699 148.126 226.592 148.1L226.603 147.433C227.718 147.452 228.832 147.485 229.945 147.531L229.92 148.198ZM295.618 148.544L295.429 147.9C296.509 147.585 297.57 147.243 298.591 146.887L298.813 147.519C297.779 147.881 296.705 148.223 295.618 148.538L295.618 148.544ZM303.794 145.517L303.511 144.911C304.527 144.441 305.523 143.945 306.473 143.427L306.79 144.014C305.827 144.538 304.817 145.047 303.787 145.516L303.794 145.517ZM311.352 141.163L310.961 140.622C311.867 139.977 312.746 139.292 313.573 138.586L314.005 139.094C313.164 139.807 312.271 140.505 311.352 141.163ZM317.848 135.33L317.348 134.887C318.077 134.059 318.773 133.197 319.409 132.313L319.95 132.703C319.3 133.6 318.59 134.482 317.848 135.33ZM322.773 128.127L322.177 127.823C322.681 126.857 323.146 125.844 323.558 124.83L324.174 125.081C323.749 126.122 323.277 127.148 322.766 128.134L322.773 128.127ZM325.865 119.978L325.22 119.813C325.492 118.763 325.732 117.68 325.924 116.582L326.583 116.7C326.383 117.811 326.144 118.915 325.865 119.978ZM327.237 111.372L326.57 111.327C326.633 110.407 326.676 109.467 326.692 108.532L327.359 108.544C327.343 109.492 327.3 110.445 327.237 111.379L327.237 111.372Z"/>
</mask>
<path d="M137.274 295.65C137.248 295.616 136.59 294.71 135.523 292.756L136.109 292.439C137.144 294.346 137.802 295.245 137.808 295.258L137.268 295.656L137.274 295.65ZM133.171 287.936C132.734 286.953 132.298 285.911 131.876 284.849L132.495 284.6C132.917 285.655 133.346 286.691 133.783 287.666L133.171 287.936ZM130.022 279.824C129.679 278.817 129.33 277.757 128.982 276.649L129.62 276.447C129.968 277.554 130.317 278.608 130.653 279.609L130.022 279.824ZM127.477 271.51C127.195 270.471 126.913 269.391 126.632 268.279L127.283 268.116C127.564 269.229 127.845 270.302 128.127 271.335L127.484 271.511L127.477 271.51ZM125.408 263.071C125.173 262.012 124.945 260.92 124.725 259.802L125.381 259.673C125.608 260.792 125.836 261.877 126.065 262.936L125.415 263.078L125.408 263.071ZM123.735 254.545C123.547 253.467 123.366 252.37 123.185 251.252L123.841 251.15C124.022 252.268 124.203 253.365 124.391 254.437L123.735 254.552L123.735 254.545ZM122.477 245.94C122.363 244.837 122.269 243.714 122.202 242.598L122.87 242.556C122.937 243.665 123.031 244.775 123.146 245.871L122.484 245.94L122.477 245.94ZM122.028 237.249C122.025 236.674 122.035 236.094 122.045 235.52C122.054 234.98 122.064 234.439 122.086 233.906L122.753 233.931C122.737 234.464 122.721 234.998 122.712 235.538C122.702 236.112 122.692 236.686 122.695 237.253L122.028 237.255L122.028 237.249ZM123.093 228.617L122.427 228.552C122.526 227.446 122.652 226.327 122.799 225.221L123.458 225.306C123.319 226.405 123.192 227.517 123.093 228.61L123.093 228.617ZM124.284 220.054L123.625 219.936C123.824 218.845 124.05 217.741 124.29 216.657L124.941 216.802C124.702 217.879 124.483 218.977 124.284 220.061L124.284 220.054ZM126.226 211.632L125.582 211.454C125.881 210.377 126.2 209.302 126.532 208.24L127.17 208.438C126.838 209.486 126.525 210.562 126.226 211.625L126.226 211.632ZM128.893 203.408L128.269 203.177C128.661 202.136 129.067 201.089 129.492 200.055L130.108 200.313C129.69 201.333 129.278 202.374 128.893 203.408ZM132.269 195.445L131.666 195.161C132.144 194.154 132.649 193.142 133.16 192.163L133.756 192.474C133.245 193.453 132.747 194.452 132.269 195.451L132.269 195.445ZM136.34 187.813L135.765 187.47C136.336 186.512 136.927 185.548 137.53 184.617L138.091 184.981C137.495 185.905 136.904 186.855 136.34 187.813ZM141.105 180.601L140.564 180.205C141.227 179.302 141.91 178.406 142.6 177.544L143.12 177.96C142.437 178.816 141.761 179.705 141.105 180.601ZM146.568 173.909L146.075 173.46C146.83 172.632 147.605 171.811 148.38 171.03L148.852 171.499C148.085 172.273 147.31 173.087 146.568 173.909ZM152.779 167.937L152.354 167.422C153.201 166.729 154.1 166.044 155.02 165.379L155.411 165.92C154.505 166.572 153.619 167.25 152.779 167.937ZM159.847 163.001L159.503 162.427C160.441 161.863 161.425 161.306 162.415 160.77L162.732 161.356C161.748 161.886 160.778 162.443 159.847 163.001ZM167.492 158.983L167.216 158.377C168.212 157.921 169.248 157.465 170.283 157.036L170.539 157.654C169.504 158.083 168.481 158.533 167.492 158.989L167.492 158.983ZM175.505 155.739L175.283 155.107C176.317 154.738 177.384 154.376 178.452 154.035L178.654 154.672C177.594 155.014 176.533 155.369 175.505 155.739ZM183.76 153.159L183.584 152.516C184.65 152.227 185.73 151.946 186.823 151.678L186.978 152.328C185.892 152.596 184.819 152.871 183.753 153.159L183.76 153.159ZM192.178 151.157L192.043 150.501C193.128 150.279 194.226 150.072 195.331 149.871L195.446 150.527C194.348 150.728 193.256 150.936 192.178 151.157ZM269.791 151.798L269.803 151.131C270.911 151.137 272.032 151.123 273.121 151.095L273.136 151.763C272.041 151.79 270.912 151.804 269.791 151.798ZM264.441 151.664C263.327 151.612 262.213 151.545 261.1 151.473L261.145 150.806C262.252 150.885 263.365 150.951 264.466 150.997L264.434 151.664L264.441 151.664ZM278.486 151.502L278.438 150.834C279.554 150.753 280.664 150.653 281.754 150.532L281.822 151.193C280.732 151.315 279.609 151.415 278.487 151.496L278.486 151.502ZM255.769 150.992C254.663 150.873 253.551 150.74 252.445 150.594L252.53 149.935C253.629 150.081 254.735 150.207 255.834 150.326L255.762 150.992L255.769 150.992ZM200.707 149.677L200.612 149.015C201.709 148.861 202.82 148.713 203.93 148.579L204.012 149.241C202.908 149.376 201.804 149.523 200.707 149.677ZM247.159 149.821C246.067 149.655 244.969 149.502 243.863 149.356L243.948 148.697C245.06 148.843 246.159 148.996 247.257 149.162L247.159 149.821ZM287.128 150.472L287.019 149.816C288.124 149.628 289.222 149.42 290.287 149.199L290.423 149.849C289.351 150.077 288.246 150.284 287.128 150.472ZM209.301 148.693L209.246 148.031C210.355 147.937 211.465 147.85 212.574 147.775L212.616 148.444C211.507 148.518 210.404 148.605 209.301 148.699L209.301 148.693ZM238.561 148.77C237.454 148.664 236.348 148.578 235.242 148.492L235.287 147.825C236.4 147.904 237.513 147.997 238.619 148.103L238.554 148.77L238.561 148.77ZM217.934 148.169L217.912 147.502C219.027 147.461 220.135 147.44 221.257 147.42L221.266 148.087C220.157 148.101 219.042 148.129 217.94 148.17L217.934 148.169ZM229.92 148.198C228.813 148.152 227.699 148.126 226.592 148.1L226.603 147.433C227.718 147.452 228.832 147.485 229.945 147.531L229.92 148.198ZM295.618 148.544L295.429 147.9C296.509 147.585 297.57 147.243 298.591 146.887L298.813 147.519C297.779 147.881 296.705 148.223 295.618 148.538L295.618 148.544ZM303.794 145.517L303.511 144.911C304.527 144.441 305.523 143.945 306.473 143.427L306.79 144.014C305.827 144.538 304.817 145.047 303.787 145.516L303.794 145.517ZM311.352 141.163L310.961 140.622C311.867 139.977 312.746 139.292 313.573 138.586L314.005 139.094C313.164 139.807 312.271 140.505 311.352 141.163ZM317.848 135.33L317.348 134.887C318.077 134.059 318.773 133.197 319.409 132.313L319.95 132.703C319.3 133.6 318.59 134.482 317.848 135.33ZM322.773 128.127L322.177 127.823C322.681 126.857 323.146 125.844 323.558 124.83L324.174 125.081C323.749 126.122 323.277 127.148 322.766 128.134L322.773 128.127ZM325.865 119.978L325.22 119.813C325.492 118.763 325.732 117.68 325.924 116.582L326.583 116.7C326.383 117.811 326.144 118.915 325.865 119.978ZM327.237 111.372L326.57 111.327C326.633 110.407 326.676 109.467 326.692 108.532L327.359 108.544C327.343 109.492 327.3 110.445 327.237 111.379L327.237 111.372Z" fill="black"/>
<path d="M137.274 295.65C137.248 295.616 136.59 294.71 135.523 292.756L136.109 292.439C137.144 294.346 137.802 295.245 137.808 295.258L137.268 295.656L137.274 295.65ZM133.171 287.936C132.734 286.953 132.298 285.911 131.876 284.849L132.495 284.6C132.917 285.655 133.346 286.691 133.783 287.666L133.171 287.936ZM130.022 279.824C129.679 278.817 129.33 277.757 128.982 276.649L129.62 276.447C129.968 277.554 130.317 278.608 130.653 279.609L130.022 279.824ZM127.477 271.51C127.195 270.471 126.913 269.391 126.632 268.279L127.283 268.116C127.564 269.229 127.845 270.302 128.127 271.335L127.484 271.511L127.477 271.51ZM125.408 263.071C125.173 262.012 124.945 260.92 124.725 259.802L125.381 259.673C125.608 260.792 125.836 261.877 126.065 262.936L125.415 263.078L125.408 263.071ZM123.735 254.545C123.547 253.467 123.366 252.37 123.185 251.252L123.841 251.15C124.022 252.268 124.203 253.365 124.391 254.437L123.735 254.552L123.735 254.545ZM122.477 245.94C122.363 244.837 122.269 243.714 122.202 242.598L122.87 242.556C122.937 243.665 123.031 244.775 123.146 245.871L122.484 245.94L122.477 245.94ZM122.028 237.249C122.025 236.674 122.035 236.094 122.045 235.52C122.054 234.98 122.064 234.439 122.086 233.906L122.753 233.931C122.737 234.464 122.721 234.998 122.712 235.538C122.702 236.112 122.692 236.686 122.695 237.253L122.028 237.255L122.028 237.249ZM123.093 228.617L122.427 228.552C122.526 227.446 122.652 226.327 122.799 225.221L123.458 225.306C123.319 226.405 123.192 227.517 123.093 228.61L123.093 228.617ZM124.284 220.054L123.625 219.936C123.824 218.845 124.05 217.741 124.29 216.657L124.941 216.802C124.702 217.879 124.483 218.977 124.284 220.061L124.284 220.054ZM126.226 211.632L125.582 211.454C125.881 210.377 126.2 209.302 126.532 208.24L127.17 208.438C126.838 209.486 126.525 210.562 126.226 211.625L126.226 211.632ZM128.893 203.408L128.269 203.177C128.661 202.136 129.067 201.089 129.492 200.055L130.108 200.313C129.69 201.333 129.278 202.374 128.893 203.408ZM132.269 195.445L131.666 195.161C132.144 194.154 132.649 193.142 133.16 192.163L133.756 192.474C133.245 193.453 132.747 194.452 132.269 195.451L132.269 195.445ZM136.34 187.813L135.765 187.47C136.336 186.512 136.927 185.548 137.53 184.617L138.091 184.981C137.495 185.905 136.904 186.855 136.34 187.813ZM141.105 180.601L140.564 180.205C141.227 179.302 141.91 178.406 142.6 177.544L143.12 177.96C142.437 178.816 141.761 179.705 141.105 180.601ZM146.568 173.909L146.075 173.46C146.83 172.632 147.605 171.811 148.38 171.03L148.852 171.499C148.085 172.273 147.31 173.087 146.568 173.909ZM152.779 167.937L152.354 167.422C153.201 166.729 154.1 166.044 155.02 165.379L155.411 165.92C154.505 166.572 153.619 167.25 152.779 167.937ZM159.847 163.001L159.503 162.427C160.441 161.863 161.425 161.306 162.415 160.77L162.732 161.356C161.748 161.886 160.778 162.443 159.847 163.001ZM167.492 158.983L167.216 158.377C168.212 157.921 169.248 157.465 170.283 157.036L170.539 157.654C169.504 158.083 168.481 158.533 167.492 158.989L167.492 158.983ZM175.505 155.739L175.283 155.107C176.317 154.738 177.384 154.376 178.452 154.035L178.654 154.672C177.594 155.014 176.533 155.369 175.505 155.739ZM183.76 153.159L183.584 152.516C184.65 152.227 185.73 151.946 186.823 151.678L186.978 152.328C185.892 152.596 184.819 152.871 183.753 153.159L183.76 153.159ZM192.178 151.157L192.043 150.501C193.128 150.279 194.226 150.072 195.331 149.871L195.446 150.527C194.348 150.728 193.256 150.936 192.178 151.157ZM269.791 151.798L269.803 151.131C270.911 151.137 272.032 151.123 273.121 151.095L273.136 151.763C272.041 151.79 270.912 151.804 269.791 151.798ZM264.441 151.664C263.327 151.612 262.213 151.545 261.1 151.473L261.145 150.806C262.252 150.885 263.365 150.951 264.466 150.997L264.434 151.664L264.441 151.664ZM278.486 151.502L278.438 150.834C279.554 150.753 280.664 150.653 281.754 150.532L281.822 151.193C280.732 151.315 279.609 151.415 278.487 151.496L278.486 151.502ZM255.769 150.992C254.663 150.873 253.551 150.74 252.445 150.594L252.53 149.935C253.629 150.081 254.735 150.207 255.834 150.326L255.762 150.992L255.769 150.992ZM200.707 149.677L200.612 149.015C201.709 148.861 202.82 148.713 203.93 148.579L204.012 149.241C202.908 149.376 201.804 149.523 200.707 149.677ZM247.159 149.821C246.067 149.655 244.969 149.502 243.863 149.356L243.948 148.697C245.06 148.843 246.159 148.996 247.257 149.162L247.159 149.821ZM287.128 150.472L287.019 149.816C288.124 149.628 289.222 149.42 290.287 149.199L290.423 149.849C289.351 150.077 288.246 150.284 287.128 150.472ZM209.301 148.693L209.246 148.031C210.355 147.937 211.465 147.85 212.574 147.775L212.616 148.444C211.507 148.518 210.404 148.605 209.301 148.699L209.301 148.693ZM238.561 148.77C237.454 148.664 236.348 148.578 235.242 148.492L235.287 147.825C236.4 147.904 237.513 147.997 238.619 148.103L238.554 148.77L238.561 148.77ZM217.934 148.169L217.912 147.502C219.027 147.461 220.135 147.44 221.257 147.42L221.266 148.087C220.157 148.101 219.042 148.129 217.94 148.17L217.934 148.169ZM229.92 148.198C228.813 148.152 227.699 148.126 226.592 148.1L226.603 147.433C227.718 147.452 228.832 147.485 229.945 147.531L229.92 148.198ZM295.618 148.544L295.429 147.9C296.509 147.585 297.57 147.243 298.591 146.887L298.813 147.519C297.779 147.881 296.705 148.223 295.618 148.538L295.618 148.544ZM303.794 145.517L303.511 144.911C304.527 144.441 305.523 143.945 306.473 143.427L306.79 144.014C305.827 144.538 304.817 145.047 303.787 145.516L303.794 145.517ZM311.352 141.163L310.961 140.622C311.867 139.977 312.746 139.292 313.573 138.586L314.005 139.094C313.164 139.807 312.271 140.505 311.352 141.163ZM317.848 135.33L317.348 134.887C318.077 134.059 318.773 133.197 319.409 132.313L319.95 132.703C319.3 133.6 318.59 134.482 317.848 135.33ZM322.773 128.127L322.177 127.823C322.681 126.857 323.146 125.844 323.558 124.83L324.174 125.081C323.749 126.122 323.277 127.148 322.766 128.134L322.773 128.127ZM325.865 119.978L325.22 119.813C325.492 118.763 325.732 117.68 325.924 116.582L326.583 116.7C326.383 117.811 326.144 118.915 325.865 119.978ZM327.237 111.372L326.57 111.327C326.633 110.407 326.676 109.467 326.692 108.532L327.359 108.544C327.343 109.492 327.3 110.445 327.237 111.379L327.237 111.372Z" stroke="black" stroke-width="1.09176" stroke-linejoin="round" mask="url(#path-2-outside-1_938_11206)"/>
<ellipse cx="230.5" cy="329.28" rx="185.609" ry="88.3124" transform="rotate(-165.945 230.5 329.28)" fill="#F2F7F8"/>
<path d="M163.02 305.25C158.147 305.25 152.393 305.004 146.345 304.219C124.647 301.401 109.211 292.965 101.719 279.83C94.2988 266.814 93.6797 253.251 99.9733 241.64C105.83 230.839 117.187 223.141 128.243 222.498C131.266 222.323 134.449 222.22 137.52 222.125C154.964 221.569 173.004 220.998 181.623 207.022C184.44 202.451 186.726 197.609 188.932 192.935C194.821 180.451 200.384 168.658 214.487 166.634C228.757 164.586 233.05 167.348 238.494 170.84C240.375 172.046 242.328 173.3 244.907 174.515C249.082 176.475 248.605 190.554 246.756 203.07C243.598 224.506 235.883 247.608 226.114 264.87C213.011 288.028 196.059 301.75 177.091 304.536H177.075C176.988 304.552 171.289 305.266 163.012 305.266L163.02 305.25ZM223.138 167.499C220.804 167.499 218.05 167.713 214.717 168.189C201.456 170.094 196.321 180.983 190.368 193.594C188.138 198.316 185.837 203.197 182.972 207.839C173.9 222.538 155.433 223.125 137.568 223.696C134.504 223.791 131.338 223.895 128.338 224.069C117.814 224.688 106.981 232.045 101.37 242.386C95.3464 253.497 95.9575 266.513 103.1 279.036C120.592 309.703 175.956 303.06 176.869 302.949C195.329 300.227 211.876 286.782 224.733 264.068C234.407 246.966 242.05 224.069 245.185 202.816C247.55 186.752 246.463 176.975 244.232 175.927C241.558 174.673 239.471 173.332 237.637 172.15C233.582 169.546 230.376 167.483 223.138 167.483V167.499Z" fill="#18292D"/>
<path d="M179.035 318.091C179.035 318.091 122.473 325.29 103.918 289.949C86.3149 256.426 109.132 229.029 128.973 228.045C148.814 227.069 172.662 229.902 182.853 211.3C193.043 192.697 195.789 170.102 214.598 167.396C233.399 164.697 234.431 171.054 244.756 176.538C255.082 182.022 239.471 309.155 179.035 318.083V318.091Z" fill="#18292D"/>
<path d="M244.582 312.29C244.582 312.29 293.874 330.933 320.342 302.886C345.453 276.275 332.255 246.561 314.541 241.419C296.827 236.284 274.438 233.736 270.288 214.697C266.129 195.657 269.811 174.586 253.51 168.11C237.209 161.634 234.534 167.174 223.685 169.936C212.836 172.698 192.257 291.251 244.59 312.29H244.582Z" fill="#18292D"/>
<path d="M235.754 211.874L229.532 213.288C220.543 215.33 214.912 224.273 216.954 233.261L222.913 259.489C224.955 268.478 233.897 274.109 242.886 272.067L249.108 270.653C258.097 268.611 263.728 259.669 261.686 250.68L255.727 224.452C253.685 215.464 244.743 209.832 235.754 211.874Z" fill="white"/>
<path d="M239.193 273.267C231.209 273.267 223.987 267.759 222.146 259.656L216.186 233.427C215.154 228.871 215.956 224.189 218.44 220.236C220.932 216.284 224.805 213.538 229.36 212.506L235.574 211.094C240.13 210.062 244.812 210.864 248.764 213.348C252.717 215.84 255.463 219.713 256.494 224.268L262.455 250.498C263.486 255.053 262.693 259.736 260.201 263.688C257.709 267.64 253.836 270.386 249.28 271.418L243.066 272.831C241.765 273.124 240.471 273.267 239.193 273.267ZM239.479 212.237C238.296 212.237 237.106 212.371 235.923 212.641L229.709 214.054C225.566 214.998 222.043 217.49 219.781 221.086C217.519 224.681 216.789 228.935 217.733 233.077L223.694 259.307C225.638 267.855 234.17 273.235 242.717 271.291L248.931 269.878C253.074 268.934 256.598 266.442 258.86 262.847C261.121 259.252 261.852 254.998 260.907 250.855L254.947 224.625C254.01 220.482 251.51 216.959 247.915 214.697C245.344 213.078 242.439 212.244 239.479 212.244V212.237Z" fill="#18292D"/>
<path d="M239.156 248.481C262.177 248.091 280.523 229.112 280.134 206.091C279.744 183.07 260.765 164.723 237.744 165.113C214.723 165.503 196.376 184.481 196.766 207.503C197.156 230.524 216.134 248.87 239.156 248.481Z" fill="#18292D"/>
<path d="M255.328 205.705C256.843 213.554 262.986 219.323 270.375 220.76C270.605 217.617 270.438 214.395 269.811 211.149C268.256 203.094 264.161 196.181 258.526 191.062C255.613 195.157 254.296 200.379 255.328 205.705Z" fill="#18292D"/>
<path d="M264.764 218.919L263.581 202.324C262.565 187.991 250.121 177.205 235.788 178.221L223.407 179.102C209.082 180.118 198.289 192.562 199.305 206.895L200.559 224.506C201.575 238.839 214.019 249.624 228.352 248.609L240.733 247.728C250.209 247.053 258.137 241.379 262.121 233.474C263.653 234.307 265.47 234.633 267.319 234.276C271.541 233.458 274.303 229.371 273.486 225.149C272.692 221.062 268.835 218.347 264.756 218.927L264.764 218.919Z" fill="white"/>
<path d="M226.471 249.465C220.027 249.465 213.868 247.172 208.948 242.91C203.535 238.22 200.281 231.704 199.773 224.561L198.519 206.95C198.011 199.808 200.313 192.895 205.003 187.49C209.694 182.078 216.209 178.824 223.352 178.316L235.733 177.435C250.478 176.395 263.327 187.53 264.367 202.268L265.494 218.061C269.724 217.879 273.454 220.799 274.264 224.998C274.7 227.251 274.232 229.537 272.946 231.434C271.661 233.331 269.716 234.616 267.462 235.053C265.78 235.378 264.034 235.188 262.462 234.521C258.121 242.537 249.883 247.87 240.78 248.521L228.4 249.402C227.749 249.449 227.106 249.473 226.455 249.473L226.471 249.465ZM237.653 178.951C237.058 178.951 236.455 178.975 235.844 179.014L223.463 179.895C216.741 180.371 210.614 183.435 206.202 188.53C201.789 193.617 199.622 200.125 200.098 206.839L201.352 224.45C201.829 231.172 204.892 237.299 209.987 241.712C215.074 246.124 221.574 248.291 228.296 247.815L240.677 246.934C249.486 246.307 257.431 241.013 261.415 233.116L261.78 232.386L262.502 232.775C263.923 233.545 265.581 233.807 267.169 233.497C269.002 233.14 270.589 232.093 271.637 230.545C272.684 228.997 273.065 227.132 272.708 225.299C272.002 221.648 268.558 219.188 264.875 219.712L264.034 219.831L262.796 202.387C261.851 189.125 250.756 178.959 237.661 178.959L237.653 178.951Z" fill="#18292D"/>
<path d="M268.812 222.705C268.812 222.705 265.28 225.173 266.105 229.466L268.812 222.705Z" fill="white"/>
<path d="M265.327 229.609C264.407 224.863 268.192 222.157 268.359 222.046L269.264 223.347L268.811 222.697L269.272 223.347C269.145 223.435 266.169 225.593 266.891 229.308L265.335 229.609H265.327Z" fill="#18292D"/>
<path d="M198.027 203.101L196.662 202.292C199.59 197.355 203.313 195.721 205.924 195.221C208.773 194.673 210.916 195.308 211.003 195.332L210.543 196.847C210.233 196.752 203.003 194.713 198.027 203.093V203.101Z" fill="#18292D"/>
<path d="M242.542 193.427C242.328 193.189 237.272 187.626 228.614 192.118L227.884 190.705C232.979 188.07 237.002 188.649 239.486 189.602C242.193 190.641 243.677 192.316 243.732 192.387L242.542 193.435V193.427Z" fill="#18292D"/>
<path d="M232.471 177.768C237.899 201.942 253.518 218.982 268.073 216.172C273.018 215.212 277.224 212.069 280.462 207.395C274.105 183.887 258.534 167.745 243.971 170.562C239.518 171.419 235.638 173.967 232.471 177.768Z" fill="#18292D"/>
<path d="M205.09 227.299C205.122 231.061 208.201 234.085 211.963 234.053C215.725 234.021 218.749 230.942 218.717 227.18C218.685 223.418 215.606 220.394 211.844 220.426C208.082 220.458 205.059 223.537 205.09 227.299Z" fill="#96D8E8"/>
<path d="M239.558 225.768C239.59 229.529 242.669 232.553 246.431 232.522C250.193 232.49 253.217 229.41 253.185 225.649C253.153 221.887 250.074 218.863 246.312 218.895C242.55 218.927 239.526 222.006 239.558 225.768Z" fill="#96D8E8"/>
<path d="M228.939 232.744C225.217 232.744 222.169 229.736 222.138 226.006L223.725 225.99C223.749 228.847 226.082 231.157 228.939 231.157C228.955 231.157 228.971 231.157 228.987 231.157C230.376 231.141 231.685 230.593 232.661 229.593C233.637 228.601 234.169 227.284 234.153 225.895L235.741 225.879C235.756 227.696 235.066 229.411 233.788 230.704C232.518 231.998 230.812 232.72 228.995 232.736C228.971 232.736 228.955 232.736 228.931 232.736L228.939 232.744Z" fill="#18292D"/>
<path d="M209.249 216.204C207.646 216.204 206.154 215.307 205.043 213.665C203.995 212.109 203.408 210.062 203.384 207.879L204.972 207.863C204.987 209.736 205.479 211.482 206.36 212.776C207.17 213.974 208.225 214.601 209.273 214.617C210.344 214.609 211.36 213.934 212.154 212.728C213.011 211.419 213.471 209.665 213.448 207.792L215.035 207.776C215.051 209.958 214.503 212.022 213.479 213.593C212.392 215.268 210.9 216.196 209.281 216.204H209.241H209.249Z" fill="#18292D"/>
<path d="M237.804 212.911C236.209 212.911 234.717 212.046 233.614 210.466C232.558 208.966 231.971 206.982 231.947 204.871L233.535 204.855C233.55 206.641 234.035 208.316 234.908 209.554C235.709 210.697 236.733 211.323 237.804 211.323H237.828C238.9 211.316 239.931 210.665 240.717 209.506C241.566 208.252 242.026 206.578 242.011 204.784L243.598 204.768C243.614 206.879 243.058 208.871 242.034 210.387C240.947 211.998 239.455 212.887 237.844 212.903H237.804V212.911Z" fill="#18292D"/>
<path d="M218.138 220.133C217.059 218.434 216.86 217.046 217.535 216.006C218.551 214.442 221.281 214.363 222.86 214.45L220.844 204.498L222.4 204.181L224.852 216.292L223.733 216.125C222.066 215.879 219.455 215.942 218.868 216.863C218.463 217.482 219.082 218.641 219.479 219.268L218.138 220.117V220.133Z" fill="#18292D"/>
<path d="M122.726 420.84V285.969C122.726 279.199 127.964 273.708 134.432 273.708H331.714C338.174 273.708 343.42 279.199 343.42 285.969V420.84H122.726Z" fill="#18292D"/>
<path d="M133.456 410.11V285.977C133.456 285.041 134.035 284.445 134.424 284.445H331.706C332.103 284.445 332.675 285.041 332.675 285.977V410.11H133.456Z" fill="white"/>
<path d="M245.335 416.999H359.769V419.538C359.769 423.737 354.531 430.474 348.063 430.474H118.083C111.623 430.474 106.377 423.737 106.377 419.538V416.999H245.335Z" fill="white" stroke="#18292D" stroke-width="1.746" stroke-linecap="round" stroke-linejoin="round"/>
<path d="M354.86 243.782L306.867 238.314C302.049 237.765 297.694 241.229 297.145 246.047L293.168 280.956C292.619 285.774 296.083 290.129 300.901 290.678L305.264 291.175L303.524 306.445L320.534 292.915L348.894 296.146C353.712 296.695 358.067 293.231 358.616 288.413L362.593 253.504C363.142 248.686 359.678 244.331 354.86 243.782Z" fill="#4A7C88"/>
<path d="M312.708 271.352C315.138 271.629 317.333 269.883 317.61 267.453C317.887 265.023 316.141 262.828 313.711 262.551C311.28 262.274 309.086 264.02 308.809 266.45C308.532 268.881 310.278 271.075 312.708 271.352Z" fill="white"/>
<path d="M327.223 273.006C329.654 273.283 331.848 271.537 332.125 269.107C332.402 266.677 330.656 264.482 328.226 264.205C325.796 263.928 323.601 265.674 323.324 268.104C323.047 270.534 324.793 272.729 327.223 273.006Z" fill="white"/>
<path d="M341.738 274.66C344.168 274.937 346.363 273.191 346.64 270.761C346.917 268.33 345.171 266.136 342.741 265.859C340.31 265.582 338.116 267.328 337.839 269.758C337.562 272.188 339.308 274.383 341.738 274.66Z" fill="white"/>
<path d="M218.388 409.853L227.766 385.877C231.397 376.59 239.962 370.148 249.892 369.226L273.816 367.007L297.41 372.692C304.228 374.337 309.998 378.866 313.202 385.104L315.717 409.853C315.717 409.853 218.388 409.659 218.388 409.853Z" fill="white"/>
<path d="M218.388 410.422C218.32 410.422 218.252 410.411 218.184 410.382C217.893 410.268 217.745 409.938 217.859 409.642L227.238 385.667C230.971 376.118 239.632 369.602 249.841 368.657L273.765 366.438C273.828 366.438 273.891 366.438 273.953 366.449L297.547 372.134C304.535 373.819 310.425 378.451 313.715 384.842C313.749 384.905 313.766 384.973 313.777 385.047L316.293 409.796C316.327 410.109 316.099 410.388 315.786 410.422C315.479 410.45 315.194 410.229 315.16 409.916L312.656 385.274C309.509 379.225 303.915 374.849 297.285 373.25L273.788 367.588L249.955 369.801C240.178 370.706 231.887 376.949 228.308 386.094L218.929 410.069C218.844 410.291 218.627 410.433 218.4 410.433L218.388 410.422Z" fill="#18292D"/>
<path d="M286.359 370.239L289.802 357.776L269.059 352.045L264.655 367.98C262.606 368.002 260.586 368.093 258.583 368.247C259.459 379.299 265.525 387.943 273.464 388.489C281.186 389.018 288.203 381.711 290.775 371.343C289.33 370.939 287.85 370.58 286.359 370.245V370.239Z" fill="white"/>
<path d="M274.249 389.082C273.976 389.082 273.703 389.071 273.424 389.053C265.406 388.501 258.924 379.772 258.014 368.288C258.002 368.14 258.048 367.986 258.15 367.872C258.247 367.759 258.389 367.685 258.537 367.673C260.427 367.531 262.339 367.446 264.217 367.411L268.507 351.893C268.547 351.745 268.644 351.625 268.775 351.551C268.906 351.477 269.059 351.454 269.207 351.5L289.95 357.231C290.252 357.316 290.428 357.629 290.349 357.931L287.065 369.819C288.499 370.149 289.768 370.467 290.923 370.792C291.219 370.877 291.396 371.179 291.322 371.475C288.721 381.98 281.773 389.082 274.244 389.082H274.249ZM259.203 368.772C260.233 379.402 266.186 387.415 273.51 387.921C280.669 388.416 287.424 381.786 290.087 371.742C288.937 371.429 287.668 371.122 286.24 370.797C286.086 370.763 285.955 370.667 285.876 370.536C285.796 370.405 285.773 370.24 285.813 370.092L289.102 358.181L269.452 352.752L265.201 368.134C265.133 368.379 264.911 368.55 264.661 368.55C262.857 368.572 261.018 368.646 259.197 368.772H259.203Z" fill="#18292D"/>
<path d="M286.547 359.051C298.72 359.051 308.587 349.183 308.587 337.011V335.838C308.587 323.666 298.72 313.798 286.547 313.798C274.374 313.798 264.507 323.666 264.507 335.838V337.011C264.507 349.183 274.374 359.051 286.547 359.051Z" fill="#18292D"/>
<path d="M281.146 352.376C270.994 352.376 262.753 344.136 262.753 333.983V330.222C262.753 320.069 270.994 311.829 281.146 311.829C291.298 311.829 299.539 320.069 299.539 330.222V333.983C299.539 344.136 291.298 352.376 281.146 352.376Z" fill="#18292D"/>
<path d="M261.115 328.162C261.075 328.162 261.035 328.162 260.995 328.15C260.688 328.082 260.489 327.78 260.557 327.473C261.758 321.822 264.489 317.588 268.678 314.891C273.071 312.062 279.075 311.123 284.732 312.381C285.039 312.449 285.232 312.751 285.164 313.058C285.096 313.365 284.794 313.559 284.487 313.491C279.12 312.301 273.435 313.178 269.292 315.847C265.366 318.373 262.799 322.363 261.667 327.706C261.61 327.974 261.377 328.156 261.109 328.156L261.115 328.162Z" fill="#18292D"/>
<path d="M304.261 339.269L301.66 339.315V339.184C301.66 328.923 293.341 320.604 283.08 320.604H282.033C275.085 320.604 269.024 324.422 265.843 330.079L264.648 329.726C262.218 329.003 259.663 330.386 258.94 332.816C258.217 335.246 259.6 337.801 262.03 338.524L263.464 338.951C263.464 339.03 263.458 339.11 263.458 339.184V346.297C263.458 356.558 271.778 364.878 282.039 364.878H283.086C292.601 364.878 300.443 357.724 301.53 348.5L304.432 348.448C306.964 348.403 308.985 346.309 308.939 343.776C308.893 341.244 306.799 339.224 304.267 339.269H304.261Z" fill="white"/>
<path d="M283.086 365.447H282.039C271.483 365.447 262.89 356.859 262.89 346.297V339.372L261.871 339.07C260.551 338.677 259.464 337.795 258.804 336.583C258.149 335.371 258.001 333.977 258.394 332.656C258.787 331.336 259.669 330.249 260.881 329.589C262.093 328.935 263.487 328.787 264.808 329.179L265.576 329.407C269.024 323.614 275.29 320.04 282.034 320.04H283.081C293.489 320.04 301.985 328.388 302.224 338.74L304.25 338.7C305.633 338.683 306.936 339.19 307.927 340.146C308.917 341.102 309.48 342.388 309.503 343.765C309.526 345.142 309.014 346.445 308.057 347.441C307.101 348.431 305.815 348.995 304.438 349.017L302.025 349.063C300.671 358.441 292.613 365.452 283.081 365.452L283.086 365.447ZM263.339 330.101C262.679 330.101 262.025 330.266 261.427 330.591C260.483 331.103 259.794 331.951 259.487 332.981C259.179 334.011 259.293 335.098 259.805 336.043C260.318 336.987 261.165 337.676 262.195 337.983L263.63 338.41C263.874 338.484 264.039 338.711 264.034 338.962V339.19L264.028 346.303C264.028 356.233 272.109 364.314 282.039 364.314H283.086C292.209 364.314 299.897 357.491 300.967 348.437C301.001 348.152 301.234 347.942 301.519 347.936L304.421 347.885C305.497 347.868 306.498 347.43 307.244 346.656C307.989 345.882 308.388 344.863 308.37 343.793C308.353 342.718 307.915 341.716 307.141 340.971C306.367 340.225 305.354 339.821 304.279 339.844L301.678 339.889C301.507 339.889 301.376 339.833 301.268 339.724C301.16 339.616 301.098 339.468 301.098 339.32V339.19C301.098 329.259 293.017 321.178 283.086 321.178H282.039C275.552 321.178 269.537 324.695 266.344 330.363C266.213 330.596 265.94 330.705 265.684 330.631L264.489 330.278C264.108 330.164 263.721 330.107 263.339 330.107V330.101Z" fill="#18292D"/>
<path d="M302.607 339.116V339.151C299.318 336.925 296.888 329.175 296.888 319.956V319.921C300.177 322.146 302.607 329.897 302.607 339.116Z" fill="#18292D"/>
<path d="M263.88 336.385C263.852 336.385 263.818 336.385 263.784 336.379C263.476 336.328 263.266 336.032 263.317 335.724C263.681 333.528 261.911 332.418 261.837 332.373C261.57 332.208 261.485 331.86 261.65 331.593C261.815 331.325 262.162 331.24 262.429 331.399C262.532 331.462 264.939 332.942 264.444 335.918C264.398 336.197 264.154 336.396 263.88 336.396V336.385Z" fill="#18292D"/>
<path d="M302.294 345.831C302.294 345.831 302.254 345.831 302.231 345.831C301.918 345.797 301.69 345.518 301.725 345.205C302.043 342.212 304.758 341.426 304.877 341.392C305.179 341.312 305.492 341.489 305.577 341.791C305.663 342.092 305.486 342.405 305.185 342.49C305.094 342.519 303.096 343.116 302.863 345.324C302.834 345.615 302.584 345.831 302.299 345.831H302.294Z" fill="#18292D"/>
<path d="M288.305 335.19C288.032 335.901 289.409 337.096 291.384 337.859C293.358 338.621 295.185 338.655 295.458 337.944C295.732 337.233 294.354 336.038 292.38 335.275C290.405 334.512 288.578 334.478 288.305 335.19Z" fill="#18292D"/>
<path d="M274.113 334.17C274.164 334.933 275.923 335.433 278.034 335.285C280.145 335.137 281.813 334.403 281.761 333.641C281.71 332.878 279.952 332.377 277.84 332.525C275.729 332.673 274.062 333.407 274.113 334.17Z" fill="#18292D"/>
<path d="M282.626 346.991C282.336 346.991 282.091 346.775 282.063 346.479C282.029 346.166 282.256 345.887 282.569 345.853C283.116 345.796 283.599 345.523 283.924 345.074C284.248 344.63 284.368 344.083 284.254 343.543L283.241 338.643C283.178 338.336 283.378 338.034 283.685 337.971C283.992 337.909 284.294 338.108 284.356 338.415L285.369 343.315C285.546 344.163 285.352 345.051 284.84 345.745C284.328 346.445 283.543 346.895 282.683 346.98C282.666 346.98 282.643 346.98 282.626 346.98V346.991Z" fill="#18292D"/>
<path d="M279.702 355.863C279.115 355.863 278.563 355.727 278.04 355.448C275.906 354.321 275.183 351.265 275.155 351.134C275.086 350.827 275.274 350.525 275.581 350.451C275.889 350.377 276.19 350.571 276.264 350.878C276.27 350.907 276.902 353.564 278.575 354.441C279.263 354.805 280.032 354.816 280.925 354.469C281.215 354.355 281.545 354.497 281.659 354.793C281.773 355.084 281.631 355.414 281.335 355.528C280.766 355.749 280.219 355.858 279.696 355.858L279.702 355.863Z" fill="#18292D"/>
<path d="M276.395 316.705C272.645 317.963 269.372 319.63 266.959 321.377C267.045 322.06 267.193 322.743 267.42 323.409C268.485 326.584 270.989 328.963 274.232 330.3C276.196 329.976 278.29 329.453 280.435 328.735C289.085 325.827 295.191 320.78 294.076 317.462C292.961 314.139 285.045 313.803 276.395 316.711V316.705Z" fill="#18292D"/>
<path d="M303.239 326.823C305.578 330.016 306.192 333.533 305.475 336.429C304.809 336.606 304.121 336.719 303.421 336.765C300.08 336.964 296.939 335.53 294.481 333.02C295.363 330.869 294.082 326.613 291.1 323.414C284.874 316.745 296.211 317.24 303.239 326.823Z" fill="#18292D"/>
<path d="M277.493 339.72C277.436 341.011 278.057 342.087 278.882 342.127C279.707 342.161 280.418 341.142 280.475 339.85C280.532 338.559 279.912 337.483 279.087 337.443C278.261 337.409 277.55 338.428 277.493 339.72Z" fill="#18292D"/>
<path d="M289.575 342.627C289.518 343.919 290.138 344.994 290.963 345.034C291.789 345.068 292.5 344.049 292.557 342.758C292.614 341.466 291.993 340.39 291.168 340.35C290.343 340.316 289.632 341.335 289.575 342.627Z" fill="#18292D"/>
<path d="M290.74 316.518C290.74 316.518 290.718 316.518 290.706 316.518C290.393 316.501 290.154 316.228 290.171 315.915C290.331 313.325 287.172 311.812 287.144 311.8C286.859 311.669 286.734 311.328 286.871 311.043C287.007 310.759 287.343 310.639 287.627 310.77C287.787 310.844 291.52 312.62 291.309 315.989C291.292 316.29 291.042 316.524 290.74 316.524V316.518Z" fill="#18292D"/>
<path d="M290.987 315.032C290.958 315.032 290.924 315.032 290.896 315.027C290.588 314.975 290.378 314.685 290.423 314.372C290.713 312.597 292.096 312.085 292.791 312.056C293.115 312.033 293.371 312.289 293.382 312.602C293.394 312.915 293.149 313.177 292.842 313.189C292.728 313.194 291.755 313.291 291.55 314.549C291.504 314.828 291.265 315.027 290.987 315.027V315.032Z" fill="#18292D"/>
<path d="M279.286 331.166C279.024 331.166 278.791 330.984 278.728 330.722C278.66 330.415 278.853 330.113 279.161 330.045C284.299 328.901 288.169 326.431 290.673 322.71C290.849 322.448 291.202 322.38 291.464 322.556C291.726 322.732 291.794 323.085 291.618 323.347C288.949 327.319 284.84 329.948 279.411 331.16C279.371 331.172 279.326 331.172 279.286 331.172V331.166Z" fill="#18292D"/>
<path d="M265.839 325.191L265.338 337.575L267.347 338.11L272.366 323.843L265.839 325.191Z" fill="#18292D"/>
<path d="M237.446 410.002C237.349 410.002 237.253 409.979 237.167 409.928C236.894 409.774 236.797 409.427 236.951 409.154L241.43 401.232C241.583 400.959 241.93 400.862 242.204 401.016C242.477 401.17 242.573 401.517 242.42 401.79L237.941 409.711C237.839 409.899 237.645 410.002 237.446 410.002Z" fill="#18292D"/>
<path d="M300.7 410.177C300.387 410.177 300.131 409.921 300.131 409.608V400.509C300.131 400.196 300.387 399.939 300.7 399.939C301.013 399.939 301.269 400.196 301.269 400.509V409.608C301.269 409.921 301.013 410.177 300.7 410.177Z" fill="#18292D"/>
<path d="M229.781 410.161C231.039 404.442 231.779 396.64 231.75 385.992L231.472 383.705C230.675 377.172 225.917 371.817 219.527 370.257L185.672 361.989C179.953 360.589 173.926 362.489 170.04 366.911L149.633 410.161H229.781Z" fill="#96D8E8"/>
<path d="M198.772 364.794L207.12 378.014C209.334 381.52 214.643 380.803 215.85 376.842L225.314 345.804L206.676 339.892L198.772 364.8V364.794Z" fill="white"/>
<path d="M211.189 380.836C209.345 380.836 207.644 379.908 206.636 378.309L198.288 365.095C198.197 364.953 198.174 364.776 198.225 364.617L206.13 339.709C206.175 339.566 206.278 339.447 206.409 339.373C206.545 339.305 206.699 339.287 206.841 339.333L225.478 345.246C225.774 345.342 225.939 345.655 225.848 345.957L216.39 376.995C215.764 379.043 214.057 380.494 211.934 380.779C211.684 380.813 211.434 380.83 211.189 380.83V380.836ZM199.392 364.708L207.598 377.7C208.503 379.134 210.108 379.886 211.781 379.652C213.46 379.425 214.808 378.281 215.298 376.665L224.596 346.168L207.04 340.596L199.392 364.708Z" fill="#18292D"/>
<path d="M210.597 310.157L215.303 310.732C226.27 312.075 234.857 320.281 236.137 330.633L237.68 343.135C238.254 347.807 234.749 352.058 229.798 352.673L210.813 355.035L210.597 310.157Z" fill="#18292D"/>
<path d="M219.413 310.59L213.938 310.203C201.185 309.304 189.838 316.013 186.418 326.473L182.286 339.101C180.744 343.824 183.936 348.952 189.462 350.619L210.66 357.021L219.413 310.584V310.59Z" fill="#18292D"/>
<path d="M217.518 315.865C217.45 315.865 217.382 315.853 217.313 315.825C217.017 315.711 216.869 315.387 216.983 315.091L221.365 303.573C221.957 302.019 221.689 300.369 220.608 298.929C220.42 298.679 220.472 298.32 220.722 298.132C220.972 297.944 221.331 297.996 221.519 298.246C222.822 299.982 223.152 302.07 222.429 303.977L218.047 315.495C217.962 315.722 217.746 315.859 217.518 315.859V315.865Z" fill="#18292D"/>
<path d="M217.302 315.46L220.295 303.651C221.234 299.952 218.531 296.31 214.524 295.878L210.086 295.4C205.67 294.922 201.982 298.553 202.682 302.69L204.97 316.274L217.302 315.46Z" fill="#18292D"/>
<path d="M186.868 330.746C187.779 327.679 191.005 325.938 194.067 326.848L194.164 326.877C196.702 318.062 203.331 311.773 211.105 311.773C219.71 311.773 226.897 319.467 228.712 329.768C231.387 329.887 233.709 331.856 234.164 334.599C234.688 337.752 232.559 340.734 229.401 341.263L228.411 341.428C226.197 350.972 219.288 357.937 211.105 357.937C202.159 357.937 194.738 349.617 193.304 338.702L190.761 337.945C187.693 337.035 185.946 333.808 186.862 330.746H186.868Z" fill="white"/>
<path d="M211.116 358.506C202.074 358.506 194.42 350.385 192.803 339.146L190.612 338.492C188.985 338.008 187.642 336.921 186.834 335.424C186.026 333.933 185.844 332.209 186.327 330.582C186.811 328.954 187.898 327.611 189.395 326.803C190.749 326.069 192.291 325.852 193.788 326.183C196.576 317.197 203.479 311.199 211.116 311.199C219.783 311.199 227.17 318.591 229.207 329.227C231.984 329.551 234.278 331.703 234.739 334.502C235.018 336.176 234.625 337.86 233.64 339.243C232.65 340.626 231.188 341.542 229.509 341.821L228.889 341.923C226.481 351.706 219.214 358.5 211.116 358.5V358.506ZM192.416 327.173C191.557 327.173 190.709 327.389 189.935 327.804C188.712 328.47 187.813 329.569 187.42 330.906C187.022 332.243 187.17 333.655 187.835 334.878C188.501 336.102 189.599 337.001 190.937 337.393L193.481 338.15C193.697 338.213 193.85 338.401 193.885 338.623C195.313 349.481 202.557 357.362 211.116 357.362C218.782 357.362 225.673 350.755 227.87 341.292C227.921 341.07 228.103 340.899 228.331 340.859L229.327 340.694C230.704 340.466 231.905 339.715 232.718 338.583C233.532 337.45 233.851 336.067 233.623 334.69C233.219 332.272 231.154 330.439 228.706 330.331C228.439 330.32 228.217 330.126 228.172 329.859C226.385 319.706 219.214 312.337 211.122 312.337C203.849 312.337 197.259 318.244 194.727 327.03C194.687 327.178 194.585 327.298 194.454 327.372C194.323 327.446 194.163 327.463 194.021 327.417L193.924 327.389C193.429 327.241 192.929 327.167 192.428 327.167L192.416 327.173Z" fill="#18292D"/>
<path d="M203.172 313.098C205.642 311.465 208.413 310.543 211.344 310.543C220.199 310.543 227.603 318.903 229.469 330.091C230.055 330.119 230.619 330.239 231.159 330.438C220.745 330.961 210.126 324.263 203.167 313.098H203.172Z" fill="#18292D"/>
<path d="M224.256 332.584C224.256 332.584 224.216 332.584 224.199 332.584C215.805 331.759 207.929 325.106 203.649 315.221C203.524 314.931 203.655 314.595 203.945 314.47C204.235 314.345 204.571 314.476 204.691 314.766C208.805 324.27 216.323 330.666 224.307 331.452C224.62 331.48 224.847 331.759 224.819 332.072C224.79 332.368 224.54 332.584 224.256 332.584Z" fill="#18292D"/>
<path d="M206.751 324.088C206.569 324.088 206.392 324.003 206.284 323.843C204.23 320.901 203.018 317.407 202.682 313.452C202.654 313.139 202.887 312.866 203.2 312.837C203.513 312.803 203.786 313.042 203.815 313.355C204.133 317.111 205.277 320.417 207.218 323.194C207.4 323.451 207.337 323.809 207.075 323.985C206.979 324.054 206.865 324.088 206.751 324.088Z" fill="#18292D"/>
<path d="M193.56 334.741C193.531 334.741 193.497 334.741 193.463 334.735C193.156 334.684 192.945 334.388 192.996 334.081C193.321 332.123 191.739 331.127 191.676 331.087C191.409 330.922 191.323 330.575 191.488 330.308C191.648 330.04 191.995 329.955 192.268 330.114C192.365 330.171 194.578 331.537 194.123 334.269C194.078 334.547 193.833 334.747 193.56 334.747V334.741Z" fill="#18292D"/>
<path d="M229.372 337.319C229.093 337.319 228.848 337.114 228.809 336.824C228.797 336.716 228.484 334.127 230.908 332.789C231.182 332.636 231.529 332.738 231.682 333.011C231.836 333.285 231.734 333.632 231.46 333.785C229.725 334.747 229.93 336.602 229.935 336.682C229.975 336.995 229.753 337.279 229.44 337.314C229.417 337.314 229.389 337.314 229.366 337.314L229.372 337.319Z" fill="#18292D"/>
<path d="M217.165 341.286C213.33 341.286 210.211 338.167 210.211 334.332C210.211 330.496 213.33 327.377 217.165 327.377C221.001 327.377 224.119 330.496 224.119 334.332C224.119 338.167 221.001 341.286 217.165 341.286ZM217.165 328.521C213.961 328.521 211.349 331.128 211.349 334.337C211.349 337.547 213.956 340.153 217.165 340.153C220.375 340.153 222.981 337.547 222.981 334.337C222.981 331.128 220.375 328.521 217.165 328.521Z" fill="#FFC31F"/>
<path d="M202.192 341.286C198.357 341.286 195.238 338.167 195.238 334.332C195.238 330.496 198.357 327.377 202.192 327.377C206.028 327.377 209.147 330.496 209.147 334.332C209.147 338.167 206.028 341.286 202.192 341.286ZM202.192 328.521C198.989 328.521 196.376 331.128 196.376 334.337C196.376 337.547 198.983 340.153 202.192 340.153C205.402 340.153 208.008 337.547 208.008 334.337C208.008 331.128 205.402 328.521 202.192 328.521Z" fill="#FFC31F"/>
<path d="M210.371 335.533H209.067C208.754 335.533 208.498 335.277 208.498 334.964C208.498 334.651 208.754 334.395 209.067 334.395H210.371C210.684 334.395 210.94 334.651 210.94 334.964C210.94 335.277 210.684 335.533 210.371 335.533Z" fill="#FFC31F"/>
<path d="M217.41 334.781C217.33 335.953 216.659 336.864 215.913 336.807C215.168 336.756 214.627 335.76 214.713 334.588C214.792 333.415 215.464 332.505 216.209 332.562C216.955 332.619 217.496 333.609 217.41 334.781Z" fill="#18292D"/>
<path d="M205.436 334.633C205.436 335.806 204.827 336.762 204.082 336.762C203.336 336.762 202.728 335.811 202.728 334.633C202.728 333.455 203.336 332.505 204.082 332.505C204.827 332.505 205.436 333.455 205.436 334.633Z" fill="#18292D"/>
<path d="M211.434 350.766C211.172 350.766 210.933 350.584 210.876 350.316C210.814 350.009 211.007 349.707 211.315 349.645C214.695 348.933 216.351 346.435 216.368 346.412C216.539 346.151 216.892 346.071 217.153 346.242C217.415 346.412 217.495 346.765 217.324 347.027C217.25 347.146 215.412 349.946 211.548 350.754C211.508 350.76 211.468 350.766 211.428 350.766H211.434Z" fill="#18292D"/>
<path d="M209.3 343.931C209.261 343.931 209.215 343.931 209.175 343.914C208.396 343.732 207.724 343.231 207.331 342.531C206.939 341.831 206.865 340.995 207.121 340.238L208.578 335.93C208.68 335.634 209.005 335.474 209.3 335.571C209.596 335.674 209.756 335.998 209.659 336.294L208.202 340.602C208.048 341.063 208.088 341.552 208.327 341.973C208.566 342.4 208.959 342.69 209.431 342.804C209.739 342.873 209.926 343.18 209.858 343.487C209.796 343.749 209.562 343.931 209.306 343.931H209.3Z" fill="#18292D"/>
<path d="M219.265 311.636C219.203 311.636 219.14 311.625 219.078 311.602C210.16 308.432 203.963 311.147 203.9 311.175C203.616 311.306 203.274 311.175 203.149 310.891C203.018 310.606 203.149 310.27 203.434 310.139C203.701 310.02 210.115 307.209 219.459 310.532C219.755 310.64 219.908 310.965 219.806 311.261C219.721 311.494 219.504 311.636 219.271 311.636H219.265Z" fill="#FFC31F"/>
<path d="M179.51 365.124L176.437 367.844L176.613 364.048C176.681 362.58 177.273 361.186 178.286 360.122C179.185 359.177 179.999 359.08 181.752 359.632L190.726 362.796L189.503 364.356C188.632 365.471 187.238 366.046 185.838 365.875L179.515 365.118L179.51 365.124Z" fill="white"/>
<path d="M176.437 368.414C176.352 368.414 176.272 368.397 176.192 368.357C175.988 368.26 175.857 368.044 175.868 367.816L176.045 364.02C176.119 362.416 176.767 360.89 177.877 359.729C179.055 358.495 180.204 358.551 181.923 359.086L190.915 362.256C191.085 362.319 191.222 362.455 191.273 362.632C191.324 362.808 191.29 362.996 191.176 363.144L189.953 364.703C188.963 365.967 187.363 366.627 185.77 366.439L179.698 365.71L176.813 368.26C176.705 368.357 176.574 368.402 176.437 368.402V368.414ZM180.039 359.86C179.459 359.86 179.106 360.088 178.702 360.515C177.786 361.482 177.245 362.746 177.183 364.072L177.069 366.524L179.135 364.698C179.254 364.589 179.419 364.538 179.579 364.561L185.901 365.318C187.102 365.46 188.308 364.959 189.054 364.009L189.788 363.07L181.565 360.168C180.904 359.963 180.426 359.86 180.045 359.86H180.039Z" fill="#18292D"/>
<path d="M175.85 369.506L172.197 372.738L172.407 368.231C172.487 366.49 173.193 364.834 174.399 363.57C175.469 362.449 177.171 362.204 178.514 362.99L190.089 369.528L187.795 371.776C186.606 372.943 184.847 373.301 183.299 372.692L175.856 369.511L175.85 369.506Z" fill="white"/>
<path d="M184.83 373.551C184.244 373.551 183.652 373.443 183.083 373.221L175.958 370.171L172.578 373.165C172.407 373.318 172.162 373.352 171.957 373.25C171.753 373.153 171.622 372.937 171.633 372.709L171.844 368.202C171.929 366.324 172.691 364.537 173.989 363.177C175.247 361.857 177.227 361.578 178.798 362.494L190.367 369.027C190.521 369.118 190.629 369.272 190.652 369.448C190.674 369.625 190.612 369.801 190.487 369.926L188.193 372.18C187.283 373.073 186.071 373.551 184.836 373.551H184.83ZM175.85 368.942C175.924 368.942 176.004 368.959 176.072 368.987L183.515 372.169C184.836 372.686 186.366 372.379 187.391 371.372L189.144 369.653L178.229 363.49C177.102 362.836 175.702 363.035 174.808 363.968C173.699 365.135 173.05 366.654 172.976 368.259L172.828 371.423L175.474 369.084C175.582 368.987 175.713 368.942 175.85 368.942Z" fill="#18292D"/>
<path d="M171.047 373.757L167.393 376.989L167.604 372.482C167.684 370.741 168.389 369.085 169.596 367.822C170.666 366.701 172.367 366.456 173.71 367.241L184.266 373.256L181.973 375.51C180.784 376.676 179.025 377.035 177.477 376.426L171.058 373.768L171.047 373.757Z" fill="white"/>
<path d="M167.399 377.559C167.313 377.559 167.234 377.542 167.154 377.502C166.949 377.406 166.818 377.189 166.83 376.962L167.04 372.455C167.125 370.577 167.888 368.79 169.186 367.43C170.443 366.109 172.424 365.825 174 366.747L184.551 372.756C184.704 372.847 184.812 373.001 184.835 373.177C184.858 373.354 184.795 373.53 184.67 373.655L182.377 375.909C181.028 377.229 179.025 377.633 177.272 376.95L171.172 374.424L167.786 377.417C167.677 377.514 167.547 377.559 167.41 377.559H167.399ZM171.052 373.189C171.126 373.189 171.2 373.206 171.268 373.234L177.688 375.892C179.013 376.415 180.544 376.102 181.569 375.095L183.327 373.371L173.425 367.731C172.304 367.077 170.898 367.276 170.005 368.209C168.895 369.37 168.247 370.895 168.173 372.5L168.025 375.664L170.671 373.325C170.779 373.229 170.91 373.183 171.046 373.183L171.052 373.189Z" fill="#18292D"/>
<path d="M166.484 377.791L162.831 381.023L163.041 376.516C163.121 374.775 163.826 373.119 165.033 371.855C166.103 370.734 167.804 370.49 169.147 371.275L178.218 376.567L175.925 378.815C174.736 379.982 172.977 380.34 171.429 379.731L166.49 377.791H166.484Z" fill="white"/>
<path d="M162.836 381.592C162.751 381.592 162.671 381.575 162.591 381.536C162.386 381.439 162.255 381.223 162.267 380.995L162.477 376.488C162.563 374.61 163.325 372.823 164.623 371.463C165.88 370.143 167.861 369.864 169.431 370.78L178.503 376.072C178.656 376.163 178.759 376.317 178.781 376.493C178.804 376.67 178.742 376.846 178.616 376.972L176.323 379.225C174.98 380.545 172.977 380.955 171.218 380.261L166.603 378.451L163.211 381.45C163.103 381.547 162.972 381.592 162.836 381.592ZM167.457 371.383C166.717 371.383 165.989 371.679 165.448 372.248C164.338 373.409 163.689 374.934 163.616 376.539L163.468 379.703L166.114 377.364C166.273 377.222 166.501 377.182 166.7 377.262L171.64 379.202C172.977 379.726 174.508 379.419 175.532 378.411L177.296 376.681L168.868 371.764C168.43 371.508 167.946 371.383 167.462 371.383H167.457Z" fill="#18292D"/>
<path d="M177.569 410.604C177.495 410.604 177.416 410.587 177.342 410.559C177.051 410.434 176.921 410.098 177.046 409.813L181.837 398.711C181.963 398.42 182.298 398.289 182.583 398.415C182.873 398.54 183.004 398.876 182.879 399.16L178.087 410.263C177.996 410.479 177.786 410.604 177.564 410.604H177.569Z" fill="white"/>
<path d="M112.95 377.986C112.887 377.891 112.514 350.765 112.514 350.765C112.514 350.606 112.569 350.455 112.68 350.336L115.942 346.844C115.926 346.78 115.91 346.709 115.918 346.638L118.625 322.583C118.648 322.384 118.76 322.21 118.934 322.114C119.109 322.019 119.315 322.011 119.498 322.098C119.672 322.186 123.894 324.233 125.029 326.519C126.021 328.527 125.942 334.519 125.894 336.178L130.863 330.852C130.997 330.709 131.196 330.638 131.386 330.662C131.585 330.686 131.751 330.805 131.847 330.979C132.013 331.281 135.791 338.376 131.521 342.519C131.45 342.582 131.378 342.662 131.299 342.733C131.315 342.741 131.339 342.741 131.355 342.757C131.434 342.812 133.402 344.209 133.728 346.741C133.982 348.653 133.236 350.653 131.521 352.685C130.72 353.637 129.982 354.558 129.355 355.352L130.077 363.399C130.077 363.399 127.029 368.082 123.069 371.28L112.95 377.978V377.986Z" fill="white"/>
<path d="M115.871 347.376C115.871 347.376 115.807 347.376 115.776 347.376C115.339 347.328 115.03 346.931 115.077 346.495L117.99 321.456C118.022 321.202 118.173 320.979 118.395 320.852C118.617 320.725 118.887 320.725 119.125 320.829C119.593 321.051 123.76 323.098 124.934 325.479C126.077 327.797 125.831 335.146 125.799 335.979C125.783 336.416 125.395 336.757 124.974 336.741C124.537 336.725 124.196 336.352 124.212 335.916C124.291 333.773 124.323 327.836 123.506 326.178C122.887 324.924 120.839 323.575 119.426 322.781L116.649 346.669C116.601 347.074 116.26 347.368 115.863 347.368L115.871 347.376Z" fill="#18292D"/>
<path d="M122.903 395.01C122.649 395.01 122.403 394.891 122.244 394.661L112.379 380.249C112.292 380.122 112.244 379.971 112.244 379.82L111.538 350.82C111.538 350.614 111.61 350.408 111.752 350.257L130.736 329.916C130.911 329.734 131.165 329.638 131.419 329.67C131.673 329.702 131.895 329.853 132.014 330.083C132.181 330.4 136.149 337.868 131.601 342.281C127.498 346.257 113.832 361.043 113.689 361.185C113.602 361.281 113.49 361.352 113.379 361.392L113.824 379.55L123.554 393.772C123.8 394.137 123.712 394.629 123.347 394.875C123.212 394.97 123.054 395.01 122.903 395.01ZM113.133 351.106L113.332 359.241C116.348 355.995 126.95 344.583 130.498 341.138C133.308 338.416 131.919 333.884 131.093 331.868L113.133 351.106Z" fill="#18292D"/>
<path d="M126.633 358.606C126.474 358.606 126.307 358.559 126.165 358.455C125.807 358.194 125.736 357.702 125.99 357.344C126.006 357.321 127.926 354.686 130.355 351.821C131.879 350.019 132.545 348.305 132.347 346.733C132.093 344.749 130.506 343.599 130.49 343.583C130.133 343.329 130.045 342.837 130.299 342.48C130.553 342.122 131.037 342.035 131.403 342.281C131.49 342.345 133.569 343.821 133.926 346.503C134.196 348.543 133.403 350.678 131.577 352.844C129.188 355.67 127.307 358.249 127.284 358.281C127.125 358.495 126.887 358.606 126.641 358.606H126.633Z" fill="#18292D"/>
<path d="M122.45 379.812C122.45 379.812 122.419 379.812 122.395 379.812C121.958 379.781 121.625 379.408 121.657 378.971L122.165 371.122C122.18 370.916 122.276 370.717 122.427 370.582C122.482 370.535 127.911 365.662 129.379 363.027C130.268 361.432 129.49 358.892 128.823 357.392L116.958 366.797C116.617 367.066 116.117 367.011 115.847 366.67C115.577 366.328 115.633 365.828 115.974 365.551L128.601 355.535C128.784 355.392 129.022 355.337 129.244 355.376C129.474 355.424 129.672 355.567 129.784 355.765C129.895 355.964 132.498 360.654 130.76 363.789C129.331 366.352 124.831 370.527 123.72 371.543L123.228 379.074C123.204 379.495 122.855 379.812 122.434 379.812H122.45Z" fill="#18292D"/>
<path d="M353.189 377.986C353.252 377.891 353.625 350.765 353.625 350.765C353.625 350.606 353.57 350.455 353.458 350.336L350.197 346.844C350.212 346.78 350.228 346.709 350.22 346.638L347.514 322.583C347.49 322.384 347.379 322.21 347.205 322.114C347.03 322.019 346.824 322.011 346.641 322.098C346.467 322.186 342.244 324.233 341.109 326.519C340.117 328.527 340.197 334.519 340.244 336.178L335.276 330.852C335.141 330.709 334.943 330.638 334.752 330.662C334.554 330.686 334.387 330.805 334.292 330.979C334.125 331.281 330.348 338.376 334.618 342.519C334.689 342.582 334.76 342.662 334.84 342.733C334.824 342.741 334.8 342.741 334.784 342.757C334.705 342.812 332.737 344.209 332.411 346.741C332.157 348.653 332.903 350.653 334.618 352.685C335.419 353.637 336.157 354.558 336.784 355.352L336.062 363.399C336.062 363.399 337.117 366.812 342.514 370.185L353.189 377.978V377.986Z" fill="white"/>
<path d="M350.26 347.375C349.863 347.375 349.522 347.082 349.474 346.677L346.696 322.788C345.284 323.582 343.236 324.939 342.617 326.185C341.8 327.844 341.831 333.78 341.911 335.923C341.927 336.36 341.585 336.733 341.149 336.748C340.704 336.764 340.339 336.423 340.323 335.987C340.292 335.153 340.046 327.804 341.188 325.487C342.363 323.106 346.53 321.058 346.998 320.836C347.228 320.725 347.498 320.733 347.728 320.86C347.95 320.987 348.101 321.209 348.133 321.463L351.045 346.502C351.093 346.939 350.783 347.328 350.347 347.383C350.315 347.383 350.283 347.383 350.252 347.383L350.26 347.375Z" fill="#18292D"/>
<path d="M343.236 395.009C343.085 395.009 342.926 394.962 342.792 394.874C342.426 394.628 342.339 394.136 342.585 393.771L352.315 379.549L352.76 361.399C352.648 361.359 352.537 361.288 352.45 361.193C352.315 361.042 338.641 346.264 334.538 342.288C329.99 337.876 333.95 330.407 334.125 330.09C334.244 329.868 334.466 329.709 334.72 329.677C334.974 329.646 335.228 329.733 335.403 329.923L354.387 350.264C354.529 350.415 354.601 350.613 354.601 350.828L353.894 379.827C353.894 379.978 353.839 380.129 353.76 380.256L343.895 394.668C343.744 394.89 343.49 395.017 343.236 395.017V395.009ZM335.054 331.868C334.22 333.891 332.839 338.415 335.649 341.137C339.196 344.582 349.807 355.994 352.815 359.24L353.014 351.105L335.054 331.868Z" fill="#18292D"/>
<path d="M339.506 358.605C339.26 358.605 339.022 358.494 338.863 358.28C338.847 358.256 336.958 355.669 334.57 352.844C332.744 350.677 331.951 348.542 332.22 346.502C332.577 343.82 334.657 342.344 334.744 342.28C335.101 342.026 335.601 342.122 335.847 342.479C336.101 342.836 336.006 343.336 335.649 343.582C335.633 343.59 334.046 344.741 333.792 346.725C333.593 348.296 334.26 350.01 335.784 351.812C338.204 354.677 340.125 357.312 340.149 357.336C340.411 357.693 340.331 358.185 339.974 358.447C339.831 358.55 339.673 358.597 339.506 358.597V358.605Z" fill="#18292D"/>
<path d="M343.688 379.812C343.276 379.812 342.927 379.486 342.895 379.066L342.411 371.534C341.3 370.526 336.8 366.344 335.371 363.78C333.625 360.645 336.236 355.955 336.347 355.757C336.458 355.558 336.657 355.415 336.887 355.368C337.117 355.32 337.355 355.384 337.53 355.526L350.157 365.542C350.498 365.812 350.561 366.312 350.284 366.661C350.014 367.002 349.514 367.058 349.173 366.788L337.308 357.384C336.641 358.883 335.863 361.423 336.752 363.018C338.22 365.653 343.649 370.526 343.704 370.574C343.863 370.709 343.95 370.907 343.966 371.113L344.474 378.962C344.506 379.399 344.173 379.78 343.736 379.804C343.72 379.804 343.704 379.804 343.681 379.804L343.688 379.812Z" fill="#18292D"/>
<circle cx="360" cy="81" r="49.5" fill="white" stroke="#18292D"/>
<g clip-path="url(#clip1_938_11206)">
<path d="M378.229 70.6262C378.229 69.2694 377.15 68.168 375.816 68.168C370.939 68.168 359.999 68.168 355.451 68.168C351.091 68.168 340.009 68.168 335.087 68.168C333.753 68.168 332.669 69.2694 332.669 70.6262V99.4042C332.669 100.767 333.753 101.868 335.093 101.862L346.493 101.834C347.021 101.857 347.185 102.64 346.85 103.055C344.108 106.455 342.07 107.909 342.07 107.909C342.07 107.909 349.922 107.602 356.269 102.68C356.865 102.22 357.348 101.783 358.267 101.766L375.81 101.8C377.144 101.8 378.229 100.699 378.229 99.3417V70.6262Z" fill="white" stroke="#18292D" stroke-width="1.23815" stroke-linecap="round" stroke-linejoin="round"/>
<path d="M340.487 76.7412H370.093" stroke="#FFC31F" stroke-width="1.23815" stroke-linecap="round" stroke-linejoin="round"/>
<path d="M340.487 82.5659H370.093" stroke="#FFC31F" stroke-width="1.23815" stroke-linecap="round" stroke-linejoin="round"/>
<path d="M340.487 88.397H368.526" stroke="#FFC31F" stroke-width="1.23815" stroke-linecap="round" stroke-linejoin="round"/>
<path d="M340.487 94.2207H359.352" stroke="#FFC31F" stroke-width="1.23815" stroke-linecap="round" stroke-linejoin="round"/>
<path d="M387.415 55.8426C386.274 55.0932 384.713 55.4225 383.952 56.5693L364.899 85.3302C364.814 85.4608 364.741 85.5971 364.684 85.739L361.987 94.0618C361.925 94.2208 362.01 94.2776 362.135 94.1583L368.76 88.4357C368.868 88.3278 368.964 88.2086 369.05 88.078L388.108 59.3C388.869 58.1476 388.557 56.592 387.415 55.8426Z" fill="white" stroke="#18292D" stroke-width="1.23815" stroke-linecap="round" stroke-linejoin="round"/>
<path d="M383.952 56.5693C384.713 55.4225 386.274 55.0932 387.415 55.8426C388.557 56.592 388.869 58.1476 388.108 59.3L387.506 59.5451L383.702 57.0085L383.952 56.5693Z" fill="#18292D"/>
<path d="M361.987 94.0618C361.925 94.2208 362.01 94.2776 362.135 94.1583M387.415 55.8426C386.274 55.0932 384.713 55.4225 383.952 56.5693L383.702 57.0085L387.506 59.5451L388.108 59.3C388.869 58.1476 388.557 56.592 387.415 55.8426Z" stroke="#18292D" stroke-width="1.23815" stroke-linecap="round" stroke-linejoin="round"/>
<path d="M381.767 59.9126L385.838 62.6036" stroke="#18292D" stroke-width="1.23815" stroke-linecap="round" stroke-linejoin="round"/>
<path d="M363.434 89.5879L365.7 91.0753" stroke="#18292D" stroke-width="1.23815" stroke-linecap="round" stroke-linejoin="round"/>
<path d="M383.526 57.353L387.602 60.027" stroke="#18292D" stroke-width="1.23815" stroke-linecap="round" stroke-linejoin="round"/>
<path d="M366.949 86.8917L383.765 61.2476" stroke="#18292D" stroke-width="1.23815" stroke-linecap="round" stroke-linejoin="round"/>
<path d="M364.803 85.4834L368.959 88.2085" stroke="#18292D" stroke-width="1.23815" stroke-linecap="round" stroke-linejoin="round"/>
</g>
<circle cx="117" cy="81" r="49.5" fill="white" stroke="#18292D"/>
<g clip-path="url(#clip2_938_11206)">
<path d="M117.035 64.1826C119.154 64.1826 120.872 62.403 120.872 60.2078C120.872 58.0125 119.154 56.2329 117.035 56.2329C114.915 56.2329 113.197 58.0125 113.197 60.2078C113.197 62.403 114.915 64.1826 117.035 64.1826Z" fill="white" stroke="#18292D" stroke-width="1.03322" stroke-linecap="round" stroke-linejoin="round"/>
<path d="M124.387 75.2775C124.387 75.2775 124.032 67.5647 119.474 67.4226C117.608 67.3657 115.992 67.3847 114.642 67.4131C109.89 67.5031 109.942 75.3249 109.942 75.3249C109.942 76.026 113.178 76.5898 117.167 76.5898C121.156 76.5898 124.392 76.0213 124.392 75.3249C124.392 75.3107 124.392 75.2917 124.387 75.2775Z" fill="white"/>
<path d="M124.387 75.2775C124.387 75.2775 124.032 67.5647 119.474 67.4226C117.608 67.3657 115.992 67.3847 114.642 67.4131C109.89 67.5031 109.942 75.3249 109.942 75.3249C109.942 76.026 113.178 76.5898 117.167 76.5898C121.156 76.5898 124.392 76.0213 124.392 75.3249C124.392 75.3107 124.392 75.2917 124.387 75.2775ZM124.387 75.2775H124.392" stroke="#18292D" stroke-width="1.03322" stroke-linecap="round" stroke-linejoin="round"/>
<path d="M95.7913 92.0395C97.9107 92.0395 99.6288 90.2599 99.6288 88.0647C99.6288 85.8694 97.9107 84.0898 95.7913 84.0898C93.6719 84.0898 91.9539 85.8694 91.9539 88.0647C91.9539 90.2599 93.6719 92.0395 95.7913 92.0395Z" fill="white" stroke="#18292D" stroke-width="1.03322" stroke-linecap="round" stroke-linejoin="round"/>
<path d="M103.144 103.134C103.144 103.134 102.788 95.4216 98.2306 95.2795C96.364 95.2226 94.7485 95.2416 93.3983 95.27C88.6512 95.36 88.6986 103.182 88.6986 103.182H88.6938C88.6938 103.883 91.9296 104.447 95.9187 104.447C99.9077 104.447 103.144 103.878 103.144 103.182C103.144 103.168 103.144 103.149 103.139 103.134H103.144Z" fill="white" stroke="#18292D" stroke-width="1.03322" stroke-linecap="round" stroke-linejoin="round"/>
<path d="M117.163 92.0395C119.282 92.0395 121 90.2599 121 88.0647C121 85.8694 119.282 84.0898 117.163 84.0898C115.044 84.0898 113.325 85.8694 113.325 88.0647C113.325 90.2599 115.044 92.0395 117.163 92.0395Z" fill="#18292D" stroke="#18292D" stroke-width="1.03322" stroke-linecap="round" stroke-linejoin="round"/>
<path d="M124.516 103.134C124.516 103.134 124.16 95.4216 119.603 95.2795C117.736 95.2226 116.12 95.2416 114.77 95.27C110.023 95.36 110.071 103.182 110.071 103.182C110.071 103.883 113.306 104.447 117.295 104.447C121.284 104.447 124.52 103.878 124.52 103.182C124.52 103.168 124.52 103.149 124.516 103.134Z" fill="#18292D"/>
<path d="M124.516 103.134C124.516 103.134 124.16 95.4216 119.603 95.2795C117.736 95.2226 116.12 95.2416 114.77 95.27C110.023 95.36 110.071 103.182 110.071 103.182C110.071 103.883 113.306 104.447 117.295 104.447C121.284 104.447 124.52 103.878 124.52 103.182C124.52 103.168 124.52 103.149 124.516 103.134ZM124.516 103.134H124.52" stroke="#18292D" stroke-width="1.03322" stroke-linecap="round" stroke-linejoin="round"/>
<path d="M138.097 92.0395C140.217 92.0395 141.935 90.2599 141.935 88.0647C141.935 85.8694 140.217 84.0898 138.097 84.0898C135.978 84.0898 134.26 85.8694 134.26 88.0647C134.26 90.2599 135.978 92.0395 138.097 92.0395Z" fill="white" stroke="#18292D" stroke-width="1.03322" stroke-linecap="round" stroke-linejoin="round"/>
<path d="M145.445 103.134C145.445 103.134 145.089 95.4216 140.532 95.2795C138.665 95.2226 137.05 95.2416 135.699 95.27C130.952 95.36 131 103.182 131 103.182C131 103.883 134.236 104.447 138.225 104.447C142.214 104.447 145.449 103.878 145.449 103.182C145.449 103.168 145.449 103.149 145.445 103.134Z" fill="white"/>
<path d="M145.445 103.134C145.445 103.134 145.089 95.4216 140.532 95.2795C138.665 95.2226 137.05 95.2416 135.699 95.27C130.952 95.36 131 103.182 131 103.182C131 103.883 134.236 104.447 138.225 104.447C142.214 104.447 145.449 103.878 145.449 103.182C145.449 103.168 145.449 103.149 145.445 103.134ZM145.445 103.134H145.449" stroke="#18292D" stroke-width="1.03322" stroke-linecap="round" stroke-linejoin="round"/>
<path d="M116.868 79.6187V81.4047" stroke="#FFC31F" stroke-width="1.03322" stroke-linecap="round" stroke-linejoin="round"/>
<path d="M94.5115 81.4047V79.6187H140.068V81.4047" stroke="#FFC31F" stroke-width="1.03322" stroke-linecap="round" stroke-linejoin="round"/>
</g>
</g>
<defs>
<clipPath id="clip0_938_11206">
<rect width="460" height="460" fill="white"/>
</clipPath>
<clipPath id="clip1_938_11206">
<rect width="56.9485" height="53.5648" fill="white" transform="translate(332.124 54.894)"/>
</clipPath>
<clipPath id="clip2_938_11206">
<rect width="57.666" height="49.1289" fill="white" transform="translate(88.239 55.7788)"/>
</clipPath>
</defs>
</svg>
