<svg width="460" height="460" viewBox="0 0 460 460" fill="none" xmlns="http://www.w3.org/2000/svg">
<g clip-path="url(#clip0_930_8257)">
<rect width="460" height="460" fill="white"/>
<path d="M333 76.2C333.11 76.2 333.2 76.1105 333.2 76V75C333.2 74.8895 333.11 74.8 333 74.8H328C327.89 74.8 327.8 74.8895 327.8 75V76C327.8 76.1105 327.89 76.2 328 76.2H333ZM320 76.2C320.11 76.2 320.2 76.1105 320.2 76V75C320.2 74.8895 320.11 74.8 320 74.8H315C314.89 74.8 314.8 74.8895 314.8 75V76C314.8 76.1105 314.89 76.2 315 76.2H320ZM307 76.2C307.11 76.2 307.2 76.1105 307.2 76V75C307.2 74.8895 307.11 74.8 307 74.8H302C301.89 74.8 301.8 74.8895 301.8 75V76C301.8 76.1105 301.89 76.2 302 76.2H307ZM294 76.2C294.11 76.2 294.2 76.1105 294.2 76V75C294.2 74.8895 294.11 74.8 294 74.8H289C288.89 74.8 288.8 74.8895 288.8 75V76C288.8 76.1105 288.89 76.2 289 76.2H294ZM281 76.2C281.11 76.2 281.2 76.1105 281.2 76V75C281.2 74.8895 281.11 74.8 281 74.8H276C275.89 74.8 275.8 74.8895 275.8 75V76C275.8 76.1105 275.89 76.2 276 76.2H281ZM268 76.2C268.11 76.2 268.2 76.1105 268.2 76V75C268.2 74.8895 268.11 74.8 268 74.8H263C262.89 74.8 262.8 74.8895 262.8 75V76C262.8 76.1105 262.89 76.2 263 76.2H268ZM255 76.2C255.11 76.2 255.2 76.1105 255.2 76V75C255.2 74.8895 255.11 74.8 255 74.8H250C249.89 74.8 249.8 74.8895 249.8 75V76C249.8 76.1105 249.89 76.2 250 76.2H255ZM242 76.2C242.11 76.2 242.2 76.1105 242.2 76V75C242.2 74.8895 242.11 74.8 242 74.8H237C236.89 74.8 236.8 74.8895 236.8 75V76C236.8 76.1105 236.89 76.2 237 76.2H242ZM229 76.2C229.11 76.2 229.2 76.1105 229.2 76V75C229.2 74.8895 229.11 74.8 229 74.8H224C223.89 74.8 223.8 74.8895 223.8 75V76C223.8 76.1105 223.89 76.2 224 76.2H229ZM216 76.2C216.11 76.2 216.2 76.1105 216.2 76V75C216.2 74.8895 216.11 74.8 216 74.8H211C210.89 74.8 210.8 74.8895 210.8 75V76C210.8 76.1105 210.89 76.2 211 76.2H216ZM203 76.2C203.11 76.2 203.2 76.1105 203.2 76V75C203.2 74.8895 203.11 74.8 203 74.8H198C197.89 74.8 197.8 74.8895 197.8 75V76C197.8 76.1105 197.89 76.2 198 76.2H203ZM190 76.2C190.11 76.2 190.2 76.1105 190.2 76V75C190.2 74.8895 190.11 74.8 190 74.8H185C184.89 74.8 184.8 74.8895 184.8 75V76C184.8 76.1105 184.89 76.2 185 76.2H190ZM177 76.2C177.11 76.2 177.2 76.1105 177.2 76V75C177.2 74.8895 177.11 74.8 177 74.8H172C171.89 74.8 171.8 74.8895 171.8 75V76C171.8 76.1105 171.89 76.2 172 76.2H177ZM164 76.2C164.11 76.2 164.2 76.1105 164.2 76V75C164.2 74.8895 164.11 74.8 164 74.8H159C158.89 74.8 158.8 74.8895 158.8 75V76C158.8 76.1105 158.89 76.2 159 76.2H164ZM151 76.2C151.11 76.2 151.2 76.1105 151.2 76V75C151.2 74.8895 151.11 74.8 151 74.8H146C145.89 74.8 145.8 74.8895 145.8 75V76C145.8 76.1105 145.89 76.2 146 76.2H151ZM138 76.2C138.11 76.2 138.2 76.1105 138.2 76V75C138.2 74.8895 138.11 74.8 138 74.8H133C132.89 74.8 132.8 74.8895 132.8 75V76C132.8 76.1105 132.89 76.2 133 76.2H138ZM125 76.2C125.11 76.2 125.2 76.1105 125.2 76V75C125.2 74.8895 125.11 74.8 125 74.8H120C119.89 74.8 119.8 74.8895 119.8 75V76C119.8 76.1105 119.89 76.2 120 76.2H125ZM112 76.2C112.11 76.2 112.2 76.1105 112.2 76V75C112.2 74.8895 112.11 74.8 112 74.8H107C106.89 74.8 106.8 74.8895 106.8 75V76C106.8 76.1105 106.89 76.2 107 76.2H112ZM99 76.2C99.1105 76.2 99.2 76.1105 99.2 76V75C99.2 74.8895 99.1105 74.8 99 74.8H94C93.8895 74.8 93.8 74.8895 93.8 75V76C93.8 76.1105 93.8895 76.2 94 76.2H99Z" fill="black" stroke="black" stroke-width="0.4" stroke-linejoin="round"/>
<mask id="path-2-outside-1_930_8257" maskUnits="userSpaceOnUse" x="84.9224" y="94.8632" width="231.128" height="220.192" fill="black">
<rect fill="white" x="84.9224" y="94.8632" width="231.128" height="220.192"/>
<path d="M102.099 286.709C102.077 286.672 101.543 285.688 100.74 283.611L101.362 283.374C102.139 285.399 102.675 286.377 102.679 286.391L102.091 286.715L102.099 286.709ZM99.0371 278.525C98.7323 277.495 98.4364 276.405 98.1567 275.297L98.8023 275.13C99.0831 276.231 99.3734 277.314 99.6792 278.338L99.0371 278.525ZM96.9738 270.073C96.7654 269.029 96.5582 267.932 96.358 266.789L97.0165 266.672C97.2168 267.815 97.4249 268.905 97.6278 269.941L96.9738 270.073ZM95.5361 261.498C95.392 260.43 95.2538 259.323 95.1205 258.183L95.7864 258.107C95.9197 259.247 96.0588 260.348 96.2039 261.408L95.5427 261.499L95.5361 261.498ZM94.5867 252.86C94.4918 251.78 94.4084 250.668 94.3355 249.53L95.003 249.488C95.0825 250.627 95.1669 251.733 95.2552 252.812L94.5923 252.868L94.5867 252.86ZM94.0406 244.189C93.9948 243.096 93.9585 241.984 93.9253 240.852L94.5889 240.837C94.6221 241.968 94.6584 243.08 94.7051 244.167L94.0396 244.196L94.0406 244.189ZM93.9165 235.493C93.9472 234.384 94.0007 233.259 94.0796 232.144L94.7476 232.19C94.6696 233.298 94.6181 234.41 94.5883 235.513L93.9231 235.494L93.9165 235.493ZM94.6057 226.818C94.6774 226.248 94.7632 225.674 94.848 225.106C94.9279 224.572 95.0078 224.037 95.0999 223.511L95.758 223.623C95.6725 224.15 95.587 224.677 95.5071 225.211C95.4222 225.779 95.3374 226.347 95.2668 226.91L94.6048 226.824L94.6057 226.818ZM96.7883 218.399L96.1362 218.247C96.3792 217.164 96.6505 216.071 96.9396 214.994L97.5822 215.164C97.3006 216.235 97.0303 217.322 96.7893 218.392L96.7883 218.399ZM99.0865 210.065L98.4489 209.862C98.7888 208.806 99.1572 207.741 99.5358 206.698L100.163 206.926C99.7853 207.963 99.4245 209.022 99.0855 210.071L99.0865 210.065ZM102.112 201.968L101.496 201.707C101.933 200.679 102.39 199.654 102.858 198.645L103.464 198.924C102.998 199.921 102.548 200.947 102.113 201.961L102.112 201.968ZM105.829 194.163L105.241 193.853C105.765 192.872 106.304 191.886 106.861 190.916L107.438 191.252C106.89 192.21 106.346 193.188 105.829 194.163ZM110.215 186.708L109.655 186.348C110.261 185.413 110.893 184.475 111.528 183.571L112.077 183.957C111.443 184.86 110.819 185.786 110.214 186.715L110.215 186.708ZM115.248 179.673L114.723 179.258C115.414 178.382 116.125 177.504 116.845 176.66L117.354 177.093C116.642 177.932 115.932 178.797 115.248 179.673ZM120.913 173.145L120.429 172.681C121.205 171.873 121.999 171.074 122.795 170.309L123.256 170.789C122.468 171.549 121.681 172.342 120.913 173.145ZM127.203 167.223L126.773 166.713C127.63 165.991 128.506 165.278 129.376 164.605L129.783 165.132C128.921 165.799 128.046 166.505 127.203 167.223ZM134.141 162.112L133.787 161.547C134.716 160.97 135.698 160.409 136.696 159.87L137.013 160.457C136.03 160.985 135.063 161.542 134.141 162.112ZM141.792 158.141L141.526 157.528C142.53 157.091 143.578 156.667 144.63 156.265L144.868 156.887C143.823 157.284 142.788 157.71 141.792 158.141ZM149.897 155.156L149.702 154.519C150.749 154.197 151.835 153.88 152.918 153.59L153.091 154.236C152.009 154.526 150.936 154.839 149.896 155.162L149.897 155.156ZM158.265 152.985L158.126 152.33C159.2 152.099 160.306 151.88 161.408 151.68L161.526 152.339C160.43 152.539 159.332 152.753 158.265 152.985ZM166.785 151.505L166.695 150.844C167.79 150.697 168.897 150.559 170.015 150.436L170.085 151.101C168.973 151.225 167.873 151.358 166.779 151.504L166.785 151.505ZM175.393 150.619L175.344 149.951C176.449 149.873 177.565 149.81 178.686 149.755L178.715 150.421C177.6 150.477 176.491 150.54 175.393 150.619ZM252.258 161.385L252.357 160.725C253.455 160.875 254.568 161.008 255.651 161.123L255.579 161.787C254.49 161.671 253.369 161.537 252.258 161.385ZM246.971 160.554C245.874 160.356 244.778 160.145 243.684 159.928L243.816 159.273C244.902 159.496 245.998 159.707 247.083 159.896L246.964 160.553L246.971 160.554ZM260.918 162.227L260.957 161.558C262.074 161.624 263.188 161.669 264.284 161.691L264.266 162.356C263.169 162.334 262.043 162.287 260.919 162.22L260.918 162.227ZM238.461 158.756C237.38 158.493 236.295 158.216 235.218 157.927L235.388 157.285C236.458 157.573 237.538 157.842 238.612 158.104L238.454 158.755L238.461 158.756ZM184.042 150.265L184.034 149.596C185.142 149.586 186.262 149.585 187.381 149.597L187.376 150.264C186.264 150.253 185.15 150.256 184.042 150.265ZM230.078 156.471C229.017 156.164 227.948 155.869 226.871 155.58L227.041 154.937C228.125 155.227 229.194 155.522 230.261 155.83L230.078 156.471ZM269.62 162.333L269.598 161.669C270.717 161.627 271.833 161.564 272.918 161.483L272.968 162.145C271.875 162.232 270.753 162.293 269.62 162.333ZM192.691 150.411L192.723 149.748C193.835 149.799 194.946 149.857 196.056 149.929L196.01 150.597C194.901 150.525 193.796 150.468 192.69 150.417L192.691 150.411ZM221.69 154.306C220.607 154.057 219.522 153.827 218.436 153.597L218.568 152.942C219.661 153.166 220.752 153.404 221.835 153.653L221.684 154.305L221.69 154.306ZM201.318 151.019L201.384 150.354C202.495 150.459 203.596 150.583 204.711 150.709L204.632 151.372C203.532 151.242 202.423 151.123 201.325 151.02L201.318 151.019ZM213.199 152.612C212.107 152.422 211.006 152.251 209.911 152.08L210.01 151.42C211.112 151.585 212.212 151.763 213.31 151.954L213.199 152.612ZM278.289 161.53L278.186 160.867C279.298 160.696 280.394 160.495 281.452 160.276L281.591 160.931C280.518 161.155 279.409 161.353 278.29 161.524L278.289 161.53ZM286.79 159.596L286.588 158.958C287.657 158.625 288.71 158.263 289.719 157.874L289.957 158.497C288.933 158.89 287.865 159.264 286.783 159.595L286.79 159.596ZM294.852 156.266L294.535 155.679C295.517 155.158 296.478 154.593 297.39 154L297.752 154.56C296.826 155.158 295.849 155.734 294.852 156.266ZM302.054 151.33L301.616 150.826C302.447 150.1 303.249 149.336 303.995 148.543L304.48 149.001C303.719 149.804 302.9 150.586 302.054 151.33ZM307.876 144.832L307.326 144.453C307.951 143.561 308.545 142.618 309.085 141.666L309.663 141.995C309.106 142.971 308.504 143.927 307.869 144.838L307.876 144.832ZM312.006 137.156L311.388 136.909C311.795 135.904 312.174 134.86 312.508 133.797L313.146 134C312.803 135.076 312.421 136.139 312.006 137.156ZM314.489 128.803L313.834 128.671C314.016 127.767 314.182 126.841 314.32 125.917L314.98 126.015C314.84 126.953 314.672 127.892 314.488 128.81L314.489 128.803Z"/>
</mask>
<path d="M102.099 286.709C102.077 286.672 101.543 285.688 100.74 283.611L101.362 283.374C102.139 285.399 102.675 286.377 102.679 286.391L102.091 286.715L102.099 286.709ZM99.0371 278.525C98.7323 277.495 98.4364 276.405 98.1567 275.297L98.8023 275.13C99.0831 276.231 99.3734 277.314 99.6792 278.338L99.0371 278.525ZM96.9738 270.073C96.7654 269.029 96.5582 267.932 96.358 266.789L97.0165 266.672C97.2168 267.815 97.4249 268.905 97.6278 269.941L96.9738 270.073ZM95.5361 261.498C95.392 260.43 95.2538 259.323 95.1205 258.183L95.7864 258.107C95.9197 259.247 96.0588 260.348 96.2039 261.408L95.5427 261.499L95.5361 261.498ZM94.5867 252.86C94.4918 251.78 94.4084 250.668 94.3355 249.53L95.003 249.488C95.0825 250.627 95.1669 251.733 95.2552 252.812L94.5923 252.868L94.5867 252.86ZM94.0406 244.189C93.9948 243.096 93.9585 241.984 93.9253 240.852L94.5889 240.837C94.6221 241.968 94.6584 243.08 94.7051 244.167L94.0396 244.196L94.0406 244.189ZM93.9165 235.493C93.9472 234.384 94.0007 233.259 94.0796 232.144L94.7476 232.19C94.6696 233.298 94.6181 234.41 94.5883 235.513L93.9231 235.494L93.9165 235.493ZM94.6057 226.818C94.6774 226.248 94.7632 225.674 94.848 225.106C94.9279 224.572 95.0078 224.037 95.0999 223.511L95.758 223.623C95.6725 224.15 95.587 224.677 95.5071 225.211C95.4222 225.779 95.3374 226.347 95.2668 226.91L94.6048 226.824L94.6057 226.818ZM96.7883 218.399L96.1362 218.247C96.3792 217.164 96.6505 216.071 96.9396 214.994L97.5822 215.164C97.3006 216.235 97.0303 217.322 96.7893 218.392L96.7883 218.399ZM99.0865 210.065L98.4489 209.862C98.7888 208.806 99.1572 207.741 99.5358 206.698L100.163 206.926C99.7853 207.963 99.4245 209.022 99.0855 210.071L99.0865 210.065ZM102.112 201.968L101.496 201.707C101.933 200.679 102.39 199.654 102.858 198.645L103.464 198.924C102.998 199.921 102.548 200.947 102.113 201.961L102.112 201.968ZM105.829 194.163L105.241 193.853C105.765 192.872 106.304 191.886 106.861 190.916L107.438 191.252C106.89 192.21 106.346 193.188 105.829 194.163ZM110.215 186.708L109.655 186.348C110.261 185.413 110.893 184.475 111.528 183.571L112.077 183.957C111.443 184.86 110.819 185.786 110.214 186.715L110.215 186.708ZM115.248 179.673L114.723 179.258C115.414 178.382 116.125 177.504 116.845 176.66L117.354 177.093C116.642 177.932 115.932 178.797 115.248 179.673ZM120.913 173.145L120.429 172.681C121.205 171.873 121.999 171.074 122.795 170.309L123.256 170.789C122.468 171.549 121.681 172.342 120.913 173.145ZM127.203 167.223L126.773 166.713C127.63 165.991 128.506 165.278 129.376 164.605L129.783 165.132C128.921 165.799 128.046 166.505 127.203 167.223ZM134.141 162.112L133.787 161.547C134.716 160.97 135.698 160.409 136.696 159.87L137.013 160.457C136.03 160.985 135.063 161.542 134.141 162.112ZM141.792 158.141L141.526 157.528C142.53 157.091 143.578 156.667 144.63 156.265L144.868 156.887C143.823 157.284 142.788 157.71 141.792 158.141ZM149.897 155.156L149.702 154.519C150.749 154.197 151.835 153.88 152.918 153.59L153.091 154.236C152.009 154.526 150.936 154.839 149.896 155.162L149.897 155.156ZM158.265 152.985L158.126 152.33C159.2 152.099 160.306 151.88 161.408 151.68L161.526 152.339C160.43 152.539 159.332 152.753 158.265 152.985ZM166.785 151.505L166.695 150.844C167.79 150.697 168.897 150.559 170.015 150.436L170.085 151.101C168.973 151.225 167.873 151.358 166.779 151.504L166.785 151.505ZM175.393 150.619L175.344 149.951C176.449 149.873 177.565 149.81 178.686 149.755L178.715 150.421C177.6 150.477 176.491 150.54 175.393 150.619ZM252.258 161.385L252.357 160.725C253.455 160.875 254.568 161.008 255.651 161.123L255.579 161.787C254.49 161.671 253.369 161.537 252.258 161.385ZM246.971 160.554C245.874 160.356 244.778 160.145 243.684 159.928L243.816 159.273C244.902 159.496 245.998 159.707 247.083 159.896L246.964 160.553L246.971 160.554ZM260.918 162.227L260.957 161.558C262.074 161.624 263.188 161.669 264.284 161.691L264.266 162.356C263.169 162.334 262.043 162.287 260.919 162.22L260.918 162.227ZM238.461 158.756C237.38 158.493 236.295 158.216 235.218 157.927L235.388 157.285C236.458 157.573 237.538 157.842 238.612 158.104L238.454 158.755L238.461 158.756ZM184.042 150.265L184.034 149.596C185.142 149.586 186.262 149.585 187.381 149.597L187.376 150.264C186.264 150.253 185.15 150.256 184.042 150.265ZM230.078 156.471C229.017 156.164 227.948 155.869 226.871 155.58L227.041 154.937C228.125 155.227 229.194 155.522 230.261 155.83L230.078 156.471ZM269.62 162.333L269.598 161.669C270.717 161.627 271.833 161.564 272.918 161.483L272.968 162.145C271.875 162.232 270.753 162.293 269.62 162.333ZM192.691 150.411L192.723 149.748C193.835 149.799 194.946 149.857 196.056 149.929L196.01 150.597C194.901 150.525 193.796 150.468 192.69 150.417L192.691 150.411ZM221.69 154.306C220.607 154.057 219.522 153.827 218.436 153.597L218.568 152.942C219.661 153.166 220.752 153.404 221.835 153.653L221.684 154.305L221.69 154.306ZM201.318 151.019L201.384 150.354C202.495 150.459 203.596 150.583 204.711 150.709L204.632 151.372C203.532 151.242 202.423 151.123 201.325 151.02L201.318 151.019ZM213.199 152.612C212.107 152.422 211.006 152.251 209.911 152.08L210.01 151.42C211.112 151.585 212.212 151.763 213.31 151.954L213.199 152.612ZM278.289 161.53L278.186 160.867C279.298 160.696 280.394 160.495 281.452 160.276L281.591 160.931C280.518 161.155 279.409 161.353 278.29 161.524L278.289 161.53ZM286.79 159.596L286.588 158.958C287.657 158.625 288.71 158.263 289.719 157.874L289.957 158.497C288.933 158.89 287.865 159.264 286.783 159.595L286.79 159.596ZM294.852 156.266L294.535 155.679C295.517 155.158 296.478 154.593 297.39 154L297.752 154.56C296.826 155.158 295.849 155.734 294.852 156.266ZM302.054 151.33L301.616 150.826C302.447 150.1 303.249 149.336 303.995 148.543L304.48 149.001C303.719 149.804 302.9 150.586 302.054 151.33ZM307.876 144.832L307.326 144.453C307.951 143.561 308.545 142.618 309.085 141.666L309.663 141.995C309.106 142.971 308.504 143.927 307.869 144.838L307.876 144.832ZM312.006 137.156L311.388 136.909C311.795 135.904 312.174 134.86 312.508 133.797L313.146 134C312.803 135.076 312.421 136.139 312.006 137.156ZM314.489 128.803L313.834 128.671C314.016 127.767 314.182 126.841 314.32 125.917L314.98 126.015C314.84 126.953 314.672 127.892 314.488 128.81L314.489 128.803Z" fill="black"/>
<path d="M102.099 286.709C102.077 286.672 101.543 285.688 100.74 283.611L101.362 283.374C102.139 285.399 102.675 286.377 102.679 286.391L102.091 286.715L102.099 286.709ZM99.0371 278.525C98.7323 277.495 98.4364 276.405 98.1567 275.297L98.8023 275.13C99.0831 276.231 99.3734 277.314 99.6792 278.338L99.0371 278.525ZM96.9738 270.073C96.7654 269.029 96.5582 267.932 96.358 266.789L97.0165 266.672C97.2168 267.815 97.4249 268.905 97.6278 269.941L96.9738 270.073ZM95.5361 261.498C95.392 260.43 95.2538 259.323 95.1205 258.183L95.7864 258.107C95.9197 259.247 96.0588 260.348 96.2039 261.408L95.5427 261.499L95.5361 261.498ZM94.5867 252.86C94.4918 251.78 94.4084 250.668 94.3355 249.53L95.003 249.488C95.0825 250.627 95.1669 251.733 95.2552 252.812L94.5923 252.868L94.5867 252.86ZM94.0406 244.189C93.9948 243.096 93.9585 241.984 93.9253 240.852L94.5889 240.837C94.6221 241.968 94.6584 243.08 94.7051 244.167L94.0396 244.196L94.0406 244.189ZM93.9165 235.493C93.9472 234.384 94.0007 233.259 94.0796 232.144L94.7476 232.19C94.6696 233.298 94.6181 234.41 94.5883 235.513L93.9231 235.494L93.9165 235.493ZM94.6057 226.818C94.6774 226.248 94.7632 225.674 94.848 225.106C94.9279 224.572 95.0078 224.037 95.0999 223.511L95.758 223.623C95.6725 224.15 95.587 224.677 95.5071 225.211C95.4222 225.779 95.3374 226.347 95.2668 226.91L94.6048 226.824L94.6057 226.818ZM96.7883 218.399L96.1362 218.247C96.3792 217.164 96.6505 216.071 96.9396 214.994L97.5822 215.164C97.3006 216.235 97.0303 217.322 96.7893 218.392L96.7883 218.399ZM99.0865 210.065L98.4489 209.862C98.7888 208.806 99.1572 207.741 99.5358 206.698L100.163 206.926C99.7853 207.963 99.4245 209.022 99.0855 210.071L99.0865 210.065ZM102.112 201.968L101.496 201.707C101.933 200.679 102.39 199.654 102.858 198.645L103.464 198.924C102.998 199.921 102.548 200.947 102.113 201.961L102.112 201.968ZM105.829 194.163L105.241 193.853C105.765 192.872 106.304 191.886 106.861 190.916L107.438 191.252C106.89 192.21 106.346 193.188 105.829 194.163ZM110.215 186.708L109.655 186.348C110.261 185.413 110.893 184.475 111.528 183.571L112.077 183.957C111.443 184.86 110.819 185.786 110.214 186.715L110.215 186.708ZM115.248 179.673L114.723 179.258C115.414 178.382 116.125 177.504 116.845 176.66L117.354 177.093C116.642 177.932 115.932 178.797 115.248 179.673ZM120.913 173.145L120.429 172.681C121.205 171.873 121.999 171.074 122.795 170.309L123.256 170.789C122.468 171.549 121.681 172.342 120.913 173.145ZM127.203 167.223L126.773 166.713C127.63 165.991 128.506 165.278 129.376 164.605L129.783 165.132C128.921 165.799 128.046 166.505 127.203 167.223ZM134.141 162.112L133.787 161.547C134.716 160.97 135.698 160.409 136.696 159.87L137.013 160.457C136.03 160.985 135.063 161.542 134.141 162.112ZM141.792 158.141L141.526 157.528C142.53 157.091 143.578 156.667 144.63 156.265L144.868 156.887C143.823 157.284 142.788 157.71 141.792 158.141ZM149.897 155.156L149.702 154.519C150.749 154.197 151.835 153.88 152.918 153.59L153.091 154.236C152.009 154.526 150.936 154.839 149.896 155.162L149.897 155.156ZM158.265 152.985L158.126 152.33C159.2 152.099 160.306 151.88 161.408 151.68L161.526 152.339C160.43 152.539 159.332 152.753 158.265 152.985ZM166.785 151.505L166.695 150.844C167.79 150.697 168.897 150.559 170.015 150.436L170.085 151.101C168.973 151.225 167.873 151.358 166.779 151.504L166.785 151.505ZM175.393 150.619L175.344 149.951C176.449 149.873 177.565 149.81 178.686 149.755L178.715 150.421C177.6 150.477 176.491 150.54 175.393 150.619ZM252.258 161.385L252.357 160.725C253.455 160.875 254.568 161.008 255.651 161.123L255.579 161.787C254.49 161.671 253.369 161.537 252.258 161.385ZM246.971 160.554C245.874 160.356 244.778 160.145 243.684 159.928L243.816 159.273C244.902 159.496 245.998 159.707 247.083 159.896L246.964 160.553L246.971 160.554ZM260.918 162.227L260.957 161.558C262.074 161.624 263.188 161.669 264.284 161.691L264.266 162.356C263.169 162.334 262.043 162.287 260.919 162.22L260.918 162.227ZM238.461 158.756C237.38 158.493 236.295 158.216 235.218 157.927L235.388 157.285C236.458 157.573 237.538 157.842 238.612 158.104L238.454 158.755L238.461 158.756ZM184.042 150.265L184.034 149.596C185.142 149.586 186.262 149.585 187.381 149.597L187.376 150.264C186.264 150.253 185.15 150.256 184.042 150.265ZM230.078 156.471C229.017 156.164 227.948 155.869 226.871 155.58L227.041 154.937C228.125 155.227 229.194 155.522 230.261 155.83L230.078 156.471ZM269.62 162.333L269.598 161.669C270.717 161.627 271.833 161.564 272.918 161.483L272.968 162.145C271.875 162.232 270.753 162.293 269.62 162.333ZM192.691 150.411L192.723 149.748C193.835 149.799 194.946 149.857 196.056 149.929L196.01 150.597C194.901 150.525 193.796 150.468 192.69 150.417L192.691 150.411ZM221.69 154.306C220.607 154.057 219.522 153.827 218.436 153.597L218.568 152.942C219.661 153.166 220.752 153.404 221.835 153.653L221.684 154.305L221.69 154.306ZM201.318 151.019L201.384 150.354C202.495 150.459 203.596 150.583 204.711 150.709L204.632 151.372C203.532 151.242 202.423 151.123 201.325 151.02L201.318 151.019ZM213.199 152.612C212.107 152.422 211.006 152.251 209.911 152.08L210.01 151.42C211.112 151.585 212.212 151.763 213.31 151.954L213.199 152.612ZM278.289 161.53L278.186 160.867C279.298 160.696 280.394 160.495 281.452 160.276L281.591 160.931C280.518 161.155 279.409 161.353 278.29 161.524L278.289 161.53ZM286.79 159.596L286.588 158.958C287.657 158.625 288.71 158.263 289.719 157.874L289.957 158.497C288.933 158.89 287.865 159.264 286.783 159.595L286.79 159.596ZM294.852 156.266L294.535 155.679C295.517 155.158 296.478 154.593 297.39 154L297.752 154.56C296.826 155.158 295.849 155.734 294.852 156.266ZM302.054 151.33L301.616 150.826C302.447 150.1 303.249 149.336 303.995 148.543L304.48 149.001C303.719 149.804 302.9 150.586 302.054 151.33ZM307.876 144.832L307.326 144.453C307.951 143.561 308.545 142.618 309.085 141.666L309.663 141.995C309.106 142.971 308.504 143.927 307.869 144.838L307.876 144.832ZM312.006 137.156L311.388 136.909C311.795 135.904 312.174 134.86 312.508 133.797L313.146 134C312.803 135.076 312.421 136.139 312.006 137.156ZM314.489 128.803L313.834 128.671C314.016 127.767 314.182 126.841 314.32 125.917L314.98 126.015C314.84 126.953 314.672 127.892 314.488 128.81L314.489 128.803Z" stroke="black" stroke-width="1.09176" stroke-linejoin="round" mask="url(#path-2-outside-1_930_8257)"/>
<path d="M257.227 216.208C296.136 213.152 333.494 225.78 359.921 242.976C386.61 260.512 402.359 282.619 404.079 306.243C405.812 330.096 393.848 352.75 376.121 375.129C358.155 397.169 334.426 418.935 307.231 433.042C254.667 462.539 194.44 438.662 165.731 367.374C136.992 296.537 177.223 220.277 257.227 216.208Z" fill="#F2F7F8"/>
<path d="M371.625 323.528L358.881 306.786C359.033 306.587 359.138 306.343 359.15 306.086C359.185 305.643 358.986 305.212 358.637 304.943L326.189 279.946L321.187 276.133C288.809 251.427 243.535 251.369 211.087 275.993C207.146 278.99 203.707 282.546 200.85 286.592L173.357 325.604L138.484 299.685C136.595 288.958 132.876 278.512 127.478 269.079L125.974 266.444C125.775 266.094 125.426 265.861 125.029 265.791L108.181 263.203C106.327 262.923 104.52 263.646 103.378 265.15C102.258 266.619 102.153 268.601 102.795 270.327C104.101 273.813 106.934 276.518 110.513 277.649L115.095 279.095C114.897 280.074 114.816 281.065 114.769 282.056L109.545 278.173C109.091 277.835 108.484 277.824 108.018 278.138L90.0393 290.416C89.7245 290.626 89.5263 290.964 89.4797 291.337C89.433 291.71 89.5496 292.083 89.7945 292.375L95.356 298.729C99.8915 303.917 105.266 308.29 111.259 311.683L112.274 312.254L155.192 366.645C160.754 373.687 169.078 378.059 178.033 378.619C185.938 379.109 193.68 376.637 199.801 371.752L199.533 376.94C199.509 377.313 199.649 377.675 199.906 377.931C200.162 378.199 200.547 378.363 200.885 378.328L212.37 377.943L199.113 442.513C199.031 442.897 199.136 443.305 199.381 443.609C199.638 443.912 200.011 444.098 200.407 444.098H331.517C331.948 444.098 332.345 443.888 332.59 443.55C332.834 443.2 332.904 442.757 332.764 442.361L315.94 393.275C315.94 393.275 315.94 393.252 315.94 393.24C315.94 392.937 315.823 392.669 315.648 392.447L311.626 380.718L312.314 381.289C316.138 384.46 320.779 386.046 325.419 386.046C330.059 386.046 335.096 384.321 339.002 380.869L368.535 354.787C377.595 346.789 378.936 333.147 371.614 323.528H371.625ZM324.871 358.833L316.908 347.5L319.251 335.584L333.499 347.64L324.871 358.821V358.833Z" fill="white"/>
<path d="M295.048 263.252L294.574 264.198C293.072 264.198 283.693 364.019 282.747 371.589C281.981 377.72 278.49 374.427 310.186 380.104L313.971 392.878H210.365L213.677 377.266L225.504 375.847C229.866 365.628 234.019 296.841 237.804 263.252C278.016 251.425 277.07 262.779 295.048 263.252Z" fill="#96D8E8"/>
<path d="M331.528 443.982C331.038 443.982 330.595 443.679 330.42 443.189L308.932 380.485C308.862 380.287 308.851 380.077 308.897 379.879L318.108 333.836L324.159 281.532L319.694 278.115C288.202 254.085 244.164 254.027 212.602 277.987C208.871 280.82 205.607 284.202 202.902 288.038L174.628 328.158C174.441 328.414 174.173 328.589 173.858 328.636C173.543 328.682 173.229 328.612 172.984 328.426L108.752 280.681L92.5456 291.745L97.2677 297.144C101.617 302.122 106.747 306.285 112.495 309.537L113.731 310.237C113.859 310.307 113.976 310.412 114.069 310.529L157.15 365.118C162.269 371.612 169.941 375.635 178.195 376.159C186.45 376.684 194.565 373.652 200.465 367.858C200.803 367.52 201.328 367.426 201.759 367.625C202.202 367.823 202.47 368.266 202.447 368.744L202.074 375.809L213.955 375.413C214.316 375.39 214.654 375.553 214.888 375.821C215.121 376.089 215.214 376.462 215.144 376.812L201.549 443.026C201.421 443.655 200.803 444.064 200.173 443.935C199.544 443.807 199.136 443.189 199.264 442.559L212.556 377.792L200.885 378.176C200.558 378.2 200.243 378.06 200.01 377.827C199.777 377.593 199.66 377.279 199.684 376.952L199.975 371.426C193.854 376.427 186.007 378.981 178.044 378.479C169.124 377.92 160.846 373.571 155.308 366.564L112.367 312.149L111.329 311.566C105.348 308.185 100.019 303.848 95.4954 298.671L89.9106 292.282C89.6891 292.037 89.5841 291.699 89.6308 291.372C89.6774 291.046 89.8523 290.743 90.1321 290.556L108.111 278.279C108.519 277.999 109.067 278.011 109.463 278.302L173.403 325.826L200.99 286.685C203.834 282.651 207.262 279.095 211.192 276.122C243.581 251.532 288.773 251.59 321.105 276.25L326.106 280.063C326.433 280.307 326.608 280.715 326.561 281.124L320.417 334.185L311.252 380.018L332.636 442.431C332.846 443.037 332.519 443.702 331.913 443.912C331.785 443.959 331.656 443.97 331.54 443.97L331.528 443.982Z" fill="#18292D"/>
<path d="M201.294 369.874C201.294 369.874 201.177 369.874 201.119 369.863C200.477 369.769 200.046 369.175 200.139 368.533L211.099 295.744C211.192 295.103 211.787 294.683 212.428 294.765C213.07 294.858 213.501 295.452 213.408 296.094L202.448 368.883C202.366 369.466 201.865 369.874 201.294 369.874Z" fill="#18292D"/>
<path d="M205.234 342.685C204.662 342.685 204.161 342.254 204.079 341.671C201.584 322.958 182.311 317.256 182.113 317.209C181.495 317.035 181.134 316.393 181.309 315.775C181.483 315.157 182.125 314.796 182.743 314.971C182.953 315.029 203.683 321.115 206.388 341.368C206.47 342.009 206.026 342.592 205.385 342.674C205.339 342.674 205.28 342.674 205.234 342.674V342.685Z" fill="#18292D"/>
<path d="M214.001 377.768C213.372 377.768 212.859 377.279 212.836 376.649C212.812 376.008 213.314 375.46 213.955 375.436L224.798 375.04L237.402 264.217C237.472 263.576 238.066 263.11 238.696 263.191C239.337 263.261 239.792 263.844 239.722 264.486L227.002 376.299C226.932 376.87 226.465 377.313 225.882 377.337L214.048 377.78C214.048 377.78 214.013 377.78 214.001 377.78V377.768Z" fill="#18292D"/>
<path d="M310.04 381.266C310.04 381.266 309.935 381.266 309.877 381.266L282.256 377.325C281.638 377.231 281.195 376.672 281.265 376.042L293.099 265.546C293.169 264.905 293.74 264.438 294.382 264.508C295.023 264.578 295.489 265.15 295.419 265.791L283.702 375.168L310.215 378.957C310.856 379.05 311.299 379.633 311.206 380.274C311.124 380.857 310.623 381.277 310.052 381.277L310.04 381.266Z" fill="#18292D"/>
<path d="M356.981 306.482L371.695 325.801C377.968 334.045 376.826 345.739 369.06 352.595L338.151 379.901C331.063 386.162 320.464 386.325 313.189 380.286L301.867 370.9L295.781 372.241C293.391 372.765 290.908 371.984 289.252 370.2L288.273 369.151L299.092 363.007L309.329 365.782L298.51 357.445L291.677 355.929C288.681 355.265 286.442 352.77 286.104 349.727L285.801 347.068L289.019 347.36V342.824L302.835 342.381L307.441 347.64L299.279 335.56C297.67 333.182 298.055 329.987 300.177 328.063L301.308 327.037L324.988 359.485L334.42 347.43L324.114 339.315L357.028 306.47L356.981 306.482Z" fill="white"/>
<path d="M325.431 385.906C320.838 385.906 316.232 384.332 312.431 381.184L301.553 372.16L296.026 373.384C293.252 373.99 290.325 373.081 288.39 370.994L287.41 369.944C287.165 369.688 287.06 369.326 287.119 368.977C287.177 368.627 287.387 368.312 287.69 368.137L298.51 362.004C298.778 361.853 299.093 361.818 299.396 361.899L303.955 363.135L298.009 358.553L291.421 357.096C287.946 356.326 285.335 353.423 284.938 349.89L284.635 347.232C284.6 346.882 284.717 346.532 284.962 346.287C285.207 346.031 285.556 345.903 285.906 345.938L287.853 346.113V342.86C287.853 342.23 288.355 341.717 288.984 341.694L301.716 341.286L298.312 336.249C296.4 333.415 296.854 329.533 299.396 327.236L300.527 326.21C300.772 325.988 301.098 325.883 301.425 325.918C301.751 325.953 302.054 326.128 302.253 326.396L325.023 357.597L332.788 347.675L323.403 340.283C322.901 339.886 322.808 339.152 323.204 338.65C323.601 338.149 324.335 338.056 324.837 338.452L335.144 346.567C335.645 346.964 335.738 347.698 335.342 348.2L325.909 360.255C325.688 360.547 325.326 360.722 324.977 360.698C324.615 360.698 324.265 360.512 324.056 360.22L301.145 328.822L300.982 328.973C299.303 330.501 298.988 333.077 300.259 334.954L308.42 347.045C308.77 347.558 308.654 348.246 308.164 348.619C307.674 348.992 306.975 348.922 306.578 348.468L302.334 343.617L290.197 344.002V347.407C290.197 347.733 290.057 348.048 289.812 348.269C289.567 348.491 289.252 348.596 288.914 348.573L287.119 348.409L287.259 349.645C287.55 352.199 289.427 354.286 291.934 354.845L298.778 356.361C298.941 356.396 299.105 356.466 299.233 356.571L310.053 364.907C310.496 365.246 310.636 365.852 310.391 366.353C310.146 366.855 309.575 367.111 309.038 366.959L299.268 364.313L290.15 369.49C291.526 370.947 293.59 371.6 295.548 371.157L301.635 369.816C301.984 369.734 302.358 369.816 302.626 370.061L313.947 379.447C320.826 385.16 330.69 384.997 337.394 379.085L368.303 351.779C375.578 345.355 376.663 334.278 370.786 326.56L356.072 307.24C355.688 306.727 355.781 305.993 356.294 305.608C356.807 305.223 357.541 305.316 357.926 305.829L372.64 325.149C379.251 333.835 378.027 346.299 369.842 353.528L338.933 380.834C335.062 384.25 330.258 385.964 325.455 385.964L325.431 385.906Z" fill="#18292D"/>
<path d="M334.374 348.608C334.106 348.608 333.838 348.515 333.628 348.328C333.138 347.909 333.068 347.174 333.488 346.684L345.322 332.646C345.742 332.157 346.476 332.087 346.966 332.507C347.456 332.926 347.526 333.661 347.106 334.151L335.272 348.188C335.039 348.457 334.712 348.608 334.386 348.608H334.374Z" fill="#18292D"/>
<path d="M311.358 358.472C311.09 358.472 310.81 358.379 310.588 358.18L300.573 349.448L288.902 348.526C288.261 348.48 287.783 347.908 287.829 347.267C287.876 346.626 288.447 346.148 289.088 346.195L301.144 347.139C301.389 347.162 301.634 347.256 301.82 347.419L312.127 356.408C312.617 356.828 312.664 357.574 312.244 358.052C312.011 358.32 311.684 358.449 311.369 358.449L311.358 358.472Z" fill="#18292D"/>
<path d="M314.646 394.429H210.726C210.085 394.429 209.56 393.904 209.56 393.263C209.56 392.622 210.085 392.097 210.726 392.097H314.646C315.287 392.097 315.812 392.622 315.812 393.263C315.812 393.904 315.287 394.429 314.646 394.429Z" fill="#18292D"/>
<path d="M255.753 247.183C238.171 245.469 225.299 229.834 227.013 212.252L227.992 202.143C229.706 184.561 245.342 171.689 262.924 173.403C280.506 175.117 293.378 190.752 291.664 208.334L290.685 218.443C288.971 236.025 273.336 248.897 255.753 247.183Z" fill="#18292D"/>
<path d="M265.303 229.881C250.624 228.458 239.885 215.4 241.308 200.721L241.832 195.288C243.255 180.608 256.313 169.87 270.993 171.292C285.672 172.715 296.41 185.773 294.988 200.453L294.463 205.886C293.041 220.565 279.982 231.303 265.303 229.881Z" fill="#18292D"/>
<path d="M294.987 204.498C285.508 201.933 274.548 200.37 262.854 200.172C248.968 199.939 227.724 214.315 227.223 219.469C226.034 231.653 218.432 241.633 208.137 246.332C219.959 254.132 239.512 259.425 261.735 259.787C291.023 260.276 315.998 252.068 324.87 240.292C309.492 234.393 298.159 220.786 294.987 204.486V204.498Z" fill="#18292D"/>
<path d="M206.12 244.339C205.653 244.339 205.21 244.059 205.035 243.593C204.802 242.998 205.094 242.322 205.7 242.077C216.193 237.973 223.784 228.447 225.498 217.219C225.591 216.578 226.197 216.146 226.827 216.24C227.468 216.333 227.9 216.928 227.806 217.569C225.964 229.625 217.814 239.838 206.551 244.246C206.411 244.304 206.271 244.327 206.131 244.327L206.12 244.339Z" fill="#18292D"/>
<path d="M297.728 198.039C297.145 198.039 296.643 197.596 296.573 197.001C295.699 189.213 292.598 183.162 287.351 179.022C281.813 174.65 273.826 172.598 265.979 173.554C265.35 173.647 264.755 173.181 264.685 172.54C264.603 171.899 265.058 171.316 265.699 171.246C274.141 170.22 282.78 172.447 288.797 177.204C294.545 181.751 297.938 188.327 298.894 196.745C298.964 197.386 298.509 197.957 297.868 198.039C297.821 198.039 297.774 198.039 297.739 198.039H297.728Z" fill="#18292D"/>
<path d="M288.948 213.697L294.871 212.543C298.485 211.844 300.841 208.346 300.141 204.731C299.441 201.117 295.944 198.762 292.329 199.461L286.406 200.616C282.792 201.315 280.437 204.813 281.136 208.427C281.836 212.042 285.334 214.397 288.948 213.697Z" fill="white"/>
<path d="M287.654 214.992C286.115 214.992 284.599 214.537 283.293 213.651C281.556 212.485 280.39 210.713 279.982 208.649C279.154 204.417 281.929 200.301 286.173 199.474L292.096 198.319C294.148 197.923 296.235 198.343 297.972 199.509C299.71 200.674 300.876 202.447 301.284 204.51C302.111 208.743 299.336 212.87 295.092 213.686L289.169 214.841C288.668 214.934 288.155 214.992 287.654 214.992ZM293.588 200.511C293.239 200.511 292.877 200.546 292.527 200.616L286.604 201.77C283.631 202.353 281.684 205.245 282.255 208.218C282.535 209.664 283.363 210.9 284.576 211.728C285.788 212.555 287.257 212.847 288.703 212.567L294.626 211.413C297.599 210.83 299.546 207.938 298.975 204.965C298.695 203.519 297.867 202.283 296.655 201.456C295.734 200.838 294.673 200.511 293.588 200.511Z" fill="#18292D"/>
<path d="M238.206 221.626L232.213 220.938C228.552 220.519 225.94 217.207 226.36 213.558C226.78 209.897 230.091 207.285 233.74 207.705L239.733 208.393C243.383 208.813 246.006 212.124 245.586 215.773C245.166 219.434 241.855 222.046 238.206 221.626Z" fill="white"/>
<path d="M238.987 222.838C238.684 222.838 238.381 222.815 238.066 222.78L232.073 222.092C229.998 221.847 228.132 220.821 226.838 219.177C225.544 217.533 224.961 215.493 225.194 213.418C225.439 211.342 226.465 209.477 228.109 208.183C229.753 206.888 231.793 206.305 233.869 206.539L239.862 207.226C241.937 207.471 243.803 208.497 245.097 210.141C246.391 211.785 246.974 213.826 246.741 215.901C246.496 217.976 245.47 219.842 243.826 221.136C242.427 222.244 240.736 222.827 238.976 222.827L238.987 222.838ZM232.971 208.812C231.735 208.812 230.546 209.22 229.567 210.001C228.412 210.911 227.689 212.217 227.514 213.674C227.351 215.132 227.759 216.566 228.669 217.72C229.578 218.874 230.884 219.597 232.341 219.772L238.334 220.46C241.343 220.81 244.082 218.641 244.432 215.633C244.595 214.175 244.187 212.741 243.278 211.587C242.369 210.433 241.063 209.71 239.605 209.547L233.612 208.859C233.402 208.835 233.181 208.824 232.971 208.824V208.812Z" fill="#18292D"/>
<path d="M268.905 279.853C257.537 280.506 247.79 271.808 247.149 260.44L245.656 234.183C245.015 222.815 253.701 213.068 265.069 212.426C276.437 211.785 286.184 220.471 286.826 231.839L288.318 258.096C288.971 269.464 280.273 279.211 268.905 279.853Z" fill="white"/>
<path d="M267.704 281.053C262.353 281.053 257.257 279.118 253.223 275.515C248.886 271.644 246.309 266.304 245.971 260.498L244.479 234.241C244.152 228.434 246.099 222.838 249.97 218.501C253.841 214.163 259.181 211.587 264.988 211.26C276.985 210.584 287.292 219.783 287.98 231.781L289.472 258.038C289.799 263.844 287.852 269.44 283.981 273.778C280.11 278.115 274.77 280.692 268.963 281.018C268.544 281.042 268.112 281.053 267.704 281.053ZM266.247 213.557C265.874 213.557 265.501 213.557 265.128 213.592C259.939 213.883 255.17 216.18 251.719 220.063C248.256 223.946 246.519 228.936 246.811 234.124L248.303 260.381C248.595 265.57 250.891 270.338 254.774 273.789C258.657 277.252 263.635 278.99 268.835 278.698C274.024 278.407 278.792 276.11 282.244 272.227C285.706 268.344 287.444 263.354 287.152 258.166L285.66 231.909C285.077 221.567 276.472 213.557 266.247 213.557Z" fill="#18292D"/>
<path d="M260.755 247.661C245.936 246.215 235.081 233.04 236.527 218.21L237.355 209.686C238.801 194.867 251.976 184.013 266.807 185.458C281.626 186.904 292.481 200.079 291.035 214.91L290.207 223.433C288.761 238.252 275.586 249.107 260.755 247.661Z" fill="white"/>
<path d="M236.166 207.705V207.751C241.226 205 245.82 194.145 247.114 180.818V180.771C242.054 183.523 237.46 194.378 236.166 207.705Z" fill="#18292D"/>
<path d="M263.344 248.956C262.446 248.956 261.537 248.909 260.639 248.828C246.391 247.44 235.466 235.618 235.233 221.335C235.233 220.693 235.735 220.157 236.376 220.146H236.399C237.029 220.146 237.553 220.659 237.565 221.288C237.787 234.393 247.802 245.237 260.872 246.507C266.772 247.09 272.718 245.598 277.638 242.322C278.175 241.96 278.898 242.112 279.259 242.648C279.621 243.184 279.469 243.907 278.933 244.269C274.315 247.335 268.871 248.968 263.356 248.968L263.344 248.956Z" fill="#18292D"/>
<path d="M291.011 209.698C290.405 209.698 289.892 209.232 289.845 208.614C289.531 204.02 293.425 202.12 293.588 202.038C294.171 201.758 294.871 202.015 295.139 202.586C295.419 203.169 295.174 203.857 294.591 204.137C294.474 204.195 291.968 205.466 292.166 208.439C292.212 209.08 291.723 209.64 291.081 209.687C291.058 209.687 291.023 209.687 291 209.687L291.011 209.698Z" fill="#18292D"/>
<path d="M235.758 217.801C235.116 217.801 234.592 217.288 234.592 216.647C234.568 213.662 231.957 212.578 231.84 212.531C231.246 212.298 230.954 211.622 231.187 211.027C231.42 210.432 232.085 210.129 232.691 210.362C232.866 210.432 236.889 212.03 236.924 216.624C236.924 217.265 236.411 217.789 235.769 217.801H235.758Z" fill="#18292D"/>
<path d="M257.375 204.043C257.666 205.116 255.509 206.643 252.548 207.471C249.586 208.299 246.951 208.089 246.648 207.016C246.356 205.944 248.513 204.416 251.475 203.588C254.436 202.772 257.071 202.97 257.375 204.043Z" fill="#18292D"/>
<path d="M278.024 204.556C277.837 205.652 275.237 206.13 272.206 205.617C269.174 205.116 266.866 203.81 267.052 202.714C267.239 201.618 269.839 201.14 272.87 201.653C275.902 202.166 278.21 203.46 278.024 204.556Z" fill="#18292D"/>
<path d="M249.131 214.408C248.863 214.408 248.595 214.315 248.374 214.129C247.884 213.709 247.826 212.974 248.234 212.485C251.195 208.987 255.346 210.444 257.13 211.703C257.654 212.076 257.783 212.799 257.41 213.324C257.037 213.849 256.314 213.977 255.789 213.604C255.439 213.359 252.291 211.295 250.018 213.989C249.784 214.257 249.458 214.397 249.131 214.397V214.408Z" fill="#18292D"/>
<path d="M269.769 212.998C269.501 212.998 269.233 212.904 269.011 212.718C268.521 212.298 268.463 211.564 268.871 211.074C271.833 207.576 275.983 209.034 277.767 210.293C278.292 210.666 278.42 211.389 278.047 211.913C277.674 212.438 276.951 212.566 276.426 212.193C276.077 211.948 272.929 209.885 270.655 212.578C270.422 212.846 270.095 212.986 269.769 212.986V212.998Z" fill="#18292D"/>
<path d="M264.009 222.232C263.928 222.232 263.858 222.232 263.776 222.209C262.447 221.941 261.292 221.125 260.605 219.959C259.917 218.793 259.753 217.382 260.15 216.099L262.307 209.162C262.493 208.544 263.146 208.206 263.764 208.393C264.382 208.579 264.72 209.232 264.534 209.85L262.377 216.787C262.167 217.464 262.249 218.163 262.61 218.769C262.971 219.376 263.543 219.784 264.242 219.924C264.872 220.052 265.28 220.67 265.152 221.299C265.035 221.847 264.557 222.232 264.009 222.232Z" fill="#18292D"/>
<path d="M264.767 228.598C263.799 228.598 262.808 228.342 261.794 227.829C261.222 227.537 260.989 226.838 261.281 226.266C261.572 225.695 262.272 225.462 262.843 225.753C263.986 226.336 265 226.418 265.956 226.033C268.346 225.054 269.594 221.451 269.605 221.416C269.815 220.81 270.468 220.483 271.086 220.681C271.692 220.891 272.019 221.544 271.821 222.151C271.762 222.337 270.235 226.803 266.854 228.19C266.178 228.47 265.49 228.61 264.778 228.61L264.767 228.598Z" fill="#18292D"/>
<path d="M252.688 191.405C250.904 196.325 247.732 199.694 245.587 198.925C243.442 198.155 243.15 193.538 244.934 188.606C246.718 183.686 249.889 180.317 252.035 181.086C254.18 181.856 254.472 186.473 252.688 191.405Z" fill="#18292D"/>
<path d="M261.631 186.706C264.953 190.752 266.224 195.194 264.475 196.64C262.727 198.085 258.599 195.987 255.276 191.941C251.953 187.895 250.682 183.453 252.431 182.007C254.192 180.561 258.308 182.66 261.631 186.706Z" fill="#18292D"/>
<path d="M273.942 182.835C280.285 187.37 283.818 193.27 281.848 196.021C279.877 198.773 273.138 197.339 266.807 192.815C260.464 188.28 256.931 182.38 258.902 179.628C260.872 176.877 267.611 178.311 273.942 182.835Z" fill="#18292D"/>
<path d="M110.619 241.963H50.8591C45.4141 241.963 41 249.993 41 259.898V318.645C41 328.55 45.4141 336.58 50.8591 336.58H110.619C116.064 336.58 120.479 328.55 120.479 318.645V259.898C120.479 249.993 116.064 241.963 110.619 241.963Z" fill="#4A7C88"/>
<path d="M65.0565 269.861C67.9537 269.861 70.3023 267.428 70.3023 264.428C70.3023 261.427 67.9537 258.994 65.0565 258.994C62.1593 258.994 59.8107 261.427 59.8107 264.428C59.8107 267.428 62.1593 269.861 65.0565 269.861Z" fill="white" stroke="white" stroke-width="1.8248" stroke-linecap="round" stroke-linejoin="round"/>
<path d="M68.2811 273.106C65.734 273.02 63.526 273.106 61.6716 273.092C56.8371 273.07 55.7764 279.413 55.2063 282.927C55.1053 283.533 55.5743 284.089 56.1949 284.081L74.0608 284.067C74.6741 284.067 75.1432 283.526 75.0494 282.92C74.5226 279.463 73.6423 273.287 68.2811 273.099V273.106Z" fill="white" stroke="white" stroke-width="1.8248" stroke-linecap="round" stroke-linejoin="round"/>
<path d="M56.1388 303.464H98.7166" stroke="white" stroke-width="2.78203" stroke-linecap="round" stroke-linejoin="round"/>
<path d="M56.1388 311.034H93.9857" stroke="white" stroke-width="2.78203" stroke-linecap="round" stroke-linejoin="round"/>
<path d="M56.1388 319.549H87.3625" stroke="white" stroke-width="2.78203" stroke-linecap="round" stroke-linejoin="round"/>
<path d="M138.297 308.045C137.143 294.567 133.062 281.497 126.358 269.744L124.854 267.109L108.006 264.521C105.266 264.101 103.028 266.701 103.867 269.348C104.928 272.706 107.563 275.341 110.921 276.402L116.669 278.221C115.2 283.747 116.401 289.635 119.922 294.136L124.854 300.432L138.297 308.034V308.045Z" fill="white"/>
<path d="M138.286 309.211C137.691 309.211 137.178 308.757 137.12 308.139C135.989 294.917 131.908 281.847 125.321 270.327L124.096 268.182L107.808 265.675C106.922 265.535 106.048 265.862 105.453 266.55C104.87 267.226 104.684 268.147 104.952 269.01C105.896 272.006 108.251 274.361 111.248 275.306L116.996 277.125C117.591 277.311 117.929 277.929 117.777 278.536C116.401 283.677 117.544 289.239 120.82 293.436L125.752 299.732C126.149 300.234 126.055 300.968 125.554 301.365C125.053 301.761 124.318 301.668 123.922 301.166L118.99 294.87C115.492 290.405 114.139 284.552 115.27 279.025L110.56 277.533C106.841 276.355 103.914 273.429 102.737 269.709C102.223 268.077 102.573 266.328 103.693 265.034C104.8 263.74 106.479 263.122 108.17 263.378L125.018 265.967C125.367 266.025 125.682 266.235 125.857 266.538L127.361 269.173C134.112 280.984 138.298 294.392 139.452 307.952C139.51 308.593 139.032 309.153 138.391 309.211C138.356 309.211 138.321 309.211 138.286 309.211Z" fill="#18292D"/>
<path d="M204.208 426.878C203.637 426.878 203.136 426.458 203.054 425.875C202.961 425.234 203.404 424.651 204.045 424.557C229.824 420.815 228.553 395.724 228.483 394.651C228.448 394.01 228.926 393.45 229.567 393.415C230.209 393.369 230.768 393.858 230.803 394.5C230.827 394.779 232.307 422.809 204.371 426.866C204.313 426.866 204.255 426.878 204.197 426.878H204.208Z" fill="#18292D"/>
<path d="M322.33 425.665C297.856 425.665 291.7 394.674 291.642 394.348C291.525 393.718 291.934 393.112 292.575 392.984C293.216 392.867 293.822 393.275 293.939 393.916C293.951 393.998 295.501 401.961 300.13 409.528C306.205 419.486 314.483 424.091 324.708 423.228C325.349 423.17 325.909 423.648 325.967 424.289C326.026 424.93 325.548 425.49 324.906 425.548C324.032 425.618 323.181 425.653 322.341 425.653L322.33 425.665Z" fill="#18292D"/>
<path d="M324.067 340.493C323.74 340.493 323.425 340.353 323.204 340.12L318.377 334.862C317.945 334.384 317.969 333.649 318.447 333.218C318.925 332.786 319.659 332.81 320.091 333.288L323.833 337.38C331.529 324.275 342.512 313.409 355.71 305.865L324.661 281.951C324.148 281.555 324.055 280.832 324.451 280.319C324.848 279.806 325.571 279.713 326.084 280.109L358.532 305.107C358.847 305.352 359.01 305.725 358.986 306.11C358.963 306.494 358.73 306.856 358.392 307.042L357.541 307.521C343.946 315.134 332.718 326.339 325.081 339.922C324.894 340.248 324.568 340.47 324.195 340.505C324.148 340.505 324.102 340.505 324.067 340.505V340.493Z" fill="#18292D"/>
<circle cx="99" cy="83" r="49.5" fill="white" stroke="#18292D"/>
<g clip-path="url(#clip1_930_8257)">
<path d="M115.218 68.867C115.218 65.7174 117.773 63.168 120.917 63.168C124.06 63.168 126.616 65.7174 126.616 68.867H115.212H115.218Z" fill="#18292D" stroke="#18292D" stroke-width="1.24344" stroke-linecap="round" stroke-linejoin="round"/>
<path d="M120.75 63.1621C117.6 63.1621 115.051 65.7115 115.051 68.8611V104.503C115.051 108.179 112.074 111.155 108.399 111.155H79.4151V68.8673C79.4151 65.7177 81.9706 63.1683 85.1141 63.1683H120.75V63.1621Z" fill="white" stroke="#18292D" stroke-width="1.24344" stroke-linecap="round" stroke-linejoin="round"/>
<path d="M107.081 111.161H80.0894C74.8421 111.161 72.6021 108.822 72.6021 104.689V104.614H101.394C101.982 111.489 107.075 111.161 107.075 111.161H107.081Z" fill="white" stroke="#18292D" stroke-width="1.24344" stroke-linecap="round" stroke-linejoin="round"/>
<path d="M85.8761 75.061L109.415 75.092" stroke="#FFC31F" stroke-width="1.24344" stroke-linecap="round" stroke-linejoin="round"/>
<path d="M86.0489 81.4902L109.581 81.515" stroke="#FFC31F" stroke-width="1.24344" stroke-linecap="round" stroke-linejoin="round"/>
<path d="M86.2158 87.9136L109.748 87.9445" stroke="#FFC31F" stroke-width="1.24344" stroke-linecap="round" stroke-linejoin="round"/>
<path d="M86.2158 94.3862L92.8925 94.4234" stroke="#FFC31F" stroke-width="1.24344" stroke-linecap="round" stroke-linejoin="round"/>
<path d="M114.724 55.9595C113.579 55.3902 112.174 55.8729 111.592 57.0238L97.1686 85.7972C97.1006 85.9271 97.0511 86.0633 97.0139 86.1994L95.4484 94.2126C95.4051 94.3673 95.4979 94.4106 95.5969 94.2869L101.092 88.2476C101.178 88.1362 101.253 88.0124 101.321 87.8825L115.751 59.0844C116.326 57.9334 115.862 56.5288 114.724 55.9595Z" fill="white" stroke="#18292D" stroke-width="1.24344" stroke-linecap="round" stroke-linejoin="round"/>
<path d="M109.945 60.3594L114.011 62.4014" stroke="#18292D" stroke-width="1.24344" stroke-linecap="round" stroke-linejoin="round"/>
<path d="M96.2829 89.9062L98.5477 91.0262" stroke="#18292D" stroke-width="1.24344" stroke-linecap="round" stroke-linejoin="round"/>
<path d="M111.288 57.7915L115.366 59.8149" stroke="#18292D" stroke-width="1.24344" stroke-linecap="round" stroke-linejoin="round"/>
<path d="M99.2356 87.0102L111.945 61.374" stroke="#18292D" stroke-width="1.24344" stroke-linecap="round" stroke-linejoin="round"/>
<path d="M97.088 85.9463L101.246 88.0068" stroke="#18292D" stroke-width="1.24344" stroke-linecap="round" stroke-linejoin="round"/>
</g>
<circle cx="341" cy="83" r="49.5" fill="white" stroke="#18292D"/>
<g clip-path="url(#clip2_930_8257)">
<path d="M324.033 107.875C323.077 107.875 322.301 107.099 322.301 106.143V71.4704C322.296 62.7375 329.403 55.6309 338.135 55.6309C346.868 55.6309 355.564 59.8231 360.987 67.1409C366.404 74.4535 367.993 83.6457 365.343 92.3522C364.028 96.6764 361.451 100.43 357.898 103.213C357.143 103.804 356.055 103.672 355.464 102.917C354.873 102.162 355.005 101.074 355.76 100.483C358.753 98.1389 360.918 94.9763 362.027 91.3384C364.355 83.6932 362.961 75.6256 358.204 69.2001C353.436 62.785 346.124 59.0997 338.135 59.0997C331.314 59.0997 325.77 64.6488 325.77 71.4651V106.143C325.77 107.099 324.994 107.875 324.038 107.875H324.033Z" fill="#18292D" stroke="#18292D" stroke-width="1.15148" stroke-linecap="round" stroke-linejoin="round"/>
<path d="M355.458 90.0292L353.552 91.8402C352.813 92.5424 351.646 92.5265 350.928 91.8032L348.383 89.2583L352.903 84.7388L355.495 87.3312C356.245 88.0809 356.229 89.3006 355.458 90.0292Z" fill="#FFC31F" stroke="#FFC31F" stroke-width="1.15148" stroke-linecap="round" stroke-linejoin="round"/>
<path d="M348.949 96.2015L344.282 100.626C343.543 101.328 342.376 101.312 341.658 100.589L339.356 98.2871L346.563 91.0801L348.986 93.5035C349.736 94.2533 349.72 95.4729 348.949 96.2015Z" fill="#FFC31F" stroke="#FFC31F" stroke-width="1.15148" stroke-linecap="round" stroke-linejoin="round"/>
<path d="M318.236 108.593C314.097 104.454 314.672 98.3241 318.812 94.1847L340 71.8404C344.139 67.701 350.845 67.701 354.984 71.8404C359.123 75.9798 359.123 82.6852 354.984 86.8246L332.64 108.018C328.5 112.157 322.37 112.733 318.231 108.593H318.236Z" fill="white" stroke="#18292D" stroke-width="1.15148" stroke-linecap="round" stroke-linejoin="round"/>
<path d="M320.686 106.144C317.618 103.076 318.833 99.0686 321.262 96.6398L329.266 88.2026" fill="white"/>
<path d="M320.686 106.144C317.618 103.076 318.833 99.0686 321.262 96.6398L329.266 88.2026" stroke="#18292D" stroke-width="1.15148" stroke-linecap="round" stroke-linejoin="round"/>
<path d="M347.491 86.9774C351.713 86.9774 355.136 83.5546 355.136 79.3322C355.136 75.1099 351.713 71.687 347.491 71.687C343.268 71.687 339.846 75.1099 339.846 79.3322C339.846 83.5546 343.268 86.9774 347.491 86.9774Z" fill="#18292D" stroke="#18292D" stroke-width="1.15148" stroke-linecap="round" stroke-linejoin="round"/>
<path d="M350.378 82.2202C348.784 83.8147 346.202 83.8147 344.607 82.2202C343.013 80.6257 343.013 78.0438 344.607 76.4493C346.202 74.8548 348.784 74.8548 350.378 76.4493C351.973 78.0438 351.973 80.6257 350.378 82.2202Z" fill="white" stroke="#18292D" stroke-width="1.15148" stroke-linecap="round" stroke-linejoin="round"/>
</g>
</g>
<defs>
<clipPath id="clip0_930_8257">
<rect width="460" height="460" fill="white"/>
</clipPath>
<clipPath id="clip1_930_8257">
<rect width="55.214" height="56.6372" fill="white" transform="translate(72.0089 55.124)"/>
</clipPath>
<clipPath id="clip2_930_8257">
<rect width="52.2124" height="56.8111" fill="white" transform="translate(314.894 55.124)"/>
</clipPath>
</defs>
</svg>
