<svg width="460" height="460" viewBox="0 0 460 460" fill="none" xmlns="http://www.w3.org/2000/svg">
<rect width="460" height="460" fill="white"/>
<path d="M324 80.2C324.11 80.2 324.2 80.1105 324.2 80V79C324.2 78.8895 324.11 78.8 324 78.8H319C318.89 78.8 318.8 78.8895 318.8 79V80C318.8 80.1105 318.89 80.2 319 80.2H324ZM311 80.2C311.11 80.2 311.2 80.1105 311.2 80V79C311.2 78.8895 311.11 78.8 311 78.8H306C305.89 78.8 305.8 78.8895 305.8 79V80C305.8 80.1105 305.89 80.2 306 80.2H311ZM298 80.2C298.11 80.2 298.2 80.1105 298.2 80V79C298.2 78.8895 298.11 78.8 298 78.8H293C292.89 78.8 292.8 78.8895 292.8 79V80C292.8 80.1105 292.89 80.2 293 80.2H298ZM285 80.2C285.11 80.2 285.2 80.1105 285.2 80V79C285.2 78.8895 285.11 78.8 285 78.8H280C279.89 78.8 279.8 78.8895 279.8 79V80C279.8 80.1105 279.89 80.2 280 80.2H285ZM272 80.2C272.11 80.2 272.2 80.1105 272.2 80V79C272.2 78.8895 272.11 78.8 272 78.8H267C266.89 78.8 266.8 78.8895 266.8 79V80C266.8 80.1105 266.89 80.2 267 80.2H272ZM259 80.2C259.11 80.2 259.2 80.1105 259.2 80V79C259.2 78.8895 259.11 78.8 259 78.8H254C253.89 78.8 253.8 78.8895 253.8 79V80C253.8 80.1105 253.89 80.2 254 80.2H259ZM246 80.2C246.11 80.2 246.2 80.1105 246.2 80V79C246.2 78.8895 246.11 78.8 246 78.8H241C240.89 78.8 240.8 78.8895 240.8 79V80C240.8 80.1105 240.89 80.2 241 80.2H246ZM233 80.2C233.11 80.2 233.2 80.1105 233.2 80V79C233.2 78.8895 233.11 78.8 233 78.8H228C227.89 78.8 227.8 78.8895 227.8 79V80C227.8 80.1105 227.89 80.2 228 80.2H233ZM220 80.2C220.11 80.2 220.2 80.1105 220.2 80V79C220.2 78.8895 220.11 78.8 220 78.8H215C214.89 78.8 214.8 78.8895 214.8 79V80C214.8 80.1105 214.89 80.2 215 80.2H220ZM207 80.2C207.11 80.2 207.2 80.1105 207.2 80V79C207.2 78.8895 207.11 78.8 207 78.8H202C201.89 78.8 201.8 78.8895 201.8 79V80C201.8 80.1105 201.89 80.2 202 80.2H207ZM194 80.2C194.11 80.2 194.2 80.1105 194.2 80V79C194.2 78.8895 194.11 78.8 194 78.8H189C188.89 78.8 188.8 78.8895 188.8 79V80C188.8 80.1105 188.89 80.2 189 80.2H194ZM181 80.2C181.11 80.2 181.2 80.1105 181.2 80V79C181.2 78.8895 181.11 78.8 181 78.8H176C175.89 78.8 175.8 78.8895 175.8 79V80C175.8 80.1105 175.89 80.2 176 80.2H181ZM168 80.2C168.11 80.2 168.2 80.1105 168.2 80V79C168.2 78.8895 168.11 78.8 168 78.8H163C162.89 78.8 162.8 78.8895 162.8 79V80C162.8 80.1105 162.89 80.2 163 80.2H168ZM155 80.2C155.11 80.2 155.2 80.1105 155.2 80V79C155.2 78.8895 155.11 78.8 155 78.8H150C149.89 78.8 149.8 78.8895 149.8 79V80C149.8 80.1105 149.89 80.2 150 80.2H155ZM142 80.2C142.11 80.2 142.2 80.1105 142.2 80V79C142.2 78.8895 142.11 78.8 142 78.8H137C136.89 78.8 136.8 78.8895 136.8 79V80C136.8 80.1105 136.89 80.2 137 80.2H142ZM129 80.2C129.11 80.2 129.2 80.1105 129.2 80V79C129.2 78.8895 129.11 78.8 129 78.8H124C123.89 78.8 123.8 78.8895 123.8 79V80C123.8 80.1105 123.89 80.2 124 80.2H129ZM116 80.2C116.11 80.2 116.2 80.1105 116.2 80V79C116.2 78.8895 116.11 78.8 116 78.8H111C110.89 78.8 110.8 78.8895 110.8 79V80C110.8 80.1105 110.89 80.2 111 80.2H116ZM103 80.2C103.11 80.2 103.2 80.1105 103.2 80V79C103.2 78.8895 103.11 78.8 103 78.8H98C97.8895 78.8 97.8 78.8895 97.8 79V80C97.8 80.1105 97.8895 80.2 98 80.2H103ZM90 80.2C90.1105 80.2 90.2 80.1105 90.2 80V79C90.2 78.8895 90.1105 78.8 90 78.8H85C84.8895 78.8 84.8 78.8895 84.8 79V80C84.8 80.1105 84.8895 80.2 85 80.2H90Z" fill="black" stroke="black" stroke-width="0.4" stroke-linejoin="round"/>
<path d="M207.939 231.455C207.143 230.302 211.212 217.687 211.113 216.31C210.769 211.518 209.539 206.812 208.288 202.212C204.322 187.641 196.6 175.385 184.297 166.534C175.3 160.061 157.765 153.215 148.44 162.969C141.439 170.292 144.205 176.62 150.775 182.245C156.572 187.207 162.144 183.452 166.033 177.671C169.631 172.324 169.957 169.184 168.891 163.125C166.601 150.107 162.064 139.995 154.018 129.529C151.929 126.812 144.234 114.384 140.069 115.474" stroke="black" stroke-width="1.94214" stroke-linecap="round" stroke-linejoin="round" stroke-dasharray="5.83 5.83"/>
<path d="M234.736 200.161C267.912 197.555 299.765 208.323 322.299 222.984C345.055 237.937 358.484 256.786 359.95 276.93C361.428 297.268 351.226 316.585 336.111 335.666C320.792 354.459 300.56 373.018 277.371 385.046C232.553 410.197 181.199 389.838 156.72 329.054C132.215 268.654 166.519 203.63 234.736 200.161Z" fill="#F2F7F8"/>
<path d="M307.245 174.192C304.277 174.151 301.392 174.535 298.662 175.282C296.773 174.981 285.15 179.817 278.84 180.814C274.606 181.488 270.33 179.06 267.144 176.891C265.899 175.759 264.488 174.794 262.962 174.037C259.205 171.961 255.137 172.148 255.137 172.148C245.039 171.992 236.726 180.066 236.571 190.164C236.415 200.262 244.489 208.575 254.587 208.73C256.154 208.751 257.68 208.575 259.143 208.232C267.435 207.267 269.147 208.035 272.842 211.086C275.748 213.483 278.913 218.06 280.231 220.063C285.441 229.102 295.134 235.256 306.321 235.422C323.227 235.671 337.144 222.17 337.393 205.264C337.642 188.358 324.14 174.441 307.234 174.192H307.245Z" fill="#18292D"/>
<path d="M330.636 223.363C330.636 223.363 330.543 223.363 330.502 223.363C329.931 223.29 329.536 222.761 329.609 222.201L329.692 221.609C331.56 205.409 320.29 190.672 304.567 188.763C301.879 188.441 299.15 188.503 296.462 188.97C296.317 188.991 296.161 188.991 296.016 188.95C295.32 188.804 291.688 189.624 288.772 190.278C284.631 191.212 279.94 192.271 276.63 192.457C271.98 192.706 267.767 189.52 264.975 187.102C264.934 187.071 264.902 187.04 264.871 186.999C263.823 185.805 262.64 184.767 261.332 183.916C258.167 181.654 254.504 181.405 254.462 181.405C248.049 180.627 240.089 182.079 236.768 188.462C236.498 188.97 235.875 189.168 235.367 188.908C234.858 188.649 234.661 188.016 234.921 187.507C238.729 180.18 247.613 178.478 254.639 179.34C254.742 179.34 258.862 179.599 262.484 182.204C263.896 183.117 265.214 184.259 266.376 185.577C268.888 187.756 272.644 190.6 276.495 190.382C279.629 190.205 284.237 189.168 288.294 188.244C292.622 187.268 295.082 186.729 296.275 186.884C299.098 186.417 301.973 186.355 304.795 186.698C321.649 188.742 333.729 204.517 331.726 221.848C331.716 221.983 331.695 222.107 331.674 222.242L331.643 222.481C331.571 223 331.124 223.384 330.616 223.384L330.636 223.363Z" fill="white"/>
<path d="M346.37 197.335C345.84 197.335 345.384 196.93 345.332 196.39C343.537 176.402 327.368 161.448 309.372 163.077C306.29 163.357 303.27 164.115 300.385 165.339C300.24 165.402 300.074 165.433 299.908 165.422C299.077 165.422 295.227 167.301 292.134 168.816C287.755 170.964 282.784 173.393 279.162 174.431C274.108 175.883 268.649 173.123 264.986 170.923C264.944 170.902 264.903 170.871 264.861 170.84C263.408 169.657 261.82 168.702 260.15 168.007C256.04 166.055 251.909 166.689 251.868 166.699C241.251 167.654 233.53 177.959 234.589 189.665C234.641 190.236 234.215 190.745 233.644 190.797C233.084 190.848 232.565 190.423 232.513 189.852C231.361 177.004 239.923 165.692 251.609 164.644C251.733 164.623 256.351 163.918 260.99 166.118C262.775 166.855 264.508 167.903 266.107 169.19C269.438 171.182 274.336 173.673 278.581 172.448C282.037 171.452 286.914 169.065 291.221 166.958C295.819 164.706 298.423 163.461 299.762 163.357C302.793 162.091 305.968 161.313 309.196 161.022C328.354 159.299 345.508 175.084 347.407 196.214C347.459 196.785 347.034 197.293 346.463 197.345C346.432 197.345 346.401 197.345 346.37 197.345V197.335Z" fill="#18292D"/>
<path d="M263.657 237.305C275.762 218.821 270.591 194.023 252.106 181.918C233.622 169.813 208.824 174.984 196.719 193.469C184.614 211.953 189.786 236.751 208.27 248.856C226.754 260.961 251.552 255.789 263.657 237.305Z" fill="#18292D"/>
<path d="M309.497 300.253L349.027 371.104C358.522 388.123 351.714 409.637 334.155 418.095C321.245 424.311 305.823 421.738 295.642 411.661L250.28 366.776L204.171 305.733L232.741 271.963L273.599 276.457C288.71 278.117 302.087 286.99 309.486 300.264L309.497 300.253Z" fill="#18292D"/>
<path d="M218.086 230.361L251.865 224.009L261.758 276.617C263.08 283.644 258.45 290.417 251.423 291.739L243.101 293.304C236.073 294.625 229.3 289.996 227.978 282.969L218.086 230.361Z" fill="white"/>
<path d="M240.681 294.493C237.91 294.493 235.191 293.663 232.856 292.065C229.784 289.968 227.719 286.793 227.023 283.14L217.123 230.534C217.019 230.005 217.372 229.496 217.901 229.392L251.681 223.041C251.941 222.989 252.2 223.041 252.418 223.197C252.636 223.342 252.781 223.57 252.823 223.819L262.723 276.425C263.408 280.078 262.63 283.783 260.534 286.855C258.437 289.927 255.262 292.003 251.609 292.687L243.285 294.255C242.414 294.421 241.542 294.504 240.681 294.504V294.493ZM219.229 231.125L228.943 282.776C229.535 285.921 231.309 288.64 233.956 290.446C236.602 292.252 239.788 292.916 242.922 292.324L251.245 290.757C254.39 290.166 257.109 288.391 258.915 285.745C260.72 283.109 261.385 279.923 260.793 276.778L251.079 225.127L219.219 231.125H219.229Z" fill="#18292D"/>
<path d="M190.628 230.078L194.374 249.225C196.647 260.807 208.965 266.982 219.125 261.606L233.239 254.144C244.105 248.405 247.312 233.897 239.944 223.799L221.896 199.068L204.731 204.911C194.55 208.377 188.49 219.181 190.628 230.067V230.078Z" fill="white"/>
<path d="M211.311 264.542C208.706 264.542 206.101 263.961 203.662 262.788C198.318 260.235 194.592 255.358 193.419 249.411L189.662 230.264C187.441 218.91 193.782 207.619 204.42 203.997L221.585 198.154C221.99 198.02 222.436 198.154 222.685 198.507L240.732 223.238C244.458 228.344 245.776 234.83 244.333 241.047C242.932 247.097 239.061 252.193 233.696 255.026L219.582 262.487C216.967 263.868 214.144 264.563 211.311 264.563V264.542ZM191.582 229.89L195.339 249.038C196.387 254.382 199.729 258.751 204.503 261.035C209.048 263.204 214.217 263.1 218.679 260.754L232.793 253.293C237.65 250.729 241.168 246.101 242.445 240.6C243.752 234.944 242.559 229.029 239.165 224.39L221.543 200.24L205.053 205.855C195.339 209.165 189.548 219.502 191.593 229.901L191.582 229.89Z" fill="#18292D"/>
<path d="M212.318 195.363L221.035 213.815L182.128 227.628L180.125 216.192C178.641 207.703 185.096 199.66 194.623 198.155L212.328 195.363H212.318Z" fill="#18292D"/>
<path d="M213.449 200.169L229.42 218.735C233.323 223.27 239.456 223.073 243.047 218.299L248.142 211.533L233.291 196.734C228.621 192.084 221.035 192.188 216.489 196.962L213.449 200.169Z" fill="#18292D"/>
<path d="M191.24 232.111C191.032 232.111 190.825 232.049 190.638 231.904C190.212 231.572 190.14 230.959 190.461 230.534C192.153 228.355 194.561 227.566 194.665 227.524C195.173 227.358 195.733 227.638 195.889 228.157C196.055 228.666 195.775 229.216 195.266 229.382C195.266 229.382 193.315 230.046 191.997 231.727C191.8 231.976 191.52 232.101 191.229 232.101L191.24 232.111Z" fill="#18292D"/>
<path d="M206.018 226.186C205.613 226.186 205.24 225.937 205.095 225.532C204.918 225.024 205.188 224.463 205.696 224.287C206.247 224.09 211.186 222.429 214.051 223.747C214.539 223.976 214.756 224.557 214.528 225.044C214.3 225.532 213.729 225.75 213.231 225.522C211.404 224.681 207.627 225.678 206.33 226.134C206.226 226.176 206.112 226.186 206.008 226.186H206.018Z" fill="#18292D"/>
<path d="M202.562 233.771L201.587 235.556C200.694 237.207 201.929 239.21 203.808 239.147L205.613 239.085L202.562 233.771Z" fill="white"/>
<path d="M203.714 240.123C202.521 240.123 201.452 239.521 200.819 238.504C200.165 237.456 200.134 236.18 200.725 235.09L201.691 233.305C201.95 232.828 202.542 232.651 203.019 232.911C203.496 233.17 203.673 233.762 203.413 234.239L202.438 236.024C202.189 236.491 202.199 237.031 202.479 237.477C202.76 237.923 203.237 238.172 203.766 238.162L205.572 238.1C206.091 238.069 206.568 238.504 206.579 239.044C206.599 239.584 206.174 240.04 205.634 240.051L203.828 240.113C203.828 240.113 203.745 240.113 203.704 240.113L203.714 240.123Z" fill="#18292D"/>
<path d="M214.59 251.144C212.494 251.144 209.733 249.878 206.226 247.325C205.966 247.138 205.821 246.827 205.821 246.505C205.821 246.184 205.997 245.883 206.267 245.717L216.707 238.961C216.967 238.795 217.299 238.753 217.589 238.867C217.88 238.981 218.098 239.22 218.181 239.531C218.409 240.403 220.35 248.093 216.873 250.48C216.23 250.926 215.462 251.144 214.58 251.144H214.59ZM208.55 246.568C213.158 249.681 215.047 249.37 215.773 248.872C217.288 247.834 217.143 244.15 216.604 241.368L208.55 246.578V246.568Z" fill="#18292D"/>
<path d="M211.632 231.074C211.674 232.351 210.678 233.42 209.401 233.461C208.125 233.503 207.056 232.506 207.014 231.23C206.973 229.953 207.969 228.885 209.245 228.843C210.522 228.802 211.591 229.798 211.632 231.074Z" fill="#18292D"/>
<path d="M199.065 234.384C199.106 235.66 198.11 236.729 196.833 236.771C195.557 236.812 194.488 235.816 194.447 234.54C194.405 233.263 195.401 232.194 196.678 232.153C197.954 232.111 199.023 233.107 199.065 234.384Z" fill="#18292D"/>
<path d="M317.82 352.164C317.706 352.164 317.581 352.143 317.467 352.102L276.08 336.203C275.582 336.005 275.322 335.445 275.519 334.937C275.717 334.428 276.277 334.179 276.785 334.376L318.173 350.275C318.671 350.472 318.93 351.033 318.733 351.541C318.588 351.925 318.214 352.164 317.82 352.164Z" fill="white"/>
<path d="M123.326 260.464L124.292 369.526L156.65 392.503L245.309 388.258V270.105L156.65 287.498L123.326 260.464Z" fill="white"/>
<path d="M156.65 393.541C156.432 393.541 156.225 393.478 156.048 393.354L123.69 370.377C123.42 370.18 123.254 369.868 123.254 369.536L122.299 260.474C122.299 260.07 122.527 259.706 122.891 259.53C123.254 259.353 123.679 259.405 123.991 259.654L156.93 286.388L245.112 269.088C245.413 269.026 245.735 269.109 245.973 269.306C246.212 269.503 246.347 269.794 246.347 270.105V388.258C246.347 388.808 245.911 389.265 245.361 389.296L156.702 393.541C156.702 393.541 156.671 393.541 156.65 393.541ZM125.319 368.986L156.951 391.455L244.261 387.272V271.371L156.837 288.516C156.536 288.578 156.225 288.495 155.986 288.298L124.375 262.654L125.309 368.976L125.319 368.986Z" fill="#18292D"/>
<path d="M113.25 262.166L114.63 374.57L156.038 404.033L253.591 397.266V275.502L156.038 288.391L113.25 262.166Z" fill="#96D8E8"/>
<path d="M156.038 405.071C155.467 405.071 155 404.604 155 404.033V288.391C155 287.821 155.467 287.354 156.038 287.354C156.609 287.354 157.076 287.821 157.076 288.391V404.033C157.076 404.604 156.609 405.071 156.038 405.071Z" fill="#18292D"/>
<path d="M265.909 305.11C265.909 305.11 274.803 322.12 272.987 330.817C270.434 343.063 259.164 346.269 257.939 346.674L265.909 305.11Z" fill="white"/>
<path d="M247.322 333.546C247.322 333.546 240.244 340.375 239.923 348.76C239.601 357.135 245.267 366.299 254.971 371.54C260.097 374.3 273.049 360.964 276.37 354.8C282.14 344.048 276.443 335.289 276.443 335.289L272.302 333.639L247.333 333.556L247.322 333.546Z" fill="white"/>
<path d="M256.569 372.878C255.801 372.878 255.116 372.712 254.504 372.391C244.697 367.098 238.595 357.81 238.947 348.719C239.279 340.043 246.347 333.131 246.648 332.84C247.032 332.467 247.654 332.477 248.028 332.861C248.402 333.245 248.391 333.868 248.007 334.241C247.935 334.304 241.21 340.914 240.898 348.791C240.577 357.011 246.42 365.801 255.438 370.668C256.061 371.01 256.943 371.01 258.053 370.668C263.657 368.987 272.769 359.429 275.509 354.312C280.418 345.169 276.599 337.51 275.768 336.047L271.939 334.511C271.441 334.314 271.192 333.743 271.389 333.245C271.586 332.747 272.157 332.498 272.655 332.705L276.796 334.355C276.983 334.428 277.138 334.563 277.252 334.729C277.502 335.103 283.199 344.1 277.221 355.236C274.585 360.145 265.141 370.575 258.603 372.536C257.866 372.754 257.192 372.868 256.559 372.868L256.569 372.878Z" fill="#18292D"/>
<path d="M266.241 314.274C268.057 312.904 268.732 310.413 267.725 308.275C260.741 293.59 247.893 292.656 247.343 292.615C244.655 292.449 242.341 294.504 242.175 297.192C242.009 299.859 244.022 302.152 246.679 302.349C247.115 302.391 254.514 303.221 258.915 312.478C260.066 314.907 262.983 315.934 265.411 314.772C265.712 314.627 265.992 314.46 266.241 314.263V314.274Z" fill="white"/>
<path d="M263.304 316.225C262.64 316.225 261.986 316.111 261.343 315.882C259.869 315.364 258.697 314.295 258.022 312.883C253.84 304.093 246.876 303.335 246.575 303.304C243.42 303.076 240.992 300.305 241.189 297.119C241.386 293.902 244.178 291.442 247.395 291.629C247.966 291.66 261.374 292.646 268.597 307.839C269.791 310.341 269.043 313.371 266.823 315.031C266.511 315.26 266.179 315.467 265.826 315.633C265.027 316.017 264.166 316.204 263.304 316.204V316.225ZM247.042 293.58C244.998 293.58 243.265 295.178 243.14 297.244C243.005 299.361 244.624 301.208 246.741 301.364C247.104 301.395 255.137 302.267 259.786 312.043C260.233 312.977 261.011 313.693 261.997 314.035C262.983 314.388 264.041 314.326 264.986 313.879C265.224 313.765 265.453 313.63 265.66 313.475C267.134 312.364 267.632 310.351 266.843 308.68C260.108 294.514 247.81 293.611 247.291 293.58C247.208 293.58 247.136 293.58 247.053 293.58H247.042Z" fill="#18292D"/>
<path d="M270.341 316.91C260.648 303.854 247.852 305.421 247.312 305.484C244.645 305.847 242.766 308.296 243.119 310.963C243.472 313.61 245.89 315.478 248.537 315.145C248.962 315.104 256.393 314.492 262.505 322.721L270.341 316.899V316.91Z" fill="white"/>
<path d="M262.505 323.707C262.204 323.707 261.914 323.572 261.717 323.313C255.915 315.498 248.931 316.1 248.63 316.131C245.485 316.515 242.569 314.263 242.144 311.108C241.718 307.912 243.981 304.954 247.177 304.529C247.737 304.456 261.094 302.837 271.119 316.339C271.441 316.775 271.347 317.387 270.911 317.709C270.476 318.03 269.863 317.937 269.542 317.511C260.191 304.923 247.945 306.407 247.426 306.48C245.299 306.77 243.794 308.732 244.074 310.87C244.354 312.976 246.305 314.471 248.402 314.211C248.765 314.17 256.818 313.474 263.273 322.171C263.595 322.607 263.502 323.219 263.066 323.541C262.889 323.666 262.682 323.738 262.485 323.738L262.505 323.707Z" fill="#18292D"/>
<path d="M269.967 324.204C260.45 313.006 248.785 314.418 248.266 314.49C245.589 314.854 243.71 317.313 244.063 319.991C244.416 322.647 246.845 324.526 249.501 324.194C249.937 324.152 257.378 323.55 263.522 331.811L269.967 324.204Z" fill="white"/>
<path d="M263.522 332.798C263.221 332.798 262.931 332.663 262.733 332.403C256.901 324.537 249.896 325.149 249.605 325.18C246.45 325.575 243.524 323.302 243.098 320.126C242.673 316.919 244.925 313.962 248.132 313.526C248.65 313.464 260.845 311.98 270.704 323.572C271.056 323.987 271.005 324.599 270.589 324.952C270.185 325.305 269.562 325.253 269.209 324.838C260.025 314.045 248.848 315.394 248.381 315.456C246.243 315.747 244.738 317.719 245.018 319.856C245.298 321.974 247.26 323.478 249.377 323.219C249.74 323.188 257.804 322.482 264.29 331.22C264.612 331.656 264.518 332.268 264.082 332.59C263.906 332.715 263.698 332.787 263.501 332.787L263.522 332.798Z" fill="#18292D"/>
<path d="M266.013 332.685C259.63 325.037 251.505 324.86 250.602 324.86C247.903 324.871 245.724 327.081 245.734 329.78C245.755 332.457 247.914 334.626 250.591 334.647C250.882 334.647 255.095 334.865 258.499 338.954L266.013 332.685Z" fill="white"/>
<path d="M258.499 339.929C258.219 339.929 257.939 339.805 257.752 339.576C254.608 335.809 250.726 335.633 250.56 335.622C247.395 335.601 244.78 332.986 244.759 329.79C244.759 328.223 245.351 326.749 246.451 325.628C247.551 324.518 249.024 323.895 250.591 323.885H250.633C251.775 323.885 260.181 324.165 266.76 332.063C267.103 332.478 267.051 333.09 266.636 333.443C266.221 333.796 265.608 333.733 265.256 333.318C259.236 326.095 251.66 325.846 250.633 325.846H250.591C249.543 325.846 248.568 326.261 247.831 327.009C247.094 327.756 246.689 328.742 246.7 329.779C246.71 331.907 248.454 333.661 250.591 333.671C251.121 333.692 255.614 333.972 259.247 338.331C259.589 338.746 259.537 339.358 259.122 339.711C258.935 339.867 258.717 339.939 258.499 339.939V339.929Z" fill="#18292D"/>
<path d="M257.939 347.659C257.534 347.659 257.15 347.4 257.015 346.995C256.849 346.487 257.119 345.926 257.628 345.76L257.804 345.708C261.374 344.556 269.915 340.789 272.032 330.629C273.755 322.379 265.131 305.743 265.048 305.577C264.799 305.099 264.985 304.508 265.463 304.259C265.94 304.01 266.532 304.197 266.781 304.674C267.154 305.38 275.81 322.099 273.952 331.034C271.627 342.201 262.308 346.321 258.416 347.576L258.261 347.628C258.157 347.659 258.053 347.68 257.949 347.68L257.939 347.659Z" fill="#18292D"/>
<path d="M116.041 291.463C116.041 291.463 103.37 305.66 102.996 314.46C102.477 326.852 112.534 332.674 113.613 333.369L116.052 291.473L116.041 291.463Z" fill="white"/>
<path d="M113.509 300.191C112.087 298.437 112.056 295.874 113.54 294.068C123.825 281.646 136.403 283.867 136.932 283.97C139.558 284.468 141.291 287.001 140.793 289.626C140.305 292.231 137.814 293.954 135.209 293.487C134.784 293.425 127.467 292.428 120.991 300.253C119.289 302.308 116.249 302.588 114.184 300.886C113.934 300.679 113.706 300.451 113.499 300.201L113.509 300.191Z" fill="white"/>
<path d="M117.266 302.972C115.917 302.972 114.619 302.505 113.561 301.634C113.26 301.385 112.99 301.115 112.741 300.814C111.008 298.676 111.029 295.573 112.783 293.456C123.42 280.598 136.559 282.912 137.109 283.016C140.253 283.618 142.339 286.658 141.747 289.803C141.166 292.916 138.157 295.002 135.033 294.442C134.763 294.4 127.893 293.435 121.739 300.866C120.753 302.059 119.362 302.796 117.816 302.941C117.629 302.962 117.442 302.962 117.266 302.962V302.972ZM114.267 299.579C114.433 299.776 114.609 299.963 114.806 300.129C115.605 300.793 116.612 301.094 117.639 301.001C118.667 300.907 119.591 300.419 120.244 299.62C127.094 291.339 135.033 292.46 135.365 292.511C137.451 292.885 139.454 291.505 139.838 289.44C140.232 287.343 138.842 285.32 136.756 284.925C136.247 284.832 124.209 282.704 114.298 294.691C113.135 296.102 113.125 298.157 114.267 299.579Z" fill="#18292D"/>
<path d="M108.922 301.727C121.417 291.536 133.331 296.144 133.839 296.341C136.32 297.337 137.524 300.15 136.538 302.63C135.552 305.09 132.781 306.293 130.311 305.339C129.906 305.193 122.922 302.796 115.045 309.23L108.922 301.727Z" fill="white"/>
<path d="M115.045 310.206C114.765 310.206 114.485 310.081 114.287 309.843C113.945 309.428 114.007 308.805 114.422 308.473C122.745 301.675 130.321 304.311 130.633 304.425C132.615 305.193 134.846 304.228 135.614 302.277C136.403 300.295 135.438 298.043 133.456 297.254C132.978 297.057 121.562 292.657 109.524 302.485C109.109 302.827 108.486 302.765 108.154 302.35C107.812 301.935 107.874 301.312 108.289 300.98C121.22 290.425 133.663 295.241 134.182 295.448C137.16 296.642 138.613 300.025 137.42 303.004C136.247 305.941 132.895 307.404 129.937 306.262C129.678 306.169 123.119 303.886 115.647 309.998C115.471 310.144 115.253 310.216 115.035 310.216L115.045 310.206Z" fill="#18292D"/>
<path d="M107.51 308.835C119.383 300.387 130.259 304.58 130.736 304.767C133.227 305.763 134.431 308.586 133.435 311.076C132.449 313.546 129.657 314.76 127.177 313.795C126.772 313.65 119.756 311.253 111.848 317.708L107.5 308.824L107.51 308.835Z" fill="white"/>
<path d="M111.859 318.694C111.579 318.694 111.298 318.57 111.101 318.331C110.759 317.916 110.821 317.293 111.236 316.961C119.601 310.133 127.197 312.769 127.509 312.883C129.501 313.651 131.743 312.675 132.521 310.714C133.31 308.732 132.345 306.469 130.363 305.68C129.927 305.504 119.507 301.488 108.071 309.634C107.635 309.946 107.023 309.842 106.711 309.406C106.4 308.97 106.504 308.358 106.94 308.047C119.237 299.288 130.612 303.677 131.089 303.875C134.068 305.068 135.531 308.472 134.337 311.451C133.154 314.398 129.781 315.861 126.824 314.72C126.564 314.626 119.995 312.343 112.471 318.487C112.295 318.632 112.077 318.705 111.859 318.705V318.694Z" fill="#18292D"/>
<path d="M109.254 317.949C117.245 312.137 125.101 313.943 125.973 314.171C128.567 314.846 130.124 317.492 129.45 320.087C128.785 322.66 126.17 324.217 123.596 323.584C123.316 323.522 119.206 322.702 114.952 325.805L109.244 317.959L109.254 317.949Z" fill="white"/>
<path d="M114.951 326.78C114.65 326.78 114.349 326.645 114.163 326.375C113.841 325.939 113.945 325.327 114.38 325.016C118.936 321.705 123.326 322.536 123.814 322.639C125.89 323.148 127.986 321.892 128.515 319.848C129.055 317.782 127.799 315.665 125.734 315.126C124.914 314.918 117.463 313.195 109.835 318.748C109.399 319.069 108.787 318.965 108.475 318.53C108.154 318.094 108.257 317.481 108.693 317.17C117.048 311.099 125.319 312.998 126.232 313.237C129.346 314.046 131.224 317.232 130.414 320.335C129.615 323.407 126.471 325.286 123.389 324.538C123.254 324.507 119.486 323.739 115.543 326.593C115.366 326.718 115.169 326.78 114.972 326.78H114.951Z" fill="#18292D"/>
<path d="M113.613 334.345C113.436 334.345 113.25 334.293 113.083 334.189L112.949 334.106C109.503 331.948 101.543 325.731 102.021 314.419C102.405 305.37 114.785 291.411 115.315 290.82C115.678 290.415 116.29 290.384 116.695 290.747C117.1 291.11 117.131 291.723 116.778 292.127C116.653 292.262 104.324 306.158 103.982 314.513C103.546 324.797 110.842 330.484 113.997 332.456L114.152 332.55C114.609 332.84 114.744 333.442 114.453 333.899C114.267 334.189 113.955 334.345 113.634 334.345H113.613Z" fill="#18292D"/>
<path d="M256.828 223.591C257.036 229.766 252.2 234.934 246.025 235.152C239.85 235.36 234.682 230.524 234.464 224.349C234.256 218.174 239.093 213.006 245.267 212.788C251.442 212.58 256.611 217.416 256.828 223.591Z" fill="white"/>
<path d="M243.005 227.327C243.005 227.327 241.625 221.349 247.146 217.665L243.005 227.327Z" fill="white"/>
<path d="M243.005 228.313C242.559 228.313 242.154 228.012 242.05 227.556C242.04 227.493 240.587 220.872 246.606 216.856C247.053 216.555 247.665 216.68 247.955 217.126C248.256 217.572 248.132 218.184 247.686 218.475C242.787 221.744 243.939 227.058 243.96 227.109C244.084 227.639 243.752 228.158 243.223 228.282C243.15 228.303 243.078 228.303 243.005 228.303V228.313Z" fill="#18292D"/>
<circle cx="113" cy="82" r="49.5" fill="white" stroke="#18292D"/>
<g clip-path="url(#clip0_938_11713)">
<path d="M129.218 67.867C129.218 64.7174 131.773 62.168 134.917 62.168C138.06 62.168 140.616 64.7174 140.616 67.867H129.212H129.218Z" fill="#18292D" stroke="#18292D" stroke-width="1.24344" stroke-linecap="round" stroke-linejoin="round"/>
<path d="M134.75 62.1621C131.6 62.1621 129.051 64.7115 129.051 67.8611V103.503C129.051 107.179 126.074 110.155 122.399 110.155H93.415V67.8673C93.415 64.7177 95.9706 62.1683 99.114 62.1683H134.75V62.1621Z" fill="white" stroke="#18292D" stroke-width="1.24344" stroke-linecap="round" stroke-linejoin="round"/>
<path d="M121.081 110.161H94.0893C88.842 110.161 86.6021 107.822 86.6021 103.689V103.614H115.394C115.982 110.489 121.074 110.161 121.074 110.161H121.081Z" fill="white" stroke="#18292D" stroke-width="1.24344" stroke-linecap="round" stroke-linejoin="round"/>
<path d="M99.876 74.061L123.414 74.092" stroke="#FFC31F" stroke-width="1.24344" stroke-linecap="round" stroke-linejoin="round"/>
<path d="M100.049 80.4902L123.581 80.515" stroke="#FFC31F" stroke-width="1.24344" stroke-linecap="round" stroke-linejoin="round"/>
<path d="M100.216 86.9136L123.748 86.9445" stroke="#FFC31F" stroke-width="1.24344" stroke-linecap="round" stroke-linejoin="round"/>
<path d="M100.216 93.3862L106.892 93.4234" stroke="#FFC31F" stroke-width="1.24344" stroke-linecap="round" stroke-linejoin="round"/>
<path d="M128.724 54.9595C127.579 54.3902 126.174 54.8729 125.592 56.0238L111.169 84.7972C111.101 84.9271 111.051 85.0633 111.014 85.1994L109.448 93.2126C109.405 93.3673 109.498 93.4106 109.597 93.2869L115.092 87.2476C115.178 87.1362 115.253 87.0124 115.321 86.8825L129.751 58.0844C130.326 56.9334 129.862 55.5288 128.724 54.9595Z" fill="white" stroke="#18292D" stroke-width="1.24344" stroke-linecap="round" stroke-linejoin="round"/>
<path d="M123.945 59.3594L128.01 61.4014" stroke="#18292D" stroke-width="1.24344" stroke-linecap="round" stroke-linejoin="round"/>
<path d="M110.283 88.9062L112.548 90.0262" stroke="#18292D" stroke-width="1.24344" stroke-linecap="round" stroke-linejoin="round"/>
<path d="M125.288 56.7915L129.366 58.8149" stroke="#18292D" stroke-width="1.24344" stroke-linecap="round" stroke-linejoin="round"/>
<path d="M113.236 86.0102L125.945 60.374" stroke="#18292D" stroke-width="1.24344" stroke-linecap="round" stroke-linejoin="round"/>
<path d="M111.088 84.9463L115.246 87.0068" stroke="#18292D" stroke-width="1.24344" stroke-linecap="round" stroke-linejoin="round"/>
</g>
<circle cx="347" cy="82" r="49.5" fill="white" stroke="#18292D"/>
<g clip-path="url(#clip1_938_11713)">
<path d="M362.019 74.4502L346.157 91.3871C346.023 91.5613 345.774 91.5812 345.615 91.4219L333.511 81.3385L337.094 77.1179L345.187 83.7822C345.341 83.9365 345.59 83.9215 345.729 83.7473L358.63 69.8564L362.024 74.4453L362.019 74.4502Z" fill="#18292D" stroke="#18292D" stroke-width="1.08544" stroke-linecap="round" stroke-linejoin="round"/>
<path d="M373.966 80.5426C373.966 68.6624 362.195 59.0269 347.672 59.0269C333.149 59.0269 321.373 68.6624 321.373 80.5426C321.373 89.1927 327.809 97.136 336.822 100.6C337.683 100.929 338.3 101.69 338.445 102.601L338.942 109.987C338.967 110.35 339.4 110.524 339.664 110.275C340.829 109.195 343.611 106.732 348.732 102.884C349.359 102.412 349.996 101.974 350.753 101.904C363.822 100.655 373.966 91.5717 373.966 80.5476V80.5426Z" stroke="#18292D" stroke-width="1.08544" stroke-linecap="round" stroke-linejoin="round"/>
</g>
<defs>
<clipPath id="clip0_938_11713">
<rect width="55.214" height="56.6372" fill="white" transform="translate(86.0088 54.124)"/>
</clipPath>
<clipPath id="clip1_938_11713">
<rect width="53.5529" height="52.3186" fill="white" transform="translate(320.894 58.5488)"/>
</clipPath>
</defs>
</svg>
