<svg width="460" height="460" viewBox="0 0 460 460" fill="none" xmlns="http://www.w3.org/2000/svg">
<g clip-path="url(#clip0_733_8288)">
<rect width="460" height="460" fill="white"/>
<ellipse cx="215.79" cy="229.55" rx="208.461" ry="103.178" transform="rotate(21.5553 215.79 229.55)" fill="#F2F7F8"/>
<path d="M171.211 369.693H117.543C111.155 369.693 109.153 361.056 114.883 358.246L213.035 310.103C213.858 309.691 214.776 309.486 215.695 309.486H269.363C275.751 309.486 277.752 318.122 272.022 320.932L173.87 369.076C173.048 369.487 172.129 369.693 171.211 369.693Z" fill="#18292D"/>
<path d="M166.906 296.71L122.231 322.248L153.239 242.918L197.915 217.393L166.906 296.71Z" fill="#18292D"/>
<path d="M166.906 296.71L122.231 322.234L159.559 324.894C160.189 324.935 160.82 324.798 161.368 324.483L196.105 304.633C198.833 303.07 197.887 298.917 194.748 298.684L166.906 296.696V296.71Z" fill="#18292D"/>
<path d="M374.177 252.212C365.144 252.212 355.959 251.225 346.788 249.238C324.965 244.494 308.323 235.091 304.854 228.73C303.552 226.358 304.004 224.192 306.047 222.931C313.669 218.257 311.585 193.047 310.064 174.637C309.447 167.248 308.926 160.86 309.008 156.336C309.227 143.683 319.522 132.388 338.796 123.669C348.803 119.146 362.731 119.899 377.029 125.753C386.967 129.824 391.957 138.913 395.974 146.206C397.262 148.55 398.482 150.771 399.689 152.47C402.238 156.062 407.489 157.076 412.122 157.981C415.837 158.708 419.36 159.379 421.362 161.34C423.829 163.739 424.172 168.235 424.542 172.992C424.871 177.187 425.214 181.518 426.941 184.493C428.12 186.508 431.163 188.537 434.384 190.689C441.156 195.213 449.587 200.833 448.97 211.101C448.065 226.057 423.911 240.848 422.883 241.465C422.842 241.492 422.815 241.506 422.773 241.52C408.119 248.593 391.45 252.199 374.177 252.199V252.212ZM353.67 123.491C348.57 123.491 343.896 124.382 339.934 126.178C327.213 131.935 311.996 141.847 311.75 156.391C311.681 160.778 312.202 167.097 312.805 174.417C314.478 194.596 316.548 219.724 307.486 225.275C307.075 225.536 306.445 225.92 307.267 227.414C309.872 232.184 324.416 241.561 347.378 246.551C362.484 249.827 392.19 253.227 421.526 239.08C422.787 238.298 445.433 224.138 446.242 210.923C446.763 202.232 439.388 197.31 432.877 192.965C429.23 190.525 426.077 188.427 424.583 185.864C422.54 182.355 422.17 177.694 421.828 173.197C421.499 168.962 421.183 164.972 419.456 163.286C418.03 161.902 414.919 161.299 411.601 160.654C406.461 159.654 400.635 158.53 397.454 154.047C396.152 152.224 394.904 149.934 393.575 147.522C389.777 140.599 385.048 131.977 376.001 128.275C368.201 125.081 360.538 123.464 353.67 123.464V123.491Z" fill="#18292D"/>
<path d="M411.985 246.469C411.985 246.469 437.455 232.335 439.265 217.188C441.074 202.04 422.595 195.816 419.141 188.523C415.7 181.231 419.086 168.496 415.275 164.04C411.464 159.585 398.565 160.778 394.068 153.087C389.572 145.397 386.104 130.277 373.766 123.971C361.429 117.665 347.57 115.061 336.822 119.379C326.075 123.697 304.416 133.334 305.855 150.73C310.16 202.931 287.746 192.609 289.871 206.043C295.546 242.096 350.942 272.912 411.985 246.469Z" fill="#18292D"/>
<path d="M295.711 221.862C295.423 221.862 295.122 221.766 294.875 221.574C287.527 215.899 283.853 210.292 283.963 204.919C284.045 200.176 287.047 195.652 292.887 191.471C304.018 183.492 305.828 171.196 305.842 171.073C305.951 170.319 306.623 169.798 307.391 169.908C308.145 170.003 308.666 170.703 308.57 171.443C308.501 171.991 306.609 185.014 294.505 193.691C289.419 197.338 286.801 201.135 286.732 204.96C286.65 209.415 289.967 214.268 296.588 219.395C297.192 219.861 297.301 220.724 296.835 221.314C296.561 221.656 296.164 221.848 295.752 221.848L295.711 221.862Z" fill="#18292D"/>
<path d="M352.121 265.112L305.801 246.455L304.951 199.778L348.283 198.997L352.121 265.112Z" fill="white"/>
<path d="M352.121 266.483C351.943 266.483 351.778 266.455 351.614 266.387L305.293 247.73C304.786 247.524 304.443 247.031 304.429 246.482L303.593 199.805C303.593 199.052 304.183 198.421 304.937 198.407L348.269 197.626C348.94 197.612 349.612 198.188 349.667 198.914L353.505 265.03C353.533 265.496 353.313 265.948 352.943 266.222C352.71 266.387 352.422 266.483 352.148 266.483H352.121ZM307.144 245.523L350.627 263.042L346.994 200.395L306.349 201.135L307.144 245.536V245.523Z" fill="#18292D"/>
<path d="M418.304 279.081L389.722 223.109H306.348C288.897 223.109 273.324 234.09 267.471 250.54L239.972 327.869L203.933 311.994C200.519 310.486 196.585 310.761 193.405 312.707L167.551 328.581L145.055 352.489L146.385 353.462C151.868 357.492 159.34 357.492 164.837 353.476L173.884 346.868L181.616 353.517C189.306 360.138 199.436 363.195 209.512 361.92L211.856 361.632L259.63 377.397C273.105 381.838 287.581 374.244 291.584 360.631L303.263 320.85L310.104 331.871C318.891 346.032 334.381 354.627 351.037 354.627L404.773 324.195C420.634 315.216 426.597 295.325 418.317 279.094L418.304 279.081Z" fill="white"/>
<path d="M267.526 380.029C264.729 380.029 261.933 379.576 259.191 378.672L211.705 363.003L209.663 363.263C199.245 364.579 188.675 361.385 180.711 354.531L173.802 348.596L165.632 354.572C159.627 358.959 151.567 358.959 145.563 354.559L144.233 353.585C143.918 353.352 143.712 352.996 143.685 352.612C143.644 352.215 143.781 351.831 144.055 351.543L166.55 327.636C166.632 327.553 166.728 327.471 166.838 327.402L192.692 311.528C196.256 309.349 200.656 309.047 204.481 310.733L239.163 326.018L266.169 250.087C272.2 233.13 288.335 221.739 306.334 221.739H389.708C390.229 221.739 390.695 222.027 390.928 222.493L419.51 278.464C428.16 295.394 421.964 316.011 405.418 325.374L351.681 355.806C351.476 355.916 351.243 355.984 351.009 355.984C333.751 355.984 318.014 347.238 308.911 332.571L303.688 324.154L292.872 361.002C290.83 367.952 286.183 373.627 279.767 376.986C275.915 379.014 271.72 380.029 267.512 380.029H267.526ZM211.842 360.234C211.993 360.234 212.13 360.261 212.267 360.302L260.041 376.067C266.196 378.096 272.762 377.561 278.506 374.545C284.25 371.53 288.417 366.444 290.254 360.22L301.934 320.439C302.084 319.918 302.523 319.534 303.071 319.465C303.606 319.397 304.141 319.644 304.415 320.096L311.255 331.117C319.796 344.867 334.505 353.106 350.667 353.229L404.088 322.975C419.345 314.325 425.062 295.311 417.084 279.697L388.886 224.467H306.348C289.514 224.467 274.407 235.118 268.759 250.992L241.261 328.321C241.137 328.677 240.863 328.965 240.507 329.116C240.164 329.267 239.766 329.267 239.41 329.116L203.371 313.242C200.369 311.926 196.914 312.159 194.118 313.872L168.415 329.651L147.098 352.297L147.18 352.352C152.211 356.039 158.969 356.053 164.014 352.365L173.062 345.758C173.583 345.388 174.282 345.415 174.761 345.826L182.493 352.475C189.882 358.822 199.669 361.769 209.32 360.563L211.664 360.275C211.664 360.275 211.774 360.275 211.829 360.275L211.842 360.234Z" fill="#18292D"/>
<path d="M338.44 214.144C348.831 213.034 358.934 207.989 366.35 199.244C381.306 181.573 379.236 155.898 362.457 141.024C334.931 116.623 309.378 138.118 305.869 143.972C305.046 145.342 304.238 146.672 303.456 147.947C301.88 149.935 300.523 152.018 299.344 154.171C296.218 158.475 293.134 161.381 289.597 161.833C284.182 162.533 278.905 202.3 308.816 205.426L338.454 214.144H338.44Z" fill="white"/>
<path d="M338.426 215.515C337.741 215.515 337.138 214.994 337.069 214.295C336.987 213.541 337.535 212.869 338.289 212.787C348.776 211.663 358.372 206.55 365.294 198.366C379.661 181.395 378.016 156.665 361.538 142.052C351.682 133.32 341.181 129.728 330.311 131.387C317.617 133.334 308.679 141.929 307.02 144.684C306.198 146.055 305.389 147.385 304.594 148.673C304.567 148.714 304.539 148.769 304.498 148.81C302.99 150.716 301.647 152.745 300.523 154.842C300.495 154.897 300.468 154.952 300.427 154.993C296.616 160.216 293.326 162.752 289.748 163.218C288.432 163.684 285.896 171.182 287.034 180.737C287.979 188.702 292.092 202.328 308.94 204.082C309.693 204.165 310.242 204.836 310.16 205.59C310.077 206.344 309.419 206.879 308.652 206.81C302.949 206.221 284.319 202.273 284.018 176.488C283.936 169.085 285.786 160.97 289.405 160.504C292.161 160.147 294.861 157.981 298.165 153.458C299.344 151.278 300.742 149.167 302.305 147.179C303.072 145.932 303.854 144.629 304.663 143.286C307.144 139.173 317.082 130.661 329.886 128.7C341.593 126.905 352.847 130.715 363.348 140.023C380.949 155.623 382.718 182.039 367.378 200.162C359.989 208.88 349.763 214.35 338.577 215.543C338.522 215.543 338.481 215.543 338.426 215.543V215.515Z" fill="#18292D"/>
<path d="M370.956 135.609C359.523 125.931 344.43 123.299 330.736 127.165C334.396 128.879 337.892 131.044 341.086 133.759C362.8 152.142 363.622 186.851 342.936 211.293C341.785 212.65 340.592 213.939 339.358 215.172C352.518 215.406 365.829 209.812 375.178 198.777C391.409 179.613 389.517 151.333 370.956 135.609Z" fill="#18292D"/>
<path d="M337.604 123.902C330.092 124.643 324.128 130.427 324.773 137.953L321.387 149.688C318.152 160.915 318.494 172.868 322.374 183.89L330.681 207.496C330.736 211.608 333.45 215.2 337.398 216.365L349.256 219.874L355.315 209.566L361.374 132.182C361.374 132.182 363.17 121.394 337.59 123.916L337.604 123.902Z" fill="#18292D"/>
<path d="M292.599 183.109C292.366 183.109 292.133 183.109 291.886 183.081C291.133 183.013 290.584 182.341 290.653 181.587C290.721 180.833 291.393 180.271 292.147 180.353C295.026 180.614 297.192 178.187 297.205 178.16C297.699 177.584 298.562 177.516 299.138 178.009C299.714 178.503 299.783 179.353 299.303 179.928C299.193 180.065 296.561 183.109 292.613 183.109H292.599Z" fill="#18292D"/>
<path d="M315.986 155.445C315.835 155.445 315.684 155.418 315.533 155.363C314.821 155.116 314.437 154.335 314.684 153.622C315.013 152.69 314.574 150.661 313.313 148.989C312.559 148.002 310.914 146.37 308.241 146.548C307.5 146.603 306.829 146.028 306.788 145.274C306.733 144.52 307.308 143.862 308.062 143.821C310.982 143.615 313.614 144.876 315.492 147.33C317.233 149.605 317.96 152.566 317.274 154.527C317.082 155.089 316.548 155.445 315.986 155.445Z" fill="#18292D"/>
<path d="M305.937 158.804C305.019 159.667 303.772 159.818 303.155 159.16C302.538 158.502 302.785 157.268 303.689 156.419C304.608 155.555 305.855 155.404 306.472 156.062C307.089 156.72 306.842 157.954 305.937 158.804Z" fill="#18292D"/>
<path d="M413.534 205.645C404.281 189.483 382.512 183.794 364.897 192.965C358.715 196.173 353.876 200.792 350.586 206.125C344.156 203.178 330.051 199.01 329.338 206.769C326.596 236.804 313.847 225.632 319.714 235.899C325.582 246.167 368.544 269.636 410.477 247.14C427.983 237.75 422.787 221.821 413.534 205.645Z" fill="#18292D"/>
<path d="M322.771 186.453C321.442 192.965 325.636 199.326 332.162 200.669C338.673 201.999 345.034 197.804 346.377 191.279C347.707 184.767 343.512 178.407 336.987 177.063C330.462 175.72 324.115 179.928 322.771 186.453Z" fill="white"/>
<path d="M328.707 192.005C328.611 192.005 328.529 192.005 328.433 191.978C327.692 191.827 327.213 191.101 327.363 190.36C328.556 184.548 337.823 183.643 338.22 183.616C338.961 183.561 339.646 184.109 339.715 184.863C339.783 185.617 339.235 186.289 338.481 186.358C336.356 186.549 330.708 187.756 330.064 190.922C329.927 191.567 329.365 192.019 328.721 192.019L328.707 192.005Z" fill="#18292D"/>
<path d="M190.06 334.147C189.978 334.147 189.895 334.147 189.799 334.12L167.304 329.897C166.564 329.76 166.07 329.047 166.207 328.293C166.345 327.553 167.057 327.06 167.811 327.197L190.307 331.419C191.047 331.556 191.54 332.269 191.403 333.023C191.28 333.681 190.704 334.147 190.06 334.147Z" fill="#18292D"/>
<path d="M194.282 326.95C194.158 326.95 194.035 326.936 193.898 326.895L179.312 322.673C178.586 322.467 178.161 321.7 178.38 320.973C178.586 320.247 179.353 319.822 180.08 320.041L194.666 324.263C195.392 324.469 195.817 325.237 195.598 325.963C195.42 326.566 194.871 326.95 194.282 326.95Z" fill="#18292D"/>
<path d="M200.424 320.274C200.273 320.274 200.122 320.247 199.971 320.192L189.772 316.683C189.059 316.436 188.676 315.654 188.922 314.942C189.169 314.229 189.95 313.845 190.663 314.092L200.862 317.601C201.575 317.848 201.959 318.629 201.712 319.342C201.52 319.904 200.986 320.26 200.41 320.26L200.424 320.274Z" fill="#18292D"/>
<path d="M232.94 350.323C232.803 350.323 232.652 350.295 232.502 350.254C231.789 350.021 231.391 349.24 231.638 348.513L238.67 327.416C238.903 326.703 239.685 326.306 240.398 326.553C241.111 326.786 241.508 327.567 241.261 328.294L234.229 349.391C234.037 349.966 233.502 350.323 232.927 350.323H232.94Z" fill="#18292D"/>
<path d="M303.251 322.207C303.155 322.207 303.073 322.207 302.977 322.18C302.236 322.029 301.757 321.302 301.907 320.562L307.528 293.145C307.679 292.405 308.391 291.925 309.145 292.076C309.886 292.227 310.365 292.954 310.215 293.694L304.594 321.11C304.457 321.755 303.895 322.207 303.251 322.207Z" fill="#18292D"/>
<path d="M249.473 304.66C249.473 304.66 252.64 325.757 296.931 336.299L249.473 304.66Z" fill="white"/>
<path d="M296.931 337.67C296.822 337.67 296.726 337.67 296.616 337.629C251.941 326.991 248.253 305.757 248.116 304.866C248.006 304.112 248.527 303.413 249.267 303.303C250.035 303.18 250.707 303.701 250.83 304.455C250.871 304.688 254.614 324.812 297.247 334.97C297.987 335.148 298.439 335.888 298.261 336.615C298.11 337.245 297.548 337.67 296.931 337.67Z" fill="#18292D"/>
<path d="M56.5682 127.672L216.229 104.93C223.988 103.82 231.24 109.015 232.72 116.705L253.379 224.837C254.667 231.554 251.144 238.257 244.893 241.013L89.5779 309.595C80.7909 313.475 70.7015 308.005 69.1662 298.519L44.1485 144.547C42.8325 136.432 48.4255 128.824 56.5682 127.672Z" fill="#18292D"/>
<path d="M47.9181 130.99L209.402 106.287C217.243 105.081 224.673 110.139 226.264 117.775L248.594 224.919C249.979 231.568 246.497 238.285 240.205 241.109L83.7106 311.295C74.855 315.271 64.56 309.966 62.8739 300.562L35.5669 147.933C34.1275 139.886 39.7068 132.264 47.9318 131.003L47.9181 130.99Z" fill="#18292D"/>
<path d="M54.3608 139.064L80.7357 301.494L243.138 229.785L221.273 115.28L54.3608 139.064Z" fill="white"/>
<path d="M130.443 185.576C130.443 185.576 122.903 171.785 120.737 165.466C118.571 159.146 122.313 153.43 128.688 146.178C135.062 138.927 134.377 140.339 131.608 139.927C128.839 139.516 134.747 134.046 145.028 132.607C155.309 131.168 173.555 132.141 172.267 151.593C170.978 171.045 140.148 199.627 130.443 185.59V185.576Z" fill="#18292D"/>
<path d="M132.238 227.222C132.238 227.222 138.352 223.411 139.64 216.091C140.929 208.771 140.422 200.971 136.871 197.489C133.321 194.007 123.752 183.109 128.619 178.845C131.854 176.008 135.267 181.752 137.94 183.726C140.614 185.713 139.887 183.602 139.256 179.928C138.626 176.255 139.325 168.77 141.902 166.261C144.479 163.753 138.544 153.567 135.336 152.402C132.128 151.237 144.945 149.825 152.773 146.782C160.6 143.738 163.397 141.6 170.141 146.247C176.899 150.894 180.477 157.899 182.547 165.795C184.617 173.677 184.905 193.225 185.755 197.269C186.605 201.327 186.043 204.082 179.847 207.304C178.531 207.989 176.913 210.566 177.708 215.762C179.86 229.868 176.447 234.309 159.723 237.586C149.976 239.491 141.902 236.091 132.224 227.222H132.238Z" fill="white"/>
<path d="M154.678 239.464C146.961 239.464 139.709 235.927 131.306 228.236C130.99 227.949 130.826 227.524 130.867 227.099C130.908 226.674 131.141 226.29 131.498 226.057C131.566 226.016 137.118 222.438 138.27 215.844C139.64 208.044 138.708 201.217 135.898 198.462C134.856 197.434 125.699 188.249 125.891 181.793C125.946 180.161 126.549 178.818 127.714 177.804C131.086 174.856 134.445 178.338 136.679 180.655C137.241 181.244 137.79 181.806 138.283 182.231C138.242 181.985 138.187 181.724 138.146 181.477C138.064 181.066 137.982 180.614 137.913 180.148C137.296 176.583 137.803 168.331 140.943 165.274C141.135 165.082 141.285 164.424 141.011 163.204C140.216 159.544 136.611 154.321 134.856 153.691C133.568 153.224 133.431 152.388 133.458 151.922C133.554 150.359 135.24 149.962 140.847 148.673C144.425 147.851 148.866 146.823 152.279 145.507C153.198 145.15 154.062 144.794 154.857 144.479C160.998 141.984 164.37 140.613 170.936 145.123C177.187 149.427 181.437 156.076 183.891 165.452C185.207 170.47 185.81 179.846 186.29 187.372C186.564 191.772 186.811 195.556 187.112 197.009C188.086 201.629 187.304 205.001 180.505 208.538C179.861 208.867 178.366 210.786 179.093 215.584C181.369 230.553 177.27 235.57 160.011 238.956C158.201 239.313 156.433 239.491 154.692 239.491L154.678 239.464ZM134.39 227.318C143.506 235.337 150.868 237.915 159.463 236.228C175.419 233.103 178.421 229.498 176.365 215.968C175.488 210.224 177.352 207.057 179.216 206.084C185.083 203.027 185.097 200.82 184.412 197.544C184.069 195.912 183.836 192.211 183.534 187.523C183.068 180.107 182.479 170.895 181.218 166.124C178.901 157.296 175.131 151.333 169.36 147.357C164.014 143.683 161.807 144.575 155.871 146.987C155.062 147.316 154.199 147.673 153.253 148.029C149.661 149.427 145.11 150.483 141.45 151.319C140.175 151.607 138.722 151.95 137.598 152.251C140.257 154.554 142.971 159.297 143.684 162.601C144.137 164.685 143.849 166.234 142.848 167.207C140.71 169.291 140.01 176.2 140.6 179.668C140.682 180.134 140.764 180.559 140.833 180.97C141.272 183.369 141.546 184.822 140.326 185.576C139.147 186.316 137.817 185.329 137.104 184.808C136.309 184.219 135.528 183.41 134.692 182.547C132.032 179.791 130.716 178.804 129.51 179.86C128.934 180.367 128.646 180.998 128.619 181.861C128.496 186.166 134.568 193.308 137.803 196.488C141.354 199.97 142.533 207.372 140.956 216.31C139.969 221.931 136.405 225.618 134.363 227.304L134.39 227.318Z" fill="#18292D"/>
<path d="M144.11 200.34C144.11 200.34 153.596 207.948 158.366 209.196C163.137 210.457 176.969 206.44 181.78 205.138C186.592 203.849 179.984 204.672 171.938 213.404C163.891 222.136 154.816 236.023 152.17 231.499C149.538 226.975 144.877 218.572 144.631 214.665C144.384 210.772 144.096 200.326 144.096 200.326L144.11 200.34Z" fill="#18292D"/>
<path d="M173.473 181.573C172.924 181.573 172.417 181.244 172.198 180.71C171.91 180.01 172.253 179.215 172.966 178.928C174.953 178.132 176.338 176.241 176.968 175.213L168.099 163.465C167.647 162.861 167.77 161.998 168.373 161.545C168.976 161.093 169.84 161.216 170.292 161.82L179.696 174.28C179.998 174.692 180.053 175.226 179.847 175.692C179.765 175.871 177.805 179.956 173.994 181.477C173.829 181.546 173.651 181.573 173.486 181.573H173.473Z" fill="#18292D"/>
<path d="M150.498 165.288C150.21 165.288 149.922 165.192 149.675 165.014C149.072 164.561 148.949 163.698 149.401 163.094C152.91 158.434 156.132 158.694 159.244 158.941C159.71 158.982 160.176 159.023 160.656 159.037C161.41 159.078 161.999 159.708 161.958 160.476C161.917 161.23 161.245 161.792 160.519 161.778C159.998 161.751 159.504 161.71 159.011 161.669C156.104 161.436 154.185 161.271 151.581 164.739C151.307 165.096 150.895 165.288 150.484 165.288H150.498Z" fill="#18292D"/>
<path d="M171.951 160.147C171.416 160.147 170.909 159.832 170.69 159.311C170.388 158.612 170.717 157.803 171.403 157.515C172.006 157.255 172.554 156.747 173.144 156.213C173.843 155.582 174.638 154.856 175.652 154.417C177.571 153.594 180.642 154.294 181.958 155.87C182.438 156.446 182.369 157.323 181.78 157.803C181.19 158.283 180.341 158.214 179.847 157.625C179.299 156.967 177.558 156.583 176.735 156.939C176.132 157.2 175.584 157.707 174.994 158.242C174.295 158.886 173.5 159.599 172.486 160.037C172.307 160.12 172.129 160.147 171.951 160.147Z" fill="#18292D"/>
<path d="M162.451 169.359C162.862 170.703 162.424 172.046 161.451 172.348C160.477 172.649 159.353 171.799 158.942 170.456C158.531 169.112 158.969 167.769 159.943 167.467C160.916 167.166 162.04 168.016 162.451 169.359Z" fill="#18292D"/>
<path d="M180.039 163.931C180.451 165.274 180.012 166.617 179.039 166.919C178.065 167.221 176.941 166.371 176.53 165.027C176.119 163.684 176.557 162.34 177.531 162.039C178.504 161.737 179.628 162.587 180.039 163.931Z" fill="#18292D"/>
<path d="M172.212 196.419C170.183 196.419 168.223 194.596 167.085 192.622C166.057 190.813 165.933 189.318 166.77 188.386C167.866 187.166 173.267 185.782 177.613 184.836C177.983 184.754 178.381 184.836 178.696 185.055C179.011 185.274 179.217 185.617 179.272 185.987C180.355 193.952 175.173 195.898 172.884 196.351C172.664 196.392 172.445 196.419 172.226 196.419H172.212ZM168.977 190.127C169.1 190.73 169.758 192.019 170.814 192.951C171.389 193.472 171.979 193.746 172.322 193.678C175.255 193.075 176.708 191.128 176.653 187.865C173.391 188.633 170.019 189.579 168.977 190.127Z" fill="#18292D"/>
<path d="M221.383 240.642C220.972 240.642 220.561 240.451 220.287 240.094L209.183 225.371C203.713 217.804 194.282 214.035 185.152 215.748L177.983 217.092C177.229 217.242 176.516 216.735 176.379 215.995C176.242 215.255 176.735 214.528 177.475 214.391L184.645 213.048C194.83 211.142 205.317 215.337 211.39 223.74L222.48 238.435C222.932 239.039 222.823 239.902 222.206 240.355C221.959 240.547 221.671 240.629 221.383 240.629V240.642Z" fill="#18292D"/>
<path d="M103.999 294.434C103.286 294.434 102.683 293.886 102.628 293.159L100.353 260.561C100.353 260.561 100.353 260.437 100.353 260.369L100.983 250.841C101.669 246.468 103.149 242.712 105.37 239.546C107.591 236.379 110.031 234.35 113.06 233.185L131.758 225.933C132.457 225.659 133.253 226.016 133.527 226.715C133.801 227.428 133.444 228.209 132.745 228.483L114.047 235.735C111.552 236.708 109.51 238.408 107.618 241.122C105.644 243.96 104.328 247.332 103.711 251.157L103.094 260.465L105.37 292.967C105.425 293.721 104.849 294.379 104.095 294.434C104.067 294.434 104.026 294.434 103.999 294.434Z" fill="#18292D"/>
<path d="M219.368 138.625C219.368 143.574 215.366 147.577 210.417 147.577C205.468 147.577 201.465 143.574 201.465 138.625C201.465 133.676 205.468 129.673 210.417 129.673C215.366 129.673 219.368 133.676 219.368 138.625Z" fill="#96D8E8"/>
<path d="M223.289 158.735C223.289 163.684 219.286 167.687 214.338 167.687C209.389 167.687 205.386 163.684 205.386 158.735C205.386 153.787 209.389 149.784 214.338 149.784C219.286 149.784 223.289 153.787 223.289 158.735Z" fill="#18292D"/>
<path d="M217.833 186.536C213.652 186.536 210.253 183.136 210.253 178.955C210.253 174.774 213.652 171.374 217.833 171.374C222.014 171.374 225.414 174.774 225.414 178.955C225.414 183.136 222.014 186.536 217.833 186.536Z" fill="white"/>
<path d="M217.833 172.759C221.26 172.759 224.043 175.542 224.043 178.969C224.043 182.396 221.26 185.179 217.833 185.179C214.406 185.179 211.623 182.396 211.623 178.969C211.623 175.542 214.406 172.759 217.833 172.759ZM217.833 170.017C212.884 170.017 208.882 174.02 208.882 178.969C208.882 183.917 212.884 187.92 217.833 187.92C222.782 187.92 226.785 183.917 226.785 178.969C226.785 174.02 222.782 170.017 217.833 170.017Z" fill="#18292D"/>
<path d="M252.722 144.574L260.014 117.226L253.215 117.254C251.323 117.432 249.391 116.692 248.02 115.198C246.649 113.717 246.059 111.716 246.416 109.728L252.283 75.4159C252.804 72.4549 255.354 70.2068 258.356 70.0834L327.597 67.2458C329.557 67.1635 331.38 67.9449 332.669 69.398C333.957 70.8373 334.519 72.7702 334.218 74.6757L328.57 110.783C328.104 113.799 325.54 116.075 322.511 116.226L280.755 118.145C280.344 118.159 279.96 118.282 279.617 118.501L252.735 144.574H252.722ZM263.592 114.471L257.931 135.705L277.986 116.28C278.767 115.746 279.686 115.444 280.632 115.403L322.387 113.484C324.128 113.402 325.595 112.086 325.869 110.358L331.517 74.2507C331.695 73.1541 331.366 72.0437 330.626 71.2212C329.886 70.3987 328.871 69.9463 327.72 69.9874L258.479 72.8388C256.752 72.9073 255.285 74.1959 254.997 75.8957L249.13 110.194C248.938 111.345 249.267 112.483 250.049 113.333C250.83 114.183 251.968 114.608 253.105 114.512L263.62 114.457L263.592 114.471Z" fill="#96D8E8"/>
<path d="M278.973 108.234C278.411 108.234 277.849 108.179 277.287 108.055C272.873 107.123 270.035 104.903 268.938 101.613C266.964 102.051 264.538 102.325 261.563 102.38L261.509 99.6385C264.319 99.5974 266.594 99.3233 268.431 98.9257C268.39 98.1581 268.431 97.3493 268.527 96.5131C268.829 94.1004 270.063 91.674 271.516 90.6048C272.434 89.9193 273.27 89.8919 273.805 89.9879C276.039 90.3854 277.643 92.5376 277.451 94.8955C277.355 96.0607 276.601 99.0354 271.543 100.859C272.366 103.175 274.449 104.67 277.821 105.369C280.974 106.027 284.73 103.778 287.554 100.872C284.525 97.6646 282.537 93.648 282.894 91.1531C283.36 87.9179 285.717 85.2037 288.514 84.6965C290.885 84.2715 293.065 85.4778 294.477 88.0276C296.149 91.0434 295.121 95.6083 291.722 100.201C291.598 100.351 291.489 100.516 291.365 100.667C293.888 102.709 297.808 104.711 302.51 103.107C304.799 102.325 306.623 100.927 307.98 99.2821C305.951 96.5268 304.58 93.0723 304.786 90.6185C304.909 89.1243 305.608 88.0139 306.746 87.4656C309.227 86.2866 310.831 86.8487 311.75 87.5204C313.271 88.6582 313.902 90.9338 313.449 93.744C313.175 95.4849 312.504 97.363 311.434 99.1313C311.859 99.57 312.312 99.9538 312.778 100.283C315.889 102.449 317 101.489 317.014 101.489L319.056 103.312C318.96 103.436 316.52 106.232 311.215 102.545C310.735 102.216 310.255 101.818 309.803 101.38C308.185 103.244 306.047 104.807 303.415 105.711C298.768 107.302 293.874 106.246 289.583 102.737C286.595 105.821 282.702 108.22 278.973 108.22V108.234ZM289.46 87.3559C289.323 87.3559 289.186 87.3559 289.035 87.397C287.417 87.6849 285.923 89.5218 285.635 91.5506C285.457 92.8255 286.842 96.0058 289.391 98.7886C289.446 98.7201 289.501 98.6516 289.542 98.583C292.201 94.9777 293.216 91.3587 292.106 89.3573C291.585 88.4114 290.721 87.3559 289.46 87.3559ZM273.339 92.6884C272.9 92.757 271.557 94.4979 271.255 96.8558C271.2 97.2944 271.173 97.7057 271.159 98.1169C273.572 97.1436 274.641 95.8551 274.737 94.6898C274.819 93.6343 274.079 92.8392 273.339 92.7021V92.6884ZM309.433 89.5492C308.912 89.5492 308.309 89.7823 307.939 89.9605C307.706 90.0701 307.569 90.3717 307.527 90.8652C307.404 92.332 308.254 94.7173 309.611 96.8283C310.201 95.6631 310.571 94.4705 310.749 93.3464C311.05 91.4136 310.653 90.1387 310.118 89.7411C309.926 89.6041 309.693 89.5492 309.433 89.5492Z" fill="#FFC31F"/>
</g>
<defs>
<clipPath id="clip0_733_8288">
<rect width="460" height="460" fill="white"/>
</clipPath>
</defs>
</svg>
