<svg width="460" height="460" viewBox="0 0 460 460" fill="none" xmlns="http://www.w3.org/2000/svg">
<g clip-path="url(#clip0_735_9938)">
<rect width="460" height="460" fill="white"/>
<path d="M105.348 207.836C108.055 204.666 111.265 202.066 114.901 200.081L115.46 201.953C111.652 204.026 108.397 206.806 105.686 210.334L105.468 210.617L103.949 209.586L104.184 209.269C104.565 208.781 104.946 208.307 105.34 207.845L105.348 207.836ZM100.677 214.702L102.441 215.347C100.447 219.079 99.0868 223.227 98.4024 227.671L96.3479 227.874C97.0763 223.139 98.5387 218.702 100.677 214.702ZM120.156 197.74C123.927 196.402 128.167 195.559 132.773 195.248L132.379 197.418C127.969 197.725 123.928 198.518 120.35 199.785L120.163 197.746L120.156 197.74ZM95.8236 233.316L97.9058 232.854C97.7458 236.712 98.0357 240.734 98.7731 244.826L96.7199 245.719C95.9677 241.49 95.6637 237.314 95.8313 233.307L95.8236 233.316ZM137.872 195.108C141.544 195.143 145.42 195.446 149.718 196.047L148.947 198.192C144.721 197.606 140.925 197.308 137.326 197.273L137.872 195.108ZM214.083 110.281L215.972 108.903C217.756 112.291 219.3 115.833 220.535 119.441L218.548 120.595C217.331 117.065 215.835 113.594 214.083 110.281ZM154.518 196.794C158.505 197.489 162.253 198.31 165.563 199.022L165.808 199.075L164.907 201.203L164.662 201.15C161.367 200.435 157.632 199.626 153.688 198.936L154.518 196.794ZM219.952 125.162L221.97 124.113C223.036 128.046 223.749 132.039 224.1 136.004L222.019 136.733C221.676 132.885 220.98 128.985 219.938 125.166L219.952 125.162ZM170.455 199.817C174.279 200.138 178.254 199.805 182.275 198.823L182.241 200.924C177.998 201.967 173.812 202.323 169.777 201.979L170.455 199.817ZM222.278 141.779L224.359 141.206C224.394 145.528 224.005 149.879 223.185 154.128L221.142 154.248C221.933 150.146 222.314 145.944 222.271 141.773L222.278 141.779ZM187.288 197.245C191.301 195.723 195.178 193.583 198.821 190.899L199.704 192.562C195.864 195.391 191.763 197.653 187.52 199.261L187.281 197.239L187.288 197.245ZM219.899 159.514L221.888 159.6C221.106 162.393 220.111 165.209 218.946 167.957C218.292 169.513 217.551 171.058 216.769 172.552L214.99 171.925C215.739 170.497 216.433 169.022 217.068 167.544C218.192 164.901 219.137 162.2 219.892 159.508L219.899 159.514ZM212.1 176.834L213.72 177.717C211.048 181.778 207.868 185.516 204.335 188.748L203.201 187.294C206.544 184.228 209.561 180.681 212.092 176.843L212.1 176.834Z" fill="black"/>
<ellipse cx="230.104" cy="326.045" rx="169.705" ry="80.7449" transform="rotate(-159.945 230.104 326.045)" fill="#F2F7F8"/>
<path d="M186.239 323.256L194.337 328.069C199.334 331.038 205.791 329.394 208.761 324.397L232.393 284.628C235.362 279.631 233.718 273.174 228.721 270.204L220.623 265.392C215.626 262.423 209.169 264.067 206.199 269.063L182.567 308.833C179.598 313.829 181.242 320.287 186.239 323.256Z" fill="white"/>
<path d="M199.696 330.632C197.675 330.632 195.632 330.102 193.777 328.998L185.682 324.194C180.172 320.914 178.349 313.769 181.629 308.247L205.262 268.48C208.542 262.969 215.687 261.147 221.209 264.427L229.304 269.231C234.814 272.511 236.637 279.656 233.357 285.178L209.724 324.945C207.548 328.6 203.672 330.632 199.707 330.632H199.696ZM186.809 322.295L194.904 327.099C199.365 329.749 205.163 328.28 207.824 323.808L231.457 284.04C234.108 279.579 232.639 273.781 228.166 271.13L220.071 266.327C215.61 263.676 209.812 265.145 207.151 269.617L183.518 309.385C180.867 313.846 182.336 319.644 186.809 322.295Z" fill="#18292D"/>
<path d="M267.921 249.468C268.655 236.772 252.65 225.52 232.173 224.336C211.696 223.152 194.501 232.484 193.766 245.179C193.032 257.874 209.037 269.126 229.514 270.31C249.991 271.495 267.186 262.163 267.921 249.468Z" fill="#18292D"/>
<path d="M174.926 265.995C176.914 262.439 182.325 261.688 187.019 264.305C187.604 264.626 188.145 264.99 188.642 265.377C190.387 244.449 207.074 228.536 226.4 229.651C246.057 230.789 260.988 249.121 259.74 270.6C258.492 292.08 241.551 308.567 221.894 307.43C205.826 306.502 192.927 294.078 189.426 277.845C186.853 279.181 183.165 279.026 179.841 277.171C175.147 274.554 172.95 269.551 174.926 265.995Z" fill="white"/>
<path d="M223.805 308.59C223.154 308.59 222.491 308.568 221.829 308.534C206.18 307.629 192.707 295.713 188.643 279.369C185.827 280.285 182.371 279.855 179.3 278.143C174.077 275.227 171.692 269.54 173.966 265.465C175.093 263.433 177.169 262.119 179.808 261.754C182.326 261.401 185.087 261.964 187.561 263.356C187.616 263.389 187.682 263.422 187.738 263.455C190.344 242.638 207.053 227.454 226.467 228.569C246.698 229.74 262.126 248.635 260.845 270.678C259.608 292.002 243.198 308.601 223.805 308.601V308.59ZM189.427 276.74C189.593 276.74 189.748 276.774 189.902 276.851C190.211 276.994 190.443 277.282 190.51 277.613C194.021 293.902 206.666 305.442 221.961 306.326C240.989 307.441 257.433 291.373 258.636 270.545C259.84 249.717 245.351 231.871 226.334 230.767C207.538 229.673 191.459 244.924 189.748 265.476C189.714 265.885 189.46 266.238 189.096 266.393C188.72 266.558 188.29 266.503 187.97 266.249C187.506 265.885 186.998 265.553 186.49 265.266C184.425 264.118 182.161 263.643 180.118 263.93C178.185 264.195 176.683 265.123 175.899 266.536C174.22 269.551 176.23 273.891 180.383 276.21C183.254 277.812 186.611 278.066 188.93 276.873C189.085 276.796 189.262 276.751 189.438 276.751L189.427 276.74Z" fill="#18292D"/>
<path d="M227.073 218.497C240.535 216.046 253.091 218.409 260.512 223.942C262.555 225.466 260.766 228.646 258.37 227.774C251.192 225.157 241.97 224.428 232.285 226.195C212.341 229.828 197.973 242.638 200.193 254.819C200.281 255.305 200.403 255.78 200.535 256.244C197.587 253.726 195.621 250.645 194.981 247.122C192.761 234.941 207.128 222.131 227.073 218.497Z" fill="#18292D"/>
<path d="M166.379 244.251C171.304 229.475 185.959 220.209 201.42 222.098L228.851 225.455L225.494 229.64C228.443 225.002 239.321 247.796 210.343 248.315C204.258 248.425 201.983 254.819 200.194 261.037C199.001 265.189 198.007 269.286 197.168 273.008C196.737 274.918 188.377 274.455 188.642 265.388C188.145 265.001 187.593 264.637 187.019 264.317C182.326 261.699 176.914 262.45 174.926 266.006C172.939 269.562 175.147 274.565 179.841 277.182C183.176 279.038 186.853 279.192 189.426 277.856C190.829 284.349 193.733 290.236 197.742 295.017L190.244 294.587C186.136 294.344 182.513 291.804 180.879 288.027L177.776 280.816L177.334 280.473C166.379 271.948 161.984 257.437 166.368 244.273L166.379 244.251Z" fill="#18292D"/>
<path d="M248.785 271.429C248.575 273.251 249.459 274.852 250.773 275.007C252.087 275.161 253.313 273.814 253.534 271.992C253.744 270.17 252.86 268.568 251.546 268.414C250.232 268.259 249.006 269.607 248.785 271.429Z" fill="#18292D"/>
<path d="M224.711 269.176C224.501 270.998 225.384 272.599 226.698 272.754C228.012 272.908 229.238 271.561 229.459 269.739C229.68 267.917 228.786 266.316 227.471 266.161C226.157 266.006 224.931 267.354 224.711 269.176Z" fill="#18292D"/>
<path d="M228.034 292.058C227.956 292.058 227.879 292.058 227.802 292.036C225.074 291.495 222.644 289.728 221.297 287.298C220.977 286.713 221.187 285.984 221.772 285.664C222.346 285.343 223.086 285.553 223.406 286.139C224.411 287.961 226.234 289.286 228.266 289.683C228.917 289.816 229.337 290.445 229.215 291.097C229.105 291.671 228.597 292.069 228.034 292.069V292.058Z" fill="#18292D"/>
<path d="M238.889 281.279C238.315 281.279 237.807 280.86 237.708 280.274C237.597 279.623 238.039 278.993 238.691 278.883C240.535 278.574 241.893 276.928 241.849 275.062L241.717 269.154C241.706 268.491 242.225 267.939 242.887 267.928C243.539 267.906 244.102 268.436 244.113 269.098L244.246 275.007C244.323 278.066 242.103 280.749 239.088 281.257C239.022 281.268 238.956 281.279 238.889 281.279Z" fill="#18292D"/>
<path d="M223.363 263.168C223.098 263.168 222.833 263.08 222.612 262.903C222.093 262.483 222.005 261.732 222.424 261.213C224.103 259.115 227.206 258.353 229.658 259.468C230.265 259.745 230.53 260.451 230.254 261.059C229.978 261.666 229.271 261.931 228.664 261.655C227.206 261.004 225.296 261.456 224.302 262.704C224.07 263.002 223.716 263.157 223.363 263.157V263.168Z" fill="#18292D"/>
<path d="M255.212 266.216C254.947 266.216 254.671 266.128 254.45 265.94C253.235 264.935 251.777 264.206 250.253 263.82C249.613 263.654 249.215 263.002 249.381 262.362C249.547 261.721 250.198 261.324 250.839 261.489C252.705 261.964 254.483 262.859 255.974 264.085C256.493 264.504 256.559 265.266 256.139 265.774C255.897 266.061 255.554 266.216 255.212 266.216Z" fill="#18292D"/>
<path d="M189.538 319.423L218.405 314.244C226.853 312.731 235.346 316.706 239.586 324.172L296.405 424.093H205.385L189.538 319.434V319.423Z" fill="#96D8E8"/>
<path d="M204.279 424.082H295.299L256.459 355.778H193.942L204.279 424.082Z" fill="white"/>
<path d="M295.299 425.186H204.279C203.738 425.186 203.263 424.789 203.186 424.247L192.849 355.944C192.805 355.624 192.894 355.303 193.103 355.06C193.313 354.817 193.623 354.674 193.943 354.674H256.471C256.868 354.674 257.233 354.884 257.431 355.237L296.271 423.541C296.47 423.883 296.459 424.303 296.271 424.645C296.072 424.987 295.708 425.197 295.321 425.197L295.299 425.186ZM205.229 422.977H293.4L255.819 356.883H195.224L205.229 422.977Z" fill="#18292D"/>
<path d="M125.131 349.903L155.059 310.544C162.369 300.937 176.141 299.203 185.605 306.701L199.586 317.789L205.682 311.317H205.958C217.531 311.317 227.492 319.49 229.767 330.831L234.969 430.101H113.546L125.12 349.892L125.131 349.903Z" fill="#96D8E8"/>
<path d="M241.617 388.842H244.853C248.597 388.842 251.954 386.501 253.235 382.978C254.174 380.394 252.263 377.666 249.513 377.666H222.313L241.617 388.842Z" fill="white"/>
<path d="M244.864 389.946H241.628C241.021 389.946 240.524 389.449 240.524 388.842C240.524 388.235 241.021 387.738 241.628 387.738H244.864C248.133 387.738 251.081 385.672 252.208 382.591C252.528 381.708 252.407 380.758 251.865 379.985C251.324 379.212 250.474 378.77 249.535 378.77H222.335C221.728 378.77 221.231 378.273 221.231 377.666C221.231 377.059 221.728 376.562 222.335 376.562H249.535C251.181 376.562 252.738 377.368 253.677 378.715C254.626 380.062 254.847 381.796 254.284 383.342C252.848 387.285 249.06 389.935 244.864 389.935V389.946Z" fill="#18292D"/>
<path d="M125.131 349.903L95.7117 388.665C80.8252 408.279 98.2627 435.854 122.371 430.818L214.539 411.536L225.66 419.322C229.26 421.84 233.931 422.26 237.918 420.404L240.966 418.991C244.676 421.464 249.502 421.553 253.301 419.212L255.863 417.632L231.91 395.214C234.892 396.86 249.259 402.735 257.995 403.408C260.424 403.596 262.777 402.525 264.29 400.625L265.085 399.621L237.653 383.851C228.973 379.301 226.212 376.849 219.564 377.755L152.917 386.821L170.531 367.517C170.531 367.517 159.355 349.903 125.153 349.903H125.131Z" fill="white"/>
<path d="M116.595 432.53C107.241 432.53 98.7157 427.87 93.4812 419.587C87.1422 409.56 87.6502 397.456 94.8285 388.014L124.248 349.24C124.458 348.964 124.778 348.799 125.132 348.799C159.543 348.799 170.973 366.181 171.448 366.921C171.713 367.341 171.669 367.893 171.326 368.257L155.766 385.308L219.398 376.661C225.262 375.866 228.421 377.589 234.163 380.725C235.356 381.377 236.67 382.095 238.161 382.879L265.626 398.671C265.902 398.836 266.101 399.101 266.156 399.422C266.211 399.742 266.134 400.062 265.935 400.316L265.14 401.321C263.373 403.541 260.656 404.745 257.896 404.524C251.767 404.038 243.208 401.156 237.388 398.847L256.604 416.837C256.858 417.069 256.979 417.411 256.946 417.754C256.913 418.096 256.714 418.405 256.427 418.582L253.865 420.161C249.889 422.613 244.853 422.624 240.867 420.25L238.371 421.409C234.042 423.419 228.929 422.966 225.019 420.228L214.296 412.718L122.603 431.9C120.582 432.32 118.583 432.53 116.617 432.53H116.595ZM125.673 351.007L96.5844 389.339C89.9804 398.041 89.5055 409.173 95.3475 418.405C101.189 427.638 111.46 431.978 122.139 429.747L214.307 410.465C214.605 410.399 214.915 410.465 215.169 410.642L226.289 418.427C229.558 420.713 233.832 421.089 237.443 419.41L240.48 417.997C240.823 417.831 241.231 417.864 241.562 418.074C244.909 420.305 249.282 420.382 252.705 418.273L254.041 417.456L231.148 396.031C230.74 395.656 230.685 395.026 231.005 394.574C231.336 394.121 231.944 393.988 232.43 394.253C235.61 396.009 249.779 401.675 258.061 402.315C260.104 402.481 262.092 401.586 263.406 399.941L237.09 384.811C235.621 384.049 234.296 383.32 233.103 382.669C227.438 379.566 224.843 378.152 219.696 378.859L153.049 387.926C152.586 387.992 152.144 387.76 151.923 387.34C151.702 386.932 151.768 386.424 152.089 386.081L169.095 367.44C168.035 366.071 165.175 362.802 159.94 359.577C153.69 355.712 142.691 351.118 125.684 351.018L125.673 351.007Z" fill="#18292D"/>
<path d="M240.943 420.084C240.678 420.084 240.424 419.996 240.214 419.808L222.942 404.568C222.489 404.159 222.445 403.464 222.843 403.011C223.251 402.558 223.947 402.514 224.4 402.911L241.672 418.151C242.136 418.56 242.169 419.256 241.771 419.708C241.55 419.951 241.252 420.084 240.943 420.084Z" fill="#18292D"/>
<path d="M232.385 396.804C232.142 396.804 231.899 396.727 231.689 396.561L225.936 391.912C225.461 391.526 225.384 390.83 225.77 390.355C226.157 389.88 226.841 389.803 227.327 390.189L233.081 394.839C233.556 395.225 233.633 395.921 233.246 396.396C233.026 396.661 232.705 396.804 232.385 396.804Z" fill="#18292D"/>
<path d="M170.508 368.611C170.232 368.611 169.956 368.511 169.746 368.302C169.304 367.882 169.293 367.186 169.713 366.744L187.758 347.86C188.178 347.418 188.873 347.407 189.315 347.827C189.757 348.247 189.768 348.942 189.348 349.384L171.303 368.268C171.082 368.5 170.795 368.611 170.508 368.611Z" fill="white"/>
<path d="M313.29 430.1H182.8V427.704C182.8 423.342 186.345 419.808 190.697 419.808H313.29V430.1Z" fill="#18292D"/>
<path d="M262.655 430.112H381.306L407.379 351.306C409.897 343.697 404.232 335.845 396.214 335.845H302.345C297.276 335.845 292.771 339.103 291.18 343.918L262.666 430.112H262.655Z" fill="#18292D"/>
<path d="M350.665 388.004C352.432 383.738 350.406 378.848 346.14 377.081C341.875 375.314 336.985 377.34 335.218 381.606C333.451 385.871 335.476 390.761 339.742 392.528C344.008 394.295 348.898 392.27 350.665 388.004Z" fill="white"/>
<path d="M342.939 394.275C337.727 394.275 333.475 390.034 333.475 384.81C333.475 379.587 337.716 375.346 342.939 375.346C348.163 375.346 352.404 379.587 352.404 384.81C352.404 390.034 348.163 394.275 342.939 394.275ZM342.939 377.566C338.942 377.566 335.684 380.824 335.684 384.821C335.684 388.819 338.942 392.077 342.939 392.077C346.937 392.077 350.195 388.819 350.195 384.821C350.195 380.824 346.937 377.566 342.939 377.566Z" fill="#18292D"/>
<path d="M126.478 391.979C125.937 391.979 125.473 391.592 125.385 391.04C125.297 390.433 125.705 389.869 126.313 389.781L152.729 385.717C153.336 385.618 153.899 386.037 153.988 386.645C154.076 387.252 153.667 387.815 153.06 387.904L126.644 391.968C126.589 391.968 126.534 391.979 126.478 391.979Z" fill="#18292D"/>
<path d="M187.582 307.563L226.267 314.664L225.582 317.546C222.457 330.61 207.626 334.674 199.421 324.713L187.593 307.563H187.582Z" fill="white"/>
<path d="M226.51 315.282C226.41 315.282 226.311 315.271 226.212 315.238L216.416 312.543C215.831 312.378 215.488 311.77 215.643 311.185C215.809 310.6 216.405 310.246 217.001 310.412L226.797 313.107C227.382 313.272 227.725 313.88 227.57 314.465C227.437 314.951 226.996 315.282 226.51 315.282Z" fill="#18292D"/>
<path d="M212.308 320.174C212.132 320.174 211.944 320.13 211.778 320.042C211.248 319.744 211.049 319.07 211.348 318.54L216.494 309.241C216.792 308.711 217.455 308.513 217.996 308.811C218.526 309.109 218.725 309.783 218.426 310.313L213.28 319.611C213.081 319.976 212.706 320.186 212.308 320.186V320.174Z" fill="#18292D"/>
<path d="M391.156 209.597H342.797C342.189 209.597 341.692 209.1 341.692 208.492C341.692 207.885 342.189 207.388 342.797 207.388H391.156C391.763 207.388 392.26 207.885 392.26 208.492C392.26 209.1 391.763 209.597 391.156 209.597Z" fill="#18292D"/>
<path d="M387.368 218.784H342.797C342.189 218.784 341.692 218.288 341.692 217.68C341.692 217.073 342.189 216.576 342.797 216.576H387.368C387.975 216.576 388.472 217.073 388.472 217.68C388.472 218.288 387.975 218.784 387.368 218.784Z" fill="#18292D"/>
<path d="M335.663 196.245H305.051V226.857H335.663V196.245Z" fill="white"/>
<path d="M335.663 227.962H305.051C304.443 227.962 303.946 227.465 303.946 226.857V196.245C303.946 195.638 304.443 195.141 305.051 195.141H335.663C336.27 195.141 336.767 195.638 336.767 196.245V226.857C336.767 227.465 336.27 227.962 335.663 227.962ZM306.155 225.753H334.559V197.349H306.155V225.753Z" fill="#18292D"/>
<path d="M317.077 217.901C316.79 217.901 316.514 217.791 316.293 217.581L311.29 212.578C310.86 212.148 310.86 211.452 311.29 211.021C311.721 210.59 312.417 210.59 312.847 211.021L317.077 215.251L328.308 204.02C328.739 203.589 329.435 203.589 329.865 204.02C330.296 204.45 330.296 205.146 329.865 205.577L317.85 217.592C317.629 217.813 317.353 217.912 317.066 217.912L317.077 217.901Z" fill="#18292D"/>
<path d="M391.156 254.4H342.797C342.189 254.4 341.692 253.903 341.692 253.295C341.692 252.688 342.189 252.191 342.797 252.191H391.156C391.763 252.191 392.26 252.688 392.26 253.295C392.26 253.903 391.763 254.4 391.156 254.4Z" fill="#18292D"/>
<path d="M387.368 263.588H342.797C342.189 263.588 341.692 263.091 341.692 262.483C341.692 261.876 342.189 261.379 342.797 261.379H387.368C387.975 261.379 388.472 261.876 388.472 262.483C388.472 263.091 387.975 263.588 387.368 263.588Z" fill="#18292D"/>
<path d="M335.663 241.048H305.051V271.661H335.663V241.048Z" fill="white"/>
<path d="M335.663 272.765H305.051C304.443 272.765 303.946 272.268 303.946 271.661V241.048C303.946 240.441 304.443 239.944 305.051 239.944H335.663C336.27 239.944 336.767 240.441 336.767 241.048V271.661C336.767 272.268 336.27 272.765 335.663 272.765ZM306.155 270.556H334.559V242.153H306.155V270.556Z" fill="#18292D"/>
<path d="M317.077 262.704C316.779 262.704 316.503 262.583 316.293 262.384L311.29 257.382C310.86 256.951 310.86 256.255 311.29 255.824C311.721 255.394 312.417 255.394 312.847 255.824L317.077 260.054L328.308 248.823C328.739 248.392 329.435 248.392 329.865 248.823C330.296 249.254 330.296 249.949 329.865 250.38L317.85 262.395C317.64 262.605 317.364 262.715 317.066 262.715L317.077 262.704Z" fill="#18292D"/>
<path d="M391.156 299.203H342.797C342.189 299.203 341.692 298.706 341.692 298.098C341.692 297.491 342.189 296.994 342.797 296.994H391.156C391.763 296.994 392.26 297.491 392.26 298.098C392.26 298.706 391.763 299.203 391.156 299.203Z" fill="#18292D"/>
<path d="M387.368 308.391H342.797C342.189 308.391 341.692 307.894 341.692 307.286C341.692 306.679 342.189 306.182 342.797 306.182H387.368C387.975 306.182 388.472 306.679 388.472 307.286C388.472 307.894 387.975 308.391 387.368 308.391Z" fill="#18292D"/>
<path d="M335.663 285.851H305.051V316.464H335.663V285.851Z" fill="white"/>
<path d="M335.663 317.568H305.051C304.443 317.568 303.946 317.071 303.946 316.464V285.851C303.946 285.244 304.443 284.747 305.051 284.747H335.663C336.27 284.747 336.767 285.244 336.767 285.851V316.464C336.767 317.071 336.27 317.568 335.663 317.568ZM306.155 315.359H334.559V286.956H306.155V315.359Z" fill="#18292D"/>
<path d="M317.077 307.507C316.779 307.507 316.503 307.386 316.293 307.187L311.29 302.184C310.86 301.754 310.86 301.058 311.29 300.627C311.721 300.197 312.417 300.197 312.847 300.627L317.077 304.857L328.308 293.626C328.739 293.195 329.435 293.195 329.865 293.626C330.296 294.057 330.296 294.752 329.865 295.183L317.85 307.198C317.64 307.408 317.364 307.518 317.066 307.518L317.077 307.507Z" fill="#18292D"/>
<path d="M217 128.597C189.608 128.597 167.403 106.392 167.403 79C167.403 51.6085 189.608 29.4032 217 29.4032C244.391 29.4032 266.597 51.6085 266.597 79C266.597 106.392 244.391 128.597 217 128.597Z" fill="white"/>
<path d="M217 29.8065C189.871 29.8065 167.806 51.871 167.806 79C167.806 106.129 189.871 128.194 217 128.194C244.129 128.194 266.194 106.129 266.194 79C266.194 51.871 244.129 29.8065 217 29.8065ZM217 29C244.613 29 267 51.3871 267 79C267 106.613 244.613 129 217 129C189.387 129 167 106.613 167 79C167 51.3871 189.387 29 217 29Z" fill="black"/>
<path d="M187.787 72.736L198.476 54.1726H235.325L246.01 72.736" fill="#18292D"/>
<path d="M187.787 72.736L198.476 54.1726H235.325L246.01 72.736" stroke="#18292D" stroke-width="1.24025" stroke-linecap="round" stroke-linejoin="round"/>
<path d="M198.476 72.736L216.897 57.372L235.324 72.736" stroke="#18292D" stroke-width="1.24025" stroke-linecap="round" stroke-linejoin="round"/>
<path d="M230.058 72.7361L216.897 62.0468L203.741 72.7361H191.773V96.5961H203.741H230.058H242.021V72.7361H230.058Z" fill="white" stroke="#18292D" stroke-width="1.24025" stroke-linecap="round" stroke-linejoin="round"/>
<path d="M220.299 76.9111C222.176 75.0347 222.176 71.9925 220.299 70.1161C218.421 68.2397 215.377 68.2397 213.5 70.1161C211.622 71.9925 211.622 75.0347 213.5 76.9111C215.377 78.7875 218.421 78.7875 220.299 76.9111Z" fill="#FFC31F" stroke="#FFC31F" stroke-width="1.24025" stroke-linecap="round" stroke-linejoin="round"/>
<path d="M216.897 84.0358C214.137 84.0358 211.903 86.2686 211.903 89.0271V96.6017H221.891V89.0271C221.891 86.2686 219.657 84.0358 216.897 84.0358Z" stroke="#18292D" stroke-width="1.24025" stroke-linecap="round" stroke-linejoin="round"/>
<path d="M200.036 87.5406H195.025V93.0915H200.036V87.5406Z" stroke="#18292D" stroke-width="1.24025" stroke-linecap="round" stroke-linejoin="round"/>
<path d="M208.209 87.5406H203.198V93.0915H208.209V87.5406Z" stroke="#18292D" stroke-width="1.24025" stroke-linecap="round" stroke-linejoin="round"/>
<path d="M200.036 77.1225H195.025V82.6734H200.036V77.1225Z" stroke="#18292D" stroke-width="1.24025" stroke-linecap="round" stroke-linejoin="round"/>
<path d="M208.209 77.1225H203.198V82.6734H208.209V77.1225Z" stroke="#18292D" stroke-width="1.24025" stroke-linecap="round" stroke-linejoin="round"/>
<path d="M230.29 87.5406H225.279V93.0915H230.29V87.5406Z" stroke="#18292D" stroke-width="1.24025" stroke-linecap="round" stroke-linejoin="round"/>
<path d="M243.956 96.596H189.839V99.9085H243.956V96.596Z" fill="#18292D" stroke="#18292D" stroke-width="1.24025" stroke-linecap="round" stroke-linejoin="round"/>
<path d="M246.009 99.9143H187.786V103.227H246.009V99.9143Z" fill="white" stroke="#18292D" stroke-width="1.24025" stroke-linecap="round" stroke-linejoin="round"/>
<path d="M238.463 87.5406H233.452V93.0915H238.463V87.5406Z" stroke="#18292D" stroke-width="1.24025" stroke-linecap="round" stroke-linejoin="round"/>
<path d="M230.29 77.1225H225.279V82.6734H230.29V77.1225Z" stroke="#18292D" stroke-width="1.24025" stroke-linecap="round" stroke-linejoin="round"/>
<path d="M238.463 77.1225H233.452V82.6734H238.463V77.1225Z" stroke="#18292D" stroke-width="1.24025" stroke-linecap="round" stroke-linejoin="round"/>
<path d="M216.897 71.0571V73.8778" stroke="white" stroke-width="1.24025" stroke-linecap="round" stroke-linejoin="round"/>
<path d="M216.897 73.8778L218.735 72.9903" stroke="white" stroke-width="1.24025" stroke-linecap="round" stroke-linejoin="round"/>
<path d="M246.008 72.736H242.021" stroke="#18292D" stroke-width="1.24025" stroke-linecap="round" stroke-linejoin="round"/>
<path d="M191.773 72.736H187.786" stroke="#18292D" stroke-width="1.24025" stroke-linecap="round" stroke-linejoin="round"/>
</g>
<defs>
<clipPath id="clip0_735_9938">
<rect width="460" height="460" fill="white"/>
</clipPath>
</defs>
</svg>
