<svg width="460" height="460" viewBox="0 0 460 460" fill="none" xmlns="http://www.w3.org/2000/svg">
<g clip-path="url(#clip0_733_8285)">
<rect width="460" height="460" fill="white"/>
<path d="M178.645 90.7075C231.507 86.5565 282.263 103.713 318.167 127.075C354.426 150.899 375.824 180.934 378.161 213.031C380.515 245.438 364.26 276.216 340.176 306.62C315.767 336.564 283.529 366.136 246.581 385.301C175.167 425.376 93.3411 392.937 54.3369 296.085C15.2911 199.844 69.9501 96.2359 178.645 90.7075Z" fill="#F2F7F8"/>
<path d="M273.433 200.671C273.114 200.671 272.809 200.574 272.532 200.38C271.867 199.881 271.728 198.938 272.213 198.273C275.068 194.433 276.565 189.873 276.565 185.077C276.565 172.852 266.613 162.901 254.388 162.901C242.163 162.901 232.212 172.852 232.212 185.077C232.212 185.909 231.532 186.588 230.701 186.588C229.869 186.588 229.19 185.909 229.19 185.077C229.19 171.189 240.486 159.879 254.388 159.879C268.29 159.879 279.587 171.175 279.587 185.077C279.587 190.525 277.868 195.722 274.639 200.075C274.348 200.477 273.89 200.684 273.419 200.684L273.433 200.671Z" fill="#18292D"/>
<path d="M252.419 204.773C264.407 204.773 274.125 195.055 274.125 183.068C274.125 171.08 264.407 161.362 252.419 161.362C240.432 161.362 230.714 171.08 230.714 183.068C230.714 195.055 240.432 204.773 252.419 204.773Z" fill="#18292D"/>
<path d="M82.9613 223.097L94.715 196.526C96.7525 191.911 101.16 188.778 106.219 188.335C110.738 187.947 114.771 185.396 117.03 181.501L120.163 176.124C122.491 172.104 126.705 169.526 131.376 169.263L147.939 168.292C151.751 168.071 155.299 166.296 157.753 163.4L181.357 141.777C193.776 130.411 210.963 125.81 227.388 129.469L254.86 135.581C262.039 137.175 266.71 144.05 265.518 151.258L261.332 176.595C260.695 180.462 258.422 183.885 255.081 185.992L143.837 256.237C140.081 258.608 135.41 259.051 131.279 257.429L90.5568 241.448C83.2385 238.579 79.7872 230.249 82.9474 223.097H82.9613Z" fill="#18292D"/>
<path d="M77.1113 218.232C76.8757 218.232 76.6401 218.176 76.4183 218.066C75.6698 217.691 75.3788 216.776 75.7669 216.028L89.0453 190.178C91.5956 185.202 96.6824 182 102.296 181.848C106.329 181.737 110.058 179.658 112.276 176.318L115.713 171.134C118.568 166.823 123.364 164.245 128.562 164.245H145.153C148.549 164.231 151.82 162.817 154.148 160.378C154.19 160.336 154.245 160.295 154.287 160.253L176.782 141.916C191.669 129.788 211.586 125.671 230.048 130.897L254.221 137.744C262.052 139.961 266.793 147.89 265.019 155.776L259.363 180.836C258.407 185.077 255.663 188.723 251.837 190.843C251.103 191.245 250.188 190.982 249.786 190.247C249.384 189.513 249.647 188.598 250.368 188.196C253.445 186.491 255.635 183.567 256.411 180.157L262.066 155.097C263.494 148.763 259.682 142.415 253.39 140.627L229.217 133.78C211.683 128.818 192.791 132.726 178.681 144.23L156.255 162.513C153.372 165.506 149.325 167.239 145.139 167.239H128.548C124.376 167.253 120.509 169.332 118.222 172.783L114.784 177.967C112.026 182.125 107.397 184.703 102.379 184.856C97.8606 184.994 93.7717 187.558 91.7203 191.55L78.442 217.4C78.1786 217.927 77.638 218.218 77.0975 218.218L77.1113 218.232Z" fill="#18292D"/>
<path d="M145.666 321.008L67.9361 342.256C50.7906 346.941 32.6333 339.428 23.818 324.002C14.5314 307.757 18.1075 287.216 32.3145 275.046L61.38 250.166C92.4138 223.61 131.708 208.64 172.542 207.823L248.844 206.298C267.708 205.286 286.628 205.896 305.381 208.141L362.944 215.03C402.03 219.701 408.67 273.618 371.898 287.659L347.753 296.863L145.666 321.008Z" fill="#96D8E8"/>
<path d="M166.208 249.931C176.631 259.12 192.529 258.109 201.718 247.685L235.718 209.084C244.908 198.661 243.896 182.763 233.473 173.573C223.05 164.384 207.152 165.395 197.962 175.819L163.962 214.42C154.773 224.843 155.785 240.741 166.208 249.931Z" fill="white"/>
<path d="M182.798 257.72C176.312 257.72 170.116 255.392 165.209 251.067C159.859 246.355 156.671 239.854 156.214 232.744C155.757 225.633 158.113 218.772 162.812 213.436L196.811 174.834C201.524 169.484 208.025 166.296 215.135 165.853C222.232 165.409 229.107 167.752 234.443 172.45C239.793 177.163 242.981 183.664 243.438 190.774C243.896 197.885 241.539 204.746 236.841 210.082L202.841 248.683C198.128 254.034 191.628 257.221 184.517 257.665C183.935 257.707 183.367 257.72 182.798 257.72ZM216.868 168.791C216.355 168.791 215.856 168.805 215.343 168.847C209.036 169.249 203.27 172.076 199.098 176.817L165.099 215.418C160.927 220.158 158.847 226.243 159.249 232.55C159.651 238.856 162.479 244.622 167.219 248.794C171.96 252.966 178.044 255.045 184.351 254.643C190.657 254.241 196.423 251.414 200.595 246.674L234.595 208.072C238.767 203.332 240.846 197.247 240.444 190.94C240.042 184.634 237.215 178.868 232.475 174.696C228.122 170.857 222.634 168.791 216.882 168.791H216.868Z" fill="#18292D"/>
<path d="M277.882 365.043L218.49 331.278C212.752 328.021 213.389 319.552 219.543 317.182L319.741 278.65C321.46 277.985 323.359 277.957 325.105 278.553L387.99 300.272C394.574 302.545 395.128 311.638 388.864 314.701L285.159 365.292C282.844 366.429 280.114 366.332 277.868 365.056L277.882 365.043Z" fill="#18292D"/>
<path d="M142.839 252.149C142.839 252.149 184.711 254.02 204.615 254.158C224.519 254.297 253.695 262.308 253.695 262.308C284.549 268.033 304.827 287.853 305.672 288.685C308.722 291.706 308.749 296.613 305.728 299.676C302.72 302.726 297.786 302.767 294.722 299.759C294.653 299.69 292.297 297.417 288.097 294.312C294.376 302.809 296.746 309.85 296.912 310.363C298.243 314.438 296.025 318.79 291.964 320.134C289.095 321.091 286.046 320.259 284.022 318.263C283.19 317.432 282.525 316.406 282.123 315.228C282.109 315.172 281.43 313.273 279.892 310.39C280.751 313.384 281.084 315.339 281.125 315.602C281.749 319.83 278.838 323.766 274.611 324.417C272.074 324.805 269.635 323.918 267.944 322.241C266.807 321.119 266.003 319.635 265.726 317.931C265.699 317.778 263.384 304.236 251.644 291.79C259.988 302.268 261.568 312.165 261.651 312.719C262.275 316.947 259.378 320.841 255.164 321.507C252.628 321.909 250.175 321.022 248.47 319.331C247.347 318.222 246.543 316.752 246.266 315.075C246.211 314.701 244.963 307.868 238.726 300.55C229.453 306.565 216.923 299.163 216.923 299.163C216.923 299.163 148.397 322.81 145.639 320.994C142.88 319.178 130.794 314.133 126.747 291.346C122.519 267.575 142.811 252.149 142.811 252.149H142.839Z" fill="white"/>
<path d="M273.446 325.887C271.048 325.887 268.706 324.93 266.973 323.225C265.573 321.839 264.672 320.093 264.367 318.152C264.367 318.111 264.049 316.364 263.134 313.578C263.272 318.097 259.987 322.144 255.4 322.879C252.544 323.336 249.592 322.38 247.513 320.315C246.141 318.956 245.24 317.224 244.907 315.311C244.907 315.242 243.826 309.101 238.42 302.351C229.771 307.022 219.362 302.06 216.798 300.688C213.638 301.769 198.239 307.05 182.757 312.095C147.177 323.669 145.86 322.81 144.89 322.172C144.654 322.019 144.349 321.839 143.989 321.631C139.941 319.261 129.199 312.969 125.402 291.609C121.077 267.284 141.785 251.234 141.993 251.067C142.256 250.873 142.561 250.776 142.894 250.79C143.309 250.804 184.974 252.661 204.615 252.8C224.477 252.939 253.764 260.908 254.055 260.992C285.214 266.771 305.783 286.869 306.642 287.729C310.218 291.277 310.246 297.084 306.711 300.674C303.302 304.126 297.813 304.306 294.181 301.173C296.898 305.997 298.062 309.42 298.229 309.947C299.781 314.715 297.161 319.885 292.393 321.465C289.095 322.56 285.519 321.715 283.037 319.261C282.816 319.039 282.594 318.804 282.4 318.554C281.651 322.214 278.699 325.194 274.804 325.79C274.347 325.859 273.89 325.9 273.432 325.9L273.446 325.887ZM251.657 290.404C252.031 290.404 252.392 290.556 252.669 290.833C264.742 303.64 267.084 317.57 267.112 317.709C267.333 319.067 267.957 320.287 268.927 321.257C270.383 322.699 272.379 323.364 274.402 323.045C277.867 322.505 280.265 319.261 279.753 315.81C279.753 315.796 279.461 313.869 278.561 310.779C278.366 310.099 278.713 309.379 279.364 309.115C280.016 308.852 280.778 309.115 281.111 309.739C282.733 312.774 283.426 314.757 283.439 314.77C283.772 315.741 284.285 316.572 285.006 317.279C286.738 318.998 289.233 319.58 291.534 318.818C294.861 317.709 296.69 314.105 295.609 310.779C295.512 310.488 293.197 303.502 287.002 295.13C286.586 294.576 286.655 293.813 287.14 293.328C287.625 292.843 288.402 292.788 288.942 293.19C293.294 296.405 295.692 298.734 295.706 298.761C298.215 301.229 302.276 301.201 304.757 298.692C307.224 296.183 307.21 292.136 304.715 289.669C303.884 288.837 283.897 269.322 253.459 263.667C253.057 263.556 224.116 255.683 204.628 255.544C186.125 255.42 148.23 253.77 143.323 253.562C140.621 255.808 124.445 270.237 128.16 291.11C131.736 311.208 141.674 317.03 145.43 319.22C145.749 319.414 146.04 319.58 146.276 319.719C150.586 319.982 191.503 306.496 216.535 297.861C216.923 297.722 217.339 297.777 217.685 297.971C217.796 298.041 229.591 304.86 238.032 299.385C238.614 298.997 239.391 299.122 239.834 299.649C246.376 307.313 247.638 314.535 247.679 314.84C247.901 316.17 248.539 317.376 249.495 318.333C250.95 319.774 253.002 320.439 254.998 320.121C258.449 319.566 260.833 316.337 260.32 312.899C260.265 312.497 258.754 302.878 250.59 292.635C250.133 292.053 250.202 291.208 250.77 290.722C251.034 290.501 251.352 290.39 251.685 290.39L251.657 290.404Z" fill="#18292D"/>
<path d="M270.369 274.672C270.369 274.672 282.775 284.679 288.111 294.298L270.369 274.672Z" fill="white"/>
<path d="M288.111 295.685C287.626 295.685 287.154 295.421 286.891 294.978C281.749 285.705 269.607 275.85 269.482 275.753C268.886 275.268 268.789 274.395 269.274 273.799C269.759 273.203 270.633 273.106 271.229 273.591C271.742 274.007 283.897 283.875 289.317 293.619C289.691 294.285 289.441 295.13 288.776 295.504C288.568 295.629 288.333 295.685 288.111 295.685Z" fill="#18292D"/>
<path d="M263.772 282.711C263.772 282.711 276.163 295.587 279.905 310.377L263.772 282.711Z" fill="white"/>
<path d="M279.905 311.763C279.282 311.763 278.727 311.347 278.561 310.709C274.957 296.461 262.899 283.792 262.774 283.667C262.247 283.113 262.261 282.24 262.815 281.713C263.37 281.186 264.243 281.2 264.77 281.755C265.283 282.295 277.466 295.075 281.25 310.044C281.43 310.792 280.987 311.541 280.252 311.721C280.141 311.749 280.016 311.763 279.905 311.763Z" fill="#18292D"/>
<path d="M331.452 228.863C331.452 228.863 289.579 230.734 269.676 230.873C249.772 231.011 220.595 239.023 220.595 239.023C189.742 244.747 169.464 264.568 168.618 265.399C165.569 268.421 165.541 273.327 168.563 276.391C171.571 279.44 176.505 279.482 179.568 276.474C179.638 276.404 181.994 274.131 186.194 271.027C179.915 279.523 177.545 286.564 177.378 287.077C176.048 291.152 178.265 295.504 182.326 296.849C185.196 297.805 188.245 296.974 190.269 294.978C191.1 294.146 191.765 293.12 192.167 291.942C192.181 291.887 192.86 289.988 194.399 287.105C193.54 290.099 193.207 292.053 193.165 292.316C192.542 296.544 195.452 300.48 199.68 301.132C202.216 301.52 204.656 300.633 206.347 298.956C207.483 297.833 208.287 296.35 208.564 294.645C208.592 294.492 210.907 280.951 222.647 268.504C214.303 278.983 212.723 288.879 212.639 289.433C212.016 293.661 214.913 297.556 219.126 298.221C221.663 298.623 224.116 297.736 225.821 296.045C226.944 294.936 227.747 293.467 228.025 291.79C228.08 291.415 229.328 284.582 235.565 277.264C244.837 283.279 257.367 275.878 257.367 275.878C257.367 275.878 325.894 299.524 328.652 297.708C331.41 295.892 343.497 290.847 347.544 268.06C351.771 244.29 331.48 228.863 331.48 228.863H331.452Z" fill="white"/>
<path d="M200.844 302.587C200.387 302.587 199.93 302.545 199.472 302.476C195.577 301.88 192.625 298.886 191.877 295.241C191.669 295.49 191.461 295.726 191.239 295.948C188.772 298.401 185.182 299.247 181.883 298.152C177.115 296.572 174.496 291.402 176.048 286.634C176.214 286.107 177.379 282.683 180.095 277.86C176.478 280.992 170.975 280.812 167.565 277.361C164.017 273.771 164.059 267.963 167.635 264.415C168.494 263.556 189.063 243.458 220.346 237.65C220.526 237.595 249.814 229.625 269.662 229.487C289.316 229.348 330.967 227.505 331.383 227.477C331.73 227.477 332.021 227.56 332.284 227.754C332.492 227.92 353.199 243.971 348.875 268.296C345.077 289.655 334.335 295.948 330.288 298.318C329.928 298.526 329.623 298.706 329.387 298.859C328.431 299.496 327.114 300.369 291.52 288.782C276.024 283.737 260.639 278.47 257.479 277.375C254.914 278.747 244.505 283.709 235.856 279.038C230.437 285.816 229.383 291.928 229.369 291.984C229.037 293.91 228.15 295.643 226.764 297.001C224.685 299.053 221.746 300.023 218.877 299.552C214.289 298.817 211.004 294.756 211.143 290.237C210.214 293.023 209.923 294.77 209.909 294.825C209.59 296.766 208.69 298.526 207.303 299.898C205.571 301.617 203.229 302.559 200.831 302.559L200.844 302.587ZM194.385 285.705C194.566 285.705 194.732 285.733 194.912 285.802C195.564 286.065 195.924 286.786 195.716 287.465C194.829 290.542 194.538 292.483 194.524 292.497C194.011 295.948 196.409 299.205 199.874 299.732C201.898 300.051 203.894 299.399 205.349 297.944C206.319 296.987 206.957 295.754 207.165 294.395C207.179 294.271 209.577 280.285 221.608 267.52C222.12 266.979 222.966 266.938 223.52 267.423C224.075 267.908 224.158 268.753 223.701 269.336C215.551 279.579 214.04 289.198 213.97 289.6C213.458 293.037 215.855 296.267 219.307 296.821C221.303 297.14 223.354 296.475 224.809 295.033C225.78 294.077 226.403 292.871 226.625 291.526C226.681 291.235 227.914 284.042 234.47 276.335C234.914 275.809 235.69 275.684 236.272 276.072C244.741 281.561 256.495 274.727 256.619 274.658C256.966 274.45 257.395 274.409 257.77 274.547C282.58 283.113 322.97 296.405 327.904 296.405C327.946 296.405 327.987 296.405 328.029 296.405C328.264 296.253 328.542 296.086 328.874 295.906C332.617 293.716 342.568 287.881 346.131 267.797C349.845 246.895 333.67 232.494 330.967 230.249C326.061 230.471 288.166 232.106 269.662 232.231C250.16 232.37 221.233 240.242 220.942 240.326C190.38 246.008 170.407 265.524 169.575 266.356C167.08 268.823 167.053 272.884 169.534 275.393C172.001 277.901 176.062 277.929 178.571 275.462C178.584 275.448 180.968 273.12 185.335 269.89C185.889 269.488 186.651 269.544 187.136 270.029C187.622 270.514 187.677 271.276 187.275 271.831C181.079 280.216 178.765 287.188 178.668 287.479C177.587 290.806 179.416 294.409 182.743 295.518C185.043 296.281 187.538 295.685 189.271 293.98C189.978 293.273 190.505 292.441 190.823 291.485C190.823 291.485 191.516 289.489 193.152 286.44C193.401 285.982 193.873 285.705 194.372 285.705H194.385Z" fill="#18292D"/>
<path d="M203.922 251.386C203.922 251.386 191.516 261.394 186.18 271.013L203.922 251.386Z" fill="white"/>
<path d="M186.18 272.399C185.958 272.399 185.723 272.343 185.515 272.219C184.849 271.844 184.6 270.999 184.974 270.333C190.394 260.59 202.549 250.707 203.062 250.291C203.658 249.806 204.531 249.903 205.016 250.499C205.501 251.095 205.404 251.968 204.808 252.453C204.684 252.55 192.556 262.405 187.4 271.678C187.15 272.135 186.679 272.385 186.18 272.385V272.399Z" fill="#18292D"/>
<path d="M210.52 259.411C210.52 259.411 198.128 272.288 194.386 287.077L210.52 259.411Z" fill="white"/>
<path d="M194.385 288.477C194.274 288.477 194.164 288.477 194.039 288.435C193.29 288.241 192.847 287.493 193.041 286.758C196.825 271.775 209.008 259.009 209.521 258.469C210.048 257.915 210.921 257.901 211.475 258.427C212.03 258.954 212.044 259.841 211.517 260.382C211.392 260.506 199.334 273.175 195.73 287.424C195.577 288.047 195.009 288.463 194.385 288.463V288.477Z" fill="#18292D"/>
<path d="M189.119 215.044C191.669 227.546 201.468 237.941 214.761 240.616C232.502 244.179 249.772 232.702 253.334 214.961L260.265 180.489C263.827 162.748 252.35 145.478 234.609 141.916C216.867 138.353 199.597 149.83 196.035 167.571L189.105 215.058L189.119 215.044Z" fill="white"/>
<path d="M221.233 242.765C219.002 242.765 216.729 242.543 214.469 242.086C200.942 239.369 190.408 228.863 187.635 215.335C187.469 214.517 187.996 213.713 188.814 213.547C189.631 213.381 190.435 213.907 190.602 214.725C193.124 227.061 202.73 236.638 215.065 239.12C231.961 242.515 248.469 231.538 251.865 214.642L258.795 180.171C262.191 163.275 251.214 146.767 234.318 143.371C226.14 141.722 217.796 143.371 210.852 147.987C203.908 152.602 199.167 159.657 197.518 167.849C197.352 168.666 196.548 169.193 195.744 169.027C194.926 168.861 194.399 168.07 194.566 167.253C196.368 158.271 201.565 150.537 209.189 145.478C216.812 140.405 225.946 138.603 234.928 140.419C253.459 144.147 265.49 162.249 261.762 180.781L254.831 215.252C251.56 231.51 237.228 242.765 221.247 242.765H221.233Z" fill="#18292D"/>
<path d="M200.553 145.228C197.074 147.46 193.984 150.038 191.267 152.824C191.35 158.271 192.764 163.538 195.758 168.195C206.042 184.218 230.534 186.852 250.451 174.058C253.93 171.827 257.021 169.249 259.738 166.463C259.655 161.015 258.241 155.748 255.247 151.091C244.963 135.069 220.471 132.435 200.553 145.228Z" fill="#18292D"/>
<path d="M204.199 181.931C209.729 175.652 209.119 166.088 202.841 160.572C196.562 155.055 186.998 155.651 181.481 161.93C175.965 168.209 176.561 177.773 182.84 183.289C185.459 185.59 188.633 186.824 191.863 187.032L204.213 181.931H204.199Z" fill="white"/>
<path d="M191.849 188.543C191.849 188.543 191.78 188.543 191.752 188.543C188.051 188.307 184.628 186.879 181.828 184.426C178.488 181.488 176.492 177.426 176.215 172.991C175.937 168.556 177.393 164.273 180.331 160.932C183.27 157.592 187.331 155.596 191.766 155.319C196.215 155.042 200.484 156.497 203.825 159.435C210.713 165.506 211.379 176.04 205.322 182.929C204.767 183.553 203.811 183.608 203.187 183.068C202.563 182.513 202.494 181.557 203.049 180.933C208.011 175.292 207.47 166.671 201.829 161.695C199.098 159.283 195.605 158.091 191.96 158.327C188.329 158.562 185.002 160.184 182.59 162.914C180.179 165.645 178.987 169.152 179.222 172.783C179.458 176.415 181.08 179.741 183.81 182.153C186.097 184.163 188.897 185.327 191.932 185.521C192.764 185.576 193.402 186.297 193.346 187.129C193.291 187.933 192.625 188.543 191.835 188.543H191.849Z" fill="#18292D"/>
<path d="M245.989 198.744C245.351 200.878 246.072 202.985 247.61 203.456C249.149 203.914 250.923 202.556 251.561 200.421C252.198 198.287 251.477 196.18 249.939 195.708C248.4 195.251 246.626 196.609 245.989 198.744Z" fill="#18292D"/>
<path d="M229.453 196.083C228.815 198.217 229.536 200.324 231.074 200.795C232.613 201.253 234.387 199.894 235.025 197.76C235.662 195.625 234.941 193.518 233.403 193.047C231.864 192.59 230.09 193.948 229.453 196.083Z" fill="#18292D"/>
<path d="M232.377 219.673C232.197 219.673 232.017 219.646 231.837 219.576C228.663 218.343 226.126 215.695 225.031 212.48C224.768 211.69 225.184 210.83 225.974 210.567C226.764 210.304 227.623 210.719 227.886 211.509C228.704 213.893 230.589 215.848 232.932 216.763C233.708 217.067 234.096 217.941 233.791 218.717C233.555 219.313 232.987 219.687 232.377 219.687V219.673Z" fill="#18292D"/>
<path d="M238.005 210.428C237.936 210.428 237.852 210.428 237.769 210.414C236.951 210.29 236.383 209.513 236.508 208.696L238.393 196.388C238.518 195.57 239.294 195.002 240.112 195.126C240.929 195.251 241.498 196.027 241.373 196.845L239.488 209.153C239.377 209.902 238.726 210.428 237.991 210.428H238.005Z" fill="#18292D"/>
<path d="M255.081 193.92C254.652 193.92 254.236 193.74 253.931 193.394C252.684 191.938 251.103 190.76 249.371 189.97C248.609 189.624 248.276 188.737 248.622 187.974C248.969 187.212 249.856 186.879 250.618 187.226C252.767 188.196 254.707 189.651 256.232 191.439C256.772 192.077 256.703 193.02 256.066 193.574C255.774 193.823 255.428 193.934 255.081 193.934V193.92Z" fill="#18292D"/>
<path d="M229.37 188.653C228.954 188.653 228.538 188.487 228.233 188.141C227.679 187.517 227.748 186.56 228.372 186.006C230.839 183.83 234.748 183.594 237.478 185.452C238.171 185.923 238.338 186.865 237.866 187.545C237.395 188.238 236.453 188.404 235.773 187.933C234.193 186.852 231.823 186.99 230.382 188.265C230.091 188.515 229.744 188.64 229.384 188.64L229.37 188.653Z" fill="#18292D"/>
<path d="M197.338 179.894C197.255 179.894 197.172 179.894 197.074 179.866C196.257 179.727 195.702 178.937 195.841 178.119C196.395 174.945 196.021 171.563 194.815 168.583C194.496 167.807 194.871 166.934 195.647 166.615C196.423 166.31 197.296 166.671 197.615 167.447C199.057 170.995 199.459 174.862 198.807 178.632C198.682 179.367 198.045 179.88 197.324 179.88L197.338 179.894Z" fill="#18292D"/>
<path d="M292.324 342.588L332.908 250.998C333.961 248.628 335.916 246.757 338.341 245.828L430.68 210.317C438.83 207.185 446.689 215.487 443.113 223.457L407.283 303.211C406.341 305.304 404.705 306.995 402.654 307.993L305.561 355.354C297.356 359.36 288.637 350.946 292.324 342.602V342.588Z" fill="#18292D"/>
<path d="M70.1953 264.803C69.4607 264.803 68.8231 264.263 68.6983 263.528C68.5736 262.71 69.1419 261.934 69.9596 261.809L142.603 250.666C143.434 250.541 144.197 251.109 144.321 251.927C144.446 252.745 143.878 253.521 143.06 253.646L70.417 264.789C70.3339 264.789 70.2646 264.803 70.1814 264.803H70.1953Z" fill="#18292D"/>
<path d="M279.004 357.752C278.782 357.752 278.547 357.696 278.339 357.585L220.859 326.316C220.18 325.956 219.93 325.11 220.305 324.431C220.665 323.752 221.511 323.502 222.19 323.877L279.669 355.146C280.348 355.506 280.598 356.352 280.224 357.031C279.974 357.488 279.489 357.752 279.004 357.752Z" fill="white"/>
<path d="M291.742 356.366C291.548 356.366 291.354 356.324 291.16 356.241C290.467 355.922 290.162 355.105 290.481 354.398L336.872 253.548C337.191 252.855 338.009 252.55 338.716 252.869C339.409 253.188 339.714 254.006 339.395 254.713L293.004 355.562C292.768 356.075 292.269 356.366 291.742 356.366Z" fill="white"/>
<path d="M375.307 296.211C374.032 296.211 372.812 295.892 371.717 295.269C367.448 292.801 366.658 286.148 369.957 280.424C373.256 274.713 379.424 272.066 383.693 274.533C385.841 275.781 387.186 278.054 387.463 280.964C387.726 283.695 387.02 286.689 385.453 289.378C383.901 292.081 381.655 294.187 379.161 295.324C377.844 295.92 376.541 296.211 375.294 296.211H375.307ZM380.131 276.363C377.456 276.363 374.282 278.456 372.355 281.796C369.86 286.121 370.207 291.18 373.104 292.857C374.462 293.633 376.194 293.605 378.024 292.788C380.006 291.887 381.794 290.182 383.055 287.978C384.331 285.774 384.913 283.376 384.705 281.214C384.511 279.218 383.665 277.693 382.307 276.917C381.655 276.543 380.907 276.363 380.131 276.363Z" fill="white"/>
<path d="M331.452 230.374C330.662 230.374 329.997 229.764 329.941 228.96C329.886 228.128 330.51 227.407 331.341 227.352L356.249 225.647C357.108 225.578 357.801 226.215 357.857 227.047C357.912 227.879 357.288 228.599 356.457 228.655L331.549 230.36C331.549 230.36 331.48 230.36 331.438 230.36L331.452 230.374Z" fill="#18292D"/>
<path d="M385.772 154.432V161.473L397.775 154.432H432.607V122.234H385.772V154.432Z" fill="#18292D"/>
<path d="M420.022 132.768H398.995V135.055H420.022V132.768Z" fill="white"/>
<path d="M420.022 140.918H398.995V143.205H420.022V140.918Z" fill="white"/>
<path d="M367.102 148.402H325.479C320.835 148.402 317.038 152.2 317.038 156.844V180.767C317.038 185.41 320.835 189.208 325.479 189.208H352.631L364.635 201.211V189.208H367.116C371.759 189.208 375.557 185.41 375.557 180.767V156.844C375.557 152.2 371.759 148.402 367.116 148.402H367.102Z" fill="#96D8E8"/>
<path d="M354.281 168.819L346.284 173.435L338.286 178.05V168.819V159.574L346.284 164.19L354.281 168.819Z" fill="white"/>
<path d="M338.092 73.8189C335.472 73.8189 333.019 72.1557 332.145 69.536C331.05 66.2649 332.825 62.7028 336.096 61.6078C339.367 60.5128 342.929 62.287 344.024 65.558C345.119 68.8291 343.345 72.3913 340.074 73.4863C339.422 73.708 338.743 73.8051 338.092 73.8051V73.8189ZM338.092 64.0611C337.731 64.0611 337.357 64.1165 336.983 64.2413C335.153 64.8512 334.169 66.8332 334.779 68.6628C335.389 70.4924 337.385 71.4765 339.2 70.8666C341.03 70.2568 342.014 68.2747 341.404 66.4451C340.919 64.9898 339.547 64.0611 338.092 64.0611Z" fill="#96D8E8"/>
<path d="M328.015 93.0573L326.753 89.2734L327.017 88.7606C328.375 86.03 330.731 83.9787 333.628 83.0223C336.456 82.0798 339.464 82.26 342.152 83.5352L349.998 67.8034C351.425 64.9343 353.892 62.7859 356.942 61.7741C359.977 60.7623 363.248 60.9841 366.117 62.4117L364.884 64.8927C362.68 63.7839 360.171 63.6176 357.829 64.3938C355.486 65.1699 353.587 66.8193 352.492 69.037L343.414 87.2498L341.141 86.1132C339.062 85.0737 336.719 84.9073 334.515 85.6558C332.492 86.335 330.828 87.6933 329.775 89.5229L330.662 92.198L328.029 93.0712L328.015 93.0573Z" fill="#96D8E8"/>
<path d="M339.699 100.681C334.391 100.681 329.429 97.3263 327.654 92.0178L321.029 72.2111C318.811 65.5719 322.401 58.3783 329.04 56.1606L348.847 49.5352C352.063 48.4541 355.5 48.7036 358.536 50.2144C361.571 51.7252 363.83 54.331 364.898 57.5466L371.523 77.3533C373.741 83.9925 370.151 91.1861 363.512 93.4038L343.705 100.029C342.374 100.473 341.03 100.681 339.699 100.681ZM352.881 51.642C351.827 51.642 350.76 51.8084 349.734 52.1549L329.928 58.7802C324.744 60.5128 321.944 66.1402 323.676 71.324L330.302 91.1307C332.034 96.3145 337.662 99.1144 342.846 97.3818L362.652 90.7565C367.836 89.0239 370.636 83.3965 368.903 78.2127L362.278 58.406C361.433 55.8972 359.672 53.8597 357.302 52.6816C355.902 51.9885 354.405 51.6282 352.894 51.6282L352.881 51.642Z" fill="#96D8E8"/>
<path d="M353.504 135.11C352.34 135.11 351.287 134.667 350.566 133.821C347.295 129.954 348.944 123.564 352.437 119.614C353.698 118.186 355.334 116.939 357.177 116.204C354.946 108.65 349.513 103.772 349.443 103.716L351.273 101.637C351.578 101.9 357.496 107.181 359.894 115.553C361.862 115.387 363.997 115.844 366.159 117.272C368.903 119.074 370.567 121.291 371.093 123.883C371.883 127.723 369.804 130.897 369.707 131.035L367.407 129.497C367.781 128.915 370.927 123.717 364.634 119.586C363.165 118.616 361.793 118.283 360.518 118.311C360.712 119.42 360.837 120.584 360.864 121.79C361.183 131.728 356.692 134.237 355.306 134.764C354.696 134.999 354.073 135.11 353.491 135.11H353.504ZM357.829 118.963C356.221 119.697 355.057 120.862 354.53 121.458C351.883 124.451 350.427 129.358 352.687 132.033C352.922 132.31 353.546 132.477 354.336 132.172C356.304 131.423 358.328 128.319 358.12 121.873C358.092 120.875 357.981 119.905 357.829 118.963Z" fill="#FFC31F"/>
</g>
<defs>
<clipPath id="clip0_733_8285">
<rect width="460" height="460" fill="white"/>
</clipPath>
</defs>
</svg>
