<svg width="460" height="460" viewBox="0 0 460 460" fill="none" xmlns="http://www.w3.org/2000/svg">
<rect width="460" height="460" fill="white"/>
<ellipse cx="203.423" cy="96.7883" rx="203.423" ry="96.7883" transform="matrix(0.930064 -0.367398 -0.367398 -0.930064 76.1199 438.709)" fill="#F2F7F8"/>
<path d="M194.562 405.841H401.142C434.878 405.841 456.967 370.532 442.227 340.199L394.349 241.689C385.928 224.36 367.596 214.123 348.436 216.048L288.082 222.082C267.404 224.143 249.885 238.191 243.377 257.92L194.562 405.841Z" fill="#96D8E8"/>
<path d="M270.699 356.81C269.953 356.81 269.357 356.213 269.343 355.467L268.557 295.738C268.557 294.992 269.14 294.368 269.899 294.368H269.913C270.658 294.368 271.255 294.965 271.269 295.711L272.055 355.44C272.055 356.186 271.472 356.81 270.713 356.81H270.699Z" fill="#18292D"/>
<path d="M293.94 390.831L299.025 388.024C299.025 388.024 309.547 401.624 323.283 392.024C326.645 389.678 326.808 367.861 320.367 360.39C307.743 345.772 284.272 327.481 270.577 336.593C256.881 345.705 238.712 363.508 238.712 363.508C238.712 363.508 246.251 373.447 253.424 367.929C263.458 360.2 275.811 354.586 275.811 354.586L254.115 385.285C254.115 385.285 258.59 390.397 264.556 392.309C270.522 394.221 278.617 399.712 293.94 390.817V390.831Z" fill="white"/>
<path d="M248.448 371.061C242.577 371.061 237.478 365.596 237.207 365.298C236.732 364.783 236.732 363.983 237.207 363.468C237.926 362.668 255.119 343.833 269.913 335.413C277.031 331.359 293.167 329.094 321.371 359.468C321.886 360.01 321.846 360.878 321.303 361.379C320.761 361.895 319.893 361.854 319.391 361.312C310.09 351.291 286.767 328.945 271.269 337.772C258.712 344.918 243.878 360.335 240.122 364.335C242.143 366.152 247.214 370.017 251.634 367.495C254.089 366.098 257.072 363.956 260.245 361.691C266.469 357.244 272.896 352.647 277.113 352.335C277.859 352.295 278.509 352.837 278.564 353.583C278.618 354.328 278.062 354.979 277.316 355.034C273.872 355.291 267.472 359.861 261.831 363.902C258.604 366.207 255.553 368.39 252.99 369.854C251.472 370.722 249.953 371.061 248.475 371.061H248.448Z" fill="#18292D"/>
<path d="M261.356 392.078C256.99 392.078 253.79 388.01 252.529 385.393C252.312 384.932 252.366 384.376 252.678 383.983L283.567 344.267C284.028 343.671 284.882 343.576 285.465 344.023C286.062 344.484 286.156 345.339 285.695 345.922L255.363 384.932C256.38 386.654 259.295 390.668 263.349 388.919C264.041 388.621 264.841 388.932 265.126 389.624C265.424 390.316 265.112 391.116 264.42 391.4C263.336 391.861 262.305 392.065 261.342 392.065L261.356 392.078Z" fill="#18292D"/>
<path d="M271.459 397.082C266.876 397.082 262.252 393.773 261.994 393.583C261.682 393.366 261.493 393.014 261.438 392.648C261.398 392.268 261.506 391.888 261.75 391.604L295.215 352.661C295.703 352.091 296.558 352.037 297.127 352.512C297.697 353 297.764 353.854 297.276 354.423L264.828 392.187C267.323 393.651 271.703 395.455 274.333 393.489C278.862 390.112 304.693 363.766 304.964 363.508C305.493 362.966 306.348 362.966 306.876 363.495C307.405 364.024 307.419 364.878 306.89 365.407C305.819 366.491 280.639 392.16 275.947 395.658C274.578 396.689 273.018 397.068 271.459 397.068V397.082Z" fill="#18292D"/>
<path d="M281.235 397.258C279.011 397.258 276.882 396.729 274.957 395.522C274.32 395.129 274.13 394.288 274.537 393.651C274.943 393.014 275.771 392.824 276.408 393.231C282.523 397.068 291.689 391.834 298.306 386.763C305.737 381.068 311.663 374.302 311.717 374.234C312.219 373.664 313.073 373.61 313.629 374.098C314.198 374.586 314.253 375.441 313.764 376.01C312.897 377.014 295.066 397.244 281.235 397.244V397.258Z" fill="#18292D"/>
<path d="M314.008 396.553C309.262 396.553 303.852 394.79 298.862 389.38C298.347 388.824 298.387 387.97 298.943 387.468C299.486 386.953 300.354 386.993 300.855 387.549C310.537 398.031 320.815 392.607 322.971 391.278C325.452 381.895 326.768 369.258 319.378 361.312C310.076 351.291 286.753 328.945 271.255 337.772C270.604 338.138 269.777 337.921 269.411 337.271C269.045 336.62 269.262 335.793 269.912 335.427C277.031 331.372 293.167 329.108 321.371 359.481C329.737 368.485 328.205 382.41 325.452 392.512C325.371 392.811 325.181 393.082 324.924 393.258C322.605 394.899 318.618 396.567 314.008 396.567V396.553Z" fill="#18292D"/>
<path d="M319.012 358.505C318.388 358.505 317.819 358.071 317.683 357.434C317.534 356.701 317.995 355.983 318.727 355.834L387.271 341.406C388.003 341.244 388.722 341.718 388.871 342.45C389.02 343.183 388.559 343.901 387.827 344.05L319.283 358.478C319.188 358.491 319.093 358.505 318.999 358.505H319.012Z" fill="#18292D"/>
<path d="M316.396 230.269L311.856 230.423C301.042 230.789 291.963 222.305 291.596 211.491L290.728 185.837L334.446 184.356L335.315 210.01C335.681 220.824 327.197 229.903 316.382 230.27L316.396 230.269Z" fill="white"/>
<path d="M311.175 231.777C305.846 231.777 300.802 229.784 296.883 226.136C292.788 222.313 290.443 217.133 290.253 211.533L289.385 185.878C289.385 185.512 289.507 185.173 289.751 184.902C289.995 184.644 290.334 184.482 290.7 184.468L334.416 182.99C335.176 182.949 335.799 183.546 335.813 184.305L336.681 209.96C337.074 221.513 327.989 231.221 316.45 231.615L311.907 231.764C311.663 231.764 311.419 231.764 311.175 231.764V231.777ZM292.138 187.139L292.965 211.438C293.127 216.306 295.175 220.821 298.741 224.157C302.307 227.479 306.972 229.242 311.813 229.065L316.355 228.916C326.416 228.577 334.308 220.116 333.969 210.068L333.142 185.77L292.124 187.153L292.138 187.139Z" fill="#18292D"/>
<path d="M291.771 216.319L290.74 185.837L318.51 184.902L327.731 195.031C321.222 206.936 308.544 214.787 291.771 216.333V216.319Z" fill="#18292D"/>
<path d="M322.567 101.549L313.536 99.3796C291.975 94.1994 270.297 107.478 265.117 129.039L262.39 140.391C257.21 161.951 270.489 183.629 292.049 188.809L301.08 190.979C322.641 196.159 344.319 182.88 349.499 161.32L352.226 149.968C357.406 128.407 344.128 106.73 322.567 101.549Z" fill="#18292D"/>
<path d="M325.875 98.2358L333.43 100.051C351.413 104.372 362.502 122.473 358.181 140.457L354.579 155.447C350.259 173.431 332.157 184.519 314.173 180.199L306.619 178.383C288.635 174.063 277.547 155.961 281.868 137.978L285.469 122.987C289.79 105.003 307.892 93.9151 325.875 98.2358Z" fill="#18292D"/>
<path d="M361.765 141.145C361.765 141.145 361.738 141.145 361.725 141.145C360.979 141.132 360.382 140.508 360.409 139.748C360.708 128.697 357.548 119.653 351.026 112.833C344.138 105.633 333.385 101.212 322.253 101.022C321.507 101.022 320.91 100.385 320.924 99.6393C320.924 98.8936 321.602 98.2834 322.307 98.3105C334.145 98.5139 345.616 103.246 352.992 110.962C360.03 118.324 363.447 128.033 363.121 139.83C363.108 140.562 362.498 141.145 361.765 141.145Z" fill="#18292D"/>
<path d="M265.314 160.206L275.354 162.813C279.827 163.975 284.394 161.291 285.555 156.819L286.039 154.955C287.201 150.483 284.517 145.916 280.045 144.755L270.005 142.147C265.533 140.985 260.966 143.669 259.804 148.141L259.32 150.005C258.158 154.477 260.842 159.044 265.314 160.206Z" fill="white"/>
<path d="M277.479 164.441C276.665 164.441 275.838 164.332 275.025 164.129L264.977 161.525C262.468 160.874 260.353 159.288 259.038 157.037C257.723 154.786 257.356 152.183 258.007 149.674L258.495 147.803C259.838 142.623 265.153 139.491 270.346 140.847L280.394 143.45C285.574 144.793 288.706 150.108 287.35 155.301L286.862 157.173C286.211 159.681 284.611 161.796 282.374 163.112C280.855 163.993 279.174 164.454 277.465 164.454L277.479 164.441ZM267.906 143.233C264.787 143.233 261.94 145.322 261.126 148.481L260.638 150.352C260.163 152.169 260.434 154.054 261.384 155.667C262.333 157.281 263.851 158.434 265.655 158.895L275.703 161.498C277.506 161.973 279.404 161.701 281.018 160.752C282.631 159.803 283.784 158.284 284.245 156.481L284.733 154.61C285.709 150.867 283.445 147.044 279.716 146.067L269.669 143.464C269.085 143.315 268.489 143.233 267.906 143.233Z" fill="#18292D"/>
<path d="M321.657 115.558L323.732 116.06C337.468 119.355 347.624 129.782 351.23 142.474L353.766 142.338C358.905 142.067 363.298 146.013 363.583 151.166C363.854 156.305 359.909 160.698 354.756 160.983L351.719 161.145C351.678 161.308 351.651 161.457 351.624 161.62L348.247 175.681C343.379 195.966 322.986 208.455 302.714 203.573L300.64 203.072C280.355 198.204 267.866 177.81 272.748 157.539L276.124 143.477C280.992 123.192 301.386 110.704 321.657 115.585V115.558Z" fill="white"/>
<path d="M311.527 205.96C308.517 205.96 305.453 205.607 302.388 204.875L300.314 204.373C279.337 199.329 266.374 178.176 271.418 157.2L274.795 143.138C279.839 122.162 300.992 109.199 321.968 114.243L324.043 114.745C337.399 117.958 348.111 127.992 352.22 141.064L353.684 140.982C359.528 140.657 364.613 145.199 364.925 151.084C365.237 156.969 360.708 162.013 354.823 162.325L352.816 162.434L349.562 175.98C345.264 193.892 329.196 205.96 311.527 205.96ZM312.829 115.87C296.395 115.87 281.439 127.097 277.425 143.776L274.049 157.837C269.357 177.363 281.425 197.051 300.937 201.743L303.012 202.244C322.524 206.936 342.226 194.868 346.918 175.356L350.389 160.847C350.525 160.251 351.026 159.817 351.637 159.79L354.674 159.627C359.067 159.396 362.444 155.627 362.213 151.233C361.983 146.84 358.254 143.464 353.82 143.694L351.284 143.83C350.66 143.857 350.077 143.45 349.915 142.854C346.308 130.216 336.152 120.453 323.392 117.389L321.317 116.887C318.47 116.209 315.622 115.87 312.816 115.87H312.829Z" fill="#18292D"/>
<path d="M274.293 142.867V142.935C281.832 140.101 290.307 125.931 294.687 107.707V107.64C287.147 110.474 278.673 124.643 274.293 142.867Z" fill="#18292D"/>
<path d="M271.987 156.522C271.987 156.522 271.865 156.522 271.811 156.522C271.065 156.427 270.55 155.749 270.645 155.003C271.214 150.664 267.648 148.576 267.499 148.494C266.848 148.128 266.617 147.301 266.984 146.65C267.35 145.999 268.163 145.769 268.814 146.122C269.031 146.244 274.143 149.145 273.329 155.356C273.234 156.034 272.651 156.535 271.987 156.535V156.522Z" fill="#18292D"/>
<path d="M304.409 141.904C304.612 143.45 301.317 145.145 297.059 145.715C292.788 146.284 289.168 145.484 288.964 143.952C288.761 142.406 292.056 140.711 296.314 140.142C300.585 139.572 304.205 140.372 304.409 141.904Z" fill="#18292D"/>
<path d="M332.952 146.623C332.491 148.101 328.775 148.264 324.68 146.976C320.572 145.688 317.63 143.437 318.091 141.959C318.552 140.481 322.267 140.318 326.362 141.606C330.47 142.894 333.413 145.145 332.952 146.623Z" fill="#18292D"/>
<path d="M310.307 168.156C310.158 168.156 310.009 168.129 309.86 168.074C308.151 167.478 306.768 166.163 306.063 164.495C305.358 162.827 305.399 160.915 306.171 159.274L310.497 150.067C310.822 149.389 311.622 149.091 312.3 149.416C312.978 149.728 313.263 150.542 312.951 151.22L308.626 160.427C308.178 161.39 308.151 162.461 308.558 163.451C308.965 164.427 309.751 165.173 310.755 165.525C311.46 165.769 311.839 166.542 311.582 167.261C311.392 167.817 310.863 168.169 310.307 168.169V168.156Z" fill="#18292D"/>
<path d="M313.276 187.248C311.636 187.248 310.009 186.692 308.409 185.58C307.798 185.146 307.636 184.305 308.07 183.695C308.503 183.085 309.344 182.922 309.954 183.356C311.5 184.427 312.965 184.766 314.443 184.387C318.077 183.465 320.544 178.583 320.571 178.542C320.91 177.878 321.724 177.607 322.388 177.932C323.053 178.271 323.324 179.085 322.999 179.749C322.877 179.993 319.961 185.77 315.121 187.017C314.497 187.18 313.887 187.248 313.276 187.248Z" fill="#18292D"/>
<path d="M336.735 111.029C343.542 115.301 349.223 120.141 353.155 124.738C352.667 126.053 352.044 127.328 351.284 128.535C347.664 134.298 341.589 137.81 334.552 138.921C330.836 137.349 326.931 135.328 323.04 132.887C307.324 123.03 297.643 110.162 301.426 104.128C305.209 98.0936 321.019 101.185 336.735 111.043V111.029Z" fill="#18292D"/>
<path d="M278.876 118.284C272.733 123.477 269.845 130.148 269.899 136.209C271.133 136.874 272.435 137.43 273.805 137.85C280.313 139.83 287.201 138.487 293.249 134.704C292.53 130.04 297.073 122.23 304.49 117.335C319.961 107.111 297.317 102.704 278.889 118.311L278.876 118.284Z" fill="#18292D"/>
<path d="M323.636 155.993C323.134 158.569 321.399 160.413 319.758 160.088C318.117 159.762 317.195 157.417 317.697 154.84C318.198 152.264 319.934 150.42 321.575 150.745C323.216 151.071 324.138 153.417 323.636 155.993Z" fill="#18292D"/>
<path d="M298.388 155.993C297.887 158.569 296.151 160.413 294.51 160.088C292.87 159.762 291.948 157.417 292.449 154.84C292.951 152.264 294.687 150.42 296.327 150.745C297.968 151.071 298.89 153.417 298.388 155.993Z" fill="#18292D"/>
<path d="M308.734 104.073C308.652 104.073 308.571 104.073 308.503 104.046C307.771 103.911 307.269 103.219 307.405 102.473C308.612 95.5851 316.964 93.8224 317.317 93.741C318.063 93.5918 318.768 94.0664 318.917 94.7986C319.066 95.5309 318.591 96.2495 317.859 96.3987C317.791 96.4122 310.957 97.8767 310.076 102.934C309.954 103.599 309.384 104.06 308.747 104.06L308.734 104.073Z" fill="#18292D"/>
<path d="M308.964 101.022C308.964 101.022 308.897 101.022 308.87 101.022C308.124 100.968 307.568 100.317 307.622 99.5716C307.798 97.1987 306.185 96.5749 305.859 96.48C305.154 96.2631 304.734 95.5173 304.951 94.7986C305.168 94.08 305.9 93.6732 306.605 93.8766C308.015 94.2698 310.605 96.0054 310.334 99.775C310.28 100.494 309.683 101.036 308.978 101.036L308.964 101.022Z" fill="#18292D"/>
<path d="M324.423 138.46C324.22 138.46 324.016 138.42 323.826 138.325C313.616 133.321 306.714 126.148 303.311 116.982C303.053 116.277 303.406 115.504 304.111 115.233C304.816 114.975 305.589 115.328 305.86 116.033C309.019 124.521 315.46 131.206 325.033 135.884C325.711 136.21 325.982 137.023 325.657 137.701C325.426 138.176 324.938 138.46 324.437 138.46H324.423Z" fill="#18292D"/>
<path d="M353.575 132.806L348.68 157.512L344.463 157.62L341.317 127.043L353.575 132.806Z" fill="#18292D"/>
<path d="M285.791 221.635L291.16 253.839L307.269 236.401L324.707 255.181L339.798 218.191L334.09 204.102L307.269 228.347L290.496 212.916L285.791 221.635Z" fill="white"/>
<path d="M324.707 256.537C324.328 256.537 323.975 256.388 323.717 256.103L307.27 238.394L292.164 254.761C291.812 255.14 291.269 255.29 290.781 255.14C290.28 254.991 289.913 254.571 289.832 254.069L284.462 221.865C284.408 221.567 284.462 221.269 284.612 220.997L289.303 212.279C289.507 211.913 289.859 211.655 290.266 211.587C290.686 211.519 291.107 211.641 291.405 211.926L307.27 226.516L333.182 203.112C333.507 202.814 333.968 202.692 334.389 202.8C334.823 202.895 335.175 203.207 335.338 203.614L341.046 217.702C341.182 218.028 341.182 218.394 341.046 218.719L325.955 255.71C325.778 256.144 325.399 256.442 324.938 256.537C324.856 256.551 324.775 256.564 324.694 256.564L324.707 256.537ZM307.27 235.045C307.649 235.045 308.002 235.208 308.259 235.479L324.26 252.713L338.335 218.204L333.562 206.421L308.165 229.364C307.649 229.838 306.849 229.825 306.334 229.364L290.849 215.113L287.201 221.892L292.042 250.91L306.266 235.506C306.524 235.235 306.876 235.072 307.256 235.072L307.27 235.045Z" fill="#18292D"/>
<path d="M176.297 395.373H321.507C326.673 395.373 330.863 399.563 330.863 404.729V407.563H176.297V395.373Z" fill="#18292D"/>
<path d="M236.271 407.563H95.7262L64.8511 314.219C61.868 305.202 68.58 295.914 78.0852 295.914H189.26C195.267 295.914 200.596 299.765 202.494 305.473L236.271 407.577V407.563Z" fill="#18292D"/>
<path d="M150.811 356.178C152.067 350.858 148.771 345.526 143.451 344.271C138.13 343.015 132.799 346.31 131.543 351.631C130.288 356.951 133.583 362.282 138.903 363.538C144.224 364.794 149.555 361.499 150.811 356.178Z" fill="white"/>
<path d="M141.179 365.176C134.969 365.176 129.925 360.132 129.925 353.922C129.925 347.711 134.969 342.667 141.179 342.667C147.39 342.667 152.434 347.711 152.434 353.922C152.434 360.132 147.39 365.176 141.179 365.176ZM141.179 345.379C136.474 345.379 132.637 349.217 132.637 353.922C132.637 358.627 136.474 362.464 141.179 362.464C145.885 362.464 149.722 358.627 149.722 353.922C149.722 349.217 145.885 345.379 141.179 345.379Z" fill="#18292D"/>
<path d="M369.508 345.881C369.033 345.881 368.572 345.623 368.314 345.176L339.46 292.877C339.094 292.226 339.338 291.399 339.989 291.032C340.639 290.666 341.467 290.91 341.833 291.561L370.687 343.86C371.054 344.511 370.809 345.338 370.159 345.705C369.955 345.813 369.725 345.867 369.508 345.867V345.881Z" fill="#18292D"/>
<path d="M204.49 211.895C154.744 222.69 104.998 233.499 55.2666 244.294C48.1912 245.878 42.4524 239.863 42.4524 230.855V82.3872C42.4524 73.3795 48.1912 67.3646 55.2666 68.9483C105.013 79.743 154.759 90.5523 204.49 101.347C211.566 102.931 217.304 108.393 217.304 113.537C217.304 142.26 217.304 170.983 217.304 199.691C217.304 204.834 211.566 210.297 204.49 211.881V211.895Z" fill="white"/>
<path d="M53.0442 246.009C50.6034 246.009 48.2788 245.195 46.3175 243.64C42.9323 240.924 41 236.274 41 230.884V82.3872C41 76.9826 42.9468 72.3334 46.332 69.6166C48.9472 67.5244 52.2306 66.7835 55.5867 67.5244L204.81 99.9233C212.641 101.681 218.758 107.653 218.772 113.537V199.706C218.772 205.575 212.656 211.561 204.825 213.319L55.5722 245.718C54.7295 245.907 53.8724 246.009 53.0442 246.009ZM53.0152 70.1541C51.2282 70.1541 49.5719 70.7353 48.1336 71.883C45.4458 74.0333 43.8912 77.8688 43.8912 82.3872V230.87C43.8912 235.388 45.4312 239.209 48.119 241.359C50.0659 242.914 52.4195 243.437 54.933 242.885L204.171 210.486C210.505 209.062 215.837 204.137 215.837 199.72V113.551C215.837 109.134 210.491 104.195 204.156 102.785L54.962 70.3721C54.3082 70.2268 53.6544 70.1541 53.0297 70.1541H53.0152Z" fill="#18292D"/>
<path d="M204.49 211.895C154.744 222.69 104.998 233.499 55.2666 244.294C48.1912 245.878 42.4524 239.863 42.4524 230.855V82.3872C42.4524 73.3795 48.1912 67.3646 55.2666 68.9483C105.013 79.743 154.759 90.5523 204.49 101.347C211.566 102.931 217.304 108.393 217.304 113.537C217.304 142.26 217.304 170.983 217.304 199.691C217.304 204.834 211.566 210.297 204.49 211.881V211.895Z" fill="white"/>
<path d="M53.0442 246.009C50.6034 246.009 48.2788 245.195 46.3175 243.64C42.9323 240.924 41 236.274 41 230.884V82.3872C41 76.9826 42.9468 72.3334 46.332 69.6166C48.9472 67.5244 52.2306 66.7835 55.5867 67.5244L204.81 99.9233C212.641 101.681 218.758 107.653 218.772 113.537V199.706C218.772 205.575 212.656 211.561 204.825 213.319L55.5722 245.718C54.7295 245.907 53.8724 246.009 53.0442 246.009ZM53.0152 70.1541C51.2282 70.1541 49.5719 70.7353 48.1336 71.883C45.4458 74.0333 43.8912 77.8688 43.8912 82.3872V230.87C43.8912 235.388 45.4312 239.209 48.119 241.359C50.0659 242.914 52.4195 243.437 54.933 242.885L204.171 210.486C210.505 209.062 215.837 204.137 215.837 199.72V113.551C215.837 109.134 210.491 104.195 204.156 102.785L54.962 70.3721C54.3082 70.2268 53.6544 70.1541 53.0297 70.1541H53.0152Z" fill="#18292D"/>
<path d="M54.6711 86.5424C54.4241 86.5424 54.1771 86.5279 53.9447 86.4843C51.4167 86.0339 49.4263 83.3461 49.4263 80.3532C49.4263 78.6824 50.0655 77.2005 51.1697 76.2852C52.0995 75.5152 53.2764 75.2246 54.4822 75.4571C56.9957 75.951 58.9716 78.6388 58.9716 81.5881C58.9716 83.2299 58.3468 84.6827 57.2572 85.598C56.5162 86.2228 55.63 86.5424 54.6856 86.5424H54.6711ZM53.6541 78.2901C53.4071 78.2901 53.1892 78.3773 53.0003 78.5371C52.579 78.8858 52.3175 79.5687 52.3175 80.3532C52.3175 82.0676 53.4362 83.4478 54.4386 83.6221C54.7873 83.6803 55.107 83.6076 55.3685 83.3752C55.7898 83.0119 56.0513 82.3582 56.0513 81.5881C56.0513 80.0626 55.0488 78.5371 53.9011 78.3192C53.8139 78.3047 53.7267 78.2901 53.6541 78.2901Z" fill="#18292D"/>
<path d="M65.8436 88.5183C65.5966 88.5183 65.3496 88.5037 65.1026 88.4456C62.5601 87.9952 60.5842 85.351 60.5842 82.4308C60.5842 80.8181 61.209 79.3652 62.2986 78.479C63.243 77.709 64.4343 77.4184 65.6402 77.6508C68.1536 78.1593 70.1295 80.8036 70.1295 83.6657C70.1295 85.2493 69.5193 86.6586 68.4442 87.5594C67.7033 88.1841 66.8025 88.5183 65.8436 88.5183ZM64.8121 80.4839C64.5651 80.4839 64.3326 80.5711 64.1292 80.7309C63.7224 81.0651 63.4754 81.7043 63.4754 82.4308C63.4754 83.9127 64.4634 85.3946 65.5966 85.5835C65.9598 85.6416 66.294 85.5689 66.57 85.3365C66.9768 84.9878 67.2093 84.3776 67.2093 83.6657C67.2093 82.2128 66.2068 80.7309 65.059 80.4985C64.9719 80.4839 64.8847 80.4694 64.8121 80.4694V80.4839Z" fill="#18292D"/>
<path d="M77.031 90.4941C76.784 90.4941 76.5225 90.4651 76.2755 90.4215C73.7475 89.9856 71.7571 87.385 71.7571 84.5084C71.7571 82.9393 72.3673 81.5445 73.4279 80.6728C74.3722 79.9028 75.5781 79.6122 76.813 79.8447C79.3265 80.3532 81.3024 82.9393 81.3024 85.7433C81.3024 87.2688 80.7067 88.649 79.6607 89.5207C78.9197 90.1455 78.0044 90.4796 77.0455 90.4796L77.031 90.4941ZM75.9704 82.6777C75.7089 82.6777 75.4764 82.7649 75.273 82.9247C74.8807 83.2444 74.6628 83.8255 74.6628 84.5229C74.6628 85.9467 75.6508 87.3705 76.7695 87.5739C77.1617 87.6465 77.4959 87.5594 77.7865 87.3269C78.1642 87.0073 78.3967 86.4407 78.3967 85.7723C78.3967 84.3776 77.3942 82.9538 76.2464 82.7213C76.1593 82.7068 76.0576 82.6923 75.9704 82.6923V82.6777Z" fill="#18292D"/>
<path d="M118.829 104.311C125.149 102.742 128.462 105.43 130.147 107.958C130.38 108.306 130.597 108.669 130.786 109.047C131.295 96.262 135.218 87.385 142.467 82.6051C148.773 78.4499 157.751 77.4474 168.43 79.7429C176.45 81.4573 182.683 84.4357 182.741 84.4647C182.93 84.5519 183.06 84.7263 183.104 84.9297C183.438 86.4552 191.109 122.646 186.068 139.47C181.026 156.323 179.457 161.655 179.457 161.655C179.399 161.844 179.268 162.004 179.094 162.077C178.978 162.135 171.655 165.375 160.367 163.065L158.768 178.102C158.739 178.305 158.638 178.494 158.463 178.596C158.231 178.741 154.889 180.746 145.591 178.552C139.039 177.012 129.537 173.394 116.098 165.564C115.851 165.418 115.72 165.142 115.778 164.852L121.953 131.465C117.347 130.767 113.076 126.278 111.667 120.147C109.967 112.665 113.09 105.691 118.8 104.282L118.829 104.311Z" fill="white"/>
<path d="M136.075 66.1441C141.785 67.4953 146.551 70.7497 149.849 75.0792C133.286 75.7621 118.394 87.7337 114.297 105.183C114.123 105.953 113.963 106.723 113.832 107.493C107.745 101.739 104.781 92.993 106.829 84.2468C109.909 71.171 123 63.0641 136.075 66.1441Z" fill="#18292D"/>
<path d="M127.111 123.096L112.815 118.956L108.413 101.042C106.234 92.1939 109.139 82.852 115.968 76.8226C123.566 70.0958 132.647 62.5555 134.608 63.0204C136.831 63.5434 163.825 65.9261 180.329 68.9045C189.613 70.5753 195.773 79.4523 194.103 88.7361L187.085 107.434L182.683 84.1886C182.683 84.1886 164.363 96.5379 140.23 88.9976L127.126 123.082L127.111 123.096Z" fill="#18292D"/>
<path d="M168.212 139.79C165.51 139.79 161.587 139.092 159.96 135.344C159.64 134.603 159.974 133.746 160.715 133.441C161.456 133.121 162.313 133.455 162.633 134.196C164.231 137.886 170.333 136.724 170.406 136.71C171.19 136.55 171.96 137.058 172.106 137.857C172.265 138.642 171.757 139.412 170.972 139.572C170.856 139.601 169.723 139.819 168.226 139.819L168.212 139.79Z" fill="#18292D"/>
<path d="M124.859 130.738C119.57 131.944 113.977 127.15 112.364 120.031C110.752 112.912 113.715 106.17 118.989 104.965C124.263 103.759 129.871 108.553 131.484 115.672L124.859 130.738Z" fill="white"/>
<path d="M123.202 132.38C120.819 132.38 118.422 131.436 116.301 129.605C113.7 127.382 111.812 124.099 110.954 120.35C110.097 116.602 110.388 112.825 111.768 109.686C113.206 106.417 115.662 104.224 118.684 103.541C124.742 102.161 131.12 107.463 132.922 115.338C133.096 116.123 132.617 116.893 131.832 117.081C131.047 117.256 130.277 116.762 130.089 115.992C128.65 109.672 123.827 105.357 119.337 106.374C117.245 106.853 115.502 108.437 114.441 110.849C113.308 113.406 113.09 116.544 113.802 119.697C114.514 122.835 116.083 125.566 118.204 127.397C120.209 129.111 122.461 129.794 124.553 129.315C125.338 129.14 126.108 129.62 126.297 130.404C126.471 131.189 125.992 131.959 125.207 132.148C124.553 132.293 123.885 132.366 123.217 132.366L123.202 132.38Z" fill="#18292D"/>
<path d="M162.619 109.163C162.168 111.067 160.992 112.403 159.989 112.171C158.987 111.938 158.522 110.209 158.972 108.306C159.423 106.403 160.599 105.066 161.602 105.299C162.604 105.531 163.069 107.26 162.619 109.163Z" fill="#18292D"/>
<path d="M184.266 111.488C183.816 113.391 182.639 114.728 181.636 114.495C180.634 114.263 180.169 112.534 180.619 110.631C181.07 108.728 182.247 107.391 183.249 107.623C184.252 107.856 184.716 109.585 184.266 111.488Z" fill="#18292D"/>
<path d="M168.271 164.793C160.28 164.793 148.628 162.178 135.291 151.02C134.681 150.512 134.593 149.582 135.116 148.972C135.625 148.362 136.54 148.274 137.165 148.783C149.224 158.866 159.742 161.423 166.455 161.786C172.208 162.091 176.203 160.9 177.656 160.377C178.208 158.474 180.024 152.371 184.063 138.86C188.945 122.559 181.143 85.7432 181.056 85.38C180.882 84.5955 181.39 83.8254 182.175 83.6511C182.959 83.4913 183.729 83.9853 183.904 84.7698C184.238 86.3098 191.938 122.689 186.853 139.703C181.811 156.541 180.242 161.888 180.242 161.888C180.126 162.295 179.835 162.614 179.458 162.803C179.095 162.963 174.983 164.808 168.285 164.808L168.271 164.793Z" fill="#18292D"/>
<path d="M116.476 166.45C116.389 166.45 116.302 166.45 116.214 166.421C115.43 166.275 114.907 165.52 115.052 164.721L121.285 131.029C121.43 130.244 122.186 129.721 122.985 129.867C123.769 130.012 124.292 130.767 124.147 131.552L117.914 165.244C117.783 165.941 117.173 166.435 116.49 166.435L116.476 166.45Z" fill="#18292D"/>
<path d="M158.129 179.496C158.129 179.496 158.028 179.496 157.97 179.496C157.171 179.409 156.589 178.697 156.677 177.898L158.318 162.396C158.406 161.597 159.103 161.031 159.917 161.103C160.716 161.19 161.297 161.902 161.21 162.701L159.568 178.203C159.495 178.944 158.856 179.496 158.129 179.496Z" fill="#18292D"/>
<path d="M186.213 124.375C185.356 124.375 184.484 124.273 183.627 124.07C182.16 123.721 180.794 123.096 179.574 122.21C178.92 121.731 178.789 120.83 179.254 120.176C179.733 119.522 180.634 119.391 181.288 119.856C182.189 120.51 183.191 120.975 184.281 121.237C186.446 121.745 188.668 121.382 190.557 120.22C192.446 119.057 193.753 117.227 194.262 115.062C194.77 112.897 194.407 110.674 193.245 108.786C192.083 106.897 190.252 105.575 188.087 105.081C184.252 104.18 180.3 106.112 178.644 109.672C178.31 110.398 177.452 110.718 176.711 110.384C175.985 110.05 175.665 109.178 175.999 108.451C178.222 103.642 183.583 101.042 188.741 102.248C191.661 102.931 194.131 104.718 195.7 107.26C197.269 109.803 197.763 112.81 197.081 115.73C196.398 118.651 194.611 121.12 192.068 122.689C190.267 123.808 188.247 124.375 186.184 124.375H186.213Z" fill="#FFC31F"/>
<path d="M160.12 121.484C159.277 121.484 158.405 121.382 157.548 121.179C154.628 120.496 152.158 118.709 150.589 116.166C149.005 113.624 148.526 110.616 149.209 107.696C149.891 104.776 151.678 102.306 154.221 100.737C156.763 99.1676 159.771 98.6737 162.691 99.3565C168.706 100.766 172.454 106.824 171.031 112.839C169.81 117.997 165.205 121.484 160.12 121.484ZM160.105 101.972C158.58 101.972 157.083 102.393 155.747 103.221C153.858 104.383 152.536 106.214 152.042 108.379C151.533 110.544 151.896 112.766 153.059 114.655C154.221 116.544 156.052 117.866 158.216 118.36C162.677 119.406 167.151 116.631 168.198 112.185C169.244 107.725 166.469 103.25 162.023 102.204C161.384 102.059 160.744 101.986 160.105 101.986V101.972Z" fill="#FFC31F"/>
<path d="M129.74 112.055C129.014 112.055 128.389 111.517 128.302 110.776C128.2 109.977 128.767 109.251 129.566 109.163L150.443 106.592C151.243 106.49 151.969 107.057 152.056 107.856C152.158 108.655 151.591 109.381 150.792 109.468L129.915 112.04C129.915 112.04 129.798 112.04 129.74 112.04V112.055Z" fill="#FFC31F"/>
<path d="M172.441 133.048C171.845 133.048 171.293 132.685 171.075 132.104C170.799 131.349 171.177 130.52 171.932 130.23C175.274 128.98 178.528 127.251 179.211 126.38C178.15 123.183 175.157 106.505 174.547 103.076C174.402 102.291 174.925 101.536 175.724 101.391C176.523 101.245 177.264 101.783 177.409 102.567C179.225 112.781 181.463 124.317 182 125.552C182.175 125.958 182.32 126.598 182 127.382C180.998 129.75 175.346 132.075 172.964 132.961C172.789 133.019 172.629 133.048 172.455 133.048H172.441Z" fill="#18292D"/>
<path d="M178.381 110.288C178.267 110.314 178.168 110.336 178.045 110.318L171.329 110.237C170.522 110.224 169.887 109.576 169.886 108.773C169.9 107.966 170.561 107.327 171.354 107.344L178.07 107.425C178.877 107.439 179.516 108.1 179.513 108.89C179.502 109.577 179.019 110.146 178.381 110.288Z" fill="#FFC31F"/>
<path d="M112.625 194.577L149.494 203.252C153.837 204.274 158.185 201.582 159.207 197.239L163.234 180.127C164.255 175.784 161.563 171.435 157.22 170.413L120.351 161.739C116.008 160.717 111.66 163.409 110.638 167.752L106.612 184.864C105.59 189.207 108.282 193.556 112.625 194.577Z" fill="#18292D"/>
<path d="M55.2666 244.309C105.013 233.514 154.759 222.705 204.49 211.91C206.742 211.401 208.863 210.501 210.694 209.353C205.943 200.054 193.463 192.718 177.38 190.088L144.923 184.799L103.327 189.26C80.8515 191.671 62.8215 201.653 57.1553 214.787L45.823 241.112C48.1621 243.844 51.5182 245.137 55.2521 244.294L55.2666 244.309Z" fill="#18292D"/>
<path d="M161.136 214.075V238.41C161.136 241.868 165.437 243.451 167.674 240.836L190.964 213.697C193.172 211.125 191.065 207.173 187.695 207.58L164.405 210.384C162.531 210.617 161.136 212.2 161.136 214.075Z" fill="#18292D"/>
</svg>
