<svg width="460" height="460" viewBox="0 0 460 460" fill="none" xmlns="http://www.w3.org/2000/svg">
<rect width="460" height="460" fill="white"/>
<path d="M122.829 89.3513C157.633 67.0564 245.013 33.1156 316.102 75.7126" stroke="black" stroke-width="1.5" stroke-linecap="round" stroke-dasharray="5 5"/>
<path d="M307.523 80.6805C305.151 84.1656 305.092 89.3355 304.105 93.3111C302.253 100.772 299.957 108.159 296.633 115.106C291.524 125.784 282.449 141.872 268.967 141.281C262.708 141.007 257.021 138.168 252.049 134.468C247.652 131.194 246.217 128.123 245.571 122.752C244.744 115.872 248.25 106.75 256.603 109.969C280.207 119.064 262.037 147.916 253.582 161.776C249.266 168.849 244.012 175.089 238.807 181.516C235.637 185.431 227.469 194.18 223.133 196.826C219.68 198.933 221.894 196.797 218.3 198.431" stroke="black" stroke-width="1.5" stroke-linecap="round" stroke-linejoin="round" stroke-dasharray="3.54 3.54"/>
<path d="M172.452 175.042C213.832 171.792 253.563 185.222 281.668 203.509C310.052 222.159 326.802 245.67 328.631 270.795C330.474 296.163 317.749 320.256 298.897 344.056C279.79 367.496 254.554 390.644 225.631 405.647C169.73 437.017 105.677 411.624 75.1451 335.809C44.5804 260.473 87.3669 179.369 172.452 175.042Z" fill="#F2F7F8"/>
<path d="M231.784 318.693H100.747C88.2923 318.693 78.1843 308.597 78.1843 296.13C78.1843 283.676 88.28 273.568 100.747 273.568H231.784V318.681V318.693Z" fill="#4A7C88"/>
<path d="M111.686 319.914C98.5713 319.914 87.9011 309.244 87.9011 296.13C87.9011 283.015 98.5713 272.345 111.686 272.345C112.358 272.345 112.908 272.895 112.908 273.567C112.908 274.239 112.358 274.789 111.686 274.789C99.928 274.789 90.3456 284.359 90.3456 296.13C90.3456 307.9 99.9158 317.47 111.686 317.47C112.358 317.47 112.908 318.02 112.908 318.692C112.908 319.364 112.358 319.914 111.686 319.914Z" fill="#18292D"/>
<path d="M142.169 319.914C129.055 319.914 118.385 309.244 118.385 296.13C118.385 283.015 129.055 272.345 142.169 272.345C142.842 272.345 143.392 272.895 143.392 273.567C143.392 274.239 142.842 274.789 142.169 274.789C130.411 274.789 120.829 284.359 120.829 296.13C120.829 307.9 130.399 317.47 142.169 317.47C142.842 317.47 143.392 318.02 143.392 318.692C143.392 319.364 142.842 319.914 142.169 319.914Z" fill="#18292D"/>
<path d="M231.784 318.692H165.379C152.925 318.692 142.817 308.596 142.817 296.129C142.817 283.675 152.912 273.567 165.379 273.567H231.784V318.68V318.692Z" fill="white"/>
<path d="M231.783 319.914H165.379C152.264 319.914 141.594 309.244 141.594 296.13C141.594 283.015 152.264 272.345 165.379 272.345H231.783C232.456 272.345 233.006 272.895 233.006 273.567V318.68C233.006 319.352 232.456 319.902 231.783 319.902V319.914ZM165.379 274.801C153.621 274.801 144.039 284.372 144.039 296.142C144.039 307.912 153.609 317.482 165.379 317.482H230.561V274.801H165.379Z" fill="#18292D"/>
<path d="M230.612 287H172.079C171.407 287 170.857 286.45 170.857 285.777C170.857 285.105 171.407 284.555 172.079 284.555H230.612C231.284 284.555 231.834 285.105 231.834 285.777C231.834 286.45 231.284 287 230.612 287Z" fill="#18292D"/>
<path d="M229.387 295.53H198.905C198.232 295.53 197.682 294.98 197.682 294.308C197.682 293.636 198.232 293.086 198.905 293.086H229.387C230.06 293.086 230.61 293.636 230.61 294.308C230.61 294.98 230.06 295.53 229.387 295.53Z" fill="#18292D"/>
<path d="M208.598 273.568H79.3702V246.752L208.598 246.752C216.005 246.752 222.006 252.765 222.006 260.16C222.006 267.567 215.992 273.568 208.598 273.568Z" fill="#18292D"/>
<path d="M208.585 274.789H79.3573C78.685 274.789 78.135 274.239 78.135 273.567V246.751C78.135 246.079 78.685 245.529 79.3573 245.529H208.585C216.652 245.529 223.215 252.092 223.215 260.159C223.215 268.226 216.652 274.789 208.585 274.789ZM80.5795 272.345H208.585C215.307 272.345 220.771 266.881 220.771 260.159C220.771 253.437 215.307 247.973 208.585 247.973H80.5795V272.345Z" fill="#18292D"/>
<path d="M148.169 273.568H79.3564V246.752H148.169C155.575 246.752 161.577 252.765 161.577 260.16C161.577 267.567 155.563 273.568 148.169 273.568Z" fill="white"/>
<path d="M148.17 274.789H79.3573C78.685 274.789 78.135 274.239 78.135 273.567V246.751C78.135 246.079 78.685 245.529 79.3573 245.529H148.17C156.236 245.529 162.8 252.092 162.8 260.159C162.8 268.226 156.236 274.789 148.17 274.789ZM80.5795 272.345H148.17C154.892 272.345 160.355 266.881 160.355 260.159C160.355 253.437 154.892 247.973 148.17 247.973H80.5795V272.345Z" fill="#18292D"/>
<path d="M144.187 255.221H80.0555C79.3833 255.221 78.8333 254.671 78.8333 253.999C78.8333 253.326 79.3833 252.776 80.0555 252.776H144.187C144.859 252.776 145.409 253.326 145.409 253.999C145.409 254.671 144.859 255.221 144.187 255.221Z" fill="#18292D"/>
<path d="M109.889 262.738H80.7874C80.1152 262.738 79.5652 262.188 79.5652 261.516C79.5652 260.844 80.1152 260.294 80.7874 260.294H109.901C110.573 260.294 111.123 260.844 111.123 261.516C111.123 262.188 110.573 262.738 109.901 262.738H109.889Z" fill="#18292D"/>
<path d="M215.982 245.518L75.7054 245.518V216.624L215.982 216.624C223.389 216.624 229.39 222.637 229.39 230.032V232.11C229.39 239.516 223.377 245.518 215.982 245.518Z" fill="white"/>
<path d="M215.982 246.752H75.7049C75.0327 246.752 74.4827 246.202 74.4827 245.53V216.636C74.4827 215.964 75.0327 215.414 75.7049 215.414H215.982C224.048 215.414 230.612 221.977 230.612 230.044V232.122C230.612 240.188 224.048 246.752 215.982 246.752ZM76.9272 244.307H215.982C222.704 244.307 228.167 238.844 228.167 232.122V230.044C228.167 223.321 222.704 217.858 215.982 217.858H76.9272V244.307Z" fill="#18292D"/>
<path d="M150.885 245.518H75.7051V216.624H150.885C158.292 216.624 164.293 222.637 164.293 230.032V232.11C164.293 239.516 158.28 245.518 150.885 245.518Z" fill="white"/>
<path d="M150.885 246.752H75.7049C75.0327 246.752 74.4827 246.202 74.4827 245.53V216.636C74.4827 215.964 75.0327 215.414 75.7049 215.414H150.885C158.952 215.414 165.515 221.977 165.515 230.044V232.122C165.515 240.188 158.952 246.752 150.885 246.752ZM76.9272 244.307H150.885C157.607 244.307 163.071 238.844 163.071 232.122V230.044C163.071 223.321 157.607 217.858 150.885 217.858H76.9272V244.307Z" fill="#18292D"/>
<path d="M145.545 225.668H76.4512C75.779 225.668 75.229 225.118 75.229 224.445C75.229 223.773 75.779 223.223 76.4512 223.223H145.545C146.217 223.223 146.767 223.773 146.767 224.445C146.767 225.118 146.217 225.668 145.545 225.668Z" fill="#18292D"/>
<path d="M215.968 230.91H175.732C175.06 230.91 174.51 230.36 174.51 229.688C174.51 229.016 175.06 228.466 175.732 228.466H215.968C216.641 228.466 217.191 229.016 217.191 229.688C217.191 230.36 216.641 230.91 215.968 230.91Z" fill="#18292D"/>
<path d="M126.965 266.942V234.589H138.222H149.467V266.942L138.222 260.44L126.965 266.942Z" fill="#4A7C88"/>
<path d="M194.166 348.918C189.081 331.44 169.366 318.582 169.366 318.582L133.078 318.863H104.649C104.649 318.863 101.825 301.751 99.5397 295.982C97.2663 290.201 88.0628 290.409 88.0628 290.409L90.7029 308.144C90.7029 308.144 83.4061 292.352 80.7661 288.832C78.1382 285.312 69.5581 285.703 69.5581 285.703L73.8971 296.85C73.8971 296.85 68.6292 289.81 64.0947 288.062C59.5602 286.327 53.4734 288.502 53.4734 288.502L85.545 333.603L159.955 355.591L163.695 367.569L167.337 404.383H221.128C207.574 375.245 194.178 348.906 194.178 348.906L194.166 348.918Z" fill="white"/>
<path d="M221.115 405.605H167.324C166.701 405.605 166.175 405.128 166.102 404.505L162.472 367.813L158.964 356.569L85.1774 334.764C84.9207 334.691 84.6885 334.52 84.5296 334.3L52.4702 289.211C52.2502 288.893 52.1891 288.502 52.2991 288.135C52.4091 287.769 52.6902 287.475 53.0568 287.353C53.3257 287.255 59.6203 285.043 64.5337 286.925C66.5015 287.683 68.5549 289.309 70.3149 290.983L68.4327 286.131C68.286 285.764 68.3349 285.349 68.5427 285.019C68.7627 284.689 69.1171 284.481 69.5082 284.469C70.4616 284.42 78.8217 284.163 81.7551 288.087C83.2218 290.054 86.0207 295.542 88.2941 300.211L86.8641 290.58C86.8152 290.238 86.913 289.883 87.133 289.614C87.3652 289.345 87.6952 289.187 88.0374 289.174C88.4408 289.174 98.1209 289.028 100.675 295.53C102.668 300.602 105.027 313.827 105.674 317.653H133.065L169.353 317.359C169.622 317.359 169.83 317.433 170.025 317.555C170.844 318.093 190.095 330.816 195.289 348.465C196.218 350.286 209.223 375.954 222.215 403.882C222.386 404.261 222.362 404.701 222.142 405.055C221.922 405.41 221.531 405.617 221.115 405.617V405.605ZM168.436 403.161H219.196C206.082 375.061 193.199 349.724 193.077 349.468C193.04 349.394 193.016 349.333 192.991 349.26C188.42 333.578 171.468 321.503 168.999 319.804L133.089 320.085H104.66C104.061 320.085 103.548 319.657 103.45 319.07C103.425 318.899 100.614 302.02 98.4143 296.422C96.9598 292.743 91.973 291.876 89.5041 291.68L91.9241 307.948C92.0097 308.547 91.643 309.121 91.0686 309.305C90.4819 309.476 89.8586 309.195 89.6141 308.645C89.5408 308.486 82.3418 292.927 79.8117 289.553C78.345 287.585 74.1283 287.011 71.366 286.913L75.0572 296.398C75.2772 296.972 75.0572 297.608 74.5072 297.913C73.9694 298.207 73.2972 298.072 72.9305 297.583C72.8816 297.51 67.8215 290.8 63.6659 289.211C60.9281 288.16 57.4569 288.722 55.4769 289.211L86.3018 332.564L160.309 354.43C160.7 354.54 161.005 354.845 161.127 355.237L164.868 367.215C164.892 367.288 164.904 367.373 164.916 367.459L168.449 403.173L168.436 403.161Z" fill="#18292D"/>
<path d="M168.483 340.166C167.958 340.166 167.469 339.824 167.31 339.286C167.078 338.529 161.553 321.136 136.632 320.513C110.769 319.865 104.364 319.804 104.303 319.804C103.631 319.804 103.081 319.242 103.093 318.569C103.093 317.897 103.643 317.359 104.315 317.359C104.315 317.359 110.793 317.42 136.693 318.068C150.638 318.41 158.84 323.935 163.276 328.506C168.117 333.493 169.595 338.382 169.657 338.59C169.852 339.238 169.473 339.922 168.838 340.105C168.728 340.142 168.605 340.154 168.495 340.154L168.483 340.166Z" fill="#18292D"/>
<path d="M95.3207 336.684C94.7096 336.684 94.1963 336.231 94.1107 335.62C93.7563 332.895 86.8261 291.118 86.765 290.703C86.655 290.043 87.1073 289.407 87.7673 289.297C88.4395 289.187 89.0628 289.639 89.1728 290.299C89.454 292.023 96.1763 332.54 96.5307 335.302C96.6163 335.975 96.1518 336.586 95.4796 336.671C95.4307 336.671 95.3696 336.671 95.3207 336.671V336.684Z" fill="#18292D"/>
<path d="M89.2219 335.876C88.7452 335.876 88.2807 335.583 88.0852 335.119L68.2971 286.473C68.0404 285.85 68.346 285.129 68.9693 284.884C69.5927 284.628 70.3138 284.933 70.5582 285.557L90.3586 334.19C90.6152 334.813 90.3097 335.534 89.6863 335.779C89.5397 335.84 89.3808 335.864 89.2219 335.864V335.876Z" fill="#18292D"/>
<path d="M167.335 404.383V429.354H405.709L389.93 380.953C384.674 364.844 370.606 353.196 353.801 351.045L271.764 340.545C257.17 338.675 242.748 345.092 234.375 357.192L211.421 390.34L167.323 404.395L167.335 404.383Z" fill="#96D8E8"/>
<path d="M226.064 422.448C225.612 422.448 225.172 422.192 224.964 421.752L210.334 390.866C210.04 390.255 210.309 389.521 210.92 389.24C211.531 388.947 212.253 389.216 212.546 389.827L227.176 420.713C227.469 421.324 227.201 422.057 226.589 422.338C226.418 422.424 226.247 422.461 226.064 422.461V422.448Z" fill="white"/>
<path d="M388.819 333.044C408.202 313.66 408.202 282.233 388.819 262.849C369.435 243.465 338.008 243.465 318.624 262.849C299.24 282.233 299.24 313.66 318.624 333.044C338.008 352.427 369.435 352.427 388.819 333.044Z" fill="#18292D"/>
<path d="M346.681 289.033C357.074 274.168 353.449 253.693 338.584 243.3C323.719 232.906 303.244 236.532 292.85 251.397C282.457 266.262 286.082 286.737 300.947 297.13C315.812 307.524 336.288 303.898 346.681 289.033Z" fill="#18292D"/>
<path d="M309.283 272.585C319.196 268.163 323.648 256.543 319.226 246.63C314.804 236.717 303.184 232.266 293.271 236.687C283.358 241.109 278.906 252.73 283.328 262.643C287.75 272.556 299.371 277.007 309.283 272.585Z" fill="#18292D"/>
<path d="M423.91 289.992C430.587 272.751 422.452 253.527 405.74 247.055C389.027 240.583 370.066 249.313 363.389 266.554C356.712 283.795 364.847 303.019 381.56 309.491C398.272 315.963 417.233 307.233 423.91 289.992Z" fill="#18292D"/>
<path d="M402.177 316.029C401.59 316.029 401.077 315.613 400.979 315.026C400.857 314.366 401.297 313.731 401.969 313.608C412.016 311.812 420.816 304.075 424.947 293.405C431.046 277.675 425.008 260.612 411.502 255.381C410.879 255.136 410.561 254.427 410.806 253.804C411.05 253.181 411.759 252.863 412.382 253.107C427.147 258.828 433.808 277.296 427.22 294.285C422.784 305.737 413.262 314.073 402.384 316.016C402.311 316.029 402.238 316.041 402.164 316.041L402.177 316.029Z" fill="#18292D"/>
<path d="M337.603 295.592C360.367 286.148 371.166 260.039 361.723 237.275C352.28 214.511 326.17 203.712 303.406 213.155C280.642 222.598 269.843 248.707 279.286 271.472C288.729 294.236 314.839 305.035 337.603 295.592Z" fill="#18292D"/>
<path d="M367.297 293.121C390.442 284.652 402.338 259.024 393.868 235.88C385.399 212.736 359.771 200.839 336.626 209.309C313.482 217.779 301.586 243.407 310.056 266.551C318.525 289.695 344.153 301.591 367.297 293.121Z" fill="#18292D"/>
<path d="M356.318 296.657C350.818 296.657 345.244 295.667 339.818 293.564C328.402 289.14 319.382 280.535 314.444 269.34C309.494 258.144 309.213 245.677 313.625 234.261C318.05 222.846 326.654 213.825 337.85 208.888C349.046 203.937 361.512 203.656 372.928 208.069C396.505 217.199 408.251 243.807 399.121 267.372C392.093 285.522 374.7 296.657 356.318 296.657ZM356.355 207.396C350.402 207.396 344.45 208.643 338.84 211.124C328.231 215.805 320.091 224.337 315.911 235.154C311.718 245.958 311.999 257.753 316.681 268.362C321.362 278.971 329.893 287.111 340.71 291.303C363.028 299.945 388.206 288.822 396.848 266.504C405.489 244.186 394.366 219.008 372.048 210.366C366.964 208.399 361.659 207.409 356.367 207.409L356.355 207.396Z" fill="#18292D"/>
<path d="M336.017 315.417C335.87 315.417 335.724 315.393 335.577 315.332C333.157 314.391 331.043 312.826 329.441 310.797C328.684 309.844 328.06 308.793 327.571 307.681C327.303 307.057 327.571 306.336 328.195 306.067C328.806 305.798 329.539 306.067 329.808 306.691C330.211 307.607 330.737 308.487 331.36 309.282C332.68 310.968 334.453 312.264 336.457 313.046C337.08 313.291 337.398 314 337.154 314.623C336.97 315.112 336.506 315.405 336.017 315.405V315.417Z" fill="#18292D"/>
<path d="M335.261 313.132C342.814 316.053 351.187 312.521 353.656 305.249C355.941 298.526 352.079 290.826 345.051 288.064C341.103 286.512 336.948 286.756 333.501 288.357C338.427 272.933 334.748 257.215 323.271 249.881C308.848 240.665 287.581 248.182 275.774 266.662C263.968 285.143 266.082 307.595 280.505 316.811C281.262 317.3 282.045 317.703 282.839 318.094L284.379 343.432L274.161 342.124C273.843 343.566 273.672 345.045 273.672 346.548C273.672 362.144 291.505 374.794 313.505 374.794C332.792 374.794 348.877 365.077 352.543 352.158L334.845 349.897L330.946 310.578C332.193 311.629 333.623 312.509 335.237 313.132H335.261Z" fill="white"/>
<path d="M313.516 376.017C290.88 376.017 272.461 362.792 272.461 346.548C272.461 344.984 272.632 343.407 272.974 341.855C273.109 341.244 273.696 340.816 274.319 340.914L283.07 342.038L281.652 318.877C281.078 318.583 280.455 318.241 279.843 317.85C272.547 313.181 268.012 305.188 267.083 295.336C266.167 285.595 268.88 275.182 274.747 266.015C280.613 256.848 288.913 250.003 298.14 246.74C307.478 243.44 316.633 244.198 323.93 248.854C335.028 255.943 339.464 270.818 335.346 286.389C338.646 285.473 342.227 285.656 345.49 286.94C353.117 289.934 357.297 298.331 354.804 305.652C353.557 309.319 350.892 312.264 347.299 313.939C343.449 315.736 338.89 315.858 334.808 314.281C333.989 313.963 333.194 313.572 332.437 313.132L335.969 348.809L352.701 350.948C353.056 350.997 353.374 351.193 353.569 351.486C353.765 351.779 353.826 352.146 353.728 352.488C349.854 366.116 332.938 376.004 313.504 376.004L313.516 376.017ZM275.162 343.48C274.991 344.495 274.906 345.522 274.906 346.548C274.906 361.447 292.225 373.572 313.516 373.572C331.202 373.572 346.639 365.077 350.941 353.185L334.698 351.107C334.135 351.034 333.695 350.582 333.634 350.019L329.735 310.7C329.687 310.199 329.943 309.734 330.383 309.502C330.823 309.27 331.361 309.331 331.74 309.649C332.938 310.663 334.27 311.458 335.688 312.008C339.159 313.352 343.009 313.254 346.26 311.727C349.242 310.333 351.455 307.901 352.481 304.858C354.559 298.759 351.015 291.731 344.586 289.213C341.139 287.856 337.277 287.954 334.001 289.47C333.561 289.677 333.048 289.592 332.681 289.274C332.314 288.956 332.18 288.443 332.327 287.991C337.216 272.651 333.317 257.752 322.61 250.92C315.961 246.667 307.552 246.007 298.947 249.05C290.233 252.13 282.374 258.62 276.8 267.335C271.239 276.049 268.648 285.913 269.516 295.116C270.371 304.21 274.502 311.555 281.163 315.797C281.921 316.286 282.704 316.689 283.376 317.019C283.767 317.214 284.024 317.606 284.048 318.046L285.588 343.383C285.612 343.749 285.466 344.104 285.209 344.348C284.94 344.593 284.574 344.715 284.219 344.666L275.138 343.505L275.162 343.48Z" fill="#18292D"/>
<path d="M333.915 290.424C333.597 290.399 333.292 290.375 332.974 290.338C315.557 288.236 303.542 268.521 306.158 246.325C306.182 246.069 306.231 245.824 306.256 245.58C312.526 244.895 318.661 246.081 323.917 249.43C336.127 257.215 339.77 274.168 333.903 290.424H333.915Z" fill="#18292D"/>
<path d="M294.546 321.455C290.574 321.455 286.589 320.844 282.715 319.598C282.067 319.39 281.725 318.705 281.92 318.058C282.128 317.41 282.825 317.055 283.46 317.263C293.58 320.527 304.568 319.17 313.601 313.56C314.175 313.205 314.933 313.376 315.288 313.951C315.642 314.525 315.471 315.283 314.896 315.638C308.712 319.488 301.66 321.455 294.546 321.455Z" fill="#18292D"/>
<path d="M285.513 264.01C285.684 265.097 283.374 266.369 280.343 266.833C277.324 267.297 274.733 266.796 274.562 265.709C274.391 264.621 276.701 263.35 279.732 262.885C282.763 262.421 285.342 262.922 285.513 264.01Z" fill="#18292D"/>
<path d="M309.14 277.882C308.395 279.031 305.205 278.274 302.027 276.196C298.849 274.118 296.881 271.502 297.639 270.353C298.384 269.204 301.575 269.962 304.752 272.04C307.93 274.118 309.898 276.733 309.14 277.882Z" fill="#18292D"/>
<path d="M283.888 284.312C283.436 284.312 283.008 284.067 282.8 283.64C281.896 281.843 282.006 279.667 283.106 277.981L287.97 270.439C288.337 269.877 289.095 269.706 289.657 270.073C290.219 270.439 290.39 271.197 290.024 271.759L285.159 279.301C284.524 280.278 284.463 281.488 284.988 282.527C285.294 283.126 285.049 283.86 284.45 284.165C284.279 284.251 284.084 284.3 283.9 284.3L283.888 284.312Z" fill="#18292D"/>
<path d="M288.96 303.854C288.704 303.854 288.435 303.842 288.166 303.806C285.208 303.39 282.825 300.726 281.065 295.873C280.869 295.335 280.979 294.785 281.358 294.382C281.871 293.844 282.825 292.83 296.379 296.875C296.758 296.985 297.064 297.279 297.186 297.658C297.308 298.037 297.247 298.44 297.015 298.77C296.856 298.99 293.287 303.867 288.936 303.867L288.96 303.854ZM283.876 296.325C284.89 298.684 286.418 301.092 288.508 301.386C290.451 301.654 292.541 300.066 293.886 298.697C289.987 297.584 285.88 296.582 283.876 296.325Z" fill="#18292D"/>
<path d="M334.514 303.77C334.404 303.77 334.294 303.758 334.171 303.721C333.523 303.538 333.145 302.853 333.328 302.205C334.416 298.404 336.347 295.752 339.06 294.31C342.971 292.244 347.017 293.527 347.188 293.588C347.824 293.796 348.178 294.493 347.97 295.128C347.763 295.764 347.078 296.118 346.43 295.911C346.43 295.911 343.155 294.896 340.185 296.485C338.095 297.61 336.579 299.761 335.687 302.877C335.54 303.415 335.039 303.77 334.514 303.77Z" fill="#18292D"/>
<path d="M282.385 275.145C281.444 277.235 279.427 278.371 277.875 277.662C276.323 276.966 275.834 274.705 276.787 272.615C277.728 270.525 279.757 269.388 281.297 270.097C282.85 270.793 283.339 273.055 282.385 275.145Z" fill="#18292D"/>
<path d="M300.035 283.175C299.094 285.265 297.065 286.402 295.525 285.693C293.973 284.997 293.484 282.735 294.437 280.645C295.378 278.555 297.395 277.419 298.947 278.128C300.5 278.824 300.988 281.085 300.035 283.175Z" fill="#18292D"/>
<circle cx="104.999" cy="96" r="49.5" fill="white" stroke="#18292D"/>
<path d="M103.416 74.8091V70.1482C103.416 69.0305 104.323 68.124 105.44 68.124C106.002 68.124 106.504 68.351 106.873 68.717C107.238 69.0856 107.466 69.588 107.466 70.1495V74.8091" stroke="#18292D" stroke-width="1.08107" stroke-linecap="round" stroke-linejoin="round"/>
<path d="M107.466 80.876V84.3209V101.131" stroke="#18292D" stroke-width="1.08107" stroke-linecap="round" stroke-linejoin="round"/>
<path d="M103.416 80.876V84.3209V101.131" stroke="#18292D" stroke-width="1.08107" stroke-linecap="round" stroke-linejoin="round"/>
<path d="M96.533 108.825V106.799C96.533 103.668 99.0714 101.129 102.203 101.129H108.682C111.813 101.129 114.352 103.668 114.352 106.799V108.825" stroke="#18292D" stroke-width="1.08107" stroke-linecap="round" stroke-linejoin="round"/>
<path d="M101.797 77.8433C98.422 79.7441 95.048 80.6781 91.6726 80.6781C88.2973 80.6781 84.9232 79.7441 81.5479 77.8433" stroke="#18292D" stroke-width="1.08107" stroke-linecap="round" stroke-linejoin="round"/>
<path d="M129.335 77.8433C125.96 79.7441 122.586 80.6781 119.21 80.6781C115.835 80.6781 112.461 79.7441 109.086 77.8433" stroke="#18292D" stroke-width="1.08107" stroke-linecap="round" stroke-linejoin="round"/>
<path d="M105.442 81.4873C107.455 81.4873 109.086 79.8557 109.086 77.843C109.086 75.8303 107.455 74.1987 105.442 74.1987C103.429 74.1987 101.798 75.8303 101.798 77.843C101.798 79.8557 103.429 81.4873 105.442 81.4873Z" fill="#FFC31F" stroke="#FFC31F" stroke-width="1.08107" stroke-linecap="round" stroke-linejoin="round"/>
<path d="M98.5574 94.0415C98.5574 97.8432 95.4746 100.926 91.6729 100.926C87.8711 100.926 84.7883 97.8432 84.7883 94.0415H98.5574Z" stroke="#18292D" stroke-width="1.08107" stroke-linecap="round" stroke-linejoin="round"/>
<path d="M83.5737 91.2065H99.7723" stroke="#18292D" stroke-width="1.08107" stroke-linecap="round" stroke-linejoin="round"/>
<path d="M84.7883 91.207L91.6729 80.6782L98.5574 91.207" fill="#18292D"/>
<path d="M84.7883 91.207L91.6729 80.6782L98.5574 91.207" stroke="#18292D" stroke-width="1.08107" stroke-linecap="round" stroke-linejoin="round"/>
<path d="M126.095 94.0415C126.095 97.8432 123.012 100.926 119.211 100.926C115.409 100.926 112.326 97.8432 112.326 94.0415H126.095Z" stroke="#18292D" stroke-width="1.08107" stroke-linecap="round" stroke-linejoin="round"/>
<path d="M111.112 91.2065H127.31" stroke="#18292D" stroke-width="1.08107" stroke-linecap="round" stroke-linejoin="round"/>
<path d="M112.326 91.207L119.211 80.6782L126.095 91.207" fill="#18292D"/>
<path d="M112.326 91.207L119.211 80.6782L126.095 91.207" stroke="#18292D" stroke-width="1.08107" stroke-linecap="round" stroke-linejoin="round"/>
<path d="M90.2662 116.291C90.2662 119.005 88.9229 121.215 87.9823 121.35C87.9744 121.354 87.9666 121.354 87.9574 121.354L86.2008 121.403C85.5987 121.424 85.1199 121.914 85.1199 122.517C85.1199 123.119 85.6197 123.63 86.2336 123.63H117.9C122.097 123.63 125.506 120.269 125.506 116.138C125.506 112.007 122.095 108.646 117.9 108.646H86.2336C85.6197 108.646 85.1199 109.142 85.1199 109.756V110.145C85.1199 110.766 85.6315 111.27 86.2533 111.258L87.8905 111.226H87.8944C88.8363 111.233 90.2649 113.498 90.2649 116.289L90.2662 116.291Z" fill="#18292D" stroke="#18292D" stroke-width="1.08107" stroke-linecap="round" stroke-linejoin="round"/>
<path d="M94.5002 116.388H118.625" stroke="white" stroke-width="1.08107" stroke-linecap="round" stroke-linejoin="round"/>
<circle cx="348.999" cy="70" r="49.5" fill="white" stroke="#18292D"/>
<g clip-path="url(#clip0_937_11018)">
<path d="M363.016 57.8076H349.481V77.3291H363.016V57.8076Z" stroke="#18292D" stroke-width="1.09254" stroke-linecap="round" stroke-linejoin="round"/>
<path d="M349.004 57.8071H363.495C364.668 57.8071 365.62 56.8555 365.62 55.6821V54.5099C365.62 53.3366 364.668 52.3838 363.495 52.3838H349.004C347.831 52.3838 346.879 53.3354 346.879 54.5099V55.6821C346.879 56.8555 347.831 57.8071 349.004 57.8071Z" stroke="#18292D" stroke-width="1.09254" stroke-linecap="round" stroke-linejoin="round"/>
<path d="M363.495 77.3286H349.004C347.83 77.3286 346.879 78.28 346.879 79.4536V81.1679C346.879 82.3415 347.83 83.2929 349.004 83.2929H363.495C364.669 83.2929 365.62 82.3415 365.62 81.1679V79.4536C365.62 78.28 364.669 77.3286 363.495 77.3286Z" stroke="#18292D" stroke-width="1.09254" stroke-linecap="round" stroke-linejoin="round"/>
<path d="M320.744 70.6977L349.479 70.6982V63.6826H339.94L320.744 63.6821" stroke="#18292D" stroke-width="1.09254" stroke-linecap="round" stroke-linejoin="round"/>
<path d="M340.288 92.2065V89.8351C340.288 88.0879 341.3 86.6729 342.548 86.6729H369.665C370.913 86.6729 371.925 88.0879 371.925 89.8351V92.2065H340.288Z" fill="#18292D" stroke="#18292D" stroke-width="1.09254" stroke-linecap="round" stroke-linejoin="round"/>
<path d="M342.13 80.9679L340.522 77.7998" stroke="#FFC31F" stroke-width="1.09254" stroke-linecap="round" stroke-linejoin="round"/>
<path d="M339.695 83.505L336.654 82.2378" stroke="#FFC31F" stroke-width="1.09254" stroke-linecap="round" stroke-linejoin="round"/>
</g>
<defs>
<clipPath id="clip0_937_11018">
<rect width="53.9823" height="40.8745" fill="white" transform="translate(318.468 51.8584)"/>
</clipPath>
</defs>
</svg>
