<svg width="460" height="460" viewBox="0 0 460 460" fill="none" xmlns="http://www.w3.org/2000/svg">
<rect width="460" height="460" fill="white"/>
<mask id="path-1-outside-1_524_1790" maskUnits="userSpaceOnUse" x="80.71" y="99.43" width="306" height="287" fill="black">
<rect fill="white" x="80.71" y="99.43" width="306" height="287"/>
<path d="M106.1 385.73C106.06 385.68 105.05 384.34 103.4 381.44L104.27 380.95C105.87 383.78 106.88 385.11 106.89 385.13L106.09 385.74L106.1 385.73ZM99.75 374.28C99.07 372.82 98.39 371.27 97.73 369.69L98.65 369.3C99.31 370.87 99.98 372.41 100.66 373.86L99.75 374.28ZM94.82 362.21C94.28 360.71 93.73 359.13 93.18 357.48L94.13 357.16C94.68 358.81 95.23 360.38 95.76 361.87L94.82 362.21ZM90.79 349.82C90.34 348.27 89.89 346.66 89.44 345L90.41 344.74C90.86 346.4 91.31 348 91.76 349.54L90.8 349.82H90.79ZM87.47 337.23C87.09 335.65 86.72 334.02 86.36 332.35L87.34 332.14C87.71 333.81 88.08 335.43 88.45 337.01L87.48 337.24L87.47 337.23ZM84.74 324.5C84.43 322.89 84.13 321.25 83.83 319.58L84.81 319.41C85.11 321.08 85.41 322.72 85.72 324.32L84.74 324.51V324.5ZM82.63 311.64C82.43 309.99 82.26 308.31 82.13 306.64L83.13 306.56C83.26 308.22 83.43 309.88 83.63 311.52L82.64 311.64H82.63ZM81.73 298.63C81.71 297.77 81.71 296.9 81.71 296.04C81.71 295.23 81.71 294.42 81.73 293.62L82.73 293.64C82.72 294.44 82.71 295.24 82.71 296.05C82.71 296.91 82.71 297.77 82.73 298.62L81.73 298.64V298.63ZM83.1 285.67L82.1 285.59C82.22 283.93 82.38 282.25 82.57 280.59L83.56 280.7C83.38 282.35 83.22 284.02 83.1 285.66V285.67ZM84.66 272.81L83.67 272.65C83.94 271.01 84.25 269.35 84.58 267.72L85.56 267.92C85.23 269.54 84.93 271.19 84.66 272.82V272.81ZM87.35 260.14L86.38 259.89C86.8 258.27 87.25 256.65 87.72 255.05L88.68 255.33C88.21 256.91 87.77 258.53 87.35 260.13V260.14ZM91.13 247.75L90.19 247.42C90.75 245.85 91.33 244.27 91.94 242.71L92.87 243.08C92.27 244.62 91.68 246.19 91.13 247.75ZM95.98 235.73L95.07 235.32C95.76 233.8 96.49 232.27 97.23 230.79L98.13 231.24C97.39 232.72 96.67 234.23 95.98 235.74V235.73ZM101.88 224.19L101.01 223.69C101.84 222.24 102.7 220.78 103.58 219.37L104.43 219.9C103.56 221.3 102.7 222.74 101.88 224.19ZM108.83 213.26L108.01 212.68C108.98 211.31 109.98 209.95 110.99 208.64L111.78 209.25C110.78 210.55 109.79 211.9 108.83 213.26ZM116.84 203.09L116.09 202.43C117.2 201.17 118.34 199.92 119.48 198.73L120.2 199.42C119.07 200.6 117.93 201.84 116.84 203.09ZM125.99 193.98L125.34 193.22C126.59 192.16 127.92 191.11 129.28 190.09L129.88 190.89C128.54 191.89 127.23 192.93 125.99 193.98ZM136.45 186.4L135.92 185.55C137.31 184.68 138.77 183.82 140.24 182.99L140.73 183.86C139.27 184.68 137.83 185.54 136.45 186.4ZM147.8 180.18L147.37 179.28C148.85 178.57 150.39 177.86 151.93 177.19L152.33 178.11C150.79 178.78 149.27 179.48 147.8 180.19V180.18ZM159.72 175.11L159.37 174.17C160.91 173.59 162.5 173.02 164.09 172.48L164.41 173.43C162.83 173.97 161.25 174.53 159.72 175.11ZM172.02 171.03L171.74 170.07C173.33 169.61 174.94 169.16 176.57 168.73L176.82 169.7C175.2 170.13 173.6 170.57 172.01 171.03H172.02ZM184.58 167.81L184.36 166.83C185.98 166.47 187.62 166.13 189.27 165.8L189.46 166.78C187.82 167.11 186.19 167.45 184.58 167.81ZM300.88 166.74V165.74C302.54 165.72 304.22 165.67 305.85 165.6L305.89 166.6C304.25 166.67 302.56 166.72 300.88 166.74ZM292.86 166.68C291.19 166.63 289.52 166.56 287.85 166.48L287.9 165.48C289.56 165.57 291.23 165.64 292.88 165.68L292.85 166.68H292.86ZM313.9 166.07L313.81 165.07C315.48 164.92 317.14 164.74 318.77 164.53L318.89 165.52C317.26 165.73 315.58 165.91 313.9 166.06V166.07ZM279.85 165.9C278.19 165.75 276.52 165.58 274.86 165.39L274.97 164.4C276.62 164.59 278.28 164.75 279.93 164.9L279.84 165.9H279.85ZM197.32 165.37L197.16 164.38C198.8 164.12 200.46 163.87 202.12 163.64L202.26 164.63C200.61 164.86 198.96 165.11 197.32 165.37ZM266.92 164.37C265.28 164.15 263.63 163.95 261.97 163.76L262.08 162.77C263.75 162.96 265.4 163.16 267.05 163.38L266.92 164.37ZM326.82 164.3L326.64 163.32C328.29 163.01 329.93 162.67 331.52 162.31L331.74 163.28C330.14 163.65 328.49 163.99 326.82 164.3ZM210.17 163.67L210.07 162.68C211.73 162.51 213.39 162.35 215.05 162.21L215.13 163.21C213.47 163.35 211.82 163.51 210.17 163.68V163.67ZM254.01 163.02C252.35 162.89 250.69 162.79 249.03 162.69L249.08 161.69C250.75 161.78 252.42 161.89 254.08 162.02L254 163.02H254.01ZM223.09 162.66L223.04 161.66C224.71 161.57 226.37 161.51 228.05 161.45L228.08 162.45C226.42 162.5 224.75 162.57 223.1 162.66H223.09ZM241.05 162.39C239.39 162.35 237.72 162.34 236.06 162.33V161.33C237.73 161.33 239.4 161.35 241.07 161.39L241.05 162.39ZM339.49 161.19L339.19 160.23C340.8 159.73 342.38 159.19 343.9 158.63L344.25 159.57C342.71 160.14 341.11 160.68 339.49 161.18V161.19ZM351.66 156.44L351.22 155.54C352.73 154.81 354.21 154.04 355.62 153.24L356.11 154.11C354.68 154.92 353.18 155.71 351.65 156.44H351.66ZM362.87 149.72L362.27 148.92C363.61 147.93 364.91 146.88 366.13 145.8L366.79 146.55C365.55 147.64 364.23 148.71 362.87 149.72ZM372.45 140.81L371.69 140.16C372.76 138.9 373.78 137.59 374.71 136.25L375.53 136.82C374.58 138.18 373.54 139.52 372.45 140.81ZM379.64 129.89L378.74 129.45C379.47 127.99 380.14 126.46 380.73 124.93L381.66 125.29C381.05 126.86 380.37 128.41 379.63 129.9L379.64 129.89ZM384.06 117.6L383.09 117.37C383.47 115.79 383.8 114.16 384.06 112.51L385.05 112.67C384.78 114.34 384.45 116 384.06 117.6ZM385.89 104.67L384.89 104.62C384.96 103.24 385 101.83 385 100.43H386C386 101.85 385.96 103.28 385.89 104.68V104.67Z"/>
</mask>
<path d="M106.1 385.73C106.06 385.68 105.05 384.34 103.4 381.44L104.27 380.95C105.87 383.78 106.88 385.11 106.89 385.13L106.09 385.74L106.1 385.73ZM99.75 374.28C99.07 372.82 98.39 371.27 97.73 369.69L98.65 369.3C99.31 370.87 99.98 372.41 100.66 373.86L99.75 374.28ZM94.82 362.21C94.28 360.71 93.73 359.13 93.18 357.48L94.13 357.16C94.68 358.81 95.23 360.38 95.76 361.87L94.82 362.21ZM90.79 349.82C90.34 348.27 89.89 346.66 89.44 345L90.41 344.74C90.86 346.4 91.31 348 91.76 349.54L90.8 349.82H90.79ZM87.47 337.23C87.09 335.65 86.72 334.02 86.36 332.35L87.34 332.14C87.71 333.81 88.08 335.43 88.45 337.01L87.48 337.24L87.47 337.23ZM84.74 324.5C84.43 322.89 84.13 321.25 83.83 319.58L84.81 319.41C85.11 321.08 85.41 322.72 85.72 324.32L84.74 324.51V324.5ZM82.63 311.64C82.43 309.99 82.26 308.31 82.13 306.64L83.13 306.56C83.26 308.22 83.43 309.88 83.63 311.52L82.64 311.64H82.63ZM81.73 298.63C81.71 297.77 81.71 296.9 81.71 296.04C81.71 295.23 81.71 294.42 81.73 293.62L82.73 293.64C82.72 294.44 82.71 295.24 82.71 296.05C82.71 296.91 82.71 297.77 82.73 298.62L81.73 298.64V298.63ZM83.1 285.67L82.1 285.59C82.22 283.93 82.38 282.25 82.57 280.59L83.56 280.7C83.38 282.35 83.22 284.02 83.1 285.66V285.67ZM84.66 272.81L83.67 272.65C83.94 271.01 84.25 269.35 84.58 267.72L85.56 267.92C85.23 269.54 84.93 271.19 84.66 272.82V272.81ZM87.35 260.14L86.38 259.89C86.8 258.27 87.25 256.65 87.72 255.05L88.68 255.33C88.21 256.91 87.77 258.53 87.35 260.13V260.14ZM91.13 247.75L90.19 247.42C90.75 245.85 91.33 244.27 91.94 242.71L92.87 243.08C92.27 244.62 91.68 246.19 91.13 247.75ZM95.98 235.73L95.07 235.32C95.76 233.8 96.49 232.27 97.23 230.79L98.13 231.24C97.39 232.72 96.67 234.23 95.98 235.74V235.73ZM101.88 224.19L101.01 223.69C101.84 222.24 102.7 220.78 103.58 219.37L104.43 219.9C103.56 221.3 102.7 222.74 101.88 224.19ZM108.83 213.26L108.01 212.68C108.98 211.31 109.98 209.95 110.99 208.64L111.78 209.25C110.78 210.55 109.79 211.9 108.83 213.26ZM116.84 203.09L116.09 202.43C117.2 201.17 118.34 199.92 119.48 198.73L120.2 199.42C119.07 200.6 117.93 201.84 116.84 203.09ZM125.99 193.98L125.34 193.22C126.59 192.16 127.92 191.11 129.28 190.09L129.88 190.89C128.54 191.89 127.23 192.93 125.99 193.98ZM136.45 186.4L135.92 185.55C137.31 184.68 138.77 183.82 140.24 182.99L140.73 183.86C139.27 184.68 137.83 185.54 136.45 186.4ZM147.8 180.18L147.37 179.28C148.85 178.57 150.39 177.86 151.93 177.19L152.33 178.11C150.79 178.78 149.27 179.48 147.8 180.19V180.18ZM159.72 175.11L159.37 174.17C160.91 173.59 162.5 173.02 164.09 172.48L164.41 173.43C162.83 173.97 161.25 174.53 159.72 175.11ZM172.02 171.03L171.74 170.07C173.33 169.61 174.94 169.16 176.57 168.73L176.82 169.7C175.2 170.13 173.6 170.57 172.01 171.03H172.02ZM184.58 167.81L184.36 166.83C185.98 166.47 187.62 166.13 189.27 165.8L189.46 166.78C187.82 167.11 186.19 167.45 184.58 167.81ZM300.88 166.74V165.74C302.54 165.72 304.22 165.67 305.85 165.6L305.89 166.6C304.25 166.67 302.56 166.72 300.88 166.74ZM292.86 166.68C291.19 166.63 289.52 166.56 287.85 166.48L287.9 165.48C289.56 165.57 291.23 165.64 292.88 165.68L292.85 166.68H292.86ZM313.9 166.07L313.81 165.07C315.48 164.92 317.14 164.74 318.77 164.53L318.89 165.52C317.26 165.73 315.58 165.91 313.9 166.06V166.07ZM279.85 165.9C278.19 165.75 276.52 165.58 274.86 165.39L274.97 164.4C276.62 164.59 278.28 164.75 279.93 164.9L279.84 165.9H279.85ZM197.32 165.37L197.16 164.38C198.8 164.12 200.46 163.87 202.12 163.64L202.26 164.63C200.61 164.86 198.96 165.11 197.32 165.37ZM266.92 164.37C265.28 164.15 263.63 163.95 261.97 163.76L262.08 162.77C263.75 162.96 265.4 163.16 267.05 163.38L266.92 164.37ZM326.82 164.3L326.64 163.32C328.29 163.01 329.93 162.67 331.52 162.31L331.74 163.28C330.14 163.65 328.49 163.99 326.82 164.3ZM210.17 163.67L210.07 162.68C211.73 162.51 213.39 162.35 215.05 162.21L215.13 163.21C213.47 163.35 211.82 163.51 210.17 163.68V163.67ZM254.01 163.02C252.35 162.89 250.69 162.79 249.03 162.69L249.08 161.69C250.75 161.78 252.42 161.89 254.08 162.02L254 163.02H254.01ZM223.09 162.66L223.04 161.66C224.71 161.57 226.37 161.51 228.05 161.45L228.08 162.45C226.42 162.5 224.75 162.57 223.1 162.66H223.09ZM241.05 162.39C239.39 162.35 237.72 162.34 236.06 162.33V161.33C237.73 161.33 239.4 161.35 241.07 161.39L241.05 162.39ZM339.49 161.19L339.19 160.23C340.8 159.73 342.38 159.19 343.9 158.63L344.25 159.57C342.71 160.14 341.11 160.68 339.49 161.18V161.19ZM351.66 156.44L351.22 155.54C352.73 154.81 354.21 154.04 355.62 153.24L356.11 154.11C354.68 154.92 353.18 155.71 351.65 156.44H351.66ZM362.87 149.72L362.27 148.92C363.61 147.93 364.91 146.88 366.13 145.8L366.79 146.55C365.55 147.64 364.23 148.71 362.87 149.72ZM372.45 140.81L371.69 140.16C372.76 138.9 373.78 137.59 374.71 136.25L375.53 136.82C374.58 138.18 373.54 139.52 372.45 140.81ZM379.64 129.89L378.74 129.45C379.47 127.99 380.14 126.46 380.73 124.93L381.66 125.29C381.05 126.86 380.37 128.41 379.63 129.9L379.64 129.89ZM384.06 117.6L383.09 117.37C383.47 115.79 383.8 114.16 384.06 112.51L385.05 112.67C384.78 114.34 384.45 116 384.06 117.6ZM385.89 104.67L384.89 104.62C384.96 103.24 385 101.83 385 100.43H386C386 101.85 385.96 103.28 385.89 104.68V104.67Z" fill="black"/>
<path d="M106.1 385.73C106.06 385.68 105.05 384.34 103.4 381.44L104.27 380.95C105.87 383.78 106.88 385.11 106.89 385.13L106.09 385.74L106.1 385.73ZM99.75 374.28C99.07 372.82 98.39 371.27 97.73 369.69L98.65 369.3C99.31 370.87 99.98 372.41 100.66 373.86L99.75 374.28ZM94.82 362.21C94.28 360.71 93.73 359.13 93.18 357.48L94.13 357.16C94.68 358.81 95.23 360.38 95.76 361.87L94.82 362.21ZM90.79 349.82C90.34 348.27 89.89 346.66 89.44 345L90.41 344.74C90.86 346.4 91.31 348 91.76 349.54L90.8 349.82H90.79ZM87.47 337.23C87.09 335.65 86.72 334.02 86.36 332.35L87.34 332.14C87.71 333.81 88.08 335.43 88.45 337.01L87.48 337.24L87.47 337.23ZM84.74 324.5C84.43 322.89 84.13 321.25 83.83 319.58L84.81 319.41C85.11 321.08 85.41 322.72 85.72 324.32L84.74 324.51V324.5ZM82.63 311.64C82.43 309.99 82.26 308.31 82.13 306.64L83.13 306.56C83.26 308.22 83.43 309.88 83.63 311.52L82.64 311.64H82.63ZM81.73 298.63C81.71 297.77 81.71 296.9 81.71 296.04C81.71 295.23 81.71 294.42 81.73 293.62L82.73 293.64C82.72 294.44 82.71 295.24 82.71 296.05C82.71 296.91 82.71 297.77 82.73 298.62L81.73 298.64V298.63ZM83.1 285.67L82.1 285.59C82.22 283.93 82.38 282.25 82.57 280.59L83.56 280.7C83.38 282.35 83.22 284.02 83.1 285.66V285.67ZM84.66 272.81L83.67 272.65C83.94 271.01 84.25 269.35 84.58 267.72L85.56 267.92C85.23 269.54 84.93 271.19 84.66 272.82V272.81ZM87.35 260.14L86.38 259.89C86.8 258.27 87.25 256.65 87.72 255.05L88.68 255.33C88.21 256.91 87.77 258.53 87.35 260.13V260.14ZM91.13 247.75L90.19 247.42C90.75 245.85 91.33 244.27 91.94 242.71L92.87 243.08C92.27 244.62 91.68 246.19 91.13 247.75ZM95.98 235.73L95.07 235.32C95.76 233.8 96.49 232.27 97.23 230.79L98.13 231.24C97.39 232.72 96.67 234.23 95.98 235.74V235.73ZM101.88 224.19L101.01 223.69C101.84 222.24 102.7 220.78 103.58 219.37L104.43 219.9C103.56 221.3 102.7 222.74 101.88 224.19ZM108.83 213.26L108.01 212.68C108.98 211.31 109.98 209.95 110.99 208.64L111.78 209.25C110.78 210.55 109.79 211.9 108.83 213.26ZM116.84 203.09L116.09 202.43C117.2 201.17 118.34 199.92 119.48 198.73L120.2 199.42C119.07 200.6 117.93 201.84 116.84 203.09ZM125.99 193.98L125.34 193.22C126.59 192.16 127.92 191.11 129.28 190.09L129.88 190.89C128.54 191.89 127.23 192.93 125.99 193.98ZM136.45 186.4L135.92 185.55C137.31 184.68 138.77 183.82 140.24 182.99L140.73 183.86C139.27 184.68 137.83 185.54 136.45 186.4ZM147.8 180.18L147.37 179.28C148.85 178.57 150.39 177.86 151.93 177.19L152.33 178.11C150.79 178.78 149.27 179.48 147.8 180.19V180.18ZM159.72 175.11L159.37 174.17C160.91 173.59 162.5 173.02 164.09 172.48L164.41 173.43C162.83 173.97 161.25 174.53 159.72 175.11ZM172.02 171.03L171.74 170.07C173.33 169.61 174.94 169.16 176.57 168.73L176.82 169.7C175.2 170.13 173.6 170.57 172.01 171.03H172.02ZM184.58 167.81L184.36 166.83C185.98 166.47 187.62 166.13 189.27 165.8L189.46 166.78C187.82 167.11 186.19 167.45 184.58 167.81ZM300.88 166.74V165.74C302.54 165.72 304.22 165.67 305.85 165.6L305.89 166.6C304.25 166.67 302.56 166.72 300.88 166.74ZM292.86 166.68C291.19 166.63 289.52 166.56 287.85 166.48L287.9 165.48C289.56 165.57 291.23 165.64 292.88 165.68L292.85 166.68H292.86ZM313.9 166.07L313.81 165.07C315.48 164.92 317.14 164.74 318.77 164.53L318.89 165.52C317.26 165.73 315.58 165.91 313.9 166.06V166.07ZM279.85 165.9C278.19 165.75 276.52 165.58 274.86 165.39L274.97 164.4C276.62 164.59 278.28 164.75 279.93 164.9L279.84 165.9H279.85ZM197.32 165.37L197.16 164.38C198.8 164.12 200.46 163.87 202.12 163.64L202.26 164.63C200.61 164.86 198.96 165.11 197.32 165.37ZM266.92 164.37C265.28 164.15 263.63 163.95 261.97 163.76L262.08 162.77C263.75 162.96 265.4 163.16 267.05 163.38L266.92 164.37ZM326.82 164.3L326.64 163.32C328.29 163.01 329.93 162.67 331.52 162.31L331.74 163.28C330.14 163.65 328.49 163.99 326.82 164.3ZM210.17 163.67L210.07 162.68C211.73 162.51 213.39 162.35 215.05 162.21L215.13 163.21C213.47 163.35 211.82 163.51 210.17 163.68V163.67ZM254.01 163.02C252.35 162.89 250.69 162.79 249.03 162.69L249.08 161.69C250.75 161.78 252.42 161.89 254.08 162.02L254 163.02H254.01ZM223.09 162.66L223.04 161.66C224.71 161.57 226.37 161.51 228.05 161.45L228.08 162.45C226.42 162.5 224.75 162.57 223.1 162.66H223.09ZM241.05 162.39C239.39 162.35 237.72 162.34 236.06 162.33V161.33C237.73 161.33 239.4 161.35 241.07 161.39L241.05 162.39ZM339.49 161.19L339.19 160.23C340.8 159.73 342.38 159.19 343.9 158.63L344.25 159.57C342.71 160.14 341.11 160.68 339.49 161.18V161.19ZM351.66 156.44L351.22 155.54C352.73 154.81 354.21 154.04 355.62 153.24L356.11 154.11C354.68 154.92 353.18 155.71 351.65 156.44H351.66ZM362.87 149.72L362.27 148.92C363.61 147.93 364.91 146.88 366.13 145.8L366.79 146.55C365.55 147.64 364.23 148.71 362.87 149.72ZM372.45 140.81L371.69 140.16C372.76 138.9 373.78 137.59 374.71 136.25L375.53 136.82C374.58 138.18 373.54 139.52 372.45 140.81ZM379.64 129.89L378.74 129.45C379.47 127.99 380.14 126.46 380.73 124.93L381.66 125.29C381.05 126.86 380.37 128.41 379.63 129.9L379.64 129.89ZM384.06 117.6L383.09 117.37C383.47 115.79 383.8 114.16 384.06 112.51L385.05 112.67C384.78 114.34 384.45 116 384.06 117.6ZM385.89 104.67L384.89 104.62C384.96 103.24 385 101.83 385 100.43H386C386 101.85 385.96 103.28 385.89 104.68V104.67Z" stroke="black" stroke-linejoin="round" mask="url(#path-1-outside-1_524_1790)"/>
<path d="M361.59 69.55C361.728 69.55 361.84 69.4381 361.84 69.3V68.3C361.84 68.162 361.728 68.05 361.59 68.05H356.59C356.452 68.05 356.34 68.162 356.34 68.3V69.3C356.34 69.4381 356.452 69.55 356.59 69.55H361.59ZM348.59 69.55C348.728 69.55 348.84 69.4381 348.84 69.3V68.3C348.84 68.162 348.728 68.05 348.59 68.05H343.59C343.452 68.05 343.34 68.162 343.34 68.3V69.3C343.34 69.4381 343.452 69.55 343.59 69.55H348.59ZM335.59 69.55C335.728 69.55 335.84 69.4381 335.84 69.3V68.3C335.84 68.162 335.728 68.05 335.59 68.05H330.59C330.452 68.05 330.34 68.162 330.34 68.3V69.3C330.34 69.4381 330.452 69.55 330.59 69.55H335.59ZM322.59 69.55C322.728 69.55 322.84 69.4381 322.84 69.3V68.3C322.84 68.162 322.728 68.05 322.59 68.05H317.59C317.452 68.05 317.34 68.162 317.34 68.3V69.3C317.34 69.4381 317.452 69.55 317.59 69.55H322.59ZM309.59 69.55C309.728 69.55 309.84 69.4381 309.84 69.3V68.3C309.84 68.162 309.728 68.05 309.59 68.05H304.59C304.452 68.05 304.34 68.162 304.34 68.3V69.3C304.34 69.4381 304.452 69.55 304.59 69.55H309.59ZM296.59 69.55C296.728 69.55 296.84 69.4381 296.84 69.3V68.3C296.84 68.162 296.728 68.05 296.59 68.05H291.59C291.452 68.05 291.34 68.162 291.34 68.3V69.3C291.34 69.4381 291.452 69.55 291.59 69.55H296.59ZM283.59 69.55C283.728 69.55 283.84 69.4381 283.84 69.3V68.3C283.84 68.162 283.728 68.05 283.59 68.05H278.59C278.452 68.05 278.34 68.162 278.34 68.3V69.3C278.34 69.4381 278.452 69.55 278.59 69.55H283.59ZM270.59 69.55C270.728 69.55 270.84 69.4381 270.84 69.3V68.3C270.84 68.162 270.728 68.05 270.59 68.05H265.59C265.452 68.05 265.34 68.162 265.34 68.3V69.3C265.34 69.4381 265.452 69.55 265.59 69.55H270.59ZM257.59 69.55C257.728 69.55 257.84 69.4381 257.84 69.3V68.3C257.84 68.162 257.728 68.05 257.59 68.05H252.59C252.452 68.05 252.34 68.162 252.34 68.3V69.3C252.34 69.4381 252.452 69.55 252.59 69.55H257.59ZM244.59 69.55C244.728 69.55 244.84 69.4381 244.84 69.3V68.3C244.84 68.162 244.728 68.05 244.59 68.05H239.59C239.452 68.05 239.34 68.162 239.34 68.3V69.3C239.34 69.4381 239.452 69.55 239.59 69.55H244.59ZM231.59 69.55C231.728 69.55 231.84 69.4381 231.84 69.3V68.3C231.84 68.162 231.728 68.05 231.59 68.05H226.59C226.452 68.05 226.34 68.162 226.34 68.3V69.3C226.34 69.4381 226.452 69.55 226.59 69.55H231.59ZM218.59 69.55C218.728 69.55 218.84 69.4381 218.84 69.3V68.3C218.84 68.162 218.728 68.05 218.59 68.05H213.59C213.452 68.05 213.34 68.162 213.34 68.3V69.3C213.34 69.4381 213.452 69.55 213.59 69.55H218.59ZM205.59 69.55C205.728 69.55 205.84 69.4381 205.84 69.3V68.3C205.84 68.162 205.728 68.05 205.59 68.05H200.59C200.452 68.05 200.34 68.162 200.34 68.3V69.3C200.34 69.4381 200.452 69.55 200.59 69.55H205.59ZM192.59 69.55C192.728 69.55 192.84 69.4381 192.84 69.3V68.3C192.84 68.162 192.728 68.05 192.59 68.05H187.59C187.452 68.05 187.34 68.162 187.34 68.3V69.3C187.34 69.4381 187.452 69.55 187.59 69.55H192.59ZM179.59 69.55C179.728 69.55 179.84 69.4381 179.84 69.3V68.3C179.84 68.162 179.728 68.05 179.59 68.05H174.59C174.452 68.05 174.34 68.162 174.34 68.3V69.3C174.34 69.4381 174.452 69.55 174.59 69.55H179.59ZM166.59 69.55C166.728 69.55 166.84 69.4381 166.84 69.3V68.3C166.84 68.162 166.728 68.05 166.59 68.05H161.59C161.452 68.05 161.34 68.162 161.34 68.3V69.3C161.34 69.4381 161.452 69.55 161.59 69.55H166.59ZM153.59 69.55C153.728 69.55 153.84 69.4381 153.84 69.3V68.3C153.84 68.162 153.728 68.05 153.59 68.05H148.59C148.452 68.05 148.34 68.162 148.34 68.3V69.3C148.34 69.4381 148.452 69.55 148.59 69.55H153.59ZM140.59 69.55C140.728 69.55 140.84 69.4381 140.84 69.3V68.3C140.84 68.162 140.728 68.05 140.59 68.05H135.59C135.452 68.05 135.34 68.162 135.34 68.3V69.3C135.34 69.4381 135.452 69.55 135.59 69.55H140.59ZM127.59 69.55C127.728 69.55 127.84 69.4381 127.84 69.3V68.3C127.84 68.162 127.728 68.05 127.59 68.05H122.59C122.452 68.05 122.34 68.162 122.34 68.3V69.3C122.34 69.4381 122.452 69.55 122.59 69.55H127.59Z" fill="black" stroke="black" stroke-width="0.5" stroke-linejoin="round"/>
<path d="M314.57 388.14C314.57 388.14 344.75 388.61 354.2 375.93C363.66 363.25 350.27 348.12 350.94 339.78C351.61 331.45 361.24 321.76 360.12 315.8C359 309.84 346.8 304.23 346.73 295C346.66 285.77 351.37 270.39 343.54 258.36C335.71 246.32 324.61 236.81 312.73 235.15C300.85 233.49 276.41 230.94 268.71 247.3C245.6 296.42 230.81 275.56 225.77 288.72C212.24 324.05 246.07 380.34 314.56 388.14H314.57Z" fill="black"/>
<path d="M323.48 395.42C323.48 395.42 323.44 395.42 323.42 395.42C264.57 392.43 224.66 339.63 224.64 322.77C224.64 318.41 227.44 317.79 228.65 317.72C238.17 317.22 250.09 292.08 258.79 273.73C262.27 266.39 265.28 260.06 267.8 255.81C274.84 243.99 290.19 238.62 312.16 240.31C323.58 241.18 335.66 249.11 345.29 262.06C351.96 271.03 351.49 282.21 351.1 291.2C350.98 294.1 350.86 296.85 351.02 299.1C351.36 303.91 355.53 307.61 359.22 310.88C362.15 313.48 364.93 315.94 365.65 318.79C366.53 322.26 364.41 326.67 362.17 331.34C360.16 335.52 358.09 339.85 358.02 343.64C357.97 346.21 359.61 349.74 361.34 353.48C364.93 361.23 369.4 370.88 363.33 380.18C354.43 393.82 324.79 395.37 323.53 395.43C323.51 395.43 323.49 395.43 323.47 395.43L323.48 395.42ZM304.6 242.55C291.46 242.55 276.89 245.52 270 257.11C267.53 261.26 264.55 267.54 261.1 274.82C251.62 294.81 239.82 319.68 228.79 320.26C228.27 320.29 227.19 320.34 227.19 322.76C227.19 330.07 237.15 347.13 253.23 361.95C267.55 375.15 291.37 391.23 323.49 392.88C324.98 392.8 353.2 391.07 361.22 378.79C366.52 370.67 362.55 362.11 359.05 354.55C357.11 350.36 355.44 346.75 355.5 343.59C355.58 339.25 357.77 334.67 359.9 330.24C361.93 326 363.86 321.99 363.2 319.41C362.67 317.31 360.18 315.11 357.55 312.78C353.5 309.19 348.91 305.12 348.5 299.28C348.33 296.88 348.45 294.07 348.58 291.09C348.95 282.51 349.4 271.82 343.27 263.58C334.08 251.23 322.68 243.67 311.99 242.85C309.63 242.67 307.15 242.56 304.61 242.56L304.6 242.55Z" fill="#080717"/>
<path d="M223.56 306C223.06 306 222.59 305.7 222.38 305.21C218.74 296.36 218.33 289.47 221.17 284.75C223.67 280.58 228.67 278.09 236.02 277.35C250.2 275.93 258.22 265.77 258.3 265.67C258.73 265.11 259.53 265.01 260.08 265.44C260.64 265.87 260.74 266.67 260.31 267.22C259.96 267.67 251.58 278.35 236.27 279.88C229.76 280.53 225.42 282.61 223.35 286.06C220.95 290.06 221.42 296.18 224.74 304.25C225.01 304.9 224.7 305.64 224.05 305.91C223.89 305.97 223.73 306.01 223.57 306.01L223.56 306Z" fill="#080717"/>
<path d="M356.97 450.09H156.86L218.47 353.33C228.52 337.55 244.35 328.25 261.17 328.25H286.57C320.21 328.25 351.24 347.59 367.8 378.87L381.61 404.96C392.28 425.12 378.65 450.09 356.97 450.09Z" fill="#96D8E8"/>
<path d="M174.26 276.81L168.03 287.44C163.06 295.92 161.22 305.88 162.84 315.58L164.43 325.14L111.17 416.1H178.49L214.39 329.24L213.63 268.74C213.6 265.95 211.32 263.71 208.54 263.71C206.2 263.71 204.16 265.3 203.6 267.57L199.65 283.37L162.36 248.27C160.12 246.17 156.49 246.81 155.12 249.56C154.31 251.19 154.53 253.15 155.7 254.54L174.26 276.81Z" fill="white"/>
<path d="M178.49 416.1L214.39 329.24L213.63 268.74C213.6 265.95 211.32 263.71 208.54 263.71C206.2 263.71 204.16 265.3 203.6 267.57L199.65 283.37L162.36 248.27C160.12 246.17 156.49 246.81 155.12 249.56C154.31 251.19 154.53 253.15 155.7 254.54L174.26 276.81L168.03 287.44C163.06 295.92 161.22 305.88 162.84 315.58L164.43 325.14L111.17 416.1H178.49Z" fill="white"/>
<path d="M178.49 417.37C178.33 417.37 178.16 417.34 178 417.27C177.35 417 177.04 416.26 177.31 415.61L213.11 328.99L212.36 268.75C212.33 266.67 210.62 264.97 208.54 264.97C206.78 264.97 205.26 266.16 204.83 267.87L200.88 283.67C200.77 284.11 200.44 284.46 200 284.58C199.56 284.7 199.1 284.6 198.77 284.29L161.48 249.19C160.71 248.46 159.67 248.16 158.63 248.34C157.59 248.53 156.72 249.17 156.25 250.12C155.66 251.3 155.83 252.71 156.67 253.72L175.23 275.99C175.57 276.4 175.62 276.99 175.35 277.45L169.12 288.08C164.31 296.29 162.52 305.98 164.08 315.37L165.67 324.93C165.72 325.22 165.67 325.53 165.51 325.78L112.25 416.74C111.89 417.35 111.11 417.55 110.51 417.2C109.9 416.84 109.7 416.07 110.05 415.46L163.07 324.9L161.55 315.79C159.89 305.82 161.79 295.52 166.9 286.8L172.68 276.95L154.69 255.37C153.2 253.58 152.91 251.08 153.95 249C154.79 247.33 156.32 246.18 158.16 245.85C160 245.52 161.84 246.07 163.2 247.35L198.91 280.96L202.33 267.27C203.04 264.43 205.58 262.45 208.51 262.45C211.98 262.45 214.83 265.27 214.88 268.74L215.64 329.24C215.64 329.41 215.61 329.58 215.54 329.74L179.64 416.6C179.44 417.09 178.96 417.39 178.46 417.39L178.49 417.37Z" fill="#080717"/>
<path d="M191.47 295.62C190.84 295.62 190.29 295.15 190.21 294.51C190.12 293.81 190.62 293.18 191.31 293.09C194.09 292.74 194.92 289.75 195.16 288.26L173.7 277.96C173.07 277.66 172.8 276.9 173.1 276.26C173.4 275.63 174.16 275.36 174.8 275.66L197.08 286.35C197.54 286.57 197.82 287.05 197.8 287.56C197.68 290.09 196.23 295.03 191.63 295.61C191.58 295.61 191.52 295.61 191.47 295.61V295.62Z" fill="#080717"/>
<path d="M190.96 305.23C190.58 305.23 190.19 305.2 189.8 305.14C189.11 305.04 188.63 304.39 188.73 303.69C188.84 303 189.47 302.53 190.18 302.62C191.37 302.8 192.36 302.58 193.18 301.96C194.5 300.96 195.13 299.15 195.39 298.07L168.92 285.99C168.28 285.7 168 284.94 168.29 284.3C168.58 283.66 169.34 283.38 169.98 283.67L197.37 296.17C197.87 296.4 198.17 296.93 198.11 297.48C198.09 297.66 197.56 301.83 194.74 303.98C193.65 304.81 192.39 305.23 190.97 305.23H190.96Z" fill="#080717"/>
<path d="M176.59 315.27C176.49 315.27 176.39 315.26 176.3 315.24C175.62 315.08 175.19 314.39 175.35 313.71C176.32 309.59 173.31 307.4 173.18 307.3C172.65 306.92 172.49 306.2 172.81 305.63C173.13 305.06 173.83 304.83 174.42 305.09C178.16 306.73 184.29 308.64 186.18 307.78C187.83 307.03 188.13 305.4 188.16 304.46L167.19 296.13C166.54 295.87 166.22 295.13 166.48 294.48C166.74 293.83 167.48 293.51 168.13 293.77L189.86 302.4C190.28 302.57 190.58 302.94 190.65 303.39C190.91 305.06 190.52 308.61 187.24 310.1C184.97 311.13 180.76 310.1 177.52 309.01C178.07 310.4 178.33 312.17 177.83 314.29C177.69 314.88 177.17 315.27 176.59 315.27Z" fill="#080717"/>
<path d="M152.33 439.68H274.9C278.71 439.68 281.8 442.77 281.8 446.58V449.89H152.33V439.68Z" fill="black"/>
<path d="M202.57 449.89H84.84L58.97 371.7C56.47 364.15 62.1 356.36 70.05 356.36H163.18C168.21 356.36 172.68 359.59 174.26 364.37L202.55 449.89H202.57Z" fill="black"/>
<path d="M131.2 404.95C131.2 409.53 127.49 413.24 122.91 413.24C118.33 413.24 114.62 409.53 114.62 404.95C114.62 400.37 118.33 396.66 122.91 396.66C127.49 396.66 131.2 400.37 131.2 404.95Z" fill="white"/>
<path d="M122.91 414.52C117.64 414.52 113.35 410.23 113.35 404.96C113.35 399.69 117.64 395.4 122.91 395.4C128.18 395.4 132.47 399.69 132.47 404.96C132.47 410.23 128.18 414.52 122.91 414.52ZM122.91 397.94C119.04 397.94 115.89 401.09 115.89 404.96C115.89 408.83 119.04 411.98 122.91 411.98C126.78 411.98 129.93 408.83 129.93 404.96C129.93 401.09 126.78 397.94 122.91 397.94Z" fill="black"/>
<path d="M285.94 354.18L286.48 354.28C295.98 356.07 305.3 350.36 308.01 341.07L320.45 298.38L282.8 291.27L271.38 330.44C268.27 341.09 275.03 352.11 285.94 354.16V354.18Z" fill="white"/>
<path d="M312.68 248.54L312.6 248.89C308.96 264.72 311.82 281.35 320.55 295.06L300.65 313.05L277.03 302.77C273.48 301.22 270.35 298.84 267.92 295.83C259.62 285.57 261.14 270.54 271.31 262.13L285.19 250.67C292.99 244.23 303.99 243.38 312.68 248.54Z" fill="white"/>
<path d="M330.62 297.84C327.37 302.34 321.09 303.36 316.59 300.11C312.09 296.86 311.07 290.58 314.32 286.08C317.57 281.58 323.85 280.56 328.35 283.81C332.85 287.06 333.87 293.34 330.62 297.84Z" fill="white"/>
<path d="M319.44 292.3C319.07 292.3 318.7 292.14 318.44 291.82C318 291.27 318.09 290.47 318.64 290.03C318.86 289.85 324.06 285.76 328.28 287.85C328.91 288.16 329.17 288.92 328.85 289.55C328.54 290.18 327.77 290.44 327.15 290.12C324.86 288.98 321.38 291.1 320.23 292.01C320 292.2 319.72 292.29 319.44 292.29V292.3Z" fill="#080717"/>
<path d="M286.98 294.96C286.42 294.96 285.84 294.88 285.26 294.71C279.36 293 279.47 282.57 279.48 282.13C279.48 281.72 279.7 281.33 280.04 281.1C280.38 280.87 280.82 280.82 281.21 280.97L295.49 286.5C295.84 286.64 296.11 286.92 296.23 287.27C296.35 287.63 296.31 288.02 296.12 288.34C295.94 288.64 292.06 294.97 286.98 294.97V294.96ZM282.09 284.03C282.33 287.03 283.27 291.48 285.96 292.27C288.8 293.09 291.64 290.08 293.04 288.27L282.08 284.03H282.09Z" fill="#080717"/>
<path d="M283.12 260.12C283.26 259.38 282.71 258.69 282 258.56C281.04 258.38 279.99 258.66 279.23 259.26C279.16 259.31 279.12 259.37 279.06 259.43C278.79 259.51 278.54 259.64 278.33 259.83C278.02 260.11 277.74 260.42 277.61 260.83C277.44 261.32 277.39 261.83 277.57 262.33C277.77 262.87 278.17 263.25 278.65 263.52C279.04 263.74 279.5 263.8 279.94 263.79C280.78 263.79 281.59 263.33 282.12 262.7C282.72 261.97 282.96 261.03 283.13 260.12H283.12Z" fill="black"/>
<path d="M299.69 270.02C299.65 269.59 299.39 269.23 299.03 269.01C298.88 268.9 298.72 268.84 298.53 268.82C298.29 268.79 298.07 268.82 297.84 268.9C297.06 269.09 296.33 269.63 295.84 270.25C295.64 270.51 295.47 270.8 295.33 271.1C295.24 271.24 295.16 271.39 295.1 271.54C294.84 272.12 294.73 272.84 294.87 273.47C294.9 273.71 294.98 273.92 295.12 274.12C295.23 274.28 295.36 274.4 295.53 274.48C295.91 274.71 296.3 274.73 296.71 274.6C298.61 274 299.85 271.98 299.68 270.02H299.69Z" fill="black"/>
<path d="M282.01 273.7C281.43 273.7 280.91 273.31 280.77 272.72C280.61 272.04 281.03 271.35 281.71 271.19C281.71 271.19 285.14 270.11 287.9 262.4C288.14 261.74 288.87 261.39 289.53 261.63C290.19 261.87 290.54 262.59 290.3 263.26C287.07 272.29 282.78 273.55 282.31 273.67C282.21 273.69 282.11 273.7 282.01 273.7Z" fill="#080717"/>
<path d="M275.44 270.12C273.01 270.12 270.62 269.41 268.54 268.05C265.72 266.2 263.79 263.37 263.11 260.07C262.43 256.77 263.07 253.4 264.92 250.58C266.77 247.76 269.6 245.83 272.9 245.15C276.19 244.46 279.57 245.1 282.39 246.96C285.21 248.81 287.14 251.64 287.82 254.94C288.5 258.24 287.86 261.61 286.01 264.43C284.16 267.25 281.33 269.18 278.03 269.86C277.17 270.04 276.3 270.13 275.44 270.13V270.12ZM275.48 247.43C272.2 247.43 268.97 249.03 267.04 251.97C263.99 256.61 265.29 262.87 269.93 265.92C274.58 268.97 280.83 267.67 283.88 263.03C286.93 258.39 285.63 252.13 280.99 249.08C279.29 247.96 277.37 247.43 275.48 247.43Z" fill="#FFC31F"/>
<path d="M302.2 284.08C299.83 284.08 297.43 283.41 295.3 282.02C289.48 278.2 287.86 270.37 291.67 264.55C295.49 258.73 303.33 257.11 309.14 260.92C314.96 264.74 316.58 272.57 312.77 278.39C310.35 282.08 306.31 284.08 302.2 284.08ZM302.23 261.4C298.95 261.4 295.72 263 293.79 265.94C290.74 270.58 292.04 276.84 296.68 279.89C301.32 282.94 307.58 281.64 310.63 277C313.68 272.36 312.38 266.1 307.74 263.05C306.04 261.93 304.12 261.4 302.23 261.4Z" fill="#FFC31F"/>
<path d="M286.44 307.07C284.18 307.07 281.75 306.86 279.21 306.34C278.52 306.2 278.08 305.53 278.22 304.84C278.36 304.15 279.03 303.71 279.72 303.85C291.03 306.17 300.37 301.69 300.46 301.64C301.09 301.33 301.85 301.59 302.16 302.22C302.47 302.85 302.21 303.61 301.58 303.92C301.25 304.08 295.04 307.06 286.44 307.06V307.07Z" fill="#080717"/>
<path d="M278.7 411.17L330.31 401.02L342.67 416.79C350 426.14 350.81 439.05 344.69 449.24H287.99C276.03 449.24 260.41 439.23 263.47 427.67L278.7 411.17Z" fill="white"/>
<path d="M344.7 450.51H288C279.62 450.51 270.01 445.94 265.16 439.64C262.16 435.74 261.15 431.49 262.25 427.34C262.3 427.14 262.4 426.95 262.54 426.8L277.77 410.3C277.95 410.1 278.19 409.97 278.46 409.91L330.07 399.76C330.54 399.67 331.02 399.85 331.32 400.22L343.68 415.99C351.28 425.69 352.13 439.31 345.79 449.88C345.56 450.26 345.15 450.5 344.7 450.5V450.51ZM264.63 428.29C263.67 432.4 265.47 435.88 267.17 438.09C271.51 443.72 280.46 447.97 288 447.97H343.97C349.38 438.39 348.49 426.26 341.68 417.57L329.8 402.41L279.36 412.33L264.63 428.29Z" fill="#080717"/>
<path d="M261.44 437.89L266.21 435.25C266.21 435.25 276.08 448.02 288.97 439.01C292.12 436.81 292.28 416.33 286.23 409.33C274.38 395.61 252.36 378.45 239.52 387.01C226.67 395.56 209.63 412.27 209.63 412.27C209.63 412.27 216.71 421.6 223.43 416.42C232.84 409.16 244.43 403.9 244.43 403.9L224.07 432.71C224.07 432.71 228.27 437.51 233.86 439.3C239.45 441.09 247.06 446.25 261.43 437.9L261.44 437.89Z" fill="white"/>
<path d="M218.75 419.35C213.24 419.35 208.46 414.22 208.21 413.95C207.77 413.47 207.76 412.72 208.21 412.24C208.89 411.49 225.01 393.82 238.89 385.91C245.56 382.11 260.71 379.99 287.17 408.47C287.65 408.99 287.62 409.79 287.1 410.27C286.59 410.75 285.78 410.72 285.3 410.2C276.57 400.8 254.69 379.83 240.15 388.12C228.38 394.83 214.45 409.29 210.93 413.04C212.83 414.75 217.58 418.37 221.74 416C224.04 414.69 226.84 412.69 229.82 410.56C235.66 406.39 241.7 402.07 245.65 401.78C246.35 401.74 246.96 402.25 247.01 402.95C247.06 403.65 246.54 404.26 245.84 404.31C242.6 404.55 236.6 408.84 231.3 412.63C228.27 414.79 225.41 416.84 223 418.21C221.58 419.02 220.15 419.34 218.76 419.34L218.75 419.35Z" fill="#080717"/>
<path d="M230.86 439.07C226.77 439.07 223.76 435.25 222.58 432.8C222.37 432.37 222.43 431.85 222.72 431.47L251.69 394.21C252.12 393.66 252.92 393.56 253.48 393.99C254.03 394.42 254.13 395.22 253.7 395.78L225.24 432.38C226.19 433.99 228.92 437.77 232.74 436.12C233.38 435.84 234.13 436.14 234.41 436.78C234.69 437.43 234.39 438.17 233.75 438.45C232.74 438.89 231.77 439.08 230.86 439.08V439.07Z" fill="#080717"/>
<path d="M240.34 443.76C236.05 443.76 231.7 440.66 231.46 440.48C231.17 440.27 230.98 439.95 230.94 439.6C230.9 439.25 231.01 438.89 231.24 438.62L262.63 402.08C263.09 401.55 263.89 401.49 264.42 401.94C264.95 402.4 265.01 403.2 264.56 403.73L234.12 439.17C236.46 440.54 240.57 442.23 243.03 440.39C247.28 437.22 271.52 412.51 271.76 412.26C272.25 411.76 273.06 411.75 273.56 412.24C274.06 412.73 274.07 413.54 273.58 414.04C272.58 415.06 248.95 439.14 244.55 442.43C243.26 443.39 241.8 443.76 240.33 443.76H240.34Z" fill="#080717"/>
<path d="M249.52 443.93C247.43 443.93 245.44 443.44 243.63 442.3C243.03 441.93 242.86 441.14 243.23 440.55C243.6 439.96 244.39 439.78 244.98 440.15C250.7 443.75 259.3 438.85 265.5 434.11C272.48 428.77 278.06 422.4 278.12 422.34C278.58 421.81 279.39 421.76 279.92 422.22C280.45 422.68 280.5 423.49 280.04 424.02C279.22 424.96 262.5 443.95 249.52 443.95V443.93Z" fill="#080717"/>
<path d="M291.52 431.49C291.52 431.49 291.43 431.49 291.38 431.49C290.68 431.41 290.18 430.78 290.25 430.09C291.2 421.46 289.54 414.77 285.31 410.21C276.58 400.81 254.7 379.84 240.16 388.13C239.55 388.48 238.77 388.26 238.42 387.65C238.07 387.04 238.29 386.26 238.9 385.91C245.57 382.11 260.72 379.99 287.18 408.47C291.94 413.6 293.83 420.96 292.79 430.36C292.72 431.01 292.17 431.49 291.53 431.49H291.52Z" fill="#080717"/>
<path d="M330.31 402.28C329.69 402.28 329.15 401.83 329.05 401.2C328.94 400.51 329.42 399.86 330.12 399.75L344.08 397.64C344.77 397.53 345.42 398.01 345.53 398.71C345.64 399.4 345.16 400.05 344.46 400.16L330.5 402.27C330.44 402.27 330.37 402.28 330.31 402.28Z" fill="#080717"/>
<path d="M280.25 360.91C298.26 367.03 317.21 359.23 322.56 343.48C323.33 341.21 323.77 338.9 323.92 336.59C312.33 331.18 299.65 328.24 286.57 328.24H261.17C259.42 328.24 257.68 328.36 255.95 328.56C255.28 342.16 264.97 355.71 280.25 360.9V360.91Z" fill="white"/>
<path d="M384.58 111.62C412.78 111.62 435.64 88.7597 435.64 60.56C435.64 32.3604 412.78 9.50003 384.58 9.50003C356.38 9.50003 333.52 32.3604 333.52 60.56C333.52 88.7597 356.38 111.62 384.58 111.62Z" fill="white"/>
<path d="M384.58 10C412.46 10 435.14 32.68 435.14 60.56C435.14 88.44 412.46 111.12 384.58 111.12C356.7 111.12 334.02 88.44 334.02 60.56C334.02 32.68 356.7 10 384.58 10ZM384.58 9.00003C356.1 9.00003 333.02 32.08 333.02 60.56C333.02 89.04 356.1 112.12 384.58 112.12C413.06 112.12 436.14 89.04 436.14 60.56C436.14 32.08 413.06 9.00003 384.58 9.00003Z" fill="black"/>
<path fill-rule="evenodd" clip-rule="evenodd" d="M406.12 84.13L402.27 74.03L388.2 77.63C387.88 78.21 387.57 78.8 387.25 79.39C386.72 80.38 385.7 81 384.57 81C383.44 81 382.42 80.39 381.89 79.39C381.87 79.35 381.84 79.31 381.82 79.26L379.77 79.78L384.23 87.95H403.02C405.95 88.04 407.17 87.28 406.12 84.12V84.13Z" fill="black"/>
<path fill-rule="evenodd" clip-rule="evenodd" d="M375.87 80.79L363.06 84.07L363.04 84.13C361.99 87.29 363.2 88.05 366.14 87.96H379.79L375.88 80.79H375.87Z" fill="#FFC31F"/>
<path fill-rule="evenodd" clip-rule="evenodd" d="M376.25 69.48C376.05 69.15 375.84 68.82 375.63 68.49H372.15C368.86 68.49 369.18 68.17 368.01 71.07L364.77 79.58L379.9 75.71C378.73 73.61 377.52 71.53 376.25 69.48Z" fill="black"/>
<path fill-rule="evenodd" clip-rule="evenodd" d="M397.02 68.5H393.54C393.33 68.83 393.13 69.15 392.92 69.48C392.22 70.61 391.53 71.76 390.86 72.91L400.86 70.35C400.01 68.24 399.99 68.5 397.01 68.5H397.02Z" fill="black"/>
<path fill-rule="evenodd" clip-rule="evenodd" d="M384.58 33.16C376.12 33.16 369.26 40.02 369.26 48.48C369.26 52.55 371.32 55.99 373.62 59.19C375.52 61.83 377.34 64.52 379.06 67.28C380.87 70.2 382.55 73.2 384.17 76.23C384.25 76.39 384.41 76.48 384.59 76.48C384.77 76.48 384.92 76.39 385.01 76.23C386.63 73.19 388.31 70.2 390.12 67.27C391.84 64.5 393.67 61.82 395.57 59.17C397.86 55.97 399.92 52.54 399.92 48.48C399.92 40.02 393.06 33.16 384.6 33.16H384.58ZM384.58 54C381.03 54 378.15 51.12 378.15 47.57C378.15 44.02 381.03 41.14 384.58 41.14C388.13 41.14 391.01 44.02 391.01 47.57C391.01 51.12 388.13 54 384.58 54Z" fill="white" stroke="black" stroke-width="3" stroke-miterlimit="10"/>
<path d="M75.56 10C103.44 10 126.12 32.68 126.12 60.56C126.12 88.44 103.44 111.12 75.56 111.12C47.68 111.12 25 88.44 25 60.56C25 32.68 47.68 10 75.56 10ZM75.56 9.00003C47.08 9.00003 24 32.08 24 60.56C24 89.04 47.08 112.12 75.56 112.12C104.04 112.12 127.12 89.04 127.12 60.56C127.12 32.08 104.04 9.00003 75.56 9.00003Z" fill="black"/>
<path fill-rule="evenodd" clip-rule="evenodd" d="M51.65 39.19H98.92C100.01 39.19 100.89 40.08 100.89 41.16V68.51H49.68V41.16C49.68 40.07 50.57 39.19 51.65 39.19Z" fill="black"/>
<path fill-rule="evenodd" clip-rule="evenodd" d="M51.93 41.16H98.92V66.72H51.93V41.16Z" fill="white"/>
<path fill-rule="evenodd" clip-rule="evenodd" d="M75.42 39.57C75.74 39.57 76 39.83 76 40.15C76 40.47 75.74 40.73 75.42 40.73C75.1 40.73 74.84 40.47 74.84 40.15C74.84 39.83 75.1 39.57 75.42 39.57Z" fill="white"/>
<path fill-rule="evenodd" clip-rule="evenodd" d="M49.5 70.44H101.41L109.76 79.3C109.76 80.75 108.57 81.94 107.12 81.94H44.01C42.56 81.94 41.37 80.75 41.37 79.3L49.5 70.44Z" fill="black"/>
<path fill-rule="evenodd" clip-rule="evenodd" d="M70.19 75.54H80.15L81.75 77.43C81.75 77.74 81.52 77.99 81.24 77.99H69.13C68.85 77.99 68.62 77.74 68.62 77.43L70.18 75.54H70.19Z" fill="white"/>
<path d="M109.59 79.25H41.55V79.6H109.59V79.25Z" fill="white"/>
<path d="M75.58 46.91C71.83 46.91 68.79 49.97 68.79 53.75C68.79 57.53 71.83 60.59 75.58 60.59C79.33 60.59 82.37 57.53 82.37 53.75C82.37 49.97 79.33 46.91 75.58 46.91ZM73.62 56.8V50.71L78.86 53.76L73.62 56.81V56.8Z" fill="#FFC31F"/>
<path d="M230.07 111.62C201.92 111.62 179.01 88.71 179.01 60.56C179.01 32.41 201.92 9.50003 230.07 9.50003C258.22 9.50003 281.13 32.41 281.13 60.56C281.13 88.71 258.22 111.62 230.07 111.62Z" fill="white"/>
<path d="M230.56 10C258.44 10 281.12 32.68 281.12 60.56C281.12 88.44 258.44 111.12 230.56 111.12C202.68 111.12 180 88.44 180 60.56C180 32.68 202.68 10 230.56 10ZM230.56 9.00003C202.08 9.00003 179 32.08 179 60.56C179 89.04 202.08 112.12 230.56 112.12C259.04 112.12 282.12 89.04 282.12 60.56C282.12 32.08 259.04 9.00003 230.56 9.00003Z" fill="black"/>
<path d="M223.917 35.7598H220.132V51.8108H223.917V35.7598Z" fill="white"/>
<path d="M223.909 52.1458H219.789V35.4249H224.243V52.1458H223.909ZM220.467 51.4759H223.574V36.1033H220.467V51.4759Z" fill="black"/>
<path d="M223.909 34.566H216.347V35.7598H223.909V34.566Z" fill="white"/>
<path d="M216.347 34.2311H223.828C224.057 34.2311 224.243 34.4169 224.243 34.6461V36.0947H216.004V34.5659C216.004 34.381 216.153 34.2311 216.338 34.2311H216.347ZM223.574 35.15C223.574 35.0125 223.462 34.901 223.325 34.901H216.931C216.793 34.901 216.682 35.0125 216.682 35.15V35.1759C216.682 35.3134 216.793 35.4248 216.931 35.4248H223.325C223.462 35.4248 223.574 35.3134 223.574 35.1759V35.15Z" fill="black"/>
<path d="M220.132 35.7598H216.347V51.8108H220.132V35.7598Z" fill="white"/>
<path d="M216.682 51.4759H219.789V36.1033H216.682V51.4759ZM220.132 52.1458H216.012V35.4249H220.467V52.1458H220.132Z" fill="black"/>
<path d="M225.402 51.8108H214.862V53.0046H225.402V51.8108Z" fill="white"/>
<path d="M214.862 51.4759H225.322C225.551 51.4759 225.737 51.6617 225.737 51.8909V52.9245C225.737 53.1537 225.551 53.3395 225.322 53.3395H214.793C214.646 53.3395 214.527 53.2203 214.527 53.0733V51.8106C214.527 51.6258 214.677 51.4759 214.862 51.4759ZM225.067 52.4077C225.067 52.263 224.95 52.1458 224.805 52.1458H215.459C215.314 52.1458 215.197 52.263 215.197 52.4077C215.197 52.5524 215.314 52.6696 215.459 52.6696H224.805C224.95 52.6696 225.067 52.5524 225.067 52.4077Z" fill="black"/>
<path d="M219.462 53.0045H218.235V57.2384H219.462V53.0045Z" fill="white"/>
<path d="M219.128 53.5885C219.128 53.451 219.016 53.3395 218.879 53.3395H218.819C218.681 53.3395 218.57 53.451 218.57 53.5885V56.6545C218.57 56.792 218.681 56.9035 218.819 56.9035H218.879C219.016 56.9035 219.128 56.792 219.128 56.6545V53.5885ZM218.235 52.6696H219.797V57.1584C219.797 57.3876 219.611 57.5734 219.382 57.5734H217.892V52.6696H218.227H218.235Z" fill="black"/>
<path d="M218.235 53.0045H217.008V57.2384H218.235V53.0045Z" fill="white"/>
<path d="M217.008 52.6696H218.57V57.5734H217.079C216.85 57.5734 216.664 57.3876 216.664 57.1584V52.6696H216.999H217.008ZM217.9 53.5885C217.9 53.451 217.789 53.3395 217.651 53.3395H217.591C217.454 53.3395 217.342 53.451 217.342 53.5885V56.6545C217.342 56.792 217.454 56.9035 217.591 56.9035H217.651C217.789 56.9035 217.9 56.792 217.9 56.6545V53.5885Z" fill="black"/>
<path d="M222.939 53.0045H222.02V57.2384H222.939V53.0045Z" fill="white"/>
<path d="M222.02 53.0045H221.102V57.2384H222.02V53.0045Z" fill="white"/>
<path d="M229.934 64.9505H213.446V66.1442H229.934V64.9505Z" fill="white"/>
<path d="M213.186 64.9864C213.349 64.754 213.615 64.6156 213.899 64.6156H229.345C229.86 64.6156 230.277 65.0328 230.277 65.5474C230.277 66.062 229.86 66.4792 229.345 66.4792H213.998C213.497 66.4792 213.078 66.0952 213.035 65.5951L213.032 65.5599C213.014 65.3566 213.069 65.1536 213.186 64.9864ZM229.599 65.5474C229.599 65.4027 229.482 65.2854 229.337 65.2854H214.042C213.898 65.2854 213.781 65.4027 213.781 65.5474C213.781 65.692 213.898 65.8093 214.042 65.8093H229.337C229.482 65.8093 229.599 65.692 229.599 65.5474Z" fill="black"/>
<path d="M229.942 66.1442H227.977V75.0328H229.942V66.1442Z" fill="white"/>
<path d="M229.942 75.3678H228.057C227.828 75.3678 227.642 75.182 227.642 74.9528V65.8093H230.277V75.3678H229.942ZM228.32 74.6979H229.608V66.4878H228.32V74.6979Z" fill="black"/>
<path d="M225.874 40.1139H223.909V50.4539H225.874V40.1139Z" fill="white"/>
<path d="M224.243 50.119H225.531V40.4574H224.243V50.119ZM225.865 50.7888H223.565V39.779H226.2V50.7888H225.865Z" fill="black"/>
<path fill-rule="evenodd" clip-rule="evenodd" d="M225.874 50.4539L231.771 50.5999C235.65 50.5999 238.354 53.0818 238.577 58.6039C238.577 61.9447 238.337 66.1528 233.582 66.1528H229.942V75.0414H236.311C242.525 75.0414 246.765 66.6681 246.834 60.6393C246.868 57.2385 247.168 53.434 246.001 49.8527C244.07 43.9356 240.748 40.8353 235.641 40.2599C232.595 39.9164 228.972 40.1225 225.874 40.1225V50.4625V50.4539Z" fill="white"/>
<path d="M226.209 50.1275L231.771 50.265C233.873 50.265 235.659 50.9692 236.92 52.4549C238.088 53.8204 238.8 55.8472 238.912 58.5868V58.6039C238.912 60.3129 238.851 62.2367 238.165 63.7653C237.461 65.3541 236.122 66.4877 233.582 66.4877H230.277V74.6979H236.311C239.032 74.6979 241.366 73.0061 243.109 70.6186C245.22 67.733 246.465 63.834 246.499 60.6221C246.499 60.1154 246.516 59.6087 246.525 59.0934C246.593 56.1306 246.662 52.9444 245.684 49.9386C244.739 47.0359 243.452 44.8287 241.787 43.2829C240.13 41.7456 238.088 40.8611 235.607 40.5777C233.393 40.3286 230.861 40.3715 228.457 40.4145C227.668 40.4317 226.895 40.4403 226.209 40.4403V50.119V50.1275ZM231.762 50.9348L225.539 50.7888V39.7876H225.874C226.775 39.7876 227.599 39.7704 228.449 39.7618C230.878 39.7189 233.436 39.6759 235.684 39.9336C238.311 40.2256 240.474 41.1788 242.242 42.8105C243.993 44.4337 245.34 46.7353 246.319 49.7497C247.331 52.8585 247.263 56.1048 247.194 59.1278C247.186 59.6431 247.168 60.1584 247.168 60.6479C247.134 63.9886 245.838 68.0336 243.649 71.0308C241.787 73.5815 239.272 75.3849 236.311 75.3849H229.608V65.8265H233.582C235.796 65.8265 236.955 64.856 237.555 63.4991C238.182 62.0907 238.242 60.2528 238.242 58.6211C238.139 56.0361 237.478 54.1467 236.414 52.8929C235.29 51.5703 233.676 50.9348 231.771 50.9348H231.762Z" fill="black"/>
<path d="M231.762 50.9262L225.539 50.7803V39.779H225.874C226.775 39.779 227.599 39.7618 228.449 39.7532C230.878 39.7103 233.436 39.6673 235.684 39.925C238.311 40.217 240.474 41.1703 242.242 42.802C243.993 44.4251 245.34 46.7267 246.319 49.7411C247.331 52.85 247.263 56.0962 247.194 59.1192C247.186 59.6345 247.168 60.1498 247.168 60.6393C247.134 63.9801 245.838 68.025 243.649 71.0222C241.787 73.5729 239.272 75.3764 236.311 75.3764H229.608V65.8179H233.582C235.796 65.8179 236.955 64.8474 237.555 63.4905C238.182 62.0821 238.242 60.2443 238.242 58.6125C238.139 56.0275 237.478 54.1382 236.414 52.8843C235.29 51.5618 233.676 50.9262 231.771 50.9262H231.762Z" fill="black"/>
<path fill-rule="evenodd" clip-rule="evenodd" d="M220.286 70.9278C223.291 70.9278 225.72 71.6577 225.72 72.5509V73.5901C225.72 74.4832 223.291 75.2132 220.286 75.2132C217.282 75.2132 214.853 74.4918 214.853 73.5901V72.5509C214.853 71.6577 217.282 70.9278 220.286 70.9278Z" fill="white"/>
<path d="M220.286 70.5928C221.823 70.5928 223.213 70.7818 224.226 71.0824C225.359 71.4173 226.054 71.9326 226.054 72.5509V73.5901C226.054 74.2084 225.35 74.7237 224.226 75.0586C223.213 75.3592 221.823 75.5481 220.286 75.5481C218.75 75.5481 217.36 75.3592 216.347 75.0586C215.214 74.7237 214.519 74.2084 214.519 73.5901V72.5509C214.519 71.9412 215.222 71.4173 216.347 71.0824C217.36 70.7818 218.75 70.5928 220.286 70.5928ZM224.037 71.7265C223.085 71.443 221.754 71.2627 220.286 71.2627C218.819 71.2627 217.497 71.443 216.536 71.7265C215.703 71.9755 215.188 72.2675 215.188 72.5509V73.5901C215.188 73.8735 215.703 74.1655 216.536 74.4145C217.488 74.6979 218.819 74.8783 220.286 74.8783C221.754 74.8783 223.076 74.6979 224.037 74.4145C224.87 74.1655 225.385 73.8735 225.385 73.5901V72.5509C225.385 72.2675 224.87 71.9755 224.037 71.7265Z" fill="black"/>
<path fill-rule="evenodd" clip-rule="evenodd" d="M220.286 71.8724C222.715 71.8724 224.681 72.2847 224.681 72.7914C224.681 73.298 222.715 73.7103 220.286 73.7103C217.857 73.7103 215.892 73.298 215.892 72.7914C215.892 72.2847 217.857 71.8724 220.286 71.8724Z" fill="white"/>
<path d="M220.286 71.5375C221.522 71.5375 222.647 71.6406 223.462 71.8123C224.423 72.0098 225.016 72.3534 225.016 72.7914C225.016 73.2294 224.423 73.5729 223.462 73.7704C222.647 73.9422 221.522 74.0452 220.286 74.0452C219.051 74.0452 217.926 73.9422 217.111 73.7704C216.149 73.5729 215.557 73.2294 215.557 72.7914C215.557 72.3534 216.149 72.0098 217.111 71.8123C217.926 71.6406 219.051 71.5375 220.286 71.5375ZM223.325 72.4736C222.552 72.3104 221.479 72.216 220.286 72.216C219.102 72.216 218.021 72.319 217.248 72.4736C216.622 72.6024 216.227 72.7227 216.227 72.7999C216.227 72.8772 216.613 72.9889 217.248 73.1263C218.021 73.2895 219.102 73.3925 220.286 73.3925C221.479 73.3925 222.552 73.2895 223.325 73.1263C223.951 72.9975 224.346 72.8772 224.346 72.7999C224.346 72.7227 223.96 72.611 223.325 72.4736Z" fill="black"/>
<path d="M227.977 72.4994H225.419V73.633H227.977V72.4994Z" fill="white"/>
<path d="M225.419 72.1644H228.312V73.9679H225.084V72.1644H225.419ZM227.642 72.8343H225.762V73.298H227.642V72.8343Z" fill="black"/>
<path d="M227.977 71.881H227.11V74.2428H227.977V71.881Z" fill="white"/>
<path d="M228.312 71.881V73.8052C228.312 74.2318 227.966 74.5777 227.539 74.5777C227.112 74.5777 226.767 74.2318 226.767 73.8052V72.3186C226.767 71.892 227.112 71.5461 227.539 71.5461H227.977C228.162 71.5461 228.312 71.6961 228.312 71.881ZM227.543 73.9078C227.598 73.9078 227.642 73.8636 227.642 73.8091V72.3147C227.642 72.2602 227.598 72.216 227.543 72.216C227.489 72.216 227.445 72.2602 227.445 72.3147V73.8091C227.445 73.8636 227.489 73.9078 227.543 73.9078Z" fill="black"/>
<path d="M222.02 27.3349H218.235V34.5661H222.02V27.3349Z" fill="white"/>
<path d="M222.02 34.901H217.9V27.83C217.9 27.3716 218.272 27 218.73 27H221.525C221.983 27 222.355 27.3716 222.355 27.83V34.901H222.02ZM218.57 33.8161C218.57 34.0453 218.756 34.2311 218.985 34.2311H221.262C221.491 34.2311 221.677 34.0453 221.677 33.8161V28.0934C221.677 27.8642 221.491 27.6785 221.262 27.6785H218.985C218.756 27.6785 218.57 27.8642 218.57 28.0934V33.8161Z" fill="black"/>
<path fill-rule="evenodd" clip-rule="evenodd" d="M224.226 66.1442C226.998 66.462 227.685 69.193 227.942 71.1768C227.951 71.2799 227.96 71.4602 227.977 71.4688V66.1442H224.226Z" fill="white"/>
<path d="M226.089 66.4878C226.612 66.8484 227.007 67.338 227.316 67.879C227.436 68.0937 227.548 68.317 227.642 68.5489V66.4963H226.089V66.4878ZM226.732 68.2054C226.234 67.3208 225.445 66.6252 224.183 66.4792L218.398 65.8093H228.312V72.0786L227.797 71.7436C227.642 71.6492 227.633 71.486 227.616 71.3228C227.616 71.2713 227.616 71.2283 227.608 71.2112C227.488 70.2493 227.256 69.1157 226.732 68.1968V68.2054Z" fill="black"/>
<path d="M222.604 66.1442H217.969V67.9048H222.604V66.1442Z" fill="white"/>
<path d="M218.304 67.5698H222.269V66.4878H218.304V67.5698ZM222.604 68.2397H217.634V65.8093H222.939V68.2397H222.604Z" fill="black"/>
<path d="M217.574 67.5699H222.998C223.188 67.5699 223.342 67.7237 223.342 67.9134C223.342 68.1031 223.188 68.2569 222.998 68.2569H217.583C217.393 68.2569 217.24 68.1031 217.24 67.9134V67.9046C217.24 67.7197 217.389 67.5699 217.574 67.5699Z" fill="black"/>
<path fill-rule="evenodd" clip-rule="evenodd" d="M224.526 37.6406C226.586 37.6406 228.26 39.3152 228.26 41.3764C228.26 43.4375 226.586 45.1121 224.526 45.1121C222.467 45.1121 220.793 43.4375 220.793 41.3764C220.793 39.3152 222.467 37.6406 224.526 37.6406Z" fill="white"/>
<path fill-rule="evenodd" clip-rule="evenodd" d="M224.526 39.0833C225.788 39.0833 226.81 40.1053 226.81 41.3678C226.81 42.6302 225.788 43.6522 224.526 43.6522C223.265 43.6522 222.243 42.6302 222.243 41.3678C222.243 40.1053 223.265 39.0833 224.526 39.0833Z" fill="white"/>
<path fill-rule="evenodd" clip-rule="evenodd" d="M224.526 40.5605C224.973 40.5605 225.333 40.9212 225.333 41.3678C225.333 41.8143 224.973 42.175 224.526 42.175C224.08 42.175 223.72 41.8143 223.72 41.3678C223.72 40.9212 224.08 40.5605 224.526 40.5605Z" fill="white"/>
<path fill-rule="evenodd" clip-rule="evenodd" d="M209.583 85.6648H249.846C250.473 85.6648 250.988 86.1801 250.988 86.807V92.7242H208.451V86.807C208.451 86.1801 208.966 85.6648 209.583 85.6648Z" fill="white"/>
<path d="M209.583 85.3213H249.846C250.25 85.3213 250.619 85.4845 250.885 85.7507C251.151 86.0169 251.314 86.3862 251.314 86.7899V93.042H208.099V86.7899C208.099 86.3862 208.262 86.0169 208.528 85.7507C208.794 85.4845 209.163 85.3213 209.566 85.3213H209.583ZM249.846 85.9912H209.583C209.36 85.9912 209.163 86.0857 209.017 86.2231C208.871 86.3691 208.785 86.5666 208.785 86.7899V92.3721H250.653V86.7899C250.653 86.5666 250.559 86.3691 250.421 86.2231C250.275 86.0771 250.078 85.9912 249.855 85.9912H249.846Z" fill="black"/>
<path d="M251.838 92.7156H207.592V94.9914H251.838V92.7156Z" fill="white"/>
<path fill-rule="evenodd" clip-rule="evenodd" d="M238.362 70.1978L246.516 85.6648H231.53V70.5241C231.53 68.7035 233.006 67.2263 234.826 67.2263C236.105 67.2263 237.221 67.9563 237.761 69.0298C237.959 69.4163 238.148 69.8027 238.354 70.2064L238.362 70.1978Z" fill="white"/>
<path d="M238.663 70.0432L247.083 85.9998H231.204V70.5241C231.204 69.5193 231.607 68.609 232.268 67.9477C232.929 67.2864 233.839 66.8828 234.843 66.8828C235.538 66.8828 236.182 67.0803 236.74 67.4153C237.307 67.7674 237.779 68.2655 238.079 68.8667C238.182 69.0728 238.251 69.2102 238.319 69.3562C238.431 69.5795 238.542 69.8113 238.663 70.0346V70.0432ZM245.967 85.3299L238.07 70.3524C237.95 70.1205 237.83 69.8886 237.719 69.6567C237.633 69.4764 237.538 69.296 237.478 69.1758C237.229 68.6863 236.852 68.2827 236.38 67.9907C235.933 67.7159 235.401 67.5613 234.835 67.5613C234.019 67.5613 233.273 67.8962 232.74 68.4287C232.208 68.9611 231.873 69.7083 231.873 70.5241V85.3213H245.967V85.3299Z" fill="black"/>
<path fill-rule="evenodd" clip-rule="evenodd" d="M234.835 73.049C236.225 73.049 237.358 71.9154 237.358 70.5241C237.358 69.1329 236.225 67.9992 234.835 67.9992C233.444 67.9992 232.311 69.1329 232.311 70.5241C232.311 71.9154 233.444 73.049 234.835 73.049Z" fill="white"/>
<path fill-rule="evenodd" clip-rule="evenodd" d="M234.835 72.027C235.659 72.027 236.337 71.3572 236.337 70.5241C236.337 69.6911 235.667 69.0212 234.835 69.0212C234.002 69.0212 233.333 69.6911 233.333 70.5241C233.333 71.3572 234.002 72.027 234.835 72.027Z" fill="white"/>
<path fill-rule="evenodd" clip-rule="evenodd" d="M234.835 71.0394C235.118 71.0394 235.35 70.8075 235.35 70.5241C235.35 70.2407 235.118 70.0089 234.835 70.0089C234.551 70.0089 234.32 70.2407 234.32 70.5241C234.32 70.8075 234.551 71.0394 234.835 71.0394Z" fill="white"/>
<path d="M251.202 92.4236H208.288C207.577 92.4236 207 93.0003 207 93.7118C207 94.4232 207.577 95 208.288 95H251.202C251.913 95 252.49 94.4232 252.49 93.7118C252.49 93.0003 251.913 92.4236 251.202 92.4236Z" fill="black"/>
<path d="M235.006 73.8477C236.428 73.8477 237.581 72.6942 237.581 71.2713C237.581 69.8484 236.428 68.6949 235.006 68.6949C233.584 68.6949 232.431 69.8484 232.431 71.2713C232.431 72.6942 233.584 73.8477 235.006 73.8477Z" fill="black"/>
<path d="M235.006 71.9154C235.362 71.9154 235.65 71.627 235.65 71.2713C235.65 70.9156 235.362 70.6272 235.006 70.6272C234.651 70.6272 234.363 70.9156 234.363 71.2713C234.363 71.627 234.651 71.9154 235.006 71.9154Z" fill="white"/>
<path d="M225.316 45.7562C227.686 45.7562 229.608 43.8337 229.608 41.4622C229.608 39.0907 227.686 37.1682 225.316 37.1682C222.946 37.1682 221.025 39.0907 221.025 41.4622C221.025 43.8337 222.946 45.7562 225.316 45.7562Z" fill="black"/>
<path d="M225.316 43.6092C226.501 43.6092 227.462 42.648 227.462 41.4622C227.462 40.2765 226.501 39.3152 225.316 39.3152C224.131 39.3152 223.17 40.2765 223.17 41.4622C223.17 42.648 224.131 43.6092 225.316 43.6092Z" fill="white"/>
<path d="M225.316 42.321C225.79 42.321 226.174 41.9365 226.174 41.4622C226.174 40.9879 225.79 40.6034 225.316 40.6034C224.842 40.6034 224.458 40.9879 224.458 41.4622C224.458 41.9365 224.842 42.321 225.316 42.321Z" fill="black"/>
<path d="M222.938 53.5885C222.938 53.451 222.826 53.3395 222.689 53.3395H222.629C222.491 53.3395 222.38 53.451 222.38 53.5885V56.6545C222.38 56.792 222.491 56.9035 222.629 56.9035H222.689C222.826 56.9035 222.938 56.792 222.938 56.6545V53.5885ZM222.045 52.6696H223.607V57.1584C223.607 57.3876 223.422 57.5734 223.192 57.5734H221.702V52.6696H222.037H222.045Z" fill="black"/>
<path d="M222.938 53.7147C222.938 53.5772 222.826 53.4657 222.689 53.4657H222.629C222.491 53.4657 222.38 53.5772 222.38 53.7147V56.7808C222.38 56.9183 222.491 57.0298 222.629 57.0298H222.689C222.826 57.0298 222.938 56.9183 222.938 56.7808V53.7147ZM222.045 52.7959H223.607V57.2847C223.607 57.5138 223.422 57.6996 223.192 57.6996H221.702V52.7959H222.037H222.045Z" fill="black"/>
<path d="M220.818 52.6696H222.38V57.5734H220.889C220.66 57.5734 220.474 57.3876 220.474 57.1584V52.6696H220.809H220.818ZM221.71 53.5885C221.71 53.451 221.599 53.3395 221.461 53.3395H221.402C221.264 53.3395 221.153 53.451 221.153 53.5885V56.6545C221.153 56.792 221.264 56.9035 221.402 56.9035H221.461C221.599 56.9035 221.71 56.792 221.71 56.6545V53.5885Z" fill="black"/>
<path d="M220.818 52.7959H222.38V57.6996H220.889C220.66 57.6996 220.474 57.5138 220.474 57.2847V52.7959H220.809H220.818ZM221.71 53.7147C221.71 53.5772 221.599 53.4657 221.461 53.4657H221.402C221.264 53.4657 221.153 53.5772 221.153 53.7147V56.7808C221.153 56.9183 221.264 57.0298 221.402 57.0298H221.461C221.599 57.0298 221.71 56.9183 221.71 56.7808V53.7147Z" fill="black"/>
<path d="M248.713 86.824H222.964V91.118H248.713V86.824Z" fill="#FFBE0A"/>
</svg>
