<svg width="460" height="460" viewBox="0 0 460 460" fill="none" xmlns="http://www.w3.org/2000/svg">
<rect width="460" height="460" fill="white"/>
<rect x="30.5" y="71.5" width="406" height="356" rx="18.5" fill="white" stroke="#18292D" stroke-width="3"/>
<path d="M106 426.097L123.839 335.248C129.089 318.764 144.454 307.621 161.758 307.74L245.877 308.382C263.36 308.516 278.666 320.137 283.499 336.934L301 426.097" fill="#96D8E8"/>
<path d="M161.314 293.97C174.619 293.508 185.031 282.347 184.568 269.041C184.106 255.735 172.945 245.324 159.639 245.786C146.334 246.249 135.922 257.41 136.385 270.715C136.847 284.021 148.008 294.432 161.314 293.97Z" fill="#18292D"/>
<path d="M249.344 277.451C271.703 255.093 271.703 218.842 249.344 196.484C226.985 174.125 190.735 174.125 168.376 196.484C146.018 218.842 146.018 255.093 168.376 277.451C190.735 299.81 226.985 299.81 249.344 277.451Z" fill="#18292D"/>
<path d="M215.891 273.842C218.416 258.184 207.77 243.445 192.113 240.92C176.456 238.396 161.716 249.042 159.192 264.699C156.667 280.356 167.313 295.095 182.97 297.62C198.627 300.145 213.366 289.499 215.891 273.842Z" fill="#18292D"/>
<path d="M263.81 273.856C266.335 258.199 255.689 243.459 240.032 240.935C224.375 238.41 209.636 249.056 207.111 264.713C204.586 280.37 215.232 295.109 230.889 297.634C246.547 300.159 261.286 289.513 263.81 273.856Z" fill="#18292D"/>
<path d="M177.596 255.994C185.557 245.323 183.359 230.218 172.687 222.258C162.015 214.298 146.911 216.496 138.951 227.168C130.99 237.839 133.188 252.944 143.86 260.904C154.532 268.864 169.636 266.666 177.596 255.994Z" fill="#18292D"/>
<path d="M278.878 272.099C280.092 258.841 270.327 247.11 257.069 245.896C243.811 244.682 232.079 254.446 230.866 267.705C229.652 280.963 239.416 292.695 252.674 293.908C265.933 295.122 277.664 285.358 278.878 272.099Z" fill="#18292D"/>
<path d="M276.962 255.133C284.455 244.128 281.608 229.133 270.603 221.64C259.598 214.147 244.603 216.994 237.11 227.999C229.617 239.004 232.464 253.999 243.469 261.492C254.473 268.985 269.469 266.138 276.962 255.133Z" fill="#18292D"/>
<path d="M235.286 307.218C235.39 306.248 235.465 305.264 235.465 304.279V229.767H183.18V304.279C183.18 305.279 183.254 306.248 183.359 307.218H163.444C171.35 323.672 188.177 335.039 207.659 335.039C227.141 335.039 243.968 323.672 251.874 307.218H235.301H235.286Z" fill="white" stroke="#18292D" stroke-width="2.60051" stroke-linecap="round" stroke-linejoin="round"/>
<path d="M261.347 237.479C259.348 237.479 257.468 238.016 255.842 238.941C253.202 215.998 233.72 198.172 210.061 198.172C186.402 198.172 167.74 215.253 164.458 237.494C164.324 237.494 164.19 237.479 164.056 237.479C157.895 237.479 152.897 242.477 152.897 248.638C152.897 254.798 157.895 259.796 164.056 259.796C164.906 259.796 165.741 259.691 166.547 259.512C172.842 277.488 189.937 290.376 210.061 290.376C230.184 290.376 248.682 276.399 254.291 257.275C256.215 258.856 258.676 259.796 261.361 259.796C267.522 259.796 272.52 254.798 272.52 248.638C272.52 242.477 267.522 237.479 261.361 237.479H261.347Z" fill="white" stroke="#18292D" stroke-width="2.60051" stroke-linecap="round" stroke-linejoin="round"/>
<path d="M208.852 179.704C187.685 179.704 169.202 191.206 159.297 208.301C165.562 213.313 173.483 216.312 182.135 216.312C202.05 216.312 218.25 200.38 218.683 180.57C215.491 180.018 212.209 179.719 208.852 179.719V179.704Z" fill="#18292D"/>
<path d="M200.618 244.998C200.618 244.998 212.239 247.907 215.863 247.176" stroke="#18292D" stroke-width="2.60051" stroke-linecap="round" stroke-linejoin="round"/>
<path d="M192.965 241.03C202.003 241.03 209.33 233.703 209.33 224.665C209.33 215.628 202.003 208.301 192.965 208.301C183.928 208.301 176.601 215.628 176.601 224.665C176.601 233.703 183.928 241.03 192.965 241.03Z" stroke="#FFC31F" stroke-width="2.60051" stroke-linecap="round" stroke-linejoin="round"/>
<path d="M237.255 241.03C246.293 241.03 253.619 233.703 253.619 224.665C253.619 215.628 246.293 208.301 237.255 208.301C228.217 208.301 220.891 215.628 220.891 224.665C220.891 233.703 228.217 241.03 237.255 241.03Z" stroke="#FFC31F" stroke-width="2.60051" stroke-linecap="round" stroke-linejoin="round"/>
<path d="M176.646 226.127L165.756 237.017" stroke="#FFC31F" stroke-width="2.60051" stroke-linecap="round" stroke-linejoin="round"/>
<path d="M210.061 224.665H220.219" stroke="#FFC31F" stroke-width="2.60051" stroke-linecap="round" stroke-linejoin="round"/>
<path d="M202.02 222.025C202.02 224.636 200.23 226.739 198.022 226.739C195.815 226.739 194.025 224.621 194.025 222.025C194.025 219.429 195.815 217.311 198.022 217.311C200.23 217.311 202.02 219.429 202.02 222.025Z" fill="#18292D"/>
<path d="M243.595 221.473C243.595 224.084 241.805 226.187 239.597 226.187C237.389 226.187 235.599 224.069 235.599 221.473C235.599 218.878 237.389 216.759 239.597 216.759C241.805 216.759 243.595 218.878 243.595 221.473Z" fill="#18292D"/>
<path d="M299.997 263.048L293.255 241.418C292.882 240.224 291.942 239.314 290.748 238.971C289.555 238.628 288.272 238.912 287.318 239.717C284.767 241.895 283.469 245.207 283.857 248.533L284.871 257.424L282.454 259.945L283.573 248.921C283.573 248.772 283.573 248.638 283.543 248.489L278.74 230.707C278.457 229.663 277.726 228.813 276.726 228.395C275.727 227.962 274.608 228.022 273.668 228.529C271.49 229.708 269.879 231.751 269.238 234.138L269.088 234.72L265.15 226.5C264.912 225.993 264.345 225.725 263.808 225.859C261.943 226.306 258.825 228.201 257.856 232.303C257.557 232.154 257.229 232.035 256.871 232.005C255.887 231.915 254.962 232.348 254.38 233.153C252.217 236.182 251.531 239.986 252.485 243.566L254.753 252.054L250.322 268.866L230.751 278.935C222.546 283.156 216.55 290.69 214.297 299.64L192.456 396.437C192.367 396.795 184.883 431.146 184.883 431.146L236 433.67L241.821 391.712L255.23 301.833L299.639 264.331C299.997 264.017 300.146 263.525 300.012 263.078L299.997 263.048Z" fill="white"/>
<path d="M236 433.67L254.096 301.191L298.848 263.391L292.106 241.761C291.569 240.03 289.436 239.419 288.063 240.597C285.811 242.522 284.677 245.445 285.005 248.384L286.094 257.827L280.754 263.391" stroke="#18292D" stroke-width="2.60051" stroke-linecap="round" stroke-linejoin="round"/>
<path d="M280.083 271.506L282.395 248.787L277.591 231.005C277.204 229.544 275.548 228.842 274.22 229.558C272.326 230.588 270.938 232.348 270.371 234.421L269.626 237.196" stroke="#18292D" stroke-width="2.60051" stroke-linecap="round" stroke-linejoin="round"/>
<path d="M271.968 272.669L275.22 250.174L264.091 226.978C264.091 226.978 258.288 228.365 258.751 235.794" stroke="#18292D" stroke-width="2.60051" stroke-linecap="round" stroke-linejoin="round"/>
<path d="M184.883 430.514L215.446 299.894C217.624 291.286 223.397 284.022 231.288 279.964L251.337 269.656L255.976 252.039L253.634 243.238C252.769 240.001 253.395 236.54 255.35 233.81C256.051 232.84 257.542 232.974 258.05 234.063L267.119 253.426L263.867 273.371" stroke="#18292D" stroke-width="2.60051" stroke-linecap="round" stroke-linejoin="round"/>
<path d="M126.401 418.862C126.401 418.862 171.102 397.064 184.032 397.663C196.962 398.261 205.485 398.261 214.443 403.429C214.443 403.429 228.552 411.844 232.287 417.465C236.023 423.087 239.106 428.382 238.453 431.537C237.8 434.693 236.857 436.67 233.339 436.18C229.821 435.708 230.547 438.592 229.513 439.607C228.479 440.623 226.648 442.164 223.71 440.786C220.065 439.081 214.679 434.475 212.376 431.592C210.073 428.727 206.265 427.385 203.526 424.447C200.788 421.527 198.485 420.276 198.267 421.872C198.05 423.468 199.084 435.69 198.612 440.732C198.159 445.773 198.394 444.667 195.384 445.7C193.027 446.498 190.343 441.602 189.092 438.048C187.641 433.895 186.788 424.247 185.555 423.377C184.322 422.507 152.206 430.304 126.401 418.843V418.862Z" fill="white"/>
<path d="M124.932 419.605C130.681 417.846 180.151 387.199 208.84 400.328C233.901 411.789 236.041 423.468 237.655 426.496C239.432 429.833 240.194 437.631 231.09 435.056" stroke="#18292D" stroke-width="2.60051" stroke-linecap="round" stroke-linejoin="round"/>
<path d="M205.974 410.629C205.974 410.629 229.748 430.05 230.601 436.234C231.453 442.418 222.241 440.605 220.409 438.447C218.559 436.289 197.796 417.048 193.208 415.307" stroke="#18292D" stroke-width="2.60051" stroke-linecap="round" stroke-linejoin="round"/>
<path d="M198.848 420.113C198.848 420.113 199.011 437.903 198.467 441.076C197.923 444.25 195.203 446.027 193.77 445.048C192.337 444.068 185.12 422.742 185.12 422.742C185.12 422.742 173.26 425.626 155.162 424.846" stroke="#18292D" stroke-width="2.60051" stroke-linecap="round" stroke-linejoin="round"/>
<path d="M320.501 51.3196C320.501 46.9013 316.919 43.3196 312.501 43.3196H205C200.582 43.3196 197 46.9013 197 51.3196V121.396C197 125.815 200.582 129.396 205 129.396H252.618C257.036 129.396 260.618 132.978 260.618 137.396V147.027C260.618 148.809 262.772 149.701 264.032 148.441L280.734 131.74C282.234 130.239 284.269 129.396 286.391 129.396H312.501C316.919 129.396 320.501 125.815 320.501 121.396V51.3196Z" fill="#18292D"/>
<path d="M223.017 75.9206H271.67" stroke="white" stroke-width="2.60051"/>
<path d="M223.017 94.6324H271.67" stroke="white" stroke-width="2.60051"/>
<path d="M371.631 17.038C376.049 17.038 379.631 20.6197 379.631 25.038V91.3678C379.631 95.7861 376.049 99.3678 371.631 99.3678H366.756C362.338 99.3678 358.756 102.95 358.756 107.368V116.997C358.756 118.779 356.601 119.671 355.341 118.41L338.652 101.712C337.152 100.211 335.116 99.3678 332.994 99.3678H297.819C293.4 99.3678 289.819 95.7861 289.819 91.3678V25.038C289.819 20.6197 293.4 17.038 297.819 17.038H371.631Z" fill="#96D8E8"/>
<path d="M344.465 39.8044H324.855V81.8144H344.465V39.8044Z" fill="#18292D" stroke="#18292D" stroke-width="2.60051"/>
<path d="M330.458 39.8043H316.45" stroke="#18292D" stroke-width="2.60051"/>
<path d="M338.862 81.8145H352.857" stroke="#18292D" stroke-width="2.60051"/>
<path d="M333.259 31.4117C339.448 31.4117 344.465 26.3946 344.465 20.2058C344.465 14.017 339.448 9 333.259 9C327.07 9 322.053 14.017 322.053 20.2058C322.053 26.3946 327.07 31.4117 333.259 31.4117Z" fill="#18292D" stroke="#18292D" stroke-width="2.60051"/>
<path d="M364.182 254.142L348.591 249.071L333 244L338.059 259.591L343.13 275.194L348.615 264.52L356.937 272.854L361.842 267.937L353.52 259.615L364.182 254.142Z" fill="white" stroke="#18292D" stroke-width="2.60051" stroke-linecap="round" stroke-linejoin="round"/>
<circle cx="71.5" cy="105.5" r="6" stroke="#18292D" stroke-width="3"/>
<circle cx="94.5" cy="105.5" r="6" stroke="#18292D" stroke-width="3"/>
<circle cx="117.5" cy="105.5" r="6" stroke="#18292D" stroke-width="3"/>
</svg>
