<svg width="460" height="460" viewBox="0 0 460 460" fill="none" xmlns="http://www.w3.org/2000/svg">
<rect width="460" height="460" fill="white"/>
<path d="M132.83 91.3513C167.633 69.0564 255.014 35.1156 326.102 77.7126" stroke="black" stroke-width="1.3" stroke-linecap="round" stroke-dasharray="5 5"/>
<path d="M333.947 102.012C332.381 104.313 332.342 107.726 331.69 110.351C330.468 115.276 328.952 120.153 326.758 124.74C323.385 131.789 317.394 142.41 308.493 142.02C304.36 141.839 300.606 139.965 297.324 137.522C294.421 135.361 293.473 133.333 293.047 129.787C292.501 125.245 294.816 119.223 300.33 121.348C315.913 127.352 303.918 146.4 298.336 155.55C295.487 160.22 292.017 164.34 288.581 168.583C286.489 171.167 281.096 176.943 278.234 178.69C275.954 180.081 277.416 178.671 275.043 179.749" stroke="black" stroke-width="0.990282" stroke-linecap="round" stroke-linejoin="round" stroke-dasharray="2.33 2.33"/>
<circle cx="91" cy="99" r="49.5" fill="white" stroke="#18292D"/>
<g clip-path="url(#clip0_931_8648)">
<path d="M75.6194 126.102L91.4157 99.6948L108.816 126.102" stroke="#18292D" stroke-width="1.20475" stroke-linecap="round" stroke-linejoin="round"/>
<path d="M91.7574 91.6064V126.102" stroke="#18292D" stroke-width="1.20475" stroke-linecap="round" stroke-linejoin="round"/>
<path d="M115.687 108.353H67.1382C66.238 108.353 65.5027 107.567 65.5027 106.597V73.1221C65.5027 72.1522 66.238 71.3599 67.1382 71.3599H115.687C116.587 71.3599 117.323 72.1459 117.323 73.1157V106.597C117.323 107.567 116.594 108.353 115.687 108.353Z" fill="#18292D" stroke="#18292D" stroke-width="1.20475" stroke-linecap="round" stroke-linejoin="round"/>
<path d="M67.7276 104.024V75.6957C67.7276 74.6815 68.4946 73.8574 69.439 73.8574H113.392C114.337 73.8574 115.104 74.6815 115.104 75.6957V104.024C115.104 105.038 114.337 105.862 113.392 105.862H69.4327C68.4882 105.862 67.7212 105.038 67.7212 104.024H67.7276Z" fill="white" stroke="#18292D" stroke-width="1.20475" stroke-linecap="round" stroke-linejoin="round"/>
<path d="M92.3485 83.0537C88.9596 83.0537 86.2168 85.8206 86.2168 89.2417C86.2168 92.6552 88.9671 95.4297 92.3485 95.4297C95.7375 95.4297 98.4803 92.6627 98.4803 89.2417C98.4803 85.8281 95.73 83.0537 92.3485 83.0537ZM90.5751 91.9936V86.4823L95.3092 89.2342L90.5751 91.9861V91.9936Z" fill="#FFC31F"/>
</g>
<circle cx="369" cy="80" r="49.5" fill="white" stroke="#18292D"/>
<g clip-path="url(#clip1_931_8648)">
<path d="M393.142 52.6035H363.721C362.974 52.6035 362.368 53.2093 362.368 53.9565V54.5356C362.368 55.2829 362.974 55.8886 363.721 55.8886H393.142C393.89 55.8886 394.495 55.2829 394.495 54.5356V53.9565C394.495 53.2093 393.89 52.6035 393.142 52.6035Z" fill="#18292D" stroke="#18292D" stroke-width="1.3" stroke-linecap="round" stroke-linejoin="round"/>
<path d="M367.111 74.6353L371.285 69.0886C371.355 68.9937 371.465 68.9288 371.585 68.9188C371.704 68.9038 371.824 68.9388 371.914 69.0187L373.976 70.7561L377.281 66.088C377.421 65.8933 377.69 65.8434 377.885 65.9832L381.68 68.6143L388.325 60.8408" stroke="#FFC31F" stroke-width="1.3" stroke-linecap="round" stroke-linejoin="round"/>
<path d="M389.932 58.5845L386.408 60.6314L388.854 62.5186L389.932 58.5845L386.408 60.6314L388.854 62.5186L389.932 58.5845Z" fill="white"/>
<path d="M389.932 58.5845L386.408 60.6314L388.854 62.5186L389.932 58.5845ZM389.932 58.5845L386.408 60.6314L388.854 62.5186L389.932 58.5845Z" stroke="#FFC31F" stroke-width="1.3" stroke-linecap="round" stroke-linejoin="round"/>
<path d="M393.287 55.8882H363.771V77.1716H393.287V55.8882Z" stroke="#18292D" stroke-width="1.3" stroke-linecap="round" stroke-linejoin="round"/>
<path d="M352.713 85.1252V104.511C352.713 106.104 354.001 107.392 355.594 107.392C357.186 107.392 358.474 106.104 358.474 104.511L358.31 85.1252L358.03 71.3457C358.584 72.1745 359.163 72.9883 359.792 73.7771L359.822 73.817C360.237 74.3313 360.861 74.6308 361.52 74.6308C362.189 74.6308 362.818 74.3263 363.232 73.7971L369.568 65.734C370.307 64.7954 370.227 63.4125 369.308 62.6486C368.36 61.8548 366.952 62.0096 366.198 62.9731L361.59 68.8344C361.125 68.1405 360.666 67.4115 360.192 66.6477C359.143 64.9652 357.511 63.9367 355.059 63.9667C355.029 63.9667 354.994 63.9667 354.964 63.9667L349.118 64.0465C344.785 64.0266 343.017 66.1135 342.967 68.7446C342.967 68.8444 342.932 83.8322 342.932 83.8322C342.907 85.0354 343.861 86.0289 345.064 86.0589C345.079 86.0589 345.094 86.0589 345.114 86.0589C345.873 86.0589 346.547 85.6644 346.936 85.0703" fill="white"/>
<path d="M352.713 85.1252V104.511C352.713 106.104 354.001 107.392 355.594 107.392C357.186 107.392 358.474 106.104 358.474 104.511L358.31 85.1252L358.03 71.3457C358.584 72.1745 359.163 72.9883 359.792 73.7771L359.822 73.817C360.237 74.3313 360.861 74.6308 361.52 74.6308C362.189 74.6308 362.818 74.3263 363.232 73.7971L369.568 65.734C370.307 64.7954 370.227 63.4125 369.308 62.6486C368.36 61.8548 366.952 62.0096 366.198 62.9731L361.59 68.8344C361.125 68.1405 360.666 67.4115 360.192 66.6477C359.143 64.9652 357.511 63.9367 355.059 63.9667C355.029 63.9667 354.994 63.9667 354.964 63.9667L349.118 64.0465C344.785 64.0266 343.017 66.1135 342.967 68.7446C342.967 68.8444 342.932 83.8322 342.932 83.8322C342.907 85.0354 343.861 86.0289 345.064 86.0589C345.079 86.0589 345.094 86.0589 345.114 86.0589C345.873 86.0589 346.547 85.6644 346.936 85.0703" stroke="#18292D" stroke-width="1.3" stroke-linecap="round" stroke-linejoin="round"/>
<path d="M351.734 62.1747C354.376 62.1747 356.517 60.0333 356.517 57.3918C356.517 54.7503 354.376 52.6089 351.734 52.6089C349.093 52.6089 346.951 54.7503 346.951 57.3918C346.951 60.0333 349.093 62.1747 351.734 62.1747Z" fill="white" stroke="#18292D" stroke-width="1.3" stroke-linecap="round" stroke-linejoin="round"/>
<path d="M352.713 85.1255V104.512C352.713 106.104 351.425 107.392 349.832 107.392C348.24 107.392 346.951 106.104 346.951 104.512V85.1255" fill="white"/>
<path d="M352.713 85.1255V104.512C352.713 106.104 351.425 107.392 349.832 107.392C348.24 107.392 346.951 106.104 346.951 104.512V85.1255" stroke="#18292D" stroke-width="1.3" stroke-linecap="round" stroke-linejoin="round"/>
<path d="M346.951 71.875V85.1253" stroke="#18292D" stroke-width="1.3" stroke-linecap="round" stroke-linejoin="round"/>
</g>
<path d="M226.684 203.047C255.697 200.769 283.554 210.185 303.26 223.007C323.161 236.083 334.905 252.568 336.188 270.184C337.48 287.97 328.558 304.863 315.34 321.55C301.943 337.985 284.249 354.215 263.97 364.734C224.775 386.73 179.865 368.925 158.457 315.768C137.027 262.947 167.027 206.081 226.684 203.047Z" fill="#F2F7F8"/>
<path d="M276.59 263.84C276.078 261.485 274.531 256.364 272.355 254.218L272.163 254.037C272.227 254.095 272.292 254.155 272.355 254.218L277.222 258.78L278.487 250.243L279.752 258.78L285.127 254.037C283.441 256.672 280.131 262.322 280.384 263.84C280.7 265.737 281.649 267.635 278.487 267.951C275.325 268.267 275.641 264.789 276.59 263.84Z" fill="#FFC31F"/>
<circle cx="330.978" cy="403.923" r="26.8783" fill="#18292D"/>
<circle cx="225.995" cy="403.923" r="26.8783" fill="#18292D"/>
<circle cx="225.678" cy="403.607" r="23.3999" fill="white"/>
<circle cx="331.294" cy="403.607" r="23.3999" fill="white"/>
<path d="M208.603 297.991C222.77 249.926 261.095 258.78 278.487 269.216C289.365 258.338 310.635 260.256 319.911 262.575C346.726 272.694 351.111 304.315 349.951 318.861C346.663 351.242 315.905 365.661 300.938 368.823C275.641 382.42 190.895 358.072 208.603 297.991Z" fill="white"/>
<path d="M284.178 273.327C280.384 274.844 274.797 273.959 272.478 273.327C254.517 299.889 256.351 328.664 259.514 339.732C277.728 346.815 292.189 342.683 297.143 339.732C304.226 310.387 291.451 283.235 284.178 273.327Z" fill="#96D8E8"/>
<path d="M255.087 340.364C245.727 307.477 260.041 281.126 268.368 272.061C253.19 266.496 243.281 270.586 240.225 273.326C212.145 286.987 217.984 316.331 224.414 329.296C237.821 344.475 250.449 342.999 255.087 340.364Z" fill="#96D8E8"/>
<path d="M302.835 340.364C312.195 307.477 297.881 281.126 289.554 272.061C304.732 266.496 314.641 270.586 317.697 273.326C345.777 286.987 339.938 316.331 333.508 329.296C320.101 344.475 307.473 342.999 302.835 340.364Z" fill="#96D8E8"/>
<path d="M223.507 430.878C217.357 430.332 211.429 427.547 206.97 423.097C199.154 415.306 196.91 403.626 201.276 393.446C205.032 384.684 213.239 378.569 222.814 377.389C224.449 377.191 229.003 377.295 230.45 377.568C237.626 378.925 243.845 382.801 247.632 388.282C248.177 389.07 248.678 389.749 248.747 389.789C248.955 389.923 250.035 392.004 250.65 393.471C252.087 396.895 252.671 399.631 252.766 403.358C252.86 407.02 252.473 409.617 251.334 412.932C249.034 419.627 243.964 425.287 237.497 428.364C234.647 429.721 231.352 430.604 228.09 430.886C226.302 431.04 225.37 431.04 223.506 430.877L223.507 430.878ZM229.162 429.644C243.543 427.766 253.515 414.633 251.429 400.32C251.017 397.505 250.155 394.888 248.703 392.064C247.677 390.052 246.884 388.892 245.363 387.173C239.853 380.918 231.665 377.648 223.548 378.45C211.376 379.655 201.876 388.946 200.365 401.128C200.166 402.724 200.196 405.727 200.424 407.482C201.406 414.975 205.717 421.724 212.16 425.852C215.144 427.761 219.485 429.297 223.042 429.703C224.668 429.887 227.522 429.857 229.163 429.644H229.162ZM223.433 427.616C214.106 426.541 206.177 420.089 203.377 411.297C200.126 401.084 203.942 390.117 212.803 384.195C219.791 379.521 228.775 378.902 236.348 382.569C242.875 385.731 247.597 391.693 249.184 398.78C249.724 401.194 249.912 403.736 249.704 405.788C249.362 409.118 248.678 411.616 247.37 414.312C244.01 421.201 237.751 425.972 230.243 427.36C228.548 427.672 225.05 427.806 223.434 427.617L223.433 427.616ZM226.58 416.531V406.491L226.263 406.531C226.05 406.56 223.621 408.791 218.948 413.261C215.103 416.938 211.723 420.149 211.435 420.397L210.919 420.843L211.574 421.418C214.974 424.416 220.524 426.517 225.172 426.557L226.58 426.567V416.532V416.531ZM230.45 426.154C238.909 424.5 245.803 417.957 247.944 409.552C248.257 408.328 248.603 406.069 248.608 405.226L248.613 404.672H229.459L229.325 405.023C229.251 405.211 229.211 405.439 229.231 405.528C229.251 405.613 232.175 408.671 235.728 412.318C240.832 417.566 242.186 419.028 242.186 419.29C242.186 419.682 241.888 419.84 241.462 419.672C241.298 419.607 238.29 416.585 234.771 412.957C229.221 407.238 228.329 406.365 228.036 406.4L227.694 406.44L227.659 416.342C227.644 421.783 227.654 426.318 227.689 426.407C227.767 426.61 228.457 426.546 230.449 426.154H230.45ZM210.885 419.435C211.261 419.043 214.339 416.084 217.729 412.858C221.119 409.632 224.142 406.753 224.445 406.456L224.999 405.915L224.707 405.296L224.419 404.672H203.372V405.212C203.372 405.509 203.466 406.377 203.575 407.145C204.155 411.066 205.572 414.5 207.901 417.587C208.595 418.508 210.027 420.144 210.141 420.144C210.176 420.144 210.508 419.827 210.885 419.436V419.435ZM224.845 403.18C224.975 402.892 224.761 402.645 221.684 399.474C219.871 397.6 216.59 394.216 214.389 391.945C212.189 389.681 210.326 387.803 210.241 387.783C210.013 387.723 208.184 389.879 207.154 391.415C205.013 394.612 203.66 398.546 203.412 402.278L203.333 403.492H224.702L224.845 403.179V403.18ZM248.568 402.279C248.394 399.632 247.582 396.599 246.388 394.122C245.848 393.006 244.461 390.777 243.712 389.82C243.538 389.602 243.464 389.652 242.691 390.46C242.23 390.945 239.054 394.023 235.629 397.304C232.205 400.585 229.38 403.32 229.355 403.38C229.33 403.444 233.662 403.494 238.979 403.494H248.647L248.568 402.28V402.279ZM233.929 397.377C240.629 390.974 242.245 389.463 242.681 389.175L243.027 388.947L241.903 387.852C239.821 385.815 237.472 384.244 234.91 383.159C232.71 382.227 230.138 381.559 228.284 381.435L227.694 381.395L227.659 391.644L227.63 401.893L228.056 402.156C228.289 402.305 228.517 402.429 228.557 402.434C228.597 402.438 231.015 400.164 233.929 397.379V397.377ZM226.326 402.045C226.574 401.911 226.579 401.658 226.579 391.618V381.331H225.494C222.516 381.331 219.057 382.168 216.094 383.606C214.706 384.275 212.535 385.658 211.569 386.49L211.049 386.941L215.578 391.575C218.066 394.127 221.401 397.557 222.982 399.197C224.562 400.833 225.906 402.175 225.965 402.181C226.025 402.181 226.189 402.121 226.327 402.047L226.326 402.045ZM329.312 430.947C322.414 430.392 316.427 427.596 311.734 422.75C304.593 415.375 302.303 404.696 305.773 394.968C306.402 393.199 307.711 390.483 308.28 389.769C308.499 389.492 309.058 388.718 309.53 388.05C310.001 387.386 310.898 386.295 311.522 385.636C315.541 381.404 320.581 378.693 326.523 377.577C328.01 377.295 332.539 377.186 334.2 377.389C342.079 378.361 349.012 382.623 353.433 389.199C354.439 390.696 356.01 393.922 356.58 395.657C357.557 398.61 358.052 402.178 357.913 405.142C357.486 414.023 352.987 421.922 345.638 426.68C344.295 427.547 341.242 429.034 339.83 429.51C338.244 430.04 336.495 430.466 335.003 430.689C333.595 430.898 330.469 431.036 329.314 430.947H329.312ZM333.807 429.708C335.492 429.525 337.757 429.015 339.392 428.45C353.957 423.429 360.885 406.947 354.284 393.031C348.148 380.086 332.524 374.65 319.718 380.993C315.862 382.902 312.775 385.484 310.163 388.977C308.969 390.573 307.304 393.883 306.58 396.088C303.498 405.489 306.07 415.787 313.215 422.645C317.255 426.526 322.155 428.885 327.741 429.643C329.362 429.861 332.117 429.891 333.807 429.707V429.708ZM328.371 427.607C325.566 427.28 322.662 426.382 320.07 425.045C317.761 423.856 316.21 422.706 314.232 420.733C312.26 418.761 311.115 417.21 309.92 414.901C308.433 412.017 307.671 409.37 307.313 405.851C306.838 401.228 308.161 395.717 310.758 391.495C313.637 386.807 318.256 383.15 323.48 381.41C330.452 379.091 338.104 380.122 344.2 384.196C347.748 386.57 350.493 389.711 352.361 393.537C356.479 401.962 355.256 412.007 349.225 419.247C344.229 425.249 336.102 428.505 328.371 427.608V427.607ZM329.312 416.472V406.441L328.975 406.401C328.693 406.366 328.038 406.987 324.466 410.664C315.868 419.505 315.624 419.753 315.208 419.753C314.866 419.753 314.827 419.703 314.827 419.351C314.827 418.999 315.595 418.162 321.15 412.457C324.629 408.889 327.558 405.836 327.657 405.682C327.787 405.464 327.796 405.306 327.692 405.034L327.554 404.672H308.36L308.445 405.861C308.638 408.552 309.426 411.322 310.769 414.047C311.943 416.426 313.083 418.002 315.026 419.945C315.889 420.812 317.161 421.917 317.841 422.408C319.947 423.905 323.024 425.307 325.696 425.981C326.697 426.233 328.689 426.555 329.056 426.526C329.313 426.501 329.313 426.407 329.313 416.471L329.312 416.472ZM335.477 426.175C339.095 425.413 343.055 423.519 345.438 421.413L346.093 420.834L345.642 420.458C345.389 420.25 342.009 417.044 338.124 413.326C333.461 408.871 330.953 406.562 330.745 406.533L330.427 406.493V426.608L332.296 426.529C333.382 426.484 334.714 426.336 335.477 426.177V426.175ZM347.951 418.995C351.177 415.322 353.194 410.594 353.58 405.817L353.674 404.673H332.538L332.265 405.287L331.993 405.907L332.489 406.392C332.761 406.654 335.938 409.683 339.541 413.117C343.144 416.551 346.246 419.539 346.424 419.752C346.608 419.965 346.791 420.143 346.845 420.143C346.895 420.143 347.39 419.627 347.95 418.994L347.951 418.995ZM327.652 403.384C327.632 403.325 324.891 400.679 321.576 397.502C318.261 394.326 315.084 391.243 314.509 390.658C313.944 390.068 313.463 389.603 313.454 389.623C313.444 389.643 313.166 390.014 312.839 390.445C310.331 393.796 308.717 398.112 308.449 402.161L308.359 403.494H318.028C323.346 403.494 327.676 403.444 327.652 403.384ZM353.585 402.249C353.323 398.438 352.024 394.696 349.843 391.421C348.822 389.88 346.993 387.724 346.761 387.784C346.676 387.808 344.749 389.741 342.479 392.085C331.041 403.879 332.008 402.839 332.167 403.181L332.305 403.494H353.674L353.585 402.25V402.249ZM328.915 402.17L329.381 401.893L329.345 391.644L329.31 381.395L328.656 381.44C326.574 381.583 323.457 382.466 321.167 383.566C318.887 384.661 315.84 386.892 314.447 388.472L314.011 388.973L314.358 389.196C314.754 389.459 316.088 390.707 323.204 397.507C326.049 400.223 328.388 402.443 328.413 402.443C328.428 402.443 328.656 402.32 328.913 402.17H328.915ZM336.066 397.066C338.753 394.292 342.077 390.892 343.445 389.509C344.813 388.131 345.898 386.936 345.849 386.862C345.681 386.585 343.624 385.112 342.409 384.404C339.223 382.526 334.985 381.336 331.511 381.332H330.425V391.619C330.425 401.278 330.441 401.913 330.658 402.041C330.782 402.115 330.946 402.165 331.03 402.146C331.104 402.131 333.368 399.846 336.064 397.066H336.066ZM277.484 392.978C277.142 392.531 276.682 391.952 276.458 391.699C276.235 391.442 275.244 390.188 274.253 388.909C272.151 386.198 270.135 384.043 268.266 382.496C262.503 377.728 254.896 374.349 242.972 371.247C235.157 369.22 228.565 368.428 222.123 368.75C216.726 369.018 214.596 369.458 201.993 372.917C195.585 374.676 192.309 375.276 188.543 375.394C185.753 375.479 184.523 375.345 182.719 374.77C178.715 373.487 175.727 369.854 175.157 365.587C174.672 361.93 176.584 358.258 179.612 357.053C180.207 356.816 180.623 356.756 181.669 356.751C182.849 356.746 183.057 356.786 183.73 357.113C185.242 357.857 186.169 359.368 186.292 361.295C186.346 362.153 186.312 362.391 186.064 362.911C185.212 364.666 182.724 364.686 181.882 362.941C181.49 362.138 181.515 361.394 181.951 360.879C182.546 360.171 183.289 360.577 182.892 361.395C182.63 361.94 182.729 362.381 183.205 362.783C183.864 363.338 184.711 363.14 185.093 362.342C185.281 361.94 185.292 361.768 185.158 361.034C184.984 360.082 184.539 359.121 184.073 358.69C183.513 358.164 182.537 357.823 181.61 357.827C180.366 357.837 179.415 358.239 178.398 359.185C174.696 362.649 175.91 369.448 180.792 372.604C183.037 374.062 185.832 374.582 189.604 374.259C193.569 373.922 196.299 373.338 204.422 371.083C215.181 368.099 217.975 367.629 224.809 367.633C231.296 367.638 235.276 368.159 242.338 369.933C252.987 372.604 260.451 375.598 266.116 379.468C269.788 381.98 272.489 384.667 276.012 389.324C276.473 389.934 276.949 390.529 277.067 390.648C277.186 390.771 277.539 391.202 277.845 391.609C278.152 392.016 278.445 392.347 278.494 392.347C278.539 392.347 278.816 392.04 279.098 391.668C279.386 391.292 279.713 390.895 279.827 390.781C279.946 390.667 280.65 389.779 281.393 388.803C284.749 384.417 287.46 381.756 291.022 379.362C296.765 375.511 304.13 372.573 314.666 369.931C319.072 368.827 322.511 368.197 326.362 367.801C328.537 367.577 335.921 367.573 337.834 367.796C341.62 368.242 345.609 369.139 353.306 371.279C361.874 373.663 365.219 374.293 369.367 374.293C372.549 374.293 374.249 373.876 376.181 372.623C381.077 369.455 382.306 362.646 378.604 359.183C377.653 358.291 376.671 357.86 375.542 357.83C373.436 357.77 372.133 358.95 371.78 361.23C371.706 361.731 371.735 361.825 372.107 362.191C372.538 362.627 372.86 362.632 373.336 362.216C373.658 361.934 373.618 361.601 373.237 361.349C372.444 360.828 373.237 360.03 374.095 360.486C374.417 360.66 374.744 361.289 374.744 361.74C374.744 362.275 374.243 363.043 373.693 363.35C372.752 363.88 371.587 363.608 371.042 362.731C370.805 362.339 370.745 362.072 370.754 361.269C370.779 358.012 373.718 355.942 376.929 356.923C379.565 357.726 381.389 360.109 381.849 363.365C382.36 366.993 380.209 371.359 376.815 373.564C374.818 374.863 372.558 375.432 369.381 375.432C365.501 375.432 361.531 374.714 354.138 372.672C341.56 369.203 338.899 368.722 332.264 368.722C325.191 368.717 319.577 369.624 310.478 372.221C302.419 374.525 296.869 376.879 292.077 380.031C288.237 382.553 285.937 384.774 282.255 389.502C279.113 393.541 278.9 393.789 278.489 393.789C278.176 393.789 277.998 393.64 277.483 392.976L277.484 392.978ZM274.962 372.798C269.005 372.436 261.939 371.133 254.772 369.061C248.384 367.217 243.101 365.156 238.156 362.574C237.061 362.004 236.01 361.533 235.822 361.533C235.391 361.533 235.059 361.359 233.186 360.136C231.337 358.931 229.607 358.099 228.319 357.791C227.576 357.613 227.016 357.578 225.762 357.633C223.929 357.711 223.265 357.89 219.83 359.243C217.297 360.239 216.39 360.481 214.919 360.571C212.198 360.739 209.492 359.485 207.207 357.007C204.526 354.093 203.852 350.853 205.299 347.785C206.211 345.842 208.827 344.221 211.037 344.226C213.079 344.231 215.056 345.495 215.7 347.204C216.097 348.275 216.033 349.885 215.542 350.931C214.878 352.358 213.619 353.245 212.102 353.369C210.68 353.483 209.56 352.933 208.96 351.838C208.573 351.129 208.533 350.812 208.786 350.46C209.054 350.099 209.42 350.302 209.797 351.006C210.257 351.878 210.818 352.22 211.784 352.22C212.75 352.22 213.36 351.927 214.024 351.189C215.213 349.876 215.168 347.78 213.919 346.535C213.072 345.688 212.14 345.361 210.758 345.431C209.875 345.48 209.533 345.564 208.795 345.926C206.779 346.917 205.708 348.696 205.713 351.03C205.713 353.003 206.614 354.846 208.483 356.68C210.376 358.544 211.941 359.306 214.078 359.405C215.777 359.484 216.555 359.296 219.767 358.042C223.281 356.674 224.014 356.495 226.249 356.491L228.088 356.486L226.972 355.648C223.474 353.022 218.86 348.606 216.689 345.796C212.427 340.29 209.285 333.655 207.843 327.113C206.907 322.87 206.386 317.573 206.386 312.305C206.386 308.534 206.515 306.562 206.976 303.38C207.893 297.076 210.296 289.632 213.533 283.056C215.991 278.07 218.429 274.691 222.186 271.078C228.961 264.571 235.913 261.602 247.034 260.482C250.246 260.16 256.707 260.16 259.359 260.482C265.285 261.2 270.35 262.89 274.251 265.433C274.791 265.785 275.257 266.073 275.292 266.073C275.327 266.073 275.357 265.854 275.357 265.582C275.357 265.311 275.5 264.849 275.679 264.532L276.001 263.971L275.674 262.663C274.885 259.467 273.905 257.594 271.773 255.22C271.362 254.764 271.025 254.278 271.025 254.14C271.025 254.001 271.174 253.788 271.357 253.668C271.67 253.47 271.729 253.47 272.274 253.678C273.275 254.06 274.851 255.175 275.902 256.25L276.903 257.276L277.042 256.463C277.29 255.021 277.696 251.879 277.79 250.734C277.889 249.48 277.989 249.292 278.504 249.292C278.702 249.292 278.92 249.361 278.994 249.455C279.068 249.545 279.162 250.149 279.212 250.799C279.297 251.894 279.847 256.092 280.025 256.939L280.1 257.315L280.952 256.388C281.848 255.402 283.702 254.068 284.713 253.683C285.274 253.47 285.338 253.47 285.645 253.667C285.829 253.786 285.978 254 285.978 254.143C285.978 254.287 285.616 254.798 285.175 255.288C283.119 257.548 282.157 259.372 281.393 262.419L281.012 263.941L281.329 264.571C281.507 264.918 281.651 265.398 281.651 265.637C281.651 265.875 281.676 266.073 281.711 266.073C281.746 266.073 282.261 265.755 282.855 265.369C286.721 262.861 291.79 261.181 297.634 260.478C300.2 260.165 306.876 260.171 309.973 260.482C321.034 261.597 327.938 264.526 334.702 270.969C339.495 275.533 342.73 280.563 345.699 288.066C348.261 294.553 349.683 299.994 350.382 306C350.644 308.245 350.605 316.576 350.317 319.376C349.519 327.206 348.171 332.087 345.173 338.059C342.755 342.881 340.069 346.523 336.044 350.448C333.849 352.599 332.57 353.705 330.355 355.384L328.908 356.479L330.747 356.489C332.531 356.489 333.894 356.717 335.048 357.197C336.554 357.832 339.722 358.992 340.444 359.189C341.569 359.487 343.324 359.507 344.394 359.229C346.496 358.679 348.959 356.722 350.227 354.581C351.065 353.169 351.307 352.243 351.253 350.711C351.208 349.571 351.148 349.284 350.782 348.511C350.261 347.401 349.335 346.479 348.16 345.9C347.342 345.498 347.188 345.469 345.965 345.469C344.741 345.469 344.597 345.498 343.948 345.855C342.407 346.713 341.777 348.239 342.283 349.919C342.719 351.371 343.794 352.219 345.207 352.219C346.197 352.219 346.753 351.872 347.209 350.97C347.596 350.196 348.032 350.033 348.275 350.568C348.394 350.836 348.384 351.014 348.205 351.48C347.715 352.763 346.446 353.492 344.905 353.368C340.594 353.022 339.529 346.861 343.434 344.864C345.173 343.977 347.066 344.037 348.945 345.033C350.422 345.82 351.437 346.99 352.067 348.616C352.498 349.74 352.513 351.897 352.096 353.205C351.279 355.792 348.84 358.478 346.15 359.757C344.782 360.405 343.499 360.658 342.032 360.564C340.585 360.47 339.589 360.197 337.047 359.191C333.726 357.879 333.072 357.705 331.214 357.635C328.572 357.531 327.002 358.067 323.721 360.188C321.734 361.466 321.615 361.531 321.179 361.531C320.986 361.531 319.994 361.967 318.973 362.503C314.062 365.085 308.858 367.132 302.609 368.941C291.94 372.038 283.024 373.277 274.961 372.796L274.962 372.798ZM284.8 371.45C295.108 370.286 306.858 367.055 315.282 363.065C326.587 357.713 335.249 351.018 340.632 343.49C344.68 337.81 347.45 331.031 348.585 324.033C349.983 315.38 349.819 306.653 348.125 299.319C346.98 294.358 344.457 287.405 342.148 282.841C339.496 277.608 335.665 272.925 331.022 269.238C325.57 264.906 319.559 262.691 310.47 261.66C307.883 261.368 299.914 261.328 297.714 261.6C290.727 262.458 284.988 264.728 280.766 268.306C280.24 268.747 279.541 269.233 279.21 269.377C278.337 269.763 277.768 269.569 276.384 268.415C271.572 264.401 265.511 262.136 257.81 261.483C255.456 261.279 248.979 261.389 246.466 261.671C237.893 262.637 232.035 264.699 226.876 268.564C222.679 271.711 218.903 275.874 216.311 280.215C212.922 285.9 209.482 295.336 208.308 302.204C207.698 305.737 207.525 307.917 207.52 312.1C207.505 321.08 208.759 328.305 211.401 334.525C214.676 342.242 219.345 348.193 226.649 353.982C232.021 358.239 240.442 362.892 247.518 365.514C255.585 368.507 265.69 370.891 272.867 371.496C273.768 371.575 274.711 371.659 274.963 371.684C276.049 371.808 283.145 371.639 284.801 371.451L284.8 371.45ZM316.16 360.984C315.774 360.597 316.1 360.266 317.414 359.705C317.939 359.482 318.633 359.265 318.97 359.22C319.511 359.146 319.57 359.16 319.525 359.383C319.495 359.547 318.995 359.893 318.103 360.374C316.646 361.162 316.413 361.237 316.16 360.984ZM322.518 357.119C322.469 357.074 322.429 356.906 322.429 356.752C322.429 356.549 322.771 356.211 323.643 355.563C325.174 354.413 326.279 353.372 327.439 351.995C327.999 351.32 328.44 350.915 328.599 350.915C328.737 350.915 328.856 350.969 328.856 351.038C328.856 351.295 326.878 353.779 326.066 354.537C324.669 355.845 322.999 357.208 322.796 357.208C322.691 357.208 322.563 357.168 322.518 357.119ZM272.758 344.08C266.762 343.584 260.819 341.884 259.432 340.264C258.639 339.332 257.677 335.868 257.207 332.23C255.255 317.115 259.749 293.813 267.322 279.778C268.432 277.731 270.409 274.753 271.371 273.698L272.129 272.866L272.797 272.945C273.159 272.989 274.105 273.113 274.899 273.217C276.747 273.465 280.261 273.465 282.11 273.217C282.903 273.113 283.854 272.989 284.216 272.945L284.88 272.866L285.633 273.698C287.194 275.422 288.993 278.332 290.826 282.108C298.241 297.342 302.026 320.465 299.419 334.569C298.859 337.582 298.076 339.856 297.368 340.511C295.678 342.057 289.91 343.598 283.973 344.089C282.03 344.248 274.745 344.243 272.758 344.08ZM285.171 342.851C289.949 342.325 294.236 341.2 296.257 339.936C296.827 339.579 296.926 339.44 297.214 338.638C298.007 336.388 298.66 332.899 298.953 329.37C299.127 327.224 299.132 321.951 298.953 319.245C297.882 302.663 292.377 284.55 285.652 275.511C284.503 273.965 284.577 274.009 283.477 274.193C282.961 274.277 281.628 274.416 280.523 274.5C278.417 274.658 275.617 274.535 273.516 274.187L272.554 274.028L272.049 274.608C270.82 276.025 268.951 279.028 267.484 281.947C262.781 291.343 259.397 304.208 258.158 317.41C257.881 320.329 257.925 328.982 258.223 331.375C258.535 333.868 258.985 336.063 259.58 337.967L260.061 339.513L260.799 339.96C263.351 341.511 268.916 342.755 274.833 343.097C276.742 343.206 283.372 343.047 285.17 342.849L285.171 342.851ZM282.143 315.346C281.924 315.113 281.038 313.859 280.176 312.561C278.863 310.589 278.223 309.424 276.281 305.479C273.798 300.429 273.174 299.001 273.308 298.66C273.52 298.1 273.813 298.581 277.604 305.807C279.482 309.385 281.127 312.086 283.031 314.712C283.413 315.238 283.422 315.298 283.15 315.57C282.843 315.877 282.585 315.818 282.144 315.347L282.143 315.346ZM280.552 306.703C280.076 305.97 278.223 301.991 278.267 301.777C278.396 301.104 279.036 301.945 280.755 305.063C281.359 306.158 281.524 306.56 281.424 306.718C281.216 307.05 280.775 307.04 280.552 306.703V306.703ZM247.561 342.702C241.629 342.291 237.501 340.814 231.996 337.127C228.468 334.768 225.464 331.636 223.461 328.237C221.465 324.852 219.784 319.802 218.966 314.748C218.347 310.912 218.128 304.751 218.501 301.565C219.343 294.325 222.446 287.654 227.748 281.693C230.013 279.146 235.628 274.651 239.321 272.425C243.791 269.734 248.117 268.569 253.658 268.569C255.893 268.569 257.201 268.693 261.458 269.298C265.001 269.803 266.414 270.1 267.732 270.616C268.748 271.018 269.159 271.365 269.268 271.92C269.328 272.213 268.626 273.216 267.162 274.928C257.103 286.727 251.318 307.854 253.014 326.656C253.401 330.943 254.302 335.69 255.299 338.718C255.586 339.581 255.819 340.433 255.819 340.601C255.819 341.354 254.655 342.063 252.801 342.439C251.795 342.647 248.862 342.796 247.563 342.701L247.561 342.702ZM251.759 341.473C252.636 341.35 254.162 340.913 254.504 340.695C254.663 340.591 254.638 340.407 254.331 339.461C253.329 336.383 252.403 331.755 251.927 327.443C251.734 325.694 251.69 324.247 251.695 319.906C251.699 314.172 251.804 312.625 252.482 307.917C254.494 293.991 259.99 281.037 267.231 273.143C267.805 272.513 268.237 271.969 268.183 271.939C267.905 271.785 265.869 271.176 265.066 271.007C263.252 270.63 257.499 269.877 255.566 269.763C250.654 269.471 246.447 270.174 242.602 271.929C239.663 273.267 234.568 276.865 230.777 280.279C225.45 285.076 221.395 292.138 220.043 298.987C218.507 306.738 219.785 317.611 223.11 325.114C225.068 329.52 228.318 333.306 232.65 336.21C237.482 339.452 241.407 340.972 246.184 341.464C247.671 341.612 250.748 341.622 251.759 341.473ZM245.133 309.187C245.019 309.023 244.509 308.181 243.998 307.318C243.482 306.451 241.852 303.913 240.375 301.678C236.951 296.499 235.102 293.441 235.102 292.951C235.102 292.435 235.335 292.341 235.697 292.714C236.117 293.14 243.883 304.895 244.94 306.699C245.405 307.497 245.856 308.131 245.941 308.107C246.099 308.052 246.243 308.433 246.248 308.92C246.248 309.474 245.47 309.663 245.132 309.188L245.133 309.187ZM243.195 300.251C242.764 299.786 241.238 296.659 241.218 296.203C241.188 295.548 241.481 295.653 241.961 296.46C242.209 296.876 242.775 297.808 243.22 298.526C244.033 299.854 244.181 300.34 243.815 300.484C243.517 300.598 243.513 300.598 243.195 300.251ZM305.573 342.653C303.611 342.45 301.842 341.826 301.395 341.186C301.103 340.77 301.133 340.418 301.569 339.13C302.739 335.696 303.621 331.017 304.087 325.739C304.295 323.42 304.295 316.779 304.087 314.202C303.234 303.528 300.711 293.913 296.539 285.419C294.225 280.706 292.024 277.351 289.056 274.011C287.48 272.237 287.39 271.979 288.109 271.271C288.952 270.433 291.38 269.849 297.451 269.021C304.573 268.045 310.193 268.689 315.153 271.048C318.325 272.56 323.221 276.044 327.028 279.493C332.831 284.756 336.904 292.11 338.258 299.777C338.714 302.375 338.823 307.499 338.501 310.923C337.852 317.742 336.073 323.962 333.545 328.243C331.33 331.999 327.94 335.34 323.584 338.061C320.665 339.885 317.796 341.163 315.025 341.872C312.398 342.541 307.958 342.908 305.58 342.655H305.575L305.573 342.653ZM310.628 341.468C315.499 340.963 319.122 339.625 323.671 336.656C326.421 334.862 328.444 333.108 330.228 330.976C334.014 326.442 336.388 319.905 337.33 311.411C337.647 308.606 337.642 303.288 337.33 301.153C336.288 294.031 333.346 287.917 328.285 282.336C325.178 278.911 318.235 273.698 314.434 271.943C310.633 270.184 306.416 269.48 301.411 269.768C299.513 269.877 293.764 270.63 291.94 271.007C291.137 271.175 289.105 271.785 288.828 271.939C288.773 271.968 289.199 272.508 289.769 273.133C297.837 281.964 303.472 296.41 305.068 312.362C305.35 315.207 305.454 322.105 305.261 324.885C305.068 327.67 304.695 330.684 304.27 332.998C303.913 334.936 303.045 338.43 302.694 339.376C302.243 340.585 302.253 340.625 303.096 340.936C303.829 341.214 304.637 341.412 305.45 341.516C306.282 341.62 309.439 341.59 310.629 341.466L310.628 341.468ZM324.821 311.947C324.742 311.853 324.499 311.317 324.28 310.763C323.596 309.048 321.753 304.999 319.899 301.153C318.927 299.136 317.679 296.43 317.124 295.151C316.083 292.737 315.945 292.104 316.46 292.104C316.748 292.104 316.842 292.282 320.728 300.301C324.172 307.423 325.743 311.015 325.683 311.645C325.648 311.958 325.574 312.047 325.301 312.076C325.118 312.096 324.9 312.041 324.821 311.947ZM324.077 300.267C323.784 299.815 322.427 296.297 322.427 295.99C322.427 295.802 322.512 295.713 322.689 295.713C322.902 295.713 323.14 296.099 323.863 297.581C324.889 299.702 325.018 300.089 324.785 300.371C324.557 300.649 324.299 300.609 324.076 300.267H324.077ZM347.924 314.014C347.711 313.86 347.696 313.652 347.775 311.705C347.86 309.525 347.978 309.058 348.32 309.519C348.513 309.782 348.741 313.315 348.598 313.776C348.484 314.127 348.211 314.222 347.923 314.013L347.924 314.014ZM346.958 306.744C346.879 306.601 346.815 306.14 346.815 305.718C346.815 304.831 346.433 302.413 345.977 300.416C345.496 298.305 345.436 297.809 345.675 297.809C345.952 297.809 346.185 298.473 346.864 301.174C347.503 303.711 347.776 305.401 347.711 306.342C347.676 306.823 347.622 306.932 347.385 306.962C347.206 306.991 347.043 306.908 346.958 306.743V306.744ZM279.26 267.635C280.628 266.971 280.955 265.113 279.805 264.499C279.369 264.261 277.501 264.311 277.109 264.568C276.023 265.281 276.371 266.951 277.749 267.635C278.442 267.977 278.546 267.977 279.26 267.635ZM278.507 263.126C278.829 263.126 279.309 263.171 279.567 263.225L280.043 263.329L280.206 262.516C280.582 260.569 281.519 258.314 282.609 256.708C283.115 255.964 283.119 255.945 282.753 256.208C282.004 256.748 280.731 258.314 280.399 259.096C280.255 259.443 280.151 259.517 279.819 259.517C279.294 259.517 279.245 259.383 278.898 257.029C278.744 255.983 278.585 255.037 278.546 254.928C278.507 254.823 278.309 255.746 278.11 256.98C277.912 258.214 277.714 259.294 277.659 259.374C277.615 259.453 277.397 259.517 277.188 259.517C276.866 259.517 276.757 259.428 276.524 258.962C276.133 258.189 275.057 256.861 274.408 256.345L273.862 255.914L274.392 256.702C275.468 258.282 276.192 259.987 276.672 262.053L276.965 263.327L277.441 263.229C277.704 263.169 278.179 263.124 278.507 263.124V263.126Z" fill="#18292D" stroke="#18292D" stroke-width="0.63243"/>
<path d="M254.107 160.223C256.926 157.41 268.304 152.652 275.139 164.614C278.538 170.563 290.06 166.688 293.869 166.378C299.774 165.898 303.604 176.792 296.383 186.984C294.309 189.912 256.481 177.182 249.94 168.716C248.83 167.278 250.269 164.049 254.106 160.222L254.107 160.223Z" stroke="#18292D" stroke-width="1.20804" stroke-linecap="round" stroke-linejoin="round"/>
<path d="M252.097 156.027C255.943 153.497 269.818 150.34 274.462 164.308C276.772 171.254 290.589 169.069 294.915 169.387C301.62 169.879 303.179 182.191 292.587 191.87C289.544 194.65 250.522 174.583 245.337 164.408C244.456 162.68 246.866 159.469 252.099 156.026L252.097 156.027Z" fill="#18292D"/>
<path d="M305.978 201.706C312.278 197.295 313.809 188.612 309.398 182.312C304.986 176.012 296.303 174.481 290.003 178.892C283.703 183.303 282.172 191.986 286.584 198.286C290.995 204.586 299.678 206.117 305.978 201.706Z" fill="#18292D"/>
<path d="M307.713 201.319C314.013 196.908 315.544 188.225 311.133 181.925C306.721 175.625 298.038 174.094 291.738 178.505C285.438 182.916 283.907 191.599 288.319 197.899C292.73 204.199 301.413 205.73 307.713 201.319Z" stroke="#18292D" stroke-width="1.20804" stroke-linecap="round" stroke-linejoin="round"/>
<path d="M299.031 183.259C300.373 178.563 297.654 173.668 292.957 172.325C288.261 170.983 283.366 173.702 282.023 178.399C280.681 183.095 283.4 187.99 288.097 189.333C292.793 190.675 297.689 187.956 299.031 183.259Z" fill="#18292D"/>
<path d="M293.178 176.756C295.136 183.723 299.535 196.24 295.528 201.428C291.145 207.105 276.362 215.914 270.568 203.255C269.382 200.391 269.683 196.766 269.252 194.007C268.581 189.72 266.161 188.169 259.012 186.098C251.862 184.028 247.564 184.691 243.805 177.271C240.777 171.291 244.472 162.265 247.027 159.932C255.353 152.332 270.3 159.932 273.727 163.342C277.154 166.752 275.081 170.887 279.761 172.821C282.703 174.036 288.105 174.903 293.178 176.756Z" fill="#18292D"/>
<path d="M190.909 249.532L200.21 251.4L202.293 252.753C219.142 263.69 257.183 255.617 258.053 240.601L222.036 231.973L200.553 224.497C182.881 218.348 161.289 212.412 142.68 211.317C138.089 221.576 140.262 234.936 143.724 245.226C159.52 244.969 175.34 246.403 190.908 249.531L190.909 249.532Z" fill="#18292D"/>
<path d="M146.727 303.8C150.311 280.845 164.248 246.799 173.926 225.79C164.885 218.203 154.308 213.113 142.908 211.347C135.222 224.906 121.73 250.999 116.928 265.902L108.531 291.959L83.6123 306.842L144.606 317.332L146.726 303.799L146.727 303.8Z" fill="#18292D"/>
<path d="M106.354 298.077L100.97 293.246" stroke="white" stroke-width="0.975839" stroke-miterlimit="10"/>
<path d="M104.282 299.628L98.8984 294.799" stroke="white" stroke-width="0.975839" stroke-miterlimit="10"/>
<path d="M105.629 294.607C105.638 294.737 110.901 289.512 114.154 289.019C121.683 287.881 123.329 294.566 119.886 296.578C115.696 299.025 105.619 294.476 105.629 294.607Z" stroke="white" stroke-width="0.975839" stroke-linejoin="round"/>
<path d="M105.55 294.555C105.63 294.569 103.119 290.507 103.534 288.483C103.764 287.364 104.522 286.233 105.607 285.389C106.29 284.859 107.328 284.428 107.946 284.799C108.115 284.901 108.229 285.051 108.331 285.203C110.032 287.73 105.469 294.539 105.55 294.555Z" stroke="white" stroke-width="0.975839" stroke-linejoin="round"/>
<path d="M231.931 268.812C231.931 268.812 258.482 269.225 257.623 241.391C257.553 239.124 235.4 242.21 235.4 242.21C216.777 240.401 198.028 241.186 179.686 244.512C177.644 255.564 179.271 266.574 185.062 275.757C200.353 271.782 216.064 269.445 231.931 268.812Z" fill="#18292D"/>
<path d="M201.794 331.968C199.863 308.815 205.378 272.442 209.828 249.744C199.253 244.503 187.774 242.052 176.279 243.024C172.007 258.014 165.05 286.552 163.898 302.168L161.884 329.47L141.179 349.811L202.927 345.621L201.795 331.969L201.794 331.968Z" fill="#18292D"/>
<path d="M161.209 335.928L154.839 332.504" stroke="white" stroke-width="0.975839" stroke-miterlimit="10"/>
<path d="M159.563 337.926L153.193 334.502" stroke="white" stroke-width="0.975839" stroke-miterlimit="10"/>
<path d="M159.687 332.727C159.728 332.852 163.608 326.534 166.655 325.287C173.702 322.405 176.879 328.513 174.007 331.281C170.513 334.647 159.648 332.603 159.687 332.727Z" stroke="white" stroke-width="0.975839" stroke-linejoin="round"/>
<path d="M159.597 332.695C159.679 332.691 156.281 329.334 156.206 327.27C156.166 326.128 156.635 324.851 157.491 323.775C158.03 323.098 158.938 322.436 159.625 322.65C159.813 322.708 159.959 322.828 160.094 322.951C162.343 325.005 159.515 332.699 159.597 332.695Z" stroke="white" stroke-width="0.975839" stroke-linejoin="round"/>
<path d="M230.316 235.999L212.979 233.934C204.397 232.913 195.766 232.349 187.122 232.247L180.815 232.172L175.636 246.83" stroke="white" stroke-width="0.975839" stroke-linejoin="round"/>
<path d="M211.943 145.797C211.924 145.759 211.9 145.722 211.875 145.689L205.318 139.967C205.195 139.804 201.911 138.324 201.707 138.299L196.171 136.625C191.377 136.091 186.441 137.131 182.271 139.556L180.756 140.437C180.733 140.45 180.709 140.466 180.688 140.481C175.976 143.96 173.077 149.532 172.938 155.392L172.458 184.325C172.452 184.667 172.68 184.967 173.004 185.058C173.023 185.063 173.043 185.068 173.062 185.071L193.629 189.071C193.866 189.116 194.109 189.046 194.285 188.882C194.46 188.717 194.545 188.478 194.514 188.24L190.96 161.363L201.171 157.502L206.454 156.346C207.572 156.102 208.349 155.209 208.431 154.07C208.514 152.922 207.87 151.916 206.79 151.509C206.22 151.296 205.616 151.165 204.995 151.124C202.459 150.962 197.988 150.515 196.699 150.176C196.742 150.01 197.008 148.829 197.027 148.657L196.236 145.024C196.262 144.778 194.845 143.323 194.668 143.167L203.053 143.927L205.871 147.302C207.003 148.66 208.778 149.265 210.502 148.88C211.158 148.734 211.697 148.302 211.981 147.694C212.266 147.086 212.252 146.394 211.944 145.798L211.943 145.797Z" fill="white"/>
<path d="M196.784 150.288C196.784 150.288 201.734 151.665 204.947 151.87C205.53 151.906 206.055 152.03 206.525 152.207C208.19 152.834 208.031 155.234 206.293 155.614L200.956 156.781L190.141 160.87L193.772 188.334" stroke="#18292D" stroke-width="1.20804" stroke-linecap="round" stroke-linejoin="round"/>
<path d="M173.206 184.338L173.686 155.405C173.822 149.737 176.57 144.449 181.133 141.084L182.647 140.203C186.708 137.842 191.42 136.849 196.088 137.37L197.91 137.573C202.705 138.108 207.072 140.588 209.986 144.434L211.279 146.141C211.701 146.957 211.235 147.952 210.339 148.151C208.895 148.472 207.392 147.96 206.444 146.824L203.406 143.183L193.636 143.047" stroke="#18292D" stroke-width="1.20804" stroke-linecap="round" stroke-linejoin="round"/>
<path d="M249.205 242.488L223.575 235.36C218.866 234.05 215.75 229.583 216.146 224.712L217.594 206.947L197.831 219.338C185.84 226.857 170.36 217.696 171.182 203.566L173.028 171.802L191.929 170.429L195.73 194.578L217.902 183.491C223.222 180.959 229.361 180.772 234.826 182.976L264.268 194.848C271.27 197.671 276.226 204.024 277.26 211.502L280.919 237.965C281.816 244.451 277.295 250.439 270.811 251.353C264.765 252.205 259.058 248.336 257.612 242.405L254.657 230.284L249.206 242.486L249.205 242.488Z" fill="#96D8E8" stroke="#18292D" stroke-width="1.20804" stroke-linecap="round" stroke-linejoin="round"/>
<path d="M223.624 183.157L198.016 172.566C194.764 171.221 193.218 167.495 194.563 164.242L205.153 138.635C206.499 135.382 210.225 133.836 213.477 135.182L239.085 145.772C242.337 147.117 243.883 150.844 242.538 154.096L231.948 179.703C230.602 182.956 226.876 184.502 223.624 183.157Z" fill="#4A7C88"/>
<path d="M220.881 152.01C219.651 154.988 216.238 156.403 213.26 155.172C210.282 153.94 208.867 150.529 210.098 147.551C211.33 144.573 214.741 143.158 217.719 144.389C220.697 145.62 222.112 149.032 220.881 152.01Z" fill="white"/>
<path d="M194.564 164.243L196.968 158.43L200.664 156.897C203.396 155.764 206.53 157.06 207.663 159.792C208.736 162.379 211.703 163.606 214.29 162.532L228.803 156.512C232.249 155.082 236.2 156.716 237.63 160.162L238.832 163.059L231.949 179.703C230.603 182.955 226.877 184.501 223.625 183.156L198.017 172.565C194.765 171.22 193.219 167.494 194.564 164.241L194.564 164.243Z" fill="#18292D"/>
<path d="M196.089 137.369L198.05 137.587C202.758 138.113 207.043 140.548 209.903 144.322L211.28 146.14C211.702 146.956 211.237 147.951 210.34 148.15C208.897 148.471 207.393 147.959 206.445 146.823C204.516 144.513 201.675 143.159 198.666 143.118L193.876 142.946" fill="white"/>
<path d="M196.089 137.369L198.05 137.587C202.758 138.113 207.043 140.548 209.903 144.322L211.28 146.14C211.702 146.956 211.237 147.951 210.34 148.15C208.897 148.471 207.393 147.959 206.445 146.823C204.516 144.513 201.675 143.159 198.666 143.118L193.876 142.946" stroke="#18292D" stroke-width="1.20804" stroke-linecap="round" stroke-linejoin="round"/>
<path d="M189.047 141.224L193.928 143.108C195.918 143.876 197.145 145.885 196.918 148.006L196.801 149.104C196.711 149.94 196.248 150.692 195.542 151.148C194.681 151.703 193.585 151.74 192.688 151.245L192.578 151.184" stroke="#18292D" stroke-width="1.20804" stroke-linecap="round" stroke-linejoin="round"/>
<path d="M185.419 143.514L189.88 145.383C191.759 146.171 192.899 148.099 192.683 150.125L192.576 151.134C192.469 152.141 191.912 153.046 191.061 153.595C190.336 154.063 189.418 154.111 188.648 153.721L187.627 153.205" stroke="#18292D" stroke-width="1.20804" stroke-linecap="round" stroke-linejoin="round"/>
<path d="M182.321 146.61L186.542 148.724C187.301 149.041 187.762 149.819 187.674 150.637L187.384 153.368C187.256 154.573 186.589 155.656 185.57 156.313C185 156.681 184.29 156.757 183.655 156.521L181.828 155.84C181.079 155.561 180.592 154.833 180.619 154.033L180.62 154.026C180.661 152.824 181.816 151.976 182.976 152.298" stroke="#18292D" stroke-width="1.20804" stroke-linecap="round" stroke-linejoin="round"/>
<path d="M248.894 247.552L225.417 241.328C221.944 240.408 219.876 236.848 220.797 233.376L227.02 209.898C227.941 206.426 231.501 204.358 234.973 205.278L258.451 211.502C261.923 212.422 263.991 215.982 263.07 219.454L256.847 242.932C255.926 246.404 252.367 248.472 248.894 247.552Z" fill="#4A7C88"/>
<path d="M241.394 214.259C240.769 214.085 240.196 213.707 239.784 213.142C238.816 211.811 239.11 209.947 240.441 208.978L247.034 204.181C247.945 203.519 249.151 203.428 250.152 203.941L255.953 206.926C257.417 207.679 257.992 209.477 257.239 210.94C256.486 212.404 254.689 212.975 253.225 212.227L249.058 210.081L243.951 213.798C243.185 214.355 242.243 214.495 241.397 214.259L241.394 214.259Z" fill="white" stroke="#18292D" stroke-width="1.20804" stroke-linecap="round" stroke-linejoin="round"/>
<path d="M254.072 206.011C253.979 206.099 253.89 206.191 253.807 206.293L245.542 216.458C244.546 217.682 244.581 219.505 245.727 220.59C246.096 220.94 246.527 221.176 246.98 221.302C248.087 221.61 249.322 221.258 250.093 220.311L250.129 220.266C250.219 221.005 250.582 221.711 251.205 222.217C251.534 222.485 251.902 222.67 252.285 222.777C253.392 223.085 254.627 222.734 255.398 221.786L255.438 221.737C255.602 222.297 255.929 222.815 256.417 223.21C256.745 223.478 257.114 223.664 257.497 223.771C258.604 224.078 259.839 223.727 260.61 222.779L264.706 217.742C264.744 217.492 264.781 217.245 264.819 216.999C265.3 213.861 263.693 210.773 260.847 209.365L254.072 206.012L254.072 206.011Z" fill="white" stroke="#18292D" stroke-width="1.20804" stroke-linecap="round" stroke-linejoin="round"/>
<path d="M250.13 220.266L258.667 208.882" stroke="#18292D" stroke-width="1.20804" stroke-linecap="round" stroke-linejoin="round"/>
<path d="M255.439 221.735L263.465 211.359" stroke="#18292D" stroke-width="1.20804" stroke-linecap="round" stroke-linejoin="round"/>
<path d="M270.617 230.039L264.707 217.74" stroke="#18292D" stroke-width="1.20804" stroke-linecap="round" stroke-linejoin="round"/>
<path d="M263.926 176.154C269.817 173.66 272.571 166.864 270.078 160.973C267.585 155.082 260.788 152.328 254.897 154.821C249.007 157.314 246.252 164.111 248.746 170.002C251.239 175.892 258.035 178.647 263.926 176.154Z" fill="#18292D"/>
<path d="M254.851 166.131C258.609 165.409 261.071 161.776 260.348 158.018C259.626 154.259 255.993 151.798 252.234 152.52C248.476 153.242 246.015 156.875 246.737 160.634C247.459 164.392 251.092 166.854 254.851 166.131Z" fill="#18292D"/>
<path d="M273.565 182.063C278.093 178.892 279.193 172.651 276.023 168.123C272.852 163.594 266.61 162.494 262.082 165.665C257.554 168.835 256.453 175.077 259.624 179.605C262.795 184.133 269.036 185.234 273.565 182.063Z" fill="#18292D"/>
<path d="M261.117 178.811C261.234 179.184 261.399 179.542 261.607 179.875C262.034 180.562 262.646 181.147 263.416 181.547" stroke="#18292D" stroke-width="1.20804" stroke-linecap="round" stroke-linejoin="round"/>
<path d="M243.861 180.319C239.163 176.531 239.289 168.58 244.143 162.559C248.997 156.538 256.74 154.726 261.438 158.515C265.361 161.677 265.918 167.74 263.172 173.161C264.547 172.248 266.365 172.091 267.931 172.917C270.11 174.064 271.03 176.804 269.98 179.032C268.844 181.444 265.944 182.408 263.601 181.189C263.099 180.928 262.669 180.586 262.309 180.191L258.248 192.163C258.902 192.54 254.409 192.711 250.555 190.96C246.641 189.183 243.37 185.487 244.618 185.915L246.07 181.61C245.282 181.292 244.539 180.866 243.861 180.319Z" fill="white" stroke="#18292D" stroke-width="1.20804" stroke-linejoin="round"/>
<path d="M267.953 175.153C267.953 175.153 264.842 173.739 263.338 177.409" stroke="#18292D" stroke-width="1.20804" stroke-linecap="round" stroke-linejoin="round"/>
<path d="M263.601 173.134C263.492 173.112 263.384 173.094 263.276 173.068C257.251 171.656 253.806 164.285 255.58 156.603C255.6 156.516 255.624 156.431 255.645 156.346C257.869 156.346 259.975 157 261.689 158.378C265.669 161.577 266.288 167.66 263.602 173.134L263.601 173.134Z" fill="#18292D"/>
<path d="M246.501 181.777C249.6 182.916 253.359 182.364 256.729 180.362" stroke="#18292D" stroke-width="1.20804" stroke-linecap="round" stroke-linejoin="round"/>
<path d="M247.656 162.004C247.673 162.393 246.813 162.748 245.734 162.795C244.656 162.843 243.767 162.566 243.75 162.177C243.733 161.788 244.593 161.433 245.672 161.385C246.75 161.338 247.639 161.615 247.656 162.004Z" fill="#18292D"/>
<path d="M255.401 167.783C255.093 168.156 254.006 167.767 252.974 166.914C251.942 166.062 251.354 165.069 251.661 164.697C251.97 164.323 253.056 164.712 254.088 165.565C255.121 166.417 255.709 167.411 255.401 167.783Z" fill="#18292D"/>
<path d="M248.6 164.623L246.602 167.079C246.233 167.532 246.159 168.122 246.346 168.627" stroke="#18292D" stroke-width="1.20804" stroke-linecap="round" stroke-linejoin="round"/>
<path d="M250.736 167.349C250.736 167.349 252 167.275 252.191 169.068" stroke="#18292D" stroke-width="1.20804" stroke-linecap="round" stroke-linejoin="round"/>
<path d="M244.109 164.219C244.109 164.219 245.087 163.413 246.299 164.748" stroke="#18292D" stroke-width="1.20804" stroke-linecap="round" stroke-linejoin="round"/>
<path d="M247.754 171.485C247.754 171.485 246.652 172.109 245.69 170.584" stroke="#18292D" stroke-width="1.20804" stroke-linecap="round" stroke-linejoin="round"/>
<path d="M247.794 189.047L259.049 188.867L259.954 193.447L248.504 196.955L247.794 189.047Z" fill="white" stroke="#18292D" stroke-width="1.20804" stroke-linecap="round" stroke-linejoin="round"/>
<path d="M247.697 188.874L244.949 184.488L241.478 186.127L242.21 194.476L247.697 188.874Z" fill="white" stroke="#18292D" stroke-width="1.20804" stroke-linecap="round" stroke-linejoin="round"/>
<path d="M196.506 201.653L195.73 194.577" stroke="#18292D" stroke-width="1.20804" stroke-linecap="round" stroke-linejoin="round"/>
<path d="M236.627 226.318L238.768 230.106L249.563 224.008" stroke="white" stroke-width="0.975839" stroke-linecap="round" stroke-linejoin="round"/>
<defs>
<clipPath id="clip0_931_8648">
<rect width="53.0368" height="55.9654" fill="white" transform="translate(64.8938 70.752)"/>
</clipPath>
<clipPath id="clip1_931_8648">
<rect width="52.522" height="55.7522" fill="white" transform="translate(342.452 52.124)"/>
</clipPath>
</defs>
</svg>
