<svg width="460" height="460" viewBox="0 0 460 460" fill="none" xmlns="http://www.w3.org/2000/svg">
<rect width="460" height="460" fill="white"/>
<ellipse cx="213.719" cy="240.656" rx="131.403" ry="62.521" transform="rotate(-165.945 213.719 240.656)" fill="#F2F7F8"/>
<path d="M280.523 201.138L289.074 186.366L283.033 186.439L271.787 201.678L280.402 201.547C280.41 201.407 280.448 201.268 280.523 201.138Z" fill="#96D8E8"/>
<path d="M313.298 158.647L302.905 159.516L297.077 167.411L311.302 166.998L313.298 158.647Z" fill="#96D8E8"/>
<path d="M283.89 219.938C276.834 220.024 268.857 220.135 263.116 220.251C263.11 220.251 263.103 220.251 263.098 220.251C262.599 220.251 262.19 219.85 262.179 219.35C262.169 218.842 262.572 218.422 263.079 218.413C274.579 218.182 295.045 217.971 299.125 217.93L302.684 203.046L297.649 203.123C297.649 203.123 297.639 203.123 297.635 203.123C297.134 203.123 296.724 202.72 296.716 202.218C296.709 201.71 297.113 201.293 297.621 201.285L303.125 201.201L310.859 168.85L295.689 169.291L284.401 184.585L302.009 184.369C302.009 184.369 302.016 184.369 302.021 184.369C302.523 184.369 302.933 184.773 302.94 185.277C302.945 185.784 302.54 186.201 302.032 186.207L291.12 186.341C291.105 186.464 291.067 186.587 291.002 186.702L282.427 201.517L291.555 201.378C292.063 201.37 292.48 201.775 292.488 202.283C292.495 202.79 292.091 203.208 291.583 203.216L270.413 203.538L246.612 235.786L277.614 235.171L283.889 219.941L283.89 219.938Z" fill="#96D8E8"/>
<path d="M334.457 236.646H310.957V248.192H361.318V236.741C361.318 236.709 361.32 236.678 361.323 236.646H334.469C334.469 236.646 334.462 236.646 334.457 236.646Z" fill="#96D8E8"/>
<path d="M293.782 248.191H309.118V236.646H296.542L293.782 248.191Z" fill="#96D8E8"/>
<path d="M245.237 237.649L237.458 248.19H291.892L294.648 236.668L245.237 237.649Z" fill="#96D8E8"/>
<path d="M317.971 139.102L304.355 157.55L313.748 156.766L317.971 139.102Z" fill="#96D8E8"/>
<path d="M301.036 217.852H317.696V202.73H314.488C313.98 202.73 313.569 202.319 313.569 201.811C313.569 201.303 313.98 200.892 314.488 200.892H334.107V185.917L308.61 186.168L301.036 217.852Z" fill="#96D8E8"/>
<path d="M334.853 156.705L320.35 137.055L315.653 156.705H334.853Z" fill="#96D8E8"/>
<path d="M348.072 217.508V202.73H339.507C339.507 202.73 339.498 202.73 339.494 202.73H319.533V217.852H348.139C348.096 217.746 348.072 217.63 348.072 217.508Z" fill="#96D8E8"/>
<path d="M279.621 235.129L295.089 234.822L298.686 219.773C296.531 219.794 291.642 219.845 285.889 219.914L279.62 235.129H279.621Z" fill="#96D8E8"/>
<path d="M413.209 237.66V248.19H434.93L427.158 237.66H413.209Z" fill="#96D8E8"/>
<path d="M404.109 236.739C404.109 236.231 404.521 235.82 405.028 235.82H425.802L411.826 216.884H395.452C394.944 216.884 394.533 216.472 394.533 215.965C394.533 215.457 394.944 215.046 395.452 215.046H410.469L402.5 204.249C402.487 204.249 402.475 204.251 402.462 204.251H386.52V212.204C386.52 212.711 386.109 213.123 385.601 213.123C385.094 213.123 384.682 212.711 384.682 212.204V204.251H381.753C381.245 204.251 380.834 203.839 380.834 203.332C380.834 202.824 381.245 202.412 381.753 202.412H389.31V194.835H375.86L373.363 205.785L387.954 225.555H403.87C404.378 225.555 404.789 225.966 404.789 226.474C404.789 226.982 404.378 227.393 403.87 227.393H389.31L404.658 248.189H411.37V237.656H405.027C404.519 237.656 404.108 237.245 404.108 236.737L404.109 236.739Z" fill="#96D8E8"/>
<path d="M374.422 236.645C373.914 236.645 373.503 236.234 373.503 235.726C373.503 235.219 373.914 234.807 374.422 234.807H392.497L368.823 202.73H349.911V217.508C349.911 217.63 349.887 217.746 349.844 217.852H369.287C369.794 217.852 370.206 218.263 370.206 218.771C370.206 219.279 369.794 219.69 369.287 219.69H340.426V234.807H368.007C368.515 234.807 368.926 235.219 368.926 235.726C368.926 236.234 368.515 236.645 368.007 236.645H363.15C363.153 236.677 363.155 236.708 363.155 236.74V248.191H402.374L393.853 236.647H374.42L374.422 236.645Z" fill="#96D8E8"/>
<path d="M312.758 168.814L309.05 184.326L318.996 184.228V168.814H312.758Z" fill="#96D8E8"/>
<path d="M334.478 234.807H338.588V219.69H300.595L296.981 234.807H334.466C334.466 234.807 334.474 234.807 334.478 234.807Z" fill="#96D8E8"/>
<path d="M394.196 193.001L380.508 174.454L376.278 193.001H394.196Z" fill="#96D8E8"/>
<path d="M391.147 202.415H401.146L395.555 194.838H391.147V202.415Z" fill="#96D8E8"/>
<path d="M373.924 195.058L366.182 196.059L371.922 203.837L373.924 195.058Z" fill="#96D8E8"/>
<path d="M313.197 166.976H333.551C334.058 166.976 334.47 167.388 334.47 167.895C334.47 168.403 334.058 168.814 333.551 168.814H320.834V184.21L334.538 184.076C334.679 183.987 334.846 183.934 335.026 183.934C335.205 183.934 335.359 183.983 335.498 184.066L348.983 183.934C349.495 183.925 349.907 184.337 349.911 184.845C349.917 185.353 349.508 185.768 349 185.772L335.945 185.9V200.891H339.508C339.508 200.891 339.516 200.891 339.52 200.891H367.467L363.043 194.896C363.043 194.896 363.039 194.891 363.036 194.888L343.971 169.056H339.508C339 169.056 338.589 168.645 338.589 168.137C338.589 167.629 339 167.218 339.508 167.218H342.614L336.21 158.541H315.213L313.197 166.973V166.976Z" fill="#96D8E8"/>
<path d="M374.359 193.147L378.182 176.383L364.921 194.35L364.933 194.367L374.359 193.147Z" fill="#96D8E8"/>
<path d="M380.797 171.749C380.797 171.749 380.794 171.745 380.793 171.744C380.752 171.69 380.706 171.641 380.654 171.597C380.648 171.591 380.641 171.587 380.636 171.583C380.616 171.567 380.595 171.551 380.573 171.536C380.565 171.53 380.558 171.526 380.549 171.52C380.53 171.508 380.508 171.495 380.487 171.484C380.479 171.479 380.469 171.474 380.46 171.469C380.439 171.46 380.416 171.45 380.395 171.441C380.385 171.437 380.375 171.433 380.366 171.43C380.343 171.421 380.319 171.414 380.295 171.409C380.286 171.406 380.276 171.403 380.268 171.402C380.267 171.402 380.264 171.402 380.262 171.4C380.231 171.393 380.199 171.387 380.168 171.383C380.163 171.383 380.159 171.383 380.153 171.383C380.124 171.38 380.094 171.378 380.066 171.378C380.063 171.378 380.06 171.378 380.057 171.378C380.05 171.378 380.042 171.378 380.035 171.378C380.011 171.378 379.988 171.379 379.964 171.382C379.951 171.382 379.94 171.385 379.927 171.386C379.906 171.389 379.885 171.393 379.865 171.397C379.852 171.4 379.84 171.403 379.828 171.406C379.808 171.411 379.787 171.417 379.767 171.424C379.756 171.428 379.743 171.431 379.732 171.436C379.707 171.445 379.681 171.457 379.657 171.468C379.644 171.474 379.632 171.481 379.619 171.488C379.599 171.499 379.579 171.509 379.561 171.522C379.55 171.529 379.538 171.537 379.527 171.546C379.512 171.557 379.496 171.568 379.48 171.58C379.469 171.588 379.459 171.597 379.449 171.607C379.434 171.621 379.418 171.635 379.404 171.649C379.396 171.657 379.387 171.666 379.379 171.674C379.36 171.694 379.343 171.715 379.326 171.737C379.324 171.741 379.321 171.744 379.316 171.748L379.312 171.755C379.312 171.755 379.311 171.758 379.309 171.759L363.778 192.804L320.654 134.373C320.654 134.373 320.653 134.372 320.651 134.37C320.632 134.344 320.609 134.317 320.586 134.293C320.582 134.288 320.578 134.284 320.574 134.28C320.555 134.26 320.534 134.242 320.514 134.223C320.507 134.218 320.5 134.211 320.492 134.205C320.473 134.189 320.453 134.175 320.434 134.161C320.425 134.156 320.417 134.15 320.408 134.144C320.388 134.131 320.367 134.119 320.346 134.107C320.338 134.103 320.329 134.098 320.321 134.093C320.298 134.082 320.275 134.072 320.251 134.064C320.243 134.061 320.236 134.057 320.227 134.054C320.198 134.042 320.166 134.034 320.135 134.025C320.134 134.025 320.133 134.025 320.13 134.024C320.096 134.016 320.063 134.01 320.029 134.006C320.022 134.006 320.014 134.006 320.007 134.004C319.98 134.001 319.953 134 319.926 134C319.923 134 319.92 134 319.918 134C319.912 134 319.906 134 319.902 134C319.875 134 319.848 134.001 319.823 134.004C319.814 134.004 319.807 134.006 319.799 134.007C319.771 134.011 319.744 134.016 319.717 134.021C319.711 134.021 319.706 134.024 319.698 134.025C319.632 134.042 319.567 134.065 319.506 134.096C319.503 134.098 319.501 134.099 319.498 134.1C319.471 134.115 319.445 134.129 319.42 134.146C319.413 134.15 319.407 134.154 319.4 134.16C319.379 134.174 319.358 134.189 319.338 134.206C319.331 134.212 319.325 134.218 319.318 134.223C319.297 134.242 319.277 134.26 319.257 134.281C319.253 134.286 319.249 134.29 319.246 134.293C319.221 134.321 319.195 134.349 319.174 134.38L234.896 248.563C234.69 248.842 234.659 249.213 234.816 249.523C234.973 249.833 235.289 250.028 235.636 250.028H292.614C292.614 250.028 292.617 250.028 292.618 250.028H292.621H436.751C437.098 250.028 437.416 249.833 437.571 249.523C437.728 249.213 437.696 248.843 437.491 248.563L380.797 171.748V171.749ZM401.145 202.415H391.148V194.838H395.554L401.145 202.415ZM380.508 174.453L394.198 193H376.279L380.51 174.453H380.508ZM378.183 176.383L374.359 193.147L364.933 194.366L364.92 194.349L378.181 176.381L378.183 176.383ZM373.924 195.057L371.922 203.836L366.181 196.06L373.924 195.059V195.057ZM342.613 167.221H339.507C338.999 167.221 338.588 167.632 338.588 168.14C338.588 168.647 338.999 169.059 339.507 169.059H343.971L363.036 194.89C363.036 194.89 363.04 194.896 363.043 194.899L367.467 200.894H339.52C339.52 200.894 339.511 200.894 339.507 200.894H335.944V185.902L349 185.775C349.507 185.77 349.915 185.355 349.91 184.848C349.905 184.34 349.495 183.929 348.983 183.937L335.497 184.069C335.359 183.985 335.198 183.937 335.025 183.937C334.853 183.937 334.679 183.989 334.537 184.078L320.834 184.213V168.817H333.55C334.058 168.817 334.469 168.406 334.469 167.898C334.469 167.39 334.058 166.979 333.55 166.979H313.196L315.212 158.547H336.21L342.613 167.224V167.221ZM300.595 219.69H338.588V234.807H334.478C334.478 234.807 334.471 234.807 334.467 234.807H296.982L300.595 219.69ZM295.088 234.822L279.62 235.128L285.89 219.913C291.643 219.844 296.532 219.793 298.687 219.772L295.09 234.822H295.088ZM334.106 185.918V200.892H314.487C313.979 200.892 313.568 201.304 313.568 201.811C313.568 202.319 313.979 202.731 314.487 202.731H317.695V217.852H301.035L308.609 186.168L334.106 185.918ZM309.049 184.325L312.758 168.814H318.997V184.228L309.05 184.326L309.049 184.325ZM319.533 217.851V202.729H339.494C339.494 202.729 339.503 202.729 339.507 202.729H348.072V217.507C348.072 217.629 348.096 217.745 348.139 217.851H319.533ZM320.349 137.054L334.853 156.706H315.651L320.349 137.054ZM317.969 139.101L313.747 156.765L304.354 157.55L317.969 139.101ZM302.903 159.515L313.298 158.647L311.301 166.997L297.076 167.41L302.903 159.515ZM283.032 186.438L289.074 186.365L280.522 201.137C280.448 201.266 280.409 201.406 280.401 201.546L271.786 201.677L283.032 186.438ZM270.413 203.535L291.583 203.213C292.091 203.206 292.497 202.787 292.488 202.279C292.481 201.772 292.063 201.366 291.555 201.375L282.427 201.513L291.002 186.698C291.069 186.584 291.107 186.461 291.12 186.338L302.032 186.204C302.54 186.198 302.945 185.781 302.94 185.273C302.934 184.77 302.523 184.366 302.021 184.366C302.016 184.366 302.014 184.366 302.009 184.366L284.401 184.582L295.689 169.288L310.859 168.847L303.125 201.198L297.621 201.281C297.113 201.288 296.709 201.707 296.716 202.214C296.723 202.718 297.133 203.119 297.635 203.119C297.639 203.119 297.645 203.119 297.649 203.119L302.684 203.043L299.125 217.927C295.045 217.968 274.578 218.179 263.079 218.409C262.572 218.419 262.169 218.839 262.179 219.347C262.189 219.847 262.599 220.247 263.098 220.247C263.103 220.247 263.11 220.247 263.116 220.247C268.856 220.133 276.834 220.022 283.89 219.935L277.616 235.165L246.613 235.78L270.415 203.532L270.413 203.535ZM291.892 248.19H237.457L245.236 237.649L294.647 236.668L291.893 248.19H291.892ZM309.117 248.19H293.782L296.542 236.644H309.117V248.19ZM361.316 236.739V248.19H310.955V236.644H334.455C334.455 236.644 334.462 236.644 334.467 236.644H361.32C361.318 236.675 361.316 236.706 361.316 236.739ZM363.154 248.19V236.739C363.154 236.706 363.153 236.675 363.15 236.644H368.007C368.514 236.644 368.926 236.233 368.926 235.725C368.926 235.217 368.514 234.806 368.007 234.806H340.426V219.689H369.286C369.794 219.689 370.205 219.277 370.205 218.77C370.205 218.262 369.794 217.851 369.286 217.851H349.844C349.886 217.745 349.91 217.629 349.91 217.507V202.729H368.823L392.497 234.806H374.422C373.914 234.806 373.503 235.217 373.503 235.725C373.503 236.233 373.914 236.644 374.422 236.644H393.854L402.376 248.188H363.156L363.154 248.19ZM411.371 248.19H404.659L389.311 227.394H403.871C404.379 227.394 404.79 226.983 404.79 226.475C404.79 225.968 404.379 225.556 403.871 225.556H387.955L373.364 205.786L375.861 194.837H389.311V202.414H381.754C381.246 202.414 380.835 202.825 380.835 203.333C380.835 203.84 381.246 204.252 381.754 204.252H384.684V212.205C384.684 212.713 385.095 213.124 385.603 213.124C386.11 213.124 386.522 212.713 386.522 212.205V204.252H402.463C402.476 204.252 402.489 204.25 402.501 204.25L410.47 215.047H395.453C394.946 215.047 394.534 215.458 394.534 215.966C394.534 216.473 394.946 216.885 395.453 216.885H411.827L425.804 235.821H405.029C404.522 235.821 404.11 236.233 404.11 236.74C404.11 237.248 404.522 237.659 405.029 237.659H411.372V248.191L411.371 248.19ZM413.209 248.19V237.658H427.158L434.932 248.19H413.209Z" fill="#18292D"/>
<g clip-path="url(#clip0_937_10738)">
<path d="M192.827 430.1H58.4471C40.2361 430.1 24.8211 416.656 22.3386 398.61C21.0519 389.266 23.4438 379.781 29.011 372.16L53.0779 339.202C58.7523 331.432 67.0743 326.022 76.4767 324.001L107.942 317.213L152.191 332.562L192.827 430.1Z" fill="#080717"/>
<path d="M216.968 310.021L208.042 312.975L222.264 355.954L231.191 353.001L216.968 310.021Z" fill="white" stroke="#080717" stroke-width="1.8145" stroke-linecap="round" stroke-linejoin="round"/>
<path d="M118.655 298.244L107.743 297.337C95.198 296.298 85.7873 285.18 86.8348 272.643L87.1894 268.322C88.4926 252.618 102.406 240.832 118.11 242.135L118.943 246.556C128.791 247.372 136.173 256.099 135.356 265.938L133.74 285.469C133.105 293.131 126.317 298.88 118.655 298.244Z" fill="#080717"/>
<path d="M139.121 282.332C143.853 269.877 136.935 255.695 123.671 250.656C110.407 245.618 95.8182 251.63 91.0868 264.085C86.3555 276.541 93.2729 290.722 106.537 295.761C119.802 300.8 134.39 294.787 139.121 282.332Z" fill="#080717"/>
<path d="M107.825 274.161C109.186 266.037 115.388 259.2 123.215 257.954C128.098 257.179 132.634 258.73 135.942 261.823C133.764 261.229 127.554 259.917 124.931 263.357C121.723 267.563 118.11 276.545 107.825 274.153V274.161Z" fill="#080717"/>
<path d="M148.405 264.405C147.877 270.731 142.326 275.432 136.008 274.904C129.682 274.377 124.981 268.826 125.509 262.508C126.037 256.182 131.588 251.481 137.905 252.009C144.231 252.537 148.933 258.087 148.405 264.405Z" fill="#080717"/>
<path d="M113.261 245.31C100.75 245.854 90.2503 255.413 88.741 268.074C91.3802 270.16 94.6876 271.53 98.3496 271.835C107.876 272.627 116.198 265.921 116.948 256.857C117.303 252.543 115.876 248.469 113.261 245.302V245.31Z" fill="#080717"/>
<path d="M128.457 257.883C130.799 251.986 127.917 245.307 122.019 242.965C116.122 240.623 109.443 243.505 107.101 249.402C104.759 255.299 107.641 261.979 113.538 264.321C119.435 266.663 126.115 263.781 128.457 257.883Z" fill="#080717"/>
<path d="M138.39 264.318C143.371 260.099 143.989 252.641 139.771 247.66C135.552 242.679 128.095 242.06 123.113 246.279C118.132 250.497 117.514 257.955 121.732 262.936C125.951 267.918 133.408 268.536 138.39 264.318Z" fill="#080717"/>
<path d="M95.2649 247.652C95.2649 247.652 99.4218 248.848 100.131 252.543" stroke="#080717" stroke-width="1.8145" stroke-linecap="round" stroke-linejoin="round"/>
<path d="M98.4148 245.765C98.4148 245.765 97.623 250.02 100.617 252.305" stroke="#080717" stroke-width="1.8145" stroke-linecap="round" stroke-linejoin="round"/>
<path d="M144.429 277.073L144.215 275.11C143.134 265.311 134.309 258.243 124.511 259.323C116.247 260.239 109.921 266.656 108.799 274.524C105.434 274.268 102.25 276.421 101.326 279.803C100.518 282.747 101.673 285.766 103.99 287.473L91.4127 320.579L83.3299 323.351C83.1155 330.122 86.4063 337.891 92.7488 343.995C102.836 353.694 116.816 355.525 123.967 348.086C129.567 342.263 129.303 332.506 124.115 323.878L121.03 322.996L125.534 311.144C127.059 311.383 128.643 311.441 130.251 311.268C140.05 310.187 147.118 301.362 146.037 291.564L145.279 284.726C147.184 284.306 148.512 282.533 148.314 280.545C148.108 278.541 146.409 277.064 144.437 277.064L144.429 277.073Z" fill="white" stroke="#080717" stroke-width="1.8145" stroke-linecap="round" stroke-linejoin="round"/>
<path d="M106.192 288.718C102.357 287.671 100.105 283.712 101.153 279.885" stroke="#080717" stroke-width="1.8145" stroke-linecap="round" stroke-linejoin="round"/>
<path d="M106.712 279.432C106.712 279.432 109.244 280.875 108.807 283.886" stroke="#080717" stroke-width="1.8145" stroke-linecap="round" stroke-linejoin="round"/>
<path d="M140.998 287.101C140.998 287.101 137.93 288.611 135.645 284.586" stroke="#080717" stroke-width="1.8145" stroke-linecap="round" stroke-linejoin="round"/>
<path d="M139.876 277.172C139.827 278.17 139.117 278.945 138.292 278.912C137.468 278.879 136.833 278.029 136.882 277.031C136.932 276.033 137.641 275.258 138.466 275.291C139.29 275.332 139.926 276.174 139.876 277.172Z" fill="#080717"/>
<path d="M135.937 273.248C137.52 272.536 138.594 271.495 138.336 270.921C138.079 270.348 136.587 270.46 135.004 271.171C133.421 271.883 132.346 272.924 132.604 273.498C132.862 274.071 134.354 273.959 135.937 273.248Z" fill="#080717"/>
<path d="M118.73 260.132C111.546 259.778 105.039 264.685 103.505 271.844C104.907 273.18 106.721 274.137 108.8 274.508C114.202 275.465 119.316 272.075 120.231 266.937C120.668 264.487 120.066 262.087 118.73 260.141V260.132Z" fill="#080717"/>
<path d="M125.789 311.235C118.209 309.874 112.106 303.663 111.215 295.622" stroke="#080717" stroke-width="1.8145" stroke-linecap="round" stroke-linejoin="round"/>
<path d="M113.443 301.387C113.08 300.703 112.758 300.01 112.478 299.301C112.238 307.631 116.395 315.07 122.87 319.376L125.608 312.175C120.519 310.18 116.148 306.493 113.451 301.387H113.443Z" fill="#080717"/>
<path d="M215.22 365.076C216.218 358.008 214.576 350.816 210.617 344.869L208.341 341.455L217.314 335.475C220.762 333.174 222.939 329.397 223.203 325.256C223.294 323.755 221.884 322.601 220.432 322.996L202.403 327.912C195.351 329.834 190.641 336.465 191.136 343.756L192.085 357.711L210.89 430.102H265.077L231.666 378.627L237.851 376.071C244.441 374.718 250.297 370.982 254.306 365.588L256.508 362.833L248.821 332.473L220.523 336.086" fill="white"/>
<path d="M215.22 365.076C216.218 358.008 214.576 350.816 210.617 344.869L208.341 341.455L217.314 335.475C220.762 333.174 222.939 329.397 223.203 325.256C223.294 323.755 221.884 322.601 220.432 322.996L202.403 327.912C195.351 329.834 190.641 336.465 191.136 343.756L192.085 357.711L210.89 430.102H265.077L231.666 378.627L237.851 376.071C244.441 374.718 250.297 370.982 254.306 365.588L256.508 362.833L248.821 332.473L220.523 336.086" stroke="#080717" stroke-width="1.8145" stroke-linecap="round" stroke-linejoin="round"/>
<path d="M203.939 323.488L226.537 316.01L239.078 353.908C240.835 359.217 237.953 364.949 232.645 366.706L229.278 367.82C223.969 369.577 218.237 366.695 216.48 361.386L203.939 323.488Z" fill="#080717"/>
<path d="M210.904 313.137C225.557 307.418 229.558 282.6 219.842 257.704C210.125 232.809 190.37 217.262 175.718 222.981C161.066 228.7 157.064 253.518 166.781 278.413C176.497 303.309 196.252 318.855 210.904 313.137Z" fill="#080717" stroke="#080717" stroke-width="1.8145" stroke-linecap="round" stroke-linejoin="round"/>
<path d="M216.485 311.093C230.064 305.793 233.195 281.315 223.478 256.419C213.762 231.523 194.877 215.637 181.298 220.937C167.72 226.237 164.589 250.715 174.305 275.611C184.022 300.506 202.906 316.392 216.485 311.093Z" fill="white" stroke="#080717" stroke-width="1.8145" stroke-linecap="round" stroke-linejoin="round"/>
<path d="M214.883 303.994C225.881 299.701 228.093 279.042 219.822 257.851C211.552 236.66 195.931 222.961 184.932 227.253C173.933 231.546 171.721 252.205 179.992 273.396C188.263 294.588 203.884 308.287 214.883 303.994Z" fill="white" stroke="#080717" stroke-width="1.8145" stroke-linecap="round" stroke-linejoin="round"/>
<path d="M192.085 357.71L191.136 343.754C190.641 336.463 195.351 329.832 202.403 327.911L220.432 322.995C221.884 322.599 223.294 323.745 223.203 325.255C222.948 329.395 220.77 333.173 217.314 335.474L208.341 341.453L210.617 344.868C214.576 350.806 216.218 357.998 215.22 365.075" fill="white"/>
<path d="M192.085 357.71L191.136 343.754C190.641 336.463 195.351 329.832 202.403 327.911L220.432 322.995C221.884 322.599 223.294 323.745 223.203 325.255C222.948 329.395 220.77 333.173 217.314 335.474L208.341 341.453L210.617 344.868C214.576 350.806 216.218 357.998 215.22 365.075" stroke="#080717" stroke-width="1.8145" stroke-linecap="round" stroke-linejoin="round"/>
<path d="M249.885 342.371C248.12 342.371 246.363 341.636 245.11 340.21C243.13 337.95 237.885 336.572 235.798 336.3C232.326 335.838 229.893 332.655 230.355 329.182C230.816 325.71 234 323.277 237.472 323.739C238.635 323.896 249.027 325.446 254.652 331.871C256.954 334.502 256.69 338.511 254.059 340.812C252.854 341.867 251.37 342.379 249.885 342.379V342.371Z" fill="white" stroke="#080717" stroke-width="1.8145" stroke-linecap="round" stroke-linejoin="round"/>
<path d="M250.486 354.411C248.721 354.411 246.965 353.677 245.711 352.25C243.748 350.007 238.577 348.646 236.375 348.332C232.919 347.846 230.494 344.654 230.964 341.198C231.434 337.742 234.61 335.309 238.065 335.771C239.228 335.928 249.62 337.478 255.245 343.903C257.546 346.534 257.283 350.543 254.652 352.844C253.447 353.9 251.963 354.411 250.478 354.411H250.486Z" fill="white" stroke="#080717" stroke-width="1.8145" stroke-linecap="round" stroke-linejoin="round"/>
<path d="M246.321 363.69C244.342 361.43 239.096 360.053 237.009 359.78C233.537 359.319 231.104 356.135 231.566 352.663C232.028 349.19 235.211 346.749 238.684 347.219C239.846 347.376 250.239 348.926 255.864 355.351C258.165 357.982 257.901 361.991 255.27 364.292" fill="white"/>
<path d="M246.321 363.69C244.342 361.43 239.096 360.053 237.009 359.78C233.537 359.319 231.104 356.135 231.566 352.663C232.028 349.19 235.211 346.749 238.684 347.219C239.846 347.376 250.239 348.926 255.864 355.351C258.165 357.982 257.901 361.991 255.27 364.292" stroke="#080717" stroke-width="1.8145" stroke-linecap="round" stroke-linejoin="round"/>
<path d="M60.8633 371.756C60.8633 371.756 92.6253 358.386 107.455 351.466C122.284 344.555 146.78 340.217 146.78 340.217C171.713 333.594 193.759 341.165 194.691 341.487C198.023 342.658 199.772 346.295 198.609 349.627C197.446 352.959 193.8 354.716 190.468 353.57C190.402 353.545 187.845 352.687 183.631 351.854C191.293 355.945 195.532 360.341 195.837 360.663C198.262 363.219 198.147 367.236 195.607 369.669C193.809 371.393 191.26 371.855 189.05 371.08C188.142 370.758 187.285 370.23 186.567 369.488C186.534 369.455 185.363 368.275 183.202 366.684C184.901 368.605 185.833 369.941 185.948 370.123C187.911 373.043 187.128 376.993 184.216 378.964C182.476 380.144 180.348 380.35 178.501 379.698C177.255 379.261 176.142 378.445 175.342 377.274C175.268 377.166 168.777 367.929 155.671 362.815C165.56 367.657 170.228 374.453 170.484 374.832C172.439 377.744 171.663 381.661 168.768 383.649C167.028 384.845 164.892 385.051 163.028 384.391C161.799 383.963 160.686 383.154 159.886 382.008C159.704 381.752 156.38 377.117 149.172 373.876C144.405 381.62 132.495 380.531 132.495 380.531C132.495 380.531 89.9365 422.249 87.2478 421.869C84.559 421.49 73.804 422.009 62.7602 406.504C51.2382 390.338 60.8798 371.731 60.8798 371.731L60.8633 371.756Z" fill="white" stroke="black" stroke-width="1.8145" stroke-linecap="round" stroke-linejoin="round"/>
<path d="M163.522 343.533C163.522 343.533 176.257 346.593 183.622 351.855Z" fill="white"/>
<path d="M163.522 343.533C163.522 343.533 176.257 346.593 183.622 351.855" stroke="black" stroke-width="1.8145" stroke-linecap="round" stroke-linejoin="round"/>
<path d="M161.453 351.829C161.453 351.829 175.202 357.025 183.185 366.692Z" fill="white"/>
<path d="M161.453 351.829C161.453 351.829 175.202 357.025 183.185 366.692" stroke="black" stroke-width="1.8145" stroke-linecap="round" stroke-linejoin="round"/>
<path d="M33.885 381.332L60.8633 371.757" stroke="white" stroke-width="1.8145" stroke-linecap="round" stroke-linejoin="round"/>
</g>
<path d="M134 71.3678C139.942 70.8726 145.677 66.336 150.926 63.8822C160.776 59.277 170.94 55.2253 181.534 52.6953C197.818 48.8066 223.58 44.4616 234.931 59.8067C240.201 66.9311 242.142 75.7092 242.5 84.4676C242.816 92.2155 240.718 96.5266 235.389 102.017C228.562 109.05 215.415 113.316 211.518 101.269C200.505 67.2282 248.393 61.5187 271.153 58.4759C282.77 56.9229 294.306 57.1451 306.003 57.1451C313.128 57.1451 330.015 58.3363 336.782 60.7466C342.173 62.6664 337.854 62.1333 342.849 64.6307" stroke="black" stroke-width="1.5" stroke-linecap="round" stroke-linejoin="round" stroke-dasharray="5 5"/>
<circle cx="94" cy="79" r="49.5" fill="white" stroke="#18292D"/>
<path d="M105.124 89.9215L103.061 91.985C102.616 92.4299 102.616 93.1512 103.061 93.5961L116.521 107.056C116.966 107.501 117.687 107.501 118.132 107.056L120.196 104.993C120.64 104.548 120.64 103.827 120.196 103.382L106.735 89.9215C106.29 89.4766 105.569 89.4766 105.124 89.9215Z" fill="#FFC31F" stroke="#18292D" stroke-width="1.72074" stroke-linecap="round" stroke-linejoin="round"/>
<path d="M115.023 105.569L118.701 101.891" stroke="#18292D" stroke-width="1.72074" stroke-linecap="round" stroke-linejoin="round"/>
<path d="M104.089 90.9553L101.403 88.269" stroke="#18292D" stroke-width="1.72074" stroke-linecap="round" stroke-linejoin="round"/>
<path d="M120.197 104.993C120.642 104.548 120.642 103.827 120.197 103.382L118.646 102.208L115.132 105.722L116.522 107.057C116.967 107.502 117.688 107.502 118.133 107.057L120.197 104.993Z" fill="#18292D"/>
<path d="M107.838 78.0032C110.218 67.9186 103.973 57.8139 93.888 55.4337C83.8034 53.0535 73.6987 59.2992 71.3185 69.3838C68.9383 79.4684 75.184 89.5731 85.2686 91.9533C95.3532 94.3334 105.458 88.0878 107.838 78.0032Z" stroke="#18292D" stroke-width="1.72074" stroke-linecap="round" stroke-linejoin="round"/>
<path d="M89.5748 89.5486C98.3286 89.5486 105.425 82.4522 105.425 73.6984C105.425 64.9445 98.3286 57.8481 89.5748 57.8481C80.821 57.8481 73.7246 64.9445 73.7246 73.6984C73.7246 82.4522 80.821 89.5486 89.5748 89.5486Z" stroke="#18292D" stroke-width="1.72074" stroke-linecap="round" stroke-linejoin="round"/>
<path d="M89.5751 55.5908C79.5967 55.5908 71.4817 63.7199 71.4817 73.6983C71.4817 83.6768 79.5967 91.7918 89.5751 91.7918C99.5536 91.7918 107.669 83.6768 107.669 73.6983C107.669 63.7199 99.5536 55.5908 89.5751 55.5908ZM89.5751 90.1744C80.5952 90.1744 73.0498 82.6712 73.0498 73.6843C73.0498 64.6973 80.5952 57.2223 89.5751 57.2223C98.555 57.2223 106.093 64.4793 106.093 73.4592C106.093 82.4391 98.555 90.1673 89.5751 90.1673V90.1744Z" fill="#18292D"/>
<circle cx="374" cy="79" r="49.5" fill="white" stroke="#18292D"/>
<g clip-path="url(#clip1_937_10738)">
<path d="M359.734 76.2764H389.064" stroke="#18292D" stroke-width="1.25844" stroke-linecap="round" stroke-linejoin="round"/>
<path d="M374.806 51.6777V56.669" stroke="#18292D" stroke-width="1.25844" stroke-linecap="round" stroke-linejoin="round"/>
<path d="M394.119 106.876C393.952 106.876 393.796 106.784 393.715 106.628L391.805 102.981C391.747 102.866 391.736 102.733 391.782 102.612C391.828 102.491 391.92 102.393 392.036 102.347L392.792 102.035C392.913 101.983 393.046 101.989 393.167 102.047C393.282 102.104 393.374 102.208 393.409 102.329L394.546 106.224C394.575 106.282 394.592 106.351 394.592 106.421C394.592 106.674 394.39 106.876 394.136 106.876H394.125H394.119Z" fill="#18292D"/>
<path d="M391.724 102.97L393.409 102.272L393.542 98.042C393.559 97.4996 393.461 96.9572 393.253 96.4552L392.318 94.2048L377.801 59.1562L374.194 60.6507L385.21 87.2401L391.724 102.97Z" fill="white" stroke="#18292D" stroke-width="1.25844" stroke-linecap="round" stroke-linejoin="round"/>
<path d="M357.887 102.97L356.202 102.272L356.07 98.042C356.052 97.4996 356.15 96.9572 356.358 96.4552L357.293 94.2048L371.811 59.1562L375.417 60.6507L364.402 87.2343L357.887 102.964V102.97Z" fill="white" stroke="#18292D" stroke-width="1.25844" stroke-linecap="round" stroke-linejoin="round"/>
<path d="M356.999 102.601L355.527 106.149" stroke="#18292D" stroke-width="1.25844" stroke-linecap="round" stroke-linejoin="round"/>
<path d="M376.768 51.6777H372.844V56.669H376.768V51.6777Z" stroke="#18292D" stroke-width="1.25844" stroke-linecap="round" stroke-linejoin="round"/>
<path d="M374.806 66.8541C377.843 66.8541 380.305 64.3921 380.305 61.355C380.305 58.318 377.843 55.856 374.806 55.856C371.769 55.856 369.307 58.318 369.307 61.355C369.307 64.3921 371.769 66.8541 374.806 66.8541Z" fill="#18292D" stroke="#18292D" stroke-width="1.25844" stroke-linecap="round" stroke-linejoin="round"/>
<path d="M378.181 61.3545C378.181 63.2183 376.67 64.7359 374.8 64.7359C372.931 64.7359 371.419 63.2241 371.419 61.3545C371.419 59.485 372.931 57.9731 374.8 57.9731C376.67 57.9731 378.181 59.485 378.181 61.3545Z" fill="white" stroke="#18292D" stroke-width="1.25844" stroke-linecap="round" stroke-linejoin="round"/>
<path d="M391.107 96.2586C391.107 97.453 390.137 98.4224 388.943 98.4224C387.748 98.4224 386.779 97.453 386.779 96.2586C386.779 95.0641 387.748 94.0947 388.943 94.0947C390.137 94.0947 391.107 95.0641 391.107 96.2586Z" fill="#18292D" stroke="#18292D" stroke-width="1.25844" stroke-linecap="round" stroke-linejoin="round"/>
<path d="M374.817 72.6587H374.788C374.094 72.6587 373.531 73.2219 373.531 73.9166V78.6309C373.531 79.3256 374.094 79.8888 374.788 79.8888H374.817C375.512 79.8888 376.075 79.3256 376.075 78.6309V73.9166C376.075 73.2219 375.512 72.6587 374.817 72.6587Z" fill="#FFC31F" stroke="#FFC31F" stroke-width="1.25844" stroke-linecap="round" stroke-linejoin="round"/>
</g>
<defs>
<clipPath id="clip0_937_10738">
<rect width="243.984" height="212" fill="white" transform="translate(22 219)"/>
</clipPath>
<clipPath id="clip1_937_10738">
<rect width="39.6128" height="55.7522" fill="white" transform="translate(354.973 51.124)"/>
</clipPath>
</defs>
</svg>
