<svg width="460" height="460" viewBox="0 0 460 460" fill="none" xmlns="http://www.w3.org/2000/svg">
<rect width="460" height="460" fill="white"/>
<path d="M341 71.2C341.11 71.2 341.2 71.1105 341.2 71V70C341.2 69.8895 341.11 69.8 341 69.8H336C335.89 69.8 335.8 69.8895 335.8 70V71C335.8 71.1105 335.89 71.2 336 71.2H341ZM328 71.2C328.11 71.2 328.2 71.1105 328.2 71V70C328.2 69.8895 328.11 69.8 328 69.8H323C322.89 69.8 322.8 69.8895 322.8 70V71C322.8 71.1105 322.89 71.2 323 71.2H328ZM315 71.2C315.11 71.2 315.2 71.1105 315.2 71V70C315.2 69.8895 315.11 69.8 315 69.8H310C309.89 69.8 309.8 69.8895 309.8 70V71C309.8 71.1105 309.89 71.2 310 71.2H315ZM302 71.2C302.11 71.2 302.2 71.1105 302.2 71V70C302.2 69.8895 302.11 69.8 302 69.8H297C296.89 69.8 296.8 69.8895 296.8 70V71C296.8 71.1105 296.89 71.2 297 71.2H302ZM289 71.2C289.11 71.2 289.2 71.1105 289.2 71V70C289.2 69.8895 289.11 69.8 289 69.8H284C283.89 69.8 283.8 69.8895 283.8 70V71C283.8 71.1105 283.89 71.2 284 71.2H289ZM276 71.2C276.11 71.2 276.2 71.1105 276.2 71V70C276.2 69.8895 276.11 69.8 276 69.8H271C270.89 69.8 270.8 69.8895 270.8 70V71C270.8 71.1105 270.89 71.2 271 71.2H276ZM263 71.2C263.11 71.2 263.2 71.1105 263.2 71V70C263.2 69.8895 263.11 69.8 263 69.8H258C257.89 69.8 257.8 69.8895 257.8 70V71C257.8 71.1105 257.89 71.2 258 71.2H263ZM250 71.2C250.11 71.2 250.2 71.1105 250.2 71V70C250.2 69.8895 250.11 69.8 250 69.8H245C244.89 69.8 244.8 69.8895 244.8 70V71C244.8 71.1105 244.89 71.2 245 71.2H250ZM237 71.2C237.11 71.2 237.2 71.1105 237.2 71V70C237.2 69.8895 237.11 69.8 237 69.8H232C231.89 69.8 231.8 69.8895 231.8 70V71C231.8 71.1105 231.89 71.2 232 71.2H237ZM224 71.2C224.11 71.2 224.2 71.1105 224.2 71V70C224.2 69.8895 224.11 69.8 224 69.8H219C218.89 69.8 218.8 69.8895 218.8 70V71C218.8 71.1105 218.89 71.2 219 71.2H224ZM211 71.2C211.11 71.2 211.2 71.1105 211.2 71V70C211.2 69.8895 211.11 69.8 211 69.8H206C205.89 69.8 205.8 69.8895 205.8 70V71C205.8 71.1105 205.89 71.2 206 71.2H211ZM198 71.2C198.11 71.2 198.2 71.1105 198.2 71V70C198.2 69.8895 198.11 69.8 198 69.8H193C192.89 69.8 192.8 69.8895 192.8 70V71C192.8 71.1105 192.89 71.2 193 71.2H198ZM185 71.2C185.11 71.2 185.2 71.1105 185.2 71V70C185.2 69.8895 185.11 69.8 185 69.8H180C179.89 69.8 179.8 69.8895 179.8 70V71C179.8 71.1105 179.89 71.2 180 71.2H185ZM172 71.2C172.11 71.2 172.2 71.1105 172.2 71V70C172.2 69.8895 172.11 69.8 172 69.8H167C166.89 69.8 166.8 69.8895 166.8 70V71C166.8 71.1105 166.89 71.2 167 71.2H172ZM159 71.2C159.11 71.2 159.2 71.1105 159.2 71V70C159.2 69.8895 159.11 69.8 159 69.8H154C153.89 69.8 153.8 69.8895 153.8 70V71C153.8 71.1105 153.89 71.2 154 71.2H159ZM146 71.2C146.11 71.2 146.2 71.1105 146.2 71V70C146.2 69.8895 146.11 69.8 146 69.8H141C140.89 69.8 140.8 69.8895 140.8 70V71C140.8 71.1105 140.89 71.2 141 71.2H146ZM133 71.2C133.11 71.2 133.2 71.1105 133.2 71V70C133.2 69.8895 133.11 69.8 133 69.8H128C127.89 69.8 127.8 69.8895 127.8 70V71C127.8 71.1105 127.89 71.2 128 71.2H133ZM120 71.2C120.11 71.2 120.2 71.1105 120.2 71V70C120.2 69.8895 120.11 69.8 120 69.8H115C114.89 69.8 114.8 69.8895 114.8 70V71C114.8 71.1105 114.89 71.2 115 71.2H120ZM107 71.2C107.11 71.2 107.2 71.1105 107.2 71V70C107.2 69.8895 107.11 69.8 107 69.8H102C101.89 69.8 101.8 69.8895 101.8 70V71C101.8 71.1105 101.89 71.2 102 71.2H107Z" fill="black" stroke="black" stroke-width="0.4" stroke-linejoin="round"/>
<mask id="path-2-outside-1_937_10277" maskUnits="userSpaceOnUse" x="88.0325" y="82.9449" width="216.339" height="204.157" fill="black">
<rect fill="white" x="88.0325" y="82.9449" width="216.339" height="204.157"/>
<path d="M275.443 285.443C275.471 285.411 276.199 284.56 277.416 282.695L276.856 282.333C275.675 284.153 274.948 284.998 274.941 285.011L275.449 285.45L275.443 285.443ZM280.139 278.074C280.651 277.13 281.167 276.125 281.671 275.099L281.075 274.802C280.571 275.821 280.062 276.819 279.55 277.758L280.139 278.074ZM283.915 270.235C284.335 269.258 284.766 268.228 285.2 267.152L284.58 266.9C284.146 267.976 283.716 269 283.302 269.971L283.915 270.235ZM287.104 262.147C287.467 261.132 287.832 260.078 288.199 258.991L287.564 258.778C287.196 259.866 286.832 260.913 286.469 261.921L287.097 262.146L287.104 262.147ZM289.828 253.896C290.146 252.859 290.458 251.788 290.766 250.69L290.122 250.51C289.808 251.608 289.495 252.672 289.184 253.709L289.821 253.902L289.828 253.896ZM292.165 245.527C292.437 244.468 292.704 243.387 292.972 242.287L292.326 242.134C292.058 243.234 291.791 244.314 291.52 245.368L292.165 245.534L292.165 245.527ZM294.095 237.047C294.295 235.956 294.477 234.844 294.631 233.737L293.969 233.643C293.814 234.743 293.633 235.842 293.433 236.927L294.088 237.047L294.095 237.047ZM295.224 228.418C295.272 227.846 295.308 227.266 295.343 226.693C295.376 226.154 295.409 225.614 295.428 225.081L294.761 225.053C294.735 225.587 294.709 226.12 294.676 226.659C294.641 227.232 294.606 227.805 294.558 228.37L295.224 228.425L295.224 228.418ZM294.84 219.729L295.509 219.717C295.497 218.606 295.459 217.481 295.4 216.367L294.736 216.4C294.788 217.506 294.827 218.625 294.84 219.723L294.84 219.729ZM294.324 211.1L294.99 211.033C294.877 209.93 294.738 208.812 294.585 207.713L293.924 207.806C294.078 208.898 294.211 210.01 294.324 211.106L294.324 211.1ZM293.049 202.551L293.705 202.424C293.491 201.327 293.258 200.23 293.01 199.145L292.359 199.292C292.607 200.364 292.835 201.461 293.049 202.544L293.049 202.551ZM291.036 194.144L291.675 193.962C291.366 192.893 291.044 191.817 290.701 190.753L290.067 190.962C290.404 192.012 290.733 193.082 291.036 194.144ZM288.295 185.939L288.918 185.703C288.52 184.663 288.096 183.614 287.663 182.598L287.046 182.861C287.478 183.877 287.896 184.912 288.294 185.946L288.295 185.939ZM284.835 178.012L285.435 177.715C284.941 176.715 284.428 175.707 283.899 174.732L283.311 175.051C283.834 176.019 284.348 177.013 284.835 178.012ZM280.651 170.449L281.221 170.096C280.63 169.144 280.02 168.197 279.4 167.283L278.849 167.657C279.462 168.564 280.067 169.504 280.651 170.449ZM275.73 163.348L276.256 162.939C275.568 162.054 274.86 161.175 274.149 160.336L273.641 160.766C274.346 161.598 275.054 162.471 275.73 163.348ZM270.006 156.907L270.47 156.427C269.68 155.67 268.837 154.917 267.973 154.182L267.541 154.69C268.392 155.411 269.223 156.157 270.006 156.907ZM263.347 151.432L263.735 150.887C262.845 150.251 261.907 149.619 260.962 149.006L260.6 149.565C261.539 150.171 262.463 150.803 263.347 151.432ZM256.04 146.826L256.364 146.244C255.407 145.711 254.41 145.175 253.411 144.666L253.107 145.263C254.106 145.772 255.09 146.3 256.04 146.833L256.04 146.826ZM248.307 142.963L248.578 142.352C247.576 141.902 246.54 141.458 245.503 141.034L245.251 141.653C246.282 142.077 247.312 142.515 248.307 142.963ZM240.28 139.745L240.506 139.117C239.465 138.745 238.411 138.38 237.343 138.027L237.137 138.663C238.199 139.016 239.246 139.374 240.287 139.745L240.28 139.745ZM232.045 137.088L232.232 136.444C231.167 136.138 230.089 135.845 229.003 135.558L228.836 136.203C229.915 136.49 230.987 136.783 232.045 137.088ZM154.621 131.637L154.662 130.971C153.557 130.89 152.44 130.788 151.357 130.675L151.289 131.34C152.379 131.453 153.503 131.555 154.621 131.637ZM159.965 131.924C161.08 131.959 162.195 131.98 163.311 131.995L163.318 131.327C162.209 131.319 161.094 131.298 159.993 131.257L159.972 131.924L159.965 131.924ZM145.975 130.66L146.076 129.998C144.97 129.83 143.871 129.643 142.794 129.436L142.674 130.091C143.751 130.297 144.863 130.485 145.976 130.654L145.975 130.66ZM168.663 131.934C169.775 131.902 170.894 131.857 172.008 131.798L171.975 131.134C170.868 131.193 169.756 131.232 168.651 131.265L168.67 131.935L168.663 131.934ZM223.658 134.944L223.805 134.291C222.723 134.051 221.628 133.817 220.532 133.596L220.398 134.25C221.488 134.47 222.577 134.704 223.658 134.944ZM177.338 131.442C178.44 131.362 179.547 131.296 180.66 131.237L180.627 130.573C179.507 130.632 178.4 130.698 177.292 130.777L177.338 131.442ZM137.442 128.955L137.601 128.31C136.515 128.036 135.436 127.743 134.392 127.438L134.206 128.075C135.257 128.387 136.342 128.681 137.442 128.955ZM215.168 133.288L215.275 132.632C214.176 132.452 213.077 132.277 211.977 132.116L211.883 132.779C212.983 132.94 214.076 133.114 215.168 133.294L215.168 133.288ZM185.993 131.069C187.104 131.05 188.214 131.051 189.323 131.052L189.331 130.384C188.215 130.376 187.098 130.381 185.987 130.4L185.999 131.069L185.993 131.069ZM206.603 132.089L206.677 131.425C205.569 131.297 204.465 131.189 203.349 131.081L203.288 131.746C204.392 131.846 205.501 131.961 206.597 132.088L206.603 132.089ZM194.651 131.177C195.758 131.218 196.871 131.279 197.977 131.34L198.018 130.674C196.906 130.606 195.792 130.552 194.678 130.51L194.651 131.177ZM129.129 126.367L129.368 125.74C128.316 125.341 127.285 124.917 126.295 124.482L126.024 125.094C127.027 125.537 128.07 125.962 129.129 126.361L129.129 126.367ZM121.216 122.707L121.545 122.126C120.569 121.578 119.615 121.005 118.708 120.415L118.347 120.974C119.266 121.572 120.233 122.159 121.222 122.708L121.216 122.707ZM114.022 117.775L114.455 117.266C113.603 116.552 112.779 115.8 112.011 115.031L111.541 115.503C112.322 116.28 113.158 117.046 114.022 117.775ZM108.004 111.449L108.537 111.047C107.876 110.164 107.249 109.25 106.685 108.32L106.115 108.666C106.693 109.611 107.331 110.546 108.004 111.449ZM103.66 103.883L104.277 103.626C103.85 102.624 103.467 101.577 103.136 100.534L102.502 100.736C102.844 101.807 103.234 102.867 103.666 103.89L103.66 103.883ZM101.216 95.516L101.872 95.4024C101.683 94.3344 101.53 93.2352 101.424 92.1256L100.758 92.1918C100.87 93.3152 101.022 94.4344 101.216 95.516ZM100.524 86.8288L101.192 86.8362C101.202 85.9141 101.233 84.9733 101.29 84.0407L100.624 84C100.566 84.9459 100.534 85.9 100.524 86.8354L100.524 86.8288Z"/>
</mask>
<path d="M275.443 285.443C275.471 285.411 276.199 284.56 277.416 282.695L276.856 282.333C275.675 284.153 274.948 284.998 274.941 285.011L275.449 285.45L275.443 285.443ZM280.139 278.074C280.651 277.13 281.167 276.125 281.671 275.099L281.075 274.802C280.571 275.821 280.062 276.819 279.55 277.758L280.139 278.074ZM283.915 270.235C284.335 269.258 284.766 268.228 285.2 267.152L284.58 266.9C284.146 267.976 283.716 269 283.302 269.971L283.915 270.235ZM287.104 262.147C287.467 261.132 287.832 260.078 288.199 258.991L287.564 258.778C287.196 259.866 286.832 260.913 286.469 261.921L287.097 262.146L287.104 262.147ZM289.828 253.896C290.146 252.859 290.458 251.788 290.766 250.69L290.122 250.51C289.808 251.608 289.495 252.672 289.184 253.709L289.821 253.902L289.828 253.896ZM292.165 245.527C292.437 244.468 292.704 243.387 292.972 242.287L292.326 242.134C292.058 243.234 291.791 244.314 291.52 245.368L292.165 245.534L292.165 245.527ZM294.095 237.047C294.295 235.956 294.477 234.844 294.631 233.737L293.969 233.643C293.814 234.743 293.633 235.842 293.433 236.927L294.088 237.047L294.095 237.047ZM295.224 228.418C295.272 227.846 295.308 227.266 295.343 226.693C295.376 226.154 295.409 225.614 295.428 225.081L294.761 225.053C294.735 225.587 294.709 226.12 294.676 226.659C294.641 227.232 294.606 227.805 294.558 228.37L295.224 228.425L295.224 228.418ZM294.84 219.729L295.509 219.717C295.497 218.606 295.459 217.481 295.4 216.367L294.736 216.4C294.788 217.506 294.827 218.625 294.84 219.723L294.84 219.729ZM294.324 211.1L294.99 211.033C294.877 209.93 294.738 208.812 294.585 207.713L293.924 207.806C294.078 208.898 294.211 210.01 294.324 211.106L294.324 211.1ZM293.049 202.551L293.705 202.424C293.491 201.327 293.258 200.23 293.01 199.145L292.359 199.292C292.607 200.364 292.835 201.461 293.049 202.544L293.049 202.551ZM291.036 194.144L291.675 193.962C291.366 192.893 291.044 191.817 290.701 190.753L290.067 190.962C290.404 192.012 290.733 193.082 291.036 194.144ZM288.295 185.939L288.918 185.703C288.52 184.663 288.096 183.614 287.663 182.598L287.046 182.861C287.478 183.877 287.896 184.912 288.294 185.946L288.295 185.939ZM284.835 178.012L285.435 177.715C284.941 176.715 284.428 175.707 283.899 174.732L283.311 175.051C283.834 176.019 284.348 177.013 284.835 178.012ZM280.651 170.449L281.221 170.096C280.63 169.144 280.02 168.197 279.4 167.283L278.849 167.657C279.462 168.564 280.067 169.504 280.651 170.449ZM275.73 163.348L276.256 162.939C275.568 162.054 274.86 161.175 274.149 160.336L273.641 160.766C274.346 161.598 275.054 162.471 275.73 163.348ZM270.006 156.907L270.47 156.427C269.68 155.67 268.837 154.917 267.973 154.182L267.541 154.69C268.392 155.411 269.223 156.157 270.006 156.907ZM263.347 151.432L263.735 150.887C262.845 150.251 261.907 149.619 260.962 149.006L260.6 149.565C261.539 150.171 262.463 150.803 263.347 151.432ZM256.04 146.826L256.364 146.244C255.407 145.711 254.41 145.175 253.411 144.666L253.107 145.263C254.106 145.772 255.09 146.3 256.04 146.833L256.04 146.826ZM248.307 142.963L248.578 142.352C247.576 141.902 246.54 141.458 245.503 141.034L245.251 141.653C246.282 142.077 247.312 142.515 248.307 142.963ZM240.28 139.745L240.506 139.117C239.465 138.745 238.411 138.38 237.343 138.027L237.137 138.663C238.199 139.016 239.246 139.374 240.287 139.745L240.28 139.745ZM232.045 137.088L232.232 136.444C231.167 136.138 230.089 135.845 229.003 135.558L228.836 136.203C229.915 136.49 230.987 136.783 232.045 137.088ZM154.621 131.637L154.662 130.971C153.557 130.89 152.44 130.788 151.357 130.675L151.289 131.34C152.379 131.453 153.503 131.555 154.621 131.637ZM159.965 131.924C161.08 131.959 162.195 131.98 163.311 131.995L163.318 131.327C162.209 131.319 161.094 131.298 159.993 131.257L159.972 131.924L159.965 131.924ZM145.975 130.66L146.076 129.998C144.97 129.83 143.871 129.643 142.794 129.436L142.674 130.091C143.751 130.297 144.863 130.485 145.976 130.654L145.975 130.66ZM168.663 131.934C169.775 131.902 170.894 131.857 172.008 131.798L171.975 131.134C170.868 131.193 169.756 131.232 168.651 131.265L168.67 131.935L168.663 131.934ZM223.658 134.944L223.805 134.291C222.723 134.051 221.628 133.817 220.532 133.596L220.398 134.25C221.488 134.47 222.577 134.704 223.658 134.944ZM177.338 131.442C178.44 131.362 179.547 131.296 180.66 131.237L180.627 130.573C179.507 130.632 178.4 130.698 177.292 130.777L177.338 131.442ZM137.442 128.955L137.601 128.31C136.515 128.036 135.436 127.743 134.392 127.438L134.206 128.075C135.257 128.387 136.342 128.681 137.442 128.955ZM215.168 133.288L215.275 132.632C214.176 132.452 213.077 132.277 211.977 132.116L211.883 132.779C212.983 132.94 214.076 133.114 215.168 133.294L215.168 133.288ZM185.993 131.069C187.104 131.05 188.214 131.051 189.323 131.052L189.331 130.384C188.215 130.376 187.098 130.381 185.987 130.4L185.999 131.069L185.993 131.069ZM206.603 132.089L206.677 131.425C205.569 131.297 204.465 131.189 203.349 131.081L203.288 131.746C204.392 131.846 205.501 131.961 206.597 132.088L206.603 132.089ZM194.651 131.177C195.758 131.218 196.871 131.279 197.977 131.34L198.018 130.674C196.906 130.606 195.792 130.552 194.678 130.51L194.651 131.177ZM129.129 126.367L129.368 125.74C128.316 125.341 127.285 124.917 126.295 124.482L126.024 125.094C127.027 125.537 128.07 125.962 129.129 126.361L129.129 126.367ZM121.216 122.707L121.545 122.126C120.569 121.578 119.615 121.005 118.708 120.415L118.347 120.974C119.266 121.572 120.233 122.159 121.222 122.708L121.216 122.707ZM114.022 117.775L114.455 117.266C113.603 116.552 112.779 115.8 112.011 115.031L111.541 115.503C112.322 116.28 113.158 117.046 114.022 117.775ZM108.004 111.449L108.537 111.047C107.876 110.164 107.249 109.25 106.685 108.32L106.115 108.666C106.693 109.611 107.331 110.546 108.004 111.449ZM103.66 103.883L104.277 103.626C103.85 102.624 103.467 101.577 103.136 100.534L102.502 100.736C102.844 101.807 103.234 102.867 103.666 103.89L103.66 103.883ZM101.216 95.516L101.872 95.4024C101.683 94.3344 101.53 93.2352 101.424 92.1256L100.758 92.1918C100.87 93.3152 101.022 94.4344 101.216 95.516ZM100.524 86.8288L101.192 86.8362C101.202 85.9141 101.233 84.9733 101.29 84.0407L100.624 84C100.566 84.9459 100.534 85.9 100.524 86.8354L100.524 86.8288Z" fill="black"/>
<path d="M275.443 285.443C275.471 285.411 276.199 284.56 277.416 282.695L276.856 282.333C275.675 284.153 274.948 284.998 274.941 285.011L275.449 285.45L275.443 285.443ZM280.139 278.074C280.651 277.13 281.167 276.125 281.671 275.099L281.075 274.802C280.571 275.821 280.062 276.819 279.55 277.758L280.139 278.074ZM283.915 270.235C284.335 269.258 284.766 268.228 285.2 267.152L284.58 266.9C284.146 267.976 283.716 269 283.302 269.971L283.915 270.235ZM287.104 262.147C287.467 261.132 287.832 260.078 288.199 258.991L287.564 258.778C287.196 259.866 286.832 260.913 286.469 261.921L287.097 262.146L287.104 262.147ZM289.828 253.896C290.146 252.859 290.458 251.788 290.766 250.69L290.122 250.51C289.808 251.608 289.495 252.672 289.184 253.709L289.821 253.902L289.828 253.896ZM292.165 245.527C292.437 244.468 292.704 243.387 292.972 242.287L292.326 242.134C292.058 243.234 291.791 244.314 291.52 245.368L292.165 245.534L292.165 245.527ZM294.095 237.047C294.295 235.956 294.477 234.844 294.631 233.737L293.969 233.643C293.814 234.743 293.633 235.842 293.433 236.927L294.088 237.047L294.095 237.047ZM295.224 228.418C295.272 227.846 295.308 227.266 295.343 226.693C295.376 226.154 295.409 225.614 295.428 225.081L294.761 225.053C294.735 225.587 294.709 226.12 294.676 226.659C294.641 227.232 294.606 227.805 294.558 228.37L295.224 228.425L295.224 228.418ZM294.84 219.729L295.509 219.717C295.497 218.606 295.459 217.481 295.4 216.367L294.736 216.4C294.788 217.506 294.827 218.625 294.84 219.723L294.84 219.729ZM294.324 211.1L294.99 211.033C294.877 209.93 294.738 208.812 294.585 207.713L293.924 207.806C294.078 208.898 294.211 210.01 294.324 211.106L294.324 211.1ZM293.049 202.551L293.705 202.424C293.491 201.327 293.258 200.23 293.01 199.145L292.359 199.292C292.607 200.364 292.835 201.461 293.049 202.544L293.049 202.551ZM291.036 194.144L291.675 193.962C291.366 192.893 291.044 191.817 290.701 190.753L290.067 190.962C290.404 192.012 290.733 193.082 291.036 194.144ZM288.295 185.939L288.918 185.703C288.52 184.663 288.096 183.614 287.663 182.598L287.046 182.861C287.478 183.877 287.896 184.912 288.294 185.946L288.295 185.939ZM284.835 178.012L285.435 177.715C284.941 176.715 284.428 175.707 283.899 174.732L283.311 175.051C283.834 176.019 284.348 177.013 284.835 178.012ZM280.651 170.449L281.221 170.096C280.63 169.144 280.02 168.197 279.4 167.283L278.849 167.657C279.462 168.564 280.067 169.504 280.651 170.449ZM275.73 163.348L276.256 162.939C275.568 162.054 274.86 161.175 274.149 160.336L273.641 160.766C274.346 161.598 275.054 162.471 275.73 163.348ZM270.006 156.907L270.47 156.427C269.68 155.67 268.837 154.917 267.973 154.182L267.541 154.69C268.392 155.411 269.223 156.157 270.006 156.907ZM263.347 151.432L263.735 150.887C262.845 150.251 261.907 149.619 260.962 149.006L260.6 149.565C261.539 150.171 262.463 150.803 263.347 151.432ZM256.04 146.826L256.364 146.244C255.407 145.711 254.41 145.175 253.411 144.666L253.107 145.263C254.106 145.772 255.09 146.3 256.04 146.833L256.04 146.826ZM248.307 142.963L248.578 142.352C247.576 141.902 246.54 141.458 245.503 141.034L245.251 141.653C246.282 142.077 247.312 142.515 248.307 142.963ZM240.28 139.745L240.506 139.117C239.465 138.745 238.411 138.38 237.343 138.027L237.137 138.663C238.199 139.016 239.246 139.374 240.287 139.745L240.28 139.745ZM232.045 137.088L232.232 136.444C231.167 136.138 230.089 135.845 229.003 135.558L228.836 136.203C229.915 136.49 230.987 136.783 232.045 137.088ZM154.621 131.637L154.662 130.971C153.557 130.89 152.44 130.788 151.357 130.675L151.289 131.34C152.379 131.453 153.503 131.555 154.621 131.637ZM159.965 131.924C161.08 131.959 162.195 131.98 163.311 131.995L163.318 131.327C162.209 131.319 161.094 131.298 159.993 131.257L159.972 131.924L159.965 131.924ZM145.975 130.66L146.076 129.998C144.97 129.83 143.871 129.643 142.794 129.436L142.674 130.091C143.751 130.297 144.863 130.485 145.976 130.654L145.975 130.66ZM168.663 131.934C169.775 131.902 170.894 131.857 172.008 131.798L171.975 131.134C170.868 131.193 169.756 131.232 168.651 131.265L168.67 131.935L168.663 131.934ZM223.658 134.944L223.805 134.291C222.723 134.051 221.628 133.817 220.532 133.596L220.398 134.25C221.488 134.47 222.577 134.704 223.658 134.944ZM177.338 131.442C178.44 131.362 179.547 131.296 180.66 131.237L180.627 130.573C179.507 130.632 178.4 130.698 177.292 130.777L177.338 131.442ZM137.442 128.955L137.601 128.31C136.515 128.036 135.436 127.743 134.392 127.438L134.206 128.075C135.257 128.387 136.342 128.681 137.442 128.955ZM215.168 133.288L215.275 132.632C214.176 132.452 213.077 132.277 211.977 132.116L211.883 132.779C212.983 132.94 214.076 133.114 215.168 133.294L215.168 133.288ZM185.993 131.069C187.104 131.05 188.214 131.051 189.323 131.052L189.331 130.384C188.215 130.376 187.098 130.381 185.987 130.4L185.999 131.069L185.993 131.069ZM206.603 132.089L206.677 131.425C205.569 131.297 204.465 131.189 203.349 131.081L203.288 131.746C204.392 131.846 205.501 131.961 206.597 132.088L206.603 132.089ZM194.651 131.177C195.758 131.218 196.871 131.279 197.977 131.34L198.018 130.674C196.906 130.606 195.792 130.552 194.678 130.51L194.651 131.177ZM129.129 126.367L129.368 125.74C128.316 125.341 127.285 124.917 126.295 124.482L126.024 125.094C127.027 125.537 128.07 125.962 129.129 126.361L129.129 126.367ZM121.216 122.707L121.545 122.126C120.569 121.578 119.615 121.005 118.708 120.415L118.347 120.974C119.266 121.572 120.233 122.159 121.222 122.708L121.216 122.707ZM114.022 117.775L114.455 117.266C113.603 116.552 112.779 115.8 112.011 115.031L111.541 115.503C112.322 116.28 113.158 117.046 114.022 117.775ZM108.004 111.449L108.537 111.047C107.876 110.164 107.249 109.25 106.685 108.32L106.115 108.666C106.693 109.611 107.331 110.546 108.004 111.449ZM103.66 103.883L104.277 103.626C103.85 102.624 103.467 101.577 103.136 100.534L102.502 100.736C102.844 101.807 103.234 102.867 103.666 103.89L103.66 103.883ZM101.216 95.516L101.872 95.4024C101.683 94.3344 101.53 93.2352 101.424 92.1256L100.758 92.1918C100.87 93.3152 101.022 94.4344 101.216 95.516ZM100.524 86.8288L101.192 86.8362C101.202 85.9141 101.233 84.9733 101.29 84.0407L100.624 84C100.566 84.9459 100.534 85.9 100.524 86.8354L100.524 86.8288Z" stroke="black" stroke-width="1.09176" stroke-linejoin="round" mask="url(#path-2-outside-1_937_10277)"/>
<rect x="40" y="426.766" width="380.085" height="2.43644" fill="#18292D"/>
<path d="M176.87 208.931C210.267 206.309 242.333 217.148 265.017 231.908C287.925 246.96 301.443 265.935 302.92 286.213C304.407 306.687 294.137 326.133 278.922 345.341C263.501 364.259 243.133 382.942 219.79 395.051C174.672 420.369 122.976 399.875 98.3337 338.685C73.6652 277.882 108.198 212.424 176.87 208.931Z" fill="#F2F7F8"/>
<path d="M188.217 296.783L200.266 287.513L256.07 300.806C263.897 302.666 270.564 307.776 274.399 314.851L275.538 311.434C278.088 303.784 283.366 297.336 290.367 293.334L323.986 274.074L331.865 281.954L315.646 308.361L264.681 329.21L188.227 296.772L188.217 296.783Z" fill="white"/>
<path d="M264.67 330.264C264.534 330.264 264.388 330.233 264.263 330.181L187.809 297.743C187.464 297.597 187.224 297.283 187.182 296.918C187.14 296.552 187.286 296.186 187.579 295.956L199.628 286.687C199.879 286.499 200.203 286.426 200.506 286.499L256.32 299.781C263.667 301.526 270.052 306.062 274.138 312.353L274.556 311.109C277.189 303.209 282.624 296.573 289.855 292.435L323.473 273.175C323.881 272.945 324.393 273.008 324.728 273.342L332.607 281.222C332.952 281.566 333.015 282.099 332.764 282.507L316.545 308.915C316.43 309.103 316.252 309.249 316.054 309.333L265.088 330.181C264.963 330.233 264.827 330.254 264.691 330.254L264.67 330.264ZM190.275 296.521L264.681 328.091L314.936 307.535L330.538 282.12L323.808 275.39L290.879 294.253C284.097 298.14 278.997 304.369 276.531 311.778L275.392 315.195C275.256 315.592 274.911 315.864 274.493 315.906C274.065 315.948 273.678 315.728 273.48 315.362C269.791 308.559 263.364 303.627 255.829 301.829L200.506 288.662L190.275 296.531V296.521Z" fill="#18292D"/>
<path d="M105.765 306.95C105.703 306.95 105.64 306.95 105.567 306.929C94.2284 304.787 85.7114 300.074 81.5941 293.637C79.1487 289.812 78.3963 285.632 79.4204 281.525C80.2146 278.337 81.9807 275.829 83.3915 273.812C85.283 271.116 85.7219 270.218 84.9799 269.476C76.5153 260.959 75.4911 253.476 76.1286 248.69C76.787 243.758 79.5563 239.442 83.5378 237.143C88.533 234.258 93.8417 234.29 98.5234 234.311C101.429 234.321 103.926 234.342 105.807 233.652C107.887 232.889 108.054 227.549 108.211 222.826C108.378 217.611 108.556 212.229 110.865 209.397C114.742 204.653 121.451 206.45 129.226 208.53C131.348 209.094 133.542 209.68 135.852 210.192C146.239 212.512 161.287 206.095 161.444 206.032C161.977 205.802 162.583 206.043 162.813 206.576C163.043 207.109 162.803 207.715 162.27 207.945C161.632 208.227 146.459 214.685 135.402 212.229C133.051 211.707 130.835 211.111 128.693 210.547C121.326 208.582 115.505 207.025 112.485 210.725C110.625 213.003 110.447 218.259 110.301 222.899C110.113 228.803 109.925 234.384 106.528 235.617C104.292 236.432 101.491 236.422 98.5234 236.401C94.103 236.38 89.0973 236.348 84.5933 238.951C81.1761 240.926 78.783 244.667 78.2187 248.962C77.6439 253.278 78.6158 260.081 86.4848 267.992C88.5748 270.092 86.9028 272.475 85.1262 275.004C83.7468 276.968 82.1793 279.205 81.4687 282.016C80.5908 285.548 81.2492 289.164 83.3811 292.497C87.1849 298.444 95.2107 302.833 105.985 304.86C106.549 304.965 106.925 305.508 106.821 306.083C106.727 306.584 106.288 306.929 105.797 306.929L105.765 306.95Z" fill="#18292D"/>
<path d="M80.0367 255.064C80.5278 258.44 81.9909 261.575 83.5584 264.48C84.3004 265.87 85.2618 267.218 85.7216 268.754C86.2754 270.625 85.6171 272.506 85.0005 274.293C83.9241 277.449 83.3807 280.532 83.7047 283.865C84.0182 286.979 85.0528 290.031 86.5053 292.706C89.7031 298.548 94.8655 302.456 100.592 305.09C103.654 306.49 106.852 307.514 110.081 308.361C113.446 309.249 116.895 310.064 120.385 310.262C133.51 310.984 143.365 300.23 150.053 289.111C153.836 282.82 157.065 276.153 161.203 270.092C164.777 264.867 168.947 260.133 173.545 255.932C182.219 248.032 192.46 242.19 203.36 238.992C203.809 239.306 204.415 239.379 204.958 238.908C205.167 238.731 205.356 238.543 205.544 238.365C205.909 238.219 206.139 237.937 206.265 237.613C207.822 235.867 208.982 233.746 209.692 231.457C213.799 218.186 203.328 205.332 193.766 198.926C188.458 195.362 182.313 193.095 175.97 192.886C172.458 192.76 168.937 193.283 165.488 194.077C162.196 194.829 158.842 195.707 155.759 197.191C150.367 199.793 147.284 205.018 143.093 209.23C141.087 211.247 138.819 212.762 136.102 213.253C133.186 213.776 130.187 213.232 127.303 212.877C124.429 212.522 121.451 212.24 118.598 212.982C115.912 213.692 113.54 215.312 111.732 217.58C109.903 219.879 108.66 222.669 107.897 225.553C107.113 228.5 107.301 231.834 106.141 234.655C104.793 237.947 101.23 237.425 98.5126 237.55C95.1686 237.696 91.835 238.208 88.7103 239.64C82.9209 242.294 79.0543 248.282 80.0262 255.064H80.0367Z" fill="#18292D"/>
<path d="M214.689 216.653C215.665 212.519 213.104 208.376 208.97 207.401C204.836 206.425 200.693 208.985 199.717 213.12C198.742 217.254 201.302 221.396 205.436 222.372C209.571 223.348 213.713 220.787 214.689 216.653Z" fill="#18292D"/>
<path d="M215.054 235.836C220.964 235.836 225.755 231.045 225.755 225.135C225.755 219.225 220.964 214.434 215.054 214.434C209.144 214.434 204.353 219.225 204.353 225.135C204.353 231.045 209.144 235.836 215.054 235.836Z" fill="#18292D"/>
<path d="M115.306 427.179L98.1885 432.049C77.0478 438.058 54.6739 427.117 47.7454 407.376C44.161 397.177 45.2896 386.026 50.8491 376.653L99.3381 289.007C106.789 275.536 124.23 270.061 138.777 276.613L164.924 288.401L183.138 303.48C197.999 315.78 204.937 334.507 201.416 352.847L187.162 427.179H115.306Z" fill="#96D8E8"/>
<path d="M80.8416 385.744C80.2773 385.744 79.807 385.295 79.7966 384.72C79.7861 384.146 80.2459 383.665 80.8207 383.654L110.677 383.027H110.698C111.262 383.027 111.732 383.477 111.743 384.051C111.753 384.626 111.293 385.107 110.719 385.117L80.8625 385.744H80.8416Z" fill="white"/>
<path d="M266.39 426.766L285.436 390.812L283.074 371.678H315.783L305.693 426.766H266.39Z" fill="white"/>
<path d="M266.707 427.024C266.539 427.024 266.372 426.982 266.216 426.899C265.703 426.627 265.515 426 265.777 425.488L285.925 387.47L283.605 368.66C283.563 368.357 283.657 368.064 283.855 367.834C284.054 367.615 284.336 367.479 284.639 367.479H317.348C317.662 367.479 317.955 367.615 318.153 367.866C318.352 368.106 318.435 368.43 318.373 368.733L306.402 425.945C306.287 426.509 305.743 426.875 305.179 426.77C304.615 426.655 304.249 426.112 304.354 425.547C304.458 424.983 316.084 369.579 316.084 369.579H285.82L288.036 387.543C288.067 387.752 288.025 387.972 287.921 388.16L267.616 426.47C267.428 426.826 267.062 427.024 266.696 427.024H266.707Z" fill="#18292D"/>
<path d="M274.881 314.788L184.842 292.017L152.802 407.209L238.556 426.73C242.454 427.619 246.55 426.783 249.79 424.442L304.236 385.034L334.729 278.776L274.881 314.788Z" fill="#18292D"/>
<path d="M309.002 384.23L306.39 379.58L306.149 370.279L288.823 359.014C287.402 358.094 286.503 356.558 286.399 354.875L286.378 354.604C286.252 352.691 288.259 351.374 289.952 352.273C294.362 354.624 301.321 358.366 304.279 360.079C301.332 357.906 294.414 352.273 290.213 348.845C288.091 347.111 287.067 344.404 287.496 341.698V341.645C287.757 340.046 289.575 339.252 290.924 340.14L310.8 353.391L292.909 336.378C291.613 335.145 291.279 333.222 292.073 331.624L292.491 330.777C293.108 329.544 294.675 329.147 295.804 329.951L317.279 345.167L317.028 336.013L309.682 329.69C307.769 328.05 307.08 325.395 307.947 323.023C308.386 321.8 309.87 321.351 310.915 322.114L321.814 330.077C323.654 331.415 324.74 333.557 324.74 335.835V350.444L324.897 361.323C324.949 365.096 323.978 368.805 322.076 372.066L311.928 389.434L308.992 384.219L309.002 384.23Z" fill="white"/>
<path d="M311.939 390.489C311.761 390.489 311.583 390.448 311.416 390.343C310.915 390.05 310.747 389.413 311.04 388.911L321.187 371.543C322.995 368.45 323.915 364.928 323.862 361.344L323.706 350.465V335.845C323.706 333.912 322.776 332.073 321.208 330.934L310.308 322.971C310.079 322.803 309.796 322.751 309.525 322.835C309.253 322.918 309.044 323.117 308.95 323.378C308.239 325.332 308.814 327.548 310.382 328.896L317.728 335.218C317.948 335.406 318.083 335.688 318.094 335.981L318.345 345.135C318.345 345.533 318.146 345.898 317.791 346.086C317.446 346.274 317.018 346.243 316.694 346.013L295.218 330.798C294.926 330.589 294.581 330.526 294.226 330.61C293.881 330.693 293.599 330.923 293.442 331.237L293.024 332.083C292.428 333.274 292.679 334.696 293.64 335.615L311.531 352.628C311.928 353.004 311.97 353.611 311.625 354.039C311.291 354.467 310.685 354.562 310.225 354.258L290.349 341.008C290.014 340.778 289.607 340.746 289.23 340.914C288.854 341.081 288.603 341.405 288.541 341.802C288.164 344.184 289.063 346.546 290.882 348.03C294.842 351.27 301.927 357.038 304.906 359.233C305.355 359.567 305.46 360.184 305.157 360.644C304.853 361.103 304.237 361.26 303.756 360.978C300.747 359.233 293.505 355.356 289.46 353.193C288.812 352.848 288.259 353.119 288.06 353.245C287.621 353.527 287.381 354.008 287.423 354.52L287.443 354.802C287.537 356.15 288.269 357.394 289.398 358.135L306.724 369.401C307.017 369.589 307.194 369.902 307.194 370.247L307.435 379.287L309.922 383.718C310.204 384.219 310.026 384.857 309.525 385.139C309.023 385.421 308.386 385.243 308.103 384.742L305.491 380.091C305.407 379.945 305.366 379.778 305.355 379.611L305.125 370.864L288.259 359.902C286.576 358.804 285.489 356.955 285.353 354.959L285.332 354.676C285.249 353.391 285.845 352.2 286.921 351.51C287.997 350.82 289.314 350.758 290.443 351.364C291.446 351.897 292.648 352.545 293.933 353.234C292.313 351.928 290.787 350.674 289.554 349.671C287.172 347.717 285.98 344.613 286.461 341.551C286.639 340.391 287.36 339.461 288.384 339.012C289.408 338.562 290.568 338.667 291.498 339.283L301.311 345.825L292.188 337.141C290.558 335.584 290.129 333.18 291.143 331.163L291.561 330.317C291.989 329.46 292.773 328.833 293.703 328.593C294.633 328.363 295.626 328.54 296.41 329.105L316.181 343.119L316.004 336.524L309.002 330.505C306.776 328.593 305.961 325.447 306.964 322.688C307.288 321.79 307.999 321.121 308.908 320.849C309.817 320.577 310.768 320.734 311.531 321.298L322.431 329.262C324.531 330.798 325.785 333.264 325.785 335.866V350.475L325.942 361.333C326.005 365.294 324.97 369.192 322.974 372.619L312.827 389.988C312.628 390.322 312.284 390.51 311.928 390.51L311.939 390.489Z" fill="#18292D"/>
<path d="M316.371 358.469C316.151 358.469 315.932 358.406 315.754 358.26L300.455 346.932C299.995 346.587 299.891 345.929 300.235 345.469C300.58 345.009 301.239 344.905 301.698 345.25L316.998 356.578C317.457 356.922 317.562 357.57 317.217 358.041C317.008 358.312 316.694 358.459 316.381 358.459L316.371 358.469Z" fill="#18292D"/>
<path d="M309.974 364.666C309.786 364.666 309.598 364.614 309.431 364.51L293.568 354.875C293.076 354.571 292.92 353.934 293.212 353.443C293.515 352.952 294.153 352.795 294.644 353.088L310.507 362.723C310.999 363.026 311.155 363.663 310.863 364.154C310.664 364.478 310.319 364.656 309.964 364.656L309.974 364.666Z" fill="#18292D"/>
<path d="M324.575 352.336C324.272 352.336 323.969 352.2 323.76 351.949L321.952 349.713C321.293 348.908 320.51 348.229 319.621 347.706L316.319 345.762C315.817 345.47 315.661 344.832 315.943 344.331C316.235 343.829 316.873 343.662 317.374 343.955L320.677 345.898C321.784 346.546 322.767 347.393 323.571 348.396L325.379 350.632C325.745 351.082 325.672 351.74 325.223 352.106C325.024 352.262 324.794 352.336 324.564 352.336H324.575Z" fill="#18292D"/>
<path d="M239.653 426.646C239.57 426.646 239.476 426.646 239.392 426.615C238.828 426.469 238.494 425.904 238.64 425.34L267.367 314.599C267.514 314.045 268.078 313.7 268.642 313.847C269.207 313.993 269.541 314.557 269.395 315.122L240.667 425.862C240.542 426.333 240.124 426.646 239.653 426.646Z" fill="white"/>
<path d="M250.772 423.857C250.689 423.857 250.605 423.857 250.511 423.825C249.947 423.679 249.612 423.115 249.758 422.561L277.096 314.6C277.242 314.035 277.807 313.701 278.361 313.847C278.925 313.994 279.259 314.558 279.113 315.112L251.775 423.073C251.65 423.543 251.232 423.857 250.762 423.857H250.772Z" fill="white"/>
<path d="M110.707 384.063L159.614 381.231L204.78 341.478L238.294 332.324L237.761 336.023C237.218 339.817 234.532 342.952 230.853 344.07L213.475 349.337L202.136 359.965L229.066 356.422L248.201 361.386L246.591 364.73C245.463 367.071 243.091 368.565 240.489 368.565L242.349 370.958L241.858 371.637C239.673 374.699 236.099 376.445 232.337 376.298L222.357 373.916L203.537 377.343L220.811 379.998L232.505 389.298L231.951 389.716C228.575 392.214 224.04 392.496 220.382 390.427L216.035 387.971L197.434 388.232L181.215 401.786L115.295 426.773L112.85 420.419C108.387 408.819 107.635 396.122 110.687 384.073L110.707 384.063Z" fill="white"/>
<path d="M115.306 427.817C114.888 427.817 114.491 427.566 114.334 427.148L111.888 420.795C107.322 408.923 106.559 396.143 109.683 383.811C109.798 383.372 110.185 383.049 110.634 383.028L159.186 380.217L204.08 340.694C204.206 340.589 204.341 340.516 204.498 340.474L238.012 331.32C238.346 331.226 238.712 331.32 238.984 331.539C239.245 331.769 239.381 332.125 239.329 332.47L238.796 336.169C238.2 340.349 235.201 343.839 231.157 345.062L214.018 350.256L205.23 358.501L228.941 355.376C229.077 355.355 229.213 355.376 229.338 355.397L248.473 360.361C248.776 360.445 249.027 360.654 249.162 360.936C249.298 361.218 249.288 361.542 249.162 361.824L247.553 365.168C246.55 367.258 244.648 368.774 242.453 369.348L243.195 370.299C243.478 370.665 243.488 371.177 243.216 371.553L242.725 372.233C240.332 375.587 236.445 377.51 232.317 377.332C232.254 377.332 232.181 377.322 232.118 377.301L222.347 374.971L209.87 377.238L220.999 378.952C221.177 378.983 221.344 379.057 221.49 379.172L233.184 388.472C233.435 388.671 233.581 388.984 233.581 389.308C233.581 389.632 233.414 389.935 233.153 390.134L232.588 390.541C228.889 393.279 223.894 393.593 219.881 391.325L215.774 389.005L197.821 389.266L181.894 402.58C181.8 402.653 181.706 402.716 181.591 402.758L115.671 427.744C115.546 427.786 115.421 427.807 115.306 427.807V427.817ZM111.523 385.065C108.722 396.738 109.516 408.819 113.832 420.042L115.901 425.435L180.682 400.877L196.765 387.438C196.953 387.281 197.183 387.197 197.423 387.197L216.025 386.936C216.213 386.936 216.391 386.978 216.558 387.072L220.905 389.528C224.009 391.273 227.813 391.158 230.781 389.266L220.393 381L203.391 378.388C202.889 378.315 202.513 377.876 202.502 377.374C202.502 376.862 202.858 376.423 203.359 376.329L222.18 372.901C222.326 372.87 222.473 372.88 222.608 372.912L232.484 375.274C235.901 375.368 239.047 373.8 241.011 371.052L241.043 370.999L239.663 369.223C239.423 368.909 239.371 368.481 239.548 368.126C239.726 367.77 240.092 367.54 240.489 367.54C242.673 367.54 244.7 366.266 245.641 364.301L246.696 362.106L228.983 357.519L202.251 361.04C201.802 361.103 201.363 360.863 201.165 360.455C200.966 360.048 201.06 359.556 201.395 359.243L212.733 348.615C212.848 348.5 212.994 348.427 213.141 348.375L230.519 343.108C233.79 342.115 236.204 339.294 236.695 335.918L236.998 333.786L205.251 342.46L160.273 382.056C160.095 382.213 159.876 382.296 159.646 382.317L111.512 385.107L111.523 385.065Z" fill="#18292D"/>
<path d="M240.499 369.609C240.405 369.609 240.301 369.599 240.207 369.567L223.706 364.792L199.848 368.919C199.273 369.013 198.74 368.637 198.636 368.073C198.542 367.509 198.918 366.965 199.482 366.861L223.58 362.691C223.737 362.66 223.894 362.67 224.051 362.712L240.781 367.561C241.335 367.718 241.659 368.303 241.492 368.857C241.356 369.317 240.938 369.609 240.489 369.609H240.499Z" fill="#18292D"/>
<path d="M140.22 277.271C143.324 281.587 145.163 286.467 146.751 289.843C155.091 307.566 158.915 312.52 170.379 310.691C177.412 309.573 176.932 304.88 176.357 297.868L164.914 288.4L140.209 277.271H140.22Z" fill="white"/>
<path d="M161.428 246.067L139.737 276.098L162.204 292.325L183.895 262.294L161.428 246.067Z" fill="white"/>
<path d="M162.217 293.375C162.008 293.375 161.788 293.312 161.611 293.177C161.14 292.842 161.036 292.184 161.381 291.714L182.459 262.537L161.684 247.53L140.606 276.707C140.271 277.177 139.613 277.282 139.143 276.937C138.672 276.603 138.568 275.944 138.913 275.474L160.607 245.45C160.942 244.98 161.6 244.876 162.07 245.221L184.538 261.45C184.758 261.617 184.915 261.857 184.956 262.129C184.998 262.401 184.935 262.683 184.768 262.913L163.074 292.936C162.865 293.218 162.551 293.365 162.227 293.365L162.217 293.375Z" fill="#18292D"/>
<path d="M147.231 264.908L160.054 247.153L181.173 262.41L173.576 277.699C164.965 275.609 151.244 273.477 147.231 264.908Z" fill="#18292D"/>
<path d="M203.035 216.075L197.967 213.902C183.587 207.736 167.128 213.317 159.27 226.358C156.657 225.24 153.595 225.209 150.826 226.526C145.726 228.971 143.574 235.084 146.019 240.184C147.304 242.859 149.593 244.709 152.216 245.524C150.669 259.245 158.141 272.925 171.486 278.641L175.509 280.365C186.764 285.183 199.796 279.968 204.613 268.713L214.698 245.179C219.515 233.924 214.301 220.893 203.046 216.075H203.035Z" fill="white"/>
<path d="M184.225 283.207C181.121 283.207 178.028 282.58 175.091 281.316L171.068 279.592C157.974 273.99 149.854 260.353 151.087 246.224C148.464 245.179 146.301 243.173 145.078 240.623C142.393 235.011 144.765 228.26 150.377 225.574C153.031 224.299 156.062 224.132 158.841 225.062C167.212 212.01 184.037 206.785 198.385 212.93L203.453 215.103C209.149 217.549 213.559 222.053 215.868 227.811C218.167 233.569 218.094 239.87 215.659 245.576L205.575 269.11C203.14 274.805 198.625 279.215 192.867 281.525C190.077 282.643 187.161 283.197 184.235 283.197L184.225 283.207ZM155.226 226.567C153.867 226.567 152.519 226.87 151.275 227.466C146.709 229.66 144.765 235.157 146.96 239.724C148.078 242.044 150.053 243.747 152.519 244.521C153 244.667 153.303 245.137 153.251 245.639C151.725 259.151 159.385 272.318 171.894 277.679L175.917 279.403C181.1 281.619 186.848 281.692 192.084 279.592C197.319 277.491 201.426 273.489 203.652 268.295L213.736 244.761C215.952 239.578 216.025 233.83 213.924 228.594C211.824 223.359 207.822 219.252 202.628 217.026L197.559 214.852C183.901 209.011 167.829 214.173 160.169 226.881C159.897 227.33 159.343 227.508 158.862 227.299C157.702 226.797 156.469 226.557 155.236 226.557L155.226 226.567Z" fill="#18292D"/>
<path d="M192.459 211.549L191.132 210.974C179.188 205.854 165.352 211.392 160.231 223.347L159.667 224.675C159.322 225.49 159.604 226.462 160.367 226.911C162.091 227.904 163.554 229.408 164.484 231.342C165.989 234.487 165.749 238.009 164.139 240.831C163.073 242.701 165.665 244.488 167.076 242.868C167.348 242.565 167.578 242.22 167.766 241.834L170.556 236.316C170.807 235.814 171.277 235.47 171.82 235.365L173.033 235.135C176.199 234.529 179.041 232.805 181.037 230.276C181.09 230.213 181.142 230.14 181.184 230.067C181.863 228.959 187.746 219.408 192.972 214.527C193.922 213.639 193.672 212.061 192.47 211.549H192.459Z" fill="#18292D"/>
<path d="M206.588 272.652C206.013 272.652 205.449 272.61 204.874 272.516C201.958 272.067 199.409 270.51 197.663 268.127C195.929 265.744 195.218 262.839 195.667 259.924C196.117 257.008 197.674 254.458 200.057 252.713C202.439 250.978 205.355 250.268 208.26 250.717C211.176 251.166 213.736 252.723 215.471 255.106C217.205 257.489 217.916 260.394 217.467 263.31C217.017 266.225 215.46 268.785 213.078 270.52C211.165 271.91 208.918 272.652 206.598 272.652H206.588ZM206.546 252.682C204.665 252.682 202.836 253.277 201.29 254.406C199.367 255.817 198.102 257.886 197.737 260.248C197.371 262.609 197.946 264.971 199.356 266.894C202.262 270.875 207.863 271.743 211.844 268.838C213.767 267.427 215.032 265.358 215.397 262.996C215.763 260.634 215.188 258.273 213.778 256.35C212.367 254.427 210.298 253.162 207.936 252.797C207.466 252.723 207.006 252.692 206.546 252.692V252.682Z" fill="#FFC31F"/>
<path d="M186.398 261.135C185.823 261.135 185.249 261.094 184.684 261C181.769 260.55 179.208 258.993 177.474 256.61C175.739 254.228 175.028 251.323 175.478 248.407C175.927 245.491 177.484 242.931 179.867 241.196C182.249 239.462 185.155 238.751 188.07 239.2C190.986 239.65 193.536 241.207 195.281 243.589C197.016 245.972 197.726 248.877 197.277 251.793C196.828 254.709 195.27 257.258 192.888 259.004C190.975 260.393 188.729 261.135 186.409 261.135H186.398ZM186.356 241.165C184.475 241.165 182.647 241.761 181.1 242.889C179.177 244.3 177.913 246.369 177.547 248.731C177.181 251.093 177.756 253.454 179.167 255.377C180.577 257.3 182.647 258.565 185.008 258.93C187.37 259.296 189.732 258.721 191.655 257.311C193.578 255.9 194.842 253.831 195.208 251.469C195.574 249.107 194.999 246.745 193.588 244.823C192.177 242.9 190.108 241.635 187.746 241.27C187.276 241.196 186.816 241.165 186.356 241.165Z" fill="#FFC31F"/>
<path d="M179.062 244.363C178.905 244.363 178.738 244.321 178.592 244.248L165.393 237.477C164.881 237.215 164.672 236.588 164.944 236.066C165.216 235.543 165.843 235.345 166.355 235.616L179.553 242.388C180.065 242.649 180.274 243.276 180.003 243.799C179.815 244.165 179.449 244.363 179.073 244.363H179.062Z" fill="#FFC31F"/>
<path d="M199.503 255.911C199.367 255.911 199.221 255.879 199.085 255.827L195.772 254.395C195.239 254.166 194.999 253.549 195.229 253.026C195.459 252.494 196.075 252.253 196.598 252.483L199.91 253.915C200.443 254.145 200.684 254.761 200.454 255.284C200.287 255.681 199.9 255.911 199.492 255.911H199.503Z" fill="#FFC31F"/>
<path d="M188.373 252.577C187.6 254.051 187.746 255.65 188.687 256.141C189.627 256.632 191.017 255.827 191.78 254.354C192.554 252.88 192.407 251.281 191.467 250.79C190.526 250.299 189.136 251.104 188.373 252.577Z" fill="#18292D"/>
<path d="M200.736 259.171C199.963 260.644 200.109 262.243 201.05 262.734C201.99 263.226 203.38 262.421 204.143 260.947C204.916 259.474 204.77 257.875 203.829 257.384C202.889 256.893 201.499 257.697 200.736 259.171Z" fill="#18292D"/>
<path d="M188.353 272.046C188.353 272.046 188.248 272.046 188.196 272.035C186.221 271.732 182.427 269.997 182.271 265.546C182.25 264.971 182.699 264.48 183.274 264.469C183.828 264.417 184.34 264.898 184.35 265.472C184.486 269.287 188.332 269.945 188.499 269.966C189.063 270.06 189.46 270.593 189.366 271.157C189.283 271.669 188.844 272.046 188.332 272.046H188.353Z" fill="#18292D"/>
<path d="M197.121 241.343C196.849 241.343 196.567 241.239 196.368 241.019C196.326 240.977 192.303 236.849 187.684 237.853C187.13 237.978 186.566 237.612 186.44 237.048C186.315 236.484 186.681 235.93 187.245 235.804C193.035 234.55 197.695 239.368 197.883 239.567C198.281 239.985 198.26 240.643 197.852 241.04C197.654 241.228 197.392 241.333 197.131 241.333L197.121 241.343Z" fill="#18292D"/>
<path d="M214.917 253.142C214.572 253.142 214.248 252.974 214.039 252.671C211.395 248.637 206.797 248.69 206.599 248.711C206.045 248.732 205.543 248.272 205.533 247.697C205.522 247.122 205.972 246.641 206.547 246.621C206.797 246.621 212.493 246.506 215.785 251.532C216.098 252.013 215.962 252.661 215.481 252.974C215.304 253.089 215.105 253.142 214.907 253.142H214.917Z" fill="#18292D"/>
<path d="M158.663 242.868C158.475 242.868 158.277 242.816 158.099 242.701C157.608 242.388 157.472 241.74 157.775 241.259C157.796 241.217 160.168 237.455 159.364 234.268C159.029 232.92 158.183 231.885 156.782 231.091C156.281 230.809 156.103 230.171 156.385 229.67C156.667 229.168 157.305 228.991 157.807 229.273C159.708 230.349 160.921 231.864 161.391 233.777C162.405 237.842 159.646 242.21 159.531 242.398C159.332 242.712 158.998 242.879 158.653 242.879L158.663 242.868Z" fill="#18292D"/>
<path d="M175.645 212.605C175.175 212.605 174.746 212.281 174.631 211.8C173.565 207.369 178.08 204.172 178.279 204.036C178.759 203.712 179.407 203.827 179.731 204.297C180.066 204.767 179.94 205.426 179.47 205.75C179.438 205.771 175.938 208.268 176.659 211.309C176.795 211.873 176.45 212.438 175.885 212.574C175.802 212.595 175.718 212.605 175.645 212.605Z" fill="#18292D"/>
<path d="M175.008 210.776C174.579 210.776 174.172 210.505 174.026 210.076C173.576 208.791 172.604 208.822 172.416 208.843C171.862 208.895 171.329 208.498 171.267 207.924C171.204 207.359 171.591 206.847 172.155 206.764C173.116 206.628 175.185 207.004 176.011 209.387C176.199 209.93 175.917 210.526 175.363 210.714C175.248 210.756 175.133 210.776 175.018 210.776H175.008Z" fill="#18292D"/>
<path d="M190.193 220.13C200.841 220.13 209.473 217.136 209.473 213.442C209.473 209.748 200.841 206.754 190.193 206.754C179.544 206.754 170.912 209.748 170.912 213.442C170.912 217.136 179.544 220.13 190.193 220.13Z" fill="#18292D"/>
<path d="M172.928 296.552C172.74 296.552 172.552 296.5 172.375 296.395L164.965 291.766C164.474 291.463 164.328 290.815 164.631 290.324C164.934 289.832 165.582 289.686 166.073 289.989L173.482 294.619C173.973 294.922 174.12 295.57 173.817 296.061C173.618 296.374 173.273 296.552 172.928 296.552Z" fill="#18292D"/>
<path d="M99.4952 385.4C99.328 385.4 99.1608 385.358 99.0041 385.275C98.492 385.003 98.2935 384.376 98.5652 383.864L118.724 345.637C118.995 345.125 119.622 344.926 120.134 345.198C120.646 345.47 120.845 346.097 120.573 346.609L100.415 384.836C100.227 385.191 99.861 385.389 99.4848 385.389L99.4952 385.4Z" fill="white"/>
<path d="M347.334 426.035H379.025C382.804 426.035 385.856 422.974 385.856 419.204V381.988C385.856 379.322 386.527 376.693 387.833 374.367C388.633 372.942 389.727 371.323 391.207 369.715C393.91 366.791 397.78 364.079 397.78 364.079C398.571 363.086 397.863 361.624 396.594 361.624H343.602C341.892 361.624 340.494 363.012 340.494 364.722V419.195C340.494 422.974 343.556 426.026 347.325 426.026L347.334 426.035Z" fill="white" stroke="#18292D" stroke-width="1.33635" stroke-linecap="round" stroke-linejoin="round"/>
<path d="M386.84 376.527H373.574" stroke="#18292D" stroke-width="1.33635" stroke-linecap="round" stroke-linejoin="round"/>
<path d="M379.025 426.035H347.334L347.325 426.026C343.556 426.026 340.494 422.973 340.494 419.195V382.909C341.617 382.706 344.511 382.503 350.359 385.752C353.607 387.917 359.374 392.818 366.196 388.595C370.098 386.023 381.924 380.229 385.687 385.752L385.856 419.204C385.856 422.973 382.804 426.035 379.025 426.035Z" fill="#96D8E8" stroke="#18292D" stroke-width="1.33635" stroke-linecap="round" stroke-linejoin="round"/>
<path d="M385.865 388.277H373.573" stroke="#18292D" stroke-width="1.33635" stroke-linecap="round" stroke-linejoin="round"/>
<rect x="346.704" y="374.788" width="22.7401" height="18.6794" rx="2.43644" fill="#FFC31F"/>
<path d="M385.865 400.036H373.573" stroke="#18292D" stroke-width="1.33635" stroke-linecap="round" stroke-linejoin="round"/>
<path d="M385.865 411.785H373.573" stroke="#18292D" stroke-width="1.33635" stroke-linecap="round" stroke-linejoin="round"/>
<path d="M385.687 385.752C383.251 383.721 382.033 383.411 380.037 383.411C374.723 382.114 366.588 389.263 360.511 389.015C354.434 388.766 346.704 381.705 341.019 382.114" stroke="#18292D" stroke-width="1.38065" stroke-linecap="round" stroke-linejoin="round"/>
<path d="M357.345 352.147C357.575 352.015 357.947 352.015 358.176 352.147L360.522 353.5C360.751 353.633 360.751 353.847 360.522 353.979C360.293 354.111 359.921 354.111 359.691 353.979L358.346 353.203V371.27C358.346 371.457 358.084 371.608 357.76 371.608C357.435 371.608 357.173 371.457 357.173 371.27V353.203L355.828 353.979C355.599 354.111 355.227 354.111 354.997 353.979C354.768 353.847 354.768 353.633 354.997 353.5L357.344 352.147H357.345Z" fill="#18292D"/>
<path d="M357.345 417.057C357.575 417.189 357.947 417.189 358.176 417.057L360.522 415.704C360.751 415.572 360.751 415.357 360.522 415.225C360.293 415.093 359.921 415.093 359.691 415.225L358.346 416.001V397.934C358.346 397.747 358.084 397.596 357.76 397.596C357.435 397.596 357.173 397.747 357.173 397.934V416.001L355.828 415.225C355.599 415.093 355.227 415.093 354.997 415.225C354.768 415.357 354.768 415.572 354.997 415.704L357.344 417.057H357.345Z" fill="#18292D"/>
<circle cx="94" cy="71" r="49.5" fill="white" stroke="#18292D"/>
<g clip-path="url(#clip0_937_10277)">
<path d="M107.408 76.0198L114.168 90.1698C115.63 94.0774 112.746 98.2377 108.579 98.2377H79.816C75.6492 98.2377 72.7649 94.0708 74.227 90.1698L79.816 78.6509L81.9739 77.7739C83.1433 77.1892 86.0082 76.2829 88.1131 77.3354C90.7442 78.6509 94.2524 77.7739 98.199 75.1428C101.356 73.0379 105.654 74.8504 107.408 76.0198Z" fill="#18292D"/>
<path d="M114.168 90.1701L104.106 68.3588C102.385 64.6372 101.355 61.9789 101.096 57.8917C101.082 57.6392 101.069 57.4398 101.069 57.3335V45.9958H87.3324V57.3268C87.3324 57.4398 87.3257 57.6325 87.3058 57.8851C87.0466 61.9789 86.0099 64.6305 84.2953 68.3521L74.227 90.1701C72.7649 94.0712 75.6492 98.238 79.816 98.238H108.579C112.746 98.238 115.63 94.0778 114.168 90.1701Z" stroke="#18292D" stroke-width="1.28836" stroke-linecap="round" stroke-linejoin="round"/>
<path d="M101.98 44.647H86.4221C86.1762 44.647 85.9768 44.8463 85.9768 45.0922V46.8866C85.9768 47.1325 86.1762 47.3319 86.4221 47.3319H101.98C102.226 47.3319 102.425 47.1325 102.425 46.8866V45.0922C102.425 44.8463 102.226 44.647 101.98 44.647Z" fill="#FFC31F" stroke="#FFC31F" stroke-width="1.3" stroke-linecap="round" stroke-linejoin="round"/>
<path d="M108.765 93.6329C108.765 94.3706 108.167 94.9687 107.429 94.9687C106.691 94.9687 106.093 94.3706 106.093 93.6329C106.093 92.8952 106.691 92.2971 107.429 92.2971C108.167 92.2971 108.765 92.8952 108.765 93.6329Z" fill="white" stroke="#18292D" stroke-width="1.28836" stroke-linecap="round" stroke-linejoin="round"/>
<path d="M103.761 81.5639C104.499 81.5639 105.097 80.9659 105.097 80.2281C105.097 79.4904 104.499 78.8923 103.761 78.8923C103.023 78.8923 102.425 79.4904 102.425 80.2281C102.425 80.9659 103.023 81.5639 103.761 81.5639Z" fill="white" stroke="#18292D" stroke-width="1.28836" stroke-linecap="round" stroke-linejoin="round"/>
<path d="M90.0706 93.6323C90.0706 94.164 89.6386 94.596 89.1069 94.596C88.5753 94.596 88.1433 94.164 88.1433 93.6323C88.1433 93.1007 88.5753 92.6687 89.1069 92.6687C89.6386 92.6687 90.0706 93.1007 90.0706 93.6323Z" fill="white" stroke="#18292D" stroke-width="1.28836" stroke-linecap="round" stroke-linejoin="round"/>
<path d="M91.0342 82.0759C91.0342 82.6076 90.6022 83.0396 90.0706 83.0396C89.5389 83.0396 89.1069 82.6076 89.1069 82.0759C89.1069 81.5443 89.5389 81.1123 90.0706 81.1123C90.6022 81.1123 91.0342 81.5443 91.0342 82.0759Z" fill="white" stroke="#18292D" stroke-width="1.28836" stroke-linecap="round" stroke-linejoin="round"/>
<path d="M84.4149 86.8078C84.4149 88.0173 83.438 88.9942 82.2284 88.9942C81.0189 88.9942 80.042 88.0173 80.042 86.8078C80.042 85.5983 81.0189 84.6213 82.2284 84.6213C83.438 84.6213 84.4149 85.5983 84.4149 86.8078Z" fill="white" stroke="#18292D" stroke-width="1.28836" stroke-linecap="round" stroke-linejoin="round"/>
<path d="M101.501 88.1901C101.501 89.393 100.524 90.3766 99.3146 90.3766C98.1051 90.3766 97.1282 89.3996 97.1282 88.1901C97.1282 86.9806 98.1051 86.0037 99.3146 86.0037C100.524 86.0037 101.501 86.9806 101.501 88.1901Z" fill="white" stroke="#18292D" stroke-width="1.28836" stroke-linecap="round" stroke-linejoin="round"/>
<path d="M79.5437 79.2648L83.4647 77.4173C84.847 76.766 86.4353 76.673 87.8841 77.1714L89.1734 77.6101C90.981 78.2281 92.9681 78.0354 94.6229 77.0784L97.341 75.5034C99.6006 74.2008 102.345 74.0612 104.724 75.1312L107.423 76.3474" stroke="#18292D" stroke-width="1.28836" stroke-linecap="round" stroke-linejoin="round"/>
</g>
<circle cx="350" cy="71" r="49.5" fill="white" stroke="#18292D"/>
<g clip-path="url(#clip1_937_10277)">
<path d="M379.119 89.8391C377.763 90.7476 375.994 90.7476 374.638 89.8391C373.282 88.9306 371.514 88.9306 370.158 89.8391C368.802 90.7476 367.033 90.7476 365.677 89.8391C364.321 88.9306 362.553 88.9306 361.197 89.8391C359.841 90.7476 358.072 90.7476 356.716 89.8391C355.36 88.9306 353.592 88.9306 352.236 89.8391C350.88 90.7476 349.112 90.7476 347.755 89.8391C346.399 88.9306 344.631 88.9306 343.275 89.8391C341.919 90.7476 340.151 90.7476 338.794 89.8391C337.438 88.9306 335.67 88.9306 334.314 89.8391C332.958 90.7476 331.19 90.7476 329.834 89.8391C328.477 88.9306 326.709 88.9306 325.353 89.8391C323.997 90.7476 322.229 90.7476 320.873 89.8391V95.977H379.119V89.8391Z" fill="white" stroke="#18292D" stroke-width="1.3" stroke-linecap="round" stroke-linejoin="round"/>
<path d="M374.638 84.9646C373.282 84.0561 371.514 84.0561 370.158 84.9646C368.802 85.8731 367.033 85.8731 365.677 84.9646C364.321 84.0561 362.553 84.0561 361.197 84.9646C359.841 85.8731 358.072 85.8731 356.716 84.9646C355.36 84.0561 353.592 84.0561 352.236 84.9646C350.88 85.8731 349.112 85.8731 347.755 84.9646C346.399 84.0561 344.631 84.0561 343.275 84.9646C341.919 85.8731 340.151 85.8731 338.794 84.9646C337.438 84.0561 335.67 84.0561 334.314 84.9646C332.958 85.8731 331.19 85.8731 329.834 84.9646C328.477 84.0561 326.709 84.0561 325.353 84.9646C323.997 85.8731 322.229 85.8731 320.873 84.9646V89.8439C322.229 90.7524 323.997 90.7524 325.353 89.8439C326.709 88.9354 328.477 88.9354 329.834 89.8439C331.19 90.7524 332.958 90.7524 334.314 89.8439C335.67 88.9354 337.438 88.9354 338.794 89.8439C340.151 90.7524 341.919 90.7524 343.275 89.8439C344.631 88.9354 346.399 88.9354 347.755 89.8439C349.112 90.7524 350.88 90.7524 352.236 89.8439C353.592 88.9354 355.36 88.9354 356.716 89.8439C358.072 90.7524 359.841 90.7524 361.197 89.8439C362.553 88.9354 364.321 88.9354 365.677 89.8439C367.033 90.7524 368.802 90.7524 370.158 89.8439C371.514 88.9354 373.282 88.9354 374.638 89.8439C375.994 90.7524 377.763 90.7524 379.119 89.8439V84.9646C377.763 85.8731 375.994 85.8731 374.638 84.9646Z" fill="#18292D" stroke="#18292D" stroke-width="1.3" stroke-linecap="round" stroke-linejoin="round"/>
<path d="M374.638 80.1433C373.282 79.2348 371.514 79.2348 370.158 80.1433C368.802 81.0518 367.033 81.0518 365.677 80.1433C364.321 79.2348 362.553 79.2348 361.197 80.1433C359.841 81.0518 358.072 81.0518 356.716 80.1433C355.36 79.2348 353.592 79.2348 352.236 80.1433C350.88 81.0518 349.112 81.0518 347.755 80.1433C346.399 79.2348 344.631 79.2348 343.275 80.1433C341.919 81.0518 340.151 81.0518 338.794 80.1433C337.438 79.2348 335.67 79.2348 334.314 80.1433C332.958 81.0518 331.19 81.0518 329.834 80.1433C328.477 79.2348 326.709 79.2348 325.353 80.1433C323.997 81.0518 322.229 81.0518 320.873 80.1433V85.0226C322.229 85.9311 323.997 85.9311 325.353 85.0226C326.709 84.1141 328.477 84.1141 329.834 85.0226C331.19 85.9311 332.958 85.9311 334.314 85.0226C335.67 84.1141 337.438 84.1141 338.794 85.0226C340.151 85.9311 341.919 85.9311 343.275 85.0226C344.631 84.1141 346.399 84.1141 347.755 85.0226C349.112 85.9311 350.88 85.9311 352.236 85.0226C353.592 84.1141 355.36 84.1141 356.716 85.0226C358.072 85.9311 359.841 85.9311 361.197 85.0226C362.553 84.1141 364.321 84.1141 365.677 85.0226C367.033 85.9311 368.802 85.9311 370.158 85.0226C371.514 84.1141 373.282 84.1141 374.638 85.0226C375.994 85.9311 377.763 85.9311 379.119 85.0226V80.1433C377.763 81.0518 375.994 81.0518 374.638 80.1433Z" fill="white" stroke="#18292D" stroke-width="1.3" stroke-linecap="round" stroke-linejoin="round"/>
<path d="M358.564 64.4324C358.564 69.1832 354.731 73.0344 349.998 73.0344C345.265 73.0344 341.431 69.1832 341.431 64.4324C341.431 59.6816 349.998 46.3066 349.998 46.3066C349.998 46.3066 358.564 59.6816 358.564 64.4324Z" fill="white" stroke="#18292D" stroke-width="1.3" stroke-linecap="round" stroke-linejoin="round"/>
</g>
<defs>
<clipPath id="clip0_937_10277">
<rect width="41.9945" height="54.8673" fill="white" transform="translate(73.2036 44.0088)"/>
</clipPath>
<clipPath id="clip1_937_10277">
<rect width="59.292" height="50.7255" fill="white" transform="translate(320.354 45.7788)"/>
</clipPath>
</defs>
</svg>
