<svg width="460" height="460" viewBox="0 0 460 460" fill="none" xmlns="http://www.w3.org/2000/svg">
<rect width="460" height="460" fill="white"/>
<path d="M117.384 102.507C137.868 89.3744 189.298 69.3862 231.147 94.492" stroke="black" stroke-width="1.5" stroke-linecap="round" stroke-dasharray="5 5"/>
<path d="M289.578 192.891C308.675 191.392 327.01 197.59 339.981 206.029C353.08 214.636 360.81 225.486 361.654 237.081C362.505 248.788 356.632 259.907 347.932 270.891C339.114 281.708 327.468 292.391 314.12 299.314C288.322 313.792 258.762 302.073 244.671 267.085C230.566 232.317 250.312 194.888 289.578 192.891Z" fill="#F2F7F8"/>
<path d="M171.726 373.579C171.726 373.579 156.142 410.687 135.46 404.377C134.704 404.145 137.781 393.168 137.781 393.168L163.542 354.376L171.717 373.579H171.726Z" fill="white"/>
<path d="M140.171 405.951C138.512 405.951 136.853 405.701 135.22 405.203C134.386 404.945 133.664 404.73 136.965 392.937C136.99 392.851 137.025 392.765 137.076 392.696L162.838 353.904C163.01 353.637 163.31 353.491 163.628 353.525C163.946 353.551 164.213 353.758 164.342 354.041L172.516 373.244C172.611 373.459 172.611 373.7 172.516 373.915C172.473 374.009 168.502 383.387 162.03 391.871C154.93 401.172 147.46 405.951 140.162 405.951H140.171ZM136.217 403.699C154.663 408.684 169.207 377.172 170.797 373.579L163.396 356.182L138.589 393.53C137.437 397.647 136.328 402.246 136.217 403.699Z" fill="#18292D"/>
<path d="M157.07 397.965L156.992 415.638L105.985 415.423C101.705 415.406 101.017 408.813 104.876 405.598L138.683 392.645C138.683 392.645 141.701 404.438 157.07 397.957V397.965Z" fill="white"/>
<path d="M157.07 398.43L157.018 411.057L106.011 410.842C101.73 410.825 101.034 407.052 104.885 404.765L137.979 392.98C137.979 392.98 141.709 403.046 157.07 398.43Z" fill="#4A7C88"/>
<path d="M156.993 416.498L105.986 416.284C104.077 416.284 102.539 415.14 101.86 413.258C101 410.868 101.576 407.241 104.327 404.937C104.395 404.877 104.481 404.825 104.567 404.791L138.374 391.837C138.606 391.751 138.856 391.76 139.079 391.88C139.294 391.992 139.457 392.19 139.517 392.43C139.526 392.465 140.558 396.256 144.228 398.061C147.408 399.625 151.612 399.324 156.735 397.167C157.001 397.055 157.302 397.081 157.543 397.244C157.783 397.407 157.93 397.674 157.93 397.966L157.852 415.639C157.852 416.112 157.465 416.498 156.993 416.498ZM105.324 406.347C103.287 408.126 102.84 410.92 103.476 412.673C103.725 413.378 104.395 414.556 105.994 414.564L156.142 414.779L156.21 399.238C151.122 401.155 146.832 401.284 143.446 399.599C140.222 398 138.744 395.207 138.168 393.771L105.332 406.347H105.324Z" fill="#18292D"/>
<path d="M133.801 402.496C133.474 402.496 133.165 402.315 133.019 401.997L129.288 393.96C129.091 393.531 129.28 393.015 129.71 392.817C130.139 392.619 130.655 392.809 130.853 393.238L134.583 401.275C134.781 401.705 134.592 402.221 134.162 402.419C134.042 402.47 133.921 402.496 133.801 402.496Z" fill="#18292D"/>
<path d="M128.24 402.469C127.905 402.469 127.587 402.272 127.449 401.945L124.698 395.55C124.509 395.112 124.707 394.604 125.145 394.424C125.575 394.235 126.091 394.441 126.271 394.871L129.031 401.266C129.22 401.704 129.022 402.212 128.584 402.392C128.472 402.444 128.36 402.461 128.24 402.461V402.469Z" fill="#18292D"/>
<path d="M122.67 402.444C122.343 402.444 122.033 402.255 121.887 401.945L119.781 397.355C119.584 396.925 119.781 396.409 120.203 396.212C120.632 396.014 121.14 396.203 121.346 396.633L123.452 401.223C123.649 401.653 123.452 402.169 123.031 402.366C122.919 402.418 122.79 402.444 122.67 402.444Z" fill="#18292D"/>
<path d="M133.415 394.579C133.337 394.579 133.26 394.571 133.191 394.553C133.14 394.553 133.079 394.553 133.019 394.536C132.744 394.476 132.521 394.278 132.392 394.029C130.423 392.379 129.297 389.19 129.375 386.989C129.426 385.545 130.079 384.067 131.171 382.941C132.022 382.064 133.372 381.436 134.446 382.029C134.764 382.201 134.979 382.442 135.16 382.674C137.455 385.554 136.466 390.247 134.266 393.642C134.3 394.055 134.033 394.45 133.621 394.553C133.552 394.571 133.475 394.579 133.406 394.579H133.415ZM133.526 383.525C133.294 383.525 132.821 383.731 132.417 384.153C131.618 384.978 131.137 386.035 131.102 387.058C131.042 388.777 131.928 391.021 133.079 392.301C134.738 389.491 135.443 385.786 133.819 383.749C133.784 383.697 133.681 383.577 133.629 383.542C133.604 383.525 133.569 383.525 133.526 383.525Z" fill="#18292D"/>
<path d="M242.357 313.668C231.5 300.25 206.959 300.645 194.96 314.433L137.618 380.319L164.582 394.863L207.243 352.323L242.357 313.677V313.668Z" fill="#18292D"/>
<path d="M124.234 373.579C124.234 373.579 108.65 410.687 87.9685 404.377C87.2121 404.145 90.2894 393.168 90.2894 393.168L116.051 354.376L124.225 373.579H124.234Z" fill="white"/>
<path d="M92.6705 405.951C91.0115 405.951 89.3525 405.701 87.7193 405.203C86.8855 404.945 86.1635 404.73 89.4643 392.937C89.49 392.851 89.5244 392.765 89.576 392.696L115.337 353.904C115.509 353.637 115.81 353.491 116.128 353.525C116.446 353.551 116.713 353.758 116.842 354.041L125.016 373.244C125.111 373.459 125.111 373.7 125.016 373.915C124.973 374.009 121.002 383.387 114.529 391.871C107.429 401.172 99.9596 405.951 92.6619 405.951H92.6705ZM88.7164 403.699C107.163 408.684 121.707 377.172 123.297 373.579L115.887 356.182L91.0803 393.53C89.9284 397.647 88.8196 402.246 88.7078 403.699H88.7164Z" fill="#18292D"/>
<path d="M109.57 397.965L109.493 415.638L58.4855 415.423C54.2049 415.406 53.5172 408.813 57.3767 405.598L91.1837 392.645C91.1837 392.645 94.2008 404.438 109.57 397.957V397.965Z" fill="white"/>
<path d="M109.57 398.43L109.518 411.057L58.5113 410.842C54.2306 410.825 53.5344 407.052 57.3853 404.765L90.4788 392.98C90.4788 392.98 94.2093 403.046 109.57 398.43Z" fill="#4A7C88"/>
<path d="M109.501 416.498L58.4939 416.284C56.5857 416.284 55.0471 415.14 54.368 413.258C53.5084 410.868 54.0843 407.241 56.8436 404.937C56.9123 404.877 56.9983 404.825 57.0842 404.791L90.8912 391.837C91.1233 391.751 91.3726 391.76 91.5961 391.88C91.8109 391.992 91.9743 392.19 92.0344 392.43C92.043 392.465 93.0745 396.256 96.7449 398.061C99.9253 399.625 104.129 399.324 109.252 397.167C109.518 397.055 109.819 397.081 110.06 397.244C110.3 397.407 110.446 397.674 110.446 397.966L110.369 415.639C110.369 416.112 109.982 416.498 109.51 416.498H109.501ZM57.8321 406.347C55.7949 408.126 55.3479 410.92 55.984 412.673C56.2333 413.378 56.9037 414.556 58.5025 414.564L108.65 414.779L108.719 399.238C103.63 401.155 99.3408 401.284 95.9541 399.599C92.7307 398 91.2522 395.207 90.6763 393.771L57.8407 406.347H57.8321Z" fill="#18292D"/>
<path d="M86.3099 402.496C85.9833 402.496 85.6738 402.315 85.5277 401.997L81.7972 393.96C81.5995 393.531 81.7886 393.015 82.2184 392.817C82.6481 392.619 83.1553 392.809 83.3616 393.238L87.0921 401.275C87.2898 401.705 87.1007 402.221 86.6709 402.419C86.5506 402.47 86.4303 402.496 86.3099 402.496Z" fill="#18292D"/>
<path d="M80.7398 402.469C80.4046 402.469 80.0866 402.272 79.949 401.945L77.1898 395.55C77.0007 395.112 77.1984 394.604 77.6368 394.424C78.0666 394.235 78.5823 394.441 78.7628 394.871L81.5134 401.266C81.7026 401.704 81.5049 402.212 81.0665 402.392C80.9547 402.444 80.843 402.461 80.7226 402.461L80.7398 402.469Z" fill="#18292D"/>
<path d="M75.1784 402.444C74.8517 402.444 74.5423 402.255 74.3962 401.945L72.2902 397.355C72.0925 396.925 72.2902 396.409 72.7114 396.212C73.1412 396.014 73.6483 396.203 73.8546 396.633L75.9606 401.223C76.1583 401.653 75.9606 402.169 75.5394 402.366C75.4276 402.418 75.2987 402.444 75.1784 402.444Z" fill="#18292D"/>
<path d="M85.9145 394.579C85.8372 394.579 85.7598 394.571 85.691 394.553C85.6309 394.553 85.5793 394.553 85.5191 394.536C85.2441 394.476 85.0206 394.278 84.9002 394.029C82.9318 392.379 81.8058 389.19 81.8831 386.989C81.9347 385.545 82.588 384.067 83.6796 382.941C84.5306 382.064 85.8801 381.436 86.9546 382.029C87.2641 382.201 87.4789 382.433 87.6681 382.666C89.9631 385.545 88.9746 390.238 86.7741 393.634C86.8085 394.046 86.542 394.442 86.1294 394.545C86.0607 394.562 85.9833 394.571 85.9145 394.571V394.579ZM86.0263 383.525C85.7942 383.525 85.3214 383.731 84.9174 384.153C84.118 384.978 83.6367 386.035 83.6023 387.058C83.5421 388.777 84.4275 391.021 85.5793 392.301C87.2383 389.491 87.9431 385.786 86.3185 383.749C86.2841 383.706 86.181 383.577 86.1294 383.542C86.1036 383.525 86.0693 383.525 86.0263 383.525Z" fill="#18292D"/>
<path d="M276.507 414.599L194.865 313.668C184.008 300.25 159.468 300.645 147.468 314.433L90.1174 380.319L117.082 394.863L159.743 352.323L195.656 407.972C200.83 415.991 208.498 422.094 217.48 425.343H258.086C265.711 425.343 272.742 421.243 276.507 414.607V414.599Z" fill="#18292D"/>
<path d="M158.222 269.442L225.157 324.343L183.304 337.967L155.652 271.179L158.222 269.442Z" fill="#4A7C88"/>
<path d="M200.65 277.11L225.156 324.343L187.516 337.968L158.866 268.953L200.65 277.11Z" fill="white"/>
<path d="M187.516 338.827C187.181 338.827 186.863 338.629 186.725 338.294L158.076 269.279C157.955 268.987 158.007 268.652 158.204 268.402C158.402 268.153 158.729 268.041 159.038 268.101L200.822 276.267C201.08 276.319 201.303 276.482 201.424 276.714L225.93 323.939C226.042 324.163 226.059 324.421 225.965 324.644C225.87 324.876 225.689 325.057 225.457 325.143L187.817 338.767C187.722 338.801 187.619 338.818 187.525 338.818L187.516 338.827ZM160.276 270.104L187.997 336.876L223.945 323.862L200.074 277.875L160.267 270.096L160.276 270.104Z" fill="#18292D"/>
<path d="M198.819 277.11L225.156 324.343L260.777 308.278L234.44 247.429L198.819 277.11Z" fill="white"/>
<path d="M225.156 325.203C224.856 325.203 224.563 325.04 224.409 324.765L198.071 277.54C197.874 277.179 197.951 276.723 198.269 276.457L233.89 246.767C234.096 246.595 234.38 246.526 234.638 246.595C234.904 246.655 235.119 246.844 235.231 247.094L261.568 307.943C261.757 308.373 261.568 308.871 261.13 309.069L225.509 325.126C225.397 325.177 225.277 325.203 225.156 325.203ZM199.911 277.316L225.517 323.235L259.642 307.848L234.105 248.821L199.911 277.316Z" fill="#18292D"/>
<path d="M236.953 268.486C244.899 266.212 249.814 259.034 247.931 252.452C246.047 245.871 238.079 242.379 230.133 244.653C222.187 246.927 217.272 254.106 219.155 260.687C221.039 267.269 229.007 270.76 236.953 268.486Z" fill="#18292D"/>
<path d="M280.014 327.919L248.425 324.764L239.606 296.424L265.909 288.241L280.014 327.919Z" fill="white"/>
<path d="M280.014 328.778C280.014 328.778 279.954 328.778 279.928 328.778L248.339 325.624C247.995 325.589 247.703 325.357 247.6 325.022L238.789 296.682C238.721 296.467 238.746 296.226 238.85 296.029C238.953 295.831 239.133 295.676 239.357 295.607L265.66 287.424C266.098 287.287 266.571 287.519 266.725 287.957L280.822 327.626C280.917 327.902 280.874 328.211 280.685 328.443C280.522 328.649 280.272 328.77 280.006 328.77L280.014 328.778ZM249.07 323.965L278.742 326.922L265.376 289.307L240.68 296.991L249.07 323.965Z" fill="#18292D"/>
<path d="M262.384 300.533C267.92 296.854 272.132 291.035 273.739 283.935C276.98 269.58 268.264 255.715 254.433 252.26C231.749 246.595 223.661 266.219 223.403 270.551C223.343 271.566 223.282 272.554 223.214 273.5C222.913 275.081 222.749 276.663 222.732 278.219C222.234 281.563 221.348 284.107 219.492 285.405C216.646 287.39 225.354 311.364 243.139 304.333L262.402 300.533H262.384Z" fill="white"/>
<path d="M236.752 306.404C231.835 306.404 225.483 304.281 220.652 295.273C218.426 291.13 217.094 286.015 218.985 284.692C220.437 283.677 221.323 281.657 221.856 278.142C221.881 276.569 222.045 274.961 222.346 273.388C222.414 272.46 222.475 271.489 222.535 270.5C222.724 267.449 225.827 259.738 232.463 254.873C238.531 250.421 245.992 249.26 254.64 251.426C269.141 255.054 277.9 269.408 274.573 284.124C272.974 291.207 268.814 297.293 262.857 301.247C262.462 301.505 261.929 301.402 261.662 301.006C261.396 300.611 261.508 300.078 261.903 299.812C267.49 296.098 271.393 290.391 272.888 283.738C276 269.941 267.8 256.481 254.219 253.085C246.087 251.057 239.116 252.123 233.477 256.257C226.884 261.088 224.374 268.566 224.254 270.603C224.194 271.626 224.133 272.606 224.065 273.56C224.065 273.595 224.065 273.629 224.056 273.663C223.764 275.185 223.609 276.715 223.583 278.236C223.583 278.279 223.583 278.314 223.575 278.348C222.964 282.405 221.856 284.803 219.973 286.11C219.371 286.737 220.119 291.646 223.506 296.674C226.386 300.946 232.729 307.522 242.812 303.533C243.25 303.362 243.749 303.576 243.929 304.015C244.101 304.453 243.886 304.952 243.448 305.132C242.176 305.639 239.726 306.413 236.761 306.413L236.752 306.404Z" fill="#18292D"/>
<path d="M257.64 246.707C248.348 244.609 239.073 247.557 232.489 253.764C235.059 253.652 237.663 253.85 240.259 254.434C257.898 258.414 268.565 277.737 264.087 297.593C263.837 298.693 263.545 299.776 263.21 300.834C270.697 297.095 276.559 290.029 278.579 281.064C282.095 265.488 272.717 250.102 257.64 246.698V246.707Z" fill="#18292D"/>
<path d="M230.262 252.518C230.262 252.518 234.474 259.162 241.548 260.95C245.288 261.896 238.97 263.065 240.534 266.744C252.242 294.302 256.067 299.055 256.067 299.055C257.304 301.359 259.892 302.579 262.453 302.081L270.172 300.576L270.559 292.986L265.874 262.102C265.874 262.102 244.033 244.223 230.254 252.526L230.262 252.518Z" fill="#18292D"/>
<path d="M226.695 296.751C226.36 296.751 226.033 296.554 225.896 296.218C225.715 295.78 225.93 295.273 226.369 295.101C228.088 294.396 228.578 292.385 228.586 292.368C228.698 291.912 229.154 291.62 229.618 291.723C230.082 291.826 230.366 292.29 230.262 292.746C230.237 292.866 229.583 295.634 227.022 296.683C226.919 296.726 226.807 296.751 226.695 296.751Z" fill="#18292D"/>
<path d="M232.085 274.127C231.663 274.127 231.294 273.818 231.234 273.388C231.139 272.76 230.297 271.738 229.085 271.17C228.371 270.835 226.953 270.397 225.5 271.282C225.096 271.531 224.563 271.402 224.323 270.998C224.073 270.594 224.202 270.061 224.606 269.821C226.188 268.858 228.045 268.789 229.815 269.623C231.457 270.397 232.738 271.849 232.927 273.147C232.996 273.62 232.669 274.05 232.205 274.119C232.162 274.119 232.119 274.127 232.076 274.127H232.085Z" fill="#18292D"/>
<path d="M227.812 278.889C227.546 279.645 226.893 280.101 226.351 279.912C225.81 279.723 225.586 278.958 225.853 278.201C226.119 277.445 226.772 276.989 227.314 277.178C227.855 277.368 228.079 278.133 227.812 278.889Z" fill="#18292D"/>
<path d="M240.757 263.907C240.757 263.907 232.6 274.368 235.428 279.371C238.256 284.374 248.004 282.74 249.577 292.282C251.141 301.823 250.909 306.791 239.889 310.565C225.191 315.602 223.678 330.825 226.076 339.197C228.474 347.569 260.786 316.023 260.786 316.023C260.786 316.023 270.009 298.746 240.766 263.916L240.757 263.907Z" fill="#18292D"/>
<path d="M243.844 246.303C249.887 240.63 276.937 241.008 281.398 267.148C283.616 280.145 286.135 299.932 291.842 305.27C297.55 310.608 309.61 314.588 306.146 321.155C302.681 327.722 276.49 338.466 271.737 335.647C266.983 332.828 251.116 323.665 258.379 296.27C265.634 268.876 247.935 261.397 246.182 260.967C244.437 260.538 234.982 254.632 243.844 246.303Z" fill="#18292D"/>
<path d="M239.271 288.43C240.431 292.496 244.669 294.843 248.735 293.682C252.8 292.522 255.147 288.284 253.987 284.219C252.826 280.153 248.589 277.806 244.523 278.967C240.457 280.127 238.11 284.365 239.271 288.43Z" fill="white"/>
<path d="M243.835 289.909C243.457 289.909 243.113 289.66 243.01 289.282C241.97 285.663 246.929 282.439 247.136 282.302C247.531 282.044 248.064 282.164 248.322 282.56C248.58 282.955 248.459 283.488 248.064 283.746C246.921 284.477 244.093 286.823 244.66 288.809C244.789 289.264 244.523 289.737 244.067 289.875C243.99 289.9 243.912 289.909 243.826 289.909H243.835Z" fill="#18292D"/>
<path d="M210.251 375.049L231.285 327.111C233.606 322.065 237.775 318.111 242.932 316.057L275.364 303.163C286.203 298.857 312.721 292.324 309.386 326.836C302.741 395.507 281.561 412.544 281.561 412.544C281.561 412.544 250.256 424.372 210.251 375.049Z" fill="white"/>
<path d="M272.484 414.659C269.269 414.659 265.298 414.28 260.691 413.129C239.262 407.765 221.065 389.757 209.572 375.591C209.366 375.342 209.323 374.998 209.452 374.706L230.486 326.767C232.918 321.49 237.216 317.407 242.606 315.258L275.037 302.364C280.624 300.138 294.567 295.677 303.283 302.227C309.059 306.567 311.397 314.871 310.228 326.914C303.627 395.164 282.962 412.51 282.086 413.215C282.017 413.275 281.94 413.318 281.854 413.352C281.639 413.429 278.295 414.659 272.476 414.659H272.484ZM211.24 374.912C222.543 388.768 240.25 406.183 260.957 411.418C272.527 414.349 280.031 412.131 281.114 411.779C282.713 410.352 302.243 391.665 308.526 326.742C309.626 315.335 307.52 307.547 302.251 303.593C294.231 297.568 280.994 301.84 275.673 303.954L243.242 316.848C238.265 318.825 234.294 322.598 232.05 327.464L211.231 374.903L211.24 374.912Z" fill="#18292D"/>
<path d="M295.036 330.152C300.928 319.42 297.005 305.943 286.273 300.05C275.541 294.158 262.065 298.081 256.172 308.813C250.279 319.545 254.202 333.022 264.934 338.914C275.666 344.807 289.143 340.884 295.036 330.152Z" fill="#18292D"/>
<path d="M292.323 336.945C303.721 336.945 312.961 327.705 312.961 316.307C312.961 304.909 303.721 295.668 292.323 295.668C280.925 295.668 271.685 304.909 271.685 316.307C271.685 327.705 280.925 336.945 292.323 336.945Z" fill="#18292D"/>
<path d="M288.586 312.264C295.774 311.396 300.897 304.867 300.03 297.679C299.163 290.492 292.633 285.368 285.446 286.235C278.258 287.103 273.135 293.632 274.002 300.82C274.869 308.007 281.399 313.131 288.586 312.264Z" fill="#18292D"/>
<path d="M250.393 354.66L226.514 384.359C216.947 396.264 198.045 393.161 192.785 378.823L175.972 333.016C174.081 327.859 176.934 322.186 182.204 320.63L193.799 317.217L212.091 349.804L223.712 332.69C231.766 323.69 241.566 316.409 252.508 311.304L252.611 311.252L250.385 354.66H250.393Z" fill="white"/>
<path d="M211.317 392.559C210.183 392.559 209.039 392.464 207.896 392.275C200.512 391.063 194.556 386.147 191.977 379.115L175.164 333.309C174.167 330.592 174.33 327.67 175.636 325.083C176.934 322.495 179.187 320.621 181.963 319.805L193.559 316.392C193.945 316.281 194.358 316.444 194.547 316.796L212.16 348.171L223.007 332.2C223.007 332.2 223.05 332.14 223.076 332.105C231.251 322.968 241.033 315.696 252.156 310.513L252.267 310.461C252.697 310.264 253.213 310.453 253.411 310.882C253.608 311.312 253.419 311.828 252.989 312.026L252.886 312.077C242.004 317.157 232.42 324.266 224.409 333.214L212.813 350.285C212.65 350.534 212.383 350.672 212.065 350.663C211.764 350.655 211.498 350.483 211.352 350.225L193.395 318.232L182.461 321.455C180.141 322.134 178.275 323.699 177.184 325.856C176.101 328.014 175.955 330.446 176.788 332.716L193.602 378.522C195.965 384.96 201.415 389.464 208.188 390.582C214.953 391.691 221.563 389.164 225.861 383.817L249.74 354.119C250.041 353.749 250.574 353.689 250.952 353.99C251.322 354.291 251.382 354.832 251.081 355.202L227.202 384.9C223.24 389.825 217.48 392.568 211.335 392.568L211.317 392.559Z" fill="#18292D"/>
<path d="M205.868 362.199C205.73 362.199 205.593 362.164 205.472 362.096C205.051 361.872 204.888 361.356 205.111 360.935L216.243 339.79C216.466 339.369 216.982 339.205 217.403 339.429C217.824 339.652 217.988 340.168 217.764 340.589L206.633 361.735C206.478 362.027 206.177 362.19 205.868 362.19V362.199Z" fill="#18292D"/>
<path d="M191.762 317.553L189.261 301.384C188.977 299.691 187.765 298.307 186.132 297.783C183.321 296.889 180.407 298.849 180.175 301.788L179.513 310.135L164.668 293.812L161.634 299.872C160.697 301.745 160.164 303.791 160.07 305.889C159.924 309.069 161.127 312.155 163.371 314.407L176.058 325.788L191.754 317.553H191.762Z" fill="white"/>
<path d="M176.075 326.647C175.869 326.647 175.662 326.57 175.499 326.424L162.812 315.043C160.362 312.593 159.064 309.258 159.227 305.846C159.331 303.619 159.889 301.479 160.886 299.485L163.921 293.425C164.05 293.176 164.29 292.995 164.574 292.961C164.858 292.918 165.133 293.021 165.33 293.236L178.834 308.089L179.333 301.728C179.462 300.061 180.338 298.574 181.722 297.637C183.106 296.7 184.817 296.459 186.407 296.966C188.358 297.585 189.777 299.227 190.12 301.238L192.622 317.424C192.682 317.785 192.493 318.146 192.175 318.318L176.479 326.553C176.35 326.622 176.212 326.647 176.084 326.647H176.075ZM164.892 295.316L162.425 300.259C161.54 302.038 161.041 303.946 160.947 305.932C160.809 308.863 161.926 311.734 163.998 313.805L176.204 324.756L190.825 317.089L188.418 301.522C188.186 300.155 187.215 299.038 185.883 298.608C184.791 298.264 183.622 298.428 182.676 299.064C181.731 299.7 181.129 300.723 181.043 301.857L180.381 310.204C180.356 310.548 180.124 310.84 179.806 310.952C179.487 311.063 179.126 310.969 178.894 310.72L164.901 295.325L164.892 295.316Z" fill="#18292D"/>
<path d="M165.047 310.255C164.694 310.255 164.359 310.04 164.239 309.687L160.835 300.163C160.671 299.716 160.904 299.226 161.351 299.063C161.797 298.9 162.287 299.14 162.451 299.587L165.855 309.111C166.018 309.558 165.786 310.048 165.339 310.212C165.244 310.246 165.141 310.263 165.047 310.263V310.255Z" fill="#18292D"/>
<path d="M179.152 382.605C178.851 382.605 178.559 382.451 178.404 382.176L162.812 354.807C162.58 354.394 162.717 353.87 163.13 353.638C163.542 353.397 164.067 353.543 164.299 353.956L179.891 381.325C180.123 381.737 179.986 382.261 179.573 382.494C179.436 382.571 179.29 382.605 179.152 382.605Z" fill="white"/>
<path d="M345.705 189.968L361.983 193.34L363.604 184.329C364.039 181.915 365.406 179.776 367.357 178.459C369.182 177.226 371.356 176.789 373.479 177.229L374.334 177.406C378.874 178.347 381.859 183.042 380.99 187.872L379.357 196.939L392.044 199.568L397.073 200.609L402.454 170.711L351.086 160.069L345.705 189.968Z" fill="#96D8E8"/>
<path d="M397.725 202.964L369.832 197.186L362.634 195.695L344.229 191.883C344.229 191.883 344.227 191.883 344.226 191.883L337.424 190.474L332.284 219.027L399.45 232.941L404.589 204.39L397.728 202.967L397.725 202.964ZM350.134 219.833C349.953 219.955 349.741 220.018 349.526 220.018C349.452 220.018 349.379 220.011 349.305 219.996L342.895 218.668C342.319 218.549 341.943 217.991 342.046 217.411L345.011 200.942C345.224 199.762 345.895 198.712 346.856 198.064C347.766 197.449 348.85 197.233 349.91 197.452L350.269 197.527C352.509 197.992 353.985 200.291 353.558 202.655L350.594 219.124C350.542 219.413 350.375 219.667 350.132 219.831L350.134 219.833ZM360.224 221.923C360.043 222.045 359.831 222.109 359.615 222.109C359.542 222.109 359.468 222.102 359.395 222.087L352.985 220.759C352.409 220.64 352.033 220.082 352.136 219.502L355.101 203.032C355.313 201.853 355.985 200.803 356.946 200.154C357.855 199.541 358.94 199.324 360 199.543L360.359 199.618C362.599 200.083 364.074 202.382 363.648 204.746L360.683 221.215C360.632 221.504 360.464 221.758 360.222 221.922L360.224 221.923ZM370.314 224.014C370.133 224.136 369.921 224.2 369.705 224.2C369.632 224.2 369.558 224.193 369.485 224.178L363.075 222.849C362.498 222.731 362.122 222.173 362.226 221.593L365.191 205.123C365.403 203.943 366.075 202.894 367.036 202.245C367.945 201.63 369.03 201.413 370.09 201.634L370.449 201.709C372.689 202.173 374.164 204.473 373.738 206.836L370.773 223.306C370.721 223.595 370.554 223.849 370.312 224.013L370.314 224.014ZM380.403 226.105C380.223 226.227 380.011 226.291 379.795 226.291C379.721 226.291 379.648 226.284 379.574 226.269L373.165 224.94C372.588 224.822 372.212 224.263 372.316 223.683L375.281 207.214C375.493 206.034 376.165 204.985 377.126 204.336C378.035 203.721 379.12 203.505 380.179 203.724L380.539 203.8C382.778 204.264 384.254 206.564 383.828 208.927L380.863 225.396C380.811 225.686 380.644 225.94 380.402 226.103L380.403 226.105ZM393.918 211.018L390.953 227.487C390.901 227.776 390.734 228.031 390.491 228.194C390.311 228.316 390.099 228.38 389.883 228.38C389.81 228.38 389.736 228.371 389.663 228.358L383.253 227.029C382.676 226.911 382.3 226.352 382.404 225.773L385.369 209.303C385.581 208.123 386.253 207.074 387.214 206.425C388.123 205.812 389.208 205.595 390.268 205.814L390.627 205.889C392.866 206.353 394.342 208.653 393.918 211.016V211.018Z" fill="#96D8E8"/>
<path d="M315.986 309.564L383.151 323.478L388.199 295.436L321.033 281.522L315.986 309.564ZM371.032 296.335C371.942 295.72 373.026 295.505 374.086 295.724L374.445 295.799C376.685 296.264 378.161 298.563 377.734 300.927L374.77 317.396C374.718 317.685 374.551 317.939 374.308 318.103C374.128 318.225 373.915 318.288 373.7 318.288C373.626 318.288 373.553 318.282 373.479 318.267L367.07 316.938C366.493 316.819 366.117 316.261 366.221 315.681L369.186 299.212C369.398 298.032 370.07 296.982 371.031 296.334L371.032 296.335ZM360.943 294.245C361.852 293.631 362.937 293.412 363.996 293.633L364.355 293.708C366.595 294.173 368.071 296.472 367.645 298.836L364.68 315.305C364.628 315.594 364.461 315.848 364.218 316.012C364.038 316.134 363.826 316.197 363.61 316.197C363.537 316.197 363.463 316.191 363.389 316.176L356.98 314.847C356.403 314.728 356.027 314.17 356.131 313.59L359.096 297.121C359.308 295.941 359.98 294.891 360.941 294.243L360.943 294.245ZM350.853 292.154C351.762 291.54 352.847 291.323 353.906 291.542L354.266 291.617C356.505 292.08 357.981 294.382 357.555 296.745L354.59 313.214C354.538 313.503 354.371 313.757 354.129 313.921C353.948 314.043 353.736 314.107 353.52 314.107C353.447 314.107 353.373 314.1 353.3 314.085L346.89 312.756C346.313 312.638 345.937 312.079 346.041 311.499L349.006 295.03C349.218 293.85 349.89 292.801 350.851 292.152L350.853 292.154ZM340.763 290.063C341.672 289.45 342.757 289.232 343.817 289.451L344.176 289.526C346.415 289.991 347.891 292.291 347.465 294.654L344.5 311.123C344.448 311.412 344.281 311.667 344.039 311.83C343.858 311.952 343.646 312.016 343.43 312.016C343.357 312.016 343.283 312.009 343.21 311.994L336.8 310.665C336.224 310.547 335.848 309.989 335.951 309.409L338.916 292.939C339.128 291.759 339.8 290.71 340.761 290.061L340.763 290.063ZM325.865 307.319L328.83 290.85C329.042 289.67 329.714 288.621 330.675 287.972C331.584 287.359 332.669 287.141 333.728 287.36L334.088 287.436C336.327 287.9 337.803 290.2 337.377 292.563L334.412 309.033C334.36 309.322 334.193 309.576 333.951 309.739C333.77 309.861 333.558 309.925 333.342 309.925C333.269 309.925 333.195 309.917 333.122 309.903L326.712 308.575C326.136 308.456 325.76 307.898 325.863 307.318L325.865 307.319Z" fill="#96D8E8"/>
<path d="M310.553 339.746L377.719 353.66L382.766 325.618L315.601 311.705L310.553 339.746ZM365.6 326.518C366.509 325.904 367.594 325.687 368.654 325.906L369.013 325.981C371.252 326.446 372.728 328.745 372.304 331.109L369.339 347.578C369.287 347.867 369.12 348.121 368.878 348.285C368.697 348.407 368.485 348.47 368.269 348.47C368.196 348.47 368.122 348.464 368.049 348.449L361.639 347.12C361.062 347.001 360.686 346.443 360.79 345.863L363.755 329.394C363.967 328.214 364.639 327.164 365.6 326.516V326.518ZM355.51 324.427C356.419 323.813 357.504 323.596 358.564 323.815L358.923 323.89C361.163 324.355 362.638 326.655 362.212 329.018L359.247 345.487C359.196 345.776 359.028 346.03 358.786 346.194C358.606 346.316 358.393 346.38 358.178 346.38C358.104 346.38 358.031 346.373 357.957 346.358L351.548 345.029C350.971 344.911 350.595 344.352 350.699 343.772L353.663 327.303C353.876 326.123 354.548 325.074 355.509 324.425L355.51 324.427ZM345.42 322.336C346.33 321.723 347.414 321.505 348.474 321.724L348.833 321.799C351.073 322.264 352.549 324.564 352.122 326.927L349.158 343.396C349.106 343.685 348.939 343.939 348.696 344.103C348.516 344.225 348.303 344.289 348.088 344.289C348.014 344.289 347.941 344.28 347.867 344.267L341.458 342.938C340.881 342.82 340.505 342.261 340.609 341.682L343.574 325.212C343.786 324.032 344.458 322.983 345.419 322.334L345.42 322.336ZM335.331 320.245C336.24 319.632 337.325 319.414 338.384 319.633L338.743 319.709C340.983 320.173 342.459 322.473 342.033 324.836L339.068 341.305C339.016 341.595 338.849 341.849 338.606 342.012C338.426 342.134 338.214 342.198 337.998 342.198C337.925 342.198 337.851 342.191 337.777 342.176L331.368 340.848C330.791 340.729 330.415 340.171 330.519 339.591L333.484 323.121C333.696 321.941 334.368 320.892 335.329 320.243L335.331 320.245ZM320.432 337.502L323.397 321.032C323.61 319.852 324.282 318.803 325.243 318.154C326.152 317.541 327.236 317.324 328.296 317.543L328.655 317.618C330.895 318.082 332.371 320.382 331.945 322.745L328.98 339.215C328.928 339.504 328.761 339.758 328.518 339.922C328.338 340.044 328.126 340.107 327.91 340.107C327.836 340.107 327.763 340.099 327.689 340.085L321.28 338.757C320.703 338.638 320.327 338.08 320.431 337.5L320.432 337.502Z" fill="#96D8E8"/>
<path d="M326.85 249.205L394.016 263.118L399.063 235.077L331.898 221.163L326.85 249.205ZM381.897 235.976C382.806 235.363 383.891 235.145 384.951 235.364L385.31 235.44C387.55 235.903 389.025 238.204 388.599 240.567L385.634 257.036C385.582 257.326 385.415 257.58 385.173 257.743C384.992 257.865 384.78 257.929 384.565 257.929C384.491 257.929 384.418 257.922 384.344 257.907L377.934 256.578C377.358 256.46 376.982 255.902 377.085 255.322L380.05 238.852C380.263 237.672 380.934 236.623 381.895 235.974L381.897 235.976ZM371.807 233.885C372.717 233.272 373.801 233.055 374.861 233.274L375.22 233.349C377.46 233.813 378.936 236.113 378.509 238.476L375.544 254.946C375.493 255.235 375.326 255.489 375.083 255.653C374.903 255.775 374.69 255.838 374.475 255.838C374.401 255.838 374.328 255.831 374.254 255.816L367.845 254.488C367.268 254.369 366.892 253.811 366.996 253.231L369.961 236.762C370.173 235.582 370.845 234.532 371.806 233.884L371.807 233.885ZM361.718 231.794C362.627 231.181 363.711 230.964 364.771 231.183L365.13 231.258C367.37 231.723 368.846 234.022 368.421 236.386L365.456 252.855C365.405 253.144 365.237 253.398 364.995 253.562C364.815 253.684 364.602 253.747 364.387 253.747C364.313 253.747 364.24 253.741 364.166 253.726L357.757 252.397C357.18 252.278 356.804 251.72 356.907 251.14L359.872 234.671C360.085 233.491 360.757 232.441 361.718 231.793V231.794ZM351.628 229.704C352.537 229.09 353.622 228.873 354.681 229.092L355.041 229.167C357.28 229.632 358.756 231.931 358.33 234.295L355.365 250.764C355.313 251.053 355.146 251.307 354.904 251.471C354.723 251.593 354.511 251.656 354.295 251.656C354.222 251.656 354.148 251.65 354.075 251.635L347.665 250.306C347.088 250.187 346.712 249.629 346.816 249.049L349.781 232.58C349.993 231.4 350.665 230.35 351.626 229.702L351.628 229.704ZM336.73 246.96L339.694 230.491C339.907 229.311 340.579 228.261 341.54 227.613C342.449 226.998 343.534 226.782 344.593 227.001L344.952 227.076C347.192 227.541 348.668 229.841 348.242 232.204L345.277 248.673C345.225 248.962 345.058 249.216 344.815 249.38C344.635 249.502 344.423 249.566 344.207 249.566C344.134 249.566 344.06 249.559 343.986 249.544L337.577 248.215C337 248.097 336.624 247.538 336.728 246.958L336.73 246.96Z" fill="#96D8E8"/>
<path d="M321.417 279.386L388.582 293.3L393.63 265.259L326.464 251.345L321.417 279.386ZM376.463 266.158C377.373 265.544 378.457 265.327 379.517 265.546L379.876 265.621C382.116 266.086 383.592 268.386 383.165 270.749L380.2 287.218C380.149 287.507 379.981 287.761 379.739 287.925C379.559 288.047 379.346 288.111 379.131 288.111C379.057 288.111 378.984 288.104 378.91 288.089L372.501 286.76C371.924 286.641 371.548 286.083 371.652 285.503L374.617 269.034C374.829 267.854 375.501 266.804 376.462 266.156L376.463 266.158ZM366.374 264.067C367.283 263.453 368.367 263.236 369.427 263.455L369.786 263.53C372.026 263.995 373.502 266.295 373.076 268.658L370.111 285.127C370.059 285.416 369.892 285.67 369.649 285.834C369.469 285.956 369.257 286.02 369.041 286.02C368.967 286.02 368.894 286.013 368.82 285.998L362.411 284.669C361.834 284.551 361.458 283.992 361.562 283.412L364.527 266.943C364.739 265.763 365.411 264.714 366.372 264.065L366.374 264.067ZM356.284 261.976C357.193 261.363 358.278 261.145 359.337 261.364L359.697 261.44C361.936 261.904 363.412 264.204 362.986 266.567L360.021 283.036C359.969 283.326 359.802 283.58 359.56 283.743C359.379 283.865 359.167 283.929 358.951 283.929C358.878 283.929 358.804 283.922 358.731 283.907L352.321 282.578C351.744 282.46 351.368 281.902 351.472 281.322L354.437 264.852C354.649 263.672 355.321 262.623 356.282 261.974L356.284 261.976ZM346.194 259.885C347.103 259.272 348.188 259.055 349.247 259.274L349.607 259.349C351.846 259.813 353.322 262.113 352.898 264.476L349.933 280.946C349.881 281.235 349.714 281.489 349.471 281.653C349.291 281.775 349.079 281.838 348.863 281.838C348.789 281.838 348.716 281.831 348.642 281.816L342.233 280.488C341.656 280.369 341.28 279.811 341.384 279.231L344.349 262.762C344.561 261.582 345.233 260.532 346.194 259.884V259.885ZM331.296 277.142L334.261 260.672C334.473 259.492 335.145 258.443 336.106 257.794C337.015 257.179 338.1 256.964 339.159 257.183L339.519 257.258C341.758 257.723 343.234 260.022 342.808 262.386L339.843 278.855C339.791 279.144 339.624 279.398 339.382 279.562C339.201 279.684 338.989 279.747 338.773 279.747C338.7 279.747 338.626 279.741 338.553 279.726L332.143 278.397C331.566 278.278 331.19 277.72 331.294 277.14L331.296 277.142Z" fill="#96D8E8"/>
<path d="M367.88 415.549C367.88 415.549 367.88 415.549 367.878 415.549H296.028C296.028 415.549 296.024 415.549 296.023 415.549H277.942V425.276H383.804V415.549H367.882C367.882 415.549 367.882 415.549 367.88 415.549Z" fill="#18292D"/>
<path d="M305.119 369.926L372.285 383.84L377.332 355.799L310.167 341.885L305.119 369.926ZM360.166 356.698C361.075 356.084 362.16 355.865 363.22 356.086L363.579 356.161C365.819 356.626 367.294 358.926 366.868 361.289L363.903 377.758C363.851 378.047 363.684 378.301 363.442 378.465C363.262 378.587 363.049 378.651 362.834 378.651C362.76 378.651 362.687 378.642 362.613 378.629L356.204 377.3C355.627 377.182 355.251 376.623 355.354 376.043L358.319 359.574C358.532 358.394 359.204 357.345 360.165 356.696L360.166 356.698ZM350.076 354.607C350.986 353.994 352.07 353.775 353.13 353.995L353.489 354.07C355.729 354.535 357.205 356.835 356.778 359.198L353.813 375.667C353.762 375.956 353.595 376.21 353.352 376.374C353.172 376.496 352.959 376.56 352.744 376.56C352.67 376.56 352.597 376.553 352.523 376.538L346.114 375.209C345.537 375.091 345.161 374.532 345.265 373.953L348.23 357.483C348.442 356.303 349.114 355.254 350.075 354.605L350.076 354.607ZM339.987 352.516C340.896 351.903 341.981 351.685 343.04 351.904L343.399 351.98C345.639 352.444 347.115 354.744 346.689 357.107L343.724 373.576C343.672 373.866 343.505 374.12 343.262 374.283C343.082 374.405 342.87 374.469 342.654 374.469C342.581 374.469 342.507 374.461 342.433 374.447L336.024 373.119C335.447 373 335.071 372.442 335.175 371.862L338.14 355.392C338.352 354.212 339.024 353.163 339.985 352.514L339.987 352.516ZM329.897 350.425C330.806 349.812 331.891 349.595 332.95 349.814L333.31 349.889C335.549 350.353 337.025 352.653 336.599 355.016L333.634 371.486C333.582 371.775 333.415 372.029 333.173 372.193C332.992 372.315 332.78 372.378 332.564 372.378C332.491 372.378 332.417 372.371 332.344 372.356L325.934 371.028C325.357 370.909 324.981 370.351 325.085 369.771L328.05 353.302C328.262 352.122 328.934 351.072 329.895 350.424L329.897 350.425ZM314.999 367.682L317.964 351.212C318.176 350.032 318.848 348.983 319.809 348.334C320.718 347.721 321.803 347.504 322.862 347.723L323.222 347.798C325.461 348.261 326.937 350.562 326.511 352.926L323.546 369.395C323.494 369.684 323.327 369.938 323.084 370.102C322.904 370.224 322.692 370.287 322.476 370.287C322.403 370.287 322.329 370.281 322.256 370.266L315.846 368.939C315.269 368.82 314.893 368.262 314.997 367.682H314.999Z" fill="#96D8E8"/>
<path d="M297.3 413.375H301.639L307.019 383.477C307.286 381.988 308.133 380.668 309.34 379.852C310.478 379.083 311.835 378.811 313.162 379.085L314.931 379.453C317.745 380.034 319.599 382.934 319.062 385.916L314.12 413.377H317.809L322.609 386.708C322.876 385.219 323.723 383.898 324.93 383.081C326.068 382.312 327.425 382.04 328.753 382.314L330.521 382.682C333.335 383.263 335.189 386.163 334.652 389.145L330.292 413.377H333.98L338.199 389.938C338.468 388.449 339.314 387.129 340.52 386.313C341.658 385.545 343.016 385.272 344.343 385.546L346.111 385.914C348.925 386.496 350.779 389.395 350.242 392.377L346.462 413.379H350.152L353.789 393.169C354.056 391.68 354.904 390.36 356.11 389.544C357.249 388.775 358.606 388.503 359.933 388.777L361.701 389.145C364.516 389.726 366.369 392.626 365.833 395.608L362.634 413.381H366.972L371.903 385.984L304.737 372.07L297.301 413.381L297.3 413.375Z" fill="#96D8E8"/>
<path d="M347.753 157.162L350.429 157.717H350.433L403.93 168.8L406.156 169.261L406.658 166.477L348.255 154.378L347.753 157.162Z" fill="white"/>
<path d="M370.009 203.839L369.65 203.764C369.168 203.664 368.672 203.764 368.253 204.048C367.768 204.376 367.44 204.895 367.33 205.51L364.554 220.939L368.836 221.826L371.602 206.455C371.821 205.24 371.107 204.066 370.009 203.839Z" fill="white"/>
<path d="M380.098 205.929L379.739 205.854C379.258 205.754 378.761 205.854 378.342 206.138C377.857 206.465 377.529 206.985 377.419 207.6L374.643 223.028L378.925 223.916L381.691 208.545C381.91 207.33 381.196 206.156 380.098 205.929Z" fill="white"/>
<path d="M390.188 208.019L389.829 207.944C389.347 207.843 388.851 207.944 388.432 208.228C387.947 208.555 387.619 209.075 387.509 209.69L384.733 225.118L389.015 226.006L391.781 210.634C392 209.419 391.286 208.246 390.188 208.019Z" fill="white"/>
<path d="M378.851 187.489C379.515 183.807 377.29 180.238 373.894 179.535L373.039 179.358C371.494 179.037 369.908 179.358 368.575 180.26C367.107 181.251 366.076 182.876 365.745 184.716L364.112 193.783L377.23 196.5L378.853 187.489H378.851Z" fill="white"/>
<path d="M360.074 328.634C360.293 327.419 359.579 326.246 358.481 326.018L358.122 325.943C357.641 325.843 357.144 325.943 356.725 326.227C356.24 326.555 355.913 327.075 355.802 327.69L353.026 343.118L357.308 344.005L360.074 328.634Z" fill="white"/>
<path d="M359.919 201.748L359.559 201.673C359.078 201.573 358.582 201.673 358.162 201.957C357.678 202.285 357.35 202.805 357.24 203.42L354.464 218.848L358.746 219.735L361.512 204.364C361.731 203.149 361.017 201.976 359.919 201.748Z" fill="white"/>
<path d="M345.329 294.272C345.547 293.057 344.834 291.884 343.736 291.657L343.376 291.581C342.895 291.481 342.399 291.581 341.979 291.865C341.494 292.193 341.167 292.713 341.057 293.328L338.281 308.756L342.562 309.643L345.329 294.272Z" fill="white"/>
<path d="M355.418 296.362C355.637 295.146 354.923 293.973 353.825 293.746L353.466 293.671C352.985 293.57 352.488 293.671 352.069 293.955C351.584 294.282 351.256 294.802 351.146 295.417L348.37 310.845L352.652 311.733L355.418 296.362Z" fill="white"/>
<path d="M335.238 292.182C335.457 290.967 334.743 289.794 333.645 289.566L333.286 289.491C332.805 289.391 332.308 289.491 331.889 289.775C331.404 290.103 331.077 290.622 330.966 291.238L328.19 306.666L332.472 307.553L335.238 292.182Z" fill="white"/>
<path d="M365.506 298.452C365.725 297.237 365.011 296.064 363.913 295.836L363.554 295.761C363.073 295.663 362.576 295.761 362.157 296.045C361.672 296.373 361.344 296.893 361.234 297.508L358.458 312.936L362.74 313.823L365.506 298.452Z" fill="white"/>
<path d="M349.984 326.543C350.203 325.328 349.49 324.154 348.391 323.927L348.032 323.852C347.551 323.752 347.054 323.852 346.635 324.136C346.15 324.464 345.823 324.983 345.712 325.598L342.936 341.026L347.218 341.914L349.984 326.543Z" fill="white"/>
<path d="M381.029 270.362C381.248 269.147 380.534 267.974 379.436 267.747L379.077 267.672C378.596 267.571 378.099 267.672 377.68 267.956C377.195 268.283 376.868 268.803 376.757 269.418L373.981 284.846L378.263 285.734L381.029 270.362Z" fill="white"/>
<path d="M339.895 324.455C340.114 323.24 339.4 322.066 338.302 321.839L337.943 321.764C337.461 321.664 336.965 321.764 336.546 322.048C336.061 322.376 335.733 322.895 335.623 323.51L332.847 338.939L337.129 339.826L339.895 324.455Z" fill="white"/>
<path d="M375.595 300.544C375.814 299.329 375.101 298.155 374.003 297.928L373.643 297.853C373.162 297.753 372.666 297.853 372.246 298.137C371.761 298.465 371.434 298.984 371.323 299.599L368.547 315.027L372.829 315.915L375.595 300.544Z" fill="white"/>
<path d="M329.805 322.363C330.024 321.148 329.31 319.975 328.212 319.748L327.853 319.673C327.372 319.572 326.875 319.673 326.456 319.957C325.971 320.284 325.643 320.804 325.533 321.419L322.757 336.847L327.039 337.735L329.805 322.363Z" fill="white"/>
<path d="M350.76 264.092C350.979 262.877 350.265 261.704 349.167 261.476L348.808 261.401C348.326 261.301 347.83 261.401 347.411 261.685C346.926 262.013 346.598 262.533 346.488 263.148L343.712 278.576L347.994 279.463L350.76 264.092Z" fill="white"/>
<path d="M376.371 238.091C376.59 236.876 375.877 235.702 374.778 235.475L374.419 235.4C373.938 235.301 373.441 235.4 373.022 235.684C372.537 236.012 372.21 236.531 372.099 237.146L369.323 252.575L373.605 253.462L376.371 238.091Z" fill="white"/>
<path d="M356.192 233.912C356.41 232.697 355.697 231.523 354.599 231.296L354.239 231.221C353.758 231.121 353.262 231.221 352.842 231.505C352.358 231.833 352.03 232.352 351.92 232.968L349.144 248.396L353.425 249.283L356.192 233.912Z" fill="white"/>
<path d="M366.281 236.002C366.5 234.787 365.787 233.614 364.689 233.387L364.329 233.311C363.848 233.211 363.352 233.311 362.932 233.595C362.447 233.923 362.12 234.443 362.009 235.058L359.233 250.484L363.515 251.372L366.281 236V236.002Z" fill="white"/>
<path d="M346.102 231.821C346.321 230.606 345.607 229.433 344.509 229.205L344.15 229.13C343.668 229.03 343.172 229.13 342.753 229.414C342.268 229.742 341.94 230.262 341.83 230.877L339.054 246.305L343.336 247.192L346.102 231.821Z" fill="white"/>
<path d="M349.829 199.658L349.47 199.582C348.989 199.482 348.492 199.582 348.073 199.866C347.588 200.194 347.261 200.714 347.15 201.329L344.374 216.757L348.656 217.644L351.422 202.273C351.641 201.058 350.928 199.885 349.829 199.658Z" fill="white"/>
<path d="M360.849 266.182C361.068 264.967 360.355 263.794 359.257 263.566L358.897 263.491C358.416 263.391 357.92 263.491 357.5 263.775C357.015 264.103 356.688 264.622 356.578 265.238L353.802 280.666L358.083 281.553L360.849 266.182Z" fill="white"/>
<path d="M370.939 268.272C371.158 267.057 370.445 265.884 369.347 265.657L368.987 265.581C368.506 265.481 368.01 265.581 367.59 265.865C367.105 266.193 366.778 266.713 366.667 267.328L363.891 282.756L368.173 283.643L370.939 268.272Z" fill="white"/>
<path d="M340.671 262.002C340.889 260.787 340.176 259.613 339.078 259.386L338.718 259.311C338.237 259.211 337.741 259.311 337.321 259.595C336.837 259.923 336.509 260.442 336.399 261.057L333.623 276.485L337.904 277.373L340.671 262.002Z" fill="white"/>
<path d="M370.164 330.723C370.383 329.508 369.669 328.335 368.571 328.107L368.212 328.032C367.729 327.932 367.234 328.032 366.815 328.316C366.33 328.644 366.002 329.163 365.892 329.779L363.116 345.207L367.398 346.094L370.164 330.723Z" fill="white"/>
<path d="M354.642 358.815C354.861 357.6 354.148 356.426 353.05 356.199L352.69 356.124C352.209 356.024 351.713 356.124 351.293 356.408C350.808 356.736 350.481 357.255 350.371 357.87L347.594 373.298L351.876 374.186L354.642 358.815Z" fill="white"/>
<path d="M344.553 356.724C344.772 355.509 344.058 354.335 342.96 354.108L342.601 354.033C342.119 353.933 341.623 354.033 341.204 354.317C340.719 354.645 340.391 355.164 340.281 355.78L337.505 371.208L341.787 372.095L344.553 356.724Z" fill="white"/>
<path d="M334.463 354.633C334.682 353.418 333.968 352.244 332.87 352.017L332.511 351.942C332.03 351.843 331.533 351.942 331.114 352.226C330.629 352.554 330.301 353.073 330.191 353.688L327.415 369.117L331.697 370.004L334.463 354.633Z" fill="white"/>
<path d="M324.373 352.544C324.592 351.329 323.878 350.155 322.78 349.928L322.421 349.853C321.94 349.753 321.443 349.853 321.024 350.137C320.539 350.465 320.212 350.984 320.101 351.599L317.325 367.027L321.607 367.915L324.373 352.544Z" fill="white"/>
<path d="M363.691 395.218C364.022 393.387 362.929 391.613 361.257 391.269L359.489 390.901C358.742 390.748 357.973 390.901 357.325 391.341C356.589 391.837 356.093 392.623 355.924 393.552L352.356 413.377H360.422L363.689 395.22L363.691 395.218Z" fill="white"/>
<path d="M332.513 388.759C332.844 386.928 331.75 385.156 330.079 384.81L328.311 384.442C327.564 384.289 326.795 384.442 326.147 384.882C325.411 385.378 324.913 386.164 324.746 387.093L320.014 413.376H328.08L332.511 388.759H332.513Z" fill="white"/>
<path d="M364.732 360.905C364.951 359.689 364.237 358.516 363.139 358.289L362.78 358.214C362.299 358.113 361.802 358.214 361.383 358.498C360.898 358.825 360.57 359.345 360.46 359.96L357.684 375.388L361.966 376.276L364.732 360.905Z" fill="white"/>
<path d="M348.103 391.989C348.432 390.158 347.34 388.384 345.669 388.04L343.901 387.672C343.154 387.519 342.385 387.672 341.737 388.112C341.001 388.608 340.503 389.394 340.336 390.323L336.186 413.377H344.252L348.101 391.989H348.103Z" fill="white"/>
<path d="M316.924 385.53C317.255 383.698 316.162 381.927 314.491 381.581L312.722 381.213C311.975 381.059 311.206 381.215 310.558 381.653C309.823 382.149 309.326 382.935 309.157 383.864L303.846 413.378H311.912L316.924 385.532V385.53Z" fill="white"/>
<path d="M386.462 240.181C386.681 238.966 385.967 237.793 384.869 237.566L384.509 237.491C384.028 237.39 383.532 237.491 383.112 237.775C382.628 238.102 382.3 238.622 382.19 239.237L379.414 254.665L383.696 255.553L386.462 240.181Z" fill="white"/>
<path d="M350.271 197.53L349.912 197.455C348.85 197.236 347.766 197.453 346.858 198.066C345.899 198.715 345.225 199.764 345.013 200.944L342.048 217.414C341.945 217.994 342.321 218.55 342.897 218.67L349.307 219.999C349.38 220.014 349.454 220.021 349.527 220.021C349.743 220.021 349.955 219.957 350.136 219.835C350.378 219.672 350.545 219.416 350.597 219.128L353.562 202.659C353.988 200.296 352.512 197.994 350.273 197.532L350.271 197.53ZM351.423 202.273L348.657 217.644L344.375 216.757L347.151 201.329C347.261 200.712 347.589 200.194 348.073 199.866C348.493 199.584 348.989 199.482 349.471 199.582L349.83 199.657C350.926 199.885 351.64 201.058 351.423 202.273Z" fill="#18292D"/>
<path d="M360.36 199.62L360.001 199.545C358.939 199.326 357.856 199.543 356.947 200.157C355.988 200.805 355.314 201.855 355.102 203.035L352.137 219.504C352.033 220.084 352.409 220.64 352.986 220.761L359.396 222.09C359.469 222.105 359.543 222.111 359.616 222.111C359.832 222.111 360.044 222.048 360.225 221.926C360.467 221.762 360.634 221.506 360.686 221.219L363.651 204.749C364.077 202.386 362.601 200.085 360.362 199.622L360.36 199.62ZM361.512 204.363L358.745 219.735L354.464 218.847L357.24 203.419C357.35 202.802 357.677 202.283 358.162 201.957C358.582 201.673 359.078 201.572 359.559 201.673L359.919 201.748C361.015 201.975 361.729 203.148 361.512 204.363Z" fill="#18292D"/>
<path d="M370.449 201.711L370.089 201.636C369.028 201.417 367.943 201.634 367.036 202.248C366.076 202.896 365.403 203.946 365.191 205.126L362.226 221.595C362.122 222.175 362.498 222.731 363.075 222.852L369.484 224.18C369.558 224.195 369.631 224.202 369.705 224.202C369.92 224.202 370.133 224.139 370.313 224.017C370.556 223.853 370.723 223.597 370.774 223.31L373.739 206.84C374.166 204.477 372.69 202.176 370.45 201.713L370.449 201.711ZM371.6 206.454L368.834 221.825L364.552 220.938L367.328 205.51C367.439 204.893 367.766 204.375 368.251 204.048C368.67 203.765 369.167 203.663 369.648 203.763L370.007 203.839C371.104 204.066 371.817 205.239 371.6 206.454Z" fill="#18292D"/>
<path d="M380.538 203.799L380.179 203.724C379.118 203.505 378.035 203.721 377.126 204.336C376.166 204.984 375.493 206.034 375.28 207.214L372.315 223.683C372.212 224.263 372.588 224.819 373.165 224.94L379.574 226.268C379.648 226.284 379.721 226.29 379.795 226.29C380.01 226.29 380.223 226.227 380.403 226.105C380.645 225.941 380.813 225.685 380.864 225.398L383.829 208.928C384.255 206.565 382.78 204.264 380.54 203.801L380.538 203.799ZM381.69 208.542L378.924 223.914L374.642 223.026L377.418 207.598C377.528 206.981 377.856 206.462 378.341 206.136C378.76 205.852 379.257 205.751 379.738 205.852L380.097 205.927C381.194 206.154 381.907 207.327 381.69 208.542Z" fill="#18292D"/>
<path d="M390.628 205.892L390.269 205.816C389.207 205.598 388.124 205.815 387.215 206.428C386.256 207.077 385.582 208.126 385.37 209.306L382.405 225.775C382.301 226.355 382.678 226.912 383.254 227.032L389.664 228.361C389.737 228.376 389.811 228.383 389.884 228.383C390.1 228.383 390.312 228.319 390.493 228.197C390.735 228.033 390.902 227.778 390.954 227.49L393.919 211.021C394.345 208.658 392.869 206.356 390.628 205.893V205.892ZM391.78 210.635L389.014 226.006L384.732 225.119L387.508 209.691C387.618 209.074 387.946 208.556 388.43 208.228C388.85 207.946 389.346 207.844 389.827 207.944L390.187 208.019C391.283 208.247 391.997 209.42 391.78 210.635Z" fill="#18292D"/>
<path d="M337.577 248.217L343.987 249.545C344.06 249.56 344.134 249.567 344.207 249.567C344.423 249.567 344.635 249.504 344.816 249.382C345.058 249.218 345.225 248.962 345.277 248.675L348.242 232.205C348.668 229.842 347.192 227.541 344.953 227.078L344.593 227.002C343.532 226.784 342.449 227.001 341.54 227.614C340.581 228.263 339.907 229.312 339.695 230.492L336.73 246.961C336.626 247.541 337.002 248.098 337.579 248.218L337.577 248.217ZM341.831 230.877C341.941 230.26 342.269 229.742 342.753 229.414C343.173 229.132 343.669 229.03 344.151 229.13L344.51 229.205C345.606 229.433 346.32 230.606 346.103 231.821L343.337 247.192L339.055 246.305L341.831 230.877Z" fill="#18292D"/>
<path d="M347.667 250.307L354.076 251.636C354.15 251.651 354.223 251.657 354.297 251.657C354.513 251.657 354.725 251.594 354.905 251.472C355.148 251.308 355.315 251.052 355.367 250.765L358.332 234.296C358.758 231.932 357.282 229.631 355.042 229.168L354.683 229.093C353.622 228.874 352.539 229.091 351.629 229.705C350.67 230.353 349.997 231.403 349.784 232.583L346.819 249.052C346.716 249.632 347.092 250.188 347.668 250.309L347.667 250.307ZM351.92 232.967C352.031 232.35 352.358 231.832 352.843 231.505C353.262 231.22 353.759 231.12 354.24 231.22L354.599 231.296C355.696 231.523 356.409 232.696 356.192 233.911L353.426 249.282L349.144 248.395L351.92 232.967Z" fill="#18292D"/>
<path d="M357.756 252.397L364.166 253.726C364.239 253.741 364.313 253.747 364.386 253.747C364.602 253.747 364.814 253.684 364.995 253.562C365.237 253.398 365.404 253.142 365.456 252.855L368.421 236.386C368.847 234.022 367.371 231.721 365.13 231.258L364.771 231.183C363.71 230.964 362.627 231.181 361.717 231.794C360.758 232.443 360.084 233.492 359.872 234.672L356.907 251.142C356.804 251.722 357.18 252.278 357.756 252.399V252.397ZM362.01 235.057C362.12 234.44 362.448 233.92 362.932 233.594C363.352 233.312 363.848 233.21 364.33 233.31L364.689 233.385C365.785 233.613 366.499 234.786 366.282 236.001L363.516 251.372L359.234 250.485L362.01 235.058V235.057Z" fill="#18292D"/>
<path d="M367.846 254.487L374.256 255.816C374.329 255.831 374.403 255.838 374.476 255.838C374.692 255.838 374.904 255.774 375.085 255.652C375.327 255.488 375.494 255.233 375.546 254.945L378.511 238.476C378.937 236.113 377.461 233.811 375.222 233.348L374.862 233.273C373.801 233.054 372.718 233.271 371.809 233.885C370.85 234.533 370.176 235.583 369.964 236.763L366.999 253.232C366.895 253.812 367.271 254.368 367.848 254.489L367.846 254.487ZM372.1 237.147C372.21 236.53 372.538 236.012 373.022 235.685C373.442 235.402 373.938 235.3 374.42 235.401L374.779 235.476C375.875 235.703 376.591 236.876 376.372 238.091L373.606 253.463L369.324 252.575L372.1 237.147Z" fill="#18292D"/>
<path d="M377.936 256.578L384.345 257.907C384.419 257.922 384.492 257.929 384.566 257.929C384.782 257.929 384.994 257.865 385.174 257.743C385.417 257.58 385.584 257.324 385.636 257.036L388.601 240.567C389.027 238.204 387.551 235.902 385.311 235.44L384.952 235.364C383.891 235.145 382.806 235.363 381.899 235.976C380.939 236.624 380.266 237.674 380.053 238.854L377.088 255.323C376.985 255.903 377.361 256.46 377.937 256.58L377.936 256.578ZM382.189 239.238C382.3 238.622 382.627 238.102 383.112 237.776C383.531 237.494 384.026 237.392 384.509 237.492L384.868 237.567C385.965 237.794 386.679 238.968 386.461 240.183L383.695 255.554L379.413 254.666L382.189 239.238Z" fill="#18292D"/>
<path d="M332.145 278.398L338.555 279.726C338.628 279.741 338.702 279.748 338.775 279.748C338.991 279.748 339.203 279.684 339.384 279.562C339.626 279.399 339.793 279.143 339.845 278.856L342.81 262.386C343.236 260.023 341.76 257.722 339.521 257.259L339.162 257.183C338.102 256.964 337.017 257.18 336.108 257.795C335.149 258.444 334.475 259.493 334.263 260.673L331.298 277.142C331.194 277.722 331.57 278.279 332.147 278.399L332.145 278.398ZM336.399 261.058C336.509 260.441 336.837 259.921 337.321 259.595C337.741 259.313 338.237 259.211 338.719 259.311L339.078 259.386C340.174 259.614 340.888 260.787 340.671 262.002L337.905 277.373L333.623 276.486L336.399 261.058Z" fill="#18292D"/>
<path d="M342.235 280.489L348.644 281.818C348.718 281.833 348.791 281.84 348.865 281.84C349.08 281.84 349.293 281.776 349.473 281.654C349.715 281.49 349.883 281.235 349.934 280.947L352.899 264.478C353.326 262.115 351.85 259.813 349.608 259.35L349.249 259.275C348.188 259.056 347.103 259.273 346.196 259.887C345.236 260.535 344.563 261.585 344.35 262.765L341.386 279.234C341.282 279.814 341.658 280.37 342.235 280.491V280.489ZM346.488 263.149C346.598 262.532 346.926 262.014 347.411 261.687C347.83 261.404 348.327 261.302 348.808 261.403L349.167 261.478C350.264 261.705 350.977 262.878 350.76 264.093L347.994 279.465L343.712 278.577L346.488 263.149Z" fill="#18292D"/>
<path d="M352.325 282.578L358.734 283.907C358.808 283.922 358.881 283.928 358.955 283.928C359.17 283.928 359.383 283.865 359.563 283.743C359.806 283.579 359.973 283.323 360.025 283.036L362.989 266.567C363.416 264.203 361.94 261.902 359.7 261.439L359.341 261.364C358.28 261.145 357.195 261.362 356.287 261.976C355.328 262.624 354.655 263.674 354.442 264.854L351.477 281.323C351.374 281.903 351.75 282.459 352.326 282.58L352.325 282.578ZM356.578 265.238C356.689 264.621 357.016 264.103 357.501 263.776C357.92 263.493 358.417 263.391 358.898 263.491L359.257 263.567C360.354 263.794 361.067 264.967 360.85 266.182L358.084 281.553L353.802 280.666L356.578 265.238Z" fill="#18292D"/>
<path d="M362.414 284.668L368.824 285.997C368.897 286.012 368.971 286.019 369.044 286.019C369.26 286.019 369.472 285.955 369.653 285.833C369.895 285.669 370.062 285.414 370.114 285.126L373.079 268.657C373.505 266.294 372.029 263.992 369.79 263.529L369.431 263.454C368.369 263.235 367.286 263.452 366.377 264.066C365.418 264.714 364.744 265.764 364.532 266.944L361.567 283.413C361.463 283.993 361.839 284.55 362.416 284.67L362.414 284.668ZM366.668 267.328C366.778 266.712 367.106 266.192 367.59 265.866C368.01 265.582 368.506 265.481 368.988 265.582L369.347 265.657C370.443 265.884 371.157 267.058 370.94 268.273L368.174 283.644L363.892 282.756L366.668 267.328Z" fill="#18292D"/>
<path d="M372.504 286.76L378.914 288.089C378.987 288.104 379.061 288.111 379.134 288.111C379.35 288.111 379.562 288.047 379.743 287.925C379.985 287.761 380.152 287.506 380.204 287.218L383.169 270.749C383.595 268.386 382.119 266.084 379.88 265.621L379.52 265.546C378.461 265.327 377.376 265.544 376.467 266.158C375.508 266.806 374.834 267.856 374.622 269.036L371.657 285.505C371.553 286.085 371.929 286.641 372.506 286.762L372.504 286.76ZM376.758 269.42C376.868 268.803 377.196 268.285 377.68 267.958C378.1 267.675 378.596 267.573 379.078 267.674L379.437 267.749C380.533 267.976 381.247 269.149 381.03 270.364L378.264 285.736L373.982 284.848L376.758 269.42Z" fill="#18292D"/>
<path d="M326.713 308.578L333.123 309.907C333.196 309.922 333.27 309.929 333.344 309.929C333.559 309.929 333.771 309.865 333.952 309.743C334.194 309.58 334.361 309.324 334.413 309.036L337.378 292.567C337.804 290.204 336.329 287.902 334.089 287.44L333.73 287.364C332.668 287.145 331.584 287.363 330.676 287.976C329.717 288.624 329.043 289.674 328.831 290.854L325.866 307.323C325.762 307.903 326.138 308.46 326.715 308.58L326.713 308.578ZM330.967 291.238C331.077 290.622 331.405 290.104 331.889 289.776C332.309 289.492 332.805 289.392 333.287 289.492L333.646 289.567C334.742 289.794 335.456 290.968 335.239 292.183L332.473 307.554L328.191 306.666L330.967 291.238Z" fill="#18292D"/>
<path d="M336.803 310.667L343.213 311.996C343.286 312.011 343.36 312.018 343.433 312.018C343.649 312.018 343.861 311.954 344.042 311.832C344.284 311.668 344.451 311.413 344.503 311.125L347.468 294.656C347.894 292.293 346.418 289.991 344.179 289.528L343.819 289.453C342.758 289.234 341.673 289.452 340.766 290.065C339.807 290.713 339.133 291.763 338.921 292.943L335.956 309.412C335.852 309.992 336.228 310.549 336.805 310.669L336.803 310.667ZM341.057 293.327C341.167 292.711 341.495 292.191 341.979 291.865C342.399 291.582 342.895 291.481 343.377 291.581L343.736 291.656C344.832 291.883 345.546 293.057 345.329 294.272L342.563 309.643L338.281 308.755L341.057 293.327Z" fill="#18292D"/>
<path d="M346.893 312.759L353.303 314.088C353.376 314.103 353.45 314.11 353.523 314.11C353.739 314.11 353.951 314.046 354.132 313.924C354.374 313.76 354.541 313.505 354.593 313.217L357.558 296.748C357.984 294.385 356.508 292.083 354.269 291.62L353.909 291.545C352.848 291.326 351.765 291.543 350.856 292.157C349.896 292.805 349.223 293.855 349.011 295.035L346.046 311.504C345.942 312.084 346.318 312.64 346.895 312.761L346.893 312.759ZM351.147 295.419C351.257 294.802 351.584 294.283 352.069 293.957C352.489 293.674 352.983 293.572 353.466 293.673L353.826 293.748C354.922 293.975 355.636 295.148 355.419 296.363L352.652 311.735L348.371 310.847L351.147 295.419Z" fill="#18292D"/>
<path d="M356.983 314.85L363.392 316.179C363.466 316.194 363.539 316.2 363.613 316.2C363.828 316.2 364.041 316.137 364.221 316.015C364.464 315.851 364.631 315.595 364.682 315.308L367.647 298.839C368.074 296.475 366.598 294.174 364.358 293.711L363.999 293.636C362.938 293.417 361.853 293.634 360.945 294.248C359.986 294.896 359.313 295.946 359.1 297.126L356.135 313.595C356.032 314.175 356.408 314.731 356.984 314.852L356.983 314.85ZM361.236 297.51C361.347 296.893 361.674 296.375 362.159 296.048C362.578 295.765 363.075 295.663 363.556 295.763L363.915 295.839C365.012 296.066 365.727 297.239 365.508 298.454L362.742 313.825L358.46 312.938L361.236 297.51Z" fill="#18292D"/>
<path d="M367.071 316.938L373.48 318.267C373.554 318.282 373.627 318.289 373.701 318.289C373.916 318.289 374.129 318.225 374.309 318.103C374.551 317.939 374.719 317.683 374.77 317.396L377.735 300.927C378.162 298.564 376.686 296.262 374.446 295.799L374.087 295.724C373.026 295.505 371.942 295.721 371.033 296.336C370.074 296.984 369.4 298.034 369.188 299.214L366.223 315.683C366.12 316.263 366.496 316.819 367.072 316.94L367.071 316.938ZM371.324 299.598C371.434 298.981 371.762 298.462 372.247 298.136C372.666 297.852 373.163 297.751 373.644 297.852L374.003 297.927C375.1 298.154 375.813 299.327 375.596 300.542L372.83 315.914L368.548 315.026L371.324 299.598Z" fill="#18292D"/>
<path d="M321.28 338.76L327.69 340.088C327.763 340.103 327.837 340.11 327.91 340.11C328.126 340.11 328.338 340.047 328.519 339.925C328.761 339.761 328.928 339.505 328.98 339.218L331.945 322.748C332.371 320.385 330.895 318.084 328.656 317.621L328.297 317.545C327.237 317.327 326.152 317.544 325.243 318.157C324.284 318.806 323.61 319.855 323.398 321.035L320.433 337.504C320.329 338.084 320.705 338.641 321.282 338.761L321.28 338.76ZM325.534 321.42C325.644 320.803 325.972 320.285 326.456 319.957C326.876 319.675 327.372 319.573 327.854 319.673L328.213 319.748C329.309 319.976 330.023 321.149 329.806 322.364L327.04 337.735L322.758 336.848L325.534 321.42Z" fill="#18292D"/>
<path d="M331.369 340.848L337.778 342.177C337.852 342.192 337.926 342.199 337.999 342.199C338.215 342.199 338.427 342.135 338.607 342.013C338.85 341.85 339.017 341.594 339.069 341.306L342.034 324.837C342.46 322.474 340.984 320.173 338.744 319.71L338.385 319.634C337.324 319.415 336.241 319.633 335.332 320.246C334.372 320.895 333.699 321.944 333.486 323.124L330.522 339.593C330.418 340.173 330.794 340.73 331.371 340.85L331.369 340.848ZM335.622 323.508C335.733 322.892 336.06 322.372 336.545 322.046C336.965 321.764 337.461 321.662 337.942 321.762L338.302 321.837C339.398 322.064 340.112 323.238 339.894 324.453L337.128 339.824L332.846 338.936L335.622 323.508Z" fill="#18292D"/>
<path d="M341.459 342.94L347.869 344.269C347.942 344.284 348.016 344.29 348.089 344.29C348.305 344.29 348.517 344.227 348.698 344.105C348.94 343.941 349.107 343.685 349.159 343.398L352.124 326.928C352.55 324.565 351.074 322.264 348.835 321.801L348.475 321.726C347.414 321.507 346.331 321.724 345.422 322.337C344.463 322.986 343.789 324.035 343.577 325.215L340.612 341.685C340.508 342.265 340.884 342.821 341.461 342.941L341.459 342.94ZM345.713 325.6C345.823 324.983 346.151 324.465 346.635 324.137C347.055 323.855 347.551 323.753 348.033 323.853L348.392 323.928C349.488 324.156 350.202 325.329 349.985 326.544L347.219 341.915L342.937 341.028L345.713 325.6Z" fill="#18292D"/>
<path d="M351.549 345.03L357.958 346.359C358.032 346.374 358.105 346.381 358.179 346.381C358.395 346.381 358.607 346.317 358.787 346.195C359.03 346.031 359.197 345.776 359.249 345.488L362.214 329.019C362.64 326.656 361.164 324.354 358.924 323.891L358.565 323.816C357.504 323.597 356.419 323.814 355.512 324.428C354.552 325.076 353.879 326.126 353.666 327.306L350.701 343.775C350.598 344.355 350.974 344.911 351.551 345.032L351.549 345.03ZM355.802 327.69C355.913 327.073 356.24 326.554 356.725 326.228C357.144 325.945 357.641 325.843 358.122 325.944L358.482 326.019C359.578 326.246 360.292 327.419 360.074 328.634L357.308 344.006L353.026 343.118L355.802 327.69Z" fill="#18292D"/>
<path d="M361.639 347.119L368.049 348.448C368.122 348.463 368.196 348.469 368.269 348.469C368.485 348.469 368.697 348.406 368.878 348.284C369.12 348.12 369.287 347.864 369.339 347.577L372.304 331.108C372.73 328.744 371.254 326.443 369.013 325.98L368.654 325.905C367.594 325.686 366.509 325.903 365.6 326.517C364.641 327.165 363.967 328.215 363.755 329.395L360.79 345.864C360.686 346.444 361.063 347 361.639 347.121V347.119ZM365.893 329.779C366.003 329.162 366.331 328.644 366.815 328.317C367.235 328.034 367.729 327.932 368.212 328.032L368.572 328.108C369.668 328.335 370.382 329.508 370.165 330.723L367.399 346.094L363.117 345.207L365.893 329.779Z" fill="#18292D"/>
<path d="M315.848 368.941L322.258 370.268C322.331 370.283 322.405 370.29 322.478 370.29C322.694 370.29 322.906 370.226 323.087 370.104C323.329 369.94 323.496 369.685 323.548 369.397L326.513 352.928C326.939 350.565 325.463 348.263 323.224 347.8L322.864 347.725C321.803 347.506 320.72 347.723 319.811 348.337C318.852 348.985 318.178 350.035 317.966 351.215L315.001 367.684C314.897 368.264 315.273 368.821 315.85 368.941H315.848ZM320.102 351.601C320.212 350.984 320.54 350.464 321.024 350.139C321.444 349.854 321.94 349.754 322.421 349.854L322.781 349.93C323.877 350.157 324.591 351.33 324.374 352.545L321.608 367.916L317.326 367.029L320.102 351.601Z" fill="#18292D"/>
<path d="M325.938 371.03L332.347 372.358C332.421 372.373 332.494 372.38 332.568 372.38C332.783 372.38 332.996 372.317 333.176 372.195C333.418 372.031 333.586 371.775 333.637 371.488L336.602 355.018C337.028 352.655 335.553 350.354 333.313 349.891L332.954 349.815C331.892 349.597 330.808 349.814 329.9 350.427C328.941 351.076 328.267 352.125 328.055 353.305L325.09 369.774C324.987 370.354 325.363 370.911 325.939 371.031L325.938 371.03ZM330.191 353.69C330.301 353.073 330.629 352.555 331.114 352.227C331.533 351.945 332.03 351.843 332.511 351.943L332.87 352.018C333.967 352.246 334.682 353.419 334.463 354.634L331.697 370.005L327.415 369.118L330.191 353.69Z" fill="#18292D"/>
<path d="M336.028 373.121L342.437 374.45C342.511 374.465 342.584 374.471 342.658 374.471C342.874 374.471 343.086 374.408 343.266 374.286C343.509 374.122 343.676 373.866 343.728 373.579L346.693 357.11C347.119 354.746 345.643 352.445 343.403 351.982L343.044 351.907C341.983 351.688 340.9 351.905 339.991 352.519C339.031 353.167 338.358 354.217 338.145 355.397L335.18 371.866C335.077 372.446 335.453 373.002 336.03 373.123L336.028 373.121ZM340.281 355.781C340.392 355.164 340.719 354.644 341.204 354.319C341.623 354.036 342.12 353.934 342.601 354.034L342.961 354.11C344.057 354.337 344.771 355.51 344.553 356.725L341.787 372.096L337.505 371.209L340.281 355.781Z" fill="#18292D"/>
<path d="M346.118 375.21L352.527 376.539C352.601 376.554 352.674 376.56 352.748 376.56C352.963 376.56 353.176 376.497 353.356 376.375C353.599 376.211 353.766 375.955 353.818 375.668L356.782 359.199C357.209 356.835 355.733 354.534 353.493 354.071L353.134 353.996C352.073 353.777 350.988 353.994 350.08 354.607C349.121 355.256 348.448 356.305 348.235 357.485L345.27 373.955C345.167 374.535 345.543 375.091 346.119 375.211L346.118 375.21ZM350.371 357.87C350.482 357.253 350.809 356.735 351.294 356.407C351.713 356.125 352.21 356.023 352.691 356.123L353.05 356.198C354.147 356.426 354.86 357.599 354.643 358.814L351.877 374.185L347.595 373.298L350.371 357.87Z" fill="#18292D"/>
<path d="M356.207 377.3L362.616 378.629C362.69 378.644 362.763 378.651 362.837 378.651C363.053 378.651 363.265 378.587 363.445 378.465C363.688 378.301 363.855 378.046 363.907 377.758L366.872 361.289C367.298 358.926 365.822 356.624 363.582 356.161L363.223 356.086C362.162 355.866 361.079 356.085 360.17 356.698C359.21 357.346 358.537 358.396 358.324 359.576L355.359 376.045C355.256 376.625 355.632 377.182 356.208 377.302L356.207 377.3ZM360.46 359.96C360.571 359.344 360.898 358.826 361.383 358.498C361.802 358.215 362.299 358.114 362.78 358.214L363.139 358.289C364.236 358.516 364.95 359.69 364.732 360.905L361.966 376.276L357.684 375.388L360.46 359.96Z" fill="#18292D"/>
<path d="M408.137 164.564L347.605 152.022C347.319 151.964 347.02 152.022 346.776 152.186C346.534 152.35 346.366 152.605 346.315 152.893L345.429 157.817C345.325 158.397 345.701 158.953 346.278 159.073L348.959 159.628L343.577 189.527L336.771 188.116C336.484 188.058 336.185 188.116 335.942 188.28C335.7 188.444 335.533 188.699 335.481 188.987L295.092 413.376H276.856C276.256 413.376 275.77 413.862 275.77 414.462V426.362C275.77 426.962 276.256 427.448 276.856 427.448H384.89C385.49 427.448 385.977 426.962 385.977 426.362V414.462C385.977 413.862 385.49 413.376 384.89 413.376H369.177L406.914 203.73C407.017 203.15 406.641 202.593 406.065 202.473L399.202 201.051L404.584 171.152L406.81 171.613C406.883 171.628 406.957 171.635 407.031 171.635C407.246 171.635 407.458 171.572 407.639 171.45C407.881 171.286 408.048 171.03 408.1 170.743L408.986 165.819C409.09 165.239 408.714 164.682 408.137 164.562V164.564ZM383.804 415.55V425.277H277.942V415.55H296.024C296.024 415.55 296.028 415.55 296.029 415.55H367.88C367.88 415.55 367.88 415.55 367.881 415.55C367.883 415.55 367.881 415.55 367.883 415.55H383.806H383.804ZM303.846 413.378L309.158 383.864C309.325 382.934 309.823 382.151 310.558 381.652C311.207 381.215 311.975 381.057 312.723 381.213L314.491 381.581C316.162 381.927 317.255 383.698 316.924 385.53L311.912 413.376H303.846V413.378ZM320.016 413.378L324.748 387.094C324.915 386.165 325.413 385.381 326.148 384.883C326.797 384.445 327.566 384.288 328.313 384.444L330.081 384.811C331.752 385.157 332.845 386.929 332.514 388.761L328.084 413.378H320.018H320.016ZM336.188 413.378L340.338 390.323C340.505 389.394 341.003 388.61 341.738 388.112C342.387 387.674 343.156 387.517 343.903 387.673L345.671 388.04C347.342 388.386 348.435 390.158 348.105 391.99L344.255 413.378H336.19H336.188ZM352.36 413.378L355.928 393.552C356.095 392.623 356.593 391.839 357.329 391.341C357.977 390.903 358.746 390.748 359.493 390.902L361.261 391.269C362.933 391.615 364.026 393.387 363.695 395.219L360.427 413.376H352.361L352.36 413.378ZM366.972 413.378H362.633L365.832 395.605C366.369 392.623 364.515 389.725 361.701 389.142L359.933 388.774C358.607 388.5 357.248 388.772 356.11 389.541C354.904 390.357 354.056 391.679 353.789 393.166L350.152 413.376H346.462L350.242 392.374C350.779 389.392 348.925 386.493 346.111 385.911L344.342 385.543C343.015 385.269 341.658 385.542 340.52 386.31C339.313 387.126 338.466 388.448 338.199 389.936L333.98 413.374H330.292L334.652 389.142C335.189 386.16 333.335 383.262 330.521 382.679L328.752 382.311C327.427 382.037 326.068 382.309 324.93 383.078C323.723 383.894 322.876 385.216 322.608 386.705L317.808 413.374H314.12L319.062 385.913C319.598 382.931 317.745 380.033 314.93 379.45L313.162 379.082C311.835 378.808 310.478 379.08 309.34 379.849C308.133 380.665 307.286 381.987 307.018 383.474L301.638 413.373H297.3L304.735 372.062L371.901 385.976L366.971 413.373L366.972 413.378ZM372.289 383.842L305.123 369.928L310.17 341.887L377.336 355.8L372.289 383.842ZM377.72 353.661L310.555 339.747L315.602 311.706L382.768 325.62L377.72 353.661ZM383.152 323.48L315.987 309.566L321.034 281.525L388.2 295.439L383.152 323.48ZM388.584 293.299L321.418 279.386L326.466 251.344L393.632 265.258L388.584 293.299ZM394.016 263.119L326.85 249.205L331.898 221.163L399.063 235.077L394.016 263.119ZM404.587 204.386L399.448 232.938L332.282 219.024L337.421 190.471L344.224 191.88C344.224 191.88 344.225 191.88 344.227 191.88L362.632 195.692L369.83 197.183L397.723 202.961L404.584 204.383L404.587 204.386ZM364.111 193.782L365.744 184.715C366.075 182.875 367.106 181.252 368.573 180.259C369.909 179.357 371.493 179.036 373.037 179.357L373.893 179.534C377.289 180.237 379.512 183.806 378.85 187.488L377.227 196.499L364.109 193.782H364.111ZM397.074 200.611L392.045 199.57L379.358 196.941L380.991 187.874C381.86 183.044 378.875 178.347 374.336 177.408L373.48 177.231C371.358 176.791 369.183 177.227 367.358 178.461C365.408 179.778 364.041 181.919 363.606 184.331L361.985 193.342L345.706 189.97L351.088 160.071L402.458 170.713L397.076 200.611H397.074ZM406.16 169.26L403.934 168.799L350.434 157.716H350.431L347.755 157.161L348.257 154.377L406.661 166.476L406.16 169.26Z" fill="#18292D"/>
<mask id="path-130-outside-1_937_10459" maskUnits="userSpaceOnUse" x="48.7131" y="121.737" width="259.258" height="251.634" fill="black">
<rect fill="white" x="48.7131" y="121.737" width="259.258" height="251.634"/>
<path d="M131.923 366.753C131.887 366.731 130.942 366.129 129.233 364.702L129.662 364.193C131.324 365.588 132.266 366.183 132.277 366.193L131.919 366.761L131.923 366.753ZM125.278 361.08C124.512 360.326 123.725 359.516 122.943 358.682L123.427 358.224C124.206 359.051 124.985 359.857 125.749 360.604L125.278 361.08ZM119.376 354.687C118.687 353.876 117.974 353.016 117.245 352.114L117.764 351.692C118.493 352.594 119.204 353.447 119.884 354.255L119.376 354.687ZM113.961 347.884C113.317 347.02 112.66 346.119 111.99 345.187L112.536 344.797C113.205 345.73 113.86 346.625 114.502 347.482L113.967 347.882L113.961 347.884ZM108.943 340.79C108.336 339.891 107.724 338.959 107.109 337.999L107.672 337.639C108.294 338.596 108.904 339.522 109.504 340.423L108.952 340.794L108.943 340.79ZM104.261 333.471C103.691 332.537 103.121 331.582 102.543 330.608L103.116 330.273C103.693 331.246 104.264 332.201 104.832 333.129L104.264 333.477L104.261 333.471ZM99.937 325.925C99.4264 324.941 98.9275 323.93 98.4559 322.917L99.0623 322.633C99.5315 323.64 100.026 324.638 100.534 325.617L99.9433 325.923L99.937 325.925ZM96.3339 318.003C96.1204 317.47 95.9171 316.926 95.7161 316.389C95.5268 315.883 95.3375 315.376 95.163 314.872L95.7928 314.65C95.9735 315.153 96.1542 315.655 96.3435 316.161C96.5445 316.699 96.7455 317.237 96.9566 317.763L96.3362 318.009L96.3339 318.003ZM94.1614 309.582L93.5176 309.766C93.2046 308.7 92.912 307.612 92.6428 306.53L93.2874 306.368C93.5605 307.441 93.8507 308.522 94.159 309.576L94.1614 309.582ZM92.131 301.179L91.4747 301.31C91.2602 300.222 91.0661 299.112 90.8914 298.016L91.5507 297.912C91.7231 299.001 91.9211 300.103 92.1333 301.185L92.131 301.179ZM90.8514 292.63L90.1866 292.701C90.0705 291.59 89.9732 290.472 89.893 289.362L90.5586 289.313C90.634 290.41 90.7376 291.526 90.849 292.624L90.8514 292.63ZM90.3185 284.002L89.6538 284.015C89.6369 282.903 89.6302 281.78 89.6469 280.662L90.3147 280.676C90.2996 281.779 90.2977 282.898 90.3185 284.002ZM90.541 275.355L89.8763 275.311C89.9524 274.2 90.0511 273.073 90.1678 271.975L90.8356 272.046C90.7189 273.144 90.6217 274.256 90.5433 275.361L90.541 275.355ZM91.532 266.762L90.8713 266.653C91.0512 265.553 91.2476 264.439 91.4681 263.352L92.1233 263.485C91.9067 264.563 91.7057 265.664 91.532 266.762ZM93.3219 258.306L92.6738 258.135C92.9599 257.052 93.2671 255.968 93.5923 254.913L94.2287 255.11C93.9074 256.156 93.6041 257.232 93.3219 258.306ZM95.952 250.077L95.3289 249.84C95.7283 248.793 96.1488 247.745 96.5832 246.734L97.1946 246.998C96.764 247.999 96.3412 249.041 95.952 250.077ZM99.5424 242.244L98.9585 241.921C99.4921 240.966 100.078 239.999 100.69 239.043L101.252 239.403C100.648 240.341 100.072 241.298 99.5424 242.244ZM104.309 235.061L103.779 234.654C104.445 233.785 105.157 232.906 105.881 232.044L106.391 232.473C105.67 233.327 104.971 234.201 104.309 235.061ZM109.95 228.52L109.471 228.058C110.23 227.269 111.027 226.465 111.833 225.686L112.298 226.168C111.492 226.947 110.706 227.739 109.953 228.527L109.95 228.52ZM116.216 222.565L115.778 222.06C116.605 221.337 117.466 220.609 118.333 219.9L118.756 220.419C117.894 221.126 117.037 221.845 116.216 222.565ZM122.952 217.14L122.552 216.606C123.439 215.947 124.34 215.289 125.258 214.639L125.641 215.187C124.729 215.835 123.832 216.484 122.945 217.143L122.952 217.14ZM130.05 212.192L129.683 211.631C130.612 211.027 131.558 210.432 132.512 209.84L132.86 210.408C131.912 210.997 130.972 211.591 130.05 212.192ZM202.498 184.343L202.264 183.718C203.297 183.317 204.335 182.893 205.338 182.469L205.597 183.085C204.588 183.512 203.543 183.938 202.498 184.343ZM197.47 186.18C196.415 186.539 195.354 186.885 194.292 187.226L194.089 186.589C195.148 186.257 196.208 185.911 197.249 185.55L197.464 186.182L197.47 186.18ZM210.48 180.881L210.19 180.277C211.198 179.793 212.194 179.293 213.164 178.78L213.47 179.371C212.5 179.883 211.492 180.389 210.477 180.875L210.48 180.881ZM189.156 188.733C188.083 189.027 186.999 189.311 185.917 189.58L185.755 188.936C186.83 188.669 187.905 188.381 188.972 188.089L189.149 188.735L189.156 188.733ZM137.443 207.69L137.112 207.108C138.076 206.562 139.056 206.018 140.039 205.486L140.358 206.073C139.381 206.602 138.408 207.144 137.443 207.69ZM180.716 190.798C179.639 191.044 178.561 191.305 177.479 191.574L177.316 190.929C178.405 190.658 179.483 190.397 180.566 190.149L180.716 190.798ZM218.142 176.755L217.8 176.185C218.759 175.605 219.705 175.01 220.615 174.413L220.979 174.968C220.065 175.573 219.113 176.171 218.142 176.755ZM145.078 203.624L144.785 203.028C145.782 202.534 146.783 202.046 147.788 201.571L148.071 202.177C147.066 202.653 146.072 203.138 145.081 203.63L145.078 203.624ZM172.33 192.972C171.262 193.278 170.201 193.604 169.14 193.929L168.938 193.292C170.003 192.958 171.072 192.637 172.14 192.33L172.324 192.974L172.33 192.972ZM152.919 199.973L152.654 199.36C153.676 198.913 154.7 198.487 155.736 198.057L155.989 198.675C154.963 199.095 153.935 199.529 152.925 199.971L152.919 199.973ZM164.082 195.607C163.035 195.97 161.989 196.354 160.949 196.735L160.715 196.11C161.759 195.72 162.808 195.342 163.861 194.977L164.082 195.607ZM225.335 171.85L224.923 171.32C225.813 170.631 226.674 169.925 227.493 169.219L227.932 169.725C227.102 170.441 226.228 171.153 225.333 171.844L225.335 171.85ZM231.832 166.037L231.347 165.577C232.12 164.768 232.865 163.941 233.56 163.111L234.069 163.54C233.365 164.381 232.612 165.225 231.826 166.039L231.832 166.037ZM237.269 159.216L236.707 158.856C237.313 157.924 237.88 156.964 238.391 156.004L238.978 156.319C238.458 157.29 237.883 158.267 237.269 159.216ZM241.175 151.408L240.548 151.179C240.922 150.141 241.254 149.084 241.522 148.029L242.168 148.194C241.892 149.266 241.555 150.347 241.175 151.408ZM243.117 142.901L242.452 142.837C242.567 141.754 242.628 140.641 242.639 139.546L243.305 139.554C243.29 140.678 243.228 141.806 243.113 142.91L243.117 142.901ZM243.008 134.186L242.348 134.269C242.216 133.193 242.041 132.097 241.818 131.004L242.474 130.873C242.696 131.98 242.878 133.095 243.008 134.186ZM241.13 125.676L240.493 125.879C240.214 125 239.91 124.109 239.582 123.234L240.208 123C240.539 123.888 240.849 124.791 241.132 125.682L241.13 125.676Z"/>
</mask>
<path d="M131.923 366.753C131.887 366.731 130.942 366.129 129.233 364.702L129.662 364.193C131.324 365.588 132.266 366.183 132.277 366.193L131.919 366.761L131.923 366.753ZM125.278 361.08C124.512 360.326 123.725 359.516 122.943 358.682L123.427 358.224C124.206 359.051 124.985 359.857 125.749 360.604L125.278 361.08ZM119.376 354.687C118.687 353.876 117.974 353.016 117.245 352.114L117.764 351.692C118.493 352.594 119.204 353.447 119.884 354.255L119.376 354.687ZM113.961 347.884C113.317 347.02 112.66 346.119 111.99 345.187L112.536 344.797C113.205 345.73 113.86 346.625 114.502 347.482L113.967 347.882L113.961 347.884ZM108.943 340.79C108.336 339.891 107.724 338.959 107.109 337.999L107.672 337.639C108.294 338.596 108.904 339.522 109.504 340.423L108.952 340.794L108.943 340.79ZM104.261 333.471C103.691 332.537 103.121 331.582 102.543 330.608L103.116 330.273C103.693 331.246 104.264 332.201 104.832 333.129L104.264 333.477L104.261 333.471ZM99.937 325.925C99.4264 324.941 98.9275 323.93 98.4559 322.917L99.0623 322.633C99.5315 323.64 100.026 324.638 100.534 325.617L99.9433 325.923L99.937 325.925ZM96.3339 318.003C96.1204 317.47 95.9171 316.926 95.7161 316.389C95.5268 315.883 95.3375 315.376 95.163 314.872L95.7928 314.65C95.9735 315.153 96.1542 315.655 96.3435 316.161C96.5445 316.699 96.7455 317.237 96.9566 317.763L96.3362 318.009L96.3339 318.003ZM94.1614 309.582L93.5176 309.766C93.2046 308.7 92.912 307.612 92.6428 306.53L93.2874 306.368C93.5605 307.441 93.8507 308.522 94.159 309.576L94.1614 309.582ZM92.131 301.179L91.4747 301.31C91.2602 300.222 91.0661 299.112 90.8914 298.016L91.5507 297.912C91.7231 299.001 91.9211 300.103 92.1333 301.185L92.131 301.179ZM90.8514 292.63L90.1866 292.701C90.0705 291.59 89.9732 290.472 89.893 289.362L90.5586 289.313C90.634 290.41 90.7376 291.526 90.849 292.624L90.8514 292.63ZM90.3185 284.002L89.6538 284.015C89.6369 282.903 89.6302 281.78 89.6469 280.662L90.3147 280.676C90.2996 281.779 90.2977 282.898 90.3185 284.002ZM90.541 275.355L89.8763 275.311C89.9524 274.2 90.0511 273.073 90.1678 271.975L90.8356 272.046C90.7189 273.144 90.6217 274.256 90.5433 275.361L90.541 275.355ZM91.532 266.762L90.8713 266.653C91.0512 265.553 91.2476 264.439 91.4681 263.352L92.1233 263.485C91.9067 264.563 91.7057 265.664 91.532 266.762ZM93.3219 258.306L92.6738 258.135C92.9599 257.052 93.2671 255.968 93.5923 254.913L94.2287 255.11C93.9074 256.156 93.6041 257.232 93.3219 258.306ZM95.952 250.077L95.3289 249.84C95.7283 248.793 96.1488 247.745 96.5832 246.734L97.1946 246.998C96.764 247.999 96.3412 249.041 95.952 250.077ZM99.5424 242.244L98.9585 241.921C99.4921 240.966 100.078 239.999 100.69 239.043L101.252 239.403C100.648 240.341 100.072 241.298 99.5424 242.244ZM104.309 235.061L103.779 234.654C104.445 233.785 105.157 232.906 105.881 232.044L106.391 232.473C105.67 233.327 104.971 234.201 104.309 235.061ZM109.95 228.52L109.471 228.058C110.23 227.269 111.027 226.465 111.833 225.686L112.298 226.168C111.492 226.947 110.706 227.739 109.953 228.527L109.95 228.52ZM116.216 222.565L115.778 222.06C116.605 221.337 117.466 220.609 118.333 219.9L118.756 220.419C117.894 221.126 117.037 221.845 116.216 222.565ZM122.952 217.14L122.552 216.606C123.439 215.947 124.34 215.289 125.258 214.639L125.641 215.187C124.729 215.835 123.832 216.484 122.945 217.143L122.952 217.14ZM130.05 212.192L129.683 211.631C130.612 211.027 131.558 210.432 132.512 209.84L132.86 210.408C131.912 210.997 130.972 211.591 130.05 212.192ZM202.498 184.343L202.264 183.718C203.297 183.317 204.335 182.893 205.338 182.469L205.597 183.085C204.588 183.512 203.543 183.938 202.498 184.343ZM197.47 186.18C196.415 186.539 195.354 186.885 194.292 187.226L194.089 186.589C195.148 186.257 196.208 185.911 197.249 185.55L197.464 186.182L197.47 186.18ZM210.48 180.881L210.19 180.277C211.198 179.793 212.194 179.293 213.164 178.78L213.47 179.371C212.5 179.883 211.492 180.389 210.477 180.875L210.48 180.881ZM189.156 188.733C188.083 189.027 186.999 189.311 185.917 189.58L185.755 188.936C186.83 188.669 187.905 188.381 188.972 188.089L189.149 188.735L189.156 188.733ZM137.443 207.69L137.112 207.108C138.076 206.562 139.056 206.018 140.039 205.486L140.358 206.073C139.381 206.602 138.408 207.144 137.443 207.69ZM180.716 190.798C179.639 191.044 178.561 191.305 177.479 191.574L177.316 190.929C178.405 190.658 179.483 190.397 180.566 190.149L180.716 190.798ZM218.142 176.755L217.8 176.185C218.759 175.605 219.705 175.01 220.615 174.413L220.979 174.968C220.065 175.573 219.113 176.171 218.142 176.755ZM145.078 203.624L144.785 203.028C145.782 202.534 146.783 202.046 147.788 201.571L148.071 202.177C147.066 202.653 146.072 203.138 145.081 203.63L145.078 203.624ZM172.33 192.972C171.262 193.278 170.201 193.604 169.14 193.929L168.938 193.292C170.003 192.958 171.072 192.637 172.14 192.33L172.324 192.974L172.33 192.972ZM152.919 199.973L152.654 199.36C153.676 198.913 154.7 198.487 155.736 198.057L155.989 198.675C154.963 199.095 153.935 199.529 152.925 199.971L152.919 199.973ZM164.082 195.607C163.035 195.97 161.989 196.354 160.949 196.735L160.715 196.11C161.759 195.72 162.808 195.342 163.861 194.977L164.082 195.607ZM225.335 171.85L224.923 171.32C225.813 170.631 226.674 169.925 227.493 169.219L227.932 169.725C227.102 170.441 226.228 171.153 225.333 171.844L225.335 171.85ZM231.832 166.037L231.347 165.577C232.12 164.768 232.865 163.941 233.56 163.111L234.069 163.54C233.365 164.381 232.612 165.225 231.826 166.039L231.832 166.037ZM237.269 159.216L236.707 158.856C237.313 157.924 237.88 156.964 238.391 156.004L238.978 156.319C238.458 157.29 237.883 158.267 237.269 159.216ZM241.175 151.408L240.548 151.179C240.922 150.141 241.254 149.084 241.522 148.029L242.168 148.194C241.892 149.266 241.555 150.347 241.175 151.408ZM243.117 142.901L242.452 142.837C242.567 141.754 242.628 140.641 242.639 139.546L243.305 139.554C243.29 140.678 243.228 141.806 243.113 142.91L243.117 142.901ZM243.008 134.186L242.348 134.269C242.216 133.193 242.041 132.097 241.818 131.004L242.474 130.873C242.696 131.98 242.878 133.095 243.008 134.186ZM241.13 125.676L240.493 125.879C240.214 125 239.91 124.109 239.582 123.234L240.208 123C240.539 123.888 240.849 124.791 241.132 125.682L241.13 125.676Z" fill="black"/>
<path d="M131.923 366.753C131.887 366.731 130.942 366.129 129.233 364.702L129.662 364.193C131.324 365.588 132.266 366.183 132.277 366.193L131.919 366.761L131.923 366.753ZM125.278 361.08C124.512 360.326 123.725 359.516 122.943 358.682L123.427 358.224C124.206 359.051 124.985 359.857 125.749 360.604L125.278 361.08ZM119.376 354.687C118.687 353.876 117.974 353.016 117.245 352.114L117.764 351.692C118.493 352.594 119.204 353.447 119.884 354.255L119.376 354.687ZM113.961 347.884C113.317 347.02 112.66 346.119 111.99 345.187L112.536 344.797C113.205 345.73 113.86 346.625 114.502 347.482L113.967 347.882L113.961 347.884ZM108.943 340.79C108.336 339.891 107.724 338.959 107.109 337.999L107.672 337.639C108.294 338.596 108.904 339.522 109.504 340.423L108.952 340.794L108.943 340.79ZM104.261 333.471C103.691 332.537 103.121 331.582 102.543 330.608L103.116 330.273C103.693 331.246 104.264 332.201 104.832 333.129L104.264 333.477L104.261 333.471ZM99.937 325.925C99.4264 324.941 98.9275 323.93 98.4559 322.917L99.0623 322.633C99.5315 323.64 100.026 324.638 100.534 325.617L99.9433 325.923L99.937 325.925ZM96.3339 318.003C96.1204 317.47 95.9171 316.926 95.7161 316.389C95.5268 315.883 95.3375 315.376 95.163 314.872L95.7928 314.65C95.9735 315.153 96.1542 315.655 96.3435 316.161C96.5445 316.699 96.7455 317.237 96.9566 317.763L96.3362 318.009L96.3339 318.003ZM94.1614 309.582L93.5176 309.766C93.2046 308.7 92.912 307.612 92.6428 306.53L93.2874 306.368C93.5605 307.441 93.8507 308.522 94.159 309.576L94.1614 309.582ZM92.131 301.179L91.4747 301.31C91.2602 300.222 91.0661 299.112 90.8914 298.016L91.5507 297.912C91.7231 299.001 91.9211 300.103 92.1333 301.185L92.131 301.179ZM90.8514 292.63L90.1866 292.701C90.0705 291.59 89.9732 290.472 89.893 289.362L90.5586 289.313C90.634 290.41 90.7376 291.526 90.849 292.624L90.8514 292.63ZM90.3185 284.002L89.6538 284.015C89.6369 282.903 89.6302 281.78 89.6469 280.662L90.3147 280.676C90.2996 281.779 90.2977 282.898 90.3185 284.002ZM90.541 275.355L89.8763 275.311C89.9524 274.2 90.0511 273.073 90.1678 271.975L90.8356 272.046C90.7189 273.144 90.6217 274.256 90.5433 275.361L90.541 275.355ZM91.532 266.762L90.8713 266.653C91.0512 265.553 91.2476 264.439 91.4681 263.352L92.1233 263.485C91.9067 264.563 91.7057 265.664 91.532 266.762ZM93.3219 258.306L92.6738 258.135C92.9599 257.052 93.2671 255.968 93.5923 254.913L94.2287 255.11C93.9074 256.156 93.6041 257.232 93.3219 258.306ZM95.952 250.077L95.3289 249.84C95.7283 248.793 96.1488 247.745 96.5832 246.734L97.1946 246.998C96.764 247.999 96.3412 249.041 95.952 250.077ZM99.5424 242.244L98.9585 241.921C99.4921 240.966 100.078 239.999 100.69 239.043L101.252 239.403C100.648 240.341 100.072 241.298 99.5424 242.244ZM104.309 235.061L103.779 234.654C104.445 233.785 105.157 232.906 105.881 232.044L106.391 232.473C105.67 233.327 104.971 234.201 104.309 235.061ZM109.95 228.52L109.471 228.058C110.23 227.269 111.027 226.465 111.833 225.686L112.298 226.168C111.492 226.947 110.706 227.739 109.953 228.527L109.95 228.52ZM116.216 222.565L115.778 222.06C116.605 221.337 117.466 220.609 118.333 219.9L118.756 220.419C117.894 221.126 117.037 221.845 116.216 222.565ZM122.952 217.14L122.552 216.606C123.439 215.947 124.34 215.289 125.258 214.639L125.641 215.187C124.729 215.835 123.832 216.484 122.945 217.143L122.952 217.14ZM130.05 212.192L129.683 211.631C130.612 211.027 131.558 210.432 132.512 209.84L132.86 210.408C131.912 210.997 130.972 211.591 130.05 212.192ZM202.498 184.343L202.264 183.718C203.297 183.317 204.335 182.893 205.338 182.469L205.597 183.085C204.588 183.512 203.543 183.938 202.498 184.343ZM197.47 186.18C196.415 186.539 195.354 186.885 194.292 187.226L194.089 186.589C195.148 186.257 196.208 185.911 197.249 185.55L197.464 186.182L197.47 186.18ZM210.48 180.881L210.19 180.277C211.198 179.793 212.194 179.293 213.164 178.78L213.47 179.371C212.5 179.883 211.492 180.389 210.477 180.875L210.48 180.881ZM189.156 188.733C188.083 189.027 186.999 189.311 185.917 189.58L185.755 188.936C186.83 188.669 187.905 188.381 188.972 188.089L189.149 188.735L189.156 188.733ZM137.443 207.69L137.112 207.108C138.076 206.562 139.056 206.018 140.039 205.486L140.358 206.073C139.381 206.602 138.408 207.144 137.443 207.69ZM180.716 190.798C179.639 191.044 178.561 191.305 177.479 191.574L177.316 190.929C178.405 190.658 179.483 190.397 180.566 190.149L180.716 190.798ZM218.142 176.755L217.8 176.185C218.759 175.605 219.705 175.01 220.615 174.413L220.979 174.968C220.065 175.573 219.113 176.171 218.142 176.755ZM145.078 203.624L144.785 203.028C145.782 202.534 146.783 202.046 147.788 201.571L148.071 202.177C147.066 202.653 146.072 203.138 145.081 203.63L145.078 203.624ZM172.33 192.972C171.262 193.278 170.201 193.604 169.14 193.929L168.938 193.292C170.003 192.958 171.072 192.637 172.14 192.33L172.324 192.974L172.33 192.972ZM152.919 199.973L152.654 199.36C153.676 198.913 154.7 198.487 155.736 198.057L155.989 198.675C154.963 199.095 153.935 199.529 152.925 199.971L152.919 199.973ZM164.082 195.607C163.035 195.97 161.989 196.354 160.949 196.735L160.715 196.11C161.759 195.72 162.808 195.342 163.861 194.977L164.082 195.607ZM225.335 171.85L224.923 171.32C225.813 170.631 226.674 169.925 227.493 169.219L227.932 169.725C227.102 170.441 226.228 171.153 225.333 171.844L225.335 171.85ZM231.832 166.037L231.347 165.577C232.12 164.768 232.865 163.941 233.56 163.111L234.069 163.54C233.365 164.381 232.612 165.225 231.826 166.039L231.832 166.037ZM237.269 159.216L236.707 158.856C237.313 157.924 237.88 156.964 238.391 156.004L238.978 156.319C238.458 157.29 237.883 158.267 237.269 159.216ZM241.175 151.408L240.548 151.179C240.922 150.141 241.254 149.084 241.522 148.029L242.168 148.194C241.892 149.266 241.555 150.347 241.175 151.408ZM243.117 142.901L242.452 142.837C242.567 141.754 242.628 140.641 242.639 139.546L243.305 139.554C243.29 140.678 243.228 141.806 243.113 142.91L243.117 142.901ZM243.008 134.186L242.348 134.269C242.216 133.193 242.041 132.097 241.818 131.004L242.474 130.873C242.696 131.98 242.878 133.095 243.008 134.186ZM241.13 125.676L240.493 125.879C240.214 125 239.91 124.109 239.582 123.234L240.208 123C240.539 123.888 240.849 124.791 241.132 125.682L241.13 125.676Z" stroke="black" stroke-width="1.09176" stroke-linejoin="round" mask="url(#path-130-outside-1_937_10459)"/>
<circle cx="106" cy="110" r="49.5" fill="white" stroke="#18292D"/>
<g clip-path="url(#clip0_937_10459)">
<path d="M105.076 93.8999V130.346L77.7336 132.033V93.8999H105.076Z" fill="#18292D" stroke="#18292D" stroke-width="1.12172" stroke-linecap="round" stroke-linejoin="round"/>
<path d="M132.433 93.8999V132.033L105.096 130.346V93.8999H132.433Z" fill="#18292D" stroke="#18292D" stroke-width="1.12172" stroke-linecap="round" stroke-linejoin="round"/>
<path d="M129.542 93.6531V129.888C121.673 126.514 112.919 126.514 105.05 129.888V93.6531C112.919 90.279 121.673 90.279 129.542 93.6531Z" fill="white" stroke="#18292D" stroke-width="1.12172" stroke-linecap="round" stroke-linejoin="round"/>
<path d="M108.733 100.067C114.344 98.447 120.254 98.447 125.865 100.067" stroke="#FFC31F" stroke-width="1.12172" stroke-linecap="round" stroke-linejoin="round"/>
<path d="M108.733 106.845C114.344 105.225 120.254 105.225 125.865 106.845" stroke="#FFC31F" stroke-width="1.12172" stroke-linecap="round" stroke-linejoin="round"/>
<path d="M108.733 113.62C114.344 112 120.254 112 125.865 113.62" stroke="#FFC31F" stroke-width="1.12172" stroke-linecap="round" stroke-linejoin="round"/>
<path d="M105.05 93.6531V129.888C97.1805 126.514 88.4265 126.514 80.5571 129.888V93.6531C88.4265 90.279 97.1805 90.279 105.05 93.6531Z" fill="white" stroke="#18292D" stroke-width="1.12172" stroke-linecap="round" stroke-linejoin="round"/>
<path d="M84.2402 100.067C89.8516 98.447 95.7614 98.447 101.373 100.067" stroke="#FFC31F" stroke-width="1.12172" stroke-linecap="round" stroke-linejoin="round"/>
<path d="M84.2402 106.845C89.8516 105.225 95.7614 105.225 101.373 106.845" stroke="#FFC31F" stroke-width="1.12172" stroke-linecap="round" stroke-linejoin="round"/>
<path d="M84.2402 113.62C89.8516 112 95.7614 112 101.373 113.62" stroke="#FFC31F" stroke-width="1.12172" stroke-linecap="round" stroke-linejoin="round"/>
<path d="M84.2402 120.393C89.8516 118.773 95.7614 118.773 101.373 120.393" stroke="#FFC31F" stroke-width="1.12172" stroke-linecap="round" stroke-linejoin="round"/>
<path d="M134.475 89.2453C133.565 88.5406 132.238 88.7155 131.523 89.631L113.696 112.519C113.614 112.622 113.547 112.735 113.49 112.848L110.692 119.653C110.625 119.781 110.697 119.838 110.811 119.745L116.736 115.374C116.833 115.291 116.921 115.194 117.003 115.091L134.835 92.1873C135.55 91.2718 135.386 89.9499 134.475 89.2453Z" fill="white" stroke="#18292D" stroke-width="1.12172" stroke-linecap="round" stroke-linejoin="round"/>
<path d="M129.481 92.2954L132.716 94.8157" stroke="#18292D" stroke-width="1.12172" stroke-linecap="round" stroke-linejoin="round"/>
<path d="M112.194 115.996L113.999 117.39" stroke="#18292D" stroke-width="1.12172" stroke-linecap="round" stroke-linejoin="round"/>
<path d="M131.117 90.2642L134.367 92.769" stroke="#18292D" stroke-width="1.12172" stroke-linecap="round" stroke-linejoin="round"/>
<path d="M115.316 113.959L131.065 93.5396" stroke="#18292D" stroke-width="1.12172" stroke-linecap="round" stroke-linejoin="round"/>
<path d="M113.603 112.643L116.91 115.194" stroke="#18292D" stroke-width="1.12172" stroke-linecap="round" stroke-linejoin="round"/>
</g>
<circle cx="247" cy="83" r="49.5" fill="white" stroke="#18292D"/>
<path d="M261.084 84.0506V103.347C261.084 104.099 260.472 104.711 259.719 104.711H246.873C246.12 104.711 245.508 105.323 245.508 106.076C245.508 106.829 246.12 107.441 246.873 107.441H263.454V84.0506C263.454 83.5261 263.031 83.1035 262.507 83.1035H262.036C261.511 83.1035 261.089 83.5261 261.089 84.0506H261.084Z" fill="#18292D" stroke="#18292D" stroke-width="1.3" stroke-linecap="round" stroke-linejoin="round"/>
<path d="M237.421 87.2739C241.302 87.2739 244.449 84.1274 244.449 80.2461C244.449 76.3647 241.302 73.2183 237.421 73.2183C233.54 73.2183 230.393 76.3647 230.393 80.2461C230.393 84.1274 233.54 87.2739 237.421 87.2739Z" fill="white" stroke="#18292D" stroke-width="1.3" stroke-linecap="round" stroke-linejoin="round"/>
<path d="M237.785 103.253L241.811 108.688C242.462 109.689 254.293 108.96 254.293 108.96C256.197 108.688 257.645 106.988 257.431 105.08C257.208 103.108 255.372 101.962 253.453 101.996L246.425 102.136C245.478 102.156 244.619 101.573 244.293 100.679C244.293 100.679 241.535 94.3072 240.01 92.3645L239.995 92.3451C238.902 90.9415 237.198 90.0964 235.503 89.9847C229.733 89.6058 227.071 93.0347 226.741 97.5419L225.803 109.635" fill="white"/>
<path d="M237.785 103.253L241.811 108.688C242.462 109.689 254.293 108.96 254.293 108.96C256.197 108.688 257.645 106.988 257.431 105.08C257.208 103.108 255.372 101.962 253.453 101.996L246.425 102.136C245.478 102.156 244.619 101.573 244.293 100.679C244.293 100.679 241.535 94.3072 240.01 92.3645L239.995 92.3451C238.902 90.9415 237.198 90.0964 235.503 89.9847C229.733 89.6058 227.071 93.0347 226.741 97.5419L225.803 109.635" stroke="#18292D" stroke-width="1.3" stroke-linecap="round" stroke-linejoin="round"/>
<path d="M269.758 108.718C269.758 108.014 269.229 107.446 268.583 107.446L237.412 107.319L237.222 109.991H268.583C269.234 109.991 269.758 109.417 269.758 108.723V108.718Z" fill="#FFC31F" stroke="#FFC31F" stroke-width="1.3" stroke-linecap="round" stroke-linejoin="round"/>
<path d="M270.263 58.6636H260.676V68.2509H270.263V58.6636Z" fill="white" stroke="#18292D" stroke-width="1.3" stroke-linecap="round" stroke-linejoin="round"/>
<path d="M252.71 58.6636H243.123V68.2509H252.71V58.6636Z" fill="white" stroke="#18292D" stroke-width="1.3" stroke-linecap="round" stroke-linejoin="round"/>
<path d="M245.999 62.855L247.961 64.822L252.711 58.6636" stroke="#18292D" stroke-width="1.3" stroke-linecap="round" stroke-linejoin="round"/>
<path d="M234.906 58.6636H225.319V68.2509H234.906V58.6636Z" fill="white" stroke="#18292D" stroke-width="1.3" stroke-linecap="round" stroke-linejoin="round"/>
<path d="M228.193 62.855L230.16 65.1231L234.91 58.6636" stroke="#18292D" stroke-width="1.3" stroke-linecap="round" stroke-linejoin="round"/>
<defs>
<clipPath id="clip0_937_10459">
<rect width="58.5367" height="44.2124" fill="white" transform="translate(77.239 88.3184)"/>
</clipPath>
</defs>
</svg>
