<svg width="65" height="65" viewBox="0 0 65 65" fill="none" xmlns="http://www.w3.org/2000/svg">
<path d="M32.3418 18.1951V13.8149" stroke="#18292D" stroke-width="1.2" stroke-linecap="round" stroke-linejoin="round"/>
<path d="M48.4384 19.8716L14.5593 54.167" stroke="#18292D" stroke-width="1.2" stroke-linecap="round" stroke-linejoin="round"/>
<path d="M51.6259 16.8128C55.2091 20.3961 55.9289 25.5885 53.5434 29.0278L39.4058 14.8952C42.8502 12.5098 48.0426 13.2295 51.6207 16.8128H51.6259Z" fill="white" stroke="#18292D" stroke-width="1.2" stroke-linecap="round" stroke-linejoin="round"/>
<path d="M16.2405 19.8716L50.1195 54.167" stroke="#18292D" stroke-width="1.2" stroke-linecap="round" stroke-linejoin="round"/>
<path d="M13.0582 16.8128C9.47495 20.3909 8.75007 25.5833 11.1406 29.0278L25.2732 14.8952C21.8287 12.5098 16.6363 13.2295 13.0582 16.8128Z" fill="white" stroke="#18292D" stroke-width="1.2" stroke-linecap="round" stroke-linejoin="round"/>
<path d="M32.3418 54.1616C42.2736 54.1616 50.3249 46.1103 50.3249 36.1784C50.3249 26.2466 42.2736 18.1953 32.3418 18.1953C22.41 18.1953 14.3586 26.2466 14.3586 36.1784C14.3586 46.1103 22.41 54.1616 32.3418 54.1616Z" fill="#18292D" stroke="#18292D" stroke-width="1.2" stroke-linecap="round" stroke-linejoin="round"/>
<path d="M32.3421 51.7711C40.9536 51.7711 47.9347 44.7901 47.9347 36.1785C47.9347 27.567 40.9536 20.5859 32.3421 20.5859C23.7305 20.5859 16.7495 27.567 16.7495 36.1785C16.7495 44.7901 23.7305 51.7711 32.3421 51.7711Z" fill="white" stroke="#18292D" stroke-width="1.2" stroke-linecap="round" stroke-linejoin="round"/>
<path d="M34.0177 12.5095C34.0177 13.4348 33.2671 14.1854 32.3417 14.1854C31.4164 14.1854 30.6658 13.4348 30.6658 12.5095C30.6658 11.5841 31.4164 10.8335 32.3417 10.8335C33.2671 10.8335 34.0177 11.5841 34.0177 12.5095Z" fill="white" stroke="#18292D" stroke-width="1.2" stroke-linecap="round" stroke-linejoin="round"/>
<path d="M32.342 36.1782L25.2732 43.3396" stroke="#18292D" stroke-width="1.2" stroke-linecap="round" stroke-linejoin="round"/>
<path d="M32.3418 23.2539V34.5024" stroke="#18292D" stroke-width="1.2" stroke-linecap="round" stroke-linejoin="round"/>
<path d="M34.0177 36.1784C34.0177 37.1038 33.2671 37.8544 32.3417 37.8544C31.4164 37.8544 30.6658 37.1038 30.6658 36.1784C30.6658 35.253 31.4164 34.5024 32.3417 34.5024C33.2671 34.5024 34.0177 35.253 34.0177 36.1784Z" fill="white" stroke="#18292D" stroke-width="1.2" stroke-linecap="round" stroke-linejoin="round"/>
</svg>
