<svg width="470" height="250" viewBox="0 0 470 250" fill="none" xmlns="http://www.w3.org/2000/svg">
<g clip-path="url(#clip0_562_8729)">
<mask id="mask0_562_8729" style="mask-type:alpha" maskUnits="userSpaceOnUse" x="0" y="0" width="470" height="250">
<path d="M0 20C0 8.9543 8.9543 0 20 0H450C461.046 0 470 8.9543 470 20V250H0V20Z" fill="#F9F9FB"/>
</mask>
<g mask="url(#mask0_562_8729)">
</g>
<g clip-path="url(#clip1_562_8729)">
<path d="M246.452 178.222C242.891 180.515 241.068 182.933 240.809 184.725C240.809 184.725 162.927 214.393 142.432 199.438C125.841 187.331 142.768 174.028 147.871 172.893C157.465 170.764 157.997 170.232 153.732 160.106C149.467 149.979 143.449 144.032 158.529 142.521C169.188 141.457 169.72 138.256 170.252 126.001C170.785 113.746 189.965 112.149 196.899 115.342C203.825 118.543 196.899 110.545 203.293 108.949C209.686 107.352 211.283 111.077 212.355 113.746C213.419 116.407 226.746 117.479 229.407 127.065C232.068 136.66 242.727 135.595 239.002 151.576C235.269 167.564 240.598 161.17 244.863 162.766C249.128 164.363 253.925 173.425 246.459 178.222H246.452Z" fill="#18292D"/>
<path d="M284.939 246.87L252.36 196.198C248.361 189.851 241.341 186.048 233.837 186.165L174.056 184.819C165.635 184.632 158.099 190.008 155.54 198.029L139.184 249.218L284.939 246.87Z" fill="white"/>
<path d="M139.184 250C139.513 250 139.826 249.789 139.928 249.452L156.283 198.264C158.725 190.626 166.026 185.422 174.04 185.602L233.821 186.948C241.044 186.838 247.868 190.54 251.703 196.613L284.281 247.284C284.516 247.644 285.001 247.754 285.361 247.519C285.721 247.284 285.831 246.799 285.596 246.439L253.025 195.768C248.909 189.241 241.545 185.273 233.829 185.375L174.071 184.029C165.369 183.826 157.442 189.484 154.789 197.779L138.433 248.967C138.3 249.382 138.527 249.82 138.942 249.953C139.02 249.977 139.098 249.992 139.176 249.992L139.184 250Z" fill="#18292D"/>
<path d="M213.411 166.742C198.215 166.742 185.896 154.423 185.896 139.227C185.896 124.03 198.215 111.711 213.411 111.711C228.608 111.711 240.927 124.03 240.927 139.227C240.927 154.423 228.608 166.742 213.411 166.742Z" fill="#18292D"/>
<path d="M180.269 148.602C181.475 148.351 182.68 148.43 183.775 148.774C181.756 138.123 187.148 127.363 197.056 122.699C209.264 116.947 223.82 122.432 229.188 134.821L232.131 141.598C236.834 152.444 230.307 164.864 218.709 167.141L216.597 167.556V185.25H227.169C223.608 195.032 213.756 202.067 202.158 202.067C190.56 202.067 180.715 195.032 177.147 185.25H190.083V166.906C188.502 165.31 187.313 163.299 186.741 160.974L186.64 160.56C185.7 161.483 184.495 162.156 183.11 162.446C179.291 163.228 175.558 160.771 174.776 156.944C173.993 153.125 176.45 149.392 180.277 148.61L180.269 148.602Z" fill="white"/>
<path d="M202.158 202.85C213.779 202.85 224.125 195.885 227.905 185.516C227.991 185.273 227.959 185.007 227.811 184.796C227.662 184.585 227.427 184.459 227.169 184.459H217.379V168.19L218.858 167.9C224.618 166.765 229.493 163.134 232.224 157.938C234.956 152.742 235.183 146.669 232.851 141.277L229.916 134.5C227.232 128.317 222.286 123.599 215.978 121.22C209.671 118.841 202.839 119.114 196.735 121.986C186.913 126.611 181.318 137.09 182.821 147.757C181.921 147.624 181.005 147.655 180.113 147.835C175.879 148.704 173.132 152.859 174.009 157.101C174.431 159.151 175.629 160.92 177.374 162.07C179.127 163.22 181.216 163.627 183.267 163.205C184.323 162.986 185.317 162.555 186.193 161.937C186.804 163.901 187.868 165.717 189.3 167.227V184.475H177.147C176.889 184.475 176.654 184.6 176.505 184.812C176.356 185.023 176.325 185.289 176.411 185.532C180.183 195.901 190.529 202.866 202.158 202.866V202.85ZM226.019 186.032C222.168 195.204 212.723 201.285 202.158 201.285C191.593 201.285 182.148 195.204 178.297 186.032H190.083C190.513 186.032 190.865 185.68 190.865 185.25V166.906C190.865 166.703 190.787 166.499 190.638 166.358C189.105 164.809 188.017 162.884 187.5 160.787L187.399 160.364C187.328 160.09 187.125 159.879 186.851 159.8C186.585 159.722 186.287 159.8 186.092 159.996C185.223 160.849 184.143 161.428 182.954 161.671C181.31 162.007 179.635 161.686 178.235 160.763C176.834 159.84 175.879 158.423 175.543 156.78C174.846 153.391 177.037 150.065 180.434 149.369C181.467 149.157 182.547 149.212 183.548 149.525C183.807 149.604 184.096 149.549 184.3 149.361C184.503 149.181 184.597 148.899 184.55 148.633C182.586 138.272 187.868 127.895 197.4 123.411C203.113 120.719 209.514 120.468 215.423 122.691C221.331 124.921 225.972 129.335 228.484 135.134L231.418 141.911C233.563 146.865 233.359 152.444 230.847 157.218C228.335 161.999 223.859 165.333 218.561 166.374L216.448 166.789C216.08 166.859 215.814 167.18 215.814 167.556V185.25C215.814 185.68 216.166 186.032 216.596 186.032H226.019Z" fill="#18292D"/>
<path d="M185.035 157.5C185.09 157.5 185.137 157.5 185.192 157.484C185.614 157.398 185.888 156.983 185.802 156.561C185.481 154.988 184.566 153.642 183.227 152.757C181.889 151.873 180.285 151.568 178.72 151.889C178.297 151.975 178.023 152.389 178.109 152.812C178.196 153.235 178.61 153.508 179.033 153.422C181.428 152.929 183.775 154.479 184.268 156.874C184.347 157.241 184.667 157.5 185.035 157.5Z" fill="#18292D"/>
<path d="M219.093 141.864C219.281 141.864 219.461 141.801 219.609 141.668C219.93 141.379 219.962 140.885 219.672 140.565L215.767 136.167C214.726 134.985 214.241 133.42 214.444 131.855C214.648 130.289 215.524 128.904 216.839 128.036C216.863 128.02 216.886 128.004 216.909 127.981C216.996 127.91 219.226 126.181 223.42 128.114C223.812 128.294 224.274 128.122 224.461 127.73C224.641 127.339 224.469 126.87 224.078 126.69C219.21 124.444 216.346 126.439 215.947 126.744C214.272 127.863 213.161 129.648 212.895 131.651C212.629 133.662 213.247 135.689 214.593 137.207L218.498 141.605C218.655 141.778 218.866 141.872 219.085 141.872L219.093 141.864Z" fill="#18292D"/>
<path d="M199.896 138.71C200.773 139.837 202.041 140.15 202.721 139.422C203.402 138.695 203.254 137.192 202.377 136.065C201.501 134.938 200.233 134.625 199.552 135.353C198.871 136.081 199.02 137.583 199.896 138.71Z" fill="#18292D"/>
<path d="M219.766 134.101C220.642 135.228 221.91 135.541 222.599 134.813C223.288 134.085 223.131 132.583 222.255 131.456C221.378 130.329 220.11 130.016 219.422 130.744C218.733 131.471 218.889 132.974 219.766 134.101Z" fill="#18292D"/>
<path d="M220.22 144.399L206.924 144.462C206.924 144.462 214.077 159.855 220.22 144.399Z" fill="white"/>
<path d="M214.022 152.069C214.022 152.069 214.1 152.069 214.139 152.069C216.737 151.998 219.03 149.509 220.948 144.689C221.041 144.446 221.01 144.172 220.869 143.961C220.721 143.75 220.478 143.617 220.22 143.617L206.924 143.679C206.658 143.679 206.407 143.82 206.266 144.039C206.126 144.258 206.102 144.548 206.219 144.791C206.36 145.088 209.647 152.061 214.03 152.061L214.022 152.069ZM219.038 145.19C217.512 148.625 215.814 150.456 214.1 150.503C211.721 150.574 209.405 147.357 208.207 145.244L219.038 145.19Z" fill="#18292D"/>
<path d="M183.634 147.803C182.14 137.685 187.25 127.644 196.5 122.988C197.087 132.434 192.071 141.613 183.634 147.803Z" fill="#18292D"/>
<path d="M192.431 138.765C192.759 138.765 193.072 138.553 193.174 138.217C195.389 131.283 203.754 130.587 203.841 130.587C204.271 130.556 204.592 130.18 204.561 129.749C204.529 129.319 204.161 128.99 203.723 129.03C203.34 129.061 194.215 129.82 191.679 137.747C191.546 138.162 191.773 138.6 192.188 138.733C192.266 138.757 192.345 138.773 192.423 138.773L192.431 138.765Z" fill="#18292D"/>
<path d="M216.589 168.338C217.003 168.338 217.356 168.01 217.371 167.587C217.387 167.157 217.05 166.789 216.62 166.773C211.87 166.577 203.77 163.04 203.692 163.009C203.293 162.837 202.831 163.009 202.659 163.408C202.487 163.807 202.659 164.269 203.058 164.441C203.402 164.59 211.502 168.127 216.549 168.338C216.557 168.338 216.573 168.338 216.581 168.338H216.589Z" fill="#18292D"/>
<path d="M265.273 249.218L281.887 217.868L279.946 202.208H306.718L297.436 249.218H265.273Z" fill="white"/>
<path d="M265.273 250C265.554 250 265.828 249.852 265.961 249.585L282.575 218.236C282.654 218.095 282.677 217.93 282.661 217.774L280.838 202.991H305.771L296.677 249.069C296.591 249.492 296.873 249.906 297.296 249.985C297.718 250.071 298.133 249.789 298.211 249.366L307.492 202.357C307.539 202.13 307.477 201.888 307.328 201.708C307.179 201.528 306.96 201.418 306.726 201.418H279.954C279.727 201.418 279.515 201.512 279.367 201.684C279.218 201.848 279.148 202.075 279.179 202.294L281.081 217.711L264.584 248.842C264.38 249.225 264.529 249.695 264.913 249.898C265.03 249.961 265.155 249.992 265.28 249.992L265.273 250Z" fill="#18292D"/>
<path d="M316.437 140.001C308.979 139.829 292.052 139.681 286.105 139.579C284.641 139.555 283.342 140.494 282.896 141.887L264.913 203.515C264.232 205.652 265.828 207.843 268.074 207.843H299.166C300.653 207.843 301.96 206.857 302.359 205.425L319.544 144.219C320.131 142.138 318.605 140.056 316.437 140.009V140.001Z" fill="#4A7C88"/>
<path d="M300.661 212.781L298.156 208.32L297.922 199.399L281.3 188.599C279.938 187.715 279.077 186.244 278.968 184.632L278.952 184.366C278.827 182.526 280.76 181.267 282.38 182.135C286.606 184.389 293.289 187.981 296.122 189.617C293.297 187.527 286.652 182.135 282.63 178.841C280.603 177.182 279.617 174.576 280.024 171.985V171.93C280.274 170.397 282.02 169.63 283.311 170.49L302.374 183.2L285.213 166.875C283.976 165.693 283.647 163.846 284.414 162.32L284.821 161.514C285.416 160.333 286.919 159.957 287.998 160.716L308.604 175.319L308.361 166.538L301.31 160.474C299.479 158.901 298.814 156.349 299.643 154.08C300.066 152.906 301.49 152.476 302.484 153.211L312.939 160.849C314.7 162.14 315.741 164.191 315.741 166.374V180.39L315.897 190.822C315.952 194.437 315.013 197.998 313.19 201.12L303.462 217.781L300.653 212.781H300.661Z" fill="white"/>
<path d="M303.478 218.564C303.744 218.564 304.01 218.423 304.151 218.173L313.878 201.512C315.772 198.264 316.75 194.562 316.688 190.806L316.531 180.374V166.374C316.531 163.948 315.365 161.647 313.409 160.223L302.954 152.585C302.281 152.092 301.428 151.943 300.629 152.194C299.831 152.436 299.205 153.031 298.915 153.814C297.976 156.381 298.735 159.3 300.801 161.076L307.586 166.914L307.774 173.777L288.452 160.082C287.748 159.589 286.872 159.425 286.042 159.628C285.213 159.84 284.508 160.395 284.125 161.162L283.718 161.976C282.794 163.823 283.178 166.022 284.68 167.454L295.276 177.534L283.749 169.849C282.92 169.293 281.879 169.207 280.971 169.606C280.055 170.005 279.422 170.835 279.265 171.821C278.811 174.724 279.915 177.635 282.145 179.451C283.78 180.789 285.972 182.581 288.171 184.35C286.183 183.278 284.242 182.237 282.755 181.446C281.746 180.906 280.564 180.953 279.602 181.579C278.631 182.206 278.099 183.27 278.177 184.428L278.193 184.694C278.318 186.549 279.32 188.255 280.877 189.272L297.147 199.853L297.374 208.359C297.374 208.484 297.413 208.61 297.476 208.719L299.988 213.18C300.199 213.556 300.676 213.689 301.052 213.477C301.428 213.266 301.561 212.789 301.349 212.413L298.939 208.117L298.712 199.391C298.712 199.133 298.571 198.898 298.36 198.757L281.738 187.957C280.595 187.214 279.852 185.954 279.766 184.592L279.75 184.326C279.711 183.747 279.977 183.215 280.462 182.902C280.94 182.597 281.527 182.566 282.027 182.839C285.917 184.913 292.866 188.646 295.746 190.313C296.106 190.524 296.568 190.415 296.795 190.063C297.022 189.718 296.936 189.249 296.607 189.006C293.75 186.893 286.95 181.368 283.147 178.254C281.347 176.782 280.455 174.435 280.814 172.126C280.893 171.609 281.182 171.242 281.605 171.054C282.035 170.866 282.497 170.905 282.888 171.163L301.952 183.872C302.288 184.099 302.742 184.029 303 183.708C303.251 183.387 303.22 182.933 302.93 182.652L285.768 166.327C284.774 165.38 284.516 163.917 285.126 162.688L285.533 161.874C285.713 161.514 286.042 161.256 286.426 161.154C286.817 161.06 287.224 161.131 287.552 161.366L308.158 175.968C308.4 176.141 308.721 176.156 308.979 176.023C309.238 175.882 309.402 175.608 309.394 175.311L309.152 166.531C309.152 166.311 309.05 166.1 308.878 165.959L301.827 159.894C300.254 158.54 299.675 156.318 300.387 154.362C300.504 154.033 300.762 153.79 301.091 153.689C301.42 153.587 301.764 153.649 302.038 153.853L312.493 161.491C314.05 162.626 314.974 164.457 314.974 166.382V180.398L315.13 190.845C315.185 194.32 314.285 197.74 312.532 200.745L302.805 217.406C302.586 217.781 302.711 218.259 303.087 218.478C303.212 218.548 303.345 218.587 303.478 218.587V218.564Z" fill="#18292D"/>
<path d="M307.727 187.848C307.97 187.848 308.205 187.738 308.353 187.535C308.612 187.19 308.541 186.697 308.189 186.439L293.516 175.569C293.171 175.311 292.678 175.381 292.42 175.734C292.162 176.078 292.232 176.571 292.585 176.829L307.258 187.699C307.399 187.801 307.563 187.856 307.72 187.856L307.727 187.848Z" fill="#18292D"/>
<path d="M301.592 193.795C301.858 193.795 302.116 193.662 302.265 193.42C302.492 193.052 302.374 192.567 301.999 192.348L286.786 183.105C286.418 182.879 285.933 182.996 285.713 183.372C285.486 183.739 285.604 184.225 285.98 184.444L301.193 193.686C301.318 193.764 301.459 193.803 301.6 193.803L301.592 193.795Z" fill="#18292D"/>
<path d="M315.6 181.963C315.772 181.963 315.944 181.908 316.093 181.791C316.43 181.517 316.484 181.024 316.21 180.687L314.481 178.543C313.722 177.604 312.806 176.814 311.758 176.195L308.588 174.333C308.212 174.114 307.735 174.239 307.516 174.607C307.297 174.982 307.422 175.46 307.79 175.679L310.959 177.542C311.844 178.058 312.611 178.723 313.26 179.521L314.99 181.666C315.146 181.854 315.373 181.955 315.6 181.955V181.963Z" fill="#18292D"/>
<path d="M334.169 98.424L334.169 98.4242C334.961 105.188 329.599 111.085 322.799 110.946L315.005 110.781L314.63 110.773L314.399 111.069L304.805 123.331C304.805 123.332 304.805 123.332 304.805 123.332C303.271 125.288 300.145 124.084 300.313 121.615C300.313 121.615 300.313 121.615 300.313 121.615L300.939 112.482L300.995 111.671L300.182 111.681L238.297 112.448C238.296 112.448 238.296 112.448 238.296 112.448M334.169 98.424L226.269 102.633C226.989 108.714 232.178 113.269 238.305 113.198L238.296 112.448M334.169 98.424L332.095 80.6674L332.095 80.6673C331.428 74.946 326.528 70.6545 320.762 70.7499L320.762 70.7499L235.86 72.1507C229.214 72.2607 224.124 78.0846 224.901 84.6868L334.169 98.424ZM238.296 112.448C232.551 112.514 227.689 108.244 227.014 102.545L224.901 84.6872L238.296 112.448Z" fill="white" stroke="#18292D" stroke-width="1.5"/>
<path d="M318.347 93.1409L318.629 104.355L311.061 95.3868L302.93 97.6328L308.541 89.5019L306.013 80.8153L313.863 85.0177L320.029 78.0059L319.474 88.1011L328.442 92.5852L318.347 93.1409Z" fill="#FFC31F"/>
<path d="M294.58 91.5757L288.523 87.2011L290.205 75.4312L281.128 84.8455L273.724 80.8153L277.763 90.2296L271.369 95.9503L280.455 95.2772L282.474 104.355L286.175 93.2582L294.58 91.5757Z" fill="#FFC31F"/>
<path d="M267.339 93.2582L261.955 87.2011L263.974 75.4312L257.243 83.163L246.483 78.7962L249.512 86.8646L240.762 92.2487L250.85 94.9407L254.215 105.028L259.262 95.6138L267.339 93.2582Z" fill="#FFC31F"/>
<path d="M246.366 249.1C246.436 249.1 246.507 249.092 246.577 249.069C246.992 248.951 247.234 248.521 247.117 248.106L241.803 229.051C241.686 228.636 241.255 228.393 240.841 228.511C240.426 228.628 240.183 229.058 240.301 229.473L245.614 248.529C245.708 248.873 246.029 249.1 246.366 249.1Z" fill="#18292D"/>
<path d="M171.919 248.654C172.303 248.654 172.631 248.372 172.694 247.989L175.832 226.906C175.895 226.476 175.597 226.077 175.175 226.014C174.744 225.952 174.353 226.249 174.283 226.672L171.145 247.754C171.082 248.185 171.379 248.584 171.802 248.646C171.841 248.646 171.88 248.654 171.919 248.654Z" fill="#18292D"/>
</g>
</g>
<defs>
<clipPath id="clip0_562_8729">
<rect width="470" height="250" fill="white"/>
</clipPath>
<clipPath id="clip1_562_8729">
<rect width="199.69" height="180" fill="white" transform="matrix(-1 0 0 1 335 70)"/>
</clipPath>
</defs>
</svg>
