<svg width="65" height="65" viewBox="0 0 65 65" fill="none" xmlns="http://www.w3.org/2000/svg">
<path d="M45.6925 15.1406H19.7172C18.2165 15.1406 17 16.3572 17 17.8578V52.2828C17 53.7835 18.2165 55 19.7172 55H45.6925C47.1931 55 48.4097 53.7835 48.4097 52.2828V17.8578C48.4097 16.3572 47.1931 15.1406 45.6925 15.1406Z" fill="#18292D" stroke="#18292D" stroke-width="1.2" stroke-linecap="round" stroke-linejoin="round"/>
<path d="M45.9779 27.4363V52.2105H19.7642V17.9346H45.9779V27.4363Z" fill="white" stroke="#18292D" stroke-width="1.2" stroke-linecap="round" stroke-linejoin="round"/>
<path d="M35.3685 44.0588L34.2441 49.1057" stroke="#18292D" stroke-width="1.2" stroke-linecap="round" stroke-linejoin="round"/>
<path d="M35.3687 44.0588L37.1446 48.4541" stroke="#18292D" stroke-width="1.2" stroke-linecap="round" stroke-linejoin="round"/>
<path d="M33.7764 47.6147L36.3871 46.8608" stroke="#18292D" stroke-width="1.2" stroke-linecap="round" stroke-linejoin="round"/>
<path d="M39.3892 44.0588L40.5135 47.3382" stroke="#18292D" stroke-width="1.2" stroke-linecap="round" stroke-linejoin="round"/>
<path d="M38.4565 46.2565L41.5443 45.1023" stroke="#18292D" stroke-width="1.2" stroke-linecap="round" stroke-linejoin="round"/>
<path d="M27.1069 25.0474H42.5498" stroke="#18292D" stroke-width="1.2" stroke-linecap="round" stroke-linejoin="round"/>
<path d="M22.5454 25.2172L23.657 25.9838L24.9262 24.1099" stroke="#18292D" stroke-width="1.2" stroke-linecap="round" stroke-linejoin="round"/>
<path d="M27.1069 29.8083H42.5498" stroke="#18292D" stroke-width="1.2" stroke-linecap="round" stroke-linejoin="round"/>
<path d="M22.5454 29.9832L23.657 30.7455L24.9262 28.8716" stroke="#18292D" stroke-width="1.2" stroke-linecap="round" stroke-linejoin="round"/>
<path d="M27.1069 34.6768H42.5498" stroke="#18292D" stroke-width="1.2" stroke-linecap="round" stroke-linejoin="round"/>
<path d="M22.5454 34.7448L23.657 35.5114L24.9262 33.6375" stroke="#18292D" stroke-width="1.2" stroke-linecap="round" stroke-linejoin="round"/>
<path d="M27.4771 39.3398H42.9157" stroke="#18292D" stroke-width="1.2" stroke-linecap="round" stroke-linejoin="round"/>
<path d="M22.5454 39.5102L23.657 40.2768L24.9262 38.4028" stroke="#18292D" stroke-width="1.2" stroke-linecap="round" stroke-linejoin="round"/>
<path d="M39.8403 14.9191C39.8403 14.4208 39.4357 14.0162 38.9374 14.0162H36.8463C36.1947 14.0162 35.6878 13.4796 35.6921 12.8279C35.6921 12.8279 35.6921 12.8237 35.6921 12.8194C35.5941 10.7198 34.1844 10 32.8258 10C31.6717 10 30.049 10.7198 30.049 12.6959C30.049 12.7513 30.049 12.8109 30.049 12.8663C30.0575 13.5051 29.5337 14.0204 28.8948 14.0204H26.8037C26.3054 14.0204 25.9008 14.425 25.9008 14.9233L25.3003 19.276H40.4408L39.8403 14.9233V14.9191Z" fill="white" stroke="#18292D" stroke-width="1.2" stroke-linecap="round" stroke-linejoin="round"/>
<path d="M34.0654 12.7214C34.0654 13.3816 33.5288 13.9182 32.8686 13.9182C32.2085 13.9182 31.6719 13.3816 31.6719 12.7214C31.6719 12.0613 32.2085 11.5247 32.8686 11.5247C33.5288 11.5247 34.0654 12.0613 34.0654 12.7214Z" fill="white" stroke="#18292D" stroke-width="1.2" stroke-linecap="round" stroke-linejoin="round"/>
</svg>
