<svg width="700" height="750" viewBox="0 0 700 750" fill="none" xmlns="http://www.w3.org/2000/svg">
<path d="M498.268 565.139C497.665 562.808 497.625 560.395 498.138 557.953L499.484 558.238C498.943 560.793 499.068 563.283 499.877 565.725L499.942 565.921L498.645 566.377L498.569 566.163C498.459 565.821 498.358 565.485 498.27 565.145L498.268 565.139ZM500.122 569.584L501.306 568.886C502.564 571.027 504.354 572.973 506.626 574.666L505.802 575.767C503.38 573.963 501.469 571.878 500.122 569.584ZM499.186 554.584C500.138 552.271 501.592 549.869 503.525 547.444L504.607 548.301C502.762 550.625 501.37 552.911 500.466 555.106L499.193 554.583L499.186 554.584ZM508.728 577.682L509.415 576.488C511.587 577.739 514.061 578.811 516.781 579.678L516.359 580.988C513.552 580.087 510.982 578.975 508.727 577.675L508.728 577.682ZM505.783 544.821C507.487 542.973 509.442 541.103 511.764 539.11L512.659 540.151C510.379 542.112 508.463 543.943 506.792 545.753L505.783 544.821ZM491.377 480.54L491.441 479.166C494.231 479.29 497.002 479.582 499.668 480.051L499.428 481.406C496.816 480.952 494.109 480.657 491.377 480.54ZM514.401 536.908C516.635 535.1 518.832 533.452 520.765 531.993L520.908 531.885L521.733 532.986L521.591 533.094C519.662 534.545 517.478 536.19 515.267 537.977L514.401 536.908ZM502.731 482.08L503.046 480.741C505.824 481.394 508.475 482.243 510.944 483.267L510.413 484.541C508.016 483.548 505.427 482.718 502.726 482.088L502.731 482.08ZM523.472 529.758C525.414 527.92 527.043 525.808 528.317 523.475L529.524 524.129C528.185 526.593 526.471 528.819 524.42 530.757L523.472 529.758ZM513.469 485.939L514.091 484.713C516.622 486.005 518.976 487.521 521.073 489.224L520.205 490.294C518.18 488.65 515.91 487.184 513.463 485.941L513.469 485.939ZM529.698 520.46C530.654 517.967 531.187 515.357 531.296 512.7L532.669 512.757C532.554 515.557 531.989 518.319 530.978 520.953L529.692 520.462L529.698 520.46ZM522.7 492.519L523.662 491.538C524.929 492.781 526.112 494.138 527.177 495.561C527.782 496.363 528.342 497.206 528.852 498.055L527.671 498.765C527.184 497.953 526.643 497.155 526.075 496.386C525.052 495.016 523.913 493.719 522.693 492.521L522.7 492.519ZM529.202 501.716L530.46 501.163C531.597 503.747 532.313 506.489 532.574 509.257L531.208 509.39C530.957 506.769 530.277 504.167 529.204 501.723L529.202 501.716Z" fill="black"/>
<path d="M202.412 295.872C201.414 293.681 200.954 291.312 201.036 288.818L202.411 288.864C202.322 291.475 202.878 293.906 204.098 296.169L204.196 296.351L202.998 297.026L202.885 296.828C202.718 296.511 202.56 296.197 202.415 295.878L202.412 295.872ZM205.009 299.927L206.055 299.035C207.665 300.924 209.765 302.53 212.297 303.803L211.677 305.031C208.979 303.675 206.734 301.953 205.009 299.927ZM201.483 285.318C202.018 282.874 203.034 280.257 204.516 277.533L205.73 278.189C204.317 280.799 203.343 283.291 202.834 285.61L201.489 285.315L201.483 285.318ZM214.891 306.408L215.36 305.113C217.716 305.967 220.339 306.594 223.168 306.975L222.98 308.339C220.059 307.939 217.336 307.29 214.888 306.402L214.891 306.408ZM206.284 274.558C207.642 272.442 209.243 270.261 211.183 267.895L212.244 268.764C210.34 271.091 208.772 273.227 207.44 275.301L206.284 274.558ZM180.935 213.755L180.759 212.391C183.529 212.028 186.308 211.835 189.015 211.834L189.014 213.21C186.362 213.216 183.646 213.396 180.935 213.755ZM213.397 265.268C215.283 263.1 217.161 261.096 218.812 259.323L218.933 259.192L219.937 260.133L219.815 260.264C218.168 262.028 216.303 264.027 214.436 266.17L213.397 265.268ZM192.384 213.3L192.461 211.926C195.311 212.087 198.069 212.463 200.678 213.043L200.377 214.39C197.844 213.828 195.15 213.46 192.38 213.309L192.384 213.3ZM221.089 256.652C222.682 254.505 223.92 252.142 224.769 249.623L226.072 250.057C225.18 252.716 223.88 255.207 222.196 257.471L221.089 256.652ZM203.629 215.236L204.028 213.92C206.745 214.753 209.327 215.837 211.688 217.15L211.019 218.355C208.739 217.088 206.249 216.038 203.623 215.239L203.629 215.236ZM225.606 246.414C226.114 243.793 226.186 241.13 225.832 238.494L227.194 238.312C227.567 241.09 227.49 243.907 226.952 246.678L225.6 246.417L225.606 246.414ZM213.862 220.113L214.639 218.98C216.103 219.984 217.503 221.115 218.799 222.331C219.535 223.016 220.232 223.749 220.882 224.496L219.842 225.401C219.222 224.686 218.551 223.994 217.857 223.335C216.612 222.163 215.265 221.084 213.856 220.116L213.862 220.113ZM221.863 228.041L223.005 227.278C224.574 229.625 225.756 232.201 226.493 234.882L225.171 235.25C224.468 232.712 223.346 230.268 221.865 228.047L221.863 228.041Z" fill="black"/>
<path d="M437.045 256.371L437 255.082C437 255.082 440.228 254.96 444.589 254.135L444.827 255.398C440.356 256.242 437.174 256.365 437.045 256.365V256.371ZM448.016 254.715L447.714 253.464C450.31 252.832 452.758 252.04 454.98 251.124L455.47 252.317C453.189 253.258 450.677 254.064 448.016 254.715ZM458.446 250.95L457.86 249.803C460.263 248.578 462.37 247.166 464.128 245.593L464.985 246.554C463.143 248.198 460.946 249.674 458.446 250.944V250.95ZM467.298 244.195L466.319 243.357C467.878 241.539 469.295 239.425 470.539 237.065L471.679 237.671C470.39 240.114 468.915 242.312 467.298 244.195ZM473.096 234.712L471.911 234.203C472.355 233.165 472.761 232.115 473.122 231.045C472.201 230.935 471.279 230.793 470.378 230.619L470.616 229.356C471.576 229.536 472.549 229.685 473.521 229.794C473.805 228.859 474.05 227.918 474.262 226.971L475.518 227.248C475.319 228.144 475.087 229.034 474.829 229.917C475.892 230 476.955 230.046 478.018 230.046H478.179L478.186 231.335H478.018C476.82 231.335 475.628 231.283 474.436 231.18C474.043 232.373 473.599 233.552 473.096 234.712ZM481.452 231.199L481.349 229.917C483.829 229.717 486.354 229.278 488.848 228.621L489.176 229.865C486.612 230.542 484.009 230.987 481.458 231.199H481.452ZM467.189 229.878C464.67 229.182 462.209 228.241 459.864 227.08L460.437 225.927C462.711 227.055 465.095 227.97 467.53 228.64L467.189 229.884V229.878ZM492.294 228.924L491.875 227.706C494.323 226.868 496.643 225.804 498.762 224.541L499.419 225.649C497.223 226.958 494.826 228.06 492.294 228.924ZM456.99 225.508C454.716 224.141 452.597 222.568 450.69 220.834L451.56 219.88C453.409 221.563 455.457 223.084 457.66 224.405L456.997 225.508H456.99ZM476.092 224.025L474.816 223.851C475.029 222.304 475.132 220.77 475.132 219.281C475.132 218.275 475.08 217.263 474.984 216.29L476.266 216.161C476.369 217.179 476.42 218.23 476.42 219.281C476.42 220.828 476.311 222.426 476.092 224.025ZM502.157 223.844L501.397 222.8C503.439 221.311 505.308 219.59 506.963 217.676L507.936 218.52C506.222 220.512 504.277 222.304 502.157 223.844ZM448.364 218.514C446.728 216.722 445.394 214.891 444.389 213.054C444.202 212.719 444.035 212.351 443.88 211.971L445.072 211.487C445.207 211.823 445.356 212.138 445.523 212.435C446.47 214.175 447.746 215.929 449.311 217.643L448.364 218.514ZM509.965 215.929L508.915 215.181C510.365 213.144 511.615 210.914 512.626 208.561L513.811 209.07C512.768 211.507 511.473 213.814 509.965 215.929ZM474.507 213.17C473.966 210.649 473.064 208.29 471.833 206.156L472.948 205.512C474.243 207.755 475.19 210.243 475.763 212.893L474.501 213.163L474.507 213.17ZM443.03 208.709C442.914 207.91 442.856 207.085 442.856 206.247C442.856 204.371 443.152 202.476 443.713 200.768L444.937 201.174C444.415 202.746 444.144 204.506 444.144 206.247C444.144 207.02 444.196 207.787 444.306 208.522L443.03 208.709ZM514.977 206.002L513.753 205.596C514.655 202.85 514.894 200.987 514.9 200.967L516.176 201.128C516.169 201.206 515.924 203.127 514.977 206.002ZM470.094 203.565C468.593 201.638 466.75 199.91 464.618 198.44L465.346 197.377C467.588 198.924 469.527 200.742 471.112 202.772L470.094 203.565ZM446.225 198.402L445.13 197.719C446.709 195.198 448.97 193.599 451.682 193.097L451.92 194.367C449.575 194.805 447.61 196.204 446.225 198.408V198.402ZM461.932 196.771C459.406 195.359 457.055 194.528 454.935 194.283L455.084 193C457.377 193.264 459.889 194.154 462.563 195.643L461.938 196.771H461.932Z" fill="black"/>
<path d="M336.087 242.682C389.908 238.456 441.585 255.924 478.141 279.709C515.058 303.967 536.844 334.546 539.223 367.225C541.62 400.22 525.07 431.558 500.549 462.513C475.697 493 442.874 523.109 405.255 542.622C332.546 583.425 249.235 550.397 209.523 451.787C169.768 353.8 225.419 248.311 336.087 242.682Z" fill="#F2F7F8"/>
<path d="M437.711 413.177L428.653 429.266L428.547 429.054C418.748 410.077 399.075 398.251 377.723 398.509L329.091 399.098L266.382 416.413C239.465 423.852 217.78 443.813 208.178 470.049L176.559 556.334C170.54 572.771 182.698 590.191 200.209 590.191H265.731L271.115 539.382L280.823 562.035H363.297L380.399 517.789L393.797 541.787C400.405 553.627 413.017 560.87 426.581 560.598C443.23 560.265 457.565 548.758 461.512 532.578L485.011 440.35L437.741 413.192L437.711 413.177Z" fill="#96D8E8"/>
<path d="M477.224 440.668L489.412 422.794L574.093 421.736C576.634 421.705 578.63 419.573 578.509 417.033C578.297 412.92 575.137 409.563 571.039 409.109L526.762 404.119L499.967 378.941L522.407 364.772C526.778 362.005 527.579 355.956 524.056 352.161C521.772 349.696 518.219 348.864 515.073 350.059L479.537 363.502C467.122 368.205 457.051 377.565 451.456 389.602L439.057 416.307L477.224 440.668Z" fill="white"/>
<path d="M477.224 442.18C476.936 442.18 476.634 442.089 476.377 441.922C475.681 441.454 475.515 440.516 475.984 439.821L488.172 421.947C488.444 421.538 488.913 421.296 489.397 421.281L574.078 420.223C574.895 420.223 575.651 419.875 576.195 419.285C576.755 418.696 577.042 417.924 576.997 417.108C576.815 413.72 574.244 410.983 570.872 410.605L526.596 405.615C526.278 405.585 525.961 405.434 525.734 405.222L498.938 380.044C498.591 379.727 498.424 379.258 498.47 378.804C498.515 378.336 498.772 377.912 499.165 377.67L521.606 363.501C523.315 362.428 524.434 360.658 524.691 358.662C524.948 356.666 524.313 354.67 522.937 353.188C521.061 351.162 518.173 350.481 515.602 351.464L480.066 364.908C467.954 369.489 458.276 378.487 452.817 390.236L440.417 416.941C440.07 417.697 439.162 418.03 438.406 417.682C437.65 417.335 437.317 416.427 437.665 415.671L450.065 388.966C455.857 376.491 466.124 366.949 478.978 362.08L514.514 348.637C518.249 347.215 522.422 348.198 525.144 351.132C527.125 353.264 528.048 356.152 527.67 359.055C527.292 361.944 525.658 364.499 523.194 366.057L502.401 379.183L527.413 402.682L571.19 407.611C576.044 408.156 579.749 412.087 579.991 416.972C580.081 418.62 579.507 420.177 578.373 421.372C577.254 422.567 575.726 423.247 574.078 423.262L490.183 424.306L478.448 441.529C478.161 441.953 477.677 442.195 477.193 442.195L477.224 442.18Z" fill="#18292D"/>
<path d="M543.003 413.871L570.267 396.587C572.793 394.984 572.43 391.204 569.662 390.1C566.124 388.694 562.162 388.815 558.745 390.478L529.711 403.422L543.003 413.871Z" fill="white"/>
<path d="M543.018 415.384C542.519 415.384 542.02 415.142 541.733 414.689C541.279 413.978 541.491 413.055 542.202 412.602L569.466 395.318C570.162 394.879 570.525 394.123 570.449 393.307C570.373 392.49 569.874 391.825 569.103 391.507C565.973 390.252 562.434 390.373 559.395 391.84L530.316 404.799C529.545 405.132 528.653 404.799 528.32 404.028C527.987 403.272 528.32 402.364 529.091 402.032L558.125 389.088C561.89 387.273 566.306 387.137 570.222 388.694C572.037 389.42 573.277 391.084 573.443 393.019C573.624 394.955 572.717 396.815 571.069 397.858L543.804 415.142C543.547 415.293 543.275 415.384 543.003 415.384H543.018Z" fill="#18292D"/>
<path d="M486.161 401.684H513.773L538.406 383.719C541.763 381.27 546.179 380.771 550.004 382.404C552.484 383.462 553.074 386.698 551.154 388.573L524.343 414.673L486.176 401.684H486.161Z" fill="white"/>
<path d="M524.328 416.201C523.935 416.201 523.541 416.05 523.239 415.747C522.649 415.142 522.664 414.19 523.269 413.615L550.08 387.515C550.624 386.986 550.866 386.23 550.73 385.474C550.594 384.718 550.11 384.113 549.4 383.81C546.088 382.389 542.202 382.827 539.298 384.959L514.665 402.924C514.408 403.106 514.09 403.211 513.773 403.211H486.161C485.329 403.211 484.648 402.531 484.648 401.699C484.648 400.868 485.329 400.187 486.161 400.187H513.274L537.499 382.51C541.279 379.758 546.285 379.183 550.579 381.028C552.212 381.723 553.377 383.175 553.694 384.929C554.012 386.668 553.452 388.453 552.182 389.677L525.371 415.778C525.084 416.065 524.691 416.201 524.313 416.201H524.328Z" fill="#18292D"/>
<path d="M350.393 350.644C371.362 339.206 379.089 312.936 367.651 291.967C356.214 270.998 329.944 263.271 308.975 274.709C288.006 286.146 280.279 312.417 291.716 333.385C303.154 354.354 329.424 362.081 350.393 350.644Z" fill="#18292D"/>
<path d="M380.665 309.219C387.15 296.486 382.085 280.906 369.352 274.421C356.619 267.936 341.04 273.001 334.555 285.734C328.07 298.467 333.135 314.047 345.868 320.532C358.601 327.017 374.18 321.952 380.665 309.219Z" fill="#18292D"/>
<path d="M327.395 336.484C329.452 315.942 314.468 297.621 293.926 295.564C273.384 293.506 255.063 308.491 253.005 329.033C250.948 349.575 265.932 367.896 286.474 369.953C307.016 372.011 325.337 357.026 327.395 336.484Z" fill="#18292D"/>
<path d="M297.063 366.632C296.337 366.632 295.702 366.102 295.581 365.376C295.445 364.56 295.99 363.774 296.821 363.637C299.634 363.169 302.265 361.944 304.443 360.114C305.456 359.252 306.378 358.254 307.149 357.165C307.633 356.485 308.571 356.319 309.251 356.802C309.932 357.286 310.098 358.224 309.614 358.904C308.692 360.205 307.603 361.384 306.393 362.397C303.808 364.575 300.677 366.027 297.32 366.601C297.23 366.601 297.154 366.616 297.063 366.616V366.632Z" fill="#18292D"/>
<path d="M367.954 383.174C388.988 375.099 397.653 346.701 387.31 319.739C376.966 292.777 351.532 277.474 330.482 285.534C312.926 292.278 303.989 313.176 307.528 335.586C303.687 330.763 297.411 328.131 290.894 329.266C281.836 330.853 275.424 339.533 276.604 348.652C277.874 358.526 287.083 365.27 296.806 363.637C298.893 363.289 300.814 362.564 302.537 361.565L303.233 408.76C297.683 409.955 292.24 411.271 286.977 412.722C294.387 434.271 318.355 447.699 343.82 443.404C366.457 439.578 383.348 422.914 386.78 403.256C377.98 402.364 368.619 402.001 358.836 402.182L358.609 385.216C361.769 384.989 364.899 384.324 367.939 383.159L367.954 383.174Z" fill="white"/>
<path d="M334.55 445.703C312.427 445.703 292.315 432.819 285.571 413.222C285.435 412.828 285.465 412.39 285.662 412.027C285.858 411.664 286.191 411.392 286.599 411.271C291.347 409.955 296.443 408.7 301.736 407.551L301.086 363.97C299.785 364.499 298.455 364.893 297.078 365.119C291.952 365.996 286.826 364.756 282.637 361.656C278.464 358.557 275.787 354.005 275.122 348.833C273.852 338.929 280.808 329.493 290.652 327.769C295.975 326.846 301.343 328.238 305.516 331.458C303.566 309.623 313.244 290.524 329.953 284.112C340.569 280.045 352.56 281.481 363.69 288.195C374.713 294.834 383.605 305.827 388.716 319.18C393.842 332.532 394.598 346.656 390.833 358.965C387.038 371.395 379.099 380.498 368.483 384.566C365.822 385.579 363.024 386.26 360.151 386.592L360.333 400.64C369.572 400.519 378.509 400.897 386.932 401.744C387.355 401.79 387.733 402.001 387.99 402.334C388.247 402.667 388.353 403.09 388.278 403.513C384.633 424.412 366.865 441.045 344.077 444.886C340.886 445.431 337.68 445.688 334.535 445.688L334.55 445.703ZM288.988 413.751C296.821 433.848 319.958 445.9 343.593 441.907C364.536 438.369 380.974 423.474 385.011 404.602C376.725 403.831 367.954 403.529 358.896 403.695C358.503 403.695 358.11 403.544 357.822 403.271C357.535 402.984 357.369 402.606 357.369 402.198L357.142 385.231C357.142 384.43 357.747 383.764 358.548 383.704C361.633 383.477 364.627 382.827 367.44 381.753C377.163 378.018 384.467 369.611 387.99 358.088C391.544 346.429 390.818 333.001 385.934 320.268C381.049 307.536 372.611 297.072 362.162 290.781C351.834 284.566 340.795 283.205 331.057 286.94C314.589 293.261 305.547 313.161 309.055 335.345C309.161 336.025 308.798 336.691 308.178 336.963C307.543 337.25 306.817 337.053 306.393 336.524C302.749 331.957 296.942 329.75 291.196 330.748C282.925 332.184 277.072 340.138 278.146 348.44C278.706 352.78 280.944 356.606 284.452 359.207C287.96 361.808 292.27 362.851 296.579 362.11C298.394 361.808 300.163 361.173 301.812 360.22C302.28 359.948 302.84 359.963 303.309 360.22C303.777 360.492 304.065 360.976 304.065 361.505L304.76 408.7C304.76 409.426 304.276 410.046 303.566 410.197C298.485 411.286 293.585 412.465 288.973 413.705L288.988 413.751Z" fill="#18292D"/>
<path d="M302.069 352.024C301.282 352.024 300.617 351.419 300.557 350.633C300.224 346.323 298.818 343.117 296.383 341.106C292.905 338.233 288.474 338.702 288.429 338.717C287.612 338.808 286.856 338.218 286.75 337.386C286.66 336.554 287.249 335.813 288.081 335.708C288.308 335.677 293.843 335.088 298.303 338.762C301.403 341.318 303.173 345.234 303.566 350.391C303.626 351.222 303.006 351.948 302.175 352.009C302.129 352.009 302.099 352.009 302.054 352.009L302.069 352.024Z" fill="#18292D"/>
<path d="M306.046 335.013C306.454 335.058 306.862 335.118 307.27 335.149C330.301 337.039 350.987 314.795 353.498 285.459C353.528 285.126 353.543 284.793 353.558 284.476C345.649 281.935 337.423 281.845 329.756 284.763C311.943 291.568 302.764 312.466 306.046 334.998V335.013Z" fill="#18292D"/>
<path d="M356.159 388.543C343.925 388.543 331.435 382.298 321.697 371.244C321.137 370.624 321.198 369.656 321.833 369.111C322.468 368.552 323.42 368.612 323.965 369.248C333.491 380.044 345.695 385.972 357.49 385.488C358.306 385.443 359.032 386.108 359.062 386.94C359.093 387.772 358.442 388.482 357.611 388.513C357.127 388.528 356.643 388.543 356.159 388.543Z" fill="#18292D"/>
<path d="M375.469 313.751C374.955 315.112 377.617 317.365 381.397 318.771C385.177 320.178 388.655 320.208 389.154 318.847C389.669 317.486 387.007 315.233 383.227 313.826C379.446 312.42 375.968 312.39 375.469 313.751Z" fill="#18292D"/>
<path d="M341.324 325.395C341.99 327.074 346.299 326.937 350.942 325.093C355.584 323.248 358.82 320.39 358.155 318.711C357.49 317.033 353.18 317.169 348.537 319.014C343.895 320.859 340.659 323.717 341.324 325.395Z" fill="#18292D"/>
<path d="M372.521 340.29C372.188 340.29 371.855 340.184 371.583 339.972C370.933 339.458 370.812 338.505 371.326 337.855C372.294 336.615 372.536 335.012 371.976 333.545L367.697 322.522C367.394 321.735 367.773 320.873 368.559 320.571C369.345 320.268 370.207 320.646 370.51 321.433L374.789 332.456C375.742 334.891 375.318 337.689 373.7 339.73C373.398 340.108 372.959 340.305 372.506 340.305L372.521 340.29Z" fill="#18292D"/>
<path d="M351.259 335.163C351.048 335.163 350.851 335.118 350.639 335.027C349.883 334.695 349.536 333.803 349.868 333.031C352.484 327.119 356.945 327.013 358.941 327.799C359.712 328.102 360.106 328.979 359.803 329.75C359.501 330.521 358.639 330.914 357.868 330.612C357.535 330.491 354.677 329.659 352.635 334.256C352.378 334.816 351.834 335.148 351.259 335.148V335.163Z" fill="#18292D"/>
<path d="M385.525 327.194C385.026 327.194 384.557 326.952 384.255 326.513C384.058 326.211 382.244 323.867 377.889 326.362C377.163 326.77 376.241 326.529 375.817 325.803C375.409 325.077 375.651 324.154 376.377 323.731C381.987 320.51 385.646 323.051 386.796 324.85C387.249 325.561 387.037 326.483 386.342 326.937C386.085 327.103 385.813 327.179 385.525 327.179V327.194Z" fill="#18292D"/>
<path d="M367.576 350.164C365.489 350.164 363.916 349.211 363.13 348.349C362.571 347.729 362.601 346.777 363.221 346.217C363.826 345.658 364.778 345.688 365.338 346.293C365.58 346.55 367.788 348.561 371.644 345.34C372.279 344.811 373.231 344.886 373.776 345.537C374.305 346.172 374.229 347.124 373.579 347.669C371.341 349.544 369.285 350.179 367.576 350.179V350.164Z" fill="#18292D"/>
<path d="M404.518 488.981C404.337 488.981 404.17 488.951 403.989 488.875C403.293 488.588 402.946 487.786 403.248 487.075L427.382 428.751C427.67 428.055 428.471 427.708 429.182 428.01C429.877 428.297 430.21 429.099 429.923 429.81L405.789 488.134C405.562 488.663 405.063 488.981 404.518 488.981Z" fill="#18292D"/>
<path d="M270.086 541.076H228.849C228.018 541.076 227.337 540.395 227.337 539.563C227.337 538.732 228.018 538.051 228.849 538.051H270.086C270.918 538.051 271.599 538.732 271.599 539.563C271.599 540.395 270.918 541.076 270.086 541.076Z" fill="#18292D"/>
<path d="M323.572 522.975L348.311 472.62C349.309 470.593 351.275 469.232 353.513 469.006L411.096 463.259C416.192 462.745 419.852 468.038 417.599 472.635L371.961 565.301C370.963 567.342 368.967 568.718 366.699 568.915L309.312 574.101C304.231 574.555 300.617 569.278 302.885 564.711L323.587 522.99L323.572 522.975Z" fill="#18292D"/>
<path d="M263.962 590.236L338.845 589.737L358.896 585.019C360.741 584.58 361.391 582.312 360.076 580.966C357.671 578.517 354.45 577.02 351.033 576.763L340.372 575.976L356.945 560.159C359.456 557.755 360.59 554.246 359.924 550.829L359.32 547.699L363.13 542.769C364.869 540.516 365.777 537.749 365.731 534.921L365.671 531.927L370.283 526.271C372.007 524.169 371.795 521.084 369.814 519.224C367.954 517.485 365.096 517.41 363.13 519.028L341.173 537.31L315.225 540.213L330.316 523.02C333.643 519.224 334.732 513.962 333.174 509.168C332.237 506.295 328.683 505.297 326.384 507.248L287.915 540.092L263.977 539.397V590.221L263.962 590.236Z" fill="white"/>
<path d="M263.962 591.748C263.13 591.748 262.45 591.083 262.45 590.251C262.45 589.42 263.115 588.739 263.947 588.724L338.663 588.225L358.548 583.552C359.017 583.446 359.168 583.068 359.214 582.917C359.259 582.766 359.32 582.373 358.987 582.025C356.84 579.832 353.966 578.502 350.912 578.275L340.251 577.488C339.661 577.443 339.147 577.05 338.936 576.49C338.739 575.931 338.89 575.296 339.314 574.888L355.887 559.07C358.034 557.014 358.987 554.035 358.427 551.116L357.823 547.986C357.732 547.563 357.838 547.124 358.11 546.776L361.92 541.847C363.433 539.881 364.249 537.431 364.204 534.951L364.143 531.957C364.143 531.594 364.264 531.246 364.491 530.974L369.103 525.319C370.313 523.837 370.162 521.644 368.771 520.344C367.47 519.119 365.459 519.073 364.098 520.207L342.141 538.49C341.914 538.671 341.642 538.792 341.34 538.837L315.391 541.741C314.771 541.816 314.166 541.484 313.879 540.939C313.592 540.38 313.667 539.714 314.091 539.246L329.182 522.052C332.146 518.68 333.114 513.932 331.738 509.668C331.45 508.791 330.77 508.14 329.878 507.883C328.985 507.626 328.063 507.838 327.367 508.428L288.883 540.743C288.61 540.97 288.263 541.091 287.915 541.091H263.977C263.145 541.091 262.465 540.41 262.465 539.578C262.465 538.747 263.145 538.066 263.977 538.066H287.37L325.417 506.114C326.868 504.874 328.849 504.435 330.709 504.965C332.569 505.494 334.021 506.885 334.611 508.73C336.319 514.008 335.11 519.875 331.45 524.048L318.945 538.308L340.569 535.889L362.178 517.894C364.718 515.777 368.453 515.883 370.857 518.136C373.413 520.525 373.685 524.532 371.462 527.239L367.198 532.456L367.243 534.891C367.304 538.066 366.276 541.181 364.34 543.707L360.938 548.107L361.421 550.557C362.193 554.488 360.907 558.496 358.004 561.278L343.895 574.736L351.169 575.281C354.965 575.568 358.518 577.216 361.18 579.938C362.193 580.966 362.54 582.403 362.147 583.794C361.739 585.17 360.665 586.199 359.274 586.531L339.223 591.249C339.117 591.279 338.996 591.295 338.89 591.295L264.007 591.794L263.962 591.748Z" fill="#18292D"/>
<path d="M335.079 558.148C334.641 558.148 334.217 557.966 333.915 557.604C333.386 556.968 333.461 556.001 334.112 555.471L363.765 530.762C364.4 530.233 365.368 530.309 365.897 530.959C366.427 531.594 366.351 532.562 365.701 533.091L336.047 557.8C335.76 558.042 335.427 558.148 335.079 558.148Z" fill="#18292D"/>
<path d="M337.665 566.873C337.227 566.873 336.788 566.677 336.486 566.314C335.957 565.664 336.047 564.711 336.698 564.182L358.352 546.519C359.002 545.99 359.955 546.081 360.484 546.731C361.013 547.381 360.922 548.334 360.272 548.863L338.618 566.526C338.331 566.752 337.998 566.873 337.665 566.873Z" fill="#18292D"/>
<path d="M250.307 541.756C250.095 541.756 249.869 541.71 249.672 541.62C248.916 541.272 248.583 540.365 248.946 539.608L267.047 500.715C267.395 499.959 268.302 499.627 269.058 499.99C269.814 500.337 270.147 501.245 269.784 502.001L251.683 540.894C251.426 541.438 250.882 541.771 250.307 541.771V541.756Z" fill="#18292D"/>
<path d="M570.808 653.225C601.93 653.225 627.158 627.981 627.158 596.842C627.158 565.702 601.93 540.458 570.808 540.458C539.687 540.458 514.458 565.702 514.458 596.842C514.458 627.981 539.687 653.225 570.808 653.225Z" fill="white"/>
<path d="M570.808 540.917C601.631 540.917 626.7 566 626.7 596.842C626.7 627.683 601.631 652.766 570.808 652.766C539.985 652.766 514.916 627.683 514.916 596.842C514.916 566 539.985 540.917 570.808 540.917ZM570.808 540C539.435 540 514 565.45 514 596.842C514 628.233 539.435 653.683 570.808 653.683C602.181 653.683 627.616 628.233 627.616 596.842C627.616 565.45 602.181 540 570.808 540Z" fill="black"/>
<path d="M576.2 589.52C578.843 589.52 580.986 587.302 580.986 584.566C580.986 581.83 578.843 579.611 576.2 579.611C573.556 579.611 571.413 581.83 571.413 584.566C571.413 587.302 573.556 589.52 576.2 589.52Z" fill="#FFC31F"/>
<path d="M567.027 601.863C567.027 601.863 567.473 592.244 573.158 592.064C575.481 591.995 577.498 592.018 579.184 592.052C585.107 592.168 585.049 601.921 585.049 601.921C585.049 602.79 581.015 603.497 576.038 603.497C571.06 603.497 567.027 602.79 567.027 601.921C567.027 601.898 567.027 601.88 567.038 601.863H567.027Z" fill="#FFC31F"/>
<path d="M541.897 627.499L544.2 629.801C544.696 630.297 545.499 630.297 545.995 629.801L561.008 614.788C561.504 614.292 561.504 613.489 561.008 612.993L558.706 610.69C558.21 610.195 557.406 610.195 556.911 610.69L541.897 625.704C541.402 626.199 541.402 627.003 541.897 627.499Z" fill="#18292D" stroke="#18292D" stroke-width="0.878223" stroke-linecap="round" stroke-linejoin="round"/>
<path d="M541.897 627.499L544.2 629.801C544.696 630.297 545.499 630.297 545.995 629.801L547.554 628.195L543.602 624.243L541.897 625.704C541.402 626.199 541.402 627.003 541.897 627.499Z" fill="white" stroke="#18292D" stroke-width="0.878223" stroke-linecap="round" stroke-linejoin="round"/>
<path d="M547.655 628.142L543.558 624.045" stroke="#18292D" stroke-width="0.878223" stroke-linecap="round" stroke-linejoin="round"/>
<path d="M559.853 611.842L562.849 608.846" stroke="#18292D" stroke-width="0.878223" stroke-linecap="round" stroke-linejoin="round"/>
<path d="M590.53 578.111C598.532 586.113 598.532 599.088 590.53 607.09C582.527 615.093 569.552 615.093 561.55 607.09C553.548 599.088 553.548 586.113 561.55 578.111C569.552 570.108 582.527 570.108 590.53 578.111Z" stroke="#18292D" stroke-width="0.878223" stroke-linecap="round" stroke-linejoin="round"/>
<path d="M555.86 592.597C555.86 603.723 564.912 612.775 576.038 612.775C587.164 612.775 596.215 603.723 596.215 592.597C596.215 581.471 587.164 572.408 576.038 572.408C564.912 572.408 555.86 581.471 555.86 592.597ZM557.616 592.342C557.616 582.323 566.019 574.234 576.038 574.234C586.057 574.234 594.471 582.572 594.471 592.591C594.471 602.611 586.057 610.978 576.038 610.978C566.019 610.978 557.616 602.361 557.616 592.342Z" fill="#18292D"/>
<path d="M128.808 272.225C159.93 272.225 185.158 246.981 185.158 215.842C185.158 184.702 159.93 159.458 128.808 159.458C97.6871 159.458 72.4583 184.702 72.4583 215.842C72.4583 246.981 97.6871 272.225 128.808 272.225Z" fill="white"/>
<path d="M128.808 159.917C159.631 159.917 184.7 185 184.7 215.842C184.7 246.683 159.631 271.766 128.808 271.766C97.9852 271.766 72.9163 246.683 72.9163 215.842C72.9163 185 97.9852 159.917 128.808 159.917ZM128.808 159C97.4354 159 72 184.45 72 215.842C72 247.233 97.4354 272.683 128.808 272.683C160.181 272.683 185.616 247.233 185.616 215.842C185.616 184.45 160.181 159 128.808 159Z" fill="black"/>
<path d="M137.104 189.674H105.218C102.412 189.674 100.138 191.949 100.138 194.754V240.267C100.138 243.072 102.412 245.346 105.218 245.346H137.104C139.91 245.346 142.184 243.072 142.184 240.267V194.754C142.184 191.949 139.91 189.674 137.104 189.674Z" fill="white" stroke="#18292D" stroke-width="1.5" stroke-linecap="round" stroke-linejoin="round"/>
<path d="M137.104 189.674H105.218C102.412 189.674 100.138 191.949 100.138 194.754V199H142.184V194.754C142.184 191.949 139.91 189.674 137.104 189.674Z" fill="#18292D" stroke="#18292D" stroke-width="1.5" stroke-linecap="round" stroke-linejoin="round"/>
<path d="M135.823 194.541C136.577 194.541 137.18 193.932 137.18 193.185V188.356C137.18 187.603 136.571 187 135.823 187C135.07 187 134.467 187.609 134.467 188.356V193.179C134.467 193.932 135.076 194.535 135.823 194.535V194.541Z" fill="white" stroke="#18292D" stroke-width="1.5" stroke-linecap="round" stroke-linejoin="round"/>
<path d="M126.053 194.541C126.806 194.541 127.409 193.932 127.409 193.185V188.356C127.409 187.603 126.8 187 126.053 187C125.299 187 124.696 187.609 124.696 188.356V193.179C124.696 193.932 125.306 194.535 126.053 194.535V194.541Z" fill="white" stroke="#18292D" stroke-width="1.5" stroke-linecap="round" stroke-linejoin="round"/>
<path d="M116.276 194.541C117.029 194.541 117.632 193.932 117.632 193.185V188.356C117.632 187.603 117.023 187 116.276 187C115.522 187 114.92 187.609 114.92 188.356V193.179C114.92 193.932 115.529 194.535 116.276 194.535V194.541Z" fill="white" stroke="#18292D" stroke-width="1.5" stroke-linecap="round" stroke-linejoin="round"/>
<path d="M106.505 194.541C107.259 194.541 107.862 193.932 107.862 193.185V188.356C107.862 187.603 107.253 187 106.505 187C105.752 187 105.149 187.609 105.149 188.356V193.179C105.149 193.932 105.758 194.535 106.505 194.535V194.541Z" fill="white" stroke="#18292D" stroke-width="1.5" stroke-linecap="round" stroke-linejoin="round"/>
<path d="M142.052 199.169H100" stroke="#18292D" stroke-width="1.5" stroke-linecap="round" stroke-linejoin="round"/>
<path d="M129.45 213.549H135.861V207.138H129.45V213.549Z" fill="white" stroke="#18292D" stroke-width="1.5" stroke-linecap="round" stroke-linejoin="round"/>
<path d="M129.45 225.548H135.861V219.137H129.45V225.548Z" fill="white" stroke="#18292D" stroke-width="1.5" stroke-linecap="round" stroke-linejoin="round"/>
<path d="M129.45 237.548H135.861V231.137H129.45V237.548Z" stroke="#18292D" stroke-width="1.5" stroke-linecap="round" stroke-linejoin="round"/>
<path d="M118.593 208.758H105.149" stroke="#18292D" stroke-width="1.5" stroke-linecap="round" stroke-linejoin="round"/>
<path d="M125.676 208.758H121.356" stroke="#18292D" stroke-width="1.5" stroke-linecap="round" stroke-linejoin="round"/>
<path d="M125.676 211.935H105.149" stroke="#18292D" stroke-width="1.5" stroke-linecap="round" stroke-linejoin="round"/>
<path d="M125.676 220.757H105.149" stroke="#18292D" stroke-width="1.5" stroke-linecap="round" stroke-linejoin="round"/>
<path d="M109.965 223.934H105.149" stroke="#18292D" stroke-width="1.5" stroke-linecap="round" stroke-linejoin="round"/>
<path d="M125.676 223.934H112.596" stroke="#18292D" stroke-width="1.5" stroke-linecap="round" stroke-linejoin="round"/>
<path d="M125.676 232.757H105.149" stroke="#18292D" stroke-width="1.5" stroke-linecap="round" stroke-linejoin="round"/>
<path d="M112.596 235.935H105.149" stroke="#18292D" stroke-width="1.5" stroke-linecap="round" stroke-linejoin="round"/>
<path d="M125.676 235.935H118.593" stroke="#18292D" stroke-width="1.5" stroke-linecap="round" stroke-linejoin="round"/>
<path d="M135.861 231.137L132.935 235.363L131.497 234.145" stroke="#FFC31F" stroke-width="1.5" stroke-linecap="round" stroke-linejoin="round"/>
<path d="M157.6 191.973C156.495 191.383 155.094 191.803 154.492 192.921L139.421 220.745C139.352 220.87 139.296 221.002 139.258 221.134L137.468 228.958C137.425 229.109 137.506 229.153 137.607 229.033L143.195 223.269C143.283 223.162 143.365 223.043 143.434 222.917L158.517 195.075C159.119 193.963 158.705 192.563 157.6 191.973Z" fill="white" stroke="#18292D" stroke-width="1.5" stroke-linecap="round" stroke-linejoin="round"/>
<path d="M153 196L154 194L157.5 196L156.5 198L153 196Z" fill="#FFC31F"/>
<path d="M152.771 196.148L156.702 198.277" stroke="#18292D" stroke-width="1.5" stroke-linecap="round" stroke-linejoin="round"/>
<path d="M138.429 224.757L140.615 225.925" stroke="#18292D" stroke-width="1.5" stroke-linecap="round" stroke-linejoin="round"/>
<path d="M154.165 193.668L158.109 195.778" stroke="#18292D" stroke-width="1.5" stroke-linecap="round" stroke-linejoin="round"/>
<path d="M141.418 222.001L154.699 197.204" stroke="#18292D" stroke-width="1.5" stroke-linecap="round" stroke-linejoin="round"/>
<path d="M139.34 220.889L143.358 223.043" stroke="#18292D" stroke-width="1.5" stroke-linecap="round" stroke-linejoin="round"/>
<path d="M549.308 210.225C580.43 210.225 605.658 184.981 605.658 153.842C605.658 122.702 580.43 97.4585 549.308 97.4585C518.187 97.4585 492.958 122.702 492.958 153.842C492.958 184.981 518.187 210.225 549.308 210.225Z" fill="white"/>
<path d="M568.676 127.825H529.136C526.852 127.825 525 129.677 525 131.961V184.363C525 186.648 526.852 188.499 529.136 188.499H568.676C570.96 188.499 572.812 186.648 572.812 184.363V131.961C572.812 129.677 570.96 127.825 568.676 127.825Z" fill="#18292D" stroke="#18292D" stroke-width="1.5" stroke-linecap="round" stroke-linejoin="round"/>
<path d="M569.11 146.542V184.253H529.207V132.078H569.11V146.542Z" fill="white" stroke="white" stroke-width="1.5" stroke-linecap="round" stroke-linejoin="round"/>
<path d="M552.961 171.844L551.25 179.527" stroke="#FFC31F" stroke-width="1.5" stroke-linecap="round" stroke-linejoin="round"/>
<path d="M552.961 171.844L555.664 178.535" stroke="#FFC31F" stroke-width="1.5" stroke-linecap="round" stroke-linejoin="round"/>
<path d="M550.537 177.257L554.511 176.11" stroke="#FFC31F" stroke-width="1.5" stroke-linecap="round" stroke-linejoin="round"/>
<path d="M559.081 171.844L560.792 176.836" stroke="#FFC31F" stroke-width="1.5" stroke-linecap="round" stroke-linejoin="round"/>
<path d="M557.661 175.19L562.361 173.433" stroke="#FFC31F" stroke-width="1.5" stroke-linecap="round" stroke-linejoin="round"/>
<path d="M540.384 142.905H563.891" stroke="#18292D" stroke-width="1.5" stroke-linecap="round" stroke-linejoin="round"/>
<path d="M533.441 143.164L535.133 144.331L537.065 141.478" stroke="#18292D" stroke-width="1.5" stroke-linecap="round" stroke-linejoin="round"/>
<path d="M540.384 150.153H563.891" stroke="#18292D" stroke-width="1.5" stroke-linecap="round" stroke-linejoin="round"/>
<path d="M533.441 150.419L535.133 151.579L537.065 148.727" stroke="#18292D" stroke-width="1.5" stroke-linecap="round" stroke-linejoin="round"/>
<path d="M540.384 157.562H563.891" stroke="#18292D" stroke-width="1.5" stroke-linecap="round" stroke-linejoin="round"/>
<path d="M533.441 157.666L535.133 158.833L537.065 155.98" stroke="#18292D" stroke-width="1.5" stroke-linecap="round" stroke-linejoin="round"/>
<path d="M540.948 164.661H564.448" stroke="#18292D" stroke-width="1.5" stroke-linecap="round" stroke-linejoin="round"/>
<path d="M533.441 164.92L535.133 166.087L537.065 163.235" stroke="#18292D" stroke-width="1.5" stroke-linecap="round" stroke-linejoin="round"/>
<path d="M559.767 127.488C559.767 126.729 559.151 126.113 558.393 126.113H555.21C554.218 126.113 553.446 125.297 553.453 124.305C553.453 124.305 553.453 124.298 553.453 124.292C553.304 121.096 551.158 120 549.09 120C547.333 120 544.863 121.096 544.863 124.104C544.863 124.188 544.863 124.279 544.863 124.363C544.876 125.335 544.078 126.12 543.106 126.12H539.923C539.164 126.12 538.549 126.736 538.549 127.494L537.634 134.12H560.681L559.767 127.494V127.488Z" fill="white" stroke="#18292D" stroke-width="1.5" stroke-linecap="round" stroke-linejoin="round"/>
<path d="M550.977 124.143C550.977 125.148 550.16 125.965 549.155 125.965C548.15 125.965 547.334 125.148 547.334 124.143C547.334 123.138 548.15 122.321 549.155 122.321C550.16 122.321 550.977 123.138 550.977 124.143Z" fill="white" stroke="#18292D" stroke-width="1.5" stroke-linecap="round" stroke-linejoin="round"/>
<path d="M549.308 97.9168C580.131 97.9168 605.2 123 605.2 153.842C605.2 184.683 580.131 209.766 549.308 209.766C518.485 209.766 493.416 184.683 493.416 153.842C493.416 123 518.485 97.9168 549.308 97.9168ZM549.308 97C517.935 97 492.5 122.45 492.5 153.842C492.5 185.233 517.935 210.683 549.308 210.683C580.681 210.683 606.116 185.233 606.116 153.842C606.116 122.45 580.681 97 549.308 97Z" fill="black"/>
</svg>
