<svg width="470" height="250" viewBox="0 0 470 250" fill="none" xmlns="http://www.w3.org/2000/svg">
<g clip-path="url(#clip0_558_8492)">
<mask id="mask0_558_8492" style="mask-type:alpha" maskUnits="userSpaceOnUse" x="0" y="0" width="470" height="250">
<path d="M0 20C0 8.9543 8.9543 0 20 0H450C461.046 0 470 8.9543 470 20V250H0V20Z" fill="#F9F9FB"/>
</mask>
<g mask="url(#mask0_558_8492)">
<path d="M188.328 88.6644V133.196C188.328 138.606 192.71 142.989 198.121 142.989H272.791C278.202 142.989 282.584 138.606 282.584 133.196V128.299H299.722L282.584 111.162V88.6644C282.584 83.2537 278.202 78.8716 272.791 78.8716H198.121C192.71 78.8716 188.328 83.2537 188.328 88.6644Z" fill="#4A7C88"/>
<path d="M353.857 249.529H286.959L293.579 190.142C294.362 183.102 299.504 177.322 306.4 175.706C309.254 175.04 312.231 175.134 315.034 175.982L336.141 182.356C336.141 182.356 352.419 191.131 358.78 202.881C367.887 219.704 353.589 249.783 353.85 249.522L353.857 249.529Z" fill="#4A7C88"/>
<path d="M343.653 186.933L347.767 141.938L325.001 139.86L321.488 178.27L318.96 177.821C312.195 182.204 308.581 189.135 310.558 195.292C313.093 203.158 323.792 206.758 334.461 203.318C341.175 201.152 346.267 196.726 348.491 191.772L343.645 186.933H343.653Z" fill="white" stroke="#18292D" stroke-width="2.01883" stroke-linecap="round" stroke-linejoin="round"/>
<path d="M330.986 115.145L330.109 118.644C329.602 118.658 329.095 118.695 328.603 118.76C327.502 122.302 326.9 126.126 326.9 130.11C326.9 142.467 335.36 158.33 345.943 158.677C346.645 158.677 354.736 149.5 354.541 141.025L354.461 137.549C354.171 124.931 343.611 114.848 330.993 115.138L330.986 115.145Z" fill="#18292D"/>
<path d="M337.679 141.236C336.983 134.674 332.348 128.915 326.147 127.546C322.279 126.691 318.578 127.713 315.789 130.031C317.556 129.661 322.583 128.908 324.517 131.784C326.886 135.297 329.341 142.649 337.671 141.229L337.679 141.236Z" fill="#18292D"/>
<path d="M319.097 139.499C323.621 137.187 325.416 131.646 323.104 127.122C320.793 122.597 315.252 120.803 310.727 123.114C306.203 125.426 304.409 130.967 306.72 135.491C309.031 140.016 314.573 141.81 319.097 139.499Z" fill="#18292D"/>
<path d="M334.715 117.913C344.696 118.948 352.628 127.083 353.229 137.281C351.02 138.824 348.311 139.766 345.37 139.831C337.721 140.005 331.383 134.254 331.216 126.974C331.137 123.505 332.469 120.325 334.715 117.92V117.913Z" fill="#18292D"/>
<path d="M331.587 133.522C336.643 133.032 340.345 128.535 339.855 123.478C339.364 118.421 334.867 114.719 329.81 115.21C324.754 115.7 321.052 120.197 321.542 125.254C322.033 130.311 326.53 134.013 331.587 133.522Z" fill="#18292D"/>
<path d="M320.249 134.522C325.474 134.522 329.709 130.286 329.709 125.062C329.709 119.837 325.474 115.602 320.249 115.602C315.024 115.602 310.789 119.837 310.789 125.062C310.789 130.286 315.024 134.522 320.249 134.522Z" fill="#18292D"/>
<path d="M348.985 120.643C348.985 120.643 345.602 121.396 344.863 124.315" stroke="#18292D" stroke-width="2.01883" stroke-linecap="round" stroke-linejoin="round"/>
<path d="M346.55 118.985C346.55 118.985 346.977 122.425 344.479 124.106" stroke="#18292D" stroke-width="2.01883" stroke-linecap="round" stroke-linejoin="round"/>
<path d="M342.61 146.053C342.031 143.307 339.59 141.439 336.888 141.482C336.359 135.137 331.615 129.705 325.053 128.582C317.273 127.249 309.878 132.479 308.545 140.258L308.277 141.815C306.698 141.721 305.271 142.815 305.011 144.408C304.75 145.987 305.735 147.465 307.234 147.9L306.705 150.985C308.241 151.434 309.972 151.695 311.812 151.695C312.659 151.695 313.478 151.637 314.275 151.536C312.587 153.252 309.617 154.476 306.133 154.788C305.641 162.017 310.689 168.586 317.983 169.832C325.762 171.165 333.158 165.935 334.491 158.156L335.287 153.484L338.156 152.883C341.27 152.231 343.262 149.174 342.61 146.06V146.053Z" fill="white" stroke="#18292D" stroke-width="2.01883" stroke-linecap="round" stroke-linejoin="round"/>
<path d="M338.807 153.427C341.921 152.775 343.913 149.718 343.261 146.603" stroke="#18292D" stroke-width="2.01883" stroke-linecap="round" stroke-linejoin="round"/>
<path d="M338.315 145.502C338.315 145.502 336.221 146.538 336.424 148.964" stroke="#18292D" stroke-width="2.01883" stroke-linecap="round" stroke-linejoin="round"/>
<path d="M311.914 142.112C311.907 142.916 312.436 143.568 313.095 143.575C313.754 143.583 314.304 142.938 314.312 142.141C314.319 141.337 313.79 140.685 313.131 140.678C312.472 140.671 311.921 141.315 311.914 142.112Z" fill="#18292D"/>
<path d="M313.442 137.194C313.21 137.636 314.021 138.519 315.253 139.164C316.484 139.809 317.672 139.968 317.904 139.526C318.136 139.084 317.324 138.201 316.093 137.556C314.862 136.911 313.674 136.752 313.442 137.194Z" fill="#18292D"/>
<path d="M329.631 129.501C335.404 129.668 340.453 134.594 341.431 141.236C340.265 142.358 338.772 143.112 337.092 143.307C332.731 143.814 328.74 140.367 328.19 135.608C327.929 133.34 328.494 131.189 329.624 129.494L329.631 129.501Z" fill="#18292D"/>
<path d="M294.459 173.932C294.335 180.574 287.729 185.833 279.711 185.681C271.693 185.529 265.297 180.024 265.42 173.381C265.543 166.739 272.149 161.481 280.167 161.633C288.186 161.785 294.582 167.29 294.459 173.932Z" fill="#18292D"/>
<path d="M308.008 183.935C295.209 165.197 276.695 174.214 273.704 177.191C273.001 177.887 272.328 178.56 271.661 179.205C270.423 180.161 269.293 181.197 268.271 182.312C265.751 184.413 263.469 185.695 261.289 185.434C259.746 185.253 256.755 190.302 255.683 196.422C258.834 196.35 261.89 195.908 264.751 195.082C262.535 198.103 259.181 200.152 255.299 201.116C255.379 207.005 257.798 212.922 265.193 215.624C265.193 215.624 269.314 217.775 274.24 218.181L274.327 241.156L299.033 241.062L300.424 220.137C300.815 219.883 301.206 219.622 301.583 219.347C313.187 211.025 315.809 195.35 308.008 183.928V183.935Z" fill="white" stroke="#18292D" stroke-width="2.01883" stroke-linecap="round" stroke-linejoin="round"/>
<path d="M278.873 243.071C283.97 238.133 284.099 229.998 279.161 224.901C274.223 219.803 266.088 219.674 260.991 224.612C255.894 229.55 255.765 237.685 260.702 242.782C265.64 247.879 273.775 248.009 278.873 243.071Z" fill="#18292D"/>
<path d="M168.864 150.159C168.864 149.717 168.509 149.362 168.067 149.362H164.417C160.831 149.362 157.912 146.443 157.912 142.858V113.668C157.912 110.082 160.831 107.163 164.417 107.163H217.024C220.61 107.163 223.529 110.082 223.529 113.668V142.858C223.529 146.443 220.61 149.362 217.024 149.362H180.83C180.62 149.362 180.417 149.449 180.265 149.594L168.849 161.009V150.159H168.864Z" fill="white"/>
<path d="M217.032 107.967C220.175 107.967 222.739 110.524 222.739 113.675V142.865C222.739 146.009 220.183 148.573 217.032 148.573H180.837C180.417 148.573 180.012 148.739 179.715 149.036L169.661 159.09V150.159C169.661 149.283 168.951 148.566 168.068 148.566H164.417C161.273 148.566 158.709 146.009 158.709 142.858V113.668C158.709 110.524 161.266 107.96 164.417 107.96H217.025M217.025 106.366H164.417C160.39 106.366 157.123 109.633 157.123 113.66V142.851C157.123 146.878 160.39 150.145 164.417 150.145H168.068V162.914L180.837 150.145H217.032C221.059 150.145 224.326 146.878 224.326 142.851V113.66C224.326 109.633 221.059 106.366 217.032 106.366H217.025Z" fill="#18292D"/>
<path d="M194.746 132.08H247.354C251.381 132.08 254.648 135.347 254.648 139.374V168.564C254.648 172.591 251.381 175.858 247.354 175.858H243.703V188.628L230.934 175.858H194.739C190.712 175.858 187.445 172.591 187.445 168.564V139.374C187.445 135.347 190.712 132.08 194.739 132.08H194.746Z" fill="#18292D"/>
<path d="M305.104 171.367C297.086 166.775 287.633 166.869 279.76 170.759C282.172 171.382 284.533 172.309 286.778 173.598C302.011 182.312 306.408 203.274 296.593 220.418C296.05 221.367 295.463 222.287 294.862 223.171C302.873 221.838 310.319 216.949 314.752 209.206C322.444 195.762 318.127 178.821 305.104 171.367Z" fill="#18292D"/>
<path d="M278.043 168.97C278.043 168.97 280.057 176.336 286.112 180.001C289.313 181.942 283.12 181.233 283.526 185.093C286.547 213.994 288.741 219.484 288.741 219.484C289.234 221.968 291.291 223.844 293.811 224.112L301.402 224.909L303.923 217.977L308.37 187.99C308.37 187.99 293.196 165.189 278.05 168.97H278.043Z" fill="#18292D"/>
<path d="M274.914 178.263C278.456 178.908 279.253 183.261 278.261 184.76" stroke="#18292D" stroke-width="2.01883" stroke-linecap="round" stroke-linejoin="round"/>
<path d="M271.539 186.085C270.865 186.462 270.09 186.368 269.822 185.883C269.554 185.397 269.88 184.695 270.561 184.318C271.235 183.941 272.01 184.036 272.278 184.521C272.546 185.006 272.22 185.709 271.539 186.085Z" fill="#18292D"/>
<path d="M284.541 182.522C284.541 182.522 273.995 189.91 275.197 195.35C276.393 200.789 285.91 202.057 284.65 211.35C283.39 220.643 281.753 225.185 270.46 225.554C255.394 226.039 252.316 228.741 252.157 237.187C251.997 245.639 288.293 236.556 288.293 236.556C288.293 236.556 301.766 223.156 284.548 182.522H284.541Z" fill="#18292D"/>
<path d="M276.175 204.853C276.096 208.953 279.362 212.343 283.462 212.422C287.562 212.502 290.952 209.235 291.032 205.135C291.111 201.036 287.844 197.646 283.745 197.566C279.645 197.486 276.255 200.753 276.175 204.853Z" fill="white"/>
<path d="M285.454 202.209C285.454 202.209 280.304 203.651 280.246 206.722" stroke="#18292D" stroke-width="2.01883" stroke-linecap="round" stroke-linejoin="round"/>
<path d="M326.17 237.665C331.256 232.82 331.452 224.769 326.606 219.683C321.761 214.596 313.71 214.401 308.624 219.246C303.537 224.092 303.342 232.143 308.187 237.229C313.033 242.315 321.084 242.511 326.17 237.665Z" fill="#18292D"/>
<path d="M342.399 249.884C338.915 245.017 333.338 241.388 326.616 240.084L267.576 228.626C256.444 226.467 244.97 230.69 238.857 239.201C236.481 242.504 233.837 246.118 231.049 249.884" fill="white"/>
<path d="M342.399 249.884C338.915 245.017 333.338 241.388 326.616 240.084L267.576 228.626C256.444 226.467 244.97 230.69 238.857 239.201C236.481 242.504 233.837 246.118 231.049 249.884" stroke="#18292D" stroke-width="2.01883" stroke-linecap="round" stroke-linejoin="round"/>
<path d="M292.412 167.065C299.634 163.516 324.623 171.578 321.32 197.088C319.676 209.771 316.38 228.857 320.161 235.427C323.942 241.996 323.507 237.368 318.43 242.474C313.345 247.581 293.832 245.741 290.225 241.772C286.618 237.803 277.151 240.903 291.681 217.551C306.21 194.206 291.92 182.225 290.42 181.334C288.921 180.436 281.837 172.273 292.427 167.065H292.412Z" fill="#18292D"/>
<path d="M306.481 245.46C313.583 240.359 315.205 230.465 310.104 223.363C305.002 216.261 295.109 214.639 288.006 219.74C280.904 224.842 279.282 234.735 284.384 241.838C289.486 248.94 299.379 250.562 306.481 245.46Z" fill="#18292D"/>
<path d="M139.237 171.571C145.539 170.577 149.982 165.54 149.159 160.32C148.335 155.1 142.559 151.674 136.256 152.667C129.953 153.661 125.511 158.699 126.334 163.919C127.157 169.139 132.934 172.565 139.237 171.571Z" fill="#18292D"/>
<path d="M173.986 186.665C170.01 186.245 166.403 184.666 163.795 181.979C166.743 182.399 169.829 182.428 172.958 182.066C171.053 176.148 167.402 171.556 165.903 171.947C163.773 172.504 161.34 171.548 158.558 169.81C157.392 168.847 156.132 167.97 154.77 167.195C154.024 166.645 153.264 166.072 152.474 165.479C149.106 162.943 129.527 156.548 119.423 176.858C113.773 188.215 117.301 201.912 127.673 209.242L120.633 235.166L150.967 229.777L156.327 206.396C161.724 205.563 166.178 202.39 166.178 202.39C173.139 198.703 174.718 192.51 173.994 186.665H173.986Z" fill="white" stroke="#18292D" stroke-width="2.01883" stroke-linecap="round" stroke-linejoin="round"/>
<path d="M120.575 164.023C127.891 158.38 137.263 157.178 145.593 159.945C143.29 160.894 141.081 162.14 139.031 163.719C125.138 174.439 123.653 195.806 135.721 211.444C136.394 212.313 137.09 213.139 137.814 213.936C129.701 213.711 121.654 209.894 116.2 202.825C106.733 190.562 108.696 173.185 120.575 164.023Z" fill="#18292D"/>
<path d="M147.049 157.939C147.049 157.939 146.064 165.508 140.567 169.97C137.662 172.331 143.696 170.781 143.826 174.656C144.797 203.694 143.377 209.438 143.377 209.438C143.232 211.966 141.45 214.11 138.995 214.711L126.276 215.674L126.978 211.444L119.619 180.929C119.619 180.929 131.527 156.265 147.042 157.931L147.049 157.939Z" fill="#18292D"/>
<path d="M150.017 168.18C147.671 169.774 148.178 173.664 149.25 174.627" stroke="#18292D" stroke-width="2.01883" stroke-linecap="round" stroke-linejoin="round"/>
<path d="M155.844 173.997C156.568 174.279 157.314 174.084 157.517 173.562C157.72 173.04 157.292 172.396 156.575 172.113C155.851 171.831 155.105 172.026 154.902 172.548C154.699 173.069 155.127 173.714 155.844 173.997Z" fill="#18292D"/>
<path d="M153.815 193.227C154.453 197.277 151.686 201.079 147.637 201.724C143.588 202.361 139.785 199.594 139.14 195.545C138.503 191.496 141.27 187.694 145.319 187.049C149.368 186.411 153.171 189.178 153.815 193.227Z" fill="white"/>
<path d="M144.268 191.88C144.268 191.88 149.57 192.597 150.048 195.64" stroke="#18292D" stroke-width="2.01883" stroke-linecap="round" stroke-linejoin="round"/>
<path d="M322.68 248.224C329.221 243.377 330.594 234.145 325.747 227.605C320.9 221.064 311.669 219.691 305.128 224.538C298.587 229.385 297.214 238.616 302.061 245.157C306.908 251.698 316.14 253.071 322.68 248.224Z" fill="#18292D"/>
<path d="M139.777 179.538L150.816 186.021L148.969 189.077L139.987 185.912L139.777 179.538Z" fill="#18292D"/>
<path d="M109 179.017C109 179.017 114.643 177.604 116.758 179.372" stroke="#18292D" stroke-width="2.01883" stroke-linecap="round" stroke-linejoin="round"/>
<path d="M117.492 178.343C117.492 178.343 111.682 178.64 109.951 176.503" stroke="#18292D" stroke-width="2.01883" stroke-linecap="round" stroke-linejoin="round"/>
<path d="M113.585 249.884C113.585 249.884 111.355 242.301 111.401 236.851C111.469 228.827 119.177 223.439 127.201 223.439H144.362C158.066 223.439 171.205 228.879 180.89 238.57L192.377 250.058C192.377 250.058 114.281 249.884 113.578 249.884H113.585Z" fill="#18292D"/>
<path d="M199.977 154.092C199.977 154.092 211.645 154.911 210.552 148.066C209.451 141.221 200.607 152.238 205.93 156.678C211.254 161.118 221.496 148.928 220.953 145.683C220.41 142.445 215.615 147.791 215.028 150.369C214.441 152.948 217.107 161.886 224.48 157.12C231.854 152.361 231.919 146.907 229.399 147.407C226.878 147.907 223.104 158.648 230.775 159.322C238.445 159.995 240.763 155.874 240.763 155.874" stroke="white" stroke-width="2.01883" stroke-linecap="round" stroke-linejoin="round"/>
<path d="M259.275 108.902C258.036 104.129 257.616 99.1671 258.058 94.2128L258.348 90.975C259.108 82.3701 253.872 74.3663 245.687 71.6211C235.908 68.3399 225.326 73.613 222.052 83.3914C219.307 91.5835 222.537 100.587 229.86 105.157L232.62 106.881C236.806 109.496 240.493 112.799 243.543 116.623" fill="white"/>
<path d="M259.275 108.902C258.036 104.129 257.616 99.1671 258.058 94.2128L258.348 90.975C259.108 82.3701 253.872 74.3663 245.687 71.6211C235.908 68.3399 225.326 73.613 222.052 83.3914C219.307 91.5835 222.537 100.587 229.86 105.157L232.62 106.881C236.806 109.496 240.493 112.799 243.543 116.623" stroke="#18292D" stroke-width="2.01883" stroke-linecap="round" stroke-linejoin="round"/>
<path d="M257.601 125.67C252.973 127.974 247.352 126.091 245.049 121.462L242.832 117.015L259.586 108.67L261.803 113.118C264.106 117.746 262.223 123.367 257.594 125.67H257.601Z" fill="white" stroke="#18292D" stroke-width="2.01883" stroke-linecap="round" stroke-linejoin="round"/>
<path d="M248.578 113.546L241.639 99.6165C241.639 99.6165 238.538 95.821 235.547 96.7481C231.454 98.023 234.439 102.159 239.712 100.986C244.985 99.8121 250.468 94.1043 249.577 89.0049C249.107 86.3249 245.043 84.9052 243.558 89.7075C242.928 91.7429 243.435 93.2206 245.115 96.0021C246.796 98.7908 252.917 111.677 252.917 111.677" stroke="#18292D" stroke-width="2.01883" stroke-linecap="round" stroke-linejoin="round"/>
<path d="M180.311 137.586C180.311 137.586 161 115.262 178.725 122.78C184.541 125.25 177.493 128.423 177.493 128.423C177.493 128.423 179.782 119.253 186.482 117.848C193.183 116.435 186.482 129.307 180.311 137.593V137.586Z" fill="#FFC31F"/>
<path d="M262.42 81.03L270.359 77.9153" stroke="#18292D" stroke-width="2.01883" stroke-linecap="round" stroke-linejoin="round"/>
<path d="M256.814 72.4543L262.855 67" stroke="#18292D" stroke-width="2.01883" stroke-linecap="round" stroke-linejoin="round"/>
<path d="M263.738 89.968L271.626 92.5322" stroke="#18292D" stroke-width="2.01883" stroke-linecap="round" stroke-linejoin="round"/>
</g>
</g>
<defs>
<clipPath id="clip0_558_8492">
<rect width="470" height="250" fill="white"/>
</clipPath>
</defs>
</svg>
