<svg width="470" height="250" viewBox="0 0 470 250" fill="none" xmlns="http://www.w3.org/2000/svg">
<g clip-path="url(#clip0_542_17525)">
<path d="M211.179 124.884C204.654 113.428 205.32 100.999 205.32 100.999C205.32 88.1417 226.939 71.723 240.218 70.8883C242.255 70.314 244.407 70 246.627 70C259.699 70 270.298 80.5986 270.298 93.6707V100.915C270.949 104.851 271.324 108.366 271.661 110.809C273.216 122.066 283.692 121.676 288.738 127.496C293.785 133.316 288.187 138.347 294.375 144.282C302.86 152.43 318.803 152.17 323.237 160.241C327.993 192.841 300.539 182.465 296.412 186.385C283.876 189.089 260.412 178.337 260.412 178.337C260.412 178.337 185.203 200.66 199.967 155.049C202.449 147.391 217.435 135.835 211.186 124.877L211.179 124.884Z" fill="#18292D"/>
<path d="M322.893 165.433C322.831 165.433 322.778 165.433 322.717 165.41C322.303 165.319 322.05 164.905 322.142 164.491C324.7 153.464 312.815 150.623 302.323 148.111C295.393 146.457 289.918 145.147 289.336 141.632C288.807 138.439 289.182 135.698 289.512 133.285C290.025 129.548 290.392 126.845 287.521 124.012C285.782 122.296 283.454 121.316 280.988 120.282C276.562 118.414 271.546 116.3 270.03 109.224C269.884 108.535 269.724 107.761 269.555 106.904C269.172 104.997 268.69 102.623 268.085 100.111C268.077 100.073 268.069 100.027 268.062 99.9886L267.579 93.2343C266.737 81.487 256.368 72.6344 244.414 73.4768C242.438 73.6223 240.486 74.0282 238.609 74.6944C238.211 74.8322 237.775 74.6255 237.629 74.2273C237.491 73.8291 237.698 73.3926 238.096 73.2471C240.103 72.5349 242.193 72.0984 244.299 71.9452C257.057 71.0262 268.2 80.5298 269.103 93.1194L269.586 99.8125C270.198 102.332 270.673 104.698 271.056 106.605C271.224 107.455 271.385 108.229 271.531 108.91C272.879 115.205 277.106 116.989 281.586 118.873C284.075 119.922 286.648 121.01 288.593 122.924C292.016 126.294 291.533 129.793 291.028 133.5C290.714 135.805 290.354 138.416 290.844 141.387C291.258 143.899 296.81 145.224 302.676 146.625C313.305 149.168 326.538 152.323 323.628 164.844C323.544 165.196 323.23 165.433 322.885 165.433H322.893Z" fill="#18292D"/>
<path d="M253.688 145.76L278.24 150.079C288.417 151.871 297.683 157.086 304.499 164.859L332.879 197.229C339.641 204.941 340.407 216.213 334.748 224.767C331.554 229.599 326.638 233.03 321.002 234.363L303.664 238.253L181.336 215.126L200.665 171.062C204.463 162.401 212.083 155.991 221.264 153.732L253.688 145.752V145.76Z" fill="#18292D"/>
<path d="M303.664 239.019C303.618 239.019 303.572 239.019 303.518 239.003L181.183 215.876C180.953 215.83 180.754 215.685 180.647 215.478C180.539 215.271 180.532 215.026 180.624 214.812L199.96 170.748C203.827 161.926 211.723 155.287 221.081 152.982L253.504 145.002C253.612 144.979 253.719 144.971 253.818 144.994L278.37 149.313C288.685 151.128 298.165 156.466 305.073 164.338L333.453 196.708C340.422 204.657 341.211 216.359 335.391 225.173C332.075 230.189 327.028 233.712 321.185 235.09L303.84 238.988C303.786 239.003 303.725 239.003 303.672 239.003L303.664 239.019ZM182.423 214.551L303.656 237.464L320.833 233.604C326.293 232.318 331.01 229.025 334.104 224.338C339.549 216.098 338.806 205.155 332.297 197.727L303.917 165.357C297.239 157.745 288.072 152.583 278.102 150.83L253.711 146.541L221.448 154.483C212.55 156.673 205.045 162.991 201.361 171.376L182.416 214.559L182.423 214.551Z" fill="#18292D"/>
<path d="M226.227 186.286C210.964 186.286 200.68 183.184 195.633 177.05C191.161 171.621 190.977 163.909 195.082 154.138C196.116 151.672 198.467 148.946 200.963 146.059C206.247 139.94 212.236 133.002 208.828 125.635C203.26 113.604 204.876 101.421 204.945 100.907C205.458 94.8347 210.712 87.9043 219.342 81.9387C227.368 76.3944 236.45 73.0325 243.036 73.1857C243.457 73.1933 243.794 73.5456 243.786 73.9668C243.779 74.388 243.426 74.7249 243.005 74.7173C236.818 74.5718 227.873 77.9106 220.215 83.2023C212.082 88.8232 206.936 95.5009 206.469 101.076C206.446 101.237 204.846 113.382 210.222 124.984C214.043 133.247 207.442 140.905 202.127 147.054C199.715 149.842 197.44 152.476 196.499 154.727C192.631 163.94 192.738 171.123 196.82 176.078C209.142 191.049 253.458 182.082 253.902 181.99C254.308 181.906 254.722 182.174 254.806 182.587C254.89 183.001 254.622 183.406 254.209 183.491C254.094 183.514 242.73 185.842 229.948 186.232C228.677 186.271 227.437 186.294 226.234 186.294L226.227 186.286Z" fill="#18292D"/>
<path d="M268.391 148.479L259.975 118.031L231.618 125.865L237.974 148.854C233.326 149.788 229.129 151.105 225.576 152.729C228.218 165.855 238.334 175.634 250.41 175.634C263.276 175.634 273.913 164.545 275.674 150.133C273.392 149.474 270.949 148.923 268.391 148.486V148.479Z" fill="white"/>
<path d="M250.41 176.354C238.158 176.354 227.651 166.697 224.863 152.874C224.795 152.545 224.963 152.216 225.269 152.078C228.715 150.508 232.675 149.245 237.07 148.31L230.921 126.064C230.867 125.88 230.898 125.681 230.99 125.52C231.082 125.352 231.243 125.229 231.426 125.183L259.784 117.349C260.167 117.25 260.565 117.472 260.672 117.855L268.966 147.858C271.378 148.287 273.706 148.823 275.873 149.444C276.21 149.543 276.432 149.872 276.386 150.225C274.571 165.127 263.406 176.361 250.41 176.361V176.354ZM226.395 153.15C229.206 165.992 239.015 174.914 250.41 174.914C262.502 174.914 272.925 164.53 274.878 150.654C272.795 150.079 270.574 149.589 268.269 149.191C267.993 149.145 267.771 148.938 267.694 148.67L259.47 118.919L232.498 126.37L238.663 148.663C238.717 148.854 238.686 149.061 238.579 149.229C238.472 149.398 238.303 149.52 238.104 149.558C233.747 150.432 229.811 151.641 226.387 153.142L226.395 153.15Z" fill="#18292D"/>
<path d="M237.086 145.637L231.625 125.865L249.637 120.887L257.257 126.056C254.867 134.863 247.822 141.992 237.086 145.63V145.637Z" fill="#18292D"/>
<path d="M243.204 138.232C253.297 135.797 260.496 126.875 260.741 116.499L260.986 106.122C260.986 94.222 251.337 84.573 239.436 84.573H235.194C223.294 84.573 213.645 94.222 213.645 106.122L215.092 118.597C216.677 132.259 229.849 141.456 243.22 138.232H243.204Z" fill="white"/>
<path d="M239 73.561C253.183 73.561 264.677 84.6421 264.677 98.3192V103.419C254.714 109.745 241.183 108.68 232.414 100.234L221.05 89.2751C219.641 87.9197 218.439 86.4417 217.428 84.8871C222 78.0716 229.948 73.561 238.993 73.561H239Z" fill="#18292D"/>
<path d="M255.302 113.235L254.127 112.709C250.835 111.236 249.354 107.367 250.831 104.068L251.832 101.831C253.306 98.5395 257.175 97.058 260.474 98.5351L261.648 99.0608C264.94 100.535 266.422 104.403 264.944 107.702L263.943 109.939C262.469 113.231 258.601 114.712 255.302 113.235Z" fill="white"/>
<path d="M215.888 118.751C216.486 120.412 217.833 121.454 218.89 121.071C219.947 120.688 220.322 119.034 219.725 117.364C219.128 115.703 217.78 114.661 216.723 115.044C215.666 115.427 215.291 117.081 215.888 118.751Z" fill="#18292D"/>
<path d="M209.44 115.779C209.31 115.779 209.172 115.749 209.05 115.672C208.682 115.458 208.567 114.991 208.774 114.623C211.868 109.37 218.791 109.201 219.082 109.193C219.495 109.163 219.847 109.523 219.855 109.944C219.855 110.365 219.526 110.717 219.105 110.725C219.043 110.725 212.741 110.894 210.091 115.396C209.946 115.641 209.693 115.772 209.433 115.772L209.44 115.779Z" fill="#18292D"/>
<path d="M231.794 116.185C232.391 117.847 233.739 118.888 234.796 118.505C235.853 118.123 236.228 116.468 235.631 114.799C235.033 113.137 233.685 112.096 232.629 112.479C231.572 112.862 231.197 114.516 231.794 116.185Z" fill="#18292D"/>
<path d="M226.081 110.235C225.905 110.235 225.736 110.174 225.591 110.059C225.269 109.783 225.223 109.301 225.499 108.979C229.412 104.308 236.274 105.288 236.557 105.326C236.978 105.387 237.261 105.778 237.2 106.199C237.139 106.62 236.748 106.904 236.327 106.842C236.266 106.835 230.025 105.962 226.671 109.959C226.517 110.143 226.303 110.235 226.081 110.235Z" fill="#18292D"/>
<path d="M226.472 129.472C225.354 129.472 223.998 129.28 223.171 128.468C222.75 128.055 222.298 127.304 222.505 126.079C222.949 123.46 223.118 115.205 223.118 115.128C223.125 114.707 223.5 114.37 223.899 114.378C224.32 114.385 224.657 114.738 224.649 115.159C224.649 115.504 224.473 123.606 224.013 126.34C223.906 126.967 224.098 127.236 224.243 127.381C224.94 128.07 226.916 128.009 227.988 127.818C228.401 127.741 228.8 128.017 228.876 128.43C228.953 128.844 228.677 129.242 228.264 129.318C228.103 129.349 227.36 129.472 226.464 129.472H226.472Z" fill="#18292D"/>
<path d="M230.936 133.661C230.538 133.661 230.201 133.347 230.171 132.941C230.148 132.52 230.462 132.152 230.89 132.129C235.102 131.869 237.561 128.415 237.584 128.384C237.829 128.04 238.303 127.955 238.648 128.193C238.993 128.438 239.084 128.913 238.839 129.257C238.725 129.426 235.952 133.347 230.982 133.661C230.967 133.661 230.952 133.661 230.936 133.661Z" fill="#18292D"/>
<path d="M255.847 109.377C255.449 109.377 255.112 109.071 255.082 108.665C254.66 102.653 258.489 100.984 258.658 100.915C259.048 100.754 259.5 100.938 259.661 101.329C259.822 101.719 259.638 102.163 259.255 102.324C259.125 102.385 256.276 103.695 256.613 108.55C256.644 108.971 256.322 109.339 255.901 109.369C255.886 109.369 255.863 109.369 255.847 109.369V109.377Z" fill="#18292D"/>
<path d="M257.417 167.769L257.976 163.289L251.819 156.014L176.296 172.8L170.698 141.472L163.431 143.708L171.257 170.005L151.676 148.188L135.457 157.699L169.58 192.382L257.417 167.769Z" fill="white"/>
<path d="M169.58 193.102C169.389 193.102 169.205 193.025 169.067 192.887L134.944 158.204C134.79 158.043 134.714 157.821 134.744 157.607C134.775 157.385 134.905 157.193 135.097 157.079L151.324 147.567C151.623 147.399 151.998 147.453 152.228 147.705L169.665 167.133L162.75 143.915C162.635 143.532 162.849 143.133 163.224 143.019L170.499 140.782C170.699 140.721 170.913 140.752 171.089 140.859C171.265 140.966 171.388 141.142 171.426 141.349L176.886 171.935L251.681 155.317C251.942 155.264 252.217 155.348 252.386 155.555L258.543 162.83C258.673 162.983 258.734 163.182 258.704 163.381L258.145 167.853C258.106 168.144 257.907 168.382 257.624 168.458L169.795 193.071C169.734 193.086 169.665 193.102 169.603 193.102H169.58ZM136.621 157.852L169.803 191.578L256.766 167.202L257.226 163.519L251.559 156.818L176.457 173.505C176.266 173.543 176.067 173.505 175.898 173.398C175.737 173.29 175.623 173.114 175.584 172.923L170.132 142.398L164.319 144.19L171.947 169.798C172.046 170.12 171.901 170.465 171.61 170.633C171.319 170.794 170.944 170.733 170.721 170.488L151.531 149.107L136.613 157.852H136.621Z" fill="#18292D"/>
<path d="M133.221 153.219L162.306 175.595L182.446 177.831L261.889 162.171L252.378 231.544L180.21 250L164.549 246.087L143.85 225.387L133.221 153.219Z" fill="#4A7C88"/>
<path d="M164.549 246.853C164.143 246.853 163.807 246.539 163.784 246.125L160.429 182.35C160.406 181.928 160.728 181.569 161.157 181.546C161.578 181.523 161.938 181.844 161.961 182.273L165.315 246.048C165.338 246.47 165.016 246.83 164.588 246.853C164.572 246.853 164.557 246.853 164.549 246.853Z" fill="white"/>
<path d="M181.328 242.939H181.313C180.891 242.939 180.554 242.587 180.562 242.158L181.68 177.824C181.68 177.403 182.032 177.073 182.446 177.073H182.461C182.882 177.073 183.219 177.425 183.212 177.854L182.094 242.189C182.094 242.61 181.741 242.939 181.328 242.939Z" fill="white"/>
<path d="M203.337 196.172C202.977 196.172 202.663 195.92 202.586 195.56C202.502 195.146 202.77 194.74 203.184 194.656L238.954 187.435C239.375 187.35 239.773 187.618 239.857 188.032C239.942 188.446 239.674 188.851 239.26 188.936L203.49 196.157C203.436 196.165 203.39 196.172 203.337 196.172Z" fill="white"/>
<path d="M208.268 200.522C207.908 200.522 207.595 200.269 207.518 199.909C207.434 199.496 207.702 199.09 208.115 199.006L234.014 193.775C234.436 193.691 234.834 193.959 234.918 194.373C235.002 194.786 234.734 195.192 234.321 195.276L208.422 200.507C208.368 200.514 208.322 200.522 208.268 200.522Z" fill="white"/>
<path d="M176.297 173.52C176.235 173.52 176.166 173.512 176.097 173.489C175.715 173.382 175.492 172.984 175.6 172.601C178.885 161.114 177.269 141.724 177.254 141.533C177.223 141.135 177.514 140.79 177.912 140.752C178.326 140.721 178.655 141.012 178.694 141.41C178.762 142.214 180.348 161.26 176.986 172.999C176.894 173.313 176.611 173.52 176.297 173.52Z" fill="#18292D"/>
<path d="M288.5 216.498L271.883 224.147L272.902 188.262L252.937 168.596C251.873 167.547 250.073 168.274 250.027 169.768C247.6 172.302 247.623 176.3 250.089 178.804L251.628 180.366L248.289 178.184C246.941 177.357 245.18 177.793 244.368 179.156C242.576 182.173 243.511 186.064 246.482 187.94L258.696 196.05L258.666 196.142L247.891 190.421C246.474 189.724 244.759 190.314 244.077 191.746C242.569 194.909 243.848 198.707 246.972 200.3L255.809 205.078L252.202 231.544C252.202 231.544 262.655 246.906 277.565 243.851L299.5 238.998C299.5 238.998 301 230.998 298 225.998C294.045 219.407 288.5 216.498 288.5 216.498Z" fill="white"/>
<path d="M273.668 245.015C260.595 245.015 251.659 232.119 251.559 231.973C251.452 231.82 251.406 231.628 251.437 231.437L254.967 205.492L246.597 200.966C243.097 199.174 241.673 194.97 243.373 191.409C243.786 190.536 244.521 189.877 245.44 189.556C246.061 189.341 246.704 189.295 247.324 189.426L246.038 188.576C242.714 186.477 241.673 182.158 243.694 178.766C244.192 177.931 244.981 177.341 245.923 177.104C246.65 176.928 247.393 176.974 248.075 177.234C246.918 174.692 247.317 171.636 249.277 169.438C249.407 168.573 249.966 167.853 250.801 167.516C251.728 167.141 252.746 167.348 253.458 168.052L273.423 187.718C273.576 187.871 273.66 188.07 273.652 188.285L272.672 222.914L304.812 207.36C305.195 207.177 305.655 207.337 305.839 207.713C306.022 208.096 305.862 208.547 305.486 208.739L272.213 224.844C271.975 224.958 271.692 224.943 271.462 224.798C271.24 224.652 271.102 224.399 271.11 224.131L272.121 188.576L252.394 169.147C251.988 168.741 251.513 168.887 251.383 168.941C251.245 168.994 250.809 169.216 250.793 169.791C250.793 169.982 250.709 170.158 250.579 170.296C248.419 172.547 248.442 176.039 250.632 178.26L252.172 179.822C252.447 180.098 252.47 180.542 252.218 180.849C251.973 181.155 251.536 181.224 251.207 181.002L247.868 178.819C247.408 178.544 246.849 178.452 246.306 178.59C245.762 178.727 245.31 179.064 245.027 179.539C243.434 182.219 244.253 185.62 246.888 187.281L259.117 195.399C259.401 195.59 259.531 195.942 259.424 196.272L259.393 196.364C259.324 196.578 259.163 196.754 258.949 196.838C258.742 196.923 258.505 196.915 258.306 196.808L247.531 191.087C247.049 190.85 246.482 190.812 245.953 190.995C245.425 191.179 245.004 191.554 244.766 192.06C243.426 194.87 244.544 198.186 247.317 199.603L256.169 204.389C256.453 204.542 256.606 204.849 256.567 205.163L253.006 231.33C254.385 233.214 264.179 245.796 277.412 243.085L309.109 236.369C309.522 236.277 309.928 236.545 310.02 236.958C310.104 237.372 309.844 237.778 309.43 237.87L277.726 244.586C276.34 244.869 274.992 244.999 273.683 244.999L273.668 245.015Z" fill="#18292D"/>
<path d="M272.772 193.484C272.642 193.484 272.504 193.446 272.381 193.377L251.483 180.887C251.123 180.672 251 180.198 251.215 179.838C251.429 179.478 251.904 179.355 252.264 179.57L273.162 192.06C273.522 192.274 273.645 192.749 273.43 193.109C273.285 193.346 273.032 193.484 272.772 193.484Z" fill="#18292D"/>
<path d="M272.473 203.891C272.351 203.891 272.228 203.861 272.121 203.807L257.119 195.927C256.744 195.728 256.598 195.269 256.797 194.893C256.996 194.518 257.456 194.38 257.831 194.572L272.833 202.452C273.208 202.651 273.354 203.11 273.155 203.486C273.017 203.746 272.749 203.899 272.473 203.899V203.891Z" fill="#18292D"/>
<path d="M262.533 209.773C262.411 209.773 262.28 209.742 262.166 209.681L255.679 206.097C255.312 205.89 255.174 205.423 255.381 205.055C255.587 204.688 256.047 204.55 256.422 204.757L262.908 208.341C263.276 208.547 263.414 209.015 263.207 209.382C263.069 209.635 262.809 209.78 262.533 209.78V209.773Z" fill="#18292D"/>
<path d="M271.707 231.07H271.684C271.263 231.054 270.926 230.702 270.941 230.281L271.118 224.124C271.133 223.703 271.493 223.373 271.906 223.381C272.328 223.396 272.664 223.749 272.649 224.17L272.473 230.327C272.458 230.74 272.121 231.07 271.707 231.07Z" fill="#18292D"/>
<path d="M295.829 212.913C295.546 212.913 295.27 212.752 295.14 212.484L286.563 194.955C286.38 194.572 286.533 194.12 286.916 193.929C287.299 193.745 287.75 193.898 287.942 194.281L296.519 211.81C296.702 212.193 296.549 212.645 296.166 212.836C296.059 212.89 295.944 212.913 295.829 212.913Z" fill="#18292D"/>
<path d="M298.816 239.769C298.747 239.769 298.67 239.761 298.602 239.738C298.196 239.623 297.958 239.195 298.081 238.789C300.034 232.065 297.744 224.92 292.245 220.578L287.521 216.849C287.191 216.588 287.13 216.106 287.39 215.777C287.651 215.447 288.133 215.386 288.462 215.646L293.187 219.376C299.176 224.101 301.665 231.889 299.544 239.21C299.444 239.547 299.138 239.761 298.808 239.761L298.816 239.769Z" fill="#18292D"/>
<path d="M138.841 192.803L135.725 193.89L134.806 199.863C134.507 201.808 136.399 203.371 138.252 202.704C141.583 201.602 143.421 198.041 142.41 194.687C141.951 193.17 140.35 192.32 138.841 192.803Z" fill="white"/>
<path d="M137.371 203.631C136.605 203.631 135.855 203.363 135.235 202.858C134.308 202.092 133.864 200.935 134.048 199.748L134.967 193.775C135.013 193.492 135.204 193.262 135.472 193.17L138.589 192.083C138.589 192.083 138.604 192.083 138.612 192.083C139.538 191.792 140.519 191.876 141.376 192.336C142.234 192.787 142.862 193.553 143.145 194.48C144.286 198.263 142.242 202.199 138.497 203.447C138.129 203.577 137.746 203.646 137.371 203.646V203.631ZM136.414 194.464L135.564 199.986C135.464 200.629 135.709 201.265 136.207 201.678C136.713 202.092 137.379 202.214 137.991 201.992C140.963 201.004 142.579 197.895 141.675 194.916C141.514 194.38 141.154 193.944 140.656 193.683C140.166 193.423 139.607 193.369 139.079 193.538L136.406 194.472L136.414 194.464Z" fill="#18292D"/>
<path d="M137.341 182.848L134.224 183.935L133.305 189.908C133.007 191.853 134.898 193.416 136.751 192.749C140.082 191.647 141.92 188.086 140.91 184.732C140.45 183.215 138.85 182.365 137.341 182.848Z" fill="white"/>
<path d="M135.871 193.676C135.105 193.676 134.354 193.408 133.734 192.902C132.808 192.137 132.371 190.98 132.547 189.793L133.466 183.82C133.512 183.537 133.703 183.307 133.972 183.215L137.088 182.128C137.088 182.128 137.104 182.128 137.111 182.128C138.038 181.837 139.018 181.921 139.883 182.38C140.741 182.832 141.369 183.598 141.652 184.525C142.793 188.308 140.749 192.244 137.004 193.492C136.636 193.622 136.254 193.691 135.878 193.691L135.871 193.676ZM134.913 184.509L134.063 190.031C133.964 190.674 134.209 191.31 134.707 191.723C135.212 192.137 135.878 192.259 136.491 192.037C139.462 191.049 141.078 187.94 140.174 184.961C140.014 184.425 139.654 183.989 139.156 183.728C138.666 183.468 138.107 183.422 137.578 183.583L134.906 184.517L134.913 184.509Z" fill="#18292D"/>
<path d="M135.84 172.885L134.867 168.765L133.604 170.595C132.378 172.364 131.735 174.47 131.766 176.622L131.804 179.953C131.505 181.898 133.397 183.46 135.25 182.794C138.581 181.691 140.419 178.13 139.408 174.776C138.949 173.26 137.348 172.41 135.84 172.892V172.885Z" fill="white"/>
<path d="M134.369 183.713C133.604 183.713 132.853 183.445 132.233 182.939C131.329 182.189 130.885 181.056 131.038 179.899L131 176.629C130.969 174.301 131.659 172.065 132.976 170.158L134.239 168.328C134.408 168.083 134.714 167.953 135.013 168.014C135.311 168.068 135.549 168.297 135.618 168.588L136.422 171.996C137.096 171.943 137.77 172.08 138.382 172.402C139.24 172.854 139.868 173.62 140.144 174.546C141.285 178.329 139.24 182.265 135.495 183.514C135.128 183.644 134.745 183.713 134.369 183.713ZM134.523 170.618L134.239 171.031C133.098 172.678 132.509 174.608 132.532 176.614L132.57 179.945C132.57 179.991 132.57 180.029 132.562 180.068C132.463 180.711 132.708 181.347 133.205 181.76C133.711 182.174 134.377 182.296 134.99 182.074C137.961 181.086 139.577 177.977 138.673 174.998C138.512 174.462 138.153 174.026 137.655 173.765C137.157 173.505 136.598 173.451 136.062 173.62C135.863 173.681 135.641 173.658 135.457 173.558C135.273 173.459 135.135 173.275 135.089 173.068L134.515 170.625L134.523 170.618Z" fill="#18292D"/>
<path d="M220.452 124.259C219.03 125.421 217.296 126.156 215.425 126.344C212.897 126.609 210.408 125.874 208.424 124.267C206.446 122.667 205.213 120.384 204.941 117.848C204.676 115.321 205.411 112.832 207.018 110.847C208.618 108.869 210.895 107.629 213.437 107.365C215.965 107.099 218.453 107.835 220.438 109.442C222.416 111.042 223.649 113.325 223.92 115.86C224.186 118.388 223.45 120.877 221.843 122.861C221.422 123.379 220.958 123.845 220.452 124.259ZM209.624 110.966C207.703 112.536 206.586 115.014 206.86 117.658C207.294 121.837 211.048 124.879 215.228 124.431C219.406 123.997 222.448 120.243 222 116.064C221.566 111.885 217.812 108.843 213.633 109.291C212.099 109.451 210.727 110.051 209.618 110.958L209.624 110.966Z" fill="#FFC31F"/>
<path d="M240.255 119.795C238.863 120.933 237.147 121.69 235.226 121.893C229.998 122.441 225.296 118.634 224.749 113.405C224.201 108.177 228.009 103.475 233.237 102.928C238.465 102.38 243.167 106.188 243.714 111.416C244.065 114.731 242.66 117.829 240.248 119.801L240.255 119.795ZM229.427 106.502C227.506 108.072 226.389 110.55 226.663 113.194C227.105 117.366 230.858 120.409 235.03 119.967C239.208 119.533 242.251 115.779 241.803 111.6C241.361 107.428 237.608 104.385 233.435 104.827C231.902 104.987 230.53 105.587 229.42 106.494L229.427 106.502Z" fill="#FFC31F"/>
<path d="M225.122 115.854L223.218 116.296C222.76 116.402 222.299 116.115 222.193 115.658C222.087 115.2 222.374 114.739 222.832 114.633L224.736 114.191C225.193 114.085 225.654 114.372 225.76 114.829C225.866 115.287 225.579 115.748 225.122 115.854Z" fill="#FFD35C"/>
</g>
<defs>
<clipPath id="clip0_542_17525">
<rect width="208.265" height="180" fill="white" transform="translate(131 70)"/>
</clipPath>
</defs>
</svg>
