<svg width="1300" height="400" viewBox="0 0 1300 400" fill="none" xmlns="http://www.w3.org/2000/svg">
<path d="M651.528 98.7799C692.651 95.5508 732.134 108.897 760.064 127.07C788.271 145.604 804.916 168.969 806.735 193.937C808.566 219.147 795.921 243.09 777.185 266.742C758.198 290.036 733.119 313.04 704.376 327.949C648.823 359.124 585.169 333.889 554.827 258.546C524.452 183.679 566.973 103.081 651.528 98.7799Z" fill="#F2F7F8"/>
<path d="M557.058 266.228C554.808 266.674 553.413 268.138 551.727 269.606C545.862 274.711 539.054 278.747 532.342 282.637C511.08 294.957 488.046 300.502 463.518 297.123C445.581 294.652 417.197 283.232 417.371 261.829C417.501 245.763 427.96 241.558 442.083 242.336C454.543 243.022 456.801 253.437 454.777 264.324C452.905 274.392 449.709 278.343 441.551 284.107C424.026 296.491 407.175 303.08 385.801 306.222C380.252 307.038 329.646 306.32 326 300.5" stroke="black" stroke-width="2" stroke-linecap="round" stroke-linejoin="round" stroke-dasharray="6 6"/>
<path d="M924.5 164.5C922.272 163.956 895.974 134.102 894.354 132.562C888.716 127.206 882.092 122.876 875.556 118.698C854.851 105.462 832.081 98.9171 807.429 101.223C789.401 102.91 760.546 113.081 759.786 134.47C759.216 150.527 769.481 155.185 783.625 155.023C796.103 154.881 798.813 144.574 797.266 133.61C795.835 123.469 792.813 119.383 784.915 113.269C767.947 100.133 751.399 92.8141 730.183 88.7429C724.675 87.686 701.752 80.9073 697.856 86.5622" stroke="black" stroke-width="2" stroke-linecap="round" stroke-linejoin="round" stroke-dasharray="6 6"/>
<circle cx="272.5" cy="281.5" r="56" fill="white" stroke="#18292D"/>
<g clip-path="url(#clip0_711_9216)">
<path d="M290.826 265.529C290.826 261.97 293.714 259.089 297.266 259.089C300.818 259.089 303.706 261.97 303.706 265.529H290.819H290.826Z" fill="#18292D" stroke="#18292D" stroke-width="1.24344" stroke-linecap="round" stroke-linejoin="round"/>
<path d="M297.077 259.083C293.518 259.083 290.637 261.964 290.637 265.523V305.798C290.637 309.952 287.274 313.315 283.121 313.315H250.369V265.53C250.369 261.971 253.257 259.09 256.809 259.09H297.077V259.083Z" fill="white" stroke="#18292D" stroke-width="1.24344" stroke-linecap="round" stroke-linejoin="round"/>
<path d="M281.632 313.322H251.132C245.202 313.322 242.671 310.679 242.671 306.008V305.924H275.206C275.87 313.692 281.625 313.322 281.625 313.322H281.632Z" fill="white" stroke="#18292D" stroke-width="1.24344" stroke-linecap="round" stroke-linejoin="round"/>
<path d="M257.67 272.529L284.268 272.564" stroke="#FFC31F" stroke-width="1.24344" stroke-linecap="round" stroke-linejoin="round"/>
<path d="M257.865 279.793L284.457 279.821" stroke="#FFC31F" stroke-width="1.24344" stroke-linecap="round" stroke-linejoin="round"/>
<path d="M258.054 287.052L284.645 287.087" stroke="#FFC31F" stroke-width="1.24344" stroke-linecap="round" stroke-linejoin="round"/>
<path d="M258.054 294.366L265.598 294.408" stroke="#FFC31F" stroke-width="1.24344" stroke-linecap="round" stroke-linejoin="round"/>
<path d="M290.268 250.944C288.974 250.3 287.387 250.846 286.73 252.146L270.431 284.66C270.354 284.807 270.298 284.961 270.256 285.115L268.487 294.17C268.438 294.345 268.543 294.394 268.655 294.254L274.864 287.429C274.962 287.303 275.046 287.164 275.123 287.017L291.429 254.475C292.079 253.174 291.554 251.587 290.268 250.944Z" fill="white" stroke="#18292D" stroke-width="1.24344" stroke-linecap="round" stroke-linejoin="round"/>
<path d="M284.868 255.916L289.462 258.223" stroke="#18292D" stroke-width="1.24344" stroke-linecap="round" stroke-linejoin="round"/>
<path d="M269.43 289.303L271.989 290.569" stroke="#18292D" stroke-width="1.24344" stroke-linecap="round" stroke-linejoin="round"/>
<path d="M286.386 253.014L290.994 255.3" stroke="#18292D" stroke-width="1.24344" stroke-linecap="round" stroke-linejoin="round"/>
<path d="M272.767 286.031L287.129 257.062" stroke="#18292D" stroke-width="1.24344" stroke-linecap="round" stroke-linejoin="round"/>
<path d="M270.34 284.829L275.039 287.157" stroke="#18292D" stroke-width="1.24344" stroke-linecap="round" stroke-linejoin="round"/>
</g>
<circle cx="973.5" cy="168.5" r="56" fill="white" stroke="#18292D"/>
<g clip-path="url(#clip1_711_9216)">
<path d="M954.327 196.609C953.247 196.609 952.37 195.732 952.37 194.652V155.471C952.364 145.603 960.395 137.573 970.263 137.573C980.131 137.573 989.957 142.31 996.085 150.579C1002.21 158.842 1004 169.23 1001.01 179.068C999.521 183.954 996.61 188.196 992.594 191.34C991.741 192.009 990.512 191.859 989.844 191.006C989.176 190.153 989.325 188.924 990.178 188.256C993.561 185.607 996.007 182.033 997.26 177.922C999.891 169.283 998.316 160.167 992.94 152.906C987.553 145.657 979.29 141.493 970.263 141.493C962.554 141.493 956.29 147.763 956.29 155.465V194.652C956.29 195.732 955.413 196.609 954.333 196.609H954.327Z" fill="#18292D" stroke="#18292D" stroke-width="1.15148" stroke-linecap="round" stroke-linejoin="round"/>
<path d="M989.838 176.443L987.685 178.489C986.849 179.283 985.531 179.265 984.719 178.448L981.844 175.572L986.951 170.465L989.88 173.394C990.727 174.241 990.71 175.62 989.838 176.443Z" fill="#FFC31F" stroke="#FFC31F" stroke-width="1.15148" stroke-linecap="round" stroke-linejoin="round"/>
<path d="M982.482 183.418L977.208 188.417C976.373 189.211 975.054 189.193 974.243 188.376L971.642 185.774L979.785 177.63L982.524 180.369C983.371 181.216 983.353 182.594 982.482 183.418Z" fill="#FFC31F" stroke="#FFC31F" stroke-width="1.15148" stroke-linecap="round" stroke-linejoin="round"/>
<path d="M947.777 197.42C943.1 192.743 943.75 185.816 948.427 181.139L972.37 155.889C977.047 151.212 984.624 151.212 989.302 155.889C993.979 160.567 993.979 168.144 989.302 172.822L964.053 196.77C959.375 201.448 952.449 202.098 947.771 197.42H947.777Z" fill="white" stroke="#18292D" stroke-width="1.15148" stroke-linecap="round" stroke-linejoin="round"/>
<path d="M950.545 194.652C947.079 191.186 948.451 186.657 951.196 183.913L960.24 174.379" fill="white"/>
<path d="M950.545 194.652C947.079 191.186 948.451 186.657 951.196 183.913L960.24 174.379" stroke="#18292D" stroke-width="1.15148" stroke-linecap="round" stroke-linejoin="round"/>
<path d="M980.834 172.994C985.606 172.994 989.474 169.127 989.474 164.355C989.474 159.584 985.606 155.716 980.834 155.716C976.063 155.716 972.195 159.584 972.195 164.355C972.195 169.127 976.063 172.994 980.834 172.994Z" fill="#18292D" stroke="#18292D" stroke-width="1.15148" stroke-linecap="round" stroke-linejoin="round"/>
<path d="M984.097 167.619C982.295 169.421 979.378 169.421 977.576 167.619C975.774 165.817 975.774 162.9 977.576 161.098C979.378 159.296 982.295 159.296 984.097 161.098C985.899 162.9 985.899 165.817 984.097 167.619Z" fill="white" stroke="#18292D" stroke-width="1.15148" stroke-linecap="round" stroke-linejoin="round"/>
</g>
<path d="M772.434 212.206L758.965 194.511C759.125 194.301 759.236 194.042 759.248 193.771C759.285 193.303 759.076 192.847 758.706 192.564L724.412 166.144L719.126 162.114C684.906 136.002 637.057 135.941 602.763 161.966C598.598 165.133 594.963 168.892 591.943 173.168L562.887 214.399L526.029 187.006C524.033 175.669 520.102 164.628 514.397 154.659L512.807 151.874C512.598 151.504 512.228 151.258 511.809 151.184L494.003 148.448C492.044 148.153 490.133 148.917 488.926 150.506C487.743 152.059 487.632 154.154 488.31 155.978C489.69 159.662 492.684 162.521 496.467 163.716L501.31 165.244C501.101 166.279 501.014 167.327 500.965 168.374L495.445 164.271C494.964 163.913 494.323 163.901 493.83 164.234L474.829 177.21C474.496 177.431 474.287 177.789 474.237 178.183C474.188 178.577 474.311 178.972 474.57 179.28L480.448 185.996C485.241 191.479 490.922 196.1 497.256 199.686L498.328 200.29L543.688 257.775C549.566 265.218 558.364 269.839 567.828 270.431C576.183 270.948 584.365 268.336 590.834 263.173L590.551 268.656C590.526 269.05 590.674 269.432 590.945 269.704C591.216 269.987 591.623 270.16 591.98 270.123L604.118 269.716L590.107 337.959C590.021 338.366 590.132 338.797 590.391 339.117C590.662 339.438 591.056 339.635 591.475 339.635H730.044C730.5 339.635 730.919 339.413 731.177 339.056C731.436 338.686 731.51 338.218 731.362 337.799L713.581 285.92C713.581 285.92 713.581 285.896 713.581 285.883C713.581 285.563 713.457 285.279 713.273 285.045L709.021 272.649L709.748 273.252C713.79 276.604 718.695 278.28 723.599 278.28C728.503 278.28 733.827 276.456 737.955 272.809L769.168 245.243C778.743 236.79 780.16 222.372 772.421 212.206H772.434ZM723.02 249.519L714.603 237.541L717.08 224.948L732.139 237.689L723.02 249.507V249.519Z" fill="white"/>
<path d="M691.5 148.5L691 149.5C689.412 149.5 679.5 255 678.5 263C677.69 269.48 674 266 707.5 272L711.5 285.5H602L605.5 269L618 267.5C622.61 256.7 627 184 631 148.5C673.5 136 672.5 148 691.5 148.5Z" fill="#96D8E8"/>
<path d="M730.056 339.511C729.538 339.511 729.07 339.191 728.885 338.673L706.175 272.402C706.101 272.193 706.088 271.971 706.138 271.761L715.872 223.099L722.268 167.82L717.548 164.209C684.265 138.812 637.722 138.75 604.365 164.073C600.421 167.068 596.971 170.641 594.112 174.696L564.23 217.098C564.032 217.369 563.749 217.554 563.416 217.603C563.084 217.652 562.751 217.579 562.492 217.381L494.606 166.92L477.478 178.614L482.469 184.32C487.065 189.581 492.487 193.981 498.562 197.419L499.868 198.158C500.004 198.232 500.127 198.343 500.226 198.466L545.758 256.161C551.168 263.025 559.276 267.276 568 267.83C576.725 268.385 585.301 265.181 591.537 259.057C591.894 258.699 592.449 258.601 592.904 258.81C593.373 259.02 593.656 259.488 593.631 259.993L593.237 267.461L605.794 267.042C606.176 267.017 606.533 267.19 606.78 267.473C607.026 267.756 607.125 268.151 607.051 268.52L592.683 338.501C592.547 339.166 591.894 339.598 591.229 339.462C590.563 339.327 590.132 338.673 590.267 338.008L604.315 269.556L591.98 269.962C591.635 269.987 591.303 269.839 591.056 269.593C590.81 269.346 590.686 269.013 590.711 268.668L591.019 262.827C584.55 268.114 576.257 270.812 567.84 270.283C558.413 269.691 549.664 265.095 543.811 257.689L498.426 200.179L497.33 199.563C491.008 195.989 485.377 191.405 480.596 185.934L474.693 179.181C474.459 178.922 474.348 178.565 474.397 178.22C474.447 177.875 474.631 177.554 474.927 177.357L493.929 164.382C494.36 164.086 494.939 164.098 495.358 164.406L562.936 214.633L592.091 173.266C595.098 169.003 598.721 165.244 602.873 162.102C637.106 136.113 684.869 136.175 719.039 162.237L724.326 166.267C724.671 166.526 724.856 166.957 724.806 167.388L718.312 223.469L708.627 271.909L731.227 337.872C731.448 338.513 731.103 339.216 730.462 339.437C730.327 339.487 730.191 339.499 730.068 339.499L730.056 339.511Z" fill="#18292D"/>
<path d="M592.413 261.188C592.413 261.188 592.29 261.188 592.228 261.176C591.55 261.077 591.094 260.449 591.193 259.771L602.776 182.841C602.875 182.163 603.503 181.719 604.181 181.806C604.859 181.904 605.315 182.533 605.216 183.21L593.633 260.141C593.547 260.757 593.017 261.188 592.413 261.188Z" fill="#18292D"/>
<path d="M596.577 232.452C595.973 232.452 595.443 231.996 595.357 231.38C592.72 211.602 572.35 205.577 572.141 205.527C571.488 205.342 571.106 204.665 571.291 204.012C571.476 203.358 572.153 202.976 572.806 203.161C573.028 203.223 594.938 209.655 597.797 231.06C597.883 231.738 597.415 232.354 596.737 232.44C596.688 232.44 596.626 232.44 596.577 232.44V232.452Z" fill="#18292D"/>
<path d="M605.843 269.531C605.178 269.531 604.636 269.013 604.611 268.348C604.587 267.67 605.116 267.091 605.794 267.066L617.254 266.648L630.575 149.52C630.649 148.843 631.277 148.35 631.943 148.436C632.621 148.51 633.101 149.126 633.027 149.804L619.583 267.978C619.509 268.582 619.016 269.05 618.4 269.075L605.893 269.543C605.893 269.543 605.856 269.543 605.843 269.543V269.531Z" fill="#18292D"/>
<path d="M707.346 273.227C707.346 273.227 707.235 273.227 707.173 273.227L677.981 269.062C677.328 268.964 676.86 268.372 676.933 267.707L689.441 150.925C689.515 150.247 690.119 149.754 690.796 149.828C691.474 149.902 691.967 150.506 691.893 151.184L679.509 266.783L707.531 270.788C708.208 270.886 708.677 271.502 708.578 272.18C708.492 272.796 707.962 273.24 707.358 273.24L707.346 273.227Z" fill="#18292D"/>
<path d="M756.957 194.19L772.509 214.608C779.138 223.32 777.931 235.68 769.724 242.926L737.056 271.785C729.564 278.403 718.363 278.575 710.673 272.192L698.708 262.272L692.276 263.689C689.75 264.244 687.125 263.418 685.375 261.533L684.34 260.424L695.775 253.93L706.595 256.863L695.159 248.052L687.938 246.45C684.771 245.748 682.405 243.111 682.048 239.894L681.728 237.085L685.129 237.393V232.599L699.731 232.131L704.598 237.689L695.973 224.922C694.272 222.408 694.679 219.032 696.921 216.999L698.117 215.914L723.144 250.208L733.113 237.467L722.22 228.89L757.007 194.177L756.957 194.19Z" fill="white"/>
<path d="M723.613 278.132C718.758 278.132 713.89 276.468 709.873 273.141L698.376 263.604L692.535 264.897C689.602 265.538 686.509 264.577 684.464 262.371L683.428 261.262C683.17 260.991 683.059 260.609 683.12 260.24C683.182 259.87 683.404 259.537 683.724 259.352L695.16 252.871C695.443 252.71 695.776 252.673 696.096 252.76L700.914 254.066L694.63 249.223L687.667 247.683C683.995 246.869 681.235 243.801 680.816 240.067L680.496 237.258C680.459 236.888 680.582 236.518 680.841 236.26C681.1 235.988 681.469 235.853 681.839 235.89L683.897 236.075V232.637C683.897 231.971 684.427 231.429 685.092 231.404L698.548 230.973L694.95 225.65C692.929 222.655 693.41 218.552 696.096 216.124L697.291 215.04C697.55 214.806 697.895 214.695 698.24 214.732C698.585 214.769 698.906 214.954 699.115 215.237L723.181 248.213L731.388 237.726L721.469 229.913C720.939 229.494 720.84 228.718 721.259 228.188C721.678 227.658 722.454 227.56 722.984 227.979L733.878 236.555C734.407 236.974 734.506 237.751 734.087 238.281L724.118 251.022C723.884 251.33 723.502 251.515 723.132 251.49C722.75 251.49 722.38 251.293 722.159 250.985L697.945 217.8L697.772 217.96C695.998 219.575 695.665 222.298 697.008 224.282L705.634 237.061C706.004 237.603 705.88 238.33 705.363 238.724C704.845 239.118 704.106 239.045 703.687 238.564L699.202 233.438L686.374 233.844V237.443C686.374 237.788 686.226 238.12 685.967 238.354C685.708 238.589 685.375 238.699 685.018 238.675L683.12 238.502L683.268 239.809C683.576 242.507 685.56 244.713 688.21 245.304L695.443 246.906C695.616 246.943 695.788 247.017 695.924 247.128L707.359 255.939C707.827 256.296 707.975 256.937 707.716 257.467C707.458 257.997 706.854 258.268 706.287 258.108L695.961 255.31L686.324 260.782C687.778 262.322 689.96 263.012 692.03 262.544L698.462 261.127C698.832 261.041 699.226 261.127 699.51 261.386L711.475 271.305C718.745 277.343 729.17 277.171 736.256 270.923L768.923 242.064C776.613 235.274 777.759 223.567 771.548 215.41L755.997 194.991C755.59 194.449 755.689 193.672 756.231 193.266C756.773 192.859 757.549 192.958 757.956 193.5L773.507 213.919C780.494 223.099 779.2 236.272 770.55 243.912L737.882 272.772C733.791 276.382 728.714 278.194 723.637 278.194L723.613 278.132Z" fill="#18292D"/>
<path d="M733.064 238.712C732.78 238.712 732.497 238.614 732.275 238.416C731.758 237.973 731.684 237.197 732.127 236.679L744.635 221.842C745.078 221.325 745.855 221.251 746.372 221.695C746.89 222.138 746.964 222.915 746.52 223.432L734.013 238.269C733.766 238.552 733.421 238.712 733.076 238.712H733.064Z" fill="#18292D"/>
<path d="M708.739 249.137C708.455 249.137 708.159 249.038 707.925 248.829L697.34 239.599L685.005 238.626C684.327 238.576 683.822 237.972 683.871 237.295C683.921 236.617 684.525 236.112 685.202 236.161L697.944 237.159C698.203 237.184 698.462 237.282 698.659 237.455L709.552 246.956C710.069 247.399 710.119 248.188 709.675 248.693C709.429 248.977 709.084 249.112 708.751 249.112L708.739 249.137Z" fill="#18292D"/>
<path d="M712.214 287.14H602.382C601.704 287.14 601.149 286.585 601.149 285.908C601.149 285.23 601.704 284.675 602.382 284.675H712.214C712.891 284.675 713.446 285.23 713.446 285.908C713.446 286.585 712.891 287.14 712.214 287.14Z" fill="#18292D"/>
<path d="M649.97 131.517C631.387 129.706 617.783 113.181 619.594 94.5984L620.63 83.9147C622.441 65.3321 638.966 51.7278 657.548 53.5393C676.131 55.3507 689.735 71.8754 687.924 90.458L686.889 101.142C685.077 119.724 668.552 133.329 649.97 131.517Z" fill="#18292D"/>
<path d="M660.063 113.23C644.549 111.727 633.2 97.9257 634.703 82.4114L635.258 76.669C636.761 61.1548 650.562 49.8056 666.077 51.309C681.591 52.8123 692.94 66.6137 691.437 82.128L690.882 87.8704C689.379 103.385 675.577 114.734 660.063 113.23Z" fill="#18292D"/>
<path d="M691.436 86.4038C681.418 83.6928 669.834 82.0416 657.475 81.8321C642.799 81.5856 620.347 96.7795 619.817 102.226C618.56 115.103 610.525 125.652 599.645 130.618C612.14 138.861 632.805 144.456 656.292 144.838C687.246 145.355 713.642 136.68 723.019 124.234C706.766 117.999 694.788 103.619 691.436 86.3915V86.4038Z" fill="#18292D"/>
<path d="M597.513 128.511C597.02 128.511 596.552 128.215 596.367 127.722C596.121 127.094 596.429 126.379 597.069 126.12C608.16 121.783 616.182 111.715 617.993 99.8483C618.092 99.1706 618.733 98.7146 619.398 98.8132C620.076 98.9118 620.532 99.5402 620.433 100.218C618.486 112.96 609.873 123.754 597.969 128.412C597.821 128.474 597.673 128.499 597.525 128.499L597.513 128.511Z" fill="#18292D"/>
<path d="M694.332 79.5771C693.716 79.5771 693.186 79.1089 693.112 78.4804C692.188 70.2488 688.91 63.8534 683.365 59.4788C677.511 54.8578 669.07 52.689 660.777 53.6995C660.112 53.7981 659.483 53.3052 659.409 52.6274C659.323 51.9497 659.804 51.3335 660.481 51.2596C669.403 50.1752 678.534 52.5288 684.893 57.5565C690.968 62.3623 694.554 69.3123 695.564 78.2093C695.638 78.887 695.158 79.4909 694.48 79.5771C694.43 79.5771 694.381 79.5771 694.344 79.5771H694.332Z" fill="#18292D"/>
<path d="M685.053 96.1267L691.313 94.9067C695.133 94.1674 697.622 90.4706 696.883 86.6505C696.144 82.8305 692.447 80.3413 688.627 81.0807L682.367 82.3006C678.547 83.04 676.058 86.7368 676.797 90.5568C677.536 94.3768 681.233 96.866 685.053 96.1267Z" fill="white"/>
<path d="M683.686 97.4949C682.059 97.4949 680.457 97.0143 679.077 96.0778C677.241 94.8455 676.009 92.9724 675.577 90.7913C674.702 86.3182 677.635 81.9683 682.121 81.0934L688.38 79.8734C690.549 79.4545 692.755 79.8981 694.591 81.1303C696.427 82.3626 697.659 84.2357 698.091 86.4168C698.966 90.8899 696.033 95.2521 691.547 96.1147L685.288 97.3347C684.758 97.4332 684.215 97.4949 683.686 97.4949ZM689.958 82.1901C689.588 82.1901 689.206 82.2271 688.836 82.301L682.577 83.5209C679.434 84.1371 677.376 87.1931 677.98 90.3354C678.276 91.8634 679.151 93.1696 680.432 94.0445C681.714 94.9194 683.267 95.2275 684.795 94.9317L691.055 93.7118C694.197 93.0957 696.255 90.0396 695.651 86.8974C695.355 85.3693 694.48 84.0631 693.199 83.1882C692.225 82.5351 691.104 82.1901 689.958 82.1901Z" fill="#18292D"/>
<path d="M631.424 104.506L625.09 103.779C621.221 103.336 618.461 99.8359 618.904 95.9789C619.348 92.1095 622.847 89.3493 626.704 89.7929L633.038 90.5199C636.895 90.9635 639.668 94.4632 639.224 98.3202C638.781 102.189 635.281 104.95 631.424 104.506Z" fill="white"/>
<path d="M632.25 105.788C631.93 105.788 631.609 105.763 631.277 105.726L624.943 104.999C622.749 104.74 620.778 103.656 619.41 101.918C618.042 100.181 617.426 98.0243 617.672 95.8308C617.931 93.6374 619.015 91.6658 620.753 90.298C622.49 88.9301 624.647 88.314 626.84 88.5605L633.174 89.2875C635.368 89.5463 637.339 90.6307 638.707 92.3682C640.075 94.1057 640.691 96.2621 640.445 98.4556C640.186 100.649 639.101 102.621 637.364 103.988C635.885 105.159 634.098 105.775 632.238 105.775L632.25 105.788ZM625.892 90.9634C624.585 90.9634 623.328 91.3947 622.293 92.2203C621.073 93.1815 620.309 94.5616 620.124 96.1019C619.952 97.6423 620.383 99.158 621.344 100.378C622.306 101.598 623.686 102.362 625.226 102.547L631.56 103.274C634.739 103.643 637.635 101.351 638.005 98.1722C638.177 96.6318 637.746 95.1161 636.785 93.8962C635.824 92.6762 634.443 91.9122 632.903 91.7397L626.569 91.0127C626.347 90.988 626.113 90.9757 625.892 90.9757V90.9634Z" fill="#18292D"/>
<path d="M663.87 166.045C651.856 166.735 641.554 157.543 640.876 145.528L639.299 117.777C638.621 105.763 647.802 95.461 659.816 94.7833C671.831 94.1055 682.133 103.286 682.81 115.301L684.388 143.051C685.078 155.066 675.885 165.368 663.87 166.045Z" fill="white"/>
<path d="M662.601 167.314C656.945 167.314 651.56 165.269 647.296 161.461C642.712 157.37 639.989 151.726 639.631 145.589L638.054 117.839C637.709 111.702 639.767 105.787 643.858 101.203C647.949 96.619 653.593 93.8957 659.729 93.5507C672.41 92.836 683.303 102.559 684.03 115.239L685.607 142.989C685.952 149.126 683.894 155.041 679.803 159.625C675.712 164.209 670.068 166.932 663.932 167.277C663.488 167.302 663.032 167.314 662.601 167.314ZM661.06 95.9783C660.666 95.9783 660.272 95.9783 659.877 96.0152C654.394 96.3233 649.354 98.7509 645.706 102.854C642.046 106.958 640.21 112.232 640.518 117.715L642.096 145.466C642.404 150.95 644.831 155.99 648.935 159.637C653.038 163.297 658.3 165.133 663.796 164.825C669.28 164.517 674.32 162.089 677.967 157.986C681.627 153.883 683.463 148.608 683.155 143.125L681.578 115.374C680.961 104.444 671.867 95.9783 661.06 95.9783Z" fill="#18292D"/>
<path d="M655.257 132.023C639.595 130.495 628.122 116.57 629.65 100.895L630.525 91.8876C632.053 76.2255 645.978 64.7531 661.652 66.2811C677.314 67.8091 688.787 81.7337 687.259 97.4082L686.384 106.416C684.856 122.078 670.931 133.551 655.257 132.023Z" fill="white"/>
<path d="M629.269 89.793V89.8423C634.617 86.9342 639.472 75.4617 640.84 61.3769V61.3276C635.492 64.2358 630.636 75.7082 629.269 89.793Z" fill="#18292D"/>
<path d="M657.992 133.391C657.043 133.391 656.082 133.341 655.133 133.255C640.075 131.789 628.529 119.294 628.282 104.198C628.282 103.521 628.812 102.954 629.49 102.941H629.514C630.18 102.941 630.734 103.484 630.747 104.149C630.981 118 641.566 129.46 655.38 130.803C661.615 131.419 667.9 129.842 673.1 126.379C673.667 125.997 674.431 126.157 674.813 126.724C675.195 127.291 675.034 128.055 674.468 128.437C669.588 131.678 663.833 133.403 658.005 133.403L657.992 133.391Z" fill="#18292D"/>
<path d="M687.234 91.8998C686.593 91.8998 686.051 91.4069 686.002 90.7538C685.669 85.8987 689.785 83.8901 689.957 83.8039C690.573 83.5081 691.313 83.7792 691.596 84.383C691.892 84.9992 691.633 85.7262 691.017 86.0219C690.894 86.0835 688.244 87.4267 688.454 90.569C688.503 91.2468 687.986 91.8382 687.308 91.8875C687.283 91.8875 687.246 91.8875 687.222 91.8875L687.234 91.8998Z" fill="#18292D"/>
<path d="M628.837 100.464C628.16 100.464 627.605 99.9215 627.605 99.2437C627.58 96.0891 624.82 94.9431 624.697 94.8938C624.068 94.6474 623.76 93.9327 624.007 93.3042C624.253 92.6757 624.956 92.3553 625.596 92.6018C625.781 92.6757 630.033 94.3639 630.07 99.2191C630.07 99.8968 629.527 100.451 628.85 100.464H628.837Z" fill="#18292D"/>
<path d="M651.684 85.9233C651.992 87.057 649.712 88.6712 646.582 89.5461C643.453 90.4211 640.668 90.1992 640.347 89.0656C640.039 87.9319 642.319 86.3176 645.449 85.4427C648.579 84.5801 651.364 84.7896 651.684 85.9233Z" fill="#18292D"/>
<path d="M673.507 86.4654C673.31 87.6238 670.562 88.129 667.358 87.5868C664.154 87.0569 661.714 85.6768 661.912 84.5185C662.109 83.3601 664.857 82.8549 668.061 83.3971C671.264 83.9393 673.704 85.3071 673.507 86.4654Z" fill="#18292D"/>
<path d="M642.971 96.8778C642.688 96.8778 642.405 96.7792 642.17 96.5821C641.653 96.1385 641.591 95.3621 642.023 94.8446C645.153 91.1478 649.539 92.6881 651.425 94.019C651.979 94.4133 652.115 95.1773 651.72 95.7318C651.326 96.2863 650.562 96.4219 650.008 96.0276C649.638 95.7688 646.311 93.5877 643.908 96.4342C643.661 96.7176 643.316 96.8655 642.971 96.8655V96.8778Z" fill="#18292D"/>
<path d="M664.783 95.3871C664.499 95.3871 664.216 95.2885 663.982 95.0914C663.464 94.6477 663.403 93.8714 663.834 93.3539C666.964 89.6571 671.351 91.1974 673.236 92.5282C673.791 92.9226 673.926 93.6866 673.532 94.2411C673.138 94.7956 672.374 94.9312 671.819 94.5368C671.449 94.2781 668.122 92.0969 665.719 94.9435C665.473 95.2269 665.128 95.3748 664.783 95.3748V95.3871Z" fill="#18292D"/>
<path d="M658.696 105.147C658.609 105.147 658.535 105.147 658.449 105.122C657.044 104.839 655.824 103.976 655.097 102.744C654.37 101.512 654.198 100.021 654.617 98.6652L656.897 91.3332C657.094 90.6801 657.784 90.3228 658.437 90.5199C659.09 90.7171 659.447 91.4072 659.25 92.0603L656.97 99.3923C656.749 100.107 656.835 100.846 657.217 101.487C657.599 102.128 658.203 102.559 658.942 102.707C659.608 102.843 660.039 103.496 659.903 104.161C659.78 104.74 659.275 105.147 658.696 105.147Z" fill="#18292D"/>
<path d="M659.496 111.875C658.473 111.875 657.426 111.604 656.354 111.062C655.75 110.754 655.504 110.014 655.812 109.411C656.12 108.807 656.859 108.56 657.463 108.868C658.671 109.484 659.743 109.571 660.753 109.164C663.279 108.129 664.598 104.321 664.61 104.284C664.832 103.644 665.522 103.299 666.175 103.508C666.816 103.73 667.161 104.42 666.951 105.061C666.89 105.258 665.275 109.977 661.702 111.444C660.987 111.74 660.26 111.887 659.508 111.887L659.496 111.875Z" fill="#18292D"/>
<path d="M646.73 72.5652C644.845 77.7654 641.493 81.3266 639.226 80.5133C636.958 79.7001 636.65 74.8203 638.535 69.6078C640.421 64.4076 643.773 60.8464 646.04 61.6596C648.307 62.4729 648.615 67.3527 646.73 72.5652Z" fill="#18292D"/>
<path d="M656.182 67.5993C659.694 71.8753 661.037 76.5702 659.189 78.0982C657.34 79.6262 652.978 77.4081 649.466 73.1322C645.954 68.8562 644.611 64.1613 646.46 62.6333C648.32 61.1052 652.67 63.3233 656.182 67.5993Z" fill="#18292D"/>
<path d="M669.194 63.5082C675.897 68.3017 679.631 74.537 677.548 77.4452C675.466 80.3533 668.343 78.8376 661.652 74.0564C654.949 69.2629 651.215 63.0276 653.297 60.1195C655.38 57.2113 662.502 58.727 669.194 63.5082Z" fill="#18292D"/>
<path d="M496.58 126H433.42C427.665 126 423 134.487 423 144.956V207.044C423 217.513 427.665 226 433.42 226H496.58C502.335 226 507 217.513 507 207.044V144.956C507 134.487 502.335 126 496.58 126Z" fill="#4A7C88"/>
<path d="M448.425 155.485C451.487 155.485 453.969 152.914 453.969 149.742C453.969 146.571 451.487 144 448.425 144C445.363 144 442.881 146.571 442.881 149.742C442.881 152.914 445.363 155.485 448.425 155.485Z" fill="white" stroke="white" stroke-width="1.92861" stroke-linecap="round" stroke-linejoin="round"/>
<path d="M451.833 158.915C449.141 158.824 446.807 158.915 444.848 158.9C439.738 158.877 438.617 165.581 438.015 169.294C437.908 169.935 438.403 170.522 439.059 170.515L457.942 170.499C458.59 170.499 459.086 169.927 458.986 169.287C458.43 165.634 457.499 159.106 451.833 158.908V158.915Z" fill="white" stroke="white" stroke-width="1.92861" stroke-linecap="round" stroke-linejoin="round"/>
<path d="M439 191H484" stroke="white" stroke-width="2.9403" stroke-linecap="round" stroke-linejoin="round"/>
<path d="M439 199H479" stroke="white" stroke-width="2.9403" stroke-linecap="round" stroke-linejoin="round"/>
<path d="M439 208H472" stroke="white" stroke-width="2.9403" stroke-linecap="round" stroke-linejoin="round"/>
<path d="M525.832 195.842C524.612 181.597 520.299 167.783 513.213 155.362L511.624 152.577L493.818 149.841C490.922 149.398 488.556 152.146 489.443 154.943C490.564 158.492 493.349 161.277 496.898 162.398L502.973 164.32C501.421 170.161 502.69 176.384 506.411 181.141L511.624 187.795L525.832 195.83V195.842Z" fill="white"/>
<path d="M525.82 197.074C525.192 197.074 524.65 196.593 524.588 195.94C523.393 181.966 519.08 168.153 512.117 155.978L510.823 153.71L493.609 151.061C492.672 150.913 491.748 151.258 491.12 151.985C490.503 152.7 490.306 153.674 490.59 154.585C491.588 157.752 494.077 160.242 497.244 161.24L503.319 163.162C503.947 163.359 504.305 164.012 504.145 164.653C502.691 170.087 503.898 175.965 507.361 180.401L512.573 187.056C512.992 187.586 512.894 188.362 512.364 188.781C511.834 189.2 511.058 189.101 510.639 188.571L505.426 181.917C501.729 177.198 500.3 171.012 501.495 165.171L496.517 163.593C492.586 162.349 489.493 159.256 488.248 155.325C487.706 153.6 488.076 151.751 489.259 150.383C490.429 149.016 492.204 148.362 493.991 148.634L511.797 151.369C512.167 151.431 512.499 151.653 512.684 151.973L514.274 154.758C521.409 167.241 525.833 181.412 527.052 195.743C527.114 196.421 526.609 197.012 525.931 197.074C525.894 197.074 525.857 197.074 525.82 197.074Z" fill="#18292D"/>
<path d="M595.493 321.434C594.889 321.434 594.359 320.991 594.273 320.375C594.174 319.697 594.643 319.081 595.32 318.982C622.566 315.026 621.223 288.508 621.149 287.374C621.112 286.697 621.617 286.105 622.295 286.068C622.972 286.019 623.564 286.536 623.601 287.214C623.625 287.51 625.19 317.134 595.665 321.422C595.604 321.422 595.542 321.434 595.48 321.434H595.493Z" fill="#18292D"/>
<path d="M720.334 320.153C694.469 320.153 687.962 287.399 687.901 287.054C687.778 286.389 688.209 285.748 688.887 285.612C689.564 285.489 690.205 285.92 690.328 286.598C690.341 286.684 691.98 295.101 696.872 303.098C703.292 313.622 712.041 318.489 722.848 317.577C723.526 317.516 724.117 318.021 724.179 318.699C724.24 319.376 723.735 319.968 723.057 320.03C722.133 320.103 721.234 320.14 720.346 320.14L720.334 320.153Z" fill="#18292D"/>
<path d="M722.17 230.136C721.825 230.136 721.492 229.988 721.258 229.741L716.156 224.184C715.701 223.679 715.725 222.902 716.23 222.446C716.736 221.99 717.512 222.015 717.968 222.52L721.923 226.846C730.056 212.995 741.664 201.51 755.614 193.537L722.798 168.264C722.256 167.845 722.158 167.081 722.577 166.538C722.996 165.996 723.76 165.898 724.302 166.317L758.596 192.736C758.928 192.995 759.101 193.39 759.076 193.796C759.052 194.203 758.805 194.585 758.448 194.782L757.548 195.287C743.18 203.334 731.313 215.176 723.242 229.532C723.045 229.877 722.7 230.111 722.305 230.148C722.256 230.148 722.207 230.148 722.17 230.148V230.136Z" fill="#18292D"/>
<defs>
<clipPath id="clip0_711_9216">
<rect width="62.3918" height="64" fill="white" transform="translate(242 250)"/>
</clipPath>
<clipPath id="clip1_711_9216">
<rect width="59" height="64.1966" fill="white" transform="translate(944 137)"/>
</clipPath>
</defs>
</svg>
