<svg width="65" height="65" viewBox="0 0 65 65" fill="none" xmlns="http://www.w3.org/2000/svg">
<path d="M6.5 40.903L6.5 12.9329C6.5 11.772 7.44353 10.8334 8.59948 10.8334H56.6011C57.762 10.8334 58.7006 11.7769 58.7006 12.9329V40.903C58.7006 42.0638 57.7571 43.0024 56.6011 43.0024H8.60442C7.44353 43.0024 6.50494 42.0589 6.50494 40.903H6.5Z" fill="#18292D" stroke="#18292D" stroke-width="1.2" stroke-linecap="round" stroke-linejoin="round"/>
<path d="M12.0474 29.2398C13.3297 29.2398 14.3692 28.2003 14.3692 26.918C14.3692 25.6357 13.3297 24.5962 12.0474 24.5962C10.7651 24.5962 9.72559 25.6357 9.72559 26.918C9.72559 28.2003 10.7651 29.2398 12.0474 29.2398Z" fill="white" stroke="#18292D" stroke-width="1.2" stroke-linecap="round" stroke-linejoin="round"/>
<path d="M14.3741 19.4436H9.72559V21.7753H14.3741V19.4436Z" fill="white" stroke="#18292D" stroke-width="1.2" stroke-linecap="round" stroke-linejoin="round"/>
<path d="M14.3741 32.0605H9.72559V34.3922H14.3741V32.0605Z" fill="white" stroke="#18292D" stroke-width="1.2" stroke-linecap="round" stroke-linejoin="round"/>
<path d="M14.3741 14.2913H9.72559V16.6229H14.3741V14.2913Z" fill="white" stroke="#18292D" stroke-width="1.2" stroke-linecap="round" stroke-linejoin="round"/>
<path d="M14.3741 37.2078H9.72559V39.5394H14.3741V37.2078Z" fill="white" stroke="#18292D" stroke-width="1.2" stroke-linecap="round" stroke-linejoin="round"/>
<path d="M17.2251 14.2913V39.5444H55.4802V14.2913L17.2251 14.2913Z" fill="white" stroke="#18292D" stroke-width="1.2" stroke-linecap="round" stroke-linejoin="round"/>
<path d="M19.1118 18.4802V16.1782H21.4138" stroke="#18292D" stroke-width="1.2" stroke-linecap="round" stroke-linejoin="round"/>
<path d="M53.5926 18.4802V16.1782H51.2905" stroke="#18292D" stroke-width="1.2" stroke-linecap="round" stroke-linejoin="round"/>
<path d="M19.1118 35.3555V37.6575H21.4138" stroke="#18292D" stroke-width="1.2" stroke-linecap="round" stroke-linejoin="round"/>
<path d="M53.5926 35.3555V37.6575H51.2905" stroke="#18292D" stroke-width="1.2" stroke-linecap="round" stroke-linejoin="round"/>
<path d="M50.125 50.0815H51.607C52.7333 50.0815 53.6472 50.9954 53.6472 52.1218C53.6472 53.2481 52.7333 54.162 51.607 54.162H50.125V50.0815Z" stroke="#18292D" stroke-width="1.2" stroke-linecap="round" stroke-linejoin="round"/>
<path d="M20.2185 54.167L50.125 54.167V50.0866H20.2185V54.167Z" fill="white" stroke="#18292D" stroke-width="1.2" stroke-linecap="round" stroke-linejoin="round"/>
<path d="M24.1016 52.1267H25.6725" stroke="#18292D" stroke-width="1.2" stroke-linecap="round" stroke-linejoin="round"/>
<path d="M27.9639 52.1267H30.8488" stroke="#18292D" stroke-width="1.2" stroke-linecap="round" stroke-linejoin="round"/>
<path d="M20.2187 50.0815L13.8017 51.4894C13.1645 51.6278 13.1595 52.5367 13.7968 52.6849L20.2187 54.162V50.0815Z" fill="white" stroke="#18292D" stroke-width="1.2" stroke-linecap="round" stroke-linejoin="round"/>
</svg>
