<svg width="200" height="200" viewBox="0 0 200 200" fill="none" xmlns="http://www.w3.org/2000/svg">
<g clip-path="url(#clip0_756_8103)">
<path d="M85.5176 26.3512C110.47 24.3918 134.427 32.4901 151.375 43.5174C168.49 54.7633 178.59 68.9404 179.694 84.0907C180.805 99.3875 173.132 113.916 161.764 128.267C150.242 142.401 135.025 156.36 117.585 165.407C83.8759 184.323 45.252 169.011 26.8411 123.294C8.41048 77.8664 34.2109 28.9608 85.5176 26.3512Z" fill="#EEF9FB"/>
<path d="M122.213 45.6333H15.7636C12.3782 45.6333 9.63379 48.3777 9.63379 51.7631V118.615C9.63379 122.001 12.3782 124.745 15.7636 124.745H122.213C125.598 124.745 128.343 122.001 128.343 118.615V51.7631C128.343 48.3777 125.598 45.6333 122.213 45.6333Z" fill="white"/>
<path d="M122.212 125.378H15.7631C12.0333 125.378 9 122.345 9 118.615V51.7631C9 48.0333 12.0333 45 15.7631 45H122.212C125.942 45 128.975 48.0333 128.975 51.7631V118.615C128.975 122.345 125.942 125.378 122.212 125.378ZM15.7631 46.2665C12.7362 46.2665 10.2665 48.7362 10.2665 51.7631V118.615C10.2665 121.648 12.7362 124.112 15.7631 124.112H122.212C125.245 124.112 127.709 121.642 127.709 118.615V51.7631C127.709 48.7298 125.239 46.2665 122.212 46.2665H15.7631Z" fill="#18292D"/>
<path d="M17.4727 55.1323C15.9022 55.1323 14.623 53.8532 14.623 52.2827C14.623 50.7123 15.9022 49.4331 17.4727 49.4331C19.0431 49.4331 20.3223 50.7123 20.3223 52.2827C20.3223 53.8532 19.0431 55.1323 17.4727 55.1323ZM17.4727 50.6996C16.5988 50.6996 15.8895 51.4088 15.8895 52.2827C15.8895 53.1566 16.5988 53.8658 17.4727 53.8658C18.3465 53.8658 19.0558 53.1566 19.0558 52.2827C19.0558 51.4088 18.3465 50.6996 17.4727 50.6996Z" fill="#18292D"/>
<path d="M24.9326 55.1323C23.3622 55.1323 22.083 53.8532 22.083 52.2827C22.083 50.7123 23.3622 49.4331 24.9326 49.4331C26.5031 49.4331 27.7822 50.7123 27.7822 52.2827C27.7822 53.8532 26.5031 55.1323 24.9326 55.1323ZM24.9326 50.6996C24.0587 50.6996 23.3495 51.4088 23.3495 52.2827C23.3495 53.1566 24.0587 53.8658 24.9326 53.8658C25.8065 53.8658 26.5157 53.1566 26.5157 52.2827C26.5157 51.4088 25.8065 50.6996 24.9326 50.6996Z" fill="#18292D"/>
<path d="M32.3916 55.1323C30.8212 55.1323 29.542 53.8532 29.542 52.2827C29.542 50.7123 30.8212 49.4331 32.3916 49.4331C33.9621 49.4331 35.2412 50.7123 35.2412 52.2827C35.2412 53.8532 33.9621 55.1323 32.3916 55.1323ZM32.3916 50.6996C31.5177 50.6996 30.8085 51.4088 30.8085 52.2827C30.8085 53.1566 31.5177 53.8658 32.3916 53.8658C33.2655 53.8658 33.9747 53.1566 33.9747 52.2827C33.9747 51.4088 33.2655 50.6996 32.3916 50.6996Z" fill="#18292D"/>
<path d="M12.3184 123.681C13.2999 124.352 14.4841 124.745 15.7632 124.745H79.4681L79.3984 119.305C79.3097 112.321 74.972 106.096 68.4495 103.594L49.2114 96.2234L30.0557 100.688C23.9448 102.113 18.9421 106.469 16.6878 112.327L12.3184 123.687V123.681Z" fill="#18292D"/>
<path d="M57.2668 86.9784L50.6493 85.8702C43.0377 84.5974 37.8577 77.3341 39.1242 69.7224L39.5611 67.1008C41.1569 57.5704 50.2567 51.0796 59.7808 52.6754L60.0657 55.4173C66.0373 56.4179 70.1091 62.1171 69.1085 68.095L67.1265 79.943C66.3476 84.5911 61.9085 87.7573 57.2604 86.9848L57.2668 86.9784Z" fill="#18292D"/>
<path d="M70.5887 78.2923C74.1123 70.9215 70.6073 61.9051 62.7599 58.1537C54.9126 54.4024 45.6947 57.3365 42.1711 64.7074C38.6475 72.0782 42.1525 81.0946 49.9998 84.8459C57.8471 88.5973 67.0651 85.6632 70.5887 78.2923Z" fill="#18292D"/>
<path d="M58.3308 100.41C54.5756 97.4333 52.4036 92.6396 53.0115 87.5356L53.5687 82.8369L66.0374 84.2934L58.3308 100.416V100.41Z" fill="#18292D"/>
<path d="M51.8779 71.7173C53.1191 66.8223 57.2542 62.9595 62.1049 62.5986C65.1255 62.3706 67.8231 63.5484 69.6849 65.6128C68.3867 65.1379 64.6569 64.0234 62.8775 65.9928C60.7054 68.3991 58.0394 73.7057 51.8843 71.7237L51.8779 71.7173Z" fill="#18292D"/>
<path d="M77.1633 67.8164C76.5238 71.6539 72.8889 74.2438 69.0578 73.6043C65.2203 72.9647 62.6303 69.3298 63.2699 65.4987C63.9094 61.6612 67.5443 59.0712 71.3755 59.7108C75.2066 60.3504 77.8029 63.9852 77.1633 67.8164Z" fill="#18292D"/>
<path d="M56.6596 54.3664C48.9846 54.0625 42.0885 59.3691 40.5244 67.0251C42.0315 68.4309 43.982 69.4377 46.2047 69.8114C51.9799 70.7802 57.4132 67.1074 58.3314 61.6108C58.7683 58.9955 58.1034 56.4308 56.6659 54.3664H56.6596Z" fill="#18292D"/>
<path d="M65.9485 60.851C65.3089 64.6885 61.6741 67.2785 57.8429 66.6389C54.0054 65.9993 51.4154 62.3645 52.055 58.5333C52.6946 54.6959 56.3295 52.1059 60.1606 52.7455C63.9918 53.385 66.5881 57.0199 65.9422 60.851H65.9485Z" fill="#18292D"/>
<path d="M73.992 62.5477C73.3334 66.4929 69.5972 69.1588 65.6521 68.5003C61.7069 67.8417 59.041 64.1055 59.6995 60.1604C60.3581 56.2152 64.0943 53.5493 68.0394 54.2078C71.9846 54.8664 74.6505 58.6026 73.992 62.5477Z" fill="#18292D"/>
<path d="M48.2756 58.7545C47.9589 58.7545 47.6803 58.5139 47.6486 58.191C47.4523 56.3229 45.35 55.487 45.3246 55.4806C45.0017 55.354 44.837 54.9867 44.9637 54.6638C45.0903 54.3345 45.4513 54.1762 45.7806 54.2965C45.8946 54.3408 48.6302 55.4047 48.9088 58.058C48.9468 58.4063 48.6935 58.7165 48.3452 58.7545C48.3199 58.7545 48.3009 58.7545 48.2756 58.7545Z" fill="#18292D"/>
<path d="M48.5854 58.6281C48.4334 58.6281 48.2815 58.5711 48.1612 58.4634C46.1854 56.6777 46.9326 53.8407 46.9643 53.7204C47.0593 53.3848 47.4076 53.1821 47.7432 53.2771C48.0788 53.3721 48.2815 53.7141 48.1865 54.056C48.1738 54.1067 47.6292 56.2724 49.0097 57.5262C49.2693 57.7605 49.2883 58.1595 49.054 58.4191C48.9274 58.5584 48.7564 58.6281 48.5854 58.6281Z" fill="#18292D"/>
<path d="M59.3003 102.918L57.4639 102.221L60.8138 95.2112C61.7383 95.4328 62.6946 95.5531 63.6888 95.5278C69.7299 95.3631 74.4983 90.3351 74.3337 84.294L74.2197 80.0829C75.4039 79.9182 76.3094 78.905 76.2841 77.6828C76.2587 76.448 75.2962 75.4601 74.093 75.3651L74.0614 74.1556C73.8967 68.1144 68.8687 63.3461 62.8275 63.5107C57.7299 63.65 53.5441 67.2469 52.4549 72.0026C50.4095 71.6733 48.3578 72.8258 47.6169 74.8459C46.9773 76.6063 47.5282 78.5061 48.8517 79.6712L39.486 99.2576L34.4073 100.543C33.9324 104.672 35.5472 109.58 39.1124 113.632C44.7799 120.073 53.2275 121.896 57.9768 117.717C61.694 114.443 62.0296 108.465 59.294 102.937L59.3003 102.918Z" fill="white"/>
<path d="M51.6691 120.566C47.2933 120.566 42.373 118.267 38.6432 114.037C35.0843 109.997 33.2669 104.918 33.7798 100.46C33.8115 100.201 34.0015 99.9853 34.2547 99.9156L39.0484 98.7061L48.0849 79.7973C46.7804 78.4168 46.3625 76.4348 47.021 74.6173C47.7809 72.534 49.801 71.2168 51.973 71.3055C53.3345 66.4484 57.7103 63.0036 62.8079 62.8706C65.9045 62.7819 68.8365 63.9091 71.0845 66.0368C73.3325 68.1645 74.6117 71.0395 74.694 74.1297L74.713 74.8263C75.9795 75.1746 76.8914 76.3145 76.9231 77.6633C76.9484 78.9931 76.0998 80.1583 74.8713 80.5699L74.9726 84.2681C75.055 87.3583 73.9341 90.2966 71.8064 92.5446C69.6787 94.7927 66.8037 96.0718 63.7135 96.1541C62.8776 96.1795 62.029 96.1035 61.1742 95.9325L58.3372 101.866L59.534 102.316C59.686 102.373 59.8063 102.487 59.876 102.626C62.8143 108.559 62.219 114.803 58.4069 118.16C56.5704 119.774 54.2147 120.553 51.6691 120.553V120.566ZM35.002 101.03C34.6917 105.039 36.3888 109.554 39.5994 113.195C45.0263 119.363 53.0939 121.167 57.571 117.222C60.9019 114.29 61.4021 108.768 58.8501 103.424L57.248 102.816C57.0834 102.753 56.9504 102.626 56.8871 102.461C56.8237 102.297 56.8301 102.113 56.9061 101.955L60.2559 94.9446C60.3826 94.6723 60.6866 94.533 60.9778 94.6027C61.8897 94.8243 62.8016 94.9193 63.6882 94.9003C66.4428 94.8243 69.0011 93.6845 70.8945 91.6834C72.7879 89.6823 73.7885 87.067 73.7188 84.3124L73.6048 80.1013C73.5985 79.7783 73.8328 79.4997 74.1494 79.4554C75.0296 79.335 75.6819 78.5752 75.6692 77.6949C75.6502 76.7957 74.96 76.0675 74.0544 75.9915C73.7315 75.9662 73.4845 75.7002 73.4718 75.3772L73.4402 74.1677C73.3642 71.4131 72.2243 68.8548 70.2233 66.9614C68.2222 65.068 65.6006 64.0738 62.8523 64.1371C58.1472 64.2637 54.1324 67.5503 53.0812 72.135C53.0052 72.458 52.695 72.6733 52.3657 72.6163C50.5799 72.3313 48.8448 73.3572 48.2242 75.0543C47.686 76.5298 48.1039 78.1509 49.2817 79.1831C49.497 79.373 49.5604 79.677 49.4337 79.9303L40.068 99.5167C39.9857 99.6877 39.8337 99.8143 39.65 99.8586L35.002 101.03Z" fill="#18292D"/>
<path d="M51.9861 78.3407C51.9418 78.3407 51.8911 78.3407 51.8405 78.3217C51.4985 78.2457 51.2896 77.9038 51.3655 77.5618C51.6822 76.1813 50.5803 75.4088 50.5676 75.4024C50.2764 75.2061 50.2067 74.8135 50.403 74.5222C50.5993 74.2309 50.9919 74.1613 51.2832 74.3576C51.3592 74.4082 53.107 75.6368 52.6004 77.8468C52.5307 78.1381 52.2711 78.3407 51.9861 78.3407Z" fill="#18292D"/>
<path d="M70.8185 82.0522C69.8623 82.0522 68.6022 81.5646 67.7726 79.7599C67.627 79.4432 67.7663 79.0633 68.0829 78.9176C68.3995 78.772 68.7795 78.9113 68.9251 79.2279C69.818 81.1657 71.1225 80.7604 71.2682 80.7097C71.5911 80.5894 71.9584 80.7541 72.0787 81.077C72.199 81.4 72.047 81.7609 71.7241 81.8876C71.4898 81.9762 71.1795 82.0459 70.8249 82.0459L70.8185 82.0522Z" fill="#18292D"/>
<path d="M71.3057 75.188C71.2234 75.7959 70.7548 76.2328 70.2482 76.1695C69.7416 76.1062 69.3996 75.5553 69.482 74.9473C69.5643 74.3394 70.0329 73.9025 70.5395 73.9658C71.0397 74.0291 71.388 74.5801 71.3057 75.188Z" fill="#18292D"/>
<path d="M70.6842 71.2928C70.8108 71.6537 70.1016 72.2363 69.101 72.5909C68.1005 72.9456 67.1823 72.9392 67.0557 72.5783C66.929 72.2173 67.6382 71.6347 68.6388 71.2801C69.6393 70.9255 70.5575 70.9318 70.6842 71.2928Z" fill="#18292D"/>
<path d="M59.1228 63.6687C54.3924 63.0417 49.8203 65.9294 48.4082 70.5774C49.2568 71.5336 50.4093 72.2682 51.7644 72.6291C55.2853 73.56 58.8568 71.5969 59.737 68.247C60.1613 66.6513 59.8953 65.0301 59.1228 63.6687Z" fill="#18292D"/>
<path d="M60.813 95.7362C60.756 95.7362 60.7053 95.7298 60.6483 95.7172C55.7343 94.4064 52.2071 89.9356 52.0678 84.8443C52.0551 84.496 52.3338 84.2047 52.6821 84.1921C53.0303 84.1731 53.3216 84.458 53.3343 84.8063C53.4546 89.3404 56.6019 93.3235 60.9776 94.4887C61.3132 94.5773 61.5159 94.9256 61.4272 95.2612C61.3512 95.5462 61.0979 95.7299 60.813 95.7299V95.7362Z" fill="#18292D"/>
<path d="M194.233 106.704H87.7841C84.3987 106.704 81.6543 109.449 81.6543 112.834V179.686C81.6543 183.072 84.3987 185.816 87.7841 185.816H194.233C197.619 185.816 200.363 183.072 200.363 179.686V112.834C200.363 109.449 197.619 106.704 194.233 106.704Z" fill="white"/>
<path d="M194.233 186.449H87.7836C84.0538 186.449 81.0205 183.416 81.0205 179.686V112.834C81.0205 109.104 84.0538 106.071 87.7836 106.071H194.233C197.963 106.071 200.996 109.104 200.996 112.834V179.68C200.996 183.41 197.963 186.443 194.233 186.443V186.449ZM87.7836 107.338C84.7503 107.338 82.287 109.807 82.287 112.834V179.68C82.287 182.713 84.7567 185.176 87.7836 185.176H194.233C197.266 185.176 199.729 182.707 199.729 179.68V112.834C199.729 109.801 197.26 107.338 194.233 107.338H87.7836Z" fill="#18292D"/>
<path d="M133.458 159.314C135.687 160.745 136.827 162.265 136.992 163.386C136.992 163.386 185.746 181.959 198.582 172.594C208.973 165.014 198.373 156.686 195.175 155.977C189.172 154.641 188.836 154.312 191.502 147.973C194.168 141.634 197.942 137.911 188.5 136.961C181.826 136.296 181.497 134.295 181.161 126.62C180.825 118.945 168.819 117.944 164.481 119.945C160.144 121.946 164.481 116.944 160.479 115.943C156.477 114.943 155.476 117.279 154.805 118.945C154.14 120.61 145.8 121.281 144.129 127.285C142.463 133.288 135.789 132.623 138.125 142.628C140.462 152.634 137.125 148.631 134.453 149.632C131.787 150.632 128.779 156.306 133.452 159.308L133.458 159.314Z" fill="#18292D"/>
<path d="M194.23 185.816C197.416 185.816 200.037 183.384 200.335 180.275L197.004 173.613C193.964 167.534 187.752 163.697 180.958 163.697H140.189C136.902 163.697 133.749 165.001 131.425 167.325C130.063 168.687 129.037 170.346 128.43 172.169L123.883 185.816H194.237H194.23Z" fill="white"/>
<path d="M194.231 186.449H123.877C123.674 186.449 123.484 186.354 123.364 186.183C123.243 186.018 123.212 185.803 123.275 185.613L127.822 171.966C128.455 170.06 129.544 168.3 130.969 166.875C133.432 164.412 136.7 163.057 140.183 163.057H180.951C188.031 163.057 194.395 166.989 197.568 173.322L200.899 179.983C200.949 180.091 200.975 180.211 200.962 180.325C200.633 183.815 197.732 186.443 194.231 186.443V186.449ZM124.757 185.182H194.231C197.023 185.182 199.335 183.137 199.683 180.389L196.434 173.892C193.483 167.99 187.55 164.323 180.951 164.323H140.183C137.042 164.323 134.091 165.545 131.868 167.768C130.583 169.054 129.601 170.643 129.025 172.365L124.751 185.182H124.757Z" fill="#18292D"/>
<path d="M171.15 137.64C172.661 128.248 166.272 119.41 156.88 117.899C147.488 116.387 138.649 122.776 137.138 132.168C135.627 141.56 142.016 150.399 151.408 151.91C160.8 153.421 169.639 147.032 171.15 137.64Z" fill="#18292D"/>
<path d="M174.891 140.773C174.137 140.615 173.383 140.665 172.693 140.88C173.96 134.212 170.578 127.475 164.379 124.555C156.735 120.952 147.623 124.391 144.267 132.142L142.424 136.384C139.479 143.173 143.564 150.949 150.827 152.374L152.151 152.634V163.715H145.533C147.762 169.839 153.93 174.246 161.187 174.246C168.444 174.246 174.612 169.839 176.841 163.715H168.742V152.228C169.73 151.228 170.477 149.968 170.838 148.511L170.901 148.251C171.49 148.828 172.244 149.252 173.111 149.429C175.505 149.917 177.842 148.378 178.329 145.984C178.823 143.591 177.278 141.254 174.884 140.766L174.891 140.773Z" fill="white"/>
<path d="M161.188 174.88C153.848 174.88 147.319 170.479 144.938 163.931C144.869 163.735 144.894 163.519 145.014 163.348C145.135 163.177 145.325 163.076 145.534 163.076H151.518V153.153L150.707 152.995C147.06 152.279 143.97 149.974 142.241 146.681C140.512 143.388 140.366 139.538 141.848 136.125L143.691 131.882C145.388 127.975 148.516 124.993 152.499 123.492C156.483 121.985 160.801 122.162 164.658 123.973C170.807 126.867 174.334 133.396 173.473 140.07C173.992 140.013 174.517 140.039 175.03 140.146C176.354 140.419 177.494 141.185 178.235 142.312C178.976 143.439 179.235 144.788 178.969 146.111C178.697 147.435 177.931 148.575 176.803 149.316C175.676 150.057 174.327 150.323 173.004 150.05C172.383 149.924 171.801 149.683 171.275 149.341C170.883 150.506 170.243 151.576 169.401 152.482V163.076H176.867C177.076 163.076 177.266 163.177 177.386 163.348C177.506 163.519 177.532 163.735 177.462 163.931C175.081 170.479 168.546 174.88 161.213 174.88H161.188ZM146.465 164.349C148.903 169.928 154.703 173.613 161.188 173.613C167.672 173.613 173.466 169.928 175.911 164.349H168.749C168.4 164.349 168.115 164.064 168.115 163.716V152.235C168.115 152.07 168.179 151.906 168.299 151.792C169.242 150.842 169.907 149.658 170.23 148.372L170.294 148.112C170.351 147.891 170.515 147.72 170.737 147.657C170.959 147.593 171.193 147.657 171.351 147.815C171.877 148.328 172.529 148.676 173.245 148.822C174.239 149.024 175.246 148.828 176.094 148.271C176.936 147.714 177.519 146.859 177.722 145.871C177.924 144.877 177.728 143.87 177.171 143.021C176.614 142.179 175.759 141.596 174.771 141.394C174.15 141.267 173.498 141.299 172.89 141.489C172.675 141.552 172.447 141.501 172.282 141.356C172.117 141.21 172.041 140.982 172.079 140.767C173.295 134.346 170.021 127.912 164.113 125.132C160.573 123.466 156.603 123.308 152.943 124.689C149.282 126.069 146.408 128.811 144.85 132.402L143.007 136.644C141.683 139.703 141.81 143.154 143.362 146.105C144.913 149.056 147.68 151.12 150.954 151.76L152.278 152.02C152.575 152.077 152.791 152.336 152.791 152.64V163.722C152.791 164.07 152.506 164.355 152.157 164.355H146.477L146.465 164.349Z" fill="#18292D"/>
<path d="M171.91 146.485C171.865 146.485 171.827 146.485 171.783 146.472C171.441 146.402 171.22 146.067 171.289 145.725C171.498 144.705 172.093 143.825 172.961 143.255C173.829 142.679 174.867 142.482 175.893 142.691C176.235 142.761 176.456 143.097 176.387 143.439C176.317 143.781 175.982 144.002 175.64 143.933C174.949 143.793 174.246 143.926 173.664 144.312C173.075 144.699 172.676 145.294 172.537 145.978C172.473 146.276 172.214 146.485 171.916 146.485H171.91Z" fill="#18292D"/>
<path d="M150.582 136.695C150.43 136.695 150.284 136.644 150.164 136.537C149.905 136.302 149.879 135.903 150.114 135.644L152.558 132.889C153.185 132.18 153.476 131.243 153.349 130.305C153.229 129.368 152.704 128.532 151.912 128.013C151.893 128 151.874 127.988 151.855 127.969C151.804 127.931 150.462 126.905 147.935 128.07C147.619 128.216 147.239 128.076 147.093 127.76C146.947 127.443 147.087 127.063 147.403 126.917C150.493 125.486 152.349 126.747 152.634 126.962C153.717 127.684 154.432 128.836 154.603 130.128C154.774 131.426 154.375 132.737 153.501 133.719L151.057 136.473C150.93 136.613 150.759 136.689 150.582 136.689V136.695Z" fill="#18292D"/>
<path d="M162.601 134.573C162.05 135.276 161.259 135.479 160.834 135.017C160.41 134.554 160.505 133.617 161.05 132.914C161.601 132.211 162.392 132.009 162.816 132.471C163.247 132.927 163.146 133.871 162.601 134.573Z" fill="#18292D"/>
<path d="M150.164 131.692C149.613 132.395 148.821 132.591 148.391 132.135C147.96 131.679 148.055 130.736 148.606 130.033C149.157 129.33 149.948 129.134 150.379 129.59C150.81 130.046 150.715 130.989 150.164 131.692Z" fill="#18292D"/>
<path d="M149.877 138.139L158.204 138.183C158.204 138.183 153.727 147.821 149.877 138.139Z" fill="white"/>
<path d="M153.76 143.084C153.76 143.084 153.709 143.084 153.684 143.084C151.974 143.033 150.537 141.495 149.295 138.373C149.219 138.176 149.245 137.955 149.359 137.784C149.479 137.613 149.656 137.492 149.884 137.505L158.212 137.549C158.427 137.549 158.629 137.663 158.743 137.841C158.857 138.024 158.876 138.252 158.781 138.449C158.56 138.93 156.546 143.084 153.76 143.084ZM150.841 138.778C151.746 140.741 152.734 141.792 153.715 141.817C155.083 141.855 156.394 140.095 157.154 138.81L150.841 138.778Z" fill="#18292D"/>
<path d="M172.783 140.273C173.72 133.934 170.516 127.652 164.728 124.733C164.361 130.647 167.502 136.391 172.783 140.273Z" fill="#18292D"/>
<path d="M167.274 134.751C167.008 134.751 166.755 134.58 166.673 134.307C165.324 130.077 160.169 129.634 160.118 129.628C159.77 129.602 159.511 129.298 159.536 128.95C159.561 128.602 159.859 128.336 160.213 128.368C160.46 128.387 166.267 128.868 167.882 133.921C167.99 134.257 167.806 134.611 167.47 134.719C167.407 134.738 167.344 134.751 167.281 134.751H167.274Z" fill="#18292D"/>
<path d="M152.152 153.273C151.817 153.273 151.532 153.007 151.519 152.665C151.506 152.317 151.779 152.019 152.127 152.006C155.078 151.886 160.118 149.682 160.169 149.663C160.492 149.524 160.866 149.663 161.005 149.986C161.144 150.309 161.005 150.683 160.682 150.822C160.467 150.917 155.369 153.14 152.184 153.273C152.178 153.273 152.165 153.273 152.159 153.273H152.152Z" fill="#18292D"/>
<path d="M120.427 81.203C119.192 72.2995 110.979 66.0873 102.075 67.3222C94.6475 68.3544 89.0939 74.2499 88.1757 81.3423L88.1314 81.3739L81.4062 86.6109L89.3029 89.8215L89.3535 89.8405C92.1651 96.4199 99.1182 100.58 106.546 99.5545C115.45 98.3197 121.662 90.1064 120.427 81.203Z" fill="#4A7C88"/>
<path d="M104.318 100.346C97.7196 100.346 91.6088 96.4644 88.8731 90.3346L81.1602 87.2C80.9512 87.1177 80.8055 86.9214 80.7739 86.6997C80.7422 86.4781 80.8309 86.2501 81.0145 86.1108L87.5813 81.0005C88.6578 73.5915 94.547 67.7213 101.988 66.6891C111.22 65.4099 119.776 71.8817 121.055 81.1145C122.334 90.3472 115.862 98.9024 106.629 100.182C105.857 100.289 105.084 100.34 104.318 100.34V100.346ZM82.6546 86.4464L89.5381 89.2391C89.69 89.3024 89.8673 89.4417 89.937 89.6C92.698 96.0592 99.4927 99.903 106.458 98.9341C115.001 97.7499 120.985 89.8343 119.801 81.2981C118.617 72.7556 110.708 66.7714 102.165 67.9556C95.1993 68.9244 89.7027 74.4654 88.8035 81.4311C88.7845 81.5958 88.6958 81.7477 88.5628 81.8491L82.6546 86.4464Z" fill="#4A7C88"/>
<mask id="path-45-inside-1_756_8103" fill="white">
<path fill-rule="evenodd" clip-rule="evenodd" d="M109.677 138.877C106.202 140.865 102.178 142.001 97.8879 142.001C84.7554 142.001 74.1094 131.355 74.1094 118.222C74.1094 105.09 84.7554 94.4438 97.8879 94.4438C111.02 94.4438 121.666 105.09 121.666 118.222C121.666 122.512 120.53 126.537 118.543 130.011L118.564 130.09L121.787 142.122L109.755 138.898L109.677 138.877Z"/>
</mask>
<path fill-rule="evenodd" clip-rule="evenodd" d="M109.677 138.877C106.202 140.865 102.178 142.001 97.8879 142.001C84.7554 142.001 74.1094 131.355 74.1094 118.222C74.1094 105.09 84.7554 94.4438 97.8879 94.4438C111.02 94.4438 121.666 105.09 121.666 118.222C121.666 122.512 120.53 126.537 118.543 130.011L118.564 130.09L121.787 142.122L109.755 138.898L109.677 138.877Z" fill="white"/>
<path d="M109.677 138.877L110.065 137.428L109.468 137.269L108.932 137.575L109.677 138.877ZM118.543 130.011L117.241 129.267L116.934 129.803L117.094 130.4L118.543 130.011ZM118.564 130.09L120.013 129.702L120.013 129.702L118.564 130.09ZM121.787 142.122L121.399 143.57L123.908 144.243L123.236 141.733L121.787 142.122ZM109.755 138.898L110.144 137.449L110.143 137.449L109.755 138.898ZM97.8879 143.501C102.446 143.501 106.726 142.293 110.422 140.179L108.932 137.575C105.678 139.437 101.91 140.501 97.8879 140.501V143.501ZM72.6094 118.222C72.6094 132.183 83.9269 143.501 97.8879 143.501V140.501C85.5838 140.501 75.6094 130.526 75.6094 118.222H72.6094ZM97.8879 92.9438C83.9269 92.9438 72.6094 104.261 72.6094 118.222H75.6094C75.6094 105.918 85.5838 95.9438 97.8879 95.9438V92.9438ZM123.166 118.222C123.166 104.261 111.849 92.9438 97.8879 92.9438V95.9438C110.192 95.9438 120.166 105.918 120.166 118.222H123.166ZM119.845 130.756C121.959 127.061 123.166 122.78 123.166 118.222H120.166C120.166 122.244 119.102 126.013 117.241 129.267L119.845 130.756ZM117.094 130.4L117.115 130.478L120.013 129.702L119.992 129.623L117.094 130.4ZM117.115 130.478L120.338 142.51L123.236 141.733L120.013 129.702L117.115 130.478ZM122.175 140.673L110.144 137.449L109.367 140.347L121.399 143.57L122.175 140.673ZM110.143 137.449L110.065 137.428L109.289 140.326L109.367 140.347L110.143 137.449Z" fill="#18292D" mask="url(#path-45-inside-1_756_8103)"/>
<path d="M92.564 122.003C92.412 122.003 92.26 121.99 92.1143 121.971C90.3349 121.725 89.1317 120.927 88.5808 119.66C87.8209 119.875 86.8837 120.046 85.7375 120.148L85.6299 118.888C86.7127 118.793 87.5803 118.634 88.2705 118.438C88.2389 118.153 88.2325 117.849 88.2515 117.539C88.3085 116.551 88.7391 115.531 89.3091 115.05C89.6827 114.733 90.0373 114.695 90.2716 114.721C91.2151 114.822 91.9434 115.671 91.9307 116.659C91.9307 117.127 91.7091 118.343 89.784 119.23C90.1829 120.053 91.0125 120.547 92.2917 120.724C93.5138 120.895 94.8753 119.945 95.9012 118.767C94.6283 117.57 93.7418 116.032 93.8178 115.025C93.9191 113.695 94.812 112.517 95.9392 112.226C96.908 111.979 97.8389 112.416 98.4912 113.423C99.2574 114.607 98.9724 116.475 97.7313 118.425C97.7059 118.47 97.6806 118.508 97.6489 118.552C98.6875 119.261 100.239 119.888 101.98 119.16C102.829 118.805 103.487 118.229 103.969 117.577C103.101 116.532 102.474 115.202 102.481 114.221C102.487 113.594 102.753 113.1 103.215 112.84C104.26 112.251 104.963 112.517 105.292 112.726C105.957 113.157 106.28 114.069 106.179 115.234C106.122 115.924 105.913 116.678 105.546 117.399C105.71 117.539 105.875 117.665 106.046 117.767C107.053 118.368 107.547 118.242 107.654 118.14L108.136 118.546L108.648 118.919C108.553 119.052 107.635 120.192 105.394 118.856C105.216 118.748 105.033 118.622 104.862 118.482C104.266 119.249 103.468 119.907 102.462 120.331C100.657 121.091 98.6811 120.819 96.87 119.571C95.6985 120.933 94.1217 122.016 92.5576 122.016L92.564 122.003ZM90.1259 115.981C89.974 116.057 89.556 116.798 89.5117 117.608C89.5054 117.729 89.5054 117.843 89.5054 117.957C90.3602 117.507 90.6515 117 90.6579 116.646C90.6579 116.272 90.3856 116.013 90.1259 115.981ZM96.4458 113.423C96.3824 113.423 96.3128 113.429 96.2431 113.448C95.7175 113.581 95.1413 114.24 95.0716 115.113C95.04 115.531 95.5719 116.69 96.6547 117.741C97.5793 116.291 97.8896 114.828 97.421 114.107C97.212 113.784 96.8827 113.423 96.4458 113.423ZM104.418 113.746C104.209 113.746 103.956 113.872 103.836 113.942C103.76 113.986 103.747 114.145 103.747 114.233C103.741 114.771 104.089 115.607 104.627 116.367C104.786 115.943 104.887 115.519 104.919 115.126C104.982 114.391 104.805 113.923 104.608 113.796C104.558 113.765 104.494 113.752 104.425 113.752L104.418 113.746Z" fill="#FFC31F"/>
</g>
<defs>
<clipPath id="clip0_756_8103">
<rect width="200" height="200" fill="white"/>
</clipPath>
</defs>
</svg>
