<svg width="470" height="250" viewBox="0 0 470 250" fill="none" xmlns="http://www.w3.org/2000/svg">
<g clip-path="url(#clip0_542_17202)">
<path d="M120.859 152.5L152.359 148L175.359 161.5L168.359 144C169.359 143.833 172.159 143.3 175.359 142.5C178.559 141.7 178.359 138.5 177.859 137C175.192 130 169.559 115.1 168.359 111.5C167.159 107.9 163.859 107.667 162.359 108C146.359 110.333 113.159 115.2 108.359 116C103.559 116.8 103.359 120.667 103.859 122.5C106.692 130.333 112.759 146.8 114.359 150C115.959 153.2 119.359 153 120.859 152.5Z" fill="white"/>
<path d="M179.347 165.647L169.252 144.886L174.7 143.85C176.242 143.698 177.675 142.805 178.54 141.395C179.407 139.996 179.567 138.302 178.973 136.766L168.935 110.208C168.057 107.918 165.666 106.515 163.243 106.884L107.366 115.388C105.783 115.627 104.445 116.536 103.64 117.9C102.832 119.253 102.683 120.888 103.221 122.367L113.362 150.397C114.204 152.739 116.611 154.162 119.06 153.811L152.789 148.849C153.121 148.796 153.447 148.835 153.756 148.957L179.336 165.649L179.347 165.647ZM165.959 143.237L173.796 159.356L154.716 146.926C154.007 146.619 153.225 146.521 152.461 146.635L118.732 151.597C117.325 151.802 115.946 150.976 115.458 149.636L105.317 121.606C105.003 120.756 105.094 119.816 105.559 119.042C106.023 118.268 106.765 117.748 107.693 117.602L163.573 109.109C164.967 108.895 166.342 109.698 166.837 111.015L176.872 137.562C177.205 138.454 177.119 139.416 176.625 140.218C176.132 141.02 175.287 141.537 174.361 141.638L165.935 143.23L165.959 143.237Z" fill="#18292D"/>
<path d="M154.151 137.498C154.601 137.41 155.042 137.279 155.473 137.093C158.862 135.66 160.789 133.44 161.155 130.635C162.803 130.679 164.789 130.521 167.179 130.102L166.796 127.898C164.54 128.303 162.675 128.438 161.142 128.405C161.056 127.784 160.897 127.143 160.69 126.488C160.073 124.604 158.708 122.853 157.378 122.223C156.536 121.817 155.862 121.925 155.449 122.086C153.722 122.752 152.773 124.724 153.294 126.582C153.552 127.5 154.618 129.764 158.952 130.437C158.654 132.42 157.218 133.94 154.627 135.025C152.205 136.042 148.848 134.827 146.135 132.94C148.061 129.9 149.028 126.375 148.354 124.433C147.477 121.915 145.167 120.109 142.849 120.138C140.884 120.167 139.327 121.472 138.593 123.733C137.724 126.408 139.257 129.903 142.694 133.05C142.816 133.152 142.93 133.267 143.052 133.368C141.35 135.396 138.523 137.609 134.509 137.056C132.554 136.787 130.877 135.951 129.534 134.845C130.73 132.323 131.29 129.344 130.743 127.412C130.412 126.235 129.679 125.455 128.683 125.193C126.513 124.635 125.316 125.334 124.686 126.015C123.644 127.163 123.494 129.083 124.293 131.262C124.784 132.614 125.614 134.013 126.745 135.262C126.473 135.679 126.171 136.057 125.849 136.393C123.694 138.612 122.656 138.016 122.645 138.018L121.293 139.796C121.389 139.88 123.778 141.739 127.452 137.961C127.785 137.623 128.107 137.23 128.401 136.808C129.986 138.049 131.941 138.968 134.19 139.282C138.158 139.832 141.912 138.225 144.801 134.748C147.673 136.752 151.164 138.067 154.149 137.487L154.151 137.498ZM142.506 122.415C142.616 122.393 142.725 122.372 142.852 122.381C144.192 122.36 145.675 123.598 146.221 125.178C146.562 126.171 145.948 128.933 144.34 131.557C144.285 131.511 144.231 131.465 144.187 131.416C141.497 128.944 140.122 126.204 140.699 124.429C140.969 123.59 141.496 122.611 142.506 122.415ZM156.243 124.175C156.605 124.162 157.951 125.347 158.559 127.187C158.672 127.53 158.758 127.855 158.833 128.182C156.749 127.778 155.693 126.913 155.435 125.995C155.205 125.163 155.673 124.411 156.245 124.186L156.243 124.175ZM126.856 127.279C127.273 127.198 127.792 127.291 128.116 127.376C128.32 127.427 128.477 127.647 128.587 128.036C128.914 129.191 128.604 131.233 127.846 133.135C127.193 132.293 126.711 131.396 126.393 130.524C125.851 129.023 125.971 127.941 126.337 127.539C126.47 127.4 126.648 127.319 126.856 127.279Z" fill="#FFD35C"/>
<path d="M325.376 248.074C322.451 210.924 314.632 143.359 311.025 126.649C315.493 122.732 318.363 117.025 318.487 110.622L319.015 83.9626C319.092 80.1609 316.075 77.0095 312.266 76.9321L304.314 76.7617C303.415 74.1059 300.955 72.1624 298.015 72.1005L288.086 71.8914C286.348 71.8527 284.75 72.4876 283.524 73.5407C282.306 72.023 280.468 71.0397 278.381 70.9932L268.452 70.7842C266.574 70.7455 264.852 71.481 263.595 72.6967C262.447 71.7366 260.989 71.1403 259.383 71.1016L249.453 70.8926C245.691 70.8151 242.573 73.8271 242.495 77.6289L241.812 110.165C241.611 119.975 247.305 128.523 255.621 132.348L255.985 248.074H325.353H325.376Z" fill="white"/>
<path d="M325.376 248.848C324.973 248.848 324.631 248.539 324.6 248.136C321.761 212.031 314.004 144.172 310.265 126.812C310.202 126.541 310.303 126.254 310.513 126.069C314.973 122.158 317.595 116.522 317.712 110.606L318.239 83.947C318.27 82.3133 317.673 80.7647 316.54 79.5878C315.408 78.4108 313.887 77.745 312.25 77.7062L304.299 77.5359C303.973 77.5359 303.686 77.3191 303.578 77.0094C302.763 74.5936 300.513 72.9288 298 72.8746L288.07 72.6656C286.604 72.6346 285.161 73.1534 284.036 74.129C283.881 74.2684 283.664 74.3303 283.462 74.3148C283.253 74.2993 283.059 74.1909 282.927 74.0283C281.802 72.6346 280.142 71.8139 278.373 71.7751L268.444 71.5661C266.846 71.5274 265.302 72.1313 264.139 73.2618C263.851 73.5405 263.402 73.556 263.099 73.3005C262.036 72.4101 260.748 71.9223 259.375 71.8913L249.446 71.6822C247.84 71.6435 246.304 72.2475 245.14 73.3779C243.977 74.5084 243.31 76.0338 243.279 77.6675L242.596 110.203C242.402 119.425 247.646 127.849 255.954 131.667C256.226 131.791 256.404 132.069 256.404 132.371L256.769 248.097C256.769 248.523 256.428 248.872 255.993 248.872C255.566 248.872 255.217 248.523 255.217 248.097L254.853 132.859C246.242 128.686 240.835 119.836 241.044 110.172L241.727 77.6365C241.774 75.5924 242.596 73.6877 244.062 72.2707C245.528 70.8537 247.444 70.1027 249.477 70.1414L259.406 70.3504C260.911 70.3814 262.339 70.8537 263.564 71.7132C264.961 70.5595 266.66 69.9633 268.483 70.002L278.412 70.2111C280.39 70.2498 282.252 71.0705 283.633 72.472C284.944 71.5506 286.534 71.0783 288.117 71.1015L298.046 71.3106C301.033 71.3725 303.709 73.2308 304.865 75.9873L312.289 76.1422C314.337 76.1886 316.246 77.0249 317.665 78.5038C319.085 79.9827 319.845 81.9184 319.798 83.9703L319.271 110.629C319.147 116.824 316.463 122.739 311.886 126.92C315.672 145.008 323.336 212.162 326.16 248.012C326.191 248.438 325.873 248.81 325.446 248.848C325.423 248.848 325.407 248.848 325.384 248.848H325.376Z" fill="#18292D"/>
<path d="M354.575 81.9338H353.024V105.983H354.575V81.9338Z" fill="#18292D"/>
<path d="M214.475 81.9338H360.401C364.047 81.9338 367.003 85.5575 367.003 90.0252V98.1166C367.003 102.584 364.047 106.208 360.401 106.208H214.475V81.9338Z" fill="#4A7C88"/>
<path d="M355.483 105.442V82.7083H360.401C363.613 82.7083 366.227 85.9913 366.227 90.0253V98.1167C366.227 102.151 363.613 105.434 360.401 105.434H355.483V105.442Z" fill="white"/>
<path d="M360.401 83.4824C363.186 83.4824 365.451 86.417 365.451 90.0252V98.1166C365.451 101.725 363.186 104.659 360.401 104.659H356.259V83.4824H360.401ZM360.401 81.9338H354.707V106.208H360.401C364.047 106.208 367.003 102.584 367.003 98.1166V90.0252C367.003 85.5575 364.047 81.9338 360.401 81.9338Z" fill="#18292D"/>
<path d="M186.781 94.0748L213.738 83.134V105.023L186.781 94.0748Z" fill="white"/>
<path d="M212.962 84.2801V103.87L188.844 94.0749L212.97 84.2801H212.962ZM214.514 81.9805L184.725 94.0749L214.514 106.169V81.9805Z" fill="#18292D"/>
<path d="M199.309 99.9981V88.1514L184.725 94.0747L199.309 99.9981Z" fill="#18292D"/>
<path d="M277.862 110.033C277.435 110.033 277.086 109.685 277.086 109.259C277.086 108.833 277.435 108.484 277.862 108.484C280.235 108.484 282.4 107.176 283.501 105.078C283.703 104.698 284.169 104.551 284.549 104.752C284.929 104.954 285.076 105.418 284.874 105.798C283.501 108.415 280.817 110.041 277.862 110.041V110.033Z" fill="#18292D"/>
<path d="M264.224 133.765C251.936 133.138 242.255 122.7 242.518 110.18L243.201 77.6442C243.271 74.2915 246.017 71.566 249.33 71.566L259.391 71.7828C260.787 71.8138 262.098 72.3093 263.177 73.2152L263.65 73.6101L264.092 73.1843C265.24 72.077 266.745 71.4653 268.328 71.4653L278.389 71.6821C280.189 71.7208 281.872 72.5571 283.013 73.974L283.455 74.5238L283.99 74.0592C285.099 73.0991 286.511 72.5726 287.962 72.5726L298.023 72.7894C301.375 72.8591 304.066 75.6775 304.02 79.0689V79.7425L314.066 79.9361L313.655 99.4328C313.585 102.909 311.343 106.169 306.37 105.736L306.2 106.618L302.949 130.583C301.724 131.318 289.731 133.029 264.914 133.277H264.255L264.239 133.773L264.224 133.765Z" fill="white"/>
<path d="M280.685 123.839C280.685 123.839 280.623 123.839 280.592 123.839C280.166 123.784 279.863 123.397 279.917 122.979C280.003 122.267 281.849 105.434 265.411 101.64C264.992 101.547 264.736 101.128 264.829 100.71C264.922 100.292 265.341 100.037 265.76 100.13C283.571 104.241 281.477 122.979 281.453 123.165C281.407 123.56 281.073 123.846 280.685 123.846V123.839Z" fill="#18292D"/>
<path d="M274.254 105.31C273.991 105.31 273.735 105.178 273.587 104.93C273.37 104.567 273.486 104.086 273.851 103.87L279.801 100.308C281.989 98.9994 283.633 96.9475 284.44 94.5317C284.836 93.3393 284.642 92.0694 283.905 91.0474C283.168 90.0253 282.02 89.4368 280.755 89.4368H247.832L242.612 103.119C242.456 103.521 242.007 103.715 241.611 103.568C241.208 103.413 241.014 102.971 241.161 102.569L246.576 88.3915C246.692 88.0896 246.979 87.896 247.297 87.896H280.755C282.524 87.896 284.13 88.7167 285.161 90.1492C286.193 91.5816 286.465 93.3548 285.906 95.035C284.983 97.7992 283.098 100.145 280.592 101.647L274.642 105.209C274.518 105.287 274.379 105.318 274.247 105.318L274.254 105.31Z" fill="#18292D"/>
<path d="M263.541 88.4302C263.115 88.4302 262.766 88.0818 262.766 87.6559V73.1224C262.766 72.6966 263.115 72.3481 263.541 72.3481C263.968 72.3481 264.317 72.6966 264.317 73.1224V87.6559C264.317 88.0818 263.968 88.4302 263.541 88.4302Z" fill="#18292D"/>
<path d="M283.501 90.118C283.075 90.118 282.726 89.7696 282.726 89.3437V73.4552C282.726 73.0293 283.075 72.6809 283.501 72.6809C283.928 72.6809 284.277 73.0293 284.277 73.4552V89.3437C284.277 89.7696 283.928 90.118 283.501 90.118Z" fill="#18292D"/>
<path d="M307.177 106.928C302.833 106.928 299.295 103.397 299.295 99.0613V85.3021C299.295 82.2746 300.156 79.3246 301.786 76.7694C302.018 76.4055 302.491 76.3048 302.856 76.5294C303.221 76.7617 303.322 77.234 303.097 77.5979C301.63 79.9053 300.847 82.5689 300.847 85.2944V99.0613C300.847 102.546 303.686 105.38 307.177 105.38C310.668 105.38 313.507 102.546 313.507 99.0613V90.0098C313.507 89.584 313.856 89.2355 314.283 89.2355C314.71 89.2355 315.059 89.584 315.059 90.0098V99.0613C315.059 103.397 311.521 106.928 307.177 106.928Z" fill="#18292D"/>
<path d="M291.786 110.126C286.791 110.126 282.726 105.96 282.726 100.842V98.1166C282.726 97.6907 283.075 97.3423 283.501 97.3423C283.928 97.3423 284.277 97.6907 284.277 98.1166V100.842C284.277 105.108 287.644 108.577 291.786 108.577C295.929 108.577 299.296 105.108 299.296 100.842V99.82C299.296 99.3942 299.645 99.0457 300.071 99.0457C300.498 99.0457 300.847 99.3942 300.847 99.82V100.842C300.847 105.96 296.782 110.126 291.786 110.126Z" fill="#18292D"/>
<path d="M241.843 109.894H241.828C241.401 109.886 241.06 109.53 241.068 109.104L241.688 80.5789C241.696 80.153 242.053 79.8356 242.479 79.8201C242.906 79.8278 243.247 80.184 243.24 80.6098L242.619 109.135C242.611 109.553 242.262 109.894 241.843 109.894Z" fill="#18292D"/>
<path d="M248.693 205.625C248.693 205.625 257.265 192.098 259.88 185.827C262.494 179.555 259.057 173.5 253.038 165.718C247.018 157.936 247.631 159.415 250.47 159.175C253.309 158.943 247.654 153.004 237.29 150.867C226.926 148.738 208.285 148.544 208.339 168.382C208.393 188.219 237.911 219.261 248.701 205.617L248.693 205.625Z" fill="#18292D"/>
<path d="M240.819 184.692C248.078 177.447 248.078 165.701 240.819 158.456C233.561 151.211 221.792 151.211 214.534 158.456C207.275 165.701 207.275 177.447 214.534 184.692C221.792 191.937 233.561 191.937 240.819 184.692Z" fill="#18292D"/>
<path d="M257.215 219.068C270.349 213.638 276.586 198.61 271.146 185.501C265.705 172.392 250.649 166.167 237.515 171.597C224.382 177.027 218.145 192.055 223.585 205.164C229.025 218.273 244.082 224.498 257.215 219.068Z" fill="#18292D"/>
<path d="M257.941 249.226C257.941 249.226 257.343 221.157 258.119 218.037L258.259 217.472C259.523 218.711 261.137 219.617 262.998 219.996C268.134 221.049 273.153 217.743 274.208 212.617C275.263 207.491 271.951 202.481 266.815 201.428C265.194 201.095 263.58 201.204 262.099 201.661C264.814 187.367 257.56 172.927 244.241 166.663C227.826 158.943 208.262 166.306 201.047 182.931L197.099 192.028C190.776 206.585 199.55 223.248 215.143 226.306L217.982 226.864V249.226H257.941Z" fill="white"/>
<path d="M217.974 250C217.547 250 217.198 249.651 217.198 249.226V227.507L214.987 227.073C207.323 225.571 200.837 220.747 197.207 213.84C193.576 206.941 193.274 198.873 196.377 191.719L200.325 182.621C203.902 174.39 210.503 168.111 218.912 164.944C227.322 161.777 236.437 162.141 244.566 165.958C257.777 172.168 265.256 186.299 263.06 200.623C264.348 200.391 265.682 200.399 266.97 200.662C269.654 201.212 271.966 202.776 273.479 205.06C274.991 207.344 275.519 210.085 274.968 212.764C274.417 215.443 272.85 217.751 270.562 219.26C268.273 220.77 265.527 221.297 262.843 220.747C261.361 220.445 259.973 219.818 258.763 218.912C258.289 223.326 258.561 241.924 258.716 249.195C258.724 249.62 258.383 249.977 257.956 249.984H257.94C257.521 249.984 257.172 249.651 257.165 249.226C257.141 248.072 256.575 221.018 257.366 217.836L257.506 217.278C257.576 217.007 257.777 216.798 258.049 216.721C258.313 216.643 258.608 216.721 258.801 216.914C260.004 218.099 261.509 218.897 263.153 219.237C265.434 219.702 267.761 219.253 269.708 217.975C271.656 216.698 272.982 214.739 273.448 212.462C274.417 207.762 271.369 203.155 266.66 202.187C265.225 201.893 263.727 201.963 262.331 202.396C262.075 202.474 261.788 202.42 261.586 202.234C261.385 202.056 261.292 201.777 261.338 201.514C264.007 187.483 256.839 173.438 243.907 167.36C236.157 163.713 227.477 163.372 219.463 166.392C211.45 169.411 205.158 175.389 201.753 183.233L197.804 192.331C194.887 199.051 195.167 206.624 198.58 213.113C201.993 219.601 208.083 224.131 215.29 225.54L218.129 226.097C218.494 226.167 218.757 226.485 218.757 226.856V249.218C218.757 249.644 218.408 249.992 217.982 249.992L217.974 250Z" fill="#18292D"/>
<path d="M260.399 213.089C260.345 213.089 260.299 213.089 260.244 213.074C259.825 212.989 259.554 212.578 259.639 212.16C260.5 207.964 264.627 205.246 268.832 206.105C269.251 206.19 269.522 206.601 269.437 207.019C269.352 207.437 268.948 207.708 268.522 207.623C265.155 206.934 261.85 209.11 261.16 212.47C261.082 212.834 260.764 213.089 260.399 213.089Z" fill="#18292D"/>
<path d="M213.079 191.796C212.916 191.796 212.745 191.742 212.605 191.634C212.264 191.37 212.202 190.89 212.458 190.55L217.089 184.518C218.501 182.683 219.13 180.283 218.811 177.944C218.54 175.97 217.625 174.305 216.236 173.252C216.213 173.229 216.182 173.213 216.158 173.19C216.065 173.097 213.598 170.883 208.719 173.647C208.347 173.856 207.873 173.724 207.664 173.36C207.454 172.989 207.579 172.516 207.951 172.307C213.591 169.102 216.779 171.672 217.198 172.044C218.905 173.345 220.022 175.366 220.347 177.743C220.72 180.484 219.983 183.302 218.323 185.463L213.692 191.494C213.536 191.696 213.311 191.796 213.079 191.796Z" fill="#18292D"/>
<path d="M233.877 186.245C232.697 187.755 230.999 188.18 230.075 187.197C229.152 186.214 229.362 184.201 230.541 182.691C231.72 181.181 233.419 180.755 234.342 181.738C235.265 182.722 235.056 184.735 233.877 186.245Z" fill="#18292D"/>
<path d="M213.715 181.971C212.536 183.48 210.837 183.906 209.906 182.923C208.983 181.94 209.185 179.926 210.364 178.417C211.543 176.907 213.242 176.481 214.173 177.464C215.096 178.448 214.894 180.461 213.715 181.971Z" fill="#18292D"/>
<path d="M210.084 197.433L227.958 197.518C227.958 197.518 218.346 218.176 210.084 197.433Z" fill="white"/>
<path d="M218.416 207.445C218.369 207.445 218.315 207.445 218.268 207.445C214.894 207.352 211.9 204.077 209.371 197.72C209.278 197.48 209.309 197.209 209.448 197C209.596 196.79 209.859 196.643 210.092 196.659L227.965 196.744C228.229 196.744 228.477 196.883 228.617 197.1C228.757 197.325 228.78 197.603 228.663 197.844C228.477 198.238 224.125 207.445 218.416 207.445ZM211.248 198.207C213.389 203.171 215.825 205.826 218.307 205.896C222.015 205.997 225.398 200.646 226.693 198.285L211.248 198.207Z" fill="#18292D"/>
<path d="M262.285 200.368C264.294 186.787 257.421 173.314 244.993 167.065C244.21 179.733 250.951 192.052 262.285 200.368Z" fill="#18292D"/>
<path d="M244.427 186.036C244.101 186.036 243.791 185.827 243.69 185.494C240.665 176.04 229.222 175.072 229.106 175.056C228.679 175.025 228.361 174.654 228.392 174.228C228.423 173.802 228.788 173.477 229.222 173.515C229.346 173.523 241.82 174.561 245.172 185.021C245.304 185.432 245.079 185.865 244.667 185.997C244.59 186.02 244.512 186.036 244.435 186.036H244.427Z" fill="#18292D"/>
<path d="M255.551 178.904C255.45 178.904 255.349 178.881 255.248 178.842C254.853 178.672 254.667 178.223 254.837 177.828C257.141 172.423 263.658 171.928 263.929 171.905C264.379 171.874 264.728 172.199 264.751 172.625C264.782 173.051 264.457 173.422 264.03 173.453C263.968 173.453 258.189 173.918 256.257 178.44C256.133 178.734 255.846 178.912 255.543 178.912L255.551 178.904Z" fill="#18292D"/>
<path d="M254.93 178.417C254.636 178.417 254.356 178.254 254.225 177.975C254.046 177.588 254.209 177.124 254.597 176.946C259.05 174.855 259.29 169.063 259.29 169.009C259.306 168.583 259.67 168.235 260.089 168.258C260.516 168.273 260.849 168.63 260.842 169.055C260.834 169.334 260.586 175.846 255.256 178.347C255.148 178.393 255.039 178.424 254.93 178.424V178.417Z" fill="#18292D"/>
<path d="M220.534 227.77C219.681 227.77 218.796 227.731 217.904 227.638C217.477 227.6 217.167 227.22 217.206 226.794C217.245 226.368 217.625 226.051 218.051 226.097C230.169 227.29 238.679 219.144 238.764 219.059C239.074 218.765 239.563 218.765 239.858 219.075C240.16 219.377 240.153 219.872 239.842 220.166C239.501 220.499 231.922 227.77 220.526 227.77H220.534Z" fill="#18292D"/>
<path d="M257.859 240C237.059 248.4 222.526 243.5 217.859 240V249.5H257.859V240Z" fill="#4A7C88" stroke="black"/>
</g>
<defs>
<clipPath id="clip0_542_17202">
<rect width="470" height="250" fill="white"/>
</clipPath>
</defs>
</svg>
