<svg width="700" height="400" viewBox="0 0 700 400" fill="none" xmlns="http://www.w3.org/2000/svg">
<ellipse cx="203.423" cy="96.7883" rx="203.423" ry="96.7883" transform="matrix(0.930064 -0.367398 -0.367398 -0.930064 196.12 374.709)" fill="#F2F7F8"/>
<path d="M314.562 341.841H521.142C554.878 341.841 576.967 306.532 562.228 276.199L514.349 177.689C505.928 160.36 487.596 150.123 468.436 152.048L408.083 158.082C387.404 160.143 369.885 174.191 363.377 193.92L314.562 341.841Z" fill="#96D8E8"/>
<path d="M390.699 292.81C389.953 292.81 389.357 292.213 389.343 291.467L388.557 231.738C388.557 230.992 389.14 230.368 389.899 230.368H389.913C390.658 230.368 391.255 230.965 391.269 231.711L392.055 291.44C392.055 292.186 391.472 292.81 390.713 292.81H390.699Z" fill="#18292D"/>
<path d="M413.939 326.831L419.024 324.024C419.024 324.024 429.546 337.624 443.282 328.024C446.645 325.678 446.807 303.861 440.367 296.39C427.743 281.772 404.271 263.481 390.576 272.593C376.881 281.705 358.711 299.508 358.711 299.508C358.711 299.508 366.25 309.447 373.423 303.929C383.457 296.2 395.81 290.586 395.81 290.586L374.115 321.285C374.115 321.285 378.589 326.397 384.555 328.309C390.522 330.221 398.617 335.712 413.939 326.817V326.831Z" fill="white"/>
<path d="M368.447 307.061C362.576 307.061 357.478 301.596 357.207 301.298C356.732 300.783 356.732 299.983 357.207 299.468C357.925 298.668 375.119 279.833 389.912 271.413C397.031 267.359 413.167 265.094 441.371 295.468C441.886 296.01 441.845 296.878 441.303 297.379C440.76 297.895 439.893 297.854 439.391 297.312C430.089 287.291 406.767 264.945 391.268 273.772C378.712 280.918 363.878 296.335 360.122 300.335C362.142 302.152 367.213 306.017 371.634 303.495C374.088 302.098 377.071 299.956 380.244 297.691C386.468 293.244 392.895 288.647 397.112 288.335C397.858 288.295 398.509 288.837 398.563 289.583C398.617 290.328 398.061 290.979 397.316 291.034C393.872 291.291 387.471 295.861 381.831 299.902C378.604 302.207 375.553 304.39 372.99 305.854C371.471 306.722 369.952 307.061 368.475 307.061H368.447Z" fill="#18292D"/>
<path d="M381.356 328.078C376.99 328.078 373.79 324.01 372.529 321.393C372.312 320.932 372.366 320.376 372.678 319.983L403.566 280.267C404.027 279.671 404.882 279.576 405.465 280.023C406.061 280.484 406.156 281.338 405.695 281.922L375.362 320.932C376.379 322.654 379.295 326.668 383.349 324.919C384.041 324.621 384.841 324.932 385.125 325.624C385.424 326.316 385.112 327.116 384.42 327.4C383.335 327.861 382.305 328.065 381.342 328.065L381.356 328.078Z" fill="#18292D"/>
<path d="M391.459 333.082C386.875 333.082 382.252 329.773 381.994 329.583C381.682 329.367 381.492 329.014 381.438 328.648C381.397 328.268 381.506 327.889 381.75 327.604L415.215 288.661C415.703 288.091 416.557 288.037 417.127 288.512C417.696 289 417.764 289.854 417.276 290.423L384.828 328.187C387.323 329.651 391.703 331.455 394.333 329.489C398.862 326.112 424.693 299.766 424.964 299.508C425.493 298.966 426.347 298.966 426.876 299.495C427.405 300.024 427.418 300.878 426.89 301.407C425.818 302.491 400.638 328.16 395.947 331.658C394.577 332.689 393.018 333.068 391.459 333.068V333.082Z" fill="#18292D"/>
<path d="M401.235 333.258C399.011 333.258 396.882 332.729 394.957 331.522C394.32 331.129 394.13 330.289 394.537 329.651C394.943 329.014 395.771 328.824 396.408 329.231C402.523 333.068 411.689 327.834 418.306 322.763C425.737 317.068 431.663 310.302 431.717 310.234C432.219 309.664 433.073 309.61 433.629 310.098C434.198 310.587 434.253 311.441 433.764 312.01C432.897 313.014 415.066 333.245 401.235 333.245V333.258Z" fill="#18292D"/>
<path d="M434.008 332.553C429.262 332.553 423.852 330.79 418.862 325.38C418.347 324.824 418.387 323.97 418.943 323.468C419.486 322.953 420.354 322.993 420.855 323.549C430.537 334.031 440.815 328.607 442.971 327.278C445.452 317.895 446.768 305.258 439.378 297.312C430.076 287.291 406.753 264.945 391.255 273.772C390.604 274.138 389.777 273.921 389.411 273.271C389.045 272.62 389.262 271.793 389.912 271.426C397.031 267.372 413.167 265.108 441.371 295.481C449.737 304.485 448.205 318.41 445.452 328.512C445.371 328.81 445.181 329.082 444.924 329.258C442.605 330.899 438.618 332.566 434.008 332.566V332.553Z" fill="#18292D"/>
<path d="M439.012 294.505C438.388 294.505 437.819 294.071 437.683 293.434C437.534 292.701 437.995 291.983 438.727 291.834L507.271 277.406C508.003 277.244 508.722 277.718 508.871 278.45C509.02 279.183 508.559 279.901 507.827 280.05L439.283 294.478C439.188 294.491 439.093 294.505 438.999 294.505H439.012Z" fill="#18292D"/>
<path d="M436.397 166.269L431.857 166.423C421.043 166.789 411.964 158.305 411.598 147.491L410.729 121.837L454.447 120.356L455.316 146.01C455.682 156.824 447.198 165.903 436.384 166.27L436.397 166.269Z" fill="white"/>
<path d="M431.176 167.777C425.847 167.777 420.803 165.784 416.884 162.136C412.789 158.313 410.443 153.133 410.254 147.533L409.386 121.878C409.386 121.512 409.508 121.173 409.752 120.902C409.996 120.644 410.335 120.482 410.701 120.468L454.417 118.99C455.176 118.949 455.8 119.546 455.814 120.305L456.681 145.96C457.075 157.513 447.99 167.221 436.451 167.615L431.908 167.764C431.664 167.764 431.42 167.764 431.176 167.764V167.777ZM412.138 123.139L412.965 147.438C413.128 152.306 415.176 156.821 418.742 160.157C422.308 163.479 426.972 165.242 431.813 165.065L436.356 164.916C446.417 164.577 454.309 156.116 453.97 146.068L453.142 121.77L412.125 123.153L412.138 123.139Z" fill="#18292D"/>
<path d="M411.772 152.319L410.741 121.837L438.511 120.902L447.732 131.031C441.223 142.936 428.545 150.787 411.772 152.333V152.319Z" fill="#18292D"/>
<path d="M442.567 37.5495L433.536 35.3796C411.975 30.1994 390.298 43.4783 385.117 65.0388L382.39 76.3906C377.21 97.9511 390.489 119.629 412.049 124.809L421.081 126.979C442.641 132.159 464.319 118.88 469.499 97.3197L472.226 85.9679C477.407 64.4074 464.128 42.7297 442.567 37.5495Z" fill="#18292D"/>
<path d="M445.876 34.2359L453.431 36.051C471.414 40.3717 482.503 58.4735 478.182 76.4569L474.58 91.4475C470.26 109.431 452.158 120.519 434.174 116.199L426.62 114.384C408.636 110.063 397.548 91.961 401.869 73.9776L405.47 58.987C409.791 41.0035 427.893 29.9151 445.876 34.2359Z" fill="#18292D"/>
<path d="M481.766 77.1451C481.766 77.1451 481.739 77.1451 481.726 77.1451C480.98 77.1315 480.383 76.5078 480.41 75.7484C480.709 64.6974 477.549 55.6532 471.027 48.8327C464.139 41.6326 453.386 37.2122 442.254 37.0224C441.508 37.0224 440.911 36.3851 440.925 35.6393C440.925 34.8935 441.603 34.2833 442.308 34.3104C454.146 34.5138 465.617 39.2461 472.993 46.9615C480.031 54.3243 483.448 64.033 483.122 75.8298C483.109 76.562 482.499 77.1451 481.766 77.1451Z" fill="#18292D"/>
<path d="M385.315 96.2056L395.355 98.8133C399.827 99.9749 404.394 97.2911 405.555 92.8189L406.039 90.9553C407.201 86.4832 404.517 81.9161 400.045 80.7545L390.005 78.1468C385.533 76.9852 380.966 79.669 379.804 84.1412L379.32 86.0048C378.159 90.4769 380.842 95.044 385.315 96.2056Z" fill="white"/>
<path d="M397.48 100.44C396.666 100.44 395.839 100.332 395.025 100.129L384.978 97.5252C382.469 96.8743 380.354 95.2878 379.039 93.037C377.723 90.7861 377.357 88.1826 378.008 85.6741L378.496 83.8029C379.839 78.6232 385.154 75.4909 390.347 76.8469L400.395 79.4503C405.575 80.7927 408.707 86.108 407.351 91.3013L406.863 93.1726C406.212 95.6811 404.612 97.7964 402.375 99.1116C400.856 99.993 399.174 100.454 397.466 100.454L397.48 100.44ZM387.907 79.2333C384.788 79.2333 381.94 81.3215 381.127 84.4809L380.639 86.3521C380.164 88.1691 380.435 90.0539 381.384 91.6674C382.334 93.281 383.852 94.4336 385.656 94.8946L395.703 97.4981C397.507 97.9726 399.405 97.7014 401.019 96.7523C402.632 95.8031 403.785 94.2844 404.246 92.481L404.734 90.6098C405.71 86.8674 403.446 83.0436 399.717 82.0673L389.669 79.4639C389.086 79.3147 388.49 79.2333 387.907 79.2333Z" fill="#18292D"/>
<path d="M441.658 51.5582L443.732 52.0599C457.468 55.3549 467.624 65.7822 471.231 78.4739L473.767 78.3383C478.906 78.0671 483.299 82.0129 483.584 87.1656C483.855 92.3046 479.909 96.6979 474.757 96.9827L471.719 97.1454C471.679 97.3081 471.652 97.4573 471.624 97.62L468.248 111.681C463.38 131.966 442.987 144.455 422.715 139.573L420.64 139.072C400.355 134.204 387.867 113.81 392.749 93.5386L396.125 79.4773C400.993 59.1922 421.386 46.7039 441.658 51.5853V51.5582Z" fill="white"/>
<path d="M431.528 141.96C428.518 141.96 425.453 141.607 422.389 140.875L420.314 140.373C399.338 135.329 386.375 114.176 391.419 93.1996L394.795 79.1384C399.839 58.1618 420.992 45.1988 441.969 50.243L444.044 50.7447C457.4 53.9583 468.112 63.9924 472.22 77.0638L473.685 76.9824C479.529 76.657 484.614 81.1994 484.926 87.0843C485.238 92.9691 480.709 98.0133 474.824 98.3251L472.817 98.4336L469.563 111.98C465.264 129.892 449.196 141.96 431.528 141.96ZM432.83 51.8701C416.396 51.8701 401.44 63.0974 397.426 79.7757L394.05 93.8369C389.358 113.363 401.426 133.051 420.938 137.743L423.013 138.244C442.525 142.936 462.227 130.868 466.919 111.356L470.39 96.8471C470.525 96.2505 471.027 95.8166 471.637 95.7895L474.675 95.6268C479.068 95.3963 482.444 91.6267 482.214 87.2334C481.983 82.8401 478.254 79.4638 473.82 79.6943L471.285 79.8299C470.661 79.857 470.078 79.4502 469.915 78.8536C466.308 66.2161 456.152 56.4533 443.393 53.3888L441.318 52.8871C438.471 52.2091 435.623 51.8701 432.816 51.8701H432.83Z" fill="#18292D"/>
<path d="M394.293 78.8672V78.935C401.832 76.1011 410.307 61.9314 414.687 43.7073V43.6395C407.147 46.4735 398.673 60.6432 394.293 78.8672Z" fill="#18292D"/>
<path d="M391.988 92.5216C391.988 92.5216 391.866 92.5216 391.812 92.5216C391.066 92.4267 390.551 91.7488 390.646 91.003C391.215 86.6639 387.649 84.5758 387.5 84.4944C386.849 84.1283 386.618 83.3012 386.985 82.6503C387.351 81.9994 388.164 81.7689 388.815 82.1215C389.032 82.2435 394.144 85.1453 393.33 91.3555C393.235 92.0335 392.652 92.5352 391.988 92.5352V92.5216Z" fill="#18292D"/>
<path d="M424.409 77.9046C424.613 79.4503 421.318 81.1453 417.06 81.7148C412.789 82.2843 409.168 81.4843 408.965 79.952C408.762 78.4063 412.057 76.7113 416.314 76.1418C420.586 75.5723 424.206 76.3723 424.409 77.9046Z" fill="#18292D"/>
<path d="M452.952 82.6233C452.491 84.1012 448.775 84.264 444.68 82.9758C440.572 81.6876 437.63 79.4368 438.091 77.9588C438.552 76.4808 442.267 76.3181 446.362 77.6062C450.47 78.8944 453.413 81.1453 452.952 82.6233Z" fill="#18292D"/>
<path d="M430.307 104.156C430.158 104.156 430.009 104.129 429.86 104.074C428.151 103.478 426.768 102.163 426.063 100.495C425.358 98.8269 425.399 96.915 426.171 95.2743L430.497 86.0673C430.822 85.3893 431.622 85.091 432.3 85.4165C432.978 85.7283 433.263 86.5419 432.951 87.2199L428.626 96.4268C428.178 97.3896 428.151 98.4608 428.558 99.4506C428.965 100.427 429.751 101.173 430.755 101.525C431.46 101.769 431.839 102.542 431.582 103.261C431.392 103.817 430.863 104.169 430.307 104.169V104.156Z" fill="#18292D"/>
<path d="M433.276 123.248C431.636 123.248 430.009 122.692 428.409 121.58C427.798 121.146 427.636 120.305 428.07 119.695C428.503 119.085 429.344 118.922 429.954 119.356C431.5 120.427 432.965 120.766 434.443 120.387C438.077 119.465 440.544 114.583 440.571 114.542C440.91 113.878 441.724 113.607 442.388 113.932C443.053 114.271 443.324 115.085 442.999 115.749C442.877 115.993 439.961 121.77 435.121 123.017C434.497 123.18 433.887 123.248 433.276 123.248Z" fill="#18292D"/>
<path d="M456.736 47.0295C463.542 51.3007 469.224 56.1415 473.156 60.7382C472.668 62.0534 472.044 63.328 471.285 64.5348C467.665 70.2976 461.59 73.8096 454.553 74.9215C450.837 73.3486 446.932 71.3282 443.04 68.8875C427.325 59.0297 417.643 46.1617 421.427 40.1277C425.21 34.0937 441.02 37.1852 456.736 47.043V47.0295Z" fill="#18292D"/>
<path d="M398.877 54.2838C392.734 59.4771 389.846 66.1484 389.9 72.2096C391.134 72.874 392.436 73.4299 393.805 73.8503C400.314 75.83 407.202 74.4876 413.25 70.7044C412.531 66.04 417.073 58.2297 424.491 53.3347C439.962 43.1108 417.318 38.7039 398.89 54.3109L398.877 54.2838Z" fill="#18292D"/>
<path d="M443.636 91.9928C443.135 94.5691 441.399 96.4132 439.758 96.0878C438.118 95.7623 437.196 93.4165 437.697 90.8402C438.199 88.2639 439.935 86.4198 441.575 86.7452C443.216 87.0707 444.138 89.4165 443.636 91.9928Z" fill="#18292D"/>
<path d="M418.388 91.9928C417.887 94.5691 416.151 96.4132 414.51 96.0878C412.87 95.7623 411.948 93.4165 412.449 90.8402C412.951 88.2639 414.687 86.4198 416.327 86.7452C417.968 87.0707 418.89 89.4165 418.388 91.9928Z" fill="#18292D"/>
<path d="M428.734 40.0734C428.652 40.0734 428.571 40.0734 428.503 40.0463C427.771 39.9107 427.269 39.2192 427.405 38.4734C428.612 31.5851 436.964 29.8224 437.317 29.741C438.063 29.5919 438.768 30.0665 438.917 30.7987C439.066 31.5309 438.592 32.2496 437.859 32.3987C437.792 32.4123 430.958 33.8767 430.076 38.9344C429.954 39.5988 429.385 40.0599 428.747 40.0599L428.734 40.0734Z" fill="#18292D"/>
<path d="M428.964 37.0224C428.964 37.0224 428.897 37.0224 428.87 37.0224C428.124 36.9682 427.568 36.3173 427.622 35.5716C427.798 33.1986 426.185 32.5749 425.859 32.48C425.154 32.263 424.734 31.5172 424.951 30.7986C425.168 30.0799 425.9 29.6731 426.605 29.8765C428.015 30.2698 430.605 32.0054 430.334 35.7749C430.28 36.4936 429.683 37.036 428.978 37.036L428.964 37.0224Z" fill="#18292D"/>
<path d="M444.423 74.4604C444.22 74.4604 444.016 74.4197 443.826 74.3248C433.616 69.3213 426.714 62.1483 423.311 52.982C423.053 52.277 423.406 51.5041 424.111 51.2329C424.816 50.9752 425.589 51.3278 425.86 52.0329C429.019 60.5212 435.46 67.206 445.033 71.8841C445.711 72.2095 445.982 73.0231 445.657 73.701C445.426 74.1756 444.938 74.4604 444.437 74.4604H444.423Z" fill="#18292D"/>
<path d="M473.575 68.806L468.68 93.5115L464.463 93.62L461.317 63.0432L473.575 68.806Z" fill="#18292D"/>
<path d="M405.79 157.635L411.16 189.839L427.268 172.401L444.706 191.181L459.798 154.191L454.089 140.102L427.268 164.347L410.495 148.916L405.79 157.635Z" fill="white"/>
<path d="M444.707 192.537C444.327 192.537 443.974 192.388 443.717 192.103L427.269 174.394L412.164 190.761C411.811 191.14 411.269 191.29 410.781 191.14C410.279 190.991 409.913 190.571 409.832 190.069L404.462 157.865C404.408 157.567 404.462 157.269 404.611 156.997L409.303 148.279C409.506 147.913 409.859 147.655 410.265 147.587C410.686 147.519 411.106 147.641 411.404 147.926L427.269 162.516L453.181 139.112C453.507 138.814 453.968 138.692 454.388 138.8C454.822 138.895 455.175 139.207 455.337 139.614L461.046 153.702C461.182 154.028 461.182 154.394 461.046 154.719L445.954 191.71C445.778 192.144 445.398 192.442 444.937 192.537C444.856 192.551 444.775 192.564 444.693 192.564L444.707 192.537ZM427.269 171.045C427.649 171.045 428.001 171.208 428.259 171.479L444.259 188.713L458.334 154.204L453.561 142.421L428.164 165.364C427.649 165.838 426.849 165.825 426.334 165.364L410.848 151.113L407.201 157.892L412.042 186.91L426.266 171.506C426.523 171.235 426.876 171.072 427.256 171.072L427.269 171.045Z" fill="#18292D"/>
<path d="M296.298 331.373H441.507C446.673 331.373 450.863 335.563 450.863 340.729V343.563H296.298V331.373Z" fill="#18292D"/>
<path d="M356.27 343.563H215.726L184.851 250.219C181.868 241.202 188.58 231.914 198.085 231.914H309.259C315.266 231.914 320.595 235.765 322.494 241.473L356.27 343.577V343.563Z" fill="#18292D"/>
<path d="M270.811 292.178C272.067 286.858 268.771 281.526 263.451 280.271C258.13 279.015 252.799 282.31 251.543 287.631C250.288 292.951 253.583 298.282 258.903 299.538C264.224 300.794 269.555 297.499 270.811 292.178Z" fill="white"/>
<path d="M261.179 301.176C254.969 301.176 249.925 296.132 249.925 289.922C249.925 283.711 254.969 278.667 261.179 278.667C267.39 278.667 272.434 283.711 272.434 289.922C272.434 296.132 267.39 301.176 261.179 301.176ZM261.179 281.379C256.474 281.379 252.637 285.217 252.637 289.922C252.637 294.627 256.474 298.464 261.179 298.464C265.884 298.464 269.722 294.627 269.722 289.922C269.722 285.217 265.884 281.379 261.179 281.379Z" fill="#18292D"/>
<path d="M489.508 281.881C489.033 281.881 488.572 281.623 488.314 281.176L459.46 228.877C459.094 228.226 459.338 227.399 459.989 227.033C460.639 226.666 461.467 226.91 461.833 227.561L490.687 279.861C491.054 280.511 490.809 281.339 490.159 281.705C489.955 281.813 489.725 281.867 489.508 281.867V281.881Z" fill="#18292D"/>
<path d="M320.555 184.171C274.127 194.246 227.699 204.334 181.285 214.409C174.681 215.887 169.325 210.273 169.325 201.866V63.3009C169.325 54.894 174.681 49.2804 181.285 50.7584C227.713 60.8331 274.141 70.9214 320.555 80.9961C327.158 82.4741 332.514 87.5725 332.514 92.3726C332.514 119.18 332.514 145.987 332.514 172.781C332.514 177.581 327.158 182.679 320.555 184.157V184.171Z" fill="white"/>
<path d="M179.211 216.009C176.933 216.009 174.763 215.249 172.933 213.798C169.773 211.263 167.97 206.924 167.97 201.893V63.3009C167.97 58.2567 169.787 53.9177 172.946 51.3821C175.387 49.4295 178.451 48.7379 181.584 49.4295L320.854 79.6673C328.162 81.308 333.871 86.881 333.884 92.3726V172.794C333.884 178.272 328.176 183.859 320.867 185.5L181.57 215.737C180.784 215.914 179.983 216.009 179.211 216.009ZM179.183 51.8838C177.516 51.8838 175.97 52.4261 174.627 53.4973C172.119 55.5042 170.668 59.0839 170.668 63.3009V201.88C170.668 206.097 172.105 209.663 174.614 211.669C176.431 213.12 178.628 213.609 180.973 213.093L320.257 182.855C326.169 181.527 331.145 176.93 331.145 172.808V92.3861C331.145 88.264 326.155 83.6538 320.243 82.3385L181 52.0872C180.39 51.9516 179.78 51.8838 179.197 51.8838H179.183Z" fill="#18292D"/>
<path d="M320.555 184.171C274.127 194.246 227.699 204.334 181.285 214.409C174.681 215.887 169.325 210.273 169.325 201.866V63.3009C169.325 54.894 174.681 49.2804 181.285 50.7584C227.713 60.8331 274.141 70.9214 320.555 80.9961C327.158 82.4741 332.514 87.5725 332.514 92.3726C332.514 119.18 332.514 145.987 332.514 172.781C332.514 177.581 327.158 182.679 320.555 184.157V184.171Z" fill="white"/>
<path d="M179.211 216.009C176.933 216.009 174.763 215.249 172.933 213.798C169.773 211.263 167.97 206.924 167.97 201.893V63.3009C167.97 58.2567 169.787 53.9177 172.946 51.3821C175.387 49.4295 178.451 48.7379 181.584 49.4295L320.854 79.6673C328.162 81.308 333.871 86.881 333.884 92.3726V172.794C333.884 178.272 328.176 183.859 320.867 185.5L181.57 215.737C180.784 215.914 179.983 216.009 179.211 216.009ZM179.183 51.8838C177.516 51.8838 175.97 52.4261 174.627 53.4973C172.119 55.5042 170.668 59.0839 170.668 63.3009V201.88C170.668 206.097 172.105 209.663 174.614 211.669C176.431 213.12 178.628 213.609 180.973 213.093L320.257 182.855C326.169 181.527 331.145 176.93 331.145 172.808V92.3861C331.145 88.264 326.155 83.6538 320.243 82.3385L181 52.0872C180.39 51.9516 179.78 51.8838 179.197 51.8838H179.183Z" fill="#18292D"/>
<path d="M180.729 67.179C180.498 67.179 180.268 67.1654 180.051 67.1247C177.692 66.7044 175.834 64.1959 175.834 61.4026C175.834 59.8432 176.431 58.4602 177.461 57.6059C178.329 56.8873 179.427 56.6161 180.553 56.833C182.899 57.294 184.743 59.8026 184.743 62.5552C184.743 64.0874 184.16 65.4433 183.143 66.2976C182.451 66.8807 181.624 67.179 180.743 67.179H180.729ZM179.78 59.4771C179.549 59.4771 179.346 59.5585 179.17 59.7077C178.776 60.0331 178.532 60.6704 178.532 61.4026C178.532 63.0026 179.576 64.2908 180.512 64.4535C180.837 64.5077 181.136 64.4399 181.38 64.223C181.773 63.884 182.017 63.2738 182.017 62.5552C182.017 61.1314 181.082 59.7076 180.01 59.5043C179.929 59.4907 179.848 59.4771 179.78 59.4771Z" fill="#18292D"/>
<path d="M191.156 69.0229C190.925 69.0229 190.695 69.0094 190.464 68.9551C188.091 68.5348 186.247 66.067 186.247 63.3415C186.247 61.8364 186.83 60.4804 187.847 59.6533C188.728 58.9346 189.84 58.6634 190.966 58.8804C193.312 59.355 195.156 61.8228 195.156 64.494C195.156 65.972 194.586 67.2873 193.583 68.128C192.891 68.7111 192.051 69.0229 191.156 69.0229ZM190.193 61.5245C189.962 61.5245 189.745 61.6059 189.556 61.755C189.176 62.0669 188.945 62.6635 188.945 63.3415C188.945 64.7246 189.867 66.1076 190.925 66.2839C191.264 66.3381 191.576 66.2703 191.834 66.0534C192.213 65.728 192.43 65.1585 192.43 64.494C192.43 63.1381 191.495 61.755 190.423 61.5381C190.342 61.5245 190.261 61.5109 190.193 61.5109V61.5245Z" fill="#18292D"/>
<path d="M201.597 70.8671C201.366 70.8671 201.122 70.84 200.892 70.7993C198.532 70.3926 196.675 67.9654 196.675 65.2806C196.675 63.8162 197.244 62.5145 198.234 61.7009C199.116 60.9822 200.241 60.711 201.394 60.928C203.739 61.4026 205.583 63.8162 205.583 66.4332C205.583 67.8569 205.027 69.1451 204.051 69.9587C203.36 70.5417 202.505 70.8536 201.61 70.8536L201.597 70.8671ZM200.607 63.5721C200.363 63.5721 200.146 63.6535 199.956 63.8026C199.59 64.1009 199.387 64.6433 199.387 65.2942C199.387 66.623 200.309 67.9518 201.353 68.1417C201.719 68.2095 202.031 68.1281 202.302 67.9112C202.655 67.6129 202.872 67.084 202.872 66.4603C202.872 65.1586 201.936 63.8297 200.865 63.6128C200.783 63.5992 200.688 63.5857 200.607 63.5857V63.5721Z" fill="#18292D"/>
<path d="M240.609 83.7621C246.507 82.2977 249.599 84.8062 251.171 87.1656C251.388 87.491 251.592 87.83 251.768 88.1825C252.243 76.2501 255.904 67.9652 262.67 63.5041C268.555 59.6261 276.935 58.6905 286.901 60.8329C294.386 62.4329 300.203 65.2127 300.257 65.2398C300.433 65.3211 300.555 65.4838 300.596 65.6737C300.908 67.0974 308.067 100.874 303.362 116.576C298.657 132.305 297.193 137.282 297.193 137.282C297.138 137.458 297.016 137.607 296.854 137.675C296.745 137.729 289.911 140.753 279.375 138.597L277.884 152.631C277.857 152.821 277.762 152.997 277.599 153.092C277.382 153.228 274.263 155.099 265.585 153.051C259.47 151.614 250.602 148.238 238.059 140.929C237.829 140.794 237.707 140.536 237.761 140.265L243.524 109.105C239.225 108.454 235.239 104.264 233.924 98.542C232.337 91.5589 235.253 85.0503 240.581 83.735L240.609 83.7621Z" fill="white"/>
<path d="M256.704 48.1412C262.033 49.4022 266.48 52.4395 269.558 56.4803C254.101 57.1176 240.202 68.2907 236.378 84.5757C236.216 85.2943 236.066 86.013 235.944 86.7316C230.263 81.3621 227.497 73.1992 229.409 65.0364C232.283 52.8328 244.5 45.2665 256.704 48.1412Z" fill="#18292D"/>
<path d="M248.338 101.295L234.995 97.43L230.887 80.7111C228.853 72.4533 231.565 63.7346 237.937 58.1073C245.029 51.8293 253.504 44.7919 255.334 45.2258C257.409 45.7139 282.603 47.9377 298.006 50.7174C306.671 52.2767 312.42 60.5616 310.861 69.2262L304.312 86.6773L300.203 64.982C300.203 64.982 283.104 76.5077 260.582 69.4702L248.351 101.281L248.338 101.295Z" fill="#18292D"/>
<path d="M286.697 116.875C284.175 116.875 280.514 116.224 278.995 112.725C278.697 112.034 279.008 111.234 279.7 110.949C280.391 110.651 281.191 110.963 281.49 111.654C282.981 115.098 288.676 114.014 288.744 114C289.476 113.851 290.195 114.325 290.331 115.071C290.48 115.803 290.005 116.522 289.273 116.671C289.165 116.698 288.107 116.902 286.71 116.902L286.697 116.875Z" fill="#18292D"/>
<path d="M246.235 108.427C241.3 109.552 236.079 105.078 234.574 98.4335C233.069 91.7893 235.835 85.4977 240.757 84.3723C245.68 83.2468 250.913 87.7215 252.419 94.3656L246.235 108.427Z" fill="white"/>
<path d="M244.689 109.959C242.466 109.959 240.228 109.078 238.249 107.369C235.821 105.295 234.059 102.23 233.259 98.7318C232.459 95.2335 232.73 91.708 234.018 88.7791C235.36 85.7282 237.652 83.6807 240.472 83.0434C246.127 81.7553 252.079 86.7045 253.761 94.0538C253.923 94.786 253.476 95.5047 252.744 95.6809C252.011 95.8437 251.293 95.3826 251.117 94.664C249.774 88.7656 245.272 84.7384 241.082 85.6876C239.13 86.135 237.503 87.613 236.513 89.8639C235.455 92.2504 235.252 95.1792 235.916 98.1217C236.581 101.051 238.045 103.6 240.025 105.308C241.896 106.908 243.998 107.546 245.95 107.098C246.683 106.935 247.401 107.383 247.577 108.115C247.74 108.847 247.293 109.566 246.561 109.742C245.95 109.878 245.327 109.946 244.703 109.946L244.689 109.959Z" fill="#18292D"/>
<path d="M281.477 88.291C281.057 90.0673 279.959 91.3148 279.023 91.0978C278.087 90.8809 277.654 89.2673 278.074 87.491C278.494 85.7147 279.593 84.4672 280.528 84.6842C281.464 84.9011 281.898 86.5147 281.477 88.291Z" fill="#18292D"/>
<path d="M301.68 90.4606C301.26 92.2369 300.162 93.4843 299.226 93.2674C298.291 93.0504 297.857 91.4369 298.277 89.6606C298.697 87.8842 299.796 86.6368 300.731 86.8537C301.667 87.0707 302.101 88.6843 301.68 90.4606Z" fill="#18292D"/>
<path d="M286.752 140.21C279.294 140.21 268.419 137.77 255.972 127.356C255.402 126.881 255.321 126.014 255.809 125.444C256.283 124.875 257.138 124.793 257.721 125.268C268.975 134.678 278.792 137.065 285.057 137.404C290.426 137.688 294.155 136.577 295.511 136.088C296.026 134.312 297.721 128.617 301.491 116.007C306.047 100.793 298.765 66.433 298.684 66.094C298.521 65.3618 298.996 64.6431 299.728 64.4804C300.46 64.3312 301.179 64.7923 301.342 65.5245C301.654 66.9618 308.84 100.915 304.094 116.793C299.389 132.509 297.925 137.499 297.925 137.499C297.816 137.878 297.545 138.177 297.193 138.353C296.854 138.502 293.016 140.224 286.765 140.224L286.752 140.21Z" fill="#18292D"/>
<path d="M238.412 141.756C238.331 141.756 238.249 141.756 238.168 141.729C237.436 141.594 236.948 140.889 237.083 140.143L242.9 108.698C243.036 107.966 243.741 107.478 244.487 107.613C245.219 107.749 245.707 108.454 245.571 109.186L239.754 140.631C239.632 141.282 239.063 141.743 238.426 141.743L238.412 141.756Z" fill="#18292D"/>
<path d="M277.287 153.933C277.287 153.933 277.192 153.933 277.138 153.933C276.392 153.851 275.85 153.187 275.931 152.441L277.463 137.973C277.545 137.227 278.195 136.699 278.955 136.766C279.7 136.848 280.243 137.512 280.162 138.258L278.629 152.726C278.561 153.417 277.965 153.933 277.287 153.933Z" fill="#18292D"/>
<path d="M303.498 102.488C302.698 102.488 301.884 102.393 301.084 102.203C299.715 101.878 298.44 101.295 297.301 100.467C296.691 100.02 296.569 99.1793 297.003 98.5691C297.45 97.9589 298.291 97.8369 298.901 98.2708C299.742 98.881 300.677 99.3149 301.694 99.559C303.715 100.034 305.789 99.6946 307.552 98.6098C309.315 97.525 310.535 95.8165 311.01 93.7962C311.484 91.7758 311.145 89.7012 310.061 87.9384C308.976 86.1757 307.267 84.9418 305.247 84.4807C301.667 83.6401 297.979 85.4435 296.433 88.7656C296.121 89.4435 295.321 89.7418 294.63 89.43C293.952 89.1181 293.654 88.3045 293.966 87.6266C296.04 83.1384 301.044 80.7112 305.857 81.8366C308.583 82.4739 310.888 84.1418 312.352 86.5147C313.817 88.8876 314.278 91.6944 313.64 94.4199C313.003 97.1454 311.335 99.4505 308.962 100.915C307.281 101.959 305.396 102.488 303.471 102.488H303.498Z" fill="#FFC31F"/>
<path d="M279.144 99.7895C278.358 99.7895 277.544 99.6946 276.744 99.5048C274.019 98.8675 271.713 97.1997 270.249 94.8267C268.771 92.4538 268.324 89.647 268.961 86.9215C269.598 84.1961 271.266 81.8909 273.639 80.4265C276.012 78.9621 278.819 78.501 281.544 79.1383C287.158 80.4536 290.656 86.108 289.327 91.7216C288.188 96.5353 283.89 99.7895 279.144 99.7895ZM279.131 81.5791C277.707 81.5791 276.31 81.9723 275.063 82.7452C273.3 83.83 272.066 85.5385 271.605 87.5588C271.13 89.5792 271.469 91.6538 272.554 93.4166C273.639 95.1793 275.347 96.4132 277.368 96.8742C281.531 97.8505 285.707 95.2607 286.683 91.1114C287.66 86.9487 285.07 82.7723 280.92 81.796C280.324 81.6604 279.727 81.5926 279.131 81.5926V81.5791Z" fill="#FFC31F"/>
<path d="M250.792 90.9893C250.114 90.9893 249.531 90.4876 249.449 89.7961C249.355 89.0503 249.883 88.3723 250.629 88.2909L270.114 85.8909C270.86 85.796 271.538 86.3248 271.619 87.0706C271.714 87.8164 271.185 88.4943 270.44 88.5757L250.955 90.9757C250.955 90.9757 250.846 90.9757 250.792 90.9757V90.9893Z" fill="#FFC31F"/>
<path d="M290.644 110.583C290.088 110.583 289.573 110.244 289.369 109.701C289.112 108.996 289.464 108.223 290.169 107.952C293.288 106.786 296.325 105.173 296.963 104.359C295.973 101.376 293.18 85.8095 292.61 82.6095C292.474 81.8773 292.963 81.1722 293.708 81.0366C294.454 80.901 295.146 81.4027 295.281 82.1349C296.976 91.6672 299.064 102.434 299.566 103.586C299.729 103.966 299.864 104.562 299.566 105.295C298.631 107.505 293.356 109.674 291.132 110.501C290.969 110.556 290.82 110.583 290.658 110.583H290.644Z" fill="#18292D"/>
<path d="M296.187 89.3409C296.081 89.3645 295.989 89.3852 295.874 89.369L289.606 89.2933C288.853 89.2805 288.26 88.6764 288.259 87.9263C288.272 87.1733 288.889 86.5773 289.629 86.593L295.897 86.6687C296.65 86.6815 297.246 87.2989 297.244 88.0357C297.234 88.677 296.783 89.2082 296.187 89.3409Z" fill="#FFC31F"/>
<path d="M234.818 168.008L269.228 176.104C273.281 177.058 277.339 174.545 278.293 170.492L282.051 154.521C283.004 150.468 280.492 146.409 276.439 145.456L242.029 137.359C237.976 136.406 233.917 138.918 232.963 142.971L229.206 158.942C228.252 162.995 230.765 167.054 234.818 168.008Z" fill="#18292D"/>
<path d="M181.285 214.422C227.713 204.347 274.141 194.259 320.556 184.184C322.657 183.71 324.637 182.869 326.345 181.798C321.911 173.12 310.264 166.272 295.253 163.818L264.961 158.882L226.14 163.045C205.164 165.296 188.336 174.611 183.048 186.869L172.472 211.439C174.655 213.988 177.787 215.195 181.272 214.409L181.285 214.422Z" fill="#18292D"/>
<path d="M280.094 186.205V208.917C280.094 212.144 284.107 213.622 286.196 211.181L307.932 185.852C309.993 183.452 308.026 179.764 304.881 180.143L283.145 182.76C281.395 182.977 280.094 184.455 280.094 186.205Z" fill="#18292D"/>
</svg>
