<svg width="450" height="220" viewBox="0 0 450 220" fill="none" xmlns="http://www.w3.org/2000/svg">
<rect width="450" height="220" fill="white"/>
<path d="M215.184 47.3512C240.136 45.3919 264.093 53.4901 281.041 64.5174C298.157 75.7633 308.257 89.9404 309.36 105.091C310.471 120.388 302.798 134.916 291.43 149.267C279.908 163.401 264.691 177.36 247.251 186.407C213.542 205.323 174.918 190.011 156.507 144.294C138.076 98.8664 163.877 49.9608 215.184 47.3512Z" fill="#EEF9FB"/>
<mask id="mask0_564_47440" style="mask-type:alpha" maskUnits="userSpaceOnUse" x="115" y="0" width="220" height="220">
<rect x="115" width="220" height="220" fill="#D9D9D9"/>
</mask>
<g mask="url(#mask0_564_47440)">
<path d="M169.498 124.963L150.483 171.244C146.883 179.997 150.447 190.058 158.748 194.6C165.266 198.165 173.286 197.503 179.135 192.918L200.565 176.102L199.61 199.76H270.827L303.015 144.187L294.054 131.769C285.624 120.084 272.811 112.33 258.553 110.267L237.849 107.277L216.915 106.688C208.356 106.444 194.356 107.759 187.666 133.091L188.622 113.494L169.506 124.963H169.498Z" fill="#18292D"/>
<path d="M166.617 132.983L165.841 122.736L131.224 102.197C130.189 101.579 129.866 100.228 130.527 99.2143C131.59 97.5686 133.689 96.9362 135.478 97.7195L154.889 106.178L171.899 102.175L166.021 91.0146C164.878 88.8371 165.985 86.1565 168.335 85.4307C169.858 84.9564 171.518 85.4594 172.532 86.6955L183.972 100.666C187.968 105.546 189.894 111.798 189.341 118.079L188.105 132.013L166.603 132.983H166.617Z" fill="white"/>
<path d="M166.617 133.702C166.243 133.702 165.927 133.415 165.898 133.041L165.151 123.167L130.857 102.815C130.182 102.412 129.715 101.78 129.542 101.018C129.362 100.256 129.499 99.4801 129.923 98.8189C131.181 96.8714 133.638 96.1312 135.766 97.0583L154.961 105.416L170.835 101.679L165.388 91.3378C164.741 90.109 164.677 88.6717 165.208 87.3925C165.74 86.1133 166.804 85.1431 168.126 84.7335C169.944 84.173 171.892 84.7622 173.092 86.2283L184.533 100.199C188.672 105.258 190.634 111.625 190.059 118.129L188.823 132.063C188.787 132.459 188.435 132.753 188.047 132.717C187.652 132.681 187.357 132.337 187.393 131.941L188.629 118.007C189.175 111.877 187.321 105.876 183.426 101.111L171.985 87.141C171.152 86.1277 169.808 85.7252 168.557 86.1061C167.645 86.3864 166.904 87.0619 166.538 87.9458C166.171 88.8298 166.215 89.8215 166.66 90.6695L172.539 101.83C172.639 102.024 172.646 102.261 172.56 102.462C172.467 102.664 172.287 102.815 172.071 102.865L155.061 106.868C154.91 106.904 154.752 106.889 154.608 106.825L135.198 98.3662C133.717 97.7194 132.007 98.2368 131.13 99.5951C130.922 99.9185 130.85 100.307 130.943 100.68C131.03 101.054 131.267 101.37 131.597 101.571L166.215 122.11C166.416 122.232 166.545 122.441 166.567 122.678L167.343 132.926C167.372 133.321 167.077 133.666 166.682 133.695C166.66 133.695 166.646 133.695 166.624 133.695L166.617 133.702Z" fill="#18292D"/>
<path d="M145.891 106.336L138.769 92.7464C138.108 91.4888 139.15 90.0156 140.558 90.2168C142.348 90.4755 143.95 91.4673 144.971 92.962L153.853 105.186L145.898 106.336H145.891Z" fill="white"/>
<path d="M145.891 107.055C145.632 107.055 145.381 106.918 145.251 106.667L138.13 93.0772C137.698 92.2579 137.763 91.2734 138.302 90.5188C138.834 89.7642 139.747 89.3762 140.659 89.5055C142.643 89.793 144.432 90.8997 145.56 92.5598L154.429 104.762C154.666 105.086 154.594 105.531 154.27 105.768C153.947 106.006 153.502 105.934 153.264 105.61L144.382 93.3862C143.469 92.0495 142.039 91.1584 140.451 90.9284C140.063 90.8709 139.696 91.029 139.474 91.3524C139.251 91.6686 139.222 92.0711 139.402 92.416L146.523 106.006C146.71 106.358 146.574 106.789 146.222 106.976C146.114 107.033 145.999 107.055 145.891 107.055Z" fill="#18292D"/>
<path d="M172.194 114.809L160.825 108.255L154.954 95.0102C154.149 93.1992 152.453 91.9487 150.491 91.7188C149.219 91.5678 148.206 92.7608 148.551 93.9897L153.394 111.101L172.194 114.809Z" fill="white"/>
<path d="M172.194 115.528C172.071 115.528 171.949 115.499 171.834 115.434L160.465 108.88C160.336 108.801 160.228 108.686 160.171 108.549L154.299 95.3048C153.602 93.7382 152.115 92.6387 150.412 92.4374C150.052 92.3943 149.707 92.5309 149.47 92.804C149.233 93.0842 149.154 93.4436 149.255 93.7957L154.098 110.907C154.206 111.288 153.983 111.683 153.602 111.791C153.221 111.898 152.826 111.676 152.718 111.295L147.875 94.1838C147.645 93.3717 147.832 92.5093 148.378 91.8697C148.924 91.2301 149.75 90.9067 150.584 91.0073C152.79 91.2661 154.716 92.689 155.615 94.7227L161.392 107.752L172.56 114.191C172.905 114.392 173.02 114.83 172.826 115.175C172.697 115.405 172.452 115.535 172.201 115.535L172.194 115.528Z" fill="#18292D"/>
<path d="M166.113 38.3739C171.797 44.0584 172.846 52.9049 168.635 59.7608L167.054 62.3407C163.166 68.6792 161.104 75.9734 161.104 83.4114V84.0222H146.537V83.4114C146.537 75.9734 144.474 68.6792 140.586 62.3407L139.005 59.7608C134.801 52.9049 135.843 44.0584 141.528 38.3739C148.319 31.5827 159.329 31.5827 166.12 38.3739H166.113Z" fill="white"/>
<path d="M161.104 84.7409H146.537C146.142 84.7409 145.818 84.4175 145.818 84.0222V83.4114C145.818 76.1028 143.799 68.945 139.976 62.7144L138.395 60.1345C133.997 52.9696 135.075 43.8069 141.025 37.8637C144.439 34.4429 148.98 32.5601 153.824 32.5601C158.668 32.5601 163.21 34.4429 166.623 37.8637C172.566 43.8069 173.652 52.9696 169.253 60.1345L167.672 62.7144C163.849 68.945 161.83 76.1028 161.83 83.4114V84.0222C161.83 84.4175 161.506 84.7409 161.111 84.7409H161.104ZM147.248 83.3036H160.385C160.407 75.765 162.498 68.3917 166.443 61.967L168.025 59.3871C172.07 52.7899 171.079 44.3602 165.603 38.8841C159.106 32.3804 148.535 32.3804 142.031 38.8769C136.555 44.353 135.563 52.7827 139.609 59.3799L141.19 61.9598C145.136 68.3845 147.227 75.7578 147.248 83.2964V83.3036Z" fill="#18292D"/>
<path d="M156.11 88.3771H151.942C148.284 88.3771 145.309 85.4091 145.309 81.744V75.0319H162.743V81.7512C162.743 85.4091 159.775 88.3843 156.11 88.3843V88.3771Z" fill="#18292D"/>
<path d="M151.648 76.5843C151.26 76.5843 150.937 76.2681 150.93 75.88C150.922 75.4273 150.771 66.3867 150.851 61.6724C148.012 60.616 145.569 58.575 144.792 55.7723C144.354 54.1985 145.03 52.4594 146.352 51.7407C147.027 51.3742 148.817 50.7849 150.958 53.1924C152.439 54.8524 152.59 56.5916 152.36 59.6171C152.338 59.883 152.324 60.2279 152.309 60.6375C153.201 60.8819 154.12 61.0256 155.012 61.0544C155.012 61.0328 155.012 61.0112 155.026 60.9825C155.069 60.7813 156.104 56.0454 159.223 55.5064C161.192 55.1687 162.126 56.1173 162.349 57.1234C162.737 58.8912 161.055 61.3418 157.936 62.1683C157.462 62.2976 156.959 62.3838 156.449 62.4342V75.6213C156.449 76.0165 156.125 76.3399 155.73 76.3399C155.335 76.3399 155.012 76.0165 155.012 75.6213V62.4845C154.106 62.4629 153.186 62.3335 152.281 62.1108C152.216 66.9329 152.36 75.7435 152.367 75.8513C152.367 76.2465 152.058 76.5771 151.663 76.5843H151.648ZM159.999 56.8718C159.812 56.8718 159.625 56.8934 159.474 56.9221C157.821 57.2096 156.844 59.7249 156.513 60.9825C156.88 60.9394 157.232 60.8675 157.577 60.7741C160.164 60.0842 161.134 58.2588 160.955 57.4252C160.861 56.9868 160.423 56.8718 160.006 56.8718H159.999ZM147.696 52.8331C147.466 52.8331 147.25 52.8906 147.049 52.9983C146.309 53.4008 145.928 54.45 146.187 55.3842C146.783 57.5402 148.659 59.1931 150.901 60.1417C150.908 59.8973 150.922 59.6889 150.937 59.5093C151.167 56.4766 150.937 55.3268 149.895 54.1482C149.133 53.293 148.364 52.8402 147.703 52.8402L147.696 52.8331Z" fill="#FFC31F"/>
<path d="M131.144 52.567H124.454C124.094 52.567 123.8 52.2723 123.8 51.913C123.8 51.5537 124.094 51.259 124.454 51.259H131.144C131.504 51.259 131.798 51.5537 131.798 51.913C131.798 52.2723 131.504 52.567 131.144 52.567Z" fill="#FFC31F"/>
<path d="M131.784 44.9205C131.749 44.9205 131.713 44.9205 131.67 44.9134L125.295 43.7995C124.943 43.7348 124.699 43.397 124.763 43.0449C124.828 42.6927 125.159 42.4484 125.518 42.5131L131.892 43.627C132.244 43.6917 132.489 44.0294 132.424 44.3816C132.367 44.6978 132.094 44.9205 131.784 44.9205Z" fill="#FFC31F"/>
<path d="M127.795 60.5297C127.515 60.5297 127.264 60.35 127.17 60.0769C127.062 59.732 127.249 59.3655 127.594 59.2577L131.101 58.1438C131.446 58.036 131.813 58.2228 131.92 58.5678C132.028 58.9127 131.841 59.2792 131.496 59.387L127.989 60.5009C127.925 60.5225 127.86 60.5297 127.788 60.5297H127.795Z" fill="#FFC31F"/>
<path d="M180.796 58.8984C180.738 58.8984 180.688 58.8984 180.63 58.8768L174.155 57.188C173.803 57.0946 173.595 56.7424 173.688 56.3903C173.782 56.0382 174.134 55.8298 174.486 55.9232L180.961 57.612C181.313 57.7054 181.522 58.0576 181.428 58.4097C181.349 58.7043 181.083 58.8984 180.796 58.8984Z" fill="#FFC31F"/>
<path d="M182.075 50.1739C182.075 50.1739 182.039 50.1739 182.018 50.1739L175.571 49.6493C175.212 49.6206 174.946 49.3044 174.975 48.945C175.004 48.5857 175.313 48.3198 175.679 48.3486L182.125 48.8732C182.485 48.9019 182.751 49.2181 182.722 49.5774C182.693 49.9224 182.406 50.1739 182.068 50.1739H182.075Z" fill="#FFC31F"/>
<path d="M175.543 65.7613C175.42 65.7613 175.305 65.7326 175.198 65.6607L172.086 63.6988C171.784 63.5048 171.691 63.1024 171.885 62.8005C172.079 62.4987 172.481 62.4053 172.783 62.5993L175.895 64.5612C176.197 64.7552 176.29 65.1577 176.096 65.4595C175.974 65.6535 175.758 65.7613 175.543 65.7613Z" fill="#FFC31F"/>
<path d="M174.522 42.9517C174.277 42.9517 174.04 42.8151 173.932 42.578C173.781 42.2546 173.918 41.8593 174.249 41.7084L178.309 39.7968C178.632 39.6459 179.028 39.7825 179.178 40.113C179.329 40.4436 179.193 40.8317 178.862 40.9826L174.802 42.8942C174.716 42.9373 174.615 42.9589 174.522 42.9589V42.9517Z" fill="#FFC31F"/>
<path d="M250.743 81.7227C260.418 75.7849 263.447 63.1288 257.509 53.4544C251.571 43.78 238.915 40.7509 229.241 46.6887C219.566 52.6264 216.537 65.2826 222.475 74.957C228.413 84.6313 241.069 87.6605 250.743 81.7227Z" fill="#18292D"/>
<path d="M229.769 68.9059C236.349 67.2239 240.319 60.5269 238.637 53.9476C236.955 47.3682 230.258 43.3981 223.679 45.0801C217.099 46.762 213.129 53.4591 214.811 60.0384C216.493 66.6177 223.19 70.5878 229.769 68.9059Z" fill="#18292D"/>
<path d="M269.056 88.2459C277.052 82.561 278.926 71.4701 273.241 63.4736C267.556 55.4772 256.466 53.6033 248.469 59.2881C240.473 64.973 238.599 76.064 244.284 84.0604C249.969 92.0569 261.059 93.9308 269.056 88.2459Z" fill="#18292D"/>
<path d="M255.499 89.8575C255.463 89.8575 255.42 89.8575 255.377 89.8503C253.781 89.5844 252.294 88.8874 251.065 87.8525C250.49 87.3638 249.973 86.8033 249.534 86.1853C249.304 85.8619 249.383 85.4163 249.707 85.1863C250.03 84.9564 250.476 85.0354 250.706 85.3588C251.072 85.8762 251.511 86.3505 251.992 86.7602C253.02 87.6297 254.277 88.2118 255.614 88.4346C256.002 88.4993 256.268 88.873 256.203 89.2611C256.146 89.6132 255.837 89.8575 255.492 89.8575H255.499Z" fill="#18292D"/>
<path d="M221.809 97.7124C211.813 93.8748 207.695 80.3787 212.611 67.5652C217.526 54.7518 229.614 47.4791 239.617 51.3095C247.961 54.5146 252.208 64.4463 250.526 75.0966C252.352 72.8041 255.334 71.5537 258.432 72.0927C262.736 72.8473 265.783 76.9723 265.223 81.3057C264.619 85.9985 260.243 89.2036 255.622 88.4275C254.63 88.2622 253.717 87.9173 252.898 87.4429L252.567 109.872C255.205 110.44 257.792 111.065 260.293 111.755C256.772 121.995 245.381 128.377 233.279 126.336C222.521 124.518 214.494 116.598 212.862 107.256C217.045 106.832 221.493 106.66 226.143 106.746L226.251 98.6826C224.749 98.5748 223.261 98.2586 221.817 97.7052L221.809 97.7124Z" fill="white"/>
<path d="M237.691 127.428C236.196 127.428 234.68 127.306 233.156 127.047C222.327 125.222 213.882 117.317 212.151 107.385C212.115 107.191 212.165 106.99 212.287 106.825C212.409 106.667 212.589 106.566 212.79 106.544C216.8 106.142 221.047 105.962 225.431 106.02L225.517 99.3436C224.145 99.1927 222.815 98.8693 221.558 98.3807C216.513 96.4475 212.74 92.1213 210.936 86.214C209.154 80.3714 209.513 73.6521 211.942 67.3065C216.994 54.1481 229.52 46.667 239.876 50.6411C247.817 53.6881 252.416 62.7718 251.489 73.1419C253.465 71.604 256.024 70.9428 258.553 71.3812C263.232 72.2004 266.538 76.692 265.934 81.3919C265.618 83.8497 264.346 86.0128 262.362 87.486C260.379 88.9592 257.943 89.5413 255.499 89.1317C254.845 89.0239 254.213 88.8371 253.595 88.5855L253.286 109.297C255.794 109.843 258.208 110.44 260.479 111.065C260.673 111.115 260.832 111.244 260.925 111.424C261.018 111.597 261.033 111.805 260.968 111.992C257.763 121.305 248.205 127.428 237.691 127.428ZM213.717 107.903C215.636 116.879 223.448 123.95 233.401 125.632C244.633 127.529 255.629 121.801 259.351 112.251C257.159 111.661 254.824 111.101 252.416 110.576C252.078 110.504 251.841 110.202 251.848 109.865L252.179 87.4357C252.179 87.1842 252.323 86.947 252.538 86.8249C252.761 86.7027 253.027 86.7027 253.25 86.8249C254.033 87.2704 254.874 87.5794 255.736 87.7232C257.784 88.0681 259.833 87.5794 261.5 86.3434C263.167 85.1073 264.231 83.2891 264.497 81.2194C265.007 77.2669 262.226 73.494 258.295 72.8113C255.571 72.337 252.804 73.3862 251.072 75.5565C250.871 75.8152 250.519 75.8943 250.217 75.7649C249.915 75.6355 249.743 75.3193 249.8 74.996C251.468 64.4534 247.17 54.9889 239.344 51.9921C229.729 48.3055 218.036 55.4129 213.272 67.8311C210.95 73.8821 210.605 80.2636 212.294 85.8044C213.969 91.2804 217.433 95.2761 222.061 97.0512C223.397 97.5614 224.82 97.8776 226.286 97.9782C226.667 98.007 226.962 98.3232 226.955 98.704L226.847 106.767C226.847 106.961 226.768 107.141 226.631 107.277C226.495 107.407 226.301 107.479 226.121 107.479C221.823 107.4 217.648 107.543 213.71 107.91L213.717 107.903Z" fill="#18292D"/>
<path d="M253.12 82.9083C253.12 82.9083 253.084 82.9083 253.063 82.9083C252.667 82.8796 252.373 82.5346 252.401 82.1394C252.588 79.6816 253.429 77.8275 254.902 76.613C257.022 74.8667 259.645 75.147 259.76 75.1613C260.156 75.2044 260.436 75.5638 260.393 75.959C260.35 76.3543 259.99 76.6274 259.602 76.5914C259.602 76.5914 257.446 76.3758 255.808 77.7341C254.658 78.6899 253.99 80.2134 253.839 82.2544C253.81 82.6281 253.494 82.9155 253.12 82.9155V82.9083Z" fill="#18292D"/>
<path d="M251.23 74.8307C251.036 74.8523 250.842 74.881 250.648 74.8954C239.703 75.7937 229.872 65.2224 228.679 51.2807C228.665 51.1226 228.658 50.9645 228.65 50.8136C232.409 49.6063 236.318 49.5632 239.962 50.9501C248.428 54.184 252.79 64.1157 251.23 74.8235V74.8307Z" fill="#18292D"/>
<path d="M227.414 100.271C227.184 100.271 226.955 100.271 226.725 100.256C226.329 100.242 226.02 99.9041 226.035 99.5089C226.049 99.1136 226.394 98.783 226.782 98.819C232.402 99.0489 238.187 96.2318 242.714 91.1007C242.98 90.7989 243.433 90.7773 243.728 91.036C244.022 91.3019 244.051 91.7547 243.792 92.0493C239.164 97.3026 233.228 100.271 227.414 100.271Z" fill="#18292D"/>
<path d="M218.238 64.7195C218.482 65.3663 217.217 66.4371 215.428 67.1054C213.631 67.7738 211.978 67.7881 211.741 67.1414C211.497 66.4946 212.762 65.4238 214.558 64.7555C216.355 64.0871 218.008 64.0727 218.245 64.7195H218.238Z" fill="#18292D"/>
<path d="M234.471 70.2603C234.155 71.058 232.107 70.9933 229.901 70.1166C227.695 69.2398 226.157 67.8816 226.473 67.0839C226.789 66.2862 228.837 66.3509 231.043 67.2276C233.25 68.1043 234.788 69.4626 234.471 70.2603Z" fill="#18292D"/>
<path d="M219.638 77.3389C219.423 77.3389 219.214 77.2455 219.071 77.0658C218.302 76.0884 218.1 74.7661 218.553 73.6091L220.587 68.3702C220.731 67.9965 221.148 67.8168 221.514 67.9606C221.881 68.1043 222.067 68.5211 221.924 68.8876L219.89 74.1265C219.617 74.8236 219.732 75.5854 220.199 76.1747C220.443 76.4837 220.393 76.9364 220.077 77.1808C219.947 77.2814 219.789 77.3317 219.631 77.3317L219.638 77.3389Z" fill="#18292D"/>
<path d="M229.75 74.8955C229.476 74.8955 229.211 74.7374 229.096 74.4715C228.082 72.2006 226.681 72.718 226.616 72.7396C226.25 72.8833 225.833 72.6965 225.689 72.33C225.545 71.9634 225.732 71.5466 226.099 71.4029C227.04 71.0364 229.16 71.0867 230.411 73.8966C230.569 74.2559 230.411 74.6871 230.044 74.8452C229.951 74.8883 229.85 74.9099 229.757 74.9099L229.75 74.8955Z" fill="#18292D"/>
<path d="M213.458 71.1083C213.321 71.1083 213.185 71.0724 213.063 70.9933C212.732 70.7777 212.639 70.3394 212.847 70.0088C213.393 69.1536 215.132 67.9463 217.799 69.4698C218.143 69.671 218.258 70.1094 218.064 70.4543C217.87 70.7993 217.425 70.9143 217.08 70.7202C215.003 69.5273 214.141 70.6628 214.054 70.7921C213.918 71.0005 213.688 71.1083 213.458 71.1083Z" fill="#18292D"/>
<path d="M221.988 82.0315C221.176 82.0315 220.199 81.7225 219.135 80.8385C218.833 80.587 218.79 80.1343 219.042 79.8252C219.293 79.5234 219.753 79.4803 220.055 79.7318C221.895 81.2697 222.937 80.2995 223.052 80.1846C223.325 79.9043 223.778 79.8899 224.065 80.163C224.353 80.4361 224.367 80.8745 224.101 81.1691C223.727 81.5787 222.973 82.0315 221.988 82.0315Z" fill="#18292D"/>
<path d="M186.229 175.326C186.229 175.326 186.207 175.326 186.2 175.326C185.841 175.312 185.56 175.003 185.575 174.643L187.486 133.062C187.501 132.703 187.803 132.408 188.169 132.437C188.528 132.452 188.809 132.761 188.794 133.12L186.883 174.701C186.868 175.053 186.581 175.326 186.229 175.326Z" fill="white"/>
<path d="M287.917 172.761H268.319C267.924 172.761 267.601 172.437 267.601 172.042C267.601 171.647 267.924 171.323 268.319 171.323H287.917C288.312 171.323 288.635 171.647 288.635 172.042C288.635 172.437 288.312 172.761 287.917 172.761Z" fill="#18292D"/>
<path d="M277.719 173.077C277.446 173.077 277.188 172.926 277.066 172.66L268.463 154.176C268.298 153.817 268.449 153.386 268.808 153.22C269.168 153.055 269.599 153.206 269.764 153.565L278.366 172.049C278.532 172.408 278.381 172.839 278.021 173.005C277.921 173.048 277.82 173.069 277.719 173.069V173.077Z" fill="#18292D"/>
<path d="M258.452 139.99L306.213 118.776C307.478 118.215 308.729 119.588 308.046 120.795L294.226 145.193L263.612 163.562L258.452 139.99Z" fill="white"/>
<path d="M263.613 164.28C263.519 164.28 263.419 164.259 263.325 164.223C263.117 164.129 262.959 163.942 262.909 163.72L257.749 140.148C257.677 139.818 257.849 139.48 258.158 139.336L305.919 118.122C306.782 117.741 307.752 117.942 308.392 118.646C309.024 119.351 309.139 120.335 308.672 121.154L294.852 145.552C294.795 145.66 294.701 145.754 294.594 145.811L263.979 164.18C263.864 164.244 263.735 164.28 263.613 164.28ZM259.279 140.407L264.101 162.426L293.695 144.676L307.421 120.436C307.659 120.019 307.407 119.688 307.328 119.602C307.249 119.509 306.947 119.236 306.502 119.43L259.279 140.407Z" fill="#18292D"/>
<path d="M305.495 122.06L312.286 129.85L269.096 151.84L268.025 150.288L256.742 151.107L260.034 141.657L305.495 122.06Z" fill="white"/>
<path d="M269.096 152.552C268.866 152.552 268.643 152.444 268.507 152.243L267.666 151.029L256.793 151.819C256.556 151.841 256.318 151.733 256.167 151.539C256.024 151.345 255.981 151.093 256.06 150.863L259.351 141.413C259.416 141.226 259.559 141.068 259.746 140.989L305.201 121.392C305.488 121.269 305.819 121.341 306.027 121.578L312.818 129.369C312.962 129.534 313.027 129.757 312.983 129.979C312.94 130.195 312.804 130.382 312.603 130.482L269.412 152.473C269.304 152.523 269.196 152.552 269.089 152.552H269.096ZM268.018 149.563C268.255 149.563 268.471 149.677 268.607 149.872L269.326 150.906L311.129 129.62L305.287 122.922L260.601 142.189L257.77 150.31L267.96 149.57C267.96 149.57 267.996 149.57 268.011 149.57L268.018 149.563Z" fill="#18292D"/>
<path d="M266.744 149.448C266.558 149.448 266.364 149.376 266.22 149.225L259.508 142.153C259.235 141.866 259.249 141.413 259.536 141.14C259.824 140.867 260.284 140.881 260.55 141.169L267.262 148.24C267.535 148.528 267.521 148.98 267.233 149.253C267.097 149.383 266.917 149.448 266.737 149.448H266.744Z" fill="#18292D"/>
<path d="M314.319 130.238L291.782 168.398C291.373 169.088 290.754 169.634 290.014 169.951L253.996 182.182C249.684 180.364 246.594 176.469 245.796 171.855L245.753 171.618L258.459 139.997L258.717 141.384C259.501 145.574 263.101 148.643 267.355 148.758L312.493 128.212C313.773 127.63 315.037 129.038 314.326 130.245L314.319 130.238Z" fill="white"/>
<path d="M253.996 182.893C253.903 182.893 253.809 182.872 253.716 182.836C249.153 180.91 245.926 176.849 245.085 171.97L245.042 171.733C245.02 171.603 245.035 171.467 245.085 171.345L257.791 139.724C257.913 139.43 258.207 139.25 258.531 139.279C258.847 139.307 259.106 139.545 259.163 139.861L259.422 141.248C260.126 145.021 263.389 147.852 267.212 148.025L312.192 127.543C313.062 127.148 314.046 127.349 314.686 128.061C315.325 128.772 315.426 129.771 314.937 130.597L292.401 168.757C291.919 169.577 291.172 170.231 290.295 170.604L254.226 182.857C254.154 182.886 254.075 182.893 253.996 182.893ZM246.494 171.69V171.725C247.241 176.03 250.051 179.631 254.025 181.406L289.785 169.261C290.331 169.031 290.834 168.585 291.165 168.024L313.701 129.864C313.946 129.448 313.701 129.11 313.615 129.024C313.529 128.93 313.227 128.65 312.781 128.851L267.643 149.397C267.543 149.44 267.435 149.462 267.327 149.462C263.094 149.347 259.408 146.458 258.229 142.455L246.486 171.682L246.494 171.69Z" fill="#18292D"/>
<path d="M265.876 154.464L313.637 133.249C314.902 132.689 316.152 134.061 315.47 135.269L301.65 159.667L271.036 178.035L265.876 154.464Z" fill="#4A7C88"/>
<path d="M312.912 136.526L319.71 144.316L276.52 166.307L275.449 164.755L264.166 165.574L267.457 156.124L312.912 136.526Z" fill="white"/>
<path d="M321.743 144.705L299.206 182.865C298.796 183.555 298.178 184.101 297.438 184.417L261.42 196.648C257.108 194.83 254.018 190.935 253.22 186.321L253.177 186.084L265.882 154.464L266.141 155.851C266.924 160.04 270.525 163.109 274.779 163.224L319.917 142.678C321.196 142.096 322.461 143.504 321.75 144.712L321.743 144.705Z" fill="#4A7C88"/>
<path d="M274.169 163.921C273.982 163.921 273.788 163.849 273.645 163.698L266.932 156.627C266.659 156.339 266.674 155.886 266.961 155.613C267.249 155.34 267.709 155.355 267.974 155.642L274.687 162.714C274.96 163.001 274.945 163.454 274.658 163.727C274.521 163.856 274.342 163.921 274.162 163.921H274.169Z" fill="#18292D"/>
<path d="M320.701 149.929L319.659 149.239L308.262 167.917L307.442 167.169C305.243 165.164 302.412 163.986 299.437 163.842L288.65 163.318C287.586 163.267 287.385 165.186 287.823 166.149C288.786 168.276 296.648 168.722 296.648 168.722L275.254 175.146C274.205 175.463 272.624 176.066 272.056 177.259C271.661 178.078 271.905 179.006 272.818 178.962L284.18 178.431C284.18 178.431 271.941 182.096 269.426 183.102C267.716 183.785 267.263 184.805 266.983 185.308C266.566 186.041 267.205 186.932 268.032 186.774L285.933 183.425L273.17 188.815C272.272 189.196 271.539 189.893 271.115 190.777L270.856 191.33C270.49 192.099 271.194 192.947 272.02 192.724L288.563 188.24L278.926 192.653C278.201 193.012 277.015 193.817 276.972 194.801C276.972 194.801 277.036 196.418 277.324 196.404C279.149 196.289 291.381 191.575 291.381 191.575L301.628 188.707C304.007 188.226 306.185 187.054 307.888 185.33L320.91 174.399C328.075 168.384 327.952 154.751 320.694 149.944L320.701 149.929Z" fill="white"/>
<path d="M277.339 197.108C277.152 197.108 276.915 197.022 276.785 196.9C276.634 196.77 276.333 196.49 276.261 194.823C276.325 193.249 278.079 192.265 278.618 191.999L280.35 191.208L272.215 193.414C271.561 193.594 270.885 193.378 270.447 192.861C270.008 192.336 269.922 191.632 270.21 191.021L270.468 190.468C270.964 189.426 271.827 188.599 272.89 188.147L279.509 185.351L268.162 187.478C267.5 187.601 266.846 187.335 266.451 186.788C266.063 186.242 266.02 185.538 266.358 184.949L266.415 184.841C266.739 184.252 267.335 183.166 269.16 182.433C270.562 181.873 274.845 180.529 278.453 179.422L272.854 179.688C272.251 179.717 271.74 179.473 271.439 179.013C271.079 178.467 271.065 177.676 271.41 176.957C271.934 175.858 273.12 175.046 275.046 174.464L293.048 169.059C290.626 168.664 287.824 167.902 287.17 166.458C286.789 165.617 286.746 164.18 287.335 163.31C287.658 162.829 288.126 162.585 288.679 162.613L299.459 163.138C302.592 163.289 305.596 164.539 307.91 166.652L308.082 166.81L319.027 148.88C319.128 148.715 319.293 148.592 319.487 148.549C319.681 148.506 319.875 148.549 320.041 148.65L321.083 149.34C324.489 151.596 326.609 155.765 326.889 160.774C327.205 166.386 325.093 171.812 321.363 174.938L308.341 185.869C306.58 187.658 304.288 188.894 301.758 189.397L291.561 192.25C290.361 192.717 279.236 196.993 277.353 197.108C277.339 197.108 277.331 197.108 277.317 197.108H277.339ZM288.564 187.514C288.859 187.514 289.132 187.701 289.239 187.989C289.369 188.341 289.203 188.729 288.866 188.887L279.229 193.299C278.517 193.652 277.712 194.291 277.691 194.83C277.705 195.074 277.734 195.362 277.763 195.599C279.89 195.103 286.681 192.609 291.122 190.899L301.435 188.01C303.734 187.543 305.768 186.444 307.378 184.819L320.45 173.846C323.835 171 325.761 166.027 325.466 160.86C325.208 156.304 323.325 152.545 320.299 150.54L319.875 150.26L308.866 168.298C308.751 168.477 308.564 168.607 308.355 168.635C308.14 168.664 307.931 168.6 307.773 168.456L306.954 167.708C304.877 165.818 302.197 164.705 299.394 164.568L288.614 164.043C288.614 164.043 288.578 164.043 288.528 164.115C288.284 164.475 288.262 165.373 288.478 165.862C288.959 166.932 293.12 167.809 296.685 168.01C297.03 168.032 297.317 168.298 297.36 168.643C297.403 168.988 297.188 169.318 296.85 169.419L275.456 175.844C273.961 176.289 273.034 176.878 272.703 177.575C272.56 177.877 272.581 178.129 272.639 178.215C272.66 178.244 272.725 178.251 272.79 178.251L284.144 177.719C284.511 177.69 284.827 177.956 284.884 178.316C284.942 178.675 284.734 179.02 284.381 179.128C284.259 179.164 272.143 182.793 269.692 183.777C268.348 184.316 267.939 185.057 267.673 185.538L267.601 185.66C267.522 185.79 267.579 185.905 267.615 185.955C267.651 186.012 267.745 186.099 267.888 186.07L285.79 182.721C286.149 182.663 286.501 182.872 286.609 183.224C286.717 183.576 286.537 183.95 286.2 184.094L273.436 189.483C272.696 189.8 272.1 190.367 271.755 191.093L271.496 191.646C271.431 191.79 271.496 191.898 271.532 191.948C271.575 191.999 271.669 192.078 271.819 192.042L288.363 187.557C288.427 187.543 288.492 187.529 288.55 187.529L288.564 187.514Z" fill="#18292D"/>
<path d="M200.566 139.3L203.433 149.34L197.936 157.59C194.263 163.095 193.94 170.188 197.102 176.001C199.603 180.615 204.008 183.885 209.146 184.956L212.517 185.66L200.566 139.3Z" fill="#18292D"/>
<path d="M212.51 186.321C212.467 186.321 212.424 186.321 212.373 186.307L209.003 185.603C203.671 184.489 199.114 181.104 196.52 176.318C193.236 170.267 193.566 162.958 197.39 157.23L202.722 149.232L199.934 139.487C199.833 139.142 200.034 138.776 200.379 138.682C200.731 138.582 201.091 138.783 201.184 139.128L204.051 149.167C204.102 149.354 204.073 149.548 203.965 149.706L198.468 157.956C194.917 163.274 194.608 170.073 197.663 175.692C200.077 180.141 204.31 183.288 209.269 184.323L212.639 185.028C212.991 185.099 213.221 185.444 213.149 185.804C213.085 186.113 212.812 186.321 212.51 186.321Z" fill="white"/>
</g>
</svg>
