<svg width="470" height="250" viewBox="0 0 470 250" fill="none" xmlns="http://www.w3.org/2000/svg">
<g clip-path="url(#clip0_562_8728)">
<g opacity="0.9">
<path d="M253.485 189.332L253.485 189.332C226.26 216.542 182.097 216.522 154.831 189.319C127.659 162.136 127.613 118.021 154.845 90.8188C182.055 63.6849 226.128 63.6427 253.357 90.6913V90.6976L253.485 90.8255C280.711 118.029 280.737 162.143 253.485 189.332Z" fill="white" stroke="#18292D" stroke-width="0.873129"/>
<mask id="path-2-inside-1_562_8728" fill="white">
<path d="M232.575 111.706C216.899 96.0546 191.457 96.0546 175.755 111.706C160.066 127.378 160.093 152.787 175.748 168.445C191.457 184.11 216.893 184.13 232.575 168.445C248.27 152.787 248.256 127.371 232.575 111.699V111.706ZM223.663 159.549C212.898 170.302 195.445 170.295 184.667 159.549C173.923 148.81 173.909 131.368 184.667 120.615C195.438 109.876 212.898 109.876 223.656 120.615C234.414 131.368 234.427 148.803 223.656 159.556L223.663 159.549Z"/>
</mask>
<path d="M232.575 111.706C216.899 96.0546 191.457 96.0546 175.755 111.706C160.066 127.378 160.093 152.787 175.748 168.445C191.457 184.11 216.893 184.13 232.575 168.445C248.27 152.787 248.256 127.371 232.575 111.699V111.706ZM223.663 159.549C212.898 170.302 195.445 170.295 184.667 159.549C173.923 148.81 173.909 131.368 184.667 120.615C195.438 109.876 212.898 109.876 223.656 120.615C234.414 131.368 234.427 148.803 223.656 159.556L223.663 159.549Z" fill="#4A7C88"/>
<path d="M232.575 111.706L231.958 112.324L233.448 113.812V111.706H232.575ZM175.755 111.706L175.139 111.088L175.138 111.088L175.755 111.706ZM175.748 168.445L175.131 169.062L175.132 169.063L175.748 168.445ZM232.575 168.445L231.958 167.827L231.957 167.828L232.575 168.445ZM232.575 111.699L233.192 111.082L231.701 109.593V111.699H232.575ZM184.667 159.549L184.05 160.167L184.05 160.168L184.667 159.549ZM184.667 120.615L184.05 119.997L184.05 119.998L184.667 120.615ZM223.656 120.615L224.273 119.998L224.273 119.997L223.656 120.615ZM223.656 159.556L223.039 158.938L224.273 160.174L223.656 159.556ZM233.191 111.088C217.175 95.0961 191.181 95.0969 175.139 111.088L176.371 112.325C191.733 97.0124 216.624 97.0131 231.958 112.324L233.191 111.088ZM175.138 111.088C159.107 127.102 159.136 153.063 175.131 169.062L176.366 167.828C161.051 152.51 161.025 127.654 176.372 112.324L175.138 111.088ZM175.132 169.063C191.18 185.067 217.168 185.089 233.192 169.062L231.957 167.828C216.617 183.171 191.734 183.153 176.365 167.827L175.132 169.063ZM233.191 169.063C249.229 153.063 249.214 127.094 233.192 111.082L231.957 112.317C247.298 127.648 247.311 152.51 231.958 167.827L233.191 169.063ZM231.701 111.699V111.706H233.448V111.699H231.701ZM223.046 158.931C212.622 169.343 195.721 169.338 185.283 158.931L184.05 160.168C195.169 171.253 213.174 171.261 224.28 160.167L223.046 158.931ZM185.284 158.932C174.881 148.533 174.868 131.645 185.284 121.233L184.05 119.998C172.951 131.092 172.965 149.087 184.05 160.167L185.284 158.932ZM185.283 121.234C195.714 110.834 212.622 110.834 223.039 121.233L224.273 119.997C213.174 108.918 195.162 108.918 184.05 119.997L185.283 121.234ZM223.039 121.233C233.456 131.645 233.468 148.527 223.039 158.938L224.273 160.174C235.386 149.079 235.371 131.091 224.273 119.998L223.039 121.233ZM224.273 160.174L224.28 160.167L223.046 158.931L223.039 158.938L224.273 160.174Z" fill="#18292D" mask="url(#path-2-inside-1_562_8728)"/>
<path d="M253.087 188.934L253.087 188.933C280.118 161.964 280.092 118.207 253.087 91.224L252.793 90.9311V90.9263C225.772 64.2616 182.178 64.3579 155.243 91.2174L253.087 188.934ZM253.087 188.934C226.082 215.923 182.277 215.904 155.23 188.921M253.087 188.934L155.23 188.921M155.23 188.921C128.278 161.958 128.232 118.2 155.242 91.218L155.23 188.921ZM164.398 179.763L164.399 179.764C186.378 201.692 221.97 201.714 243.924 179.778C265.885 157.861 265.864 122.297 243.925 100.367L243.924 100.367C221.985 78.4642 186.379 78.4648 164.413 100.366L164.412 100.367C142.458 122.291 142.493 157.854 164.398 179.763Z" fill="#4A7C88" stroke="#18292D" stroke-width="2"/>
<path d="M212.724 131.543L213.033 131.851L213.034 131.85C217.449 136.59 217.347 144.004 212.731 148.615L212.731 148.616C208.011 153.337 200.352 153.331 195.625 148.615C190.912 143.907 190.906 136.257 195.625 131.543C200.345 126.828 208.004 126.828 212.724 131.543Z" fill="#FFD35C" stroke="#18292D" stroke-width="0.873129"/>
<path d="M200.985 193.935L200.694 193.475L192.543 180.589L192.542 180.588C192.477 180.484 192.367 180.419 192.224 180.421C190.941 180.471 189.764 181.082 188.988 182.1C188.212 183.119 187.937 184.418 188.231 185.664C188.231 185.665 188.231 185.665 188.231 185.665L191.06 197.548L191.226 198.248L190.528 198.072L173.836 193.866C173.836 193.866 173.836 193.866 173.836 193.866C172.012 193.407 170.42 192.218 169.465 190.604L169.465 190.603L166.366 185.355C166.366 185.355 166.366 185.355 166.366 185.355C165.282 183.519 163.207 182.492 161.09 182.753L161.089 182.753L159.939 182.895C159.938 182.895 159.938 182.895 159.938 182.895C159.738 182.92 159.604 183.094 159.625 183.282L159.625 183.285L159.625 183.285L160.211 188.984L160.271 189.569L159.694 189.457C158.353 189.198 156.969 189.35 155.698 189.918L200.985 193.935ZM200.985 193.935L200.987 193.933M200.985 193.935L200.987 193.933M200.987 193.933C203.225 197.665 204.314 201.919 204.143 206.278L204.143 206.278L203.355 226.391L203.354 226.4V226.408V226.408V226.408V226.408V226.408V226.408V226.409V226.409V226.409V226.409V226.409V226.409V226.409V226.409V226.409V226.409V226.409V226.409V226.409V226.409V226.409V226.409V226.409V226.409V226.409V226.409V226.409V226.409V226.409V226.409V226.409V226.409V226.41V226.41V226.41V226.41V226.41V226.41V226.41V226.41V226.41V226.41V226.41V226.41V226.41V226.41V226.41V226.41V226.41V226.41V226.41V226.41V226.41V226.41V226.41V226.41V226.41V226.411V226.411V226.411V226.411V226.411V226.411V226.411V226.411V226.411V226.411V226.411V226.411V226.411V226.411V226.411V226.411V226.411V226.411V226.411V226.411V226.411V226.411V226.411V226.411V226.411V226.411V226.412V226.412V226.412V226.412V226.412V226.412V226.412V226.412V226.412V226.412V226.412V226.412V226.412V226.412V226.412V226.412V226.412V226.412V226.412V226.412V226.412V226.412V226.412V226.412V226.412V226.412V226.413V226.413V226.413V226.413V226.413V226.413V226.413V226.413V226.413V226.413V226.413V226.413V226.413V226.413V226.413V226.413V226.413V226.413V226.413V226.413V226.413V226.413V226.413V226.413V226.413V226.413V226.413V226.414V226.414V226.414V226.414V226.414V226.414V226.414V226.414V226.414V226.414V226.414V226.414V226.414V226.414V226.414V226.414V226.414V226.414V226.414V226.414V226.414V226.414V226.414V226.414V226.414V226.414V226.414V226.414V226.415V226.415V226.415V226.415V226.415V226.415V226.415V226.415V226.415V226.415V226.415V226.415V226.415V226.415V226.415V226.415V226.415V226.415V226.415V226.415V226.415V226.415V226.415V226.415V226.415V226.415V226.415V226.415V226.415V226.416V226.416V226.416V226.416V226.416V226.416V226.416V226.416V226.416V226.416V226.416V226.416V226.416V226.416V226.416V226.416V226.416V226.416V226.416V226.416V226.416V226.416V226.416V226.416V226.416V226.416V226.416V226.416V226.416V226.416V226.417V226.417V226.417V226.417V226.417V226.417V226.417V226.417L203.355 226.408L203.356 226.401L203.444 226.408L203.618 226.422L203.618 226.422L203.791 226.435M200.987 193.933L203.354 226.42M165.806 248.715C165.671 248.964 165.678 249.26 165.826 249.495C165.967 249.738 166.23 249.879 166.506 249.879H201.231C201.649 249.879 201.992 249.563 202.026 249.145M165.806 248.715L203.791 226.408V226.422V226.435M165.806 248.715L178.49 225.13L184.902 212.631M165.806 248.715L184.902 212.631M202.026 249.145L203.791 226.435M202.026 249.145L201.591 249.11L203.354 226.42M202.026 249.145L201.591 249.112L201.591 249.111C201.575 249.301 201.421 249.442 201.231 249.442H166.506C166.376 249.442 166.261 249.376 166.203 249.275L166.199 249.269L166.195 249.263C166.134 249.165 166.127 249.038 166.189 248.923L166.19 248.922L178.874 225.337L178.874 225.337L178.878 225.329L185.493 212.436L185.73 211.975L185.235 211.82L166.805 206.074L166.674 206.491M203.791 226.435H203.354V226.422V226.422V226.422V226.422V226.422V226.422V226.422V226.422V226.421V226.421V226.421V226.421V226.421V226.421V226.421V226.421V226.421V226.421V226.421V226.421V226.421V226.421V226.421V226.421V226.421V226.421V226.421V226.421V226.421V226.421V226.421V226.421V226.421V226.421V226.421V226.421V226.421V226.42V226.42V226.42V226.42V226.42V226.42V226.42V226.42V226.42V226.42V226.42V226.42V226.42V226.42V226.42V226.42V226.42V226.42V226.42M203.354 226.42L155.698 189.919C155.606 189.96 155.537 190.034 155.505 190.121C155.473 190.208 155.477 190.307 155.521 190.399C155.522 190.4 155.522 190.4 155.522 190.4L158.35 196.185L158.638 196.775L157.983 196.813C157.354 196.849 156.776 197.019 156.262 197.349C155.422 197.895 154.858 198.755 154.498 199.522C154.162 200.239 154.02 200.838 153.993 200.949C153.993 200.951 153.992 200.952 153.992 200.953M166.674 206.491L166.804 206.074L166.805 206.074C166.254 205.901 165.73 205.675 165.21 205.419L165.039 205.335L164.861 205.403C164.811 205.423 164.777 205.428 164.748 205.428C164.714 205.428 164.665 205.42 164.61 205.401M166.674 206.491L184.682 212.105M166.674 206.491C166.095 206.309 165.55 206.073 165.017 205.811C164.93 205.845 164.842 205.865 164.748 205.865C164.654 205.865 164.553 205.845 164.458 205.811M164.61 205.401L154.216 201.353L154.216 201.353C154.049 201.288 153.959 201.122 153.992 200.953M164.61 205.401L164.617 205.404L164.458 205.811M164.61 205.401C164.608 205.401 164.607 205.4 164.605 205.4L164.458 205.811M153.992 200.953C153.992 200.951 153.993 200.95 153.993 200.948L153.566 200.858L153.989 200.964C153.99 200.962 153.991 200.958 153.992 200.953ZM184.682 212.105L164.458 205.811M184.682 212.105L184.716 212.038L185.105 212.237L184.975 212.654L184.902 212.631M184.682 212.105L184.902 212.631" fill="white" stroke="#18292D" stroke-width="0.873129"/>
<path d="M179.19 225.5L186.243 211.766L166.91 205.737C163.468 204.667 160.814 201.921 159.851 198.449L155.836 190.24C157.358 189.56 159.09 189.513 160.652 190.099L160.679 190.112L159.972 183.248L161.124 183.114C163.104 182.878 165.031 183.834 166.048 185.543L169.147 190.792C170.157 192.501 171.807 193.739 173.741 194.223L191.699 198.745L188.567 185.59C187.994 183.195 189.759 180.88 192.225 180.786L200.382 193.672C202.76 197.433 203.946 201.827 203.771 206.275L202.982 226.388L179.19 225.506V225.5Z" fill="white" stroke="#18292D" stroke-width="1.92088" stroke-linecap="round" stroke-linejoin="round"/>
<path d="M172.319 203.139L167.395 200.986C165.139 200.004 163.407 198.113 162.612 195.785L160.679 190.105" stroke="#18292D" stroke-width="1.92088" stroke-linecap="round" stroke-linejoin="round"/>
<path d="M164.741 205.077L154.341 201.026C154.341 201.026 155.311 196.451 159.009 197.238" fill="white"/>
<path d="M164.741 205.077L154.341 201.026C154.341 201.026 155.311 196.451 159.009 197.238" stroke="#18292D" stroke-width="1.92088" stroke-linecap="round" stroke-linejoin="round"/>
<path d="M201.224 247.504L202.983 226.381L179.19 225.5L167.389 247.436L166.5 249.092" stroke="#18292D" stroke-width="1.92088" stroke-linecap="round" stroke-linejoin="round"/>
<path d="M253.501 195.955L256.124 190.59L253.501 195.955ZM253.501 195.955C253.441 195.949 253.381 195.945 253.32 195.941L253.295 196.377M253.501 195.955L253.295 196.377M253.295 196.377L253.687 196.569L253.756 196.427L253.295 196.377ZM251.523 188.576L252.062 183.329C252.109 182.899 251.799 182.515 251.368 182.461L250.216 182.32C247.926 182.037 245.683 183.148 244.511 185.133L251.523 188.576ZM251.523 188.576C251.479 188.584 251.436 188.592 251.393 188.6L251.476 189.029M251.523 188.576L251.476 189.029M251.476 189.029L251.91 189.073L251.922 188.957L251.476 189.029ZM210.266 193.933L210.268 193.935L210.559 193.475L218.71 180.589L218.71 180.588C218.776 180.484 218.886 180.419 219.029 180.421C220.312 180.471 221.489 181.082 222.264 182.1C223.04 183.119 223.315 184.419 223.022 185.664C223.022 185.665 223.022 185.665 223.022 185.665L220.193 197.548L220.026 198.248L220.724 198.072L237.416 193.866C239.24 193.407 240.833 192.218 241.788 190.604L241.788 190.603L244.887 185.355C244.887 185.355 244.887 185.355 244.887 185.355C245.971 183.519 248.046 182.492 250.163 182.753L250.163 182.753L251.314 182.895C251.314 182.895 251.314 182.895 251.315 182.895C251.515 182.92 251.649 183.094 251.628 183.282L251.628 183.285L251.042 188.984L250.982 189.569L251.559 189.457C252.9 189.198 254.284 189.35 255.555 189.919C255.647 189.96 255.716 190.034 255.748 190.121L256.158 189.971L255.748 190.121C255.78 190.208 255.776 190.307 255.731 190.399C255.731 190.399 255.731 190.4 255.731 190.4L252.903 196.185L252.614 196.775L253.27 196.813C253.898 196.849 254.477 197.019 254.991 197.349C255.831 197.896 256.394 198.755 256.754 199.522C257.091 200.239 257.233 200.838 257.26 200.949C257.26 200.951 257.26 200.952 257.261 200.953C257.294 201.122 257.204 201.288 257.037 201.353L257.037 201.353L246.643 205.401C246.588 205.42 246.539 205.428 246.505 205.428C246.476 205.428 246.442 205.423 246.392 205.403L246.214 205.335L246.042 205.419C245.523 205.675 244.999 205.901 244.448 206.074C244.448 206.074 244.448 206.074 244.448 206.074L226.018 211.82L225.523 211.975L225.76 212.436L232.375 225.329L232.375 225.329L232.379 225.337L245.063 248.922L245.063 248.923C245.126 249.038 245.119 249.165 245.058 249.263L245.054 249.269L245.05 249.275C244.991 249.376 244.877 249.442 244.747 249.442H210.022C209.832 249.442 209.678 249.301 209.662 249.111C209.662 249.111 209.662 249.11 209.662 249.11L207.899 226.42V226.42V226.42V226.42V226.42V226.42V226.419V226.419V226.419V226.419V226.419V226.419V226.419V226.419V226.419V226.419V226.419V226.419V226.419V226.419V226.419V226.419V226.419V226.419V226.419V226.419V226.418V226.418V226.418V226.418V226.418V226.418V226.418V226.418V226.418V226.418V226.418V226.418V226.418V226.418V226.418V226.418V226.418V226.418V226.418V226.417V226.417V226.417V226.417V226.417V226.417V226.417V226.417V226.417V226.417V226.417V226.417V226.417V226.417V226.417V226.417V226.417V226.417V226.417V226.417V226.417V226.417V226.417V226.417V226.417V226.417V226.417V226.417V226.417V226.417V226.416V226.416V226.416V226.416V226.416V226.416V226.416V226.416V226.416V226.416V226.416V226.416V226.416V226.416V226.416V226.416V226.416V226.416V226.416V226.416V226.416V226.416V226.416V226.416V226.416V226.416V226.416V226.416V226.416V226.416V226.415V226.415V226.415V226.415V226.415V226.415V226.415V226.415V226.415V226.415V226.415V226.415V226.415V226.415V226.415V226.415V226.415V226.415V226.415V226.415V226.415V226.415V226.415V226.415V226.415V226.415V226.415V226.415V226.415V226.414V226.414V226.414V226.414V226.414V226.414V226.414V226.414V226.414V226.414V226.414V226.414V226.414V226.414V226.414V226.414V226.414V226.414V226.414V226.414V226.414V226.414V226.414V226.414V226.414V226.414V226.414V226.414V226.413V226.413V226.413V226.413V226.413V226.413V226.413V226.413V226.413V226.413V226.413V226.413V226.413V226.413V226.413V226.413V226.413V226.413V226.413V226.413V226.413V226.413V226.413V226.413V226.413V226.413V226.413V226.412V226.412V226.412V226.412V226.412V226.412V226.412V226.412V226.412V226.412V226.412V226.412V226.412V226.412V226.412V226.412V226.412V226.412V226.412V226.412V226.412V226.412V226.412V226.412V226.412V226.412V226.411V226.411V226.411V226.411V226.411V226.411V226.411V226.411V226.411V226.411V226.411V226.411V226.411V226.411V226.411V226.411V226.411V226.411V226.411V226.411V226.411V226.411V226.411V226.411V226.411V226.411V226.41V226.41V226.41V226.41V226.41V226.41V226.41V226.41V226.41V226.41V226.41V226.41V226.41V226.41V226.41V226.41V226.41V226.41V226.41V226.41V226.41V226.41V226.41V226.41V226.41V226.409V226.409V226.409V226.409V226.409V226.409V226.409V226.409V226.409V226.409V226.409V226.409V226.409V226.409V226.409V226.409V226.409V226.409V226.409V226.409V226.409V226.409V226.409V226.409V226.409V226.409V226.408V226.408V226.408V226.408V226.408V226.408V226.4L207.898 226.391L207.11 206.278L207.11 206.278C206.939 201.919 208.027 197.665 210.266 193.933Z" fill="white" stroke="#18292D" stroke-width="0.873129"/>
<path d="M232.056 225.5L225.003 211.766L244.336 205.737C247.778 204.667 250.432 201.921 251.395 198.449L255.41 190.24C253.888 189.56 252.156 189.513 250.594 190.099L250.567 190.112L251.274 183.248L250.122 183.114C248.142 182.878 246.215 183.834 245.198 185.543L242.099 190.792C241.089 192.501 239.439 193.739 237.505 194.223L219.547 198.745L222.679 185.59C223.252 183.195 221.487 180.88 219.021 180.786L210.864 193.672C208.486 197.433 207.3 201.827 207.475 206.275L208.264 226.388L232.056 225.506V225.5Z" fill="white" stroke="#18292D" stroke-width="1.92088" stroke-linecap="round" stroke-linejoin="round"/>
<path d="M238.933 203.139L243.857 200.986C246.114 200.004 247.845 198.113 248.64 195.785L250.573 190.105" stroke="#18292D" stroke-width="1.92088" stroke-linecap="round" stroke-linejoin="round"/>
<path d="M246.511 205.077L256.912 201.026C256.912 201.026 255.942 196.451 252.244 197.238" stroke="#18292D" stroke-width="1.92088" stroke-linecap="round" stroke-linejoin="round"/>
<path d="M210.029 247.504L208.264 226.381L232.056 225.5L243.858 247.436L244.747 249.092" stroke="#18292D" stroke-width="1.92088" stroke-linecap="round" stroke-linejoin="round"/>
<path d="M305.096 243.836L277.633 232.935L277 205.353L302.637 204.768L305.096 243.836Z" fill="white" stroke="#18292D" stroke-width="1.92088" stroke-linecap="round" stroke-linejoin="round"/>
<path d="M303.732 176.89C303.654 176.92 303.564 176.955 303.463 176.993C303.055 177.149 302.468 177.37 301.755 177.627C300.329 178.143 298.402 178.808 296.395 179.403C294.384 180 292.308 180.523 290.577 180.762C289.711 180.882 288.949 180.928 288.332 180.882C287.703 180.835 287.292 180.697 287.066 180.51C285.777 179.442 283.681 177.211 282.376 174.655C281.066 172.091 280.611 169.333 282.339 167.06C284.218 164.587 285.291 164.198 286.052 164.338C286.466 164.414 286.871 164.655 287.349 165.01C287.484 165.109 287.626 165.219 287.774 165.334C288.128 165.608 288.519 165.911 288.933 166.17C289.69 166.644 290.475 166.491 291.161 166.121C291.834 165.758 292.49 165.149 293.082 164.561C293.236 164.408 293.386 164.257 293.531 164.11C293.965 163.671 294.363 163.268 294.737 162.966C294.984 162.767 295.191 162.636 295.362 162.571C295.526 162.509 295.618 162.52 295.679 162.546C297.111 163.174 298.286 164.672 300.368 168.209C301.378 169.925 302.244 172.181 302.861 174.025C303.168 174.944 303.411 175.754 303.577 176.334C303.64 176.555 303.692 176.743 303.732 176.89Z" fill="#18292D" stroke="#18292D" stroke-width="0.873129"/>
<path d="M294.082 220.426C300.266 220.46 306.544 218.165 311.475 213.515C321.438 204.128 321.916 188.908 313.038 179.063C298.468 162.914 282.025 173.848 279.566 177.058C278.987 177.811 278.434 178.538 277.882 179.231C276.824 180.294 275.881 181.425 275.053 182.616C272.924 184.931 270.923 186.438 268.815 186.472C265.588 186.525 259.849 209.539 277.235 213.34" fill="white"/>
<path d="M294.082 220.426C300.266 220.46 306.544 218.165 311.475 213.515C321.438 204.128 321.916 188.908 313.038 179.063C298.468 162.914 282.025 173.848 279.566 177.058C278.987 177.811 278.434 178.538 277.882 179.231C276.824 180.294 275.881 181.425 275.053 182.616C272.924 184.931 270.923 186.438 268.815 186.472C265.588 186.525 259.849 209.539 277.235 213.34" stroke="#18292D" stroke-width="1.92088" stroke-linecap="round" stroke-linejoin="round"/>
<path d="M301.277 173.091L301.277 173.091C313.028 185.534 311.139 206.253 297.218 219.364L297.217 219.365C296.698 219.852 296.17 220.32 295.636 220.771C302.926 221.428 310.55 219.025 316.403 213.507L316.403 213.507C327.049 203.476 327.776 187.024 318.076 176.752L301.277 173.091ZM301.277 173.091C299.827 171.556 298.233 170.233 296.537 169.101M301.277 173.091L296.537 169.101M296.537 169.101C304.352 168.166 312.381 170.724 318.076 176.752L296.537 169.101Z" fill="#18292D" stroke="#18292D" stroke-width="0.873129"/>
<path d="M295.109 183.298C294.184 184.833 293.497 186.789 292.868 188.594L292.848 188.649C292.541 189.531 292.246 190.377 291.947 191.096C291.645 191.82 291.32 192.463 290.94 192.891C290.747 193.109 290.686 193.311 290.686 193.497C290.685 193.694 290.754 193.912 290.887 194.143C291.083 194.485 291.384 194.8 291.655 195.042C294.141 192.936 297.868 193.124 300.132 195.518C302.474 197.996 302.358 201.899 299.879 204.238C297.536 206.448 293.92 206.466 291.553 204.373L290.394 216.048L290.394 216.049C290.172 218.259 291.415 220.361 293.452 221.239L303.253 223.256L303.875 218.785L303.885 218.718L303.913 218.658L316.282 192.562C316.272 192.528 316.259 192.49 316.245 192.446C316.187 192.264 316.099 191.997 315.982 191.655C315.748 190.972 315.397 189.995 314.928 188.818C313.991 186.464 312.587 183.321 310.722 180.157C307.048 173.928 301.679 167.781 294.67 167.183C294.676 167.373 294.686 167.617 294.705 167.908C294.756 168.656 294.87 169.708 295.123 170.914C295.631 173.332 296.69 176.34 298.886 178.785L295.109 183.298ZM295.109 183.298L295.115 183.292L295.142 183.247C295.967 181.892 297.253 181.568 298.264 181.313C298.309 181.302 298.354 181.291 298.397 181.28C298.644 181.217 298.898 181.149 299.105 181.056C299.304 180.966 299.554 180.813 299.662 180.523C299.772 180.229 299.686 179.932 299.554 179.679C299.419 179.421 299.194 179.127 298.887 178.785L295.109 183.298Z" fill="#18292D" stroke="#18292D" stroke-width="0.873129"/>
<path d="M272.776 197.157C272.776 197.157 271.078 198.752 268.936 198.315" stroke="#18292D" stroke-width="1.92088" stroke-linecap="round" stroke-linejoin="round"/>
<path d="M293.247 198.813C293.247 198.813 294.682 196.976 296.864 197.09" stroke="#18292D" stroke-width="1.92088" stroke-linecap="round" stroke-linejoin="round"/>
<path d="M280.839 177.926C284.288 178.081 285.602 182.111 284.854 183.666" stroke="#18292D" stroke-width="1.92088" stroke-linecap="round" stroke-linejoin="round"/>
<path d="M278.377 185.434L278.377 185.434L278.375 185.436C278.143 185.609 277.898 185.687 277.699 185.69C277.503 185.694 277.387 185.627 277.33 185.552C277.275 185.477 277.244 185.347 277.304 185.159C277.363 184.971 277.507 184.759 277.737 184.589L277.737 184.589L277.74 184.587C277.971 184.414 278.217 184.336 278.415 184.333C278.612 184.329 278.727 184.396 278.784 184.471C278.839 184.546 278.87 184.676 278.81 184.864C278.751 185.052 278.607 185.264 278.377 185.434Z" fill="#18292D" stroke="#18292D" stroke-width="0.873129"/>
<path d="M286.081 213.104L286.081 213.105C284.146 216.646 281.207 219.288 277.811 220.888L277.634 213.142C281.173 212.915 284.609 211.721 287.531 209.669C287.174 210.838 286.693 211.989 286.081 213.104Z" fill="#18292D" stroke="#18292D" stroke-width="0.873129"/>
<path d="M304.03 227.049L315.092 249.564H239.041C244.224 245.934 253.157 241.237 261.88 237.252C266.559 235.115 271.165 233.187 275.083 231.744C279.015 230.295 282.215 229.349 284.098 229.15C284.098 229.15 284.098 229.15 284.098 229.15L304.03 227.049Z" fill="#18292D" stroke="#18292D" stroke-width="0.873129"/>
<path d="M207.912 226.392L207.895 225.937H232.704L245.068 248.919C245.068 248.919 245.068 248.92 245.069 248.92C245.124 249.026 245.123 249.16 245.058 249.273C244.995 249.377 244.881 249.443 244.754 249.443H210.029C209.841 249.443 209.685 249.297 209.669 249.111C209.669 249.11 209.669 249.11 209.669 249.11L207.92 226.601L207.912 226.392Z" fill="#18292D" stroke="#18292D" stroke-width="0.873129"/>
<path d="M203.267 226.392L203.267 226.4V226.408V226.408V226.408V226.408V226.408V226.409V226.409V226.409V226.409V226.409V226.409V226.409V226.409V226.409V226.409V226.409V226.409V226.409V226.409V226.409V226.409V226.409V226.409V226.409V226.409V226.409V226.409V226.409V226.409V226.409V226.409V226.409V226.409V226.409V226.409V226.409V226.409V226.409V226.409V226.409V226.409V226.409V226.409V226.409V226.409V226.409V226.409V226.409V226.409V226.409V226.409V226.409V226.409V226.41V226.41V226.41V226.41V226.41V226.41V226.41V226.41V226.41V226.41V226.41V226.41V226.41V226.41V226.41V226.41V226.41V226.41V226.41V226.41V226.41V226.41V226.41V226.41V226.41V226.41V226.41V226.41V226.41V226.41V226.41V226.41V226.41V226.41V226.41V226.41V226.41V226.41V226.41V226.41V226.41V226.41V226.41V226.41V226.41V226.41V226.41V226.41V226.41V226.41V226.41V226.411V226.411V226.411V226.411V226.411V226.411V226.411V226.411V226.411V226.411V226.411V226.411V226.411V226.411V226.411V226.411V226.411V226.411V226.411V226.411V226.411V226.411V226.411V226.411V226.411V226.411V226.411V226.411V226.411V226.411V226.411V226.411V226.411V226.411V226.411V226.411V226.411V226.411V226.411V226.411V226.411V226.412V226.412V226.412V226.412V226.412V226.412V226.412V226.412V226.412V226.412V226.412V226.412V226.412V226.412V226.412V226.412V226.412V226.412V226.412V226.412V226.412V226.412V226.412V226.412V226.412V226.412V226.412V226.412V226.412V226.412V226.412V226.412V226.412V226.412V226.412V226.412V226.413V226.413V226.413V226.413V226.413V226.413V226.413V226.413V226.413V226.413V226.413V226.413V226.413V226.413V226.413V226.413V226.413V226.413V226.413V226.413V226.413V226.413V226.413V226.413V226.413V226.413V226.413V226.413V226.413V226.413V226.413V226.413V226.413V226.414V226.414V226.414V226.414V226.414V226.414V226.414V226.414V226.414V226.414V226.414V226.414V226.414V226.414V226.414V226.414V226.414V226.414V226.414V226.414V226.414V226.414V226.414V226.414V226.414V226.414V226.414V226.414V226.414V226.414V226.414V226.415V226.415V226.415V226.415V226.415V226.415V226.415V226.415V226.415V226.415V226.415V226.415V226.415V226.415V226.415V226.415V226.415V226.415V226.415V226.415V226.415V226.415V226.415V226.415V226.415V226.415V226.415V226.415V226.415V226.416V226.416V226.416V226.416V226.416V226.416V226.416V226.416V226.416V226.416V226.416V226.416V226.416V226.416V226.416V226.416V226.416V226.416V226.416V226.416V226.416V226.416V226.416V226.416V226.416V226.416V226.416V226.416V226.417V226.417V226.417V226.417V226.417V226.417V226.417V226.417V226.417V226.417V226.417V226.417V226.417V226.417V226.417V226.417V226.417V226.417V226.417V226.417V226.417V226.417V226.417V226.417V226.417V226.417V226.417V226.418V226.418V226.418V226.418V226.418V226.418V226.418V226.418V226.418V226.418V226.418V226.418V226.418V226.418V226.418V226.418V226.418V226.418V226.418V226.418V226.418V226.418V226.418V226.418V226.418V226.418V226.419V226.419V226.419V226.419V226.419V226.419V226.419V226.419V226.419V226.419V226.419V226.419V226.419V226.419V226.419V226.419V226.419L201.503 249.11C201.503 249.11 201.503 249.111 201.503 249.111C201.487 249.297 201.331 249.443 201.144 249.443H166.425C166.298 249.443 166.184 249.377 166.121 249.273C166.056 249.16 166.055 249.026 166.11 248.92C166.11 248.92 166.111 248.919 166.111 248.919L178.474 225.937H203.284L203.267 226.392Z" fill="#18292D" stroke="#18292D" stroke-width="0.873129"/>
</g>
</g>
<defs>
<clipPath id="clip0_562_8728">
<rect width="470" height="250" fill="white"/>
</clipPath>
</defs>
</svg>
