<svg width="450" height="220" viewBox="0 0 450 220" fill="none" xmlns="http://www.w3.org/2000/svg">
<rect width="450" height="220" fill="white"/>
<path d="M206.184 47.3512C231.136 45.3919 255.093 53.4901 272.041 64.5174C289.157 75.7633 299.257 89.9404 300.36 105.091C301.471 120.388 293.798 134.916 282.43 149.267C270.908 163.401 255.691 177.36 238.251 186.407C204.542 205.323 165.918 190.011 147.507 144.294C129.076 98.8664 154.877 49.9608 206.184 47.3512Z" fill="#EEF9FB"/>
<mask id="mask0_564_47591" style="mask-type:alpha" maskUnits="userSpaceOnUse" x="115" y="0" width="220" height="220">
<rect x="115" width="220" height="220" fill="#D9D9D9"/>
</mask>
<g mask="url(#mask0_564_47591)">
<path d="M181.216 194.591L199.902 95.7904L200.161 52.3662L184.716 46.9902L181.87 52.5243L178.492 60.042C175.79 66.0432 175.287 72.799 177.055 79.138L178.801 85.3836L131.561 194.591H181.216Z" fill="white"/>
<path d="M131.561 195.31C131.468 195.31 131.367 195.288 131.273 195.252C130.907 195.094 130.742 194.67 130.9 194.304L178.04 85.326L176.365 79.3248C174.554 72.8349 175.079 65.885 177.838 59.7401L181.216 52.2224L184.077 46.6596C184.242 46.3434 184.616 46.1924 184.954 46.3074L200.399 51.6834C200.686 51.784 200.88 52.0571 200.88 52.3661L200.621 95.7904C200.621 95.8335 200.621 95.8766 200.607 95.9198L181.921 194.713C181.849 195.101 181.468 195.36 181.08 195.288C180.692 195.216 180.433 194.835 180.505 194.447L199.177 95.7113L199.428 52.862L185.061 47.8598L182.503 52.8333L179.139 60.315C176.516 66.1509 176.013 72.7558 177.738 78.9223L179.484 85.1679C179.527 85.326 179.52 85.4985 179.448 85.6494L132.222 194.879C132.107 195.152 131.841 195.31 131.561 195.31Z" fill="#18292D"/>
<path d="M268.403 194.591L249.717 95.7904L249.458 52.3662L264.903 46.9902L267.749 52.5243L271.127 60.042C273.829 66.0432 274.332 72.799 272.564 79.138L270.818 85.3836L318.051 194.598H268.396L268.403 194.591Z" fill="white"/>
<path d="M318.059 195.31C317.778 195.31 317.512 195.144 317.397 194.879L270.164 85.6639C270.099 85.5129 270.085 85.3404 270.135 85.1823L271.882 78.9368C273.607 72.7775 273.103 66.1653 270.48 60.3294L267.102 52.8118L264.558 47.8671L250.191 52.8693L250.443 95.7186L269.115 194.455C269.186 194.843 268.935 195.224 268.54 195.295C268.152 195.367 267.771 195.116 267.699 194.72L249.012 95.927C249.005 95.8839 248.998 95.8408 248.998 95.7976L248.739 52.3734C248.739 52.0643 248.933 51.7912 249.221 51.6906L264.666 46.3147C265.004 46.1925 265.377 46.3434 265.543 46.6668L268.389 52.2009L271.788 59.7473C274.548 65.8922 275.073 72.8421 273.262 79.3321L271.587 85.3333L318.72 194.311C318.878 194.677 318.713 195.101 318.346 195.259C318.253 195.303 318.159 195.317 318.059 195.317V195.31Z" fill="#18292D"/>
<path d="M195.432 28.1599H264.126V106.075H195.432C190.696 106.075 186.851 102.23 186.851 97.4936V36.7413C186.851 32.005 190.696 28.1599 195.432 28.1599Z" fill="#4A7C88"/>
<path d="M194.713 103.2C192.356 103.2 190.444 101.281 190.444 98.9312V95.5389C190.444 93.1815 192.356 91.2698 194.713 91.2698H263.407V103.2H194.713Z" fill="white"/>
<path d="M262.689 91.9884V102.482H194.713C192.759 102.482 191.163 100.886 191.163 98.9312V95.5389C191.163 93.584 192.759 91.9884 194.713 91.9884H262.689ZM264.126 90.551H194.713C191.961 90.551 189.726 92.7862 189.726 95.5389V98.9312C189.726 101.684 191.961 103.919 194.713 103.919H264.126V90.551Z" fill="#18292D"/>
<path d="M245.325 54.6803H206.608C206.213 54.6803 205.89 54.3569 205.89 53.9616V47.2705C205.89 46.8752 206.213 46.5518 206.608 46.5518H245.325C245.72 46.5518 246.044 46.8752 246.044 47.2705V53.9616C246.044 54.3569 245.72 54.6803 245.325 54.6803ZM207.327 53.2429H244.606V47.9892H207.327V53.2429Z" fill="#18292D"/>
<path d="M241.185 43.7702H210.755C210.36 43.7702 210.036 43.4468 210.036 43.0515C210.036 42.6562 210.36 42.3328 210.755 42.3328H241.185C241.58 42.3328 241.904 42.6562 241.904 43.0515C241.904 43.4468 241.58 43.7702 241.185 43.7702Z" fill="#18292D"/>
<path d="M192.35 32.9395H190.912V89.5089H192.35V32.9395Z" fill="#18292D"/>
<path d="M272.571 68.9465C272.19 64.1312 267.382 53.3937 267.173 52.9409L264.809 47.6584C264.658 47.3206 264.299 47.1625 263.968 47.2847L250.183 52.4738C249.924 52.5744 249.745 52.8259 249.73 53.1134C249.658 54.3855 249.989 56.6854 251.513 57.8641L248.307 59.0284C248.02 59.1362 247.826 59.4309 247.847 59.7543C247.855 59.9411 248.149 64.3756 251.347 65.1949C251.448 66.0861 251.779 67.7319 252.85 68.81C253.482 69.4496 254.273 69.7802 255.193 69.8305C255.193 70.9158 255.545 72.3101 256.86 73.1366C258.139 73.9415 262.595 73.1366 264.579 72.6551C264.133 73.4959 263.156 75.7527 263.472 77.1757C263.565 77.5926 273.009 74.2147 272.585 68.9322L272.571 68.9465Z" fill="white"/>
<path d="M250.744 65.2022C250.687 65.2022 250.636 65.2022 250.579 65.1806C246.978 64.3325 246.655 59.6322 246.64 59.4381C246.619 59.1147 246.82 58.82 247.122 58.7122L266.721 52.0283C267.095 51.8989 267.504 52.1001 267.634 52.4739C267.763 52.8476 267.562 53.2572 267.188 53.3866L248.142 59.8837C248.322 60.9618 248.933 63.3191 250.909 63.7791C251.297 63.8725 251.535 64.2606 251.441 64.6416C251.362 64.9722 251.067 65.195 250.744 65.195V65.2022Z" fill="#18292D"/>
<path d="M252.369 58.0581C252.311 58.0581 252.261 58.0581 252.203 58.0365C249.264 57.3465 248.674 54.0333 248.775 52.3731C248.789 52.0856 248.984 51.8341 249.249 51.7406L264.838 46.2281C265.183 46.106 265.571 46.2641 265.729 46.5947L268.403 52.2078C268.575 52.5671 268.425 52.9912 268.065 53.1637C267.706 53.3362 267.282 53.1852 267.109 52.8259L264.716 47.7949L250.22 52.9265C250.256 53.9183 250.572 56.1679 252.541 56.635C252.929 56.7285 253.166 57.1166 253.073 57.4975C252.994 57.8281 252.699 58.0509 252.376 58.0509L252.369 58.0581Z" fill="#18292D"/>
<path d="M255.149 70.1253C254.006 70.1253 253.043 69.7587 252.274 69.0328C250.592 67.4373 250.542 64.6847 250.542 64.5625C250.542 64.2463 250.736 63.966 251.038 63.8725L269.717 57.742C270.091 57.6198 270.5 57.821 270.623 58.2019C270.745 58.5757 270.544 58.9853 270.163 59.1075L252.023 65.0584C252.116 65.7987 252.396 67.1642 253.273 67.9907C253.805 68.4938 254.473 68.7094 255.321 68.6807C255.702 68.6591 256.054 68.9753 256.069 69.3706C256.083 69.7659 255.774 70.1037 255.379 70.1181C255.3 70.1181 255.228 70.1181 255.149 70.1181V70.1253Z" fill="#18292D"/>
<path d="M263.531 77.8153C263.171 77.8153 262.862 77.5494 262.819 77.1829C262.625 75.6161 263.006 74.4015 263.538 73.5103C261.31 74.0206 258.248 74.4805 256.796 73.6253C254.784 72.4394 254.791 70.1252 255.071 69.0687C255.136 68.8243 255.33 68.6303 255.575 68.5584L270.653 64.3755C271.034 64.2677 271.429 64.4905 271.537 64.8786C271.645 65.2595 271.422 65.6548 271.034 65.7626L256.394 69.8233C256.329 70.4558 256.365 71.7063 257.529 72.3891C258.837 73.1581 263.207 72.231 265.658 71.4548C266.003 71.347 266.391 71.5195 266.535 71.8573C266.679 72.1951 266.535 72.5903 266.219 72.77C266.125 72.8203 263.89 74.1068 264.249 77.0032C264.3 77.3985 264.019 77.7578 263.624 77.8082C263.595 77.8082 263.567 77.8082 263.538 77.8082L263.531 77.8153Z" fill="#18292D"/>
<path d="M177.048 68.9465C177.429 64.1312 182.237 53.3937 182.445 52.9409L184.81 47.6584C184.961 47.3206 185.32 47.1625 185.651 47.2847L199.435 52.4738C199.694 52.5744 199.874 52.8259 199.888 53.1134C199.96 54.3855 199.63 56.6854 198.106 57.8641L201.311 59.0284C201.599 59.1362 201.793 59.4309 201.771 59.7543C201.764 59.9411 201.469 64.3756 198.271 65.1949C198.171 66.0861 197.84 67.7319 196.769 68.81C196.137 69.4496 195.346 69.7802 194.426 69.8305C194.426 70.9158 194.074 72.3101 192.759 73.1366C191.479 73.9415 187.023 73.1366 185.04 72.6551C185.485 73.4959 186.463 75.7527 186.147 77.1757C186.053 77.5926 176.609 74.2147 177.033 68.9322L177.048 68.9465Z" fill="white"/>
<path d="M198.875 65.2023C198.552 65.2023 198.257 64.9795 198.178 64.6489C198.085 64.2608 198.329 63.8727 198.71 63.7864C200.693 63.3193 201.304 60.9619 201.477 59.891L182.431 53.3939C182.057 53.2646 181.856 52.8549 181.986 52.4812C182.115 52.1075 182.525 51.9062 182.898 52.0356L202.497 58.7196C202.806 58.8274 203.001 59.122 202.979 59.4454C202.965 59.6467 202.641 64.3398 199.04 65.1879C198.983 65.2023 198.933 65.2095 198.875 65.2095V65.2023Z" fill="#18292D"/>
<path d="M197.251 58.0582C196.927 58.0582 196.633 57.8354 196.554 57.5048C196.46 57.1167 196.705 56.7286 197.086 56.6424C199.062 56.1752 199.371 53.9256 199.407 52.9338L184.911 47.8023L182.517 52.8332C182.345 53.1926 181.921 53.3435 181.561 53.171C181.202 52.9985 181.051 52.5745 181.224 52.2151L183.897 46.602C184.055 46.2714 184.436 46.1133 184.788 46.2355L200.377 51.748C200.65 51.8414 200.837 52.0929 200.852 52.3804C200.952 54.0334 200.363 57.3467 197.423 58.0438C197.366 58.0582 197.316 58.0654 197.258 58.0654L197.251 58.0582Z" fill="#18292D"/>
<path d="M194.47 70.1252C194.398 70.1252 194.319 70.1252 194.24 70.1252C193.844 70.1108 193.535 69.773 193.55 69.3777C193.564 68.9824 193.924 68.6662 194.297 68.6878C195.153 68.7237 195.814 68.4937 196.346 67.9906C197.208 67.1713 197.495 65.8057 197.589 65.0655L179.449 59.1146C179.068 58.9924 178.867 58.5827 178.989 58.209C179.111 57.8281 179.521 57.6269 179.894 57.749L198.574 63.8796C198.875 63.9802 199.069 64.2605 199.069 64.5696C199.069 64.6846 199.012 67.4444 197.337 69.0399C196.568 69.7658 195.605 70.1324 194.463 70.1324L194.47 70.1252Z" fill="#18292D"/>
<path d="M186.089 77.8155C186.089 77.8155 186.032 77.8155 186.003 77.8155C185.608 77.7652 185.328 77.4059 185.378 77.0106C185.737 74.107 183.502 72.8277 183.409 72.7702C183.085 72.5905 182.949 72.1952 183.1 71.8574C183.243 71.5196 183.624 71.3472 183.976 71.455C186.427 72.224 190.797 73.1583 192.105 72.3893C193.262 71.7065 193.305 70.456 193.241 69.8235L178.6 65.7628C178.22 65.655 177.997 65.2597 178.097 64.8788C178.205 64.4979 178.6 64.2751 178.981 64.3757L194.06 68.5586C194.304 68.6233 194.498 68.8173 194.563 69.0689C194.843 70.1254 194.843 72.4396 192.838 73.6255C191.393 74.4807 188.325 74.0207 186.097 73.5105C186.628 74.4089 187.009 75.6163 186.815 77.1831C186.772 77.5496 186.463 77.8155 186.104 77.8155H186.089Z" fill="#18292D"/>
<path d="M223.117 177.745L211.1 179.455C197.287 181.417 184.379 171.722 182.417 157.908L181.741 153.143C179.283 135.844 191.422 119.687 208.721 117.229L210.712 121.808C221.557 120.27 231.684 127.881 233.222 138.719L236.277 160.223C237.477 168.66 231.555 176.544 223.11 177.745H223.117Z" fill="#18292D"/>
<path d="M229.011 194.634L239.116 159.496L208.837 149.851L194.089 194.634H229.011Z" fill="white"/>
<path d="M194.089 195.353C194.017 195.353 193.938 195.338 193.866 195.317C193.485 195.195 193.284 194.785 193.406 194.411L208.161 149.636C208.283 149.262 208.678 149.054 209.059 149.176L239.331 158.821C239.705 158.936 239.913 159.331 239.805 159.705L229.708 194.842C229.6 195.223 229.197 195.439 228.816 195.331C228.436 195.223 228.213 194.821 228.328 194.44L238.239 159.978L209.311 150.764L194.786 194.864C194.685 195.166 194.405 195.36 194.103 195.36L194.089 195.353Z" fill="#18292D"/>
<path d="M204.381 139.747C211.01 139.747 216.384 134.373 216.384 127.744C216.384 121.115 211.01 115.742 204.381 115.742C197.753 115.742 192.379 121.115 192.379 127.744C192.379 134.373 197.753 139.747 204.381 139.747Z" fill="#18292D"/>
<path d="M205.733 121.412C193.112 124.869 184.638 137.037 186.04 150.283C189.209 151.792 192.896 152.425 196.698 151.886C206.581 150.484 213.509 141.723 212.172 132.322C211.532 127.845 209.139 124.028 205.733 121.412Z" fill="#18292D"/>
<path d="M189.057 138.058C183.84 150.06 188.001 164.29 199.198 171.506C202.368 169.983 205.171 167.51 207.133 164.211C212.236 155.63 209.756 144.742 201.592 139.89C197.704 137.576 193.226 137.059 189.057 138.065V138.058Z" fill="#18292D"/>
<path d="M224.153 127.162C225.088 133.724 220.524 139.797 213.962 140.731C207.4 141.665 201.327 137.102 200.393 130.54C199.458 123.978 204.022 117.905 210.584 116.971C217.146 116.036 223.219 120.6 224.153 127.162Z" fill="#18292D"/>
<path d="M235.744 134.953C239.838 129.504 238.739 121.768 233.291 117.674C227.842 113.58 220.106 114.679 216.012 120.127C211.918 125.576 213.017 133.312 218.465 137.406C223.914 141.5 231.65 140.401 235.744 134.953Z" fill="#18292D"/>
<path d="M216.392 136.179C222.87 134.062 226.405 127.094 224.288 120.616C222.171 114.138 215.203 110.603 208.725 112.72C202.247 114.838 198.712 121.805 200.829 128.284C202.946 134.762 209.914 138.297 216.392 136.179Z" fill="#18292D"/>
<path d="M188.447 138.058C188.296 138.058 188.145 138.015 188.016 137.914C185.271 135.866 181.605 137.626 181.569 137.648C181.21 137.82 180.779 137.677 180.606 137.325C180.434 136.972 180.577 136.541 180.93 136.362C181.109 136.268 185.414 134.184 188.878 136.764C189.195 137.001 189.259 137.454 189.022 137.77C188.878 137.957 188.663 138.058 188.447 138.058Z" fill="#18292D"/>
<path d="M188.145 137.554C184.185 137.554 181.842 133.868 181.741 133.702C181.533 133.364 181.633 132.919 181.971 132.71C182.309 132.502 182.747 132.603 182.963 132.94C182.963 132.94 185.191 136.39 188.59 136.096C189 136.06 189.338 136.354 189.374 136.75C189.41 137.145 189.115 137.497 188.72 137.526C188.526 137.54 188.332 137.554 188.145 137.554Z" fill="#18292D"/>
<path d="M241.868 139.732C233.962 124 216.785 116.654 203.496 123.331C192.263 128.973 187.412 142.83 190.955 156.485C190.653 156.528 190.358 156.571 190.056 156.643C185.493 157.721 182.373 162.177 182.927 166.835C183.545 172.067 188.339 175.732 193.528 174.999C195.813 174.676 197.768 173.54 199.191 171.937C208.067 181.927 221.378 185.715 232.137 180.31C245.426 173.634 249.788 155.465 241.882 139.732H241.868Z" fill="white"/>
<path d="M221.543 183.508C213.644 183.508 205.501 179.829 199.17 172.987C197.646 174.453 195.705 175.409 193.628 175.703C190.926 176.084 188.238 175.38 186.075 173.712C183.911 172.045 182.539 169.63 182.215 166.914C181.626 161.919 184.997 157.096 189.898 155.939C189.956 155.924 190.02 155.91 190.078 155.903C186.743 141.852 192.062 128.276 203.18 122.691C209.799 119.364 217.547 119.285 224.986 122.469C232.388 125.631 238.612 131.647 242.515 139.409C250.586 155.472 246.072 174.108 232.453 180.95C229.017 182.675 225.309 183.508 221.543 183.508ZM199.184 171.211C199.392 171.211 199.586 171.298 199.723 171.456C208.656 181.518 221.55 184.817 231.806 179.663C244.714 173.173 248.94 155.407 241.228 140.055C237.484 132.595 231.511 126.824 224.418 123.791C217.367 120.78 210.051 120.844 203.82 123.978C193.111 129.361 188.109 142.65 191.652 156.313C191.702 156.514 191.666 156.722 191.551 156.895C191.436 157.067 191.257 157.182 191.048 157.204C190.775 157.24 190.495 157.283 190.214 157.348C186.017 158.339 183.121 162.472 183.631 166.755C183.904 169.084 185.083 171.154 186.937 172.584C188.791 174.014 191.098 174.618 193.413 174.287C195.418 174 197.272 173.001 198.638 171.463C198.774 171.312 198.968 171.219 199.177 171.219L199.184 171.211Z" fill="#18292D"/>
<path d="M211.23 144.483C212.021 145.453 213.163 145.834 213.782 145.331C214.4 144.828 214.263 143.635 213.472 142.664C212.682 141.694 211.539 141.313 210.921 141.816C210.303 142.319 210.44 143.512 211.23 144.483Z" fill="#18292D"/>
<path d="M226.496 136.52C227.286 137.49 228.429 137.871 229.047 137.368C229.665 136.865 229.529 135.671 228.738 134.701C227.948 133.731 226.805 133.35 226.187 133.853C225.569 134.356 225.705 135.549 226.496 136.52Z" fill="#18292D"/>
<path d="M222.859 155.034C222.493 155.034 222.184 154.76 222.148 154.387C222.105 153.991 222.392 153.639 222.787 153.596C222.874 153.589 231.053 152.727 233.547 150.154C233.82 149.866 234.28 149.859 234.56 150.139C234.847 150.412 234.855 150.872 234.574 151.153C231.721 154.106 223.291 154.99 222.931 155.026C222.91 155.026 222.881 155.026 222.859 155.026V155.034Z" fill="#18292D"/>
<path d="M194.204 144.281L202.462 160.833C202.721 161.351 202.721 161.969 202.455 162.486C201.938 163.5 200.63 163.802 199.724 163.119L190.898 156.485L194.204 144.281Z" fill="#18292D"/>
<path d="M195.778 165.699C195.484 165.699 195.211 165.519 195.103 165.232C195.103 165.232 193.895 162.077 191.078 161.48C190.69 161.394 190.446 161.013 190.525 160.625C190.611 160.237 190.992 159.992 191.38 160.071C194.981 160.84 196.396 164.578 196.454 164.736C196.59 165.11 196.404 165.519 196.03 165.656C195.951 165.685 195.865 165.699 195.778 165.699Z" fill="#18292D"/>
<path d="M185.989 132.351C182.353 138.388 180.678 145.661 181.742 153.143L182.252 156.722C183.531 156.959 184.868 157.003 186.226 156.809C192.975 155.853 197.668 149.6 196.712 142.851C195.907 137.202 191.401 133.005 185.989 132.344V132.351Z" fill="#18292D"/>
<path d="M262.695 96.6742H207.247C206.852 96.6742 206.528 96.3508 206.528 95.9555C206.528 95.5602 206.852 95.2368 207.247 95.2368H262.695C263.091 95.2368 263.414 95.5602 263.414 95.9555C263.414 96.3508 263.091 96.6742 262.695 96.6742Z" fill="#18292D"/>
<path d="M215.888 152.421C211.694 155.257 205.978 154.152 203.142 149.958C200.306 145.764 201.41 140.048 205.604 137.212C209.799 134.376 215.515 135.48 218.351 139.675C221.187 143.869 220.082 149.585 215.888 152.421ZM206.45 138.463C202.947 140.832 202.017 145.613 204.391 149.123C206.764 152.632 211.541 153.555 215.051 151.182C218.56 148.809 219.483 144.032 217.11 140.522C214.737 137.013 209.96 136.09 206.45 138.463Z" fill="#FFC31F"/>
<path d="M225.642 149.214C225.642 149.214 225.677 149.19 225.694 149.177C225.901 149.003 227.666 147.414 227.506 145.885C227.457 145.439 227.231 144.805 226.404 144.348C224.804 143.457 223.414 142.908 223.369 142.87C223.057 142.63 222.61 142.689 222.37 143C222.13 143.312 222.188 143.76 222.5 144C222.69 144.143 224.016 144.652 225.711 145.589C226.061 145.784 226.082 145.961 226.087 146.028C226.145 146.598 225.329 147.594 224.756 148.1C224.459 148.357 224.431 148.806 224.687 149.103C224.932 149.382 225.342 149.43 225.636 149.219L225.642 149.214Z" fill="#18292D"/>
<path d="M220.576 140.083L219.151 141.046C218.809 141.278 218.34 141.187 218.108 140.845C217.877 140.503 217.968 140.033 218.31 139.802L219.735 138.838C220.077 138.607 220.546 138.698 220.778 139.04C221.009 139.382 220.919 139.852 220.576 140.083Z" fill="#FFC31F"/>
<path d="M232.261 141.351C228.067 144.187 222.351 143.082 219.515 138.888C216.679 134.694 217.783 128.978 221.978 126.142C226.172 123.306 231.888 124.41 234.724 128.604C237.56 132.799 236.455 138.515 232.261 141.351ZM222.823 127.393C219.32 129.761 218.39 134.543 220.764 138.053C223.137 141.562 227.914 142.485 231.424 140.112C234.933 137.739 235.856 132.962 233.483 129.452C231.11 125.942 226.333 125.019 222.823 127.393Z" fill="#FFC31F"/>
</g>
</svg>
