<svg width="1300" height="400" viewBox="0 0 1300 400" fill="none" xmlns="http://www.w3.org/2000/svg">
<path d="M703.827 65.0325C742.245 62.0157 779.132 74.4844 805.225 91.4627C831.577 108.778 847.128 130.606 848.827 153.932C850.538 177.484 838.724 199.853 821.221 221.95C803.481 243.711 780.052 265.203 753.199 279.132C701.299 308.257 641.831 284.681 613.484 214.293C585.107 144.349 624.831 69.0503 703.827 65.0325Z" fill="#F2F7F8"/>
<path d="M387.691 259.32C385.431 258.93 383.604 259.797 381.504 260.563C374.198 263.228 366.396 264.556 358.736 265.782C334.471 269.664 310.98 266.587 289.292 254.641C273.432 245.906 251.026 225.073 258.858 205.154C264.737 190.202 276.009 190.024 288.915 195.812C300.301 200.918 298.677 211.451 292.886 220.889C287.53 229.618 283.13 232.16 273.449 234.618C252.65 239.898 234.556 240.012 213.476 235.285C208.004 234.058 184.279 231.134 182.961 224.395" stroke="black" stroke-width="2" stroke-linecap="round" stroke-linejoin="round" stroke-dasharray="6 6"/>
<path d="M1112.44 241.922C1110.18 242.253 1108.37 241.338 1106.29 240.517C1099.06 237.662 1091.29 236.13 1083.67 234.704C1059.51 230.188 1035.95 232.65 1013.96 244.023C997.874 252.34 974.93 272.58 982.238 292.697C987.724 307.798 998.987 308.271 1012.04 302.823C1023.56 298.017 1022.21 287.445 1016.67 277.858C1011.54 268.992 1007.21 266.335 997.595 263.625C976.941 257.802 958.857 257.215 937.66 261.388C932.158 262.472 908.364 264.774 906.87 271.476" stroke="black" stroke-width="2" stroke-linecap="round" stroke-linejoin="round" stroke-dasharray="6 6"/>
<circle cx="138.5" cy="218.5" r="56" fill="white" stroke="#18292D"/>
<line x1="139.095" y1="211.552" x2="139.095" y2="218.419" stroke="#18292D" stroke-width="0.8"/>
<path d="M114.983 225.165C115.139 225.321 115.392 225.321 115.548 225.165L118.094 222.619C118.25 222.463 118.25 222.21 118.094 222.054C117.938 221.897 117.685 221.897 117.528 222.054L115.266 224.316L113.003 222.054C112.847 221.897 112.593 221.897 112.437 222.054C112.281 222.21 112.281 222.463 112.437 222.619L114.983 225.165ZM114.866 218.015L114.866 224.882L115.666 224.882L115.666 218.015L114.866 218.015Z" fill="#18292D"/>
<path d="M161.717 225.283C161.873 225.439 162.127 225.439 162.283 225.283L164.828 222.737C164.985 222.581 164.985 222.328 164.828 222.172C164.672 222.015 164.419 222.015 164.263 222.172L162 224.434L159.737 222.172C159.581 222.015 159.328 222.015 159.172 222.172C159.015 222.328 159.015 222.581 159.172 222.737L161.717 225.283ZM161.6 218L161.6 225L162.4 225L162.4 218L161.6 218Z" fill="#18292D"/>
<rect x="126.853" y="193.4" width="24.7165" height="17.7821" rx="1.45821" fill="white" stroke="#18292D" stroke-width="0.8"/>
<path d="M132 200H146" stroke="#FFC31F" stroke-width="1.24344" stroke-linecap="round" stroke-linejoin="round"/>
<path d="M132 203H146" stroke="#FFC31F" stroke-width="1.24344" stroke-linecap="round" stroke-linejoin="round"/>
<path d="M132 206H139" stroke="#FFC31F" stroke-width="1.24344" stroke-linecap="round" stroke-linejoin="round"/>
<rect x="102.4" y="226.296" width="24.7165" height="17.7821" rx="1.45821" fill="white" stroke="#18292D" stroke-width="0.8"/>
<path d="M107 233H121" stroke="#18292D" stroke-width="1.24344" stroke-linecap="round" stroke-linejoin="round"/>
<path d="M107 236H121" stroke="#18292D" stroke-width="1.24344" stroke-linecap="round" stroke-linejoin="round"/>
<path d="M107 239H114" stroke="#18292D" stroke-width="1.24344" stroke-linecap="round" stroke-linejoin="round"/>
<rect x="150.244" y="226.296" width="24.7165" height="17.7821" rx="1.45821" fill="white" stroke="#18292D" stroke-width="0.8"/>
<line x1="115.266" y1="218.02" x2="162.125" y2="218.02" stroke="#18292D" stroke-width="0.8"/>
<path d="M155 233H169" stroke="#18292D" stroke-width="1.24344" stroke-linecap="round" stroke-linejoin="round"/>
<path d="M155 236H169" stroke="#18292D" stroke-width="1.24344" stroke-linecap="round" stroke-linejoin="round"/>
<path d="M155 239H162" stroke="#18292D" stroke-width="1.24344" stroke-linecap="round" stroke-linejoin="round"/>
<circle cx="1162.5" cy="251.5" r="56" fill="white" stroke="#18292D"/>
<g clip-path="url(#clip0_711_10221)">
<path d="M1176.48 282.62H1140.4C1137.22 282.62 1134.64 280.183 1134.64 277.179V229.947C1134.64 226.943 1137.22 224.506 1140.4 224.506H1176.48C1179.66 224.506 1182.23 226.943 1182.23 229.947V277.179C1182.23 280.183 1179.66 282.62 1176.48 282.62Z" fill="white" stroke="#18292D" stroke-width="1.28846" stroke-linecap="round" stroke-linejoin="round"/>
<path d="M1140.4 224.506C1137.22 224.506 1134.64 226.943 1134.64 229.947V234.5H1182.23V229.947C1182.23 226.943 1179.66 224.506 1176.48 224.506H1140.4Z" fill="#18292D" stroke="#18292D" stroke-width="1.28846" stroke-linecap="round" stroke-linejoin="round"/>
<path d="M1142.73 229.713C1141.92 229.713 1141.27 229.059 1141.27 228.257V223.097C1141.27 222.296 1141.92 221.642 1142.73 221.642C1143.53 221.642 1144.18 222.296 1144.18 223.097V228.257C1144.18 229.059 1143.53 229.713 1142.73 229.713Z" fill="white" stroke="#18292D" stroke-width="1.28846" stroke-linecap="round" stroke-linejoin="round"/>
<path d="M1153.2 229.713C1152.39 229.713 1151.75 229.059 1151.75 228.257V223.097C1151.75 222.296 1152.4 221.642 1153.2 221.642C1154.01 221.642 1154.66 222.296 1154.66 223.097V228.257C1154.66 229.059 1154 229.713 1153.2 229.713Z" fill="white" stroke="#18292D" stroke-width="1.28846" stroke-linecap="round" stroke-linejoin="round"/>
<path d="M1163.68 229.713C1162.87 229.713 1162.23 229.059 1162.23 228.257V223.097C1162.23 222.296 1162.88 221.642 1163.68 221.642C1164.49 221.642 1165.14 222.296 1165.14 223.097V228.257C1165.14 229.059 1164.48 229.713 1163.68 229.713Z" fill="white" stroke="#18292D" stroke-width="1.28846" stroke-linecap="round" stroke-linejoin="round"/>
<path d="M1174.16 229.713C1173.35 229.713 1172.7 229.059 1172.7 228.257V223.097C1172.7 222.296 1173.36 221.642 1174.16 221.642C1174.96 221.642 1175.61 222.296 1175.61 223.097V228.257C1175.61 229.059 1174.96 229.713 1174.16 229.713Z" fill="white" stroke="#18292D" stroke-width="1.28846" stroke-linecap="round" stroke-linejoin="round"/>
<path d="M1134.94 234.666H1182.23" stroke="#18292D" stroke-width="1.28846" stroke-linecap="round" stroke-linejoin="round"/>
<path d="M1149.72 242.757H1177.85" stroke="#18292D" stroke-width="1.28846" stroke-linecap="round" stroke-linejoin="round"/>
<path d="M1139.83 250.508H1177.35" stroke="#18292D" stroke-width="1.28846" stroke-linecap="round" stroke-linejoin="round"/>
<path d="M1139.83 258.252H1177.35" stroke="#18292D" stroke-width="1.28846" stroke-linecap="round" stroke-linejoin="round"/>
<path d="M1139.83 266.003H1177.35" stroke="#18292D" stroke-width="1.28846" stroke-linecap="round" stroke-linejoin="round"/>
<path d="M1139.83 273.753H1161.61" stroke="#18292D" stroke-width="1.28846" stroke-linecap="round" stroke-linejoin="round"/>
<path d="M1202.2 235.414C1201.03 234.513 1199.32 234.733 1198.41 235.908L1175.5 265.255C1175.39 265.389 1175.3 265.529 1175.23 265.676L1171.64 274.401C1171.56 274.568 1171.65 274.635 1171.79 274.515L1179.4 268.914C1179.52 268.807 1179.64 268.687 1179.74 268.553L1202.67 239.192C1203.58 238.018 1203.38 236.322 1202.21 235.421L1202.2 235.414Z" fill="white" stroke="#18292D" stroke-width="1.28846" stroke-linecap="round" stroke-linejoin="round"/>
<path d="M1195.78 239.319L1199.94 242.557" stroke="#18292D" stroke-width="1.28846" stroke-linecap="round" stroke-linejoin="round"/>
<path d="M1173.57 269.722L1175.88 271.504" stroke="#18292D" stroke-width="1.28846" stroke-linecap="round" stroke-linejoin="round"/>
<path d="M1197.89 236.715L1202.06 239.926" stroke="#18292D" stroke-width="1.28846" stroke-linecap="round" stroke-linejoin="round"/>
<path d="M1177.57 267.105L1197.82 240.922" stroke="#18292D" stroke-width="1.28846" stroke-linecap="round" stroke-linejoin="round"/>
<path d="M1175.38 265.415L1179.63 268.686" stroke="#18292D" stroke-width="1.28846" stroke-linecap="round" stroke-linejoin="round"/>
<path d="M1144.46 238.464C1144.44 238.424 1144.4 238.397 1144.36 238.397H1142.95C1142.9 238.397 1142.86 238.424 1142.85 238.471L1139.78 247.477C1139.78 247.477 1139.78 247.544 1139.8 247.57C1139.82 247.597 1139.85 247.61 1139.88 247.61H1141.08C1141.13 247.61 1141.17 247.584 1141.18 247.537L1142.1 244.773H1145.15L1146.09 247.537C1146.1 247.577 1146.14 247.61 1146.19 247.61H1147.43C1147.47 247.61 1147.5 247.597 1147.52 247.57C1147.54 247.544 1147.55 247.51 1147.53 247.477L1144.46 238.471V238.464ZM1143.62 239.893C1143.73 240.307 1143.85 240.741 1144 241.201L1144.84 243.658H1142.41L1143.24 241.188C1143.36 240.801 1143.48 240.38 1143.61 239.893H1143.62Z" fill="#FFC31F"/>
<path d="M1170.7 277.178H1165.82L1170.71 270.021C1170.71 270.021 1170.73 269.981 1170.73 269.961V269.253C1170.73 269.193 1170.69 269.146 1170.63 269.146H1164.54C1164.48 269.146 1164.43 269.193 1164.43 269.253V270.228C1164.43 270.288 1164.48 270.335 1164.54 270.335H1168.94L1164.02 277.518C1164.02 277.518 1164 277.558 1164 277.578V278.259C1164 278.319 1164.05 278.366 1164.11 278.366H1170.7C1170.76 278.366 1170.81 278.319 1170.81 278.259V277.284C1170.81 277.224 1170.76 277.178 1170.7 277.178Z" fill="#FFC31F"/>
</g>
<path d="M753.149 42H383.851C374.545 42 367 49.5446 367 58.8513V305.848C367 315.155 374.545 322.7 383.851 322.7H753.149C762.455 322.7 770 315.155 770 305.848V58.8513C770 49.5446 762.455 42 753.149 42Z" fill="white" stroke="#18292D" stroke-width="3.42317" stroke-linecap="round" stroke-linejoin="round"/>
<path d="M390.028 68.0626C393.629 68.0626 396.548 65.1437 396.548 61.543C396.548 57.9424 393.629 55.0234 390.028 55.0234C386.428 55.0234 383.509 57.9424 383.509 61.543C383.509 65.1437 386.428 68.0626 390.028 68.0626Z" stroke="#18292D" stroke-width="3.42317" stroke-linecap="round" stroke-linejoin="round"/>
<path d="M411.968 68.0626C415.568 68.0626 418.487 65.1437 418.487 61.543C418.487 57.9424 415.568 55.0234 411.968 55.0234C408.367 55.0234 405.448 57.9424 405.448 61.543C405.448 65.1437 408.367 68.0626 411.968 68.0626Z" stroke="#18292D" stroke-width="3.42317" stroke-linecap="round" stroke-linejoin="round"/>
<path d="M433.892 68.0626C437.492 68.0626 440.411 65.1437 440.411 61.543C440.411 57.9424 437.492 55.0234 433.892 55.0234C430.291 55.0234 427.372 57.9424 427.372 61.543C427.372 65.1437 430.291 68.0626 433.892 68.0626Z" stroke="#18292D" stroke-width="3.42317" stroke-linecap="round" stroke-linejoin="round"/>
<line x1="570.37" y1="163.367" x2="570.37" y2="189.819" stroke="#18292D" stroke-width="2.18428"/>
<path d="M478.26 215.486C478.686 215.912 479.378 215.912 479.804 215.486L486.755 208.535C487.181 208.109 487.181 207.417 486.755 206.991C486.328 206.564 485.637 206.564 485.21 206.991L479.032 213.169L472.854 206.991C472.428 206.564 471.736 206.564 471.31 206.991C470.883 207.417 470.883 208.109 471.31 208.535L478.26 215.486ZM477.94 188.262L477.94 214.713L480.124 214.713L480.124 188.262L477.94 188.262Z" fill="#18292D"/>
<path d="M658.753 215.486C659.18 215.912 659.871 215.912 660.298 215.486L667.248 208.535C667.674 208.109 667.674 207.417 667.248 206.991C666.821 206.564 666.13 206.564 665.703 206.991L659.525 213.169L653.347 206.991C652.921 206.564 652.229 206.564 651.803 206.991C651.376 207.417 651.376 208.109 651.803 208.535L658.753 215.486ZM658.433 188.262L658.433 214.713L660.618 214.713L660.618 188.262L658.433 188.262Z" fill="#18292D"/>
<rect x="498.795" y="92.8832" width="140.966" height="69.391" rx="6.06539" fill="#F2F7F8" stroke="#18292D" stroke-width="2.18428"/>
<rect x="408.548" y="217.362" width="140.966" height="69.391" rx="6.06539" fill="#F2F7F8" stroke="#18292D" stroke-width="2.18428"/>
<rect x="589.042" y="217.362" width="140.966" height="69.391" rx="6.06539" fill="#F2F7F8" stroke="#18292D" stroke-width="2.18428"/>
<line x1="479.032" y1="188.726" x2="659.526" y2="188.726" stroke="#18292D" stroke-width="2.18428"/>
<path d="M784.346 147.704L769.366 146.644L757.996 143.274C754.276 142.174 750.256 142.674 746.916 144.654L746.746 144.754L745.946 144.644C741.246 144.004 736.546 145.794 733.466 149.394L727.236 156.664L725.876 145.934L735.846 138.054C737.696 136.334 738.426 133.734 737.756 131.304L737.196 129.284C736.726 127.564 734.656 126.874 733.246 127.954L717.516 140.024C715.096 141.884 713.826 144.864 714.156 147.904L715.986 164.474C712.166 172.444 711.026 181.434 712.736 190.104L715.616 204.654L702.296 268.044L743.656 266.524L751.716 200.424L757.486 200.864C762.846 201.274 768.026 198.864 771.156 194.504L783.396 177.504C784.596 175.834 783.996 173.484 782.146 172.594L780.626 171.864C777.386 170.314 773.516 171.044 771.076 173.674L764.436 180.824C762.356 183.064 759.256 184.034 756.266 183.384H756.216L762.786 158.534L778.996 156.614C781.666 156.294 784.066 154.864 785.606 152.664L786.246 151.744C787.396 150.104 786.316 147.844 784.326 147.704H784.346Z" fill="white" stroke="#18292D" stroke-width="2.2" stroke-linecap="round" stroke-linejoin="round"/>
<path d="M736.276 161.164L745.956 144.654" stroke="#18292D" stroke-width="2.2" stroke-linecap="round" stroke-linejoin="round"/>
<path d="M725.856 159.824L727.246 156.664" stroke="#18292D" stroke-width="2.2" stroke-linecap="round" stroke-linejoin="round"/>
<path d="M699.066 197.874L786.786 153.204L791.406 162.274L703.676 206.944C700.256 205.324 698.356 201.594 699.056 197.874H699.066Z" fill="#4A7C88"/>
<path d="M699.066 197.874L786.786 153.204L802.846 150.734L791.396 162.274L703.676 206.944C700.256 205.324 698.356 201.594 699.056 197.874H699.066Z" stroke="#4A7C88" stroke-width="2.2" stroke-linecap="round" stroke-linejoin="round"/>
<path d="M890.046 262.504L848.506 236.404L855.796 191.134L897.836 197.904L890.046 262.504Z" fill="white" stroke="#18292D" stroke-width="2.2" stroke-linecap="round" stroke-linejoin="round"/>
<path d="M891.857 138.954C891.857 138.954 868.737 151.874 863.897 148.834C859.057 145.794 847.837 135.684 852.957 126.724C858.067 117.764 860.477 121.664 864.557 123.524C868.637 125.384 872.017 115.254 874.777 116.044C877.537 116.834 879.927 119.264 884.097 124.604C888.257 129.944 891.867 138.954 891.867 138.954H891.857Z" fill="#18292D"/>
<path d="M884.506 212.484C894.696 211.194 904.526 206.054 911.636 197.324C925.996 179.684 923.476 154.504 906.716 140.214C879.226 116.764 854.536 138.354 851.186 144.174C850.406 145.534 849.636 146.854 848.886 148.124C847.376 150.104 846.076 152.174 844.966 154.314C841.966 158.594 838.996 161.514 835.536 162.024C830.236 162.804 825.796 201.974 855.236 204.474" fill="white"/>
<path d="M884.506 212.484C894.696 211.194 904.526 206.054 911.636 197.324C925.996 179.684 923.476 154.504 906.716 140.214C879.226 116.764 854.536 138.354 851.186 144.174C850.406 145.534 849.636 146.854 848.886 148.124C847.376 150.104 846.076 152.174 844.966 154.314C841.966 158.594 838.996 161.514 835.536 162.024C830.236 162.804 825.796 201.974 855.236 204.474" stroke="#18292D" stroke-width="2.2" stroke-linecap="round" stroke-linejoin="round"/>
<path d="M914.967 134.734C903.557 125.444 888.687 123.134 875.307 127.194C878.937 128.804 882.407 130.874 885.597 133.474C907.267 151.124 908.737 185.204 888.877 209.594C887.777 210.944 886.627 212.234 885.437 213.474C898.367 213.454 911.337 207.714 920.307 196.694C935.887 177.564 933.497 149.824 914.967 134.734Z" fill="#18292D"/>
<path d="M877.507 150.694C879.997 145.044 887.417 147.244 882.897 143.364C874.337 136.034 873.077 123.934 873.077 123.934C897.857 121.924 915.777 161.694 915.777 161.694L901.007 207.654L895.247 217.894L883.527 214.674C879.637 213.604 876.897 210.124 876.767 206.094L876.087 185.024C876.247 185.174 876.407 185.324 876.577 185.464C880.657 188.784 886.657 188.174 889.987 184.094C893.307 180.014 892.697 174.014 888.617 170.684C884.537 167.354 878.537 167.974 875.207 172.054C875.187 172.074 875.177 172.104 875.157 172.124C873.967 171.424 871.307 169.534 872.757 167.374C874.597 164.644 875.017 156.344 877.507 150.694Z" fill="#18292D"/>
<path d="M844.366 178.764C844.366 178.764 841.926 181.764 838.296 181.504" stroke="#18292D" stroke-width="2.2" stroke-linecap="round" stroke-linejoin="round"/>
<path d="M878.437 177.044C878.437 177.044 880.397 173.704 884.027 173.414" stroke="#18292D" stroke-width="2.2" stroke-linecap="round" stroke-linejoin="round"/>
<path d="M853.477 145.314C859.187 144.824 862.227 151.174 861.337 153.904" stroke="#18292D" stroke-width="2.2" stroke-linecap="round" stroke-linejoin="round"/>
<path d="M851.546 158.744C850.666 159.604 849.446 159.784 848.826 159.154C848.206 158.514 848.426 157.304 849.306 156.444C850.186 155.584 851.406 155.404 852.026 156.034C852.646 156.674 852.426 157.884 851.546 158.744Z" fill="#18292D"/>
<path d="M960.376 358.394L924.466 250.834C919.356 238.014 906.836 229.694 893.036 229.944L839.996 230.904C829.506 231.224 819.246 234.084 810.106 239.234L747.716 273.514L747.126 250.644L704.176 257.154L689.946 296.664C680.656 322.454 706.286 347.064 731.676 336.734L809.516 305.074L819.986 358.914" fill="#96D8E8"/>
<path d="M806.506 288.324L809.506 305.074" stroke="white" stroke-width="2.2" stroke-linecap="round" stroke-linejoin="round"/>
<path d="M718.906 290.514L746.616 274.604" stroke="white" stroke-width="2.2" stroke-linecap="round" stroke-linejoin="round"/>
<path d="M842.146 243.044L846.526 218.954L898.836 221.554L905.656 240.854L842.146 243.044Z" fill="#96D8E8"/>
<path d="M904.286 229.704C904.286 229.704 861.586 228.614 846.256 229.704" stroke="white" stroke-width="2.2" stroke-linecap="round" stroke-linejoin="round"/>
<defs>
<clipPath id="clip0_711_10221">
<rect width="69.8839" height="62.26" fill="white" transform="translate(1134 221)"/>
</clipPath>
</defs>
</svg>
