<svg width="700" height="400" viewBox="0 0 700 400" fill="none" xmlns="http://www.w3.org/2000/svg">
<g clip-path="url(#clip0_555_7977)">
<rect width="700" height="400" fill="white"/>
<mask id="mask0_555_7977" style="mask-type:alpha" maskUnits="userSpaceOnUse" x="0" y="0" width="700" height="400">
<rect width="700" height="400" fill="#F5F5F5"/>
</mask>
<g mask="url(#mask0_555_7977)">
<path d="M295.084 56.0975C350.299 51.7617 403.313 69.6817 440.815 94.0829C478.688 118.968 501.037 150.339 503.479 183.864C505.937 217.713 488.959 249.861 463.803 281.618C438.308 312.895 404.636 343.782 366.043 363.801C291.452 405.659 205.984 371.776 165.244 270.614C124.461 170.091 181.552 61.8719 295.084 56.0975Z" fill="#F2F7F8"/>
<path d="M394.09 170.954C393.757 170.954 393.438 170.852 393.149 170.65C392.454 170.129 392.309 169.144 392.816 168.449C395.798 164.439 397.361 159.676 397.361 154.667C397.361 141.898 386.967 131.503 374.198 131.503C361.429 131.503 351.034 141.898 351.034 154.667C351.034 155.535 350.325 156.245 349.456 156.245C348.587 156.245 347.878 155.535 347.878 154.667C347.878 140.161 359.677 128.347 374.198 128.347C388.718 128.347 400.517 140.146 400.517 154.667C400.517 160.356 398.722 165.785 395.349 170.331C395.045 170.751 394.567 170.968 394.075 170.968L394.09 170.954Z" fill="#18292D"/>
<path d="M372.142 175.239C384.663 175.239 394.814 165.089 394.814 152.568C394.814 140.046 384.663 129.896 372.142 129.896C359.621 129.896 349.471 140.046 349.471 152.568C349.471 165.089 359.621 175.239 372.142 175.239Z" fill="#18292D"/>
<path d="M195.143 194.378L207.419 166.625C209.547 161.804 214.151 158.532 219.435 158.069C224.155 157.664 228.368 155 230.728 150.932L234 145.315C236.432 141.116 240.833 138.423 245.712 138.148L263.012 137.135C266.993 136.903 270.7 135.05 273.262 132.024L297.917 109.44C310.889 97.5683 328.841 92.7619 345.996 96.5839L374.69 102.968C382.19 104.633 387.068 111.814 385.823 119.342L381.451 145.807C380.785 149.846 378.411 153.422 374.922 155.622L258.727 228.993C254.804 231.469 249.925 231.932 245.61 230.239L203.076 213.546C195.432 210.549 191.827 201.848 195.128 194.378H195.143Z" fill="#18292D"/>
<path d="M189.032 189.297C188.786 189.297 188.54 189.239 188.308 189.123C187.526 188.732 187.222 187.777 187.628 186.995L201.497 159.995C204.161 154.797 209.474 151.453 215.337 151.294C219.55 151.178 223.445 149.006 225.761 145.517L229.351 140.103C232.334 135.6 237.343 132.907 242.772 132.907H260.101C263.648 132.893 267.065 131.416 269.497 128.868C269.54 128.825 269.598 128.781 269.642 128.738L293.139 109.585C308.687 96.9169 329.491 92.6171 348.775 98.075L374.023 105.227C382.203 107.543 387.154 115.824 385.301 124.062L379.394 150.237C378.395 154.667 375.529 158.474 371.533 160.689C370.766 161.109 369.81 160.834 369.391 160.067C368.971 159.3 369.246 158.344 369.999 157.924C373.213 156.144 375.5 153.089 376.311 149.527L382.218 123.352C383.709 116.736 379.727 110.106 373.155 108.238L347.906 101.086C329.592 95.9034 309.86 99.9861 295.122 112.002L271.698 131.098C268.686 134.225 264.459 136.035 260.087 136.035H242.757C238.4 136.049 234.361 138.221 231.972 141.826L228.381 147.24C225.5 151.583 220.665 154.276 215.424 154.435C210.705 154.58 206.434 157.258 204.291 161.428L190.422 188.428C190.147 188.978 189.582 189.282 189.018 189.282L189.032 189.297Z" fill="#18292D"/>
<path d="M260.638 296.646L179.449 318.84C161.54 323.733 142.575 315.886 133.367 299.773C123.668 282.806 127.403 261.35 142.242 248.639L172.601 222.652C205.016 194.914 246.059 179.278 288.709 178.424L368.407 176.832C388.11 175.775 407.872 176.412 427.46 178.757L487.584 185.952C528.41 190.831 535.345 247.148 496.937 261.813L471.717 271.426L260.638 296.646Z" fill="#96D8E8"/>
<path d="M282.094 222.406C292.981 232.005 309.587 230.948 319.185 220.061L354.698 179.742C364.296 168.855 363.24 152.249 352.353 142.651C341.466 133.052 324.86 134.109 315.262 144.996L279.749 185.315C270.15 196.202 271.207 212.808 282.094 222.406Z" fill="white"/>
<path d="M299.423 230.542C292.647 230.542 286.176 228.11 281.051 223.593C275.463 218.671 272.133 211.881 271.655 204.454C271.177 197.028 273.639 189.861 278.546 184.287L314.059 143.968C318.982 138.38 325.771 135.05 333.198 134.587C340.611 134.124 347.791 136.57 353.365 141.478C358.953 146.4 362.283 153.19 362.761 160.617C363.239 168.044 360.778 175.21 355.87 180.784L320.357 221.103C315.435 226.692 308.645 230.021 301.218 230.485C300.61 230.528 300.016 230.542 299.423 230.542ZM335.008 137.656C334.472 137.656 333.951 137.67 333.415 137.714C326.828 138.134 320.806 141.087 316.448 146.038L280.935 186.358C276.577 191.309 274.406 197.665 274.826 204.252C275.246 210.839 278.199 216.861 283.15 221.219C288.101 225.577 294.457 227.748 301.044 227.329C307.631 226.909 313.654 223.955 318.012 219.004L353.524 178.685C357.882 173.733 360.054 167.378 359.634 160.791C359.214 154.204 356.261 148.181 351.309 143.823C346.764 139.813 341.031 137.656 335.022 137.656H335.008Z" fill="#18292D"/>
<path d="M398.737 342.64L336.702 307.373C330.708 303.971 331.374 295.126 337.802 292.65L442.459 252.403C444.254 251.708 446.237 251.679 448.061 252.302L513.745 274.988C520.622 277.362 521.201 286.859 514.657 290.059L406.338 342.901C403.92 344.088 401.068 343.987 398.723 342.655L398.737 342.64Z" fill="#18292D"/>
<path d="M257.685 224.723C257.685 224.723 301.421 226.677 322.21 226.822C343 226.967 373.474 235.335 373.474 235.335C405.701 241.314 426.881 262.016 427.764 262.885C430.949 266.041 430.978 271.166 427.822 274.365C424.681 277.55 419.527 277.594 416.327 274.452C416.255 274.38 413.794 272.006 409.407 268.763C415.965 277.637 418.441 284.992 418.615 285.527C420.005 289.784 417.688 294.33 413.446 295.734C410.45 296.733 407.265 295.864 405.151 293.779C404.282 292.911 403.587 291.84 403.167 290.609C403.153 290.551 402.444 288.568 400.837 285.556C401.734 288.683 402.082 290.725 402.125 291C402.777 295.415 399.736 299.527 395.321 300.207C392.671 300.613 390.123 299.686 388.357 297.934C387.17 296.762 386.33 295.213 386.041 293.432C386.012 293.273 383.594 279.128 371.332 266.128C380.047 277.073 381.698 287.409 381.784 287.989C382.436 292.404 379.41 296.472 375.009 297.167C372.36 297.587 369.797 296.66 368.017 294.894C366.844 293.736 366.004 292.201 365.715 290.45C365.657 290.059 364.354 282.921 357.839 275.277C348.154 281.561 335.066 273.83 335.066 273.83C335.066 273.83 263.49 298.528 260.609 296.632C257.728 294.735 245.104 289.465 240.877 265.665C236.461 240.836 257.656 224.723 257.656 224.723H257.685Z" fill="white"/>
<path d="M394.104 301.742C391.599 301.742 389.153 300.743 387.343 298.962C385.881 297.515 384.94 295.69 384.621 293.664C384.621 293.62 384.288 291.796 383.333 288.886C383.478 293.606 380.047 297.833 375.255 298.6C372.272 299.078 369.189 298.079 367.017 295.922C365.584 294.503 364.643 292.694 364.295 290.696C364.295 290.623 363.166 284.21 357.52 277.16C348.486 282.038 337.614 276.855 334.935 275.422C331.634 276.551 315.55 282.067 299.379 287.337C262.216 299.426 260.84 298.528 259.827 297.862C259.581 297.703 259.262 297.515 258.886 297.297C254.658 294.822 243.439 288.249 239.472 265.94C234.955 240.532 256.584 223.767 256.801 223.593C257.076 223.391 257.395 223.289 257.742 223.304C258.176 223.318 301.695 225.258 322.21 225.403C342.956 225.548 373.546 233.872 373.85 233.959C406.395 239.996 427.88 260.988 428.777 261.886C432.512 265.592 432.541 271.658 428.85 275.408C425.288 279.013 419.555 279.201 415.762 275.929C418.6 280.967 419.816 284.543 419.99 285.093C421.611 290.073 418.875 295.473 413.895 297.124C410.449 298.267 406.714 297.384 404.122 294.822C403.891 294.59 403.659 294.344 403.456 294.084C402.675 297.906 399.591 301.018 395.523 301.641C395.045 301.713 394.567 301.756 394.09 301.756L394.104 301.742ZM371.346 264.68C371.737 264.68 372.113 264.839 372.403 265.129C385.012 278.506 387.459 293.056 387.488 293.2C387.72 294.619 388.371 295.893 389.384 296.907C390.905 298.412 392.989 299.107 395.103 298.774C398.722 298.21 401.227 294.822 400.691 291.217C400.691 291.203 400.387 289.19 399.446 285.962C399.244 285.252 399.605 284.499 400.286 284.224C400.966 283.949 401.763 284.224 402.11 284.876C403.804 288.046 404.528 290.117 404.542 290.131C404.89 291.145 405.425 292.013 406.178 292.752C407.988 294.547 410.594 295.155 412.997 294.359C416.472 293.2 418.383 289.436 417.253 285.962C417.152 285.658 414.734 278.361 408.263 269.617C407.829 269.038 407.901 268.241 408.408 267.735C408.914 267.228 409.725 267.17 410.29 267.59C414.836 270.949 417.34 273.381 417.355 273.41C419.975 275.987 424.217 275.958 426.808 273.337C429.385 270.717 429.371 266.49 426.765 263.913C425.896 263.044 405.02 242.66 373.228 236.753C372.808 236.637 342.579 228.414 322.224 228.27C302.897 228.139 263.316 226.416 258.191 226.199C255.368 228.545 238.473 243.616 242.353 265.418C246.088 286.411 256.468 292.491 260.392 294.778C260.724 294.981 261.029 295.155 261.275 295.3C265.777 295.575 308.514 281.488 334.66 272.469C335.066 272.324 335.5 272.382 335.862 272.585C335.978 272.657 348.298 279.78 357.114 274.061C357.723 273.656 358.533 273.786 358.997 274.336C365.83 282.342 367.147 289.885 367.191 290.204C367.422 291.593 368.088 292.853 369.087 293.852C370.607 295.358 372.75 296.052 374.835 295.719C378.44 295.14 380.93 291.767 380.394 288.177C380.336 287.757 378.758 277.71 370.231 267.011C369.753 266.403 369.826 265.52 370.419 265.013C370.694 264.781 371.027 264.666 371.375 264.666L371.346 264.68Z" fill="#18292D"/>
<path d="M390.89 248.248C390.89 248.248 403.847 258.701 409.421 268.748L390.89 248.248Z" fill="white"/>
<path d="M409.421 270.196C408.914 270.196 408.422 269.921 408.147 269.458C402.776 259.772 390.094 249.479 389.963 249.378C389.341 248.871 389.239 247.959 389.746 247.336C390.253 246.714 391.165 246.612 391.787 247.119C392.323 247.553 405.02 257.861 410.68 268.039C411.071 268.734 410.811 269.617 410.116 270.008C409.899 270.138 409.652 270.196 409.421 270.196Z" fill="#18292D"/>
<path d="M383.999 256.645C383.999 256.645 396.942 270.095 400.851 285.542L383.999 256.645Z" fill="white"/>
<path d="M400.851 286.99C400.199 286.99 399.62 286.555 399.446 285.89C395.682 271.007 383.087 257.775 382.957 257.644C382.407 257.065 382.421 256.153 383 255.603C383.579 255.053 384.491 255.067 385.041 255.646C385.577 256.211 398.303 269.559 402.255 285.195C402.443 285.976 401.98 286.758 401.213 286.946C401.097 286.975 400.967 286.99 400.851 286.99Z" fill="#18292D"/>
<path d="M454.691 200.401C454.691 200.401 410.955 202.355 390.165 202.5C369.376 202.645 338.901 211.013 338.901 211.013C306.675 216.992 285.494 237.694 284.611 238.563C281.426 241.719 281.397 246.844 284.553 250.043C287.695 253.228 292.849 253.272 296.048 250.13C296.121 250.058 298.582 247.684 302.968 244.441C296.41 253.315 293.934 260.67 293.761 261.205C292.371 265.462 294.687 270.008 298.929 271.412C301.926 272.411 305.111 271.542 307.225 269.457C308.093 268.589 308.788 267.517 309.208 266.287C309.223 266.229 309.932 264.246 311.539 261.234C310.641 264.361 310.294 266.403 310.25 266.678C309.599 271.093 312.639 275.205 317.055 275.885C319.704 276.291 322.252 275.364 324.018 273.612C325.205 272.44 326.045 270.891 326.335 269.11C326.364 268.951 328.781 254.806 341.044 241.806C332.328 252.751 330.678 263.087 330.591 263.667C329.94 268.082 332.965 272.15 337.366 272.845C340.016 273.265 342.578 272.338 344.359 270.572C345.532 269.414 346.371 267.879 346.661 266.128C346.719 265.737 348.022 258.599 354.537 250.955C364.222 257.239 377.309 249.508 377.309 249.508C377.309 249.508 448.885 274.206 451.766 272.309C454.647 270.413 467.271 265.143 471.499 241.343C475.914 216.514 454.72 200.401 454.72 200.401H454.691Z" fill="white"/>
<path d="M318.271 277.405C317.794 277.405 317.316 277.362 316.838 277.29C312.77 276.667 309.686 273.54 308.905 269.733C308.687 269.993 308.47 270.239 308.239 270.471C305.662 273.033 301.912 273.916 298.466 272.773C293.486 271.122 290.75 265.722 292.371 260.742C292.545 260.192 293.761 256.616 296.599 251.578C292.82 254.85 287.073 254.662 283.511 251.057C279.805 247.307 279.849 241.241 283.584 237.535C284.481 236.637 305.966 215.645 338.641 209.579C338.829 209.521 369.42 201.197 390.151 201.052C410.68 200.907 454.185 198.982 454.619 198.953C454.981 198.953 455.285 199.04 455.56 199.242C455.777 199.416 477.406 216.181 472.889 241.589C468.922 263.898 457.702 270.471 453.475 272.946C453.099 273.164 452.78 273.352 452.534 273.511C451.535 274.177 450.16 275.089 412.982 262.986C396.796 257.716 380.727 252.215 377.426 251.071C374.747 252.504 363.875 257.687 354.841 252.809C349.18 259.888 348.08 266.272 348.066 266.33C347.718 268.343 346.792 270.152 345.344 271.571C343.172 273.714 340.103 274.727 337.106 274.235C332.314 273.468 328.883 269.226 329.028 264.506C328.058 267.416 327.754 269.24 327.74 269.298C327.407 271.325 326.466 273.164 325.018 274.597C323.208 276.392 320.761 277.377 318.257 277.377L318.271 277.405ZM311.525 259.772C311.713 259.772 311.887 259.801 312.075 259.873C312.756 260.149 313.132 260.901 312.915 261.611C311.988 264.825 311.684 266.852 311.67 266.866C311.134 270.471 313.639 273.873 317.258 274.423C319.372 274.756 321.456 274.076 322.976 272.556C323.99 271.557 324.656 270.268 324.873 268.849C324.888 268.719 327.392 254.111 339.958 240.778C340.494 240.213 341.377 240.17 341.956 240.677C342.535 241.183 342.622 242.066 342.144 242.674C333.632 253.373 332.054 263.42 331.981 263.84C331.446 267.431 333.95 270.804 337.555 271.383C339.64 271.716 341.783 271.021 343.303 269.515C344.316 268.516 344.968 267.257 345.199 265.853C345.257 265.549 346.546 258.035 353.393 249.985C353.857 249.435 354.667 249.305 355.275 249.71C364.121 255.443 376.398 248.306 376.528 248.234C376.89 248.017 377.339 247.973 377.73 248.118C403.644 257.065 445.831 270.949 450.985 270.949C451.028 270.949 451.072 270.949 451.115 270.949C451.361 270.789 451.651 270.616 451.998 270.427C455.907 268.14 466.302 262.045 470.023 241.067C473.903 219.236 457.008 204.194 454.184 201.848C449.06 202.08 409.479 203.788 390.151 203.919C369.782 204.063 339.568 212.287 339.263 212.373C307.341 218.309 286.479 238.693 285.611 239.562C283.005 242.139 282.976 246.381 285.567 249.001C288.144 251.621 292.386 251.65 295.006 249.073C295.021 249.059 297.511 246.627 302.071 243.253C302.65 242.834 303.447 242.892 303.953 243.398C304.46 243.905 304.518 244.701 304.098 245.28C297.627 254.039 295.209 261.321 295.108 261.625C293.978 265.1 295.889 268.864 299.364 270.022C301.767 270.818 304.373 270.196 306.183 268.415C306.921 267.677 307.471 266.808 307.804 265.809C307.804 265.809 308.528 263.724 310.236 260.539C310.497 260.062 310.989 259.772 311.51 259.772H311.525Z" fill="#18292D"/>
<path d="M321.486 223.926C321.486 223.926 308.529 234.379 302.955 244.426L321.486 223.926Z" fill="white"/>
<path d="M302.954 245.874C302.723 245.874 302.477 245.816 302.26 245.686C301.565 245.295 301.304 244.412 301.695 243.717C307.356 233.539 320.052 223.217 320.588 222.783C321.21 222.276 322.122 222.377 322.629 223C323.136 223.622 323.035 224.534 322.412 225.041C322.282 225.142 309.614 235.436 304.228 245.121C303.968 245.599 303.476 245.859 302.954 245.859V245.874Z" fill="#18292D"/>
<path d="M328.377 232.309C328.377 232.309 315.434 245.758 311.525 261.205L328.377 232.309Z" fill="white"/>
<path d="M311.525 262.668C311.409 262.668 311.293 262.668 311.163 262.624C310.381 262.421 309.918 261.64 310.121 260.872C314.073 245.222 326.799 231.889 327.334 231.324C327.884 230.745 328.797 230.731 329.376 231.281C329.955 231.831 329.969 232.757 329.419 233.322C329.289 233.452 316.694 246.685 312.929 261.567C312.77 262.219 312.177 262.653 311.525 262.653V262.668Z" fill="#18292D"/>
<path d="M306.023 185.967C308.687 199.025 318.923 209.883 332.806 212.677C351.337 216.398 369.376 204.411 373.097 185.88L380.335 149.875C384.056 131.344 372.069 113.305 353.538 109.584C335.007 105.864 316.968 117.851 313.247 136.382L306.009 185.981L306.023 185.967Z" fill="white"/>
<path d="M339.567 214.921C337.237 214.921 334.862 214.69 332.503 214.212C318.373 211.374 307.37 200.401 304.474 186.271C304.301 185.417 304.851 184.577 305.705 184.403C306.559 184.229 307.399 184.78 307.573 185.634C310.207 198.519 320.24 208.522 333.125 211.114C350.773 214.661 368.015 203.195 371.562 185.547L378.801 149.542C382.348 131.894 370.882 114.651 353.234 111.104C344.692 109.382 335.977 111.104 328.724 115.925C321.471 120.746 316.52 128.115 314.797 136.671C314.623 137.526 313.783 138.076 312.944 137.902C312.089 137.728 311.539 136.903 311.713 136.049C313.595 126.668 319.024 118.589 326.987 113.305C334.949 108.006 344.49 106.124 353.871 108.021C373.227 111.915 385.794 130.823 381.899 150.179L374.66 186.184C371.244 203.166 356.274 214.921 339.582 214.921H339.567Z" fill="#18292D"/>
<path d="M317.967 113.044C314.334 115.375 311.105 118.068 308.268 120.978C308.354 126.668 309.831 132.169 312.958 137.033C323.7 153.769 349.282 156.52 370.086 143.157C373.72 140.826 376.948 138.134 379.786 135.224C379.699 129.534 378.222 124.033 375.095 119.168C364.353 102.433 338.771 99.6819 317.967 113.044Z" fill="#18292D"/>
<path d="M321.775 151.38C327.552 144.822 326.915 134.833 320.356 129.071C313.798 123.309 303.809 123.931 298.047 130.49C292.285 137.048 292.907 147.037 299.466 152.799C302.202 155.202 305.517 156.491 308.89 156.708L321.79 151.38H321.775Z" fill="white"/>
<path d="M308.876 158.286C308.876 158.286 308.804 158.286 308.775 158.286C304.909 158.04 301.333 156.549 298.409 153.986C294.92 150.917 292.835 146.675 292.546 142.043C292.256 137.41 293.776 132.936 296.845 129.447C299.915 125.958 304.156 123.874 308.789 123.584C313.436 123.295 317.895 124.815 321.384 127.884C328.58 134.225 329.275 145.228 322.948 152.423C322.369 153.074 321.37 153.132 320.718 152.568C320.067 151.989 319.995 150.99 320.574 150.338C325.757 144.446 325.192 135.441 319.3 130.244C316.448 127.725 312.799 126.48 308.992 126.726C305.199 126.972 301.724 128.666 299.205 131.518C296.686 134.37 295.441 138.032 295.687 141.826C295.933 145.619 297.627 149.093 300.479 151.612C302.868 153.711 305.792 154.927 308.963 155.13C309.832 155.188 310.497 155.941 310.44 156.81C310.382 157.649 309.687 158.286 308.862 158.286H308.876Z" fill="#18292D"/>
<path d="M365.424 168.941C364.758 171.171 365.511 173.371 367.118 173.864C368.725 174.341 370.578 172.923 371.244 170.693C371.91 168.464 371.157 166.263 369.55 165.771C367.943 165.293 366.09 166.712 365.424 168.941Z" fill="#18292D"/>
<path d="M348.152 166.162C347.487 168.391 348.239 170.592 349.846 171.084C351.453 171.562 353.306 170.143 353.972 167.914C354.638 165.684 353.885 163.483 352.278 162.991C350.672 162.513 348.818 163.932 348.152 166.162Z" fill="#18292D"/>
<path d="M351.208 190.802C351.019 190.802 350.831 190.773 350.643 190.701C347.328 189.412 344.678 186.647 343.535 183.288C343.26 182.463 343.694 181.566 344.519 181.29C345.344 181.015 346.242 181.45 346.517 182.275C347.371 184.765 349.34 186.806 351.787 187.762C352.597 188.08 353.003 188.992 352.684 189.803C352.438 190.426 351.845 190.817 351.208 190.817V190.802Z" fill="#18292D"/>
<path d="M357.085 181.146C357.013 181.146 356.926 181.146 356.839 181.131C355.985 181.001 355.392 180.19 355.522 179.336L357.491 166.48C357.621 165.626 358.432 165.033 359.286 165.163C360.14 165.293 360.734 166.104 360.603 166.958L358.634 179.814C358.519 180.596 357.838 181.146 357.071 181.146H357.085Z" fill="#18292D"/>
<path d="M374.922 163.903C374.473 163.903 374.039 163.715 373.72 163.353C372.417 161.833 370.767 160.602 368.957 159.777C368.161 159.415 367.813 158.489 368.175 157.693C368.537 156.896 369.464 156.549 370.26 156.911C372.504 157.924 374.531 159.444 376.123 161.312C376.688 161.978 376.616 162.962 375.95 163.541C375.646 163.802 375.284 163.918 374.922 163.918V163.903Z" fill="#18292D"/>
<path d="M348.066 158.402C347.632 158.402 347.197 158.228 346.879 157.866C346.3 157.215 346.372 156.216 347.024 155.637C349.601 153.364 353.683 153.118 356.535 155.058C357.259 155.55 357.433 156.534 356.941 157.244C356.449 157.968 355.464 158.141 354.755 157.649C353.104 156.52 350.629 156.665 349.123 157.997C348.819 158.257 348.457 158.387 348.081 158.387L348.066 158.402Z" fill="#18292D"/>
<path d="M314.608 149.252C314.521 149.252 314.435 149.252 314.333 149.223C313.479 149.079 312.9 148.253 313.045 147.399C313.624 144.084 313.233 140.551 311.973 137.439C311.64 136.628 312.031 135.716 312.842 135.383C313.653 135.064 314.565 135.441 314.898 136.252C316.403 139.958 316.823 143.997 316.143 147.935C316.013 148.702 315.347 149.238 314.594 149.238L314.608 149.252Z" fill="#18292D"/>
<path d="M413.822 319.187L456.212 223.521C457.312 221.045 459.353 219.091 461.887 218.121L558.335 181.03C566.847 177.758 575.056 186.43 571.321 194.754L533.897 278.057C532.912 280.243 531.204 282.009 529.061 283.052L427.648 332.521C419.077 336.705 409.971 327.917 413.822 319.202V319.187Z" fill="#18292D"/>
<path d="M181.808 237.94C181.041 237.94 180.375 237.376 180.245 236.608C180.114 235.754 180.708 234.944 181.562 234.813L257.438 223.173C258.306 223.043 259.102 223.637 259.233 224.491C259.363 225.345 258.77 226.156 257.915 226.286L182.04 237.926C181.953 237.926 181.88 237.94 181.794 237.94H181.808Z" fill="#18292D"/>
<path d="M399.909 335.025C399.678 335.025 399.432 334.967 399.214 334.852L339.177 302.191C338.468 301.814 338.207 300.931 338.598 300.222C338.974 299.512 339.857 299.252 340.567 299.643L400.604 332.304C401.314 332.68 401.574 333.563 401.183 334.272C400.923 334.75 400.416 335.025 399.909 335.025Z" fill="white"/>
<path d="M413.214 333.578C413.011 333.578 412.809 333.534 412.606 333.447C411.882 333.114 411.564 332.26 411.897 331.522L460.352 226.185C460.685 225.461 461.539 225.142 462.278 225.475C463.002 225.808 463.32 226.662 462.987 227.401L414.532 332.738C414.285 333.274 413.764 333.578 413.214 333.578Z" fill="white"/>
<path d="M500.498 270.746C499.166 270.746 497.892 270.413 496.749 269.762C492.29 267.185 491.464 260.235 494.91 254.256C498.356 248.292 504.798 245.527 509.257 248.103C511.501 249.406 512.905 251.781 513.195 254.821C513.47 257.673 512.732 260.8 511.096 263.609C509.474 266.432 507.129 268.632 504.523 269.819C503.148 270.442 501.787 270.746 500.484 270.746H500.498ZM505.536 250.014C502.742 250.014 499.427 252.201 497.415 255.69C494.809 260.207 495.171 265.491 498.196 267.242C499.615 268.053 501.425 268.024 503.336 267.17C505.406 266.229 507.274 264.448 508.591 262.146C509.923 259.845 510.531 257.34 510.314 255.082C510.111 252.997 509.228 251.404 507.809 250.594C507.129 250.203 506.347 250.014 505.536 250.014Z" fill="white"/>
<path d="M454.691 201.979C453.866 201.979 453.171 201.342 453.113 200.502C453.055 199.633 453.707 198.881 454.575 198.823L480.591 197.042C481.489 196.97 482.212 197.636 482.27 198.504C482.328 199.373 481.677 200.126 480.808 200.184L454.792 201.964C454.792 201.964 454.72 201.964 454.676 201.964L454.691 201.979Z" fill="#18292D"/>
<path d="M511.429 122.657V130.012L523.966 122.657H560.348V89.0266H511.429V122.657Z" fill="#18292D"/>
<path d="M547.202 100.029H525.24V102.418H547.202V100.029Z" fill="white"/>
<path d="M547.202 108.542H525.24V110.931H547.202V108.542Z" fill="white"/>
<path d="M491.928 116.36H448.452C443.603 116.36 439.636 120.327 439.636 125.177V150.164C439.636 155.014 443.603 158.981 448.452 158.981H476.814L489.351 171.518V158.981H491.942C496.792 158.981 500.759 155.014 500.759 150.164V125.177C500.759 120.327 496.792 116.36 491.942 116.36H491.928Z" fill="#96D8E8"/>
<path d="M478.536 137.685L470.183 142.506L461.829 147.327V137.685V128.029L470.183 132.85L478.536 137.685Z" fill="white"/>
<path d="M461.626 38.4573C458.89 38.4573 456.327 36.7201 455.415 33.9839C454.272 30.5672 456.125 26.8465 459.541 25.7028C462.958 24.5591 466.679 26.4122 467.822 29.8289C468.966 33.2455 467.113 36.9662 463.696 38.1099C463.016 38.3415 462.306 38.4429 461.626 38.4429V38.4573ZM461.626 28.2653C461.25 28.2653 460.859 28.3232 460.468 28.4535C458.557 29.0905 457.529 31.1608 458.166 33.0718C458.803 34.9828 460.888 36.0107 462.784 35.3737C464.695 34.7367 465.723 32.6664 465.086 30.7554C464.579 29.2353 463.146 28.2653 461.626 28.2653Z" fill="#96D8E8"/>
<path d="M451.101 58.552L449.783 54.5996L450.058 54.064C451.477 51.212 453.938 49.0693 456.964 48.0704C459.917 47.0859 463.059 47.2741 465.868 48.606L474.062 32.1743C475.553 29.1775 478.13 26.9335 481.315 25.8766C484.485 24.8198 487.902 25.0514 490.899 26.5426L489.61 29.134C487.308 27.9758 484.688 27.8021 482.241 28.6128C479.795 29.4236 477.811 31.1464 476.668 33.4628L467.185 52.486L464.811 51.2988C462.639 50.213 460.192 50.0393 457.89 50.8211C455.777 51.5305 454.04 52.9492 452.939 54.8602L453.866 57.6544L451.115 58.5664L451.101 58.552Z" fill="#96D8E8"/>
<path d="M463.305 66.5144C457.76 66.5144 452.577 63.0109 450.724 57.4661L443.804 36.778C441.488 29.8433 445.237 22.3296 452.172 20.0132L472.86 13.0931C476.219 11.9639 479.809 12.2244 482.98 13.8025C486.15 15.3805 488.51 18.1022 489.625 21.461L496.545 42.1491C498.861 49.0837 495.112 56.5974 488.177 58.9138L467.489 65.834C466.099 66.2972 464.695 66.5144 463.305 66.5144ZM477.073 15.2936C475.973 15.2936 474.858 15.4674 473.787 15.8293L453.099 22.7495C447.684 24.5591 444.76 30.4369 446.569 35.8514L453.489 56.5395C455.299 61.954 461.177 64.8785 466.591 63.0688L487.279 56.1486C492.694 54.339 495.618 48.4612 493.809 43.0467L486.889 22.3586C486.005 19.7382 484.167 17.61 481.691 16.3794C480.229 15.6556 478.665 15.2792 477.087 15.2792L477.073 15.2936Z" fill="#96D8E8"/>
<path d="M477.725 102.476C476.509 102.476 475.408 102.013 474.656 101.13C471.239 97.0905 472.962 90.4164 476.61 86.2904C477.927 84.7992 479.636 83.4963 481.561 82.729C479.23 74.8388 473.555 69.7428 473.483 69.6849L475.394 67.5133C475.712 67.7884 481.894 73.3042 484.399 82.0485C486.455 81.8748 488.684 82.3526 490.943 83.8437C493.809 85.7258 495.546 88.0421 496.097 90.7494C496.922 94.7596 494.75 98.0749 494.649 98.2197L492.246 96.6127C492.636 96.0047 495.923 90.5757 489.35 86.2614C487.815 85.248 486.382 84.9006 485.05 84.9295C485.253 86.0877 485.383 87.3038 485.412 88.5633C485.745 98.9436 481.055 101.564 479.607 102.114C478.97 102.36 478.318 102.476 477.71 102.476H477.725ZM482.242 85.61C480.562 86.3773 479.346 87.5934 478.796 88.2159C476.031 91.343 474.511 96.468 476.871 99.2621C477.117 99.5516 477.768 99.7253 478.593 99.4068C480.649 98.6251 482.763 95.3822 482.546 88.6502C482.517 87.6078 482.401 86.5944 482.242 85.61Z" fill="#96D8E8"/>
</g>
</g>
<defs>
<clipPath id="clip0_555_7977">
<rect width="700" height="400" fill="white"/>
</clipPath>
</defs>
</svg>
