<svg width="1300" height="425" viewBox="0 0 1300 425" fill="none" xmlns="http://www.w3.org/2000/svg">
<path d="M538.417 92.1118C586.756 88.3159 633.168 104.004 666 125.367C699.157 147.153 718.723 174.618 720.86 203.968C723.013 233.602 708.149 261.747 686.126 289.549C663.806 316.93 634.326 343.972 600.539 361.497C535.237 398.143 460.412 368.48 424.746 279.915C389.041 191.91 439.023 97.1671 538.417 92.1118Z" fill="#F2F7F8"/>
<path d="M432.916 177.256C430.662 177.682 429.254 179.135 427.556 180.587C421.646 185.642 414.804 189.618 408.058 193.449C386.689 205.584 363.607 210.927 339.11 207.334C321.195 204.706 292.912 193.039 293.272 171.639C293.543 155.574 304.038 151.461 318.154 152.362C330.607 153.157 332.775 163.592 330.656 174.46C328.696 184.512 325.465 188.435 317.257 194.127C299.625 206.357 282.717 212.8 261.317 215.755C255.761 216.522 232.514 222.092 228.92 216.241" stroke="black" stroke-width="2" stroke-linecap="round" stroke-linejoin="round" stroke-dasharray="6 6"/>
<path d="M1077 231.437C1074.06 231.137 1072.09 229.394 1069.75 227.685C1061.61 221.738 1052.38 217.311 1043.3 213.064C1014.54 199.61 984.334 195.252 953.318 202.771C930.638 208.269 895.674 226.805 898.537 254.812C900.687 275.836 914.608 280.024 932.611 277.225C948.493 274.755 950.102 260.83 946.165 246.828C942.524 233.878 937.94 229.107 926.775 222.587C902.788 208.579 880.381 202.074 852.604 200.655C845.392 200.286 814.954 195.652 811 203.733" stroke="black" stroke-width="2" stroke-linecap="round" stroke-linejoin="round" stroke-dasharray="6 6"/>
<circle cx="183.5" cy="220.5" r="56" fill="white" stroke="#18292D"/>
<path d="M181.711 196.554V191.287C181.711 190.024 182.735 189 183.998 189C184.633 189 185.2 189.256 185.617 189.67C186.029 190.087 186.287 190.654 186.287 191.289V196.554" stroke="#18292D" stroke-width="1.08107" stroke-linecap="round" stroke-linejoin="round"/>
<path d="M186.287 203.41V207.303V226.298" stroke="#18292D" stroke-width="1.08107" stroke-linecap="round" stroke-linejoin="round"/>
<path d="M181.711 203.41V207.303V226.298" stroke="#18292D" stroke-width="1.08107" stroke-linecap="round" stroke-linejoin="round"/>
<path d="M173.933 234.992V232.704C173.933 229.165 176.801 226.297 180.339 226.297H187.661C191.199 226.297 194.068 229.165 194.068 232.704V234.992" stroke="#18292D" stroke-width="1.08107" stroke-linecap="round" stroke-linejoin="round"/>
<path d="M179.882 199.983C176.068 202.131 172.255 203.187 168.441 203.187C164.627 203.187 160.814 202.131 157 199.983" stroke="#18292D" stroke-width="1.08107" stroke-linecap="round" stroke-linejoin="round"/>
<path d="M211 199.983C207.186 202.131 203.373 203.187 199.559 203.187C195.745 203.187 191.932 202.131 188.118 199.983" stroke="#18292D" stroke-width="1.08107" stroke-linecap="round" stroke-linejoin="round"/>
<path d="M184 204.101C186.274 204.101 188.118 202.258 188.118 199.983C188.118 197.709 186.274 195.865 184 195.865C181.726 195.865 179.882 197.709 179.882 199.983C179.882 202.258 181.726 204.101 184 204.101Z" fill="#FFC31F" stroke="#FFC31F" stroke-width="1.08107" stroke-linecap="round" stroke-linejoin="round"/>
<path d="M176.221 218.287C176.221 222.583 172.738 226.067 168.442 226.067C164.146 226.067 160.662 222.583 160.662 218.287H176.221Z" stroke="#18292D" stroke-width="1.08107" stroke-linecap="round" stroke-linejoin="round"/>
<path d="M159.289 215.084H177.593" stroke="#18292D" stroke-width="1.08107" stroke-linecap="round" stroke-linejoin="round"/>
<path d="M160.662 215.084L168.442 203.187L176.221 215.084" fill="#18292D"/>
<path d="M160.662 215.084L168.442 203.187L176.221 215.084" stroke="#18292D" stroke-width="1.08107" stroke-linecap="round" stroke-linejoin="round"/>
<path d="M207.338 218.287C207.338 222.583 203.855 226.067 199.559 226.067C195.263 226.067 191.779 222.583 191.779 218.287H207.338Z" stroke="#18292D" stroke-width="1.08107" stroke-linecap="round" stroke-linejoin="round"/>
<path d="M190.407 215.084H208.712" stroke="#18292D" stroke-width="1.08107" stroke-linecap="round" stroke-linejoin="round"/>
<path d="M191.779 215.084L199.559 203.187L207.338 215.084" fill="#18292D"/>
<path d="M191.779 215.084L199.559 203.187L207.338 215.084" stroke="#18292D" stroke-width="1.08107" stroke-linecap="round" stroke-linejoin="round"/>
<path d="M166.851 243.429C166.851 246.496 165.334 248.994 164.271 249.146C164.262 249.151 164.253 249.151 164.243 249.151L162.258 249.206C161.577 249.229 161.036 249.784 161.036 250.464C161.036 251.145 161.601 251.723 162.295 251.723H198.078C202.82 251.723 206.673 247.925 206.673 243.257C206.673 238.589 202.818 234.791 198.078 234.791H162.295C161.601 234.791 161.036 235.351 161.036 236.045V236.484C161.036 237.187 161.614 237.756 162.317 237.742L164.167 237.705H164.171C165.236 237.714 166.85 240.273 166.85 243.427L166.851 243.429Z" fill="#18292D" stroke="#18292D" stroke-width="1.08107" stroke-linecap="round" stroke-linejoin="round"/>
<path d="M171.636 243.538H198.897" stroke="white" stroke-width="1.08107" stroke-linecap="round" stroke-linejoin="round"/>
<circle cx="1116.5" cy="240.5" r="56" fill="white" stroke="#18292D"/>
<g clip-path="url(#clip0_711_9964)">
<path d="M1132.34 226.723H1117.04V248.782H1132.34V226.723Z" stroke="#18292D" stroke-width="1.09254" stroke-linecap="round" stroke-linejoin="round"/>
<path d="M1116.5 226.722H1132.88C1134.21 226.722 1135.28 225.647 1135.28 224.321V222.996C1135.28 221.67 1134.21 220.594 1132.88 220.594H1116.5C1115.18 220.594 1114.1 221.669 1114.1 222.996V224.321C1114.1 225.647 1115.18 226.722 1116.5 226.722Z" stroke="#18292D" stroke-width="1.09254" stroke-linecap="round" stroke-linejoin="round"/>
<path d="M1132.88 248.781H1116.5C1115.18 248.781 1114.1 249.856 1114.1 251.182V253.12C1114.1 254.446 1115.18 255.521 1116.5 255.521H1132.88C1134.21 255.521 1135.28 254.446 1135.28 253.12V251.182C1135.28 249.856 1134.21 248.781 1132.88 248.781Z" stroke="#18292D" stroke-width="1.09254" stroke-linecap="round" stroke-linejoin="round"/>
<path d="M1084.57 241.288L1117.04 241.288V233.361H1106.26L1084.57 233.36" stroke="#18292D" stroke-width="1.09254" stroke-linecap="round" stroke-linejoin="round"/>
<path d="M1106.66 265.594V262.914C1106.66 260.94 1107.8 259.341 1109.21 259.341H1139.85C1141.26 259.341 1142.41 260.94 1142.41 262.914V265.594H1106.66Z" fill="#18292D" stroke="#18292D" stroke-width="1.09254" stroke-linecap="round" stroke-linejoin="round"/>
<path d="M1108.74 252.893L1106.92 249.313" stroke="#FFC31F" stroke-width="1.09254" stroke-linecap="round" stroke-linejoin="round"/>
<path d="M1105.99 255.76L1102.55 254.328" stroke="#FFC31F" stroke-width="1.09254" stroke-linecap="round" stroke-linejoin="round"/>
</g>
<path d="M607.727 231.885H454.654C440.105 231.885 428.297 220.091 428.297 205.528C428.297 190.979 440.09 179.171 454.654 179.171H607.727V231.87V231.885Z" fill="#4A7C88"/>
<path d="M467.432 233.312C452.112 233.312 439.647 220.847 439.647 205.527C439.647 190.207 452.112 177.742 467.432 177.742C468.217 177.742 468.86 178.385 468.86 179.17C468.86 179.955 468.217 180.598 467.432 180.598C453.697 180.598 442.503 191.777 442.503 205.527C442.503 219.276 453.683 230.456 467.432 230.456C468.217 230.456 468.86 231.099 468.86 231.884C468.86 232.669 468.217 233.312 467.432 233.312Z" fill="#18292D"/>
<path d="M503.042 233.312C487.721 233.312 475.257 220.847 475.257 205.527C475.257 190.207 487.721 177.742 503.042 177.742C503.827 177.742 504.469 178.385 504.469 179.17C504.469 179.955 503.827 180.598 503.042 180.598C489.306 180.598 478.112 191.777 478.112 205.527C478.112 219.276 489.292 230.456 503.042 230.456C503.827 230.456 504.469 231.099 504.469 231.884C504.469 232.669 503.827 233.312 503.042 233.312Z" fill="#18292D"/>
<path d="M607.726 231.884H530.155C515.606 231.884 503.798 220.09 503.798 205.527C503.798 190.978 515.591 179.17 530.155 179.17H607.726V231.869V231.884Z" fill="white"/>
<path d="M607.726 233.312H530.155C514.835 233.312 502.37 220.847 502.37 205.527C502.37 190.207 514.835 177.742 530.155 177.742H607.726C608.512 177.742 609.154 178.385 609.154 179.17V231.87C609.154 232.655 608.512 233.297 607.726 233.297V233.312ZM530.155 180.612C516.42 180.612 505.226 191.792 505.226 205.541C505.226 219.291 516.405 230.47 530.155 230.47H606.299V180.612H530.155Z" fill="#18292D"/>
<path d="M606.358 194.861H537.981C537.196 194.861 536.554 194.219 536.554 193.434C536.554 192.648 537.196 192.006 537.981 192.006H606.358C607.143 192.006 607.786 192.648 607.786 193.434C607.786 194.219 607.143 194.861 606.358 194.861Z" fill="#18292D"/>
<path d="M604.927 204.827H569.318C568.533 204.827 567.891 204.185 567.891 203.399C567.891 202.614 568.533 201.972 569.318 201.972H604.927C605.713 201.972 606.355 202.614 606.355 203.399C606.355 204.185 605.713 204.827 604.927 204.827Z" fill="#18292D"/>
<path d="M580.642 179.171L429.682 179.171V147.845L580.642 147.845C589.294 147.845 596.305 154.87 596.305 163.508C596.305 172.16 589.28 179.171 580.642 179.171Z" fill="#18292D"/>
<path d="M580.627 180.598H429.667C428.882 180.598 428.239 179.956 428.239 179.17V147.845C428.239 147.059 428.882 146.417 429.667 146.417H580.627C590.05 146.417 597.717 154.084 597.717 163.508C597.717 172.931 590.05 180.598 580.627 180.598ZM431.095 177.743H580.627C588.48 177.743 594.862 171.36 594.862 163.508C594.862 155.655 588.48 149.273 580.627 149.273H431.095V177.743Z" fill="#18292D"/>
<path d="M510.05 179.171H429.666V147.845H510.05C518.702 147.845 525.713 154.87 525.713 163.508C525.713 172.16 518.688 179.171 510.05 179.171Z" fill="white"/>
<path d="M510.051 180.598H429.667C428.882 180.598 428.239 179.956 428.239 179.17V147.845C428.239 147.059 428.882 146.417 429.667 146.417H510.051C519.475 146.417 527.142 154.084 527.142 163.508C527.142 172.931 519.475 180.598 510.051 180.598ZM431.095 177.743H510.051C517.904 177.743 524.286 171.36 524.286 163.508C524.286 155.655 517.904 149.273 510.051 149.273H431.095V177.743Z" fill="#18292D"/>
<path d="M505.398 157.738H430.482C429.697 157.738 429.055 157.096 429.055 156.311C429.055 155.525 429.697 154.883 430.482 154.883H505.398C506.184 154.883 506.826 155.525 506.826 156.311C506.826 157.096 506.184 157.738 505.398 157.738Z" fill="#18292D"/>
<path d="M465.334 166.521H431.338C430.553 166.521 429.91 165.878 429.91 165.093C429.91 164.308 430.553 163.665 431.338 163.665H465.348C466.133 163.665 466.776 164.308 466.776 165.093C466.776 165.878 466.133 166.521 465.348 166.521H465.334Z" fill="#18292D"/>
<path d="M589.268 146.403L425.401 146.403V112.65L589.268 112.65C597.92 112.65 604.931 119.675 604.931 128.313V130.741C604.931 139.393 597.906 146.403 589.268 146.403Z" fill="white"/>
<path d="M589.267 147.846H425.4C424.615 147.846 423.973 147.203 423.973 146.418V112.665C423.973 111.88 424.615 111.237 425.4 111.237H589.267C598.691 111.237 606.358 118.905 606.358 128.328V130.755C606.358 140.179 598.691 147.846 589.267 147.846ZM426.828 144.99H589.267C597.12 144.99 603.502 138.608 603.502 130.755V128.328C603.502 120.475 597.12 114.093 589.267 114.093H426.828V144.99Z" fill="#18292D"/>
<path d="M513.224 146.403H425.401V112.65L513.224 112.65C521.876 112.65 528.887 119.675 528.887 128.313V130.741C528.887 139.393 521.862 146.403 513.224 146.403Z" fill="white"/>
<path d="M513.224 147.846H425.4C424.615 147.846 423.973 147.203 423.973 146.418V112.665C423.973 111.88 424.615 111.237 425.4 111.237H513.224C522.647 111.237 530.314 118.905 530.314 128.328V130.755C530.314 140.179 522.647 147.846 513.224 147.846ZM426.828 144.99H513.224C521.076 144.99 527.459 138.608 527.459 130.755V128.328C527.459 120.475 521.076 114.093 513.224 114.093H426.828V144.99Z" fill="#18292D"/>
<path d="M506.985 123.216H426.273C425.487 123.216 424.845 122.573 424.845 121.788C424.845 121.003 425.487 120.36 426.273 120.36H506.985C507.77 120.36 508.413 121.003 508.413 121.788C508.413 122.573 507.77 123.216 506.985 123.216Z" fill="#18292D"/>
<path d="M589.252 129.34H542.249C541.464 129.34 540.821 128.697 540.821 127.912C540.821 127.127 541.464 126.484 542.249 126.484H589.252C590.037 126.484 590.68 127.127 590.68 127.912C590.68 128.697 590.037 129.34 589.252 129.34Z" fill="#18292D"/>
<path d="M485.281 171.431V133.638H498.431H511.567V171.431L498.431 163.835L485.281 171.431Z" fill="#4A7C88"/>
<path d="M563.782 267.192C557.842 246.775 534.812 231.755 534.812 231.755L492.421 232.083H459.211C459.211 232.083 455.913 212.094 453.243 205.355C450.587 198.601 439.836 198.844 439.836 198.844L442.92 219.561C442.92 219.561 434.396 201.114 431.312 197.002C428.242 192.89 418.219 193.347 418.219 193.347L423.288 206.369C423.288 206.369 417.134 198.144 411.837 196.103C406.54 194.075 399.43 196.617 399.43 196.617L436.895 249.302L523.818 274.988L528.187 288.98L532.442 331.985H595.279C579.445 297.947 563.796 267.178 563.796 267.178L563.782 267.192Z" fill="white"/>
<path d="M595.264 333.413H532.427C531.699 333.413 531.085 332.856 531 332.128L526.759 289.266L522.661 276.13L436.466 250.658C436.166 250.573 435.895 250.373 435.709 250.116L398.258 197.445C398.001 197.074 397.93 196.617 398.059 196.188C398.187 195.76 398.515 195.417 398.944 195.275C399.258 195.16 406.611 192.576 412.351 194.775C414.649 195.66 417.048 197.559 419.104 199.515L416.905 193.847C416.734 193.418 416.791 192.933 417.034 192.547C417.291 192.162 417.705 191.919 418.162 191.905C419.275 191.848 429.041 191.548 432.468 196.131C434.181 198.43 437.451 204.841 440.107 210.295L438.436 199.044C438.379 198.644 438.493 198.23 438.75 197.916C439.022 197.602 439.407 197.416 439.807 197.402C440.278 197.402 451.586 197.231 454.57 204.826C456.898 210.752 459.653 226.2 460.41 230.669H492.407L534.798 230.327C535.112 230.327 535.354 230.412 535.583 230.555C536.539 231.183 559.027 246.047 565.095 266.664C566.18 268.791 581.372 298.775 596.549 331.4C596.749 331.842 596.721 332.356 596.464 332.77C596.207 333.184 595.75 333.427 595.264 333.427V333.413ZM533.727 330.557H593.023C577.702 297.732 562.654 268.134 562.511 267.835C562.468 267.749 562.439 267.678 562.411 267.592C557.071 249.273 537.268 235.167 534.383 233.182L492.435 233.511H459.225C458.525 233.511 457.926 233.011 457.811 232.326C457.783 232.126 454.499 212.408 451.929 205.869C450.23 201.571 444.404 200.557 441.52 200.329L444.347 219.333C444.447 220.032 444.019 220.703 443.348 220.918C442.663 221.117 441.934 220.789 441.649 220.147C441.563 219.961 433.153 201.785 430.198 197.845C428.485 195.546 423.559 194.875 420.332 194.761L424.644 205.84C424.901 206.511 424.644 207.254 424.001 207.611C423.373 207.953 422.588 207.796 422.16 207.225C422.102 207.139 416.191 199.301 411.337 197.445C408.139 196.217 404.084 196.874 401.771 197.445L437.78 248.088L524.232 273.631C524.689 273.76 525.046 274.117 525.189 274.574L529.558 288.566C529.586 288.652 529.6 288.752 529.615 288.852L533.741 330.571L533.727 330.557Z" fill="#18292D"/>
<path d="M533.781 256.97C533.167 256.97 532.596 256.57 532.411 255.942C532.139 255.056 525.686 234.739 496.573 234.011C466.361 233.254 458.88 233.183 458.808 233.183C458.023 233.183 457.38 232.526 457.395 231.741C457.395 230.955 458.037 230.327 458.823 230.327C458.823 230.327 466.39 230.399 496.645 231.155C512.936 231.555 522.516 238.009 527.699 243.349C533.353 249.174 535.081 254.885 535.152 255.128C535.38 255.884 534.938 256.684 534.195 256.898C534.067 256.941 533.924 256.955 533.796 256.955L533.781 256.97Z" fill="#18292D"/>
<path d="M448.316 252.901C447.602 252.901 447.002 252.373 446.902 251.659C446.488 248.475 438.392 199.673 438.321 199.188C438.193 198.417 438.721 197.674 439.492 197.546C440.277 197.417 441.005 197.945 441.134 198.716C441.462 200.73 449.315 248.061 449.729 251.287C449.829 252.073 449.286 252.787 448.501 252.887C448.444 252.887 448.373 252.887 448.316 252.887V252.901Z" fill="#18292D"/>
<path d="M441.191 251.959C440.634 251.959 440.091 251.616 439.863 251.073L416.747 194.248C416.447 193.519 416.804 192.677 417.532 192.391C418.26 192.092 419.103 192.449 419.388 193.177L442.518 249.988C442.818 250.717 442.461 251.559 441.733 251.844C441.562 251.916 441.376 251.944 441.191 251.944V251.959Z" fill="#18292D"/>
<path d="M532.44 331.986V361.155H810.901L792.468 304.615C786.329 285.797 769.895 272.19 750.263 269.677L654.43 257.412C637.382 255.228 620.534 262.724 610.754 276.859L583.94 315.58L532.426 332L532.44 331.986Z" fill="#96D8E8"/>
<path d="M601.045 353.088C600.517 353.088 600.003 352.788 599.76 352.274L582.669 316.194C582.327 315.48 582.641 314.624 583.355 314.295C584.069 313.953 584.911 314.267 585.254 314.981L602.344 351.061C602.687 351.775 602.373 352.631 601.659 352.96C601.459 353.06 601.259 353.103 601.045 353.103V353.088Z" fill="white"/>
<path d="M791.171 248.649C813.815 226.006 813.815 189.293 791.171 166.65C768.527 144.006 731.815 144.006 709.172 166.65C686.528 189.293 686.528 226.006 709.172 248.649C731.815 271.293 768.528 271.293 791.171 248.649Z" fill="#18292D"/>
<path d="M741.947 197.237C754.088 179.872 749.853 155.953 732.488 143.812C715.123 131.671 691.204 135.906 679.063 153.271C666.922 170.636 671.157 194.555 688.522 206.696C705.887 218.837 729.806 214.602 741.947 197.237Z" fill="#18292D"/>
<path d="M698.26 178.023C709.84 172.858 715.04 159.283 709.874 147.703C704.709 136.123 691.134 130.923 679.554 136.089C667.974 141.254 662.774 154.829 667.94 166.409C673.105 177.989 686.68 183.189 698.26 178.023Z" fill="#18292D"/>
<path d="M832.164 198.357C839.964 178.217 830.46 155.76 810.937 148.2C791.414 140.639 769.265 150.837 761.465 170.977C753.665 191.118 763.168 213.574 782.691 221.135C802.214 228.696 824.364 218.498 832.164 198.357Z" fill="#18292D"/>
<path d="M806.775 228.772C806.089 228.772 805.49 228.286 805.375 227.601C805.233 226.83 805.747 226.087 806.532 225.945C818.268 223.846 828.548 214.808 833.374 202.343C840.499 183.968 833.446 164.036 817.669 157.925C816.94 157.639 816.569 156.811 816.855 156.083C817.14 155.355 817.968 154.984 818.697 155.269C835.944 161.951 843.726 183.525 836.03 203.371C830.847 216.75 819.725 226.487 807.017 228.757C806.932 228.772 806.846 228.786 806.76 228.786L806.775 228.772Z" fill="#18292D"/>
<path d="M731.342 204.899C757.934 193.868 770.549 163.368 759.518 136.775C748.487 110.183 717.987 97.5681 691.394 108.599C664.802 119.631 652.187 150.131 663.218 176.723C674.249 203.316 704.749 215.931 731.342 204.899Z" fill="#18292D"/>
<path d="M766.03 202.013C793.067 192.119 806.963 162.181 797.07 135.145C787.176 108.109 757.238 94.2122 730.202 104.106C703.165 114 689.269 143.938 699.162 170.974C709.056 198.01 738.994 211.907 766.03 202.013Z" fill="#18292D"/>
<path d="M753.204 206.143C746.779 206.143 740.268 204.986 733.929 202.53C720.593 197.362 710.056 187.31 704.288 174.232C698.506 161.153 698.177 146.59 703.331 133.254C708.5 119.919 718.552 109.382 731.63 103.613C744.709 97.8308 759.272 97.5024 772.608 102.657C800.15 113.322 813.871 144.405 803.205 171.933C794.995 193.135 774.678 206.143 753.204 206.143ZM753.247 101.871C746.294 101.871 739.34 103.328 732.787 106.226C720.394 111.695 710.884 121.661 706.001 134.296C701.104 146.918 701.433 160.696 706.901 173.089C712.369 185.483 722.335 194.992 734.971 199.889C761.043 209.983 790.455 196.99 800.549 170.919C810.644 144.848 797.651 115.435 771.58 105.341C765.64 103.042 759.443 101.886 753.261 101.886L753.247 101.871Z" fill="#18292D"/>
<path d="M729.489 228.059C729.318 228.059 729.147 228.03 728.975 227.959C726.148 226.859 723.678 225.032 721.808 222.662C720.923 221.548 720.194 220.32 719.623 219.021C719.309 218.293 719.623 217.45 720.352 217.136C721.065 216.822 721.922 217.136 722.236 217.864C722.707 218.935 723.321 219.963 724.049 220.891C725.591 222.861 727.662 224.375 730.003 225.289C730.731 225.574 731.103 226.402 730.817 227.131C730.603 227.702 730.06 228.044 729.489 228.044V228.059Z" fill="#18292D"/>
<path d="M728.606 225.388C737.43 228.8 747.21 224.674 750.094 216.179C752.764 208.326 748.252 199.331 740.043 196.104C735.431 194.291 730.576 194.576 726.55 196.447C732.304 178.428 728.006 160.067 714.6 151.5C697.752 140.735 672.908 149.516 659.116 171.104C645.323 192.692 647.793 218.92 664.641 229.686C665.527 230.257 666.44 230.728 667.368 231.185L669.167 260.783L657.231 259.255C656.86 260.94 656.66 262.668 656.66 264.424C656.66 282.642 677.491 297.42 703.192 297.42C725.722 297.42 744.512 286.069 748.795 270.977L728.121 268.336L723.566 222.404C725.022 223.632 726.693 224.66 728.578 225.388H728.606Z" fill="white"/>
<path d="M703.204 298.849C676.762 298.849 655.245 283.4 655.245 264.425C655.245 262.597 655.445 260.755 655.845 258.942C656.002 258.228 656.687 257.728 657.415 257.843L667.638 259.156L665.982 232.1C665.311 231.757 664.583 231.357 663.869 230.9C655.345 225.446 650.048 216.108 648.963 204.6C647.892 193.221 651.062 181.056 657.915 170.348C664.768 159.64 674.463 151.644 685.243 147.832C696.151 143.977 706.845 144.862 715.369 150.302C728.333 158.583 733.516 175.959 728.705 194.149C732.56 193.078 736.743 193.292 740.555 194.792C749.465 198.29 754.348 208.099 751.435 216.651C749.979 220.934 746.866 224.375 742.668 226.331C738.171 228.43 732.845 228.573 728.076 226.731C727.12 226.36 726.192 225.903 725.306 225.389L729.433 267.066L748.979 269.565C749.393 269.622 749.764 269.85 749.993 270.193C750.221 270.536 750.293 270.964 750.178 271.364C745.652 287.284 725.892 298.834 703.19 298.834L703.204 298.849ZM658.4 260.841C658.201 262.026 658.101 263.225 658.101 264.425C658.101 281.829 678.332 295.993 703.204 295.993C723.864 295.993 741.897 286.07 746.923 272.178L727.948 269.75C727.291 269.665 726.777 269.136 726.706 268.48L722.151 222.548C722.094 221.962 722.394 221.42 722.908 221.149C723.422 220.877 724.05 220.949 724.493 221.32C725.892 222.505 727.448 223.433 729.104 224.075C733.159 225.646 737.657 225.532 741.455 223.747C744.938 222.119 747.523 219.278 748.722 215.723C751.149 208.598 747.009 200.389 739.499 197.447C735.472 195.862 730.96 195.977 727.134 197.747C726.62 197.99 726.02 197.89 725.592 197.519C725.164 197.147 725.007 196.548 725.178 196.019C730.889 178.101 726.334 160.696 713.827 152.715C706.06 147.746 696.237 146.975 686.185 150.53C676.005 154.128 666.824 161.71 660.314 171.89C653.817 182.07 650.79 193.592 651.804 204.343C652.803 214.966 657.629 223.547 665.411 228.502C666.296 229.073 667.21 229.544 667.995 229.929C668.452 230.158 668.752 230.615 668.78 231.129L670.579 260.727C670.608 261.155 670.437 261.569 670.137 261.855C669.823 262.14 669.394 262.283 668.98 262.226L658.372 260.869L658.4 260.841Z" fill="#18292D"/>
<path d="M727.034 198.862C726.663 198.833 726.306 198.805 725.935 198.762C705.589 196.306 691.554 173.276 694.609 147.347C694.638 147.047 694.695 146.762 694.723 146.476C702.048 145.677 709.215 147.062 715.355 150.974C729.618 160.069 733.873 179.872 727.02 198.862H727.034Z" fill="#18292D"/>
<path d="M681.045 235.112C676.404 235.112 671.75 234.398 667.224 232.941C666.467 232.699 666.067 231.899 666.295 231.142C666.538 230.386 667.352 229.972 668.094 230.214C679.917 234.026 692.752 232.442 703.304 225.888C703.975 225.474 704.86 225.674 705.274 226.345C705.688 227.016 705.488 227.901 704.817 228.315C697.593 232.813 689.354 235.112 681.045 235.112Z" fill="#18292D"/>
<path d="M670.492 168.005C670.692 169.276 667.993 170.761 664.452 171.303C660.926 171.846 657.899 171.261 657.699 169.99C657.499 168.719 660.198 167.234 663.738 166.692C667.279 166.149 670.292 166.734 670.492 168.005Z" fill="#18292D"/>
<path d="M698.093 184.212C697.222 185.554 693.495 184.669 689.783 182.242C686.071 179.814 683.772 176.759 684.657 175.417C685.528 174.075 689.255 174.96 692.967 177.387C696.679 179.814 698.978 182.87 698.093 184.212Z" fill="#18292D"/>
<path d="M668.594 191.721C668.066 191.721 667.566 191.436 667.323 190.936C666.267 188.837 666.395 186.296 667.68 184.325L673.363 175.516C673.791 174.859 674.676 174.659 675.333 175.088C675.99 175.516 676.19 176.401 675.761 177.058L670.079 185.867C669.336 187.01 669.265 188.423 669.879 189.637C670.236 190.336 669.95 191.193 669.251 191.55C669.051 191.65 668.822 191.707 668.608 191.707L668.594 191.721Z" fill="#18292D"/>
<path d="M674.519 214.551C674.219 214.551 673.905 214.537 673.591 214.494C670.136 214.008 667.352 210.896 665.296 205.228C665.067 204.599 665.196 203.957 665.638 203.486C666.238 202.857 667.352 201.672 683.186 206.398C683.628 206.527 683.985 206.87 684.128 207.312C684.271 207.755 684.2 208.226 683.928 208.611C683.743 208.868 679.574 214.565 674.491 214.565L674.519 214.551ZM668.58 205.756C669.765 208.511 671.549 211.324 673.991 211.667C676.261 211.981 678.703 210.125 680.273 208.526C675.718 207.226 670.921 206.056 668.58 205.756Z" fill="#18292D"/>
<path d="M727.733 214.452C727.604 214.452 727.476 214.438 727.333 214.395C726.576 214.181 726.134 213.381 726.348 212.625C727.619 208.184 729.875 205.086 733.044 203.401C737.613 200.988 742.339 202.487 742.539 202.559C743.281 202.801 743.695 203.615 743.453 204.358C743.21 205.1 742.41 205.514 741.654 205.271C741.654 205.271 737.827 204.086 734.358 205.942C731.916 207.256 730.146 209.769 729.104 213.41C728.932 214.038 728.347 214.452 727.733 214.452Z" fill="#18292D"/>
<path d="M666.838 181.013C665.739 183.455 663.383 184.783 661.569 183.955C659.756 183.141 659.185 180.499 660.299 178.058C661.398 175.616 663.768 174.289 665.567 175.117C667.381 175.93 667.952 178.572 666.838 181.013Z" fill="#18292D"/>
<path d="M687.456 190.394C686.357 192.836 683.987 194.164 682.188 193.335C680.374 192.522 679.803 189.88 680.917 187.439C682.016 184.997 684.372 183.669 686.185 184.497C687.999 185.311 688.57 187.953 687.456 190.394Z" fill="#18292D"/>
<defs>
<clipPath id="clip0_711_9964">
<rect width="61" height="46.1882" fill="white" transform="translate(1082 220)"/>
</clipPath>
</defs>
</svg>
