<svg width="470" height="250" viewBox="0 0 470 250" fill="none" xmlns="http://www.w3.org/2000/svg">
<g clip-path="url(#clip0_562_8731)">
<g clip-path="url(#clip1_562_8731)">
<path d="M320.753 152.417C320.753 150.839 320.673 149.285 320.545 147.74C304.689 149.942 288.49 157.91 284.478 157.245C278.176 156.196 282.38 141.133 283.429 133.774C284.478 126.415 280.978 124.317 280.978 124.317C280.978 124.317 274.324 121.514 263.465 115.212C252.607 108.91 240.347 102.6 241.748 115.564C243.149 128.529 265.916 139.035 265.916 139.035C265.916 139.035 257.86 155.147 251.902 171.259C246.264 186.522 270.792 201.785 282.924 206.63C305.002 198.518 320.753 177.313 320.753 152.425V152.417Z" fill="#18292D"/>
<path d="M165.313 162.25C190.787 162.25 211.438 141.599 211.438 116.125C211.438 90.6509 190.787 70 165.313 70C139.839 70 119.188 90.6509 119.188 116.125C119.188 141.599 139.839 162.25 165.313 162.25Z" fill="#4A7C88"/>
<path d="M211.671 162.475L188.328 156.22L164.993 149.966L182.074 132.886L199.162 115.797L205.416 139.14L211.671 162.475Z" fill="#4A7C88"/>
<path d="M288.93 197.573C316.909 194.594 315.052 189.429 338.923 181.181C358.206 174.518 357.565 138.643 324.197 137.802C306.555 137.354 304.369 130.627 304.249 130.027C300.557 111.184 281.947 99.0524 263.081 103.513C246.128 107.525 234.853 124.045 237.312 141.294C239.53 156.845 251.782 168.2 266.332 170.186C266.42 170.787 266.516 171.387 266.636 171.988C269.047 184.312 277.855 193.761 288.938 197.573H288.93Z" fill="#18292D"/>
<path d="M355.187 153.233C354.875 153.233 354.578 153.049 354.45 152.745C347.291 135.752 338.707 133.054 328.032 134.239C309.278 136.313 306.579 128.585 306.475 128.257C303.785 119.817 297.971 112.938 290.099 108.87C282.236 104.81 273.251 104.049 264.818 106.74C264.394 106.876 263.946 106.644 263.809 106.219C263.673 105.795 263.906 105.347 264.33 105.21C273.171 102.392 282.588 103.184 290.836 107.445C299.084 111.705 305.178 118.92 307.997 127.768C308.021 127.833 310.431 134.575 327.856 132.645C343.616 130.908 350.478 139.172 355.932 152.12C356.1 152.529 355.916 153.001 355.507 153.169C355.403 153.209 355.299 153.233 355.195 153.233H355.187Z" fill="#18292D"/>
<path d="M316.837 228.987L294.92 172.1C292.245 165.149 285.735 160.424 278.296 160.024L266.036 159.359C257.011 162.418 249.724 169.193 246.016 177.97L245.824 178.434L214.441 249.207H302.207C312.697 249.207 320.113 238.957 316.837 228.995V228.987Z" fill="white"/>
<path d="M302.207 250H214.433C214.161 250 213.913 249.864 213.761 249.64C213.616 249.416 213.592 249.127 213.696 248.879L245.079 178.106L245.271 177.657C249.067 168.673 256.538 161.73 265.771 158.599C265.868 158.567 265.972 158.551 266.076 158.559L278.336 159.223C286.071 159.64 292.878 164.581 295.665 171.812L317.582 228.699C317.582 228.699 317.59 228.723 317.598 228.739C319.24 233.736 318.415 239.045 315.332 243.306C312.249 247.566 307.46 250.008 302.207 250.008V250ZM215.666 248.399H302.207C306.948 248.399 311.256 246.196 314.035 242.361C316.813 238.525 317.558 233.752 316.085 229.26L294.167 172.388C291.605 165.742 285.359 161.201 278.248 160.817L266.14 160.16C257.403 163.163 250.34 169.762 246.745 178.274L246.553 178.738L215.658 248.399H215.666Z" fill="#18292D"/>
<path d="M228.767 248.575H251.333C251.333 248.575 253.135 242.168 251.333 238.645C249.532 235.122 239.898 229.997 233.58 232.559C227.262 235.122 228.767 248.575 228.767 248.575Z" fill="white"/>
<path d="M251.341 249.375H228.775C228.367 249.375 228.023 249.071 227.982 248.663C227.918 248.086 226.485 234.569 233.292 231.814C237.36 230.165 242.036 231.582 244.471 232.575C248.01 234.024 251.061 236.315 252.062 238.277C253.992 242.04 252.198 248.519 252.118 248.791C252.022 249.135 251.71 249.375 251.349 249.375H251.341ZM229.512 247.774H250.717C251.093 246.164 251.966 241.624 250.629 239.005C248.971 235.77 239.794 230.901 233.884 233.296C228.983 235.282 229.312 245.035 229.504 247.774H229.512Z" fill="#18292D"/>
<path d="M174.138 243.394H250.108C253.159 243.394 255.633 245.868 255.633 248.919V249.824H174.138V243.394Z" fill="#18292D"/>
<path d="M205.761 249.816H131.656L115.376 200.6C113.807 195.843 117.346 190.942 122.351 190.942H180.977C184.148 190.942 186.958 192.976 187.951 195.979L205.761 249.808V249.816Z" fill="#18292D"/>
<path d="M250.853 237.203C250.5 237.203 250.18 236.971 250.084 236.619C249.964 236.194 250.212 235.754 250.645 235.634L288.57 225.112L276.758 185.321C276.63 184.896 276.87 184.448 277.295 184.328C277.719 184.2 278.168 184.448 278.288 184.864L290.331 225.44C290.395 225.648 290.371 225.864 290.267 226.057C290.163 226.241 289.987 226.385 289.779 226.441L251.069 237.187C250.997 237.203 250.925 237.219 250.853 237.219V237.203Z" fill="#18292D"/>
<path d="M253.984 235.898C253.984 235.898 253.92 235.898 253.888 235.898C253.447 235.85 253.135 235.45 253.183 235.009L254.713 221.94L253.023 220.964C247.85 217.977 244.807 212.411 245.063 206.445L245.808 189.373C245.824 188.932 246.184 188.596 246.641 188.604C247.081 188.62 247.426 188.996 247.41 189.437L246.665 206.509C246.433 211.875 249.171 216.88 253.824 219.57L255.97 220.811C256.242 220.972 256.402 221.284 256.362 221.596L254.769 235.185C254.721 235.594 254.376 235.89 253.976 235.89L253.984 235.898Z" fill="#18292D"/>
<path d="M220.519 226.721L218.381 226.497C216.563 226.305 214.721 226.393 212.928 226.753L204.127 228.515C202.349 228.867 201.581 230.99 202.726 232.407C203.903 233.856 205.665 234.697 207.53 234.697L218.205 232.895L220.519 226.729V226.721Z" fill="white"/>
<path d="M207.53 235.49C205.416 235.49 203.43 234.545 202.101 232.903C201.388 232.023 201.188 230.853 201.573 229.788C201.957 228.723 202.854 227.947 203.967 227.73L212.768 225.969C214.649 225.592 216.563 225.504 218.461 225.704L220.599 225.929C220.847 225.953 221.064 226.097 221.2 226.305C221.328 226.513 221.352 226.777 221.272 227.01L218.958 233.176C218.862 233.44 218.621 233.64 218.341 233.688L207.667 235.49C207.627 235.49 207.579 235.498 207.53 235.498V235.49ZM216.483 227.194C215.346 227.194 214.209 227.306 213.088 227.53L204.287 229.292C203.727 229.404 203.278 229.788 203.086 230.325C202.894 230.861 202.99 231.446 203.35 231.894C204.367 233.144 205.865 233.872 207.466 233.888L217.62 232.175L219.406 227.402L218.301 227.282C217.7 227.218 217.092 227.186 216.483 227.186V227.194Z" fill="#18292D"/>
<path d="M224.635 227.746L221.016 226.841C219.438 226.449 217.773 226.922 216.635 228.083L207.202 237.748C205.969 239.085 206.602 241.248 208.355 241.72C210.157 242.2 212.079 241.848 213.592 240.751L220.271 232.887L224.643 227.746H224.635Z" fill="white"/>
<path d="M209.957 242.737C209.348 242.737 208.74 242.657 208.139 242.497C207.042 242.2 206.201 241.376 205.881 240.287C205.569 239.197 205.833 238.044 206.61 237.212L216.059 227.53C217.388 226.169 219.358 225.608 221.208 226.073L224.827 226.978C225.1 227.042 225.308 227.25 225.396 227.506C225.484 227.77 225.42 228.059 225.244 228.267L214.193 241.272C214.153 241.32 214.105 241.36 214.057 241.4C212.848 242.281 211.414 242.737 209.957 242.737ZM219.911 227.506C218.91 227.506 217.925 227.906 217.204 228.643L207.771 238.309C207.402 238.709 207.266 239.286 207.418 239.838C207.571 240.391 208.003 240.799 208.555 240.951C210.101 241.368 211.727 241.079 213.04 240.158L223.194 228.211L220.823 227.618C220.519 227.546 220.215 227.506 219.911 227.506Z" fill="#18292D"/>
<path d="M233.5 229.676L227.694 227.61C226.117 227.218 224.451 227.69 223.314 228.851L215.939 237.748C214.705 239.085 215.338 241.247 217.092 241.72C218.894 242.2 220.815 241.848 222.329 240.751L228.623 234.176L233.508 229.676H233.5Z" fill="white"/>
<path d="M218.701 242.737C218.093 242.737 217.484 242.657 216.884 242.497C215.787 242.2 214.946 241.376 214.625 240.286C214.305 239.197 214.577 238.044 215.346 237.211L222.697 228.347C224.067 226.937 226.045 226.377 227.886 226.841L233.764 228.923C234.028 229.019 234.221 229.244 234.277 229.516C234.333 229.788 234.245 230.077 234.036 230.269L229.152 234.769L222.889 241.311C222.889 241.311 222.817 241.376 222.785 241.408C221.576 242.288 220.143 242.745 218.685 242.745L218.701 242.737ZM226.597 228.267C225.612 228.267 224.611 228.667 223.89 229.412L216.555 238.261C216.139 238.709 216.003 239.294 216.163 239.838C216.323 240.383 216.747 240.799 217.3 240.951C218.854 241.368 220.487 241.071 221.8 240.15L228.047 233.624L231.994 229.988L227.438 228.371C227.166 228.307 226.885 228.275 226.605 228.275L226.597 228.267Z" fill="#18292D"/>
<path d="M245.456 233.92L234.108 229.82C232.691 229.468 231.194 229.892 230.177 230.933L223.562 238.909C222.457 240.11 223.018 242.048 224.595 242.472C226.213 242.905 227.934 242.585 229.288 241.6L233.372 236.747L245.456 233.92Z" fill="white"/>
<path d="M226.045 243.465C225.492 243.465 224.939 243.393 224.395 243.249C223.386 242.977 222.601 242.216 222.313 241.207C222.025 240.198 222.273 239.141 222.978 238.372L229.568 230.429C230.825 229.139 232.627 228.627 234.309 229.051C234.333 229.051 234.365 229.067 234.389 229.075L245.736 233.175C246.152 233.328 246.368 233.784 246.216 234.2C246.064 234.617 245.608 234.833 245.191 234.681L233.884 230.597C232.763 230.333 231.57 230.677 230.761 231.502L224.187 239.43C223.826 239.822 223.714 240.294 223.85 240.767C223.987 241.231 224.339 241.584 224.811 241.704C226.165 242.064 227.598 241.816 228.751 241.015L232.763 236.234C233.051 235.898 233.556 235.85 233.892 236.138C234.229 236.427 234.277 236.931 233.988 237.267L229.904 242.12C229.864 242.168 229.816 242.216 229.76 242.256C228.663 243.057 227.358 243.473 226.037 243.473L226.045 243.465Z" fill="#18292D"/>
<path d="M160.837 221.532C160.837 224.415 158.499 226.753 155.616 226.753C152.733 226.753 150.395 224.415 150.395 221.532C150.395 218.649 152.733 216.311 155.616 216.311C158.499 216.311 160.837 218.649 160.837 221.532Z" fill="white"/>
<path d="M155.624 227.554C152.308 227.554 149.602 224.855 149.602 221.532C149.602 218.209 152.3 215.51 155.624 215.51C158.947 215.51 161.646 218.209 161.646 221.532C161.646 224.855 158.947 227.554 155.624 227.554ZM155.624 217.12C153.189 217.12 151.203 219.106 151.203 221.54C151.203 223.975 153.181 225.96 155.624 225.96C158.066 225.96 160.044 223.975 160.044 221.54C160.044 219.106 158.058 217.12 155.624 217.12Z" fill="#18292D"/>
<path d="M260.39 155.924C260.046 155.924 259.742 155.684 259.677 155.34C259.597 154.947 259.854 154.563 260.254 154.483L271.633 152.257C273.867 151.816 275.997 151.039 277.975 149.942C278.328 149.75 278.768 149.87 278.968 150.223C279.161 150.575 279.04 151.015 278.688 151.216C276.582 152.393 274.3 153.225 271.921 153.69L260.542 155.916C260.494 155.924 260.446 155.932 260.398 155.932L260.39 155.924Z" fill="#18292D"/>
<path d="M268.694 102.672C285.102 101.575 300.173 112.513 303.977 128.817C300.838 131.924 296.722 134.191 291.989 135.12C279.681 137.53 267.845 129.987 265.555 118.279C264.466 112.698 265.739 107.188 268.694 102.672Z" fill="#18292D"/>
<path d="M253.479 157.029L261.407 174.975C261.407 174.975 270.032 175.831 280.137 163.636C280.538 163.155 258.901 132.045 258.901 132.045L244.455 123.228L253.479 157.037V157.029Z" fill="white"/>
<path d="M261.824 175.791C261.543 175.791 261.375 175.775 261.327 175.775C261.039 175.743 260.791 175.567 260.67 175.303L252.743 157.357C252.743 157.357 252.711 157.277 252.703 157.237L243.678 123.428C243.59 123.108 243.71 122.78 243.974 122.579C244.238 122.387 244.591 122.363 244.871 122.539L259.317 131.356C259.413 131.412 259.493 131.492 259.557 131.58C259.613 131.66 265.027 139.452 270.328 147.203C281.387 163.379 281.275 163.507 280.754 164.14C271.737 175.023 263.85 175.783 261.824 175.783V175.791ZM254.24 156.765L261.936 174.182C263.761 174.134 270.96 173.269 279.225 163.483C277.687 160.665 266.156 143.864 258.348 132.629L245.752 124.942L254.24 156.765Z" fill="#18292D"/>
<path d="M244.895 120.105C244.895 120.105 235.79 143.224 236.134 148.829C236.487 154.435 236.134 163.892 261.359 155.484L244.895 120.105Z" fill="white"/>
<path d="M245.448 159.616C242.637 159.616 240.443 159.079 238.857 157.998C235.734 155.884 235.526 152.16 235.374 149.446L235.342 148.877C234.981 143.16 243.782 120.762 244.15 119.809C244.31 119.4 244.775 119.192 245.191 119.36C245.6 119.52 245.808 119.985 245.64 120.401C245.552 120.633 236.599 143.416 236.935 148.781L236.967 149.358C237.119 152 237.288 155.003 239.754 156.669C243.141 158.967 250.324 158.31 261.103 154.723C261.527 154.579 261.976 154.811 262.112 155.227C262.248 155.644 262.024 156.1 261.607 156.244C254.857 158.495 249.5 159.616 245.44 159.616H245.448Z" fill="#18292D"/>
<path d="M283.212 135.176C283.293 134.679 283.373 134.207 283.437 133.766C284.486 126.407 280.986 124.309 280.986 124.309C280.986 124.309 274.332 121.506 263.473 115.204C252.615 108.902 240.355 102.592 241.756 115.557C243.157 128.521 265.924 139.028 265.924 139.028C265.924 139.028 264.562 140.509 262.496 143.008C270.344 142.231 277.487 139.412 283.212 135.184V135.176Z" fill="#18292D"/>
<path d="M250.076 138.483C250.613 137.13 250.372 135.76 249.532 135.432C248.691 135.096 247.578 135.921 247.033 137.274C246.489 138.627 246.737 139.997 247.578 140.325C248.418 140.661 249.532 139.836 250.076 138.483Z" fill="#18292D"/>
<path d="M241.756 136.337C242.292 134.983 242.052 133.614 241.211 133.286C240.371 132.949 239.258 133.774 238.713 135.128C238.168 136.481 238.417 137.85 239.257 138.179C240.098 138.515 241.211 137.69 241.756 136.337Z" fill="#18292D"/>
<path d="M247.618 151.424C247.249 151.424 246.857 151.376 246.449 151.255C246.024 151.135 245.768 150.695 245.888 150.27C246.008 149.846 246.449 149.59 246.873 149.71C249.772 150.511 251.069 146.403 251.125 146.227C251.253 145.802 251.702 145.57 252.126 145.698C252.551 145.826 252.783 146.275 252.655 146.699C252.118 148.461 250.428 151.424 247.618 151.424Z" fill="#18292D"/>
<path d="M243.317 144.473C243.269 144.473 243.213 144.473 243.165 144.457C241.948 144.225 240.835 143.568 240.042 142.615C239.81 142.335 239.794 141.926 240.01 141.63C240.611 140.797 242.188 138.467 243.205 136.769C243.237 136.713 244.198 135.264 243.734 134.047C243.422 133.238 242.517 132.637 241.035 132.269C240.603 132.165 240.347 131.724 240.451 131.3C240.555 130.868 240.987 130.603 241.42 130.715C243.446 131.22 244.727 132.157 245.231 133.486C245.992 135.496 244.607 137.546 244.551 137.634C243.758 138.964 242.493 140.861 241.692 142.015C242.196 142.447 242.821 142.759 243.47 142.879C243.902 142.959 244.19 143.384 244.102 143.816C244.03 144.201 243.694 144.465 243.317 144.465V144.473Z" fill="#18292D"/>
<path d="M297.354 153.69C271.433 161.746 277.391 145.634 277.391 145.634C277.391 145.634 271.785 151.24 266.885 150.535C266.885 150.535 258.476 159.64 266.188 165.598C273.891 171.555 292.413 168.584 303.721 165.87C309.51 164.476 314.787 164.188 319.472 164.541C320.233 160.993 320.657 157.317 320.729 153.562C314.211 151.384 306.403 150.887 297.362 153.69H297.354Z" fill="#18292D"/>
<path d="M261.751 141.19C263.409 138.131 267.237 136.993 270.296 138.651C273.355 140.309 274.492 144.136 272.834 147.195C271.177 150.254 267.349 151.392 264.29 149.734L261.751 141.19Z" fill="white"/>
<path d="M267.285 151.295C266.14 151.295 264.987 151.023 263.914 150.439C263.521 150.23 263.377 149.742 263.593 149.349C263.801 148.965 264.29 148.813 264.682 149.029C267.349 150.479 270.696 149.478 272.146 146.811C273.595 144.144 272.594 140.797 269.927 139.348C267.261 137.906 263.914 138.899 262.464 141.566C262.256 141.958 261.767 142.102 261.375 141.886C260.983 141.678 260.839 141.19 261.055 140.797C262.921 137.354 267.245 136.073 270.688 137.938C274.132 139.804 275.413 144.128 273.547 147.572C272.258 149.942 269.815 151.287 267.285 151.287V151.295Z" fill="#18292D"/>
<path d="M151.588 115.589C151.588 118.239 149.442 120.385 146.791 120.385C144.14 120.385 141.994 118.239 141.994 115.589C141.994 112.938 144.14 110.792 146.791 110.792C149.442 110.792 151.588 112.938 151.588 115.589Z" fill="#FFC31F"/>
<path d="M169.581 115.589C169.581 118.239 167.435 120.385 164.785 120.385C162.134 120.385 159.988 118.239 159.988 115.589C159.988 112.938 162.134 110.792 164.785 110.792C167.435 110.792 169.581 112.938 169.581 115.589Z" fill="#FFC31F"/>
<path d="M187.567 115.589C187.567 118.239 185.421 120.385 182.77 120.385C180.12 120.385 177.974 118.239 177.974 115.589C177.974 112.938 180.12 110.792 182.77 110.792C185.421 110.792 187.567 112.938 187.567 115.589Z" fill="#FFC31F"/>
</g>
</g>
<defs>
<clipPath id="clip0_562_8731">
<rect width="470" height="250" fill="white"/>
</clipPath>
<clipPath id="clip1_562_8731">
<rect width="240.988" height="180" fill="white" transform="translate(115 70)"/>
</clipPath>
</defs>
</svg>
