<svg width="700" height="400" viewBox="0 0 700 400" fill="none" xmlns="http://www.w3.org/2000/svg">
<ellipse cx="363.433" cy="219.46" rx="179.598" ry="85.4521" transform="rotate(-158.445 363.433 219.46)" fill="#F2F7F8"/>
<path d="M316.228 210.444L318.042 210.188C318.033 210.105 317.74 208.042 316.906 204.714L315.128 205.154C315.935 208.382 316.219 210.426 316.228 210.444Z" fill="black"/>
<path d="M202.548 220.153C205.755 220.153 208.879 219.402 211.857 217.925L211.041 216.284C207.926 217.834 204.673 218.503 201.256 218.274L200.981 218.256L200.825 220.08L201.127 220.107C201.604 220.135 202.071 220.153 202.538 220.153H202.548ZM196.198 219.246L196.702 217.485C193.522 216.578 190.416 214.918 187.475 212.553L186.33 213.983C189.463 216.504 192.789 218.274 196.198 219.246ZM215.852 215.45C218.518 213.451 221.129 210.774 223.612 207.474L222.146 206.365C219.764 209.518 217.281 212.076 214.752 213.974L215.852 215.441V215.45ZM182.885 210.848L184.195 209.564C181.858 207.181 179.65 204.348 177.625 201.13L176.077 202.111C178.175 205.43 180.466 208.372 182.894 210.848H182.885ZM226.242 203.688C228.056 200.873 229.815 197.728 231.611 194.07L229.971 193.264C228.203 196.857 226.48 199.938 224.703 202.697L226.242 203.688ZM313.937 200.827L315.688 200.286C314.597 196.729 313.296 193.254 311.803 189.972L310.135 190.733C311.592 193.951 312.875 197.343 313.937 200.827ZM233.572 189.936C235.157 186.452 236.55 183.069 237.787 180.089L237.879 179.869L236.183 179.172L236.092 179.392C234.864 182.363 233.471 185.727 231.905 189.175L233.572 189.936ZM308.165 186.699L309.787 185.847C308.018 182.482 306.039 179.347 303.895 176.504L302.429 177.614C304.509 180.373 306.442 183.435 308.156 186.708L308.165 186.699ZM239.766 175.854C241.489 172.736 243.669 169.931 246.253 167.511L245.007 166.172C242.277 168.721 239.977 171.673 238.163 174.964L239.766 175.854ZM299.607 174.139L300.981 172.929C298.471 170.096 295.731 167.566 292.836 165.43L291.746 166.906C294.54 168.968 297.188 171.407 299.607 174.148V174.139ZM249.68 164.724C252.575 162.661 255.764 161.102 259.154 160.075L258.623 158.324C255.049 159.406 251.677 161.056 248.617 163.238L249.68 164.733V164.724ZM288.044 164.43L288.988 162.863C286.963 161.643 284.819 160.571 282.629 159.672C281.392 159.159 280.118 158.719 278.854 158.343L278.332 160.103C279.541 160.461 280.75 160.891 281.932 161.368C284.04 162.23 286.092 163.266 288.044 164.439V164.43ZM274.016 159.113L274.309 157.307C270.598 156.702 266.823 156.692 263.167 157.279L263.451 159.085C266.915 158.535 270.498 158.544 274.007 159.113H274.016Z" fill="black"/>
<path d="M173.731 198.077L175.344 197.215C173.823 194.373 173.044 192.365 173.035 192.347L171.331 193.007C171.367 193.089 172.155 195.125 173.731 198.077Z" fill="black"/>
<path d="M163.808 196.225C132.687 196.225 107.458 170.981 107.458 139.842C107.458 108.702 132.687 83.4587 163.808 83.4587C194.929 83.4587 220.158 108.702 220.158 139.842C220.158 170.981 194.929 196.225 163.808 196.225Z" fill="white"/>
<path d="M163.808 83.917C132.985 83.917 107.916 109.001 107.916 139.842C107.916 170.683 132.985 195.766 163.808 195.766C194.631 195.766 219.7 170.683 219.7 139.842C219.7 109.001 194.631 83.917 163.808 83.917ZM163.808 83.0002C195.181 83.0002 220.616 108.451 220.616 139.842C220.616 171.233 195.181 196.683 163.808 196.683C132.435 196.683 107 171.233 107 139.842C107 108.451 132.435 83.0002 163.808 83.0002Z" fill="black"/>
<path d="M130.617 132.721L142.763 111.617H184.629L196.768 132.721" fill="#18292D"/>
<path d="M130.617 132.721L142.763 111.617H184.629L196.768 132.721" stroke="#18292D" stroke-width="1.24025" stroke-linecap="round" stroke-linejoin="round"/>
<path d="M142.762 132.721L163.692 115.254L184.628 132.721" stroke="#18292D" stroke-width="1.24025" stroke-linecap="round" stroke-linejoin="round"/>
<path d="M178.645 132.721L163.691 120.569L148.744 132.721H135.146V159.846H148.744H178.645H192.236V132.721H178.645Z" fill="white" stroke="#18292D" stroke-width="1.24025" stroke-linecap="round" stroke-linejoin="round"/>
<path d="M167.556 137.467C169.689 135.334 169.689 131.875 167.556 129.742C165.423 127.609 161.964 127.609 159.831 129.742C157.698 131.875 157.698 135.334 159.831 137.467C161.964 139.6 165.423 139.6 167.556 137.467Z" fill="#FFC31F" stroke="#FFC31F" stroke-width="1.24025" stroke-linecap="round" stroke-linejoin="round"/>
<path d="M163.691 145.567C160.555 145.567 158.017 148.105 158.017 151.241V159.852H169.365V151.241C169.365 148.105 166.827 145.567 163.691 145.567Z" stroke="#18292D" stroke-width="1.24025" stroke-linecap="round" stroke-linejoin="round"/>
<path d="M144.534 149.551H138.841V155.862H144.534V149.551Z" stroke="#18292D" stroke-width="1.24025" stroke-linecap="round" stroke-linejoin="round"/>
<path d="M153.821 149.551H148.127V155.862H153.821V149.551Z" stroke="#18292D" stroke-width="1.24025" stroke-linecap="round" stroke-linejoin="round"/>
<path d="M144.534 137.707H138.841V144.018H144.534V137.707Z" stroke="#18292D" stroke-width="1.24025" stroke-linecap="round" stroke-linejoin="round"/>
<path d="M153.821 137.707H148.127V144.018H153.821V137.707Z" stroke="#18292D" stroke-width="1.24025" stroke-linecap="round" stroke-linejoin="round"/>
<path d="M178.908 149.551H173.215V155.862H178.908V149.551Z" stroke="#18292D" stroke-width="1.24025" stroke-linecap="round" stroke-linejoin="round"/>
<path d="M194.435 159.845H132.949V163.611H194.435V159.845Z" fill="#18292D" stroke="#18292D" stroke-width="1.24025" stroke-linecap="round" stroke-linejoin="round"/>
<path d="M196.767 163.618H130.616V167.383H196.767V163.618Z" fill="white" stroke="#18292D" stroke-width="1.24025" stroke-linecap="round" stroke-linejoin="round"/>
<path d="M188.195 149.551H182.501V155.862H188.195V149.551Z" stroke="#18292D" stroke-width="1.24025" stroke-linecap="round" stroke-linejoin="round"/>
<path d="M178.908 137.707H173.215V144.018H178.908V137.707Z" stroke="#18292D" stroke-width="1.24025" stroke-linecap="round" stroke-linejoin="round"/>
<path d="M188.195 137.707H182.501V144.018H188.195V137.707Z" stroke="#18292D" stroke-width="1.24025" stroke-linecap="round" stroke-linejoin="round"/>
<path d="M163.691 130.812V134.019" stroke="white" stroke-width="1.24025" stroke-linecap="round" stroke-linejoin="round"/>
<path d="M163.691 134.019L165.78 133.01" stroke="white" stroke-width="1.24025" stroke-linecap="round" stroke-linejoin="round"/>
<path d="M196.767 132.721H192.236" stroke="#18292D" stroke-width="1.24025" stroke-linecap="round" stroke-linejoin="round"/>
<path d="M135.147 132.721H130.616" stroke="#18292D" stroke-width="1.24025" stroke-linecap="round" stroke-linejoin="round"/>
<path d="M337.067 210.747L346.406 216.296C352.168 219.72 359.616 217.825 363.04 212.062L390.293 166.2C393.717 160.437 391.822 152.99 386.059 149.566L376.72 144.016C370.958 140.592 363.511 142.487 360.086 148.25L332.833 194.113C329.409 199.875 331.305 207.323 337.067 210.747Z" fill="white"/>
<path d="M352.587 219.253C350.257 219.253 347.901 218.641 345.761 217.368L336.426 211.828C330.071 208.045 327.969 199.805 331.752 193.438L359.006 147.577C362.788 141.222 371.028 139.121 377.396 142.903L386.731 148.443C393.086 152.225 395.188 160.465 391.405 166.833L364.151 212.694C361.642 216.909 357.172 219.253 352.6 219.253H352.587ZM337.725 209.637L347.06 215.177C352.205 218.234 358.891 216.54 361.961 211.382L389.215 165.521C392.271 160.376 390.577 153.69 385.42 150.634L376.084 145.094C370.939 142.037 364.253 143.731 361.184 148.889L333.93 194.749C330.873 199.895 332.567 206.581 337.725 209.637Z" fill="#18292D"/>
<path d="M431.264 125.652C432.111 111.011 413.654 98.0351 390.039 96.6693C366.425 95.3036 346.595 106.065 345.748 120.706C344.901 135.346 363.358 148.322 386.973 149.688C410.588 151.054 430.418 140.292 431.264 125.652Z" fill="#18292D"/>
<path d="M324.022 144.711C326.314 140.611 332.555 139.745 337.967 142.763C338.642 143.132 339.266 143.553 339.839 143.998C341.852 119.864 361.095 101.513 383.382 102.799C406.052 104.111 423.27 125.252 421.831 150.022C420.392 174.793 400.856 193.807 378.186 192.495C359.656 191.425 344.781 177.098 340.744 158.377C337.776 159.918 333.523 159.739 329.689 157.6C324.277 154.582 321.742 148.812 324.022 144.711Z" fill="white"/>
<path d="M380.39 193.832C379.639 193.832 378.874 193.807 378.11 193.769C360.064 192.724 344.527 178.983 339.84 160.134C336.592 161.191 332.606 160.695 329.066 158.721C323.042 155.358 320.291 148.8 322.914 144.1C324.213 141.757 326.608 140.241 329.651 139.821C332.555 139.413 335.739 140.063 338.592 141.668C338.656 141.706 338.732 141.744 338.796 141.782C341.801 117.776 361.07 100.264 383.459 101.551C406.791 102.901 424.582 124.691 423.105 150.111C421.679 174.704 402.754 193.845 380.39 193.845V193.832ZM340.744 157.103C340.935 157.103 341.113 157.141 341.292 157.23C341.648 157.396 341.916 157.727 341.992 158.109C346.042 176.894 360.624 190.203 378.263 191.222C400.206 192.508 419.17 173.978 420.558 149.958C421.946 125.939 405.237 105.359 383.306 104.085C361.63 102.824 343.087 120.412 341.113 144.113C341.075 144.584 340.782 144.992 340.362 145.17C339.929 145.361 339.432 145.297 339.063 145.004C338.528 144.584 337.942 144.202 337.357 143.871C334.975 142.546 332.364 141.999 330.008 142.33C327.779 142.636 326.047 143.705 325.143 145.335C323.207 148.812 325.525 153.817 330.314 156.492C333.625 158.338 337.497 158.631 340.171 157.256C340.349 157.167 340.553 157.116 340.757 157.116L340.744 157.103Z" fill="#18292D"/>
<path d="M384.158 89.936C399.683 87.1087 414.163 89.8341 422.721 96.2146C425.077 97.9721 423.014 101.64 420.251 100.634C411.973 97.6155 401.338 96.775 390.169 98.8127C367.169 103.003 350.6 117.776 353.16 131.823C353.262 132.384 353.402 132.931 353.555 133.466C350.154 130.562 347.887 127.009 347.149 122.947C344.589 108.899 361.158 94.126 384.158 89.936Z" fill="#18292D"/>
<path d="M314.164 119.635C319.844 102.595 336.744 91.91 354.574 94.0877L386.209 97.9594L382.337 102.786C385.738 97.4372 398.282 123.723 364.864 124.322C357.847 124.449 355.223 131.823 353.16 138.993C351.785 143.782 350.639 148.507 349.671 152.799C349.174 155.002 339.533 154.467 339.839 144.011C339.266 143.565 338.629 143.145 337.967 142.776C332.554 139.757 326.314 140.623 324.021 144.724C321.729 148.825 324.276 154.594 329.689 157.613C333.535 159.752 337.776 159.931 340.743 158.39C342.361 165.878 345.71 172.666 350.333 178.181L341.686 177.684C336.948 177.404 332.771 174.475 330.886 170.119L327.307 161.803L326.798 161.408C314.164 151.576 309.095 134.842 314.151 119.661L314.164 119.635Z" fill="#18292D"/>
<path d="M409.197 150.978C408.955 153.079 409.974 154.926 411.489 155.104C413.005 155.282 414.418 153.728 414.673 151.627C414.915 149.526 413.896 147.679 412.381 147.501C410.865 147.322 409.451 148.876 409.197 150.978Z" fill="#18292D"/>
<path d="M381.434 148.379C381.192 150.481 382.211 152.327 383.726 152.506C385.242 152.684 386.656 151.13 386.91 149.029C387.165 146.928 386.133 145.081 384.618 144.903C383.102 144.724 381.689 146.278 381.434 148.379Z" fill="#18292D"/>
<path d="M385.267 174.767C385.177 174.767 385.088 174.767 384.999 174.742C381.853 174.118 379.052 172.08 377.498 169.278C377.128 168.603 377.37 167.763 378.045 167.394C378.708 167.024 379.561 167.266 379.93 167.941C381.089 170.043 383.191 171.571 385.534 172.029C386.285 172.182 386.769 172.908 386.629 173.659C386.502 174.322 385.916 174.78 385.267 174.78V174.767Z" fill="#18292D"/>
<path d="M397.786 162.338C397.123 162.338 396.537 161.854 396.423 161.179C396.295 160.427 396.805 159.701 397.556 159.574C399.683 159.218 401.25 157.32 401.199 155.168L401.046 148.354C401.033 147.59 401.632 146.953 402.396 146.94C403.147 146.915 403.797 147.526 403.809 148.29L403.962 155.104C404.051 158.632 401.492 161.726 398.015 162.312C397.938 162.325 397.862 162.338 397.786 162.338Z" fill="#18292D"/>
<path d="M379.879 141.451C379.574 141.451 379.268 141.349 379.013 141.146C378.415 140.662 378.313 139.796 378.797 139.197C380.732 136.777 384.311 135.899 387.138 137.185C387.839 137.503 388.145 138.318 387.826 139.019C387.508 139.719 386.693 140.025 385.992 139.707C384.311 138.955 382.108 139.477 380.962 140.916C380.694 141.26 380.287 141.439 379.879 141.439V141.451Z" fill="#18292D"/>
<path d="M416.608 144.966C416.302 144.966 415.984 144.864 415.729 144.648C414.328 143.489 412.647 142.649 410.889 142.203C410.151 142.012 409.692 141.26 409.883 140.522C410.074 139.783 410.826 139.325 411.564 139.516C413.717 140.063 415.767 141.095 417.486 142.508C418.085 142.992 418.161 143.871 417.677 144.457C417.397 144.788 417.002 144.966 416.608 144.966Z" fill="#18292D"/>
<path d="M340.871 206.326L374.162 200.353C383.905 198.608 393.698 203.193 398.589 211.802L464.113 327.034H359.147L340.871 206.339V206.326Z" fill="#96D8E8"/>
<path d="M357.872 327.021H462.838L418.047 248.251H345.951L357.872 327.021Z" fill="white"/>
<path d="M462.838 328.295H357.872C357.248 328.295 356.7 327.836 356.611 327.212L344.691 248.443C344.64 248.073 344.741 247.704 344.983 247.424C345.225 247.144 345.582 246.978 345.951 246.978H418.06C418.519 246.978 418.939 247.22 419.168 247.628L463.959 326.397C464.188 326.792 464.175 327.276 463.959 327.67C463.73 328.065 463.309 328.307 462.864 328.307L462.838 328.295ZM358.967 325.747H460.648L417.309 249.525H347.429L358.967 325.747Z" fill="#18292D"/>
<path d="M266.596 241.476L301.109 196.087C309.54 185.007 325.421 183.007 336.336 191.655L352.459 204.441L359.489 196.978H359.807C373.154 196.978 384.642 206.403 387.265 219.482L393.264 333.962H253.236L266.583 241.464L266.596 241.476Z" fill="#96D8E8"/>
<path d="M400.932 286.382H404.663C408.981 286.382 412.852 283.682 414.329 279.619C415.412 276.639 413.209 273.493 410.038 273.493H378.67L400.932 286.382Z" fill="white"/>
<path d="M404.675 287.655H400.943C400.243 287.655 399.67 287.082 399.67 286.382C399.67 285.681 400.243 285.108 400.943 285.108H404.675C408.445 285.108 411.845 282.727 413.144 279.173C413.513 278.155 413.373 277.059 412.749 276.168C412.125 275.276 411.145 274.767 410.062 274.767H378.694C377.994 274.767 377.421 274.194 377.421 273.493C377.421 272.793 377.994 272.22 378.694 272.22H410.062C411.96 272.22 413.755 273.149 414.838 274.703C415.933 276.257 416.188 278.256 415.538 280.039C413.883 284.586 409.514 287.642 404.675 287.642V287.655Z" fill="#18292D"/>
<path d="M266.597 241.476L232.669 286.178C215.502 308.796 235.611 340.597 263.413 334.789L369.704 312.553L382.529 321.532C386.68 324.435 392.068 324.919 396.665 322.78L400.18 321.15C404.459 324.002 410.025 324.104 414.406 321.404L417.36 319.583L389.737 293.73C393.176 295.628 409.745 302.403 419.818 303.18C422.62 303.396 425.333 302.161 427.078 299.97L427.995 298.812L396.359 280.625C386.349 275.378 383.165 272.551 375.499 273.595L298.64 284.051L318.953 261.789C318.953 261.789 306.064 241.476 266.622 241.476H266.597Z" fill="white"/>
<path d="M256.752 336.764C245.965 336.764 236.133 331.389 230.096 321.838C222.786 310.274 223.372 296.315 231.65 285.427L265.578 240.712C265.819 240.394 266.189 240.203 266.596 240.203C306.28 240.203 319.462 260.248 320.009 261.102C320.315 261.586 320.264 262.222 319.869 262.643L301.925 282.306L375.307 272.334C382.07 271.417 385.712 273.404 392.334 277.021C393.71 277.773 395.225 278.6 396.945 279.505L428.618 297.716C428.936 297.907 429.166 298.213 429.229 298.582C429.293 298.952 429.204 299.321 428.975 299.614L428.058 300.773C426.02 303.333 422.887 304.721 419.703 304.466C412.635 303.906 402.765 300.582 396.053 297.92L418.213 318.666C418.506 318.934 418.646 319.329 418.608 319.723C418.57 320.118 418.34 320.475 418.009 320.679L415.055 322.5C410.47 325.327 404.662 325.34 400.065 322.602L397.187 323.939C392.194 326.257 386.298 325.735 381.789 322.576L369.423 313.916L263.68 336.038C261.349 336.522 259.044 336.764 256.777 336.764H256.752ZM267.22 242.75L233.675 286.955C226.059 296.99 225.511 309.828 232.249 320.475C238.986 331.122 250.83 336.127 263.145 333.554L369.436 311.318C369.78 311.242 370.136 311.318 370.429 311.522L383.254 320.5C387.024 323.137 391.952 323.57 396.117 321.634L399.619 320.004C400.014 319.813 400.485 319.851 400.867 320.093C404.726 322.665 409.769 322.754 413.717 320.322L415.258 319.38L388.858 294.673C388.386 294.24 388.323 293.514 388.692 292.991C389.074 292.469 389.775 292.317 390.335 292.622C394.003 294.647 410.343 301.18 419.894 301.919C422.25 302.11 424.543 301.079 426.058 299.181L395.709 281.733C394.016 280.855 392.487 280.014 391.112 279.263C384.579 275.684 381.586 274.054 375.651 274.869L298.792 285.325C298.257 285.401 297.748 285.134 297.493 284.65C297.238 284.178 297.315 283.593 297.684 283.198L317.297 261.7C316.074 260.121 312.775 256.351 306.739 252.633C299.531 248.175 286.846 242.877 267.233 242.762L267.22 242.75Z" fill="#18292D"/>
<path d="M400.153 322.411C399.848 322.411 399.555 322.309 399.313 322.092L379.394 304.517C378.872 304.046 378.821 303.244 379.28 302.722C379.751 302.199 380.553 302.149 381.076 302.607L400.994 320.182C401.529 320.653 401.567 321.456 401.109 321.978C400.854 322.258 400.51 322.411 400.153 322.411Z" fill="#18292D"/>
<path d="M390.284 295.564C390.004 295.564 389.724 295.475 389.482 295.284L382.847 289.922C382.299 289.476 382.21 288.674 382.655 288.126C383.101 287.579 383.891 287.49 384.451 287.935L391.086 293.297C391.634 293.743 391.723 294.545 391.277 295.093C391.023 295.398 390.653 295.564 390.284 295.564Z" fill="#18292D"/>
<path d="M318.926 263.05C318.608 263.05 318.289 262.936 318.047 262.694C317.538 262.21 317.525 261.408 318.009 260.898L338.819 239.12C339.303 238.611 340.105 238.598 340.615 239.082C341.124 239.566 341.137 240.368 340.653 240.878L319.843 262.656C319.588 262.923 319.257 263.05 318.926 263.05Z" fill="white"/>
<path d="M483.585 333.962H333.102V331.198C333.102 326.168 337.19 322.092 342.208 322.092H483.585V333.962Z" fill="#18292D"/>
<path d="M425.192 333.975H562.023L592.092 243.094C594.995 234.319 588.462 225.264 579.216 225.264H470.964C465.118 225.264 459.922 229.021 458.088 234.574L425.205 333.975H425.192Z" fill="#18292D"/>
<path d="M526.688 285.416C528.725 280.497 526.389 274.857 521.47 272.819C516.551 270.782 510.912 273.118 508.874 278.037C506.836 282.956 509.172 288.596 514.092 290.633C519.011 292.671 524.65 290.335 526.688 285.416Z" fill="white"/>
<path d="M517.779 292.647C511.767 292.647 506.864 287.757 506.864 281.733C506.864 275.709 511.755 270.818 517.779 270.818C523.803 270.818 528.693 275.709 528.693 281.733C528.693 287.757 523.803 292.647 517.779 292.647ZM517.779 273.378C513.168 273.378 509.411 277.135 509.411 281.745C509.411 286.356 513.168 290.113 517.779 290.113C522.389 290.113 526.146 286.356 526.146 281.745C526.146 277.135 522.389 273.378 517.779 273.378Z" fill="#18292D"/>
<path d="M268.15 289.999C267.526 289.999 266.991 289.553 266.889 288.916C266.787 288.216 267.258 287.566 267.959 287.464L298.422 282.778C299.123 282.663 299.772 283.147 299.874 283.847C299.976 284.548 299.505 285.197 298.804 285.299L268.341 289.986C268.277 289.986 268.213 289.999 268.15 289.999Z" fill="#18292D"/>
<path d="M338.616 192.648L383.229 200.837L382.439 204.161C378.835 219.227 361.731 223.914 352.269 212.427L338.629 192.648H338.616Z" fill="white"/>
<path d="M383.508 201.551C383.394 201.551 383.279 201.538 383.164 201.5L371.868 198.392C371.193 198.201 370.798 197.501 370.976 196.826C371.167 196.151 371.855 195.743 372.543 195.934L383.839 199.042C384.514 199.233 384.909 199.933 384.731 200.608C384.578 201.168 384.069 201.551 383.508 201.551Z" fill="#18292D"/>
<path d="M367.131 207.192C366.927 207.192 366.71 207.142 366.519 207.04C365.908 206.696 365.679 205.919 366.023 205.308L371.957 194.584C372.301 193.973 373.065 193.744 373.689 194.088C374.301 194.431 374.53 195.208 374.186 195.82L368.251 206.543C368.022 206.963 367.589 207.205 367.131 207.205V207.192Z" fill="#18292D"/>
<path d="M573.382 79.6711H517.613C516.913 79.6711 516.34 79.098 516.34 78.3976C516.34 77.6971 516.913 77.124 517.613 77.124H573.382C574.083 77.124 574.656 77.6971 574.656 78.3976C574.656 79.098 574.083 79.6711 573.382 79.6711Z" fill="#18292D"/>
<path d="M569.014 90.2671H517.613C516.913 90.2671 516.34 89.694 516.34 88.9935C516.34 88.2931 516.913 87.72 517.613 87.72H569.014C569.715 87.72 570.288 88.2931 570.288 88.9935C570.288 89.694 569.715 90.2671 569.014 90.2671Z" fill="#18292D"/>
<path d="M509.387 64.2739H474.084V99.5769H509.387V64.2739Z" fill="white"/>
<path d="M509.387 100.85H474.084C473.384 100.85 472.811 100.277 472.811 99.5767V64.2738C472.811 63.5733 473.384 63.0002 474.084 63.0002H509.387C510.088 63.0002 510.661 63.5733 510.661 64.2738V99.5767C510.661 100.277 510.088 100.85 509.387 100.85ZM475.358 98.3032H508.113V65.5474H475.358V98.3032Z" fill="#18292D"/>
<path d="M487.953 89.2483C487.622 89.2483 487.304 89.1209 487.049 88.879L481.28 83.1098C480.783 82.6131 480.783 81.8107 481.28 81.314C481.776 80.8174 482.579 80.8174 483.075 81.314L487.953 86.1918L500.905 73.2397C501.402 72.743 502.204 72.743 502.701 73.2397C503.198 73.7364 503.198 74.5387 502.701 75.0354L488.845 88.8917C488.59 89.1464 488.272 89.261 487.94 89.261L487.953 89.2483Z" fill="#18292D"/>
<path d="M573.382 131.339H517.613C516.913 131.339 516.34 130.766 516.34 130.066C516.34 129.365 516.913 128.792 517.613 128.792H573.382C574.083 128.792 574.656 129.365 574.656 130.066C574.656 130.766 574.083 131.339 573.382 131.339Z" fill="#18292D"/>
<path d="M569.014 141.935H517.613C516.913 141.935 516.34 141.362 516.34 140.662C516.34 139.961 516.913 139.388 517.613 139.388H569.014C569.715 139.388 570.288 139.961 570.288 140.662C570.288 141.362 569.715 141.935 569.014 141.935Z" fill="#18292D"/>
<path d="M509.387 115.942H474.084V151.245H509.387V115.942Z" fill="white"/>
<path d="M509.387 152.519H474.084C473.384 152.519 472.811 151.945 472.811 151.245V115.942C472.811 115.242 473.384 114.668 474.084 114.668H509.387C510.088 114.668 510.661 115.242 510.661 115.942V151.245C510.661 151.945 510.088 152.519 509.387 152.519ZM475.358 149.971H508.113V117.216H475.358V149.971Z" fill="#18292D"/>
<path d="M487.953 140.917C487.609 140.917 487.291 140.776 487.049 140.547L481.28 134.778C480.783 134.281 480.783 133.479 481.28 132.982C481.776 132.486 482.579 132.486 483.075 132.982L487.953 137.86L500.905 124.908C501.402 124.411 502.204 124.411 502.701 124.908C503.198 125.405 503.198 126.207 502.701 126.704L488.845 140.56C488.603 140.802 488.284 140.929 487.94 140.929L487.953 140.917Z" fill="#18292D"/>
<path d="M573.382 183.007H517.613C516.913 183.007 516.34 182.434 516.34 181.734C516.34 181.033 516.913 180.46 517.613 180.46H573.382C574.083 180.46 574.656 181.033 574.656 181.734C574.656 182.434 574.083 183.007 573.382 183.007Z" fill="#18292D"/>
<path d="M569.014 193.603H517.613C516.913 193.603 516.34 193.03 516.34 192.329C516.34 191.629 516.913 191.056 517.613 191.056H569.014C569.715 191.056 570.288 191.629 570.288 192.329C570.288 193.03 569.715 193.603 569.014 193.603Z" fill="#18292D"/>
<path d="M509.387 167.61H474.084V202.913H509.387V167.61Z" fill="white"/>
<path d="M509.387 204.186H474.084C473.384 204.186 472.811 203.613 472.811 202.913V167.61C472.811 166.91 473.384 166.336 474.084 166.336H509.387C510.088 166.336 510.661 166.91 510.661 167.61V202.913C510.661 203.613 510.088 204.186 509.387 204.186ZM475.358 201.639H508.113V168.884H475.358V201.639Z" fill="#18292D"/>
<path d="M487.953 192.584C487.609 192.584 487.291 192.444 487.049 192.215L481.28 186.446C480.783 185.949 480.783 185.147 481.28 184.65C481.776 184.154 482.579 184.154 483.075 184.65L487.953 189.528L500.905 176.576C501.402 176.079 502.204 176.079 502.701 176.576C503.198 177.073 503.198 177.875 502.701 178.372L488.845 192.228C488.603 192.47 488.284 192.597 487.94 192.597L487.953 192.584Z" fill="#18292D"/>
</svg>
