<svg width="760" height="400" viewBox="0 0 760 400" fill="none" xmlns="http://www.w3.org/2000/svg">
<rect width="760" height="400" fill="white"/>
<rect x="37.5" y="110.5" width="683" height="271" rx="18.5" fill="white" stroke="#18292D" stroke-width="3"/>
<path d="M145 380L159.134 308.019C163.294 294.959 175.468 286.13 189.178 286.225L255.826 286.733C269.678 286.84 281.804 296.047 285.634 309.355L299.5 380" fill="#96D8E8"/>
<path d="M188.825 275.315C199.368 274.948 207.617 266.105 207.25 255.563C206.884 245.021 198.041 236.772 187.499 237.138C176.957 237.505 168.708 246.348 169.074 256.89C169.44 267.432 178.283 275.681 188.825 275.315Z" fill="#18292D"/>
<path d="M258.573 262.227C276.287 244.512 276.287 215.79 258.573 198.076C240.858 180.361 212.136 180.361 194.421 198.076C176.706 215.79 176.706 244.512 194.421 262.227C212.136 279.942 240.858 279.942 258.573 262.227Z" fill="#18292D"/>
<path d="M232.067 259.367C234.068 246.961 225.633 235.283 213.228 233.283C200.822 231.283 189.144 239.718 187.144 252.123C185.144 264.528 193.579 276.206 205.984 278.207C218.389 280.207 230.067 271.772 232.067 259.367Z" fill="#18292D"/>
<path d="M270.034 259.378C272.035 246.973 263.6 235.295 251.195 233.294C238.789 231.294 227.111 239.729 225.111 252.134C223.111 264.539 231.546 276.217 243.951 278.218C256.356 280.218 268.034 271.783 270.034 259.378Z" fill="#18292D"/>
<path d="M201.726 245.226C208.033 236.771 206.292 224.804 197.837 218.497C189.381 212.19 177.414 213.931 171.107 222.387C164.8 230.842 166.542 242.809 174.997 249.116C183.452 255.423 195.419 253.682 201.726 245.226Z" fill="#18292D"/>
<path d="M281.972 257.987C282.934 247.482 275.198 238.187 264.693 237.225C254.189 236.264 244.894 244 243.932 254.505C242.971 265.009 250.707 274.304 261.211 275.266C271.716 276.227 281.011 268.491 281.972 257.987Z" fill="#18292D"/>
<path d="M280.454 244.544C286.391 235.825 284.135 223.944 275.416 218.007C266.697 212.07 254.816 214.326 248.879 223.045C242.942 231.765 245.198 243.646 253.917 249.582C262.637 255.519 274.518 253.263 280.454 244.544Z" fill="#18292D"/>
<path d="M247.434 285.811C247.517 285.043 247.576 284.263 247.576 283.483V224.446H206.15V283.483C206.15 284.275 206.209 285.043 206.292 285.811H190.513C196.778 298.848 210.109 307.854 225.545 307.854C240.981 307.854 254.313 298.848 260.577 285.811H247.446H247.434Z" fill="white" stroke="#18292D" stroke-width="2.60051" stroke-linecap="round" stroke-linejoin="round"/>
<path d="M268.082 230.557C266.498 230.557 265.009 230.982 263.721 231.715C261.629 213.537 246.193 199.413 227.448 199.413C208.703 199.413 193.917 212.946 191.317 230.569C191.211 230.569 191.104 230.557 190.998 230.557C186.117 230.557 182.157 234.516 182.157 239.397C182.157 244.279 186.117 248.238 190.998 248.238C191.672 248.238 192.333 248.155 192.972 248.014C197.959 262.256 211.504 272.467 227.448 272.467C243.392 272.467 258.048 261.393 262.492 246.241C264.016 247.494 265.967 248.238 268.094 248.238C272.975 248.238 276.935 244.279 276.935 239.397C276.935 234.516 272.975 230.557 268.094 230.557H268.082Z" fill="white" stroke="#18292D" stroke-width="2.60051" stroke-linecap="round" stroke-linejoin="round"/>
<path d="M226.491 184.781C209.719 184.781 195.075 193.894 187.228 207.439C192.192 211.41 198.468 213.785 205.323 213.785C221.101 213.785 233.937 201.163 234.279 185.467C231.75 185.03 229.15 184.793 226.491 184.793V184.781Z" fill="#18292D"/>
<path d="M219.966 236.514C219.966 236.514 229.174 238.818 232.046 238.239" stroke="#18292D" stroke-width="2.60051" stroke-linecap="round" stroke-linejoin="round"/>
<path d="M213.903 233.37C221.064 233.37 226.869 227.565 226.869 220.404C226.869 213.243 221.064 207.438 213.903 207.438C206.743 207.438 200.938 213.243 200.938 220.404C200.938 227.565 206.743 233.37 213.903 233.37Z" stroke="#FFC31F" stroke-width="2.60051" stroke-linecap="round" stroke-linejoin="round"/>
<path d="M248.994 233.37C256.155 233.37 261.96 227.565 261.96 220.404C261.96 213.243 256.155 207.438 248.994 207.438C241.834 207.438 236.029 213.243 236.029 220.404C236.029 227.565 241.834 233.37 248.994 233.37Z" stroke="#FFC31F" stroke-width="2.60051" stroke-linecap="round" stroke-linejoin="round"/>
<path d="M200.973 221.562L192.345 230.19" stroke="#FFC31F" stroke-width="2.60051" stroke-linecap="round" stroke-linejoin="round"/>
<path d="M227.448 220.404H235.497" stroke="#FFC31F" stroke-width="2.60051" stroke-linecap="round" stroke-linejoin="round"/>
<path d="M221.078 218.312C221.078 220.38 219.659 222.047 217.91 222.047C216.161 222.047 214.742 220.369 214.742 218.312C214.742 216.256 216.161 214.577 217.91 214.577C219.659 214.577 221.078 216.256 221.078 218.312Z" fill="#18292D"/>
<path d="M254.017 217.875C254.017 219.943 252.599 221.61 250.85 221.61C249.101 221.61 247.682 219.931 247.682 217.875C247.682 215.818 249.101 214.14 250.85 214.14C252.599 214.14 254.017 215.818 254.017 217.875Z" fill="#18292D"/>
<path d="M298.706 250.815L293.363 233.677C293.068 232.732 292.323 232.011 291.378 231.739C290.432 231.467 289.416 231.691 288.659 232.33C286.638 234.055 285.61 236.679 285.917 239.315L286.721 246.359L284.806 248.356L285.693 239.622C285.693 239.504 285.693 239.398 285.669 239.279L281.863 225.191C281.639 224.364 281.06 223.69 280.268 223.359C279.476 223.016 278.589 223.064 277.845 223.465C276.119 224.399 274.843 226.018 274.334 227.909L274.216 228.37L271.096 221.858C270.907 221.456 270.458 221.243 270.032 221.35C268.555 221.704 266.085 223.205 265.316 226.456C265.08 226.337 264.82 226.243 264.536 226.219C263.756 226.148 263.024 226.491 262.563 227.129C260.849 229.529 260.305 232.542 261.062 235.379L262.858 242.104L259.348 255.424L243.841 263.402C237.341 266.747 232.589 272.716 230.805 279.807L213.5 356.5C213.429 356.784 207.5 384 207.5 384L248 386L252.612 352.756L263.236 281.545L298.422 251.831C298.706 251.583 298.824 251.193 298.717 250.838L298.706 250.815Z" fill="white"/>
<path d="M248 386L262.338 281.036L297.795 251.087L292.453 233.949C292.027 232.578 290.337 232.093 289.25 233.027C287.465 234.552 286.567 236.868 286.827 239.197L287.69 246.678L283.459 251.087" stroke="#18292D" stroke-width="2.60051" stroke-linecap="round" stroke-linejoin="round"/>
<path d="M282.927 257.516L284.759 239.516L280.953 225.427C280.646 224.269 279.334 223.714 278.282 224.281C276.781 225.097 275.682 226.491 275.233 228.134L274.642 230.332" stroke="#18292D" stroke-width="2.60051" stroke-linecap="round" stroke-linejoin="round"/>
<path d="M276.497 258.438L279.074 240.615L270.257 222.236C270.257 222.236 265.659 223.335 266.026 229.221" stroke="#18292D" stroke-width="2.60051" stroke-linecap="round" stroke-linejoin="round"/>
<path d="M207.5 383.5L231.715 280.008C233.44 273.189 238.014 267.433 244.267 264.218L260.151 256.051L263.827 242.092L261.972 235.119C261.286 232.554 261.782 229.812 263.331 227.649C263.886 226.881 265.068 226.988 265.47 227.85L272.656 243.192L270.08 258.994" stroke="#18292D" stroke-width="2.60051" stroke-linecap="round" stroke-linejoin="round"/>
<path d="M161.164 374.267C161.164 374.267 196.581 356.997 206.825 357.471C217.07 357.945 223.823 357.945 230.92 362.04C230.92 362.04 242.099 368.707 245.059 373.161C248.018 377.615 250.461 381.81 249.944 384.311C249.426 386.811 248.679 388.377 245.892 387.989C243.104 387.615 243.679 389.9 242.86 390.704C242.041 391.509 240.59 392.73 238.263 391.638C235.375 390.288 231.107 386.638 229.283 384.354C227.458 382.084 224.441 381.02 222.271 378.693C220.101 376.379 218.277 375.388 218.104 376.652C217.932 377.917 218.751 387.601 218.377 391.595C218.018 395.589 218.205 394.713 215.82 395.532C213.952 396.164 211.825 392.285 210.834 389.469C209.685 386.178 209.009 378.535 208.032 377.845C207.055 377.155 181.61 383.334 161.164 374.253V374.267Z" fill="white"/>
<path d="M160 374.856C164.555 373.463 203.75 349.181 226.481 359.583C246.337 368.664 248.032 377.917 249.311 380.316C250.719 382.96 251.323 389.138 244.11 387.098" stroke="#18292D" stroke-width="2.60051" stroke-linecap="round" stroke-linejoin="round"/>
<path d="M224.21 367.744C224.21 367.744 243.047 383.132 243.722 388.032C244.397 392.931 237.098 391.494 235.647 389.785C234.182 388.075 217.73 372.83 214.095 371.451" stroke="#18292D" stroke-width="2.60051" stroke-linecap="round" stroke-linejoin="round"/>
<path d="M218.564 375.259C218.564 375.259 218.693 389.354 218.262 391.868C217.831 394.382 215.676 395.79 214.541 395.015C213.406 394.239 207.687 377.342 207.687 377.342C207.687 377.342 198.291 379.627 183.951 379.009" stroke="#18292D" stroke-width="2.60051" stroke-linecap="round" stroke-linejoin="round"/>
<g clip-path="url(#clip0_542_10735)">
<path d="M427.8 251.09L411.18 201.87L421.82 196.55L432.37 219.33C436.18 227.57 435.77 237.14 431.27 245.02L427.81 251.08L427.8 251.09Z" fill="white"/>
<path d="M427.8 252.09C427.8 252.09 427.74 252.09 427.7 252.09C427.31 252.05 426.98 251.79 426.85 251.42L410.23 202.19C410.07 201.72 410.28 201.2 410.73 200.98L421.37 195.66C421.61 195.54 421.89 195.52 422.15 195.61C422.41 195.7 422.61 195.89 422.73 196.13L433.28 218.92C437.22 227.44 436.8 237.38 432.14 245.53L428.68 251.59C428.5 251.9 428.17 252.09 427.81 252.09H427.8ZM412.4 202.38L428.04 248.66L430.4 244.53C434.73 236.95 435.13 227.68 431.46 219.75L421.34 197.9L412.4 202.37V202.38Z" fill="#18292D"/>
<path d="M490.19 380.03L510.82 294.9C513.28 284.74 525.66 276.41 542.33 273.69L571.62 268.92L609.17 272.95C629.45 275.13 645.73 284.13 650.84 295.99L687.72 381.65L490.19 380.02V380.03Z" fill="#18292D"/>
<path d="M506.28 392.08L516.92 387.42L519.54 250.29L460.22 240.4C450.64 238.8 440.8 240.42 432.24 245.01L432.14 245.06L435.46 372.83L506.27 392.08H506.28Z" fill="white"/>
<path d="M506.28 393.08C506.19 393.08 506.1 393.07 506.02 393.04L435.21 373.79C434.78 373.67 434.48 373.29 434.47 372.85L431.14 245.08C431.14 244.7 431.34 244.35 431.67 244.17L431.77 244.12C440.47 239.46 450.63 237.78 460.38 239.41L519.7 249.3C520.19 249.38 520.55 249.81 520.54 250.31L517.92 387.44C517.92 387.83 517.68 388.18 517.32 388.34L506.68 393C506.55 393.06 506.42 393.08 506.28 393.08ZM436.45 372.06L506.2 391.02L515.93 386.76L518.52 251.13L460.05 241.38C450.91 239.86 441.38 241.38 433.16 245.65L436.45 372.05V372.06Z" fill="#18292D"/>
<path d="M409.75 194.33L411.18 321.58L431.44 374.73L509.09 395.63V257.77L431.44 243.81L409.75 194.33Z" fill="#B0CED4"/>
<path d="M431.44 375.74C430.89 375.74 430.44 375.29 430.44 374.74V243.81C430.44 243.26 430.89 242.81 431.44 242.81C431.99 242.81 432.44 243.26 432.44 243.81V374.74C432.44 375.29 431.99 375.74 431.44 375.74Z" fill="white"/>
<path d="M509.1 258.77C508.79 258.77 508.48 258.62 508.29 258.35C507.97 257.9 508.07 257.28 508.52 256.95L518.97 249.47C519.42 249.15 520.04 249.25 520.37 249.7C520.69 250.15 520.59 250.77 520.14 251.1L509.69 258.58C509.51 258.71 509.31 258.77 509.11 258.77H509.1Z" fill="#18292D"/>
<path d="M581.2 349.75C570.22 369.69 547.79 369.69 547.79 369.69L521.56 335.92C521.56 335.92 512.57 320.92 528.31 313.82L581.19 349.75H581.2Z" fill="white"/>
<path d="M547.79 370.68C547.48 370.68 547.19 370.54 547 370.29L520.77 336.52C520.77 336.52 520.72 336.46 520.7 336.42C520.53 336.13 516.47 329.23 518.64 322.31C519.91 318.26 523.02 315.1 527.9 312.9C528.41 312.67 529 312.9 529.22 313.4C529.45 313.9 529.22 314.5 528.72 314.72C524.39 316.67 521.64 319.42 520.55 322.89C518.73 328.67 522.05 334.75 522.39 335.34L548.26 368.65C551.52 368.49 570.63 366.83 580.32 349.24C580.59 348.76 581.19 348.58 581.68 348.85C582.16 349.12 582.34 349.73 582.07 350.21C570.93 370.43 548.01 370.67 547.78 370.67L547.79 370.68Z" fill="#18292D"/>
<path d="M535.94 319.03H524.08L523.68 319.6C521.59 322.59 518.09 324.27 514.45 324.02L512.23 323.87L518.16 310.4H514.39L511.07 316.44C509.44 319.41 506.46 321.4 503.09 321.78L498.77 322.26L502 315.79C499.28 317.49 495.93 317.84 492.91 316.75L491.76 316.33L506.31 291L526.25 285.61L514.39 279.68L496.03 285.23C492.99 286.15 489.69 285.63 487.08 283.82L484.21 281.83L514.39 264.59L545.65 283.45L555.89 328.18C555.89 328.18 579.6 348.12 581.22 349.74L535.95 319.02L535.94 319.03Z" fill="white"/>
<path d="M581.2 350.75C580.94 350.75 580.69 350.65 580.49 350.46C579.24 349.21 563.42 335.85 555.23 328.96C555.06 328.82 554.95 328.63 554.9 328.42L544.76 284.11L514.37 265.77L486.08 281.94L487.65 283.02C490.03 284.66 492.98 285.13 495.74 284.29L514.1 278.74C514.34 278.67 514.61 278.69 514.84 278.8L526.7 284.73C527.07 284.92 527.29 285.31 527.25 285.72C527.21 286.13 526.92 286.48 526.52 286.59L506.98 291.87L493.23 315.81H493.26C496.01 316.82 499 316.5 501.48 314.96C501.86 314.72 502.35 314.77 502.68 315.07C503.01 315.37 503.1 315.86 502.9 316.26L500.49 321.08L502.99 320.8C506.03 320.46 508.73 318.66 510.21 315.97L513.53 309.93C513.71 309.61 514.04 309.41 514.41 309.41H518.18C518.52 309.41 518.83 309.58 519.02 309.86C519.2 310.14 519.23 310.5 519.1 310.81L513.75 322.98L514.55 323.03C517.82 323.24 521.02 321.72 522.9 319.03L523.3 318.46C523.49 318.19 523.79 318.03 524.12 318.03H535.98C536.53 318.03 536.98 318.48 536.98 319.03C536.98 319.58 536.53 320.03 535.98 320.03H524.65L524.55 320.18C522.27 323.43 518.38 325.3 514.43 325.03L512.21 324.88C511.88 324.86 511.59 324.68 511.42 324.4C511.25 324.12 511.23 323.78 511.36 323.48L516.67 311.41H515.02L511.98 316.93C510.19 320.18 506.92 322.37 503.23 322.78L498.91 323.26C498.54 323.3 498.19 323.14 497.98 322.84C497.77 322.54 497.74 322.15 497.91 321.82L499.88 317.88C497.53 318.61 494.99 318.56 492.61 317.69L491.46 317.27C491.18 317.17 490.96 316.95 490.86 316.67C490.76 316.39 490.78 316.08 490.93 315.83L505.48 290.5C505.61 290.27 505.83 290.1 506.09 290.03L523.49 285.33L514.34 280.75L496.36 286.18C493.01 287.19 489.43 286.63 486.55 284.64L483.68 282.65C483.4 282.45 483.24 282.13 483.25 281.78C483.26 281.44 483.45 281.12 483.75 280.95L513.93 263.7C514.24 263.52 514.63 263.52 514.94 263.71L546.2 282.57C546.43 282.71 546.6 282.94 546.66 283.2L556.82 327.6C559.53 329.88 580.4 347.44 581.95 349C582.34 349.39 582.34 350.02 581.95 350.41C581.75 350.61 581.5 350.7 581.24 350.7L581.2 350.75Z" fill="#18292D"/>
<path d="M526.24 286.62C525.77 286.62 525.34 286.28 525.26 285.8C525.16 285.26 525.52 284.74 526.06 284.64L533.96 283.2C534.5 283.09 535.02 283.46 535.12 284C535.22 284.54 534.86 285.06 534.32 285.16L526.42 286.6C526.36 286.61 526.3 286.62 526.24 286.62Z" fill="#18292D"/>
<path d="M501.99 316.8C501.87 316.8 501.74 316.78 501.62 316.73C501.11 316.52 500.86 315.94 501.07 315.43L507.72 298.9C507.86 298.56 508.17 298.32 508.53 298.28L532.24 295.41C532.79 295.35 533.29 295.74 533.35 296.28C533.42 296.83 533.03 297.33 532.48 297.39L509.36 300.19L502.94 316.17C502.78 316.56 502.41 316.8 502.01 316.8H501.99Z" fill="#18292D"/>
<path d="M518.15 311.41C518 311.41 517.85 311.38 517.7 311.3C517.21 311.05 517.01 310.45 517.25 309.96L518.51 307.45C518.69 307.1 519.08 306.87 519.45 306.9L535.98 307.62C536.53 307.64 536.96 308.11 536.94 308.66C536.92 309.21 536.44 309.67 535.9 309.62L520.02 308.93L519.05 310.86C518.87 311.21 518.52 311.41 518.15 311.41Z" fill="#18292D"/>
<path d="M554.04 380.99C553.7 380.99 553.37 380.82 553.18 380.51L546.93 370.2C546.64 369.73 546.8 369.11 547.27 368.83C547.74 368.55 548.36 368.7 548.64 369.17L554.89 379.48C555.18 379.95 555.02 380.57 554.55 380.85C554.39 380.95 554.21 380.99 554.03 380.99H554.04Z" fill="white"/>
<path d="M616.22 381.66C615.99 381.66 615.76 381.58 615.58 381.42L579.66 351.16C579.24 350.8 579.18 350.17 579.54 349.75C579.89 349.33 580.53 349.27 580.95 349.63L616.87 379.89C617.29 380.25 617.35 380.88 616.99 381.3C616.79 381.53 616.51 381.66 616.22 381.66Z" fill="white"/>
<path d="M595.18 196.28C589.48 194.87 586.48 197.29 584.97 199.57C584.76 199.89 584.57 200.22 584.39 200.56C583.93 189.03 580.39 181.01 573.84 176.69C568.15 172.93 560.04 172.04 550.4 174.1C543.17 175.65 537.53 178.34 537.48 178.37C537.31 178.45 537.19 178.61 537.15 178.79C536.85 180.17 529.93 212.83 534.48 228.02C539.03 243.23 540.44 248.04 540.44 248.05C540.49 248.22 540.61 248.36 540.77 248.43C540.87 248.48 547.49 251.4 557.67 249.32L559.11 262.89C559.13 263.07 559.23 263.24 559.39 263.34C559.59 263.47 562.62 265.28 571 263.3C576.91 261.91 585.49 258.64 597.62 251.58C597.84 251.45 597.96 251.19 597.91 250.94L592.34 220.81C596.5 220.18 600.36 216.13 601.62 210.6C603.16 203.84 600.33 197.55 595.19 196.28H595.18Z" fill="white"/>
<path d="M579.62 161.83C574.46 163.04 570.16 165.98 567.19 169.9C582.13 170.51 595.57 181.33 599.28 197.07C599.44 197.76 599.58 198.46 599.7 199.15C605.2 193.95 607.88 186.07 606.02 178.17C603.24 166.37 591.43 159.06 579.63 161.83H579.62Z" fill="#18292D"/>
<path d="M587.71 213.23L600.61 209.5L604.58 193.34C606.54 185.35 603.92 176.93 597.76 171.48C590.9 165.41 582.71 158.6 580.94 159.02C578.93 159.49 554.57 161.64 539.67 164.33C531.29 165.84 525.73 173.85 527.24 182.23L533.58 199.11L537.55 178.13C537.55 178.13 554.09 189.27 575.87 182.48L587.7 213.24L587.71 213.23Z" fill="#18292D"/>
<path d="M557.92 211.47C553.47 211.47 549.44 208.42 548.38 203.91C547.14 198.65 550.42 193.36 555.68 192.12C558.23 191.52 560.86 191.95 563.09 193.33C565.32 194.71 566.87 196.87 567.47 199.42C568.07 201.97 567.64 204.6 566.26 206.83C564.88 209.06 562.72 210.61 560.17 211.21C559.42 211.39 558.67 211.47 557.92 211.47ZM557.94 193.86C557.34 193.86 556.74 193.93 556.14 194.07C551.95 195.06 549.35 199.26 550.33 203.45C550.81 205.48 552.05 207.2 553.82 208.3C555.59 209.4 557.68 209.74 559.72 209.26C561.75 208.78 563.47 207.54 564.57 205.77C565.67 204 566.01 201.9 565.53 199.87C565.05 197.84 563.81 196.12 562.04 195.02C560.79 194.25 559.38 193.85 557.95 193.85L557.94 193.86Z" fill="#FFBE0A"/>
<path d="M548.38 227.8C547.97 227.8 547.59 227.55 547.44 227.14C547.25 226.62 547.52 226.05 548.04 225.86L556.51 222.82C557.03 222.63 557.6 222.9 557.79 223.42C557.98 223.94 557.71 224.51 557.19 224.7L548.72 227.74C548.61 227.78 548.5 227.8 548.38 227.8Z" fill="#18292D"/>
<path d="M589.74 220.14C594.51 221.22 599.56 216.9 601.02 210.47C602.48 204.05 599.8 197.96 595.04 196.88C590.27 195.8 585.22 200.12 583.76 206.55L589.74 220.14Z" fill="white"/>
<path d="M591.23 221.31C590.65 221.31 590.08 221.25 589.51 221.12C588.97 221 588.63 220.46 588.76 219.92C588.88 219.38 589.42 219.04 589.96 219.17C591.95 219.62 594.08 218.98 595.97 217.37C597.94 215.68 599.38 213.16 600.05 210.26C601.39 204.38 599.04 198.82 594.82 197.86C590.59 196.9 586.08 200.9 584.74 206.77C584.62 207.31 584.08 207.65 583.54 207.52C583 207.4 582.66 206.86 582.79 206.32C584.37 199.37 589.97 194.7 595.26 195.9C600.56 197.11 603.58 203.74 602 210.69C601.25 214 599.57 216.91 597.28 218.88C595.42 220.47 593.33 221.31 591.25 221.31H591.23Z" fill="#18292D"/>
<path d="M554.66 203.66C555.06 205.37 556.13 206.59 557.04 206.37C557.95 206.15 558.36 204.59 557.96 202.88C557.56 201.17 556.49 199.95 555.58 200.17C554.67 200.38 554.26 201.95 554.66 203.66Z" fill="#18292D"/>
<path d="M535.12 205.76C535.52 207.47 536.59 208.69 537.5 208.47C538.41 208.26 538.82 206.69 538.42 204.98C538.02 203.27 536.95 202.05 536.04 202.27C535.13 202.48 534.72 204.05 535.12 205.76Z" fill="#18292D"/>
<path d="M585.34 202.96C585.34 202.96 585.26 202.96 585.22 202.96L566.37 200.64C565.82 200.57 565.43 200.07 565.5 199.53C565.57 198.98 566.06 198.58 566.61 198.66L585.46 200.98C586.01 201.05 586.4 201.55 586.33 202.09C586.27 202.6 585.84 202.97 585.34 202.97V202.96Z" fill="#FFBE0A"/>
<path d="M550.56 250.56C544.59 250.56 540.93 248.93 540.61 248.78C540.35 248.66 540.15 248.43 540.07 248.15C540.07 248.15 538.66 243.33 534.11 228.13C529.54 212.85 536.48 180.09 536.78 178.71C536.9 178.17 537.42 177.82 537.97 177.94C538.51 178.06 538.85 178.59 538.74 179.13C538.67 179.46 531.61 212.77 536.04 227.56C539.8 240.13 541.42 245.6 541.87 247.13C544.5 248.1 559.74 252.68 578.87 236.67C579.29 236.31 579.93 236.37 580.28 236.79C580.63 237.21 580.58 237.84 580.16 238.2C568.19 248.22 557.74 250.56 550.59 250.56H550.56Z" fill="#18292D"/>
<path d="M597.3 252.06C596.83 252.06 596.41 251.72 596.32 251.24L590.7 220.83C590.6 220.29 590.96 219.77 591.5 219.66C592.04 219.56 592.56 219.92 592.67 220.46L598.29 250.87C598.39 251.41 598.03 251.93 597.49 252.04C597.43 252.05 597.37 252.06 597.31 252.06H597.3Z" fill="#18292D"/>
<path d="M559.71 263.82C559.21 263.82 558.77 263.44 558.72 262.93L557.24 248.94C557.18 248.39 557.58 247.9 558.13 247.84C558.69 247.78 559.17 248.18 559.23 248.73L560.71 262.72C560.77 263.27 560.37 263.76 559.82 263.82C559.78 263.82 559.75 263.82 559.71 263.82Z" fill="#080717"/>
<path d="M534.39 214.08C529.94 214.08 525.91 211.03 524.85 206.52C523.61 201.26 526.89 195.97 532.15 194.73C536.66 193.67 541.35 195.95 543.29 200.15C543.52 200.65 543.3 201.25 542.8 201.48C542.3 201.72 541.7 201.49 541.47 200.99C539.92 197.65 536.19 195.83 532.6 196.68C530.57 197.16 528.85 198.4 527.75 200.17C526.65 201.94 526.31 204.04 526.79 206.07C527.78 210.26 531.99 212.86 536.17 211.88C537.2 211.64 538.14 211.2 538.99 210.59C539.43 210.26 540.06 210.36 540.39 210.81C540.72 211.26 540.62 211.88 540.17 212.21C539.11 212.98 537.92 213.53 536.63 213.83C535.88 214.01 535.13 214.09 534.39 214.09V214.08Z" fill="#FFBE0A"/>
<path d="M546.79 221.91C546.67 221.91 546.56 221.89 546.44 221.85C544.79 221.24 539.35 219.07 538.47 216.98C538.21 216.38 538.32 215.88 538.46 215.58C539.02 214.3 541.31 202.14 542.63 194.77C542.73 194.23 543.24 193.86 543.79 193.96C544.33 194.06 544.7 194.58 544.6 195.12C544.25 197.06 541.25 213.84 540.34 216.26C540.73 217.04 543.84 218.74 547.15 219.98C547.67 220.17 547.93 220.75 547.74 221.27C547.59 221.67 547.21 221.92 546.8 221.92L546.79 221.91Z" fill="#18292D"/>
<path d="M541.86 202.75C541.41 202.75 541 202.44 540.89 201.98C540.76 201.44 541.1 200.9 541.63 200.78L547.53 199.39C548.07 199.27 548.61 199.6 548.73 200.13C548.86 200.67 548.52 201.21 547.99 201.33L542.09 202.72C542.01 202.74 541.94 202.75 541.86 202.75Z" fill="#FFBE0A"/>
<path d="M595.499 247.72L558.86 256.341C555.871 257.044 554.018 260.037 554.721 263.026L559.146 281.833C559.849 284.822 562.842 286.675 565.832 285.971L602.471 277.351C605.46 276.647 607.313 273.654 606.61 270.665L602.185 251.859C601.482 248.87 598.488 247.017 595.499 247.72Z" fill="#18292D"/>
<path d="M407.21 348.35L402 337.71L406.38 320.98C406.75 319.57 408.18 319.01 409.46 319.77C412.05 321.31 413.59 324.51 413.17 327.48L410.93 343.36L407.2 348.35H407.21Z" fill="white"/>
<path d="M407.21 349.35C407.21 349.35 407.15 349.35 407.12 349.35C406.77 349.32 406.47 349.11 406.31 348.79L401.1 338.15C400.99 337.94 400.97 337.69 401.03 337.46L405.4 320.73C405.65 319.77 406.29 319.01 407.16 318.65C408.05 318.28 409.07 318.38 409.96 318.91C412.91 320.66 414.63 324.24 414.15 327.62L411.91 343.5C411.89 343.67 411.82 343.82 411.72 343.96L407.99 348.95C407.8 349.2 407.5 349.35 407.19 349.35H407.21ZM403.06 337.6L407.38 346.43L409.97 342.96L412.17 327.34C412.53 324.77 411.17 321.95 408.94 320.63C408.59 320.42 408.22 320.37 407.92 320.5C407.64 320.62 407.43 320.88 407.34 321.23L403.06 337.6Z" fill="#18292D"/>
<path d="M424.62 330.87C424.04 329.69 422.62 329.2 421.44 329.78L402.63 338.99L406.72 347.35L421.44 340.14C424.88 338.46 426.3 334.31 424.62 330.87Z" fill="white"/>
<path d="M406.72 348.35C406.61 348.35 406.5 348.33 406.4 348.3C406.15 348.21 405.94 348.03 405.83 347.79L401.74 339.43C401.62 339.19 401.61 338.92 401.69 338.67C401.77 338.42 401.96 338.21 402.2 338.1L421.01 328.89C422.68 328.08 424.71 328.77 425.53 330.44C427.45 334.37 425.82 339.13 421.89 341.05L407.17 348.26C407.03 348.33 406.88 348.36 406.73 348.36L406.72 348.35ZM403.97 339.45L407.18 346.02L421 339.25C423.94 337.81 425.16 334.25 423.72 331.31C423.39 330.63 422.56 330.34 421.88 330.68L403.97 339.45Z" fill="#18292D"/>
<path d="M428.61 339.03C428.03 337.85 426.61 337.36 425.43 337.94L406.62 347.15L410.71 355.51L425.43 348.3C428.87 346.62 430.29 342.47 428.61 339.03Z" fill="white"/>
<path d="M410.71 356.51C410.34 356.51 409.98 356.3 409.81 355.95L405.72 347.59C405.6 347.35 405.59 347.08 405.67 346.83C405.76 346.58 405.94 346.37 406.18 346.26L424.99 337.05C426.66 336.23 428.69 336.93 429.51 338.6C431.43 342.53 429.8 347.29 425.87 349.21L411.15 356.42C411.01 356.49 410.86 356.52 410.71 356.52V356.51ZM407.95 347.61L411.16 354.18L424.98 347.41C427.92 345.97 429.14 342.41 427.7 339.47C427.37 338.79 426.54 338.5 425.86 338.84L407.94 347.61H407.95Z" fill="#18292D"/>
<path d="M428.43 349.49L428.29 349.2C427.73 348.06 426.51 347.52 425.56 347.98L410.61 355.3L412.54 359.25C413.89 362.01 416.29 364.04 418.95 364.69L427.7 366.81L424.11 359.05L426.35 357.95C429.12 356.59 430.05 352.81 428.43 349.49Z" fill="white"/>
<path d="M427.7 367.81C427.62 367.81 427.54 367.81 427.46 367.78L418.71 365.66C415.76 364.95 413.11 362.71 411.63 359.69L409.7 355.74C409.58 355.5 409.57 355.23 409.65 354.98C409.74 354.73 409.92 354.52 410.16 354.41L425.11 347.09C425.83 346.74 426.69 346.73 427.47 347.09C428.2 347.42 428.8 348.01 429.18 348.77L429.32 349.06C430.21 350.87 430.45 352.88 430 354.7C429.54 356.59 428.39 358.07 426.78 358.86L425.42 359.53L428.6 366.4C428.76 366.75 428.71 367.16 428.47 367.45C428.28 367.68 427.99 367.82 427.7 367.82V367.81ZM411.94 355.76L413.44 358.81C414.66 361.31 416.81 363.14 419.19 363.72L425.93 365.35L423.21 359.47C422.98 358.98 423.19 358.39 423.68 358.15L425.92 357.05C426.99 356.53 427.75 355.52 428.08 354.21C428.42 352.84 428.23 351.32 427.54 349.92L427.4 349.63C427.24 349.29 426.97 349.02 426.67 348.89C426.53 348.83 426.26 348.74 426.01 348.87L411.95 355.75L411.94 355.76Z" fill="#18292D"/>
</g>
<path d="M354.501 88.3196H231V174.397H294.618V196.855L317.077 174.397H354.501V88.3196Z" fill="#18292D"/>
<path d="M257.017 120.921H305.67" stroke="white" stroke-width="2.60051"/>
<path d="M257.017 139.632H305.67" stroke="white" stroke-width="2.60051"/>
<path d="M484.383 148.077V146.577H485.883H548.001V63.5H427.5V146.577H463.424H464.045L464.484 147.016L484.383 166.914V148.077Z" fill="white" stroke="#18292D" stroke-width="3"/>
<path d="M413.631 62.038V144.368H392.756V166.827L370.309 144.368H323.819V62.038H413.631Z" fill="#96D8E8"/>
<path d="M378.465 84.8044H358.855V126.814H378.465V84.8044Z" fill="#18292D" stroke="#18292D" stroke-width="2.60051"/>
<path d="M364.458 84.8043H350.45" stroke="#18292D" stroke-width="2.60051"/>
<path d="M372.862 126.814H386.857" stroke="#18292D" stroke-width="2.60051"/>
<path d="M367.259 76.4117C373.448 76.4117 378.465 71.3946 378.465 65.2058C378.465 59.017 373.448 54 367.259 54C361.07 54 356.053 59.017 356.053 65.2058C356.053 71.3946 361.07 76.4117 367.259 76.4117Z" fill="#18292D" stroke="#18292D" stroke-width="2.60051"/>
<path d="M357.182 261.142L341.591 256.071L326 251L331.059 266.591L336.13 282.194L341.615 271.52L349.937 279.854L354.842 274.937L346.52 266.615L357.182 261.142Z" fill="white" stroke="#18292D" stroke-width="2.60051" stroke-linecap="round" stroke-linejoin="round"/>
<circle cx="74.5" cy="140.5" r="6" stroke="#18292D" stroke-width="3"/>
<circle cx="97.5" cy="140.5" r="6" stroke="#18292D" stroke-width="3"/>
<circle cx="120.5" cy="140.5" r="6" stroke="#18292D" stroke-width="3"/>
<path d="M489.87 109.944H481.742C481.742 108.283 481.855 106.82 482.082 105.555C482.327 104.271 482.743 103.119 483.328 102.1C483.913 101.08 484.706 100.136 485.707 99.2676C486.594 98.5312 487.359 97.8232 488.001 97.1436C488.643 96.4639 489.134 95.7747 489.474 95.0762C489.813 94.3776 489.983 93.6318 489.983 92.8389C489.983 91.8571 489.842 91.0547 489.559 90.4316C489.294 89.8086 488.888 89.346 488.341 89.0439C487.812 88.723 487.142 88.5625 486.33 88.5625C485.669 88.5625 485.046 88.723 484.461 89.0439C483.895 89.3649 483.432 89.8652 483.073 90.5449C482.715 91.2057 482.516 92.0837 482.479 93.1787H472.878C472.935 90.3656 473.558 88.0811 474.747 86.3252C475.955 84.5505 477.56 83.2572 479.562 82.4453C481.582 81.6146 483.838 81.1992 486.33 81.1992C489.087 81.1992 491.456 81.624 493.438 82.4736C495.421 83.3232 496.941 84.5882 497.998 86.2686C499.055 87.93 499.584 89.9785 499.584 92.4141C499.584 94.0378 499.272 95.4538 498.649 96.6621C498.045 97.8516 497.224 98.9655 496.186 100.004C495.166 101.023 494.024 102.118 492.759 103.289C491.664 104.252 490.918 105.234 490.521 106.234C490.125 107.216 489.908 108.453 489.87 109.944ZM480.581 118.554C480.581 117.194 481.072 116.062 482.054 115.155C483.035 114.23 484.31 113.768 485.877 113.768C487.444 113.768 488.718 114.23 489.7 115.155C490.682 116.062 491.173 117.194 491.173 118.554C491.173 119.913 490.682 121.055 489.7 121.98C488.718 122.887 487.444 123.34 485.877 123.34C484.31 123.34 483.035 122.887 482.054 121.98C481.072 121.055 480.581 119.913 480.581 118.554Z" fill="#FFBE0A"/>
<defs>
<clipPath id="clip0_542_10735">
<rect width="287" height="289" fill="white" transform="translate(401 107)"/>
</clipPath>
</defs>
</svg>
