<svg width="800" height="750" viewBox="0 0 800 750" fill="none" xmlns="http://www.w3.org/2000/svg">
<rect x="52.5" y="49.5" width="276" height="129" rx="19" fill="white"/>
<path d="M106.749 103.727V121.5H103.087V103.727H106.749ZM117.394 103.727L110.35 112.503L106.285 116.874L105.626 113.407L108.373 109.647L112.901 103.727H117.394ZM113.231 121.5L107.994 113.285L110.704 111.014L117.564 121.5H113.231ZM124.522 121.744C123.497 121.744 122.577 121.581 121.764 121.256C120.95 120.922 120.258 120.462 119.688 119.876C119.127 119.291 118.696 118.611 118.395 117.838C118.093 117.057 117.943 116.227 117.943 115.348V114.859C117.943 113.858 118.085 112.943 118.37 112.113C118.655 111.283 119.062 110.562 119.591 109.952C120.128 109.342 120.779 108.874 121.544 108.548C122.309 108.215 123.172 108.048 124.132 108.048C125.068 108.048 125.898 108.202 126.622 108.512C127.346 108.821 127.953 109.26 128.441 109.83C128.937 110.4 129.312 111.083 129.564 111.881C129.816 112.67 129.942 113.549 129.942 114.518V115.982H119.444V113.639H126.488V113.37C126.488 112.882 126.398 112.446 126.219 112.064C126.048 111.673 125.788 111.364 125.438 111.136C125.088 110.908 124.64 110.794 124.095 110.794C123.631 110.794 123.233 110.896 122.899 111.1C122.565 111.303 122.293 111.588 122.081 111.954C121.878 112.32 121.723 112.752 121.617 113.248C121.52 113.736 121.471 114.273 121.471 114.859V115.348C121.471 115.877 121.544 116.365 121.69 116.812C121.845 117.26 122.061 117.647 122.337 117.972C122.622 118.298 122.964 118.55 123.363 118.729C123.77 118.908 124.229 118.998 124.742 118.998C125.377 118.998 125.967 118.875 126.512 118.631C127.066 118.379 127.542 118.001 127.94 117.496L129.649 119.352C129.373 119.75 128.994 120.133 128.514 120.499C128.042 120.865 127.472 121.166 126.805 121.402C126.138 121.63 125.377 121.744 124.522 121.744ZM139.085 117.85C139.085 117.598 139.012 117.37 138.866 117.167C138.719 116.963 138.447 116.776 138.048 116.605C137.657 116.426 137.092 116.263 136.351 116.117C135.684 115.97 135.061 115.787 134.483 115.567C133.914 115.34 133.417 115.067 132.994 114.75C132.579 114.432 132.254 114.058 132.018 113.626C131.782 113.187 131.664 112.687 131.664 112.125C131.664 111.572 131.782 111.051 132.018 110.562C132.262 110.074 132.608 109.643 133.055 109.269C133.511 108.886 134.064 108.589 134.715 108.377C135.375 108.158 136.115 108.048 136.937 108.048C138.084 108.048 139.069 108.231 139.891 108.597C140.721 108.963 141.356 109.468 141.795 110.111C142.243 110.746 142.467 111.47 142.467 112.284H138.951C138.951 111.942 138.878 111.637 138.731 111.368C138.593 111.091 138.373 110.876 138.072 110.721C137.779 110.558 137.397 110.477 136.925 110.477C136.534 110.477 136.196 110.546 135.912 110.685C135.627 110.815 135.407 110.994 135.252 111.222C135.106 111.441 135.033 111.686 135.033 111.954C135.033 112.158 135.073 112.341 135.155 112.503C135.244 112.658 135.387 112.8 135.582 112.931C135.777 113.061 136.03 113.183 136.339 113.297C136.656 113.403 137.047 113.5 137.511 113.59C138.463 113.785 139.313 114.042 140.062 114.359C140.811 114.668 141.405 115.091 141.844 115.628C142.284 116.157 142.503 116.853 142.503 117.716C142.503 118.302 142.373 118.839 142.113 119.327C141.852 119.815 141.478 120.243 140.99 120.609C140.501 120.967 139.916 121.248 139.232 121.451C138.556 121.646 137.796 121.744 136.949 121.744C135.72 121.744 134.679 121.524 133.824 121.085C132.978 120.646 132.335 120.088 131.896 119.413C131.464 118.729 131.249 118.029 131.249 117.313H134.581C134.597 117.793 134.719 118.18 134.947 118.473C135.183 118.766 135.48 118.977 135.838 119.107C136.205 119.238 136.599 119.303 137.022 119.303C137.478 119.303 137.857 119.242 138.158 119.12C138.459 118.989 138.687 118.819 138.841 118.607C139.004 118.387 139.085 118.135 139.085 117.85ZM150.865 121.744C149.84 121.744 148.92 121.581 148.106 121.256C147.293 120.922 146.601 120.462 146.031 119.876C145.47 119.291 145.038 118.611 144.737 117.838C144.436 117.057 144.286 116.227 144.286 115.348V114.859C144.286 113.858 144.428 112.943 144.713 112.113C144.998 111.283 145.405 110.562 145.934 109.952C146.471 109.342 147.122 108.874 147.887 108.548C148.652 108.215 149.514 108.048 150.475 108.048C151.41 108.048 152.241 108.202 152.965 108.512C153.689 108.821 154.295 109.26 154.784 109.83C155.28 110.4 155.654 111.083 155.907 111.881C156.159 112.67 156.285 113.549 156.285 114.518V115.982H145.787V113.639H152.831V113.37C152.831 112.882 152.741 112.446 152.562 112.064C152.391 111.673 152.131 111.364 151.781 111.136C151.431 110.908 150.983 110.794 150.438 110.794C149.974 110.794 149.575 110.896 149.242 111.1C148.908 111.303 148.635 111.588 148.424 111.954C148.22 112.32 148.066 112.752 147.96 113.248C147.862 113.736 147.813 114.273 147.813 114.859V115.348C147.813 115.877 147.887 116.365 148.033 116.812C148.188 117.26 148.403 117.647 148.68 117.972C148.965 118.298 149.307 118.55 149.706 118.729C150.112 118.908 150.572 118.998 151.085 118.998C151.72 118.998 152.31 118.875 152.855 118.631C153.408 118.379 153.884 118.001 154.283 117.496L155.992 119.352C155.715 119.75 155.337 120.133 154.857 120.499C154.385 120.865 153.815 121.166 153.148 121.402C152.481 121.63 151.72 121.744 150.865 121.744ZM166.087 118.619V102.75H169.627V121.5H166.441L166.087 118.619ZM157.738 115.055V114.798C157.738 113.789 157.852 112.874 158.08 112.052C158.307 111.222 158.641 110.51 159.081 109.916C159.52 109.321 160.061 108.862 160.704 108.536C161.347 108.211 162.079 108.048 162.901 108.048C163.674 108.048 164.35 108.211 164.928 108.536C165.514 108.862 166.01 109.326 166.417 109.928C166.832 110.522 167.166 111.226 167.418 112.04C167.67 112.845 167.853 113.728 167.967 114.688V115.25C167.853 116.17 167.67 117.024 167.418 117.813C167.166 118.603 166.832 119.295 166.417 119.889C166.01 120.475 165.514 120.93 164.928 121.256C164.342 121.581 163.658 121.744 162.877 121.744C162.055 121.744 161.323 121.577 160.68 121.244C160.045 120.91 159.508 120.442 159.068 119.84C158.637 119.238 158.307 118.53 158.08 117.716C157.852 116.902 157.738 116.015 157.738 115.055ZM161.253 114.798V115.055C161.253 115.6 161.294 116.109 161.375 116.581C161.465 117.053 161.607 117.472 161.803 117.838C162.006 118.196 162.267 118.477 162.584 118.68C162.91 118.875 163.304 118.973 163.768 118.973C164.37 118.973 164.867 118.839 165.257 118.57C165.648 118.294 165.945 117.915 166.148 117.435C166.36 116.955 166.482 116.402 166.515 115.775V114.176C166.49 113.663 166.417 113.203 166.295 112.796C166.181 112.381 166.01 112.027 165.782 111.734C165.562 111.441 165.286 111.214 164.952 111.051C164.627 110.888 164.24 110.807 163.792 110.807C163.337 110.807 162.946 110.912 162.621 111.124C162.295 111.327 162.031 111.608 161.827 111.966C161.632 112.324 161.485 112.748 161.388 113.236C161.298 113.716 161.253 114.237 161.253 114.798ZM176.085 108.292V121.5H172.557V108.292H176.085ZM172.337 104.85C172.337 104.337 172.516 103.914 172.875 103.58C173.233 103.246 173.713 103.08 174.315 103.08C174.909 103.08 175.385 103.246 175.743 103.58C176.109 103.914 176.292 104.337 176.292 104.85C176.292 105.362 176.109 105.785 175.743 106.119C175.385 106.453 174.909 106.62 174.315 106.62C173.713 106.62 173.233 106.453 172.875 106.119C172.516 105.785 172.337 105.362 172.337 104.85ZM186.119 118.521V112.638C186.119 112.215 186.05 111.852 185.912 111.551C185.773 111.242 185.558 111.002 185.265 110.831C184.98 110.66 184.61 110.575 184.154 110.575C183.763 110.575 183.425 110.644 183.141 110.782C182.856 110.912 182.636 111.104 182.481 111.356C182.327 111.6 182.25 111.889 182.25 112.223H178.734C178.734 111.661 178.864 111.128 179.125 110.624C179.385 110.119 179.763 109.675 180.26 109.293C180.756 108.902 181.346 108.597 182.03 108.377C182.722 108.158 183.495 108.048 184.349 108.048C185.375 108.048 186.286 108.219 187.083 108.561C187.881 108.902 188.508 109.415 188.963 110.099C189.427 110.782 189.659 111.637 189.659 112.662V118.314C189.659 119.038 189.704 119.632 189.793 120.096C189.883 120.552 190.013 120.951 190.184 121.292V121.5H186.632C186.461 121.142 186.331 120.694 186.241 120.157C186.16 119.612 186.119 119.067 186.119 118.521ZM186.583 113.456L186.607 115.445H184.642C184.178 115.445 183.775 115.498 183.434 115.604C183.092 115.71 182.811 115.86 182.591 116.056C182.372 116.243 182.209 116.463 182.103 116.715C182.005 116.967 181.957 117.244 181.957 117.545C181.957 117.846 182.026 118.119 182.164 118.363C182.302 118.599 182.502 118.786 182.762 118.924C183.023 119.055 183.328 119.12 183.678 119.12C184.207 119.12 184.667 119.014 185.057 118.802C185.448 118.591 185.749 118.33 185.96 118.021C186.18 117.712 186.294 117.419 186.302 117.142L187.23 118.631C187.1 118.965 186.921 119.311 186.693 119.669C186.473 120.027 186.192 120.365 185.851 120.682C185.509 120.991 185.098 121.248 184.618 121.451C184.138 121.646 183.568 121.744 182.909 121.744C182.07 121.744 181.31 121.577 180.626 121.244C179.951 120.902 179.413 120.434 179.015 119.84C178.624 119.238 178.429 118.554 178.429 117.789C178.429 117.097 178.559 116.483 178.819 115.946C179.08 115.409 179.462 114.957 179.967 114.591C180.479 114.216 181.118 113.936 181.883 113.749C182.648 113.553 183.535 113.456 184.544 113.456H186.583ZM199.498 118.521V112.638C199.498 112.215 199.429 111.852 199.291 111.551C199.152 111.242 198.937 111.002 198.644 110.831C198.359 110.66 197.988 110.575 197.533 110.575C197.142 110.575 196.804 110.644 196.52 110.782C196.235 110.912 196.015 111.104 195.86 111.356C195.706 111.6 195.628 111.889 195.628 112.223H192.113C192.113 111.661 192.243 111.128 192.503 110.624C192.764 110.119 193.142 109.675 193.639 109.293C194.135 108.902 194.725 108.597 195.409 108.377C196.1 108.158 196.874 108.048 197.728 108.048C198.753 108.048 199.665 108.219 200.462 108.561C201.26 108.902 201.887 109.415 202.342 110.099C202.806 110.782 203.038 111.637 203.038 112.662V118.314C203.038 119.038 203.083 119.632 203.172 120.096C203.262 120.552 203.392 120.951 203.563 121.292V121.5H200.011C199.84 121.142 199.71 120.694 199.62 120.157C199.539 119.612 199.498 119.067 199.498 118.521ZM199.962 113.456L199.986 115.445H198.021C197.557 115.445 197.154 115.498 196.812 115.604C196.471 115.71 196.19 115.86 195.97 116.056C195.75 116.243 195.588 116.463 195.482 116.715C195.384 116.967 195.335 117.244 195.335 117.545C195.335 117.846 195.405 118.119 195.543 118.363C195.681 118.599 195.881 118.786 196.141 118.924C196.402 119.055 196.707 119.12 197.057 119.12C197.586 119.12 198.045 119.014 198.436 118.802C198.827 118.591 199.128 118.33 199.339 118.021C199.559 117.712 199.673 117.419 199.681 117.142L200.609 118.631C200.479 118.965 200.3 119.311 200.072 119.669C199.852 120.027 199.571 120.365 199.229 120.682C198.888 120.991 198.477 121.248 197.997 121.451C197.516 121.646 196.947 121.744 196.288 121.744C195.449 121.744 194.688 121.577 194.005 121.244C193.329 120.902 192.792 120.434 192.394 119.84C192.003 119.238 191.808 118.554 191.808 117.789C191.808 117.097 191.938 116.483 192.198 115.946C192.459 115.409 192.841 114.957 193.346 114.591C193.858 114.216 194.497 113.936 195.262 113.749C196.027 113.553 196.914 113.456 197.923 113.456H199.962ZM209.19 111.112V121.5H205.675V108.292H208.971L209.19 111.112ZM208.678 114.432H207.726C207.726 113.456 207.852 112.577 208.104 111.795C208.356 111.006 208.71 110.335 209.166 109.781C209.622 109.22 210.163 108.792 210.79 108.5C211.424 108.198 212.132 108.048 212.914 108.048C213.532 108.048 214.098 108.137 214.61 108.316C215.123 108.495 215.562 108.78 215.929 109.171C216.303 109.562 216.588 110.078 216.783 110.721C216.987 111.364 217.088 112.149 217.088 113.077V121.5H213.548V113.065C213.548 112.479 213.467 112.023 213.304 111.698C213.141 111.372 212.901 111.144 212.584 111.014C212.275 110.876 211.892 110.807 211.437 110.807C210.965 110.807 210.554 110.9 210.204 111.087C209.862 111.275 209.577 111.535 209.349 111.869C209.129 112.194 208.963 112.577 208.849 113.016C208.735 113.456 208.678 113.928 208.678 114.432ZM240.294 112.21V119.254C240.017 119.588 239.59 119.95 239.012 120.34C238.434 120.723 237.69 121.052 236.778 121.329C235.867 121.606 234.764 121.744 233.47 121.744C232.323 121.744 231.277 121.557 230.333 121.183C229.389 120.8 228.575 120.243 227.892 119.51C227.216 118.778 226.695 117.883 226.329 116.825C225.963 115.759 225.78 114.542 225.78 113.175V112.064C225.78 110.697 225.955 109.48 226.305 108.414C226.663 107.348 227.171 106.449 227.831 105.716C228.49 104.984 229.275 104.426 230.187 104.044C231.098 103.661 232.111 103.47 233.226 103.47C234.772 103.47 236.042 103.722 237.035 104.227C238.028 104.723 238.784 105.415 239.305 106.302C239.834 107.181 240.16 108.19 240.282 109.33H236.729C236.64 108.727 236.469 108.202 236.217 107.755C235.965 107.307 235.602 106.957 235.13 106.705C234.667 106.453 234.064 106.327 233.324 106.327C232.713 106.327 232.168 106.453 231.688 106.705C231.216 106.949 230.817 107.311 230.492 107.792C230.166 108.272 229.918 108.866 229.747 109.574C229.576 110.282 229.491 111.104 229.491 112.04V113.175C229.491 114.103 229.58 114.924 229.759 115.641C229.938 116.349 230.203 116.947 230.553 117.435C230.911 117.915 231.35 118.277 231.871 118.521C232.392 118.766 232.998 118.888 233.69 118.888C234.268 118.888 234.748 118.839 235.13 118.741C235.521 118.644 235.834 118.526 236.07 118.387C236.314 118.241 236.502 118.102 236.632 117.972V114.823H233.287V112.21H240.294ZM250.841 118.338V108.292H254.356V121.5H251.048L250.841 118.338ZM251.231 115.628L252.269 115.604C252.269 116.483 252.167 117.301 251.964 118.058C251.76 118.806 251.455 119.457 251.048 120.011C250.641 120.556 250.129 120.983 249.51 121.292C248.892 121.594 248.163 121.744 247.325 121.744C246.682 121.744 246.088 121.655 245.543 121.476C245.006 121.288 244.542 121 244.151 120.609C243.769 120.21 243.468 119.701 243.248 119.083C243.036 118.456 242.931 117.704 242.931 116.825V108.292H246.446V116.849C246.446 117.24 246.491 117.569 246.581 117.838C246.678 118.106 246.812 118.326 246.983 118.497C247.154 118.668 247.354 118.79 247.582 118.863C247.818 118.937 248.078 118.973 248.363 118.973C249.087 118.973 249.657 118.827 250.072 118.534C250.495 118.241 250.792 117.842 250.963 117.337C251.142 116.825 251.231 116.255 251.231 115.628ZM260.558 111.173V121.5H257.042V108.292H260.35L260.558 111.173ZM264.537 108.207L264.476 111.466C264.305 111.441 264.098 111.421 263.854 111.405C263.618 111.38 263.402 111.368 263.207 111.368C262.71 111.368 262.279 111.433 261.913 111.563C261.555 111.686 261.253 111.869 261.009 112.113C260.773 112.357 260.594 112.654 260.472 113.004C260.358 113.354 260.293 113.753 260.277 114.2L259.569 113.98C259.569 113.126 259.654 112.341 259.825 111.625C259.996 110.9 260.244 110.27 260.57 109.732C260.903 109.195 261.31 108.78 261.791 108.487C262.271 108.194 262.82 108.048 263.438 108.048C263.634 108.048 263.833 108.064 264.037 108.097C264.24 108.121 264.407 108.158 264.537 108.207ZM274.01 118.338V108.292H277.525V121.5H274.217L274.01 118.338ZM274.4 115.628L275.438 115.604C275.438 116.483 275.336 117.301 275.133 118.058C274.929 118.806 274.624 119.457 274.217 120.011C273.81 120.556 273.298 120.983 272.679 121.292C272.061 121.594 271.332 121.744 270.494 121.744C269.851 121.744 269.257 121.655 268.712 121.476C268.175 121.288 267.711 121 267.32 120.609C266.938 120.21 266.637 119.701 266.417 119.083C266.205 118.456 266.1 117.704 266.1 116.825V108.292H269.615V116.849C269.615 117.24 269.66 117.569 269.75 117.838C269.847 118.106 269.981 118.326 270.152 118.497C270.323 118.668 270.523 118.79 270.75 118.863C270.986 118.937 271.247 118.973 271.532 118.973C272.256 118.973 272.826 118.827 273.241 118.534C273.664 118.241 273.961 117.842 274.132 117.337C274.311 116.825 274.4 116.255 274.4 115.628Z" fill="black"/>
<rect x="52.5" y="49.5" width="276" height="129" rx="19" stroke="#4A7C88" stroke-width="2"/>
<path d="M188.806 284.095C189.743 284.635 191.265 284.635 192.202 284.095L201.797 278.56C202.734 278.02 202.734 277.142 201.797 276.601C200.86 276.061 199.338 276.061 198.401 276.601L192.899 279.775V205.884C192.899 205.118 191.827 204.5 190.5 204.5C189.173 204.5 188.101 205.118 188.101 205.884V279.775L182.599 276.601C181.662 276.061 180.14 276.061 179.203 276.601C178.266 277.142 178.266 278.02 179.203 278.56L188.798 284.095H188.806Z" fill="#4A7C88"/>
<rect x="52.5" y="310.5" width="276" height="129" rx="19" fill="white"/>
<path d="M125.008 376.165H120.479V373.308H125.008C125.708 373.308 126.278 373.194 126.717 372.966C127.157 372.73 127.478 372.405 127.682 371.99C127.885 371.575 127.987 371.107 127.987 370.586C127.987 370.057 127.885 369.565 127.682 369.109C127.478 368.653 127.157 368.287 126.717 368.01C126.278 367.734 125.708 367.595 125.008 367.595H121.749V382.5H118.087V364.727H125.008C126.4 364.727 127.592 364.979 128.585 365.483C129.586 365.98 130.351 366.667 130.88 367.546C131.409 368.425 131.673 369.43 131.673 370.562C131.673 371.709 131.409 372.702 130.88 373.54C130.351 374.378 129.586 375.025 128.585 375.481C127.592 375.937 126.4 376.165 125.008 376.165ZM139.889 382.744C138.863 382.744 137.944 382.581 137.13 382.256C136.316 381.922 135.624 381.462 135.055 380.876C134.493 380.291 134.062 379.611 133.761 378.838C133.46 378.057 133.309 377.227 133.309 376.348V375.859C133.309 374.858 133.451 373.943 133.736 373.113C134.021 372.283 134.428 371.562 134.957 370.952C135.494 370.342 136.145 369.874 136.91 369.548C137.675 369.215 138.538 369.048 139.498 369.048C140.434 369.048 141.264 369.202 141.988 369.512C142.713 369.821 143.319 370.26 143.807 370.83C144.304 371.4 144.678 372.083 144.93 372.881C145.182 373.67 145.309 374.549 145.309 375.518V376.982H134.811V374.639H141.854V374.37C141.854 373.882 141.764 373.446 141.585 373.064C141.415 372.673 141.154 372.364 140.804 372.136C140.454 371.908 140.007 371.794 139.461 371.794C138.998 371.794 138.599 371.896 138.265 372.1C137.931 372.303 137.659 372.588 137.447 372.954C137.244 373.32 137.089 373.752 136.983 374.248C136.886 374.736 136.837 375.273 136.837 375.859V376.348C136.837 376.877 136.91 377.365 137.057 377.812C137.211 378.26 137.427 378.647 137.704 378.972C137.988 379.298 138.33 379.55 138.729 379.729C139.136 379.908 139.596 379.998 140.108 379.998C140.743 379.998 141.333 379.875 141.878 379.631C142.432 379.379 142.908 379.001 143.307 378.496L145.016 380.352C144.739 380.75 144.361 381.133 143.88 381.499C143.408 381.865 142.839 382.166 142.171 382.402C141.504 382.63 140.743 382.744 139.889 382.744ZM150.826 372.173V382.5H147.311V369.292H150.619L150.826 372.173ZM154.806 369.207L154.745 372.466C154.574 372.441 154.366 372.421 154.122 372.405C153.886 372.38 153.67 372.368 153.475 372.368C152.979 372.368 152.547 372.433 152.181 372.563C151.823 372.686 151.522 372.869 151.278 373.113C151.042 373.357 150.863 373.654 150.741 374.004C150.627 374.354 150.562 374.753 150.545 375.2L149.837 374.98C149.837 374.126 149.923 373.341 150.094 372.625C150.265 371.9 150.513 371.27 150.838 370.732C151.172 370.195 151.579 369.78 152.059 369.487C152.539 369.194 153.089 369.048 153.707 369.048C153.902 369.048 154.102 369.064 154.305 369.097C154.509 369.121 154.675 369.158 154.806 369.207ZM163.18 379.521V373.638C163.18 373.215 163.111 372.852 162.972 372.551C162.834 372.242 162.618 372.002 162.325 371.831C162.04 371.66 161.67 371.575 161.214 371.575C160.824 371.575 160.486 371.644 160.201 371.782C159.916 371.912 159.697 372.104 159.542 372.356C159.387 372.6 159.31 372.889 159.31 373.223H155.794C155.794 372.661 155.925 372.128 156.185 371.624C156.445 371.119 156.824 370.675 157.32 370.293C157.817 369.902 158.407 369.597 159.09 369.377C159.782 369.158 160.555 369.048 161.41 369.048C162.435 369.048 163.347 369.219 164.144 369.561C164.942 369.902 165.568 370.415 166.024 371.099C166.488 371.782 166.72 372.637 166.72 373.662V379.314C166.72 380.038 166.764 380.632 166.854 381.096C166.944 381.552 167.074 381.951 167.245 382.292V382.5H163.692C163.521 382.142 163.391 381.694 163.302 381.157C163.22 380.612 163.18 380.067 163.18 379.521ZM163.644 374.456L163.668 376.445H161.703C161.239 376.445 160.836 376.498 160.494 376.604C160.152 376.71 159.872 376.86 159.652 377.056C159.432 377.243 159.269 377.463 159.164 377.715C159.066 377.967 159.017 378.244 159.017 378.545C159.017 378.846 159.086 379.119 159.225 379.363C159.363 379.599 159.562 379.786 159.823 379.924C160.083 380.055 160.388 380.12 160.738 380.12C161.267 380.12 161.727 380.014 162.118 379.802C162.508 379.591 162.809 379.33 163.021 379.021C163.241 378.712 163.355 378.419 163.363 378.142L164.291 379.631C164.16 379.965 163.981 380.311 163.753 380.669C163.534 381.027 163.253 381.365 162.911 381.682C162.569 381.991 162.158 382.248 161.678 382.451C161.198 382.646 160.628 382.744 159.969 382.744C159.131 382.744 158.37 382.577 157.687 382.244C157.011 381.902 156.474 381.434 156.075 380.84C155.685 380.238 155.489 379.554 155.489 378.789C155.489 378.097 155.619 377.483 155.88 376.946C156.14 376.409 156.523 375.957 157.027 375.591C157.54 375.216 158.179 374.936 158.944 374.749C159.709 374.553 160.596 374.456 161.605 374.456H163.644ZM172.872 372.112V382.5H169.356V369.292H172.652L172.872 372.112ZM172.359 375.432H171.407C171.407 374.456 171.533 373.577 171.786 372.795C172.038 372.006 172.392 371.335 172.848 370.781C173.303 370.22 173.845 369.792 174.471 369.5C175.106 369.198 175.814 369.048 176.595 369.048C177.214 369.048 177.779 369.137 178.292 369.316C178.805 369.495 179.244 369.78 179.61 370.171C179.985 370.562 180.27 371.078 180.465 371.721C180.668 372.364 180.77 373.149 180.77 374.077V382.5H177.23V374.065C177.23 373.479 177.149 373.023 176.986 372.698C176.823 372.372 176.583 372.144 176.266 372.014C175.956 371.876 175.574 371.807 175.118 371.807C174.646 371.807 174.235 371.9 173.885 372.087C173.543 372.275 173.259 372.535 173.031 372.869C172.811 373.194 172.644 373.577 172.53 374.016C172.416 374.456 172.359 374.928 172.359 375.432ZM188.9 379.998C189.331 379.998 189.714 379.916 190.047 379.753C190.381 379.583 190.641 379.347 190.829 379.045C191.024 378.736 191.126 378.374 191.134 377.959H194.442C194.434 378.887 194.186 379.713 193.697 380.437C193.209 381.153 192.554 381.719 191.732 382.134C190.91 382.541 189.99 382.744 188.973 382.744C187.948 382.744 187.053 382.573 186.288 382.231C185.531 381.89 184.9 381.418 184.396 380.815C183.891 380.205 183.513 379.497 183.26 378.691C183.008 377.878 182.882 377.007 182.882 376.079V375.725C182.882 374.789 183.008 373.918 183.26 373.113C183.513 372.299 183.891 371.591 184.396 370.989C184.9 370.378 185.531 369.902 186.288 369.561C187.044 369.219 187.931 369.048 188.949 369.048C190.031 369.048 190.979 369.255 191.793 369.67C192.615 370.085 193.258 370.68 193.722 371.453C194.194 372.218 194.434 373.125 194.442 374.175H191.134C191.126 373.735 191.032 373.337 190.853 372.979C190.682 372.62 190.43 372.336 190.096 372.124C189.771 371.904 189.368 371.794 188.888 371.794C188.375 371.794 187.956 371.904 187.63 372.124C187.305 372.336 187.053 372.629 186.874 373.003C186.694 373.369 186.568 373.788 186.495 374.26C186.43 374.724 186.397 375.212 186.397 375.725V376.079C186.397 376.592 186.43 377.084 186.495 377.556C186.56 378.028 186.682 378.447 186.861 378.813C187.049 379.18 187.305 379.469 187.63 379.68C187.956 379.892 188.379 379.998 188.9 379.998ZM203.609 379.521V373.638C203.609 373.215 203.54 372.852 203.402 372.551C203.264 372.242 203.048 372.002 202.755 371.831C202.47 371.66 202.1 371.575 201.644 371.575C201.253 371.575 200.916 371.644 200.631 371.782C200.346 371.912 200.126 372.104 199.972 372.356C199.817 372.6 199.74 372.889 199.74 373.223H196.224C196.224 372.661 196.354 372.128 196.615 371.624C196.875 371.119 197.254 370.675 197.75 370.293C198.246 369.902 198.836 369.597 199.52 369.377C200.212 369.158 200.985 369.048 201.839 369.048C202.865 369.048 203.776 369.219 204.574 369.561C205.371 369.902 205.998 370.415 206.454 371.099C206.917 371.782 207.149 372.637 207.149 373.662V379.314C207.149 380.038 207.194 380.632 207.284 381.096C207.373 381.552 207.503 381.951 207.674 382.292V382.5H204.122C203.951 382.142 203.821 381.694 203.731 381.157C203.65 380.612 203.609 380.067 203.609 379.521ZM204.073 374.456L204.098 376.445H202.132C201.668 376.445 201.266 376.498 200.924 376.604C200.582 376.71 200.301 376.86 200.082 377.056C199.862 377.243 199.699 377.463 199.593 377.715C199.496 377.967 199.447 378.244 199.447 378.545C199.447 378.846 199.516 379.119 199.654 379.363C199.793 379.599 199.992 379.786 200.252 379.924C200.513 380.055 200.818 380.12 201.168 380.12C201.697 380.12 202.157 380.014 202.547 379.802C202.938 379.591 203.239 379.33 203.451 379.021C203.67 378.712 203.784 378.419 203.792 378.142L204.72 379.631C204.59 379.965 204.411 380.311 204.183 380.669C203.963 381.027 203.683 381.365 203.341 381.682C202.999 381.991 202.588 382.248 202.108 382.451C201.628 382.646 201.058 382.744 200.399 382.744C199.561 382.744 198.8 382.577 198.116 382.244C197.441 381.902 196.904 381.434 196.505 380.84C196.114 380.238 195.919 379.554 195.919 378.789C195.919 378.097 196.049 377.483 196.31 376.946C196.57 376.409 196.952 375.957 197.457 375.591C197.97 375.216 198.609 374.936 199.374 374.749C200.139 374.553 201.026 374.456 202.035 374.456H204.073ZM213.302 372.112V382.5H209.786V369.292H213.082L213.302 372.112ZM212.789 375.432H211.837C211.837 374.456 211.963 373.577 212.215 372.795C212.468 372.006 212.822 371.335 213.277 370.781C213.733 370.22 214.274 369.792 214.901 369.5C215.536 369.198 216.244 369.048 217.025 369.048C217.643 369.048 218.209 369.137 218.722 369.316C219.234 369.495 219.674 369.78 220.04 370.171C220.414 370.562 220.699 371.078 220.895 371.721C221.098 372.364 221.2 373.149 221.2 374.077V382.5H217.66V374.065C217.66 373.479 217.578 373.023 217.416 372.698C217.253 372.372 217.013 372.144 216.695 372.014C216.386 371.876 216.004 371.807 215.548 371.807C215.076 371.807 214.665 371.9 214.315 372.087C213.973 372.275 213.688 372.535 213.46 372.869C213.241 373.194 213.074 373.577 212.96 374.016C212.846 374.456 212.789 374.928 212.789 375.432ZM232.235 369.292H235.421V382.061C235.421 383.265 235.152 384.286 234.615 385.125C234.086 385.971 233.346 386.61 232.394 387.041C231.441 387.48 230.335 387.7 229.073 387.7C228.52 387.7 227.934 387.627 227.315 387.48C226.705 387.334 226.119 387.106 225.558 386.797C225.004 386.488 224.54 386.097 224.166 385.625L225.716 383.55C226.123 384.022 226.595 384.388 227.132 384.648C227.669 384.917 228.264 385.051 228.915 385.051C229.549 385.051 230.086 384.933 230.526 384.697C230.965 384.469 231.303 384.132 231.539 383.684C231.775 383.245 231.893 382.712 231.893 382.085V372.344L232.235 369.292ZM223.348 376.055V375.798C223.348 374.789 223.47 373.874 223.714 373.052C223.967 372.222 224.321 371.51 224.776 370.916C225.24 370.321 225.802 369.862 226.461 369.536C227.12 369.211 227.865 369.048 228.695 369.048C229.574 369.048 230.31 369.211 230.904 369.536C231.498 369.862 231.987 370.326 232.369 370.928C232.752 371.522 233.049 372.226 233.26 373.04C233.48 373.845 233.651 374.728 233.773 375.688V376.25C233.651 377.17 233.468 378.024 233.224 378.813C232.979 379.603 232.658 380.295 232.259 380.889C231.861 381.475 231.364 381.93 230.77 382.256C230.184 382.581 229.484 382.744 228.67 382.744C227.857 382.744 227.12 382.577 226.461 382.244C225.81 381.91 225.252 381.442 224.789 380.84C224.325 380.238 223.967 379.53 223.714 378.716C223.47 377.902 223.348 377.015 223.348 376.055ZM226.864 375.798V376.055C226.864 376.6 226.917 377.109 227.022 377.581C227.128 378.053 227.291 378.472 227.511 378.838C227.739 379.196 228.019 379.477 228.353 379.68C228.695 379.875 229.098 379.973 229.562 379.973C230.204 379.973 230.729 379.839 231.136 379.57C231.543 379.294 231.848 378.915 232.052 378.435C232.255 377.955 232.373 377.402 232.406 376.775V375.176C232.389 374.663 232.32 374.203 232.198 373.796C232.076 373.381 231.905 373.027 231.686 372.734C231.466 372.441 231.181 372.214 230.831 372.051C230.481 371.888 230.066 371.807 229.586 371.807C229.122 371.807 228.719 371.912 228.377 372.124C228.044 372.327 227.763 372.608 227.535 372.966C227.315 373.324 227.149 373.748 227.035 374.236C226.921 374.716 226.864 375.237 226.864 375.798ZM245.284 379.521V373.638C245.284 373.215 245.215 372.852 245.077 372.551C244.938 372.242 244.723 372.002 244.43 371.831C244.145 371.66 243.775 371.575 243.319 371.575C242.928 371.575 242.59 371.644 242.306 371.782C242.021 371.912 241.801 372.104 241.646 372.356C241.492 372.6 241.415 372.889 241.415 373.223H237.899C237.899 372.661 238.029 372.128 238.29 371.624C238.55 371.119 238.928 370.675 239.425 370.293C239.921 369.902 240.511 369.597 241.195 369.377C241.887 369.158 242.66 369.048 243.514 369.048C244.54 369.048 245.451 369.219 246.249 369.561C247.046 369.902 247.673 370.415 248.128 371.099C248.592 371.782 248.824 372.637 248.824 373.662V379.314C248.824 380.038 248.869 380.632 248.958 381.096C249.048 381.552 249.178 381.951 249.349 382.292V382.5H245.797C245.626 382.142 245.496 381.694 245.406 381.157C245.325 380.612 245.284 380.067 245.284 379.521ZM245.748 374.456L245.772 376.445H243.807C243.343 376.445 242.94 376.498 242.599 376.604C242.257 376.71 241.976 376.86 241.756 377.056C241.537 377.243 241.374 377.463 241.268 377.715C241.17 377.967 241.122 378.244 241.122 378.545C241.122 378.846 241.191 379.119 241.329 379.363C241.467 379.599 241.667 379.786 241.927 379.924C242.188 380.055 242.493 380.12 242.843 380.12C243.372 380.12 243.832 380.014 244.222 379.802C244.613 379.591 244.914 379.33 245.125 379.021C245.345 378.712 245.459 378.419 245.467 378.142L246.395 379.631C246.265 379.965 246.086 380.311 245.858 380.669C245.638 381.027 245.357 381.365 245.016 381.682C244.674 381.991 244.263 382.248 243.783 382.451C243.303 382.646 242.733 382.744 242.074 382.744C241.236 382.744 240.475 382.577 239.791 382.244C239.116 381.902 238.578 381.434 238.18 380.84C237.789 380.238 237.594 379.554 237.594 378.789C237.594 378.097 237.724 377.483 237.984 376.946C238.245 376.409 238.627 375.957 239.132 375.591C239.645 375.216 240.283 374.936 241.048 374.749C241.813 374.553 242.7 374.456 243.709 374.456H245.748ZM254.977 372.112V382.5H251.461V369.292H254.757L254.977 372.112ZM254.464 375.432H253.512C253.512 374.456 253.638 373.577 253.89 372.795C254.142 372.006 254.496 371.335 254.952 370.781C255.408 370.22 255.949 369.792 256.576 369.5C257.21 369.198 257.918 369.048 258.7 369.048C259.318 369.048 259.884 369.137 260.396 369.316C260.909 369.495 261.349 369.78 261.715 370.171C262.089 370.562 262.374 371.078 262.569 371.721C262.773 372.364 262.875 373.149 262.875 374.077V382.5H259.334V374.065C259.334 373.479 259.253 373.023 259.09 372.698C258.928 372.372 258.688 372.144 258.37 372.014C258.061 371.876 257.678 371.807 257.223 371.807C256.751 371.807 256.34 371.9 255.99 372.087C255.648 372.275 255.363 372.535 255.135 372.869C254.916 373.194 254.749 373.577 254.635 374.016C254.521 374.456 254.464 374.928 254.464 375.432Z" fill="black"/>
<rect x="52.5" y="310.5" width="276" height="129" rx="19" stroke="#4A7C88" stroke-width="2"/>
<path d="M192.194 465.905C191.257 465.365 189.735 465.365 188.798 465.905L179.203 471.44C178.266 471.98 178.266 472.858 179.203 473.399C180.14 473.939 181.662 473.939 182.599 473.399L188.101 470.225V544.116C188.101 544.882 189.173 545.5 190.5 545.5C191.827 545.5 192.899 544.882 192.899 544.116V470.225L198.401 473.399C199.338 473.939 200.86 473.939 201.797 473.399C202.734 472.858 202.734 471.98 201.797 471.44L192.202 465.905H192.194Z" fill="#4A7C88"/>
<rect x="52.5" y="571.5" width="276" height="129" rx="19" fill="white"/>
<path d="M162.013 640.644V643.5H153.065V640.644H162.013ZM154.249 625.727V643.5H150.587V625.727H154.249ZM163.331 637.03V636.774C163.331 635.806 163.469 634.914 163.746 634.101C164.023 633.279 164.426 632.567 164.955 631.964C165.484 631.362 166.135 630.894 166.908 630.561C167.681 630.219 168.568 630.048 169.569 630.048C170.57 630.048 171.461 630.219 172.242 630.561C173.023 630.894 173.679 631.362 174.208 631.964C174.745 632.567 175.152 633.279 175.428 634.101C175.705 634.914 175.843 635.806 175.843 636.774V637.03C175.843 637.991 175.705 638.882 175.428 639.704C175.152 640.517 174.745 641.229 174.208 641.84C173.679 642.442 173.028 642.91 172.254 643.244C171.481 643.577 170.594 643.744 169.593 643.744C168.592 643.744 167.701 643.577 166.92 643.244C166.147 642.91 165.492 642.442 164.955 641.84C164.426 641.229 164.023 640.517 163.746 639.704C163.469 638.882 163.331 637.991 163.331 637.03ZM166.847 636.774V637.03C166.847 637.584 166.896 638.1 166.993 638.581C167.091 639.061 167.245 639.484 167.457 639.85C167.677 640.208 167.962 640.489 168.312 640.692C168.661 640.896 169.089 640.998 169.593 640.998C170.082 640.998 170.501 640.896 170.851 640.692C171.201 640.489 171.481 640.208 171.693 639.85C171.904 639.484 172.059 639.061 172.157 638.581C172.263 638.1 172.315 637.584 172.315 637.03V636.774C172.315 636.237 172.263 635.732 172.157 635.26C172.059 634.78 171.9 634.357 171.681 633.991C171.469 633.616 171.188 633.323 170.838 633.112C170.488 632.9 170.065 632.794 169.569 632.794C169.072 632.794 168.649 632.9 168.299 633.112C167.958 633.323 167.677 633.616 167.457 633.991C167.245 634.357 167.091 634.78 166.993 635.26C166.896 635.732 166.847 636.237 166.847 636.774ZM181.52 624.738V643.5H178.004V624.738H181.52ZM189.845 630.292L184.107 636.835L181.031 639.948L179.75 637.409L182.191 634.308L185.621 630.292H189.845ZM186.195 643.5L182.289 637.396L184.718 635.272L190.248 643.5H186.195ZM198.487 640.521V634.638C198.487 634.215 198.418 633.852 198.28 633.551C198.141 633.242 197.926 633.002 197.633 632.831C197.348 632.66 196.978 632.575 196.522 632.575C196.131 632.575 195.794 632.644 195.509 632.782C195.224 632.912 195.004 633.104 194.85 633.356C194.695 633.6 194.618 633.889 194.618 634.223H191.102C191.102 633.661 191.232 633.128 191.493 632.624C191.753 632.119 192.132 631.675 192.628 631.293C193.124 630.902 193.714 630.597 194.398 630.377C195.09 630.158 195.863 630.048 196.717 630.048C197.743 630.048 198.654 630.219 199.452 630.561C200.249 630.902 200.876 631.415 201.332 632.099C201.795 632.782 202.027 633.637 202.027 634.662V640.314C202.027 641.038 202.072 641.632 202.162 642.096C202.251 642.552 202.381 642.951 202.552 643.292V643.5H199C198.829 643.142 198.699 642.694 198.609 642.157C198.528 641.612 198.487 641.067 198.487 640.521ZM198.951 635.456L198.976 637.445H197.01C196.546 637.445 196.144 637.498 195.802 637.604C195.46 637.71 195.179 637.86 194.959 638.056C194.74 638.243 194.577 638.463 194.471 638.715C194.374 638.967 194.325 639.244 194.325 639.545C194.325 639.846 194.394 640.119 194.532 640.363C194.671 640.599 194.87 640.786 195.13 640.924C195.391 641.055 195.696 641.12 196.046 641.12C196.575 641.12 197.035 641.014 197.425 640.802C197.816 640.591 198.117 640.33 198.329 640.021C198.548 639.712 198.662 639.419 198.67 639.142L199.598 640.631C199.468 640.965 199.289 641.311 199.061 641.669C198.841 642.027 198.561 642.365 198.219 642.682C197.877 642.991 197.466 643.248 196.986 643.451C196.506 643.646 195.936 643.744 195.277 643.744C194.439 643.744 193.678 643.577 192.994 643.244C192.319 642.902 191.782 642.434 191.383 641.84C190.992 641.238 190.797 640.554 190.797 639.789C190.797 639.097 190.927 638.483 191.188 637.946C191.448 637.409 191.83 636.957 192.335 636.591C192.848 636.216 193.486 635.936 194.251 635.749C195.016 635.553 195.903 635.456 196.913 635.456H198.951ZM208.448 624.75V643.5H204.92V624.75H208.448ZM215.064 630.292V643.5H211.537V630.292H215.064ZM211.317 626.85C211.317 626.337 211.496 625.914 211.854 625.58C212.212 625.246 212.692 625.08 213.294 625.08C213.889 625.08 214.365 625.246 214.723 625.58C215.089 625.914 215.272 626.337 215.272 626.85C215.272 627.362 215.089 627.785 214.723 628.119C214.365 628.453 213.889 628.62 213.294 628.62C212.692 628.62 212.212 628.453 211.854 628.119C211.496 627.785 211.317 627.362 211.317 626.85ZM224.439 630.292V632.782H216.749V630.292H224.439ZM218.653 627.033H222.169V639.521C222.169 639.903 222.218 640.196 222.315 640.399C222.421 640.603 222.576 640.745 222.779 640.827C222.983 640.9 223.239 640.937 223.548 640.937C223.768 640.937 223.963 640.928 224.134 640.912C224.313 640.888 224.464 640.863 224.586 640.839L224.598 643.427C224.297 643.524 223.972 643.602 223.622 643.659C223.272 643.716 222.885 643.744 222.462 643.744C221.689 643.744 221.013 643.618 220.436 643.366C219.866 643.105 219.426 642.69 219.117 642.121C218.808 641.551 218.653 640.802 218.653 639.875V627.033ZM230.152 630.292V643.5H226.625V630.292H230.152ZM226.405 626.85C226.405 626.337 226.584 625.914 226.942 625.58C227.3 625.246 227.78 625.08 228.382 625.08C228.976 625.08 229.452 625.246 229.811 625.58C230.177 625.914 230.36 626.337 230.36 626.85C230.36 627.362 230.177 627.785 229.811 628.119C229.452 628.453 228.976 628.62 228.382 628.62C227.78 628.62 227.3 628.453 226.942 628.119C226.584 627.785 226.405 627.362 226.405 626.85Z" fill="black"/>
<rect x="52.5" y="571.5" width="276" height="129" rx="19" stroke="#4A7C88" stroke-width="2"/>
<path d="M434.095 117.694C434.635 116.757 434.635 115.235 434.095 114.298L428.56 104.703C428.02 103.766 427.142 103.766 426.601 104.703C426.061 105.64 426.061 107.162 426.601 108.099L429.775 113.601H355.884C355.118 113.601 354.5 114.673 354.5 116C354.5 117.327 355.118 118.399 355.884 118.399H429.775L426.601 123.901C426.061 124.838 426.061 126.36 426.601 127.297C427.142 128.234 428.02 128.234 428.56 127.297L434.095 117.702V117.694Z" fill="#4A7C88"/>
<path d="M434.095 635.694C434.635 634.757 434.635 633.235 434.095 632.298L428.56 622.703C428.02 621.766 427.142 621.766 426.601 622.703C426.061 623.64 426.061 625.162 426.601 626.099L429.775 631.601H355.884C355.118 631.601 354.5 632.673 354.5 634C354.5 635.327 355.118 636.399 355.884 636.399H429.775L426.601 641.901C426.061 642.838 426.061 644.36 426.601 645.297C427.142 646.234 428.02 646.234 428.56 645.297L434.095 635.702V635.694Z" fill="#4A7C88"/>
<rect x="460.5" y="49.5" width="287" height="129" rx="19" fill="white"/>
<path d="M514.749 103.727V121.5H511.087V103.727H514.749ZM525.394 103.727L518.35 112.503L514.285 116.874L513.626 113.407L516.373 109.647L520.901 103.727H525.394ZM521.231 121.5L515.994 113.285L518.704 111.014L525.564 121.5H521.231ZM532.522 121.744C531.497 121.744 530.577 121.581 529.764 121.256C528.95 120.922 528.258 120.462 527.688 119.876C527.127 119.291 526.696 118.611 526.395 117.838C526.093 117.057 525.943 116.227 525.943 115.348V114.859C525.943 113.858 526.085 112.943 526.37 112.113C526.655 111.283 527.062 110.562 527.591 109.952C528.128 109.342 528.779 108.874 529.544 108.548C530.309 108.215 531.172 108.048 532.132 108.048C533.068 108.048 533.898 108.202 534.622 108.512C535.346 108.821 535.953 109.26 536.441 109.83C536.937 110.4 537.312 111.083 537.564 111.881C537.816 112.67 537.942 113.549 537.942 114.518V115.982H527.444V113.639H534.488V113.37C534.488 112.882 534.398 112.446 534.219 112.064C534.048 111.673 533.788 111.364 533.438 111.136C533.088 110.908 532.64 110.794 532.095 110.794C531.631 110.794 531.233 110.896 530.899 111.1C530.565 111.303 530.293 111.588 530.081 111.954C529.878 112.32 529.723 112.752 529.617 113.248C529.52 113.736 529.471 114.273 529.471 114.859V115.348C529.471 115.877 529.544 116.365 529.69 116.812C529.845 117.26 530.061 117.647 530.337 117.972C530.622 118.298 530.964 118.55 531.363 118.729C531.77 118.908 532.229 118.998 532.742 118.998C533.377 118.998 533.967 118.875 534.512 118.631C535.066 118.379 535.542 118.001 535.94 117.496L537.649 119.352C537.373 119.75 536.994 120.133 536.514 120.499C536.042 120.865 535.472 121.166 534.805 121.402C534.138 121.63 533.377 121.744 532.522 121.744ZM547.085 117.85C547.085 117.598 547.012 117.37 546.866 117.167C546.719 116.963 546.447 116.776 546.048 116.605C545.657 116.426 545.092 116.263 544.351 116.117C543.684 115.97 543.061 115.787 542.483 115.567C541.914 115.34 541.417 115.067 540.994 114.75C540.579 114.432 540.254 114.058 540.018 113.626C539.782 113.187 539.664 112.687 539.664 112.125C539.664 111.572 539.782 111.051 540.018 110.562C540.262 110.074 540.608 109.643 541.055 109.269C541.511 108.886 542.064 108.589 542.715 108.377C543.375 108.158 544.115 108.048 544.937 108.048C546.084 108.048 547.069 108.231 547.891 108.597C548.721 108.963 549.356 109.468 549.795 110.111C550.243 110.746 550.467 111.47 550.467 112.284H546.951C546.951 111.942 546.878 111.637 546.731 111.368C546.593 111.091 546.373 110.876 546.072 110.721C545.779 110.558 545.397 110.477 544.925 110.477C544.534 110.477 544.196 110.546 543.912 110.685C543.627 110.815 543.407 110.994 543.252 111.222C543.106 111.441 543.033 111.686 543.033 111.954C543.033 112.158 543.073 112.341 543.155 112.503C543.244 112.658 543.387 112.8 543.582 112.931C543.777 113.061 544.03 113.183 544.339 113.297C544.656 113.403 545.047 113.5 545.511 113.59C546.463 113.785 547.313 114.042 548.062 114.359C548.811 114.668 549.405 115.091 549.844 115.628C550.284 116.157 550.503 116.853 550.503 117.716C550.503 118.302 550.373 118.839 550.113 119.327C549.852 119.815 549.478 120.243 548.99 120.609C548.501 120.967 547.916 121.248 547.232 121.451C546.556 121.646 545.796 121.744 544.949 121.744C543.72 121.744 542.679 121.524 541.824 121.085C540.978 120.646 540.335 120.088 539.896 119.413C539.464 118.729 539.249 118.029 539.249 117.313H542.581C542.597 117.793 542.719 118.18 542.947 118.473C543.183 118.766 543.48 118.977 543.838 119.107C544.205 119.238 544.599 119.303 545.022 119.303C545.478 119.303 545.857 119.242 546.158 119.12C546.459 118.989 546.687 118.819 546.841 118.607C547.004 118.387 547.085 118.135 547.085 117.85ZM558.865 121.744C557.84 121.744 556.92 121.581 556.106 121.256C555.293 120.922 554.601 120.462 554.031 119.876C553.47 119.291 553.038 118.611 552.737 117.838C552.436 117.057 552.286 116.227 552.286 115.348V114.859C552.286 113.858 552.428 112.943 552.713 112.113C552.998 111.283 553.405 110.562 553.934 109.952C554.471 109.342 555.122 108.874 555.887 108.548C556.652 108.215 557.514 108.048 558.475 108.048C559.41 108.048 560.241 108.202 560.965 108.512C561.689 108.821 562.295 109.26 562.784 109.83C563.28 110.4 563.654 111.083 563.907 111.881C564.159 112.67 564.285 113.549 564.285 114.518V115.982H553.787V113.639H560.831V113.37C560.831 112.882 560.741 112.446 560.562 112.064C560.391 111.673 560.131 111.364 559.781 111.136C559.431 110.908 558.983 110.794 558.438 110.794C557.974 110.794 557.575 110.896 557.242 111.1C556.908 111.303 556.635 111.588 556.424 111.954C556.22 112.32 556.066 112.752 555.96 113.248C555.862 113.736 555.813 114.273 555.813 114.859V115.348C555.813 115.877 555.887 116.365 556.033 116.812C556.188 117.26 556.403 117.647 556.68 117.972C556.965 118.298 557.307 118.55 557.706 118.729C558.112 118.908 558.572 118.998 559.085 118.998C559.72 118.998 560.31 118.875 560.855 118.631C561.408 118.379 561.884 118.001 562.283 117.496L563.992 119.352C563.715 119.75 563.337 120.133 562.857 120.499C562.385 120.865 561.815 121.166 561.148 121.402C560.481 121.63 559.72 121.744 558.865 121.744ZM574.087 118.619V102.75H577.627V121.5H574.441L574.087 118.619ZM565.738 115.055V114.798C565.738 113.789 565.852 112.874 566.08 112.052C566.307 111.222 566.641 110.51 567.081 109.916C567.52 109.321 568.061 108.862 568.704 108.536C569.347 108.211 570.079 108.048 570.901 108.048C571.674 108.048 572.35 108.211 572.928 108.536C573.514 108.862 574.01 109.326 574.417 109.928C574.832 110.522 575.166 111.226 575.418 112.04C575.67 112.845 575.853 113.728 575.967 114.688V115.25C575.853 116.17 575.67 117.024 575.418 117.813C575.166 118.603 574.832 119.295 574.417 119.889C574.01 120.475 573.514 120.93 572.928 121.256C572.342 121.581 571.658 121.744 570.877 121.744C570.055 121.744 569.323 121.577 568.68 121.244C568.045 120.91 567.508 120.442 567.068 119.84C566.637 119.238 566.307 118.53 566.08 117.716C565.852 116.902 565.738 116.015 565.738 115.055ZM569.253 114.798V115.055C569.253 115.6 569.294 116.109 569.375 116.581C569.465 117.053 569.607 117.472 569.803 117.838C570.006 118.196 570.267 118.477 570.584 118.68C570.91 118.875 571.304 118.973 571.768 118.973C572.37 118.973 572.867 118.839 573.257 118.57C573.648 118.294 573.945 117.915 574.148 117.435C574.36 116.955 574.482 116.402 574.515 115.775V114.176C574.49 113.663 574.417 113.203 574.295 112.796C574.181 112.381 574.01 112.027 573.782 111.734C573.562 111.441 573.286 111.214 572.952 111.051C572.627 110.888 572.24 110.807 571.792 110.807C571.337 110.807 570.946 110.912 570.621 111.124C570.295 111.327 570.031 111.608 569.827 111.966C569.632 112.324 569.485 112.748 569.388 113.236C569.298 113.716 569.253 114.237 569.253 114.798ZM584.085 108.292V121.5H580.557V108.292H584.085ZM580.337 104.85C580.337 104.337 580.516 103.914 580.875 103.58C581.233 103.246 581.713 103.08 582.315 103.08C582.909 103.08 583.385 103.246 583.743 103.58C584.109 103.914 584.292 104.337 584.292 104.85C584.292 105.362 584.109 105.785 583.743 106.119C583.385 106.453 582.909 106.62 582.315 106.62C581.713 106.62 581.233 106.453 580.875 106.119C580.516 105.785 580.337 105.362 580.337 104.85ZM594.119 118.521V112.638C594.119 112.215 594.05 111.852 593.912 111.551C593.773 111.242 593.558 111.002 593.265 110.831C592.98 110.66 592.61 110.575 592.154 110.575C591.763 110.575 591.425 110.644 591.141 110.782C590.856 110.912 590.636 111.104 590.481 111.356C590.327 111.6 590.25 111.889 590.25 112.223H586.734C586.734 111.661 586.864 111.128 587.125 110.624C587.385 110.119 587.763 109.675 588.26 109.293C588.756 108.902 589.346 108.597 590.03 108.377C590.722 108.158 591.495 108.048 592.349 108.048C593.375 108.048 594.286 108.219 595.083 108.561C595.881 108.902 596.508 109.415 596.963 110.099C597.427 110.782 597.659 111.637 597.659 112.662V118.314C597.659 119.038 597.704 119.632 597.793 120.096C597.883 120.552 598.013 120.951 598.184 121.292V121.5H594.632C594.461 121.142 594.331 120.694 594.241 120.157C594.16 119.612 594.119 119.067 594.119 118.521ZM594.583 113.456L594.607 115.445H592.642C592.178 115.445 591.775 115.498 591.434 115.604C591.092 115.71 590.811 115.86 590.591 116.056C590.372 116.243 590.209 116.463 590.103 116.715C590.005 116.967 589.957 117.244 589.957 117.545C589.957 117.846 590.026 118.119 590.164 118.363C590.302 118.599 590.502 118.786 590.762 118.924C591.023 119.055 591.328 119.12 591.678 119.12C592.207 119.12 592.667 119.014 593.057 118.802C593.448 118.591 593.749 118.33 593.96 118.021C594.18 117.712 594.294 117.419 594.302 117.142L595.23 118.631C595.1 118.965 594.921 119.311 594.693 119.669C594.473 120.027 594.192 120.365 593.851 120.682C593.509 120.991 593.098 121.248 592.618 121.451C592.138 121.646 591.568 121.744 590.909 121.744C590.07 121.744 589.31 121.577 588.626 121.244C587.951 120.902 587.413 120.434 587.015 119.84C586.624 119.238 586.429 118.554 586.429 117.789C586.429 117.097 586.559 116.483 586.819 115.946C587.08 115.409 587.462 114.957 587.967 114.591C588.479 114.216 589.118 113.936 589.883 113.749C590.648 113.553 591.535 113.456 592.544 113.456H594.583ZM607.498 118.521V112.638C607.498 112.215 607.429 111.852 607.291 111.551C607.152 111.242 606.937 111.002 606.644 110.831C606.359 110.66 605.988 110.575 605.533 110.575C605.142 110.575 604.804 110.644 604.52 110.782C604.235 110.912 604.015 111.104 603.86 111.356C603.706 111.6 603.628 111.889 603.628 112.223H600.113C600.113 111.661 600.243 111.128 600.503 110.624C600.764 110.119 601.142 109.675 601.639 109.293C602.135 108.902 602.725 108.597 603.409 108.377C604.1 108.158 604.874 108.048 605.728 108.048C606.753 108.048 607.665 108.219 608.462 108.561C609.26 108.902 609.887 109.415 610.342 110.099C610.806 110.782 611.038 111.637 611.038 112.662V118.314C611.038 119.038 611.083 119.632 611.172 120.096C611.262 120.552 611.392 120.951 611.563 121.292V121.5H608.011C607.84 121.142 607.71 120.694 607.62 120.157C607.539 119.612 607.498 119.067 607.498 118.521ZM607.962 113.456L607.986 115.445H606.021C605.557 115.445 605.154 115.498 604.812 115.604C604.471 115.71 604.19 115.86 603.97 116.056C603.75 116.243 603.588 116.463 603.482 116.715C603.384 116.967 603.335 117.244 603.335 117.545C603.335 117.846 603.405 118.119 603.543 118.363C603.681 118.599 603.881 118.786 604.141 118.924C604.402 119.055 604.707 119.12 605.057 119.12C605.586 119.12 606.045 119.014 606.436 118.802C606.827 118.591 607.128 118.33 607.339 118.021C607.559 117.712 607.673 117.419 607.681 117.142L608.609 118.631C608.479 118.965 608.3 119.311 608.072 119.669C607.852 120.027 607.571 120.365 607.229 120.682C606.888 120.991 606.477 121.248 605.997 121.451C605.516 121.646 604.947 121.744 604.288 121.744C603.449 121.744 602.688 121.577 602.005 121.244C601.329 120.902 600.792 120.434 600.394 119.84C600.003 119.238 599.808 118.554 599.808 117.789C599.808 117.097 599.938 116.483 600.198 115.946C600.459 115.409 600.841 114.957 601.346 114.591C601.858 114.216 602.497 113.936 603.262 113.749C604.027 113.553 604.914 113.456 605.923 113.456H607.962ZM617.19 111.112V121.5H613.675V108.292H616.971L617.19 111.112ZM616.678 114.432H615.726C615.726 113.456 615.852 112.577 616.104 111.795C616.356 111.006 616.71 110.335 617.166 109.781C617.622 109.22 618.163 108.792 618.79 108.5C619.424 108.198 620.132 108.048 620.914 108.048C621.532 108.048 622.098 108.137 622.61 108.316C623.123 108.495 623.562 108.78 623.929 109.171C624.303 109.562 624.588 110.078 624.783 110.721C624.987 111.364 625.088 112.149 625.088 113.077V121.5H621.548V113.065C621.548 112.479 621.467 112.023 621.304 111.698C621.141 111.372 620.901 111.144 620.584 111.014C620.275 110.876 619.892 110.807 619.437 110.807C618.965 110.807 618.554 110.9 618.204 111.087C617.862 111.275 617.577 111.535 617.349 111.869C617.129 112.194 616.963 112.577 616.849 113.016C616.735 113.456 616.678 113.928 616.678 114.432ZM635.879 103.727H638.98L643.545 116.776L648.111 103.727H651.211L644.791 121.5H642.3L635.879 103.727ZM634.207 103.727H637.295L637.857 116.446V121.5H634.207V103.727ZM649.795 103.727H652.896V121.5H649.234V116.446L649.795 103.727ZM663.699 118.338V108.292H667.215V121.5H663.907L663.699 118.338ZM664.09 115.628L665.127 115.604C665.127 116.483 665.026 117.301 664.822 118.058C664.619 118.806 664.314 119.457 663.907 120.011C663.5 120.556 662.987 120.983 662.369 121.292C661.75 121.594 661.022 121.744 660.184 121.744C659.541 121.744 658.947 121.655 658.401 121.476C657.864 121.288 657.4 121 657.01 120.609C656.627 120.21 656.326 119.701 656.106 119.083C655.895 118.456 655.789 117.704 655.789 116.825V108.292H659.305V116.849C659.305 117.24 659.349 117.569 659.439 117.838C659.537 118.106 659.671 118.326 659.842 118.497C660.013 118.668 660.212 118.79 660.44 118.863C660.676 118.937 660.936 118.973 661.221 118.973C661.945 118.973 662.515 118.827 662.93 118.534C663.353 118.241 663.65 117.842 663.821 117.337C664 116.825 664.09 116.255 664.09 115.628ZM673.416 111.173V121.5H669.9V108.292H673.208L673.416 111.173ZM677.396 108.207L677.334 111.466C677.164 111.441 676.956 111.421 676.712 111.405C676.476 111.38 676.26 111.368 676.065 111.368C675.569 111.368 675.137 111.433 674.771 111.563C674.413 111.686 674.112 111.869 673.868 112.113C673.632 112.357 673.453 112.654 673.331 113.004C673.217 113.354 673.152 113.753 673.135 114.2L672.427 113.98C672.427 113.126 672.513 112.341 672.684 111.625C672.854 110.9 673.103 110.27 673.428 109.732C673.762 109.195 674.169 108.78 674.649 108.487C675.129 108.194 675.678 108.048 676.297 108.048C676.492 108.048 676.692 108.064 676.895 108.097C677.098 108.121 677.265 108.158 677.396 108.207ZM682.767 108.292V121.5H679.239V108.292H682.767ZM679.019 104.85C679.019 104.337 679.198 103.914 679.556 103.58C679.914 103.246 680.394 103.08 680.997 103.08C681.591 103.08 682.067 103.246 682.425 103.58C682.791 103.914 682.974 104.337 682.974 104.85C682.974 105.362 682.791 105.785 682.425 106.119C682.067 106.453 681.591 106.62 680.997 106.62C680.394 106.62 679.914 106.453 679.556 106.119C679.198 105.785 679.019 105.362 679.019 104.85ZM693.472 118.619V102.75H697.012V121.5H693.826L693.472 118.619ZM685.123 115.055V114.798C685.123 113.789 685.236 112.874 685.464 112.052C685.692 111.222 686.026 110.51 686.465 109.916C686.905 109.321 687.446 108.862 688.089 108.536C688.732 108.211 689.464 108.048 690.286 108.048C691.059 108.048 691.735 108.211 692.312 108.536C692.898 108.862 693.395 109.326 693.802 109.928C694.217 110.522 694.55 111.226 694.803 112.04C695.055 112.845 695.238 113.728 695.352 114.688V115.25C695.238 116.17 695.055 117.024 694.803 117.813C694.55 118.603 694.217 119.295 693.802 119.889C693.395 120.475 692.898 120.93 692.312 121.256C691.727 121.581 691.043 121.744 690.262 121.744C689.44 121.744 688.707 121.577 688.064 121.244C687.43 120.91 686.893 120.442 686.453 119.84C686.022 119.238 685.692 118.53 685.464 117.716C685.236 116.902 685.123 116.015 685.123 115.055ZM688.638 114.798V115.055C688.638 115.6 688.679 116.109 688.76 116.581C688.85 117.053 688.992 117.472 689.188 117.838C689.391 118.196 689.651 118.477 689.969 118.68C690.294 118.875 690.689 118.973 691.153 118.973C691.755 118.973 692.251 118.839 692.642 118.57C693.033 118.294 693.33 117.915 693.533 117.435C693.745 116.955 693.867 116.402 693.899 115.775V114.176C693.875 113.663 693.802 113.203 693.68 112.796C693.566 112.381 693.395 112.027 693.167 111.734C692.947 111.441 692.671 111.214 692.337 111.051C692.011 110.888 691.625 110.807 691.177 110.807C690.722 110.807 690.331 110.912 690.005 111.124C689.68 111.327 689.415 111.608 689.212 111.966C689.017 112.324 688.87 112.748 688.772 113.236C688.683 113.716 688.638 114.237 688.638 114.798Z" fill="black"/>
<rect x="460.5" y="49.5" width="287" height="129" rx="19" stroke="#4A7C88" stroke-width="2"/>
<path d="M602.306 284.095C603.243 284.635 604.765 284.635 605.702 284.095L615.297 278.56C616.234 278.02 616.234 277.142 615.297 276.601C614.36 276.061 612.838 276.061 611.901 276.601L606.399 279.775V205.884C606.399 205.118 605.327 204.5 604 204.5C602.673 204.5 601.601 205.118 601.601 205.884V279.775L596.099 276.601C595.162 276.061 593.64 276.061 592.703 276.601C591.766 277.142 591.766 278.02 592.703 278.56L602.298 284.095H602.306Z" fill="#4A7C88"/>
<rect x="460.5" y="310.5" width="287" height="129" rx="19" fill="white"/>
<path d="M555.508 376.165H550.979V373.308H555.508C556.208 373.308 556.778 373.194 557.217 372.966C557.657 372.73 557.978 372.405 558.182 371.99C558.385 371.575 558.487 371.107 558.487 370.586C558.487 370.057 558.385 369.565 558.182 369.109C557.978 368.653 557.657 368.287 557.217 368.01C556.778 367.734 556.208 367.595 555.508 367.595H552.249V382.5H548.587V364.727H555.508C556.9 364.727 558.092 364.979 559.085 365.483C560.086 365.98 560.851 366.667 561.38 367.546C561.909 368.425 562.173 369.43 562.173 370.562C562.173 371.709 561.909 372.702 561.38 373.54C560.851 374.378 560.086 375.025 559.085 375.481C558.092 375.937 556.9 376.165 555.508 376.165ZM567.996 372.173V382.5H564.48V369.292H567.789L567.996 372.173ZM571.976 369.207L571.915 372.466C571.744 372.441 571.536 372.421 571.292 372.405C571.056 372.38 570.84 372.368 570.645 372.368C570.149 372.368 569.717 372.433 569.351 372.563C568.993 372.686 568.692 372.869 568.448 373.113C568.212 373.357 568.033 373.654 567.911 374.004C567.797 374.354 567.732 374.753 567.715 375.2L567.007 374.98C567.007 374.126 567.093 373.341 567.264 372.625C567.435 371.9 567.683 371.27 568.008 370.732C568.342 370.195 568.749 369.78 569.229 369.487C569.709 369.194 570.258 369.048 570.877 369.048C571.072 369.048 571.272 369.064 571.475 369.097C571.679 369.121 571.845 369.158 571.976 369.207ZM580.35 379.521V373.638C580.35 373.215 580.28 372.852 580.142 372.551C580.004 372.242 579.788 372.002 579.495 371.831C579.21 371.66 578.84 371.575 578.384 371.575C577.994 371.575 577.656 371.644 577.371 371.782C577.086 371.912 576.867 372.104 576.712 372.356C576.557 372.6 576.48 372.889 576.48 373.223H572.964C572.964 372.661 573.095 372.128 573.355 371.624C573.615 371.119 573.994 370.675 574.49 370.293C574.987 369.902 575.577 369.597 576.26 369.377C576.952 369.158 577.725 369.048 578.58 369.048C579.605 369.048 580.516 369.219 581.314 369.561C582.111 369.902 582.738 370.415 583.194 371.099C583.658 371.782 583.89 372.637 583.89 373.662V379.314C583.89 380.038 583.934 380.632 584.024 381.096C584.113 381.552 584.244 381.951 584.415 382.292V382.5H580.862C580.691 382.142 580.561 381.694 580.472 381.157C580.39 380.612 580.35 380.067 580.35 379.521ZM580.813 374.456L580.838 376.445H578.873C578.409 376.445 578.006 376.498 577.664 376.604C577.322 376.71 577.042 376.86 576.822 377.056C576.602 377.243 576.439 377.463 576.333 377.715C576.236 377.967 576.187 378.244 576.187 378.545C576.187 378.846 576.256 379.119 576.395 379.363C576.533 379.599 576.732 379.786 576.993 379.924C577.253 380.055 577.558 380.12 577.908 380.12C578.437 380.12 578.897 380.014 579.288 379.802C579.678 379.591 579.979 379.33 580.191 379.021C580.411 378.712 580.525 378.419 580.533 378.142L581.46 379.631C581.33 379.965 581.151 380.311 580.923 380.669C580.704 381.027 580.423 381.365 580.081 381.682C579.739 381.991 579.328 382.248 578.848 382.451C578.368 382.646 577.798 382.744 577.139 382.744C576.301 382.744 575.54 382.577 574.856 382.244C574.181 381.902 573.644 381.434 573.245 380.84C572.854 380.238 572.659 379.554 572.659 378.789C572.659 378.097 572.789 377.483 573.05 376.946C573.31 376.409 573.693 375.957 574.197 375.591C574.71 375.216 575.349 374.936 576.114 374.749C576.879 374.553 577.766 374.456 578.775 374.456H580.813ZM593.741 378.85C593.741 378.598 593.667 378.37 593.521 378.167C593.375 377.963 593.102 377.776 592.703 377.605C592.312 377.426 591.747 377.263 591.006 377.117C590.339 376.97 589.716 376.787 589.139 376.567C588.569 376.34 588.073 376.067 587.649 375.75C587.234 375.432 586.909 375.058 586.673 374.626C586.437 374.187 586.319 373.687 586.319 373.125C586.319 372.572 586.437 372.051 586.673 371.562C586.917 371.074 587.263 370.643 587.71 370.269C588.166 369.886 588.72 369.589 589.371 369.377C590.03 369.158 590.77 369.048 591.592 369.048C592.74 369.048 593.724 369.231 594.546 369.597C595.376 369.963 596.011 370.468 596.451 371.111C596.898 371.746 597.122 372.47 597.122 373.284H593.606C593.606 372.942 593.533 372.637 593.387 372.368C593.248 372.091 593.029 371.876 592.728 371.721C592.435 371.558 592.052 371.477 591.58 371.477C591.189 371.477 590.852 371.546 590.567 371.685C590.282 371.815 590.062 371.994 589.908 372.222C589.761 372.441 589.688 372.686 589.688 372.954C589.688 373.158 589.729 373.341 589.81 373.503C589.9 373.658 590.042 373.8 590.237 373.931C590.433 374.061 590.685 374.183 590.994 374.297C591.312 374.403 591.702 374.5 592.166 374.59C593.118 374.785 593.969 375.042 594.717 375.359C595.466 375.668 596.06 376.091 596.5 376.628C596.939 377.157 597.159 377.853 597.159 378.716C597.159 379.302 597.028 379.839 596.768 380.327C596.508 380.815 596.133 381.243 595.645 381.609C595.157 381.967 594.571 382.248 593.887 382.451C593.212 382.646 592.451 382.744 591.604 382.744C590.376 382.744 589.334 382.524 588.479 382.085C587.633 381.646 586.99 381.088 586.551 380.413C586.119 379.729 585.904 379.029 585.904 378.313H589.236C589.253 378.793 589.375 379.18 589.603 379.473C589.839 379.766 590.136 379.977 590.494 380.107C590.86 380.238 591.255 380.303 591.678 380.303C592.133 380.303 592.512 380.242 592.813 380.12C593.114 379.989 593.342 379.819 593.497 379.607C593.659 379.387 593.741 379.135 593.741 378.85ZM606.57 379.521V373.638C606.57 373.215 606.501 372.852 606.363 372.551C606.224 372.242 606.009 372.002 605.716 371.831C605.431 371.66 605.061 371.575 604.605 371.575C604.214 371.575 603.877 371.644 603.592 371.782C603.307 371.912 603.087 372.104 602.933 372.356C602.778 372.6 602.701 372.889 602.701 373.223H599.185C599.185 372.661 599.315 372.128 599.576 371.624C599.836 371.119 600.215 370.675 600.711 370.293C601.207 369.902 601.797 369.597 602.481 369.377C603.173 369.158 603.946 369.048 604.8 369.048C605.826 369.048 606.737 369.219 607.535 369.561C608.332 369.902 608.959 370.415 609.415 371.099C609.878 371.782 610.11 372.637 610.11 373.662V379.314C610.11 380.038 610.155 380.632 610.245 381.096C610.334 381.552 610.464 381.951 610.635 382.292V382.5H607.083C606.912 382.142 606.782 381.694 606.692 381.157C606.611 380.612 606.57 380.067 606.57 379.521ZM607.034 374.456L607.059 376.445H605.093C604.629 376.445 604.227 376.498 603.885 376.604C603.543 376.71 603.262 376.86 603.042 377.056C602.823 377.243 602.66 377.463 602.554 377.715C602.457 377.967 602.408 378.244 602.408 378.545C602.408 378.846 602.477 379.119 602.615 379.363C602.754 379.599 602.953 379.786 603.213 379.924C603.474 380.055 603.779 380.12 604.129 380.12C604.658 380.12 605.118 380.014 605.508 379.802C605.899 379.591 606.2 379.33 606.412 379.021C606.631 378.712 606.745 378.419 606.753 378.142L607.681 379.631C607.551 379.965 607.372 380.311 607.144 380.669C606.924 381.027 606.644 381.365 606.302 381.682C605.96 381.991 605.549 382.248 605.069 382.451C604.589 382.646 604.019 382.744 603.36 382.744C602.522 382.744 601.761 382.577 601.077 382.244C600.402 381.902 599.865 381.434 599.466 380.84C599.075 380.238 598.88 379.554 598.88 378.789C598.88 378.097 599.01 377.483 599.271 376.946C599.531 376.409 599.913 375.957 600.418 375.591C600.931 375.216 601.569 374.936 602.334 374.749C603.099 374.553 603.986 374.456 604.996 374.456H607.034ZM616.336 372.173V382.5H612.82V369.292H616.128L616.336 372.173ZM620.315 369.207L620.254 372.466C620.083 372.441 619.876 372.421 619.632 372.405C619.396 372.38 619.18 372.368 618.985 372.368C618.488 372.368 618.057 372.433 617.691 372.563C617.333 372.686 617.032 372.869 616.788 373.113C616.552 373.357 616.373 373.654 616.25 374.004C616.137 374.354 616.071 374.753 616.055 375.2L615.347 374.98C615.347 374.126 615.433 373.341 615.604 372.625C615.774 371.9 616.023 371.27 616.348 370.732C616.682 370.195 617.089 369.78 617.569 369.487C618.049 369.194 618.598 369.048 619.217 369.048C619.412 369.048 619.611 369.064 619.815 369.097C620.018 369.121 620.185 369.158 620.315 369.207ZM628.689 379.521V373.638C628.689 373.215 628.62 372.852 628.482 372.551C628.344 372.242 628.128 372.002 627.835 371.831C627.55 371.66 627.18 371.575 626.724 371.575C626.333 371.575 625.996 371.644 625.711 371.782C625.426 371.912 625.206 372.104 625.052 372.356C624.897 372.6 624.82 372.889 624.82 373.223H621.304C621.304 372.661 621.434 372.128 621.695 371.624C621.955 371.119 622.334 370.675 622.83 370.293C623.326 369.902 623.917 369.597 624.6 369.377C625.292 369.158 626.065 369.048 626.919 369.048C627.945 369.048 628.856 369.219 629.654 369.561C630.451 369.902 631.078 370.415 631.534 371.099C631.998 371.782 632.229 372.637 632.229 373.662V379.314C632.229 380.038 632.274 380.632 632.364 381.096C632.453 381.552 632.583 381.951 632.754 382.292V382.5H629.202C629.031 382.142 628.901 381.694 628.812 381.157C628.73 380.612 628.689 380.067 628.689 379.521ZM629.153 374.456L629.178 376.445H627.212C626.749 376.445 626.346 376.498 626.004 376.604C625.662 376.71 625.381 376.86 625.162 377.056C624.942 377.243 624.779 377.463 624.673 377.715C624.576 377.967 624.527 378.244 624.527 378.545C624.527 378.846 624.596 379.119 624.734 379.363C624.873 379.599 625.072 379.786 625.333 379.924C625.593 380.055 625.898 380.12 626.248 380.12C626.777 380.12 627.237 380.014 627.627 379.802C628.018 379.591 628.319 379.33 628.531 379.021C628.75 378.712 628.864 378.419 628.873 378.142L629.8 379.631C629.67 379.965 629.491 380.311 629.263 380.669C629.043 381.027 628.763 381.365 628.421 381.682C628.079 381.991 627.668 382.248 627.188 382.451C626.708 382.646 626.138 382.744 625.479 382.744C624.641 382.744 623.88 382.577 623.196 382.244C622.521 381.902 621.984 381.434 621.585 380.84C621.194 380.238 620.999 379.554 620.999 378.789C620.999 378.097 621.129 377.483 621.39 376.946C621.65 376.409 622.033 375.957 622.537 375.591C623.05 375.216 623.689 374.936 624.454 374.749C625.219 374.553 626.106 374.456 627.115 374.456H629.153ZM638.382 372.112V382.5H634.866V369.292H638.162L638.382 372.112ZM637.869 375.432H636.917C636.917 374.456 637.043 373.577 637.295 372.795C637.548 372.006 637.902 371.335 638.357 370.781C638.813 370.22 639.354 369.792 639.981 369.5C640.616 369.198 641.324 369.048 642.105 369.048C642.723 369.048 643.289 369.137 643.802 369.316C644.314 369.495 644.754 369.78 645.12 370.171C645.494 370.562 645.779 371.078 645.975 371.721C646.178 372.364 646.28 373.149 646.28 374.077V382.5H642.74V374.065C642.74 373.479 642.658 373.023 642.496 372.698C642.333 372.372 642.093 372.144 641.775 372.014C641.466 371.876 641.084 371.807 640.628 371.807C640.156 371.807 639.745 371.9 639.395 372.087C639.053 372.275 638.768 372.535 638.541 372.869C638.321 373.194 638.154 373.577 638.04 374.016C637.926 374.456 637.869 374.928 637.869 375.432ZM656.082 379.521V373.638C656.082 373.215 656.013 372.852 655.875 372.551C655.736 372.242 655.521 372.002 655.228 371.831C654.943 371.66 654.572 371.575 654.117 371.575C653.726 371.575 653.388 371.644 653.104 371.782C652.819 371.912 652.599 372.104 652.444 372.356C652.29 372.6 652.212 372.889 652.212 373.223H648.697C648.697 372.661 648.827 372.128 649.087 371.624C649.348 371.119 649.726 370.675 650.223 370.293C650.719 369.902 651.309 369.597 651.993 369.377C652.684 369.158 653.458 369.048 654.312 369.048C655.337 369.048 656.249 369.219 657.046 369.561C657.844 369.902 658.471 370.415 658.926 371.099C659.39 371.782 659.622 372.637 659.622 373.662V379.314C659.622 380.038 659.667 380.632 659.756 381.096C659.846 381.552 659.976 381.951 660.147 382.292V382.5H656.595C656.424 382.142 656.294 381.694 656.204 381.157C656.123 380.612 656.082 380.067 656.082 379.521ZM656.546 374.456L656.57 376.445H654.605C654.141 376.445 653.738 376.498 653.396 376.604C653.055 376.71 652.774 376.86 652.554 377.056C652.334 377.243 652.172 377.463 652.066 377.715C651.968 377.967 651.919 378.244 651.919 378.545C651.919 378.846 651.989 379.119 652.127 379.363C652.265 379.599 652.465 379.786 652.725 379.924C652.986 380.055 653.291 380.12 653.641 380.12C654.17 380.12 654.629 380.014 655.02 379.802C655.411 379.591 655.712 379.33 655.923 379.021C656.143 378.712 656.257 378.419 656.265 378.142L657.193 379.631C657.063 379.965 656.884 380.311 656.656 380.669C656.436 381.027 656.155 381.365 655.813 381.682C655.472 381.991 655.061 382.248 654.581 382.451C654.1 382.646 653.531 382.744 652.872 382.744C652.033 382.744 651.272 382.577 650.589 382.244C649.913 381.902 649.376 381.434 648.978 380.84C648.587 380.238 648.392 379.554 648.392 378.789C648.392 378.097 648.522 377.483 648.782 376.946C649.043 376.409 649.425 375.957 649.93 375.591C650.442 375.216 651.081 374.936 651.846 374.749C652.611 374.553 653.498 374.456 654.507 374.456H656.546Z" fill="black"/>
<rect x="460.5" y="310.5" width="287" height="129" rx="19" stroke="#4A7C88" stroke-width="2"/>
<path d="M605.694 465.905C604.757 465.365 603.235 465.365 602.298 465.905L592.703 471.44C591.766 471.98 591.766 472.858 592.703 473.399C593.64 473.939 595.162 473.939 596.099 473.399L601.601 470.225V544.116C601.601 544.882 602.673 545.5 604 545.5C605.327 545.5 606.399 544.882 606.399 544.116V470.225L611.901 473.399C612.838 473.939 614.36 473.939 615.297 473.399C616.234 472.858 616.234 471.98 615.297 471.44L605.702 465.905H605.694Z" fill="#4A7C88"/>
<rect x="460.5" y="571.5" width="287" height="129" rx="19" fill="white"/>
<path d="M545.008 637.165H540.479V634.308H545.008C545.708 634.308 546.278 634.194 546.717 633.966C547.157 633.73 547.478 633.405 547.682 632.99C547.885 632.575 547.987 632.107 547.987 631.586C547.987 631.057 547.885 630.565 547.682 630.109C547.478 629.653 547.157 629.287 546.717 629.01C546.278 628.734 545.708 628.595 545.008 628.595H541.749V643.5H538.087V625.727H545.008C546.4 625.727 547.592 625.979 548.585 626.483C549.586 626.98 550.351 627.667 550.88 628.546C551.409 629.425 551.673 630.43 551.673 631.562C551.673 632.709 551.409 633.702 550.88 634.54C550.351 635.378 549.586 636.025 548.585 636.481C547.592 636.937 546.4 637.165 545.008 637.165ZM559.889 643.744C558.863 643.744 557.944 643.581 557.13 643.256C556.316 642.922 555.624 642.462 555.055 641.876C554.493 641.291 554.062 640.611 553.761 639.838C553.46 639.057 553.309 638.227 553.309 637.348V636.859C553.309 635.858 553.451 634.943 553.736 634.113C554.021 633.283 554.428 632.562 554.957 631.952C555.494 631.342 556.145 630.874 556.91 630.548C557.675 630.215 558.538 630.048 559.498 630.048C560.434 630.048 561.264 630.202 561.988 630.512C562.713 630.821 563.319 631.26 563.807 631.83C564.304 632.4 564.678 633.083 564.93 633.881C565.182 634.67 565.309 635.549 565.309 636.518V637.982H554.811V635.639H561.854V635.37C561.854 634.882 561.764 634.446 561.585 634.064C561.415 633.673 561.154 633.364 560.804 633.136C560.454 632.908 560.007 632.794 559.461 632.794C558.998 632.794 558.599 632.896 558.265 633.1C557.931 633.303 557.659 633.588 557.447 633.954C557.244 634.32 557.089 634.752 556.983 635.248C556.886 635.736 556.837 636.273 556.837 636.859V637.348C556.837 637.877 556.91 638.365 557.057 638.812C557.211 639.26 557.427 639.647 557.704 639.972C557.988 640.298 558.33 640.55 558.729 640.729C559.136 640.908 559.596 640.998 560.108 640.998C560.743 640.998 561.333 640.875 561.878 640.631C562.432 640.379 562.908 640.001 563.307 639.496L565.016 641.352C564.739 641.75 564.361 642.133 563.88 642.499C563.408 642.865 562.839 643.166 562.171 643.402C561.504 643.63 560.743 643.744 559.889 643.744ZM570.753 633.112V643.5H567.237V630.292H570.533L570.753 633.112ZM570.24 636.432H569.288C569.288 635.456 569.414 634.577 569.667 633.795C569.919 633.006 570.273 632.335 570.729 631.781C571.184 631.22 571.725 630.792 572.352 630.5C572.987 630.198 573.695 630.048 574.476 630.048C575.095 630.048 575.66 630.137 576.173 630.316C576.686 630.495 577.125 630.78 577.491 631.171C577.866 631.562 578.15 632.078 578.346 632.721C578.549 633.364 578.651 634.149 578.651 635.077V643.5H575.111V635.065C575.111 634.479 575.029 634.023 574.867 633.698C574.704 633.372 574.464 633.144 574.146 633.014C573.837 632.876 573.455 632.807 572.999 632.807C572.527 632.807 572.116 632.9 571.766 633.087C571.424 633.275 571.139 633.535 570.912 633.869C570.692 634.194 570.525 634.577 570.411 635.016C570.297 635.456 570.24 635.928 570.24 636.432ZM587.794 630.292V632.782H580.104V630.292H587.794ZM582.008 627.033H585.523V639.521C585.523 639.903 585.572 640.196 585.67 640.399C585.776 640.603 585.93 640.745 586.134 640.827C586.337 640.9 586.594 640.937 586.903 640.937C587.123 640.937 587.318 640.928 587.489 640.912C587.668 640.888 587.818 640.863 587.94 640.839L587.953 643.427C587.652 643.524 587.326 643.602 586.976 643.659C586.626 643.716 586.24 643.744 585.816 643.744C585.043 643.744 584.368 643.618 583.79 643.366C583.22 643.105 582.781 642.69 582.472 642.121C582.162 641.551 582.008 640.802 582.008 639.875V627.033ZM596.925 640.521V634.638C596.925 634.215 596.856 633.852 596.717 633.551C596.579 633.242 596.363 633.002 596.07 632.831C595.785 632.66 595.415 632.575 594.959 632.575C594.569 632.575 594.231 632.644 593.946 632.782C593.661 632.912 593.442 633.104 593.287 633.356C593.132 633.6 593.055 633.889 593.055 634.223H589.54C589.54 633.661 589.67 633.128 589.93 632.624C590.191 632.119 590.569 631.675 591.065 631.293C591.562 630.902 592.152 630.597 592.835 630.377C593.527 630.158 594.3 630.048 595.155 630.048C596.18 630.048 597.092 630.219 597.889 630.561C598.687 630.902 599.313 631.415 599.769 632.099C600.233 632.782 600.465 633.637 600.465 634.662V640.314C600.465 641.038 600.51 641.632 600.599 642.096C600.689 642.552 600.819 642.951 600.99 643.292V643.5H597.438C597.267 643.142 597.136 642.694 597.047 642.157C596.965 641.612 596.925 641.067 596.925 640.521ZM597.389 635.456L597.413 637.445H595.448C594.984 637.445 594.581 637.498 594.239 637.604C593.897 637.71 593.617 637.86 593.397 638.056C593.177 638.243 593.014 638.463 592.909 638.715C592.811 638.967 592.762 639.244 592.762 639.545C592.762 639.846 592.831 640.119 592.97 640.363C593.108 640.599 593.307 640.786 593.568 640.924C593.828 641.055 594.133 641.12 594.483 641.12C595.012 641.12 595.472 641.014 595.863 640.802C596.253 640.591 596.555 640.33 596.766 640.021C596.986 639.712 597.1 639.419 597.108 639.142L598.036 640.631C597.905 640.965 597.726 641.311 597.499 641.669C597.279 642.027 596.998 642.365 596.656 642.682C596.314 642.991 595.903 643.248 595.423 643.451C594.943 643.646 594.374 643.744 593.714 643.744C592.876 643.744 592.115 643.577 591.432 643.244C590.756 642.902 590.219 642.434 589.82 641.84C589.43 641.238 589.234 640.554 589.234 639.789C589.234 639.097 589.365 638.483 589.625 637.946C589.885 637.409 590.268 636.957 590.772 636.591C591.285 636.216 591.924 635.936 592.689 635.749C593.454 635.553 594.341 635.456 595.35 635.456H597.389ZM606.69 624.738V643.5H603.175V624.738H606.69ZM615.016 630.292L609.278 636.835L606.202 639.948L604.92 637.409L607.362 634.308L610.792 630.292H615.016ZM611.366 643.5L607.459 637.396L609.889 635.272L615.418 643.5H611.366ZM623.67 639.85C623.67 639.598 623.597 639.37 623.451 639.167C623.304 638.963 623.032 638.776 622.633 638.605C622.242 638.426 621.677 638.263 620.936 638.117C620.269 637.97 619.646 637.787 619.068 637.567C618.499 637.34 618.002 637.067 617.579 636.75C617.164 636.432 616.839 636.058 616.603 635.626C616.367 635.187 616.249 634.687 616.249 634.125C616.249 633.572 616.367 633.051 616.603 632.562C616.847 632.074 617.193 631.643 617.64 631.269C618.096 630.886 618.649 630.589 619.3 630.377C619.959 630.158 620.7 630.048 621.522 630.048C622.669 630.048 623.654 630.231 624.476 630.597C625.306 630.963 625.941 631.468 626.38 632.111C626.828 632.746 627.052 633.47 627.052 634.284H623.536C623.536 633.942 623.463 633.637 623.316 633.368C623.178 633.091 622.958 632.876 622.657 632.721C622.364 632.558 621.982 632.477 621.51 632.477C621.119 632.477 620.781 632.546 620.497 632.685C620.212 632.815 619.992 632.994 619.837 633.222C619.691 633.441 619.618 633.686 619.618 633.954C619.618 634.158 619.658 634.341 619.74 634.503C619.829 634.658 619.972 634.8 620.167 634.931C620.362 635.061 620.615 635.183 620.924 635.297C621.241 635.403 621.632 635.5 622.096 635.59C623.048 635.785 623.898 636.042 624.647 636.359C625.396 636.668 625.99 637.091 626.429 637.628C626.869 638.157 627.088 638.853 627.088 639.716C627.088 640.302 626.958 640.839 626.698 641.327C626.437 641.815 626.063 642.243 625.575 642.609C625.086 642.967 624.5 643.248 623.817 643.451C623.141 643.646 622.381 643.744 621.534 643.744C620.305 643.744 619.264 643.524 618.409 643.085C617.563 642.646 616.92 642.088 616.48 641.413C616.049 640.729 615.833 640.029 615.833 639.313H619.166C619.182 639.793 619.304 640.18 619.532 640.473C619.768 640.766 620.065 640.977 620.423 641.107C620.79 641.238 621.184 641.303 621.607 641.303C622.063 641.303 622.442 641.242 622.743 641.12C623.044 640.989 623.272 640.819 623.426 640.607C623.589 640.387 623.67 640.135 623.67 639.85ZM633.082 630.292V643.5H629.554V630.292H633.082ZM629.334 626.85C629.334 626.337 629.514 625.914 629.872 625.58C630.23 625.246 630.71 625.08 631.312 625.08C631.906 625.08 632.382 625.246 632.74 625.58C633.106 625.914 633.29 626.337 633.29 626.85C633.29 627.362 633.106 627.785 632.74 628.119C632.382 628.453 631.906 628.62 631.312 628.62C630.71 628.62 630.23 628.453 629.872 628.119C629.514 627.785 629.334 627.362 629.334 626.85ZM639.503 633.173V643.5H635.987V630.292H639.295L639.503 633.173ZM643.482 630.207L643.421 633.466C643.25 633.441 643.043 633.421 642.799 633.405C642.563 633.38 642.347 633.368 642.152 633.368C641.655 633.368 641.224 633.433 640.858 633.563C640.5 633.686 640.199 633.869 639.955 634.113C639.719 634.357 639.54 634.654 639.417 635.004C639.304 635.354 639.238 635.753 639.222 636.2L638.514 635.98C638.514 635.126 638.6 634.341 638.771 633.625C638.941 632.9 639.19 632.27 639.515 631.732C639.849 631.195 640.256 630.78 640.736 630.487C641.216 630.194 641.765 630.048 642.384 630.048C642.579 630.048 642.778 630.064 642.982 630.097C643.185 630.121 643.352 630.158 643.482 630.207ZM651.856 640.521V634.638C651.856 634.215 651.787 633.852 651.649 633.551C651.511 633.242 651.295 633.002 651.002 632.831C650.717 632.66 650.347 632.575 649.891 632.575C649.5 632.575 649.163 632.644 648.878 632.782C648.593 632.912 648.373 633.104 648.219 633.356C648.064 633.6 647.987 633.889 647.987 634.223H644.471C644.471 633.661 644.601 633.128 644.862 632.624C645.122 632.119 645.501 631.675 645.997 631.293C646.493 630.902 647.083 630.597 647.767 630.377C648.459 630.158 649.232 630.048 650.086 630.048C651.112 630.048 652.023 630.219 652.821 630.561C653.618 630.902 654.245 631.415 654.701 632.099C655.165 632.782 655.396 633.637 655.396 634.662V640.314C655.396 641.038 655.441 641.632 655.531 642.096C655.62 642.552 655.75 642.951 655.921 643.292V643.5H652.369C652.198 643.142 652.068 642.694 651.979 642.157C651.897 641.612 651.856 641.067 651.856 640.521ZM652.32 635.456L652.345 637.445H650.379C649.916 637.445 649.513 637.498 649.171 637.604C648.829 637.71 648.548 637.86 648.329 638.056C648.109 638.243 647.946 638.463 647.84 638.715C647.743 638.967 647.694 639.244 647.694 639.545C647.694 639.846 647.763 640.119 647.901 640.363C648.04 640.599 648.239 640.786 648.5 640.924C648.76 641.055 649.065 641.12 649.415 641.12C649.944 641.12 650.404 641.014 650.794 640.802C651.185 640.591 651.486 640.33 651.698 640.021C651.917 639.712 652.031 639.419 652.04 639.142L652.967 640.631C652.837 640.965 652.658 641.311 652.43 641.669C652.21 642.027 651.93 642.365 651.588 642.682C651.246 642.991 650.835 643.248 650.355 643.451C649.875 643.646 649.305 643.744 648.646 643.744C647.808 643.744 647.047 643.577 646.363 643.244C645.688 642.902 645.151 642.434 644.752 641.84C644.361 641.238 644.166 640.554 644.166 639.789C644.166 639.097 644.296 638.483 644.557 637.946C644.817 637.409 645.2 636.957 645.704 636.591C646.217 636.216 646.856 635.936 647.621 635.749C648.386 635.553 649.273 635.456 650.282 635.456H652.32ZM661.549 633.112V643.5H658.033V630.292H661.329L661.549 633.112ZM661.036 636.432H660.084C660.084 635.456 660.21 634.577 660.462 633.795C660.715 633.006 661.069 632.335 661.524 631.781C661.98 631.22 662.521 630.792 663.148 630.5C663.783 630.198 664.491 630.048 665.272 630.048C665.89 630.048 666.456 630.137 666.969 630.316C667.481 630.495 667.921 630.78 668.287 631.171C668.661 631.562 668.946 632.078 669.142 632.721C669.345 633.364 669.447 634.149 669.447 635.077V643.5H665.907V635.065C665.907 634.479 665.825 634.023 665.663 633.698C665.5 633.372 665.26 633.144 664.942 633.014C664.633 632.876 664.251 632.807 663.795 632.807C663.323 632.807 662.912 632.9 662.562 633.087C662.22 633.275 661.935 633.535 661.708 633.869C661.488 634.194 661.321 634.577 661.207 635.016C661.093 635.456 661.036 635.928 661.036 636.432Z" fill="black"/>
<rect x="460.5" y="571.5" width="287" height="129" rx="19" stroke="#4A7C88" stroke-width="2"/>
</svg>
