<svg width="1300" height="400" viewBox="0 0 1300 400" fill="none" xmlns="http://www.w3.org/2000/svg">
<path d="M671.528 83.7799C712.651 80.5508 752.134 93.8971 780.064 112.07C808.271 130.604 824.916 153.969 826.735 178.937C828.566 204.147 815.921 228.09 797.185 251.742C778.198 275.036 753.119 298.04 724.376 312.949C668.823 344.124 605.169 318.889 574.827 243.546C544.452 168.679 586.973 88.0805 671.528 83.7799Z" fill="#F2F7F8"/>
<path d="M525.29 274.119C523.01 273.868 521.239 274.845 519.19 275.738C512.061 278.843 504.355 280.646 496.784 282.336C472.8 287.693 449.165 286.055 426.789 275.456C410.425 267.706 386.789 248.279 393.39 227.92C398.346 212.636 409.585 211.771 422.821 216.759C434.498 221.161 433.52 231.773 428.315 241.547C423.503 250.587 419.266 253.393 409.753 256.438C389.315 262.978 371.262 264.195 349.933 260.765C344.395 259.874 296.347 243.971 294.62 237.325" stroke="black" stroke-width="2" stroke-linecap="round" stroke-linejoin="round" stroke-dasharray="6 6"/>
<path d="M1004.38 217.246C1002.1 217.477 967.34 198.113 965.299 197.203C958.197 194.035 950.507 192.166 942.951 190.409C919.015 184.843 895.367 186.275 872.899 196.678C856.468 204.285 832.664 223.505 839.087 243.921C843.909 259.248 855.14 260.211 868.419 255.338C880.134 251.039 879.248 240.418 874.13 230.599C869.396 221.518 865.183 218.674 855.697 215.547C835.317 208.829 817.276 207.454 795.918 210.698C790.373 211.541 766.502 212.803 764.717 219.434" stroke="black" stroke-width="2" stroke-linecap="round" stroke-linejoin="round" stroke-dasharray="6 6"/>
<circle cx="250.5" cy="237.5" r="56" fill="white" stroke="#18292D"/>
<g clip-path="url(#clip0_711_10308)">
<path d="M268.825 221.53C268.825 217.971 271.713 215.09 275.265 215.09C278.817 215.09 281.705 217.971 281.705 221.53H268.818H268.825Z" fill="#18292D" stroke="#18292D" stroke-width="1.24344" stroke-linecap="round" stroke-linejoin="round"/>
<path d="M275.077 215.083C271.518 215.083 268.637 217.964 268.637 221.523V261.798C268.637 265.952 265.274 269.315 261.121 269.315H228.369V221.53C228.369 217.971 231.257 215.09 234.809 215.09H275.077V215.083Z" fill="white" stroke="#18292D" stroke-width="1.24344" stroke-linecap="round" stroke-linejoin="round"/>
<path d="M259.631 269.322H229.131C223.201 269.322 220.67 266.679 220.67 262.008V261.924H253.205C253.869 269.692 259.624 269.322 259.624 269.322H259.631Z" fill="white" stroke="#18292D" stroke-width="1.24344" stroke-linecap="round" stroke-linejoin="round"/>
<path d="M235.67 228.529L262.268 228.564" stroke="#FFC31F" stroke-width="1.24344" stroke-linecap="round" stroke-linejoin="round"/>
<path d="M235.865 235.794L262.457 235.822" stroke="#FFC31F" stroke-width="1.24344" stroke-linecap="round" stroke-linejoin="round"/>
<path d="M236.055 243.053L262.646 243.088" stroke="#FFC31F" stroke-width="1.24344" stroke-linecap="round" stroke-linejoin="round"/>
<path d="M236.055 250.366L243.599 250.408" stroke="#FFC31F" stroke-width="1.24344" stroke-linecap="round" stroke-linejoin="round"/>
<path d="M268.268 206.944C266.974 206.301 265.387 206.846 264.73 208.147L248.431 240.661C248.354 240.808 248.298 240.961 248.256 241.115L246.487 250.17C246.438 250.345 246.543 250.394 246.655 250.254L252.864 243.43C252.962 243.304 253.046 243.164 253.123 243.017L269.429 210.475C270.079 209.175 269.554 207.588 268.268 206.944Z" fill="white" stroke="#18292D" stroke-width="1.24344" stroke-linecap="round" stroke-linejoin="round"/>
<path d="M262.869 211.916L267.463 214.223" stroke="#18292D" stroke-width="1.24344" stroke-linecap="round" stroke-linejoin="round"/>
<path d="M247.43 245.304L249.989 246.569" stroke="#18292D" stroke-width="1.24344" stroke-linecap="round" stroke-linejoin="round"/>
<path d="M264.387 209.015L268.995 211.301" stroke="#18292D" stroke-width="1.24344" stroke-linecap="round" stroke-linejoin="round"/>
<path d="M250.766 242.031L265.128 213.062" stroke="#18292D" stroke-width="1.24344" stroke-linecap="round" stroke-linejoin="round"/>
<path d="M248.34 240.829L253.039 243.158" stroke="#18292D" stroke-width="1.24344" stroke-linecap="round" stroke-linejoin="round"/>
</g>
<circle cx="1050.5" cy="226.5" r="56" fill="white" stroke="#18292D"/>
<g clip-path="url(#clip1_711_10308)">
<path d="M1067.47 217.968L1049.55 237.107C1049.4 237.304 1049.12 237.326 1048.94 237.146L1035.26 225.752L1039.31 220.983L1048.45 228.513C1048.63 228.688 1048.91 228.671 1049.06 228.474L1063.64 212.777L1067.48 217.963L1067.47 217.968Z" fill="#18292D" stroke="#18292D" stroke-width="1.08544" stroke-linecap="round" stroke-linejoin="round"/>
<path d="M1080.97 224.853C1080.97 211.428 1067.67 200.54 1051.26 200.54C1034.85 200.54 1021.54 211.428 1021.54 224.853C1021.54 234.627 1028.81 243.603 1039 247.518C1039.97 247.889 1040.67 248.749 1040.83 249.779L1041.39 258.125C1041.42 258.535 1041.91 258.732 1042.21 258.451C1043.53 257.23 1046.67 254.447 1052.46 250.099C1053.17 249.565 1053.88 249.07 1054.74 248.991C1069.51 247.58 1080.97 237.316 1080.97 224.858V224.853Z" stroke="#18292D" stroke-width="1.08544" stroke-linecap="round" stroke-linejoin="round"/>
</g>
<path d="M761.405 51.5913C757.726 51.5398 754.15 52.0158 750.767 52.942C748.426 52.5689 734.019 58.5634 726.197 59.7983C720.949 60.6345 715.649 57.6244 711.7 54.9359C710.156 53.5337 708.407 52.3374 706.516 51.3983C701.859 48.8256 696.817 49.0571 696.817 49.0571C684.3 48.8642 673.996 58.8721 673.804 71.3885C673.611 83.9049 683.619 94.2087 696.135 94.4017C698.077 94.4274 699.968 94.2087 701.782 93.7842C712.06 92.5879 714.183 93.5398 718.762 97.3218C722.364 100.293 726.287 105.966 727.921 108.449C734.379 119.653 746.393 127.281 760.26 127.487C781.215 127.796 798.466 111.06 798.774 90.1052C799.083 69.1502 782.347 51.9 761.392 51.5913H761.405Z" fill="#18292D"/>
<path d="M790.401 112.54C790.401 112.54 790.285 112.54 790.233 112.54C789.526 112.45 789.037 111.794 789.127 111.099L789.23 110.366C791.545 90.2857 777.575 72.0193 758.087 69.6523C754.755 69.2536 751.372 69.3307 748.04 69.9096C747.86 69.9353 747.667 69.9353 747.487 69.8839C746.625 69.7038 742.123 70.72 738.508 71.5304C733.376 72.6882 727.561 74.0003 723.458 74.2318C717.695 74.5406 712.472 70.5914 709.012 67.5942C708.96 67.5556 708.922 67.517 708.883 67.4655C707.584 65.9862 706.118 64.6998 704.497 63.645C700.573 60.8407 696.032 60.532 695.981 60.532C688.031 59.5672 678.165 61.3681 674.048 69.2793C673.714 69.9096 672.942 70.154 672.312 69.8324C671.681 69.5108 671.437 68.7262 671.759 68.0958C676.48 59.0141 687.491 56.9044 696.2 57.9721C696.328 57.9721 701.435 58.2937 705.925 61.5225C707.674 62.6545 709.308 64.0695 710.749 65.7032C713.862 68.4046 718.518 71.9292 723.291 71.6591C727.175 71.4404 732.887 70.154 737.917 69.0092C743.281 67.8 746.33 67.1311 747.809 67.324C751.308 66.7451 754.871 66.668 758.37 67.0925C779.261 69.6266 794.234 89.1794 791.751 110.662C791.738 110.829 791.713 110.983 791.687 111.151L791.648 111.447C791.558 112.09 791.005 112.566 790.375 112.566L790.401 112.54Z" fill="white"/>
<path d="M809.901 80.2769C809.245 80.2769 808.679 79.7753 808.615 79.1063C806.389 54.3309 786.348 35.7943 764.042 37.8139C760.221 38.1612 756.478 39.1002 752.902 40.6182C752.722 40.6953 752.516 40.7339 752.31 40.7211C751.281 40.7211 746.509 43.0494 742.675 44.9275C737.247 47.5903 731.085 50.6004 726.596 51.8868C720.331 53.6877 713.565 50.2659 709.024 47.5388C708.972 47.5131 708.921 47.4745 708.869 47.4359C707.069 45.9695 705.1 44.786 703.029 43.9241C697.935 41.5058 692.816 42.2904 692.764 42.3033C679.605 43.4868 670.034 56.2604 671.346 70.7707C671.41 71.4782 670.883 72.1085 670.175 72.1728C669.481 72.2371 668.838 71.7097 668.773 71.0022C667.345 55.077 677.958 41.0555 692.443 39.7563C692.597 39.7306 698.321 38.8558 704.071 41.5829C706.284 42.4963 708.432 43.7955 710.413 45.3906C714.542 47.8604 720.614 50.9477 725.875 49.4298C730.159 48.1949 736.205 45.2362 741.543 42.6249C747.242 39.8335 750.471 38.2898 752.13 38.1612C755.886 36.5918 759.823 35.627 763.823 35.2669C787.57 33.1315 808.833 52.6972 811.187 78.8877C811.252 79.5952 810.724 80.2255 810.017 80.2898C809.978 80.2898 809.94 80.2898 809.901 80.2898V80.2769Z" fill="#18292D"/>
<path d="M707.377 129.821C722.381 106.91 715.971 76.1724 693.059 61.168C670.148 46.1636 639.411 52.5737 624.406 75.4854C609.402 98.3971 615.812 129.134 638.724 144.139C661.635 159.143 692.372 152.733 707.377 129.821Z" fill="#18292D"/>
<path d="M764.196 207.847L813.194 295.667C824.964 316.764 816.526 343.43 794.76 353.914C778.758 361.619 759.643 358.429 747.023 345.939L690.796 290.303L633.643 214.639L669.056 172.78L719.701 178.35C738.43 180.408 755.012 191.407 764.183 207.86L764.196 207.847Z" fill="#18292D"/>
<path d="M650.891 121.215L692.761 113.341L705.024 178.549C706.662 187.26 700.924 195.655 692.213 197.293L681.897 199.233C673.187 200.871 664.791 195.133 663.153 186.423L650.891 121.215Z" fill="white"/>
<path d="M678.897 200.708C675.462 200.708 672.092 199.679 669.198 197.698C665.39 195.099 662.83 191.163 661.968 186.635L649.696 121.429C649.568 120.773 650.005 120.143 650.661 120.014L692.532 112.141C692.854 112.077 693.176 112.141 693.446 112.334C693.716 112.514 693.896 112.797 693.947 113.106L706.219 178.312C707.068 182.84 706.104 187.433 703.505 191.24C700.907 195.048 696.97 197.621 692.442 198.47L682.126 200.412C681.045 200.618 679.965 200.721 678.897 200.721V200.708ZM652.308 122.162L664.348 186.185C665.081 190.082 667.281 193.453 670.561 195.691C673.841 197.929 677.791 198.753 681.675 198.019L691.992 196.077C695.89 195.344 699.26 193.144 701.498 189.864C703.737 186.596 704.56 182.647 703.827 178.75L691.786 114.727L652.295 122.162H652.308Z" fill="#18292D"/>
<path d="M616.856 120.863L621.5 144.596C624.317 158.952 639.586 166.606 652.18 159.942L669.675 150.693C683.143 143.58 687.118 125.596 677.985 113.08L655.615 82.4258L634.338 89.668C621.719 93.9645 614.206 107.356 616.856 120.85V120.863Z" fill="white"/>
<path d="M642.493 163.582C639.264 163.582 636.035 162.862 633.012 161.408C626.387 158.244 621.769 152.198 620.316 144.827L615.659 121.094C612.906 107.021 620.766 93.0249 633.951 88.5355L655.228 81.2932C655.729 81.126 656.283 81.2932 656.591 81.7306L678.961 112.385C683.579 118.714 685.213 126.754 683.425 134.459C681.688 141.958 676.89 148.275 670.24 151.786L652.745 161.035C649.503 162.746 646.004 163.608 642.493 163.608V163.582ZM618.039 120.63L622.695 144.364C623.995 150.989 628.137 156.404 634.054 159.234C639.688 161.923 646.095 161.794 651.626 158.887L669.121 149.638C675.141 146.461 679.502 140.724 681.084 133.906C682.705 126.895 681.225 119.563 677.019 113.813L655.176 83.8788L634.736 90.8381C622.695 94.9416 615.518 107.754 618.052 120.643L618.039 120.63Z" fill="#18292D"/>
<path d="M643.74 77.834L654.546 100.706L606.32 117.827L603.837 103.651C601.998 93.1289 609.999 83.1596 621.808 81.2943L643.753 77.834H643.74Z" fill="#18292D"/>
<path d="M645.143 83.7898L664.94 106.803C669.777 112.424 677.379 112.18 681.83 106.263L688.146 97.8756L669.738 79.5319C663.949 73.769 654.546 73.8976 648.912 79.8149L645.143 83.7898Z" fill="#18292D"/>
<path d="M617.615 123.385C617.357 123.385 617.1 123.307 616.869 123.127C616.341 122.716 616.251 121.957 616.65 121.429C618.747 118.728 621.731 117.75 621.86 117.699C622.49 117.493 623.185 117.84 623.378 118.484C623.583 119.114 623.236 119.796 622.606 120.001C622.606 120.001 620.187 120.825 618.554 122.909C618.309 123.217 617.962 123.372 617.602 123.372L617.615 123.385Z" fill="#18292D"/>
<path d="M635.933 116.038C635.431 116.038 634.968 115.73 634.788 115.228C634.569 114.598 634.903 113.903 635.534 113.684C636.216 113.44 642.339 111.382 645.889 113.015C646.494 113.298 646.764 114.019 646.481 114.623C646.198 115.228 645.49 115.498 644.873 115.215C642.609 114.173 637.926 115.408 636.318 115.974C636.19 116.026 636.048 116.038 635.92 116.038H635.933Z" fill="#18292D"/>
<path d="M631.649 125.441L630.44 127.654C629.333 129.699 630.864 132.182 633.192 132.105L635.431 132.028L631.649 125.441Z" fill="white"/>
<path d="M633.077 133.314C631.597 133.314 630.272 132.568 629.488 131.307C628.677 130.008 628.639 128.426 629.372 127.075L630.568 124.863C630.89 124.271 631.623 124.052 632.215 124.374C632.807 124.695 633.025 125.429 632.704 126.02L631.495 128.233C631.186 128.812 631.199 129.481 631.546 130.034C631.893 130.587 632.485 130.896 633.141 130.883L635.379 130.806C636.023 130.767 636.614 131.307 636.627 131.976C636.653 132.645 636.125 133.211 635.457 133.224L633.218 133.301C633.218 133.301 633.115 133.301 633.064 133.301L633.077 133.314Z" fill="#18292D"/>
<path d="M646.557 146.976C643.959 146.976 640.537 145.407 636.189 142.242C635.868 142.011 635.688 141.625 635.688 141.226C635.688 140.827 635.906 140.454 636.241 140.249L649.182 131.874C649.503 131.669 649.915 131.617 650.275 131.759C650.635 131.9 650.905 132.196 651.008 132.582C651.291 133.662 653.697 143.194 649.387 146.153C648.59 146.706 647.638 146.976 646.544 146.976H646.557ZM639.071 141.303C644.782 145.163 647.123 144.777 648.024 144.159C649.902 142.873 649.722 138.306 649.053 134.859L639.071 141.316V141.303Z" fill="#18292D"/>
<path d="M642.892 122.098C642.943 123.681 641.708 125.005 640.126 125.057C638.544 125.108 637.219 123.873 637.168 122.291C637.116 120.709 638.351 119.384 639.933 119.333C641.515 119.281 642.84 120.516 642.892 122.098Z" fill="#18292D"/>
<path d="M627.314 126.201C627.365 127.783 626.13 129.108 624.548 129.159C622.966 129.211 621.641 127.976 621.589 126.394C621.538 124.812 622.773 123.487 624.355 123.435C625.937 123.384 627.262 124.619 627.314 126.201Z" fill="#18292D"/>
<path d="M774.513 272.192C774.371 272.192 774.217 272.166 774.075 272.114L722.775 252.407C722.157 252.163 721.836 251.468 722.08 250.838C722.325 250.208 723.019 249.899 723.65 250.143L774.95 269.85C775.567 270.095 775.889 270.79 775.645 271.42C775.465 271.896 775.001 272.192 774.513 272.192Z" fill="white"/>
<path d="M533.436 158.527L534.632 293.712L574.741 322.192L684.635 316.931V170.478L574.741 192.037L533.436 158.527Z" fill="white"/>
<path d="M574.741 323.478C574.471 323.478 574.214 323.401 573.995 323.247L533.886 294.766C533.551 294.522 533.346 294.136 533.346 293.725L532.162 158.54C532.162 158.038 532.445 157.588 532.895 157.369C533.346 157.151 533.873 157.215 534.259 157.524L575.088 190.661L684.391 169.217C684.764 169.14 685.163 169.242 685.459 169.487C685.755 169.731 685.922 170.091 685.922 170.477V316.931C685.922 317.612 685.382 318.178 684.7 318.217L574.805 323.478C574.805 323.478 574.767 323.478 574.741 323.478ZM535.905 293.043L575.114 320.893L683.336 315.709V172.047L574.973 193.298C574.599 193.375 574.214 193.272 573.918 193.027L534.735 161.241L535.893 293.03L535.905 293.043Z" fill="#18292D"/>
<path d="M520.943 160.637L522.654 299.963L573.98 336.484L694.899 328.096V177.167L573.98 193.143L520.943 160.637Z" fill="#96D8E8"/>
<path d="M573.982 337.77C573.274 337.77 572.695 337.192 572.695 336.484V193.144C572.695 192.436 573.274 191.857 573.982 191.857C574.689 191.857 575.268 192.436 575.268 193.144V336.484C575.268 337.192 574.689 337.77 573.982 337.77Z" fill="#18292D"/>
<path d="M710.168 213.867C710.168 213.867 721.193 234.951 718.941 245.731C715.777 260.91 701.807 264.885 700.289 265.386L710.168 213.867Z" fill="white"/>
<path d="M687.129 249.113C687.129 249.113 678.356 257.578 677.958 267.971C677.559 278.352 684.582 289.711 696.61 296.207C702.965 299.629 719.018 283.099 723.135 275.458C730.287 262.131 723.225 251.274 723.225 251.274L718.092 249.229L687.142 249.126L687.129 249.113Z" fill="white"/>
<path d="M698.591 297.867C697.639 297.867 696.79 297.661 696.031 297.262C683.875 290.702 676.311 279.189 676.748 267.92C677.16 257.166 685.92 248.599 686.293 248.239C686.769 247.776 687.541 247.789 688.004 248.265C688.467 248.741 688.454 249.512 687.978 249.975C687.888 250.053 679.553 258.247 679.167 268.01C678.768 278.198 686.01 289.094 697.189 295.127C697.961 295.552 699.054 295.552 700.431 295.127C707.377 293.043 718.671 281.196 722.067 274.854C728.152 263.521 723.418 254.028 722.389 252.214L717.642 250.31C717.025 250.065 716.716 249.358 716.96 248.741C717.205 248.123 717.912 247.814 718.53 248.072L723.662 250.117C723.894 250.207 724.087 250.374 724.228 250.58C724.537 251.043 731.599 262.196 724.19 275.999C720.922 282.083 709.216 295.011 701.112 297.442C700.199 297.713 699.363 297.854 698.578 297.854L698.591 297.867Z" fill="#18292D"/>
<path d="M710.581 225.225C712.832 223.527 713.668 220.44 712.421 217.79C703.763 199.588 687.838 198.43 687.156 198.379C683.825 198.173 680.956 200.72 680.75 204.052C680.544 207.358 683.04 210.201 686.333 210.445C686.873 210.496 696.045 211.526 701.499 223C702.927 226.01 706.542 227.284 709.552 225.843C709.925 225.663 710.272 225.457 710.581 225.213V225.225Z" fill="white"/>
<path d="M706.94 227.644C706.117 227.644 705.306 227.502 704.509 227.219C702.682 226.576 701.229 225.251 700.392 223.502C695.208 212.606 686.577 211.667 686.204 211.629C682.293 211.346 679.283 207.911 679.528 203.962C679.772 199.974 683.232 196.925 687.22 197.157C687.928 197.195 704.547 198.418 713.501 217.25C714.98 220.35 714.054 224.106 711.301 226.165C710.915 226.448 710.503 226.705 710.066 226.911C709.075 227.387 708.008 227.618 706.94 227.618V227.644ZM686.783 199.575C684.249 199.575 682.1 201.556 681.946 204.116C681.779 206.74 683.785 209.03 686.41 209.223C686.86 209.262 696.816 210.342 702.579 222.46C703.132 223.618 704.097 224.505 705.319 224.93C706.541 225.367 707.853 225.29 709.024 224.737C709.32 224.595 709.603 224.428 709.86 224.235C711.687 222.859 712.304 220.363 711.327 218.292C702.978 200.733 687.735 199.614 687.091 199.575C686.989 199.575 686.898 199.575 686.796 199.575H686.783Z" fill="#18292D"/>
<path d="M715.661 228.493C703.647 212.311 687.786 214.253 687.117 214.33C683.811 214.78 681.483 217.816 681.92 221.122C682.357 224.402 685.355 226.718 688.635 226.306C689.162 226.255 698.373 225.496 705.949 235.697L715.661 228.48V228.493Z" fill="white"/>
<path d="M705.949 236.919C705.576 236.919 705.216 236.751 704.971 236.43C697.78 226.743 689.123 227.489 688.75 227.528C684.852 228.004 681.238 225.213 680.71 221.302C680.183 217.34 682.987 213.674 686.949 213.146C687.644 213.056 704.199 211.05 716.626 227.785C717.024 228.326 716.909 229.085 716.368 229.483C715.828 229.882 715.069 229.766 714.67 229.239C703.08 213.635 687.901 215.475 687.258 215.565C684.621 215.925 682.756 218.356 683.103 221.006C683.45 223.617 685.869 225.47 688.467 225.148C688.917 225.097 698.899 224.235 706.901 235.015C707.299 235.555 707.184 236.314 706.643 236.713C706.425 236.867 706.167 236.957 705.923 236.957L705.949 236.919Z" fill="#18292D"/>
<path d="M715.198 237.535C703.402 223.655 688.943 225.404 688.3 225.494C684.981 225.945 682.653 228.993 683.09 232.312C683.527 235.605 686.537 237.934 689.83 237.522C690.371 237.47 699.594 236.724 707.209 246.964L715.198 237.535Z" fill="white"/>
<path d="M707.21 248.187C706.837 248.187 706.477 248.02 706.232 247.698C699.003 237.948 690.32 238.707 689.96 238.745C686.049 239.234 682.421 236.417 681.894 232.48C681.367 228.506 684.158 224.839 688.133 224.299C688.776 224.222 703.891 222.382 716.111 236.751C716.549 237.266 716.485 238.025 715.97 238.462C715.468 238.899 714.696 238.835 714.259 238.321C702.875 224.942 689.021 226.615 688.442 226.692C685.792 227.052 683.927 229.496 684.274 232.146C684.621 234.77 687.052 236.635 689.677 236.314C690.127 236.275 700.122 235.401 708.162 246.232C708.561 246.772 708.445 247.531 707.904 247.93C707.686 248.084 707.428 248.174 707.184 248.174L707.21 248.187Z" fill="#18292D"/>
<path d="M710.298 248.046C702.387 238.565 692.314 238.347 691.195 238.347C687.851 238.36 685.149 241.1 685.162 244.444C685.188 247.763 687.864 250.451 691.182 250.477C691.543 250.477 696.765 250.747 700.985 255.816L710.298 248.046Z" fill="white"/>
<path d="M700.985 257.025C700.637 257.025 700.29 256.871 700.058 256.588C696.161 251.918 691.35 251.699 691.144 251.687C687.221 251.661 683.979 248.419 683.953 244.457C683.953 242.515 684.686 240.688 686.05 239.299C687.413 237.922 689.24 237.151 691.183 237.138H691.234C692.649 237.138 703.069 237.485 711.224 247.274C711.649 247.789 711.584 248.548 711.07 248.985C710.555 249.423 709.796 249.345 709.359 248.831C701.898 239.878 692.507 239.569 691.234 239.569H691.183C689.883 239.569 688.674 240.083 687.761 241.01C686.847 241.936 686.346 243.158 686.359 244.444C686.371 247.081 688.533 249.255 691.183 249.268C691.839 249.294 697.409 249.641 701.911 255.044C702.335 255.559 702.271 256.317 701.756 256.755C701.525 256.948 701.255 257.038 700.985 257.038V257.025Z" fill="#18292D"/>
<path d="M700.289 266.608C699.788 266.608 699.312 266.286 699.145 265.784C698.939 265.154 699.273 264.459 699.904 264.254L700.122 264.189C704.547 262.761 715.134 258.092 717.758 245.498C719.894 235.272 709.204 214.651 709.101 214.445C708.792 213.854 709.024 213.12 709.616 212.812C710.207 212.503 710.941 212.734 711.249 213.326C711.712 214.201 722.441 234.924 720.138 246C717.257 259.841 705.705 264.948 700.881 266.505L700.688 266.569C700.56 266.608 700.431 266.633 700.302 266.633L700.289 266.608Z" fill="#18292D"/>
<path d="M524.405 196.952C524.405 196.952 508.698 214.55 508.235 225.458C507.592 240.817 520.057 248.034 521.395 248.896L524.418 196.965L524.405 196.952Z" fill="white"/>
<path d="M521.265 207.77C519.503 205.596 519.464 202.419 521.304 200.18C534.052 184.783 549.642 187.535 550.298 187.664C553.553 188.281 555.701 191.42 555.084 194.675C554.479 197.903 551.392 200.039 548.163 199.46C547.636 199.383 538.567 198.148 530.54 207.847C528.43 210.394 524.661 210.741 522.101 208.632C521.792 208.375 521.509 208.092 521.252 207.783L521.265 207.77Z" fill="white"/>
<path d="M525.923 211.218C524.25 211.218 522.642 210.639 521.33 209.558C520.957 209.25 520.623 208.915 520.314 208.542C518.166 205.892 518.191 202.046 520.365 199.422C533.551 183.484 549.836 186.352 550.518 186.481C554.416 187.227 557.001 190.996 556.268 194.894C555.548 198.753 551.817 201.338 547.945 200.644C547.611 200.592 539.095 199.396 531.467 208.606C530.245 210.086 528.521 210.999 526.604 211.179C526.373 211.205 526.141 211.205 525.923 211.205V211.218ZM522.205 207.011C522.411 207.256 522.629 207.487 522.874 207.693C523.864 208.516 525.112 208.889 526.386 208.774C527.659 208.658 528.804 208.053 529.614 207.063C538.104 196.798 547.945 198.187 548.357 198.251C550.942 198.714 553.425 197.003 553.901 194.443C554.39 191.845 552.666 189.337 550.081 188.848C549.45 188.732 534.528 186.095 522.244 200.952C520.803 202.702 520.79 205.249 522.205 207.011Z" fill="#18292D"/>
<path d="M515.58 209.674C531.068 197.042 545.836 202.753 546.466 202.998C549.54 204.232 551.032 207.718 549.81 210.793C548.588 213.842 545.154 215.334 542.092 214.15C541.59 213.97 532.933 210.999 523.17 218.974L515.58 209.674Z" fill="white"/>
<path d="M523.169 220.184C522.822 220.184 522.475 220.029 522.23 219.733C521.806 219.219 521.883 218.447 522.398 218.035C532.714 209.61 542.105 212.877 542.491 213.018C544.948 213.97 547.713 212.774 548.665 210.356C549.643 207.899 548.447 205.107 545.99 204.13C545.398 203.885 531.248 198.431 516.326 210.613C515.811 211.037 515.04 210.96 514.628 210.446C514.203 209.931 514.281 209.159 514.795 208.748C530.823 195.665 546.247 201.634 546.89 201.891C550.582 203.371 552.383 207.564 550.904 211.256C549.45 214.897 545.295 216.71 541.629 215.295C541.307 215.18 533.177 212.35 523.916 219.926C523.697 220.106 523.427 220.196 523.157 220.196L523.169 220.184Z" fill="#18292D"/>
<path d="M513.831 218.485C528.547 208.014 542.028 213.211 542.62 213.443C545.707 214.678 547.2 218.176 545.965 221.264C544.743 224.325 541.282 225.83 538.208 224.634C537.706 224.454 529.01 221.482 519.208 229.484L513.818 218.472L513.831 218.485Z" fill="white"/>
<path d="M519.22 230.706C518.873 230.706 518.526 230.552 518.281 230.256C517.857 229.741 517.934 228.97 518.449 228.558C528.817 220.094 538.233 223.361 538.619 223.503C541.089 224.454 543.867 223.245 544.832 220.814C545.81 218.357 544.613 215.553 542.156 214.575C541.616 214.356 528.701 209.378 514.525 219.476C513.985 219.862 513.226 219.733 512.84 219.193C512.454 218.653 512.583 217.894 513.123 217.508C528.367 206.651 542.465 212.092 543.057 212.337C546.749 213.816 548.563 218.035 547.083 221.727C545.617 225.381 541.436 227.194 537.77 225.779C537.448 225.664 529.306 222.834 519.979 230.449C519.761 230.629 519.491 230.719 519.22 230.719V230.706Z" fill="#18292D"/>
<path d="M515.991 229.78C525.896 222.576 535.634 224.815 536.715 225.098C539.931 225.934 541.86 229.214 541.024 232.43C540.201 235.62 536.959 237.55 533.769 236.765C533.422 236.688 528.328 235.672 523.054 239.518L515.979 229.793L515.991 229.78Z" fill="white"/>
<path d="M523.053 240.727C522.68 240.727 522.307 240.56 522.075 240.225C521.676 239.685 521.805 238.926 522.345 238.54C527.992 234.436 533.434 235.465 534.038 235.594C536.611 236.224 539.21 234.668 539.866 232.134C540.535 229.574 538.978 226.95 536.418 226.281C535.402 226.024 526.166 223.888 516.711 230.77C516.171 231.169 515.412 231.04 515.026 230.5C514.627 229.96 514.756 229.201 515.296 228.815C525.651 221.29 535.904 223.644 537.036 223.94C540.895 224.943 543.223 228.892 542.22 232.738C541.229 236.546 537.331 238.874 533.511 237.948C533.344 237.91 528.674 236.958 523.786 240.495C523.567 240.65 523.323 240.727 523.078 240.727H523.053Z" fill="#18292D"/>
<path d="M521.394 250.105C521.176 250.105 520.944 250.041 520.738 249.912L520.571 249.809C516.3 247.133 506.434 239.428 507.025 225.407C507.501 214.19 522.848 196.888 523.504 196.155C523.954 195.653 524.713 195.614 525.215 196.065C525.716 196.515 525.755 197.274 525.318 197.775C525.163 197.943 509.881 215.167 509.457 225.522C508.916 238.27 517.96 245.32 521.87 247.764L522.063 247.88C522.629 248.24 522.796 248.986 522.436 249.552C522.205 249.912 521.819 250.105 521.42 250.105H521.394Z" fill="#18292D"/>
<path d="M698.913 112.823C699.17 120.477 693.176 126.883 685.522 127.153C677.868 127.41 671.462 121.416 671.192 113.762C670.934 106.108 676.929 99.7019 684.583 99.4318C692.237 99.1745 698.643 105.169 698.913 112.823Z" fill="white"/>
<path d="M681.778 117.454C681.778 117.454 680.067 110.044 686.911 105.478L681.778 117.454Z" fill="white"/>
<path d="M681.778 118.676C681.225 118.676 680.723 118.303 680.594 117.737C680.582 117.66 678.781 109.453 686.242 104.474C686.795 104.101 687.554 104.256 687.914 104.809C688.287 105.362 688.133 106.121 687.579 106.481C681.508 110.533 682.936 117.12 682.961 117.184C683.116 117.84 682.704 118.483 682.048 118.637C681.958 118.663 681.868 118.663 681.778 118.663V118.676Z" fill="#18292D"/>
<defs>
<clipPath id="clip0_711_10308">
<rect width="62.3918" height="64" fill="white" transform="translate(220 206)"/>
</clipPath>
<clipPath id="clip1_711_10308">
<rect width="60.5148" height="59.12" fill="white" transform="translate(1021 200)"/>
</clipPath>
</defs>
</svg>
