<svg width="65" height="65" viewBox="0 0 65 65" fill="none" xmlns="http://www.w3.org/2000/svg">
<path d="M30.6636 15.9341V52.4752L3.25 54.1667V15.9341H30.6636Z" fill="#18292D" stroke="#18292D" stroke-width="1.2" stroke-linecap="round" stroke-linejoin="round"/>
<path d="M58.0928 15.9341V54.1667L30.6843 52.4752V15.9341H58.0928Z" fill="#18292D" stroke="#18292D" stroke-width="1.2" stroke-linecap="round" stroke-linejoin="round"/>
<path d="M55.1944 15.6866V52.0163C47.3045 48.6334 38.5276 48.6334 30.6377 52.0163V15.6866C38.5276 12.3037 47.3045 12.3037 55.1944 15.6866Z" fill="white" stroke="#18292D" stroke-width="1.2" stroke-linecap="round" stroke-linejoin="round"/>
<path d="M34.3301 22.1172C39.9562 20.4928 45.8813 20.4928 51.5074 22.1172" stroke="#18292D" stroke-width="1.2" stroke-linecap="round" stroke-linejoin="round"/>
<path d="M34.3301 28.9141C39.9562 27.2897 45.8813 27.2897 51.5074 28.9141" stroke="#18292D" stroke-width="1.2" stroke-linecap="round" stroke-linejoin="round"/>
<path d="M34.3301 35.7056C39.9562 34.0812 45.8813 34.0812 51.5074 35.7056" stroke="#18292D" stroke-width="1.2" stroke-linecap="round" stroke-linejoin="round"/>
<path d="M30.6378 15.6866V52.0163C22.7479 48.6334 13.971 48.6334 6.08105 52.0163V15.6866C13.971 12.3037 22.7479 12.3037 30.6378 15.6866Z" fill="white" stroke="#18292D" stroke-width="1.2" stroke-linecap="round" stroke-linejoin="round"/>
<path d="M9.77295 22.1172C15.399 20.4928 21.3242 20.4928 26.9503 22.1172" stroke="#18292D" stroke-width="1.2" stroke-linecap="round" stroke-linejoin="round"/>
<path d="M9.77295 28.9141C15.399 27.2897 21.3242 27.2897 26.9503 28.9141" stroke="#18292D" stroke-width="1.2" stroke-linecap="round" stroke-linejoin="round"/>
<path d="M9.77295 35.7056C15.399 34.0812 21.3242 34.0812 26.9503 35.7056" stroke="#18292D" stroke-width="1.2" stroke-linecap="round" stroke-linejoin="round"/>
<path d="M9.77295 42.4966C15.399 40.8722 21.3242 40.8722 26.9503 42.4966" stroke="#18292D" stroke-width="1.2" stroke-linecap="round" stroke-linejoin="round"/>
<path d="M60.1399 11.2669C59.2272 10.5604 57.8967 10.7358 57.1799 11.6537L39.3064 34.6015C39.2239 34.7046 39.1569 34.8181 39.1001 34.9315L36.2948 41.754C36.2278 41.8829 36.3 41.9396 36.4134 41.8468L42.3541 37.4635C42.4521 37.381 42.5397 37.283 42.6222 37.1799L60.5009 14.2166C61.2177 13.2987 61.0527 11.9734 60.1399 11.2669Z" fill="white" stroke="#18292D" stroke-width="1.2" stroke-linecap="round" stroke-linejoin="round"/>
<path d="M55.1326 14.3252L58.3762 16.852" stroke="#18292D" stroke-width="1.2" stroke-linecap="round" stroke-linejoin="round"/>
<path d="M37.8005 38.0879L39.6106 39.4854" stroke="#18292D" stroke-width="1.2" stroke-linecap="round" stroke-linejoin="round"/>
<path d="M56.7727 12.2881L60.0318 14.7995" stroke="#18292D" stroke-width="1.2" stroke-linecap="round" stroke-linejoin="round"/>
<path d="M40.9304 36.0458L56.7206 15.5732" stroke="#18292D" stroke-width="1.2" stroke-linecap="round" stroke-linejoin="round"/>
<path d="M39.2134 34.7256L42.5292 37.2834" stroke="#18292D" stroke-width="1.2" stroke-linecap="round" stroke-linejoin="round"/>
</svg>
