<svg width="450" height="220" viewBox="0 0 450 220" fill="none" xmlns="http://www.w3.org/2000/svg">
<rect width="450" height="220" fill="white"/>
<path d="M235.002 47.3512C210.05 45.3919 186.092 53.4901 169.144 64.5174C152.029 75.7633 141.929 89.9404 140.826 105.091C139.715 120.388 147.387 134.916 158.756 149.267C170.277 163.401 185.494 177.36 202.935 186.407C236.644 205.323 275.268 190.011 293.678 144.294C312.109 98.8664 286.309 49.9608 235.002 47.3512Z" fill="#EEF9FB"/>
<mask id="mask0_564_47377" style="mask-type:alpha" maskUnits="userSpaceOnUse" x="115" y="0" width="220" height="220">
<rect x="115" width="220" height="220" fill="#D9D9D9"/>
</mask>
<g mask="url(#mask0_564_47377)">
<path d="M205.465 198.656L217.845 167.008C222.637 154.749 233.943 146.245 247.051 145.028L278.631 142.099L309.776 149.603C318.775 151.774 326.392 157.754 330.621 165.987L333.942 198.656C333.942 198.656 205.465 198.401 205.465 198.656Z" fill="white"/>
<path d="M205.465 199.407C205.375 199.407 205.285 199.392 205.195 199.355C204.812 199.205 204.616 198.769 204.767 198.378L217.146 166.731C222.074 154.125 233.507 145.524 246.984 144.277L278.564 141.348C278.647 141.348 278.729 141.348 278.812 141.363L309.956 148.867C319.181 151.091 326.956 157.205 331.298 165.641C331.343 165.724 331.365 165.814 331.38 165.912L334.701 198.581C334.746 198.994 334.445 199.362 334.032 199.407C333.627 199.445 333.251 199.152 333.206 198.739L329.901 166.212C325.746 158.227 318.362 152.45 309.611 150.339L278.594 142.865L247.134 145.787C234.228 146.982 223.284 155.222 218.559 167.294L206.179 198.942C206.066 199.235 205.781 199.423 205.48 199.423L205.465 199.407Z" fill="#18292D"/>
<path d="M295.188 146.365L299.733 129.914L272.352 122.349L266.538 143.383C263.833 143.413 261.167 143.533 258.522 143.736C259.679 158.324 267.687 169.735 278.166 170.456C288.36 171.154 297.622 161.509 301.018 147.822C299.11 147.289 297.156 146.816 295.188 146.373V146.365Z" fill="white"/>
<path d="M279.202 171.237C278.842 171.237 278.481 171.222 278.113 171.2C267.529 170.471 258.973 158.948 257.771 143.789C257.756 143.594 257.816 143.391 257.951 143.24C258.079 143.09 258.267 142.993 258.462 142.978C260.956 142.79 263.48 142.677 265.959 142.632L271.623 122.147C271.675 121.952 271.803 121.794 271.976 121.696C272.149 121.599 272.351 121.569 272.547 121.629L299.928 129.193C300.326 129.306 300.559 129.719 300.454 130.117L296.119 145.81C298.012 146.245 299.687 146.666 301.212 147.094C301.603 147.207 301.836 147.605 301.738 147.996C298.305 161.863 289.133 171.237 279.195 171.237H279.202ZM259.341 144.427C260.7 158.46 268.558 169.036 278.226 169.705C287.676 170.359 296.593 161.607 300.108 148.349C298.591 147.935 296.916 147.53 295.03 147.102C294.827 147.057 294.654 146.929 294.549 146.756C294.444 146.583 294.414 146.365 294.467 146.17L298.809 130.448L272.87 123.281L267.258 143.586C267.168 143.909 266.875 144.134 266.545 144.134C264.163 144.164 261.737 144.262 259.333 144.427H259.341Z" fill="#18292D"/>
<path d="M294.459 149.01L299.732 129.914L282.342 125.107L274.98 130.102C277.287 138.606 284.092 145.487 294.459 149.01Z" fill="#18292D"/>
<path d="M295.435 131.597C311.503 131.597 324.528 118.571 324.528 102.503V100.956C324.528 84.8878 311.503 71.8621 295.435 71.8621C279.367 71.8621 266.341 84.8878 266.341 100.956V102.503C266.341 118.571 279.367 131.597 295.435 131.597Z" fill="#18292D"/>
<path d="M288.306 122.786C274.905 122.786 264.028 111.908 264.028 98.507V93.5416C264.028 80.1403 274.905 69.263 288.306 69.263C301.708 69.263 312.585 80.1403 312.585 93.5416V98.507C312.585 111.908 301.708 122.786 288.306 122.786Z" fill="#18292D"/>
<path d="M261.865 90.8219C261.813 90.8219 261.76 90.8219 261.707 90.8068C261.302 90.7167 261.039 90.3186 261.129 89.9129C262.714 82.4536 266.32 76.8647 271.849 73.304C277.648 69.5706 285.573 68.3311 293.04 69.9912C293.445 70.0814 293.701 70.4795 293.611 70.8852C293.521 71.2908 293.122 71.5462 292.717 71.4561C285.633 69.8861 278.129 71.0429 272.66 74.566C267.477 77.9013 264.089 83.1672 262.594 90.2209C262.519 90.574 262.211 90.8144 261.858 90.8144L261.865 90.8219Z" fill="#18292D"/>
<path d="M318.82 105.485L315.387 105.545V105.372C315.387 91.8284 304.404 80.8459 290.86 80.8459H289.478C280.306 80.8459 272.306 85.8865 268.106 93.3533L266.529 92.8876C263.321 91.9336 259.948 93.759 258.994 96.9666C258.04 100.174 259.866 103.547 263.073 104.501L264.966 105.064C264.966 105.17 264.959 105.275 264.959 105.372V114.762C264.959 128.306 275.941 139.289 289.485 139.289H290.868C303.428 139.289 313.779 129.846 315.214 117.67L319.045 117.602C322.388 117.542 325.054 114.777 324.994 111.435C324.934 108.092 322.17 105.425 318.827 105.485H318.82Z" fill="white"/>
<path d="M290.867 140.04H289.485C275.55 140.04 264.207 128.705 264.207 114.762V105.62L262.863 105.222C261.12 104.704 259.685 103.54 258.814 101.94C257.95 100.339 257.755 98.4991 258.273 96.7563C258.791 95.0135 259.956 93.5787 261.556 92.7073C263.156 91.8435 264.996 91.6482 266.739 92.1665L267.753 92.467C272.305 84.8198 280.576 80.1023 289.477 80.1023H290.86C304.599 80.1023 315.814 91.1223 316.13 104.787L318.804 104.734C320.63 104.711 322.35 105.38 323.657 106.642C324.964 107.904 325.708 109.602 325.738 111.42C325.768 113.237 325.092 114.958 323.83 116.272C322.568 117.579 320.87 118.323 319.052 118.353L315.867 118.413C314.079 130.793 303.442 140.048 290.86 140.048L290.867 140.04ZM264.801 93.3834C263.929 93.3834 263.065 93.6013 262.277 94.0294C261.03 94.7055 260.121 95.8248 259.715 97.1845C259.309 98.5441 259.46 99.9789 260.136 101.226C260.812 102.473 261.931 103.382 263.291 103.787L265.184 104.351C265.507 104.449 265.725 104.749 265.717 105.08V105.38L265.71 114.77C265.71 127.878 276.377 138.545 289.485 138.545H290.867C302.909 138.545 313.057 129.538 314.47 117.587C314.515 117.211 314.823 116.933 315.198 116.926L319.029 116.858C320.449 116.836 321.771 116.257 322.755 115.236C323.739 114.214 324.265 112.869 324.243 111.457C324.22 110.037 323.642 108.715 322.62 107.731C321.599 106.747 320.261 106.214 318.842 106.244L315.409 106.304C315.183 106.304 315.011 106.229 314.868 106.086C314.725 105.943 314.642 105.748 314.642 105.553V105.38C314.642 92.2716 303.976 81.6047 290.867 81.6047H289.485C280.921 81.6047 272.981 86.2471 268.767 93.729C268.594 94.037 268.234 94.1797 267.896 94.082L266.318 93.6163C265.815 93.466 265.304 93.3909 264.801 93.3909V93.3834Z" fill="#18292D"/>
<path d="M316.634 105.283V105.328C312.293 102.391 309.085 92.1593 309.085 79.9899V79.9448C313.427 82.882 316.634 93.1133 316.634 105.283Z" fill="#18292D"/>
<path d="M265.516 101.677C265.478 101.677 265.433 101.677 265.388 101.669C264.982 101.602 264.705 101.211 264.772 100.806C265.253 97.906 262.917 96.4411 262.819 96.381C262.466 96.1632 262.353 95.705 262.571 95.3519C262.789 94.9988 263.247 94.8862 263.6 95.0965C263.735 95.1791 266.913 97.1322 266.259 101.061C266.199 101.429 265.876 101.692 265.516 101.692V101.677Z" fill="#18292D"/>
<path d="M316.221 114.147C316.221 114.147 316.169 114.147 316.139 114.147C315.726 114.102 315.425 113.734 315.47 113.32C315.891 109.369 319.474 108.333 319.632 108.287C320.03 108.182 320.443 108.415 320.556 108.813C320.669 109.211 320.436 109.625 320.038 109.737C319.917 109.775 317.281 110.564 316.973 113.478C316.935 113.861 316.605 114.147 316.229 114.147H316.221Z" fill="#18292D"/>
<path d="M297.756 100.1C297.395 101.038 299.213 102.616 301.82 103.623C304.426 104.629 306.837 104.674 307.198 103.735C307.559 102.796 305.741 101.219 303.134 100.212C300.527 99.2056 298.116 99.1605 297.756 100.1Z" fill="#18292D"/>
<path d="M279.021 98.755C279.089 99.7616 281.41 100.423 284.197 100.227C286.984 100.032 289.185 99.063 289.117 98.0564C289.049 97.0498 286.728 96.3887 283.941 96.584C281.154 96.7793 278.953 97.7484 279.021 98.755Z" fill="#18292D"/>
<path d="M290.259 115.679C289.876 115.679 289.553 115.394 289.515 115.003C289.47 114.59 289.771 114.222 290.184 114.177C290.905 114.102 291.543 113.741 291.972 113.148C292.4 112.562 292.558 111.841 292.407 111.127L291.07 104.659C290.988 104.254 291.25 103.855 291.656 103.773C292.062 103.69 292.46 103.953 292.543 104.359L293.88 110.826C294.113 111.946 293.857 113.118 293.181 114.034C292.505 114.958 291.468 115.551 290.334 115.664C290.311 115.664 290.281 115.664 290.259 115.664V115.679Z" fill="#18292D"/>
<path d="M286.398 127.391C285.625 127.391 284.896 127.21 284.205 126.842C281.388 125.355 280.434 121.321 280.396 121.148C280.306 120.742 280.554 120.344 280.96 120.247C281.365 120.149 281.764 120.404 281.861 120.81C281.869 120.848 282.703 124.356 284.911 125.513C285.82 125.993 286.834 126.008 288.014 125.55C288.397 125.4 288.832 125.588 288.983 125.978C289.133 126.361 288.945 126.797 288.554 126.947C287.803 127.24 287.082 127.383 286.391 127.383L286.398 127.391Z" fill="#18292D"/>
<path d="M282.035 75.7004C277.085 77.3606 272.765 79.5616 269.58 81.8677C269.693 82.7692 269.888 83.6706 270.189 84.5495C271.593 88.7412 274.899 91.8812 279.18 93.6465C281.772 93.2183 284.536 92.5272 287.368 91.5807C298.787 87.7421 306.847 81.079 305.375 76.6995C303.902 72.3125 293.453 71.8693 282.035 75.7079V75.7004Z" fill="#18292D"/>
<path d="M317.469 89.0567C320.556 93.2709 321.368 97.9133 320.421 101.737C319.542 101.97 318.633 102.12 317.709 102.18C313.3 102.443 309.153 100.55 305.908 97.2373C307.072 94.3977 305.382 88.7788 301.446 84.5571C293.228 75.7531 308.192 76.4066 317.469 89.0567Z" fill="#18292D"/>
<path d="M283.483 106.079C283.408 107.784 284.227 109.204 285.316 109.257C286.405 109.302 287.344 107.957 287.42 106.252C287.495 104.547 286.676 103.127 285.587 103.074C284.497 103.029 283.558 104.374 283.483 106.079Z" fill="#18292D"/>
<path d="M299.432 109.918C299.356 111.623 300.175 113.042 301.264 113.095C302.354 113.14 303.293 111.795 303.368 110.09C303.443 108.385 302.624 106.965 301.535 106.913C300.446 106.868 299.507 108.212 299.432 109.918Z" fill="#18292D"/>
<path d="M300.971 75.4529C300.971 75.4529 300.941 75.4529 300.926 75.4529C300.513 75.4303 300.198 75.0698 300.22 74.6566C300.43 71.2387 296.261 69.2405 296.224 69.2255C295.848 69.0527 295.683 68.602 295.863 68.2264C296.043 67.8508 296.487 67.693 296.862 67.8658C297.073 67.9634 302 70.3072 301.723 74.7542C301.7 75.1524 301.369 75.4604 300.971 75.4604V75.4529Z" fill="#18292D"/>
<path d="M301.296 73.4924C301.258 73.4924 301.213 73.4924 301.176 73.4849C300.77 73.4173 300.492 73.0341 300.552 72.621C300.935 70.2773 302.761 69.6012 303.677 69.5636C304.105 69.5336 304.443 69.8716 304.458 70.2848C304.473 70.6979 304.15 71.0435 303.745 71.0585C303.594 71.066 302.31 71.1937 302.039 72.8539C301.979 73.2219 301.664 73.4849 301.296 73.4849V73.4924Z" fill="#18292D"/>
<path d="M285.851 94.7883C285.505 94.7883 285.197 94.5479 285.115 94.2024C285.025 93.7967 285.28 93.3986 285.686 93.3085C292.469 91.7986 297.577 88.5384 300.882 83.6256C301.115 83.28 301.581 83.1899 301.927 83.4227C302.272 83.6556 302.362 84.1213 302.129 84.4669C298.606 89.7102 293.183 93.1807 286.016 94.7808C285.964 94.7958 285.904 94.7958 285.851 94.7958V94.7883Z" fill="#18292D"/>
<path d="M268.099 86.9009L267.438 103.247L270.089 103.953L276.715 85.1206L268.099 86.9009Z" fill="#18292D"/>
<path d="M230.622 198.852C230.494 198.852 230.367 198.822 230.254 198.754C229.893 198.551 229.766 198.093 229.968 197.733L235.88 187.276C236.083 186.915 236.541 186.788 236.902 186.99C237.263 187.193 237.39 187.651 237.187 188.012L231.276 198.469C231.14 198.717 230.885 198.852 230.622 198.852Z" fill="#18292D"/>
<path d="M314.118 199.084C313.705 199.084 313.367 198.746 313.367 198.333V186.322C313.367 185.908 313.705 185.57 314.118 185.57C314.532 185.57 314.87 185.908 314.87 186.322V198.333C314.87 198.746 314.532 199.084 314.118 199.084Z" fill="#18292D"/>
<path d="M220.503 199.062C222.163 191.513 223.14 181.214 223.102 167.159L222.734 164.139C221.683 155.515 215.403 148.447 206.967 146.388L162.278 135.474C154.729 133.626 146.774 136.135 141.643 141.971L114.705 199.062H220.503Z" fill="#18292D"/>
<path d="M179.571 139.177L190.591 156.627C193.513 161.254 200.522 160.308 202.115 155.08L214.607 114.109L190.005 106.304L179.571 139.184V139.177Z" fill="white"/>
<path d="M195.962 160.353C193.528 160.353 191.282 159.129 189.953 157.018L178.933 139.575C178.812 139.387 178.782 139.154 178.85 138.944L189.284 106.064C189.344 105.876 189.479 105.719 189.652 105.621C189.832 105.531 190.035 105.508 190.223 105.568L214.825 113.373C215.215 113.501 215.433 113.914 215.313 114.312L202.828 155.283C202.002 157.987 199.748 159.902 196.946 160.278C196.616 160.323 196.285 160.346 195.962 160.346V160.353ZM180.39 139.064L191.222 156.214C192.416 158.107 194.535 159.099 196.743 158.791C198.959 158.49 200.74 156.98 201.386 154.847L213.66 114.59L190.486 107.236L180.39 139.064Z" fill="#18292D"/>
<path d="M185.31 125.738L191.477 106.297L214.606 113.636L208.003 134.444C199.778 135.105 191.364 132.145 185.31 125.738Z" fill="#18292D"/>
<path d="M195.181 67.0547L201.393 67.8134C215.869 69.5862 227.204 80.4184 228.894 94.0827L230.93 110.586C231.689 116.754 227.061 122.365 220.526 123.176L195.466 126.294L195.181 67.0547Z" fill="#18292D"/>
<path d="M206.817 67.6259L199.59 67.1151C182.756 65.9282 167.777 74.7848 163.262 88.5917L157.809 105.261C155.773 111.496 159.987 118.264 167.281 120.465L195.263 128.916L206.817 67.6184V67.6259Z" fill="#18292D"/>
<path d="M204.315 74.5894C204.225 74.5894 204.135 74.5744 204.045 74.5368C203.654 74.3866 203.459 73.9584 203.609 73.5678L209.393 58.3636C210.175 56.3128 209.822 54.1343 208.394 52.2338C208.146 51.9033 208.214 51.43 208.545 51.1822C208.875 50.9343 209.348 51.0019 209.596 51.3324C211.317 53.6235 211.752 56.3804 210.798 58.8969L205.014 74.1011C204.901 74.4016 204.616 74.5819 204.315 74.5819V74.5894Z" fill="#18292D"/>
<path d="M204.03 74.0557L207.982 58.4684C209.221 53.5856 205.653 48.778 200.365 48.2071L194.505 47.5761C188.676 46.945 183.808 51.7377 184.732 57.1989L187.752 75.1299L204.03 74.0557Z" fill="#18292D"/>
<path d="M163.857 94.2328C165.058 90.1839 169.318 87.8852 173.359 89.0871L173.487 89.1247C176.837 77.4887 185.589 69.188 195.85 69.188C207.208 69.188 216.696 79.3441 219.092 92.9408C222.623 93.0985 225.687 95.6977 226.288 99.3184C226.979 103.48 224.17 107.416 220.001 108.115L218.694 108.333C215.772 120.93 206.652 130.125 195.85 130.125C184.041 130.125 174.246 119.142 172.353 104.735L168.995 103.735C164.946 102.534 162.64 98.2742 163.849 94.2328H163.857Z" fill="white"/>
<path d="M195.865 130.876C183.929 130.876 173.825 120.156 171.692 105.32L168.8 104.456C166.652 103.818 164.879 102.383 163.812 100.408C162.745 98.4394 162.505 96.1633 163.143 94.0149C163.782 91.8665 165.217 90.0937 167.192 89.027C168.98 88.0579 171.016 87.7725 172.992 88.2082C176.672 76.3468 185.784 68.4292 195.865 68.4292C207.306 68.4292 217.057 78.1872 219.746 92.227C223.412 92.6552 226.439 95.4947 227.048 99.1906C227.416 101.399 226.897 103.623 225.598 105.448C224.291 107.273 222.36 108.483 220.144 108.851L219.325 108.986C216.148 121.899 206.555 130.869 195.865 130.869V130.876ZM171.181 89.5152C170.047 89.5152 168.928 89.8007 167.906 90.3491C166.291 91.228 165.104 92.6778 164.586 94.4431C164.06 96.2084 164.255 98.0713 165.134 99.6864C166.013 101.301 167.463 102.488 169.228 103.007L172.586 104.006C172.871 104.088 173.074 104.336 173.119 104.629C175.005 118.962 184.568 129.366 195.865 129.366C205.984 129.366 215.081 120.645 217.981 108.152C218.048 107.859 218.289 107.634 218.589 107.581L219.904 107.364C221.722 107.063 223.307 106.072 224.381 104.577C225.455 103.082 225.876 101.256 225.575 99.4385C225.042 96.2459 222.315 93.8271 219.085 93.6844C218.732 93.6693 218.439 93.4139 218.379 93.0609C216.02 79.6596 206.555 69.9316 195.873 69.9316C186.273 69.9316 177.574 77.729 174.231 89.3274C174.178 89.5227 174.043 89.6805 173.871 89.7782C173.698 89.8758 173.487 89.8983 173.3 89.8382L173.172 89.8007C172.518 89.6054 171.857 89.5077 171.196 89.5077L171.181 89.5152Z" fill="#18292D"/>
<path d="M185.377 70.9383C188.637 68.7824 192.295 67.5654 196.164 67.5654C207.852 67.5654 217.625 78.6005 220.089 93.369C220.863 93.4065 221.607 93.5643 222.32 93.8272C208.574 94.5183 194.556 85.6767 185.369 70.9383H185.377Z" fill="#18292D"/>
<path d="M213.209 96.6592C213.209 96.6592 213.156 96.6592 213.134 96.6592C202.053 95.5699 191.657 86.7885 186.008 73.7402C185.843 73.3571 186.015 72.9139 186.399 72.7486C186.782 72.5834 187.225 72.7562 187.383 73.1393C192.814 85.6842 202.737 94.1276 213.276 95.1643C213.689 95.2018 213.99 95.5699 213.952 95.9831C213.915 96.3737 213.584 96.6592 213.209 96.6592Z" fill="#18292D"/>
<path d="M190.102 85.4438C189.861 85.4438 189.628 85.3311 189.486 85.1208C186.774 81.2371 185.174 76.6248 184.731 71.404C184.693 70.9908 185.001 70.6302 185.414 70.5927C185.827 70.5476 186.188 70.8631 186.226 71.2763C186.646 76.2341 188.156 80.5986 190.718 84.2644C190.958 84.6025 190.875 85.0757 190.53 85.3086C190.402 85.3987 190.252 85.4438 190.102 85.4438Z" fill="#18292D"/>
<path d="M172.689 99.5062C172.652 99.5062 172.607 99.5062 172.562 99.4987C172.156 99.4311 171.878 99.0405 171.946 98.6348C172.374 96.0507 170.285 94.7361 170.203 94.6835C169.85 94.4657 169.737 94.0074 169.955 93.6544C170.165 93.3013 170.623 93.1886 170.984 93.399C171.112 93.4741 174.034 95.277 173.433 98.8827C173.373 99.2508 173.05 99.5137 172.689 99.5137V99.5062Z" fill="#18292D"/>
<path d="M219.962 102.909C219.594 102.909 219.271 102.638 219.218 102.255C219.203 102.113 218.79 98.6946 221.99 96.9293C222.351 96.7265 222.809 96.8617 223.012 97.2222C223.215 97.5828 223.08 98.0411 222.719 98.2439C220.428 99.5134 220.698 101.962 220.706 102.067C220.758 102.481 220.465 102.856 220.052 102.901C220.022 102.901 219.985 102.901 219.955 102.901L219.962 102.909Z" fill="#18292D"/>
<path d="M203.85 108.145C198.786 108.145 194.67 104.028 194.67 98.965C194.67 93.9019 198.786 89.7854 203.85 89.7854C208.913 89.7854 213.029 93.9019 213.029 98.965C213.029 104.028 208.913 108.145 203.85 108.145ZM203.85 91.2953C199.62 91.2953 196.172 94.7358 196.172 98.9725C196.172 103.209 199.613 106.65 203.85 106.65C208.086 106.65 211.527 103.209 211.527 98.9725C211.527 94.7358 208.086 91.2953 203.85 91.2953Z" fill="#FFC31F"/>
<path d="M184.086 108.145C179.023 108.145 174.906 104.028 174.906 98.965C174.906 93.9019 179.023 89.7854 184.086 89.7854C189.149 89.7854 193.265 93.9019 193.265 98.965C193.265 104.028 189.149 108.145 184.086 108.145ZM184.086 91.2953C179.857 91.2953 176.409 94.7358 176.409 98.9725C176.409 103.209 179.849 106.65 184.086 106.65C188.323 106.65 191.763 103.209 191.763 98.9725C191.763 94.7358 188.323 91.2953 184.086 91.2953Z" fill="#FFC31F"/>
<path d="M194.881 100.55H193.16C192.747 100.55 192.409 100.212 192.409 99.7988C192.409 99.3856 192.747 99.0476 193.16 99.0476H194.881C195.294 99.0476 195.632 99.3856 195.632 99.7988C195.632 100.212 195.294 100.55 194.881 100.55Z" fill="#FFC31F"/>
<path d="M204.173 99.5587C204.068 101.106 203.181 102.308 202.197 102.233C201.213 102.165 200.5 100.851 200.612 99.3033C200.717 97.7559 201.604 96.554 202.588 96.6291C203.572 96.7042 204.286 98.0113 204.173 99.5587Z" fill="#18292D"/>
<path d="M188.368 99.3637C188.368 100.911 187.564 102.173 186.58 102.173C185.596 102.173 184.792 100.919 184.792 99.3637C184.792 97.8087 185.596 96.5542 186.58 96.5542C187.564 96.5542 188.368 97.8087 188.368 99.3637Z" fill="#18292D"/>
<path d="M196.286 120.66C195.94 120.66 195.625 120.419 195.55 120.066C195.467 119.661 195.722 119.262 196.128 119.18C200.59 118.241 202.776 114.943 202.799 114.913C203.024 114.568 203.49 114.462 203.835 114.688C204.181 114.913 204.286 115.379 204.061 115.724C203.963 115.882 201.537 119.578 196.436 120.645C196.384 120.652 196.331 120.66 196.278 120.66H196.286Z" fill="#18292D"/>
<path d="M193.467 111.638C193.415 111.638 193.355 111.638 193.302 111.616C192.273 111.375 191.386 110.714 190.868 109.79C190.35 108.866 190.252 107.762 190.59 106.763L192.513 101.076C192.648 100.686 193.077 100.475 193.467 100.603C193.858 100.738 194.068 101.166 193.941 101.557L192.017 107.244C191.815 107.852 191.867 108.498 192.183 109.054C192.498 109.617 193.017 110 193.64 110.151C194.046 110.241 194.294 110.646 194.203 111.052C194.121 111.398 193.813 111.638 193.475 111.638H193.467Z" fill="#18292D"/>
<path d="M206.62 69.0075C206.538 69.0075 206.455 68.9925 206.372 68.9624C194.601 64.7783 186.421 68.3615 186.338 68.399C185.962 68.5718 185.512 68.399 185.347 68.0234C185.174 67.6478 185.347 67.2046 185.722 67.0319C186.075 66.8741 194.541 63.1632 206.876 67.5502C207.266 67.6929 207.469 68.1211 207.334 68.5117C207.221 68.8197 206.936 69.0075 206.628 69.0075H206.62Z" fill="#4A7C88"/>
<path d="M154.142 139.613L150.086 143.203L150.319 138.193C150.409 136.255 151.19 134.414 152.527 133.01C153.714 131.763 154.788 131.635 157.102 132.364L168.948 136.54L167.333 138.598C166.184 140.071 164.344 140.829 162.496 140.604L154.15 139.605L154.142 139.613Z" fill="white"/>
<path d="M150.086 143.954C149.973 143.954 149.868 143.932 149.763 143.879C149.493 143.752 149.32 143.466 149.335 143.166L149.568 138.155C149.665 136.037 150.522 134.024 151.987 132.491C153.542 130.861 155.059 130.936 157.328 131.642L169.196 135.826C169.422 135.909 169.602 136.089 169.67 136.322C169.737 136.555 169.692 136.803 169.542 136.998L167.927 139.057C166.62 140.724 164.509 141.596 162.406 141.348L154.39 140.386L150.582 143.752C150.439 143.879 150.266 143.939 150.086 143.939V143.954ZM154.841 132.664C154.075 132.664 153.609 132.964 153.076 133.528C151.866 134.805 151.153 136.473 151.07 138.223L150.92 141.46L153.647 139.049C153.805 138.906 154.022 138.839 154.233 138.869L162.578 139.868C164.163 140.056 165.756 139.395 166.74 138.14L167.709 136.901L156.854 133.07C155.983 132.799 155.352 132.664 154.849 132.664H154.841Z" fill="#18292D"/>
<path d="M149.313 145.397L144.49 149.663L144.768 143.714C144.873 141.415 145.805 139.229 147.397 137.562C148.81 136.082 151.056 135.759 152.828 136.795L168.108 145.427L165.08 148.394C163.51 149.934 161.189 150.407 159.146 149.603L149.32 145.404L149.313 145.397Z" fill="white"/>
<path d="M161.167 150.738C160.393 150.738 159.612 150.595 158.861 150.302L149.456 146.276L144.994 150.227C144.769 150.43 144.446 150.475 144.175 150.34C143.905 150.212 143.732 149.927 143.747 149.626L144.025 143.677C144.138 141.198 145.144 138.839 146.857 137.044C148.517 135.301 151.131 134.933 153.205 136.142L168.476 144.766C168.679 144.886 168.822 145.089 168.852 145.322C168.882 145.555 168.799 145.787 168.634 145.953L165.607 148.927C164.405 150.107 162.805 150.738 161.175 150.738H161.167ZM149.313 144.653C149.411 144.653 149.516 144.676 149.606 144.713L159.432 148.912C161.175 149.596 163.195 149.19 164.548 147.861L166.861 145.592L152.453 137.457C150.966 136.593 149.118 136.856 147.939 138.088C146.474 139.628 145.617 141.633 145.52 143.752L145.325 147.928L148.818 144.841C148.96 144.713 149.133 144.653 149.313 144.653Z" fill="#18292D"/>
<path d="M142.974 151.008L138.151 155.275L138.429 149.326C138.534 147.027 139.466 144.841 141.058 143.173C142.471 141.694 144.717 141.371 146.49 142.407L160.424 150.347L157.397 153.322C155.827 154.862 153.506 155.335 151.463 154.532L142.989 151.023L142.974 151.008Z" fill="white"/>
<path d="M138.158 156.026C138.046 156.026 137.941 156.004 137.835 155.951C137.565 155.823 137.392 155.538 137.407 155.237L137.685 149.288C137.798 146.809 138.804 144.45 140.517 142.655C142.177 140.912 144.791 140.537 146.872 141.754L160.799 149.686C161.002 149.806 161.145 150.009 161.175 150.242C161.205 150.475 161.122 150.708 160.957 150.873L157.93 153.848C156.149 155.591 153.505 156.124 151.192 155.222L143.139 151.887L138.669 155.838C138.526 155.966 138.354 156.026 138.173 156.026H138.158ZM142.981 150.257C143.079 150.257 143.176 150.28 143.266 150.317L151.74 153.825C153.49 154.516 155.511 154.103 156.863 152.774L159.184 150.497L146.114 143.053C144.634 142.189 142.778 142.452 141.599 143.684C140.134 145.217 139.278 147.23 139.18 149.348L138.985 153.525L142.478 150.437C142.62 150.31 142.793 150.25 142.974 150.25L142.981 150.257Z" fill="#18292D"/>
<path d="M136.949 156.334L132.126 160.601L132.404 154.651C132.509 152.353 133.441 150.167 135.033 148.499C136.445 147.019 138.691 146.696 140.464 147.733L152.438 154.719L149.411 157.686C147.841 159.226 145.52 159.699 143.477 158.896L136.956 156.334H136.949Z" fill="white"/>
<path d="M132.133 161.352C132.02 161.352 131.915 161.33 131.81 161.277C131.54 161.149 131.367 160.864 131.382 160.563L131.66 154.614C131.772 152.135 132.779 149.776 134.492 147.981C136.152 146.238 138.766 145.87 140.839 147.079L152.813 154.065C153.016 154.186 153.151 154.388 153.181 154.621C153.211 154.854 153.129 155.087 152.964 155.252L149.936 158.227C148.163 159.97 145.519 160.511 143.198 159.594L137.106 157.205L132.629 161.164C132.486 161.292 132.313 161.352 132.133 161.352ZM138.233 147.876C137.256 147.876 136.295 148.266 135.581 149.017C134.116 150.55 133.26 152.563 133.162 154.681L132.967 158.858L136.46 155.771C136.67 155.583 136.971 155.53 137.234 155.635L143.754 158.197C145.519 158.888 147.54 158.482 148.892 157.153L151.221 154.869L140.096 148.379C139.517 148.041 138.879 147.876 138.24 147.876H138.233Z" fill="#18292D"/>
<path d="M151.581 199.648C151.483 199.648 151.378 199.625 151.28 199.588C150.897 199.422 150.724 198.979 150.89 198.604L157.215 183.948C157.38 183.565 157.823 183.392 158.199 183.557C158.582 183.722 158.755 184.166 158.589 184.541L152.264 199.197C152.144 199.483 151.866 199.648 151.573 199.648H151.581Z" fill="white"/>
</g>
</svg>
