<svg width="470" height="250" viewBox="0 0 470 250" fill="none" xmlns="http://www.w3.org/2000/svg">
<g clip-path="url(#clip0_558_8494)">
<g clip-path="url(#clip1_558_8494)">
<path d="M314.622 108.205H154.492C150.258 108.205 146.826 111.634 146.826 115.863V241.525C146.826 245.755 150.258 249.183 154.492 249.183H314.622C318.856 249.183 322.288 245.755 322.288 241.525V115.863C322.288 111.634 318.856 108.205 314.622 108.205Z" fill="white"/>
<path d="M314.622 250H154.491C149.808 250 146 246.196 146 241.517V115.863C146 111.184 149.808 107.38 154.491 107.38H314.622C319.306 107.38 323.114 111.184 323.114 115.863V241.517C323.114 246.196 319.306 250 314.622 250ZM154.491 109.03C150.717 109.03 147.652 112.1 147.652 115.863V241.517C147.652 245.288 150.717 248.349 154.491 248.349H314.622C318.397 248.349 321.462 245.288 321.462 241.517V115.863C321.462 112.092 318.389 109.03 314.622 109.03H154.491Z" fill="#18292D"/>
<path d="M154.401 117.596C152.766 117.596 151.428 116.267 151.428 114.633C151.428 112.999 152.758 111.671 154.401 111.671C156.045 111.671 157.367 112.999 157.367 114.633C157.367 116.267 156.037 117.596 154.401 117.596ZM154.401 113.313C153.674 113.313 153.08 113.907 153.08 114.625C153.08 115.343 153.674 115.937 154.401 115.937C155.128 115.937 155.715 115.343 155.715 114.625C155.715 113.907 155.12 113.313 154.401 113.313Z" fill="#18292D"/>
<path d="M161.62 117.596C159.984 117.596 158.654 116.267 158.654 114.633C158.654 112.999 159.984 111.671 161.62 111.671C163.255 111.671 164.585 112.999 164.585 114.633C164.585 116.267 163.255 117.596 161.62 117.596ZM161.62 113.313C160.893 113.313 160.306 113.907 160.306 114.625C160.306 115.343 160.901 115.937 161.62 115.937C162.338 115.937 162.933 115.343 162.933 114.625C162.933 113.907 162.338 113.313 161.62 113.313Z" fill="#18292D"/>
<path d="M168.831 117.596C167.195 117.596 165.865 116.267 165.865 114.633C165.865 112.999 167.195 111.671 168.831 111.671C170.466 111.671 171.796 112.999 171.796 114.633C171.796 116.267 170.466 117.596 168.831 117.596ZM168.831 113.313C168.104 113.313 167.517 113.907 167.517 114.625C167.517 115.343 168.112 115.937 168.831 115.937C169.549 115.937 170.144 115.343 170.144 114.625C170.144 113.907 169.549 113.313 168.831 113.313Z" fill="#18292D"/>
<path d="M170.582 249.265L201.161 205.466C209.603 193.609 224.603 188.353 238.612 192.346L290.891 207.265C298.507 209.444 305.139 214.18 309.666 220.682L316.679 249.265V248.44L170.599 249.265H170.582Z" fill="#4A7C88"/>
<path d="M193.784 190.861V157.269C193.784 153.515 191.752 150.041 188.472 148.201C187.333 147.557 185.978 147.573 184.846 148.234C183.715 148.894 183.037 150.074 183.037 151.377V175.579C181.947 174.936 180.675 174.556 179.32 174.556H179.039C176.619 174.556 174.405 175.728 173.026 177.7C172.588 177.617 172.134 177.568 171.671 177.568H171.39C168.871 177.568 166.55 178.839 165.187 180.959C165.171 180.984 165.171 181 165.162 181.025C164.559 180.885 163.94 180.811 163.304 180.811C158.719 180.811 154.994 184.532 154.994 189.112V248.432C154.994 248.671 155.184 248.432 155.424 248.432H191.198C191.438 248.432 191.628 248.671 191.628 248.432V218.289L192.074 217.844C196.171 213.751 198.418 208.321 198.418 202.537V198.428C198.418 195.127 196.526 192.272 193.784 190.853V190.861Z" fill="white"/>
<path d="M181.303 228.835C181.089 228.835 180.882 228.752 180.717 228.595C180.395 228.274 180.395 227.754 180.717 227.432L191.182 216.977C195.04 213.124 197.163 208 197.163 202.554V198.444C197.163 194.434 193.9 191.175 189.886 191.175H174.67C173.795 191.175 172.969 191.554 172.407 192.231C171.845 192.899 171.606 193.782 171.755 194.64C172.159 197 174.026 198.84 176.397 199.212L185.458 200.647C185.855 200.713 186.144 201.044 186.152 201.448C186.16 201.844 185.879 202.199 185.491 202.273C185.466 202.273 182.864 202.818 180.32 204.46C177.008 206.605 175.331 209.543 175.331 213.198C175.331 213.652 174.96 214.023 174.505 214.023C174.051 214.023 173.679 213.652 173.679 213.198C173.679 208.99 175.678 205.483 179.47 203.049C180.304 202.512 181.13 202.091 181.89 201.753L176.141 200.837C173.076 200.35 170.656 197.966 170.136 194.913C169.904 193.568 170.276 192.206 171.152 191.158C172.027 190.118 173.316 189.516 174.679 189.516H189.894C194.817 189.516 198.823 193.518 198.823 198.436V202.545C198.823 208.437 196.527 213.974 192.355 218.132L181.89 228.587C181.725 228.752 181.518 228.826 181.303 228.826V228.835Z" fill="#18292D"/>
<path d="M193.354 191.777C192.9 191.777 192.528 191.406 192.528 190.952V157.261C192.528 153.96 190.736 150.899 187.861 149.281C187.109 148.861 186.217 148.869 185.482 149.298C184.739 149.735 184.293 150.503 184.293 151.361V175.587C184.293 176.041 183.921 176.412 183.467 176.412C183.012 176.412 182.641 176.041 182.641 175.587V151.361C182.641 149.909 183.392 148.605 184.648 147.87C185.903 147.136 187.407 147.128 188.679 147.837C192.082 149.752 194.188 153.358 194.188 157.252V190.943C194.188 191.397 193.817 191.769 193.362 191.769L193.354 191.777Z" fill="#18292D"/>
<path d="M186.243 190.853C185.789 190.853 185.417 190.481 185.417 190.028V181.908C185.417 178.55 182.675 175.81 179.313 175.81H179.032C176.942 175.81 175.017 176.866 173.886 178.624C173.638 179.012 173.126 179.119 172.746 178.871C172.366 178.624 172.25 178.112 172.498 177.733C173.935 175.488 176.38 174.152 179.032 174.152H179.313C183.591 174.152 187.069 177.626 187.069 181.9V190.019C187.069 190.473 186.697 190.844 186.243 190.844V190.853Z" fill="#18292D"/>
<path d="M178.595 191.076C178.14 191.076 177.769 190.704 177.769 190.251V184.912C177.769 181.553 175.034 178.814 171.664 178.814H171.383C169.294 178.814 167.369 179.87 166.237 181.628C165.99 182.007 165.477 182.123 165.098 181.875C164.718 181.628 164.602 181.116 164.85 180.736C166.287 178.5 168.732 177.164 171.383 177.164H171.664C175.943 177.164 179.421 180.637 179.421 184.912V190.251C179.421 190.704 179.049 191.076 178.595 191.076Z" fill="#18292D"/>
<path d="M191.199 249.257C190.745 249.257 190.373 248.886 190.373 248.432V219.428C190.373 218.974 190.745 218.603 191.199 218.603C191.653 218.603 192.025 218.974 192.025 219.428V248.432C192.025 248.886 191.653 249.257 191.199 249.257Z" fill="#18292D"/>
<path d="M155.408 249.257C154.954 249.257 154.582 248.886 154.582 248.432V189.112C154.582 184.318 158.489 180.415 163.288 180.415C168.087 180.415 171.994 184.318 171.994 189.112V200.449C171.994 202.058 170.689 203.362 169.079 203.362C165.684 203.362 162.925 200.606 162.925 197.215V191.884C162.925 191.43 163.296 191.059 163.751 191.059C164.205 191.059 164.577 191.43 164.577 191.884V197.215C164.577 199.698 166.601 201.712 169.079 201.712C169.772 201.712 170.342 201.142 170.342 200.449V189.112C170.342 185.225 167.179 182.065 163.288 182.065C159.398 182.065 156.234 185.225 156.234 189.112V248.432C156.234 248.886 155.862 249.257 155.408 249.257Z" fill="#18292D"/>
<path d="M165.61 192.709H161.67C161.215 192.709 160.844 192.338 160.844 191.884C160.844 191.43 161.215 191.059 161.67 191.059H165.61C166.064 191.059 166.436 191.43 166.436 191.884C166.436 192.338 166.064 192.709 165.61 192.709Z" fill="#18292D"/>
<path d="M265.277 175.397C278.406 175.397 289.049 164.765 289.049 151.65C289.049 138.534 278.406 127.902 265.277 127.902C252.147 127.902 241.504 138.534 241.504 151.65C241.504 164.765 252.147 175.397 265.277 175.397Z" fill="#18292D"/>
<path d="M263.028 148.984C266.578 141.984 263.776 133.434 256.768 129.887C249.761 126.34 241.202 129.14 237.651 136.14C234.101 143.14 236.903 151.69 243.911 155.237C250.918 158.784 259.477 155.984 263.028 148.984Z" fill="#18292D"/>
<path d="M242.369 189.293C231.036 184.301 227.039 168.491 233.44 153.985C239.842 139.47 254.223 131.755 265.556 136.747C275.022 140.914 279.366 152.623 276.814 164.819C279.053 162.278 282.571 160.999 286.115 161.791C291.046 162.896 294.334 167.831 293.442 172.807C292.475 178.187 287.247 181.644 281.952 180.481C280.82 180.233 279.779 179.779 278.854 179.193L277.202 205.062C280.217 205.862 238.545 220.649 244.467 198.708L247.433 190.671C245.706 190.465 244.005 190.019 242.369 189.293Z" fill="white"/>
<path d="M255.462 211.506C251.729 211.506 248.334 210.846 246.038 209.089C243.171 206.885 242.378 203.321 243.684 198.494L246.318 191.339C244.832 191.075 243.403 190.646 242.048 190.052C230.319 184.887 226.114 168.557 232.689 153.655C239.264 138.752 254.157 130.831 265.895 135.996C274.899 139.957 279.698 150.701 278.046 162.632C280.416 160.966 283.415 160.347 286.306 160.999C291.658 162.203 295.227 167.567 294.269 172.963C293.765 175.777 292.179 178.203 289.8 179.787C287.421 181.372 284.579 181.908 281.787 181.297C281.036 181.132 280.309 180.885 279.615 180.555L278.07 204.732C278.136 204.839 278.178 204.963 278.194 205.087C278.293 205.821 277.542 206.258 277.145 206.489C274.519 208.008 264.103 211.523 255.471 211.523L255.462 211.506ZM242.709 188.542C244.22 189.211 245.848 189.648 247.541 189.854C247.789 189.887 248.012 190.027 248.144 190.242C248.276 190.457 248.301 190.721 248.218 190.96L245.261 198.997C244.039 203.544 244.881 206.613 247.863 208.313C255.289 212.546 273.593 206.762 276.394 205.012L278.046 179.135C278.062 178.847 278.236 178.583 278.5 178.451C278.764 178.319 279.07 178.335 279.318 178.492C280.202 179.053 281.151 179.449 282.143 179.672C284.497 180.183 286.884 179.738 288.883 178.401C290.882 177.064 292.22 175.026 292.641 172.658C293.451 168.12 290.444 163.606 285.942 162.591C282.82 161.89 279.565 162.946 277.443 165.355C277.195 165.636 276.79 165.718 276.451 165.545C276.113 165.38 275.939 165.009 276.014 164.637C278.533 152.557 274.097 141.393 265.226 137.49C254.323 132.696 240.404 140.238 234.201 154.307C227.998 168.375 231.814 183.732 242.709 188.526V188.542Z" fill="#18292D"/>
<path d="M279.417 173.97C279.417 173.97 279.351 173.97 279.309 173.97C278.855 173.912 278.533 173.5 278.591 173.046C278.946 170.224 280.028 168.128 281.796 166.808C284.34 164.91 287.363 165.38 287.487 165.405C287.933 165.479 288.239 165.9 288.164 166.354C288.09 166.799 287.669 167.113 287.214 167.03C287.156 167.03 284.72 166.676 282.762 168.144C281.374 169.184 280.524 170.9 280.226 173.252C280.177 173.673 279.821 173.978 279.408 173.978L279.417 173.97Z" fill="#18292D"/>
<path d="M249.681 191.637C249.094 191.637 248.5 191.612 247.913 191.562C247.459 191.521 247.12 191.117 247.162 190.663C247.203 190.209 247.599 189.879 248.054 189.912C254.521 190.481 261.386 187.569 266.903 181.9C267.225 181.57 267.746 181.561 268.068 181.883C268.398 182.197 268.398 182.725 268.085 183.047C262.715 188.567 256.091 191.637 249.673 191.637H249.681Z" fill="#18292D"/>
<path d="M240.1 151.014C240.339 151.774 238.828 152.937 236.713 153.605C234.598 154.274 232.69 154.2 232.451 153.44C232.211 152.681 233.723 151.518 235.837 150.849C237.952 150.181 239.86 150.255 240.1 151.014Z" fill="#18292D"/>
<path d="M258.543 158.317C258.13 159.216 255.767 159.026 253.273 157.896C250.77 156.757 249.077 155.107 249.49 154.208C249.903 153.308 252.265 153.498 254.76 154.628C257.263 155.767 258.956 157.417 258.543 158.317Z" fill="#18292D"/>
<path d="M241.048 165.652C240.792 165.652 240.536 165.529 240.371 165.306C239.537 164.134 239.38 162.599 239.966 161.287L242.618 155.363C242.8 154.95 243.295 154.76 243.708 154.942C244.121 155.132 244.311 155.619 244.129 156.031L241.478 161.956C241.123 162.748 241.214 163.639 241.718 164.34C241.982 164.712 241.899 165.223 241.528 165.496C241.379 165.603 241.214 165.652 241.048 165.652Z" fill="#18292D"/>
<path d="M244.41 176.322C243.749 176.322 243.047 176.272 242.312 176.157C241.858 176.082 241.552 175.662 241.626 175.216C241.701 174.77 242.122 174.457 242.568 174.531C248.16 175.414 251.522 172.014 251.662 171.866C251.976 171.544 252.505 171.528 252.827 171.841C253.158 172.155 253.166 172.675 252.852 173.005C252.703 173.153 249.606 176.322 244.394 176.322H244.41Z" fill="#18292D"/>
<path d="M252.605 137.358C253.588 142.499 258.56 145.874 263.714 144.883C268.869 143.893 272.239 138.934 271.248 133.785C270.265 128.644 265.292 125.269 260.138 126.26C254.983 127.25 251.613 132.209 252.605 137.358Z" fill="#18292D"/>
<path d="M264.928 145.874C265.911 151.014 270.884 154.389 276.038 153.399C281.184 152.417 284.563 147.45 283.572 142.301C282.589 137.16 277.616 133.785 272.462 134.775C267.316 135.757 263.937 140.725 264.928 145.874Z" fill="#18292D"/>
<path d="M268.762 164.877C269.224 167.295 271.562 168.879 273.982 168.417C276.402 167.955 277.988 165.619 277.526 163.202C277.063 160.784 281.482 145.057 274.601 146.369C266.457 147.928 268.307 162.459 268.77 164.877H268.762Z" fill="#18292D"/>
<path d="M285.894 140.527C285.63 140.527 285.365 140.403 285.209 140.164C284.952 139.784 285.052 139.273 285.432 139.017C286.836 138.068 288.934 138.439 289.165 138.48C289.611 138.571 289.909 139 289.818 139.446C289.735 139.891 289.297 140.188 288.851 140.098C288.397 140.015 287.075 139.9 286.357 140.378C286.216 140.477 286.051 140.518 285.894 140.518V140.527Z" fill="#18292D"/>
<path d="M285.101 139.462C284.812 139.462 284.522 139.305 284.374 139.033C284.159 138.637 284.299 138.134 284.696 137.919C284.754 137.886 285.861 137.234 285.869 135.947C285.869 135.493 286.241 135.122 286.695 135.122C287.149 135.122 287.521 135.493 287.521 135.947C287.521 138.241 285.58 139.322 285.497 139.363C285.373 139.429 285.233 139.462 285.101 139.462Z" fill="#18292D"/>
<path d="M249.987 163.408C249.888 165.042 250.656 166.412 251.705 166.478C252.754 166.544 253.688 165.273 253.787 163.639C253.886 162.005 253.118 160.636 252.069 160.57C251.02 160.504 250.086 161.774 249.987 163.408Z" fill="#18292D"/>
<path d="M234.077 161.098C233.978 162.731 234.746 164.101 235.795 164.167C236.844 164.233 237.778 162.962 237.877 161.329C237.976 159.695 237.208 158.325 236.159 158.259C235.109 158.193 234.176 159.464 234.077 161.098Z" fill="#18292D"/>
<path d="M207.374 139.594L187.996 130.937C192.902 119.967 194.676 107.852 193.117 95.9376L193.117 95.9373L192.489 91.1518C192.489 91.1517 192.489 91.1515 192.489 91.1514C190.889 78.912 197.903 67.1725 209.448 62.766L209.092 61.8317L209.448 62.766C223.223 57.5083 238.67 64.4049 243.932 78.1801L243.932 78.1806C248.343 89.7041 244.259 102.756 234.06 109.723L234.059 109.723L230.079 112.446C220.146 119.228 212.291 128.629 207.374 139.594Z" fill="white" stroke="#18292D" stroke-width="2"/>
<path d="M190.148 117.315L215.508 128.642L209.934 141.094C208.218 144.928 203.708 146.656 199.862 144.938L188.416 139.825C184.577 138.111 182.848 133.606 184.567 129.764L190.141 117.312L190.148 117.315Z" fill="#18292D"/>
<path d="M205.746 126.557C205.63 126.557 205.506 126.532 205.399 126.483C204.986 126.293 204.804 125.798 205.002 125.385C205.077 125.228 211.231 112.084 214.229 105.095C212.544 104.822 210.908 104.344 209.397 103.692L200.724 123.066C200.534 123.479 200.055 123.669 199.633 123.479C199.22 123.289 199.03 122.802 199.22 122.39L207.918 102.957C207.125 102.52 206.39 102.025 205.721 101.489C201.864 98.3695 201.013 93.922 202.64 91.7188C203.532 90.5223 205.349 89.8292 207.803 91.4795C211.809 94.1778 210.272 101.522 210.206 101.835C210.198 101.893 210.173 101.942 210.157 102L210.074 102.182C211.569 102.834 213.221 103.279 214.898 103.51C215.187 102.801 215.427 102.207 215.584 101.761C217.227 97.2061 218.491 94.9369 221.638 93.5176C226.107 91.5042 228.205 93.4021 228.899 94.3015C230.27 96.1004 230.13 98.8811 228.56 100.779C225.628 104.335 220.73 105.656 215.939 105.301C213.04 112.125 206.811 125.426 206.506 126.086C206.365 126.384 206.068 126.565 205.754 126.565L205.746 126.557ZM216.608 103.659C220.746 103.849 224.852 102.652 227.272 99.7228C228.346 98.419 228.478 96.4799 227.577 95.2917C226.619 94.0375 224.695 93.9302 222.307 95.0112C219.92 96.0839 218.805 97.6599 217.128 102.314C216.996 102.677 216.823 103.131 216.608 103.659ZM205.036 92.1561C204.631 92.1561 204.251 92.2964 203.953 92.6925C202.962 94.0292 203.383 97.4784 206.745 100.193C207.307 100.647 207.927 101.06 208.579 101.431L208.596 101.398C208.744 100.647 209.76 94.7884 206.869 92.841C206.481 92.5852 205.738 92.1479 205.036 92.1479V92.1561Z" fill="#FFC31F"/>
<path d="M185.691 81.8498C185.691 81.8498 185.608 81.8498 185.567 81.8416L175.043 80.084C174.63 80.018 174.358 79.6302 174.424 79.2176C174.49 78.805 174.87 78.5327 175.291 78.5987L185.815 80.3563C186.228 80.4223 186.5 80.8101 186.434 81.2227C186.376 81.5858 186.054 81.8498 185.691 81.8498Z" fill="#FFC31F"/>
<path d="M188.334 71.8327C188.185 71.8327 188.044 71.7915 187.912 71.7007L182.725 68.169C182.386 67.938 182.295 67.4676 182.527 67.1293C182.758 66.791 183.229 66.7003 183.567 66.9313L188.755 70.463C189.102 70.694 189.184 71.1643 188.953 71.5027C188.804 71.7172 188.573 71.8327 188.334 71.8327Z" fill="#FFC31F"/>
<path d="M177.968 95.3081C177.596 95.3081 177.282 95.0358 177.224 94.6645C177.167 94.2519 177.447 93.8723 177.86 93.8146L183.667 92.9812C184.08 92.9234 184.46 93.204 184.518 93.6165C184.576 94.0291 184.295 94.4087 183.882 94.4664L178.075 95.2998C178.075 95.2998 178.001 95.2998 177.968 95.2998V95.3081Z" fill="#FFC31F"/>
</g>
</g>
<defs>
<clipPath id="clip0_558_8494">
<rect width="470" height="250" fill="white"/>
</clipPath>
<clipPath id="clip1_558_8494">
<rect width="177.114" height="190" fill="white" transform="translate(146 60)"/>
</clipPath>
</defs>
</svg>
