<svg width="700" height="400" viewBox="0 0 700 400" fill="none" xmlns="http://www.w3.org/2000/svg">
<g clip-path="url(#clip0_555_7978)">
<rect width="700" height="400" fill="white"/>
<mask id="mask0_555_7978" style="mask-type:alpha" maskUnits="userSpaceOnUse" x="0" y="0" width="700" height="400">
<rect width="700" height="400" fill="#F5F5F5"/>
</mask>
<g mask="url(#mask0_555_7978)">
<ellipse cx="336.843" cy="198.359" rx="223.935" ry="110.837" transform="rotate(21.5553 336.843 198.359)" fill="#F2F7F8"/>
<path d="M288.956 348.904H231.304C224.442 348.904 222.292 339.626 228.447 336.608L333.884 284.89C334.768 284.448 335.755 284.228 336.741 284.228H394.393C401.255 284.228 403.405 293.505 397.25 296.524L291.813 348.241C290.929 348.683 289.942 348.904 288.956 348.904Z" fill="#18292D"/>
<path d="M284.332 270.503L236.34 297.937L269.65 212.719L317.641 185.299L284.332 270.503Z" fill="#18292D"/>
<path d="M284.332 270.503L236.34 297.923L276.438 300.779C277.116 300.824 277.793 300.676 278.382 300.338L315.698 279.015C318.628 277.336 317.612 272.874 314.24 272.624L284.332 270.488V270.503Z" fill="#18292D"/>
<path d="M506.988 222.703C497.284 222.703 487.418 221.642 477.566 219.507C454.122 214.412 436.245 204.31 432.519 197.477C431.12 194.93 431.606 192.603 433.801 191.248C441.988 186.227 439.75 159.146 438.115 139.369C437.453 131.432 436.893 124.569 436.981 119.71C437.217 106.118 448.276 93.9838 468.981 84.6181C479.731 79.7586 494.692 80.5685 510.051 86.8564C520.728 91.23 526.088 100.993 530.402 108.827C531.787 111.346 533.097 113.731 534.393 115.557C537.132 119.415 542.772 120.505 547.75 121.477C551.74 122.257 555.525 122.979 557.675 125.085C560.325 127.662 560.694 132.492 561.091 137.602C561.445 142.108 561.813 146.761 563.668 149.957C564.935 152.122 568.204 154.301 571.664 156.613C578.939 161.473 587.995 167.51 587.333 178.54C586.361 194.606 560.414 210.495 559.309 211.158C559.265 211.187 559.236 211.202 559.192 211.217C543.45 218.815 525.543 222.688 506.988 222.688V222.703ZM484.958 84.4267C479.48 84.4267 474.459 85.3839 470.203 87.3129C456.537 93.4978 440.192 104.145 439.927 119.769C439.853 124.481 440.413 131.27 441.06 139.133C442.857 160.81 445.081 187.802 435.347 193.766C434.905 194.046 434.228 194.459 435.111 196.064C437.909 201.188 453.533 211.261 478.199 216.621C494.427 220.14 526.338 223.792 557.851 208.595C559.206 207.756 583.533 192.544 584.402 178.348C584.962 169.012 577.039 163.726 570.045 159.057C566.127 156.436 562.741 154.183 561.135 151.429C558.941 147.66 558.544 142.653 558.175 137.823C557.822 133.272 557.483 128.987 555.628 127.176C554.096 125.689 550.754 125.041 547.19 124.349C541.668 123.274 535.409 122.066 531.993 117.251C530.594 115.292 529.254 112.833 527.825 110.241C523.746 102.805 518.666 93.542 508.947 89.566C500.568 86.1349 492.336 84.3972 484.958 84.3972V84.4267Z" fill="#18292D"/>
<path d="M547.603 216.533C547.603 216.533 574.963 201.35 576.907 185.078C578.851 168.806 559.001 162.121 555.29 154.286C551.593 146.452 555.231 132.772 551.137 127.986C547.043 123.2 533.186 124.481 528.356 116.22C523.526 107.959 519.8 91.716 506.547 84.9421C493.294 78.1682 478.406 75.3703 466.861 80.0089C455.316 84.6476 432.049 94.9999 433.595 113.687C438.219 169.763 414.142 158.675 416.425 173.106C422.521 211.835 482.028 244.939 547.603 216.533Z" fill="#18292D"/>
<path d="M422.698 190.1C422.389 190.1 422.065 189.997 421.8 189.79C413.906 183.694 409.96 177.671 410.078 171.898C410.166 166.803 413.391 161.944 419.664 157.452C431.622 148.882 433.566 135.673 433.58 135.54C433.698 134.73 434.42 134.171 435.244 134.288C436.054 134.392 436.614 135.143 436.511 135.938C436.437 136.527 434.405 150.516 421.402 159.838C415.939 163.755 413.126 167.834 413.052 171.943C412.964 176.729 416.528 181.941 423.64 187.449C424.288 187.95 424.406 188.877 423.905 189.511C423.611 189.879 423.184 190.085 422.742 190.085L422.698 190.1Z" fill="#18292D"/>
<path d="M483.295 236.56L433.536 216.518L432.623 166.376L479.172 165.537L483.295 236.56Z" fill="white"/>
<path d="M483.295 238.032C483.103 238.032 482.927 238.003 482.75 237.929L432.991 217.887C432.446 217.667 432.078 217.136 432.063 216.547L431.165 166.406C431.165 165.596 431.798 164.918 432.608 164.904L479.157 164.064C479.878 164.05 480.6 164.668 480.659 165.449L484.782 236.472C484.811 236.972 484.576 237.458 484.178 237.753C483.928 237.929 483.619 238.032 483.324 238.032H483.295ZM434.979 215.517L481.69 234.336L477.787 167.039L434.125 167.834L434.979 215.531V215.517Z" fill="#18292D"/>
<path d="M554.391 251.566L523.687 191.44H434.124C415.378 191.44 398.65 203.235 392.362 220.906L362.821 303.975L324.107 286.922C320.44 285.303 316.214 285.597 312.798 287.688L285.025 304.741L260.859 330.423L262.288 331.468C268.178 335.798 276.204 335.798 282.109 331.483L291.828 324.385L300.133 331.527C308.395 338.64 319.277 341.924 330.1 340.554L332.619 340.245L383.938 357.18C398.414 361.951 413.964 353.793 418.264 339.17L430.811 296.435L438.159 308.275C447.598 323.487 464.239 332.72 482.131 332.72L539.856 300.028C556.894 290.383 563.3 269.016 554.405 251.58L554.391 251.566Z" fill="white"/>
<path d="M392.42 360.007C389.416 360.007 386.412 359.521 383.467 358.549L332.456 341.717L330.262 341.997C319.071 343.411 307.717 339.98 299.161 332.617L291.739 326.24L282.963 332.661C276.513 337.373 267.854 337.373 261.404 332.646L259.976 331.601C259.637 331.35 259.416 330.967 259.387 330.555C259.342 330.128 259.49 329.716 259.784 329.406L283.949 303.725C284.038 303.636 284.141 303.548 284.259 303.474L312.032 286.422C315.86 284.08 320.587 283.756 324.696 285.568L361.952 301.987L390.962 220.42C397.442 202.204 414.774 189.967 434.109 189.967H523.672C524.232 189.967 524.732 190.276 524.983 190.777L555.686 250.903C564.978 269.089 558.322 291.237 540.548 301.295L482.823 333.986C482.602 334.104 482.351 334.178 482.101 334.178C463.561 334.178 446.656 324.783 436.878 309.026L431.267 299.984L419.648 339.567C417.454 347.033 412.462 353.13 405.571 356.738C401.433 358.917 396.926 360.007 392.406 360.007H392.42ZM332.604 338.743C332.766 338.743 332.913 338.772 333.06 338.816L384.38 355.751C390.992 357.931 398.046 357.356 404.216 354.117C410.386 350.877 414.863 345.414 416.836 338.728L429.382 295.993C429.544 295.434 430.015 295.022 430.605 294.948C431.179 294.874 431.753 295.139 432.048 295.625L439.396 307.465C448.57 322.235 464.371 331.085 481.733 331.218L539.12 298.718C555.51 289.426 561.65 269.001 553.08 252.228L522.789 192.898H434.124C416.041 192.898 399.813 204.34 393.746 221.392L364.206 304.461C364.073 304.844 363.778 305.153 363.396 305.315C363.027 305.477 362.6 305.477 362.217 305.315L323.503 288.262C320.278 286.849 316.567 287.099 313.563 288.94L285.952 305.889L263.053 330.216L263.142 330.275C268.546 334.237 275.806 334.251 281.225 330.29L290.944 323.192C291.504 322.795 292.255 322.824 292.77 323.266L301.076 330.408C309.013 337.226 319.527 340.392 329.894 339.096L332.412 338.787C332.412 338.787 332.53 338.787 332.589 338.787L332.604 338.743Z" fill="#18292D"/>
<path d="M468.598 181.809C479.76 180.616 490.613 175.197 498.58 165.802C514.646 146.82 512.422 119.239 494.398 103.261C464.828 77.049 437.379 100.139 433.609 106.427C432.726 107.9 431.857 109.328 431.018 110.698C429.324 112.833 427.866 115.071 426.6 117.383C423.242 122.007 419.929 125.129 416.13 125.615C410.313 126.366 404.644 169.086 436.776 172.443L468.613 181.809H468.598Z" fill="white"/>
<path d="M468.584 183.282C467.847 183.282 467.199 182.722 467.126 181.971C467.037 181.161 467.626 180.439 468.436 180.351C479.702 179.144 490.01 173.651 497.446 164.859C512.879 146.629 511.112 120.063 493.412 104.365C482.824 94.9851 471.544 91.1269 459.866 92.9088C446.23 94.9998 436.628 104.233 434.847 107.193C433.963 108.665 433.094 110.094 432.24 111.478C432.211 111.522 432.181 111.581 432.137 111.625C430.517 113.672 429.074 115.852 427.867 118.105C427.837 118.164 427.808 118.223 427.764 118.267C423.67 123.877 420.135 126.602 416.292 127.102C414.878 127.603 412.154 135.658 413.376 145.922C414.392 154.478 418.81 169.115 436.908 171C437.718 171.089 438.307 171.81 438.219 172.62C438.131 173.43 437.424 174.004 436.599 173.931C430.473 173.297 410.461 169.056 410.137 141.357C410.048 133.405 412.036 124.687 415.924 124.187C418.884 123.804 421.785 121.477 425.334 116.617C426.6 114.276 428.102 112.008 429.781 109.873C430.606 108.533 431.445 107.134 432.314 105.691C434.979 101.273 445.655 92.1283 459.409 90.0225C471.985 88.0934 484.075 92.1872 495.355 102.186C514.263 118.944 516.163 147.321 499.685 166.789C491.747 176.154 480.762 182.03 468.746 183.311C468.687 183.311 468.643 183.311 468.584 183.311V183.282Z" fill="#18292D"/>
<path d="M503.528 97.4444C491.247 87.0479 475.033 84.2205 460.322 88.3732C464.254 90.214 468.009 92.5407 471.44 95.4564C494.766 115.204 495.65 152.49 473.428 178.746C472.191 180.204 470.91 181.588 469.585 182.913C483.722 183.164 498.021 177.156 508.064 165.301C525.499 144.715 523.467 114.335 503.528 97.4444Z" fill="#18292D"/>
<path d="M467.7 84.8685C459.63 85.6637 453.224 91.878 453.916 99.9625L450.279 112.568C446.804 124.628 447.172 137.469 451.339 149.309L460.263 174.667C460.322 179.085 463.238 182.943 467.479 184.195L480.217 187.964L486.725 176.891L493.234 93.7629C493.234 93.7629 495.163 82.1736 467.685 84.8832L467.7 84.8685Z" fill="#18292D"/>
<path d="M419.355 148.47C419.105 148.47 418.854 148.47 418.589 148.44C417.779 148.367 417.19 147.645 417.264 146.835C417.338 146.025 418.059 145.421 418.869 145.51C421.962 145.79 424.288 143.183 424.303 143.154C424.833 142.535 425.761 142.461 426.379 142.992C426.998 143.522 427.071 144.435 426.556 145.053C426.438 145.2 423.611 148.47 419.37 148.47H419.355Z" fill="#18292D"/>
<path d="M444.478 118.753C444.316 118.753 444.154 118.723 443.992 118.664C443.226 118.399 442.814 117.56 443.079 116.794C443.432 115.793 442.961 113.613 441.606 111.817C440.796 110.757 439.029 109.004 436.158 109.196C435.362 109.255 434.641 108.636 434.597 107.826C434.538 107.016 435.156 106.309 435.966 106.265C439.103 106.044 441.93 107.399 443.948 110.035C445.818 112.479 446.598 115.66 445.862 117.766C445.656 118.37 445.081 118.753 444.478 118.753Z" fill="#18292D"/>
<path d="M433.683 122.361C432.697 123.288 431.357 123.45 430.694 122.743C430.031 122.037 430.296 120.711 431.268 119.798C432.255 118.871 433.595 118.709 434.258 119.415C434.92 120.122 434.655 121.448 433.683 122.361Z" fill="#18292D"/>
<path d="M549.267 172.679C539.327 155.317 515.943 149.206 497.02 159.058C490.378 162.503 485.18 167.466 481.646 173.194C474.74 170.028 459.587 165.552 458.821 173.887C455.876 206.151 442.181 194.149 448.483 205.179C454.786 216.209 500.937 241.419 545.983 217.254C564.788 207.167 559.207 190.056 549.267 172.679Z" fill="#18292D"/>
<path d="M451.767 152.063C450.339 159.057 454.845 165.89 461.854 167.333C468.849 168.762 475.682 164.256 477.125 157.246C478.553 150.251 474.047 143.419 467.038 141.975C460.028 140.532 453.21 145.053 451.767 152.063Z" fill="white"/>
<path d="M458.143 158.027C458.04 158.027 457.951 158.027 457.848 157.997C457.053 157.835 456.538 157.055 456.7 156.26C457.981 150.016 467.936 149.044 468.363 149.014C469.158 148.956 469.894 149.545 469.968 150.354C470.041 151.164 469.452 151.886 468.642 151.96C466.36 152.166 460.293 153.462 459.601 156.863C459.453 157.555 458.85 158.041 458.158 158.041L458.143 158.027Z" fill="#18292D"/>
<path d="M309.204 310.719C309.116 310.719 309.028 310.719 308.924 310.69L284.759 306.154C283.964 306.007 283.434 305.241 283.581 304.431C283.728 303.636 284.494 303.106 285.304 303.253L309.469 307.789C310.265 307.936 310.795 308.702 310.647 309.512C310.515 310.219 309.896 310.719 309.204 310.719Z" fill="#18292D"/>
<path d="M313.74 302.988C313.607 302.988 313.475 302.974 313.328 302.929L297.659 298.394C296.879 298.173 296.422 297.348 296.658 296.568C296.879 295.787 297.703 295.331 298.484 295.567L314.152 300.102C314.933 300.323 315.389 301.148 315.154 301.928C314.962 302.576 314.373 302.988 313.74 302.988Z" fill="#18292D"/>
<path d="M320.337 295.817C320.175 295.817 320.013 295.787 319.851 295.728L308.895 291.959C308.129 291.694 307.717 290.854 307.982 290.088C308.247 289.323 309.086 288.91 309.852 289.175L320.808 292.945C321.574 293.21 321.986 294.05 321.721 294.815C321.515 295.419 320.941 295.802 320.322 295.802L320.337 295.817Z" fill="#18292D"/>
<path d="M355.268 328.096C355.121 328.096 354.959 328.066 354.797 328.022C354.031 327.772 353.604 326.933 353.869 326.152L361.423 303.489C361.674 302.723 362.513 302.296 363.279 302.561C364.044 302.812 364.472 303.651 364.206 304.431L356.652 327.095C356.446 327.713 355.872 328.096 355.253 328.096H355.268Z" fill="#18292D"/>
<path d="M430.797 297.893C430.694 297.893 430.606 297.893 430.503 297.864C429.707 297.702 429.192 296.921 429.354 296.126L435.392 266.674C435.554 265.879 436.319 265.364 437.129 265.526C437.924 265.688 438.44 266.468 438.278 267.263L432.24 296.715C432.093 297.407 431.489 297.893 430.797 297.893Z" fill="#18292D"/>
<path d="M373.027 279.044C373.027 279.044 376.429 301.707 424.008 313.031L373.027 279.044Z" fill="white"/>
<path d="M424.008 314.504C423.89 314.504 423.787 314.504 423.67 314.46C375.678 303.032 371.717 280.222 371.569 279.265C371.452 278.455 372.011 277.704 372.806 277.586C373.631 277.454 374.353 278.013 374.485 278.823C374.529 279.073 378.549 300.691 424.347 311.603C425.142 311.794 425.628 312.59 425.437 313.37C425.275 314.047 424.671 314.504 424.008 314.504Z" fill="#18292D"/>
<path d="M165.804 88.918L337.316 64.4877C345.651 63.2949 353.441 68.876 355.031 77.1373L377.223 193.295C378.608 200.511 374.823 207.712 368.108 210.672L201.264 284.345C191.824 288.513 180.986 282.637 179.337 272.447L152.462 107.046C151.048 98.3278 157.057 90.1549 165.804 88.918Z" fill="#18292D"/>
<path d="M156.511 92.4818L329.982 65.9457C338.405 64.6499 346.387 70.0837 348.095 78.286L372.083 193.384C373.571 200.526 369.83 207.741 363.071 210.775L194.96 286.171C185.448 290.442 174.388 284.743 172.577 274.641L143.243 110.683C141.697 102.039 147.69 93.8513 156.526 92.4965L156.511 92.4818Z" fill="#18292D"/>
<path d="M163.433 101.155L191.765 275.642L366.223 198.611L342.735 75.6058L163.433 101.155Z" fill="white"/>
<path d="M245.161 151.12C245.161 151.12 237.062 136.306 234.735 129.517C232.409 122.729 236.429 116.588 243.277 108.798C250.124 101.008 249.388 102.525 246.413 102.083C243.438 101.641 249.785 95.7656 260.83 94.2193C271.874 92.6731 291.474 93.7187 290.09 114.615C288.706 135.511 255.587 166.214 245.161 151.135V151.12Z" fill="#18292D"/>
<path d="M247.09 195.857C247.09 195.857 253.658 191.764 255.042 183.9C256.426 176.036 255.881 167.657 252.067 163.917C248.253 160.177 237.975 148.47 243.202 143.89C246.678 140.842 250.344 147.012 253.216 149.132C256.087 151.268 255.307 149 254.63 145.053C253.952 141.107 254.703 133.066 257.472 130.371C260.24 127.677 253.864 116.735 250.418 115.484C246.972 114.232 260.741 112.715 269.149 109.446C277.558 106.177 280.562 103.88 287.807 108.872C295.067 113.864 298.91 121.389 301.134 129.871C303.357 138.338 303.667 159.337 304.58 163.681C305.493 168.04 304.889 171 298.233 174.461C296.819 175.197 295.082 177.966 295.936 183.547C298.248 198.7 294.581 203.471 276.615 206.99C266.145 209.037 257.472 205.385 247.075 195.857H247.09Z" fill="white"/>
<path d="M271.196 209.008C262.905 209.008 255.115 205.208 246.088 196.947C245.75 196.638 245.573 196.181 245.617 195.725C245.661 195.268 245.912 194.856 246.295 194.606C246.368 194.562 252.332 190.718 253.569 183.635C255.042 175.256 254.04 167.922 251.022 164.962C249.902 163.858 240.066 153.992 240.272 147.056C240.331 145.303 240.979 143.86 242.23 142.771C245.853 139.605 249.461 143.345 251.861 145.834C252.465 146.467 253.054 147.071 253.584 147.527C253.54 147.262 253.481 146.982 253.437 146.717C253.348 146.275 253.26 145.789 253.186 145.289C252.524 141.46 253.069 132.595 256.441 129.311C256.647 129.105 256.809 128.398 256.514 127.088C255.66 123.156 251.787 117.545 249.902 116.868C248.518 116.367 248.371 115.469 248.4 114.968C248.504 113.289 250.315 112.862 256.338 111.478C260.181 110.595 264.952 109.49 268.619 108.076C269.606 107.694 270.533 107.311 271.388 106.972C277.985 104.292 281.607 102.819 288.661 107.664C295.376 112.288 299.941 119.43 302.577 129.503C303.991 134.892 304.639 144.965 305.154 153.049C305.449 157.776 305.714 161.841 306.038 163.402C307.083 168.364 306.244 171.987 298.94 175.786C298.248 176.139 296.642 178.201 297.423 183.355C299.867 199.436 295.464 204.825 276.924 208.463C274.981 208.846 273.081 209.037 271.211 209.037L271.196 209.008ZM249.402 195.96C259.195 204.575 267.102 207.344 276.335 205.532C293.476 202.175 296.701 198.302 294.492 183.767C293.55 177.597 295.553 174.196 297.555 173.15C303.858 169.866 303.873 167.495 303.137 163.976C302.768 162.223 302.518 158.247 302.194 153.211C301.693 145.245 301.06 135.349 299.705 130.224C297.217 120.741 293.167 114.335 286.968 110.064C281.224 106.118 278.854 107.075 272.477 109.667C271.608 110.02 270.681 110.403 269.665 110.786C265.806 112.288 260.917 113.422 256.986 114.32C255.616 114.629 254.055 114.998 252.848 115.322C255.704 117.795 258.62 122.891 259.386 126.44C259.872 128.678 259.563 130.342 258.488 131.387C256.19 133.626 255.439 141.048 256.073 144.773C256.161 145.274 256.249 145.73 256.323 146.172C256.794 148.749 257.089 150.31 255.778 151.12C254.512 151.915 253.083 150.855 252.318 150.296C251.463 149.662 250.624 148.793 249.726 147.866C246.869 144.906 245.455 143.846 244.159 144.979C243.541 145.524 243.232 146.202 243.202 147.129C243.07 151.753 249.593 159.426 253.069 162.842C256.883 166.582 258.149 174.534 256.456 184.136C255.395 190.173 251.567 194.134 249.372 195.946L249.402 195.96Z" fill="#18292D"/>
<path d="M259.843 166.98C259.843 166.98 270.033 175.153 275.158 176.493C280.282 177.848 295.141 173.533 300.31 172.134C305.478 170.75 298.381 171.633 289.736 181.014C281.092 190.394 271.344 205.312 268.502 200.452C265.674 195.592 260.668 186.565 260.402 182.369C260.137 178.186 259.828 166.965 259.828 166.965L259.843 166.98Z" fill="#18292D"/>
<path d="M291.386 146.82C290.797 146.82 290.252 146.467 290.016 145.893C289.707 145.142 290.075 144.287 290.841 143.978C292.976 143.124 294.464 141.092 295.141 139.987L285.613 127.367C285.127 126.719 285.26 125.792 285.908 125.306C286.556 124.82 287.483 124.952 287.969 125.6L298.071 138.986C298.395 139.428 298.454 140.002 298.233 140.503C298.145 140.694 296.039 145.083 291.945 146.717C291.769 146.791 291.577 146.82 291.401 146.82H291.386Z" fill="#18292D"/>
<path d="M266.705 129.326C266.396 129.326 266.087 129.223 265.822 129.031C265.174 128.545 265.041 127.618 265.527 126.97C269.297 121.963 272.758 122.243 276.101 122.508C276.601 122.552 277.102 122.596 277.617 122.611C278.427 122.655 279.06 123.332 279.016 124.157C278.972 124.967 278.25 125.571 277.47 125.556C276.91 125.527 276.38 125.482 275.85 125.438C272.728 125.188 270.667 125.011 267.869 128.737C267.574 129.12 267.132 129.326 266.691 129.326H266.705Z" fill="#18292D"/>
<path d="M289.751 123.804C289.176 123.804 288.632 123.465 288.396 122.905C288.072 122.154 288.425 121.286 289.162 120.976C289.81 120.696 290.399 120.152 291.032 119.577C291.783 118.9 292.637 118.119 293.727 117.648C295.788 116.765 299.087 117.516 300.501 119.209C301.016 119.828 300.942 120.77 300.309 121.286C299.676 121.801 298.763 121.727 298.233 121.094C297.644 120.387 295.774 119.975 294.89 120.358C294.242 120.638 293.653 121.182 293.02 121.757C292.269 122.449 291.415 123.215 290.325 123.686C290.134 123.774 289.942 123.804 289.751 123.804Z" fill="#18292D"/>
<path d="M279.547 133.699C279.988 135.143 279.517 136.586 278.472 136.91C277.426 137.234 276.219 136.321 275.777 134.877C275.335 133.434 275.806 131.991 276.852 131.667C277.897 131.343 279.105 132.256 279.547 133.699Z" fill="#18292D"/>
<path d="M298.439 127.868C298.881 129.311 298.41 130.754 297.364 131.078C296.319 131.402 295.111 130.489 294.669 129.046C294.228 127.603 294.699 126.16 295.744 125.836C296.79 125.512 297.997 126.425 298.439 127.868Z" fill="#18292D"/>
<path d="M290.031 162.768C287.852 162.768 285.746 160.81 284.524 158.689C283.419 156.745 283.287 155.14 284.185 154.139C285.363 152.828 291.165 151.341 295.833 150.325C296.231 150.237 296.658 150.325 296.996 150.561C297.335 150.796 297.556 151.164 297.615 151.562C298.778 160.118 293.212 162.209 290.753 162.695C290.517 162.739 290.281 162.768 290.046 162.768H290.031ZM286.556 156.009C286.688 156.657 287.395 158.041 288.529 159.043C289.147 159.602 289.781 159.897 290.149 159.823C293.3 159.175 294.861 157.084 294.802 153.579C291.297 154.404 287.675 155.42 286.556 156.009Z" fill="#18292D"/>
<path d="M342.853 210.274C342.411 210.274 341.97 210.068 341.675 209.685L329.747 193.869C323.871 185.741 313.74 181.691 303.933 183.532L296.231 184.975C295.421 185.137 294.655 184.592 294.508 183.797C294.361 183.002 294.891 182.221 295.686 182.074L303.388 180.631C314.329 178.584 325.594 183.09 332.118 192.117L344.031 207.903C344.517 208.551 344.399 209.479 343.737 209.965C343.472 210.171 343.162 210.259 342.853 210.259V210.274Z" fill="#18292D"/>
<path d="M216.755 268.059C215.989 268.059 215.341 267.469 215.282 266.689L212.838 231.671C212.838 231.671 212.838 231.538 212.838 231.465L213.515 221.23C214.252 216.533 215.842 212.498 218.228 209.096C220.613 205.694 223.234 203.515 226.489 202.263L246.575 194.473C247.326 194.179 248.18 194.562 248.475 195.313C248.769 196.078 248.386 196.918 247.635 197.212L227.549 205.002C224.869 206.048 222.675 207.874 220.643 210.79C218.522 213.838 217.108 217.46 216.446 221.569L215.783 231.568L218.228 266.483C218.286 267.293 217.668 268 216.858 268.059C216.829 268.059 216.784 268.059 216.755 268.059Z" fill="#18292D"/>
<path d="M340.688 100.684C340.688 106 336.388 110.3 331.072 110.3C325.756 110.3 321.456 106 321.456 100.684C321.456 95.368 325.756 91.068 331.072 91.068C336.388 91.068 340.688 95.368 340.688 100.684Z" fill="#96D8E8"/>
<path d="M344.9 122.287C344.9 127.603 340.6 131.903 335.284 131.903C329.968 131.903 325.668 127.603 325.668 122.287C325.668 116.971 329.968 112.671 335.284 112.671C340.6 112.671 344.9 116.971 344.9 122.287Z" fill="#18292D"/>
<path d="M339.039 152.151C334.548 152.151 330.896 148.499 330.896 144.008C330.896 139.516 334.548 135.864 339.039 135.864C343.53 135.864 347.182 139.516 347.182 144.008C347.182 148.499 343.53 152.151 339.039 152.151Z" fill="white"/>
<path d="M339.039 137.352C342.72 137.352 345.71 140.341 345.71 144.022C345.71 147.704 342.72 150.693 339.039 150.693C335.357 150.693 332.368 147.704 332.368 144.022C332.368 140.341 335.357 137.352 339.039 137.352ZM339.039 134.406C333.723 134.406 329.423 138.706 329.423 144.022C329.423 149.338 333.723 153.638 339.039 153.638C344.355 153.638 348.655 149.338 348.655 144.022C348.655 138.706 344.355 134.406 339.039 134.406Z" fill="#18292D"/>
<path d="M376.517 107.075L384.351 77.6969L377.047 77.7264C375.015 77.9178 372.939 77.1226 371.466 75.5175C369.994 73.9271 369.36 71.7771 369.743 69.6419L376.046 32.783C376.605 29.6022 379.344 27.1871 382.569 27.0546L456.95 24.0063C459.056 23.918 461.014 24.7574 462.399 26.3183C463.783 27.8645 464.387 29.9409 464.063 31.9878L457.995 70.7758C457.495 74.0155 454.741 76.4599 451.487 76.6219L406.632 78.6836C406.19 78.6983 405.777 78.8308 405.409 79.0664L376.532 107.075H376.517ZM388.195 74.737L382.113 97.5474L403.657 76.6808C404.496 76.1065 405.483 75.7826 406.499 75.7384L451.354 73.6768C453.224 73.5884 454.8 72.1747 455.094 70.3193L461.162 31.5313C461.353 30.3532 461 29.1604 460.204 28.2768C459.409 27.3933 458.319 26.9073 457.082 26.9515L382.702 30.0145C380.847 30.0881 379.271 31.4724 378.962 33.2984L372.659 70.1425C372.453 71.3795 372.806 72.6018 373.646 73.5148C374.485 74.4278 375.707 74.8843 376.929 74.7812L388.224 74.7223L388.195 74.737Z" fill="#96D8E8"/>
<path d="M404.717 68.0367C404.113 68.0367 403.509 67.9778 402.906 67.8453C398.164 66.8439 395.116 64.4583 393.937 60.9241C391.817 61.3953 389.21 61.6899 386.015 61.7488L385.956 58.8036C388.975 58.7594 391.419 58.4649 393.393 58.0378C393.348 57.2132 393.393 56.3444 393.496 55.4461C393.82 52.8543 395.145 50.2478 396.706 49.0992C397.693 48.3629 398.591 48.3335 399.165 48.4366C401.566 48.8636 403.288 51.1756 403.082 53.7084C402.979 54.9601 402.169 58.1556 396.735 60.1142C397.619 62.6029 399.857 64.208 403.48 64.959C406.867 65.6658 410.902 63.2508 413.935 60.1289C410.681 56.6831 408.546 52.3684 408.928 49.6883C409.429 46.2129 411.962 43.2972 414.966 42.7524C417.514 42.2959 419.855 43.5917 421.372 46.3308C423.168 49.5704 422.064 54.4742 418.412 59.4073C418.279 59.5693 418.162 59.746 418.029 59.908C420.739 62.1022 424.95 64.2522 430.001 62.5292C432.46 61.6899 434.419 60.1878 435.877 58.4207C433.697 55.4608 432.225 51.7499 432.446 49.1139C432.578 47.5088 433.329 46.316 434.551 45.727C437.217 44.4606 438.94 45.0643 439.926 45.7859C441.561 47.0081 442.238 49.4526 441.752 52.4714C441.458 54.3416 440.736 56.3591 439.588 58.2587C440.044 58.73 440.53 59.1423 441.031 59.4957C444.374 61.8224 445.566 60.7916 445.581 60.7916L447.775 62.7501C447.672 62.8827 445.051 65.8867 439.352 61.9255C438.837 61.572 438.321 61.145 437.835 60.6738C436.098 62.6765 433.8 64.3552 430.973 65.3271C425.981 67.0354 420.724 65.9015 416.115 62.1316C412.904 65.445 408.722 68.022 404.717 68.022V68.0367ZM415.982 45.6092C415.835 45.6092 415.688 45.6092 415.526 45.6534C413.788 45.9626 412.183 47.9359 411.874 50.1153C411.682 51.4848 413.169 54.9012 415.909 57.8906C415.967 57.8169 416.026 57.7433 416.07 57.6697C418.927 53.7968 420.017 49.9091 418.824 47.7592C418.265 46.7431 417.337 45.6092 415.982 45.6092ZM398.664 51.3376C398.193 51.4112 396.75 53.2814 396.426 55.8142C396.367 56.2855 396.338 56.7272 396.323 57.169C398.915 56.1235 400.063 54.7392 400.167 53.4875C400.255 52.3536 399.46 51.4995 398.664 51.3523V51.3376ZM437.438 47.9653C436.878 47.9653 436.23 48.2157 435.833 48.4071C435.582 48.5249 435.435 48.8489 435.391 49.379C435.258 50.9547 436.171 53.517 437.629 55.7848C438.262 54.5331 438.66 53.2519 438.851 52.0444C439.175 49.968 438.748 48.5985 438.174 48.1715C437.968 48.0242 437.718 47.9653 437.438 47.9653Z" fill="#96D8E8"/>
</g>
</g>
<defs>
<clipPath id="clip0_555_7978">
<rect width="700" height="400" fill="white"/>
</clipPath>
</defs>
</svg>
