<svg width="470" height="250" viewBox="0 0 470 250" fill="none" xmlns="http://www.w3.org/2000/svg">
<g clip-path="url(#clip0_558_8493)">
<path d="M299.5 199C298.7 197.8 285.167 204.167 278.5 207.5L275.5 215L278.5 248H345C346.2 218 332.5 202.167 325.5 198L305 210.5L303.5 203.5L297.5 207.5C298.5 205.167 300.3 200.2 299.5 199Z" fill="white"/>
<path d="M325.141 197.964C325.141 197.964 346.942 210.585 345.282 248.328" stroke="#18292D" stroke-width="2.0091" stroke-linecap="round" stroke-linejoin="round"/>
<path d="M316.572 248.327C316.572 248.327 316.497 243.888 316.279 238.777" stroke="#18292D" stroke-width="2.0091" stroke-linecap="round" stroke-linejoin="round"/>
<path d="M222.734 150.626C239.188 154.303 256.266 154.303 272.728 150.626C282.273 148.153 289.753 137.176 289.761 128.164V109.005C289.768 99.9937 282.258 89.0168 272.728 86.5434C256.274 82.867 239.196 82.867 222.734 86.5434C213.196 89.0168 205.694 99.9937 205.701 109.005V128.164C205.701 137.176 213.196 148.153 222.734 150.626Z" fill="#18292D"/>
<path d="M276.821 138.603L281.951 157.89C282.792 161.043 279.495 163.711 276.566 162.253L252.624 150.343C249.673 148.878 249.86 144.626 252.932 143.423L271.745 136.048C273.862 135.218 276.243 136.414 276.821 138.603Z" fill="#18292D"/>
<path d="M249.326 125.84C232.871 129.517 215.794 129.517 199.332 125.84C189.786 123.367 182.306 112.39 182.299 103.378V84.2192C182.291 75.2075 189.801 64.2307 199.332 61.7573C215.786 58.0809 232.864 58.0809 249.326 61.7573C258.863 64.2307 266.366 75.2075 266.358 84.2192V103.378C266.358 112.39 258.863 123.367 249.326 125.84Z" fill="#4A7C88"/>
<path d="M195.239 113.817L190.11 133.103C189.269 136.257 192.566 138.924 195.495 137.467L219.437 125.556C222.388 124.092 222.2 119.84 219.129 118.637L200.316 111.262C198.198 110.432 195.818 111.628 195.239 113.817Z" fill="#4A7C88"/>
<path d="M224.212 113.294H219.391" stroke="white" stroke-width="5.01362" stroke-miterlimit="10"/>
<path d="M214.314 84.5558C214.314 80.6552 217.491 77.4944 221.411 77.4944H228.508C232.429 77.4944 235.605 80.6552 235.605 84.5558V88.0827C235.605 91.9833 232.429 95.1441 228.508 95.1441" stroke="white" stroke-width="5.01362" stroke-miterlimit="10"/>
<path d="M221.412 105.732V102.205C221.412 98.3046 224.589 95.1438 228.509 95.1438" stroke="white" stroke-width="5.01362" stroke-miterlimit="10"/>
<path d="M323.164 197.336C320.213 189.565 319.349 177.586 324.674 159.242C334.67 124.779 305.238 182.563 305.238 182.563C305.426 184.588 307.498 189.721 300.281 198.741L303.526 203.045L323.164 197.343V197.336Z" fill="white"/>
<path d="M323.164 197.336C320.213 189.565 319.349 177.586 324.674 159.242C334.67 124.779 305.238 182.563 305.238 182.563C305.426 184.588 307.498 189.721 300.281 198.741" stroke="#18292D" stroke-width="2.0091" stroke-linecap="round" stroke-linejoin="round"/>
<path d="M304.422 141.921C304.422 141.921 295.192 175.875 296.611 183.915C298.031 191.948 304.527 194.466 313.524 184.551C330.812 165.511 331.946 149.296 327.763 146.046C323.58 142.795 312.375 130.929 304.422 141.928V141.921Z" fill="white"/>
<path d="M313.41 147.928C307.883 148.235 298.998 150.372 294.868 135.861C290.73 121.349 303.347 119.847 308.739 127.731C314.138 135.614 313.222 138.894 309.655 135.151C306.088 131.4 313.297 122.014 318.194 129.285C323.09 136.556 324.277 146.815 321.536 145.963C318.795 145.111 328.926 134.904 331.757 140.269C334.588 145.634 336.068 153.107 331.915 154.93C327.762 156.753 324.104 148.481 327.732 151.68C331.359 154.87 330.893 170.032 325.621 171.735C320.349 173.439 320.755 169.539 325.704 165.548C330.653 161.558 325.464 151.724 322.279 160.407C322.009 161.155 319.981 166.079 319.981 166.079L316.331 168.515C316.331 168.515 317.383 158.487 320.004 155.102C325.914 147.465 325.779 147.256 313.395 147.936L313.41 147.928Z" fill="#18292D"/>
<path d="M304.465 203.463L304.765 211.205L325.14 197.964L325.343 196.058L304.465 203.463Z" fill="#FFC31F" stroke="#18292D" stroke-width="2.0091" stroke-linecap="round" stroke-linejoin="round"/>
<path d="M300.296 195.961L297.502 207.789L303.855 203.403L300.296 195.961Z" fill="#FFC31F" stroke="#18292D" stroke-width="2.0091" stroke-linecap="round" stroke-linejoin="round"/>
<path d="M303.007 147.301C300.484 157.209 295.535 177.878 296.601 183.916C298.021 191.948 304.517 194.467 313.514 184.551" stroke="#18292D" stroke-width="2.0091" stroke-linecap="round" stroke-linejoin="round"/>
<path d="M305.021 158.913L301.627 174.411L303.827 174.493" stroke="#18292D" stroke-width="2.0091" stroke-linecap="round" stroke-linejoin="round"/>
<path d="M301.251 164.248C301.191 164.823 300.673 165.242 300.087 165.182C299.509 165.122 299.088 164.607 299.148 164.024C299.208 163.448 299.727 163.03 300.312 163.09C300.898 163.149 301.311 163.665 301.251 164.248Z" fill="#18292D"/>
<path d="M302.144 160.729C302.144 160.729 301.881 158.898 298.352 160.108" stroke="#18292D" stroke-width="2.0091" stroke-linecap="round" stroke-linejoin="round"/>
<path d="M309.999 165.16C309.939 165.735 309.421 166.154 308.835 166.094C308.257 166.034 307.836 165.519 307.896 164.936C307.956 164.353 308.475 163.942 309.06 164.002C309.639 164.061 310.059 164.577 309.999 165.16Z" fill="#18292D"/>
<path d="M310.894 161.64C310.894 161.64 310.631 159.809 307.102 161.02" stroke="#18292D" stroke-width="2.0091" stroke-linecap="round" stroke-linejoin="round"/>
<path d="M311.502 178.663C311.502 178.663 310.323 181.472 308.348 182.003" stroke="#18292D" stroke-width="2.0091" stroke-linecap="round" stroke-linejoin="round"/>
<path d="M300.284 198.741C300.284 198.741 283.409 203.71 277.754 208.47" stroke="#18292D" stroke-width="2.0091" stroke-linecap="round" stroke-linejoin="round"/>
<path d="M220.534 206.334L235.914 249.001H111L120.05 223.663C122.295 217.363 127.177 212.342 133.425 209.891L169.803 195.611C178.523 191.83 188.706 194.461 194.474 201.993L199.573 208.651L220.549 206.334H220.534Z" fill="#18292D"/>
<path d="M199.49 207.948L196.178 194.774C194.684 188.834 195.592 182.557 198.694 177.274L207.586 162.15C208.374 160.813 209.899 160.08 211.438 160.304C213.812 160.641 215.291 163.047 214.518 165.303L210.56 176.893L227.555 178.156L244.971 167.112C246.578 166.088 248.696 166.379 249.972 167.792C250.761 168.666 250.656 170.011 249.755 170.758L219.534 195.686L220.345 205.624" fill="white"/>
<path d="M199.49 207.948L196.178 194.774C194.684 188.834 195.592 182.557 198.694 177.274L207.586 162.15C208.374 160.813 209.899 160.08 211.438 160.304C213.812 160.641 215.291 163.047 214.518 165.303L210.56 176.893L227.555 178.156L244.971 167.112C246.578 166.088 248.696 166.379 249.972 167.792C250.761 168.666 250.656 170.011 249.755 170.758L219.534 195.686L220.345 205.624" stroke="#18292D" stroke-width="2.0091" stroke-linecap="round" stroke-linejoin="round"/>
<path d="M236.253 176.937L241.044 162.837C241.487 161.537 240.263 160.281 238.941 160.685C237.259 161.201 235.87 162.396 235.111 163.98L228.412 177.042" fill="white"/>
<path d="M236.253 176.937L241.044 162.837C241.487 161.537 240.263 160.281 238.941 160.685C237.259 161.201 235.87 162.396 235.111 163.98L228.412 177.042" stroke="#18292D" stroke-width="2.0091" stroke-linecap="round" stroke-linejoin="round"/>
<path d="M212.211 189.05L222.162 181.047L225.804 167.463C226.3 165.609 227.742 164.152 229.604 163.629C230.806 163.293 231.962 164.279 231.82 165.512L229.762 182.646" fill="white"/>
<path d="M212.211 189.05L222.162 181.047L225.804 167.463C226.3 165.609 227.742 164.152 229.604 163.629C230.806 163.293 231.962 164.279 231.82 165.512L229.762 182.646" stroke="#18292D" stroke-width="2.0091" stroke-linecap="round" stroke-linejoin="round"/>
<path d="M160.13 181.825L153.026 183.985C144.863 186.465 136.136 181.847 133.643 173.718L132.786 170.915C129.662 160.738 135.475 149.873 145.704 146.772L147.341 149.335C153.747 147.385 160.596 151.017 162.556 157.39L166.439 170.041C167.963 175.003 165.125 180.308 160.138 181.825H160.13Z" fill="#18292D"/>
<path d="M151.878 183.297C161.504 183.143 169.189 175.726 169.044 166.731C168.899 157.736 160.978 150.568 151.352 150.722C141.727 150.876 134.042 158.292 134.187 167.288C134.332 176.283 142.253 183.451 151.878 183.297Z" fill="#18292D"/>
<path d="M167.806 194.543C162.617 193.452 158.103 189.79 156.181 184.463L154.416 179.553L167.491 174.868L167.806 194.543Z" fill="#18292D"/>
<path d="M147.259 169.428C146.073 163.996 148.266 158.16 152.892 155.418C155.776 153.714 159.02 153.549 161.889 154.663C160.364 154.835 156.121 155.567 155.332 158.377C154.364 161.814 154.349 168.352 147.267 169.421L147.259 169.428Z" fill="#18292D"/>
<path d="M170.381 153.176C171.635 157.271 169.322 161.605 165.199 162.86C161.083 164.108 156.728 161.807 155.466 157.704C154.212 153.609 156.525 149.275 160.648 148.02C164.763 146.772 169.119 149.074 170.381 153.176Z" fill="#18292D"/>
<path d="M143.435 149.97C135.684 153.438 131.464 162.053 133.694 170.37C135.879 171.02 138.305 171.057 140.693 170.333C146.897 168.45 150.456 162.165 148.662 156.292C147.805 153.497 145.883 151.301 143.435 149.97Z" fill="#18292D"/>
<path d="M155.834 151.809C157.088 155.903 154.775 160.237 150.652 161.493C146.537 162.741 142.181 160.439 140.919 156.337C139.665 152.242 141.978 147.908 146.101 146.653C150.216 145.405 154.572 147.706 155.834 151.809Z" fill="#18292D"/>
<path d="M164.644 149.537C165.936 153.751 163.555 158.205 159.319 159.498C155.084 160.783 150.608 158.414 149.308 154.2C148.017 149.985 150.397 145.532 154.633 144.239C158.869 142.954 163.345 145.322 164.644 149.537Z" fill="#18292D"/>
<path d="M132.688 155.941C132.688 155.941 135.609 155.649 136.983 157.794" stroke="#18292D" stroke-width="2.0091" stroke-linecap="round" stroke-linejoin="round"/>
<path d="M134.197 153.968C134.197 153.968 134.768 156.83 137.224 157.517" stroke="#18292D" stroke-width="2.0091" stroke-linecap="round" stroke-linejoin="round"/>
<path d="M170.006 196.538L167.843 196.755L167.708 188.199C168.729 187.967 169.743 187.609 170.712 187.1C176.615 183.977 178.853 176.677 175.714 170.803L173.521 166.708C174.617 165.969 175.008 164.526 174.384 163.331C173.754 162.128 172.312 161.627 171.065 162.12L170.434 160.947C167.295 155.074 159.958 152.847 154.055 155.971C149.076 158.608 146.702 164.213 147.964 169.428C145.779 170.108 144.307 172.253 144.577 174.607C144.81 176.654 146.289 178.261 148.182 178.754L148.565 202.658L144.164 206.416C145.726 210.721 149.752 214.763 155.286 217.005C164.081 220.569 173.348 218.223 175.992 211.767C178.057 206.715 175.443 200.663 170.006 196.553V196.538Z" fill="white" stroke="#18292D" stroke-width="2.0091" stroke-linecap="round" stroke-linejoin="round"/>
<path d="M147.883 173.007C147.883 173.007 149.843 173.284 150.324 175.279" stroke="#18292D" stroke-width="2.0091" stroke-linecap="round" stroke-linejoin="round"/>
<path d="M171.411 169.256C171.411 169.256 169.856 170.968 167.408 169.017" stroke="#18292D" stroke-width="2.0091" stroke-linecap="round" stroke-linejoin="round"/>
<path d="M168.218 163.309C168.436 163.944 168.188 164.609 167.655 164.796C167.122 164.975 166.513 164.609 166.296 163.966C166.078 163.331 166.326 162.666 166.859 162.479C167.392 162.3 168 162.666 168.218 163.309Z" fill="#18292D"/>
<path d="M165.681 159.774C165.989 160.065 165.568 160.992 164.749 161.829C163.931 162.673 163.022 163.114 162.714 162.823C162.406 162.531 162.827 161.605 163.646 160.768C164.464 159.931 165.373 159.483 165.681 159.774Z" fill="#18292D"/>
<path d="M150.465 157.936C145.47 159.639 142.361 164.728 143.262 170.004C144.577 170.527 146.079 170.691 147.596 170.377C151.539 169.563 154.114 165.879 153.333 162.143C152.965 160.364 151.899 158.892 150.465 157.928V157.936Z" fill="#18292D"/>
<path d="M167.648 188.087C162.526 189.125 157.126 186.756 154.543 181.937" stroke="#18292D" stroke-width="2.0091" stroke-linecap="round" stroke-linejoin="round"/>
<path d="M200.029 210.039L205.617 249" stroke="white" stroke-width="2.0091" stroke-linecap="round" stroke-linejoin="round"/>
<path d="M145.959 240.653L144.562 247.61" stroke="white" stroke-width="2.0091" stroke-linecap="round" stroke-linejoin="round"/>
<path d="M249.907 246.713C249.854 247.251 249.824 247.789 249.809 248.327H278.415L275.884 215.113L284.971 193.39C285.091 193.106 284.994 192.77 284.739 192.591L270.312 182.421L268.975 168.762C268.742 166.378 266.602 164.629 264.214 164.861C261.825 165.093 260.061 167.222 260.293 169.598L261.615 183.116C261.48 183.116 261.345 183.116 261.202 183.138C260.046 183.25 258.994 183.803 258.258 184.7C257.342 185.813 257.072 187.241 257.41 188.541C256.253 188.616 255.127 189.146 254.33 190.11C253.587 191.007 253.242 192.135 253.354 193.286C253.377 193.532 253.429 193.764 253.489 193.996C252.543 194.175 251.664 194.653 251.011 195.43C250.17 196.439 249.832 197.739 250.072 199.025L249.644 203.149C249.043 208.925 250.778 214.814 254.406 219.357L249.907 246.721V246.713Z" fill="white"/>
<path d="M270.415 190.342L263.056 191.051L260.953 169.531C260.758 167.506 262.244 165.713 264.272 165.518C266.307 165.324 268.11 166.804 268.305 168.821L270.408 190.342H270.415Z" fill="white" stroke="#18292D" stroke-width="2.0091" stroke-linecap="round" stroke-linejoin="round"/>
<path d="M273.61 197.268C272.31 198.838 269.982 199.062 268.405 197.769L259.265 190.289C257.688 188.997 257.463 186.68 258.762 185.111C260.061 183.542 262.39 183.318 263.967 184.61L273.106 192.09C274.684 193.383 274.909 195.699 273.61 197.268Z" fill="white" stroke="#18292D" stroke-width="2.0091" stroke-linecap="round" stroke-linejoin="round"/>
<path d="M269.688 202.678C268.388 204.248 266.06 204.472 264.483 203.179L255.344 195.699C253.766 194.407 253.541 192.09 254.84 190.521C256.14 188.952 258.468 188.728 260.045 190.02L269.185 197.5C270.762 198.793 270.987 201.109 269.688 202.678Z" fill="white" stroke="#18292D" stroke-width="2.0091" stroke-linecap="round" stroke-linejoin="round"/>
<path d="M250.456 248.873C250.456 248.178 250.501 247.483 250.569 246.781L255.112 219.163C251.44 214.694 249.713 208.955 250.306 203.209L250.742 198.987C250.509 197.919 250.757 196.761 251.515 195.849C252.837 194.28 255.24 194.168 256.825 195.468L259.648 197.784C260.52 198.494 260.963 199.525 260.978 200.564C261.008 200.699 261.03 200.841 261.045 200.975L261.398 204.607C261.586 206.52 260.347 208.358 258.454 208.731C256.284 209.15 254.271 207.618 254.061 205.481L253.768 202.492" fill="white"/>
<path d="M250.456 248.873C250.456 248.178 250.501 247.483 250.569 246.781L255.112 219.163C251.44 214.694 249.713 208.955 250.306 203.209L250.742 198.987C250.509 197.919 250.757 196.761 251.515 195.849C252.837 194.28 255.24 194.168 256.825 195.468L259.648 197.784C260.52 198.494 260.963 199.525 260.978 200.564C261.008 200.699 261.03 200.841 261.045 200.975L261.398 204.607C261.586 206.52 260.347 208.358 258.454 208.731C256.284 209.15 254.271 207.618 254.061 205.481L253.768 202.492" stroke="#18292D" stroke-width="2.0091" stroke-linecap="round" stroke-linejoin="round"/>
<path d="M268.6 208.253C268.57 198.8 275.72 196.036 275.72 196.036L268.6 188.496C267.451 187.278 266.956 185.589 267.271 183.953C267.496 182.78 268.871 182.227 269.847 182.922L284.341 193.136L275.194 215.008L277.687 248.335" fill="white"/>
<path d="M268.6 208.253C268.57 198.8 275.72 196.036 275.72 196.036L268.6 188.496C267.451 187.278 266.956 185.589 267.271 183.953C267.496 182.78 268.871 182.227 269.847 182.922L284.341 193.136L275.194 215.008L277.687 248.335" stroke="#18292D" stroke-width="2.0091" stroke-linecap="round" stroke-linejoin="round"/>
</g>
<defs>
<clipPath id="clip0_558_8493">
<rect width="470" height="250" fill="white"/>
</clipPath>
</defs>
</svg>
