<svg width="1300" height="400" viewBox="0 0 1300 400" fill="none" xmlns="http://www.w3.org/2000/svg">
<path d="M638.065 87.5717C660.281 85.8272 681.612 93.0376 696.702 102.856C711.941 112.869 720.933 125.491 721.916 138.981C722.905 152.6 716.073 165.536 705.951 178.314C695.693 190.898 682.144 203.326 666.616 211.381C636.603 228.224 602.214 214.59 585.821 173.886C569.412 133.439 592.383 89.8952 638.065 87.5717Z" fill="#F2F7F8"/>
<path d="M500.959 297.779C500.959 297.779 482.829 340.949 458.769 333.609C457.889 333.339 461.469 320.569 461.469 320.569L491.439 275.439L500.949 297.779H500.959Z" fill="white"/>
<path d="M464.248 335.439C462.318 335.439 460.388 335.149 458.488 334.569C457.518 334.269 456.678 334.019 460.518 320.299C460.548 320.199 460.588 320.099 460.648 320.019L490.618 274.889C490.818 274.579 491.168 274.409 491.538 274.449C491.908 274.479 492.218 274.719 492.368 275.049L501.878 297.389C501.988 297.639 501.988 297.919 501.878 298.169C501.828 298.279 497.208 309.189 489.678 319.059C481.418 329.879 472.728 335.439 464.238 335.439H464.248ZM459.648 332.819C481.108 338.619 498.028 301.959 499.878 297.779L491.268 277.539L462.408 320.989C461.068 325.779 459.778 331.129 459.648 332.819Z" fill="#18292D"/>
<path d="M483.908 326.149L483.818 346.709L424.478 346.459C419.498 346.439 418.698 338.769 423.188 335.029L462.518 319.959C462.518 319.959 466.028 333.679 483.908 326.139V326.149Z" fill="white"/>
<path d="M483.908 326.69L483.848 341.38L424.508 341.13C419.528 341.11 418.718 336.72 423.198 334.06L461.698 320.35C461.698 320.35 466.038 332.06 483.908 326.69Z" fill="#4A7C88"/>
<path d="M483.818 347.71L424.478 347.46C422.258 347.46 420.468 346.13 419.678 343.94C418.678 341.16 419.348 336.94 422.548 334.26C422.628 334.19 422.728 334.13 422.828 334.09L462.158 319.02C462.428 318.92 462.718 318.93 462.978 319.07C463.228 319.2 463.418 319.43 463.488 319.71C463.498 319.75 464.698 324.16 468.968 326.26C472.668 328.08 477.558 327.73 483.518 325.22C483.828 325.09 484.178 325.12 484.458 325.31C484.738 325.5 484.908 325.81 484.908 326.15L484.818 346.71C484.818 347.26 484.368 347.71 483.818 347.71ZM423.708 335.9C421.338 337.97 420.818 341.22 421.558 343.26C421.848 344.08 422.628 345.45 424.488 345.46L482.828 345.71L482.908 327.63C476.988 329.86 471.998 330.01 468.058 328.05C464.308 326.19 462.588 322.94 461.918 321.27L423.718 335.9H423.708Z" fill="#18292D"/>
<path d="M456.838 331.42C456.458 331.42 456.098 331.21 455.928 330.84L451.588 321.49C451.358 320.99 451.578 320.39 452.078 320.16C452.578 319.93 453.178 320.15 453.408 320.65L457.748 330C457.978 330.5 457.758 331.1 457.258 331.33C457.118 331.39 456.978 331.42 456.838 331.42Z" fill="#18292D"/>
<path d="M450.368 331.389C449.978 331.389 449.608 331.159 449.448 330.779L446.248 323.339C446.028 322.829 446.258 322.239 446.768 322.029C447.268 321.809 447.868 322.049 448.078 322.549L451.288 329.989C451.508 330.499 451.278 331.089 450.768 331.299C450.638 331.359 450.508 331.379 450.368 331.379V331.389Z" fill="#18292D"/>
<path d="M443.888 331.359C443.508 331.359 443.148 331.139 442.978 330.779L440.528 325.439C440.298 324.939 440.528 324.339 441.018 324.109C441.518 323.879 442.108 324.099 442.348 324.599L444.798 329.939C445.028 330.439 444.798 331.039 444.308 331.269C444.178 331.329 444.028 331.359 443.888 331.359Z" fill="#18292D"/>
<path d="M456.388 322.209C456.298 322.209 456.208 322.199 456.128 322.179C456.068 322.179 455.998 322.179 455.928 322.159C455.608 322.089 455.348 321.859 455.198 321.569C452.908 319.649 451.598 315.939 451.688 313.379C451.748 311.699 452.508 309.979 453.778 308.669C454.768 307.649 456.338 306.919 457.588 307.609C457.958 307.809 458.208 308.089 458.418 308.359C461.088 311.709 459.938 317.169 457.378 321.119C457.418 321.599 457.108 322.059 456.628 322.179C456.548 322.199 456.458 322.209 456.378 322.209H456.388ZM456.518 309.349C456.248 309.349 455.698 309.589 455.228 310.079C454.298 311.039 453.738 312.269 453.698 313.459C453.628 315.459 454.658 318.069 455.998 319.559C457.928 316.289 458.748 311.979 456.858 309.609C456.818 309.549 456.698 309.409 456.638 309.369C456.608 309.349 456.568 309.349 456.518 309.349Z" fill="#18292D"/>
<path d="M583.128 228.08C570.498 212.47 541.948 212.93 527.988 228.97L461.278 305.62L492.648 322.54L542.278 273.05L583.128 228.09V228.08Z" fill="#18292D"/>
<path d="M445.708 297.779C445.708 297.779 427.578 340.949 403.518 333.609C402.638 333.339 406.218 320.569 406.218 320.569L436.188 275.439L445.698 297.779H445.708Z" fill="white"/>
<path d="M408.988 335.439C407.058 335.439 405.128 335.149 403.228 334.569C402.258 334.269 401.418 334.019 405.258 320.299C405.288 320.199 405.328 320.099 405.388 320.019L435.358 274.889C435.558 274.579 435.908 274.409 436.278 274.449C436.648 274.479 436.958 274.719 437.108 275.049L446.618 297.389C446.728 297.639 446.728 297.919 446.618 298.169C446.568 298.279 441.948 309.189 434.418 319.059C426.158 329.879 417.468 335.439 408.978 335.439H408.988ZM404.388 332.819C425.848 338.619 442.768 301.959 444.618 297.779L435.998 277.539L407.138 320.989C405.798 325.779 404.508 331.129 404.378 332.819H404.388Z" fill="#18292D"/>
<path d="M428.648 326.149L428.558 346.709L369.218 346.459C364.238 346.439 363.438 338.769 367.928 335.029L407.258 319.959C407.258 319.959 410.768 333.679 428.648 326.139V326.149Z" fill="white"/>
<path d="M428.648 326.69L428.588 341.38L369.248 341.13C364.268 341.11 363.458 336.72 367.938 334.06L406.438 320.35C406.438 320.35 410.778 332.06 428.648 326.69Z" fill="#4A7C88"/>
<path d="M428.568 347.71L369.228 347.46C367.008 347.46 365.218 346.13 364.428 343.94C363.428 341.16 364.098 336.94 367.308 334.26C367.388 334.19 367.488 334.13 367.588 334.09L406.918 319.02C407.188 318.92 407.478 318.93 407.738 319.07C407.988 319.2 408.178 319.43 408.248 319.71C408.258 319.75 409.458 324.16 413.728 326.26C417.428 328.08 422.318 327.73 428.278 325.22C428.588 325.09 428.938 325.12 429.218 325.31C429.498 325.5 429.668 325.81 429.668 326.15L429.578 346.71C429.578 347.26 429.128 347.71 428.578 347.71H428.568ZM368.458 335.9C366.088 337.97 365.568 341.22 366.308 343.26C366.598 344.08 367.378 345.45 369.238 345.46L427.578 345.71L427.658 327.63C421.738 329.86 416.748 330.01 412.808 328.05C409.058 326.19 407.338 322.94 406.668 321.27L368.468 335.9H368.458Z" fill="#18292D"/>
<path d="M401.588 331.42C401.208 331.42 400.848 331.21 400.678 330.84L396.338 321.49C396.108 320.99 396.328 320.39 396.828 320.16C397.328 319.93 397.918 320.15 398.158 320.65L402.498 330C402.728 330.5 402.508 331.1 402.008 331.33C401.868 331.39 401.728 331.42 401.588 331.42Z" fill="#18292D"/>
<path d="M395.108 331.389C394.718 331.389 394.348 331.159 394.188 330.779L390.978 323.339C390.758 322.829 390.988 322.239 391.498 322.029C391.998 321.809 392.598 322.049 392.808 322.549L396.008 329.989C396.228 330.499 395.998 331.089 395.488 331.299C395.358 331.359 395.228 331.379 395.088 331.379L395.108 331.389Z" fill="#18292D"/>
<path d="M388.638 331.359C388.258 331.359 387.898 331.139 387.728 330.779L385.278 325.439C385.048 324.939 385.278 324.339 385.768 324.109C386.268 323.879 386.858 324.099 387.098 324.599L389.548 329.939C389.778 330.439 389.548 331.039 389.058 331.269C388.928 331.329 388.778 331.359 388.638 331.359Z" fill="#18292D"/>
<path d="M401.128 322.209C401.038 322.209 400.948 322.199 400.868 322.179C400.798 322.179 400.738 322.179 400.668 322.159C400.348 322.089 400.088 321.859 399.948 321.569C397.658 319.649 396.348 315.939 396.438 313.379C396.498 311.699 397.258 309.979 398.528 308.669C399.518 307.649 401.088 306.919 402.338 307.609C402.698 307.809 402.948 308.079 403.168 308.349C405.838 311.699 404.688 317.159 402.128 321.109C402.168 321.589 401.858 322.049 401.378 322.169C401.298 322.189 401.208 322.199 401.128 322.199V322.209ZM401.258 309.349C400.988 309.349 400.438 309.589 399.968 310.079C399.038 311.039 398.478 312.269 398.438 313.459C398.368 315.459 399.398 318.069 400.738 319.559C402.668 316.289 403.488 311.979 401.598 309.609C401.558 309.559 401.438 309.409 401.378 309.369C401.348 309.349 401.308 309.349 401.258 309.349Z" fill="#18292D"/>
<path d="M622.858 345.5L527.878 228.08C515.248 212.47 486.698 212.93 472.738 228.97L406.018 305.62L437.388 322.54L487.018 273.05L528.798 337.79C534.818 347.12 543.738 354.22 554.188 358H601.428C610.298 358 618.478 353.23 622.858 345.51V345.5Z" fill="#18292D"/>
<path d="M485.248 176.629L563.118 240.499L514.428 256.349L482.258 178.649L485.248 176.629Z" fill="#4A7C88"/>
<path d="M534.608 185.55L563.118 240.5L519.328 256.35L485.998 176.06L534.608 185.55Z" fill="white"/>
<path d="M519.328 257.349C518.938 257.349 518.568 257.119 518.408 256.729L485.078 176.439C484.938 176.099 484.998 175.709 485.228 175.419C485.458 175.129 485.838 174.999 486.198 175.069L534.808 184.569C535.108 184.629 535.368 184.819 535.508 185.089L564.018 240.029C564.148 240.289 564.168 240.589 564.058 240.849C563.948 241.119 563.738 241.329 563.468 241.429L519.678 257.279C519.568 257.319 519.448 257.339 519.338 257.339L519.328 257.349ZM487.638 177.399L519.888 255.079L561.708 239.939L533.938 186.439L487.628 177.389L487.638 177.399Z" fill="#18292D"/>
<path d="M532.479 185.55L563.119 240.5L604.559 221.81L573.919 151.02L532.479 185.55Z" fill="white"/>
<path d="M563.118 241.499C562.768 241.499 562.428 241.309 562.248 240.989L531.608 186.049C531.378 185.629 531.468 185.099 531.838 184.789L573.278 150.249C573.518 150.049 573.848 149.969 574.148 150.049C574.458 150.119 574.708 150.339 574.838 150.629L605.478 221.419C605.698 221.919 605.478 222.499 604.968 222.729L563.528 241.409C563.398 241.469 563.258 241.499 563.118 241.499ZM533.748 185.789L563.538 239.209L603.238 221.309L573.528 152.639L533.748 185.789Z" fill="#18292D"/>
<path d="M576.842 175.517C586.087 172.871 591.804 164.52 589.613 156.863C587.422 149.207 578.152 145.145 568.908 147.79C559.663 150.435 553.946 158.787 556.137 166.444C558.328 174.1 567.598 178.162 576.842 175.517Z" fill="#18292D"/>
<path d="M626.938 244.659L590.188 240.989L579.928 208.019L610.528 198.499L626.938 244.659Z" fill="white"/>
<path d="M626.938 245.659C626.938 245.659 626.868 245.659 626.838 245.659L590.088 241.989C589.688 241.949 589.348 241.679 589.228 241.289L578.978 208.319C578.898 208.069 578.928 207.789 579.048 207.559C579.168 207.329 579.378 207.149 579.638 207.069L610.238 197.549C610.748 197.389 611.298 197.659 611.478 198.169L627.878 244.319C627.988 244.639 627.938 244.999 627.718 245.269C627.528 245.509 627.238 245.649 626.928 245.649L626.938 245.659ZM590.938 240.059L625.458 243.499L609.908 199.739L581.178 208.679L590.938 240.059Z" fill="#18292D"/>
<path d="M606.428 212.799C612.868 208.519 617.768 201.749 619.638 193.489C623.408 176.789 613.268 160.659 597.178 156.639C570.788 150.049 561.378 172.879 561.078 177.919C561.008 179.099 560.938 180.249 560.858 181.349C560.508 183.189 560.318 185.029 560.298 186.839C559.718 190.729 558.688 193.689 556.528 195.199C553.218 197.509 563.348 225.399 584.038 217.219L606.448 212.799H606.428Z" fill="white"/>
<path d="M576.608 219.63C570.888 219.63 563.498 217.16 557.878 206.68C555.288 201.86 553.738 195.91 555.938 194.37C557.628 193.19 558.658 190.84 559.278 186.75C559.308 184.92 559.498 183.05 559.848 181.22C559.928 180.14 559.998 179.01 560.068 177.86C560.288 174.31 563.898 165.34 571.618 159.68C578.678 154.5 587.358 153.15 597.418 155.67C614.288 159.89 624.478 176.59 620.608 193.71C618.748 201.95 613.908 209.03 606.978 213.63C606.518 213.93 605.898 213.81 605.588 213.35C605.278 212.89 605.408 212.27 605.868 211.96C612.368 207.64 616.908 201 618.648 193.26C622.268 177.21 612.728 161.55 596.928 157.6C587.468 155.24 579.358 156.48 572.798 161.29C565.128 166.91 562.208 175.61 562.068 177.98C561.998 179.17 561.928 180.31 561.848 181.42C561.848 181.46 561.848 181.5 561.838 181.54C561.498 183.31 561.318 185.09 561.288 186.86C561.288 186.91 561.288 186.95 561.278 186.99C560.568 191.71 559.278 194.5 557.088 196.02C556.388 196.75 557.258 202.46 561.198 208.31C564.548 213.28 571.928 220.93 583.658 216.29C584.168 216.09 584.748 216.34 584.958 216.85C585.158 217.36 584.908 217.94 584.398 218.15C582.918 218.74 580.068 219.64 576.618 219.64L576.608 219.63Z" fill="#18292D"/>
<path d="M600.908 150.179C590.098 147.739 579.308 151.169 571.648 158.389C574.638 158.259 577.668 158.489 580.688 159.169C601.208 163.799 613.618 186.279 608.408 209.379C608.118 210.659 607.778 211.919 607.388 213.149C616.098 208.799 622.918 200.579 625.268 190.149C629.358 172.029 618.448 154.129 600.908 150.169V150.179Z" fill="#18292D"/>
<path d="M569.058 156.94C569.058 156.94 573.958 164.67 582.188 166.75C586.538 167.85 579.188 169.21 581.008 173.49C594.628 205.55 599.078 211.08 599.078 211.08C600.518 213.76 603.528 215.18 606.508 214.6L615.488 212.85L615.938 204.02L610.488 168.09C610.488 168.09 585.078 147.29 569.048 156.95L569.058 156.94Z" fill="#18292D"/>
<path d="M564.908 208.4C564.518 208.4 564.138 208.17 563.978 207.78C563.768 207.27 564.018 206.68 564.528 206.48C566.528 205.66 567.098 203.32 567.108 203.3C567.238 202.77 567.768 202.43 568.308 202.55C568.848 202.67 569.178 203.21 569.058 203.74C569.028 203.88 568.268 207.1 565.288 208.32C565.168 208.37 565.038 208.4 564.908 208.4Z" fill="#18292D"/>
<path d="M571.178 182.079C570.688 182.079 570.258 181.719 570.188 181.219C570.078 180.489 569.098 179.299 567.688 178.639C566.858 178.249 565.208 177.739 563.518 178.769C563.048 179.059 562.428 178.909 562.148 178.439C561.858 177.969 562.008 177.349 562.478 177.069C564.318 175.949 566.478 175.869 568.538 176.839C570.448 177.739 571.938 179.429 572.158 180.939C572.238 181.489 571.858 181.989 571.318 182.069C571.268 182.069 571.218 182.079 571.168 182.079H571.178Z" fill="#18292D"/>
<path d="M566.208 187.619C565.898 188.499 565.138 189.029 564.508 188.809C563.878 188.589 563.618 187.699 563.928 186.819C564.238 185.939 564.998 185.409 565.628 185.629C566.258 185.849 566.518 186.739 566.208 187.619Z" fill="#18292D"/>
<path d="M581.268 170.189C581.268 170.189 571.778 182.359 575.068 188.179C578.358 193.999 589.698 192.099 591.528 203.199C593.348 214.299 593.078 220.079 580.258 224.469C563.158 230.329 561.398 248.039 564.188 257.779C566.978 267.519 604.568 230.819 604.568 230.819C604.568 230.819 615.298 210.719 581.278 170.199L581.268 170.189Z" fill="#18292D"/>
<path d="M584.858 149.709C591.888 143.109 623.358 143.549 628.548 173.959C631.128 189.079 634.058 212.099 640.698 218.309C647.338 224.519 661.368 229.149 657.338 236.789C653.308 244.429 622.838 256.929 617.308 253.649C611.778 250.369 593.318 239.709 601.768 207.839C610.208 175.969 589.618 167.269 587.578 166.769C585.548 166.269 574.548 159.399 584.858 149.709Z" fill="#18292D"/>
<path d="M579.538 198.719C580.888 203.449 585.818 206.179 590.548 204.829C595.278 203.479 598.008 198.549 596.658 193.819C595.308 189.089 590.378 186.359 585.648 187.709C580.918 189.059 578.188 193.989 579.538 198.719Z" fill="white"/>
<path d="M584.848 200.439C584.408 200.439 584.008 200.149 583.888 199.709C582.678 195.499 588.448 191.749 588.688 191.589C589.148 191.289 589.768 191.429 590.068 191.889C590.368 192.349 590.228 192.969 589.768 193.269C588.438 194.119 585.148 196.849 585.808 199.159C585.958 199.689 585.648 200.239 585.118 200.399C585.028 200.429 584.938 200.439 584.838 200.439H584.848Z" fill="#18292D"/>
<path d="M545.778 299.489L570.248 243.719C572.948 237.849 577.798 233.249 583.798 230.859L621.528 215.859C634.138 210.849 664.988 203.249 661.108 243.399C653.378 323.289 628.738 343.109 628.738 343.109C628.738 343.109 592.318 356.869 545.778 299.489Z" fill="white"/>
<path d="M618.178 345.57C614.438 345.57 609.818 345.13 604.458 343.79C579.528 337.55 558.358 316.6 544.988 300.12C544.748 299.83 544.698 299.43 544.848 299.09L569.318 243.32C572.148 237.18 577.148 232.43 583.418 229.93L621.148 214.93C627.648 212.34 643.868 207.15 654.008 214.77C660.728 219.82 663.448 229.48 662.088 243.49C654.408 322.89 630.368 343.07 629.348 343.89C629.268 343.96 629.178 344.01 629.078 344.05C628.828 344.14 624.938 345.57 618.168 345.57H618.178ZM546.928 299.33C560.078 315.45 580.678 335.71 604.768 341.8C618.228 345.21 626.958 342.63 628.218 342.22C630.078 340.56 652.798 318.82 660.108 243.29C661.388 230.02 658.938 220.96 652.808 216.36C643.478 209.35 628.078 214.32 621.888 216.78L584.158 231.78C578.368 234.08 573.748 238.47 571.138 244.13L546.918 299.32L546.928 299.33Z" fill="#18292D"/>
<path d="M644.414 247.257C651.269 234.772 646.705 219.093 634.22 212.238C621.735 205.382 606.056 209.946 599.201 222.432C592.345 234.917 596.909 250.595 609.395 257.451C621.88 264.306 637.558 259.742 644.414 247.257Z" fill="#18292D"/>
<path d="M641.258 255.16C654.518 255.16 665.268 244.41 665.268 231.15C665.268 217.889 654.518 207.14 641.258 207.14C627.998 207.14 617.248 217.889 617.248 231.15C617.248 244.41 627.998 255.16 641.258 255.16Z" fill="#18292D"/>
<path d="M636.91 226.446C645.272 225.437 651.233 217.84 650.224 209.479C649.215 201.117 641.619 195.156 633.257 196.165C624.895 197.174 618.935 204.771 619.944 213.132C620.952 221.494 628.549 227.455 636.91 226.446Z" fill="#18292D"/>
<path d="M592.478 275.77L564.698 310.32C553.568 324.17 531.578 320.56 525.458 303.88L505.898 250.59C503.698 244.59 507.018 237.99 513.148 236.18L526.638 232.21L547.918 270.12L561.438 250.21C570.808 239.74 582.208 231.27 594.938 225.33L595.058 225.27L592.468 275.77H592.478Z" fill="white"/>
<path d="M547.018 319.859C545.698 319.859 544.368 319.749 543.038 319.529C534.448 318.119 527.518 312.399 524.518 304.219L504.958 250.929C503.798 247.769 503.988 244.369 505.508 241.359C507.018 238.349 509.638 236.169 512.868 235.219L526.358 231.249C526.808 231.119 527.288 231.309 527.508 231.719L547.998 268.219L560.618 249.639C560.618 249.639 560.668 249.569 560.698 249.529C570.208 238.899 581.588 230.439 594.528 224.409L594.658 224.349C595.158 224.119 595.758 224.339 595.988 224.839C596.218 225.339 595.998 225.939 595.498 226.169L595.378 226.229C582.718 232.139 571.568 240.409 562.248 250.819L548.758 270.679C548.568 270.969 548.258 271.129 547.888 271.119C547.538 271.109 547.228 270.909 547.058 270.609L526.168 233.389L513.448 237.139C510.748 237.929 508.578 239.749 507.308 242.259C506.048 244.769 505.878 247.599 506.848 250.239L526.408 303.529C529.158 311.019 535.498 316.259 543.378 317.559C551.248 318.849 558.938 315.909 563.938 309.689L591.718 275.139C592.068 274.709 592.688 274.639 593.128 274.989C593.558 275.339 593.628 275.969 593.278 276.399L565.498 310.949C560.888 316.679 554.188 319.869 547.038 319.869L547.018 319.859Z" fill="#18292D"/>
<path d="M540.678 284.539C540.518 284.539 540.358 284.499 540.218 284.419C539.728 284.159 539.538 283.559 539.798 283.069L552.748 258.469C553.008 257.979 553.608 257.789 554.098 258.049C554.588 258.309 554.778 258.909 554.518 259.399L541.568 283.999C541.388 284.339 541.038 284.529 540.678 284.529V284.539Z" fill="#18292D"/>
<path d="M524.268 232.599L521.358 213.789C521.028 211.819 519.618 210.209 517.718 209.599C514.448 208.559 511.058 210.839 510.788 214.259L510.018 223.969L492.748 204.979L489.218 212.029C488.128 214.209 487.508 216.589 487.398 219.029C487.228 222.729 488.628 226.319 491.238 228.939L505.998 242.179L524.258 232.599H524.268Z" fill="white"/>
<path d="M506.018 243.18C505.778 243.18 505.538 243.09 505.348 242.92L490.588 229.68C487.738 226.83 486.228 222.95 486.418 218.98C486.538 216.39 487.188 213.9 488.348 211.58L491.878 204.53C492.028 204.24 492.308 204.03 492.638 203.99C492.968 203.94 493.288 204.06 493.518 204.31L509.228 221.59L509.808 214.19C509.958 212.25 510.978 210.52 512.588 209.43C514.198 208.34 516.188 208.06 518.038 208.65C520.308 209.37 521.958 211.28 522.358 213.62L525.268 232.45C525.338 232.87 525.118 233.29 524.748 233.49L506.488 243.07C506.338 243.15 506.178 243.18 506.028 243.18H506.018ZM493.008 206.73L490.138 212.48C489.108 214.55 488.528 216.77 488.418 219.08C488.258 222.49 489.558 225.83 491.968 228.24L506.168 240.98L523.178 232.06L520.378 213.95C520.108 212.36 518.978 211.06 517.428 210.56C516.158 210.16 514.798 210.35 513.698 211.09C512.598 211.83 511.898 213.02 511.798 214.34L511.028 224.05C510.998 224.45 510.728 224.79 510.358 224.92C509.988 225.05 509.568 224.94 509.298 224.65L493.018 206.74L493.008 206.73Z" fill="#18292D"/>
<path d="M493.188 224.109C492.778 224.109 492.388 223.859 492.248 223.449L488.288 212.369C488.098 211.849 488.368 211.279 488.888 211.089C489.408 210.899 489.978 211.179 490.168 211.699L494.128 222.779C494.318 223.299 494.048 223.869 493.528 224.059C493.418 224.099 493.298 224.119 493.188 224.119V224.109Z" fill="#18292D"/>
<path d="M509.598 308.28C509.248 308.28 508.908 308.1 508.728 307.78L490.588 275.94C490.318 275.46 490.478 274.85 490.958 274.58C491.438 274.3 492.048 274.47 492.318 274.95L510.458 306.79C510.728 307.27 510.568 307.88 510.088 308.15C509.928 308.24 509.758 308.28 509.598 308.28Z" fill="white"/>
<path d="M490.276 201.654C488.069 201.03 486.161 201.701 483.993 202.244C476.449 204.13 468.551 204.636 460.805 205.054C436.266 206.379 413.226 200.862 392.905 186.716C378.045 176.371 357.94 153.309 367.811 134.318C375.221 120.062 386.449 121.064 398.679 128.169C409.47 134.437 406.753 144.742 400.008 153.523C393.769 161.645 389.127 163.714 379.242 165.146C358.005 168.223 339.999 166.444 319.528 159.54C314.214 157.748 290.925 152.36 290.318 145.52" stroke="black" stroke-width="2" stroke-linecap="round" stroke-linejoin="round" stroke-dasharray="6 6"/>
<path d="M1015 251.437C1012.06 251.137 1010.09 249.394 1007.75 247.685C999.606 241.738 990.384 237.311 981.303 233.064C952.535 219.61 922.334 215.252 891.318 222.771C868.638 228.269 833.674 246.805 836.537 274.812C838.687 295.836 852.608 300.024 870.611 297.225C886.493 294.755 888.102 280.83 884.165 266.828C880.524 253.878 875.94 249.107 864.775 242.587C840.788 228.579 818.381 222.074 790.604 220.655C783.392 220.286 752.954 215.652 749 223.733" stroke="black" stroke-width="2" stroke-linecap="round" stroke-linejoin="round" stroke-dasharray="6 6"/>
<circle cx="240.5" cy="143.5" r="56" fill="white" stroke="#18292D"/>
<g clip-path="url(#clip0_711_9685)">
<path d="M239.456 125.307V166.491L208.559 168.397V125.307H239.456Z" fill="#18292D" stroke="#18292D" stroke-width="1.12172" stroke-linecap="round" stroke-linejoin="round"/>
<path d="M270.37 125.307V168.397L239.479 166.491V125.307H270.37Z" fill="#18292D" stroke="#18292D" stroke-width="1.12172" stroke-linecap="round" stroke-linejoin="round"/>
<path d="M267.103 125.028V165.974C258.211 162.161 248.319 162.161 239.426 165.974V125.028C248.319 121.216 258.211 121.216 267.103 125.028Z" fill="white" stroke="#18292D" stroke-width="1.12172" stroke-linecap="round" stroke-linejoin="round"/>
<path d="M243.588 132.276C249.929 130.446 256.607 130.446 262.948 132.276" stroke="#FFC31F" stroke-width="1.12172" stroke-linecap="round" stroke-linejoin="round"/>
<path d="M243.588 139.936C249.929 138.105 256.607 138.105 262.948 139.936" stroke="#FFC31F" stroke-width="1.12172" stroke-linecap="round" stroke-linejoin="round"/>
<path d="M243.588 147.591C249.929 145.76 256.607 145.76 262.948 147.591" stroke="#FFC31F" stroke-width="1.12172" stroke-linecap="round" stroke-linejoin="round"/>
<path d="M239.426 125.028V165.974C230.534 162.161 220.642 162.161 211.75 165.974V125.028C220.642 121.216 230.534 121.216 239.426 125.028Z" fill="white" stroke="#18292D" stroke-width="1.12172" stroke-linecap="round" stroke-linejoin="round"/>
<path d="M215.912 132.276C222.253 130.446 228.931 130.446 235.271 132.276" stroke="#FFC31F" stroke-width="1.12172" stroke-linecap="round" stroke-linejoin="round"/>
<path d="M215.912 139.936C222.253 138.105 228.931 138.105 235.271 139.936" stroke="#FFC31F" stroke-width="1.12172" stroke-linecap="round" stroke-linejoin="round"/>
<path d="M215.912 147.591C222.253 145.76 228.931 145.76 235.271 147.591" stroke="#FFC31F" stroke-width="1.12172" stroke-linecap="round" stroke-linejoin="round"/>
<path d="M215.912 155.245C222.253 153.414 228.931 153.414 235.271 155.245" stroke="#FFC31F" stroke-width="1.12172" stroke-linecap="round" stroke-linejoin="round"/>
<path d="M272.677 120.048C271.648 119.251 270.149 119.449 269.341 120.484L249.196 146.347C249.103 146.463 249.028 146.591 248.964 146.719L245.802 154.408C245.726 154.554 245.808 154.617 245.936 154.513L252.631 149.573C252.742 149.48 252.84 149.369 252.933 149.253L273.084 123.372C273.891 122.338 273.705 120.844 272.677 120.048Z" fill="white" stroke="#18292D" stroke-width="1.12172" stroke-linecap="round" stroke-linejoin="round"/>
<path d="M267.034 123.494L270.689 126.342" stroke="#18292D" stroke-width="1.12172" stroke-linecap="round" stroke-linejoin="round"/>
<path d="M247.499 150.276L249.539 151.851" stroke="#18292D" stroke-width="1.12172" stroke-linecap="round" stroke-linejoin="round"/>
<path d="M268.882 121.199L272.555 124.03" stroke="#18292D" stroke-width="1.12172" stroke-linecap="round" stroke-linejoin="round"/>
<path d="M251.027 147.974L268.823 124.9" stroke="#18292D" stroke-width="1.12172" stroke-linecap="round" stroke-linejoin="round"/>
<path d="M249.091 146.486L252.828 149.369" stroke="#18292D" stroke-width="1.12172" stroke-linecap="round" stroke-linejoin="round"/>
</g>
<circle cx="1059.5" cy="266.5" r="56" fill="white" stroke="#18292D"/>
<path d="M1075.41 267.687V289.492C1075.41 290.343 1074.72 291.034 1073.87 291.034H1059.36C1058.51 291.034 1057.81 291.726 1057.81 292.576C1057.81 293.427 1058.51 294.119 1059.36 294.119H1078.09V267.687C1078.09 267.095 1077.62 266.617 1077.02 266.617H1076.49C1075.9 266.617 1075.42 267.095 1075.42 267.687H1075.41Z" fill="#18292D" stroke="#18292D" stroke-width="1.3" stroke-linecap="round" stroke-linejoin="round"/>
<path d="M1048.68 271.329C1053.06 271.329 1056.62 267.774 1056.62 263.388C1056.62 259.002 1053.06 255.446 1048.68 255.446C1044.29 255.446 1040.73 259.002 1040.73 263.388C1040.73 267.774 1044.29 271.329 1048.68 271.329Z" fill="white" stroke="#18292D" stroke-width="1.3" stroke-linecap="round" stroke-linejoin="round"/>
<path d="M1049.09 289.385L1053.64 295.527C1054.37 296.657 1067.74 295.834 1067.74 295.834C1069.89 295.527 1071.53 293.606 1071.29 291.449C1071.03 289.221 1068.96 287.926 1066.79 287.964L1058.85 288.123C1057.78 288.145 1056.81 287.487 1056.44 286.477C1056.44 286.477 1053.32 279.276 1051.6 277.081L1051.58 277.059C1050.35 275.473 1048.42 274.518 1046.51 274.392C1039.99 273.964 1036.98 277.838 1036.61 282.931L1035.55 296.597" fill="white"/>
<path d="M1049.09 289.385L1053.64 295.527C1054.37 296.657 1067.74 295.834 1067.74 295.834C1069.89 295.527 1071.53 293.606 1071.29 291.449C1071.03 289.221 1068.96 287.926 1066.79 287.964L1058.85 288.123C1057.78 288.145 1056.81 287.487 1056.44 286.477C1056.44 286.477 1053.32 279.276 1051.6 277.081L1051.58 277.059C1050.35 275.473 1048.42 274.518 1046.51 274.392C1039.99 273.964 1036.98 277.838 1036.61 282.931L1035.55 296.597" stroke="#18292D" stroke-width="1.3" stroke-linecap="round" stroke-linejoin="round"/>
<path d="M1085.22 295.562C1085.22 294.766 1084.62 294.124 1083.89 294.124L1048.67 293.981L1048.45 297H1083.89C1084.62 297 1085.22 296.352 1085.22 295.568V295.562Z" fill="#FFC31F" stroke="#FFC31F" stroke-width="1.3" stroke-linecap="round" stroke-linejoin="round"/>
<path d="M1085.79 239H1074.95V249.834H1085.79V239Z" fill="white" stroke="#18292D" stroke-width="1.3" stroke-linecap="round" stroke-linejoin="round"/>
<path d="M1065.95 239H1055.12V249.834H1065.95V239Z" fill="white" stroke="#18292D" stroke-width="1.3" stroke-linecap="round" stroke-linejoin="round"/>
<path d="M1058.37 243.736L1060.59 245.959L1065.95 239" stroke="#18292D" stroke-width="1.3" stroke-linecap="round" stroke-linejoin="round"/>
<path d="M1045.83 239H1035V249.834H1045.83V239Z" fill="white" stroke="#18292D" stroke-width="1.3" stroke-linecap="round" stroke-linejoin="round"/>
<path d="M1038.25 243.736L1040.47 246.299L1045.84 239" stroke="#18292D" stroke-width="1.3" stroke-linecap="round" stroke-linejoin="round"/>
<path d="M703.36 84.1706L722.299 88.0943L724.185 77.6103C724.69 74.8026 726.281 72.3138 728.55 70.7816C730.673 69.3467 733.203 68.8392 735.672 69.3506L736.667 69.5567C741.948 70.6513 745.421 76.1131 744.41 81.7323L742.51 92.2805L757.27 95.339L763.121 96.5504L769.381 61.7675L709.621 49.3877L703.36 84.1706Z" fill="#96D8E8"/>
<path d="M763.879 99.2901L731.43 92.5684L723.055 90.834L701.644 86.3989C701.644 86.3989 701.642 86.3989 701.64 86.3989L693.727 84.7598L687.748 117.977L765.886 134.164L771.865 100.949L763.883 99.2939L763.879 99.2901ZM708.513 118.915C708.303 119.057 708.057 119.13 707.806 119.13C707.72 119.13 707.635 119.123 707.549 119.105L700.092 117.559C699.422 117.421 698.984 116.772 699.105 116.097L702.554 96.9374C702.801 95.5646 703.583 94.3436 704.701 93.5892C705.758 92.8736 707.02 92.6228 708.253 92.8775L708.671 92.965C711.276 93.5055 712.993 96.181 712.497 98.9303L709.048 118.09C708.988 118.427 708.793 118.722 708.511 118.913L708.513 118.915ZM720.252 121.347C720.042 121.489 719.795 121.563 719.544 121.563C719.458 121.563 719.373 121.555 719.287 121.538L711.831 119.992C711.16 119.854 710.722 119.204 710.843 118.53L714.292 99.3698C714.539 97.997 715.321 96.776 716.439 96.0216C717.496 95.308 718.758 95.0552 719.991 95.3099L720.409 95.3974C723.015 95.938 724.731 98.6134 724.236 101.363L720.786 120.523C720.726 120.859 720.532 121.155 720.25 121.345L720.252 121.347ZM731.99 123.779C731.78 123.921 731.533 123.995 731.282 123.995C731.196 123.995 731.111 123.987 731.025 123.97L723.569 122.424C722.898 122.286 722.46 121.637 722.581 120.962L726.03 101.802C726.277 100.429 727.059 99.2084 728.177 98.454C729.235 97.7384 730.497 97.4857 731.729 97.7423L732.147 97.8298C734.753 98.3704 736.47 101.046 735.974 103.795L732.524 122.955C732.464 123.291 732.27 123.587 731.988 123.777L731.99 123.779ZM743.728 126.212C743.518 126.354 743.271 126.428 743.02 126.428C742.935 126.428 742.849 126.42 742.764 126.402L735.307 124.857C734.636 124.719 734.199 124.069 734.319 123.394L737.768 104.235C738.015 102.862 738.797 101.641 739.915 100.886C740.973 100.171 742.235 99.92 743.467 100.175L743.885 100.262C746.491 100.803 748.208 103.478 747.712 106.228L744.263 125.387C744.202 125.724 744.008 126.019 743.726 126.21L743.728 126.212ZM759.45 108.66L756.001 127.82C755.941 128.156 755.746 128.452 755.464 128.642C755.254 128.784 755.007 128.858 754.756 128.858C754.671 128.858 754.585 128.848 754.5 128.833L747.043 127.287C746.372 127.149 745.935 126.5 746.055 125.825L749.505 106.665C749.752 105.292 750.533 104.071 751.651 103.317C752.709 102.603 753.971 102.35 755.204 102.605L755.622 102.693C758.227 103.233 759.944 105.909 759.45 108.658V108.66Z" fill="#96D8E8"/>
<path d="M668.786 223.305L746.925 239.492L752.797 206.87L674.658 190.683L668.786 223.305ZM732.826 207.916C733.884 207.2 735.146 206.949 736.378 207.204L736.796 207.291C739.402 207.832 741.119 210.507 740.623 213.257L737.174 232.417C737.113 232.753 736.919 233.049 736.637 233.239C736.427 233.381 736.18 233.455 735.929 233.455C735.844 233.455 735.758 233.447 735.673 233.43L728.216 231.884C727.545 231.746 727.108 231.096 727.228 230.422L730.677 211.262C730.924 209.889 731.706 208.668 732.824 207.914L732.826 207.916ZM721.088 205.483C722.146 204.77 723.407 204.515 724.64 204.772L725.058 204.859C727.664 205.4 729.381 208.075 728.885 210.824L725.435 229.984C725.375 230.321 725.181 230.616 724.899 230.807C724.689 230.949 724.442 231.023 724.191 231.023C724.105 231.023 724.02 231.015 723.934 230.997L716.478 229.451C715.807 229.313 715.369 228.664 715.49 227.989L718.939 208.829C719.186 207.457 719.968 206.236 721.086 205.481L721.088 205.483ZM709.35 203.051C710.407 202.337 711.669 202.084 712.902 202.339L713.32 202.427C715.925 202.965 717.642 205.643 717.147 208.392L713.697 227.552C713.637 227.888 713.443 228.184 713.161 228.374C712.951 228.516 712.704 228.59 712.453 228.59C712.367 228.59 712.282 228.582 712.196 228.565L704.74 227.019C704.069 226.881 703.631 226.232 703.752 225.557L707.201 206.397C707.448 205.024 708.23 203.803 709.348 203.049L709.35 203.051ZM697.611 200.618C698.669 199.905 699.931 199.652 701.164 199.907L701.582 199.994C704.187 200.535 705.904 203.21 705.408 205.96L701.959 225.119C701.899 225.456 701.704 225.751 701.422 225.942C701.212 226.084 700.965 226.158 700.715 226.158C700.629 226.158 700.544 226.15 700.458 226.132L693.001 224.587C692.331 224.449 691.893 223.799 692.014 223.124L695.463 203.965C695.71 202.592 696.491 201.371 697.609 200.616L697.611 200.618ZM680.279 220.694L683.729 201.534C683.976 200.161 684.757 198.94 685.875 198.186C686.933 197.472 688.195 197.22 689.428 197.474L689.846 197.562C692.451 198.102 694.168 200.778 693.672 203.527L690.223 222.687C690.163 223.023 689.968 223.319 689.686 223.509C689.476 223.651 689.229 223.725 688.978 223.725C688.893 223.725 688.807 223.716 688.722 223.7L681.265 222.154C680.594 222.016 680.157 221.367 680.277 220.692L680.279 220.694Z" fill="#96D8E8"/>
<path d="M662.466 258.418L740.605 274.604L746.477 241.982L668.338 225.795L662.466 258.418ZM726.506 243.028C727.564 242.314 728.826 242.062 730.058 242.316L730.477 242.404C733.082 242.944 734.799 245.62 734.305 248.369L730.856 267.529C730.795 267.865 730.601 268.161 730.319 268.351C730.109 268.493 729.862 268.567 729.611 268.567C729.526 268.567 729.44 268.559 729.355 268.542L721.898 266.996C721.227 266.858 720.79 266.209 720.91 265.534L724.36 246.374C724.606 245.001 725.388 243.78 726.506 243.026V243.028ZM714.768 240.595C715.826 239.882 717.088 239.629 718.32 239.884L718.738 239.971C721.344 240.512 723.061 243.187 722.565 245.937L719.116 265.097C719.055 265.433 718.861 265.728 718.579 265.919C718.369 266.061 718.122 266.135 717.871 266.135C717.786 266.135 717.7 266.127 717.615 266.11L710.158 264.564C709.487 264.426 709.05 263.776 709.17 263.102L712.619 243.942C712.866 242.569 713.648 241.348 714.766 240.594L714.768 240.595ZM703.03 238.163C704.088 237.449 705.349 237.197 706.582 237.451L707 237.539C709.606 238.079 711.323 240.755 710.827 243.504L707.377 262.664C707.317 263 707.123 263.296 706.841 263.487C706.631 263.629 706.384 263.702 706.133 263.702C706.047 263.702 705.962 263.693 705.876 263.677L698.42 262.131C697.749 261.993 697.311 261.344 697.432 260.669L700.881 241.509C701.128 240.137 701.91 238.916 703.028 238.161L703.03 238.163ZM691.292 235.731C692.349 235.017 693.611 234.764 694.844 235.019L695.262 235.107C697.867 235.647 699.584 238.323 699.089 241.072L695.639 260.232C695.579 260.568 695.385 260.864 695.103 261.054C694.893 261.196 694.646 261.27 694.395 261.27C694.309 261.27 694.224 261.262 694.138 261.245L686.682 259.699C686.011 259.561 685.573 258.911 685.694 258.237L689.143 239.077C689.39 237.704 690.172 236.483 691.29 235.729L691.292 235.731ZM673.959 255.806L677.409 236.646C677.656 235.274 678.437 234.053 679.555 233.298C680.613 232.585 681.875 232.332 683.108 232.587L683.526 232.674C686.131 233.215 687.848 235.89 687.352 238.639L683.903 257.799C683.843 258.136 683.648 258.431 683.366 258.622C683.156 258.764 682.909 258.838 682.659 258.838C682.573 258.838 682.488 258.828 682.402 258.812L674.945 257.267C674.274 257.128 673.837 256.479 673.958 255.804L673.959 255.806Z" fill="#96D8E8"/>
<path d="M681.426 153.086L759.564 169.272L765.436 136.65L687.298 120.463L681.426 153.086ZM745.466 137.696C746.523 136.982 747.785 136.73 749.018 136.984L749.436 137.072C752.041 137.61 753.758 140.288 753.263 143.037L749.813 162.197C749.753 162.533 749.559 162.829 749.277 163.019C749.067 163.161 748.82 163.235 748.569 163.235C748.483 163.235 748.398 163.227 748.312 163.21L740.856 161.664C740.185 161.526 739.747 160.877 739.868 160.202L743.317 141.042C743.564 139.669 744.346 138.448 745.464 137.694L745.466 137.696ZM733.727 135.263C734.785 134.55 736.047 134.297 737.28 134.552L737.698 134.639C740.303 135.18 742.02 137.855 741.524 140.605L738.075 159.764C738.015 160.101 737.82 160.396 737.538 160.587C737.328 160.729 737.081 160.803 736.831 160.803C736.745 160.803 736.66 160.795 736.574 160.777L729.117 159.232C728.447 159.094 728.009 158.444 728.13 157.77L731.579 138.61C731.826 137.237 732.607 136.016 733.725 135.261L733.727 135.263ZM721.989 132.831C723.047 132.117 724.309 131.865 725.542 132.119L725.96 132.207C728.565 132.747 730.282 135.423 729.788 138.172L726.339 157.332C726.279 157.668 726.084 157.964 725.802 158.155C725.592 158.296 725.345 158.37 725.094 158.37C725.009 158.37 724.923 158.363 724.838 158.345L717.381 156.799C716.71 156.661 716.273 156.012 716.393 155.337L719.843 136.177C720.09 134.805 720.871 133.584 721.989 132.829V132.831ZM710.251 130.399C711.309 129.685 712.571 129.432 713.803 129.687L714.221 129.774C716.827 130.315 718.544 132.99 718.048 135.74L714.599 154.9C714.538 155.236 714.344 155.532 714.062 155.722C713.852 155.864 713.605 155.938 713.354 155.938C713.269 155.938 713.183 155.93 713.098 155.913L705.641 154.367C704.97 154.229 704.533 153.579 704.653 152.905L708.103 133.745C708.349 132.372 709.131 131.151 710.249 130.397L710.251 130.399ZM692.919 150.474L696.368 131.314C696.615 129.942 697.397 128.721 698.515 127.966C699.573 127.251 700.834 127 702.067 127.255L702.485 127.342C705.091 127.883 706.808 130.558 706.312 133.307L702.862 152.467C702.802 152.804 702.608 153.099 702.326 153.29C702.116 153.432 701.869 153.506 701.618 153.506C701.533 153.506 701.447 153.498 701.361 153.48L693.905 151.934C693.234 151.796 692.796 151.147 692.917 150.472L692.919 150.474Z" fill="#96D8E8"/>
<path d="M675.104 188.197L753.243 204.384L759.115 171.761L680.976 155.574L675.104 188.197ZM739.144 172.807C740.202 172.094 741.464 171.841 742.697 172.096L743.115 172.183C745.72 172.724 747.437 175.399 746.941 178.148L743.492 197.308C743.432 197.645 743.237 197.94 742.955 198.131C742.745 198.273 742.498 198.346 742.248 198.346C742.162 198.346 742.076 198.339 741.991 198.321L734.534 196.775C733.863 196.637 733.426 195.988 733.546 195.313L736.996 176.153C737.243 174.781 738.024 173.56 739.142 172.805L739.144 172.807ZM727.406 170.375C728.464 169.661 729.726 169.408 730.959 169.663L731.377 169.751C733.982 170.291 735.699 172.967 735.203 175.716L731.754 194.876C731.693 195.212 731.499 195.508 731.217 195.698C731.007 195.84 730.76 195.914 730.509 195.914C730.424 195.914 730.338 195.906 730.253 195.889L722.796 194.343C722.125 194.205 721.688 193.556 721.808 192.881L725.258 173.721C725.505 172.348 726.286 171.127 727.404 170.373L727.406 170.375ZM715.668 167.942C716.726 167.229 717.988 166.976 719.22 167.231L719.638 167.318C722.244 167.859 723.961 170.534 723.465 173.284L720.016 192.443C719.955 192.78 719.761 193.075 719.479 193.266C719.269 193.408 719.022 193.482 718.771 193.482C718.686 193.482 718.6 193.474 718.515 193.456L711.058 191.911C710.387 191.773 709.95 191.123 710.07 190.448L713.519 171.289C713.766 169.916 714.548 168.695 715.666 167.94L715.668 167.942ZM703.93 165.51C704.988 164.796 706.249 164.544 707.482 164.798L707.9 164.886C710.506 165.426 712.223 168.102 711.729 170.851L708.279 190.011C708.219 190.347 708.025 190.643 707.743 190.833C707.533 190.975 707.286 191.049 707.035 191.049C706.949 191.049 706.864 191.041 706.778 191.024L699.322 189.478C698.651 189.34 698.213 188.691 698.334 188.016L701.783 168.856C702.03 167.483 702.812 166.262 703.93 165.508V165.51ZM686.598 185.586L690.047 166.426C690.294 165.053 691.076 163.832 692.194 163.078C693.251 162.362 694.513 162.111 695.746 162.366L696.164 162.453C698.769 162.994 700.486 165.669 699.991 168.419L696.541 187.579C696.481 187.915 696.286 188.21 696.005 188.401C695.795 188.543 695.548 188.617 695.297 188.617C695.211 188.617 695.126 188.609 695.04 188.592L687.583 187.046C686.913 186.908 686.475 186.258 686.596 185.584L686.598 185.586Z" fill="#96D8E8"/>
<path d="M729.158 346.605C729.158 346.605 729.158 346.605 729.156 346.605H645.568C645.568 346.605 645.564 346.605 645.562 346.605H624.528V357.922H747.684V346.605H729.16C729.16 346.605 729.16 346.605 729.158 346.605Z" fill="#18292D"/>
<path d="M656.145 293.529L734.283 309.716L740.155 277.093L662.017 260.906L656.145 293.529ZM720.185 278.139C721.243 277.426 722.504 277.171 723.737 277.428L724.155 277.515C726.761 278.056 728.478 280.731 727.982 283.48L724.532 302.64C724.472 302.977 724.278 303.272 723.996 303.463C723.786 303.605 723.539 303.679 723.288 303.679C723.203 303.679 723.117 303.669 723.031 303.653L715.575 302.107C714.904 301.969 714.466 301.32 714.587 300.645L718.036 281.485C718.283 280.113 719.065 278.892 720.183 278.137L720.185 278.139ZM708.447 275.707C709.504 274.993 710.766 274.739 711.999 274.995L712.417 275.083C715.023 275.623 716.739 278.299 716.244 281.048L712.794 300.208C712.734 300.544 712.54 300.84 712.258 301.03C712.048 301.172 711.801 301.246 711.55 301.246C711.464 301.246 711.379 301.238 711.293 301.221L703.837 299.675C703.166 299.537 702.728 298.888 702.849 298.213L706.298 279.053C706.545 277.68 707.327 276.459 708.445 275.705L708.447 275.707ZM696.709 273.274C697.766 272.561 699.028 272.308 700.261 272.563L700.679 272.65C703.284 273.191 705.001 275.866 704.505 278.616L701.056 297.775C700.996 298.112 700.801 298.407 700.519 298.598C700.309 298.74 700.063 298.814 699.812 298.814C699.726 298.814 699.641 298.804 699.555 298.788L692.098 297.243C691.428 297.105 690.99 296.455 691.111 295.78L694.56 276.621C694.807 275.248 695.589 274.027 696.707 273.272L696.709 273.274ZM684.97 270.842C686.028 270.128 687.29 269.876 688.523 270.13L688.941 270.218C691.546 270.758 693.263 273.434 692.767 276.183L689.318 295.343C689.258 295.679 689.063 295.975 688.781 296.165C688.571 296.307 688.324 296.381 688.074 296.381C687.988 296.381 687.902 296.374 687.817 296.356L680.36 294.81C679.689 294.672 679.252 294.023 679.372 293.348L682.822 274.188C683.069 272.816 683.85 271.594 684.968 270.84L684.97 270.842ZM667.638 290.918L671.088 271.758C671.334 270.385 672.116 269.164 673.234 268.41C674.292 267.696 675.554 267.443 676.786 267.698L677.205 267.785C679.81 268.324 681.527 271.001 681.031 273.751L677.582 292.911C677.521 293.247 677.327 293.543 677.045 293.733C676.835 293.875 676.588 293.949 676.337 293.949C676.252 293.949 676.166 293.941 676.081 293.924L668.624 292.38C667.953 292.242 667.516 291.592 667.636 290.918H667.638Z" fill="#96D8E8"/>
<path d="M647.048 344.077H652.095L658.354 309.294C658.665 307.561 659.651 306.025 661.055 305.076C662.379 304.182 663.958 303.865 665.502 304.184L667.559 304.612C670.833 305.288 672.99 308.662 672.366 312.131L666.616 344.079H670.907L676.491 313.052C676.803 311.32 677.788 309.784 679.192 308.833C680.516 307.939 682.095 307.622 683.639 307.94L685.696 308.368C688.97 309.045 691.127 312.418 690.503 315.887L685.43 344.079H689.721L694.629 316.811C694.942 315.078 695.925 313.542 697.329 312.593C698.653 311.699 700.232 311.382 701.776 311.701L703.833 312.129C707.108 312.805 709.264 316.179 708.64 319.648L704.242 344.081H708.535L712.766 320.569C713.077 318.837 714.063 317.301 715.466 316.352C716.791 315.457 718.369 315.14 719.913 315.459L721.97 315.887C725.245 316.564 727.401 319.937 726.777 323.406L723.055 344.082H728.103L733.839 312.21L655.7 296.023L647.05 344.082L647.048 344.077Z" fill="#96D8E8"/>
<path d="M705.744 46.0059L708.857 46.6515H708.861L771.098 59.5446L773.688 60.0812L774.272 56.8419L706.327 42.7666L705.744 46.0059Z" fill="white"/>
<path d="M731.636 100.308L731.218 100.221C730.658 100.104 730.08 100.221 729.592 100.551C729.029 100.932 728.647 101.537 728.519 102.253L725.29 120.201L730.271 121.234L733.489 103.351C733.744 101.938 732.913 100.573 731.636 100.308Z" fill="white"/>
<path d="M743.373 102.739L742.955 102.651C742.395 102.535 741.818 102.651 741.33 102.982C740.766 103.363 740.385 103.968 740.256 104.683L737.027 122.632L742.008 123.664L745.226 105.782C745.481 104.368 744.651 103.003 743.373 102.739Z" fill="white"/>
<path d="M755.112 105.171L754.694 105.083C754.134 104.966 753.556 105.083 753.068 105.414C752.504 105.795 752.123 106.399 751.995 107.115L748.765 125.063L753.747 126.096L756.965 108.214C757.219 106.8 756.389 105.435 755.112 105.171Z" fill="white"/>
<path d="M741.923 81.287C742.695 77.0036 740.107 72.8523 736.156 72.0337L735.16 71.8276C733.364 71.4543 731.518 71.8276 729.967 72.8776C728.26 74.0306 727.06 75.9205 726.675 78.0613L724.775 88.6095L740.037 91.7711L741.925 81.287H741.923Z" fill="white"/>
<path d="M720.078 245.491C720.333 244.077 719.502 242.712 718.225 242.448L717.807 242.36C717.247 242.244 716.669 242.36 716.181 242.691C715.617 243.072 715.236 243.677 715.108 244.392L711.878 262.341L716.86 263.373L720.078 245.491Z" fill="white"/>
<path d="M719.897 97.8757L719.479 97.7882C718.919 97.6715 718.342 97.7882 717.854 98.1187C717.29 98.4998 716.909 99.1045 716.78 99.8201L713.551 117.769L718.532 118.801L721.75 100.919C722.005 99.5051 721.175 98.1401 719.897 97.8757Z" fill="white"/>
<path d="M702.923 205.515C703.178 204.102 702.348 202.737 701.07 202.472L700.652 202.385C700.092 202.268 699.515 202.385 699.027 202.715C698.463 203.097 698.082 203.701 697.953 204.417L694.724 222.365L699.705 223.398L702.923 205.515Z" fill="white"/>
<path d="M714.661 207.946C714.916 206.532 714.085 205.167 712.808 204.903L712.39 204.816C711.83 204.699 711.252 204.816 710.764 205.146C710.2 205.527 709.819 206.132 709.691 206.847L706.461 224.796L711.443 225.828L714.661 207.946Z" fill="white"/>
<path d="M691.184 203.084C691.439 201.67 690.609 200.305 689.331 200.041L688.913 199.953C688.353 199.837 687.776 199.953 687.288 200.284C686.724 200.665 686.343 201.27 686.214 201.985L682.985 219.934L687.966 220.966L691.184 203.084Z" fill="white"/>
<path d="M726.397 210.379C726.652 208.965 725.822 207.6 724.544 207.336L724.126 207.248C723.566 207.134 722.989 207.248 722.501 207.579C721.937 207.96 721.556 208.565 721.427 209.28L718.198 227.229L723.179 228.261L726.397 210.379Z" fill="white"/>
<path d="M708.34 243.057C708.594 241.644 707.764 240.279 706.487 240.014L706.069 239.927C705.509 239.81 704.931 239.927 704.443 240.257C703.879 240.639 703.498 241.243 703.37 241.959L700.14 259.907L705.122 260.94L708.34 243.057Z" fill="white"/>
<path d="M744.456 177.7C744.711 176.286 743.881 174.921 742.603 174.657L742.185 174.569C741.625 174.453 741.048 174.569 740.56 174.9C739.996 175.281 739.615 175.886 739.486 176.601L736.257 194.55L741.238 195.582L744.456 177.7Z" fill="white"/>
<path d="M696.602 240.629C696.856 239.215 696.026 237.85 694.749 237.586L694.331 237.498C693.771 237.381 693.193 237.498 692.705 237.829C692.141 238.21 691.76 238.815 691.632 239.53L688.402 257.479L693.384 258.511L696.602 240.629Z" fill="white"/>
<path d="M738.135 212.811C738.39 211.398 737.559 210.033 736.282 209.768L735.864 209.681C735.304 209.564 734.726 209.681 734.238 210.011C733.675 210.392 733.293 210.997 733.165 211.713L729.936 229.661L734.917 230.694L738.135 212.811Z" fill="white"/>
<path d="M684.863 238.196C685.118 236.782 684.288 235.417 683.01 235.153L682.592 235.066C682.032 234.949 681.455 235.066 680.967 235.396C680.403 235.777 680.022 236.382 679.894 237.097L676.664 255.046L681.646 256.078L684.863 238.196Z" fill="white"/>
<path d="M709.242 170.405C709.497 168.991 708.666 167.626 707.389 167.362L706.971 167.275C706.411 167.158 705.833 167.275 705.345 167.605C704.782 167.986 704.4 168.591 704.272 169.306L701.042 187.255L706.024 188.287L709.242 170.405Z" fill="white"/>
<path d="M739.037 140.155C739.292 138.742 738.462 137.377 737.184 137.112L736.766 137.025C736.206 136.91 735.629 137.025 735.141 137.355C734.577 137.736 734.196 138.341 734.067 139.057L730.838 157.005L735.819 158.038L739.037 140.155Z" fill="white"/>
<path d="M715.561 135.294C715.815 133.88 714.985 132.515 713.708 132.251L713.29 132.163C712.73 132.047 712.152 132.163 711.664 132.494C711.1 132.875 710.719 133.48 710.591 134.195L707.361 152.144L712.343 153.176L715.561 135.294Z" fill="white"/>
<path d="M727.299 137.726C727.554 136.313 726.723 134.948 725.446 134.683L725.028 134.596C724.468 134.479 723.891 134.596 723.403 134.926C722.839 135.307 722.458 135.912 722.329 136.628L719.1 154.574L724.081 155.607L727.299 137.724V137.726Z" fill="white"/>
<path d="M703.823 132.861C704.078 131.447 703.247 130.083 701.97 129.818L701.552 129.731C700.992 129.614 700.414 129.731 699.926 130.061C699.363 130.442 698.981 131.047 698.853 131.762L695.624 149.711L700.605 150.743L703.823 132.861Z" fill="white"/>
<path d="M708.159 95.4431L707.741 95.3556C707.181 95.2389 706.604 95.3556 706.116 95.6861C705.552 96.0672 705.171 96.6719 705.043 97.3875L701.813 115.336L706.794 116.368L710.012 98.486C710.267 97.0725 709.437 95.7075 708.159 95.4431Z" fill="white"/>
<path d="M720.98 172.836C721.234 171.422 720.404 170.057 719.127 169.793L718.709 169.705C718.149 169.589 717.571 169.705 717.083 170.036C716.519 170.417 716.138 171.022 716.01 171.737L712.78 189.686L717.762 190.718L720.98 172.836Z" fill="white"/>
<path d="M732.718 175.267C732.973 173.854 732.142 172.489 730.865 172.224L730.447 172.137C729.887 172.02 729.309 172.137 728.821 172.467C728.258 172.848 727.876 173.453 727.748 174.169L724.519 192.117L729.5 193.15L732.718 175.267Z" fill="white"/>
<path d="M697.504 167.972C697.759 166.559 696.929 165.194 695.651 164.929L695.233 164.842C694.673 164.725 694.096 164.842 693.608 165.172C693.044 165.554 692.663 166.158 692.534 166.874L689.305 184.822L694.286 185.855L697.504 167.972Z" fill="white"/>
<path d="M731.816 247.922C732.071 246.508 731.241 245.143 729.963 244.879L729.545 244.791C728.983 244.674 728.408 244.791 727.92 245.122C727.356 245.503 726.975 246.107 726.846 246.823L723.617 264.771L728.598 265.804L731.816 247.922Z" fill="white"/>
<path d="M713.758 280.602C714.013 279.189 713.183 277.824 711.906 277.559L711.487 277.472C710.927 277.355 710.35 277.472 709.862 277.802C709.298 278.183 708.917 278.788 708.789 279.504L705.559 297.452L710.541 298.485L713.758 280.602Z" fill="white"/>
<path d="M702.021 278.17C702.275 276.756 701.445 275.391 700.168 275.127L699.75 275.039C699.19 274.923 698.612 275.039 698.124 275.37C697.56 275.751 697.179 276.356 697.051 277.071L693.821 295.02L698.803 296.052L702.021 278.17Z" fill="white"/>
<path d="M690.282 275.736C690.537 274.323 689.707 272.958 688.429 272.693L688.011 272.606C687.451 272.491 686.874 272.606 686.386 272.936C685.822 273.317 685.441 273.922 685.313 274.638L682.083 292.586L687.064 293.619L690.282 275.736Z" fill="white"/>
<path d="M678.544 273.306C678.799 271.893 677.969 270.528 676.691 270.263L676.273 270.176C675.713 270.059 675.136 270.176 674.648 270.506C674.084 270.888 673.703 271.492 673.574 272.208L670.345 290.156L675.326 291.189L678.544 273.306Z" fill="white"/>
<path d="M724.285 322.953C724.67 320.822 723.399 318.759 721.454 318.359L719.397 317.931C718.528 317.752 717.634 317.931 716.879 318.442C716.024 319.02 715.446 319.933 715.25 321.015L711.099 344.079H720.482L724.283 322.955L724.285 322.953Z" fill="white"/>
<path d="M688.013 315.439C688.398 313.308 687.127 311.247 685.182 310.845L683.125 310.417C682.256 310.238 681.361 310.417 680.607 310.928C679.752 311.506 679.172 312.42 678.978 313.501L673.473 344.078H682.857L688.011 315.439H688.013Z" fill="white"/>
<path d="M725.497 283.033C725.751 281.619 724.921 280.254 723.644 279.99L723.226 279.902C722.666 279.786 722.088 279.902 721.6 280.233C721.036 280.614 720.655 281.219 720.527 281.934L717.297 299.883L722.279 300.915L725.497 283.033Z" fill="white"/>
<path d="M706.15 319.196C706.534 317.065 705.264 315.002 703.319 314.602L701.262 314.174C700.393 313.995 699.499 314.174 698.744 314.685C697.889 315.263 697.309 316.177 697.115 317.258L692.287 344.078H701.671L706.149 319.196H706.15Z" fill="white"/>
<path d="M669.878 311.681C670.263 309.55 668.992 307.489 667.047 307.087L664.99 306.659C664.121 306.48 663.227 306.661 662.472 307.17C661.617 307.748 661.039 308.662 660.843 309.743L654.664 344.078H664.047L669.878 311.683V311.681Z" fill="white"/>
<path d="M750.776 142.588C751.031 141.174 750.201 139.809 748.923 139.545L748.505 139.457C747.945 139.34 747.368 139.457 746.88 139.788C746.316 140.169 745.935 140.773 745.806 141.489L742.577 159.438L747.558 160.47L750.776 142.588Z" fill="white"/>
<path d="M708.673 92.9683L708.255 92.8808C707.02 92.6261 705.758 92.8789 704.702 93.5925C703.586 94.3469 702.803 95.5679 702.556 96.9407L699.106 116.101C698.986 116.775 699.423 117.423 700.094 117.563L707.551 119.108C707.636 119.126 707.722 119.134 707.807 119.134C708.058 119.134 708.305 119.06 708.515 118.918C708.797 118.727 708.992 118.43 709.052 118.095L712.501 98.9356C712.997 96.1862 711.28 93.5088 708.675 92.9703L708.673 92.9683ZM710.012 98.4864L706.794 116.369L701.813 115.336L705.043 97.3879C705.171 96.6704 705.552 96.0676 706.116 95.6865C706.604 95.3579 707.181 95.2393 707.741 95.356L708.159 95.4435C709.435 95.7079 710.265 97.0729 710.012 98.4864Z" fill="#18292D"/>
<path d="M720.41 95.4L719.992 95.3125C718.757 95.0577 717.497 95.3105 716.44 96.0241C715.324 96.7785 714.54 97.9996 714.293 99.3723L710.844 118.532C710.723 119.207 711.161 119.854 711.831 119.994L719.288 121.54C719.374 121.558 719.459 121.565 719.545 121.565C719.796 121.565 720.043 121.491 720.253 121.35C720.534 121.159 720.729 120.861 720.789 120.527L724.238 101.367C724.734 98.6179 723.017 95.9405 720.412 95.4019L720.41 95.4ZM721.75 100.918L718.532 118.8L713.55 117.768L716.78 99.8195C716.908 99.102 717.289 98.4973 717.853 98.1182C718.341 97.7876 718.919 97.671 719.479 97.7876L719.897 97.8751C721.172 98.1396 722.002 99.5045 721.75 100.918Z" fill="#18292D"/>
<path d="M732.147 97.8316L731.729 97.7441C730.494 97.4894 729.232 97.7422 728.176 98.4557C727.06 99.2102 726.277 100.431 726.03 101.804L722.581 120.964C722.46 121.638 722.897 122.286 723.568 122.426L731.025 123.972C731.11 123.989 731.196 123.997 731.282 123.997C731.532 123.997 731.779 123.923 731.989 123.781C732.271 123.591 732.466 123.293 732.526 122.959L735.975 103.799C736.471 101.05 734.754 98.3721 732.149 97.8335L732.147 97.8316ZM733.486 103.35L730.269 121.232L725.287 120.2L728.517 102.251C728.645 101.534 729.026 100.931 729.59 100.55C730.078 100.221 730.655 100.103 731.215 100.219L731.634 100.307C732.909 100.571 733.739 101.936 733.486 103.35Z" fill="#18292D"/>
<path d="M743.885 100.262L743.467 100.174C742.232 99.9194 740.972 100.17 739.915 100.886C738.799 101.64 738.015 102.861 737.768 104.234L734.319 123.394C734.198 124.068 734.636 124.716 735.307 124.856L742.763 126.402C742.849 126.419 742.934 126.427 743.02 126.427C743.271 126.427 743.518 126.353 743.728 126.211C744.01 126.021 744.204 125.723 744.264 125.389L747.714 106.229C748.209 103.479 746.493 100.802 743.887 100.264L743.885 100.262ZM745.225 105.78L742.007 123.662L737.025 122.63L740.255 104.681C740.383 103.964 740.764 103.359 741.328 102.98C741.816 102.649 742.394 102.533 742.954 102.649L743.372 102.737C744.647 103.001 745.478 104.366 745.225 105.78Z" fill="#18292D"/>
<path d="M755.623 102.696L755.205 102.608C753.97 102.354 752.71 102.606 751.652 103.32C750.536 104.074 749.753 105.295 749.506 106.668L746.057 125.828C745.936 126.503 746.374 127.15 747.044 127.29L754.501 128.836C754.587 128.853 754.672 128.861 754.758 128.861C755.008 128.861 755.255 128.787 755.465 128.645C755.747 128.455 755.942 128.157 756.002 127.823L759.451 108.663C759.947 105.914 758.23 103.236 755.623 102.698V102.696ZM756.963 108.214L753.745 126.096L748.763 125.064L751.993 107.115C752.121 106.398 752.502 105.795 753.066 105.414C753.554 105.085 754.132 104.967 754.692 105.084L755.11 105.171C756.385 105.435 757.215 106.8 756.963 108.214Z" fill="#18292D"/>
<path d="M693.905 151.936L701.362 153.481C701.447 153.499 701.533 153.507 701.618 153.507C701.869 153.507 702.116 153.433 702.326 153.291C702.608 153.1 702.803 152.803 702.863 152.468L706.312 133.309C706.808 130.559 705.091 127.882 702.486 127.343L702.068 127.256C700.833 127.001 699.573 127.254 698.515 127.967C697.399 128.722 696.616 129.943 696.369 131.316L692.919 150.475C692.799 151.15 693.236 151.798 693.907 151.938L693.905 151.936ZM698.854 131.763C698.982 131.045 699.363 130.443 699.927 130.062C700.415 129.733 700.992 129.614 701.552 129.731L701.97 129.818C703.246 130.083 704.076 131.448 703.823 132.861L700.605 150.744L695.624 149.711L698.854 131.763Z" fill="#18292D"/>
<path d="M705.643 154.367L713.1 155.913C713.185 155.931 713.271 155.938 713.356 155.938C713.607 155.938 713.854 155.865 714.064 155.723C714.346 155.532 714.54 155.235 714.601 154.9L718.05 135.74C718.546 132.991 716.829 130.314 714.223 129.775L713.805 129.687C712.571 129.433 711.311 129.686 710.253 130.399C709.137 131.154 708.353 132.375 708.106 133.747L704.657 152.907C704.537 153.582 704.974 154.229 705.645 154.369L705.643 154.367ZM710.591 134.195C710.72 133.477 711.101 132.874 711.665 132.493C712.153 132.163 712.73 132.046 713.29 132.163L713.708 132.25C714.984 132.515 715.814 133.88 715.561 135.293L712.343 153.175L707.362 152.143L710.591 134.195Z" fill="#18292D"/>
<path d="M717.381 156.798L724.837 158.344C724.923 158.361 725.009 158.369 725.094 158.369C725.345 158.369 725.592 158.295 725.802 158.153C726.084 157.963 726.278 157.665 726.338 157.331L729.788 138.171C730.284 135.422 728.567 132.744 725.959 132.206L725.541 132.118C724.307 131.863 723.047 132.116 721.989 132.83C720.873 133.584 720.089 134.805 719.842 136.178L716.393 155.338C716.272 156.013 716.71 156.66 717.381 156.8V156.798ZM722.329 136.625C722.458 135.908 722.839 135.303 723.402 134.924C723.891 134.595 724.468 134.477 725.028 134.593L725.446 134.681C726.722 134.945 727.552 136.31 727.299 137.724L724.081 155.606L719.1 154.574L722.329 136.627V136.625Z" fill="#18292D"/>
<path d="M729.12 159.231L736.576 160.776C736.662 160.794 736.747 160.802 736.833 160.802C737.084 160.802 737.331 160.728 737.541 160.586C737.823 160.395 738.017 160.098 738.077 159.763L741.527 140.604C742.022 137.854 740.306 135.177 737.7 134.638L737.282 134.551C736.047 134.296 734.787 134.549 733.73 135.262C732.614 136.017 731.83 137.238 731.583 138.611L728.134 157.77C728.013 158.445 728.451 159.093 729.121 159.233L729.12 159.231ZM734.068 139.058C734.196 138.34 734.577 137.738 735.141 137.356C735.629 137.028 736.207 136.909 736.767 137.026L737.185 137.113C738.46 137.378 739.292 138.743 739.038 140.156L735.82 158.039L730.838 157.006L734.068 139.058Z" fill="#18292D"/>
<path d="M740.857 161.663L748.314 163.209C748.4 163.227 748.485 163.234 748.571 163.234C748.821 163.234 749.068 163.16 749.278 163.018C749.56 162.828 749.755 162.53 749.815 162.196L753.264 143.036C753.76 140.287 752.043 137.609 749.438 137.071L749.02 136.983C747.785 136.729 746.523 136.981 745.467 137.695C744.351 138.449 743.568 139.67 743.321 141.043L739.872 160.203C739.751 160.878 740.188 161.525 740.859 161.665L740.857 161.663ZM745.806 141.49C745.934 140.773 746.315 140.168 746.879 139.789C747.367 139.46 747.943 139.342 748.505 139.459L748.923 139.546C750.198 139.81 751.028 141.175 750.776 142.589L747.558 160.471L742.576 159.439L745.806 141.49Z" fill="#18292D"/>
<path d="M687.586 187.047L695.043 188.593C695.128 188.611 695.214 188.618 695.299 188.618C695.55 188.618 695.797 188.544 696.007 188.403C696.289 188.212 696.483 187.915 696.544 187.58L699.993 168.42C700.489 165.671 698.772 162.994 696.166 162.455L695.748 162.367C694.516 162.113 693.254 162.364 692.196 163.079C691.08 163.833 690.296 165.055 690.049 166.427L686.6 185.587C686.479 186.262 686.917 186.909 687.588 187.049L687.586 187.047ZM692.534 166.874C692.663 166.157 693.044 165.552 693.608 165.173C694.096 164.845 694.673 164.726 695.233 164.843L695.651 164.93C696.927 165.195 697.757 166.559 697.504 167.973L694.286 185.855L689.305 184.823L692.534 166.874Z" fill="#18292D"/>
<path d="M699.324 189.48L706.78 191.025C706.866 191.043 706.951 191.051 707.037 191.051C707.288 191.051 707.535 190.977 707.745 190.835C708.027 190.644 708.221 190.347 708.281 190.012L711.731 170.853C712.226 168.103 710.51 165.426 707.902 164.887L707.484 164.8C706.249 164.545 704.988 164.798 703.932 165.511C702.816 166.266 702.032 167.487 701.785 168.86L698.336 188.019C698.215 188.694 698.653 189.342 699.324 189.482V189.48ZM704.272 169.307C704.4 168.589 704.781 167.987 705.345 167.605C705.833 167.277 706.411 167.158 706.971 167.275L707.389 167.362C708.664 167.627 709.495 168.992 709.242 170.405L706.024 188.288L701.042 187.255L704.272 169.307Z" fill="#18292D"/>
<path d="M711.062 191.91L718.519 193.456C718.604 193.474 718.69 193.481 718.775 193.481C719.026 193.481 719.273 193.408 719.483 193.266C719.765 193.075 719.959 192.778 720.02 192.443L723.469 173.283C723.965 170.534 722.248 167.857 719.642 167.318L719.224 167.23C717.99 166.976 716.728 167.228 715.672 167.942C714.556 168.696 713.772 169.918 713.525 171.29L710.076 190.45C709.956 191.125 710.393 191.772 711.064 191.912L711.062 191.91ZM716.01 171.737C716.139 171.02 716.52 170.417 717.084 170.036C717.572 169.708 718.149 169.589 718.709 169.706L719.127 169.793C720.403 170.058 721.233 171.422 720.98 172.836L717.762 190.718L712.781 189.686L716.01 171.737Z" fill="#18292D"/>
<path d="M722.8 194.343L730.257 195.889C730.342 195.906 730.428 195.914 730.514 195.914C730.764 195.914 731.011 195.84 731.221 195.698C731.503 195.508 731.698 195.21 731.758 194.876L735.207 175.716C735.703 172.967 733.986 170.289 731.381 169.751L730.963 169.663C729.728 169.408 728.468 169.661 727.41 170.375C726.294 171.129 725.511 172.35 725.264 173.723L721.814 192.883C721.694 193.557 722.131 194.205 722.802 194.345L722.8 194.343ZM727.749 174.17C727.877 173.453 728.258 172.848 728.822 172.469C729.31 172.138 729.887 172.022 730.447 172.138L730.865 172.226C732.141 172.49 732.971 173.855 732.718 175.269L729.501 193.151L724.519 192.119L727.749 174.17Z" fill="#18292D"/>
<path d="M734.538 196.776L741.995 198.321C742.081 198.339 742.166 198.347 742.252 198.347C742.503 198.347 742.75 198.273 742.96 198.131C743.241 197.94 743.436 197.643 743.496 197.308L746.946 178.148C747.441 175.399 745.724 172.722 743.119 172.183L742.701 172.096C741.468 171.841 740.206 172.094 739.149 172.807C738.033 173.562 737.249 174.783 737.002 176.156L733.553 195.315C733.432 195.99 733.87 196.638 734.54 196.778L734.538 196.776ZM739.487 176.603C739.615 175.885 739.996 175.282 740.56 174.901C741.048 174.573 741.626 174.454 742.186 174.571L742.604 174.658C743.879 174.923 744.709 176.288 744.457 177.701L741.239 195.584L736.257 194.551L739.487 176.603Z" fill="#18292D"/>
<path d="M681.267 222.158L688.723 223.704C688.809 223.722 688.894 223.729 688.98 223.729C689.231 223.729 689.478 223.656 689.688 223.514C689.97 223.323 690.164 223.026 690.224 222.691L693.674 203.531C694.169 200.782 692.452 198.105 689.847 197.566L689.429 197.478C688.194 197.224 686.932 197.477 685.877 198.19C684.761 198.945 683.977 200.166 683.73 201.538L680.281 220.698C680.16 221.373 680.598 222.02 681.268 222.16L681.267 222.158ZM686.215 201.986C686.343 201.268 686.724 200.665 687.288 200.284C687.776 199.954 688.354 199.837 688.914 199.954L689.332 200.041C690.607 200.306 691.438 201.671 691.185 203.084L687.967 220.966L682.985 219.934L686.215 201.986Z" fill="#18292D"/>
<path d="M693.005 224.589L700.461 226.135C700.547 226.152 700.633 226.16 700.718 226.16C700.969 226.16 701.216 226.086 701.426 225.944C701.708 225.754 701.902 225.456 701.963 225.122L705.412 205.962C705.908 203.213 704.191 200.535 701.585 199.997L701.167 199.909C699.933 199.654 698.671 199.907 697.615 200.621C696.499 201.375 695.715 202.596 695.468 203.969L692.019 223.129C691.898 223.804 692.336 224.451 693.007 224.591L693.005 224.589ZM697.953 204.416C698.082 203.699 698.463 203.094 699.027 202.715C699.515 202.386 700.092 202.268 700.652 202.384L701.07 202.472C702.346 202.736 703.176 204.101 702.923 205.515L699.705 223.397L694.724 222.365L697.953 204.416Z" fill="#18292D"/>
<path d="M704.743 227.023L712.2 228.568C712.285 228.586 712.371 228.594 712.456 228.594C712.707 228.594 712.954 228.52 713.164 228.378C713.446 228.187 713.641 227.89 713.701 227.555L717.15 208.396C717.646 205.646 715.929 202.969 713.324 202.43L712.906 202.343C711.671 202.088 710.411 202.341 709.353 203.054C708.237 203.809 707.454 205.03 707.207 206.403L703.757 225.562C703.637 226.237 704.074 226.885 704.745 227.025L704.743 227.023ZM709.691 206.85C709.82 206.132 710.201 205.528 710.765 205.148C711.253 204.82 711.828 204.701 712.39 204.818L712.808 204.905C714.084 205.17 714.914 206.535 714.661 207.948L711.443 225.831L706.462 224.798L709.691 206.85Z" fill="#18292D"/>
<path d="M716.481 229.454L723.938 231C724.023 231.018 724.109 231.025 724.194 231.025C724.445 231.025 724.692 230.951 724.902 230.81C725.184 230.619 725.378 230.321 725.439 229.987L728.888 210.827C729.384 208.078 727.667 205.4 725.061 204.862L724.643 204.774C723.409 204.52 722.147 204.772 721.091 205.486C719.975 206.24 719.191 207.461 718.944 208.834L715.495 227.994C715.375 228.669 715.812 229.316 716.483 229.456L716.481 229.454ZM721.429 209.281C721.558 208.564 721.939 207.961 722.503 207.58C722.991 207.251 723.568 207.133 724.128 207.25L724.546 207.337C725.822 207.601 726.654 208.966 726.399 210.38L723.181 228.262L718.2 227.23L721.429 209.281Z" fill="#18292D"/>
<path d="M728.217 231.884L735.673 233.43C735.759 233.448 735.844 233.455 735.93 233.455C736.181 233.455 736.428 233.381 736.638 233.239C736.92 233.049 737.114 232.751 737.174 232.417L740.624 213.257C741.12 210.508 739.403 207.83 736.797 207.292L736.379 207.204C735.144 206.95 733.885 207.2 732.827 207.916C731.711 208.67 730.927 209.891 730.68 211.264L727.231 230.424C727.11 231.099 727.548 231.746 728.219 231.886L728.217 231.884ZM733.165 211.711C733.293 210.994 733.675 210.389 734.238 210.01C734.726 209.68 735.304 209.563 735.864 209.68L736.282 209.767C737.557 210.031 738.388 211.396 738.135 212.81L734.917 230.692L729.936 229.66L733.165 211.711Z" fill="#18292D"/>
<path d="M674.946 257.271L682.402 258.816C682.488 258.834 682.573 258.842 682.659 258.842C682.91 258.842 683.157 258.768 683.367 258.626C683.649 258.435 683.843 258.138 683.903 257.803L687.353 238.644C687.849 235.894 686.132 233.217 683.526 232.678L683.108 232.591C681.875 232.336 680.614 232.589 679.556 233.302C678.44 234.057 677.656 235.278 677.409 236.651L673.96 255.81C673.839 256.485 674.277 257.133 674.948 257.273L674.946 257.271ZM679.894 237.098C680.022 236.38 680.404 235.778 680.967 235.397C681.455 235.068 682.033 234.949 682.593 235.066L683.011 235.153C684.286 235.418 685.117 236.783 684.864 238.196L681.646 256.079L676.665 255.046L679.894 237.098Z" fill="#18292D"/>
<path d="M686.683 259.701L694.14 261.247C694.225 261.265 694.311 261.272 694.396 261.272C694.647 261.272 694.894 261.199 695.104 261.057C695.386 260.866 695.58 260.569 695.641 260.234L699.09 241.074C699.586 238.325 697.869 235.648 695.264 235.109L694.845 235.021C693.611 234.767 692.351 235.019 691.293 235.733C690.177 236.487 689.393 237.709 689.147 239.081L685.697 258.241C685.577 258.916 686.014 259.563 686.685 259.703L686.683 259.701ZM691.631 239.529C691.76 238.811 692.141 238.206 692.705 237.827C693.193 237.499 693.77 237.38 694.33 237.497L694.748 237.584C696.024 237.849 696.854 239.213 696.601 240.627L693.383 258.509L688.402 257.477L691.631 239.529Z" fill="#18292D"/>
<path d="M698.422 262.133L705.878 263.679C705.964 263.696 706.05 263.704 706.135 263.704C706.386 263.704 706.633 263.63 706.843 263.488C707.125 263.298 707.319 263 707.379 262.666L710.829 243.506C711.325 240.757 709.608 238.079 707.002 237.541L706.584 237.453C705.35 237.198 704.09 237.451 703.032 238.165C701.916 238.919 701.132 240.14 700.885 241.513L697.436 260.673C697.315 261.347 697.753 261.995 698.424 262.135L698.422 262.133ZM703.37 241.96C703.499 241.243 703.88 240.64 704.443 240.259C704.932 239.93 705.509 239.812 706.069 239.928L706.487 240.016C707.763 240.28 708.593 241.645 708.34 243.059L705.122 260.941L700.141 259.909L703.37 241.96Z" fill="#18292D"/>
<path d="M710.16 264.566L717.616 266.111C717.702 266.129 717.787 266.137 717.873 266.137C718.124 266.137 718.371 266.063 718.581 265.921C718.863 265.73 719.057 265.433 719.117 265.098L722.567 245.939C723.062 243.189 721.346 240.512 718.74 239.973L718.322 239.886C717.087 239.631 715.825 239.884 714.77 240.597C713.654 241.352 712.87 242.573 712.623 243.946L709.174 263.105C709.053 263.78 709.491 264.428 710.162 264.568L710.16 264.566ZM715.108 244.393C715.236 243.675 715.617 243.071 716.181 242.691C716.669 242.363 717.247 242.244 717.807 242.361L718.225 242.448C719.5 242.713 720.331 244.078 720.078 245.491L716.86 263.374L711.878 262.341L715.108 244.393Z" fill="#18292D"/>
<path d="M721.898 266.996L729.355 268.542C729.44 268.56 729.526 268.567 729.611 268.567C729.862 268.567 730.109 268.493 730.319 268.352C730.601 268.161 730.795 267.863 730.856 267.529L734.305 248.369C734.801 245.62 733.084 242.942 730.476 242.404L730.058 242.316C728.826 242.062 727.564 242.314 726.506 243.028C725.39 243.782 724.606 245.003 724.359 246.376L720.91 265.536C720.79 266.211 721.227 266.858 721.898 266.998V266.996ZM726.846 246.823C726.975 246.106 727.356 245.503 727.92 245.122C728.408 244.793 728.983 244.675 729.545 244.792L729.963 244.879C731.239 245.143 732.069 246.508 731.816 247.922L728.598 265.804L723.617 264.772L726.846 246.823Z" fill="#18292D"/>
<path d="M668.626 292.383L676.083 293.927C676.169 293.944 676.254 293.952 676.34 293.952C676.591 293.952 676.837 293.878 677.047 293.736C677.329 293.546 677.524 293.248 677.584 292.914L681.033 273.754C681.529 271.005 679.812 268.327 677.207 267.789L676.789 267.701C675.554 267.446 674.294 267.699 673.236 268.413C672.12 269.167 671.337 270.388 671.09 271.761L667.641 290.921C667.52 291.596 667.958 292.243 668.628 292.383H668.626ZM673.575 272.21C673.703 271.493 674.084 270.888 674.648 270.509C675.136 270.178 675.714 270.062 676.274 270.178L676.692 270.266C677.967 270.53 678.797 271.895 678.545 273.309L675.327 291.191L670.345 290.159L673.575 272.21Z" fill="#18292D"/>
<path d="M680.364 294.813L687.821 296.358C687.906 296.376 687.992 296.384 688.077 296.384C688.328 296.384 688.575 296.31 688.785 296.168C689.067 295.977 689.262 295.68 689.322 295.345L692.771 276.186C693.267 273.436 691.55 270.759 688.945 270.22L688.527 270.133C687.292 269.878 686.03 270.131 684.974 270.844C683.858 271.599 683.075 272.82 682.828 274.193L679.378 293.352C679.258 294.027 679.695 294.675 680.366 294.815L680.364 294.813ZM685.313 274.64C685.441 273.922 685.822 273.32 686.386 272.939C686.874 272.61 687.451 272.491 688.011 272.608L688.429 272.695C689.705 272.96 690.537 274.325 690.282 275.738L687.064 293.621L682.083 292.588L685.313 274.64Z" fill="#18292D"/>
<path d="M692.103 297.245L699.56 298.791C699.645 298.809 699.731 298.816 699.816 298.816C700.067 298.816 700.314 298.742 700.524 298.601C700.806 298.41 701 298.112 701.061 297.778L704.51 278.618C705.006 275.869 703.289 273.191 700.683 272.653L700.265 272.565C699.031 272.311 697.771 272.563 696.713 273.277C695.597 274.031 694.813 275.253 694.566 276.625L691.117 295.785C690.997 296.46 691.434 297.107 692.105 297.247L692.103 297.245ZM697.051 277.072C697.18 276.355 697.561 275.75 698.125 275.371C698.613 275.043 699.19 274.924 699.75 275.041L700.168 275.128C701.444 275.393 702.274 276.757 702.021 278.171L698.803 296.053L693.822 295.021L697.051 277.072Z" fill="#18292D"/>
<path d="M703.841 299.675L711.298 301.221C711.383 301.238 711.469 301.246 711.555 301.246C711.805 301.246 712.052 301.172 712.262 301.03C712.544 300.84 712.739 300.542 712.799 300.208L716.248 281.048C716.744 278.299 715.027 275.621 712.422 275.083L712.004 274.995C710.769 274.74 709.507 274.993 708.451 275.707C707.335 276.461 706.552 277.682 706.305 279.055L702.855 298.215C702.735 298.889 703.172 299.537 703.843 299.677L703.841 299.675ZM708.79 279.502C708.918 278.785 709.299 278.182 709.863 277.801C710.351 277.472 710.928 277.354 711.488 277.47L711.906 277.558C713.182 277.822 714.012 279.187 713.759 280.601L710.542 298.483L705.56 297.451L708.79 279.502Z" fill="#18292D"/>
<path d="M715.579 302.107L723.035 303.653C723.121 303.671 723.206 303.679 723.292 303.679C723.543 303.679 723.79 303.605 724 303.463C724.282 303.272 724.476 302.975 724.536 302.64L727.986 283.48C728.481 280.731 726.764 278.054 724.159 277.515L723.741 277.428C722.506 277.171 721.246 277.426 720.189 278.139C719.073 278.894 718.289 280.115 718.042 281.487L714.593 300.647C714.472 301.322 714.91 301.969 715.58 302.109L715.579 302.107ZM720.527 281.935C720.655 281.217 721.036 280.614 721.6 280.233C722.088 279.905 722.666 279.786 723.226 279.903L723.644 279.99C724.919 280.255 725.75 281.62 725.497 283.033L722.279 300.916L717.297 299.883L720.527 281.935Z" fill="#18292D"/>
<path d="M775.992 54.6163L705.571 40.0257C705.239 39.9577 704.891 40.0257 704.607 40.2163C704.325 40.4068 704.13 40.7043 704.07 41.0388L703.039 46.7669C702.919 47.4416 703.356 48.089 704.027 48.229L707.146 48.8746L700.885 83.6574L692.968 82.0164C692.633 81.9483 692.285 82.0164 692.003 82.2069C691.721 82.3975 691.527 82.695 691.467 83.0294L644.479 344.077H623.264C622.566 344.077 622 344.643 622 345.341V359.185C622 359.883 622.566 360.448 623.264 360.448H748.948C749.646 360.448 750.212 359.883 750.212 359.185V345.341C750.212 344.643 749.646 344.077 748.948 344.077H730.667L774.569 100.181C774.69 99.506 774.252 98.8585 773.581 98.7185L765.598 97.0639L771.859 62.281L774.448 62.8177C774.534 62.8352 774.62 62.8429 774.705 62.8429C774.956 62.8429 775.203 62.7691 775.413 62.6271C775.695 62.4366 775.889 62.1391 775.95 61.8046L776.98 56.0765C777.101 55.4018 776.663 54.7544 775.992 54.6144V54.6163ZM747.684 346.607V357.923H624.528V346.607H645.564C645.564 346.607 645.568 346.607 645.57 346.607H729.158C729.158 346.607 729.158 346.607 729.16 346.607C729.162 346.607 729.16 346.607 729.162 346.607H747.686H747.684ZM654.664 344.079L660.843 309.743C661.037 308.662 661.617 307.75 662.472 307.171C663.227 306.661 664.121 306.479 664.99 306.659L667.047 307.087C668.992 307.49 670.263 309.551 669.878 311.682L664.047 344.077H654.664V344.079ZM673.475 344.079L678.98 313.502C679.174 312.421 679.754 311.509 680.609 310.929C681.364 310.42 682.258 310.237 683.127 310.418L685.184 310.846C687.129 311.248 688.4 313.309 688.015 315.44L682.861 344.079H673.477H673.475ZM692.289 344.079L697.117 317.258C697.311 316.177 697.891 315.265 698.746 314.686C699.501 314.176 700.395 313.994 701.264 314.174L703.321 314.602C705.266 315.005 706.537 317.066 706.152 319.197L701.675 344.079H692.291H692.289ZM711.103 344.079L715.254 321.015C715.448 319.934 716.028 319.022 716.883 318.442C717.638 317.933 718.532 317.752 719.401 317.931L721.459 318.359C723.403 318.761 724.674 320.822 724.29 322.953L720.488 344.077H711.105L711.103 344.079ZM728.102 344.079H723.055L726.776 323.402C727.401 319.934 725.244 316.562 721.97 315.883L719.913 315.456C718.371 315.137 716.79 315.454 715.466 316.348C714.062 317.297 713.076 318.835 712.765 320.566L708.534 344.077H704.241L708.639 319.644C709.263 316.175 707.107 312.802 703.833 312.125L701.776 311.697C700.232 311.378 698.653 311.695 697.329 312.59C695.925 313.539 694.939 315.077 694.628 316.807L689.721 344.075H685.429L690.502 315.883C691.126 312.415 688.97 309.043 685.696 308.365L683.639 307.937C682.097 307.618 680.516 307.935 679.192 308.829C677.788 309.778 676.802 311.316 676.491 313.049L670.907 344.075H666.616L672.365 312.127C672.989 308.658 670.833 305.287 667.559 304.608L665.501 304.18C663.958 303.861 662.379 304.178 661.055 305.073C659.651 306.022 658.665 307.56 658.354 309.29L652.095 344.073H647.047L655.698 296.014L733.836 312.201L728.1 344.073L728.102 344.079ZM734.287 309.718L656.149 293.531L662.021 260.908L740.159 277.095L734.287 309.718ZM740.607 274.606L662.468 258.42L668.34 225.797L746.479 241.984L740.607 274.606ZM746.926 239.495L668.787 223.308L674.659 190.685L752.798 206.872L746.926 239.495ZM753.245 204.383L675.107 188.197L680.979 155.574L759.117 171.761L753.245 204.383ZM759.564 169.272L681.426 153.085L687.298 120.462L765.436 136.649L759.564 169.272ZM771.862 100.945L765.884 134.161L687.745 117.974L693.724 84.756L701.638 86.3951C701.638 86.3951 701.64 86.3951 701.641 86.3951L723.053 90.8302L731.427 92.5646L763.877 99.2863L771.859 100.941L771.862 100.945ZM724.774 88.6078L726.673 78.0596C727.058 75.9188 728.258 74.0309 729.965 72.8759C731.519 71.8259 733.362 71.4526 735.159 71.8259L736.154 72.032C740.105 72.8506 742.691 77.0019 741.921 81.2853L740.033 91.7694L724.772 88.6078H724.774ZM763.122 96.5525L757.272 95.3412L742.512 92.2827L744.412 81.7345C745.423 76.1152 741.95 70.6515 736.669 69.5588L735.674 69.3527C733.204 68.8413 730.675 69.3488 728.552 70.7838C726.282 72.3159 724.692 74.8067 724.186 77.6124L722.3 88.0964L703.362 84.1727L709.623 49.3898L769.385 61.7696L763.124 96.5525H763.122ZM773.692 60.08L771.102 59.5433L708.863 46.6502H708.859L705.746 46.0047L706.329 42.7654L774.275 56.8407L773.692 60.08Z" fill="#18292D"/>
<defs>
<clipPath id="clip0_711_9685">
<rect width="66.1464" height="49.96" fill="white" transform="translate(208 119)"/>
</clipPath>
</defs>
</svg>
