<svg width="65" height="65" viewBox="0 0 65 65" fill="none" xmlns="http://www.w3.org/2000/svg">
<path d="M38.1426 13.5151L40.6365 15.957C40.8239 16.1392 40.8291 16.4464 40.6417 16.6338L38.1998 19.1277" stroke="#18292D" stroke-width="1.2" stroke-linecap="round" stroke-linejoin="round"/>
<path d="M25.1733 16.3164H40.7771" stroke="#18292D" stroke-width="1.2" stroke-linecap="round" stroke-linejoin="round"/>
<path d="M27.8129 29.5874L25.319 32.0292C25.1316 32.2115 25.1263 32.5186 25.3138 32.7061L27.7556 35.2" stroke="#18292D" stroke-width="1.2" stroke-linecap="round" stroke-linejoin="round"/>
<path d="M40.7771 32.3936H25.1733" stroke="#18292D" stroke-width="1.2" stroke-linecap="round" stroke-linejoin="round"/>
<path d="M38.1426 45.5713L40.6365 48.0131C40.8239 48.1953 40.8291 48.5025 40.6417 48.69L38.1998 51.1838" stroke="#18292D" stroke-width="1.2" stroke-linecap="round" stroke-linejoin="round"/>
<path d="M25.1733 48.3721H40.7771" stroke="#18292D" stroke-width="1.2" stroke-linecap="round" stroke-linejoin="round"/>
<path d="M17.2651 22.0482C20.3619 22.0482 22.8724 19.5377 22.8724 16.4408C22.8724 13.344 20.3619 10.8335 17.2651 10.8335C14.1682 10.8335 11.6577 13.344 11.6577 16.4408C11.6577 19.5377 14.1682 22.0482 17.2651 22.0482Z" stroke="#18292D" stroke-width="1.2" stroke-linecap="round" stroke-linejoin="round"/>
<path d="M14.9116 18.6849L17.1764 13.3066" stroke="#18292D" stroke-width="1.2" stroke-linecap="round" stroke-linejoin="round"/>
<path d="M17.1768 13.3066L19.6134 18.6849" stroke="#18292D" stroke-width="1.2" stroke-linecap="round" stroke-linejoin="round"/>
<path d="M15.7134 16.79H18.7539" stroke="#18292D" stroke-width="1.2" stroke-linecap="round" stroke-linejoin="round"/>
<path d="M17.2651 53.9798C20.3619 53.9798 22.8724 51.4693 22.8724 48.3725C22.8724 45.2756 20.3619 42.7651 17.2651 42.7651C14.1682 42.7651 11.6577 45.2756 11.6577 48.3725C11.6577 51.4693 14.1682 53.9798 17.2651 53.9798Z" stroke="#18292D" stroke-width="1.2" stroke-linecap="round" stroke-linejoin="round"/>
<path d="M14.9116 50.5121L17.1764 45.1338" stroke="#18292D" stroke-width="1.2" stroke-linecap="round" stroke-linejoin="round"/>
<path d="M17.1768 45.1338L19.6134 50.5121" stroke="#18292D" stroke-width="1.2" stroke-linecap="round" stroke-linejoin="round"/>
<path d="M15.7134 48.6172H18.7539" stroke="#18292D" stroke-width="1.2" stroke-linecap="round" stroke-linejoin="round"/>
<path d="M48.6595 21.7097C51.6385 21.7097 54.0534 19.2947 54.0534 16.3158C54.0534 13.3368 51.6385 10.9219 48.6595 10.9219C45.6806 10.9219 43.2656 13.3368 43.2656 16.3158C43.2656 19.2947 45.6806 21.7097 48.6595 21.7097Z" stroke="#18292D" stroke-width="1.2" stroke-linecap="round" stroke-linejoin="round"/>
<path d="M49.4095 18.8407H47.2124V13.6187H49.2533" stroke="#18292D" stroke-width="1.2" stroke-linecap="round" stroke-linejoin="round"/>
<path d="M47.2124 16.2271H49.3366" stroke="#18292D" stroke-width="1.2" stroke-linecap="round" stroke-linejoin="round"/>
<path d="M49.2271 13.6187C49.9455 13.6187 50.5339 14.2018 50.5339 14.9255C50.5339 15.6492 49.9507 16.2323 49.2271 16.2323" stroke="#18292D" stroke-width="1.2" stroke-linecap="round" stroke-linejoin="round"/>
<path d="M49.4097 16.2271C50.1282 16.2271 50.7165 16.8102 50.7165 17.5339C50.7165 18.2576 50.1334 18.8407 49.4097 18.8407" stroke="#18292D" stroke-width="1.2" stroke-linecap="round" stroke-linejoin="round"/>
<path d="M48.6595 37.7873C51.6385 37.7873 54.0534 35.3724 54.0534 32.3934C54.0534 29.4144 51.6385 26.9995 48.6595 26.9995C45.6806 26.9995 43.2656 29.4144 43.2656 32.3934C43.2656 35.3724 45.6806 37.7873 48.6595 37.7873Z" stroke="#18292D" stroke-width="1.2" stroke-linecap="round" stroke-linejoin="round"/>
<path d="M49.4095 34.9913H47.2124V29.7744H49.2273" stroke="#18292D" stroke-width="1.2" stroke-linecap="round" stroke-linejoin="round"/>
<path d="M47.2124 32.3779H49.3366" stroke="#18292D" stroke-width="1.2" stroke-linecap="round" stroke-linejoin="round"/>
<path d="M49.2271 29.7744C49.9455 29.7744 50.5339 30.3575 50.5339 31.0812C50.5339 31.8049 49.9507 32.3881 49.2271 32.3881" stroke="#18292D" stroke-width="1.2" stroke-linecap="round" stroke-linejoin="round"/>
<path d="M49.4097 32.3828C50.1282 32.3828 50.7165 32.9659 50.7165 33.6896C50.7165 34.4133 50.1334 34.9965 49.4097 34.9965" stroke="#18292D" stroke-width="1.2" stroke-linecap="round" stroke-linejoin="round"/>
<path d="M22.8018 33.281C23.298 30.2242 21.2221 27.3439 18.1653 26.8477C15.1084 26.3515 12.2281 28.4273 11.7319 31.4841C11.2357 34.541 13.3116 37.4213 16.3684 37.9175C19.4252 38.4137 22.3056 36.3379 22.8018 33.281Z" stroke="#18292D" stroke-width="1.2" stroke-linecap="round" stroke-linejoin="round"/>
<path d="M19.3783 33.7215C18.967 34.5962 18.1756 35.1845 17.2645 35.1845C15.9316 35.1845 14.9736 33.9245 14.9736 32.373C14.9736 30.8215 15.9316 29.5615 17.2645 29.5615C18.0975 29.5615 18.8316 30.0509 19.2638 30.8007" stroke="#18292D" stroke-width="1.2" stroke-linecap="round" stroke-linejoin="round"/>
<path d="M48.6595 54.1667C51.6385 54.1667 54.0534 51.7518 54.0534 48.7728C54.0534 45.7938 51.6385 43.3789 48.6595 43.3789C45.6806 43.3789 43.2656 45.7938 43.2656 48.7728C43.2656 51.7518 45.6806 54.1667 48.6595 54.1667Z" stroke="#18292D" stroke-width="1.2" stroke-linecap="round" stroke-linejoin="round"/>
<path d="M50.7367 49.9651C50.3254 50.8398 49.534 51.4281 48.6229 51.4281C47.29 51.4281 46.332 50.1682 46.332 48.6167C46.332 47.0651 47.29 45.8052 48.6229 45.8052C49.4559 45.8052 50.19 46.2946 50.6221 47.0443" stroke="#18292D" stroke-width="1.2" stroke-linecap="round" stroke-linejoin="round"/>
</svg>
