<svg width="470" height="250" viewBox="0 0 470 250" fill="none" xmlns="http://www.w3.org/2000/svg">
<g clip-path="url(#clip0_558_8495)">
<g clip-path="url(#clip1_558_8495)">
<path d="M315.434 127.615C318.005 125.045 318.005 120.877 315.435 118.307C312.864 115.737 308.697 115.737 306.127 118.307C303.556 120.877 303.556 125.045 306.127 127.615C308.697 130.185 312.864 130.185 315.434 127.615Z" fill="#18292D"/>
<path d="M324.41 140.59C324.41 148.115 318.307 157.012 310.782 157.012C303.257 157.012 297.154 148.115 297.154 140.59C297.154 133.065 303.257 126.962 310.782 126.962C318.307 126.962 324.41 133.065 324.41 140.59Z" fill="#18292D"/>
<path d="M327.587 137.492H293.975C289.66 137.492 287.055 142.272 289.399 145.897L295.024 157.385H326.531L332.156 145.897C334.5 142.272 331.902 137.492 327.58 137.492H327.587Z" fill="#18292D"/>
<path d="M323.066 162.756H321.186H300.378H298.492L289.65 209.588H300.378H321.186H331.914L323.066 162.756Z" fill="#18292D"/>
<path d="M335.539 223.258V218.978H298.259C287.398 218.978 278.592 227.784 278.592 238.646V250H342.973V238.646C342.973 232.409 340.065 226.869 335.539 223.265V223.258Z" fill="#18292D"/>
<path d="M292.489 156.047H321.188V166.775H292.489C291.673 166.775 291.004 166.113 291.004 165.29V157.526C291.004 156.709 291.666 156.04 292.489 156.04V156.047Z" fill="#18292D"/>
<path d="M329.079 166.775H300.38V156.047H329.079C329.896 156.047 330.564 156.709 330.564 157.533V165.297C330.564 166.114 329.903 166.782 329.079 166.782V166.775Z" fill="#18292D"/>
<path d="M286.174 208.251H326.881V221.668H286.174C285.322 221.668 284.625 220.978 284.625 220.119V209.799C284.625 208.948 285.315 208.251 286.174 208.251Z" fill="#18292D"/>
<path d="M335.385 221.66H306.158V208.244H335.385C336.237 208.244 336.934 208.933 336.934 209.792V220.112C336.934 220.964 336.244 221.66 335.385 221.66Z" fill="#18292D"/>
<path d="M262.895 108.815L273.939 107.301L274.699 114.34C274.791 119.183 277.395 123.625 281.577 126.075L297.879 135.613C299.477 136.549 301.533 135.81 302.173 134.071L302.701 132.649C303.821 129.608 302.828 126.201 300.259 124.23L293.269 118.881C291.08 117.205 289.946 114.502 290.277 111.764V111.722L313.133 115.502L316.245 129.89C316.759 132.255 318.251 134.297 320.356 135.493L321.236 135.993C322.798 136.88 324.741 135.726 324.692 133.923L324.368 120.387L326.424 109.892C327.099 106.456 326.311 102.895 324.241 100.065L324.136 99.917L324.164 99.1919C324.34 94.9191 322.334 90.8505 318.842 88.3938L311.789 83.4241L321.306 81.2912L329.232 89.5693C330.936 91.0828 333.329 91.5192 335.455 90.7097L337.222 90.0339C338.728 89.4637 339.172 87.5491 338.073 86.3735L325.896 73.2806C324.023 71.2673 321.236 70.3804 318.54 70.9365L303.828 73.9845C296.352 71.2322 288.179 70.9717 280.542 73.2524L267.723 77.0747L256.707 79.285" fill="white"/>
<path d="M262.895 108.815L273.939 107.301L274.699 114.34C274.791 119.183 277.395 123.625 281.577 126.075L297.879 135.613C299.477 136.549 301.533 135.81 302.173 134.071L302.701 132.649C303.821 129.608 302.828 126.201 300.259 124.23L293.269 118.881C291.08 117.205 289.946 114.502 290.277 111.764V111.722L313.133 115.502L316.245 129.89C316.759 132.255 318.251 134.297 320.356 135.493L321.236 135.993C322.798 136.88 324.741 135.726 324.692 133.923L324.368 120.387L326.424 109.892C327.099 106.456 326.311 102.895 324.241 100.065L324.136 99.917L324.164 99.1919C324.34 94.9191 322.334 90.8505 318.842 88.3938L311.789 83.4241L321.306 81.2912L329.232 89.5693C330.936 91.0828 333.329 91.5192 335.455 90.7097L337.222 90.0339C338.728 89.4637 339.172 87.5491 338.073 86.3735L325.896 73.2806C324.023 71.2673 321.236 70.3804 318.54 70.9365L303.828 73.9845C296.352 71.2322 288.179 70.9717 280.542 73.2524L267.723 77.0747L256.707 79.285" stroke="#18292D" stroke-width="1.93155" stroke-linecap="round" stroke-linejoin="round"/>
<path d="M307.207 99.7622L319.596 105.563C321.778 106.583 323.256 108.681 323.482 111.074L324.376 120.387" stroke="#18292D" stroke-width="1.93155" stroke-linecap="round" stroke-linejoin="round"/>
<path d="M308.529 91.9065L324.177 99.1921" stroke="#18292D" stroke-width="1.93155" stroke-linecap="round" stroke-linejoin="round"/>
<path d="M308.84 82.4456L311.796 83.424" stroke="#18292D" stroke-width="1.93155" stroke-linecap="round" stroke-linejoin="round"/>
<path d="M265.976 92.1599L260.803 72.7246C260.472 72.8161 259.916 72.9639 251.293 75.4277C216.786 85.2967 185.807 105.302 161.711 133.262C137.785 161.032 121.848 195.277 115.619 232.297L113 249.994C113 249.994 125.418 249.994 133.375 249.994C141.332 249.994 153.75 249.994 153.75 249.994L155.249 238.963C160.261 209.18 173.023 181.699 192.156 159.49C211.12 137.478 235.391 121.767 262.344 114.059C269.552 111.996 270.932 111.609 271.192 111.539L265.976 92.1529V92.1599Z" fill="#4A7C88"/>
<path d="M154.016 171.599C160.141 170.633 164.458 165.738 163.659 160.665C162.859 155.592 157.245 152.262 151.12 153.228C144.995 154.194 140.678 159.089 141.478 164.162C142.277 169.235 147.891 172.565 154.016 171.599Z" fill="#18292D"/>
<path d="M187.786 186.267C183.922 185.859 180.416 184.324 177.882 181.713C180.747 182.121 183.746 182.149 186.787 181.797C184.935 176.046 181.388 171.583 179.93 171.963C177.861 172.505 175.496 171.576 172.793 169.887C171.659 168.95 170.435 168.099 169.111 167.345C168.386 166.81 167.647 166.254 166.88 165.677C163.606 163.213 144.579 156.998 134.76 176.736C129.269 187.773 132.697 201.084 142.777 208.208L135.935 233.402L165.416 228.164L170.625 205.442C175.869 204.632 180.198 201.549 180.198 201.549C186.963 197.966 188.497 191.948 187.793 186.267H187.786Z" fill="white" stroke="#18292D" stroke-width="1.93155" stroke-linecap="round" stroke-linejoin="round"/>
<path d="M135.879 164.255C142.988 158.772 152.097 157.603 160.192 160.292C157.954 161.214 155.807 162.425 153.815 163.959C140.313 174.378 138.87 195.143 150.598 210.341C151.252 211.186 151.928 211.988 152.632 212.762C144.748 212.544 136.927 208.835 131.627 201.964C122.427 190.047 124.334 173.16 135.879 164.255Z" fill="#18292D"/>
<path d="M161.605 158.342C161.605 158.342 160.647 165.698 155.305 170.035C152.482 172.329 158.346 170.823 158.472 174.589C159.416 202.809 158.036 208.391 158.036 208.391C157.895 210.848 156.163 212.932 153.777 213.516L141.416 214.452L142.099 210.341L134.947 180.685C134.947 180.685 146.52 156.716 161.598 158.335L161.605 158.342Z" fill="#18292D"/>
<path d="M164.5 168.296C162.219 169.844 162.712 173.624 163.754 174.561" stroke="#18292D" stroke-width="1.93155" stroke-linecap="round" stroke-linejoin="round"/>
<path d="M170.152 173.955C170.856 174.23 171.581 174.04 171.778 173.533C171.975 173.026 171.559 172.4 170.863 172.125C170.166 171.851 169.434 172.041 169.237 172.548C169.039 173.054 169.455 173.681 170.152 173.955Z" fill="#18292D"/>
<path d="M168.18 192.638C168.8 196.573 166.111 200.268 162.176 200.895C158.241 201.514 154.545 198.825 153.919 194.89C153.299 190.955 155.988 187.26 159.923 186.633C163.858 186.014 167.554 188.703 168.18 192.638Z" fill="white"/>
<path d="M158.902 191.328C158.902 191.328 164.055 192.025 164.52 194.982" stroke="#18292D" stroke-width="1.93155" stroke-linecap="round" stroke-linejoin="round"/>
<path d="M154.539 179.333L165.267 185.633L163.479 188.604L154.75 185.535L154.539 179.333Z" fill="#18292D"/>
<path d="M124.629 178.827C124.629 178.827 130.112 177.454 132.168 179.171" stroke="#18292D" stroke-width="1.93155" stroke-linecap="round" stroke-linejoin="round"/>
<path d="M132.886 178.179C132.886 178.179 127.241 178.468 125.559 176.391" stroke="#18292D" stroke-width="1.93155" stroke-linecap="round" stroke-linejoin="round"/>
<path d="M128.781 250.183V221.811H158.728C172.06 221.811 184.842 227.647 194.263 238.045L205.438 250.37C205.438 250.37 129.465 250.183 128.781 250.183Z" fill="#4A7C88"/>
</g>
</g>
<defs>
<clipPath id="clip0_558_8495">
<rect width="470" height="250" fill="white"/>
</clipPath>
<clipPath id="clip1_558_8495">
<rect width="229.971" height="180" fill="white" transform="translate(113 70)"/>
</clipPath>
</defs>
</svg>
