<svg width="700" height="400" viewBox="0 0 700 400" fill="none" xmlns="http://www.w3.org/2000/svg">
<path d="M272.916 300.897L273 298.504C273 298.504 267.008 298.276 258.91 296.744L258.467 299.09C266.768 300.658 272.677 300.885 272.916 300.885V300.897ZM252.547 297.821L253.109 295.5C248.289 294.327 243.744 292.855 239.617 291.155L238.708 293.369C242.942 295.117 247.607 296.613 252.547 297.821ZM233.182 290.832L234.27 288.702C229.809 286.428 225.898 283.807 222.632 280.887L221.042 282.67C224.462 285.722 228.541 288.463 233.182 290.82V290.832ZM216.748 278.29L218.566 276.734C215.671 273.359 213.04 269.433 210.731 265.053L208.614 266.178C211.006 270.714 213.746 274.795 216.748 278.29ZM205.983 260.685L208.184 259.739C207.358 257.813 206.605 255.862 205.935 253.875C207.645 253.672 209.356 253.408 211.03 253.085L210.588 250.74C208.806 251.075 206.999 251.35 205.193 251.553C204.667 249.818 204.213 248.071 203.818 246.311L201.486 246.826C201.856 248.49 202.287 250.141 202.765 251.781C200.792 251.936 198.818 252.02 196.845 252.02H196.546L196.534 254.414H196.845C199.069 254.414 201.282 254.318 203.495 254.126C204.225 256.341 205.05 258.531 205.983 260.685ZM190.469 254.162L190.661 251.781C186.056 251.41 181.367 250.596 176.738 249.375L176.128 251.685C180.889 252.942 185.721 253.767 190.457 254.162H190.469ZM216.951 251.709C221.628 250.416 226.197 248.669 230.551 246.515L229.486 244.373C225.264 246.467 220.838 248.166 216.317 249.411L216.951 251.721V251.709ZM170.339 249.938L171.117 247.676C166.572 246.12 162.266 244.145 158.33 241.799L157.11 243.858C161.189 246.287 165.639 248.334 170.339 249.938ZM235.885 243.595C240.107 241.057 244.043 238.137 247.583 234.918L245.968 233.147C242.535 236.27 238.732 239.095 234.641 241.548L235.873 243.595H235.885ZM200.421 240.842L202.789 240.519C202.395 237.647 202.203 234.798 202.203 232.034C202.203 230.167 202.299 228.288 202.478 226.48L200.098 226.241C199.907 228.132 199.811 230.083 199.811 232.034C199.811 234.906 200.014 237.874 200.421 240.842ZM152.027 240.507L153.438 238.568C149.647 235.804 146.178 232.608 143.104 229.054L141.298 230.621C144.48 234.319 148.092 237.647 152.027 240.507ZM251.901 230.609C254.939 227.282 257.415 223.883 259.281 220.473C259.628 219.85 259.939 219.168 260.226 218.462L258.013 217.564C257.762 218.187 257.487 218.773 257.176 219.324C255.417 222.555 253.049 225.81 250.143 228.994L251.901 230.609ZM137.53 225.81L139.48 224.422C136.789 220.64 134.468 216.499 132.59 212.131L130.39 213.076C132.327 217.6 134.731 221.885 137.53 225.81ZM203.363 220.688C204.368 216.009 206.043 211.628 208.327 207.667L206.258 206.47C203.854 210.635 202.096 215.255 201.031 220.173L203.375 220.676L203.363 220.688ZM261.805 212.406C262.02 210.922 262.128 209.39 262.128 207.834C262.128 204.352 261.577 200.833 260.537 197.662L258.264 198.416C259.233 201.336 259.735 204.603 259.735 207.834C259.735 209.271 259.64 210.695 259.436 212.059L261.805 212.406ZM128.225 207.38L130.497 206.626C128.823 201.527 128.38 198.069 128.368 198.033L126 198.332C126.012 198.475 126.466 202.042 128.225 207.38ZM211.557 202.856C214.344 199.277 217.764 196.07 221.723 193.341L220.372 191.366C216.209 194.239 212.609 197.614 209.667 201.384L211.557 202.856ZM255.872 193.269L257.905 192.001C254.975 187.321 250.777 184.353 245.741 183.42L245.298 185.777C249.652 186.591 253.3 189.188 255.872 193.281V193.269ZM226.711 190.241C231.4 187.621 235.766 186.077 239.701 185.622L239.426 183.24C235.168 183.731 230.503 185.382 225.539 188.147L226.699 190.241H226.711Z" fill="black"/>
<path d="M120.808 199.225C89.6868 199.225 64.458 173.982 64.458 142.842C64.458 111.703 89.6868 86.459 120.808 86.459C151.929 86.459 177.158 111.703 177.158 142.842C177.158 173.982 151.929 199.225 120.808 199.225Z" fill="white"/>
<path d="M138.522 114.518H102.978C101.067 114.518 99.5175 116.067 99.5175 117.978V168.017C99.5175 169.928 101.067 171.477 102.978 171.477H138.522C140.433 171.477 141.983 169.928 141.983 168.017V117.978C141.983 116.067 140.433 114.518 138.522 114.518Z" fill="#18292D"/>
<path d="M116.292 168.48C116.475 168.798 116.233 169.197 115.861 169.197H107.43C106.121 169.197 105.059 168.135 105.059 166.825C105.059 165.515 106.121 164.453 107.43 164.453H115.866C116.233 164.453 116.481 164.852 116.298 165.17C115.742 166.124 115.683 167.429 116.298 168.48H116.292Z" fill="white"/>
<path d="M125.213 168.48C125.03 168.798 125.272 169.197 125.644 169.197H134.08C135.39 169.197 136.452 168.135 136.452 166.825C136.452 165.515 135.39 164.453 134.08 164.453H125.644C125.278 164.453 125.03 164.852 125.213 165.17C125.768 166.124 125.828 167.429 125.213 168.48Z" fill="white"/>
<path d="M123.122 166.825C123.122 168.135 122.06 169.197 120.75 169.197C119.44 169.197 118.378 168.135 118.378 166.825C118.378 165.515 119.44 164.453 120.75 164.453C122.06 164.453 123.122 165.515 123.122 166.825Z" fill="#FFC31F" stroke="#FFC31F" stroke-width="1.04033" stroke-linecap="round" stroke-linejoin="round"/>
<path d="M138.295 162.173V118.209H103.204V162.173H138.295Z" fill="white"/>
<path d="M108.142 125.912H133.358" stroke="#18292D" stroke-width="1.04033" stroke-linecap="round" stroke-linejoin="round"/>
<path d="M108.142 133.395H133.358" stroke="#18292D" stroke-width="1.04033" stroke-linecap="round" stroke-linejoin="round"/>
<path d="M108.142 140.875H133.358" stroke="#18292D" stroke-width="1.04033" stroke-linecap="round" stroke-linejoin="round"/>
<path d="M120.808 86.9168C89.9852 86.9168 64.9163 112 64.9163 142.842C64.9163 173.683 89.9852 198.766 120.808 198.766C151.631 198.766 176.7 173.683 176.7 142.842C176.7 112 151.631 86.9168 120.808 86.9168ZM120.808 86C152.181 86 177.616 111.45 177.616 142.842C177.616 174.233 152.181 199.683 120.808 199.683C89.4354 199.683 64 174.233 64 142.842C64 111.45 89.4354 86 120.808 86Z" fill="black"/>
<ellipse cx="437.432" cy="200.46" rx="179.598" ry="85.4521" transform="rotate(-158.445 437.432 200.46)" fill="#F2F7F8"/>
<path d="M293.098 301.111V131.171C293.098 122.641 299.698 115.721 307.848 115.721H556.428C564.568 115.721 571.178 122.641 571.178 131.171V301.111H293.098Z" fill="#18292D"/>
<path d="M306.618 287.59V131.18C306.618 130 307.348 129.25 307.838 129.25H556.418C556.918 129.25 557.638 130 557.638 131.18V287.59H306.618Z" fill="white"/>
<path d="M447.588 296.271H591.778V299.471C591.778 304.761 585.178 313.251 577.028 313.251H287.248C279.108 313.251 272.498 304.761 272.498 299.471V296.271H447.588Z" fill="white" stroke="#18292D" stroke-width="2.2" stroke-linecap="round" stroke-linejoin="round"/>
<path d="M492.837 288.799L463.867 202.709C458.277 186.099 444.477 173.579 427.407 169.619L395.007 162.109L332.217 185.469L361.427 288.789C361.427 288.789 492.857 288.059 492.857 288.789L492.837 288.799Z" fill="white" stroke="#18292D" stroke-width="2.2" stroke-linecap="round" stroke-linejoin="round"/>
<path d="M587.168 58.0703H508.968C501.118 58.0703 494.748 64.4403 494.748 72.2903V129.17C494.748 137.02 501.118 143.39 508.968 143.39H516.078V168.27L540.958 143.39H587.168C595.018 143.39 601.388 137.02 601.388 129.17V72.2903C601.388 64.4403 595.018 58.0703 587.168 58.0703Z" fill="#96D8E8"/>
<path d="M524.418 110.141C528.378 110.141 531.588 106.931 531.588 102.971C531.588 99.0109 528.378 95.8008 524.418 95.8008C520.458 95.8008 517.248 99.0109 517.248 102.971C517.248 106.931 520.458 110.141 524.418 110.141Z" fill="white"/>
<path d="M548.068 110.141C552.028 110.141 555.238 106.931 555.238 102.971C555.238 99.0109 552.028 95.8008 548.068 95.8008C544.108 95.8008 540.898 99.0109 540.898 102.971C540.898 106.931 544.108 110.141 548.068 110.141Z" fill="white"/>
<path d="M571.718 110.141C575.678 110.141 578.888 106.931 578.888 102.971C578.888 99.0109 575.678 95.8008 571.718 95.8008C567.758 95.8008 564.548 99.0109 564.548 102.971C564.548 106.931 567.758 110.141 571.718 110.141Z" fill="white"/>
<path d="M433.027 95.02C444.355 95.02 453.537 85.8374 453.537 74.51C453.537 63.1826 444.355 54 433.027 54C421.7 54 412.517 63.1826 412.517 74.51C412.517 85.8374 421.7 95.02 433.027 95.02Z" fill="#18292D"/>
<path d="M381.347 166.889L395.317 122.869L431.427 134.329L418.847 173.979C424.057 179.539 427.417 185.859 423.897 191.379C415.277 204.869 390.537 191.379 379.667 181.629L368.797 171.879L381.347 166.889Z" fill="white" stroke="#18292D" stroke-width="2.2" stroke-linecap="round" stroke-linejoin="round"/>
<path d="M371.447 108.201C369.917 87.4507 383.867 68.2307 404.787 63.7407L412.157 62.1607C428.517 58.6507 444.627 69.0707 448.137 85.4307L455.477 119.651C458.987 136.011 448.567 152.121 432.207 155.641L426.357 156.901C406.957 161.061 387.807 151.701 378.697 135.171C375.127 136.331 371.107 136.071 367.567 134.101C360.817 130.341 358.387 121.821 362.147 115.071C364.187 111.401 367.637 109.031 371.437 108.211L371.447 108.201Z" fill="white" stroke="#18292D" stroke-width="2.2" stroke-linecap="round" stroke-linejoin="round"/>
<path d="M456.08 123.241C463.287 121.029 467.336 113.394 465.125 106.187C462.913 98.9798 455.278 94.9303 448.071 97.1419C440.864 99.3536 436.814 106.989 439.026 114.196C441.238 121.403 448.873 125.452 456.08 123.241Z" stroke="#FFC31F" stroke-width="2.2" stroke-linecap="round" stroke-linejoin="round"/>
<path d="M407.517 108.95C405.117 116.1 408.967 123.83 416.117 126.23C423.267 128.63 430.997 124.78 433.397 117.63C435.797 110.48 431.947 102.75 424.797 100.35C417.647 97.9504 409.917 101.8 407.517 108.95Z" stroke="#FFC31F" stroke-width="2.2" stroke-linecap="round" stroke-linejoin="round"/>
<path d="M386.857 114.36L406.937 111.49" stroke="#FFC31F" stroke-width="2.2" stroke-linecap="round" stroke-linejoin="round"/>
<path d="M438.867 108.23L434.047 109.25" stroke="#FFC31F" stroke-width="2.2" stroke-linecap="round" stroke-linejoin="round"/>
<path d="M418.347 113.2C418.657 115.46 420.067 117.13 421.507 116.93C422.947 116.73 423.857 114.75 423.547 112.49C423.237 110.23 421.827 108.56 420.387 108.76C418.947 108.96 418.037 110.94 418.347 113.2Z" fill="#18292D"/>
<path d="M442.097 110.28C442.407 112.54 443.817 114.21 445.257 114.01C446.697 113.81 447.607 111.83 447.297 109.57C446.987 107.31 445.577 105.64 444.137 105.84C442.697 106.04 441.787 108.02 442.097 110.28Z" fill="#18292D"/>
<path d="M442.167 131.3C442.167 131.3 436.157 134.33 432.217 129.15" stroke="#18292D" stroke-width="2.2" stroke-linecap="round" stroke-linejoin="round"/>
<path d="M424.707 93.8596C424.707 93.8596 416.177 92.1796 411.187 97.6296" stroke="#18292D" stroke-width="2.2" stroke-linecap="round" stroke-linejoin="round"/>
<path d="M441.067 94.6001C441.067 94.6001 446.887 90.2201 453.867 92.9601" stroke="#18292D" stroke-width="2.2" stroke-linecap="round" stroke-linejoin="round"/>
<path d="M382.987 125.94C382.987 125.94 382.387 112.98 372.267 114.02" stroke="#18292D" stroke-width="2.2" stroke-linecap="round" stroke-linejoin="round"/>
<path d="M388.457 70.6408C387.517 65.4008 393.377 61.8008 393.377 61.8008" stroke="#18292D" stroke-width="2.2" stroke-linecap="round" stroke-linejoin="round"/>
<path d="M384.157 65.2496C384.157 65.2496 386.847 65.0296 387.727 68.0896" stroke="#18292D" stroke-width="2.2" stroke-linecap="round" stroke-linejoin="round"/>
<path d="M399.057 87.7402C399.057 77.9602 403.457 69.0802 410.627 62.4902L392.447 66.3902C376.397 69.8302 366.187 85.6302 369.627 101.68L371.047 108.29C374.357 107.47 377.977 107.84 381.197 109.63C387.237 112.99 389.807 120.17 387.587 126.48C391.227 125.83 393.697 122.41 393.157 118.74L391.737 109.19L393.737 107.1C396.827 103.88 398.647 99.6402 398.837 95.1802L399.097 89.2002C399.077 88.7102 399.057 88.2102 399.057 87.7102V87.7402Z" fill="#18292D"/>
<path d="M416.677 81.2509C424.006 81.2509 429.947 75.3098 429.947 67.9809C429.947 60.6521 424.006 54.7109 416.677 54.7109C409.349 54.7109 403.407 60.6521 403.407 67.9809C403.407 75.3098 409.349 81.2509 416.677 81.2509Z" fill="#18292D"/>
<path d="M402.497 93.2298C410.268 93.2298 416.567 86.9305 416.567 79.1598C416.567 71.3892 410.268 65.0898 402.497 65.0898C394.727 65.0898 388.427 71.3892 388.427 79.1598C388.427 86.9305 394.727 93.2298 402.497 93.2298Z" fill="#18292D"/>
<path d="M462.897 287.34L462.787 235.61L461.657 214.27C461.147 204.65 464.427 195.21 470.787 187.98L489.007 167.27C490.617 165.44 493.177 164.76 495.487 165.57C499.037 166.8 500.587 170.96 498.727 174.22L489.157 190.95L514.907 197.98L544.997 186.12C547.777 185.02 550.947 186.1 552.477 188.67C553.427 190.25 552.867 192.3 551.247 193.19L497.287 222.67L517.897 287.36" fill="white"/>
<path d="M462.897 287.34L462.787 235.61L461.657 214.27C461.147 204.65 464.427 195.21 470.787 187.98L489.007 167.27C490.617 165.44 493.177 164.76 495.487 165.57C499.037 166.8 500.587 170.96 498.727 174.22L489.157 190.95L514.907 197.98L544.997 186.12C547.777 185.02 550.947 186.1 552.477 188.67C553.427 190.25 552.867 192.3 551.247 193.19L497.287 222.67L517.897 287.36" stroke="#18292D" stroke-width="2.2" stroke-linecap="round" stroke-linejoin="round"/>
<path d="M528.637 198.689L540.237 178.329C541.307 176.449 539.797 174.139 537.647 174.369C534.897 174.669 532.407 176.099 530.767 178.319L516.547 196.499" fill="white"/>
<path d="M528.637 198.689L540.237 178.329C541.307 176.449 539.797 174.139 537.647 174.369C534.897 174.669 532.407 176.099 530.767 178.319L516.547 196.499" stroke="#18292D" stroke-width="2.2" stroke-linecap="round" stroke-linejoin="round"/>
<path d="M488.027 210.211L505.737 200.821L515.417 180.921C516.737 178.201 519.397 176.381 522.407 176.131C524.357 175.971 525.837 177.841 525.247 179.701L516.927 205.561" fill="white"/>
<path d="M488.027 210.211L505.737 200.821L515.417 180.921C516.737 178.201 519.397 176.381 522.407 176.131C524.357 175.971 525.837 177.841 525.247 179.701L516.927 205.561" stroke="#18292D" stroke-width="2.2" stroke-linecap="round" stroke-linejoin="round"/>
<path d="M361.518 225.67L331.408 119.46C331.838 118.53 332.238 117.58 332.578 116.6C334.838 109.99 335.648 102.97 334.968 96.0202L333.698 83.0202C333.488 80.9002 331.008 79.7402 329.328 81.0502C326.758 83.0502 325.138 86.0202 324.838 89.2602L323.678 101.96L318.538 93.7702L302.558 68.3302C301.058 65.9502 297.868 65.2902 295.538 66.9402C293.558 68.3502 293.008 71.0702 294.058 73.2702L294.828 74.8802L290.318 68.7002C288.868 66.7102 286.168 65.9402 283.988 67.0802C281.458 68.4002 280.608 71.4902 281.968 73.8802L294.018 95.1102L282.598 79.4902C280.938 77.2202 277.698 76.7902 275.498 78.6002C273.618 80.1502 273.258 82.9002 274.458 85.0102L283.758 101.4L272.108 92.9402C270.178 91.5402 267.688 91.6602 266.558 93.2202C265.518 94.6502 265.968 96.8302 267.618 98.2702L287.438 115.69C287.408 115.99 290.228 120.74 293.508 126.18C295.408 129.32 298.078 131.69 301.128 133.25L319.718 250.07C323.068 271.12 348.908 279.44 363.908 264.3" fill="white"/>
<path d="M361.518 225.67L331.408 119.46C331.838 118.53 332.238 117.58 332.578 116.6C334.838 109.99 335.648 102.97 334.968 96.0202L333.698 83.0202C333.488 80.9002 331.008 79.7402 329.328 81.0502C326.758 83.0502 325.138 86.0202 324.838 89.2602L323.678 101.96L318.538 93.7702L302.558 68.3302C301.058 65.9502 297.868 65.2902 295.538 66.9402C293.558 68.3502 293.008 71.0702 294.058 73.2702L294.828 74.8802L290.318 68.7002C288.868 66.7102 286.168 65.9402 283.988 67.0802C281.458 68.4002 280.608 71.4902 281.968 73.8802L294.018 95.1102L282.598 79.4902C280.938 77.2202 277.698 76.7902 275.498 78.6002C273.618 80.1502 273.258 82.9002 274.458 85.0102L283.758 101.4L272.108 92.9402C270.178 91.5402 267.688 91.6602 266.558 93.2202C265.518 94.6502 265.968 96.8302 267.618 98.2702L287.438 115.69C287.408 115.99 290.228 120.74 293.508 126.18C295.408 129.32 298.078 131.69 301.128 133.25L319.718 250.07C323.068 271.12 348.908 279.44 363.908 264.3" stroke="#18292D" stroke-width="2.2" stroke-linecap="round" stroke-linejoin="round"/>
<path d="M305.228 91.0695L294.038 73.2695" stroke="#18292D" stroke-width="2.2" stroke-linecap="round" stroke-linejoin="round"/>
<path d="M313.878 123.06C313.878 123.06 308.188 112.01 314.288 101.1" stroke="#18292D" stroke-width="2.2" stroke-linecap="round" stroke-linejoin="round"/>
<path d="M311.678 92.1211C311.678 92.1211 293.718 97.3211 289.248 108.111" stroke="#18292D" stroke-width="2.2" stroke-linecap="round" stroke-linejoin="round"/>
<path d="M315.528 210.97L352.798 197.9" stroke="#18292D" stroke-width="2.2" stroke-linecap="round" stroke-linejoin="round"/>
</svg>
