<svg width="65" height="65" viewBox="0 0 65 65" fill="none" xmlns="http://www.w3.org/2000/svg">
<path d="M43.7401 31.8839V47.8843C43.7401 48.5085 43.2327 49.0159 42.6085 49.0159H31.9564C31.3321 49.0159 30.8247 49.5234 30.8247 50.1476C30.8247 50.7718 31.3321 51.2792 31.9564 51.2792H45.7054V31.8839C45.7054 31.449 45.3551 31.0986 44.9201 31.0986H44.5295C44.0945 31.0986 43.7442 31.449 43.7442 31.8839H43.7401Z" fill="#18292D" stroke="#18292D" stroke-width="1.2" stroke-linecap="round" stroke-linejoin="round"/>
<path d="M24.1194 34.5577C27.3379 34.5577 29.9469 31.9487 29.9469 28.7303C29.9469 25.5119 27.3379 22.9028 24.1194 22.9028C20.901 22.9028 18.292 25.5119 18.292 28.7303C18.292 31.9487 20.901 34.5577 24.1194 34.5577Z" fill="white" stroke="#18292D" stroke-width="1.2" stroke-linecap="round" stroke-linejoin="round"/>
<path d="M24.4211 47.8075L27.7597 52.314C28.2993 53.1436 38.1098 52.5395 38.1098 52.5395C39.6884 52.314 40.8886 50.9044 40.7114 49.3217C40.5261 47.6866 39.0038 46.7362 37.413 46.7644L31.5856 46.8812C30.8003 46.8973 30.0875 46.414 29.8176 45.673C29.8176 45.673 27.5301 40.3892 26.2656 38.7783L26.2535 38.7622C25.3474 37.5983 23.9338 36.8976 22.5283 36.805C17.7439 36.4908 15.537 39.3341 15.2631 43.0714L14.4858 53.0993" fill="white"/>
<path d="M24.4211 47.8075L27.7597 52.314C28.2993 53.1436 38.1098 52.5395 38.1098 52.5395C39.6884 52.314 40.8886 50.9044 40.7114 49.3217C40.5261 47.6866 39.0038 46.7362 37.413 46.7644L31.5856 46.8812C30.8003 46.8973 30.0875 46.414 29.8176 45.673C29.8176 45.673 27.5301 40.3892 26.2656 38.7783L26.2535 38.7622C25.3474 37.5983 23.9338 36.8976 22.5283 36.805C17.7439 36.4908 15.537 39.3341 15.2631 43.0714L14.4858 53.0993" stroke="#18292D" stroke-width="1.2" stroke-linecap="round" stroke-linejoin="round"/>
<path d="M50.9327 52.3383C50.9327 51.7544 50.4938 51.2832 49.9581 51.2832L24.1112 51.1785L23.9541 53.3935H49.9581C50.4978 53.3935 50.9327 52.9182 50.9327 52.3423V52.3383Z" fill="white" stroke="#18292D" stroke-width="1.2" stroke-linecap="round" stroke-linejoin="round"/>
<path d="M51.3517 10.8333H43.4019V18.7831H51.3517V10.8333Z" fill="white" stroke="#18292D" stroke-width="1.2" stroke-linecap="round" stroke-linejoin="round"/>
<path d="M36.797 10.8333H28.8472V18.7831H36.797V10.8333Z" fill="white" stroke="#18292D" stroke-width="1.2" stroke-linecap="round" stroke-linejoin="round"/>
<path d="M31.2314 14.3088L32.8585 15.9398L36.7971 10.8333" stroke="#18292D" stroke-width="1.2" stroke-linecap="round" stroke-linejoin="round"/>
<path d="M22.0333 10.8333H14.0835V18.7831H22.0333V10.8333Z" fill="white" stroke="#18292D" stroke-width="1.2" stroke-linecap="round" stroke-linejoin="round"/>
<path d="M16.4673 14.3088L18.0983 16.1895L22.037 10.8333" stroke="#18292D" stroke-width="1.2" stroke-linecap="round" stroke-linejoin="round"/>
</svg>
