<svg width="1300" height="400" viewBox="0 0 1300 400" fill="none" xmlns="http://www.w3.org/2000/svg">
<path d="M649.242 111.601C685.267 108.772 719.856 120.464 744.325 136.385C769.035 152.622 783.617 173.09 785.21 194.963C786.815 217.049 775.737 238.024 759.324 258.744C742.69 279.151 720.719 299.303 695.539 312.365C646.872 339.675 591.108 317.568 564.527 251.564C537.917 185.977 575.167 115.369 649.242 111.601Z" fill="#F2F7F8"/>
<path d="M510.425 245.552C508.165 245.162 506.338 246.03 504.238 246.796C496.932 249.46 489.131 250.789 481.471 252.014C457.205 255.897 433.714 252.819 412.026 240.874C396.166 232.139 373.761 211.305 381.592 191.387C387.472 176.434 398.743 176.257 411.649 182.044C423.036 187.15 421.411 197.683 415.62 207.121C410.265 215.85 405.864 218.393 396.183 220.851C375.384 226.131 357.291 226.244 336.211 221.518C330.738 220.291 307.013 217.366 305.695 210.627" stroke="black" stroke-width="2" stroke-linecap="round" stroke-linejoin="round" stroke-dasharray="6 6"/>
<path d="M994.444 194.566C992.175 194.897 990.371 193.982 988.292 193.161C981.058 190.307 973.294 188.774 965.669 187.349C941.513 182.832 917.95 185.294 895.957 196.667C879.874 204.984 856.93 225.224 864.238 245.341C869.724 260.442 880.987 260.915 894.04 255.467C905.556 250.661 904.208 240.089 898.666 230.503C893.541 221.636 889.208 218.979 879.595 216.269C858.941 210.446 840.857 209.859 819.66 214.032C814.158 215.116 790.364 217.418 788.87 224.12" stroke="black" stroke-width="2" stroke-linecap="round" stroke-linejoin="round" stroke-dasharray="6 6"/>
<circle cx="257.5" cy="176.247" r="56" fill="white" stroke="#18292D"/>
<g clip-path="url(#clip0_711_9402)">
<path d="M245.743 179.402L281.607 179.727L281.731 166.323L284.279 166.346C286.755 166.37 288.783 164.378 288.806 161.902V161.813C288.83 159.336 286.838 157.309 284.362 157.286L281.814 157.262L281.938 143.857L268.534 143.733L268.504 146.99C268.48 149.466 266.453 151.458 263.977 151.434H263.888C261.412 151.411 259.42 149.383 259.443 146.907L259.473 143.65L249.449 143.562C247.581 143.544 246.056 145.045 246.039 146.907L245.743 179.39V179.402Z" fill="#FFC31F" stroke="#FFC31F" stroke-width="1.3" stroke-linecap="round" stroke-linejoin="round"/>
<path d="M229.826 202.228L232.196 197.31C232.982 195.685 233.307 193.876 233.142 192.08C233.142 192.08 231.818 182.174 231.369 175.962C231.197 173.58 231.576 171.317 232.716 169.579C238.644 160.571 239.566 159.904 243.26 154.614C244.271 153.166 245.37 152.953 245.808 152.35" stroke="#18292D" stroke-width="1.3" stroke-linecap="round" stroke-linejoin="round"/>
<path d="M244.053 205.993L246.039 200.644C246.488 199.444 247.268 198.398 248.296 197.63L249.904 196.436C252.989 194.143 254.278 190.52 254.733 186.702C254.857 185.685 255.501 180.779 256.134 177.038C256.335 175.874 257.387 172.174 258.208 168.308V168.297C258.439 166.872 257.771 165.418 256.488 164.768C254.325 163.675 252.156 165.01 251.583 167.18V167.144C249.313 174.65 248.486 177.682 247.298 179.408" fill="white"/>
<path d="M244.053 205.993L246.039 200.644C246.488 199.444 247.268 198.398 248.296 197.63L249.904 196.436C252.989 194.143 254.278 190.52 254.733 186.702C254.857 185.685 255.501 180.779 256.134 177.038C256.335 175.874 257.387 172.174 258.208 168.308V168.297C258.439 166.872 257.771 165.418 256.488 164.768C254.325 163.675 252.156 165.01 251.583 167.18V167.144C249.313 174.65 248.486 177.682 247.298 179.408" stroke="#18292D" stroke-width="1.3" stroke-linecap="round" stroke-linejoin="round"/>
<path d="M229.602 196.183L227.622 202.096C227.458 202.585 227.722 203.114 228.211 203.278L244.855 208.854C245.344 209.018 245.874 208.754 246.038 208.265L248.018 202.352C248.182 201.863 247.918 201.334 247.429 201.17L230.785 195.595C230.295 195.431 229.766 195.694 229.602 196.183Z" fill="#18292D" stroke="#18292D" stroke-width="1.3" stroke-linecap="round" stroke-linejoin="round"/>
<path d="M241.635 205.325L244.424 206.224" stroke="white" stroke-width="1.1407" stroke-linecap="round" stroke-linejoin="round"/>
</g>
<circle cx="1041.69" cy="203.247" r="56" fill="white" stroke="#18292D"/>
<path fill-rule="evenodd" clip-rule="evenodd" d="M1015.47 180.496H1067.55C1068.75 180.496 1069.72 181.477 1069.72 182.668V212.813H1013.29V182.668C1013.29 181.467 1014.27 180.496 1015.46 180.496H1015.47Z" fill="black"/>
<path fill-rule="evenodd" clip-rule="evenodd" d="M1015.78 182.678H1067.55V210.851H1015.78V182.678Z" fill="white"/>
<path fill-rule="evenodd" clip-rule="evenodd" d="M1041.66 180.917C1042.02 180.917 1042.3 181.202 1042.3 181.559C1042.3 181.917 1042.02 182.201 1041.66 182.201C1041.3 182.201 1041.02 181.917 1041.02 181.559C1041.02 181.202 1041.3 180.917 1041.66 180.917Z" fill="white"/>
<path fill-rule="evenodd" clip-rule="evenodd" d="M1013.09 214.949H1070.29L1079.48 224.713C1079.48 226.308 1078.17 227.619 1076.58 227.619H1007.05C1005.45 227.619 1004.14 226.308 1004.14 224.713L1013.09 214.949Z" fill="black"/>
<path fill-rule="evenodd" clip-rule="evenodd" d="M1035.9 220.578H1046.88L1048.64 222.659C1048.64 222.998 1048.4 223.283 1048.08 223.283H1034.73C1034.43 223.283 1034.18 223.008 1034.18 222.659L1035.9 220.578Z" fill="white"/>
<path d="M1079.3 224.667H1004.33V225.061H1079.3V224.667Z" fill="white"/>
<path d="M1041.48 189C1037.34 189 1034 192.374 1034 196.545C1034 200.708 1037.35 204.091 1041.48 204.091C1045.61 204.091 1048.95 200.717 1048.95 196.545C1048.95 192.383 1045.6 189 1041.48 189ZM1039.31 199.901V193.181L1045.09 196.536L1039.31 199.892V199.901Z" fill="#FFC31F"/>
<path d="M711.209 187.086C710.573 184.161 708.653 177.803 705.951 175.139L705.712 174.914C705.792 174.986 705.872 175.061 705.951 175.139L711.994 180.804L713.565 170.203L715.135 180.804L721.81 174.914C719.716 178.186 715.606 185.201 715.92 187.086C716.313 189.442 717.491 191.798 713.565 192.19C709.638 192.583 710.031 188.264 711.209 187.086Z" fill="#FFC31F"/>
<circle cx="778.741" cy="361.024" r="33.3741" fill="#18292D"/>
<circle cx="648.387" cy="361.024" r="33.3741" fill="#18292D"/>
<circle cx="647.994" cy="360.632" r="29.0551" fill="white"/>
<circle cx="779.134" cy="360.632" r="29.0551" fill="white"/>
<path d="M626.791 229.491C644.381 169.81 691.969 180.804 713.564 193.761C727.071 180.254 753.482 182.636 765 185.516C798.295 198.08 803.74 237.344 802.3 255.405C798.217 295.611 760.026 313.515 741.441 317.442C710.03 334.325 604.804 304.092 626.791 229.491Z" fill="white"/>
<path d="M720.632 198.866C715.92 200.75 708.984 199.651 706.104 198.866C683.803 231.847 686.08 267.577 690.006 281.319C712.622 290.115 730.579 284.984 736.73 281.319C745.525 244.883 729.663 211.168 720.632 198.866Z" fill="#96D8E8"/>
<path d="M684.509 282.104C672.887 241.27 690.66 208.55 701 197.295C682.153 190.384 669.85 195.463 666.055 198.865C631.189 215.827 638.439 252.264 646.423 268.362C663.071 287.209 678.75 285.376 684.509 282.104Z" fill="#96D8E8"/>
<path d="M743.797 282.104C755.419 241.27 737.645 208.55 727.306 197.295C746.152 190.384 758.455 195.463 762.251 198.865C797.117 215.827 789.866 252.264 781.883 268.362C765.235 287.209 749.555 285.376 743.797 282.104Z" fill="#96D8E8"/>
<path d="M645.297 394.493C637.661 393.816 630.301 390.357 624.763 384.831C615.059 375.158 612.272 360.655 617.693 348.015C622.357 337.135 632.548 329.542 644.436 328.078C646.467 327.831 652.122 327.961 653.918 328.299C662.828 329.985 670.551 334.797 675.252 341.603C675.929 342.581 676.551 343.424 676.637 343.474C676.895 343.64 678.236 346.224 679 348.046C680.784 352.298 681.51 355.695 681.628 360.322C681.744 364.869 681.264 368.094 679.849 372.21C676.993 380.524 670.698 387.551 662.668 391.372C659.129 393.057 655.038 394.153 650.988 394.503C648.767 394.694 647.61 394.694 645.296 394.491L645.297 394.493ZM652.319 392.96C670.176 390.629 682.557 374.322 679.967 356.55C679.456 353.055 678.385 349.805 676.583 346.299C675.309 343.8 674.324 342.36 672.436 340.225C665.593 332.459 655.427 328.398 645.348 329.395C630.235 330.891 618.438 342.428 616.562 357.554C616.315 359.535 616.353 363.264 616.636 365.442C617.855 374.746 623.208 383.127 631.208 388.253C634.913 390.623 640.303 392.53 644.72 393.035C646.739 393.262 650.283 393.226 652.32 392.96H652.319ZM645.205 390.443C633.625 389.108 623.779 381.097 620.302 370.18C616.266 357.498 621.004 343.881 632.006 336.528C640.683 330.724 651.839 329.955 661.242 334.509C669.346 338.435 675.21 345.838 677.18 354.638C677.851 357.635 678.084 360.791 677.826 363.339C677.401 367.475 676.552 370.576 674.928 373.923C670.756 382.477 662.984 388.402 653.661 390.125C651.557 390.513 647.213 390.679 645.206 390.445L645.205 390.443ZM649.113 376.678V364.212L648.719 364.262C648.455 364.298 645.439 367.068 639.637 372.618C634.862 377.184 630.665 381.171 630.308 381.479L629.667 382.033L630.48 382.747C634.702 386.47 641.594 389.079 647.365 389.128L649.113 389.14V376.68V376.678ZM653.918 388.628C664.422 386.573 672.982 378.45 675.64 368.014C676.028 366.493 676.459 363.688 676.465 362.642L676.471 361.953H652.688L652.522 362.39C652.43 362.623 652.38 362.906 652.405 363.017C652.43 363.122 656.06 366.919 660.472 371.447C666.809 377.964 668.49 379.779 668.49 380.105C668.49 380.591 668.121 380.788 667.591 380.579C667.388 380.499 663.653 376.746 659.284 372.241C652.392 365.14 651.284 364.056 650.921 364.1L650.497 364.15L650.453 376.444C650.434 383.2 650.447 388.831 650.489 388.942C650.587 389.194 651.444 389.114 653.917 388.628H653.918ZM629.625 380.284C630.092 379.798 633.914 376.124 638.123 372.118C642.332 368.113 646.086 364.538 646.461 364.168L647.15 363.497L646.787 362.728L646.43 361.953H620.296V362.624C620.296 362.994 620.413 364.07 620.549 365.025C621.268 369.893 623.028 374.157 625.92 377.99C626.781 379.134 628.56 381.165 628.701 381.165C628.745 381.165 629.157 380.771 629.625 380.285V380.284ZM646.959 360.101C647.12 359.744 646.854 359.437 643.034 355.499C640.782 353.173 636.708 348.97 633.976 346.151C631.244 343.339 628.93 341.007 628.825 340.983C628.542 340.908 626.272 343.586 624.992 345.493C622.333 349.462 620.654 354.348 620.346 358.981L620.248 360.488H646.781L646.959 360.1V360.101ZM676.415 358.982C676.199 355.696 675.191 351.93 673.708 348.854C673.037 347.469 671.315 344.7 670.386 343.513C670.17 343.241 670.078 343.304 669.118 344.307C668.546 344.909 664.601 348.731 660.349 352.805C656.097 356.879 652.589 360.275 652.558 360.349C652.528 360.429 657.906 360.491 664.508 360.491H676.513L676.415 358.983V358.982ZM658.238 352.896C666.557 344.946 668.563 343.069 669.105 342.712L669.535 342.429L668.139 341.069C665.554 338.54 662.637 336.589 659.456 335.242C656.724 334.085 653.53 333.254 651.229 333.101L650.497 333.052L650.453 345.777L650.416 358.503L650.946 358.83C651.235 359.015 651.518 359.168 651.568 359.174C651.617 359.18 654.62 356.356 658.238 352.898V352.896ZM648.798 358.692C649.106 358.526 649.112 358.212 649.112 345.746V332.971H647.765C644.067 332.971 639.771 334.012 636.092 335.796C634.369 336.627 631.674 338.344 630.474 339.377L629.828 339.938L635.452 345.691C638.541 348.861 642.682 353.119 644.645 355.156C646.608 357.187 648.276 358.853 648.35 358.861C648.424 358.861 648.627 358.786 648.799 358.694L648.798 358.692ZM776.673 394.579C768.107 393.89 760.674 390.419 754.847 384.401C745.98 375.244 743.137 361.984 747.445 349.904C748.227 347.708 749.851 344.336 750.559 343.449C750.83 343.105 751.525 342.144 752.11 341.314C752.695 340.49 753.808 339.136 754.583 338.317C759.574 333.062 765.832 329.696 773.21 328.311C775.056 327.961 780.68 327.825 782.742 328.078C792.526 329.284 801.134 334.575 806.623 342.741C807.872 344.6 809.823 348.606 810.531 350.76C811.744 354.427 812.358 358.857 812.186 362.537C811.656 373.564 806.069 383.372 796.944 389.28C795.276 390.357 791.487 392.203 789.733 392.794C787.764 393.452 785.591 393.982 783.74 394.259C781.992 394.517 778.11 394.69 776.675 394.579H776.673ZM782.255 393.041C784.347 392.813 787.159 392.18 789.189 391.478C807.274 385.244 815.877 364.778 807.68 347.499C800.062 331.426 780.661 324.676 764.76 332.553C759.972 334.922 756.139 338.128 752.896 342.465C751.414 344.447 749.346 348.557 748.447 351.295C744.62 362.969 747.814 375.755 756.686 384.271C761.701 389.089 767.787 392.018 774.722 392.959C776.734 393.231 780.156 393.267 782.255 393.039V393.041ZM775.504 390.432C772.021 390.026 768.415 388.911 765.198 387.25C762.33 385.774 760.404 384.346 757.948 381.897C755.5 379.448 754.078 377.522 752.594 374.654C750.748 371.073 749.801 367.787 749.358 363.418C748.767 357.678 750.41 350.834 753.635 345.592C757.21 339.771 762.945 335.23 769.431 333.07C778.088 330.19 787.59 331.471 795.158 336.529C799.564 339.476 802.973 343.377 805.293 348.128C810.406 358.589 808.887 371.061 801.398 380.052C795.195 387.504 785.104 391.546 775.504 390.433V390.432ZM776.673 376.605V364.151L776.254 364.101C775.904 364.058 775.091 364.828 770.655 369.394C759.979 380.371 759.677 380.679 759.161 380.679C758.736 380.679 758.687 380.618 758.687 380.18C758.687 379.743 759.641 378.704 766.539 371.621C770.858 367.19 774.494 363.399 774.618 363.208C774.779 362.937 774.791 362.741 774.662 362.403L774.49 361.953H750.658L750.763 363.43C751.002 366.772 751.981 370.211 753.649 373.595C755.107 376.549 756.522 378.505 758.934 380.918C760.005 381.994 761.586 383.366 762.429 383.976C765.044 385.835 768.866 387.576 772.183 388.412C773.426 388.726 775.899 389.126 776.355 389.089C776.674 389.059 776.674 388.942 776.674 376.604L776.673 376.605ZM784.328 388.654C788.82 387.707 793.737 385.356 796.697 382.741L797.509 382.022L796.949 381.554C796.635 381.296 792.438 377.315 787.614 372.7C781.824 367.168 778.71 364.301 778.452 364.264L778.058 364.214V389.191L780.378 389.093C781.726 389.037 783.381 388.853 784.328 388.656V388.654ZM799.816 379.738C803.822 375.178 806.326 369.308 806.806 363.376L806.923 361.954H780.679L780.34 362.718L780.002 363.487L780.617 364.089C780.956 364.415 784.9 368.175 789.374 372.439C793.848 376.703 797.699 380.414 797.921 380.678C798.149 380.942 798.376 381.164 798.443 381.164C798.505 381.164 799.12 380.524 799.815 379.737L799.816 379.738ZM774.611 360.355C774.586 360.281 771.184 356.996 767.067 353.051C762.951 349.107 759.006 345.28 758.293 344.553C757.591 343.821 756.994 343.243 756.982 343.267C756.97 343.292 756.625 343.753 756.219 344.289C753.105 348.449 751.1 353.809 750.767 358.836L750.656 360.491H762.662C769.265 360.491 774.642 360.429 774.611 360.355ZM806.812 358.945C806.487 354.213 804.874 349.567 802.166 345.5C800.898 343.587 798.627 340.91 798.338 340.984C798.233 341.014 795.84 343.415 793.022 346.325C778.82 360.97 780.021 359.678 780.218 360.103L780.39 360.491H806.923L806.812 358.947V358.945ZM776.18 358.848L776.758 358.503L776.714 345.777L776.671 333.052L775.858 333.107C773.274 333.285 769.403 334.381 766.56 335.747C763.729 337.107 759.945 339.876 758.216 341.839L757.675 342.461L758.105 342.738C758.597 343.064 760.253 344.614 769.089 353.057C772.621 356.43 775.525 359.186 775.556 359.186C775.575 359.186 775.858 359.033 776.178 358.848H776.18ZM785.059 352.51C788.395 349.065 792.523 344.843 794.222 343.126C795.92 341.416 797.267 339.932 797.206 339.84C796.997 339.495 794.444 337.667 792.935 336.787C788.979 334.455 783.717 332.978 779.404 332.973H778.055V345.747C778.055 357.74 778.074 358.528 778.344 358.687C778.498 358.779 778.702 358.841 778.806 358.817C778.898 358.798 781.71 355.961 785.057 352.51H785.059ZM712.32 347.433C711.895 346.879 711.323 346.16 711.046 345.846C710.769 345.526 709.538 343.969 708.307 342.382C705.698 339.015 703.194 336.339 700.874 334.419C693.718 328.499 684.272 324.302 669.467 320.451C659.763 317.934 651.578 316.95 643.579 317.35C636.878 317.682 634.232 318.23 618.584 322.524C610.628 324.709 606.56 325.453 601.883 325.601C598.419 325.706 596.892 325.539 594.652 324.826C589.681 323.232 585.97 318.722 585.262 313.423C584.659 308.882 587.034 304.322 590.794 302.826C591.533 302.532 592.049 302.457 593.348 302.451C594.813 302.445 595.071 302.495 595.907 302.901C597.784 303.824 598.935 305.701 599.088 308.094C599.156 309.159 599.113 309.454 598.805 310.101C597.747 312.279 594.658 312.304 593.612 310.137C593.126 309.14 593.157 308.217 593.698 307.578C594.436 306.698 595.36 307.202 594.867 308.218C594.541 308.895 594.664 309.442 595.255 309.941C596.074 310.63 597.126 310.385 597.6 309.394C597.833 308.895 597.846 308.68 597.68 307.77C597.464 306.588 596.911 305.394 596.333 304.859C595.637 304.206 594.426 303.782 593.275 303.788C591.731 303.8 590.549 304.298 589.287 305.473C584.69 309.775 586.198 318.217 592.259 322.136C595.046 323.946 598.518 324.592 603.2 324.191C608.124 323.772 611.514 323.047 621.6 320.247C634.959 316.542 638.429 315.958 646.914 315.964C654.969 315.97 659.91 316.616 668.679 318.819C681.902 322.136 691.17 325.853 698.203 330.658C702.763 333.778 706.117 337.114 710.492 342.897C711.064 343.654 711.655 344.393 711.802 344.54C711.949 344.693 712.387 345.229 712.768 345.734C713.149 346.239 713.512 346.65 713.574 346.65C713.629 346.65 713.973 346.269 714.324 345.807C714.681 345.34 715.087 344.847 715.228 344.705C715.376 344.564 716.25 343.462 717.173 342.249C721.34 336.804 724.706 333.5 729.129 330.527C736.26 325.746 745.405 322.097 758.487 318.817C763.958 317.445 768.228 316.663 773.009 316.171C775.711 315.894 784.879 315.888 787.255 316.166C791.956 316.72 796.909 317.833 806.465 320.491C817.105 323.45 821.258 324.232 826.409 324.232C830.359 324.232 832.47 323.716 834.869 322.159C840.949 318.226 842.475 309.771 837.878 305.471C836.696 304.363 835.478 303.828 834.075 303.791C831.46 303.717 829.842 305.182 829.405 308.013C829.313 308.634 829.349 308.751 829.81 309.206C830.346 309.748 830.746 309.754 831.337 309.237C831.736 308.887 831.687 308.474 831.214 308.16C830.229 307.514 831.214 306.523 832.279 307.089C832.679 307.305 833.085 308.086 833.085 308.646C833.085 309.31 832.463 310.264 831.78 310.645C830.611 311.304 829.165 310.965 828.488 309.876C828.193 309.39 828.119 309.058 828.131 308.061C828.161 304.018 831.811 301.446 835.798 302.665C839.071 303.662 841.335 306.621 841.907 310.664C842.541 315.169 839.87 320.59 835.656 323.328C833.177 324.94 830.371 325.648 826.426 325.648C821.608 325.648 816.679 324.756 807.499 322.22C791.881 317.912 788.577 317.316 780.338 317.316C771.556 317.31 764.585 318.435 753.287 321.66C743.281 324.521 736.389 327.444 730.44 331.358C725.671 334.489 722.815 337.247 718.243 343.118C714.341 348.133 714.077 348.441 713.567 348.441C713.178 348.441 712.958 348.256 712.317 347.431L712.32 347.433ZM709.188 322.377C701.791 321.928 693.017 320.309 684.119 317.737C676.186 315.447 669.627 312.888 663.487 309.682C662.127 308.974 660.822 308.389 660.589 308.389C660.053 308.389 659.641 308.173 657.315 306.654C655.02 305.158 652.872 304.125 651.273 303.743C650.349 303.521 649.654 303.479 648.097 303.546C645.821 303.644 644.996 303.866 640.731 305.545C637.587 306.783 636.46 307.083 634.633 307.194C631.255 307.403 627.895 305.846 625.058 302.77C621.729 299.151 620.892 295.128 622.688 291.318C623.821 288.906 627.069 286.893 629.814 286.899C632.349 286.905 634.804 288.475 635.604 290.597C636.096 291.926 636.017 293.926 635.407 295.224C634.583 296.996 633.02 298.098 631.136 298.252C629.37 298.394 627.98 297.711 627.234 296.351C626.754 295.471 626.705 295.077 627.018 294.641C627.351 294.191 627.806 294.444 628.273 295.318C628.845 296.4 629.541 296.825 630.741 296.825C631.94 296.825 632.698 296.462 633.522 295.545C634.999 293.915 634.943 291.312 633.392 289.767C632.34 288.715 631.183 288.309 629.467 288.395C628.371 288.456 627.947 288.561 627.03 289.011C624.526 290.241 623.197 292.45 623.203 295.348C623.203 297.797 624.322 300.086 626.642 302.363C628.993 304.677 630.937 305.624 633.589 305.747C635.7 305.845 636.666 305.611 640.653 304.054C645.017 302.356 645.927 302.134 648.703 302.128L650.985 302.122L649.6 301.082C645.256 297.821 639.527 292.338 636.832 288.849C631.539 282.013 627.639 273.774 625.848 265.65C624.685 260.383 624.039 253.805 624.039 247.264C624.039 242.581 624.199 240.133 624.771 236.181C625.91 228.354 628.894 219.111 632.912 210.946C635.965 204.755 638.992 200.559 643.657 196.073C652.069 187.993 660.702 184.307 674.51 182.917C678.498 182.517 686.521 182.517 689.813 182.917C697.172 183.808 703.462 185.907 708.305 189.064C708.976 189.501 709.554 189.858 709.597 189.858C709.641 189.858 709.678 189.587 709.678 189.25C709.678 188.912 709.856 188.339 710.078 187.945L710.477 187.249L710.072 185.625C709.093 181.656 707.875 179.33 705.229 176.382C704.718 175.816 704.299 175.213 704.299 175.041C704.299 174.869 704.484 174.605 704.712 174.456C705.1 174.209 705.173 174.209 705.85 174.468C707.093 174.942 709.05 176.327 710.355 177.662L711.598 178.936L711.77 177.926C712.078 176.136 712.583 172.234 712.7 170.812C712.822 169.256 712.946 169.022 713.585 169.022C713.832 169.022 714.102 169.108 714.194 169.225C714.286 169.336 714.403 170.086 714.465 170.893C714.57 172.253 715.253 177.465 715.475 178.517L715.567 178.984L716.625 177.833C717.738 176.609 720.04 174.953 721.296 174.474C721.992 174.209 722.071 174.209 722.453 174.455C722.681 174.602 722.866 174.868 722.866 175.046C722.866 175.224 722.416 175.858 721.869 176.467C719.316 179.273 718.122 181.538 717.173 185.322L716.699 187.211L717.093 187.993C717.315 188.424 717.493 189.021 717.493 189.317C717.493 189.613 717.524 189.858 717.567 189.858C717.611 189.858 718.25 189.464 718.989 188.984C723.788 185.87 730.083 183.785 737.339 182.911C740.526 182.523 748.815 182.53 752.66 182.917C766.395 184.301 774.966 187.938 783.366 195.937C789.316 201.605 793.334 207.851 797.02 217.166C800.201 225.221 801.967 231.978 802.835 239.436C803.16 242.223 803.112 252.567 802.755 256.043C801.764 265.766 800.09 271.826 796.367 279.242C793.364 285.229 790.03 289.751 785.032 294.625C782.306 297.296 780.719 298.669 777.968 300.754L776.172 302.114L778.454 302.126C780.669 302.126 782.362 302.409 783.795 303.006C785.666 303.794 789.598 305.234 790.496 305.479C791.892 305.848 794.071 305.873 795.4 305.529C798.009 304.846 801.068 302.415 802.643 299.757C803.683 298.003 803.984 296.853 803.916 294.952C803.861 293.537 803.787 293.18 803.331 292.22C802.685 290.841 801.535 289.697 800.076 288.978C799.06 288.479 798.869 288.442 797.35 288.442C795.831 288.442 795.651 288.479 794.846 288.922C792.933 289.987 792.151 291.882 792.778 293.968C793.32 295.772 794.655 296.824 796.409 296.824C797.639 296.824 798.329 296.393 798.895 295.273C799.375 294.313 799.917 294.11 800.219 294.774C800.366 295.106 800.354 295.328 800.132 295.906C799.524 297.5 797.948 298.404 796.035 298.251C790.681 297.821 789.359 290.171 794.208 287.692C796.367 286.59 798.718 286.665 801.05 287.901C802.884 288.879 804.145 290.332 804.927 292.35C805.463 293.747 805.482 296.424 804.964 298.048C803.948 301.26 800.92 304.596 797.58 306.183C795.882 306.989 794.288 307.303 792.467 307.186C790.67 307.069 789.433 306.731 786.277 305.482C782.154 303.851 781.342 303.636 779.034 303.549C775.754 303.42 773.804 304.085 769.73 306.719C767.263 308.306 767.115 308.387 766.574 308.387C766.335 308.387 765.103 308.928 763.835 309.593C757.737 312.799 751.276 315.341 743.517 317.587C730.268 321.433 719.199 322.971 709.187 322.375L709.188 322.377ZM721.403 320.703C734.202 319.257 748.793 315.246 759.253 310.292C773.289 303.646 784.045 295.333 790.728 285.985C795.755 278.933 799.195 270.516 800.604 261.826C802.339 251.082 802.136 240.246 800.032 231.139C798.611 224.979 795.478 216.347 792.611 210.679C789.319 204.181 784.562 198.366 778.796 193.788C772.027 188.41 764.563 185.659 753.277 184.379C750.066 184.016 740.171 183.966 737.439 184.305C728.762 185.37 721.637 188.188 716.394 192.631C715.742 193.178 714.873 193.782 714.462 193.961C713.379 194.441 712.671 194.2 710.954 192.767C704.978 187.782 697.453 184.97 687.891 184.159C684.968 183.906 676.925 184.042 673.805 184.392C663.16 185.592 655.886 188.153 649.481 192.952C644.269 196.86 639.58 202.028 636.362 207.419C632.154 214.477 627.883 226.193 626.425 234.721C625.668 239.109 625.453 241.816 625.447 247.009C625.428 258.159 626.985 267.131 630.265 274.854C634.332 284.435 640.13 291.825 649.199 299.013C655.869 304.298 666.325 310.077 675.111 313.332C685.128 317.049 697.675 320.008 706.586 320.76C707.706 320.858 708.876 320.963 709.189 320.993C710.538 321.147 719.349 320.938 721.404 320.704L721.403 320.703ZM760.343 307.707C759.863 307.227 760.268 306.816 761.9 306.12C762.552 305.842 763.413 305.572 763.832 305.517C764.503 305.425 764.576 305.443 764.521 305.72C764.484 305.923 763.862 306.353 762.755 306.95C760.945 307.928 760.656 308.021 760.343 307.707ZM768.237 302.908C768.176 302.852 768.126 302.644 768.126 302.453C768.126 302.2 768.551 301.781 769.634 300.976C771.535 299.549 772.907 298.256 774.347 296.545C775.043 295.708 775.59 295.204 775.787 295.204C775.959 295.204 776.107 295.272 776.107 295.358C776.107 295.677 773.651 298.761 772.643 299.702C770.908 301.326 768.834 303.019 768.582 303.019C768.452 303.019 768.293 302.969 768.237 302.908ZM706.451 286.718C699.005 286.102 691.626 283.992 689.904 281.98C688.919 280.823 687.726 276.522 687.142 272.004C684.718 253.236 690.298 224.302 699.701 206.876C701.08 204.334 703.535 200.637 704.728 199.326L705.67 198.293L706.5 198.391C706.949 198.446 708.124 198.6 709.109 198.729C711.404 199.037 715.768 199.037 718.063 198.729C719.048 198.6 720.228 198.446 720.678 198.391L721.502 198.293L722.438 199.326C724.376 201.467 726.61 205.08 728.886 209.768C738.092 228.684 742.793 257.396 739.556 274.908C738.86 278.65 737.888 281.474 737.008 282.286C734.91 284.207 727.748 286.12 720.376 286.73C717.964 286.927 708.918 286.921 706.451 286.718ZM721.864 285.191C727.796 284.539 733.119 283.143 735.629 281.573C736.337 281.129 736.46 280.957 736.817 279.96C737.802 277.167 738.614 272.835 738.977 268.453C739.193 265.788 739.199 259.241 738.977 255.882C737.648 235.292 730.811 212.801 722.461 201.578C721.034 199.658 721.126 199.713 719.76 199.941C719.12 200.046 717.465 200.218 716.093 200.322C713.478 200.519 710.001 200.365 707.392 199.934L706.198 199.737L705.571 200.456C704.044 202.216 701.724 205.944 699.903 209.569C694.063 221.236 689.861 237.21 688.323 253.603C687.978 257.227 688.034 267.972 688.403 270.943C688.791 274.038 689.35 276.764 690.088 279.128L690.685 281.048L691.602 281.602C694.771 283.528 701.681 285.072 709.028 285.497C711.397 285.633 719.63 285.436 721.863 285.189L721.864 285.191ZM718.104 251.04C717.833 250.751 716.732 249.194 715.661 247.581C714.031 245.133 713.237 243.687 710.825 238.788C707.742 232.518 706.967 230.745 707.133 230.321C707.398 229.626 707.761 230.224 712.468 239.195C714.8 243.638 716.843 246.992 719.207 250.253C719.681 250.905 719.693 250.98 719.354 251.318C718.973 251.699 718.653 251.626 718.105 251.041L718.104 251.04ZM716.128 240.308C715.538 239.398 713.236 234.457 713.292 234.191C713.452 233.355 714.246 234.4 716.381 238.271C717.131 239.631 717.335 240.13 717.211 240.326C716.953 240.739 716.406 240.726 716.128 240.307V240.308ZM675.165 285.007C667.799 284.497 662.674 282.663 655.837 278.085C651.457 275.156 647.727 271.267 645.241 267.046C642.761 262.843 640.675 256.573 639.659 250.297C638.89 245.534 638.619 237.885 639.081 233.928C640.127 224.938 643.98 216.656 650.564 209.253C653.376 206.091 660.348 200.509 664.933 197.746C670.483 194.404 675.855 192.958 682.735 192.958C685.511 192.958 687.135 193.111 692.42 193.863C696.82 194.49 698.574 194.859 700.211 195.5C701.472 195.999 701.982 196.429 702.118 197.118C702.192 197.483 701.32 198.728 699.503 200.854C687.012 215.504 679.83 241.737 681.935 265.083C682.415 270.406 683.535 276.3 684.772 280.061C685.13 281.132 685.419 282.19 685.419 282.398C685.419 283.334 683.972 284.214 681.671 284.681C680.422 284.939 676.78 285.124 675.167 285.006L675.165 285.007ZM680.377 283.481C681.466 283.328 683.361 282.785 683.786 282.515C683.983 282.385 683.952 282.158 683.57 280.983C682.327 277.161 681.177 271.415 680.586 266.061C680.347 263.888 680.291 262.092 680.297 256.701C680.303 249.582 680.433 247.662 681.275 241.816C683.773 224.524 690.598 208.439 699.588 198.637C700.302 197.855 700.837 197.179 700.77 197.142C700.426 196.951 697.897 196.195 696.9 195.985C694.648 195.517 687.504 194.582 685.104 194.441C679.005 194.077 673.781 194.951 669.007 197.13C665.357 198.792 659.032 203.259 654.324 207.498C647.709 213.454 642.675 222.223 640.996 230.727C639.088 240.351 640.676 253.852 644.804 263.169C647.235 268.639 651.272 273.341 656.65 276.947C662.649 280.971 667.523 282.86 673.455 283.469C675.301 283.653 679.122 283.666 680.377 283.481ZM672.15 243.392C672.009 243.189 671.375 242.143 670.741 241.072C670.1 239.995 668.076 236.844 666.242 234.069C661.99 227.638 659.694 223.841 659.694 223.233C659.694 222.592 659.983 222.475 660.433 222.938C660.955 223.467 670.598 238.063 671.91 240.303C672.487 241.293 673.048 242.081 673.153 242.051C673.35 241.983 673.528 242.456 673.534 243.06C673.534 243.749 672.568 243.984 672.149 243.393L672.15 243.392ZM669.744 232.297C669.208 231.719 667.313 227.836 667.288 227.27C667.252 226.457 667.615 226.587 668.212 227.59C668.52 228.106 669.221 229.263 669.775 230.155C670.784 231.804 670.968 232.407 670.513 232.586C670.144 232.728 670.138 232.728 669.744 232.297ZM747.197 284.946C744.76 284.694 742.564 283.919 742.009 283.125C741.646 282.608 741.684 282.171 742.225 280.571C743.677 276.307 744.773 270.498 745.351 263.945C745.609 261.064 745.609 252.82 745.351 249.62C744.293 236.365 741.16 224.427 735.98 213.88C733.106 208.029 730.373 203.863 726.688 199.715C724.731 197.512 724.62 197.192 725.513 196.312C726.559 195.272 729.574 194.547 737.112 193.519C745.955 192.307 752.933 193.107 759.092 196.036C763.031 197.913 769.11 202.24 773.836 206.522C781.042 213.057 786.1 222.189 787.781 231.709C788.347 234.933 788.482 241.296 788.083 245.548C787.277 254.014 785.068 261.738 781.929 267.054C779.178 271.718 774.97 275.866 769.561 279.244C765.936 281.509 762.374 283.097 758.933 283.977C755.672 284.807 750.159 285.262 747.205 284.948H747.199L747.197 284.946ZM753.473 283.475C759.522 282.848 764.02 281.186 769.669 277.5C773.084 275.272 775.595 273.094 777.81 270.447C782.512 264.818 785.459 256.7 786.628 246.154C787.022 242.671 787.016 236.068 786.628 233.417C785.335 224.574 781.681 216.981 775.398 210.051C771.54 205.799 762.919 199.326 758.199 197.148C753.48 194.963 748.243 194.089 742.028 194.446C739.672 194.582 732.533 195.517 730.269 195.985C729.272 196.193 726.749 196.951 726.404 197.142C726.337 197.178 726.866 197.849 727.573 198.624C737.591 209.59 744.588 227.527 746.569 247.335C746.92 250.868 747.049 259.432 746.809 262.884C746.569 266.343 746.107 270.084 745.579 272.958C745.135 275.364 744.058 279.702 743.622 280.877C743.062 282.378 743.075 282.428 744.121 282.815C745.031 283.159 746.034 283.406 747.044 283.534C748.077 283.664 751.998 283.626 753.474 283.473L753.473 283.475ZM771.096 246.819C770.998 246.703 770.696 246.037 770.425 245.349C769.576 243.22 767.286 238.192 764.985 233.417C763.779 230.912 762.229 227.552 761.54 225.964C760.247 222.967 760.075 222.18 760.715 222.18C761.073 222.18 761.19 222.402 766.014 232.359C770.291 241.201 772.242 245.662 772.167 246.444C772.124 246.832 772.032 246.943 771.693 246.98C771.465 247.005 771.194 246.936 771.096 246.819ZM770.173 232.316C769.809 231.756 768.124 227.387 768.124 227.006C768.124 226.772 768.229 226.661 768.449 226.661C768.714 226.661 769.01 227.142 769.907 228.982C771.181 231.615 771.342 232.095 771.051 232.446C770.768 232.79 770.449 232.741 770.172 232.316H770.173ZM799.783 249.386C799.519 249.195 799.5 248.937 799.598 246.519C799.703 243.812 799.851 243.232 800.275 243.805C800.515 244.131 800.798 248.518 800.62 249.09C800.478 249.526 800.14 249.644 799.782 249.385L799.783 249.386ZM798.584 240.359C798.486 240.181 798.406 239.609 798.406 239.085C798.406 237.984 797.932 234.981 797.365 232.501C796.769 229.88 796.694 229.265 796.99 229.265C797.335 229.265 797.624 230.089 798.467 233.442C799.261 236.593 799.599 238.691 799.519 239.86C799.475 240.457 799.408 240.593 799.113 240.629C798.892 240.666 798.689 240.562 798.584 240.358V240.359ZM714.524 191.798C716.223 190.974 716.629 188.667 715.201 187.904C714.66 187.609 712.34 187.67 711.854 187.99C710.506 188.876 710.937 190.949 712.648 191.798C713.509 192.223 713.638 192.223 714.524 191.798ZM713.589 186.199C713.989 186.199 714.586 186.255 714.905 186.322L715.496 186.452L715.699 185.442C716.166 183.024 717.329 180.224 718.683 178.23C719.311 177.307 719.317 177.283 718.861 177.609C717.932 178.28 716.351 180.224 715.939 181.196C715.76 181.626 715.631 181.718 715.219 181.718C714.567 181.718 714.505 181.552 714.075 178.629C713.884 177.33 713.687 176.156 713.638 176.02C713.589 175.89 713.344 177.036 713.097 178.568C712.851 180.1 712.605 181.441 712.537 181.54C712.481 181.638 712.211 181.718 711.952 181.718C711.552 181.718 711.416 181.607 711.127 181.029C710.641 180.069 709.306 178.42 708.499 177.78L707.822 177.244L708.48 178.222C709.816 180.185 710.714 182.302 711.311 184.868L711.675 186.449L712.266 186.327C712.592 186.252 713.182 186.197 713.589 186.197V186.199Z" fill="#18292D" stroke="#18292D" stroke-width="0.785274"/>
<path d="M683.293 58.4276C686.794 54.935 700.921 49.0264 709.408 63.88C713.629 71.2667 727.935 66.4546 732.665 66.0698C739.997 65.4746 744.752 79.001 735.786 91.6563C733.211 95.292 686.241 79.4852 678.119 68.9729C676.74 67.1871 678.528 63.178 683.292 58.4259L683.293 58.4276Z" stroke="#18292D" stroke-width="1.5" stroke-linecap="round" stroke-linejoin="round"/>
<path d="M680.797 53.217C685.572 50.0757 702.8 46.1558 708.568 63.5C711.436 72.1247 728.591 69.4108 733.963 69.8054C742.289 70.4173 744.224 85.7043 731.072 97.7222C727.295 101.175 678.841 76.2578 672.403 63.6233C671.309 61.4777 674.302 57.4911 680.799 53.2159L680.797 53.217Z" fill="#18292D"/>
<path d="M747.699 109.936C755.522 104.459 757.423 93.6774 751.945 85.855C746.468 78.0325 735.686 76.1314 727.864 81.6088C720.042 87.0861 718.14 97.8677 723.618 105.69C729.095 113.513 739.877 115.414 747.699 109.936Z" fill="#18292D"/>
<path d="M749.854 109.455C757.676 103.978 759.577 93.1965 754.1 85.374C748.622 77.5515 737.841 75.6504 730.018 81.1278C722.196 86.6051 720.295 97.3868 725.772 105.209C731.249 113.032 742.031 114.933 749.854 109.455Z" stroke="#18292D" stroke-width="1.5" stroke-linecap="round" stroke-linejoin="round"/>
<path d="M739.074 87.0313C740.741 81.1998 737.364 75.1214 731.533 73.4547C725.701 71.7881 719.623 75.1644 717.956 80.9958C716.29 86.8273 719.666 92.9058 725.497 94.5724C731.329 96.2391 737.407 92.8628 739.074 87.0313Z" fill="#18292D"/>
<path d="M731.805 78.9565C734.237 87.6079 739.699 103.15 734.724 109.591C729.282 116.64 710.926 127.578 703.732 111.86C702.259 108.304 702.633 103.802 702.097 100.376C701.264 95.0531 698.26 93.1275 689.382 90.5563C680.505 87.9865 675.168 88.8097 670.501 79.5958C666.74 72.1707 671.328 60.9638 674.501 58.0668C684.84 48.6294 703.399 58.0665 707.654 62.3008C711.909 66.535 709.335 71.6688 715.147 74.0707C718.799 75.5796 725.507 76.6558 731.805 78.9565Z" fill="#18292D"/>
<path d="M604.822 169.321L616.371 171.641L618.957 173.32C639.878 186.9 687.113 176.876 688.193 158.231L643.472 147.518L616.797 138.235C594.854 130.6 568.044 123.229 544.937 121.87C539.237 134.608 541.934 151.196 546.233 163.973C565.847 163.654 585.49 165.436 604.82 169.319L604.822 169.321Z" fill="#18292D"/>
<path d="M549.961 236.704C554.411 208.201 571.717 165.926 583.734 139.84C572.508 130.42 559.375 124.099 545.22 121.907C535.677 138.743 518.924 171.142 512.961 189.647L502.535 222.001L471.594 240.481L547.328 253.506L549.96 236.702L549.961 236.704Z" fill="#18292D"/>
<path d="M499.831 229.598L493.146 223.6" stroke="white" stroke-width="1.21168" stroke-miterlimit="10"/>
<path d="M497.259 231.524L490.574 225.528" stroke="white" stroke-width="1.21168" stroke-miterlimit="10"/>
<path d="M498.93 225.289C498.942 225.451 505.477 218.963 509.516 218.351C518.864 216.937 520.909 225.238 516.633 227.737C511.431 230.775 498.919 225.127 498.93 225.289Z" stroke="white" stroke-width="1.21168" stroke-linejoin="round"/>
<path d="M498.832 225.224C498.933 225.242 495.814 220.198 496.329 217.686C496.615 216.296 497.556 214.892 498.903 213.844C499.752 213.185 501.041 212.651 501.808 213.112C502.018 213.238 502.159 213.424 502.286 213.613C504.398 216.75 498.732 225.205 498.832 225.224Z" stroke="white" stroke-width="1.21168" stroke-linejoin="round"/>
<path d="M655.756 193.259C655.756 193.259 688.724 193.773 687.658 159.212C687.571 156.396 660.064 160.228 660.064 160.228C636.94 157.982 613.66 158.957 590.885 163.086C588.35 176.809 590.37 190.481 597.561 201.882C616.547 196.947 636.055 194.045 655.756 193.259Z" fill="#18292D"/>
<path d="M618.337 271.68C615.939 242.931 622.786 197.767 628.312 169.584C615.182 163.077 600.928 160.033 586.655 161.24C581.351 179.853 572.712 215.288 571.282 234.677L568.781 268.579L543.072 293.835L619.743 288.632L618.338 271.682L618.337 271.68Z" fill="#18292D"/>
<path d="M567.942 276.596L560.033 272.345" stroke="white" stroke-width="1.21168" stroke-miterlimit="10"/>
<path d="M565.899 279.076L557.99 274.825" stroke="white" stroke-width="1.21168" stroke-miterlimit="10"/>
<path d="M566.053 272.622C566.104 272.776 570.922 264.931 574.705 263.384C583.455 259.805 587.4 267.389 583.834 270.826C579.495 275.005 566.004 272.468 566.053 272.622Z" stroke="white" stroke-width="1.21168" stroke-linejoin="round"/>
<path d="M565.941 272.582C566.043 272.577 561.823 268.409 561.731 265.846C561.68 264.428 562.264 262.842 563.326 261.507C563.995 260.666 565.122 259.843 565.976 260.109C566.209 260.182 566.39 260.33 566.558 260.483C569.35 263.034 565.839 272.587 565.941 272.582Z" stroke="white" stroke-width="1.21168" stroke-linejoin="round"/>
<path d="M653.751 152.517L632.224 149.953C621.568 148.684 610.851 147.984 600.118 147.857L592.287 147.765L585.856 165.965" stroke="white" stroke-width="1.21168" stroke-linejoin="round"/>
<path d="M630.938 40.5145C630.915 40.4672 630.886 40.4217 630.854 40.3802L622.713 33.2763C622.56 33.0738 618.482 31.2352 618.228 31.2049L611.355 29.1267C605.402 28.4627 599.273 29.7549 594.096 32.7662L592.215 33.8592C592.186 33.8757 592.157 33.895 592.13 33.9148C586.279 38.2333 582.68 45.1522 582.507 52.429L581.911 88.3543C581.904 88.779 582.186 89.1512 582.589 89.264C582.613 89.271 582.637 89.2768 582.661 89.281L608.199 94.2473C608.493 94.3034 608.794 94.2156 609.013 94.0124C609.23 93.8076 609.336 93.511 609.297 93.215L604.884 59.8428L617.563 55.0488L624.123 53.6138C625.512 53.3104 626.476 52.2011 626.578 50.7874C626.681 49.3622 625.881 48.1131 624.54 47.6075C623.833 47.3432 623.083 47.1807 622.312 47.1297C619.163 46.9284 613.611 46.3726 612.01 45.9522C612.064 45.7458 612.394 44.2801 612.418 44.0655L611.436 39.5552C611.468 39.25 609.709 37.4432 609.488 37.2489L619.9 38.1926L623.399 42.3841C624.804 44.0695 627.009 44.8208 629.149 44.3435C629.964 44.1619 630.633 43.6251 630.986 42.87C631.34 42.1149 631.323 41.2558 630.939 40.5161L630.938 40.5145Z" fill="white"/>
<path d="M612.116 46.091C612.116 46.091 618.263 47.8009 622.252 48.0552C622.976 48.1009 623.628 48.2547 624.211 48.4741C626.278 49.2531 626.081 52.233 623.923 52.7044L617.297 54.1536L603.867 59.2312L608.377 93.3326" stroke="#18292D" stroke-width="1.5" stroke-linecap="round" stroke-linejoin="round"/>
<path d="M582.84 88.3698L583.436 52.4444C583.605 45.4071 587.017 38.8411 592.683 34.6625L594.562 33.5692C599.605 30.6377 605.456 29.4044 611.252 30.0509L613.514 30.303C619.469 30.9672 624.89 34.0472 628.509 38.8225L630.114 40.9417C630.638 41.955 630.06 43.19 628.947 43.4371C627.155 43.8361 625.288 43.2005 624.111 41.7898L620.339 37.2696L608.207 37.1005" stroke="#18292D" stroke-width="1.5" stroke-linecap="round" stroke-linejoin="round"/>
<path d="M677.207 160.575L645.382 151.724C639.536 150.097 635.665 144.551 636.158 138.502L637.955 116.443L613.416 131.83C598.527 141.165 579.307 129.791 580.327 112.245L582.619 72.8054L606.088 71.0997L610.808 101.085L638.337 87.3184C644.944 84.1749 652.566 83.9431 659.352 86.6794L695.91 101.42C704.604 104.926 710.758 112.815 712.042 122.1L716.585 154.958C717.699 163.012 712.085 170.447 704.033 171.582C696.527 172.64 689.44 167.836 687.645 160.471L683.976 145.421L677.207 160.572L677.207 160.575Z" fill="#96D8E8" stroke="#18292D" stroke-width="1.5" stroke-linecap="round" stroke-linejoin="round"/>
<path d="M645.442 86.9036L613.646 73.7536C609.607 72.0832 607.687 67.4564 609.358 63.418L622.508 31.6217C624.178 27.5833 628.805 25.6635 632.843 27.334L664.64 40.4839C668.678 42.1544 670.598 46.7812 668.927 50.8196L655.778 82.6159C654.107 86.6543 649.48 88.574 645.442 86.9036Z" fill="#4A7C88"/>
<path d="M642.037 48.2294C640.509 51.9273 636.272 53.6842 632.574 52.1558C628.876 50.626 627.119 46.3905 628.648 42.6926C630.178 38.9949 634.413 37.2378 638.111 38.7663C641.809 40.2947 643.566 44.5315 642.037 48.2294Z" fill="white"/>
<path d="M609.359 63.4185L612.344 56.2014L616.934 54.2981C620.326 52.8903 624.217 54.5002 625.625 57.8927C626.957 61.1048 630.641 62.628 633.853 61.2949L651.873 53.8191C656.152 52.0438 661.058 54.0731 662.833 58.3521L664.326 61.9495L655.779 82.615C654.109 86.6534 649.482 88.5731 645.444 86.9027L613.647 73.7527C609.609 72.0823 607.689 67.4555 609.36 63.4171L609.359 63.4185Z" fill="#18292D"/>
<path d="M611.254 30.0499L613.688 30.3209C619.534 30.9731 624.855 33.9965 628.406 38.6836L630.116 40.9408C630.639 41.9541 630.062 43.1891 628.949 43.4361C627.156 43.8352 625.29 43.1995 624.112 41.7889C621.717 38.9202 618.19 37.2392 614.453 37.1875L608.506 36.9749" fill="white"/>
<path d="M611.254 30.0499L613.688 30.3209C619.534 30.9731 624.855 33.9965 628.406 38.6836L630.116 40.9408C630.639 41.9541 630.062 43.1891 628.949 43.4361C627.156 43.8352 625.29 43.1995 624.112 41.7889C621.717 38.9202 618.19 37.2392 614.453 37.1875L608.506 36.9749" stroke="#18292D" stroke-width="1.5" stroke-linecap="round" stroke-linejoin="round"/>
<path d="M602.51 34.8359L608.57 37.1752C611.041 38.1289 612.564 40.6237 612.282 43.2578L612.137 44.6208C612.026 45.6589 611.451 46.5922 610.574 47.1585C609.504 47.8477 608.143 47.8941 607.03 47.2791L606.894 47.2032" stroke="#18292D" stroke-width="1.5" stroke-linecap="round" stroke-linejoin="round"/>
<path d="M598.004 37.6807L603.544 40.0015C605.876 40.9798 607.292 43.3736 607.024 45.8892L606.891 47.1422C606.758 48.3923 606.066 49.5165 605.009 50.1979C604.11 50.7789 602.97 50.8384 602.013 50.3545L600.746 49.7138" stroke="#18292D" stroke-width="1.5" stroke-linecap="round" stroke-linejoin="round"/>
<path d="M594.157 41.5245L599.399 44.1496C600.341 44.5431 600.913 45.5089 600.805 46.5244L600.444 49.9159C600.285 51.4119 599.457 52.7566 598.192 53.5726C597.484 54.0291 596.602 54.1241 595.814 53.831L593.545 52.9849C592.615 52.6381 592.01 51.7343 592.044 50.7416L592.046 50.7332C592.096 49.2397 593.531 48.1875 594.971 48.5869" stroke="#18292D" stroke-width="1.5" stroke-linecap="round" stroke-linejoin="round"/>
<path d="M676.82 166.862L647.668 159.134C643.357 157.991 640.789 153.571 641.932 149.26L649.66 120.108C650.803 115.796 655.223 113.229 659.534 114.372L688.686 122.099C692.997 123.242 695.565 127.662 694.422 131.974L686.695 161.126C685.552 165.437 681.131 168.005 676.82 166.862Z" fill="#4A7C88"/>
<path d="M667.507 125.523C666.731 125.307 666.019 124.838 665.509 124.136C664.306 122.484 664.671 120.169 666.324 118.966L674.51 113.01C675.641 112.187 677.139 112.074 678.382 112.711L685.584 116.417C687.402 117.352 688.117 119.585 687.182 121.401C686.247 123.22 684.015 123.928 682.197 122.999L677.023 120.336L670.682 124.95C669.731 125.642 668.561 125.815 667.51 125.522L667.507 125.523Z" fill="white" stroke="#18292D" stroke-width="1.5" stroke-linecap="round" stroke-linejoin="round"/>
<path d="M683.25 115.281C683.134 115.39 683.023 115.505 682.92 115.632L672.658 128.253C671.421 129.773 671.464 132.037 672.887 133.383C673.346 133.818 673.881 134.111 674.444 134.268C675.818 134.65 677.352 134.213 678.309 133.037L678.353 132.981C678.465 133.899 678.916 134.776 679.69 135.404C680.098 135.737 680.555 135.967 681.031 136.1C682.406 136.482 683.939 136.046 684.896 134.869L684.945 134.809C685.15 135.504 685.556 136.146 686.161 136.637C686.569 136.97 687.026 137.2 687.502 137.333C688.877 137.715 690.41 137.279 691.367 136.102L696.453 129.847C696.501 129.537 696.546 129.23 696.594 128.925C697.191 125.028 695.196 121.194 691.662 119.445L683.25 115.283L683.25 115.281Z" fill="white" stroke="#18292D" stroke-width="1.5" stroke-linecap="round" stroke-linejoin="round"/>
<path d="M678.354 132.981L688.954 118.846" stroke="#18292D" stroke-width="1.5" stroke-linecap="round" stroke-linejoin="round"/>
<path d="M684.946 134.806L694.911 121.922" stroke="#18292D" stroke-width="1.5" stroke-linecap="round" stroke-linejoin="round"/>
<path d="M703.792 145.116L696.455 129.845" stroke="#18292D" stroke-width="1.5" stroke-linecap="round" stroke-linejoin="round"/>
<path d="M695.485 78.2078C702.8 75.1121 706.219 66.6729 703.124 59.3584C700.028 52.044 691.589 48.624 684.274 51.7198C676.96 54.8156 673.54 63.2547 676.636 70.5692C679.731 77.8837 688.171 81.3036 695.485 78.2078Z" fill="#18292D"/>
<path d="M684.215 65.7638C688.882 64.8668 691.939 60.3562 691.042 55.6892C690.144 51.0222 685.634 47.9661 680.967 48.8631C676.3 49.7601 673.244 54.2707 674.141 58.9377C675.038 63.6047 679.548 66.6608 684.215 65.7638Z" fill="#18292D"/>
<path d="M707.453 85.5455C713.076 81.6084 714.442 73.8587 710.505 68.2359C706.568 62.6132 698.818 61.2467 693.196 65.1838C687.573 69.1209 686.206 76.8706 690.143 82.4934C694.08 88.1161 701.83 89.4826 707.453 85.5455Z" fill="#18292D"/>
<path d="M691.996 81.5068C692.142 81.97 692.347 82.4148 692.605 82.8287C693.135 83.682 693.895 84.4075 694.851 84.9041" stroke="#18292D" stroke-width="1.5" stroke-linecap="round" stroke-linejoin="round"/>
<path d="M670.571 83.3796C664.737 78.6771 664.894 68.8042 670.921 61.3277C676.947 53.8512 686.562 51.6022 692.396 56.3061C697.266 60.2329 697.958 67.7615 694.548 74.4921C696.256 73.3586 698.513 73.1638 700.458 74.1888C703.163 75.614 704.305 79.0159 703.002 81.782C701.592 84.7769 697.99 85.9738 695.081 84.4607C694.458 84.1364 693.924 83.7113 693.476 83.2208L688.435 98.0863C689.246 98.5546 683.668 98.7669 678.882 96.5934C674.022 94.3865 669.96 89.7965 671.51 90.3287L673.313 84.9827C672.335 84.5886 671.412 84.059 670.571 83.3796Z" fill="white" stroke="#18292D" stroke-width="1.5" stroke-linejoin="round"/>
<path d="M700.484 76.9652C700.484 76.9652 696.622 75.2093 694.755 79.767" stroke="#18292D" stroke-width="1.5" stroke-linecap="round" stroke-linejoin="round"/>
<path d="M695.081 74.4586C694.947 74.4319 694.812 74.4097 694.678 74.3775C687.197 72.6237 682.919 63.4712 685.122 53.9332C685.147 53.8254 685.177 53.7199 685.203 53.6136C687.964 53.6141 690.58 54.4264 692.707 56.137C697.649 60.1095 698.418 67.6619 695.083 74.4588L695.081 74.4586Z" fill="#18292D"/>
<path d="M673.849 85.1896C677.696 86.6048 682.365 85.9184 686.549 83.4328" stroke="#18292D" stroke-width="1.5" stroke-linecap="round" stroke-linejoin="round"/>
<path d="M675.283 60.639C675.304 61.122 674.237 61.5625 672.897 61.6213C671.558 61.6802 670.455 61.336 670.433 60.853C670.412 60.3701 671.48 59.9295 672.82 59.8708C674.158 59.8118 675.262 60.156 675.283 60.639Z" fill="#18292D"/>
<path d="M684.899 67.8139C684.516 68.2775 683.167 67.7949 681.886 66.7358C680.605 65.6767 679.874 64.4441 680.256 63.9819C680.638 63.5183 681.988 64.001 683.269 65.06C684.552 66.118 685.281 67.3517 684.899 67.8139Z" fill="#18292D"/>
<path d="M676.456 63.8908L673.974 66.9399C673.516 67.5025 673.424 68.236 673.656 68.8626" stroke="#18292D" stroke-width="1.5" stroke-linecap="round" stroke-linejoin="round"/>
<path d="M679.106 67.2752C679.106 67.2752 680.677 67.1837 680.913 69.4098" stroke="#18292D" stroke-width="1.5" stroke-linecap="round" stroke-linejoin="round"/>
<path d="M670.879 63.3892C670.879 63.3892 672.093 62.3887 673.598 64.0457" stroke="#18292D" stroke-width="1.5" stroke-linecap="round" stroke-linejoin="round"/>
<path d="M675.405 72.4111C675.405 72.4111 674.036 73.1858 672.842 71.293" stroke="#18292D" stroke-width="1.5" stroke-linecap="round" stroke-linejoin="round"/>
<path d="M675.453 94.2184L689.428 93.9944L690.553 99.6811L676.335 104.037L675.453 94.2184Z" fill="white" stroke="#18292D" stroke-width="1.5" stroke-linecap="round" stroke-linejoin="round"/>
<path d="M675.334 94.0024L671.921 88.5569L667.612 90.5917L668.521 100.959L675.334 94.0024Z" fill="white" stroke="#18292D" stroke-width="1.5" stroke-linecap="round" stroke-linejoin="round"/>
<path d="M611.771 109.87L610.808 101.084" stroke="#18292D" stroke-width="1.5" stroke-linecap="round" stroke-linejoin="round"/>
<path d="M661.589 140.496L664.246 145.2L677.65 137.628" stroke="white" stroke-width="1.21168" stroke-linecap="round" stroke-linejoin="round"/>
<defs>
<clipPath id="clip0_711_9402">
<rect width="62.3723" height="66.48" fill="white" transform="translate(227 143)"/>
</clipPath>
</defs>
</svg>
