<svg width="700" height="400" viewBox="0 0 700 400" fill="none" xmlns="http://www.w3.org/2000/svg">
<mask id="mask0_532_1805" style="mask-type:alpha" maskUnits="userSpaceOnUse" x="0" y="0" width="700" height="400">
<rect width="700" height="400" fill="white"/>
</mask>
<g mask="url(#mask0_532_1805)">
<ellipse cx="236.714" cy="112.628" rx="236.714" ry="112.628" transform="matrix(0.930064 -0.367398 -0.367398 -0.930064 109.759 414.438)" fill="#F2F7F8"/>
<path d="M464.736 320.293L462.922 320.036C462.931 319.954 463.224 317.891 464.058 314.563L465.835 315.003C465.029 318.23 464.745 320.274 464.736 320.293Z" fill="black"/>
<path d="M578.416 330.002C575.209 330.002 572.085 329.25 569.107 327.774L569.923 326.133C573.038 327.682 576.291 328.351 579.708 328.122L579.983 328.104L580.139 329.928L579.837 329.956C579.36 329.983 578.893 330.002 578.426 330.002H578.416ZM584.766 329.094L584.262 327.334C587.442 326.426 590.548 324.767 593.489 322.401L594.634 323.832C591.501 326.353 588.175 328.122 584.766 329.094ZM565.112 325.298C562.446 323.3 559.835 320.623 557.352 317.322L558.818 316.213C561.2 319.367 563.683 321.925 566.212 323.822L565.112 325.289V325.298ZM598.079 320.696L596.769 319.413C599.106 317.029 601.314 314.196 603.339 310.978L604.887 311.959C602.789 315.278 600.498 318.221 598.07 320.696H598.079ZM554.722 313.536C552.908 310.721 551.148 307.577 549.353 303.919L550.993 303.112C552.761 306.706 554.484 309.786 556.261 312.546L554.722 313.536ZM467.027 310.676L465.276 310.135C466.367 306.577 467.668 303.103 469.161 299.821L470.829 300.582C469.372 303.8 468.089 307.192 467.027 310.676ZM547.392 299.784C545.807 296.3 544.414 292.917 543.177 289.938L543.085 289.718L544.78 289.021L544.872 289.241C546.1 292.211 547.493 295.576 549.059 299.023L547.392 299.784ZM472.799 296.548L471.177 295.695C472.946 292.33 474.925 289.195 477.069 286.353L478.535 287.462C476.455 290.222 474.522 293.284 472.808 296.557L472.799 296.548ZM541.198 285.702C539.475 282.585 537.295 279.779 534.711 277.359L535.957 276.021C538.687 278.569 540.987 281.521 542.801 284.813L541.198 285.702ZM481.357 283.988L479.982 282.777C482.493 279.944 485.233 277.414 488.128 275.278L489.218 276.754C486.424 278.817 483.776 281.256 481.357 283.997V283.988ZM531.284 274.572C528.389 272.509 525.2 270.951 521.81 269.924L522.341 268.173C525.915 269.255 529.287 270.905 532.347 273.087L531.284 274.581V274.572ZM492.92 274.279L491.976 272.711C494.001 271.492 496.145 270.419 498.335 269.52C499.572 269.007 500.846 268.567 502.11 268.191L502.632 269.951C501.423 270.309 500.214 270.74 499.032 271.217C496.924 272.078 494.872 273.114 492.92 274.288V274.279ZM506.948 268.961L506.655 267.155C510.366 266.55 514.141 266.541 517.797 267.128L517.513 268.934C514.049 268.384 510.466 268.393 506.957 268.961H506.948Z" fill="black"/>
<path d="M607.233 307.925L605.62 307.063C607.141 304.221 607.92 302.214 607.929 302.195L609.633 302.855C609.597 302.938 608.809 304.973 607.233 307.925Z" fill="black"/>
<path d="M470.454 232.005L470.389 230.171C470.389 230.171 474.98 229.997 481.183 228.824L481.522 230.621C475.163 231.822 470.637 231.996 470.454 231.996V232.005ZM486.057 229.649L485.627 227.87C489.319 226.972 492.801 225.844 495.962 224.542L496.659 226.238C493.415 227.577 489.842 228.723 486.057 229.649ZM500.892 224.295L500.058 222.663C503.476 220.921 506.472 218.913 508.973 216.676L510.192 218.042C507.571 220.38 504.447 222.48 500.892 224.286V224.295ZM513.481 214.687L512.088 213.495C514.306 210.91 516.322 207.902 518.09 204.547L519.712 205.409C517.879 208.883 515.781 212.01 513.481 214.687ZM521.727 201.201L520.042 200.476C520.674 199 521.251 197.506 521.764 195.984C520.454 195.828 519.144 195.627 517.861 195.379L518.2 193.582C519.565 193.839 520.949 194.05 522.332 194.205C522.735 192.876 523.084 191.538 523.386 190.19L525.173 190.584C524.889 191.858 524.559 193.124 524.192 194.38C525.704 194.499 527.216 194.563 528.728 194.563H528.957L528.966 196.397H528.728C527.023 196.397 525.328 196.323 523.633 196.177C523.074 197.873 522.442 199.55 521.727 201.201ZM533.611 196.204L533.465 194.38C536.992 194.095 540.584 193.472 544.13 192.537L544.597 194.306C540.951 195.269 537.249 195.902 533.621 196.204H533.611ZM513.325 194.325C509.743 193.335 506.243 191.996 502.908 190.346L503.723 188.705C506.957 190.309 510.348 191.611 513.811 192.564L513.325 194.334V194.325ZM549.032 192.968L548.437 191.235C551.918 190.043 555.217 188.531 558.231 186.734L559.166 188.31C556.042 190.172 552.633 191.739 549.032 192.968ZM498.821 188.109C495.587 186.165 492.572 183.928 489.86 181.462L491.097 180.105C493.727 182.498 496.64 184.662 499.774 186.541L498.83 188.109H498.821ZM525.988 186L524.174 185.753C524.476 183.552 524.623 181.37 524.623 179.253C524.623 177.822 524.55 176.383 524.412 174.999L526.236 174.815C526.382 176.264 526.455 177.758 526.455 179.253C526.455 181.453 526.3 183.726 525.988 186ZM563.06 185.743L561.979 184.258C564.883 182.14 567.541 179.693 569.895 176.97L571.279 178.171C568.842 181.004 566.075 183.552 563.06 185.743ZM486.552 178.162C484.225 175.613 482.328 173.009 480.899 170.396C480.633 169.919 480.395 169.397 480.175 168.856L481.87 168.168C482.063 168.645 482.273 169.094 482.512 169.516C483.858 171.991 485.673 174.485 487.899 176.924L486.552 178.162ZM574.165 174.485L572.672 173.422C574.733 170.525 576.511 167.352 577.949 164.006L579.635 164.73C578.151 168.196 576.309 171.478 574.165 174.485ZM523.734 170.561C522.964 166.977 521.682 163.621 519.932 160.586L521.517 159.67C523.358 162.86 524.705 166.399 525.521 170.167L523.725 170.552L523.734 170.561ZM478.966 164.217C478.801 163.08 478.718 161.907 478.718 160.715C478.718 158.047 479.14 155.352 479.937 152.922L481.678 153.5C480.936 155.737 480.551 158.239 480.551 160.715C480.551 161.815 480.624 162.906 480.78 163.951L478.966 164.217ZM581.294 160.366L579.553 159.789C580.836 155.883 581.175 153.234 581.184 153.206L582.998 153.435C582.989 153.545 582.641 156.278 581.294 160.366ZM517.458 156.901C515.323 154.16 512.702 151.703 509.67 149.612L510.705 148.1C513.893 150.3 516.651 152.885 518.905 155.773L517.458 156.901ZM483.51 149.557L481.953 148.586C484.197 145.001 487.414 142.727 491.271 142.012L491.61 143.818C488.275 144.442 485.48 146.431 483.51 149.567V149.557ZM505.849 147.238C502.257 145.23 498.913 144.047 495.898 143.699L496.109 141.875C499.371 142.251 502.944 143.516 506.747 145.634L505.858 147.238H505.849Z" fill="black"/>
<path d="M224.226 217.676C224.226 217.676 224.144 213.046 222.33 207.087L224.08 206.555C225.967 212.78 226.05 217.456 226.059 217.657L224.226 217.685V217.676ZM135.157 214.678C133.15 214.678 131.198 214.577 129.357 214.384L129.549 212.56C132.894 212.917 136.65 212.945 140.361 212.624L140.517 214.448C138.73 214.604 136.925 214.678 135.157 214.678ZM145.135 213.871L144.842 212.065C148.497 211.469 152.016 210.552 155.296 209.333L155.937 211.056C152.547 212.321 148.91 213.266 145.135 213.88V213.871ZM124.73 213.605C123.52 213.312 122.503 212.982 121.697 212.615C119.947 211.808 118.004 208.838 117.849 204.905L119.681 204.831C119.809 208.196 121.413 210.47 122.457 210.946C123.144 211.267 124.079 211.57 125.151 211.826L124.72 213.614L124.73 213.605ZM160.235 209.223L159.438 207.572C162.764 205.968 165.796 204.015 168.463 201.76L169.645 203.163C166.868 205.519 163.698 207.563 160.235 209.232V209.223ZM220.818 202.842C219.407 199.431 217.611 196.305 215.476 193.536L216.924 192.418C219.16 195.315 221.038 198.588 222.513 202.145L220.818 202.851V202.842ZM120.286 200.632L118.545 200.064C119.626 196.763 121.871 193.674 125.215 190.887L126.388 192.299C123.309 194.866 121.257 197.671 120.286 200.641V200.632ZM173.035 199.926L171.697 198.67C174.116 196.076 176.187 193.133 177.845 189.915L179.476 190.758C177.745 194.132 175.573 197.213 173.044 199.926H173.035ZM212.544 190.172C210.061 187.641 207.193 185.478 204.023 183.727L204.912 182.122C208.238 183.956 211.243 186.229 213.854 188.888L212.544 190.172ZM129.998 189.695L129.027 188.145C131.858 186.367 135.239 184.735 139.069 183.296L139.711 185.01C136 186.404 132.729 187.98 129.998 189.695ZM181.382 186.495L179.669 185.835C180.612 183.406 181.364 180.793 181.932 178.052C179.495 177.942 176.966 177.96 174.354 178.097L174.263 176.264C177.03 176.117 179.705 176.108 182.28 176.227C182.326 175.961 182.372 175.686 182.408 175.411L184.222 175.695C184.186 175.906 184.158 176.126 184.122 176.337C184.543 176.365 184.965 176.401 185.377 176.438L185.203 178.262C184.736 178.217 184.268 178.18 183.792 178.143C183.205 181.077 182.399 183.873 181.391 186.477L181.382 186.495ZM143.999 183.543L143.449 181.792C146.72 180.765 150.33 179.848 154.178 179.042L154.554 180.839C150.77 181.627 147.215 182.535 143.999 183.543ZM200 181.792C196.839 180.481 193.367 179.491 189.665 178.858L189.977 177.052C193.816 177.703 197.426 178.73 200.706 180.096L200 181.792ZM159.016 179.986L158.695 178.18C161.288 177.721 164.037 177.309 166.85 176.942C167.794 176.823 168.728 176.713 169.645 176.621L169.828 178.446C168.93 178.537 168.014 178.647 167.088 178.767C164.294 179.124 161.582 179.537 159.016 179.986ZM184.754 171.084L182.931 170.937C183.077 169.104 183.15 167.197 183.15 165.253C183.15 164.135 183.123 162.979 183.077 161.824C183.05 161.237 183.022 160.651 182.986 160.073L184.818 159.963C184.855 160.55 184.882 161.146 184.91 161.742C184.955 162.924 184.983 164.107 184.983 165.244C184.983 167.233 184.91 169.195 184.754 171.075V171.084ZM182.628 155.553C182.253 151.813 181.666 148.21 180.896 144.818L182.683 144.414C183.471 147.871 184.058 151.556 184.452 155.37L182.628 155.553ZM179.769 140.444C178.725 136.86 177.424 133.458 175.912 130.341L177.561 129.535C179.128 132.753 180.466 136.246 181.538 139.931L179.779 140.444H179.769ZM173.777 126.372C171.908 123.218 169.746 120.312 167.345 117.735L168.683 116.479C171.175 119.147 173.42 122.164 175.353 125.427L173.777 126.362V126.372ZM164.12 114.609C161.417 112.225 158.448 110.172 155.269 108.494L156.121 106.871C159.419 108.613 162.516 110.759 165.329 113.234L164.12 114.609ZM151.2 106.587C145.675 104.332 141.58 103.974 141.543 103.965L141.69 102.141C141.864 102.159 146.088 102.526 151.897 104.891L151.21 106.587H151.2Z" fill="black"/>
<path d="M412.674 280.366C412.674 280.366 451.322 280.971 463.444 264.717C475.557 248.462 458.404 229.071 459.275 218.391C460.136 207.71 472.469 195.297 471.04 187.65C469.61 180.014 453.979 172.826 453.887 160.999C453.805 149.172 459.834 129.461 449.801 114.032C439.768 98.6018 425.557 86.4176 410.337 84.2814C395.118 82.1544 363.81 78.8906 353.951 99.8578C324.346 162.814 305.407 136.071 298.948 152.94C281.612 198.212 324.951 270.373 412.683 280.357L412.674 280.366Z" fill="black"/>
<path d="M424.09 289.69C424.09 289.69 424.035 289.69 424.008 289.69C348.627 285.867 297.5 218.189 297.481 196.571C297.481 190.978 301.073 190.181 302.622 190.098C314.808 189.457 330.082 157.24 341.233 133.715C345.686 124.309 349.543 116.195 352.778 110.749C361.794 95.5947 381.448 88.7187 409.604 90.8824C424.237 92.0009 439.704 102.159 452.036 118.753C460.585 130.25 459.971 144.579 459.476 156.103C459.321 159.826 459.165 163.346 459.367 166.234C459.797 172.404 465.148 177.144 469.867 181.334C473.624 184.671 477.179 187.815 478.104 191.474C479.231 195.92 476.519 201.567 473.651 207.554C471.076 212.917 468.419 218.464 468.337 223.314C468.273 226.614 470.371 231.134 472.588 235.929C477.188 245.867 482.905 258.235 475.135 270.153C463.737 287.637 425.767 289.617 424.155 289.69C424.127 289.69 424.1 289.69 424.081 289.69H424.09ZM399.91 93.7611C383.079 93.7611 364.424 97.575 355.582 112.418C352.42 117.735 348.6 125.785 344.174 135.118C332.034 160.733 316.915 192.61 302.787 193.362C302.118 193.399 300.734 193.472 300.734 196.571C300.743 205.941 313.498 227.806 334.086 246.793C352.43 263.708 382.941 284.318 424.081 286.426C425.996 286.326 462.143 284.107 472.405 268.365C479.185 257.96 474.109 246.986 469.629 237.295C467.146 231.932 465.002 227.302 465.075 223.25C465.176 217.685 467.989 211.817 470.71 206.142C473.312 200.706 475.777 195.572 474.943 192.271C474.265 189.585 471.076 186.761 467.704 183.772C462.518 179.17 456.636 173.954 456.114 166.463C455.894 163.392 456.05 159.78 456.215 155.966C456.682 144.964 457.268 131.277 449.416 120.706C437.651 104.873 423.046 95.1913 409.348 94.137C406.324 93.9078 403.145 93.7611 399.901 93.7611H399.91Z" fill="#080717"/>
<path d="M296.089 175.09C295.447 175.09 294.843 174.705 294.586 174.082C289.922 162.741 289.4 153.912 293.029 147.852C296.235 142.507 302.631 139.317 312.05 138.373C330.22 136.548 340.482 123.53 340.583 123.401C341.132 122.686 342.149 122.558 342.864 123.108C343.579 123.658 343.707 124.676 343.157 125.391C342.708 125.968 331.979 139.656 312.371 141.618C304.033 142.452 298.471 145.12 295.823 149.53C292.745 154.664 293.349 162.503 297.601 172.844C297.94 173.678 297.546 174.632 296.712 174.971C296.51 175.054 296.3 175.09 296.089 175.09Z" fill="#080717"/>
<path d="M466.981 359.761H210.657L289.574 235.755C302.448 215.521 322.725 203.603 344.266 203.603H376.802C419.885 203.603 459.642 228.393 480.844 268.484L498.537 301.92C512.208 327.756 494.744 359.761 466.981 359.761Z" fill="#96D8E8"/>
<path d="M232.94 137.676L224.959 151.299C218.591 162.173 216.237 174.934 218.307 187.366L220.351 199.624L152.135 316.204H238.364L284.352 204.868L283.38 127.325C283.334 123.75 280.43 120.88 276.857 120.88C273.86 120.88 271.249 122.915 270.525 125.831L265.467 146.083L217.703 101.096C214.835 98.4001 210.189 99.2252 208.43 102.746C207.386 104.836 207.679 107.339 209.172 109.136L232.949 137.685L232.94 137.676Z" fill="white"/>
<path d="M238.364 316.204L284.352 204.868L283.38 127.325C283.335 123.75 280.43 120.88 276.857 120.88C273.86 120.88 271.249 122.915 270.525 125.831L265.467 146.083L217.703 101.096C214.835 98.4001 210.189 99.2252 208.43 102.746C207.386 104.836 207.679 107.339 209.172 109.136L232.949 137.685L224.969 151.309C218.601 162.182 216.246 174.944 218.317 187.375L220.36 199.633L152.144 316.213H238.374L238.364 316.204Z" fill="white"/>
<path d="M238.364 317.836C238.154 317.836 237.943 317.799 237.741 317.707C236.908 317.359 236.514 316.415 236.862 315.58L282.721 204.556L281.758 127.343C281.722 124.675 279.532 122.503 276.866 122.503C274.612 122.503 272.66 124.034 272.11 126.216L267.052 146.468C266.915 147.027 266.484 147.476 265.935 147.641C265.376 147.797 264.78 147.66 264.359 147.265L216.594 102.278C215.604 101.352 214.276 100.958 212.947 101.187C211.61 101.425 210.501 102.26 209.896 103.47C209.145 104.983 209.356 106.789 210.428 108.081L234.205 136.631C234.644 137.162 234.708 137.905 234.36 138.501L226.38 152.124C220.213 162.649 217.923 175.063 219.929 187.1L221.972 199.358C222.037 199.734 221.972 200.119 221.771 200.449L153.555 317.029C153.097 317.808 152.098 318.065 151.329 317.616C150.55 317.157 150.293 316.158 150.742 315.388L218.665 199.321L216.722 187.65C214.597 174.87 217.025 161.668 223.576 150.493L230.979 137.859L207.935 110.19C206.03 107.898 205.654 104.698 206.992 102.031C208.064 99.8853 210.024 98.4184 212.388 97.9967C214.752 97.5749 217.098 98.2809 218.848 99.9219L264.588 143.002L268.977 125.455C269.884 121.815 273.136 119.276 276.893 119.276C281.337 119.276 284.993 122.888 285.048 127.334L286.019 204.877C286.019 205.097 285.982 205.317 285.891 205.519L239.904 316.855C239.647 317.487 239.042 317.863 238.401 317.863L238.364 317.836Z" fill="#080717"/>
<path d="M254.995 161.788C254.188 161.788 253.483 161.182 253.382 160.357C253.272 159.468 253.904 158.652 254.793 158.533C258.357 158.084 259.42 154.242 259.723 152.345L232.235 139.143C231.419 138.748 231.08 137.777 231.474 136.97C231.859 136.163 232.839 135.815 233.646 136.209L262.178 149.915C262.765 150.199 263.131 150.804 263.104 151.464C262.948 154.71 261.097 161.045 255.196 161.778C255.132 161.778 255.059 161.788 254.995 161.788Z" fill="#080717"/>
<path d="M254.335 174.1C253.849 174.1 253.354 174.063 252.841 173.981C251.952 173.843 251.339 173.018 251.467 172.129C251.604 171.24 252.411 170.644 253.318 170.754C254.848 170.983 256.103 170.708 257.166 169.901C258.852 168.618 259.658 166.307 259.997 164.914L226.086 149.429C225.271 149.053 224.904 148.091 225.28 147.265C225.656 146.449 226.618 146.083 227.442 146.459L262.526 162.484C263.177 162.778 263.552 163.456 263.47 164.162C263.442 164.391 262.764 169.736 259.154 172.487C257.762 173.55 256.14 174.091 254.335 174.091V174.1Z" fill="#080717"/>
<path d="M235.927 186.972C235.799 186.972 235.68 186.954 235.551 186.926C234.672 186.715 234.131 185.844 234.342 184.964C235.579 179.693 231.721 176.869 231.566 176.75C230.888 176.264 230.677 175.338 231.089 174.614C231.501 173.889 232.39 173.587 233.151 173.917C237.943 176.016 245.795 178.464 248.223 177.364C250.34 176.401 250.725 174.311 250.761 173.11L223.896 162.429C223.063 162.099 222.65 161.146 222.98 160.312C223.31 159.477 224.263 159.074 225.097 159.395L252.933 170.46C253.473 170.671 253.858 171.157 253.941 171.726C254.271 173.862 253.776 178.409 249.57 180.325C246.666 181.655 241.269 180.325 237.118 178.932C237.814 180.719 238.153 182.975 237.512 185.698C237.338 186.449 236.669 186.954 235.927 186.954V186.972Z" fill="#080717"/>
<path d="M204.857 346.431H364.369C367.86 346.431 370.691 349.264 370.691 352.757V359.514H204.848V346.431H204.857Z" fill="black"/>
<path d="M269.206 359.514H118.407L85.2754 259.298C82.0777 249.617 89.2795 239.642 99.4683 239.642H218.766C225.216 239.642 230.933 243.777 232.958 249.901L269.197 359.514H269.206Z" fill="black"/>
<path d="M177.79 301.92C177.79 307.788 173.035 312.546 167.171 312.546C161.307 312.546 156.552 307.788 156.552 301.92C156.552 296.053 161.307 291.295 167.171 291.295C173.035 291.295 177.79 296.053 177.79 301.92Z" fill="white"/>
<path d="M167.171 314.178C160.418 314.178 154.92 308.677 154.92 301.92C154.92 295.163 160.418 289.663 167.171 289.663C173.924 289.663 179.421 295.163 179.421 301.92C179.421 308.677 173.924 314.178 167.171 314.178ZM167.171 292.926C162.214 292.926 158.182 296.96 158.182 301.92C158.182 306.88 162.214 310.914 167.171 310.914C172.128 310.914 176.159 306.88 176.159 301.92C176.159 296.96 172.128 292.926 167.171 292.926Z" fill="black"/>
<path d="M376.006 236.837L376.702 236.965C388.879 239.266 400.809 231.941 404.272 220.041L420.206 165.336L371.983 156.232L357.36 206.436C353.383 220.087 362.033 234.205 376.006 236.846V236.837Z" fill="white"/>
<path d="M410.255 101.444L410.155 101.893C405.491 122.182 409.156 143.507 420.334 161.072L394.844 184.13L364.589 170.956C360.035 168.975 356.031 165.922 352.916 162.063C342.287 148.907 344.23 129.645 357.259 118.872L375.043 104.176C385.031 95.9247 399.123 94.8337 410.255 101.453V101.444Z" fill="white"/>
<path d="M433.226 164.62C429.066 170.387 421.012 171.689 415.249 167.527C409.486 163.364 408.184 155.306 412.344 149.539C416.504 143.773 424.558 142.471 430.321 146.633C436.085 150.795 437.386 158.854 433.226 164.62Z" fill="white"/>
<path d="M418.905 157.534C418.428 157.534 417.952 157.323 417.631 156.919C417.072 156.213 417.182 155.196 417.888 154.627C418.172 154.407 424.833 149.154 430.23 151.831C431.036 152.235 431.366 153.206 430.963 154.013C430.56 154.82 429.579 155.15 428.782 154.747C425.841 153.289 421.388 156.003 419.913 157.167C419.61 157.405 419.253 157.524 418.896 157.524L418.905 157.534Z" fill="#080717"/>
<path d="M377.334 160.944C376.619 160.944 375.877 160.843 375.126 160.623C367.567 158.432 367.713 145.065 367.723 144.497C367.732 143.965 367.997 143.47 368.446 143.167C368.886 142.874 369.445 142.81 369.94 143.002L388.228 150.089C388.677 150.263 389.026 150.63 389.181 151.079C389.337 151.538 389.282 152.033 389.035 152.445C388.806 152.83 383.84 160.935 377.325 160.935L377.334 160.944ZM371.076 146.945C371.388 150.795 372.588 156.498 376.042 157.497C379.689 158.551 383.326 154.682 385.113 152.372L371.076 146.935V146.945Z" fill="#080717"/>
<path d="M372.377 116.278C372.551 115.333 371.846 114.444 370.938 114.279C369.711 114.05 368.364 114.407 367.383 115.178C367.301 115.242 367.237 115.324 367.163 115.398C366.824 115.498 366.495 115.663 366.22 115.902C365.826 116.259 365.468 116.663 365.294 117.176C365.084 117.809 365.01 118.46 365.248 119.101C365.505 119.789 366.018 120.275 366.641 120.632C367.145 120.917 367.722 120.99 368.29 120.981C369.362 120.981 370.407 120.394 371.085 119.578C371.855 118.643 372.166 117.442 372.377 116.278Z" fill="black"/>
<path d="M393.616 128.975C393.57 128.425 393.231 127.967 392.773 127.683C392.59 127.545 392.37 127.463 392.141 127.435C391.838 127.389 391.545 127.426 391.261 127.536C390.262 127.783 389.328 128.471 388.695 129.269C388.439 129.599 388.219 129.975 388.045 130.36C387.935 130.543 387.834 130.736 387.743 130.928C387.413 131.671 387.266 132.597 387.449 133.403C387.486 133.706 387.587 133.981 387.77 134.238C387.907 134.439 388.082 134.595 388.292 134.696C388.778 134.989 389.273 135.017 389.804 134.843C392.241 134.073 393.827 131.487 393.616 128.975Z" fill="black"/>
<path d="M370.966 133.688C370.233 133.688 369.564 133.183 369.381 132.432C369.17 131.552 369.711 130.681 370.59 130.47C370.59 130.47 374.988 129.085 378.516 119.202C378.818 118.35 379.753 117.91 380.596 118.212C381.439 118.515 381.888 119.45 381.585 120.293C377.453 131.863 371.956 133.486 371.351 133.633C371.223 133.66 371.094 133.679 370.966 133.679V133.688Z" fill="#080717"/>
<path d="M362.546 129.104C359.43 129.104 356.379 128.196 353.713 126.445C350.103 124.08 347.638 120.44 346.758 116.213C345.879 111.987 346.703 107.669 349.067 104.057C351.431 100.445 355.069 97.9783 359.293 97.0982C363.508 96.2181 367.832 97.0432 371.442 99.4086C375.053 101.774 377.517 105.414 378.397 109.64C379.277 113.866 378.452 118.185 376.088 121.797C373.724 125.409 370.086 127.875 365.862 128.755C364.763 128.984 363.645 129.094 362.546 129.094V129.104ZM362.601 100.023C358.395 100.023 354.272 102.076 351.798 105.844C347.895 111.795 349.553 119.816 355.509 123.722C361.464 127.637 369.473 125.968 373.376 120.009C377.279 114.059 375.621 106.037 369.665 102.131C367.484 100.701 365.038 100.023 362.61 100.023H362.601Z" fill="#FFC31F"/>
<path d="M396.832 146.99C393.79 146.99 390.721 146.138 387.99 144.341C380.541 139.445 378.461 129.406 383.345 121.943C388.238 114.49 398.28 112.409 405.729 117.295C413.178 122.191 415.258 132.23 410.374 139.693C407.277 144.423 402.11 146.981 396.841 146.981L396.832 146.99ZM396.878 117.919C392.672 117.919 388.549 119.972 386.075 123.74C382.172 129.69 383.84 137.712 389.786 141.618C395.733 145.524 403.75 143.864 407.653 137.905C411.556 131.955 409.889 123.933 403.942 120.027C401.762 118.597 399.315 117.919 396.887 117.919H396.878Z" fill="#FFC31F"/>
<path d="M376.638 176.466C373.733 176.466 370.627 176.2 367.374 175.54C366.495 175.356 365.926 174.494 366.11 173.614C366.293 172.734 367.145 172.166 368.034 172.349C382.52 175.32 394.486 169.58 394.605 169.525C395.412 169.131 396.392 169.47 396.786 170.277C397.18 171.084 396.85 172.065 396.035 172.459C395.622 172.661 387.66 176.484 376.638 176.484V176.466Z" fill="#080717"/>
<path d="M366.723 309.878L432.832 296.869L448.665 317.084C458.056 329.076 459.083 345.615 451.249 358.679H378.617C363.297 358.679 343.295 345.853 347.207 331.028L366.714 309.878H366.723Z" fill="white"/>
<path d="M451.258 360.302H378.626C367.887 360.302 355.582 354.444 349.37 346.376C345.531 341.379 344.239 335.933 345.64 330.607C345.705 330.35 345.842 330.112 346.016 329.919L365.523 308.769C365.762 308.512 366.064 308.338 366.403 308.274L432.511 295.264C433.107 295.145 433.73 295.374 434.105 295.86L449.938 316.076C459.678 328.507 460.769 345.972 452.641 359.513C452.348 359.999 451.817 360.302 451.249 360.302H451.258ZM348.692 331.826C347.464 337.098 349.764 341.553 351.944 344.386C357.497 351.601 368.968 357.047 378.617 357.047H450.314C457.241 344.771 456.105 329.222 447.382 318.083L432.163 298.656L367.557 311.372L348.692 331.826Z" fill="#080717"/>
<path d="M344.614 344.13L350.725 340.747C350.725 340.747 363.37 357.111 379.881 345.569C383.912 342.745 384.123 316.506 376.372 307.531C361.198 289.956 332.996 267.962 316.531 278.918C300.075 289.873 278.24 311.29 278.24 311.29C278.24 311.29 287.302 323.245 295.915 316.607C307.973 307.302 322.816 300.554 322.816 300.554L296.739 337.474C296.739 337.474 302.118 343.625 309.283 345.917C316.448 348.209 326.188 354.819 344.605 344.13H344.614Z" fill="white"/>
<path d="M289.941 320.357C282.877 320.357 276.756 313.784 276.435 313.435C275.867 312.812 275.867 311.858 276.435 311.235C277.306 310.272 297.958 287.627 315.743 277.497C324.292 272.628 343.689 269.906 377.581 306.413C378.195 307.073 378.159 308.099 377.499 308.714C376.839 309.328 375.804 309.291 375.199 308.631C364.011 296.584 335.992 269.713 317.365 280.33C302.283 288.929 284.434 307.458 279.935 312.271C282.363 314.462 288.457 319.101 293.78 316.066C296.721 314.389 300.313 311.822 304.125 309.099C311.601 303.754 319.344 298.216 324.401 297.84C325.299 297.795 326.078 298.446 326.152 299.344C326.216 300.242 325.547 301.022 324.649 301.095C320.507 301.407 312.811 306.908 306.03 311.757C302.155 314.526 298.49 317.148 295.402 318.908C293.578 319.944 291.746 320.357 289.968 320.357H289.941Z" fill="#080717"/>
<path d="M305.444 345.633C300.203 345.633 296.345 340.738 294.843 337.593C294.577 337.034 294.65 336.374 295.026 335.888L332.144 288.132C332.694 287.426 333.72 287.288 334.434 287.847C335.14 288.397 335.277 289.424 334.718 290.139L298.26 337.052C299.479 339.115 302.979 343.955 307.863 341.838C308.688 341.48 309.65 341.856 310.007 342.69C310.364 343.515 309.979 344.478 309.155 344.836C307.854 345.395 306.617 345.642 305.453 345.642L305.444 345.633Z" fill="#080717"/>
<path d="M317.584 351.647C312.087 351.647 306.516 347.668 306.204 347.448C305.838 347.183 305.591 346.77 305.545 346.321C305.49 345.871 305.627 345.413 305.93 345.065L346.135 298.225C346.721 297.538 347.757 297.465 348.435 298.051C349.122 298.638 349.195 299.665 348.609 300.352L309.613 345.771C312.618 347.522 317.868 349.695 321.03 347.338C326.463 343.268 357.524 311.602 357.836 311.281C358.468 310.639 359.494 310.63 360.136 311.262C360.777 311.895 360.786 312.922 360.154 313.564C358.871 314.875 328.607 345.734 322.972 349.942C321.323 351.18 319.454 351.638 317.575 351.638L317.584 351.647Z" fill="#080717"/>
<path d="M329.34 351.867C326.665 351.867 324.117 351.235 321.799 349.777C321.039 349.3 320.81 348.292 321.286 347.531C321.763 346.77 322.77 346.541 323.531 347.018C330.861 351.629 341.874 345.349 349.809 339.271C358.743 332.431 365.899 324.263 365.972 324.18C366.568 323.502 367.594 323.437 368.272 324.024C368.95 324.62 369.023 325.647 368.428 326.325C367.383 327.526 345.952 351.867 329.34 351.867Z" fill="#080717"/>
<path d="M383.143 335.924C383.088 335.924 383.024 335.924 382.96 335.915C382.062 335.814 381.42 335.007 381.521 334.118C382.74 323.052 380.614 314.48 375.19 308.64C364.002 296.594 335.983 269.722 317.355 280.339C316.567 280.779 315.578 280.513 315.129 279.725C314.68 278.945 314.955 277.946 315.743 277.497C324.291 272.628 343.689 269.906 377.581 306.413C383.683 312.986 386.102 322.42 384.765 334.467C384.673 335.301 383.968 335.915 383.143 335.915V335.924Z" fill="#080717"/>
<path d="M432.832 298.491C432.044 298.491 431.348 297.914 431.219 297.107C431.082 296.218 431.696 295.383 432.585 295.255L450.47 292.55C451.359 292.413 452.193 293.027 452.321 293.917C452.458 294.806 451.844 295.64 450.956 295.768L433.07 298.473C432.988 298.482 432.905 298.491 432.823 298.491H432.832Z" fill="#080717"/>
<path d="M368.703 245.473C391.774 253.321 416.046 243.318 422.9 223.13C423.889 220.224 424.448 217.263 424.641 214.302C409.788 207.362 393.552 203.603 376.803 203.603H344.266C342.021 203.603 339.795 203.759 337.577 204.015C336.716 221.453 349.131 238.808 368.703 245.473Z" fill="white"/>
<path d="M617.156 306.073C648.278 306.073 673.506 280.83 673.506 249.69C673.506 218.551 648.278 193.307 617.156 193.307C586.035 193.307 560.806 218.551 560.806 249.69C560.806 280.83 586.035 306.073 617.156 306.073Z" fill="white"/>
<path d="M617.156 193.765C647.979 193.765 673.048 218.849 673.048 249.69C673.048 280.531 647.979 305.615 617.156 305.615C586.333 305.615 561.264 280.531 561.264 249.69C561.264 218.849 586.333 193.765 617.156 193.765ZM617.156 192.849C585.783 192.849 560.348 218.299 560.348 249.69C560.348 281.081 585.783 306.532 617.156 306.532C648.529 306.532 673.964 281.081 673.964 249.69C673.964 218.299 648.529 192.849 617.156 192.849Z" fill="black"/>
<path fill-rule="evenodd" clip-rule="evenodd" d="M640.887 277.487L636.654 266.348L621.151 270.318C620.802 270.96 620.454 271.611 620.106 272.253C619.52 273.353 618.393 274.022 617.156 274.022C615.919 274.022 614.792 273.344 614.205 272.253C614.178 272.207 614.16 272.161 614.132 272.115L611.878 272.693L616.789 281.705H637.488C640.722 281.806 642.06 280.962 640.896 277.487H640.887Z" fill="black"/>
<path fill-rule="evenodd" clip-rule="evenodd" d="M607.553 273.811L593.443 277.423L593.416 277.488C592.252 280.971 593.599 281.806 596.824 281.705H611.86L607.553 273.802V273.811Z" fill="#FFC31F"/>
<path fill-rule="evenodd" clip-rule="evenodd" d="M607.975 261.352C607.746 260.985 607.526 260.628 607.297 260.261H603.458C599.839 260.261 600.187 259.913 598.895 263.103L595.321 272.491L611.997 268.219C610.705 265.899 609.377 263.607 607.975 261.352Z" fill="black"/>
<path fill-rule="evenodd" clip-rule="evenodd" d="M630.854 260.261H627.015C626.786 260.618 626.557 260.976 626.337 261.343C625.558 262.59 624.807 263.855 624.064 265.12L635.087 262.296C634.153 259.968 634.134 260.261 630.845 260.261H630.854Z" fill="black"/>
<path fill-rule="evenodd" clip-rule="evenodd" d="M617.156 217.666C606.692 217.666 598.208 226.156 598.208 236.626C598.208 241.659 600.755 245.913 603.604 249.883C605.95 253.156 608.213 256.474 610.33 259.894C612.575 263.506 614.645 267.21 616.643 270.969C616.744 271.162 616.936 271.281 617.156 271.281C617.376 271.281 617.568 271.171 617.669 270.969C619.676 267.21 621.746 263.506 623.991 259.885C626.117 256.456 628.38 253.137 630.726 249.864C633.566 245.904 636.104 241.659 636.104 236.635C636.104 226.165 627.62 217.676 617.156 217.676V217.666ZM617.156 243.456C612.767 243.456 609.203 239.899 609.203 235.498C609.203 231.097 612.758 227.54 617.156 227.54C621.554 227.54 625.109 231.097 625.109 235.498C625.109 239.899 621.554 243.456 617.156 243.456Z" fill="white" stroke="black" stroke-width="1.5" stroke-miterlimit="10"/>
<path d="M84.8084 159.441C115.93 159.441 141.159 134.197 141.159 103.057C141.159 71.9179 115.93 46.6743 84.8084 46.6743C53.6872 46.6743 28.4584 71.9179 28.4584 103.057C28.4584 134.197 53.6872 159.441 84.8084 159.441Z" fill="white"/>
<path d="M84.8082 47.1327C115.631 47.1327 140.7 72.2163 140.7 103.057C140.7 133.899 115.631 158.982 84.8082 158.982C53.9852 158.982 28.9163 133.899 28.9163 103.057C28.9163 72.2163 53.9852 47.1327 84.8082 47.1327ZM84.8082 46.2159C53.4354 46.2159 28 71.6663 28 103.057C28 134.449 53.4354 159.899 84.8082 159.899C116.181 159.899 141.616 134.449 141.616 103.057C141.616 71.6663 116.181 46.2159 84.8082 46.2159Z" fill="black"/>
<path fill-rule="evenodd" clip-rule="evenodd" d="M58.4656 79.4957H110.546C111.746 79.4957 112.717 80.4767 112.717 81.6685V111.813H56.2849V81.6685C56.2849 80.4675 57.2653 79.4957 58.4565 79.4957H58.4656Z" fill="black"/>
<path fill-rule="evenodd" clip-rule="evenodd" d="M58.7773 81.6777H110.546V109.851H58.7773V81.6777Z" fill="white"/>
<path fill-rule="evenodd" clip-rule="evenodd" d="M84.6619 79.9175C85.0192 79.9175 85.3033 80.2017 85.3033 80.5592C85.3033 80.9168 85.0192 81.201 84.6619 81.201C84.3045 81.201 84.0205 80.9168 84.0205 80.5592C84.0205 80.2017 84.3045 79.9175 84.6619 79.9175Z" fill="white"/>
<path fill-rule="evenodd" clip-rule="evenodd" d="M56.0927 113.949H113.286L122.485 123.713C122.485 125.308 121.175 126.619 119.58 126.619H50.0454C48.4511 126.619 47.1409 125.308 47.1409 123.713L56.0927 113.949Z" fill="black"/>
<path fill-rule="evenodd" clip-rule="evenodd" d="M78.8982 119.578H89.875L91.6434 121.659C91.6434 121.998 91.396 122.283 91.0845 122.283H77.7346C77.4322 122.283 77.1757 122.008 77.1757 121.659L78.8982 119.578Z" fill="white"/>
<path d="M122.302 123.667H47.3333V124.061H122.302V123.667Z" fill="white"/>
<path d="M84.8357 88.0128C80.7034 88.0128 77.359 91.3866 77.359 95.5581C77.359 99.7203 80.7125 103.103 84.8357 103.103C88.968 103.103 92.3124 99.7295 92.3124 95.5581C92.3124 91.3958 88.9589 88.0128 84.8357 88.0128ZM82.6733 98.9136V92.1934L88.4458 95.5489L82.6733 98.9044V98.9136Z" fill="#FFC31F"/>
<path d="M575.769 153.225C606.89 153.225 632.119 127.981 632.119 96.8415C632.119 65.702 606.89 40.4584 575.769 40.4584C544.647 40.4584 519.418 65.702 519.418 96.8415C519.418 127.981 544.647 153.225 575.769 153.225Z" fill="white"/>
<path d="M575.768 40.9168C606.591 40.9168 631.66 66.0004 631.66 96.8415C631.66 127.683 606.591 152.766 575.768 152.766C544.945 152.766 519.876 127.683 519.876 96.8415C519.876 66.0004 544.955 40.9168 575.768 40.9168ZM575.768 40C544.396 40 518.96 65.4503 518.96 96.8415C518.96 128.233 544.396 153.683 575.768 153.683C607.141 153.683 632.577 128.233 632.577 96.8415C632.577 65.4503 607.15 40 575.768 40Z" fill="black"/>
<path d="M571.059 68.3513H567.019V85.4863H571.059V68.3513Z" fill="white"/>
<path d="M571.05 85.8438H566.652V67.9938H571.408V85.8438H571.05ZM567.376 85.1287H570.693V68.718H567.376V85.1287Z" fill="black"/>
<path d="M571.05 67.077H562.978V68.3514H571.05V67.077Z" fill="white"/>
<path d="M562.978 66.7195H571.142C571.288 66.7195 571.407 66.8385 571.407 66.9853V68.7089H562.611V66.9853C562.611 66.8385 562.73 66.7195 562.877 66.7195H562.969H562.978ZM570.693 67.7004C570.693 67.5536 570.574 67.4346 570.427 67.4346H563.601C563.454 67.4346 563.335 67.5536 563.335 67.7004V67.728C563.335 67.8748 563.454 67.9938 563.601 67.9938H570.427C570.574 67.9938 570.693 67.8748 570.693 67.728V67.7004Z" fill="black"/>
<path d="M567.019 68.3513H562.978V85.4863H567.019V68.3513Z" fill="white"/>
<path d="M563.335 85.1287H566.652V68.718H563.335V85.1287ZM567.019 85.8438H562.621V67.9938H567.376V85.8438H567.019Z" fill="black"/>
<path d="M572.645 85.4863H561.393V86.7607H572.645V85.4863Z" fill="white"/>
<path d="M561.393 85.1288H572.007C572.557 85.1288 573.002 85.5741 573.002 86.1235C573.002 86.6729 572.557 87.1182 572.007 87.1182H562.03C561.481 87.1182 561.036 86.6729 561.036 86.1235V85.4861C561.036 85.2888 561.196 85.1288 561.393 85.1288ZM572.287 86.1235C572.287 85.9691 572.162 85.8439 572.008 85.8439H562.03C561.875 85.8439 561.75 85.9691 561.75 86.1235C561.75 86.2779 561.875 86.4031 562.03 86.4031H572.008C572.162 86.4031 572.287 86.2779 572.287 86.1235Z" fill="black"/>
<path d="M566.304 86.7606H564.994V91.2804H566.304V86.7606Z" fill="white"/>
<path d="M565.947 87.384C565.947 87.2372 565.828 87.1182 565.681 87.1182H565.617C565.47 87.1182 565.351 87.2372 565.351 87.384V90.6571C565.351 90.8039 565.47 90.9229 565.617 90.9229H565.681C565.828 90.9229 565.947 90.8039 565.947 90.6571V87.384ZM564.994 86.4031H566.662V91.195C566.662 91.4397 566.463 91.638 566.219 91.638H564.627V86.4031H564.985H564.994Z" fill="black"/>
<path d="M564.994 86.7606H563.684V91.2804H564.994V86.7606Z" fill="white"/>
<path d="M563.683 86.4031H565.351V91.638H563.76C563.515 91.638 563.317 91.4397 563.317 91.195V86.4031H563.674H563.683ZM564.636 87.384C564.636 87.2372 564.517 87.1182 564.371 87.1182H564.307C564.16 87.1182 564.041 87.2372 564.041 87.384V90.6571C564.041 90.8039 564.16 90.9229 564.307 90.9229H564.371C564.517 90.9229 564.636 90.8039 564.636 90.6571V87.384Z" fill="black"/>
<path d="M570.015 86.7606H569.035V91.2804H570.015V86.7606Z" fill="white"/>
<path d="M569.034 86.7606H568.054V91.2804H569.034V86.7606Z" fill="white"/>
<path d="M577.483 99.5133H559.881V100.788H577.483V99.5133Z" fill="white"/>
<path d="M559.604 99.5517C559.778 99.3035 560.062 99.1558 560.364 99.1558H576.854C577.404 99.1558 577.849 99.6011 577.849 100.15C577.849 100.7 577.404 101.145 576.854 101.145H560.471C559.935 101.145 559.488 100.735 559.443 100.201L559.439 100.164C559.421 99.9469 559.479 99.7301 559.604 99.5517ZM577.125 100.15C577.125 99.9961 577 99.8709 576.845 99.8709H560.518C560.364 99.8709 560.238 99.9961 560.238 100.15C560.238 100.305 560.364 100.43 560.518 100.43H576.845C577 100.43 577.125 100.305 577.125 100.15Z" fill="black"/>
<path d="M577.492 100.788H575.393V110.277H577.492V100.788Z" fill="white"/>
<path d="M577.492 110.634H575.479C575.234 110.634 575.036 110.436 575.036 110.191V100.43H577.849V110.634H577.492ZM575.76 109.919H577.134V101.154H575.76V109.919Z" fill="black"/>
<path d="M573.149 72.9995H571.05V84.0378H573.149V72.9995Z" fill="white"/>
<path d="M571.408 83.6802H572.782V73.3662H571.408V83.6802ZM573.139 84.3953H570.684V72.642H573.497V84.3953H573.139Z" fill="black"/>
<path fill-rule="evenodd" clip-rule="evenodd" d="M573.149 84.0378L579.443 84.1936C583.585 84.1936 586.471 86.8432 586.709 92.7382C586.709 96.3046 586.453 100.797 581.377 100.797H577.492V110.286H584.29C590.924 110.286 595.45 101.347 595.524 94.911C595.56 91.2805 595.881 87.2191 594.635 83.396C592.573 77.0793 589.027 73.7696 583.576 73.1554C580.323 72.7887 576.456 73.0087 573.149 73.0087V84.047V84.0378Z" fill="white"/>
<path d="M573.506 83.6894L579.443 83.8361C581.688 83.8361 583.594 84.5879 584.941 86.1739C586.187 87.6316 586.948 89.7953 587.067 92.7199V92.7382C587.067 94.5626 587.002 96.6163 586.269 98.2482C585.518 99.9442 584.089 101.154 581.377 101.154H577.849V109.919H584.29C587.195 109.919 589.687 108.113 591.547 105.564C593.801 102.484 595.13 98.3215 595.166 94.8927C595.166 94.3518 595.185 93.8109 595.194 93.2608C595.267 90.0978 595.34 86.6965 594.296 83.4877C593.288 80.3889 591.914 78.0327 590.136 76.3825C588.368 74.7414 586.187 73.7971 583.539 73.4946C581.175 73.2287 578.472 73.2746 575.907 73.3204C575.064 73.3387 574.239 73.3479 573.506 73.3479V83.6802V83.6894ZM579.434 84.5512L572.791 84.3953V72.6511H573.149C574.111 72.6511 574.99 72.6328 575.897 72.6236C578.49 72.5778 581.221 72.532 583.621 72.807C586.425 73.1187 588.734 74.1364 590.622 75.8783C592.491 77.611 593.929 80.068 594.974 83.286C596.055 86.6048 595.982 90.0703 595.909 93.2974C595.899 93.8475 595.881 94.3976 595.881 94.9202C595.844 98.4865 594.461 102.805 592.124 106.004C590.136 108.727 587.451 110.652 584.29 110.652H577.134V100.448H581.377C583.741 100.448 584.978 99.4125 585.619 97.9639C586.288 96.4604 586.352 94.4984 586.352 92.7565C586.242 89.997 585.536 87.98 584.4 86.6415C583.2 85.2296 581.477 84.5512 579.443 84.5512H579.434Z" fill="black"/>
<path d="M579.434 84.542L572.791 84.3862V72.642H573.149C574.111 72.642 574.99 72.6237 575.897 72.6145C578.49 72.5686 581.221 72.5228 583.621 72.7978C586.425 73.1096 588.734 74.1272 590.622 75.8691C592.491 77.6019 593.929 80.0589 594.974 83.2769C596.055 86.5957 595.982 90.0612 595.909 93.2883C595.899 93.8384 595.881 94.3885 595.881 94.911C595.844 98.4774 594.461 102.795 592.124 105.995C590.136 108.718 587.451 110.643 584.29 110.643H577.134V100.439H581.377C583.741 100.439 584.978 99.4033 585.619 97.9548C586.288 96.4512 586.352 94.4893 586.352 92.7474C586.242 89.9878 585.536 87.9709 584.4 86.6323C583.2 85.2205 581.477 84.542 579.443 84.542H579.434Z" fill="black"/>
<path fill-rule="evenodd" clip-rule="evenodd" d="M567.183 105.894C570.39 105.894 572.983 106.674 572.983 107.627V108.736C572.983 109.69 570.39 110.469 567.183 110.469C563.977 110.469 561.384 109.699 561.384 108.736V107.627C561.384 106.674 563.977 105.894 567.183 105.894Z" fill="white"/>
<path d="M567.183 105.537C568.824 105.537 570.308 105.738 571.389 106.059C572.599 106.417 573.341 106.967 573.341 107.627V108.736C573.341 109.396 572.589 109.947 571.389 110.304C570.308 110.625 568.824 110.827 567.183 110.827C565.543 110.827 564.059 110.625 562.978 110.304C561.768 109.947 561.026 109.396 561.026 108.736V107.627C561.026 106.976 561.778 106.417 562.978 106.059C564.059 105.738 565.543 105.537 567.183 105.537ZM571.188 106.747C570.171 106.444 568.75 106.252 567.183 106.252C565.617 106.252 564.206 106.444 563.179 106.747C562.291 107.013 561.741 107.324 561.741 107.627V108.736C561.741 109.039 562.291 109.351 563.179 109.617C564.196 109.919 565.617 110.112 567.183 110.112C568.75 110.112 570.161 109.919 571.188 109.617C572.076 109.351 572.626 109.039 572.626 108.736V107.627C572.626 107.324 572.076 107.013 571.188 106.747Z" fill="black"/>
<path fill-rule="evenodd" clip-rule="evenodd" d="M567.184 106.903C569.777 106.903 571.875 107.343 571.875 107.884C571.875 108.425 569.777 108.865 567.184 108.865C564.591 108.865 562.492 108.425 562.492 107.884C562.492 107.343 564.591 106.903 567.184 106.903Z" fill="white"/>
<path d="M567.184 106.545C568.503 106.545 569.703 106.655 570.574 106.839C571.6 107.049 572.232 107.416 572.232 107.884C572.232 108.351 571.6 108.718 570.574 108.929C569.703 109.112 568.503 109.222 567.184 109.222C565.864 109.222 564.664 109.112 563.793 108.929C562.767 108.718 562.135 108.351 562.135 107.884C562.135 107.416 562.767 107.049 563.793 106.839C564.664 106.655 565.864 106.545 567.184 106.545ZM570.427 107.544C569.603 107.37 568.457 107.269 567.184 107.269C565.919 107.269 564.765 107.379 563.94 107.544C563.271 107.682 562.85 107.81 562.85 107.893C562.85 107.975 563.262 108.095 563.94 108.241C564.765 108.415 565.919 108.525 567.184 108.525C568.457 108.525 569.603 108.415 570.427 108.241C571.096 108.104 571.518 107.975 571.518 107.893C571.518 107.81 571.105 107.691 570.427 107.544Z" fill="black"/>
<path d="M575.393 107.572H572.663V108.782H575.393V107.572Z" fill="white"/>
<path d="M572.663 107.214H575.751V109.14H572.306V107.214H572.663ZM575.036 107.93H573.029V108.425H575.036V107.93Z" fill="black"/>
<path d="M575.393 106.912H574.468V109.433H575.393V106.912Z" fill="white"/>
<path d="M575.751 106.912V108.966C575.751 109.421 575.382 109.791 574.926 109.791C574.471 109.791 574.101 109.421 574.101 108.966V107.379C574.101 106.924 574.471 106.554 574.926 106.554H575.393C575.591 106.554 575.751 106.714 575.751 106.912ZM574.931 109.076C574.989 109.076 575.036 109.028 575.036 108.97V107.375C575.036 107.317 574.989 107.269 574.931 107.269C574.872 107.269 574.825 107.317 574.825 107.375V108.97C574.825 109.028 574.872 109.076 574.931 109.076Z" fill="black"/>
<path d="M569.035 59.3575H564.994V67.077H569.035V59.3575Z" fill="white"/>
<path d="M569.035 67.4345H564.636V59.2658C564.636 59.119 564.755 59 564.902 59H569.126C569.273 59 569.392 59.119 569.392 59.2658V67.4345H569.035ZM565.351 66.4536C565.351 66.6004 565.47 66.7194 565.617 66.7194H568.402C568.549 66.7194 568.668 66.6004 568.668 66.4536V59.9901C568.668 59.8433 568.549 59.7243 568.402 59.7243H565.617C565.47 59.7243 565.351 59.8433 565.351 59.9901V66.4536Z" fill="black"/>
<path fill-rule="evenodd" clip-rule="evenodd" d="M571.389 100.788C574.349 101.127 575.082 104.042 575.357 106.16C575.366 106.27 575.375 106.463 575.393 106.472V100.788H571.389Z" fill="white"/>
<path d="M573.377 101.154C573.936 101.54 574.358 102.062 574.688 102.64C574.816 102.869 574.935 103.107 575.036 103.355V101.164H573.377V101.154ZM574.065 102.988C573.533 102.044 572.69 101.301 571.343 101.145L565.168 100.43H575.751V107.123L575.201 106.765C575.036 106.664 575.027 106.49 575.008 106.316C575.008 106.261 575.008 106.215 574.999 106.197C574.871 105.17 574.624 103.96 574.065 102.979V102.988Z" fill="black"/>
<path d="M569.658 100.788H564.71V102.667H569.658V100.788Z" fill="white"/>
<path d="M565.067 102.31H569.3V101.154H565.067V102.31ZM569.657 103.025H564.352V100.43H570.015V103.025H569.657Z" fill="black"/>
<path d="M564.288 102.31H570.079C570.281 102.31 570.446 102.474 570.446 102.676C570.446 102.879 570.281 103.043 570.079 103.043H564.298C564.095 103.043 563.931 102.879 563.931 102.676V102.667C563.931 102.47 564.091 102.31 564.288 102.31Z" fill="black"/>
<path fill-rule="evenodd" clip-rule="evenodd" d="M571.71 70.3591C573.909 70.3591 575.696 72.1469 575.696 74.3472C575.696 76.5475 573.909 78.3353 571.71 78.3353C569.511 78.3353 567.724 76.5475 567.724 74.3472C567.724 72.1469 569.511 70.3591 571.71 70.3591Z" fill="white"/>
<path fill-rule="evenodd" clip-rule="evenodd" d="M571.71 71.8994C573.057 71.8994 574.147 72.9904 574.147 74.3381C574.147 75.6858 573.057 76.7768 571.71 76.7768C570.363 76.7768 569.273 75.6858 569.273 74.3381C569.273 72.9904 570.363 71.8994 571.71 71.8994Z" fill="white"/>
<path fill-rule="evenodd" clip-rule="evenodd" d="M571.71 73.4762C572.186 73.4762 572.571 73.8613 572.571 74.338C572.571 74.8147 572.186 75.1998 571.71 75.1998C571.234 75.1998 570.849 74.8147 570.849 74.338C570.849 73.8613 571.234 73.4762 571.71 73.4762Z" fill="white"/>
<path fill-rule="evenodd" clip-rule="evenodd" d="M555.758 121.626H598.74C599.409 121.626 599.958 122.177 599.958 122.846V129.163H554.549V122.846C554.549 122.177 555.098 121.626 555.758 121.626Z" fill="white"/>
<path d="M555.758 121.26H598.74C599.17 121.26 599.564 121.434 599.849 121.718C600.133 122.002 600.307 122.397 600.307 122.827V129.502H554.173V122.827C554.173 122.397 554.347 122.002 554.631 121.718C554.915 121.434 555.309 121.26 555.74 121.26H555.758ZM598.74 121.975H555.758C555.52 121.975 555.309 122.076 555.153 122.222C554.997 122.378 554.906 122.589 554.906 122.827V128.787H599.601V122.827C599.601 122.589 599.5 122.378 599.354 122.222C599.198 122.067 598.987 121.975 598.749 121.975H598.74Z" fill="black"/>
<path d="M600.866 129.153H553.632V131.583H600.866V129.153Z" fill="white"/>
<path fill-rule="evenodd" clip-rule="evenodd" d="M586.48 105.115L595.185 121.627H579.187V105.463C579.187 103.52 580.763 101.943 582.705 101.943C584.07 101.943 585.262 102.722 585.839 103.868C586.05 104.281 586.251 104.693 586.471 105.124L586.48 105.115Z" fill="white"/>
<path d="M586.801 104.95L595.789 121.984H578.839V105.463C578.839 104.391 579.269 103.419 579.975 102.713C580.68 102.007 581.651 101.576 582.723 101.576C583.466 101.576 584.153 101.787 584.748 102.145C585.353 102.52 585.857 103.052 586.178 103.694C586.288 103.914 586.361 104.061 586.434 104.217C586.553 104.455 586.672 104.702 586.801 104.941V104.95ZM594.598 121.269L586.169 105.28C586.04 105.033 585.912 104.785 585.793 104.537C585.701 104.345 585.601 104.152 585.536 104.024C585.271 103.501 584.867 103.071 584.364 102.759C583.887 102.465 583.319 102.3 582.714 102.3C581.844 102.3 581.047 102.658 580.479 103.226C579.911 103.795 579.553 104.592 579.553 105.463V121.26H594.598V121.269Z" fill="black"/>
<path fill-rule="evenodd" clip-rule="evenodd" d="M582.714 108.159C584.199 108.159 585.408 106.949 585.408 105.463C585.408 103.978 584.199 102.768 582.714 102.768C581.23 102.768 580.02 103.978 580.02 105.463C580.02 106.949 581.23 108.159 582.714 108.159Z" fill="white"/>
<path fill-rule="evenodd" clip-rule="evenodd" d="M582.714 107.068C583.594 107.068 584.318 106.353 584.318 105.463C584.318 104.574 583.603 103.859 582.714 103.859C581.826 103.859 581.111 104.574 581.111 105.463C581.111 106.353 581.826 107.068 582.714 107.068Z" fill="white"/>
<path fill-rule="evenodd" clip-rule="evenodd" d="M582.714 106.013C583.017 106.013 583.264 105.766 583.264 105.463C583.264 105.161 583.017 104.913 582.714 104.913C582.412 104.913 582.165 105.161 582.165 105.463C582.165 105.766 582.412 106.013 582.714 106.013Z" fill="white"/>
<path d="M600.812 128.842H553.75C553.336 128.842 553 129.177 553 129.592C553 130.006 553.336 130.342 553.75 130.342H600.812C601.226 130.342 601.562 130.006 601.562 129.592C601.562 129.177 601.226 128.842 600.812 128.842Z" fill="black"/>
<path d="M582.898 109.011C584.416 109.011 585.646 107.78 585.646 106.261C585.646 104.742 584.416 103.51 582.898 103.51C581.379 103.51 580.149 104.742 580.149 106.261C580.149 107.78 581.379 109.011 582.898 109.011Z" fill="black"/>
<path d="M582.898 106.948C583.277 106.948 583.585 106.641 583.585 106.261C583.585 105.881 583.277 105.573 582.898 105.573C582.518 105.573 582.21 105.881 582.21 106.261C582.21 106.641 582.518 106.948 582.898 106.948Z" fill="white"/>
<path d="M572.553 79.0228C575.083 79.0228 577.134 76.9705 577.134 74.4389C577.134 71.9072 575.083 69.8549 572.553 69.8549C570.023 69.8549 567.971 71.9072 567.971 74.4389C567.971 76.9705 570.023 79.0228 572.553 79.0228Z" fill="black"/>
<path d="M572.553 76.7308C573.818 76.7308 574.844 75.7047 574.844 74.4388C574.844 73.173 573.818 72.1469 572.553 72.1469C571.288 72.1469 570.262 73.173 570.262 74.4388C570.262 75.7047 571.288 76.7308 572.553 76.7308Z" fill="white"/>
<path d="M572.553 75.3557C573.059 75.3557 573.469 74.9452 573.469 74.4389C573.469 73.9326 573.059 73.5221 572.553 73.5221C572.047 73.5221 571.637 73.9326 571.637 74.4389C571.637 74.9452 572.047 75.3557 572.553 75.3557Z" fill="black"/>
<path d="M570.014 87.384C570.014 87.2372 569.895 87.1182 569.748 87.1182H569.684C569.537 87.1182 569.418 87.2372 569.418 87.384V90.6571C569.418 90.8039 569.537 90.9229 569.684 90.9229H569.748C569.895 90.9229 570.014 90.8039 570.014 90.6571V87.384ZM569.061 86.4031H570.729V91.195C570.729 91.4397 570.53 91.638 570.286 91.638H568.695V86.4031H569.052H569.061Z" fill="black"/>
<path d="M570.014 87.5189C570.014 87.3721 569.895 87.2531 569.748 87.2531H569.684C569.537 87.2531 569.418 87.3721 569.418 87.5189V90.792C569.418 90.9388 569.537 91.0578 569.684 91.0578H569.748C569.895 91.0578 570.014 90.9388 570.014 90.792V87.5189ZM569.061 86.538H570.729V91.3299C570.729 91.5745 570.53 91.7729 570.286 91.7729H568.695V86.538H569.052H569.061Z" fill="black"/>
<path d="M567.751 86.4031H569.418V91.638H567.827C567.583 91.638 567.384 91.4397 567.384 91.195V86.4031H567.742H567.751ZM568.704 87.384C568.704 87.2372 568.585 87.1182 568.438 87.1182H568.374C568.227 87.1182 568.108 87.2372 568.108 87.384V90.6571C568.108 90.8039 568.227 90.9229 568.374 90.9229H568.438C568.585 90.9229 568.704 90.8039 568.704 90.6571V87.384Z" fill="black"/>
<path d="M567.751 86.538H569.418V91.7729H567.827C567.583 91.7729 567.384 91.5745 567.384 91.3299V86.538H567.742H567.751ZM568.704 87.5189C568.704 87.3721 568.585 87.2531 568.438 87.2531H568.374C568.227 87.2531 568.108 87.3721 568.108 87.5189V90.792C568.108 90.9388 568.227 91.0578 568.374 91.0578H568.438C568.585 91.0578 568.704 90.9388 568.704 90.792V87.5189Z" fill="black"/>
<path d="M595.488 123.122H570C569.448 123.122 569 123.569 569 124.122V126.706C569 127.258 569.448 127.706 570 127.706H595.488C596.04 127.706 596.488 127.258 596.488 126.706V124.122C596.488 123.569 596.04 123.122 595.488 123.122Z" fill="#FFC31F"/>
</g>
</svg>
