<svg width="470" height="250" viewBox="0 0 470 250" fill="none" xmlns="http://www.w3.org/2000/svg">
<g clip-path="url(#clip0_542_17255)">
<path d="M210.081 230.598L108.289 161.124C104.428 158.488 104.102 152.916 107.628 149.849L160.115 104.141C162.61 101.972 166.268 101.796 168.957 103.718L257.455 167.083C260.716 169.419 261.413 173.985 258.989 177.194L219.795 229.02C217.503 232.052 213.228 232.758 210.081 230.607V230.598Z" fill="#18292D"/>
<path d="M216.11 225.644C215.573 225.635 215.053 225.467 214.603 225.168L111.207 156.037C110.228 155.385 110.034 154.45 109.999 153.957C109.973 153.463 110.052 152.511 110.942 151.753L164.223 106.309C164.743 105.869 165.404 105.631 166.092 105.648C166.656 105.657 167.194 105.833 167.652 106.151L257.543 169.198C258.16 169.63 258.557 170.265 258.671 170.997C258.786 171.729 258.601 172.451 258.142 173.042L218.358 224.568C217.821 225.265 216.992 225.661 216.093 225.644H216.11Z" fill="#4A7C88"/>
<path d="M339.376 258.66L286.265 224.524L255.764 221.412C250.606 220.442 245.723 218.388 241.421 215.373L226.02 204.566C223.526 202.82 223.808 199.047 226.523 197.672L226.593 197.637C227.519 197.17 228.541 197.073 229.52 197.337C232.755 198.219 240.68 200.396 248.341 202.485C252.951 203.746 256.178 197.989 252.696 194.719L236.907 179.874L218.51 174.223C217.319 173.853 216.253 173.165 215.433 172.222L214.278 170.891C212.638 168.996 212.198 166.342 213.132 164.024C211.069 163.512 210.153 161.097 211.36 159.343L211.66 158.911L223.949 160.295L223.102 159.501C221.736 158.223 221.234 156.275 221.798 154.494L244.074 154.882L241.659 152.22C240.275 150.695 239.649 148.632 239.949 146.596C240.195 144.956 242.047 144.127 243.431 145.035L261.053 156.636L279.424 179.53L300.837 195.733L412.183 249.64L412.183 275.25H365.181L339.376 258.66Z" fill="white"/>
<path d="M364.604 275.906C364.445 275.906 364.286 275.862 364.145 275.765L311.902 242.377L285.606 225.116L255.298 222.031C249.921 221.026 244.984 218.946 240.568 215.851L225.167 205.044C223.757 204.056 222.99 202.434 223.113 200.715C223.237 198.996 224.233 197.506 225.776 196.731C226.948 196.14 228.191 196.017 229.364 196.334L248.184 201.482C250.283 202.055 251.79 200.874 252.451 199.693C253.112 198.511 253.324 196.598 251.746 195.117L236.098 180.405L217.886 174.807C216.546 174.392 215.347 173.617 214.43 172.55L213.275 171.219C211.609 169.297 211.036 166.705 211.715 164.299C210.878 163.867 210.208 163.135 209.864 162.227C209.414 161.037 209.573 159.706 210.296 158.657L210.595 158.225C210.772 157.969 211.072 157.837 211.371 157.872L221.386 159.001C220.389 157.573 220.09 155.721 220.627 154.029C220.733 153.685 221.059 153.447 221.421 153.447C221.421 153.447 221.43 153.447 221.438 153.447L241.793 153.8L240.665 152.565C239.105 150.855 238.408 148.554 238.743 146.262C238.902 145.213 239.572 144.323 240.541 143.891C241.511 143.459 242.622 143.547 243.503 144.129L261.125 155.73C261.196 155.774 261.267 155.836 261.319 155.906L279.62 178.721L300.883 194.809L410.479 246.024C410.893 246.209 411.078 246.703 410.893 247.126C410.708 247.54 410.214 247.725 409.791 247.54L300.107 196.281C300.054 196.255 300.001 196.228 299.949 196.184L278.536 179.981C278.483 179.937 278.43 179.893 278.386 179.84L260.103 157.044L242.595 145.513C242.181 145.24 241.679 145.196 241.22 145.399C240.762 145.601 240.462 146.007 240.383 146.5C240.118 148.299 240.665 150.097 241.89 151.446L244.306 154.108C244.526 154.355 244.588 154.708 244.447 155.007C244.314 155.307 244.015 155.492 243.689 155.492C243.689 155.492 243.68 155.492 243.671 155.492L222.064 155.122C221.862 156.418 222.311 157.767 223.281 158.683L224.127 159.477C224.383 159.724 224.462 160.103 224.312 160.429C224.162 160.755 223.819 160.958 223.466 160.905L211.671 159.574L211.653 159.6C211.23 160.208 211.142 160.949 211.407 161.637C211.671 162.324 212.226 162.818 212.94 162.994C213.17 163.056 213.372 163.206 213.478 163.426C213.584 163.638 213.602 163.893 213.505 164.114C212.676 166.159 213.064 168.46 214.51 170.126L215.664 171.457C216.378 172.286 217.313 172.894 218.362 173.211L236.76 178.862C236.883 178.897 236.989 178.968 237.086 179.047L252.874 193.892C255.008 195.893 254.919 198.652 253.888 200.486C252.857 202.328 250.556 203.836 247.735 203.06L228.914 197.912C228.129 197.7 227.318 197.78 226.578 198.15C225.494 198.697 224.841 199.684 224.753 200.812C224.674 201.941 225.176 203.007 226.102 203.66L241.502 214.467C245.725 217.429 250.441 219.422 255.519 220.365L285.958 223.459C286.091 223.477 286.214 223.521 286.329 223.591L365.036 274.355C365.415 274.61 365.521 275.122 365.274 275.501C365.115 275.748 364.851 275.871 364.577 275.871L364.604 275.906Z" fill="#18292D"/>
<path d="M266.614 173.112C266.367 173.112 266.12 172.998 265.961 172.786L253.285 156.434L244.575 155.72C244.117 155.684 243.782 155.279 243.817 154.829C243.852 154.371 244.24 154.036 244.707 154.071L253.787 154.812C254.016 154.829 254.228 154.944 254.378 155.129L267.284 171.773C267.566 172.134 267.495 172.654 267.134 172.936C266.984 173.051 266.808 173.112 266.622 173.112H266.614Z" fill="#18292D"/>
<path d="M262.753 175.686C262.594 175.686 262.444 175.642 262.303 175.554L245.351 164.508L224.185 161.326C223.736 161.255 223.418 160.832 223.489 160.383C223.559 159.933 223.974 159.616 224.432 159.686L245.783 162.895C245.898 162.913 246.012 162.957 246.109 163.019L263.211 174.161C263.599 174.408 263.705 174.928 263.449 175.307C263.29 175.554 263.026 175.686 262.753 175.686Z" fill="#18292D"/>
<path d="M260.602 181.804C260.453 181.804 260.294 181.76 260.153 181.672L241.164 169.41L213.563 164.852C213.114 164.782 212.805 164.35 212.876 163.9C212.946 163.451 213.369 163.151 213.828 163.213L241.605 167.797C241.72 167.814 241.826 167.858 241.923 167.92L261.061 180.27C261.449 180.517 261.555 181.029 261.308 181.416C261.149 181.663 260.885 181.796 260.611 181.796L260.602 181.804Z" fill="#18292D"/>
<path d="M283.011 275.186L229.722 220.31L214.065 208.321C207.586 203.358 200.19 199.744 192.3 197.681L171.266 192.171C168.463 191.44 165.836 193.837 166.312 196.694C166.506 197.866 167.211 198.889 168.243 199.488L187.09 210.481L180.329 210.525C176.767 210.551 173.329 209.203 170.729 206.761L159.339 196.077L149.916 189.906L158.934 210.878L158.343 219.367L171.39 236.16L216.428 251.014L228.787 273.952L283.011 275.186Z" fill="white"/>
<path d="M283.001 276.015C282.781 276.015 282.57 275.927 282.411 275.759L255.788 248.343L229.166 220.927L213.562 208.974C207.145 204.055 199.916 200.52 192.097 198.474L171.063 192.965C170.014 192.692 168.921 192.965 168.128 193.688C167.334 194.419 166.964 195.486 167.14 196.553C167.299 197.487 167.854 198.289 168.665 198.765L187.513 209.758C187.839 209.943 187.989 210.331 187.901 210.684C187.804 211.045 187.478 211.301 187.107 211.301L180.346 211.345C180.346 211.345 180.284 211.345 180.249 211.345C176.494 211.345 172.915 209.935 170.173 207.352L158.836 196.711L151.784 192.083L159.709 210.525C159.762 210.649 159.78 210.781 159.771 210.913L159.207 219.094L171.91 235.438L216.71 250.212C216.912 250.283 217.08 250.424 217.177 250.609L229.536 273.547C229.756 273.952 229.606 274.455 229.201 274.666C228.795 274.887 228.293 274.737 228.081 274.331L215.881 251.684L171.151 236.936C170.993 236.883 170.861 236.786 170.755 236.654L157.708 219.861C157.585 219.702 157.523 219.499 157.532 219.296L158.105 211.001L149.166 190.214C149.025 189.879 149.113 189.483 149.395 189.254C149.677 189.016 150.074 188.998 150.382 189.192L159.806 195.363C159.806 195.363 159.885 195.416 159.921 195.451L171.31 206.135C173.743 208.418 176.917 209.679 180.249 209.679H180.337L184.066 209.652L167.837 200.185C166.594 199.462 165.748 198.236 165.51 196.808C165.236 195.186 165.8 193.555 167.017 192.445C168.234 191.334 169.908 190.928 171.495 191.343L192.529 196.852C200.568 198.959 207.991 202.582 214.585 207.643L230.241 219.631C230.241 219.631 230.303 219.684 230.329 219.711L283.619 274.587C283.936 274.913 283.927 275.442 283.601 275.759C283.442 275.918 283.231 275.997 283.019 275.997L283.001 276.015Z" fill="#18292D"/>
<path d="M176.494 230.183C176.379 230.183 176.256 230.157 176.141 230.104L166.691 225.687C166.541 225.617 166.409 225.502 166.321 225.352L158.211 211.283C157.981 210.886 158.123 210.375 158.519 210.146C158.916 209.916 159.418 210.049 159.656 210.454L167.634 224.294L176.846 228.596C177.261 228.79 177.437 229.284 177.243 229.698C177.102 229.998 176.802 230.174 176.494 230.174V230.183Z" fill="#18292D"/>
<path d="M143.224 104.299C149.616 104.414 154.896 99.3185 155.002 92.9185C155.116 86.5185 150.021 81.2469 143.621 81.1411H143.092C140.747 74.6794 134.629 70.0073 127.357 69.8839C117.933 69.7164 110.158 77.2271 109.999 86.6508L107.557 86.6067C102.841 86.5274 98.9622 90.2827 98.8741 94.9902C98.7859 99.6976 102.55 103.585 107.258 103.673L109.611 103.717L143.216 104.299H143.224Z" fill="white"/>
<path d="M143.436 105.189C143.366 105.189 143.286 105.189 143.216 105.189L107.258 104.563C104.745 104.519 102.392 103.497 100.646 101.69C98.9007 99.8736 97.9574 97.4935 98.0015 94.9811C98.0456 92.4687 99.0681 90.1149 100.875 88.3695C102.682 86.624 105.071 85.6984 107.584 85.7249L109.162 85.7513C109.453 81.2907 111.366 77.1563 114.601 74.0356C118.048 70.7122 122.588 68.9315 127.383 69.002C134.55 69.1254 141.038 73.6213 143.709 80.2593C150.55 80.4092 156.007 86.0863 155.892 92.9359C155.831 96.2681 154.482 99.3711 152.093 101.681C149.748 103.946 146.689 105.181 143.436 105.181V105.189ZM107.416 87.4968C105.424 87.4968 103.538 88.2549 102.101 89.6477C100.628 91.067 99.7998 92.9711 99.7646 95.0163C99.7293 97.0615 100.487 98.9921 101.916 100.464C103.335 101.936 105.239 102.765 107.284 102.8L143.242 103.426C146.134 103.479 148.805 102.412 150.859 100.42C152.913 98.4367 154.076 95.7656 154.12 92.9094C154.226 87.0119 149.51 82.1282 143.604 82.0224H143.075C142.713 82.0048 142.387 81.7756 142.264 81.4318C139.989 75.164 133.986 70.8797 127.339 70.7651C123.028 70.6946 118.92 72.299 115.817 75.305C112.706 78.3111 110.951 82.3397 110.881 86.6681C110.881 87.153 110.484 87.5144 109.982 87.532L107.54 87.488C107.496 87.488 107.452 87.488 107.408 87.488L107.416 87.4968Z" fill="#18292D"/>
<path d="M213.457 72.3256L181.148 71.7703L180.038 135.938L222.819 136.687L223.753 82.9835L213.457 72.3256Z" fill="white"/>
<path d="M222.819 137.569H222.802L180.02 136.828C179.535 136.828 179.148 136.423 179.156 135.929L180.267 71.7526C180.267 71.5234 180.364 71.2942 180.54 71.1355C180.708 70.9768 180.946 70.9151 181.166 70.8887L213.475 71.4529C213.704 71.4529 213.933 71.5498 214.092 71.7261L224.388 82.384C224.547 82.5515 224.644 82.7807 224.635 83.0099L223.701 136.705C223.701 137.189 223.295 137.569 222.819 137.569ZM180.937 135.083L221.955 135.797L222.863 83.3449L213.078 73.2071L182.013 72.6694L180.928 135.083H180.937Z" fill="#18292D"/>
<path d="M213.263 83.2389L224.177 83.4241L213.457 72.3254L213.263 83.2389Z" fill="white"/>
<path d="M224.177 84.3057H224.159L213.245 84.1206C212.761 84.1206 212.373 83.715 212.381 83.2214L212.567 72.3079C212.567 71.9553 212.796 71.6379 213.122 71.5057C213.457 71.3735 213.827 71.4528 214.083 71.7173L224.802 82.8247C225.049 83.0803 225.12 83.4594 224.979 83.7856C224.838 84.1117 224.52 84.3145 224.168 84.3145L224.177 84.3057ZM214.162 82.3663L222.061 82.5073L214.294 74.4677L214.153 82.3751L214.162 82.3663Z" fill="#18292D"/>
<path d="M200.64 92.9978H200.622L188.748 92.7951C188.263 92.7951 187.875 92.3896 187.884 91.8959C187.884 91.411 188.289 91.032 188.765 91.032H188.783L200.657 91.2347C201.142 91.2347 201.53 91.6402 201.521 92.1339C201.521 92.6188 201.125 92.9978 200.64 92.9978Z" fill="#18292D"/>
<path d="M216.666 98.4368H216.649L188.439 97.952C187.954 97.952 187.567 97.5464 187.575 97.0528C187.575 96.5679 188.016 96.1801 188.475 96.1889L216.684 96.6737C217.169 96.6737 217.557 97.0792 217.548 97.5729C217.548 98.0577 217.151 98.4368 216.666 98.4368Z" fill="#18292D"/>
<path d="M216.57 103.594H216.552L188.343 103.109C187.858 103.109 187.47 102.704 187.479 102.21C187.487 101.725 187.928 101.355 188.378 101.346L216.587 101.831C217.072 101.831 217.46 102.237 217.451 102.73C217.451 103.215 217.046 103.594 216.57 103.594Z" fill="#18292D"/>
<path d="M216.481 108.751H216.464L188.254 108.266C187.769 108.266 187.381 107.861 187.39 107.367C187.39 106.882 187.796 106.503 188.272 106.503H188.289L216.499 106.988C216.984 106.988 217.372 107.393 217.363 107.887C217.363 108.372 216.957 108.751 216.481 108.751Z" fill="#18292D"/>
<path d="M206.441 113.74H206.423L188.166 113.423C187.681 113.423 187.294 113.017 187.302 112.524C187.302 112.039 187.681 111.633 188.202 111.66L206.458 111.977C206.943 111.977 207.331 112.383 207.322 112.876C207.322 113.361 206.926 113.74 206.441 113.74Z" fill="#18292D"/>
<path d="M233.501 101.076L233.215 117.629C233.183 119.46 234.641 120.969 236.472 121.001L253.025 121.287C254.855 121.318 256.364 119.86 256.396 118.03L256.682 101.477C256.714 99.6466 255.256 98.1372 253.425 98.1056L236.872 97.8195C235.042 97.7879 233.533 99.246 233.501 101.076Z" fill="#18292D"/>
<path d="M256.529 111.413L263.035 118.157L263.325 101.593L256.582 108.108L256.529 111.413Z" fill="#18292D"/>
<path d="M188.174 121.202L162.653 121.069C158.685 121.048 155.452 124.248 155.431 128.215L155.298 153.736C155.277 157.704 158.476 160.937 162.444 160.958L187.965 161.091C191.933 161.112 195.166 157.913 195.187 153.945L195.32 128.424C195.341 124.456 192.141 121.223 188.174 121.202Z" fill="white"/>
<path d="M187.997 161.917H187.953L162.433 161.785C158.016 161.758 154.437 158.144 154.464 153.728L154.596 128.207C154.605 126.065 155.451 124.055 156.976 122.556C158.483 121.058 160.484 120.238 162.609 120.238H162.653L188.174 120.37C190.316 120.379 192.326 121.225 193.824 122.75C195.332 124.275 196.152 126.285 196.143 128.427L196.011 153.948C195.984 158.356 192.396 161.917 187.997 161.917ZM162.609 121.886C160.925 121.886 159.338 122.539 158.14 123.729C156.932 124.919 156.262 126.514 156.253 128.216L156.121 153.736C156.103 157.236 158.942 160.11 162.441 160.128L187.962 160.26C187.962 160.26 187.989 160.26 187.997 160.26C191.488 160.26 194.336 157.43 194.353 153.939L194.486 128.419C194.503 124.91 191.665 122.045 188.165 122.027L162.644 121.895C162.644 121.895 162.618 121.895 162.609 121.895V121.886Z" fill="#18292D"/>
<path d="M156.034 154.319L156.067 148.375L158.731 145.715C160.7 143.748 163.883 143.765 165.827 145.749C167.67 147.632 170.686 147.649 172.546 145.783L183.009 135.346C185.497 132.864 189.502 132.889 191.964 135.397L194.5 137.5V146.007L194.458 154.514C194.441 157.84 191.244 160.517 187.943 160.5L161.973 160.365C158.673 160.348 156.017 157.638 156.034 154.311V154.319Z" fill="#FFC31F"/>
<path d="M174.766 133.664C174.748 136.837 172.157 139.402 168.983 139.385C165.809 139.367 163.244 136.775 163.262 133.602C163.279 130.428 165.871 127.863 169.045 127.881C172.218 127.898 174.784 130.49 174.766 133.664Z" fill="white"/>
<path d="M169.018 140.222H168.983C167.22 140.213 165.571 139.517 164.337 138.274C163.103 137.022 162.424 135.365 162.433 133.611C162.442 131.856 163.138 130.199 164.381 128.965C165.624 127.74 167.264 127.061 169.01 127.061C169.018 127.061 169.036 127.061 169.045 127.061C170.799 127.061 172.456 127.766 173.69 129.009C174.925 130.261 175.603 131.918 175.595 133.672C175.595 135.435 174.889 137.084 173.646 138.318C172.403 139.543 170.764 140.222 169.018 140.222ZM169.018 128.718C167.714 128.718 166.479 129.221 165.554 130.146C164.619 131.072 164.099 132.306 164.09 133.619C164.09 134.933 164.593 136.176 165.51 137.11C166.435 138.045 167.67 138.565 168.983 138.574C168.992 138.574 169.001 138.574 169.01 138.574C170.314 138.574 171.54 138.071 172.474 137.146C173.408 136.22 173.929 134.986 173.937 133.672C173.937 132.359 173.435 131.116 172.509 130.181C171.584 129.247 170.349 128.727 169.036 128.718H169.01H169.018Z" fill="#18292D"/>
<path d="M119.952 128.674C119.723 128.674 119.494 128.586 119.317 128.409L113.006 121.877C112.671 121.525 112.679 120.969 113.023 120.634C113.376 120.299 113.931 120.308 114.266 120.652L119.961 126.549L125.867 120.855C126.22 120.52 126.775 120.528 127.11 120.881C127.445 121.234 127.436 121.789 127.084 122.124L120.552 128.427C120.384 128.595 120.164 128.674 119.943 128.674H119.952Z" fill="#18292D"/>
<path d="M119.978 126.929H119.96C119.475 126.929 119.088 126.523 119.096 126.029L119.696 91.6316C119.696 91.1467 120.119 90.75 120.595 90.7677C121.08 90.7677 121.468 91.1732 121.459 91.6668L120.859 126.065C120.859 126.549 120.463 126.929 119.978 126.929Z" fill="#18292D"/>
<path d="M138.578 117.037C138.349 117.037 138.12 116.949 137.943 116.773L132.249 110.875L126.351 116.57C125.998 116.905 125.443 116.896 125.108 116.544C124.773 116.191 124.782 115.636 125.135 115.301L131.667 108.989C132.019 108.654 132.575 108.663 132.91 109.007L139.222 115.539C139.557 115.891 139.548 116.447 139.204 116.782C139.036 116.949 138.807 117.029 138.587 117.029L138.578 117.037Z" fill="#18292D"/>
<path d="M131.641 146.657H131.623C131.138 146.657 130.751 146.252 130.759 145.758L131.359 111.36C131.359 110.875 131.764 110.505 132.258 110.496C132.743 110.496 133.131 110.902 133.122 111.396L132.523 145.793C132.523 146.278 132.117 146.657 131.641 146.657Z" fill="#18292D"/>
</g>
<defs>
<clipPath id="clip0_542_17255">
<rect width="470" height="250" fill="white"/>
</clipPath>
</defs>
</svg>
