<svg width="65" height="65" viewBox="0 0 65 65" fill="none" xmlns="http://www.w3.org/2000/svg">
<path d="M33.4762 31.6989C39.2134 31.6989 43.8644 27.0479 43.8644 21.3106C43.8644 15.5733 39.2134 10.9224 33.4762 10.9224C27.7389 10.9224 23.0879 15.5733 23.0879 21.3106C23.0879 27.0479 27.7389 31.6989 33.4762 31.6989Z" fill="white" stroke="#18292D" stroke-width="1.2" stroke-linecap="round" stroke-linejoin="round"/>
<path d="M33.4768 29.7793C38.1538 29.7793 41.9453 25.9878 41.9453 21.3108C41.9453 16.6338 38.1538 12.8423 33.4768 12.8423C28.7998 12.8423 25.0083 16.6338 25.0083 21.3108C25.0083 25.9878 28.7998 29.7793 33.4768 29.7793Z" fill="white" stroke="#18292D" stroke-width="1.2" stroke-linecap="round" stroke-linejoin="round"/>
<path d="M33.4768 29.7793C38.1538 29.7793 41.9453 25.9878 41.9453 21.3108C41.9453 16.6338 38.1538 12.8423 33.4768 12.8423C28.7998 12.8423 25.0083 16.6338 25.0083 21.3108C25.0083 25.9878 28.7998 29.7793 33.4768 29.7793Z" fill="white" stroke="#18292D" stroke-width="1.2" stroke-linecap="round" stroke-linejoin="round"/>
<path d="M21.916 21.3105H26.0265" stroke="#18292D" stroke-width="1.2" stroke-linecap="round" stroke-linejoin="round"/>
<path d="M40.9272 21.3105H45.0377" stroke="#18292D" stroke-width="1.2" stroke-linecap="round" stroke-linejoin="round"/>
<path d="M21.7339 21.3105H25.8397" stroke="#18292D" stroke-width="1.2" stroke-linecap="round" stroke-linejoin="round"/>
<path d="M40.7446 21.3105H44.8504" stroke="#18292D" stroke-width="1.2" stroke-linecap="round" stroke-linejoin="round"/>
<path d="M33.2896 32.8714V28.7656" stroke="#18292D" stroke-width="1.2" stroke-linecap="round" stroke-linejoin="round"/>
<path d="M33.2896 13.8605V9.75" stroke="#18292D" stroke-width="1.2" stroke-linecap="round" stroke-linejoin="round"/>
<path d="M34.0412 25.1782H32.5698" stroke="#18292D" stroke-width="1.2" stroke-linecap="round" stroke-linejoin="round"/>
<path d="M32.1357 23.6929H34.4012" stroke="#18292D" stroke-width="1.2" stroke-linecap="round" stroke-linejoin="round"/>
<path d="M34.2941 23.693C34.2941 23.693 34.6958 23.5062 34.8219 22.5673C34.8873 22.0862 35.0368 22.0489 35.2843 21.6285C35.3077 21.5864 35.331 21.5491 35.3544 21.5117C35.4852 21.3015 35.6346 21.1007 35.7841 20.9045C36.2232 20.3346 36.4754 19.5966 36.4521 18.8212C36.396 17.0649 34.892 15.6683 33.1357 15.7384C31.4354 15.8038 30.0762 17.2051 30.0762 18.924C30.0762 19.676 30.3331 20.3673 30.7675 20.9138C30.8843 21.0586 30.987 21.2128 31.0851 21.3669C31.0991 21.3856 31.1085 21.4089 31.1225 21.4276C31.4308 21.9368 31.6269 22.0769 31.725 22.6654C31.8652 23.5202 32.2388 23.6884 32.2388 23.6884" fill="white"/>
<path d="M34.2941 23.693C34.2941 23.693 34.6958 23.5062 34.8219 22.5673C34.8873 22.0862 35.0368 22.0489 35.2843 21.6285C35.3077 21.5864 35.331 21.5491 35.3544 21.5117C35.4852 21.3015 35.6346 21.1007 35.7841 20.9045C36.2232 20.3346 36.4754 19.5966 36.4521 18.8212C36.396 17.0649 34.892 15.6683 33.1357 15.7384C31.4354 15.8038 30.0762 17.2051 30.0762 18.924C30.0762 19.676 30.3331 20.3673 30.7675 20.9138C30.8843 21.0586 30.987 21.2128 31.0851 21.3669C31.0991 21.3856 31.1085 21.4089 31.1225 21.4276C31.4308 21.9368 31.6269 22.0769 31.725 22.6654C31.8652 23.5202 32.2388 23.6884 32.2388 23.6884" stroke="#18292D" stroke-width="1.2" stroke-linecap="round" stroke-linejoin="round"/>
<path d="M33.0002 23.693L32.5612 20.456C32.5612 20.4 32.5425 20.3486 32.5098 20.3019L32.0146 19.5405" fill="white"/>
<path d="M33.0002 23.693L32.5612 20.456C32.5612 20.4 32.5425 20.3486 32.5098 20.3019L32.0146 19.5405" stroke="#18292D" stroke-width="1.2" stroke-linecap="round" stroke-linejoin="round"/>
<path d="M34.532 19.5405L34.0368 20.3019C34.0088 20.3486 33.9901 20.4 33.9855 20.456L33.5464 23.693" fill="white"/>
<path d="M34.532 19.5405L34.0368 20.3019C34.0088 20.3486 33.9901 20.4 33.9855 20.456L33.5464 23.693" stroke="#18292D" stroke-width="1.2" stroke-linecap="round" stroke-linejoin="round"/>
<path d="M55.7754 49.4348V55.2408" stroke="#18292D" stroke-width="1.2" stroke-linecap="round" stroke-linejoin="round"/>
<path d="M53.4121 34.4313C53.7064 34.2631 53.954 34.4173 53.954 35.0759C53.954 35.7345 53.7811 35.7999 53.5382 37.3039C53.4588 37.7944 52.917 37.7897 52.917 37.7897C52.8002 38.5931 52.4452 39.3405 51.9081 39.943L51.7025 40.1719V41.6993C51.7025 42.4327 52.1883 43.0819 52.8936 43.2875C54.2249 43.6705 56.2521 44.0675 57.7328 44.4459C58.1345 44.5486 58.4988 44.7308 58.8118 44.9784C59.4237 45.4641 59.788 46.2022 59.8581 46.9822L60.5821 54.9789C60.5961 55.1237 60.4793 55.2499 60.3345 55.2499L36.3864 55.2358C36.2416 55.2358 36.1248 55.1097 36.1388 54.9649L36.9563 46.8421C37.0263 46.1321 37.3393 45.4595 37.8671 44.9877C38.2081 44.6841 38.6238 44.4599 39.0816 44.3431C40.5623 43.9648 42.9351 43.6798 44.2617 43.2968C44.967 43.0913 45.4528 42.4467 45.4528 41.7087V40.1813L45.2473 39.9524C44.7054 39.3498 44.3551 38.5978 44.2383 37.7991C44.2383 37.7991 43.6965 37.8037 43.6171 37.3133C43.3742 35.8139 43.2014 35.7485 43.2014 35.0852C43.2014 34.4219 43.4443 34.2678 43.7432 34.4406" stroke="#18292D" stroke-width="1.2" stroke-linecap="round" stroke-linejoin="round"/>
<path d="M51.7023 40.1768L49.5537 41.3445C48.8203 41.6388 47.9983 41.6201 47.2743 41.2978L45.4619 40.1768" stroke="#18292D" stroke-width="1.2" stroke-linecap="round" stroke-linejoin="round"/>
<path d="M45.6722 30.12L47.1203 31.4046C47.7415 31.9557 48.5449 32.2594 49.3717 32.2594H50.7122C51.497 32.2594 52.2537 32.5396 52.8469 33.0488L52.8609 33.0581C53.0758 33.2449 53.2252 33.4972 53.2813 33.7774L53.4821 34.7957L53.7764 34.7396C53.7764 34.7396 55.6074 26.8831 48.7458 26.8831C43.1686 26.8831 43.3321 31.7315 43.4162 34.352L43.7805 34.5762V34.5528C43.972 33.1235 44.5045 31.7596 45.3359 30.5825L45.6629 30.1154L45.6722 30.12Z" fill="#18292D" stroke="#18292D" stroke-width="1.2" stroke-linecap="round" stroke-linejoin="round"/>
<path d="M52.2768 42.9653L51.1931 46.2163L48.582 43.9743L51.7209 41.9424C51.7209 41.9424 51.7723 42.6851 52.2768 42.9653Z" fill="white" stroke="#18292D" stroke-width="1.2" stroke-linecap="round" stroke-linejoin="round"/>
<path d="M44.8872 42.9466L45.8448 46.2163L48.582 43.9743L45.4431 41.9424C45.4431 41.9424 45.2842 42.5449 44.8919 42.9466H44.8872Z" fill="white" stroke="#18292D" stroke-width="1.2" stroke-linecap="round" stroke-linejoin="round"/>
<path d="M28.1934 34.4314C27.8992 34.2632 27.6516 34.4174 27.6516 35.076C27.6516 35.7346 27.8244 35.8 28.0673 37.304C28.1467 37.7945 28.6886 37.7898 28.6886 37.7898C28.8053 38.5932 29.1603 39.3406 29.6975 39.9432L29.903 40.172V41.6994C29.903 42.4328 29.4172 43.0821 28.7119 43.2876C27.3807 43.6706 25.0125 43.9602 23.5318 44.3339C23.074 44.4506 22.6583 44.6749 22.3173 44.9785C21.7848 45.4549 21.4766 46.1275 21.4065 46.8328L20.5891 54.9557C20.5751 55.1005 20.6872 55.2266 20.8366 55.2266L44.7848 55.2406C44.9296 55.2406 45.0463 55.1145 45.0323 54.9697L44.3083 46.973C44.2383 46.1929 43.8786 45.4549 43.262 44.9691C42.9491 44.7216 42.5847 44.5394 42.183 44.4366C40.7023 44.0583 38.6751 43.6613 37.3439 43.2782C36.6386 43.0727 36.1528 42.4281 36.1528 41.6901V40.1627L36.3583 39.9338C36.9001 39.3313 37.2505 38.5792 37.3672 37.7805C37.3672 37.7805 37.9091 37.7852 37.9885 37.2947C38.2314 35.7953 38.4042 35.7299 38.4042 35.0666C38.4042 34.4034 38.1613 34.2492 37.8624 34.4221C37.8624 34.4221 40.3754 26.8784 33.2054 26.8784C26.6193 26.8784 28.1981 34.4221 28.1981 34.4221L28.1934 34.4314Z" fill="white" stroke="#18292D" stroke-width="1.2" stroke-linecap="round" stroke-linejoin="round"/>
<path d="M36.1486 40.1768L34 41.3445C33.2666 41.6388 32.4445 41.6201 31.7205 41.2978L29.9082 40.1768" fill="white"/>
<path d="M36.1486 40.1768L34 41.3445C33.2666 41.6388 32.4445 41.6201 31.7205 41.2978L29.9082 40.1768" stroke="#18292D" stroke-width="1.2" stroke-linecap="round" stroke-linejoin="round"/>
<path d="M30.118 30.12L31.5661 31.4046C32.1873 31.9557 32.9907 32.2594 33.8175 32.2594H35.158C35.9428 32.2594 36.6995 32.5396 37.2927 33.0488L37.3067 33.0581C37.5216 33.2449 37.671 33.4972 37.7271 33.7774L37.9279 34.7957L38.2222 34.7396C38.2222 34.7396 40.0532 26.8831 33.1916 26.8831C27.6144 26.8831 27.7779 31.7315 27.862 34.352L28.2263 34.5762V34.5528C28.4178 33.1235 28.9503 31.7596 29.7817 30.5825L30.1087 30.1154L30.118 30.12Z" fill="#18292D" stroke="#18292D" stroke-width="1.2" stroke-linecap="round" stroke-linejoin="round"/>
<path d="M36.7231 42.9653L35.6394 46.2163L33.0283 43.9743L36.1672 41.9424C36.1672 41.9424 36.2186 42.6851 36.7231 42.9653Z" fill="white" stroke="#18292D" stroke-width="1.2" stroke-linecap="round" stroke-linejoin="round"/>
<path d="M29.333 42.9466L30.2906 46.2163L33.0278 43.9743L29.8889 41.9424C29.8889 41.9424 29.73 42.5449 29.3377 42.9466H29.333Z" fill="white" stroke="#18292D" stroke-width="1.2" stroke-linecap="round" stroke-linejoin="round"/>
<path d="M40.2212 49.4348V55.2408" stroke="#18292D" stroke-width="1.2" stroke-linecap="round" stroke-linejoin="round"/>
<path d="M22.6909 34.4313C22.9852 34.2631 23.2328 34.4173 23.2328 35.0759C23.2328 35.7345 23.0599 35.7999 22.8171 37.3039C22.7376 37.7944 22.1958 37.7897 22.1958 37.7897C22.079 38.5931 21.724 39.3405 21.1869 39.943L20.9814 40.1719V41.6993C20.9814 42.4327 21.4671 43.0819 22.1725 43.2875C23.5037 43.6705 25.5309 44.0675 27.0116 44.4459C27.4133 44.5486 27.7776 44.7308 28.0906 44.9784C28.7025 45.4641 29.0668 46.2022 29.1369 46.9822L29.8609 54.9789C29.8749 55.1237 29.7581 55.2499 29.6133 55.2499L5.66521 55.2358C5.52041 55.2358 5.40363 55.1097 5.41765 54.9649L6.23507 46.8421C6.30513 46.1321 6.61809 45.4595 7.14591 44.9877C7.48689 44.6841 7.90261 44.4599 8.36037 44.3431C9.84107 43.9648 12.2139 43.6798 13.5405 43.2968C14.2458 43.0913 14.7316 42.4467 14.7316 41.7087V40.1813L14.5261 39.9524C13.9842 39.3498 13.6339 38.5978 13.5171 37.7991C13.5171 37.7991 12.9753 37.8037 12.8959 37.3133C12.653 35.8139 12.4802 35.7485 12.4802 35.0852C12.4802 34.4219 12.7231 34.2678 13.022 34.4406" fill="white"/>
<path d="M22.6909 34.4313C22.9852 34.2631 23.2328 34.4173 23.2328 35.0759C23.2328 35.7345 23.0599 35.7999 22.8171 37.3039C22.7376 37.7944 22.1958 37.7897 22.1958 37.7897C22.079 38.5931 21.724 39.3405 21.1869 39.943L20.9814 40.1719V41.6993C20.9814 42.4327 21.4671 43.0819 22.1725 43.2875C23.5037 43.6705 25.5309 44.0675 27.0116 44.4459C27.4133 44.5486 27.7776 44.7308 28.0906 44.9784C28.7025 45.4641 29.0668 46.2022 29.1369 46.9822L29.8609 54.9789C29.8749 55.1237 29.7581 55.2499 29.6133 55.2499L5.66521 55.2358C5.52041 55.2358 5.40363 55.1097 5.41765 54.9649L6.23507 46.8421C6.30513 46.1321 6.61809 45.4595 7.14591 44.9877C7.48689 44.6841 7.90261 44.4599 8.36037 44.3431C9.84107 43.9648 12.2139 43.6798 13.5405 43.2968C14.2458 43.0913 14.7316 42.4467 14.7316 41.7087V40.1813L14.5261 39.9524C13.9842 39.3498 13.6339 38.5978 13.5171 37.7991C13.5171 37.7991 12.9753 37.8037 12.8959 37.3133C12.653 35.8139 12.4802 35.7485 12.4802 35.0852C12.4802 34.4219 12.7231 34.2678 13.022 34.4406" stroke="#18292D" stroke-width="1.2" stroke-linecap="round" stroke-linejoin="round"/>
<path d="M20.9812 40.1768L18.8325 41.3445C18.0992 41.6388 17.2771 41.6201 16.5531 41.2978L14.7407 40.1768" fill="white"/>
<path d="M20.9812 40.1768L18.8325 41.3445C18.0992 41.6388 17.2771 41.6201 16.5531 41.2978L14.7407 40.1768" stroke="#18292D" stroke-width="1.2" stroke-linecap="round" stroke-linejoin="round"/>
<path d="M14.9511 30.12L16.3991 31.4046C17.0203 31.9557 17.8237 32.2594 18.6505 32.2594H19.991C20.7758 32.2594 21.5325 32.5396 22.1257 33.0488L22.1397 33.0581C22.3546 33.2449 22.504 33.4972 22.5601 33.7774L22.7609 34.7957L23.0552 34.7396C23.0552 34.7396 24.8862 26.8831 18.0246 26.8831C12.4474 26.8831 12.6109 31.7315 12.695 34.352L13.0593 34.5762V34.5528C13.2508 33.1235 13.7833 31.7596 14.6147 30.5825L14.9417 30.1154L14.9511 30.12Z" fill="#18292D" stroke="#18292D" stroke-width="1.2" stroke-linecap="round" stroke-linejoin="round"/>
<path d="M18.4543 46.4406H17.2632C16.9456 46.4406 16.6934 46.2164 16.6934 45.9408V44.6983C16.6934 44.4227 16.9503 44.1985 17.2632 44.1985H18.4543C18.7719 44.1985 19.0242 44.4227 19.0242 44.6983V45.9408C19.0242 46.2164 18.7673 46.4406 18.4543 46.4406Z" fill="white" stroke="#18292D" stroke-width="1.2" stroke-linecap="round" stroke-linejoin="round"/>
<path d="M17.2353 46.6692L16.46 55.2358H19.2579L18.4825 46.6692" fill="white"/>
<path d="M17.2353 46.6692L16.46 55.2358H19.2579L18.4825 46.6692" stroke="#18292D" stroke-width="1.2" stroke-linecap="round" stroke-linejoin="round"/>
<path d="M21.5561 42.9653L20.4724 46.2163L17.8613 43.9743L21.0002 41.9424C21.0002 41.9424 21.0516 42.6851 21.5561 42.9653Z" fill="white" stroke="#18292D" stroke-width="1.2" stroke-linecap="round" stroke-linejoin="round"/>
<path d="M14.167 42.9466L15.1245 46.2163L17.8617 43.9743L14.7228 41.9424C14.7228 41.9424 14.564 42.5449 14.1717 42.9466H14.167Z" fill="white" stroke="#18292D" stroke-width="1.2" stroke-linecap="round" stroke-linejoin="round"/>
<path d="M10.9111 49.4348V55.2408" stroke="#18292D" stroke-width="1.2" stroke-linecap="round" stroke-linejoin="round"/>
<path d="M25.0547 49.4348V55.2408" stroke="#18292D" stroke-width="1.2" stroke-linecap="round" stroke-linejoin="round"/>
</svg>
