<svg width="65" height="65" viewBox="0 0 65 65" fill="none" xmlns="http://www.w3.org/2000/svg">
<path d="M62.3427 46.6452H15.3389C14.4664 46.6452 13.7544 45.883 13.7544 44.9453V12.5331C13.7544 11.5954 14.4614 10.8333 15.3389 10.8333H62.3427C63.2152 10.8333 63.9272 11.5954 63.9272 12.5331V44.9453C63.9272 45.883 63.2202 46.6452 62.3427 46.6452Z" fill="#18292D" stroke="#18292D" stroke-width="1.2" stroke-linecap="round" stroke-linejoin="round"/>
<path d="M15.9058 42.4533V15.0252C15.9058 14.0424 16.6479 13.2451 17.5605 13.2451H60.1216C61.0342 13.2451 61.7763 14.0424 61.7763 15.0252V42.4533C61.7763 43.436 61.0342 44.2333 60.1216 44.2333H17.5605C16.6479 44.2333 15.9058 43.436 15.9058 42.4533Z" fill="white" stroke="#18292D" stroke-width="1.2" stroke-linecap="round" stroke-linejoin="round"/>
<path d="M1.0835 54.1667L2.82846 40.8037C3.14436 39.525 4.13719 38.5272 5.41583 38.2063C7.25105 37.7399 9.76822 37.2485 11.4179 36.7722C12.2954 36.5215 12.8971 35.7142 12.8971 34.8066V32.9162L12.6464 32.6354C11.9745 31.8833 11.5433 30.9556 11.3928 29.9628C11.3928 29.9628 10.7209 29.9678 10.6257 29.3611C10.3248 27.5008 10.1092 27.4206 10.1092 26.6032C10.1092 25.7859 10.4151 25.5904 10.7761 25.801L10.9265 25.7408C10.9265 25.7408 10.6156 23.9707 10.9666 20.556C11.097 19.2974 11.5683 18.0238 12.5612 17.2366C13.895 16.1786 16.2316 16.1385 18.3125 17.1413C18.3125 17.1413 19.9572 16.9357 21.0152 17.392C22.1685 17.8884 23.046 18.6757 23.046 21.609C23.046 22.7773 22.8304 24.056 22.7602 25.801C23.1262 25.5904 23.4271 25.7859 23.4271 26.6032C23.4271 27.4206 23.2115 27.5008 22.9106 29.3611C22.8103 29.9678 22.1434 29.9628 22.1434 29.9628C21.998 30.9556 21.5618 31.8833 20.8899 32.6354L20.6392 32.9162V34.8066C20.6392 35.7192 21.2409 36.5215 22.1184 36.7722C23.7681 37.2485 26.7064 37.6045 28.5467 38.0709C29.8253 38.3968 30.8181 39.3946 31.134 40.6683L32.9993 54.1466" fill="white"/>
<path d="M1.0835 54.1667L2.82846 40.8037C3.14436 39.525 4.13719 38.5272 5.41583 38.2063C7.25105 37.7399 9.76822 37.2485 11.4179 36.7722C12.2954 36.5215 12.8971 35.7142 12.8971 34.8066V32.9162L12.6464 32.6354C11.9745 31.8833 11.5433 30.9556 11.3928 29.9628C11.3928 29.9628 10.7209 29.9678 10.6257 29.3611C10.3248 27.5008 10.1092 27.4206 10.1092 26.6032C10.1092 25.7859 10.4151 25.5904 10.7761 25.801L10.9265 25.7408C10.9265 25.7408 10.6156 23.9707 10.9666 20.556C11.097 19.2974 11.5683 18.0238 12.5612 17.2366C13.895 16.1786 16.2316 16.1385 18.3125 17.1413C18.3125 17.1413 19.9572 16.9357 21.0152 17.392C22.1685 17.8884 23.046 18.6757 23.046 21.609C23.046 22.7773 22.8304 24.056 22.7602 25.801C23.1262 25.5904 23.4271 25.7859 23.4271 26.6032C23.4271 27.4206 23.2115 27.5008 22.9106 29.3611C22.8103 29.9678 22.1434 29.9628 22.1434 29.9628C21.998 30.9556 21.5618 31.8833 20.8899 32.6354L20.6392 32.9162V34.8066C20.6392 35.7192 21.2409 36.5215 22.1184 36.7722C23.7681 37.2485 26.7064 37.6045 28.5467 38.0709C29.8253 38.3968 30.8181 39.3946 31.134 40.6683L32.9993 54.1466" stroke="#18292D" stroke-width="1.2" stroke-linecap="round" stroke-linejoin="round"/>
<path d="M10.9666 20.556C11.097 19.2974 11.5683 18.0238 12.5611 17.2366C13.8949 16.1786 16.2316 16.1385 18.3125 17.1413C18.3125 17.1413 19.9572 16.9357 21.0152 17.392C22.1685 17.8884 23.046 18.6757 23.046 21.609C23.046 21.9319 23.0478 22.0493 23.049 22.0869C23.0501 22.1196 23.0506 22.0922 23.049 22.0869C23.0458 22.0763 23.034 22.1559 23 23C22.1667 22.1667 20.1 20.7 18.5 21.5C16.5 22.5 12.649 19 10.8245 23C10.7924 22.7592 10.8064 22.1141 10.9666 20.556Z" fill="#18292D"/>
<path d="M10.9664 23C10.9664 23 10.8627 23.287 10.8245 23M10.8245 23C10.7924 22.7592 10.8064 22.1141 10.9666 20.556C11.097 19.2974 11.5683 18.0238 12.5611 17.2366C13.8949 16.1786 16.2316 16.1385 18.3125 17.1413C18.3125 17.1413 19.9572 16.9357 21.0152 17.392C22.1685 17.8884 23.046 18.6757 23.046 21.609C23.046 22.7773 23.0702 21.255 23 23C22.1667 22.1667 20.1 20.7 18.5 21.5C16.5 22.5 12.649 19 10.8245 23Z" stroke="#18292D" stroke-width="1.2" stroke-linecap="round" stroke-linejoin="round"/>
<path d="M22.7648 25.6856C22.7648 25.6856 22.4941 23.4192 21.8272 22.4364C21.0349 21.2731 19.6961 21.3383 18.593 21.6742C17.4647 22.0152 16.2613 21.95 15.1381 21.5789C15.083 21.5589 15.0328 21.5438 14.9777 21.5288C13.4383 21.0875 11.8437 22.0603 11.4577 23.6147L10.9312 25.7308" fill="white"/>
<path d="M22.7648 25.6856C22.7648 25.6856 22.4941 23.4192 21.8272 22.4364C21.0349 21.2731 19.6961 21.3383 18.593 21.6742C17.4647 22.0152 16.2613 21.95 15.1381 21.5789C15.083 21.5589 15.0328 21.5438 14.9777 21.5288C13.4383 21.0875 11.8437 22.0603 11.4577 23.6147L10.9312 25.7308" stroke="#18292D" stroke-width="1.2" stroke-linecap="round" stroke-linejoin="round"/>
<path d="M12.897 32.9163L15.5596 34.3654C16.4721 34.7264 17.49 34.7064 18.3826 34.3102L20.629 32.9163" fill="white"/>
<path d="M12.897 32.9163L15.5596 34.3654C16.4721 34.7264 17.49 34.7064 18.3826 34.3102L20.629 32.9163" stroke="#18292D" stroke-width="1.2" stroke-linecap="round" stroke-linejoin="round"/>
<path d="M20.6591 35.1077L16.7681 40.9844L18.7988 40.2172L19.2501 41.7365L22.1133 36.7674" stroke="#18292D" stroke-width="1.2" stroke-linecap="round" stroke-linejoin="round"/>
<path d="M12.8771 35.1077L16.7682 40.9844L14.7625 40.1219L14.2861 41.7365L11.418 36.7674" stroke="#18292D" stroke-width="1.2" stroke-linecap="round" stroke-linejoin="round"/>
<path d="M5.42041 38.2063L7.22053 54.1667" stroke="#18292D" stroke-width="1.2" stroke-linecap="round" stroke-linejoin="round"/>
<path d="M28.5414 38.0708L27.5938 54.1666" stroke="#18292D" stroke-width="1.2" stroke-linecap="round" stroke-linejoin="round"/>
<path d="M29.73 20.0846C29.7199 20.0545 29.6898 20.0344 29.6547 20.0344H28.5366C28.5015 20.0344 28.4714 20.0545 28.4614 20.0846L26.0244 27.2048C26.0244 27.2048 26.0244 27.255 26.0344 27.275C26.0495 27.2951 26.0746 27.3051 26.0996 27.3051H27.0574C27.0925 27.3051 27.1225 27.2851 27.1326 27.25L27.8596 25.0637H30.2916L31.0387 27.25C31.0487 27.28 31.0788 27.3001 31.1139 27.3001H32.1017C32.1268 27.3001 32.1519 27.2901 32.1669 27.27C32.1819 27.25 32.187 27.2249 32.1769 27.1998L29.73 20.0796V20.0846ZM29.0731 21.1927C29.1583 21.5287 29.2536 21.8747 29.384 22.2457L30.0509 24.1913H28.1104L28.7772 22.2357C28.8775 21.9198 28.9728 21.5838 29.0781 21.1927H29.0731Z" fill="#18292D"/>
<path d="M34.082 24.6729C33.761 24.9888 33.6006 25.3949 33.6006 25.8763C33.6006 26.6435 34.1672 27.4207 35.2553 27.4207C35.8721 27.4207 36.4387 27.17 36.8047 26.7438L36.8599 27.2352C36.8599 27.2753 36.9 27.3054 36.9351 27.3054H37.7875C37.7875 27.3054 37.8326 27.2954 37.8477 27.2753C37.8627 27.2552 37.8677 27.2352 37.8627 27.2101C37.8076 26.9042 37.7775 26.5081 37.7775 25.9967V24.0862C37.7775 23.0984 37.4265 21.915 35.7417 21.915C35.0999 21.915 34.4681 22.0855 34.0067 22.3814C33.9767 22.4014 33.9616 22.4365 33.9767 22.4716L34.1873 23.0834C34.1873 23.0834 34.2123 23.1235 34.2374 23.1335C34.2575 23.1385 34.2825 23.1335 34.3026 23.1235C34.6636 22.8928 35.145 22.7574 35.6013 22.7574C36.3284 22.7574 36.6944 23.1285 36.6944 23.8606V23.8907C35.486 23.8907 34.5834 24.1614 34.0769 24.6629L34.082 24.6729ZM35.501 26.5833C35.1099 26.5833 34.6937 26.3727 34.6937 25.776C34.6937 25.5153 34.7739 25.3097 34.9444 25.1442C35.2453 24.8484 35.8169 24.698 36.6442 24.698C36.6693 24.698 36.6944 24.698 36.7195 24.698V25.5103C36.7195 25.5905 36.7044 25.6858 36.6693 25.781C36.544 26.1521 36.1579 26.5833 35.496 26.5833H35.501Z" fill="#18292D"/>
<path d="M45.0682 23.5392C45.72 23.2333 46.1212 22.6617 46.1212 22.0099C46.1212 21.4633 45.9106 21.017 45.5145 20.7212C45.0682 20.3602 44.4615 20.1997 43.5539 20.1997C42.9572 20.1997 42.3254 20.2549 41.8942 20.3451C41.8591 20.3501 41.834 20.3852 41.834 20.4203V27.2648C41.834 27.3049 41.8641 27.335 41.8992 27.34C42.1248 27.3701 42.6062 27.4253 43.3032 27.4253C44.4615 27.4253 45.2688 27.2046 45.7652 26.7534C46.1713 26.3572 46.3769 25.8708 46.3769 25.3042C46.3769 24.3315 45.705 23.7598 45.0682 23.5392ZM42.887 23.1932V21.0973C43.0675 21.0672 43.3082 21.0471 43.604 21.0471C44.5668 21.0471 45.0531 21.4031 45.0531 22.1051C45.0531 22.767 44.4915 23.1932 43.6241 23.1932H42.887ZM43.5639 26.5678C43.258 26.5678 43.0424 26.5578 42.887 26.5377V24.0306H43.5539C44.0703 24.0306 45.2738 24.156 45.2738 25.2942C45.2738 26.4324 44.2057 26.5678 43.5639 26.5678Z" fill="#18292D"/>
<path d="M52.7204 22.692C52.3343 22.3009 51.8329 22.0953 51.2662 22.0953C50.5642 22.0953 49.9876 22.3661 49.6216 22.8625V19.9543C49.6216 19.9091 49.5865 19.874 49.5413 19.874H48.6438C48.5987 19.874 48.5636 19.9091 48.5636 19.9543V25.9964C48.5636 26.4427 48.5435 26.9542 48.5234 27.2801C48.5234 27.3002 48.5285 27.3252 48.5435 27.3403C48.5585 27.3553 48.5786 27.3653 48.5987 27.3653H49.3809C49.421 27.3653 49.4561 27.3353 49.4611 27.2901L49.4912 26.6684C49.8622 27.2049 50.4088 27.4807 51.1258 27.4807C52.244 27.4807 53.4424 26.6182 53.4424 24.7278C53.4475 23.8955 53.1867 23.1734 52.7154 22.692H52.7204ZM52.3844 24.7579C52.3844 25.8962 51.8329 26.5982 50.9453 26.5982C50.3336 26.5982 49.8271 26.202 49.6567 25.5953C49.6366 25.495 49.6165 25.3847 49.6165 25.2794V24.3819C49.6165 24.2665 49.6366 24.1662 49.6567 24.076L49.6667 24.0309C49.8372 23.3991 50.3637 22.9728 50.9754 22.9728C51.9482 22.9728 52.3844 23.8654 52.3844 24.7529V24.7579Z" fill="#18292D"/>
<path d="M36.9955 31.6173C37.4619 31.6173 37.9031 31.7076 38.2441 31.873C38.2642 31.8831 38.2892 31.8831 38.3093 31.873C38.3293 31.863 38.3444 31.848 38.3544 31.8229L38.555 31.156C38.565 31.1209 38.55 31.0808 38.5149 31.0657C38.3845 30.9955 37.8831 30.7749 36.9705 30.7749C34.9397 30.7749 33.5708 32.1388 33.5708 34.1696C33.5708 36.2003 34.8344 37.4489 36.79 37.4489C37.5822 37.4489 38.194 37.2834 38.5048 37.133C38.5399 37.118 38.555 37.0778 38.545 37.0427L38.3745 36.3959C38.3745 36.3959 38.3544 36.3558 38.3344 36.3458C38.3143 36.3357 38.2892 36.3357 38.2692 36.3458C37.9432 36.5012 37.4418 36.6015 36.9655 36.6015C35.4863 36.6015 34.5987 35.6839 34.5987 34.1395C34.5987 32.5951 35.5214 31.6123 37.0006 31.6123L36.9955 31.6173Z" fill="#18292D"/>
<path d="M43.1279 33.3777C43.5942 33.3777 43.8851 33.4881 44.0505 33.5833C44.0706 33.5934 44.0957 33.5984 44.1157 33.5833C44.1358 33.5733 44.1558 33.5583 44.1609 33.5332L44.3514 32.8964C44.3614 32.8613 44.3464 32.8212 44.3113 32.8061C44.0856 32.6958 43.6394 32.5654 43.1279 32.5654C41.6387 32.5654 40.5957 33.5883 40.5957 35.0475C40.5957 36.5066 41.5384 37.4493 42.9474 37.4493C43.5441 37.4493 44.0455 37.2989 44.2962 37.1685C44.3263 37.1535 44.3464 37.1184 44.3363 37.0833L44.196 36.4665C44.196 36.4665 44.1759 36.4264 44.1558 36.4164C44.1358 36.4064 44.1107 36.4064 44.0907 36.4164C43.85 36.5217 43.5541 36.637 43.1028 36.637C42.2003 36.637 41.5935 35.9852 41.5935 35.0174C41.5935 34.0497 42.1953 33.3828 43.1279 33.3828V33.3777Z" fill="#18292D"/>
</svg>
