<svg width="470" height="250" viewBox="0 0 470 250" fill="none" xmlns="http://www.w3.org/2000/svg">
<g clip-path="url(#clip0_562_8730)">
<mask id="mask0_562_8730" style="mask-type:alpha" maskUnits="userSpaceOnUse" x="0" y="0" width="470" height="250">
<path d="M0 20C0 8.9543 8.9543 0 20 0H450C461.046 0 470 8.9543 470 20V250H0V20Z" fill="#F9F9FB"/>
</mask>
<g mask="url(#mask0_562_8730)">
</g>
<g clip-path="url(#clip1_562_8730)">
<path d="M290.144 140.739H283.123L282.603 146.98C280.303 147.421 278.152 148.264 276.229 149.446L271.305 145.278L266.341 150.242L270.383 155.016C269.114 156.892 268.161 159.003 267.617 161.265L261.18 161.8V168.821L267.42 169.341C267.861 171.634 268.705 173.792 269.886 175.715L265.718 180.639L270.682 185.603L275.457 181.553C277.332 182.83 279.444 183.775 281.705 184.319L282.241 190.756H289.261L289.781 184.516C292.082 184.075 294.233 183.232 296.156 182.058L301.08 186.226L306.044 181.262L302.002 176.479C303.278 174.612 304.224 172.5 304.768 170.231L311.205 169.695V162.675L304.965 162.155C304.523 159.862 303.68 157.703 302.506 155.781L306.674 150.856L301.71 145.892L296.928 149.934C295.06 148.658 292.941 147.712 290.68 147.169L290.144 140.739ZM293.981 165.748C293.981 170.05 290.498 173.54 286.188 173.54C281.879 173.54 278.404 170.05 278.404 165.748C278.404 161.446 281.886 157.963 286.188 157.963C290.491 157.963 293.981 161.446 293.981 165.748Z" fill="#FFC31F"/>
<path d="M137.918 78.7695C142.527 74.3099 149.508 72.0801 158.877 72.0801C168.245 72.0801 175.557 74.3729 180.82 78.9586C186.083 83.5443 188.715 89.3985 188.715 96.5292C188.715 99.8778 188.179 102.864 187.116 105.488C185.177 110.294 181.514 114.486 176.124 118.079C173.989 119.434 172.531 120.372 171.759 120.884C170.979 121.388 169.419 122.373 167.063 123.831C164.707 125.28 163.037 126.935 162.044 128.779C161.051 130.622 160.405 134.428 160.114 140.204H155.678L155.536 133.877C155.536 129.606 157.364 124.146 161.028 117.504C164.691 110.854 166.519 103.825 166.519 96.3952C166.519 90.3755 165.479 85.7189 163.391 82.4176C161.303 79.1241 157.955 77.4694 153.353 77.4694C150.343 77.4694 148.2 78.1077 146.908 79.392C145.624 80.6763 144.978 82.0472 144.978 83.5049C144.978 84.1352 145.072 84.6474 145.269 85.0335C145.466 85.4274 145.829 85.9317 146.364 86.562L147.381 87.7991C148.5 89.1543 149.288 90.3913 149.745 91.5102C150.202 92.6211 150.438 94.0315 150.438 95.7334C150.438 98.499 149.516 100.705 147.672 102.352C145.829 104.007 143.623 104.826 141.054 104.826C138.336 104.826 135.988 103.841 133.994 101.879C132.009 99.9172 131.008 97.065 131.008 93.3302C131.008 88.0906 133.317 83.2449 137.926 78.7774L137.918 78.7695ZM149.162 155.3C151.612 152.85 154.582 151.62 158.081 151.62C161.579 151.62 164.487 152.85 166.961 155.3C169.435 157.75 170.672 160.721 170.672 164.211C170.672 167.702 169.435 170.672 166.961 173.123C164.487 175.573 161.524 176.794 158.081 176.794C154.638 176.794 151.612 175.573 149.162 173.123C146.711 170.672 145.49 167.702 145.49 164.211C145.49 160.721 146.711 157.743 149.162 155.3Z" fill="#18292D"/>
<path d="M246.336 96.6316H187.636C178.859 96.6316 171.743 103.747 171.743 112.524V112.532C171.743 121.309 178.859 128.424 187.636 128.424H246.336C255.113 128.424 262.228 121.309 262.228 112.532V112.524C262.228 103.747 255.113 96.6316 246.336 96.6316Z" fill="#4A7C88"/>
<path d="M258.383 247.81L245.981 227.899L233.264 224.235C223.864 221.525 215.685 215.647 210.115 207.602L194.23 184.666C192.489 182.152 194.018 178.678 197.051 178.268C200.195 177.842 203.386 178.654 205.931 180.545L222.335 192.718C227.693 196.689 235.336 193.341 236.037 186.706C236.707 180.379 235.785 173.989 233.351 168.119L213.29 119.741C211.959 116.527 211.974 112.91 213.33 109.703C214.133 107.812 216.631 107.402 217.994 108.939L220.641 111.925V108.395C220.641 106.26 222.312 104.495 224.447 104.377C225.968 104.29 227.41 105.078 228.166 106.402L253.836 151.4L238.228 113.328C237.14 110.672 238.039 107.615 240.387 105.968C241.947 104.881 244.106 105.433 244.949 107.135L267.806 153.496L266.42 129.157C266.199 125.241 268.224 121.538 271.643 119.607L299.244 215.678L337.324 249.22L258.367 247.825L258.383 247.81Z" fill="white"/>
<path d="M337.34 250C337.151 250 336.97 249.937 336.82 249.803L298.74 216.269C298.63 216.167 298.543 216.041 298.504 215.899L271.194 120.837C268.571 122.712 267.034 125.856 267.223 129.11L268.602 153.448C268.626 153.819 268.381 154.158 268.019 154.252C267.657 154.347 267.278 154.173 267.113 153.842L244.255 107.481C243.956 106.875 243.404 106.433 242.75 106.26C242.097 106.095 241.403 106.221 240.852 106.607C238.787 108.049 238.015 110.688 238.968 113.02L254.577 151.093C254.735 151.479 254.569 151.92 254.191 152.101C253.821 152.282 253.364 152.141 253.159 151.786L227.489 106.788C226.874 105.716 225.724 105.086 224.494 105.157C222.777 105.251 221.437 106.67 221.437 108.387V111.917C221.437 112.24 221.232 112.54 220.933 112.65C220.626 112.768 220.279 112.682 220.066 112.437L217.419 109.451C216.962 108.931 216.276 108.695 215.591 108.805C214.905 108.915 214.338 109.364 214.07 110.003C212.802 112.997 212.794 116.432 214.039 119.426L234.099 167.804C236.581 173.785 237.527 180.34 236.841 186.777C236.479 190.173 234.399 193.026 231.263 194.397C228.135 195.768 224.628 195.374 221.879 193.333L205.474 181.16C203.079 179.379 200.132 178.622 197.169 179.024C196.019 179.182 195.05 179.907 194.585 180.97C194.12 182.034 194.23 183.24 194.892 184.193L210.777 207.129C216.229 215.001 224.297 220.8 233.492 223.455L246.209 227.119C246.399 227.174 246.556 227.292 246.659 227.458L259.06 247.368C259.289 247.739 259.179 248.227 258.808 248.456C258.438 248.684 257.957 248.574 257.721 248.204L245.477 228.545L233.051 224.96C223.502 222.202 215.134 216.19 209.477 208.02L193.592 185.083C192.615 183.673 192.45 181.9 193.135 180.332C193.829 178.764 195.255 177.693 196.949 177.456C200.313 176.999 203.678 177.858 206.404 179.883L222.808 192.056C225.093 193.751 228.016 194.081 230.617 192.939C233.225 191.796 234.958 189.425 235.257 186.596C235.911 180.419 235.005 174.123 232.626 168.395L212.565 120.017C211.163 116.629 211.179 112.752 212.605 109.372C213.085 108.238 214.102 107.434 215.323 107.237C216.544 107.032 217.758 107.466 218.585 108.387L219.861 109.821V108.364C219.861 105.811 221.863 103.699 224.408 103.557C226.236 103.455 227.946 104.385 228.859 105.976L248.502 140.416L237.511 113.596C236.274 110.578 237.274 107.158 239.953 105.291C240.883 104.637 242.049 104.424 243.152 104.708C244.255 104.991 245.177 105.74 245.674 106.756L266.814 149.643L265.647 129.173C265.411 124.989 267.617 120.947 271.273 118.898C271.486 118.78 271.738 118.764 271.959 118.859C272.179 118.953 272.353 119.143 272.416 119.371L299.953 215.221L337.86 248.605C338.183 248.897 338.215 249.393 337.931 249.716C337.773 249.89 337.561 249.984 337.34 249.984V250Z" fill="#18292D"/>
<path d="M243.357 153.921C243.058 153.921 242.774 153.748 242.64 153.464L230.79 127.676L220.003 112.366C219.751 112.012 219.838 111.515 220.192 111.271C220.547 111.019 221.043 111.106 221.288 111.46L232.121 126.832C232.153 126.872 232.177 126.911 232.192 126.959L244.074 152.81C244.255 153.204 244.082 153.677 243.688 153.858C243.578 153.905 243.467 153.929 243.357 153.929V153.921Z" fill="#18292D"/>
<path d="M302.215 139.668C292.539 139.668 284.66 131.796 284.66 122.113C284.66 112.429 292.531 104.566 302.215 104.566C311.898 104.566 319.77 112.437 319.77 122.113C319.77 131.789 311.898 139.668 302.215 139.668ZM302.215 106.142C293.406 106.142 286.236 113.312 286.236 122.113C286.236 130.914 293.406 138.092 302.215 138.092C311.024 138.092 318.194 130.922 318.194 122.113C318.194 113.304 311.024 106.142 302.215 106.142Z" fill="#18292D"/>
<path d="M302.215 139.668C296.431 139.668 291.728 131.796 291.728 122.113C291.728 112.429 296.431 104.566 302.215 104.566C307.998 104.566 312.694 112.437 312.694 122.113C312.694 131.789 307.99 139.668 302.215 139.668ZM302.215 106.142C297.298 106.142 293.303 113.312 293.303 122.113C293.303 130.914 297.298 138.092 302.215 138.092C307.131 138.092 311.118 130.922 311.118 122.113C311.118 113.304 307.123 106.142 302.215 106.142Z" fill="#18292D"/>
<path d="M302.215 139.668C301.781 139.668 301.427 139.313 301.427 138.88V105.354C301.427 104.92 301.781 104.566 302.215 104.566C311.89 104.566 319.77 112.437 319.77 122.113C319.77 131.789 311.898 139.668 302.215 139.668ZM303.003 106.158V138.068C311.449 137.658 318.194 130.654 318.194 122.113C318.194 113.572 311.449 106.567 303.003 106.158Z" fill="#18292D"/>
<path d="M317.886 128.81H286.543C286.212 128.81 285.921 128.605 285.802 128.298C285.046 126.289 284.668 124.209 284.668 122.113C284.668 120.017 285.054 117.937 285.81 115.928C285.929 115.62 286.22 115.416 286.551 115.416H317.894C318.225 115.416 318.517 115.62 318.635 115.928C319.391 117.937 319.777 120.017 319.777 122.113C319.777 124.209 319.391 126.289 318.635 128.298C318.517 128.605 318.225 128.81 317.894 128.81H317.886ZM287.095 127.234H317.335C317.902 125.564 318.194 123.838 318.194 122.113C318.194 120.387 317.902 118.662 317.335 116.991H287.103C286.535 118.662 286.244 120.379 286.244 122.113C286.244 123.846 286.535 125.564 287.095 127.234Z" fill="#18292D"/>
<path d="M166.85 162.998H210.493V136.957H203.583V128.771L194.546 136.957H166.85V162.998Z" fill="white"/>
<path d="M210.493 163.786H166.85C166.417 163.786 166.062 163.431 166.062 162.998V136.949C166.062 136.516 166.417 136.162 166.85 136.162H194.238L203.055 128.18C203.284 127.967 203.622 127.92 203.906 128.046C204.19 128.172 204.371 128.456 204.371 128.763V136.154H210.493C210.926 136.154 211.281 136.508 211.281 136.942V162.99C211.281 163.423 210.926 163.778 210.493 163.778V163.786ZM167.638 162.21H209.705V137.737H203.583C203.15 137.737 202.795 137.383 202.795 136.949V130.544L195.074 137.532C194.932 137.666 194.743 137.737 194.546 137.737H167.638V162.21Z" fill="#18292D"/>
<path d="M201.968 153.882H175.383C174.95 153.882 174.596 153.527 174.596 153.094C174.596 152.66 174.95 152.306 175.383 152.306H201.976C202.409 152.306 202.764 152.66 202.764 153.094C202.764 153.527 202.409 153.882 201.976 153.882H201.968Z" fill="#18292D"/>
<path d="M201.968 147.177H175.383C174.95 147.177 174.596 146.822 174.596 146.389C174.596 145.955 174.95 145.601 175.383 145.601H201.976C202.409 145.601 202.764 145.955 202.764 146.389C202.764 146.822 202.409 147.177 201.976 147.177H201.968Z" fill="#18292D"/>
<path d="M200.14 70.7878H233.666V85.8607H227.701V92.9126L219.909 85.8607H200.14V70.7878Z" fill="white"/>
<path d="M227.701 93.7006C227.512 93.7006 227.323 93.6297 227.173 93.4957L219.601 86.6408H200.132C199.699 86.6408 199.344 86.2863 199.344 85.8529V70.7879C199.344 70.3546 199.699 70 200.132 70H233.658C234.091 70 234.446 70.3546 234.446 70.7879V85.8608C234.446 86.2942 234.091 86.6487 233.658 86.6487H228.481V92.9206C228.481 93.2357 228.3 93.5115 228.016 93.6376C227.914 93.6848 227.804 93.7085 227.693 93.7085L227.701 93.7006ZM200.92 85.065H219.901C220.098 85.065 220.287 85.1359 220.429 85.2699L226.905 91.132V85.8529C226.905 85.4196 227.26 85.065 227.693 85.065H232.87V71.5758H200.92V85.0729V85.065Z" fill="#18292D"/>
<path d="M227.953 79.2975H205.025C204.592 79.2975 204.237 78.943 204.237 78.5096C204.237 78.0762 204.592 77.7217 205.025 77.7217H227.953C228.387 77.7217 228.741 78.0762 228.741 78.5096C228.741 78.943 228.387 79.2975 227.953 79.2975Z" fill="#18292D"/>
<path d="M295.249 82.2521H266.593C266.159 82.2521 265.805 81.8975 265.805 81.4642C265.805 81.0308 266.159 80.6763 266.593 80.6763H295.249C295.683 80.6763 296.037 81.0308 296.037 81.4642C296.037 81.8975 295.683 82.2521 295.249 82.2521Z" fill="#18292D"/>
<path d="M295.249 87.7438H266.593C266.159 87.7438 265.805 87.3892 265.805 86.9559C265.805 86.5225 266.159 86.168 266.593 86.168H295.249C295.683 86.168 296.037 86.5225 296.037 86.9559C296.037 87.3892 295.683 87.7438 295.249 87.7438Z" fill="#18292D"/>
<path d="M256.76 87.3815C256.61 87.3815 256.468 87.3421 256.334 87.2554L253.088 85.1595C252.726 84.9232 252.615 84.4346 252.852 84.0722C253.088 83.7098 253.576 83.5994 253.939 83.8358L256.586 85.5456L261.077 79.9199C261.345 79.5811 261.842 79.5259 262.188 79.7938C262.527 80.0617 262.582 80.5581 262.315 80.9048L257.382 87.0821C257.225 87.279 256.996 87.3815 256.768 87.3815H256.76Z" fill="#18292D"/>
<path d="M141.566 130.914C141.338 130.914 141.109 130.819 140.959 130.622C140.684 130.284 140.731 129.787 141.07 129.512L143.386 127.613C143.386 127.613 143.433 127.573 143.465 127.557C144.143 127.132 144.938 126.454 144.938 125.682V123.46C144.938 122.097 143.827 120.986 142.472 120.986H139.856C138.493 120.986 137.39 122.097 137.39 123.46V124.5C137.39 124.934 137.035 125.288 136.602 125.288C136.169 125.288 135.814 124.934 135.814 124.5V123.46C135.814 121.23 137.626 119.41 139.856 119.41H142.472C144.702 119.41 146.514 121.223 146.514 123.46V125.682C146.514 126.872 145.781 127.936 144.347 128.865L142.062 130.733C141.913 130.851 141.739 130.914 141.566 130.914Z" fill="#18292D"/>
<path d="M140.282 135.059H138.706V132.845C138.706 131.663 139.439 130.591 140.873 129.669L143.158 127.794L144.158 129.015L141.842 130.922C141.842 130.922 141.787 130.961 141.763 130.977C141.085 131.403 140.29 132.072 140.29 132.852V135.066L140.282 135.059Z" fill="#18292D"/>
<path d="M140.282 137.17H138.706V138.919H140.282V137.17Z" fill="#18292D"/>
<path d="M283.391 103.03H264.363V105.393H283.391V103.03Z" fill="#18292D"/>
<path d="M280.697 109.703L279.026 108.033L282.848 104.211L279.026 100.382L280.697 98.7117L286.188 104.211L280.697 109.703Z" fill="#18292D"/>
</g>
</g>
<defs>
<clipPath id="clip0_562_8730">
<rect width="470" height="250" fill="white"/>
</clipPath>
<clipPath id="clip1_562_8730">
<rect width="207.128" height="180" fill="white" transform="translate(131 70)"/>
</clipPath>
</defs>
</svg>
