<svg width="65" height="65" viewBox="0 0 65 65" fill="none" xmlns="http://www.w3.org/2000/svg">
<path d="M60.6145 54.1668H4.18296C3.66737 54.1668 3.25 53.6206 3.25 52.9454V12.0611C3.25 11.3859 3.66737 10.8335 4.18296 10.8335H60.6145C61.1301 10.8335 61.5475 11.3798 61.5475 12.0549V52.9454C61.5475 53.6206 61.1301 54.1668 60.6145 54.1668Z" fill="white" stroke="#18292D" stroke-width="1.2" stroke-linecap="round" stroke-linejoin="round"/>
<path d="M61.0558 18H3.9442C3.4224 18 3 17.9118 3 17.8027V11.1983C3 11.0892 3.4224 11 3.9442 11H61.0558C61.5776 11 62 11.0882 62 11.1973V17.8027C62 17.9118 61.5776 18 61.0558 18Z" fill="#18292D" stroke="#18292D" stroke-width="1.2" stroke-linecap="round" stroke-linejoin="round"/>
<path d="M3.25 17.8242H61.5475" stroke="#18292D" stroke-width="1.2" stroke-linecap="round" stroke-linejoin="round"/>
<path d="M10.585 29.6212V17.8242H52.6785V29.6212H10.585Z" fill="white" stroke="#18292D" stroke-width="1.2" stroke-linecap="round" stroke-linejoin="round"/>
<path d="M20.0306 23.7231H13.3833V30.9167H20.0306V23.7231Z" fill="#18292D" stroke="#18292D" stroke-width="1.2" stroke-linecap="round" stroke-linejoin="round"/>
<path d="M8.41748 36.9258H20.5275" stroke="#18292D" stroke-width="1.2" stroke-linecap="round" stroke-linejoin="round"/>
<path d="M8.41748 40.7739H20.5275" stroke="#18292D" stroke-width="1.2" stroke-linecap="round" stroke-linejoin="round"/>
<path d="M8.41748 44.6289H20.5275" stroke="#18292D" stroke-width="1.2" stroke-linecap="round" stroke-linejoin="round"/>
<path d="M8.41748 48.4775H20.5275" stroke="#18292D" stroke-width="1.2" stroke-linecap="round" stroke-linejoin="round"/>
<path d="M26.6597 36.9258H38.7758" stroke="#18292D" stroke-width="1.2" stroke-linecap="round" stroke-linejoin="round"/>
<path d="M26.6597 40.7739H38.7758" stroke="#18292D" stroke-width="1.2" stroke-linecap="round" stroke-linejoin="round"/>
<path d="M26.6597 44.6289H38.7758" stroke="#18292D" stroke-width="1.2" stroke-linecap="round" stroke-linejoin="round"/>
<path d="M26.6597 48.4775H38.7758" stroke="#18292D" stroke-width="1.2" stroke-linecap="round" stroke-linejoin="round"/>
<path d="M44.2695 36.9258H56.3857" stroke="#18292D" stroke-width="1.2" stroke-linecap="round" stroke-linejoin="round"/>
<path d="M44.2695 40.7739H56.3857" stroke="#18292D" stroke-width="1.2" stroke-linecap="round" stroke-linejoin="round"/>
<path d="M44.2695 44.6289H56.3857" stroke="#18292D" stroke-width="1.2" stroke-linecap="round" stroke-linejoin="round"/>
<path d="M44.2695 48.4775H56.3857" stroke="#18292D" stroke-width="1.2" stroke-linecap="round" stroke-linejoin="round"/>
<path d="M24.3145 25.5337H43.9127" stroke="#18292D" stroke-width="1.2" stroke-linecap="round" stroke-linejoin="round"/>
<path d="M7.04907 15.6089C7.74738 15.6089 8.31347 15.0428 8.31347 14.3445C8.31347 13.6462 7.74738 13.0801 7.04907 13.0801C6.35076 13.0801 5.78467 13.6462 5.78467 14.3445C5.78467 15.0428 6.35076 15.6089 7.04907 15.6089Z" fill="white" stroke="white" stroke-width="1.2" stroke-linecap="round" stroke-linejoin="round"/>
<path d="M11.9104 15.6089C12.6087 15.6089 13.1748 15.0428 13.1748 14.3445C13.1748 13.6462 12.6087 13.0801 11.9104 13.0801C11.2121 13.0801 10.646 13.6462 10.646 14.3445C10.646 15.0428 11.2121 15.6089 11.9104 15.6089Z" fill="white" stroke="white" stroke-width="1.2" stroke-linecap="round" stroke-linejoin="round"/>
</svg>
