<svg width="200" height="200" viewBox="0 0 200 200" fill="none" xmlns="http://www.w3.org/2000/svg">
<g clip-path="url(#clip0_756_7986)">
<path d="M90.5176 25.3512C115.47 23.3919 139.427 31.4901 156.375 42.5174C173.491 53.7633 183.591 67.9404 184.694 83.0907C185.805 98.3875 178.132 112.916 166.764 127.267C155.242 141.401 140.025 155.36 122.585 164.407C88.8759 183.323 50.252 168.011 31.8411 122.294C13.4105 76.8664 39.2109 27.9608 90.5176 25.3512Z" fill="#EEF9FB"/>
<path d="M7.03351 129.309L-1.18965 131.808C-2.98096 132.353 -3.59753 134.579 -2.33193 135.968L27.1858 168.361C27.8023 169.036 28.7369 169.335 29.6261 169.134L81.2756 157.587C83.1253 158.944 85.6955 158.71 87.2726 157.049L88.3954 155.861L124.657 144.639L84.0794 111.831L7.03351 129.309Z" fill="#4A7C88"/>
<path d="M83.9369 154.778L123.651 142.401L78.18 105.276L52.3293 113.428C48.3703 114.674 44.9239 117.167 42.4966 120.528L83.9369 154.771V154.778Z" fill="white"/>
<path d="M83.9371 155.426C83.7878 155.426 83.6386 155.374 83.5217 155.277L42.0814 121.034C41.8153 120.82 41.7699 120.431 41.9711 120.152C44.4634 116.699 48.0784 114.09 52.1349 112.811L77.9856 104.659C78.1932 104.594 78.4204 104.64 78.5892 104.776L124.06 141.9C124.248 142.05 124.332 142.29 124.287 142.523C124.242 142.757 124.073 142.952 123.846 143.017L84.1318 155.394C84.0669 155.413 84.002 155.42 83.9371 155.42V155.426ZM43.386 120.424L84.0799 154.05L122.301 142.141L78.0375 106.003L52.5243 114.051C48.9222 115.186 45.6965 117.439 43.386 120.424Z" fill="#18292D"/>
<path d="M83.9375 154.777L84.4632 153.407C85.9625 149.513 89.0259 146.417 92.907 144.879L118.401 138.369L123.651 142.4L83.9375 154.777Z" fill="white"/>
<path d="M83.9379 155.426C83.7626 155.426 83.5874 155.355 83.4641 155.219C83.2953 155.037 83.2434 154.777 83.3343 154.544L83.86 153.174C85.4177 149.118 88.6303 145.879 92.6673 144.276C92.6932 144.263 92.7192 144.257 92.7452 144.25L118.239 137.74C118.427 137.688 118.635 137.734 118.797 137.857L124.048 141.888C124.242 142.037 124.333 142.277 124.294 142.517C124.249 142.757 124.08 142.952 123.846 143.023L84.1326 155.4C84.0677 155.42 84.0028 155.426 83.9379 155.426ZM93.1086 145.503C89.4221 146.976 86.495 149.942 85.0737 153.648L85.0282 153.765L122.263 142.16L118.252 139.084L93.1086 145.503Z" fill="#18292D"/>
<path d="M83.9361 154.778L43.9107 122.145C40.6526 119.49 36.3625 118.458 32.2542 119.341L-0.0932617 126.286L29.8333 156.504L83.9361 154.778Z" fill="white"/>
<path d="M29.8393 157.153C29.6641 157.153 29.5018 157.082 29.3785 156.958L-0.554558 126.746C-0.723305 126.578 -0.781717 126.331 -0.716815 126.104C-0.651912 125.877 -0.463695 125.701 -0.230045 125.656L32.1174 118.705C36.4464 117.777 40.8922 118.848 44.3191 121.645L84.3445 154.278C84.5522 154.447 84.6366 154.732 84.5522 154.992C84.4678 155.252 84.2277 155.427 83.9551 155.433L29.8523 157.16C29.8523 157.16 29.8393 157.16 29.8328 157.16L29.8393 157.153ZM1.2043 126.675L30.0989 155.849L82.1833 154.187L43.5013 122.651C40.3795 120.107 36.3296 119.133 32.39 119.977L1.2043 126.675Z" fill="#18292D"/>
<path d="M83.9383 154.777L29.8354 165.135V156.503L60.2942 150.831C67.6152 149.468 75.1764 150.493 81.8679 153.764L83.9383 154.777Z" fill="white"/>
<path d="M29.8409 165.784C29.6916 165.784 29.5424 165.732 29.4255 165.635C29.2763 165.511 29.1919 165.33 29.1919 165.135V156.503C29.1919 156.191 29.4126 155.925 29.7241 155.867L60.1829 150.194C67.5818 148.818 75.3896 149.876 82.1589 153.18L84.2293 154.192C84.4824 154.316 84.6252 154.582 84.5863 154.861C84.5473 155.14 84.3396 155.361 84.067 155.413L29.9642 165.771C29.9253 165.778 29.8799 165.784 29.8409 165.784ZM30.4899 157.042V164.35L81.9058 154.504L81.5813 154.348C75.0651 151.168 67.5493 150.142 60.4165 151.473L30.4899 157.048V157.042Z" fill="#18292D"/>
<path d="M29.8398 156.504L-0.0932617 126.285V133.769L29.8398 165.136V156.504Z" fill="white"/>
<path d="M29.8394 165.785C29.6642 165.785 29.4954 165.713 29.3721 165.584L-0.560949 134.216C-0.677773 134.093 -0.742676 133.937 -0.742676 133.768V126.285C-0.742676 126.019 -0.580419 125.785 -0.34028 125.688C-0.0936499 125.584 0.185431 125.642 0.367159 125.831L30.2937 156.049C30.4106 156.173 30.482 156.335 30.482 156.504V165.136C30.482 165.402 30.3197 165.642 30.0731 165.739C29.9952 165.772 29.9108 165.785 29.8329 165.785H29.8394ZM0.555376 133.509L29.1839 163.513V156.77L0.555376 127.862V133.509Z" fill="#18292D"/>
<path d="M101.876 109.891C101.805 109.787 101.714 109.703 101.603 109.645C101.603 109.645 87.273 102.687 82.3598 99.7404C78.0438 97.1508 59.9295 104.102 60.1112 106.257L61.7987 126.831C61.8376 127.317 62.0843 127.765 62.4672 128.064C62.8501 128.362 63.3499 128.486 63.8301 128.401C65.1542 128.168 66.3678 127.623 67.3933 126.844L67.5101 127.24C67.6464 127.707 67.9709 128.096 68.4123 128.317C68.8471 128.531 69.3598 128.557 69.8142 128.375C70.0089 128.298 70.2036 128.213 70.3918 128.122C71.8456 127.421 73.0268 126.305 73.8381 124.962L74.1042 125.331C74.3898 125.727 74.8311 125.987 75.3114 126.039C75.6424 126.078 75.9734 126.019 76.2655 125.877C76.4018 125.812 76.5316 125.727 76.6484 125.624C77.0768 125.254 77.4532 124.845 77.7842 124.403C80.8346 126.805 84.5925 128.187 88.4866 128.278L90.1871 128.317L118.621 149.676C118.725 149.858 118.66 149.508 118.861 149.56C119.036 149.605 119.147 149.423 119.309 149.345C119.328 149.332 119.354 149.326 119.374 149.313L138.974 139.85C139.156 139.74 139.409 139.824 139.448 139.623C139.494 139.415 139.708 139.727 139.584 139.558L101.876 109.891Z" fill="white"/>
<path d="M138.902 140.532C138.76 140.532 138.623 140.486 138.5 140.395L100.889 110.871L84.4361 102.479C82.3267 101.363 66.7242 102.122 62.4146 104.958C61.7851 105.374 61.4865 105.77 61.519 106.146L63.2064 126.72C63.2194 126.844 63.2908 126.915 63.3297 126.947C63.3752 126.98 63.4595 127.032 63.5829 127.012C66.2504 126.545 68.3922 124.546 69.0282 121.911L70.0472 117.705C70.1315 117.355 70.482 117.141 70.8325 117.225C71.183 117.309 71.3971 117.66 71.3128 118.01L70.2938 122.216C69.5344 125.351 66.9838 127.733 63.81 128.291C63.3622 128.369 62.9014 128.252 62.5379 127.979C62.181 127.7 61.9473 127.285 61.9149 126.831L60.2274 106.256C60.156 105.374 60.6558 104.569 61.7072 103.875C66.1984 100.921 82.2943 99.87 85.0397 101.33L101.544 109.748C101.583 109.768 101.616 109.787 101.648 109.813L139.311 139.376C139.59 139.597 139.642 140.006 139.422 140.285C139.292 140.447 139.104 140.532 138.909 140.532H138.902Z" fill="#18292D"/>
<path d="M101.583 85.9158L98.9092 82.9368C97.4359 81.2947 95.4758 80.5808 94.5348 81.3467L47.8179 120.606L55.8398 129.537L102.557 90.2773C103.498 89.5114 103.063 87.5578 101.583 85.9093V85.9158Z" fill="#FFC31F"/>
<path d="M93.0674 82.5477L101.089 91.4783L102.556 90.2776C103.497 89.5118 103.062 87.5582 101.583 85.9097L98.9086 82.9307C97.4353 81.2886 95.4753 80.5747 94.5342 81.3406L93.0674 82.5413V82.5477Z" fill="#18292D"/>
<path d="M47.9219 121.806L54.5809 129.218L43.1191 132.022L47.9219 121.806Z" fill="white"/>
<path d="M48.0973 122.969L53.3739 128.849L44.2875 131.075L48.0973 122.975V122.969ZM47.7533 120.645L41.9575 132.977L55.7883 129.589L47.7533 120.645Z" fill="#18292D"/>
<path d="M47.4868 130.757L44.9621 128.109L41.9766 133.003L47.4868 130.757Z" fill="#18292D"/>
<path d="M69.1651 128.375C68.9185 128.375 68.6718 128.317 68.4512 128.207C68.0423 128.005 67.7372 127.642 67.6074 127.201L67.1466 125.604C67.0493 125.26 67.244 124.903 67.588 124.799C67.9319 124.702 68.2889 124.897 68.3928 125.241L68.8536 126.837C68.886 126.954 68.9704 127.012 69.0223 127.038C69.0677 127.064 69.1651 127.09 69.2819 127.051C71.8001 126.065 73.5006 123.676 73.6044 120.963L73.7148 118.036C73.7277 117.679 74.0328 117.381 74.3898 117.413C74.7467 117.426 75.0258 117.731 75.0128 118.088L74.9025 121.015C74.7792 124.241 72.7607 127.084 69.7557 128.259C69.5675 128.336 69.3663 128.369 69.1651 128.369V128.375Z" fill="#18292D"/>
<path d="M75.4987 125.935C75.4402 125.935 75.3753 125.935 75.3169 125.922C74.8626 125.87 74.4537 125.63 74.1876 125.26L73.2141 123.916C73.0064 123.624 73.0713 123.222 73.3634 123.008C73.6554 122.8 74.0578 122.865 74.272 123.157L75.2455 124.5C75.3169 124.604 75.4143 124.624 75.4727 124.63C75.5246 124.63 75.6285 124.63 75.7193 124.552C77.7638 122.774 78.5556 119.951 77.7443 117.368C77.634 117.024 77.8287 116.66 78.1662 116.556C78.5101 116.453 78.8736 116.641 78.9774 116.978C79.9445 120.055 78.9969 123.41 76.5696 125.526C76.271 125.786 75.8946 125.922 75.5052 125.922L75.4987 125.935Z" fill="#18292D"/>
<path d="M86.1954 108.125L66.0432 110.702C64.6348 110.883 63.7781 112.35 64.3103 113.661C65.3552 116.244 67.8929 117.912 70.6772 117.854L78.2189 117.698C83.3203 120.989 89.4665 122.248 95.4506 121.229L96.2943 121.086L86.2019 108.125H86.1954Z" fill="white"/>
<path d="M91.3491 122.228C86.6566 122.228 82.0485 120.904 78.0311 118.354L70.6906 118.51C67.6466 118.555 64.8493 116.725 63.707 113.908C63.376 113.09 63.4409 112.188 63.8888 111.429C64.3301 110.669 65.0895 110.17 65.9592 110.059L86.1114 107.483C86.4684 107.444 86.7929 107.69 86.8383 108.047C86.8838 108.404 86.6306 108.729 86.2737 108.774L66.1214 111.351C65.6476 111.409 65.2452 111.682 65.0051 112.091C64.765 112.5 64.7325 112.986 64.9077 113.428C65.8294 115.706 68.0815 117.218 70.5348 117.218C70.5737 117.218 70.6192 117.218 70.6581 117.218L78.1998 117.062C78.3426 117.062 78.4594 117.095 78.5633 117.166C83.5413 120.379 89.4928 121.592 95.3341 120.599L96.1778 120.457C96.5348 120.398 96.8658 120.632 96.9242 120.989C96.9826 121.346 96.749 121.677 96.392 121.735L95.5483 121.878C94.1464 122.118 92.738 122.235 91.3426 122.235L91.3491 122.228Z" fill="#18292D"/>
<path d="M119.301 150.001C119.165 150.001 119.029 149.955 118.912 149.871L90.4133 128.213L88.4857 128.167C84.3449 128.07 80.3404 126.519 77.2121 123.813C76.9395 123.579 76.9135 123.17 77.1472 122.897C77.3808 122.625 77.7897 122.599 78.0623 122.833C80.9635 125.351 84.6759 126.785 88.5181 126.876L90.6534 126.928C90.7897 126.928 90.9195 126.98 91.0299 127.058L119.697 148.839C119.983 149.053 120.035 149.462 119.821 149.748C119.691 149.916 119.496 150.001 119.301 150.001Z" fill="#18292D"/>
<path d="M172.412 126.532L139.96 125.611L128.914 97.3454L155.154 87.0908L172.412 126.532Z" fill="white"/>
<path d="M172.412 127.181H172.392L139.941 126.259C139.681 126.253 139.448 126.091 139.357 125.844L128.31 97.579C128.18 97.248 128.343 96.8715 128.68 96.7352L154.92 86.4806C155.245 86.3508 155.608 86.5066 155.751 86.8246L173.015 126.266C173.106 126.467 173.08 126.707 172.957 126.889C172.833 127.071 172.632 127.175 172.418 127.175L172.412 127.181ZM140.408 124.974L171.406 125.857L154.804 87.928L129.751 97.7218L140.408 124.981V124.974Z" fill="#18292D"/>
<path d="M105.88 172.905L109.482 149.845C111.267 138.435 118.88 128.784 129.563 124.397L148.924 116.44C155.661 113.668 163.313 114.22 169.582 117.926L178.377 123.125C184.523 126.753 188.657 133.009 189.592 140.084L193.934 172.905H105.88Z" fill="white"/>
<path d="M105.88 173.554C105.847 173.554 105.815 173.554 105.776 173.548C105.419 173.489 105.179 173.158 105.237 172.808L108.839 149.748C110.644 138.189 118.49 128.246 129.31 123.793L148.67 115.836C155.556 113.007 163.494 113.578 169.906 117.368L178.701 122.567C185.061 126.325 189.26 132.679 190.234 140L194.576 172.821C194.621 173.178 194.374 173.502 194.018 173.548C193.661 173.593 193.336 173.347 193.291 172.99L188.949 140.168C188.034 133.243 184.055 127.233 178.045 123.683L169.251 118.484C163.189 114.902 155.68 114.363 149.17 117.037L129.809 124.994C119.406 129.271 111.864 138.831 110.124 149.943L106.522 173.003C106.47 173.321 106.198 173.554 105.88 173.554Z" fill="#18292D"/>
<path d="M127.512 71.7478C138.463 71.7478 147.34 66.3604 147.34 59.7148C147.34 53.0692 138.463 47.6819 127.512 47.6819C116.562 47.6819 107.685 53.0692 107.685 59.7148C107.685 66.3604 116.562 71.7478 127.512 71.7478Z" fill="#18292D"/>
<path d="M152.446 99.8761C157.82 95.7223 161.702 89.4852 162.818 82.1187C165.083 67.2431 155.179 53.7303 140.829 51.2121C117.276 47.0778 110.454 67.6844 110.5 72.1237C110.513 73.1622 110.519 74.1747 110.519 75.1482C110.325 76.7837 110.279 78.4063 110.37 79.9964C110.097 83.4428 109.39 86.1038 107.586 87.5641C104.827 89.7902 114.121 114.453 135.474 103.945L152.446 99.8826V99.8761Z" fill="white"/>
<path d="M125.414 107.191C123.324 107.191 121.306 106.828 119.378 106.101C114.511 104.27 111.376 100.584 109.604 97.8127C106.748 93.3409 105.613 88.3174 107.177 87.0583C108.637 85.8771 109.422 83.6964 109.721 79.9904C109.637 78.3744 109.688 76.7388 109.877 75.1162C109.877 74.1557 109.87 73.1627 109.857 72.1372C109.825 69.0543 112.408 61.0518 118.762 55.6584C124.577 50.7258 132.041 49.0189 140.939 50.5831C155.867 53.2051 165.758 67.1073 163.46 82.2296C162.35 89.5116 158.58 95.963 152.842 100.402C152.557 100.623 152.154 100.571 151.934 100.285C151.713 99.9999 151.765 99.5975 152.05 99.3768C157.522 95.1452 161.124 88.9859 162.175 82.0413C164.369 67.62 154.945 54.3669 140.712 51.8746C132.203 50.3819 125.103 51.9914 119.599 56.6644C113.167 62.1227 111.129 70.0279 111.149 72.1437C111.162 73.1886 111.168 74.1946 111.168 75.1747C111.168 75.2006 111.168 75.2266 111.168 75.2525C110.98 76.8297 110.935 78.4198 111.019 79.9839C111.019 80.0099 111.019 80.0423 111.019 80.0683C110.694 84.1831 109.766 86.6559 107.995 88.0903C107.391 88.577 107.806 92.601 110.701 97.1377C113.375 101.324 121.111 110.306 135.189 103.381C135.507 103.226 135.896 103.355 136.058 103.68C136.214 104.004 136.084 104.387 135.76 104.55C132.151 106.328 128.692 107.217 125.414 107.217V107.191Z" fill="#18292D"/>
<path d="M143.697 45.3192C134.072 43.8524 124.817 47.5389 118.554 54.3472C121.163 54.0422 123.837 54.0616 126.53 54.4705C144.813 57.2483 157.099 76.1869 153.965 96.761C153.789 97.9033 153.569 99.0261 153.309 100.129C160.675 95.7745 166.14 88.142 167.555 78.8479C170.009 62.7066 159.332 47.6947 143.697 45.3192Z" fill="#18292D"/>
<path d="M115.698 98.3835C115.458 98.3835 115.231 98.2537 115.114 98.02C114.952 97.702 115.088 97.3126 115.406 97.1503C117.223 96.2547 117.593 94.0545 117.593 94.035C117.652 93.6845 117.983 93.4444 118.333 93.4963C118.684 93.5482 118.93 93.8792 118.878 94.2362C118.859 94.353 118.418 97.1179 115.984 98.3186C115.893 98.364 115.796 98.3835 115.698 98.3835Z" fill="#18292D"/>
<path d="M119.561 74.9151C119.262 74.9151 118.996 74.7074 118.925 74.4024C118.769 73.7015 117.796 72.6565 116.433 72.1308C115.634 71.8258 114.07 71.4688 112.571 72.5332C112.279 72.7409 111.87 72.6695 111.669 72.3839C111.461 72.0919 111.533 71.683 111.818 71.4818C113.298 70.4304 115.102 70.2292 116.9 70.9236C118.568 71.5662 119.918 72.8837 120.191 74.1233C120.268 74.4738 120.048 74.8178 119.697 74.8957C119.652 74.9086 119.606 74.9086 119.554 74.9086L119.561 74.9151Z" fill="#18292D"/>
<path d="M115.615 80.3149C115.401 81.1002 114.765 81.613 114.2 81.4572C113.635 81.3014 113.35 80.5421 113.564 79.7502C113.778 78.9649 114.414 78.4522 114.979 78.608C115.543 78.7637 115.829 79.5231 115.615 80.3149Z" fill="#18292D"/>
<path d="M201.279 141.609C201.234 141.609 201.189 141.609 201.143 141.596C200.793 141.518 200.572 141.174 200.643 140.823C204.129 124.63 193.712 118.14 181.789 112.409C175.74 109.501 171.405 103.654 168.893 95.0281C166.401 86.461 166.479 77.777 166.745 73.3701C166.764 73.0131 167.089 72.7405 167.433 72.76C167.79 72.7795 168.062 73.091 168.043 73.448C167.783 77.777 167.705 86.2857 170.139 94.6711C172.541 102.927 176.649 108.502 182.354 111.241C194.27 116.972 205.595 123.994 201.915 141.096C201.851 141.401 201.578 141.609 201.279 141.609Z" fill="#18292D"/>
<path d="M121.236 52.4263C121.236 52.4263 118.86 62.5965 120.898 67.3409C122.93 72.0853 122.281 85.28 139.876 81.2366C146.08 79.8087 132.756 111.397 143.264 116.485C153.771 121.567 164.954 125.974 161.904 139.532C158.853 153.09 202.909 157.835 200.203 139.195C197.49 120.555 188.338 118.523 177.837 112.085C167.329 105.646 166.654 85.9874 168.011 74.1297C169.367 62.272 143.27 40.2311 121.236 52.4263Z" fill="#18292D"/>
<path d="M147.085 88.7767C150.129 85.7326 150.129 80.7972 147.085 77.7531C144.041 74.7091 139.106 74.7091 136.062 77.7531C133.017 80.7972 133.018 85.7326 136.062 88.7766C139.106 91.8207 144.041 91.8207 147.085 88.7767Z" fill="white"/>
<path d="M138.862 84.9357C138.862 84.9357 138.823 84.9357 138.81 84.9357C138.453 84.9098 138.187 84.5918 138.219 84.2348C138.232 84.0531 138.641 79.737 142.711 78.2573C143.048 78.134 143.418 78.3092 143.541 78.6467C143.665 78.9842 143.49 79.3541 143.152 79.4774C139.855 80.6781 139.511 84.3062 139.511 84.3451C139.485 84.6826 139.2 84.9422 138.862 84.9422V84.9357Z" fill="#18292D"/>
<path d="M134.372 173.126C134.372 173.126 134.32 173.126 134.295 173.126C133.938 173.08 133.684 172.756 133.73 172.405L135.67 156.647C135.716 156.29 136.047 156.037 136.391 156.082C136.748 156.128 137.001 156.452 136.956 156.803L135.015 172.561C134.976 172.892 134.697 173.132 134.372 173.132V173.126Z" fill="#18292D"/>
<path d="M117.966 131.685L117.855 130.998C116.739 123.787 119.919 116.589 126.001 112.565C128.662 110.806 130.894 108.463 132.517 105.711L140.837 92.6206C140.837 92.6206 154.162 104.874 161.126 116.148C165.734 123.612 164.15 135.573 161.989 130.822C159.082 124.423 149.236 124.293 149.236 124.293C138.352 124.046 127.584 126.591 117.959 131.685H117.966Z" fill="#18292D"/>
</g>
<defs>
<clipPath id="clip0_756_7986">
<rect width="200" height="200" fill="white"/>
</clipPath>
</defs>
</svg>
