<svg width="1300" height="400" viewBox="0 0 1300 400" fill="none" xmlns="http://www.w3.org/2000/svg">
<ellipse cx="128.732" cy="61.2504" rx="128.732" ry="61.2504" transform="matrix(0.930064 -0.367398 -0.367398 -0.930064 518.007 240.526)" fill="#F2F7F8"/>
<path d="M543.691 169.74C541.432 169.351 539.604 170.218 537.504 170.984C530.198 173.648 522.397 174.977 514.737 176.202C490.471 180.085 466.98 177.007 445.292 165.062C429.433 156.327 407.027 135.494 414.859 115.575C420.738 100.622 432.009 100.445 444.915 106.232C456.302 111.338 454.678 121.871 448.887 131.309C443.531 140.038 439.13 142.581 429.449 145.039C408.65 150.319 390.557 150.432 369.477 145.706C364.004 144.479 297.5 113.92 276 131.92" stroke="black" stroke-width="2" stroke-linecap="round" stroke-linejoin="round" stroke-dasharray="6 6"/>
<path d="M1022.5 209.501C1004.5 195.001 984.499 202.001 966.791 195.519C959.558 192.664 951.794 191.131 944.168 189.706C920.013 185.189 896.449 187.651 874.456 199.024C858.373 207.341 835.43 227.581 842.737 247.698C848.223 262.799 859.486 263.272 872.539 257.824C884.056 253.018 882.707 242.446 877.165 232.86C872.04 223.994 867.708 221.336 858.094 218.626C837.44 212.803 819.356 212.216 798.16 216.389C792.657 217.473 740.499 251.001 708 233.502" stroke="black" stroke-width="2" stroke-linecap="round" stroke-linejoin="round" stroke-dasharray="6 6"/>
<circle cx="231.5" cy="143.92" r="56" fill="white" stroke="#18292D"/>
<g clip-path="url(#clip0_711_9308)">
<path d="M214.12 174.546L231.97 144.706L251.632 174.546" stroke="#18292D" stroke-width="1.20475" stroke-linecap="round" stroke-linejoin="round"/>
<path d="M232.355 135.565V174.546" stroke="#18292D" stroke-width="1.20475" stroke-linecap="round" stroke-linejoin="round"/>
<path d="M259.397 154.489H204.536C203.519 154.489 202.688 153.601 202.688 152.505V114.678C202.688 113.582 203.519 112.687 204.536 112.687H259.397C260.414 112.687 261.245 113.575 261.245 114.671V152.505C261.245 153.601 260.421 154.489 259.397 154.489Z" fill="#18292D" stroke="#18292D" stroke-width="1.20475" stroke-linecap="round" stroke-linejoin="round"/>
<path d="M205.202 149.597V117.587C205.202 116.44 206.069 115.509 207.136 115.509H256.804C257.871 115.509 258.738 116.44 258.738 117.587V149.597C258.738 150.743 257.871 151.675 256.804 151.675H207.129C206.062 151.675 205.195 150.743 205.195 149.597H205.202Z" fill="white" stroke="#18292D" stroke-width="1.20475" stroke-linecap="round" stroke-linejoin="round"/>
<path d="M233.024 125.901C229.194 125.901 226.095 129.027 226.095 132.893C226.095 136.751 229.203 139.886 233.024 139.886C236.853 139.886 239.952 136.759 239.952 132.893C239.952 129.036 236.845 125.901 233.024 125.901ZM231.02 136.003V129.775L236.369 132.885L231.02 135.994V136.003Z" fill="#FFC31F"/>
</g>
<circle cx="1068" cy="210.5" r="56" fill="white" stroke="#18292D"/>
<g clip-path="url(#clip1_711_9308)">
<path d="M1095.28 179.542H1062.03C1061.19 179.542 1060.5 180.226 1060.5 181.07V181.725C1060.5 182.569 1061.19 183.254 1062.03 183.254H1095.28C1096.12 183.254 1096.81 182.569 1096.81 181.725V181.07C1096.81 180.226 1096.12 179.542 1095.28 179.542Z" fill="#18292D" stroke="#18292D" stroke-width="1.3" stroke-linecap="round" stroke-linejoin="round"/>
<path d="M1065.86 204.438L1070.58 198.17C1070.66 198.063 1070.78 197.99 1070.92 197.978C1071.05 197.961 1071.19 198.001 1071.29 198.091L1073.62 200.054L1077.36 194.779C1077.51 194.559 1077.82 194.503 1078.04 194.661L1082.33 197.634L1089.84 188.85" stroke="#FFC31F" stroke-width="1.3" stroke-linecap="round" stroke-linejoin="round"/>
<path d="M1091.65 186.3L1087.67 188.613L1090.43 190.746L1091.65 186.3L1087.67 188.613L1090.43 190.746L1091.65 186.3Z" fill="white"/>
<path d="M1091.65 186.3L1087.67 188.613L1090.43 190.746L1091.65 186.3ZM1091.65 186.3L1087.67 188.613L1090.43 190.746L1091.65 186.3Z" stroke="#FFC31F" stroke-width="1.3" stroke-linecap="round" stroke-linejoin="round"/>
<path d="M1095.44 183.254H1062.09V207.304H1095.44V183.254Z" stroke="#18292D" stroke-width="1.3" stroke-linecap="round" stroke-linejoin="round"/>
<path d="M1049.59 216.292V238.198C1049.59 239.998 1051.05 241.453 1052.85 241.453C1054.65 241.453 1056.1 239.998 1056.1 238.198L1055.92 216.292L1055.6 200.721C1056.23 201.657 1056.88 202.577 1057.59 203.468L1057.63 203.513C1058.1 204.094 1058.8 204.433 1059.55 204.433C1060.3 204.433 1061.01 204.089 1061.48 203.491L1068.64 194.38C1069.48 193.319 1069.39 191.756 1068.35 190.893C1067.28 189.996 1065.68 190.171 1064.83 191.26L1059.63 197.883C1059.1 197.099 1058.58 196.275 1058.05 195.412C1056.86 193.511 1055.02 192.349 1052.25 192.382C1052.21 192.382 1052.17 192.382 1052.14 192.382L1045.53 192.473C1040.64 192.45 1038.64 194.808 1038.58 197.781C1038.58 197.894 1038.54 214.83 1038.54 214.83C1038.51 216.19 1039.59 217.313 1040.95 217.347C1040.97 217.347 1040.99 217.347 1041.01 217.347C1041.87 217.347 1042.63 216.901 1043.07 216.23" fill="white"/>
<path d="M1049.59 216.292V238.198C1049.59 239.998 1051.05 241.453 1052.85 241.453C1054.65 241.453 1056.1 239.998 1056.1 238.198L1055.92 216.292L1055.6 200.721C1056.23 201.657 1056.88 202.577 1057.59 203.468L1057.63 203.513C1058.1 204.094 1058.8 204.433 1059.55 204.433C1060.3 204.433 1061.01 204.089 1061.48 203.491L1068.64 194.38C1069.48 193.319 1069.39 191.756 1068.35 190.893C1067.28 189.996 1065.68 190.171 1064.83 191.26L1059.63 197.883C1059.1 197.099 1058.58 196.275 1058.05 195.412C1056.86 193.511 1055.02 192.349 1052.25 192.382C1052.21 192.382 1052.17 192.382 1052.14 192.382L1045.53 192.473C1040.64 192.45 1038.64 194.808 1038.58 197.781C1038.58 197.894 1038.54 214.83 1038.54 214.83C1038.51 216.19 1039.59 217.313 1040.95 217.347C1040.97 217.347 1040.99 217.347 1041.01 217.347C1041.87 217.347 1042.63 216.901 1043.07 216.23" stroke="#18292D" stroke-width="1.3" stroke-linecap="round" stroke-linejoin="round"/>
<path d="M1048.49 190.357C1051.47 190.357 1053.89 187.937 1053.89 184.953C1053.89 181.968 1051.47 179.548 1048.49 179.548C1045.5 179.548 1043.08 181.968 1043.08 184.953C1043.08 187.937 1045.5 190.357 1048.49 190.357Z" fill="white" stroke="#18292D" stroke-width="1.3" stroke-linecap="round" stroke-linejoin="round"/>
<path d="M1049.59 216.292V238.198C1049.59 239.998 1048.14 241.453 1046.34 241.453C1044.54 241.453 1043.08 239.998 1043.08 238.198V216.292" fill="white"/>
<path d="M1049.59 216.292V238.198C1049.59 239.998 1048.14 241.453 1046.34 241.453C1044.54 241.453 1043.08 239.998 1043.08 238.198V216.292" stroke="#18292D" stroke-width="1.3" stroke-linecap="round" stroke-linejoin="round"/>
<path d="M1043.08 201.318V216.291" stroke="#18292D" stroke-width="1.3" stroke-linecap="round" stroke-linejoin="round"/>
</g>
<path d="M682.133 223.496L682.94 226.159C684.873 232.496 690.301 237.157 696.857 238.091L701.991 238.821L712.374 240.498C715.588 241.023 718.161 237.874 717.022 234.814C716.497 233.418 715.293 232.407 713.834 232.138L707.099 230.87L715.05 220.653L723.551 219.437C727.943 218.81 731.4 215.378 732.078 211L704.833 209.297L682.12 223.483L682.133 223.496Z" fill="white"/>
<path d="M713.091 241.83C712.797 241.83 712.489 241.804 712.182 241.753L701.799 240.076L696.69 239.346C689.661 238.347 683.784 233.303 681.723 226.517L680.917 223.854C680.75 223.303 680.968 222.702 681.467 222.394L704.18 208.196C704.41 208.055 704.679 207.991 704.935 208.004L732.181 209.706C732.539 209.732 732.872 209.898 733.103 210.18C733.333 210.462 733.423 210.82 733.371 211.179C732.603 216.159 728.75 219.975 723.756 220.692L715.767 221.831L709.429 229.987L714.103 230.857C715.985 231.216 717.585 232.547 718.251 234.353C718.955 236.222 718.609 238.245 717.355 239.794C716.292 241.1 714.743 241.817 713.104 241.817L713.091 241.83ZM683.644 224.059L684.169 225.774C685.948 231.613 691.005 235.953 697.049 236.811L702.183 237.541L712.592 239.218C713.642 239.384 714.679 239 715.357 238.168C716.036 237.336 716.215 236.248 715.844 235.249C715.485 234.289 714.627 233.559 713.616 233.38L706.882 232.112C706.446 232.035 706.075 231.728 705.921 231.305C705.768 230.883 705.832 230.422 706.113 230.064L714.064 219.847C714.269 219.591 714.563 219.411 714.896 219.36L723.398 218.144C726.778 217.657 729.505 215.327 730.516 212.165L705.192 210.577L683.669 224.033L683.644 224.059Z" fill="#18292D"/>
<path d="M707.676 214.546C707.061 214.546 706.523 214.111 706.421 213.483C706.306 212.792 706.767 212.126 707.471 211.998L723.936 209.156C724.627 209.041 725.293 209.502 725.421 210.206C725.536 210.897 725.075 211.563 724.371 211.691L707.906 214.533C707.829 214.533 707.765 214.546 707.688 214.546H707.676Z" fill="#18292D"/>
<path d="M710.094 317.535L686.472 331.119L671.377 301.454L694.999 287.87L710.094 317.535Z" fill="white"/>
<path d="M686.472 332.4C686.344 332.4 686.229 332.387 686.101 332.348C685.768 332.246 685.486 332.016 685.32 331.696L670.225 302.03C669.918 301.429 670.135 300.686 670.724 300.34L694.346 286.756C694.654 286.577 695.012 286.538 695.345 286.641C695.678 286.743 695.96 286.974 696.126 287.294L711.221 316.959C711.528 317.561 711.311 318.303 710.722 318.649L687.1 332.233C686.908 332.348 686.677 332.4 686.46 332.4H686.472ZM673.067 301.966L686.997 329.34L708.392 317.036L694.462 289.662L673.067 301.966Z" fill="#18292D"/>
<path d="M633.187 279.689H605.941L607.644 249.602H634.89L633.187 279.689Z" fill="white"/>
<path d="M633.186 280.969H605.941C605.582 280.969 605.249 280.828 605.006 280.572C604.763 280.316 604.635 279.97 604.66 279.625L606.363 249.537C606.402 248.858 606.965 248.333 607.644 248.333H634.889C635.247 248.333 635.58 248.474 635.824 248.73C636.067 248.986 636.195 249.332 636.169 249.678L634.466 279.765C634.428 280.444 633.865 280.969 633.186 280.969ZM607.298 278.408H631.983L633.545 250.881H608.86L607.298 278.408Z" fill="#18292D"/>
<path d="M588.284 137.15C590.806 139.685 591.856 142.003 591.753 143.526C591.753 143.526 650.456 182.077 670.045 173.486C685.896 166.534 674.385 152.514 670.391 150.658C662.888 147.162 662.542 146.625 667.894 139.071C673.246 131.517 679.276 127.701 667.139 123.732C658.561 120.916 658.701 118.189 660.494 108.01C662.286 97.8314 646.782 93.0302 640.508 94.4002C634.222 95.7701 641.379 90.4567 636.411 87.9729C631.443 85.5019 629.446 88.2802 628.089 90.2775C626.732 92.2748 615.567 90.7384 611.637 98.1515C607.706 105.565 599.128 102.748 599.294 116.588C599.461 130.416 596.234 124.193 592.445 124.731C588.642 125.269 583.06 131.863 588.322 137.163L588.284 137.15Z" fill="#18292D"/>
<path d="M570.745 186.02L590.615 161.041L539.53 154.793L590.18 136.804C596.684 134.487 603.815 134.615 610.243 137.15L636.374 147.469C640.996 149.287 645.055 152.283 648.166 156.163L701.888 221.216L701.402 221.984C697.663 227.912 690.43 230.613 683.721 228.603L634.902 183.19L630.933 200.795L570.757 186.033L570.745 186.02Z" fill="#96D8E8"/>
<path d="M688.163 230.537C686.563 230.537 684.937 230.306 683.349 229.833C683.157 229.781 682.991 229.679 682.85 229.538L635.657 185.636L632.174 201.064C632.098 201.396 631.893 201.691 631.598 201.87C631.304 202.049 630.958 202.101 630.625 202.024L570.45 187.262C570.027 187.159 569.682 186.839 569.541 186.429C569.4 186.02 569.477 185.559 569.746 185.213L588.195 162.026L539.376 156.06C538.787 155.983 538.326 155.522 538.262 154.933C538.198 154.345 538.544 153.781 539.107 153.589L589.757 135.601C596.556 133.181 604.007 133.309 610.716 135.972L636.848 146.291C641.662 148.186 645.925 151.336 649.164 155.369L702.887 220.409C703.233 220.832 703.271 221.434 702.976 221.907L702.49 222.676C699.34 227.656 693.861 230.537 688.176 230.537H688.163ZM684.361 227.464C690.404 229.141 696.933 226.645 700.301 221.331L647.167 156.995C644.197 153.295 640.292 150.427 635.9 148.685L609.769 138.366C603.636 135.946 596.825 135.831 590.615 138.033L545.087 154.204L590.781 159.786C591.242 159.837 591.639 160.144 591.806 160.567C591.985 160.989 591.908 161.489 591.626 161.847L572.998 185.264L629.959 199.233L633.647 182.909C633.749 182.46 634.082 182.102 634.517 181.974C634.953 181.833 635.426 181.948 635.772 182.256L684.373 227.464H684.361Z" fill="#18292D"/>
<path d="M623.25 214.123L631.137 216.453C642.877 219.923 653.197 227.067 660.584 236.836L710.952 303.541H710.671C699.34 302.99 688.201 306.639 679.405 313.796L672.645 319.289L631.777 245.632L623.263 214.123H623.25Z" fill="white"/>
<path d="M672.632 320.569C672.555 320.569 672.466 320.569 672.389 320.544C672.017 320.467 671.697 320.237 671.518 319.904L630.65 246.247C630.599 246.157 630.561 246.054 630.535 245.965L622.021 214.456C621.906 214.008 622.021 213.534 622.366 213.201C622.699 212.881 623.186 212.766 623.621 212.894L631.508 215.224C643.428 218.745 654.119 226.145 661.608 236.055L711.976 302.76C712.271 303.157 712.322 303.695 712.092 304.13C711.861 304.565 711.388 304.847 710.901 304.809H710.619C699.583 304.284 688.79 307.817 680.224 314.782L673.464 320.275C673.234 320.467 672.952 320.557 672.658 320.557L672.632 320.569ZM632.955 245.145L673.016 317.33L678.598 312.798C687.036 305.935 697.522 302.222 708.34 302.184L659.573 237.604C652.416 228.117 642.186 221.05 630.791 217.682L625.094 216.005L632.968 245.145H632.955Z" fill="#18292D"/>
<path d="M599.834 265.209L609.103 260.471C616.619 256.63 625.184 255.363 633.506 256.835L639.857 257.962L631.471 193.318C629.921 181.347 617.323 174.19 606.235 178.991L587.069 187.288H569.618L560.925 196.173C544.152 213.33 557.148 242.15 581.103 240.934L597.708 235.403L599.834 265.209Z" fill="white"/>
<path d="M599.833 266.502C599.616 266.502 599.398 266.451 599.206 266.335C598.835 266.118 598.591 265.746 598.553 265.311L596.543 237.157L581.499 242.176C581.384 242.214 581.269 242.24 581.153 242.24C569.515 242.803 559.337 236.606 554.561 225.992C549.773 215.378 551.859 203.625 559.99 195.303L568.683 186.417C568.926 186.174 569.259 186.033 569.592 186.033H586.787L605.71 177.839C611.369 175.394 617.681 175.74 623.046 178.774C628.397 181.821 631.931 187.07 632.725 193.178L641.111 257.821C641.162 258.231 641.021 258.628 640.727 258.91C640.432 259.191 640.01 259.319 639.613 259.242L633.263 258.116C625.273 256.695 616.9 257.949 609.666 261.637L600.397 266.374C600.217 266.463 600.013 266.515 599.82 266.515L599.833 266.502ZM597.708 234.135C597.964 234.135 598.207 234.212 598.425 234.353C598.758 234.571 598.963 234.929 598.988 235.326L600.986 263.199L608.54 259.345C616.26 255.401 625.209 254.07 633.749 255.593L638.384 256.413L630.215 193.498C629.524 188.197 626.464 183.626 621.816 180.989C617.169 178.339 611.676 178.044 606.773 180.182L587.606 188.479C587.44 188.543 587.273 188.581 587.094 188.581H570.181L561.872 197.083C554.497 204.636 552.602 215.302 556.942 224.93C561.257 234.507 570.424 240.114 580.897 239.679L597.337 234.199C597.465 234.148 597.606 234.135 597.746 234.135H597.708Z" fill="#18292D"/>
<path d="M597.708 236.696C597.016 236.696 596.453 236.145 596.427 235.454L595.57 203.945C595.557 203.241 596.107 202.652 596.811 202.626C597.516 202.601 598.105 203.164 598.13 203.868L598.988 235.377C599.001 236.081 598.45 236.67 597.746 236.696H597.708Z" fill="#18292D"/>
<path d="M567.479 197.095C566.98 197.095 566.519 196.814 566.301 196.327C566.019 195.674 566.314 194.919 566.967 194.637L586.556 186.123C587.209 185.841 587.964 186.136 588.246 186.789C588.528 187.442 588.233 188.197 587.58 188.479L567.991 196.993C567.825 197.07 567.658 197.095 567.479 197.095Z" fill="#18292D"/>
<path d="M639.86 126.501C648.387 116.948 647.555 102.29 638.001 93.7633C628.447 85.2362 613.79 86.0685 605.263 95.6223C596.736 105.176 597.568 119.833 607.122 128.361C616.676 136.888 631.333 136.055 639.86 126.501Z" fill="#18292D"/>
<path d="M648.013 124.731C647.104 124.347 646.144 124.206 645.222 124.283C648.961 115.564 646.131 105.296 638.167 99.7777C629.077 93.4913 616.543 96.0392 610.064 104.989L606.735 109.585C600.897 117.664 604.008 129.059 613.15 133.041L614.814 133.77L613.752 138.572C612.561 143.962 615.967 149.288 621.357 150.479L624.865 151.247C629.589 152.284 634.262 149.301 635.299 144.589L636.746 138.047C638.334 137.022 639.678 135.576 640.574 133.77L640.741 133.45C641.343 134.385 642.213 135.153 643.302 135.64C646.298 136.984 649.818 135.64 651.163 132.631C652.494 129.648 651.048 125.986 648.026 124.718L648.013 124.731Z" fill="white"/>
<path d="M626.759 152.77C626.029 152.77 625.3 152.693 624.583 152.527L621.074 151.759C618.13 151.106 615.62 149.352 614.007 146.816C612.381 144.281 611.856 141.26 612.496 138.315L613.329 134.538L612.624 134.231C607.913 132.182 604.43 128.162 603.086 123.194C601.729 118.24 602.676 113.003 605.698 108.842L609.027 104.246C615.992 94.6176 629.384 92.1465 638.897 98.7274C646.745 104.156 649.997 114.168 647.039 123.105C647.539 123.194 648.038 123.348 648.512 123.54C650.266 124.283 651.687 125.742 652.404 127.56C653.121 129.378 653.095 131.414 652.314 133.155C650.688 136.792 646.412 138.443 642.763 136.817C642.097 136.523 641.496 136.139 640.958 135.665C640.139 136.894 639.089 137.969 637.872 138.84L636.541 144.883C635.965 147.495 634.403 149.736 632.136 151.182C630.498 152.219 628.641 152.757 626.759 152.757V152.77ZM626.964 97.6135C620.946 97.6135 614.916 100.469 611.088 105.756L607.759 110.353C605.198 113.886 604.392 118.329 605.544 122.529C606.696 126.728 609.641 130.147 613.636 131.888L615.3 132.618C615.864 132.861 616.171 133.475 616.043 134.064L614.98 138.866C614.481 141.132 614.89 143.475 616.145 145.434C617.4 147.393 619.346 148.75 621.612 149.249L625.12 150.017C629.141 150.901 633.135 148.353 634.031 144.333L635.478 137.79C635.555 137.457 635.747 137.176 636.029 136.996C637.475 136.062 638.641 134.756 639.409 133.232L639.575 132.912C639.78 132.502 640.19 132.234 640.651 132.208C641.112 132.17 641.547 132.4 641.803 132.784C642.302 133.539 642.994 134.141 643.813 134.5C646.169 135.55 648.934 134.487 649.984 132.131C650.484 131.017 650.496 129.711 650.023 128.521C649.549 127.343 648.64 126.382 647.513 125.922C646.822 125.627 646.079 125.525 645.324 125.576C644.876 125.614 644.44 125.409 644.184 125.051C643.915 124.68 643.864 124.206 644.044 123.796C647.564 115.589 644.786 105.936 637.437 100.853C634.275 98.6634 630.626 97.6135 626.977 97.6135H626.964Z" fill="#18292D"/>
<path d="M642.736 131.875C642.557 131.875 642.39 131.837 642.211 131.76C641.571 131.478 641.276 130.71 641.558 130.07C642.838 127.215 646.193 125.922 649.048 127.202C649.688 127.484 649.983 128.252 649.701 128.892C649.419 129.532 648.651 129.827 648.011 129.545C646.449 128.854 644.592 129.545 643.901 131.12C643.683 131.594 643.223 131.875 642.736 131.875Z" fill="#18292D"/>
<path d="M617.552 112.824C617.155 112.824 616.771 112.645 616.515 112.299C616.105 111.723 616.233 110.929 616.796 110.507L620.804 107.6C621.739 106.922 622.328 105.885 622.417 104.745C622.52 103.606 622.11 102.479 621.316 101.66C621.278 101.621 621.252 101.583 621.214 101.544C621.175 101.493 619.844 99.9696 616.464 100.699C615.772 100.84 615.094 100.418 614.94 99.7263C614.786 99.0349 615.222 98.3564 615.913 98.2027C620.535 97.1913 622.776 99.4318 623.173 99.9056C624.466 101.263 625.119 103.106 624.965 104.976C624.799 106.858 623.838 108.573 622.302 109.687L618.294 112.594C618.064 112.76 617.808 112.837 617.539 112.837L617.552 112.824Z" fill="#18292D"/>
<path d="M633.775 113.08C632.853 113.848 631.752 113.874 631.317 113.157C630.882 112.44 631.291 111.224 632.213 110.455C633.135 109.687 634.236 109.662 634.671 110.379C635.107 111.096 634.697 112.312 633.775 113.08Z" fill="#18292D"/>
<path d="M618.257 105.68C617.335 106.448 616.234 106.473 615.799 105.756C615.363 105.027 615.76 103.823 616.695 103.055C617.629 102.287 618.718 102.261 619.153 102.978C619.588 103.708 619.191 104.911 618.257 105.68Z" fill="#18292D"/>
<path d="M614.736 116.639L625.67 119.11C625.67 119.11 616.99 130.479 614.736 116.639Z" fill="white"/>
<path d="M619.23 124.782C618.884 124.782 618.538 124.743 618.193 124.654C615.773 124.052 614.224 121.491 613.468 116.844C613.404 116.421 613.545 115.999 613.852 115.704C614.16 115.41 614.595 115.295 615.017 115.384L625.951 117.855C626.374 117.958 626.72 118.252 626.873 118.662C627.027 119.072 626.95 119.532 626.694 119.878C626.284 120.416 622.84 124.782 619.243 124.782H619.23ZM616.387 118.329C616.964 120.582 617.809 121.927 618.807 122.17C620.075 122.49 621.906 121.184 623.25 119.878L616.387 118.329Z" fill="#18292D"/>
<path d="M645.503 123.528C648.576 115.475 646.181 106.282 639.421 100.764C637.232 108.433 639.69 116.896 645.503 123.528Z" fill="#18292D"/>
<path d="M640.048 115.116C639.395 115.116 638.831 114.616 638.767 113.951C638.243 108.292 632.071 106.346 631.815 106.269C631.137 106.064 630.753 105.347 630.957 104.668C631.162 103.99 631.866 103.606 632.545 103.81C632.878 103.913 640.637 106.307 641.315 113.707C641.379 114.412 640.867 115.039 640.163 115.103C640.125 115.103 640.086 115.103 640.048 115.103V115.116Z" fill="#18292D"/>
<path d="M617.553 135.268C616.49 135.268 615.466 135.204 614.582 135.05C613.891 134.922 613.417 134.256 613.545 133.565C613.673 132.873 614.314 132.4 615.031 132.528C618.859 133.206 626.054 131.798 626.118 131.785C626.822 131.644 627.488 132.092 627.629 132.797C627.77 133.488 627.322 134.167 626.617 134.307C626.374 134.359 621.637 135.293 617.553 135.293V135.268Z" fill="#18292D"/>
<path d="M608.041 276.45L624.224 268.55C631.586 264.965 639.818 265.106 647.078 268.96C652.212 271.674 651.815 280.368 646.463 282.429L616.312 294.054C614.237 294.848 611.971 294.311 610.32 292.646L606.351 288.6C602.894 285.079 603.79 278.524 608.028 276.45H608.041Z" fill="#18292D"/>
<path d="M634.888 184.471C634.773 184.471 634.645 184.458 634.529 184.42C633.851 184.228 633.467 183.511 633.659 182.832L637.628 169.21C637.82 168.531 638.524 168.134 639.215 168.339C639.894 168.531 640.278 169.248 640.086 169.927L636.117 183.549C635.951 184.113 635.438 184.471 634.888 184.471Z" fill="#18292D"/>
<path d="M593.149 153.769L598.68 145.523L599.474 146.112C600.934 147.188 601.561 149.044 601.049 150.786L593.149 153.782V153.769Z" fill="white"/>
<path d="M593.149 155.049C592.906 155.049 592.663 154.985 592.432 154.832C591.843 154.435 591.69 153.641 592.087 153.052L597.618 144.807C597.81 144.512 598.117 144.32 598.463 144.256C598.808 144.205 599.154 144.282 599.436 144.487L600.229 145.075C602.111 146.458 602.931 148.904 602.265 151.144C602.06 151.823 601.356 152.22 600.678 152.002C599.999 151.797 599.615 151.093 599.82 150.414C600.14 149.313 599.82 148.135 598.988 147.367L594.212 154.486C593.969 154.857 593.559 155.049 593.149 155.049Z" fill="#18292D"/>
<path d="M595.147 153.667H544.344C538.467 153.667 533.615 158.289 533.346 164.165C533.013 171.092 539.082 176.584 545.932 175.586L593.547 168.749C597.209 168.224 600.602 166.496 603.188 163.845L607.925 158.993H611.548C614.506 158.993 616.516 156.01 615.428 153.27L614.455 150.837L602.535 149.134L595.16 153.679L595.147 153.667Z" fill="white"/>
<path d="M544.331 176.981C541.297 176.981 538.365 175.855 536.073 173.78C533.346 171.309 531.886 167.776 532.053 164.088C532.373 157.52 537.763 152.373 544.331 152.373H594.776L601.843 148.02C602.1 147.867 602.407 147.803 602.701 147.841L614.621 149.544C615.069 149.608 615.453 149.915 615.633 150.338L616.606 152.77C617.284 154.447 617.079 156.355 616.055 157.853C615.044 159.351 613.354 160.247 611.536 160.247H608.45L604.084 164.716C601.319 167.558 597.631 169.427 593.701 169.991L546.085 176.84C545.496 176.93 544.895 176.968 544.306 176.968L544.331 176.981ZM544.344 154.947C539.133 154.947 534.87 159.018 534.614 164.216C534.473 167.135 535.638 169.927 537.789 171.885C539.952 173.844 542.833 174.728 545.74 174.318L593.355 167.468C596.722 166.982 599.885 165.381 602.266 162.936L607.003 158.084C607.246 157.84 607.579 157.699 607.925 157.699H611.548C612.521 157.699 613.392 157.239 613.943 156.432C614.493 155.625 614.595 154.639 614.237 153.73L613.533 151.976L602.804 150.44L595.813 154.742C595.608 154.87 595.378 154.934 595.147 154.934H544.344V154.947Z" fill="#18292D"/>
<path d="M615.427 155.613L605.363 155.587C604.659 155.587 604.083 155.011 604.083 154.307C604.083 153.603 604.659 153.026 605.363 153.026L615.427 153.052C616.131 153.052 616.707 153.628 616.707 154.332C616.707 155.036 616.131 155.613 615.427 155.613Z" fill="#18292D"/>
<path d="M705.562 309.776L702.259 317.1C694.821 319.136 678.317 320.557 685.128 330.774L685.359 331.862C687.113 335.588 687.535 336.779 692.67 335.024L721.554 325.192C723.538 324.513 724.985 323.105 725.356 321.466L726.253 317.522C727.034 314.078 709.852 308.586 705.575 309.764L705.562 309.776Z" fill="#18292D"/>
<path d="M763.317 368.53L763.458 352.065L736.712 335.677C731.411 332.425 724.869 331.977 719.172 334.474L715.407 327.278C713.794 324.193 711.349 321.606 708.353 319.801L627.782 271.456L475.077 308.931L471.108 319.148L616.438 357.187L763.33 368.543L763.317 368.53Z" fill="white"/>
<path d="M763.318 369.811C763.318 369.811 763.254 369.811 763.215 369.811L616.323 358.455C616.247 358.455 616.17 358.442 616.093 358.416L470.789 320.378C470.43 320.288 470.136 320.045 469.969 319.725C469.803 319.405 469.79 319.021 469.918 318.675L473.887 308.458C474.041 308.074 474.374 307.779 474.771 307.677L627.475 270.215C627.795 270.138 628.154 270.189 628.435 270.355L709.006 318.701C712.207 320.621 714.806 323.374 716.535 326.677L719.761 332.848C725.561 330.71 732.065 331.337 737.365 334.589L764.112 350.978C764.496 351.208 764.726 351.631 764.726 352.079L764.585 368.544C764.585 368.902 764.432 369.235 764.176 369.478C763.945 369.696 763.625 369.811 763.305 369.811H763.318ZM616.644 355.907L762.05 367.148L762.178 352.783L736.047 336.766C731.118 333.744 724.998 333.322 719.697 335.639C719.082 335.908 718.365 335.652 718.045 335.063L714.281 327.868C712.77 324.987 710.491 322.58 707.7 320.903L627.578 272.826L476.038 310.007L472.825 318.265L616.656 355.907H616.644Z" fill="#18292D"/>
<path d="M767.44 369.671C764.034 366.265 623.25 285.092 623.25 285.092L466 321.415L596.004 378.185L767.44 369.671Z" fill="#4A7C88"/>
<path d="M559.669 364.139C559.041 364.139 558.491 363.679 558.401 363.026C558.312 362.321 558.798 361.681 559.502 361.592L710.504 341.158C711.208 341.068 711.848 341.555 711.938 342.259C712.028 342.963 711.541 343.603 710.837 343.693L559.835 364.127C559.835 364.127 559.72 364.127 559.669 364.127V364.139Z" fill="#18292D"/>
<path d="M621.124 83.3764L621.884 83.531L622.013 82.7665C622.73 78.5261 624.757 70.054 628.192 61.3C631.635 52.5253 636.448 43.5814 642.683 38.2859L642.683 38.2858C648.405 33.4255 655.95 31.5369 663.123 32.9785L663.123 32.9785C664.777 33.3109 667.237 34.2024 669.171 35.7811C671.083 37.3414 672.439 39.5279 672.095 42.5323C672.006 43.3109 671.601 44.2185 671.03 45.2855C670.866 45.5909 670.688 45.9107 670.505 46.2397C670.078 47.0062 669.623 47.8228 669.259 48.6247C668.734 49.7831 668.33 51.0457 668.43 52.3241C668.532 53.643 669.162 54.8807 670.505 55.9782C671.791 57.0293 673.029 57.4235 674.101 56.9821C675.129 56.5584 675.659 55.497 675.884 54.4881C676.117 53.4463 676.083 52.2441 675.799 51.2093C675.671 50.7425 675.48 50.2677 675.212 49.8511C675.455 49.8403 675.674 49.8604 675.87 49.9028C676.36 50.0084 676.766 50.2646 677.098 50.6328C677.784 51.3922 678.134 52.6128 678.105 53.7276C678.077 54.8026 677.584 56.2627 676.637 57.4263C675.704 58.5717 674.384 59.3747 672.692 59.3043L672.661 60.0536L672.692 59.3043C670.786 59.225 668.604 58.5931 666.982 57.3141C665.394 56.0612 664.318 54.1737 664.56 51.4426C664.812 48.5931 665.673 46.8238 666.353 45.4271C666.45 45.2266 666.544 45.0339 666.632 44.8467C666.972 44.1205 667.289 43.3483 667.212 42.5305C667.131 41.6681 666.637 40.9236 665.783 40.1726L665.783 40.1725C664.734 39.2494 663.288 38.999 661.826 39.1973C660.357 39.3964 658.788 40.0544 657.36 41.0689C654.503 43.0982 652.085 46.6476 652.172 51.1466C652.201 52.6662 652.533 54.6569 652.92 56.9821L652.949 57.154C653.353 59.578 653.821 62.4161 654.124 65.6265C654.728 72.0411 654.668 79.9335 652.076 88.8453L651.849 89.6273L652.647 89.7897C655.818 90.435 659.31 91.6292 661.955 92.8679C663.281 93.4889 664.362 94.1062 665.078 94.6524C665.438 94.9275 665.673 95.1598 665.803 95.339C665.84 95.3904 665.864 95.4298 665.878 95.4582C665.813 95.5231 665.7 95.6132 665.522 95.722C665.153 95.9465 664.592 96.1996 663.834 96.4568C662.326 96.9691 660.141 97.464 657.414 97.7976C651.964 98.4641 644.419 98.4777 635.912 96.7471C627.38 95.0112 619.719 92.3222 614.27 89.7523C611.542 88.4656 609.392 87.2203 607.971 86.154C607.257 85.6184 606.756 85.1502 606.456 84.7673C606.16 84.3889 606.154 84.2171 606.154 84.199C606.154 84.1989 606.154 84.1989 606.154 84.1988C606.159 84.1854 606.196 84.1111 606.357 83.9905C606.549 83.847 606.851 83.6895 607.278 83.5351C608.129 83.2275 609.343 82.9787 610.809 82.8295C613.735 82.5319 617.527 82.6446 621.124 83.3764Z" fill="white" stroke="#18292D" stroke-width="1.5"/>
<path d="M635.026 88.4737C641.264 89.9934 648.88 90.8349 655.224 89.6344C655.628 89.5581 654.213 85.0772 653.971 85.0925C647.951 85.4756 641.88 84.8513 636.053 83.4258C630.455 82.0563 627.02 80.8552 621.917 78.0982C621.405 77.822 618.819 81.7657 619.598 82.3403C622.937 84.8048 629.021 87.0108 635.026 88.4737Z" fill="#18292D"/>
<path d="M636.789 90.2411C635.478 89.9744 634.599 88.7129 634.817 87.3817L635.297 84.4472C635.405 83.7883 635.764 83.2102 636.309 82.8189C636.854 82.4271 637.516 82.2711 638.174 82.3791L644.862 83.4733C646.245 83.6878 647.153 84.9867 646.93 86.35L646.45 89.2844C646.342 89.9433 645.983 90.5214 645.438 90.9127C644.893 91.3045 644.231 91.4605 643.573 91.3525L636.885 90.2583C636.853 90.2535 636.82 90.2474 636.789 90.2411ZM644.752 84.5003C644.734 84.4966 644.714 84.4927 644.696 84.49L638.007 83.3957C637.621 83.3325 637.231 83.4248 636.91 83.6553C636.589 83.8862 636.377 84.2267 636.313 84.6132L635.833 87.5481C635.77 87.9348 635.863 88.3245 636.093 88.6456C636.324 88.9668 636.665 89.1768 637.051 89.2421L643.739 90.3363C644.126 90.3995 644.515 90.3072 644.836 90.0768C645.158 89.8458 645.369 89.5054 645.433 89.1189L645.913 86.1839C645.976 85.7973 645.884 85.4076 645.653 85.0865C645.434 84.7809 645.115 84.5748 644.752 84.5009L644.752 84.5003Z" fill="#FFC31F"/>
<path d="M637.575 86.3593C637.644 86.0223 637.426 85.6932 637.089 85.6247C636.752 85.5561 636.423 85.7739 636.354 86.1109C636.286 86.4479 636.504 86.7769 636.841 86.8455C637.178 86.914 637.507 86.6962 637.575 86.3593Z" fill="#16325B"/>
<path d="M636.884 86.7077L634.702 86.3577C634.441 86.3157 634.263 86.0685 634.304 85.8077C634.346 85.547 634.593 85.3682 634.854 85.4097L637.036 85.7598C637.297 85.8018 637.475 86.0489 637.434 86.3098C637.392 86.5705 637.145 86.7492 636.884 86.7077Z" fill="#FFC31F"/>
<defs>
<clipPath id="clip0_711_9308">
<rect width="59.9316" height="63.2409" fill="white" transform="translate(202 112)"/>
</clipPath>
<clipPath id="clip1_711_9308">
<rect width="59.3499" height="63" fill="white" transform="translate(1038 179)"/>
</clipPath>
</defs>
</svg>
