<svg width="1300" height="400" viewBox="0 0 1300 400" fill="none" xmlns="http://www.w3.org/2000/svg">
<path d="M1024.5 210.5C1022.27 209.957 995.974 180.102 994.354 178.563C988.716 173.206 982.092 168.877 975.556 164.698C954.851 151.462 932.081 144.918 907.429 147.224C889.401 148.91 860.546 159.082 859.786 180.471C859.216 196.528 869.481 201.185 883.625 201.024C896.103 200.882 898.813 190.575 897.266 179.61C895.835 169.47 892.813 165.383 884.915 159.269C867.947 146.133 851.399 138.815 830.183 134.743C824.675 133.686 801.752 126.908 797.856 132.563" stroke="black" stroke-width="2" stroke-linecap="round" stroke-linejoin="round" stroke-dasharray="6 6"/>
<circle cx="1054.5" cy="224.5" r="56" fill="white" stroke="#18292D"/>
<g clip-path="url(#clip0_711_10060)">
<path d="M1075.1 212.777C1075.1 211.244 1073.88 209.999 1072.37 209.999C1066.86 209.999 1054.5 209.999 1049.36 209.999C1044.43 209.999 1031.91 209.999 1026.35 209.999C1024.84 209.999 1023.62 211.244 1023.62 212.777V245.296C1023.62 246.836 1024.84 248.08 1026.36 248.074L1039.24 248.042C1039.83 248.067 1040.02 248.953 1039.64 249.421C1036.54 253.264 1034.24 254.906 1034.24 254.906C1034.24 254.906 1043.11 254.56 1050.28 248.998C1050.96 248.478 1051.5 247.984 1052.54 247.965L1072.37 248.003C1073.87 248.003 1075.1 246.759 1075.1 245.225V212.777Z" fill="white" stroke="#18292D" stroke-width="1.23815" stroke-linecap="round" stroke-linejoin="round"/>
<path d="M1032.45 219.688H1065.91" stroke="#FFC31F" stroke-width="1.23815" stroke-linecap="round" stroke-linejoin="round"/>
<path d="M1032.45 226.27H1065.91" stroke="#FFC31F" stroke-width="1.23815" stroke-linecap="round" stroke-linejoin="round"/>
<path d="M1032.45 232.858H1064.14" stroke="#FFC31F" stroke-width="1.23815" stroke-linecap="round" stroke-linejoin="round"/>
<path d="M1032.45 239.439H1053.77" stroke="#FFC31F" stroke-width="1.23815" stroke-linecap="round" stroke-linejoin="round"/>
<path d="M1085.48 196.072C1084.19 195.225 1082.43 195.597 1081.57 196.893L1060.04 229.393C1059.94 229.54 1059.86 229.694 1059.79 229.855L1056.75 239.259C1056.67 239.439 1056.77 239.503 1056.91 239.368L1064.4 232.902C1064.52 232.78 1064.63 232.645 1064.73 232.498L1086.26 199.979C1087.12 198.676 1086.77 196.918 1085.48 196.072Z" fill="white" stroke="#18292D" stroke-width="1.23815" stroke-linecap="round" stroke-linejoin="round"/>
<path d="M1081.57 196.893C1082.43 195.597 1084.19 195.225 1085.48 196.072C1086.77 196.918 1087.12 198.676 1086.26 199.979L1085.58 200.255L1081.28 197.389L1081.57 196.893Z" fill="#18292D"/>
<path d="M1056.75 239.259C1056.67 239.439 1056.77 239.503 1056.91 239.368M1085.48 196.072C1084.19 195.225 1082.43 195.597 1081.57 196.893L1081.28 197.389L1085.58 200.255L1086.26 199.979C1087.12 198.676 1086.77 196.918 1085.48 196.072Z" stroke="#18292D" stroke-width="1.23815" stroke-linecap="round" stroke-linejoin="round"/>
<path d="M1079.1 200.671L1083.7 203.712" stroke="#18292D" stroke-width="1.23815" stroke-linecap="round" stroke-linejoin="round"/>
<path d="M1058.38 234.204L1060.94 235.885" stroke="#18292D" stroke-width="1.23815" stroke-linecap="round" stroke-linejoin="round"/>
<path d="M1081.08 197.778L1085.69 200.8" stroke="#18292D" stroke-width="1.23815" stroke-linecap="round" stroke-linejoin="round"/>
<path d="M1062.35 231.158L1081.35 202.18" stroke="#18292D" stroke-width="1.23815" stroke-linecap="round" stroke-linejoin="round"/>
<path d="M1059.93 229.565L1064.62 232.645" stroke="#18292D" stroke-width="1.23815" stroke-linecap="round" stroke-linejoin="round"/>
</g>
<path d="M523.29 309.119C521.01 308.868 519.239 309.845 517.19 310.738C510.061 313.843 502.355 315.646 494.784 317.336C470.8 322.693 447.165 321.055 424.789 310.456C408.425 302.706 384.789 283.279 391.39 262.92C396.346 247.636 407.585 246.771 420.821 251.759C432.498 256.161 431.52 266.773 426.315 276.547C421.503 285.587 417.266 288.393 407.753 291.438C387.315 297.978 369.262 299.195 347.933 295.765C342.395 294.874 294.347 278.971 292.62 272.325" stroke="black" stroke-width="2" stroke-linecap="round" stroke-linejoin="round" stroke-dasharray="6 6"/>
<circle cx="246.5" cy="270.5" r="56" fill="white" stroke="#18292D"/>
<g clip-path="url(#clip1_711_10060)">
<path d="M246.538 251.497C248.933 251.497 250.875 249.486 250.875 247.005C250.875 244.525 248.933 242.514 246.538 242.514C244.144 242.514 242.202 244.525 242.202 247.005C242.202 249.486 244.144 251.497 246.538 251.497Z" fill="white" stroke="#18292D" stroke-width="1.03322" stroke-linecap="round" stroke-linejoin="round"/>
<path d="M254.847 264.034C254.847 264.034 254.446 255.318 249.296 255.158C247.186 255.094 245.361 255.115 243.835 255.147C238.466 255.249 238.524 264.087 238.524 264.087C238.524 264.88 242.181 265.517 246.689 265.517C251.196 265.517 254.853 264.874 254.853 264.087C254.853 264.071 254.853 264.05 254.847 264.034Z" fill="white"/>
<path d="M254.847 264.034C254.847 264.034 254.446 255.318 249.296 255.158C247.186 255.094 245.361 255.115 243.835 255.147C238.466 255.249 238.524 264.087 238.524 264.087C238.524 264.88 242.181 265.517 246.689 265.517C251.196 265.517 254.853 264.874 254.853 264.087C254.853 264.071 254.853 264.05 254.847 264.034ZM254.847 264.034H254.853" stroke="#18292D" stroke-width="1.03322" stroke-linecap="round" stroke-linejoin="round"/>
<path d="M222.534 282.974C224.928 282.974 226.87 280.963 226.87 278.483C226.87 276.002 224.928 273.991 222.534 273.991C220.139 273.991 218.197 276.002 218.197 278.483C218.197 280.963 220.139 282.974 222.534 282.974Z" fill="white" stroke="#18292D" stroke-width="1.03322" stroke-linecap="round" stroke-linejoin="round"/>
<path d="M230.842 295.511C230.842 295.511 230.44 286.796 225.29 286.635C223.181 286.571 221.355 286.593 219.83 286.625C214.465 286.726 214.519 295.565 214.519 295.565H214.514C214.514 296.357 218.17 296.994 222.678 296.994C227.185 296.994 230.842 296.352 230.842 295.565C230.842 295.549 230.842 295.527 230.836 295.511H230.842Z" fill="white" stroke="#18292D" stroke-width="1.03322" stroke-linecap="round" stroke-linejoin="round"/>
<path d="M246.684 282.974C249.079 282.974 251.02 280.963 251.02 278.483C251.02 276.002 249.079 273.991 246.684 273.991C244.289 273.991 242.348 276.002 242.348 278.483C242.348 280.963 244.289 282.974 246.684 282.974Z" fill="#18292D" stroke="#18292D" stroke-width="1.03322" stroke-linecap="round" stroke-linejoin="round"/>
<path d="M254.993 295.511C254.993 295.511 254.591 286.796 249.441 286.635C247.332 286.571 245.506 286.593 243.981 286.625C238.616 286.726 238.67 295.565 238.67 295.565C238.67 296.357 242.326 296.994 246.834 296.994C251.342 296.994 254.998 296.352 254.998 295.565C254.998 295.549 254.998 295.527 254.993 295.511Z" fill="#18292D"/>
<path d="M254.993 295.511C254.993 295.511 254.591 286.796 249.441 286.635C247.332 286.571 245.506 286.593 243.981 286.625C238.616 286.726 238.67 295.565 238.67 295.565C238.67 296.357 242.326 296.994 246.834 296.994C251.342 296.994 254.998 296.352 254.998 295.565C254.998 295.549 254.998 295.527 254.993 295.511ZM254.993 295.511H254.998" stroke="#18292D" stroke-width="1.03322" stroke-linecap="round" stroke-linejoin="round"/>
<path d="M270.339 282.974C272.734 282.974 274.676 280.963 274.676 278.483C274.676 276.002 272.734 273.991 270.339 273.991C267.944 273.991 266.003 276.002 266.003 278.483C266.003 280.963 267.944 282.974 270.339 282.974Z" fill="white" stroke="#18292D" stroke-width="1.03322" stroke-linecap="round" stroke-linejoin="round"/>
<path d="M278.642 295.511C278.642 295.511 278.241 286.796 273.091 286.635C270.981 286.571 269.156 286.593 267.63 286.625C262.266 286.726 262.319 295.565 262.319 295.565C262.319 296.357 265.976 296.994 270.483 296.994C274.991 296.994 278.647 296.352 278.647 295.565C278.647 295.549 278.647 295.527 278.642 295.511Z" fill="white"/>
<path d="M278.642 295.511C278.642 295.511 278.241 286.796 273.091 286.635C270.981 286.571 269.156 286.593 267.63 286.625C262.266 286.726 262.319 295.565 262.319 295.565C262.319 296.357 265.976 296.994 270.483 296.994C274.991 296.994 278.647 296.352 278.647 295.565C278.647 295.549 278.647 295.527 278.642 295.511ZM278.642 295.511H278.647" stroke="#18292D" stroke-width="1.03322" stroke-linecap="round" stroke-linejoin="round"/>
<path d="M246.351 268.938V270.957" stroke="#FFC31F" stroke-width="1.03322" stroke-linecap="round" stroke-linejoin="round"/>
<path d="M221.088 270.957V268.938H272.567V270.957" stroke="#FFC31F" stroke-width="1.03322" stroke-linecap="round" stroke-linejoin="round"/>
</g>
<ellipse cx="644.895" cy="221.742" rx="233.872" ry="111.276" transform="rotate(-165.945 644.895 221.742)" fill="#F2F7F8"/>
<path d="M559.868 191.465C553.728 191.465 546.478 191.155 538.858 190.165C511.518 186.615 492.068 175.985 482.628 159.435C473.278 143.035 472.498 125.944 480.428 111.314C487.808 97.7045 502.118 88.0045 516.048 87.1945C519.858 86.9745 523.868 86.8445 527.738 86.7245C549.718 86.0245 572.448 85.3045 583.308 67.6945C586.858 61.9345 589.738 55.8345 592.518 49.9445C599.938 34.2145 606.948 19.3545 624.718 16.8045C642.698 14.2245 648.108 17.7045 654.968 22.1045C657.338 23.6245 659.798 25.2045 663.048 26.7345C668.308 29.2045 667.708 46.9445 665.378 62.7145C661.398 89.7245 651.678 118.835 639.368 140.585C622.858 169.765 601.498 187.054 577.598 190.564H577.578C577.468 190.584 570.288 191.484 559.858 191.484L559.868 191.465ZM635.618 17.8945C632.678 17.8945 629.208 18.1645 625.008 18.7645C608.298 21.1645 601.828 34.8845 594.328 50.7745C591.518 56.7245 588.618 62.8745 585.008 68.7245C573.578 87.2445 550.308 87.9845 527.798 88.7045C523.938 88.8245 519.948 88.9545 516.168 89.1745C502.908 89.9545 489.258 99.2245 482.188 112.255C474.598 126.255 475.368 142.655 484.368 158.435C506.408 197.075 576.168 188.704 577.318 188.564C600.578 185.134 621.428 168.195 637.628 139.575C649.818 118.025 659.448 89.1745 663.398 62.3945C666.378 42.1545 665.008 29.8345 662.198 28.5145C658.828 26.9345 656.198 25.2445 653.888 23.7545C648.778 20.4745 644.738 17.8745 635.618 17.8745V17.8945Z" fill="#18292D"/>
<path d="M580.048 207.645C580.048 207.645 508.778 216.715 485.398 172.185C463.218 129.945 491.968 95.4253 516.968 94.1853C541.968 92.9553 572.018 96.5253 584.858 73.0853C597.698 49.6453 601.158 21.1753 624.858 17.7653C648.548 14.3653 649.848 22.3753 662.858 29.2853C675.868 36.1953 656.198 196.385 580.048 207.635V207.645Z" fill="#18292D"/>
<path d="M662.638 200.335C662.638 200.335 724.748 223.825 758.098 188.485C789.738 154.955 773.108 117.515 750.788 111.035C728.468 104.565 700.258 101.355 695.028 77.3647C689.788 53.3747 694.428 26.8247 673.888 18.6647C653.348 10.5047 649.978 17.4847 636.308 20.9647C622.638 24.4447 596.708 173.825 662.648 200.335H662.638Z" fill="#18292D"/>
<path d="M651.515 73.8086L643.674 75.5899C632.348 78.163 625.253 89.4305 627.826 100.756L635.334 133.804C637.908 145.13 649.175 152.226 660.501 149.652L668.341 147.871C679.667 145.298 686.763 134.031 684.189 122.705L676.681 89.6568C674.108 78.3309 662.84 71.2354 651.515 73.8086Z" fill="white"/>
<path d="M655.848 151.164C645.788 151.164 636.688 144.224 634.368 134.014L626.858 100.964C625.558 95.2245 626.568 89.3245 629.698 84.3445C632.838 79.3645 637.718 75.9045 643.458 74.6045L651.288 72.8245C657.028 71.5245 662.928 72.5345 667.908 75.6645C672.888 78.8045 676.348 83.6845 677.648 89.4245L685.158 122.474C686.458 128.214 685.458 134.114 682.318 139.094C679.178 144.074 674.298 147.534 668.558 148.834L660.728 150.614C659.088 150.984 657.458 151.164 655.848 151.164ZM656.208 74.2645C654.718 74.2645 653.218 74.4345 651.728 74.7745L643.898 76.5545C638.678 77.7445 634.238 80.8845 631.388 85.4145C628.538 89.9445 627.618 95.3045 628.808 100.524L636.318 133.574C638.768 144.344 649.518 151.124 660.288 148.674L668.118 146.894C673.338 145.704 677.778 142.564 680.628 138.034C683.478 133.504 684.398 128.144 683.208 122.924L675.698 89.8745C674.518 84.6545 671.368 80.2145 666.838 77.3645C663.598 75.3245 659.938 74.2745 656.208 74.2745V74.2645Z" fill="#18292D"/>
<path d="M655.801 119.934C684.808 119.443 707.925 95.5296 707.434 66.5222C706.943 37.5149 683.03 14.3979 654.022 14.889C625.015 15.3802 601.898 39.2934 602.389 68.3008C602.88 97.3082 626.794 120.425 655.801 119.934Z" fill="#18292D"/>
<path d="M676.178 66.035C678.088 75.925 685.828 83.195 695.138 85.005C695.428 81.045 695.218 76.985 694.428 72.895C692.468 62.745 687.308 54.035 680.208 47.585C676.538 52.745 674.878 59.325 676.178 66.035Z" fill="#18292D"/>
<path d="M688.068 82.6848L686.578 61.7748C685.298 43.7148 669.618 30.1248 651.558 31.4048L635.958 32.5148C617.908 33.7948 604.308 49.4748 605.588 67.5348L607.168 89.7248C608.448 107.785 624.128 121.375 642.188 120.095L657.788 118.985C669.728 118.135 679.718 110.985 684.738 101.025C686.668 102.075 688.958 102.485 691.288 102.035C696.608 101.005 700.088 95.8548 699.058 90.5348C698.058 85.3848 693.198 81.9648 688.058 82.6948L688.068 82.6848Z" fill="white"/>
<path d="M639.818 121.175C631.698 121.175 623.938 118.285 617.738 112.915C610.918 107.005 606.818 98.7948 606.178 89.7948L604.598 67.6048C603.958 58.6048 606.858 49.8948 612.768 43.0848C618.678 36.2648 626.888 32.1648 635.888 31.5248L651.488 30.4148C670.068 29.1048 686.258 43.1348 687.568 61.7048L688.988 81.6048C694.318 81.3748 699.018 85.0548 700.038 90.3448C700.588 93.1848 699.998 96.0648 698.378 98.4548C696.758 100.845 694.308 102.465 691.468 103.015C689.348 103.425 687.148 103.185 685.168 102.345C679.698 112.445 669.318 119.165 657.848 119.985L642.248 121.095C641.428 121.155 640.618 121.185 639.798 121.185L639.818 121.175ZM653.908 32.3248C653.158 32.3248 652.398 32.3548 651.628 32.4048L636.028 33.5148C627.558 34.1148 619.838 37.9748 614.278 44.3948C608.718 50.8048 605.988 59.0048 606.588 67.4648L608.168 89.6548C608.768 98.1248 612.628 105.845 619.048 111.405C625.458 116.965 633.648 119.695 642.118 119.095L657.718 117.985C668.818 117.195 678.828 110.525 683.848 100.575L684.308 99.6548L685.218 100.145C687.008 101.115 689.098 101.445 691.098 101.055C693.408 100.605 695.408 99.2848 696.728 97.3348C698.048 95.3848 698.528 93.0348 698.078 90.7248C697.188 86.1248 692.848 83.0248 688.208 83.6848L687.148 83.8348L685.588 61.8548C684.398 45.1448 670.418 32.3348 653.918 32.3348L653.908 32.3248Z" fill="#18292D"/>
<path d="M693.168 87.4551C693.168 87.4551 688.718 90.5651 689.758 95.9751L693.168 87.4551Z" fill="white"/>
<path d="M688.778 96.155C687.618 90.175 692.388 86.765 692.598 86.625L693.738 88.265L693.168 87.445L693.748 88.265C693.588 88.375 689.838 91.095 690.748 95.775L688.788 96.155H688.778Z" fill="#18292D"/>
<path d="M603.978 62.7546L602.258 61.7346C605.948 55.5146 610.638 53.4546 613.928 52.8246C617.518 52.1346 620.218 52.9346 620.328 52.9646L619.748 54.8746C619.358 54.7546 610.248 52.1846 603.978 62.7446V62.7546Z" fill="#18292D"/>
<path d="M660.069 50.5646C659.799 50.2646 653.429 43.2546 642.519 48.9146L641.599 47.1346C648.019 43.8146 653.089 44.5446 656.219 45.7446C659.629 47.0546 661.499 49.1646 661.569 49.2546L660.069 50.5746V50.5646Z" fill="#18292D"/>
<path d="M647.378 30.8354C654.218 61.2954 673.898 82.7654 692.238 79.2254C698.468 78.0154 703.768 74.0554 707.848 68.1654C699.838 38.5454 680.218 18.2054 661.868 21.7554C656.258 22.8354 651.368 26.0454 647.378 30.8354Z" fill="#18292D"/>
<path d="M612.878 93.2453C612.918 97.9853 616.798 101.795 621.538 101.755C626.278 101.715 630.088 97.8353 630.048 93.0953C630.008 88.3553 626.128 84.5453 621.388 84.5853C616.648 84.6253 612.838 88.5053 612.878 93.2453Z" fill="#96D8E8"/>
<path d="M656.308 91.3146C656.348 96.0546 660.228 99.8646 664.968 99.8246C669.708 99.7846 673.518 95.9046 673.478 91.1646C673.438 86.4246 669.558 82.6146 664.818 82.6546C660.078 82.6946 656.268 86.5746 656.308 91.3146Z" fill="#96D8E8"/>
<path d="M642.928 100.105C638.238 100.105 634.398 96.3151 634.358 91.6151L636.358 91.5951C636.388 95.1951 639.328 98.1051 642.928 98.1051C642.948 98.1051 642.968 98.1051 642.988 98.1051C644.738 98.0851 646.388 97.3951 647.618 96.1351C648.848 94.8851 649.518 93.2251 649.498 91.4751L651.498 91.4551C651.518 93.7451 650.648 95.9051 649.038 97.5351C647.438 99.1651 645.288 100.075 642.998 100.095C642.968 100.095 642.948 100.095 642.918 100.095L642.928 100.105Z" fill="#18292D"/>
<path d="M618.119 79.2645C616.099 79.2645 614.219 78.1345 612.819 76.0645C611.499 74.1045 610.759 71.5245 610.729 68.7745L612.729 68.7545C612.749 71.1145 613.369 73.3145 614.479 74.9445C615.499 76.4545 616.829 77.2445 618.149 77.2645C619.499 77.2545 620.779 76.4045 621.779 74.8845C622.859 73.2345 623.439 71.0245 623.409 68.6645L625.409 68.6445C625.429 71.3945 624.739 73.9945 623.449 75.9745C622.079 78.0845 620.199 79.2545 618.159 79.2645H618.109H618.119Z" fill="#18292D"/>
<path d="M654.098 75.1145C652.088 75.1145 650.208 74.0245 648.818 72.0345C647.488 70.1445 646.748 67.6445 646.718 64.9845L648.718 64.9645C648.738 67.2145 649.348 69.3245 650.448 70.8845C651.458 72.3245 652.748 73.1145 654.098 73.1145H654.128C655.478 73.1045 656.778 72.2845 657.768 70.8245C658.838 69.2445 659.418 67.1345 659.398 64.8745L661.398 64.8545C661.418 67.5145 660.718 70.0245 659.428 71.9345C658.058 73.9645 656.178 75.0845 654.148 75.1045H654.098V75.1145Z" fill="#18292D"/>
<path d="M629.318 84.2152C627.958 82.0752 627.708 80.3252 628.558 79.0152C629.838 77.0452 633.278 76.9452 635.268 77.0552L632.728 64.5152L634.688 64.1152L637.778 79.3752L636.368 79.1652C634.268 78.8552 630.978 78.9352 630.238 80.0952C629.728 80.8752 630.508 82.3352 631.008 83.1252L629.318 84.1952V84.2152Z" fill="#18292D"/>
<path d="M509.097 337.111V167.171C509.097 158.641 515.697 151.721 523.847 151.721H772.427C780.567 151.721 787.177 158.641 787.177 167.171V337.111H509.097Z" fill="#18292D"/>
<path d="M522.617 323.591V167.181C522.617 166.001 523.347 165.251 523.837 165.251H772.417C772.917 165.251 773.637 166.001 773.637 167.181V323.591H522.617Z" fill="white"/>
<path d="M663.587 332.271H807.777V335.471C807.777 340.761 801.177 349.251 793.027 349.251H503.247C495.107 349.251 488.497 340.761 488.497 335.471V332.271H663.587Z" fill="white" stroke="#18292D" stroke-width="2.2" stroke-linecap="round" stroke-linejoin="round"/>
<path d="M801.592 114.014L741.119 107.124C735.048 106.432 729.561 110.797 728.869 116.868L723.858 160.854C723.166 166.924 727.531 172.412 733.601 173.103L739.1 173.73L736.907 192.97L758.34 175.922L794.075 179.993C800.145 180.685 805.632 176.32 806.324 170.25L811.336 126.264C812.027 120.193 807.663 114.706 801.592 114.014Z" fill="#4A7C88"/>
<path d="M748.478 148.752C751.541 149.101 754.306 146.902 754.655 143.839C755.004 140.777 752.804 138.012 749.742 137.663C746.68 137.314 743.914 139.514 743.566 142.576C743.217 145.638 745.416 148.403 748.478 148.752Z" fill="white"/>
<path d="M766.768 150.836C769.831 151.185 772.596 148.986 772.945 145.923C773.294 142.861 771.094 140.096 768.032 139.747C764.97 139.398 762.204 141.598 761.856 144.66C761.507 147.722 763.706 150.487 766.768 150.836Z" fill="white"/>
<path d="M785.057 152.92C788.119 153.269 790.884 151.07 791.233 148.007C791.582 144.945 789.382 142.18 786.32 141.831C783.258 141.482 780.493 143.682 780.144 146.744C779.795 149.806 781.994 152.571 785.057 152.92Z" fill="white"/>
<path d="M629.634 323.266L641.451 293.057C646.026 281.354 656.817 273.237 669.33 272.076L699.475 269.279L729.204 276.443C737.794 278.515 745.065 284.223 749.102 292.082L752.271 323.266C752.271 323.266 629.634 323.022 629.634 323.266Z" fill="white"/>
<path d="M629.634 323.983C629.548 323.983 629.462 323.969 629.376 323.933C629.01 323.79 628.824 323.374 628.967 323.001L640.784 292.792C645.488 280.76 656.402 272.549 669.266 271.359L699.411 268.563C699.489 268.563 699.568 268.562 699.647 268.577L729.376 275.74C738.181 277.863 745.603 283.699 749.748 291.752C749.791 291.831 749.812 291.917 749.826 292.01L752.996 323.195C753.039 323.589 752.752 323.94 752.358 323.983C751.97 324.019 751.612 323.74 751.569 323.345L748.414 292.297C744.449 284.675 737.4 279.161 729.046 277.146L699.439 270.011L669.409 272.8C657.09 273.94 646.643 281.806 642.132 293.329L630.315 323.539C630.208 323.818 629.935 323.998 629.649 323.998L629.634 323.983Z" fill="#18292D"/>
<path d="M715.279 273.352L719.617 257.648L693.48 250.428L687.93 270.505C685.349 270.534 682.803 270.649 680.279 270.842C681.384 284.767 689.027 295.659 699.03 296.348C708.761 297.015 717.602 287.808 720.843 274.743C719.022 274.234 717.157 273.782 715.279 273.359V273.352Z" fill="white"/>
<path d="M700.02 297.095C699.676 297.095 699.332 297.08 698.98 297.059C688.877 296.363 680.71 285.364 679.563 270.893C679.548 270.707 679.606 270.513 679.735 270.37C679.857 270.227 680.036 270.133 680.222 270.119C682.603 269.94 685.012 269.832 687.379 269.789L692.785 250.235C692.835 250.049 692.957 249.898 693.122 249.805C693.287 249.712 693.481 249.683 693.667 249.74L719.804 256.961C720.184 257.069 720.406 257.463 720.306 257.843L716.168 272.822C717.975 273.238 719.574 273.64 721.03 274.049C721.403 274.156 721.625 274.536 721.532 274.909C718.255 288.146 709.5 297.095 700.013 297.095H700.02ZM681.061 271.503C682.359 284.897 689.86 294.994 699.088 295.632C708.109 296.256 716.62 287.902 719.976 275.246C718.527 274.852 716.928 274.464 715.128 274.056C714.935 274.013 714.77 273.891 714.67 273.726C714.569 273.561 714.54 273.353 714.591 273.167L718.735 258.159L693.975 251.318L688.619 270.7C688.533 271.008 688.253 271.223 687.938 271.223C685.665 271.252 683.349 271.345 681.054 271.503H681.061Z" fill="#18292D"/>
<path d="M715.516 259.255C730.853 259.255 743.287 246.822 743.287 231.484V230.007C743.287 214.669 730.853 202.235 715.516 202.235C700.178 202.235 687.744 214.669 687.744 230.007V231.484C687.744 246.822 700.178 259.255 715.516 259.255Z" fill="#18292D"/>
<path d="M708.71 250.845C695.917 250.845 685.535 240.462 685.535 227.67V222.93C685.535 210.138 695.917 199.755 708.71 199.755C721.502 199.755 731.885 210.138 731.885 222.93V227.67C731.885 240.462 721.502 250.845 708.71 250.845Z" fill="#18292D"/>
<path d="M683.47 220.333C683.419 220.333 683.369 220.333 683.319 220.319C682.932 220.233 682.681 219.853 682.767 219.466C684.28 212.345 687.722 207.011 692.999 203.612C698.535 200.048 706.1 198.865 713.227 200.45C713.614 200.536 713.858 200.916 713.772 201.303C713.686 201.69 713.306 201.934 712.919 201.848C706.157 200.349 698.994 201.453 693.774 204.816C688.826 208 685.592 213.027 684.165 219.76C684.093 220.097 683.799 220.326 683.462 220.326L683.47 220.333Z" fill="#18292D"/>
<path d="M737.836 234.33L734.559 234.387V234.222C734.559 221.294 724.076 210.811 711.147 210.811H709.828C701.073 210.811 693.436 215.622 689.428 222.749L687.922 222.305C684.86 221.394 681.641 223.137 680.73 226.198C679.819 229.26 681.562 232.48 684.624 233.39L686.43 233.928C686.43 234.029 686.423 234.129 686.423 234.222V243.185C686.423 256.114 696.907 266.597 709.835 266.597H711.154C723.144 266.597 733.025 257.584 734.394 245.96L738.051 245.896C741.242 245.839 743.787 243.2 743.73 240.009C743.673 236.818 741.034 234.272 737.843 234.33H737.836Z" fill="white"/>
<path d="M711.155 267.314H709.836C696.534 267.314 685.707 256.494 685.707 243.185V234.459L684.423 234.079C682.76 233.584 681.39 232.473 680.558 230.945C679.734 229.418 679.547 227.661 680.042 225.998C680.537 224.334 681.648 222.964 683.176 222.133C684.703 221.308 686.46 221.122 688.123 221.616L689.091 221.903C693.437 214.604 701.331 210.101 709.828 210.101H711.148C724.263 210.101 734.968 220.62 735.269 233.663L737.822 233.613C739.565 233.591 741.207 234.229 742.454 235.434C743.702 236.639 744.412 238.259 744.441 239.994C744.469 241.73 743.824 243.372 742.619 244.627C741.415 245.874 739.794 246.584 738.059 246.613L735.018 246.67C733.312 258.487 723.158 267.321 711.148 267.321L711.155 267.314ZM686.273 222.778C685.442 222.778 684.617 222.986 683.864 223.395C682.674 224.04 681.806 225.108 681.419 226.406C681.032 227.704 681.175 229.074 681.82 230.264C682.466 231.454 683.534 232.322 684.832 232.709L686.639 233.247C686.947 233.34 687.155 233.627 687.148 233.943V234.229L687.141 243.193C687.141 255.705 697.323 265.887 709.836 265.887H711.155C722.649 265.887 732.337 257.29 733.685 245.881C733.728 245.523 734.022 245.258 734.38 245.25L738.037 245.186C739.392 245.164 740.654 244.612 741.594 243.637C742.533 242.662 743.035 241.378 743.014 240.03C742.992 238.675 742.44 237.413 741.465 236.474C740.49 235.534 739.213 235.025 737.858 235.054L734.581 235.111C734.366 235.111 734.201 235.04 734.065 234.903C733.929 234.767 733.85 234.581 733.85 234.394V234.229C733.85 221.717 723.668 211.535 711.155 211.535H709.836C701.661 211.535 694.082 215.966 690.059 223.108C689.894 223.402 689.55 223.538 689.228 223.445L687.722 223C687.241 222.857 686.754 222.785 686.273 222.785V222.778Z" fill="#18292D"/>
<path d="M735.751 234.137V234.18C731.607 231.377 728.545 221.61 728.545 209.994V209.951C732.689 212.755 735.751 222.521 735.751 234.137Z" fill="#18292D"/>
<path d="M686.955 230.695C686.919 230.695 686.876 230.695 686.833 230.688C686.446 230.623 686.181 230.25 686.245 229.863C686.704 227.095 684.474 225.697 684.381 225.64C684.044 225.432 683.936 224.994 684.144 224.657C684.352 224.32 684.79 224.213 685.127 224.413C685.256 224.492 688.289 226.357 687.665 230.107C687.608 230.458 687.299 230.709 686.955 230.709V230.695Z" fill="#18292D"/>
<path d="M735.356 242.598C735.356 242.598 735.306 242.598 735.277 242.598C734.883 242.555 734.596 242.203 734.639 241.809C735.041 238.037 738.461 237.048 738.611 237.005C738.992 236.904 739.386 237.126 739.493 237.506C739.601 237.887 739.379 238.281 738.999 238.388C738.884 238.424 736.367 239.177 736.073 241.959C736.037 242.325 735.722 242.598 735.363 242.598H735.356Z" fill="#18292D"/>
<path d="M717.731 229.19C717.387 230.086 719.122 231.592 721.61 232.553C724.098 233.514 726.4 233.557 726.744 232.66C727.089 231.764 725.353 230.258 722.865 229.297C720.377 228.336 718.075 228.293 717.731 229.19Z" fill="#18292D"/>
<path d="M699.848 227.905C699.913 228.866 702.128 229.497 704.789 229.31C707.449 229.124 709.55 228.199 709.485 227.238C709.421 226.277 707.205 225.646 704.545 225.832C701.885 226.019 699.784 226.944 699.848 227.905Z" fill="#18292D"/>
<path d="M710.575 244.06C710.21 244.06 709.901 243.788 709.866 243.415C709.823 243.021 710.109 242.669 710.504 242.626C711.192 242.555 711.802 242.21 712.21 241.644C712.619 241.085 712.77 240.396 712.626 239.715L711.35 233.541C711.271 233.154 711.522 232.774 711.909 232.695C712.296 232.616 712.676 232.867 712.755 233.254L714.032 239.428C714.254 240.497 714.01 241.615 713.365 242.49C712.719 243.372 711.73 243.939 710.647 244.046C710.626 244.046 710.597 244.046 710.575 244.046V244.06Z" fill="#18292D"/>
<path d="M706.89 255.239C706.152 255.239 705.456 255.067 704.797 254.716C702.108 253.296 701.197 249.446 701.161 249.281C701.075 248.894 701.312 248.513 701.699 248.42C702.086 248.327 702.466 248.571 702.559 248.958C702.567 248.994 703.363 252.343 705.471 253.447C706.338 253.906 707.306 253.92 708.432 253.483C708.798 253.339 709.214 253.519 709.357 253.891C709.5 254.257 709.321 254.673 708.948 254.816C708.231 255.096 707.543 255.232 706.883 255.232L706.89 255.239Z" fill="#18292D"/>
<path d="M702.723 205.898C697.997 207.483 693.874 209.584 690.834 211.785C690.942 212.646 691.128 213.506 691.415 214.345C692.756 218.346 695.911 221.344 699.998 223.029C702.472 222.62 705.11 221.96 707.814 221.057C718.713 217.393 726.407 211.033 725.001 206.852C723.596 202.665 713.622 202.241 702.723 205.906V205.898Z" fill="#18292D"/>
<path d="M736.547 218.647C739.494 222.67 740.269 227.102 739.365 230.751C738.526 230.974 737.659 231.117 736.777 231.174C732.568 231.425 728.61 229.618 725.512 226.456C726.623 223.746 725.01 218.382 721.253 214.352C713.408 205.948 727.692 206.572 736.547 218.647Z" fill="#18292D"/>
<path d="M704.107 234.898C704.035 236.525 704.817 237.881 705.857 237.931C706.896 237.974 707.793 236.69 707.864 235.063C707.936 233.435 707.155 232.08 706.115 232.029C705.075 231.986 704.179 233.27 704.107 234.898Z" fill="#18292D"/>
<path d="M719.331 238.561C719.259 240.188 720.041 241.544 721.08 241.594C722.12 241.637 723.016 240.353 723.088 238.726C723.16 237.098 722.378 235.743 721.338 235.692C720.299 235.649 719.402 236.933 719.331 238.561Z" fill="#18292D"/>
<path d="M720.799 205.662C720.799 205.662 720.771 205.662 720.756 205.662C720.362 205.641 720.061 205.297 720.082 204.902C720.283 201.64 716.303 199.732 716.268 199.718C715.909 199.553 715.751 199.123 715.923 198.764C716.095 198.406 716.518 198.255 716.877 198.42C717.078 198.513 721.782 200.751 721.516 204.996C721.495 205.376 721.179 205.67 720.799 205.67V205.662Z" fill="#18292D"/>
<path d="M721.109 203.79C721.073 203.79 721.03 203.79 720.995 203.783C720.607 203.718 720.342 203.353 720.399 202.958C720.765 200.721 722.508 200.076 723.382 200.04C723.791 200.011 724.114 200.334 724.128 200.728C724.142 201.123 723.834 201.452 723.447 201.467C723.303 201.474 722.077 201.596 721.819 203.181C721.762 203.532 721.461 203.783 721.109 203.783V203.79Z" fill="#18292D"/>
<path d="M706.365 224.12C706.036 224.12 705.742 223.89 705.663 223.561C705.577 223.173 705.821 222.793 706.208 222.707C712.683 221.266 717.559 218.154 720.714 213.464C720.936 213.135 721.381 213.049 721.71 213.271C722.04 213.493 722.126 213.938 721.904 214.268C718.541 219.273 713.364 222.585 706.523 224.113C706.473 224.127 706.416 224.127 706.365 224.127V224.12Z" fill="#18292D"/>
<path d="M689.422 216.592L688.791 232.195L691.322 232.869L697.647 214.893L689.422 216.592Z" fill="#18292D"/>
<path d="M653.647 323.453C653.526 323.453 653.404 323.425 653.296 323.36C652.952 323.166 652.83 322.729 653.024 322.385L658.667 312.404C658.86 312.059 659.298 311.937 659.642 312.131C659.986 312.325 660.108 312.762 659.915 313.106L654.271 323.088C654.142 323.324 653.898 323.453 653.647 323.453Z" fill="#18292D"/>
<path d="M733.348 323.675C732.954 323.675 732.631 323.352 732.631 322.958V311.492C732.631 311.098 732.954 310.775 733.348 310.775C733.742 310.775 734.065 311.098 734.065 311.492V322.958C734.065 323.352 733.742 323.675 733.348 323.675Z" fill="#18292D"/>
<path d="M643.99 323.655C645.574 316.449 646.506 306.618 646.471 293.202L646.119 290.319C645.115 282.088 639.121 275.34 631.068 273.375L588.411 262.957C581.205 261.193 573.611 263.588 568.713 269.159L543 323.655H643.99Z" fill="#96D8E8"/>
<path d="M604.917 266.491L615.436 283.149C618.225 287.566 624.916 286.662 626.436 281.671L638.36 242.563L614.877 235.113L604.917 266.499V266.491Z" fill="white"/>
<path d="M620.563 286.705C618.239 286.705 616.095 285.536 614.826 283.521L604.307 266.871C604.192 266.692 604.164 266.469 604.228 266.269L614.188 234.883C614.245 234.704 614.374 234.553 614.539 234.46C614.711 234.374 614.905 234.353 615.084 234.41L638.568 241.86C638.941 241.982 639.149 242.376 639.034 242.756L627.116 281.864C626.328 284.446 624.177 286.274 621.502 286.633C621.186 286.676 620.871 286.697 620.563 286.697V286.705ZM605.698 266.383L616.038 282.754C617.178 284.561 619.2 285.507 621.308 285.213C623.424 284.926 625.123 283.485 625.74 281.449L637.456 243.022L615.335 236.002L605.698 266.383Z" fill="#18292D"/>
<path d="M619.816 197.647L625.746 198.372C639.564 200.064 650.384 210.404 651.998 223.447L653.941 239.201C654.665 245.088 650.248 250.444 644.01 251.218L620.089 254.194L619.816 197.647Z" fill="#18292D"/>
<path d="M630.924 198.193L624.026 197.705C607.957 196.572 593.659 205.026 589.35 218.205L584.144 234.117C582.201 240.068 586.223 246.529 593.186 248.63L619.896 256.697L630.924 198.185V198.193Z" fill="#18292D"/>
<path d="M628.537 204.839C628.451 204.839 628.365 204.825 628.279 204.789C627.906 204.646 627.719 204.237 627.863 203.864L633.384 189.351C634.13 187.394 633.793 185.314 632.43 183.5C632.194 183.185 632.258 182.733 632.574 182.496C632.889 182.26 633.341 182.324 633.578 182.64C635.22 184.827 635.636 187.458 634.725 189.86L629.204 204.373C629.096 204.66 628.824 204.832 628.537 204.832V204.839Z" fill="#18292D"/>
<path d="M628.264 204.33L632.036 189.451C633.219 184.79 629.813 180.201 624.765 179.656L619.172 179.053C613.608 178.451 608.961 183.026 609.843 188.239L612.726 205.355L628.264 204.33Z" fill="#18292D"/>
<path d="M589.918 223.591C591.065 219.726 595.131 217.532 598.988 218.679L599.11 218.715C602.308 207.608 610.662 199.685 620.457 199.685C631.299 199.685 640.355 209.379 642.643 222.358C646.013 222.508 648.938 224.989 649.512 228.446C650.172 232.418 647.49 236.175 643.51 236.842L642.263 237.05C639.473 249.075 630.768 257.852 620.457 257.852C609.185 257.852 599.835 247.368 598.028 233.615L594.822 232.662C590.957 231.514 588.756 227.449 589.911 223.591H589.918Z" fill="white"/>
<path d="M620.471 258.568C609.077 258.568 599.432 248.336 597.396 234.174L594.635 233.35C592.585 232.74 590.892 231.371 589.874 229.485C588.856 227.606 588.626 225.434 589.236 223.383C589.845 221.332 591.215 219.64 593.101 218.622C594.807 217.697 596.751 217.424 598.636 217.84C602.15 206.518 610.848 198.96 620.471 198.96C631.391 198.96 640.699 208.274 643.266 221.676C646.765 222.085 649.655 224.795 650.235 228.323C650.587 230.431 650.092 232.554 648.852 234.296C647.604 236.039 645.761 237.193 643.646 237.545L642.864 237.674C639.831 250 630.674 258.561 620.471 258.561V258.568ZM596.908 219.088C595.826 219.088 594.757 219.36 593.782 219.884C592.24 220.722 591.107 222.106 590.613 223.791C590.111 225.477 590.297 227.255 591.136 228.796C591.975 230.338 593.359 231.471 595.044 231.966L598.249 232.92C598.522 232.998 598.715 233.235 598.758 233.515C600.558 247.196 609.686 257.127 620.471 257.127C630.129 257.127 638.813 248.802 641.581 236.878C641.645 236.598 641.875 236.383 642.161 236.333L643.416 236.125C645.152 235.838 646.665 234.891 647.69 233.464C648.715 232.038 649.117 230.295 648.83 228.56C648.321 225.512 645.718 223.203 642.635 223.067C642.298 223.053 642.018 222.809 641.961 222.472C639.709 209.68 630.674 200.394 620.478 200.394C611.314 200.394 603.01 207.837 599.82 218.908C599.769 219.095 599.64 219.245 599.475 219.339C599.31 219.432 599.11 219.453 598.93 219.396L598.809 219.36C598.185 219.174 597.554 219.08 596.923 219.08L596.908 219.088Z" fill="#18292D"/>
<path d="M610.461 201.353C613.573 199.295 617.065 198.134 620.758 198.134C631.915 198.134 641.244 208.667 643.596 222.765C644.335 222.8 645.045 222.951 645.726 223.202C632.604 223.862 619.224 215.422 610.454 201.353H610.461Z" fill="#18292D"/>
<path d="M637.026 225.906C637.026 225.906 636.976 225.906 636.954 225.906C626.378 224.866 616.454 216.484 611.062 204.029C610.904 203.663 611.069 203.24 611.435 203.082C611.8 202.924 612.223 203.089 612.374 203.455C617.558 215.43 627.03 223.49 637.091 224.479C637.485 224.515 637.772 224.866 637.736 225.261C637.7 225.633 637.385 225.906 637.026 225.906Z" fill="#18292D"/>
<path d="M614.971 215.201C614.741 215.201 614.519 215.093 614.383 214.892C611.794 211.185 610.267 206.783 609.844 201.799C609.808 201.405 610.102 201.06 610.496 201.025C610.891 200.982 611.235 201.283 611.271 201.677C611.672 206.41 613.114 210.576 615.559 214.075C615.788 214.398 615.709 214.849 615.379 215.072C615.258 215.158 615.114 215.201 614.971 215.201Z" fill="#18292D"/>
<path d="M598.349 228.623C598.313 228.623 598.27 228.623 598.227 228.616C597.84 228.551 597.575 228.178 597.639 227.791C598.048 225.325 596.054 224.07 595.976 224.02C595.639 223.812 595.531 223.374 595.739 223.037C595.94 222.7 596.377 222.593 596.721 222.793C596.843 222.865 599.633 224.586 599.059 228.028C599.001 228.379 598.693 228.63 598.349 228.63V228.623Z" fill="#18292D"/>
<path d="M643.473 231.872C643.122 231.872 642.813 231.614 642.763 231.248C642.749 231.112 642.354 227.85 645.409 226.164C645.753 225.971 646.191 226.1 646.384 226.444C646.578 226.788 646.449 227.226 646.105 227.419C643.918 228.631 644.176 230.969 644.183 231.069C644.233 231.464 643.953 231.822 643.559 231.865C643.53 231.865 643.495 231.865 643.466 231.865L643.473 231.872Z" fill="#18292D"/>
<path d="M628.092 236.87C623.26 236.87 619.33 232.941 619.33 228.108C619.33 223.275 623.26 219.346 628.092 219.346C632.925 219.346 636.855 223.275 636.855 228.108C636.855 232.941 632.925 236.87 628.092 236.87ZM628.092 220.787C624.055 220.787 620.764 224.071 620.764 228.115C620.764 232.159 624.048 235.444 628.092 235.444C632.137 235.444 635.421 232.159 635.421 228.115C635.421 224.071 632.137 220.787 628.092 220.787Z" fill="#FFC31F"/>
<path d="M609.226 236.87C604.393 236.87 600.464 232.941 600.464 228.108C600.464 223.275 604.393 219.346 609.226 219.346C614.059 219.346 617.989 223.275 617.989 228.108C617.989 232.941 614.059 236.87 609.226 236.87ZM609.226 220.787C605.189 220.787 601.898 224.071 601.898 228.115C601.898 232.159 605.182 235.444 609.226 235.444C613.27 235.444 616.555 232.159 616.555 228.115C616.555 224.071 613.27 220.787 609.226 220.787Z" fill="#FFC31F"/>
<path d="M619.531 229.622H617.889C617.495 229.622 617.172 229.299 617.172 228.905C617.172 228.51 617.495 228.188 617.889 228.188H619.531C619.925 228.188 620.248 228.51 620.248 228.905C620.248 229.299 619.925 229.622 619.531 229.622Z" fill="#FFC31F"/>
<path d="M628.401 228.674C628.301 230.151 627.455 231.298 626.515 231.226C625.576 231.162 624.895 229.907 625.002 228.43C625.103 226.953 625.949 225.806 626.888 225.877C627.828 225.949 628.509 227.197 628.401 228.674Z" fill="#18292D"/>
<path d="M613.314 228.487C613.314 229.965 612.546 231.169 611.607 231.169C610.668 231.169 609.9 229.972 609.9 228.487C609.9 227.003 610.668 225.806 611.607 225.806C612.546 225.806 613.314 227.003 613.314 228.487Z" fill="#18292D"/>
<path d="M620.871 248.815C620.541 248.815 620.24 248.586 620.168 248.249C620.089 247.862 620.333 247.481 620.72 247.403C624.98 246.506 627.066 243.358 627.088 243.33C627.303 243 627.747 242.9 628.077 243.115C628.407 243.33 628.507 243.774 628.292 244.104C628.199 244.255 625.883 247.783 621.014 248.801C620.964 248.808 620.914 248.815 620.864 248.815H620.871Z" fill="#18292D"/>
<path d="M618.183 240.204C618.133 240.204 618.075 240.204 618.025 240.182C617.043 239.953 616.197 239.322 615.702 238.44C615.207 237.558 615.114 236.504 615.437 235.55L617.272 230.122C617.401 229.749 617.81 229.548 618.183 229.67C618.556 229.799 618.757 230.208 618.635 230.581L616.799 236.009C616.605 236.59 616.656 237.207 616.957 237.737C617.258 238.275 617.753 238.641 618.348 238.784C618.735 238.87 618.972 239.257 618.886 239.645C618.807 239.974 618.513 240.204 618.19 240.204H618.183Z" fill="#18292D"/>
<path d="M630.739 199.511C630.66 199.511 630.581 199.497 630.503 199.468C619.266 195.474 611.458 198.894 611.379 198.93C611.02 199.095 610.59 198.93 610.432 198.572C610.267 198.213 610.432 197.79 610.791 197.625C611.128 197.475 619.209 193.932 630.983 198.12C631.356 198.256 631.549 198.665 631.42 199.038C631.313 199.332 631.04 199.511 630.746 199.511H630.739Z" fill="#FFC31F"/>
<path d="M580.646 266.907L576.773 270.335L576.996 265.552C577.082 263.702 577.828 261.945 579.104 260.604C580.237 259.414 581.262 259.292 583.471 259.988L594.779 263.975L593.237 265.939C592.14 267.345 590.383 268.069 588.619 267.854L580.653 266.9L580.646 266.907Z" fill="white"/>
<path d="M576.775 271.052C576.667 271.052 576.567 271.03 576.466 270.98C576.208 270.858 576.043 270.586 576.058 270.299L576.28 265.516C576.373 263.494 577.19 261.572 578.589 260.11C580.073 258.554 581.521 258.625 583.687 259.299L595.016 263.293C595.231 263.372 595.404 263.544 595.468 263.767C595.533 263.989 595.49 264.226 595.346 264.412L593.805 266.377C592.557 267.969 590.542 268.8 588.534 268.564L580.883 267.646L577.248 270.858C577.112 270.98 576.947 271.038 576.775 271.038V271.052ZM581.313 260.275C580.582 260.275 580.138 260.561 579.628 261.099C578.474 262.318 577.793 263.91 577.714 265.581L577.57 268.671L580.173 266.37C580.324 266.233 580.532 266.169 580.733 266.197L588.699 267.151C590.212 267.33 591.732 266.699 592.672 265.502L593.597 264.319L583.235 260.662C582.403 260.404 581.801 260.275 581.321 260.275H581.313Z" fill="#18292D"/>
<path d="M576.035 272.428L571.432 276.501L571.697 270.822C571.797 268.628 572.686 266.541 574.207 264.949C575.555 263.536 577.699 263.228 579.391 264.218L593.976 272.457L591.086 275.289C589.587 276.759 587.372 277.211 585.421 276.443L576.042 272.435L576.035 272.428Z" fill="white"/>
<path d="M587.35 277.525C586.611 277.525 585.866 277.389 585.149 277.11L576.171 273.266L571.912 277.038C571.697 277.231 571.388 277.274 571.13 277.145C570.872 277.023 570.707 276.751 570.722 276.464L570.987 270.785C571.094 268.419 572.055 266.167 573.69 264.454C575.275 262.79 577.77 262.439 579.749 263.593L594.327 271.825C594.521 271.94 594.657 272.133 594.685 272.355C594.714 272.578 594.635 272.8 594.477 272.958L591.588 275.797C590.44 276.923 588.913 277.525 587.357 277.525H587.35ZM576.035 271.717C576.128 271.717 576.229 271.739 576.315 271.775L585.694 275.783C587.357 276.435 589.286 276.048 590.577 274.779L592.785 272.614L579.032 264.848C577.612 264.023 575.848 264.274 574.723 265.45C573.324 266.92 572.507 268.835 572.414 270.857L572.227 274.844L575.562 271.897C575.698 271.775 575.863 271.717 576.035 271.717Z" fill="#18292D"/>
<path d="M569.982 277.785L565.379 281.858L565.644 276.179C565.745 273.985 566.634 271.898 568.154 270.306C569.502 268.894 571.646 268.586 573.338 269.575L586.639 277.154L583.75 279.994C582.251 281.464 580.035 281.916 578.085 281.148L569.997 277.8L569.982 277.785Z" fill="white"/>
<path d="M565.386 282.576C565.278 282.576 565.178 282.554 565.078 282.504C564.819 282.382 564.654 282.11 564.669 281.823L564.934 276.144C565.042 273.777 566.003 271.526 567.637 269.812C569.222 268.149 571.717 267.79 573.704 268.952L586.998 276.524C587.191 276.638 587.328 276.832 587.356 277.054C587.385 277.277 587.306 277.499 587.148 277.657L584.259 280.496C582.559 282.16 580.035 282.669 577.827 281.808L570.14 278.625L565.873 282.396C565.737 282.518 565.572 282.576 565.4 282.576H565.386ZM569.989 277.069C570.083 277.069 570.176 277.09 570.262 277.126L578.35 280.475C580.021 281.134 581.95 280.74 583.24 279.471L585.456 277.298L572.979 270.192C571.567 269.368 569.796 269.619 568.67 270.795C567.272 272.257 566.454 274.179 566.361 276.201L566.175 280.188L569.509 277.241C569.645 277.119 569.81 277.062 569.982 277.062L569.989 277.069Z" fill="#18292D"/>
<path d="M564.233 282.868L559.63 286.941L559.895 281.262C559.996 279.068 560.885 276.981 562.405 275.389C563.753 273.977 565.897 273.669 567.589 274.658L579.019 281.327L576.129 284.159C574.631 285.629 572.415 286.081 570.465 285.313L564.241 282.868H564.233Z" fill="white"/>
<path d="M559.637 287.658C559.529 287.658 559.429 287.636 559.329 287.586C559.07 287.464 558.905 287.191 558.92 286.905L559.185 281.226C559.293 278.859 560.254 276.608 561.888 274.894C563.473 273.23 565.968 272.879 567.947 274.034L579.377 280.702C579.571 280.817 579.7 281.01 579.729 281.233C579.757 281.455 579.678 281.677 579.521 281.835L576.631 284.675C574.939 286.338 572.415 286.854 570.199 285.98L564.384 283.699L560.11 287.478C559.974 287.6 559.809 287.658 559.637 287.658ZM565.459 274.794C564.527 274.794 563.609 275.166 562.928 275.884C561.53 277.346 560.712 279.268 560.619 281.29L560.433 285.277L563.767 282.33C563.968 282.151 564.255 282.1 564.506 282.201L570.73 284.646C572.415 285.306 574.344 284.918 575.634 283.649L577.857 281.469L567.238 275.274C566.685 274.951 566.076 274.794 565.466 274.794H565.459Z" fill="#18292D"/>
<path d="M578.201 324.214C578.108 324.214 578.007 324.192 577.914 324.157C577.548 323.999 577.383 323.576 577.541 323.217L583.579 309.228C583.737 308.862 584.16 308.697 584.518 308.855C584.884 309.012 585.049 309.435 584.891 309.794L578.853 323.784C578.739 324.056 578.473 324.214 578.194 324.214H578.201Z" fill="white"/>
<path d="M496.779 283.114C496.699 282.994 496.229 248.814 496.229 248.814C496.229 248.614 496.299 248.424 496.439 248.274L500.549 243.874C500.529 243.794 500.509 243.704 500.519 243.614L503.929 213.304C503.959 213.054 504.099 212.834 504.319 212.714C504.539 212.594 504.799 212.584 505.029 212.694C505.249 212.804 510.569 215.384 511.999 218.264C513.249 220.794 513.149 228.344 513.089 230.434L519.349 223.724C519.519 223.544 519.769 223.454 520.009 223.484C520.259 223.514 520.469 223.664 520.589 223.884C520.799 224.264 525.559 233.204 520.179 238.424C520.089 238.504 519.999 238.604 519.899 238.694C519.919 238.704 519.949 238.704 519.969 238.724C520.069 238.794 522.549 240.554 522.959 243.744C523.279 246.154 522.339 248.674 520.179 251.234C519.169 252.434 518.239 253.594 517.449 254.594L518.359 264.734C518.359 264.734 514.519 270.634 509.529 274.664L496.779 283.104V283.114Z" fill="white"/>
<path d="M500.46 244.544C500.46 244.544 500.38 244.544 500.34 244.544C499.79 244.484 499.4 243.984 499.46 243.434L503.13 211.884C503.17 211.564 503.36 211.284 503.64 211.124C503.92 210.964 504.26 210.964 504.56 211.094C505.15 211.374 510.4 213.954 511.88 216.954C513.32 219.874 513.01 229.134 512.97 230.184C512.95 230.734 512.46 231.164 511.93 231.144C511.38 231.124 510.95 230.654 510.97 230.104C511.07 227.404 511.11 219.924 510.08 217.834C509.3 216.254 506.72 214.554 504.94 213.554L501.44 243.654C501.38 244.164 500.95 244.534 500.45 244.534L500.46 244.544Z" fill="#18292D"/>
<path d="M509.32 304.564C509 304.564 508.69 304.414 508.49 304.124L496.06 285.964C495.95 285.804 495.89 285.614 495.89 285.424L495 248.884C495 248.624 495.09 248.364 495.27 248.174L519.19 222.544C519.41 222.314 519.73 222.194 520.05 222.234C520.37 222.274 520.65 222.464 520.8 222.754C521.01 223.154 526.01 232.564 520.28 238.124C515.11 243.134 497.89 261.764 497.71 261.944C497.6 262.064 497.46 262.154 497.32 262.204L497.88 285.084L510.14 303.004C510.45 303.464 510.34 304.084 509.88 304.394C509.71 304.514 509.51 304.564 509.32 304.564ZM497.01 249.244L497.26 259.494C501.06 255.404 514.42 241.024 518.89 236.684C522.43 233.254 520.68 227.544 519.64 225.004L497.01 249.244Z" fill="#18292D"/>
<path d="M514.02 258.694C513.82 258.694 513.61 258.634 513.43 258.504C512.98 258.174 512.89 257.554 513.21 257.104C513.23 257.074 515.65 253.754 518.71 250.144C520.63 247.874 521.47 245.714 521.22 243.734C520.9 241.234 518.9 239.784 518.88 239.764C518.43 239.444 518.32 238.824 518.64 238.374C518.96 237.924 519.57 237.814 520.03 238.124C520.14 238.204 522.76 240.064 523.21 243.444C523.55 246.014 522.55 248.704 520.25 251.434C517.24 254.994 514.87 258.244 514.84 258.284C514.64 258.554 514.34 258.694 514.03 258.694H514.02Z" fill="#18292D"/>
<path d="M508.75 285.414C508.75 285.414 508.71 285.414 508.68 285.414C508.13 285.374 507.71 284.904 507.75 284.354L508.39 274.464C508.41 274.204 508.53 273.954 508.72 273.784C508.79 273.724 515.63 267.584 517.48 264.264C518.6 262.254 517.62 259.054 516.78 257.164L501.83 269.014C501.4 269.354 500.77 269.284 500.43 268.854C500.09 268.424 500.16 267.794 500.59 267.444L516.5 254.824C516.73 254.644 517.03 254.574 517.31 254.624C517.6 254.684 517.85 254.864 517.99 255.114C518.13 255.364 521.41 261.274 519.22 265.224C517.42 268.454 511.75 273.714 510.35 274.994L509.73 284.484C509.7 285.014 509.26 285.414 508.73 285.414H508.75Z" fill="#18292D"/>
<path d="M799.485 283.114C799.565 282.994 800.035 248.814 800.035 248.814C800.035 248.614 799.965 248.424 799.825 248.274L795.715 243.874C795.735 243.794 795.755 243.704 795.745 243.614L792.335 213.304C792.305 213.054 792.165 212.834 791.945 212.714C791.725 212.594 791.465 212.584 791.235 212.694C791.015 212.804 785.695 215.384 784.265 218.264C783.015 220.794 783.115 228.344 783.175 230.434L776.915 223.724C776.745 223.544 776.495 223.454 776.255 223.484C776.005 223.514 775.795 223.664 775.675 223.884C775.465 224.264 770.705 233.204 776.085 238.424C776.175 238.504 776.265 238.604 776.365 238.694C776.345 238.704 776.315 238.704 776.295 238.724C776.195 238.794 773.715 240.554 773.305 243.744C772.985 246.154 773.925 248.674 776.085 251.234C777.095 252.434 778.025 253.594 778.815 254.594L777.905 264.734C777.905 264.734 779.235 269.034 786.035 273.284L799.485 283.104V283.114Z" fill="white"/>
<path d="M795.795 244.544C795.295 244.544 794.865 244.174 794.805 243.664L791.305 213.564C789.525 214.564 786.945 216.274 786.165 217.844C785.135 219.934 785.175 227.414 785.275 230.114C785.295 230.664 784.865 231.134 784.315 231.154C783.755 231.174 783.295 230.744 783.275 230.194C783.235 229.144 782.925 219.884 784.365 216.964C785.845 213.964 791.095 211.384 791.685 211.104C791.975 210.964 792.315 210.974 792.605 211.134C792.885 211.294 793.075 211.574 793.115 211.894L796.785 243.444C796.845 243.994 796.455 244.484 795.905 244.554C795.865 244.554 795.825 244.554 795.785 244.554L795.795 244.544Z" fill="#18292D"/>
<path d="M786.944 304.563C786.754 304.563 786.554 304.503 786.384 304.393C785.924 304.083 785.814 303.463 786.124 303.003L798.384 285.083L798.944 262.213C798.804 262.163 798.664 262.073 798.554 261.953C798.384 261.763 781.154 243.143 775.984 238.133C770.254 232.573 775.244 223.163 775.464 222.763C775.614 222.483 775.894 222.283 776.214 222.243C776.534 222.203 776.854 222.313 777.074 222.553L800.994 248.183C801.174 248.373 801.264 248.623 801.264 248.893L800.374 285.433C800.374 285.623 800.304 285.813 800.204 285.973L787.774 304.133C787.584 304.413 787.264 304.573 786.944 304.573V304.563ZM776.634 225.003C775.584 227.553 773.844 233.253 777.384 236.683C781.854 241.023 795.224 255.403 799.014 259.493L799.264 249.243L776.634 225.003Z" fill="#18292D"/>
<path d="M782.245 258.694C781.935 258.694 781.635 258.554 781.435 258.284C781.415 258.254 779.035 254.994 776.025 251.434C773.725 248.704 772.725 246.014 773.065 243.444C773.515 240.064 776.135 238.204 776.245 238.124C776.695 237.804 777.325 237.924 777.635 238.374C777.955 238.824 777.835 239.454 777.385 239.764C777.365 239.774 775.365 241.224 775.045 243.724C774.795 245.704 775.635 247.864 777.555 250.134C780.605 253.744 783.025 257.064 783.055 257.094C783.385 257.544 783.285 258.164 782.835 258.494C782.655 258.624 782.455 258.684 782.245 258.684V258.694Z" fill="#18292D"/>
<path d="M787.515 285.413C786.995 285.413 786.555 285.003 786.515 284.473L785.905 274.983C784.505 273.713 778.835 268.443 777.035 265.213C774.835 261.263 778.125 255.353 778.265 255.103C778.405 254.853 778.655 254.673 778.945 254.613C779.235 254.553 779.535 254.633 779.755 254.813L795.665 267.433C796.095 267.773 796.175 268.403 795.825 268.843C795.485 269.273 794.855 269.343 794.425 269.003L779.475 257.153C778.635 259.043 777.655 262.243 778.775 264.253C780.625 267.573 787.465 273.713 787.535 273.773C787.735 273.943 787.845 274.193 787.865 274.453L788.505 284.343C788.545 284.893 788.125 285.373 787.575 285.403C787.555 285.403 787.535 285.403 787.505 285.403L787.515 285.413Z" fill="#18292D"/>
<defs>
<clipPath id="clip0_711_10060">
<rect width="64.3518" height="60.5282" fill="white" transform="translate(1023 195)"/>
</clipPath>
<clipPath id="clip1_711_10060">
<rect width="65.1626" height="55.5156" fill="white" transform="translate(214 242)"/>
</clipPath>
</defs>
</svg>
