<svg width="450" height="220" viewBox="0 0 450 220" fill="none" xmlns="http://www.w3.org/2000/svg">
<rect width="450" height="220" fill="white"/>
<path d="M235.002 47.3512C210.05 45.3919 186.092 53.4901 169.144 64.5174C152.029 75.7633 141.929 89.9404 140.826 105.091C139.715 120.388 147.387 134.916 158.756 149.267C170.277 163.401 185.494 177.36 202.935 186.407C236.644 205.323 275.268 190.011 293.678 144.294C312.109 98.8664 286.309 49.9608 235.002 47.3512Z" fill="#EEF9FB"/>
<mask id="mask0_564_47516" style="mask-type:alpha" maskUnits="userSpaceOnUse" x="115" y="0" width="220" height="220">
<rect x="115" width="220" height="220" fill="#D9D9D9"/>
</mask>
<g mask="url(#mask0_564_47516)">
<path d="M333.592 199.096H246.229L260.666 159.271C263.068 152.632 271.512 148.517 280.162 149.754L317.763 155.141C327.259 156.499 334.118 163.031 334.011 170.601L333.599 199.096H333.592Z" fill="#18292D"/>
<path d="M213.905 199.096L222.499 182.826C224.702 182.649 226.891 181.895 228.803 180.488C232.115 178.05 234.973 175.91 235.037 175.718L251.207 170.21C252.551 169.755 253.361 168.568 253.091 167.452C252.799 166.237 251.342 165.547 249.842 165.91L240.78 168.078L250.404 160.579C251.648 159.612 252.117 157.878 251.378 156.485C250.511 154.857 248.464 154.31 246.914 155.255L236.21 161.766L248.677 152.049C250.077 150.955 250.333 148.901 249.153 147.479C248.129 146.256 246.324 146.05 244.959 146.875L240.73 149.448L241.59 148.68C242.763 147.628 243.104 145.866 242.273 144.529C241.292 142.966 239.216 142.567 237.731 143.619L221.866 154.878L216.763 158.503L219.215 150.621C219.84 148.609 219.606 146.434 218.568 144.6C217.886 143.399 216.116 143.477 215.462 144.693L211.481 152.156C209.356 156.143 208.105 160.543 207.814 165.057C207.771 165.725 207.778 166.393 207.807 167.061L182.176 196.957L213.912 199.089L213.905 199.096Z" fill="white"/>
<path d="M213.904 199.807C213.79 199.807 213.676 199.779 213.57 199.722C213.221 199.537 213.093 199.11 213.271 198.762L221.865 182.492C221.978 182.279 222.192 182.137 222.44 182.116C224.601 181.945 226.655 181.184 228.382 179.912C233.273 176.316 234.268 175.491 234.453 175.306C234.538 175.185 234.659 175.093 234.808 175.043L250.978 169.535C251.973 169.193 252.585 168.369 252.4 167.616C252.208 166.798 251.106 166.329 250.005 166.599L240.942 168.767C240.622 168.845 240.281 168.689 240.139 168.383C239.997 168.085 240.082 167.722 240.345 167.516L249.969 160.017C250.971 159.235 251.305 157.864 250.751 156.819C250.424 156.207 249.884 155.774 249.216 155.589C248.555 155.404 247.865 155.504 247.275 155.859L236.571 162.37C236.251 162.569 235.831 162.477 235.618 162.164C235.405 161.851 235.469 161.432 235.768 161.197L248.235 151.481C248.768 151.061 249.102 150.464 249.173 149.789C249.244 149.114 249.045 148.453 248.597 147.927C247.822 147.003 246.415 146.811 245.32 147.479L241.091 150.052C240.779 150.244 240.373 150.166 240.153 149.867C239.933 149.576 239.975 149.164 240.245 148.915L241.105 148.147C242.051 147.301 242.285 145.901 241.66 144.899C241.29 144.316 240.722 143.918 240.046 143.783C239.371 143.648 238.689 143.79 238.134 144.188L217.166 159.065C216.918 159.242 216.583 159.242 216.335 159.065C216.086 158.887 215.979 158.567 216.072 158.276L218.524 150.393C219.093 148.581 218.872 146.591 217.934 144.934C217.671 144.472 217.223 144.423 217.038 144.43C216.626 144.43 216.271 144.65 216.079 145.013L212.098 152.476C210.002 156.399 208.8 160.643 208.516 165.085C208.48 165.661 208.473 166.293 208.509 167.011C208.516 167.189 208.452 167.367 208.338 167.502L182.707 197.397C182.452 197.696 182.004 197.731 181.705 197.476C181.407 197.22 181.371 196.772 181.627 196.473L207.073 166.791C207.052 166.13 207.059 165.54 207.094 164.993C207.393 160.344 208.651 155.909 210.847 151.801L214.828 144.337C215.261 143.527 216.1 143.015 217.024 143.008C217.92 142.987 218.737 143.456 219.178 144.231C220.308 146.228 220.571 148.623 219.889 150.813L218.062 156.691L237.317 143.029C238.184 142.411 239.286 142.177 240.331 142.39C241.39 142.603 242.293 143.221 242.868 144.145C243.408 145.005 243.551 146.05 243.33 147.031L244.588 146.264C246.28 145.233 248.476 145.56 249.692 147.017C250.381 147.842 250.701 148.879 250.587 149.938C250.474 150.997 249.948 151.943 249.109 152.597L246.358 154.736L246.536 154.622C247.446 154.068 248.562 153.912 249.592 154.196C250.637 154.48 251.49 155.17 252.002 156.122C252.876 157.764 252.379 159.911 250.843 161.112L243.806 166.592L249.678 165.185C251.561 164.737 253.402 165.661 253.786 167.253C254.141 168.731 253.132 170.274 251.44 170.85L235.426 176.301C234.936 176.77 233.529 177.858 229.228 181.021C227.394 182.371 225.227 183.21 222.952 183.459L214.536 199.388C214.408 199.629 214.16 199.764 213.904 199.764V199.807Z" fill="#18292D"/>
<path d="M230.493 157.288C230.272 157.288 230.052 157.181 229.91 156.989C229.682 156.669 229.76 156.229 230.08 156.001L241.183 148.126C241.503 147.898 241.943 147.977 242.171 148.296C242.398 148.616 242.32 149.057 242 149.284L230.898 157.16C230.77 157.245 230.628 157.288 230.485 157.288H230.493Z" fill="#18292D"/>
<path d="M119.532 199.096L121.153 174.269C121.864 163.394 130.102 154.509 140.884 152.981L174.391 148.225C182.892 147.017 191.058 152 193.887 160.11L207.463 199.096H119.532Z" fill="white"/>
<path d="M207.464 199.807C207.172 199.807 206.895 199.622 206.796 199.331L193.22 160.344C190.512 152.575 182.636 147.778 174.498 148.929L140.991 153.684C130.593 155.156 122.554 163.834 121.864 174.318L120.243 199.146C120.215 199.537 119.881 199.836 119.49 199.807C119.099 199.779 118.801 199.445 118.829 199.054L120.45 174.226C121.175 163.081 129.732 153.848 140.792 152.277L174.299 147.522C183.112 146.271 191.635 151.467 194.563 159.875L208.139 198.862C208.267 199.231 208.075 199.637 207.698 199.764C207.62 199.793 207.542 199.807 207.464 199.807Z" fill="#18292D"/>
<path d="M230.031 114.008C255.68 114.008 276.473 98.9274 276.473 80.3242C276.473 61.721 255.68 46.6401 230.031 46.6401C204.381 46.6401 183.588 61.721 183.588 80.3242C183.588 98.9274 204.381 114.008 230.031 114.008Z" fill="#4A7C88"/>
<path d="M201.315 96.2742L189.971 118.97L216.206 107.625L201.315 96.2742Z" fill="#4A7C88"/>
<path d="M269.303 108.173C269.303 97.7099 257.611 89.2302 243.182 89.2302C228.753 89.2302 217.061 97.7099 217.061 108.173C217.061 118.635 228.753 127.115 243.182 127.115C245.755 127.115 248.243 126.838 250.588 126.34L263.802 131.394L259.565 122.921C265.501 119.446 269.303 114.136 269.303 108.173Z" fill="white"/>
<path d="M263.801 132.112C263.716 132.112 263.63 132.098 263.545 132.062L250.523 127.08C248.128 127.577 245.662 127.826 243.174 127.826C228.375 127.826 216.342 119.012 216.342 108.173C216.342 97.3333 228.382 88.5195 243.174 88.5195C257.965 88.5195 270.006 97.3333 270.006 108.173C270.006 114.008 266.545 119.453 260.489 123.192L264.433 131.074C264.561 131.337 264.519 131.65 264.327 131.87C264.192 132.02 264 132.105 263.801 132.105V132.112ZM250.587 125.637C250.673 125.637 250.758 125.651 250.843 125.686L262.351 130.093L258.932 123.256C258.761 122.922 258.889 122.516 259.209 122.324C265.173 118.834 268.599 113.681 268.599 108.187C268.599 98.1364 257.198 89.9553 243.188 89.9553C229.179 89.9553 217.778 98.1364 217.778 108.187C217.778 118.237 229.179 126.419 243.188 126.419C245.64 126.419 248.085 126.163 250.445 125.658C250.495 125.651 250.545 125.644 250.595 125.644L250.587 125.637Z" fill="#18292D"/>
<path d="M237.175 114.271C237.012 114.271 236.848 114.264 236.678 114.243C234.524 113.966 233.067 113.013 232.399 111.485C231.475 111.762 230.337 111.99 228.93 112.125L228.795 110.71C230.131 110.582 231.197 110.369 232.036 110.113C231.993 109.758 231.979 109.381 232.001 108.99C232.057 107.81 232.555 106.588 233.223 106.005C233.657 105.628 234.069 105.586 234.339 105.614C235.448 105.721 236.322 106.716 236.322 107.874C236.322 108.436 236.073 109.9 233.742 110.98C234.232 112.018 235.263 112.622 236.862 112.829C238.376 113.02 240.047 111.826 241.276 110.355C239.713 108.926 238.611 107.085 238.689 105.87C238.789 104.278 239.833 102.87 241.17 102.515C242.314 102.209 243.423 102.714 244.212 103.908C245.143 105.308 244.823 107.554 243.359 109.907C243.316 109.971 243.274 110.042 243.231 110.106C244.51 110.966 246.429 111.741 248.569 110.817C249.614 110.362 250.417 109.644 251 108.827C249.927 107.583 249.145 105.984 249.145 104.79C249.145 104.05 249.443 103.475 249.991 103.162C251.156 102.487 251.966 102.7 252.443 102.998C253.232 103.496 253.63 104.576 253.523 105.962C253.459 106.801 253.21 107.718 252.777 108.606C252.99 108.784 253.203 108.948 253.431 109.076C254.959 109.964 255.435 109.502 255.442 109.495L256.572 110.355C256.53 110.419 255.442 111.89 252.713 110.305C252.485 110.17 252.251 110.007 252.03 109.829C251.327 110.767 250.367 111.592 249.145 112.125C246.977 113.063 244.589 112.757 242.392 111.258C240.992 112.935 239.08 114.286 237.182 114.286L237.175 114.271ZM234.204 107.021C234.019 107.092 233.472 107.953 233.422 109.047C233.415 109.225 233.415 109.388 233.422 109.552C234.531 108.969 234.901 108.315 234.901 107.867C234.901 107.384 234.538 107.05 234.204 107.021ZM241.809 103.844C241.724 103.844 241.632 103.858 241.539 103.88C240.8 104.079 240.167 104.989 240.111 105.955C240.075 106.552 240.836 107.981 242.122 109.196C242.136 109.182 242.143 109.161 242.158 109.147C243.266 107.363 243.622 105.571 243.032 104.683C242.769 104.285 242.35 103.844 241.816 103.844H241.809ZM251.441 104.129C251.185 104.129 250.886 104.278 250.701 104.384C250.616 104.434 250.566 104.569 250.566 104.79C250.566 105.472 251.035 106.531 251.725 107.462C251.938 106.915 252.059 106.36 252.102 105.849C252.173 104.932 251.938 104.356 251.682 104.192C251.611 104.15 251.526 104.129 251.441 104.129Z" fill="#FFC31F"/>
<path d="M307.74 131.999L309.432 154.751C309.574 156.649 309.29 158.553 308.607 160.33L308.387 160.906C306.255 166.436 300.611 169.791 294.726 169.023C287.639 168.099 282.664 161.567 283.659 154.488L286.097 137.13L307.74 131.999Z" fill="white"/>
<path d="M296.412 169.848C295.822 169.848 295.232 169.812 294.635 169.734C291.017 169.258 287.804 167.403 285.601 164.495C283.39 161.595 282.452 158.006 282.964 154.388L285.402 137.031C285.444 136.739 285.657 136.505 285.942 136.441L307.585 131.309C307.791 131.259 307.997 131.309 308.168 131.43C308.339 131.551 308.438 131.742 308.459 131.949L310.151 154.701C310.3 156.691 309.995 158.731 309.277 160.586L309.057 161.162C307.009 166.457 301.97 169.848 296.426 169.848H296.412ZM286.731 137.713L284.357 154.587C283.902 157.821 284.741 161.034 286.717 163.635C288.693 166.237 291.571 167.9 294.805 168.319C300.378 169.044 305.687 165.896 307.706 160.65L307.926 160.074C308.566 158.411 308.836 156.584 308.708 154.8L307.081 132.88L286.717 137.713H286.731Z" fill="#18292D"/>
<path d="M311.686 95.791C304.635 91.0074 294.535 91.6613 292.602 94.412C291.337 92.7986 289.496 91.5049 287.264 90.8155C282.04 89.2162 276.652 91.5476 275.23 96.0255C273.994 99.9064 276.147 104.121 280.135 106.225C278.599 108.784 277.299 111.627 276.325 114.712C272.416 127.009 292.133 134.138 295.9 135.296C306.085 138.424 317.209 131.949 320.735 120.846C324.267 109.737 320.209 101.57 311.694 95.7981L311.686 95.791Z" fill="#18292D"/>
<path d="M311.253 98.9683C308.225 99.1744 305.666 100.155 303.968 101.968C299.177 107.093 301.345 120.86 312.369 124.592C313.059 124.827 313.869 124.713 314.466 125.097C317.643 115.025 316.165 105.152 311.253 98.9612V98.9683Z" fill="#18292D"/>
<path d="M279.701 106.026C283.696 108.798 289.354 110.803 295.751 111.4C306.505 112.402 315.944 109.097 319.186 103.702C316.925 97.7525 312.767 93.303 307.131 91.6469C297.507 88.8108 286.497 94.9876 279.694 106.026H279.701Z" fill="#18292D"/>
<path d="M317.931 135.997C321.295 133.171 321.731 128.154 318.905 124.791C316.08 121.427 311.063 120.991 307.7 123.816C304.336 126.641 303.9 131.659 306.725 135.022C309.55 138.386 314.567 138.822 317.931 135.997Z" fill="white"/>
<path d="M313.556 121.997C311.9 121.841 310.315 122.211 308.957 122.964C304.707 120.249 302.369 115.792 301.743 111.52C299.817 111.627 297.805 111.598 295.751 111.407C289.482 110.824 283.931 108.883 279.95 106.197C278.479 108.734 277.221 111.549 276.269 114.598C271.606 129.532 275.92 144.167 285.907 147.287C293.384 149.625 301.928 144.835 307.707 136.007C308.908 137.016 310.407 137.684 312.085 137.841C316.456 138.246 320.337 135.033 320.742 130.655C321.147 126.283 317.935 122.402 313.556 121.997Z" fill="white"/>
<path d="M289.795 148.581C288.402 148.581 287.03 148.375 285.693 147.963C280.633 146.378 276.802 141.978 274.911 135.574C273.049 129.269 273.29 121.742 275.593 114.385C276.531 111.371 277.797 108.5 279.339 105.842C279.439 105.671 279.602 105.55 279.794 105.507C279.986 105.465 280.185 105.507 280.348 105.607C284.4 108.336 289.894 110.142 295.822 110.696C297.798 110.881 299.781 110.917 301.707 110.81C302.077 110.789 302.397 111.052 302.454 111.414C303.108 115.864 305.489 119.752 309.007 122.14C310.443 121.436 312.028 121.145 313.627 121.294C315.93 121.507 318.013 122.609 319.491 124.386C320.97 126.17 321.666 128.416 321.453 130.726C321.24 133.029 320.138 135.112 318.361 136.59C316.577 138.068 314.324 138.765 312.021 138.552C310.521 138.41 309.1 137.891 307.877 137.038C302.852 144.387 296.142 148.588 289.802 148.588L289.795 148.581ZM280.192 107.199C278.87 109.58 277.775 112.139 276.944 114.804C274.726 121.898 274.492 129.127 276.268 135.168C278.017 141.111 281.514 145.169 286.113 146.605C293.071 148.78 301.309 144.466 307.102 135.616C307.216 135.446 307.394 135.332 307.593 135.304C307.792 135.275 307.998 135.332 308.154 135.46C309.292 136.412 310.67 136.995 312.142 137.13C314.068 137.308 315.952 136.725 317.437 135.495C318.93 134.259 319.847 132.517 320.024 130.591C320.202 128.665 319.619 126.781 318.39 125.296C317.153 123.803 315.411 122.886 313.485 122.708C312.028 122.573 310.578 122.879 309.299 123.59C309.071 123.718 308.794 123.711 308.574 123.568C304.693 121.088 302.006 116.994 301.139 112.267C299.341 112.338 297.507 112.288 295.68 112.118C289.83 111.57 284.364 109.836 280.192 107.213V107.199Z" fill="#18292D"/>
<path d="M292.759 94.8029C292.474 94.8029 292.204 94.6323 292.097 94.348C290.918 91.313 288.487 89.5147 284.876 89.01C282.097 88.6191 279.623 89.1735 279.602 89.1806C279.218 89.2659 278.841 89.0313 278.749 88.6475C278.664 88.2637 278.898 87.887 279.282 87.7946C279.389 87.7732 290.129 85.385 293.42 93.8291C293.562 94.1916 293.384 94.6039 293.014 94.746C292.929 94.7816 292.844 94.7958 292.759 94.7958V94.8029Z" fill="#18292D"/>
<path d="M276.303 120.853C276.389 122.076 277.092 123.028 277.874 122.971C278.656 122.914 279.218 121.877 279.132 120.654C279.047 119.431 278.343 118.479 277.562 118.536C276.78 118.593 276.218 119.63 276.303 120.853Z" fill="#18292D"/>
<path d="M274.775 116.724C274.476 116.724 274.199 116.532 274.1 116.233C273.979 115.863 274.178 115.458 274.548 115.337C277.206 114.456 279.878 115.146 279.992 115.174C280.369 115.274 280.596 115.664 280.497 116.041C280.397 116.418 280.006 116.645 279.63 116.546C279.608 116.546 277.241 115.935 274.995 116.681C274.924 116.702 274.846 116.716 274.775 116.716V116.724Z" fill="#18292D"/>
<path d="M288.017 122.289C288.103 123.511 288.806 124.464 289.588 124.407C290.37 124.35 290.932 123.312 290.846 122.09C290.761 120.867 290.057 119.915 289.275 119.972C288.494 120.029 287.932 121.066 288.017 122.289Z" fill="#18292D"/>
<path d="M294.585 120.221C294.386 120.221 294.194 120.142 294.052 119.986C294.023 119.95 291.152 116.78 287.676 117.399C287.292 117.47 286.923 117.207 286.851 116.823C286.78 116.439 287.043 116.07 287.427 115.999C291.692 115.238 294.976 118.884 295.118 119.041C295.381 119.332 295.352 119.78 295.054 120.043C294.919 120.164 294.748 120.221 294.585 120.221Z" fill="#18292D"/>
<path d="M282.559 129.098C282.559 129.098 282.516 129.098 282.495 129.098C282.225 129.077 279.865 128.814 279.105 127.478C278.884 127.087 278.7 126.44 279.105 125.587C279.887 123.931 281.557 118.458 281.571 118.401C281.685 118.024 282.083 117.811 282.46 117.925C282.836 118.039 283.05 118.437 282.936 118.813C282.865 119.041 281.223 124.443 280.391 126.191C280.221 126.554 280.306 126.71 280.341 126.767C280.626 127.265 281.87 127.599 282.63 127.677C283.021 127.712 283.305 128.061 283.27 128.452C283.234 128.821 282.929 129.098 282.566 129.098H282.559Z" fill="#18292D"/>
<path d="M283.369 135.389C282.075 135.389 281.172 135.047 281.151 135.04C280.789 134.898 280.604 134.486 280.753 134.116C280.895 133.754 281.308 133.576 281.67 133.718C281.876 133.796 286.695 135.559 289.609 129.02C289.766 128.665 290.192 128.501 290.548 128.658C290.903 128.821 291.067 129.24 290.91 129.596C288.735 134.458 285.508 135.389 283.369 135.389Z" fill="#18292D"/>
<path d="M309.583 128.551C309.419 128.551 309.249 128.494 309.114 128.373C308.822 128.117 308.787 127.669 309.05 127.371C309.156 127.25 311.715 124.371 315.255 125.274C315.639 125.374 315.866 125.757 315.767 126.141C315.667 126.525 315.283 126.752 314.899 126.653C312.213 125.971 310.13 128.281 310.109 128.309C309.967 128.465 309.775 128.551 309.576 128.551H309.583Z" fill="#18292D"/>
<path d="M155.469 97.3442C157.906 86.9 151.414 76.4583 140.97 74.0221C130.525 71.5858 120.084 78.0776 117.647 88.5219C115.211 98.9661 121.703 109.408 132.147 111.844C142.592 114.28 153.033 107.788 155.469 97.3442Z" fill="#18292D"/>
<path d="M151.667 151.182L149.947 151.218C151.113 148.403 145.27 128.409 145.27 128.409L165.115 127.854C165.087 128.196 167.567 142.873 168.776 148.858L174.974 148.019C176.146 155.71 174.021 162.569 168.797 165.583C160.978 170.096 149.193 164.311 142.469 152.661C142.427 152.59 142.391 152.512 142.349 152.441L151.667 151.175V151.182Z" fill="white"/>
<path d="M162.87 167.836C160.347 167.836 157.653 167.161 154.917 165.825C149.82 163.323 145.179 158.774 141.86 153.023L141.732 152.796C141.618 152.59 141.611 152.341 141.71 152.128C141.817 151.915 142.016 151.772 142.25 151.737L149.337 150.777C149.899 148.403 146.757 136.05 144.582 128.608C144.518 128.395 144.561 128.167 144.688 127.99C144.816 127.812 145.023 127.705 145.243 127.698L165.088 127.144C165.287 127.137 165.486 127.215 165.621 127.364C165.742 127.492 165.813 127.663 165.82 127.847C165.891 128.629 168.095 141.75 169.338 148.069L174.875 147.316C175.259 147.259 175.615 147.529 175.672 147.913C176.93 156.144 174.428 163.152 169.147 166.201C167.256 167.296 165.124 167.836 162.856 167.836H162.87ZM143.501 153.002C146.65 158.184 150.901 162.264 155.542 164.545C160.297 166.877 164.882 167.026 168.45 164.965C173.063 162.299 175.302 156.151 174.371 148.816L168.876 149.562C168.507 149.612 168.159 149.363 168.087 149C167.199 144.608 164.981 131.899 164.505 128.587L146.217 129.098C147.468 133.441 151.014 146.207 150.794 150.493L151.661 150.472H151.675C152.045 150.472 152.358 150.756 152.386 151.126C152.415 151.502 152.145 151.836 151.775 151.886L143.516 153.009L143.501 153.002Z" fill="#18292D"/>
<path d="M159.607 134.379C171.822 134.012 181.427 123.813 181.06 111.598C180.693 99.3833 170.494 89.7786 158.279 90.1454C146.064 90.5122 136.459 100.712 136.826 112.926C137.193 125.141 147.392 134.746 159.607 134.379Z" fill="#18292D"/>
<path d="M146.045 120.327C144.965 117.057 144.844 113.439 145.953 109.907C148.775 100.915 158.356 95.9185 167.34 98.7403C174.356 100.944 178.926 107.27 179.253 114.214C181.862 118.315 182.722 123.497 181.151 128.494C178.329 137.485 168.748 142.482 159.763 139.66C155.015 138.168 151.398 134.791 149.443 130.612C147.815 132.766 144.951 133.782 142.221 132.922C138.753 131.834 136.826 128.138 137.914 124.67C138.987 121.244 142.605 119.325 146.038 120.334L146.045 120.327Z" fill="white"/>
<path d="M164.867 141.153C163.104 141.153 161.32 140.89 159.55 140.336C155.165 138.957 151.469 135.9 149.28 131.863C147.382 133.711 144.588 134.408 142.008 133.597C138.17 132.389 136.031 128.288 137.239 124.457C138.291 121.095 141.632 119.012 145.029 119.403C144.197 116.19 144.283 112.857 145.271 109.694C148.206 100.347 158.207 95.1297 167.554 98.0653C174.562 100.269 179.523 106.652 179.95 113.994C182.694 118.408 183.376 123.76 181.826 128.707C179.445 136.291 172.416 141.153 164.86 141.153H164.867ZM149.443 129.894C149.443 129.894 149.493 129.894 149.514 129.894C149.763 129.923 149.976 130.072 150.083 130.299C152.016 134.443 155.62 137.606 159.97 138.971C168.57 141.672 177.768 136.874 180.469 128.274C181.919 123.668 181.258 118.678 178.649 114.591C178.585 114.484 178.543 114.364 178.535 114.243C178.208 107.419 173.624 101.456 167.12 99.4158C158.52 96.7148 149.322 101.513 146.621 110.113C145.598 113.368 145.626 116.823 146.707 120.1C146.792 120.348 146.728 120.626 146.543 120.817C146.358 121.009 146.088 121.08 145.832 121.002C142.783 120.107 139.535 121.848 138.582 124.869C138.113 126.369 138.255 127.954 138.98 129.347C139.705 130.74 140.928 131.764 142.428 132.233C144.787 132.972 147.375 132.14 148.867 130.171C149.002 129.994 149.216 129.887 149.436 129.887L149.443 129.894Z" fill="#18292D"/>
<path d="M147.843 127.023C147.644 127.023 147.452 126.944 147.31 126.788C146.059 125.388 143.991 124.713 142.157 125.118C141.773 125.203 141.396 124.961 141.311 124.578C141.226 124.194 141.467 123.817 141.851 123.732C144.204 123.213 146.763 124.044 148.369 125.843C148.632 126.134 148.604 126.582 148.312 126.845C148.177 126.966 148.007 127.023 147.843 127.023Z" fill="#18292D"/>
<path d="M173.239 126.675C171.448 126.675 169.785 125.928 168.761 124.67C168.512 124.365 168.562 123.917 168.868 123.668C169.174 123.419 169.621 123.469 169.87 123.775C170.638 124.72 171.931 125.282 173.324 125.253C174.718 125.232 175.99 124.635 176.729 123.668C176.964 123.355 177.412 123.291 177.724 123.533C178.037 123.768 178.101 124.215 177.859 124.528C176.857 125.843 175.173 126.646 173.346 126.675C173.31 126.675 173.275 126.675 173.239 126.675Z" fill="#18292D"/>
<path d="M160.815 112.089C160.73 112.089 160.645 112.075 160.56 112.039C160.19 111.897 160.012 111.485 160.154 111.123C161.675 107.171 165.336 108.436 166.537 108.848L166.708 108.905C167.077 109.033 167.284 109.431 167.156 109.808C167.028 110.177 166.63 110.383 166.253 110.255L166.075 110.191C164.348 109.594 162.429 109.168 161.484 111.627C161.377 111.911 161.107 112.082 160.823 112.082L160.815 112.089Z" fill="#18292D"/>
<path d="M175.948 118.223C175.813 118.223 175.685 118.188 175.564 118.109C173.162 116.567 171.697 114.342 171.171 112.907C170.631 111.435 170.859 109.708 171.797 108.166C172.764 106.566 174.299 105.493 175.891 105.287C176.275 105.23 176.637 105.507 176.687 105.898C176.737 106.289 176.46 106.645 176.076 106.694C174.924 106.844 173.744 107.689 173.012 108.905C172.302 110.078 172.117 111.357 172.508 112.416C172.87 113.411 174.086 115.472 176.332 116.915C176.659 117.129 176.758 117.569 176.545 117.896C176.41 118.109 176.182 118.223 175.948 118.223Z" fill="#18292D"/>
<path d="M176.581 113.155C176.631 114.314 175.991 115.28 175.16 115.316C174.328 115.352 173.61 114.442 173.56 113.283C173.511 112.125 174.15 111.158 174.982 111.122C175.814 111.087 176.531 111.997 176.581 113.155Z" fill="#18292D"/>
<path d="M166.9 115.195C166.949 116.354 166.31 117.32 165.478 117.356C164.646 117.392 163.928 116.482 163.879 115.323C163.829 114.165 164.469 113.198 165.3 113.162C166.132 113.127 166.85 114.037 166.9 115.195Z" fill="#18292D"/>
<path d="M141.482 112.082C141.133 114.882 140.956 117.711 140.863 120.526C140.863 120.768 141.013 121.038 141.283 121.038C143.735 121.095 146.18 120.711 148.511 119.915C152.769 118.451 156.522 115.607 158.967 111.819C161.64 107.675 162.784 102.6 162.109 97.7099C162.038 97.1555 161.241 97.255 161.199 97.7454C159.507 96.3807 157.005 96.3736 154.965 96.8783C152.691 97.4398 150.637 98.6126 148.682 99.8707C146.564 101.228 144.652 102.664 143.451 104.931C142.278 107.135 141.794 109.623 141.489 112.075L141.482 112.082Z" fill="#18292D"/>
<path d="M217.386 174.276C217.187 174.276 216.988 174.191 216.846 174.027C216.59 173.729 216.626 173.281 216.931 173.025C216.988 172.975 222.774 167.957 221.886 160.416C221.843 160.025 222.12 159.669 222.511 159.627C222.895 159.577 223.25 159.861 223.3 160.252C224.281 168.568 218.118 173.892 217.855 174.113C217.72 174.226 217.557 174.283 217.393 174.283L217.386 174.276Z" fill="#18292D"/>
<path d="M235.824 171.44C235.433 171.44 235.113 171.12 235.113 170.729C235.113 163.6 226.015 156.229 225.923 156.158C225.617 155.909 225.568 155.469 225.809 155.156C226.058 154.85 226.499 154.8 226.811 155.042C227.209 155.362 236.535 162.91 236.535 170.722C236.535 171.113 236.215 171.433 235.824 171.433V171.44Z" fill="#18292D"/>
<path d="M149.314 198.862C148.994 198.862 148.702 198.648 148.624 198.321L143.897 179.415C143.805 179.031 144.033 178.647 144.416 178.554C144.8 178.462 145.184 178.69 145.276 179.073L150.003 197.98C150.096 198.364 149.868 198.748 149.484 198.84C149.427 198.854 149.371 198.862 149.314 198.862Z" fill="#18292D"/>
</g>
</svg>
