<svg width="65" height="65" viewBox="0 0 65 65" fill="none" xmlns="http://www.w3.org/2000/svg">
<path d="M6.5 27.232L15.9376 10.8335H48.47L57.9027 27.232" fill="white"/>
<path d="M6.5 27.232L15.9376 10.8335H48.47L57.9027 27.232" stroke="#18292D" stroke-width="1.2" stroke-linecap="round" stroke-linejoin="round"/>
<path d="M15.9375 27.2319L32.2012 13.6597L48.4699 27.2319" fill="#18292D"/>
<path d="M15.9375 27.2319L32.2012 13.6597L48.4699 27.2319" stroke="#18292D" stroke-width="1.2" stroke-linecap="round" stroke-linejoin="round"/>
<path d="M43.8212 27.2317L32.2015 17.7891L20.5867 27.2317H10.0205V48.3091H20.5867H43.8212H54.3824V27.2317H43.8212Z" fill="white" stroke="#18292D" stroke-width="1.2" stroke-linecap="round" stroke-linejoin="round"/>
<path d="M35.204 30.9202C36.8616 29.2627 36.8616 26.5752 35.204 24.9177C33.5465 23.2601 30.859 23.2601 29.2015 24.9177C27.5439 26.5752 27.5439 29.2627 29.2015 30.9202C30.859 32.5778 33.5465 32.5778 35.204 30.9202Z" stroke="#18292D" stroke-width="1.2" stroke-linecap="round" stroke-linejoin="round"/>
<path d="M32.2012 37.2139C29.7644 37.2139 27.792 39.1863 27.792 41.6231V48.3143H36.6104V41.6231C36.6104 39.1863 34.638 37.2139 32.2012 37.2139Z" stroke="#18292D" stroke-width="1.2" stroke-linecap="round" stroke-linejoin="round"/>
<path d="M17.3158 40.3101H12.8916V45.2136H17.3158V40.3101Z" fill="white" stroke="#18292D" stroke-width="1.2" stroke-linecap="round" stroke-linejoin="round"/>
<path d="M24.5316 40.3101H20.1074V45.2136H24.5316V40.3101Z" fill="white" stroke="#18292D" stroke-width="1.2" stroke-linecap="round" stroke-linejoin="round"/>
<path d="M17.3158 31.1069H12.8916V36.0105H17.3158V31.1069Z" fill="white" stroke="#18292D" stroke-width="1.2" stroke-linecap="round" stroke-linejoin="round"/>
<path d="M24.5316 31.1069H20.1074V36.0105H24.5316V31.1069Z" fill="white" stroke="#18292D" stroke-width="1.2" stroke-linecap="round" stroke-linejoin="round"/>
<path d="M44.0258 40.3101H39.6016V45.2136H44.0258V40.3101Z" fill="white" stroke="#18292D" stroke-width="1.2" stroke-linecap="round" stroke-linejoin="round"/>
<path d="M56.0904 48.3096H8.31299V51.2357H56.0904V48.3096Z" fill="#18292D" stroke="#18292D" stroke-width="1.2" stroke-linecap="round" stroke-linejoin="round"/>
<path d="M57.9027 51.2402H6.5V54.1664H57.9027V51.2402Z" fill="white" stroke="#18292D" stroke-width="1.2" stroke-linecap="round" stroke-linejoin="round"/>
<path d="M51.2416 40.3101H46.8174V45.2136H51.2416V40.3101Z" fill="white" stroke="#18292D" stroke-width="1.2" stroke-linecap="round" stroke-linejoin="round"/>
<path d="M44.0258 31.1069H39.6016V36.0105H44.0258V31.1069Z" fill="white" stroke="#18292D" stroke-width="1.2" stroke-linecap="round" stroke-linejoin="round"/>
<path d="M51.2416 31.1069H46.8174V36.0105H51.2416V31.1069Z" fill="white" stroke="#18292D" stroke-width="1.2" stroke-linecap="round" stroke-linejoin="round"/>
<path d="M32.2017 25.7485V28.2403" stroke="#18292D" stroke-width="1.2" stroke-linecap="round" stroke-linejoin="round"/>
<path d="M32.2017 28.2405L33.8245 27.4565" stroke="#18292D" stroke-width="1.2" stroke-linecap="round" stroke-linejoin="round"/>
<path d="M57.9027 27.2319H54.3823" stroke="#18292D" stroke-width="1.2" stroke-linecap="round" stroke-linejoin="round"/>
<path d="M10.0204 27.2319H6.5" stroke="#18292D" stroke-width="1.2" stroke-linecap="round" stroke-linejoin="round"/>
</svg>
