<svg width="460" height="460" viewBox="0 0 460 460" fill="none" xmlns="http://www.w3.org/2000/svg">
<g clip-path="url(#clip0_524_1790)">
<rect width="460" height="460" fill="white"/>
<g clip-path="url(#clip1_524_1790)">
<path d="M106.1 385.73C106.06 385.68 105.05 384.34 103.4 381.44L104.27 380.95C105.87 383.78 106.88 385.11 106.89 385.13L106.09 385.74L106.1 385.73ZM99.75 374.28C99.07 372.82 98.39 371.27 97.73 369.69L98.65 369.3C99.31 370.87 99.98 372.41 100.66 373.86L99.75 374.28ZM94.82 362.21C94.28 360.71 93.73 359.13 93.18 357.48L94.13 357.16C94.68 358.81 95.23 360.38 95.76 361.87L94.82 362.21ZM90.79 349.82C90.34 348.27 89.89 346.66 89.44 345L90.41 344.74C90.86 346.4 91.31 348 91.76 349.54L90.8 349.82H90.79ZM87.47 337.23C87.09 335.65 86.72 334.02 86.36 332.35L87.34 332.14C87.71 333.81 88.08 335.43 88.45 337.01L87.48 337.24L87.47 337.23ZM84.74 324.5C84.43 322.89 84.13 321.25 83.83 319.58L84.81 319.41C85.11 321.08 85.41 322.72 85.72 324.32L84.74 324.51V324.5ZM82.63 311.64C82.43 309.99 82.26 308.31 82.13 306.64L83.13 306.56C83.26 308.22 83.43 309.88 83.63 311.52L82.64 311.64H82.63ZM81.73 298.63C81.71 297.77 81.71 296.9 81.71 296.04C81.71 295.23 81.71 294.42 81.73 293.62L82.73 293.64C82.72 294.44 82.71 295.24 82.71 296.05C82.71 296.91 82.71 297.77 82.73 298.62L81.73 298.64V298.63ZM83.1 285.67L82.1 285.59C82.22 283.93 82.38 282.25 82.57 280.59L83.56 280.7C83.38 282.35 83.22 284.02 83.1 285.66V285.67ZM84.66 272.81L83.67 272.65C83.94 271.01 84.25 269.35 84.58 267.72L85.56 267.92C85.23 269.54 84.93 271.19 84.66 272.82V272.81ZM87.35 260.14L86.38 259.89C86.8 258.27 87.25 256.65 87.72 255.05L88.68 255.33C88.21 256.91 87.77 258.53 87.35 260.13V260.14ZM91.13 247.75L90.19 247.42C90.75 245.85 91.33 244.27 91.94 242.71L92.87 243.08C92.27 244.62 91.68 246.19 91.13 247.75ZM95.98 235.73L95.07 235.32C95.76 233.8 96.49 232.27 97.23 230.79L98.13 231.24C97.39 232.72 96.67 234.23 95.98 235.74V235.73ZM101.88 224.19L101.01 223.69C101.84 222.24 102.7 220.78 103.58 219.37L104.43 219.9C103.56 221.3 102.7 222.74 101.88 224.19ZM108.83 213.26L108.01 212.68C108.98 211.31 109.98 209.95 110.99 208.64L111.78 209.25C110.78 210.55 109.79 211.9 108.83 213.26ZM116.84 203.09L116.09 202.43C117.2 201.17 118.34 199.92 119.48 198.73L120.2 199.42C119.07 200.6 117.93 201.84 116.84 203.09ZM125.99 193.98L125.34 193.22C126.59 192.16 127.92 191.11 129.28 190.09L129.88 190.89C128.54 191.89 127.23 192.93 125.99 193.98ZM136.45 186.4L135.92 185.55C137.31 184.68 138.77 183.82 140.24 182.99L140.73 183.86C139.27 184.68 137.83 185.54 136.45 186.4ZM147.8 180.18L147.37 179.28C148.85 178.57 150.39 177.86 151.93 177.19L152.33 178.11C150.79 178.78 149.27 179.48 147.8 180.19V180.18ZM159.72 175.11L159.37 174.17C160.91 173.59 162.5 173.02 164.09 172.48L164.41 173.43C162.83 173.97 161.25 174.53 159.72 175.11ZM172.02 171.03L171.74 170.07C173.33 169.61 174.94 169.16 176.57 168.73L176.82 169.7C175.2 170.13 173.6 170.57 172.01 171.03H172.02ZM184.58 167.81L184.36 166.83C185.98 166.47 187.62 166.13 189.27 165.8L189.46 166.78C187.82 167.11 186.19 167.45 184.58 167.81ZM300.88 166.74V165.74C302.54 165.72 304.22 165.67 305.85 165.6L305.89 166.6C304.25 166.67 302.56 166.72 300.88 166.74ZM292.86 166.68C291.19 166.63 289.52 166.56 287.85 166.48L287.9 165.48C289.56 165.57 291.23 165.64 292.88 165.68L292.85 166.68H292.86ZM313.9 166.07L313.81 165.07C315.48 164.92 317.14 164.74 318.77 164.53L318.89 165.52C317.26 165.73 315.58 165.91 313.9 166.06V166.07ZM279.85 165.9C278.19 165.75 276.52 165.58 274.86 165.39L274.97 164.4C276.62 164.59 278.28 164.75 279.93 164.9L279.84 165.9H279.85ZM197.32 165.37L197.16 164.38C198.8 164.12 200.46 163.87 202.12 163.64L202.26 164.63C200.61 164.86 198.96 165.11 197.32 165.37ZM266.92 164.37C265.28 164.15 263.63 163.95 261.97 163.76L262.08 162.77C263.75 162.96 265.4 163.16 267.05 163.38L266.92 164.37ZM326.82 164.3L326.64 163.32C328.29 163.01 329.93 162.67 331.52 162.31L331.74 163.28C330.14 163.65 328.49 163.99 326.82 164.3ZM210.17 163.67L210.07 162.68C211.73 162.51 213.39 162.35 215.05 162.21L215.13 163.21C213.47 163.35 211.82 163.51 210.17 163.68V163.67ZM254.01 163.02C252.35 162.89 250.69 162.79 249.03 162.69L249.08 161.69C250.75 161.78 252.42 161.89 254.08 162.02L254 163.02H254.01ZM223.09 162.66L223.04 161.66C224.71 161.57 226.37 161.51 228.05 161.45L228.08 162.45C226.42 162.5 224.75 162.57 223.1 162.66H223.09ZM241.05 162.39C239.39 162.35 237.72 162.34 236.06 162.33V161.33C237.73 161.33 239.4 161.35 241.07 161.39L241.05 162.39ZM339.49 161.19L339.19 160.23C340.8 159.73 342.38 159.19 343.9 158.63L344.25 159.57C342.71 160.14 341.11 160.68 339.49 161.18V161.19ZM351.66 156.44L351.22 155.54C352.73 154.81 354.21 154.04 355.62 153.24L356.11 154.11C354.68 154.92 353.18 155.71 351.65 156.44H351.66ZM362.87 149.72L362.27 148.92C363.61 147.93 364.91 146.88 366.13 145.8L366.79 146.55C365.55 147.64 364.23 148.71 362.87 149.72ZM372.45 140.81L371.69 140.16C372.76 138.9 373.78 137.59 374.71 136.25L375.53 136.82C374.58 138.18 373.54 139.52 372.45 140.81ZM379.64 129.89L378.74 129.45C379.47 127.99 380.14 126.46 380.73 124.93L381.66 125.29C381.05 126.86 380.37 128.41 379.63 129.9L379.64 129.89ZM384.06 117.6L383.09 117.37C383.47 115.79 383.8 114.16 384.06 112.51L385.05 112.67C384.78 114.34 384.45 116 384.06 117.6ZM385.89 104.67L384.89 104.62C384.96 103.24 385 101.83 385 100.43H386C386 101.85 385.96 103.28 385.89 104.68V104.67Z" fill="black"/>
<path d="M361.59 69.3H356.59V68.3H361.59V69.3ZM348.59 69.3H343.59V68.3H348.59V69.3ZM335.59 69.3H330.59V68.3H335.59V69.3ZM322.59 69.3H317.59V68.3H322.59V69.3ZM309.59 69.3H304.59V68.3H309.59V69.3ZM296.59 69.3H291.59V68.3H296.59V69.3ZM283.59 69.3H278.59V68.3H283.59V69.3ZM270.59 69.3H265.59V68.3H270.59V69.3ZM257.59 69.3H252.59V68.3H257.59V69.3ZM244.59 69.3H239.59V68.3H244.59V69.3ZM231.59 69.3H226.59V68.3H231.59V69.3ZM218.59 69.3H213.59V68.3H218.59V69.3ZM205.59 69.3H200.59V68.3H205.59V69.3ZM192.59 69.3H187.59V68.3H192.59V69.3ZM179.59 69.3H174.59V68.3H179.59V69.3ZM166.59 69.3H161.59V68.3H166.59V69.3ZM153.59 69.3H148.59V68.3H153.59V69.3ZM140.59 69.3H135.59V68.3H140.59V69.3ZM127.59 69.3H122.59V68.3H127.59V69.3Z" fill="black"/>
<path d="M314.57 388.14C314.57 388.14 344.75 388.61 354.2 375.93C363.66 363.25 350.27 348.12 350.94 339.78C351.61 331.45 361.24 321.76 360.12 315.8C359 309.84 346.8 304.23 346.73 295C346.66 285.77 351.37 270.39 343.54 258.36C335.71 246.32 324.61 236.81 312.73 235.15C300.85 233.49 276.41 230.94 268.71 247.3C245.6 296.42 230.81 275.56 225.77 288.72C212.24 324.05 246.07 380.34 314.56 388.14H314.57Z" fill="black"/>
<path d="M323.48 395.42C323.48 395.42 323.44 395.42 323.42 395.42C264.57 392.43 224.66 339.63 224.64 322.77C224.64 318.41 227.44 317.79 228.65 317.72C238.17 317.22 250.09 292.08 258.79 273.73C262.27 266.39 265.28 260.06 267.8 255.81C274.84 243.99 290.19 238.62 312.16 240.31C323.58 241.18 335.66 249.11 345.29 262.06C351.96 271.03 351.49 282.21 351.1 291.2C350.98 294.1 350.86 296.85 351.02 299.1C351.36 303.91 355.53 307.61 359.22 310.88C362.15 313.48 364.93 315.94 365.65 318.79C366.53 322.26 364.41 326.67 362.17 331.34C360.16 335.52 358.09 339.85 358.02 343.64C357.97 346.21 359.61 349.74 361.34 353.48C364.93 361.23 369.4 370.88 363.33 380.18C354.43 393.82 324.79 395.37 323.53 395.43C323.51 395.43 323.49 395.43 323.47 395.43L323.48 395.42ZM304.6 242.55C291.46 242.55 276.89 245.52 270 257.11C267.53 261.26 264.55 267.54 261.1 274.82C251.62 294.81 239.82 319.68 228.79 320.26C228.27 320.29 227.19 320.34 227.19 322.76C227.19 330.07 237.15 347.13 253.23 361.95C267.55 375.15 291.37 391.23 323.49 392.88C324.98 392.8 353.2 391.07 361.22 378.79C366.52 370.67 362.55 362.11 359.05 354.55C357.11 350.36 355.44 346.75 355.5 343.59C355.58 339.25 357.77 334.67 359.9 330.24C361.93 326 363.86 321.99 363.2 319.41C362.67 317.31 360.18 315.11 357.55 312.78C353.5 309.19 348.91 305.12 348.5 299.28C348.33 296.88 348.45 294.07 348.58 291.09C348.95 282.51 349.4 271.82 343.27 263.58C334.08 251.23 322.68 243.67 311.99 242.85C309.63 242.67 307.15 242.56 304.61 242.56L304.6 242.55Z" fill="#080717"/>
<path d="M223.56 306C223.06 306 222.59 305.7 222.38 305.21C218.74 296.36 218.33 289.47 221.17 284.75C223.67 280.58 228.67 278.09 236.02 277.35C250.2 275.93 258.22 265.77 258.3 265.67C258.73 265.11 259.53 265.01 260.08 265.44C260.64 265.87 260.74 266.67 260.31 267.22C259.96 267.67 251.58 278.35 236.27 279.88C229.76 280.53 225.42 282.61 223.35 286.06C220.95 290.06 221.42 296.18 224.74 304.25C225.01 304.9 224.7 305.64 224.05 305.91C223.89 305.97 223.73 306.01 223.57 306.01L223.56 306Z" fill="#080717"/>
<path d="M356.97 450.09H156.86L218.47 353.33C228.52 337.55 244.35 328.25 261.17 328.25H286.57C320.21 328.25 351.24 347.59 367.8 378.87L381.61 404.96C392.28 425.12 378.65 450.09 356.97 450.09Z" fill="#96D8E8"/>
<path d="M174.26 276.81L168.03 287.44C163.06 295.92 161.22 305.88 162.84 315.58L164.43 325.14L111.17 416.1H178.49L214.39 329.24L213.63 268.74C213.6 265.95 211.32 263.71 208.54 263.71C206.2 263.71 204.16 265.3 203.6 267.57L199.65 283.37L162.36 248.27C160.12 246.17 156.49 246.81 155.12 249.56C154.31 251.19 154.53 253.15 155.7 254.54L174.26 276.81Z" fill="white"/>
<path d="M178.49 416.1L214.39 329.24L213.63 268.74C213.6 265.95 211.32 263.71 208.54 263.71C206.2 263.71 204.16 265.3 203.6 267.57L199.65 283.37L162.36 248.27C160.12 246.17 156.49 246.81 155.12 249.56C154.31 251.19 154.53 253.15 155.7 254.54L174.26 276.81L168.03 287.44C163.06 295.92 161.22 305.88 162.84 315.58L164.43 325.14L111.17 416.1H178.49Z" fill="white"/>
<path d="M178.49 417.37C178.33 417.37 178.16 417.34 178 417.27C177.35 417 177.04 416.26 177.31 415.61L213.11 328.99L212.36 268.75C212.33 266.67 210.62 264.97 208.54 264.97C206.78 264.97 205.26 266.16 204.83 267.87L200.88 283.67C200.77 284.11 200.44 284.46 200 284.58C199.56 284.7 199.1 284.6 198.77 284.29L161.48 249.19C160.71 248.46 159.67 248.16 158.63 248.34C157.59 248.53 156.72 249.17 156.25 250.12C155.66 251.3 155.83 252.71 156.67 253.72L175.23 275.99C175.57 276.4 175.62 276.99 175.35 277.45L169.12 288.08C164.31 296.29 162.52 305.98 164.08 315.37L165.67 324.93C165.72 325.22 165.67 325.53 165.51 325.78L112.25 416.74C111.89 417.35 111.11 417.55 110.51 417.2C109.9 416.84 109.7 416.07 110.05 415.46L163.07 324.9L161.55 315.79C159.89 305.82 161.79 295.52 166.9 286.8L172.68 276.95L154.69 255.37C153.2 253.58 152.91 251.08 153.95 249C154.79 247.33 156.32 246.18 158.16 245.85C160 245.52 161.84 246.07 163.2 247.35L198.91 280.96L202.33 267.27C203.04 264.43 205.58 262.45 208.51 262.45C211.98 262.45 214.83 265.27 214.88 268.74L215.64 329.24C215.64 329.41 215.61 329.58 215.54 329.74L179.64 416.6C179.44 417.09 178.96 417.39 178.46 417.39L178.49 417.37Z" fill="#080717"/>
<path d="M191.47 295.62C190.84 295.62 190.29 295.15 190.21 294.51C190.12 293.81 190.62 293.18 191.31 293.09C194.09 292.74 194.92 289.75 195.16 288.26L173.7 277.96C173.07 277.66 172.8 276.9 173.1 276.26C173.4 275.63 174.16 275.36 174.8 275.66L197.08 286.35C197.54 286.57 197.82 287.05 197.8 287.56C197.68 290.09 196.23 295.03 191.63 295.61C191.58 295.61 191.52 295.61 191.47 295.61V295.62Z" fill="#080717"/>
<path d="M190.96 305.23C190.58 305.23 190.19 305.2 189.8 305.14C189.11 305.04 188.63 304.39 188.73 303.69C188.84 303 189.47 302.53 190.18 302.62C191.37 302.8 192.36 302.58 193.18 301.96C194.5 300.96 195.13 299.15 195.39 298.07L168.92 285.99C168.28 285.7 168 284.94 168.29 284.3C168.58 283.66 169.34 283.38 169.98 283.67L197.37 296.17C197.87 296.4 198.17 296.93 198.11 297.48C198.09 297.66 197.56 301.83 194.74 303.98C193.65 304.81 192.39 305.23 190.97 305.23H190.96Z" fill="#080717"/>
<path d="M176.59 315.27C176.49 315.27 176.39 315.26 176.3 315.24C175.62 315.08 175.19 314.39 175.35 313.71C176.32 309.59 173.31 307.4 173.18 307.3C172.65 306.92 172.49 306.2 172.81 305.63C173.13 305.06 173.83 304.83 174.42 305.09C178.16 306.73 184.29 308.64 186.18 307.78C187.83 307.03 188.13 305.4 188.16 304.46L167.19 296.13C166.54 295.87 166.22 295.13 166.48 294.48C166.74 293.83 167.48 293.51 168.13 293.77L189.86 302.4C190.28 302.57 190.58 302.94 190.65 303.39C190.91 305.06 190.52 308.61 187.24 310.1C184.97 311.13 180.76 310.1 177.52 309.01C178.07 310.4 178.33 312.17 177.83 314.29C177.69 314.88 177.17 315.27 176.59 315.27Z" fill="#080717"/>
<path d="M152.33 439.68H274.9C278.71 439.68 281.8 442.77 281.8 446.58V449.89H152.33V439.68Z" fill="black"/>
<path d="M202.57 449.89H84.84L58.97 371.7C56.47 364.15 62.1 356.36 70.05 356.36H163.18C168.21 356.36 172.68 359.59 174.26 364.37L202.55 449.89H202.57Z" fill="black"/>
<path d="M131.2 404.95C131.2 409.53 127.49 413.24 122.91 413.24C118.33 413.24 114.62 409.53 114.62 404.95C114.62 400.37 118.33 396.66 122.91 396.66C127.49 396.66 131.2 400.37 131.2 404.95Z" fill="white"/>
<path d="M122.91 414.52C117.64 414.52 113.35 410.23 113.35 404.96C113.35 399.69 117.64 395.4 122.91 395.4C128.18 395.4 132.47 399.69 132.47 404.96C132.47 410.23 128.18 414.52 122.91 414.52ZM122.91 397.94C119.04 397.94 115.89 401.09 115.89 404.96C115.89 408.83 119.04 411.98 122.91 411.98C126.78 411.98 129.93 408.83 129.93 404.96C129.93 401.09 126.78 397.94 122.91 397.94Z" fill="black"/>
<path d="M285.94 354.18L286.48 354.28C295.98 356.07 305.3 350.36 308.01 341.07L320.45 298.38L282.8 291.27L271.38 330.44C268.27 341.09 275.03 352.11 285.94 354.16V354.18Z" fill="white"/>
<path d="M312.68 248.54L312.6 248.89C308.96 264.72 311.82 281.35 320.55 295.06L300.65 313.05L277.03 302.77C273.48 301.22 270.35 298.84 267.92 295.83C259.62 285.57 261.14 270.54 271.31 262.13L285.19 250.67C292.99 244.23 303.99 243.38 312.68 248.54Z" fill="white"/>
<path d="M330.62 297.84C327.37 302.34 321.09 303.36 316.59 300.11C312.09 296.86 311.07 290.58 314.32 286.08C317.57 281.58 323.85 280.56 328.35 283.81C332.85 287.06 333.87 293.34 330.62 297.84Z" fill="white"/>
<path d="M319.44 292.3C319.07 292.3 318.7 292.14 318.44 291.82C318 291.27 318.09 290.47 318.64 290.03C318.86 289.85 324.06 285.76 328.28 287.85C328.91 288.16 329.17 288.92 328.85 289.55C328.54 290.18 327.77 290.44 327.15 290.12C324.86 288.98 321.38 291.1 320.23 292.01C320 292.2 319.72 292.29 319.44 292.29V292.3Z" fill="#080717"/>
<path d="M286.98 294.96C286.42 294.96 285.84 294.88 285.26 294.71C279.36 293 279.47 282.57 279.48 282.13C279.48 281.72 279.7 281.33 280.04 281.1C280.38 280.87 280.82 280.82 281.21 280.97L295.49 286.5C295.84 286.64 296.11 286.92 296.23 287.27C296.35 287.63 296.31 288.02 296.12 288.34C295.94 288.64 292.06 294.97 286.98 294.97V294.96ZM282.09 284.03C282.33 287.03 283.27 291.48 285.96 292.27C288.8 293.09 291.64 290.08 293.04 288.27L282.08 284.03H282.09Z" fill="#080717"/>
<path d="M283.12 260.12C283.26 259.38 282.71 258.69 282 258.56C281.04 258.38 279.99 258.66 279.23 259.26C279.16 259.31 279.12 259.37 279.06 259.43C278.79 259.51 278.54 259.64 278.33 259.83C278.02 260.11 277.74 260.42 277.61 260.83C277.44 261.32 277.39 261.83 277.57 262.33C277.77 262.87 278.17 263.25 278.65 263.52C279.04 263.74 279.5 263.8 279.94 263.79C280.78 263.79 281.59 263.33 282.12 262.7C282.72 261.97 282.96 261.03 283.13 260.12H283.12Z" fill="black"/>
<path d="M299.69 270.02C299.65 269.59 299.39 269.23 299.03 269.01C298.88 268.9 298.72 268.84 298.53 268.82C298.29 268.79 298.07 268.82 297.84 268.9C297.06 269.09 296.33 269.63 295.84 270.25C295.64 270.51 295.47 270.8 295.33 271.1C295.24 271.24 295.16 271.39 295.1 271.54C294.84 272.12 294.73 272.84 294.87 273.47C294.9 273.71 294.98 273.92 295.12 274.12C295.23 274.28 295.36 274.4 295.53 274.48C295.91 274.71 296.3 274.73 296.71 274.6C298.61 274 299.85 271.98 299.68 270.02H299.69Z" fill="black"/>
<path d="M282.01 273.7C281.43 273.7 280.91 273.31 280.77 272.72C280.61 272.04 281.03 271.35 281.71 271.19C281.71 271.19 285.14 270.11 287.9 262.4C288.14 261.74 288.87 261.39 289.53 261.63C290.19 261.87 290.54 262.59 290.3 263.26C287.07 272.29 282.78 273.55 282.31 273.67C282.21 273.69 282.11 273.7 282.01 273.7Z" fill="#080717"/>
<path d="M275.44 270.12C273.01 270.12 270.62 269.41 268.54 268.05C265.72 266.2 263.79 263.37 263.11 260.07C262.43 256.77 263.07 253.4 264.92 250.58C266.77 247.76 269.6 245.83 272.9 245.15C276.19 244.46 279.57 245.1 282.39 246.96C285.21 248.81 287.14 251.64 287.82 254.94C288.5 258.24 287.86 261.61 286.01 264.43C284.16 267.25 281.33 269.18 278.03 269.86C277.17 270.04 276.3 270.13 275.44 270.13V270.12ZM275.48 247.43C272.2 247.43 268.97 249.03 267.04 251.97C263.99 256.61 265.29 262.87 269.93 265.92C274.58 268.97 280.83 267.67 283.88 263.03C286.93 258.39 285.63 252.13 280.99 249.08C279.29 247.96 277.37 247.43 275.48 247.43Z" fill="#FF6700"/>
<path d="M302.2 284.08C299.83 284.08 297.43 283.41 295.3 282.02C289.48 278.2 287.86 270.37 291.67 264.55C295.49 258.73 303.33 257.11 309.14 260.92C314.96 264.74 316.58 272.57 312.77 278.39C310.35 282.08 306.31 284.08 302.2 284.08ZM302.23 261.4C298.95 261.4 295.72 263 293.79 265.94C290.74 270.58 292.04 276.84 296.68 279.89C301.32 282.94 307.58 281.64 310.63 277C313.68 272.36 312.38 266.1 307.74 263.05C306.04 261.93 304.12 261.4 302.23 261.4Z" fill="#FF6700"/>
<path d="M286.44 307.07C284.18 307.07 281.75 306.86 279.21 306.34C278.52 306.2 278.08 305.53 278.22 304.84C278.36 304.15 279.03 303.71 279.72 303.85C291.03 306.17 300.37 301.69 300.46 301.64C301.09 301.33 301.85 301.59 302.16 302.22C302.47 302.85 302.21 303.61 301.58 303.92C301.25 304.08 295.04 307.06 286.44 307.06V307.07Z" fill="#080717"/>
<path d="M278.7 411.17L330.31 401.02L342.67 416.79C350 426.14 350.81 439.05 344.69 449.24H287.99C276.03 449.24 260.41 439.23 263.47 427.67L278.7 411.17Z" fill="white"/>
<path d="M344.7 450.51H288C279.62 450.51 270.01 445.94 265.16 439.64C262.16 435.74 261.15 431.49 262.25 427.34C262.3 427.14 262.4 426.95 262.54 426.8L277.77 410.3C277.95 410.1 278.19 409.97 278.46 409.91L330.07 399.76C330.54 399.67 331.02 399.85 331.32 400.22L343.68 415.99C351.28 425.69 352.13 439.31 345.79 449.88C345.56 450.26 345.15 450.5 344.7 450.5V450.51ZM264.63 428.29C263.67 432.4 265.47 435.88 267.17 438.09C271.51 443.72 280.46 447.97 288 447.97H343.97C349.38 438.39 348.49 426.26 341.68 417.57L329.8 402.41L279.36 412.33L264.63 428.29Z" fill="#080717"/>
<path d="M261.44 437.89L266.21 435.25C266.21 435.25 276.08 448.02 288.97 439.01C292.12 436.81 292.28 416.33 286.23 409.33C274.38 395.61 252.36 378.45 239.52 387.01C226.67 395.56 209.63 412.27 209.63 412.27C209.63 412.27 216.71 421.6 223.43 416.42C232.84 409.16 244.43 403.9 244.43 403.9L224.07 432.71C224.07 432.71 228.27 437.51 233.86 439.3C239.45 441.09 247.06 446.25 261.43 437.9L261.44 437.89Z" fill="white"/>
<path d="M218.75 419.35C213.24 419.35 208.46 414.22 208.21 413.95C207.77 413.47 207.76 412.72 208.21 412.24C208.89 411.49 225.01 393.82 238.89 385.91C245.56 382.11 260.71 379.99 287.17 408.47C287.65 408.99 287.62 409.79 287.1 410.27C286.59 410.75 285.78 410.72 285.3 410.2C276.57 400.8 254.69 379.83 240.15 388.12C228.38 394.83 214.45 409.29 210.93 413.04C212.83 414.75 217.58 418.37 221.74 416C224.04 414.69 226.84 412.69 229.82 410.56C235.66 406.39 241.7 402.07 245.65 401.78C246.35 401.74 246.96 402.25 247.01 402.95C247.06 403.65 246.54 404.26 245.84 404.31C242.6 404.55 236.6 408.84 231.3 412.63C228.27 414.79 225.41 416.84 223 418.21C221.58 419.02 220.15 419.34 218.76 419.34L218.75 419.35Z" fill="#080717"/>
<path d="M230.86 439.07C226.77 439.07 223.76 435.25 222.58 432.8C222.37 432.37 222.43 431.85 222.72 431.47L251.69 394.21C252.12 393.66 252.92 393.56 253.48 393.99C254.03 394.42 254.13 395.22 253.7 395.78L225.24 432.38C226.19 433.99 228.92 437.77 232.74 436.12C233.38 435.84 234.13 436.14 234.41 436.78C234.69 437.43 234.39 438.17 233.75 438.45C232.74 438.89 231.77 439.08 230.86 439.08V439.07Z" fill="#080717"/>
<path d="M240.34 443.76C236.05 443.76 231.7 440.66 231.46 440.48C231.17 440.27 230.98 439.95 230.94 439.6C230.9 439.25 231.01 438.89 231.24 438.62L262.63 402.08C263.09 401.55 263.89 401.49 264.42 401.94C264.95 402.4 265.01 403.2 264.56 403.73L234.12 439.17C236.46 440.54 240.57 442.23 243.03 440.39C247.28 437.22 271.52 412.51 271.76 412.26C272.25 411.76 273.06 411.75 273.56 412.24C274.06 412.73 274.07 413.54 273.58 414.04C272.58 415.06 248.95 439.14 244.55 442.43C243.26 443.39 241.8 443.76 240.33 443.76H240.34Z" fill="#080717"/>
<path d="M249.52 443.93C247.43 443.93 245.44 443.44 243.63 442.3C243.03 441.93 242.86 441.14 243.23 440.55C243.6 439.96 244.39 439.78 244.98 440.15C250.7 443.75 259.3 438.85 265.5 434.11C272.48 428.77 278.06 422.4 278.12 422.34C278.58 421.81 279.39 421.76 279.92 422.22C280.45 422.68 280.5 423.49 280.04 424.02C279.22 424.96 262.5 443.95 249.52 443.95V443.93Z" fill="#080717"/>
<path d="M291.52 431.49C291.52 431.49 291.43 431.49 291.38 431.49C290.68 431.41 290.18 430.78 290.25 430.09C291.2 421.46 289.54 414.77 285.31 410.21C276.58 400.81 254.7 379.84 240.16 388.13C239.55 388.48 238.77 388.26 238.42 387.65C238.07 387.04 238.29 386.26 238.9 385.91C245.57 382.11 260.72 379.99 287.18 408.47C291.94 413.6 293.83 420.96 292.79 430.36C292.72 431.01 292.17 431.49 291.53 431.49H291.52Z" fill="#080717"/>
<path d="M330.31 402.28C329.69 402.28 329.15 401.83 329.05 401.2C328.94 400.51 329.42 399.86 330.12 399.75L344.08 397.64C344.77 397.53 345.42 398.01 345.53 398.71C345.64 399.4 345.16 400.05 344.46 400.16L330.5 402.27C330.44 402.27 330.37 402.28 330.31 402.28Z" fill="#080717"/>
<path d="M280.25 360.91C298.26 367.03 317.21 359.23 322.56 343.48C323.33 341.21 323.77 338.9 323.92 336.59C312.33 331.18 299.65 328.24 286.57 328.24H261.17C259.42 328.24 257.68 328.36 255.95 328.56C255.28 342.16 264.97 355.71 280.25 360.9V360.91Z" fill="white"/>
<path d="M384.58 111.62C412.78 111.62 435.64 88.7597 435.64 60.56C435.64 32.3604 412.78 9.50003 384.58 9.50003C356.38 9.50003 333.52 32.3604 333.52 60.56C333.52 88.7597 356.38 111.62 384.58 111.62Z" fill="white"/>
<path d="M384.58 10C412.46 10 435.14 32.68 435.14 60.56C435.14 88.44 412.46 111.12 384.58 111.12C356.7 111.12 334.02 88.44 334.02 60.56C334.02 32.68 356.7 10 384.58 10ZM384.58 9.00003C356.1 9.00003 333.02 32.08 333.02 60.56C333.02 89.04 356.1 112.12 384.58 112.12C413.06 112.12 436.14 89.04 436.14 60.56C436.14 32.08 413.06 9.00003 384.58 9.00003Z" fill="black"/>
<path fill-rule="evenodd" clip-rule="evenodd" d="M406.12 84.13L402.27 74.03L388.2 77.63C387.88 78.21 387.57 78.8 387.25 79.39C386.72 80.38 385.7 81 384.57 81C383.44 81 382.42 80.39 381.89 79.39C381.87 79.35 381.84 79.31 381.82 79.26L379.77 79.78L384.23 87.95H403.02C405.95 88.04 407.17 87.28 406.12 84.12V84.13Z" fill="black"/>
<path fill-rule="evenodd" clip-rule="evenodd" d="M375.87 80.79L363.06 84.07L363.04 84.13C361.99 87.29 363.2 88.05 366.14 87.96H379.79L375.88 80.79H375.87Z" fill="#FF6700"/>
<path fill-rule="evenodd" clip-rule="evenodd" d="M376.25 69.48C376.05 69.15 375.84 68.82 375.63 68.49H372.15C368.86 68.49 369.18 68.17 368.01 71.07L364.77 79.58L379.9 75.71C378.73 73.61 377.52 71.53 376.25 69.48Z" fill="black"/>
<path fill-rule="evenodd" clip-rule="evenodd" d="M397.02 68.5H393.54C393.33 68.83 393.13 69.15 392.92 69.48C392.22 70.61 391.53 71.76 390.86 72.91L400.86 70.35C400.01 68.24 399.99 68.5 397.01 68.5H397.02Z" fill="black"/>
<path fill-rule="evenodd" clip-rule="evenodd" d="M384.58 33.16C376.12 33.16 369.26 40.02 369.26 48.48C369.26 52.55 371.32 55.99 373.62 59.19C375.52 61.83 377.34 64.52 379.06 67.28C380.87 70.2 382.55 73.2 384.17 76.23C384.25 76.39 384.41 76.48 384.59 76.48C384.77 76.48 384.92 76.39 385.01 76.23C386.63 73.19 388.31 70.2 390.12 67.27C391.84 64.5 393.67 61.82 395.57 59.17C397.86 55.97 399.92 52.54 399.92 48.48C399.92 40.02 393.06 33.16 384.6 33.16H384.58ZM384.58 54C381.03 54 378.15 51.12 378.15 47.57C378.15 44.02 381.03 41.14 384.58 41.14C388.13 41.14 391.01 44.02 391.01 47.57C391.01 51.12 388.13 54 384.58 54Z" fill="white" stroke="black" stroke-width="3" stroke-miterlimit="10"/>
<path d="M111.662 96.6649C131.602 76.7247 131.602 44.3953 111.662 24.4552C91.7216 4.51499 59.3921 4.51499 39.452 24.4552C19.5118 44.3953 19.5118 76.7247 39.452 96.6649C59.3921 116.605 91.7216 116.605 111.662 96.6649Z" fill="white"/>
<path d="M75.56 10C103.44 10 126.12 32.68 126.12 60.56C126.12 88.44 103.44 111.12 75.56 111.12C47.68 111.12 25 88.44 25 60.56C25 32.68 47.68 10 75.56 10ZM75.56 9.00003C47.08 9.00003 24 32.08 24 60.56C24 89.04 47.08 112.12 75.56 112.12C104.04 112.12 127.12 89.04 127.12 60.56C127.12 32.08 104.04 9.00003 75.56 9.00003Z" fill="black"/>
<path fill-rule="evenodd" clip-rule="evenodd" d="M51.65 39.19H98.92C100.01 39.19 100.89 40.08 100.89 41.16V68.51H49.68V41.16C49.68 40.07 50.57 39.19 51.65 39.19Z" fill="black"/>
<path fill-rule="evenodd" clip-rule="evenodd" d="M51.93 41.16H98.92V66.72H51.93V41.16Z" fill="white"/>
<path fill-rule="evenodd" clip-rule="evenodd" d="M75.42 39.57C75.74 39.57 76 39.83 76 40.15C76 40.47 75.74 40.73 75.42 40.73C75.1 40.73 74.84 40.47 74.84 40.15C74.84 39.83 75.1 39.57 75.42 39.57Z" fill="white"/>
<path fill-rule="evenodd" clip-rule="evenodd" d="M49.5 70.44H101.41L109.76 79.3C109.76 80.75 108.57 81.94 107.12 81.94H44.01C42.56 81.94 41.37 80.75 41.37 79.3L49.5 70.44Z" fill="black"/>
<path fill-rule="evenodd" clip-rule="evenodd" d="M70.19 75.54H80.15L81.75 77.43C81.75 77.74 81.52 77.99 81.24 77.99H69.13C68.85 77.99 68.62 77.74 68.62 77.43L70.18 75.54H70.19Z" fill="white"/>
<path d="M109.59 79.25H41.55V79.6H109.59V79.25Z" fill="white"/>
<path d="M75.58 46.91C71.83 46.91 68.79 49.97 68.79 53.75C68.79 57.53 71.83 60.59 75.58 60.59C79.33 60.59 82.37 57.53 82.37 53.75C82.37 49.97 79.33 46.91 75.58 46.91ZM73.62 56.8V50.71L78.86 53.76L73.62 56.81V56.8Z" fill="#FF6700"/>
<path d="M230.07 111.62C201.92 111.62 179.01 88.71 179.01 60.56C179.01 32.41 201.92 9.50003 230.07 9.50003C258.22 9.50003 281.13 32.41 281.13 60.56C281.13 88.71 258.22 111.62 230.07 111.62Z" fill="white"/>
<path d="M230.07 10C257.95 10 280.63 32.68 280.63 60.56C280.63 88.44 257.95 111.12 230.07 111.12C202.19 111.12 179.51 88.44 179.51 60.56C179.51 32.68 202.19 10 230.07 10ZM230.07 9.00003C201.59 9.00003 178.51 32.08 178.51 60.56C178.51 89.04 201.59 112.12 230.07 112.12C258.55 112.12 281.63 89.04 281.63 60.56C281.63 32.08 258.55 9.00003 230.07 9.00003Z" fill="black"/>
<path d="M224.41 32.79H220.75V48.33H224.41V32.79Z" fill="white"/>
<path d="M224.42 48.66H220.43V32.47H224.75V48.66H224.42ZM221.08 48.01H224.09V33.12H221.08V48.01Z" fill="black"/>
<path d="M224.42 31.64H217.09V32.8H224.42V31.64Z" fill="white"/>
<path d="M217.09 31.31H224.74V33.12H216.76V31.31H217.09ZM224.09 31.96H217.41V32.47H224.09V31.96Z" fill="black"/>
<path d="M220.75 32.79H217.09V48.33H220.75V32.79Z" fill="white"/>
<path d="M217.41 48.01H220.42V33.12H217.41V48.01ZM220.75 48.66H216.76V32.47H221.08V48.66H220.75Z" fill="black"/>
<path d="M225.86 48.33H215.65V49.49H225.86V48.33Z" fill="white"/>
<path d="M215.65 48.01H226.19V49.82H215.33V48.01H215.66H215.65ZM225.54 48.66H215.98V49.17H225.54V48.66Z" fill="black"/>
<path d="M220.11 49.49H218.92V53.59H220.11V49.49Z" fill="white"/>
<path d="M219.78 49.82H219.24V53.27H219.78V49.82ZM218.91 49.17H220.43V53.92H218.59V49.17H218.92H218.91Z" fill="black"/>
<path d="M218.92 49.49H217.73V53.59H218.92V49.49Z" fill="white"/>
<path d="M217.73 49.16H219.25V53.91H217.41V49.16H217.74H217.73ZM218.6 49.81H218.06V53.26H218.6V49.81Z" fill="black"/>
<path d="M223.47 49.49H222.58V53.59H223.47V49.49Z" fill="white"/>
<path d="M223.15 49.82H222.91V53.27H223.15V49.82ZM222.58 49.17H223.8V53.92H222.26V49.17H222.59H222.58Z" fill="black"/>
<path d="M222.58 49.49H221.69V53.59H222.58V49.49Z" fill="white"/>
<path d="M221.69 49.16H222.91V53.91H221.37V49.16H221.7H221.69ZM222.26 49.81H222.02V53.26H222.26V49.81Z" fill="black"/>
<path d="M230.26 61.06H214.28V62.22H230.26V61.06Z" fill="white"/>
<path d="M214.28 60.74H230.58V62.55H213.95V60.74H214.28ZM229.93 61.39H214.6V61.9H229.93V61.39Z" fill="black"/>
<path d="M230.26 62.22H228.36V70.83H230.26V62.22Z" fill="white"/>
<path d="M230.26 71.15H228.03V61.89H230.58V71.15H230.25H230.26ZM228.68 70.5H229.93V62.55H228.68V70.5Z" fill="black"/>
<path d="M226.32 37.01H224.42V47.02H226.32V37.01Z" fill="white"/>
<path d="M224.74 46.69H225.99V37.33H224.74V46.69ZM226.32 47.34H224.09V36.68H226.64V47.34H226.31H226.32Z" fill="black"/>
<path fill-rule="evenodd" clip-rule="evenodd" d="M226.32 47.02L232.03 47.16C235.79 47.16 238.41 49.56 238.63 54.91C238.63 58.15 238.4 62.22 233.79 62.22H230.26V70.83H236.43C242.46 70.83 246.56 62.72 246.63 56.88C246.67 53.59 246.95 49.9 245.82 46.43C243.95 40.7 240.73 37.7 235.79 37.14C232.84 36.81 229.33 37.01 226.32 37.01V47.02Z" fill="white"/>
<path d="M226.64 46.7L232.03 46.83C234.07 46.83 235.8 47.51 237.02 48.95C238.15 50.28 238.84 52.24 238.95 54.89C238.95 56.55 238.89 58.42 238.23 59.9C237.55 61.44 236.25 62.54 233.79 62.54H230.59V70.49H236.44C239.07 70.49 241.34 68.86 243.03 66.54C245.07 63.74 246.28 59.97 246.31 56.86C246.31 56.37 246.33 55.88 246.34 55.38C246.4 52.51 246.47 49.42 245.52 46.51C244.6 43.7 243.36 41.56 241.75 40.06C240.15 38.57 238.17 37.71 235.77 37.44C233.62 37.2 231.17 37.24 228.84 37.28C228.08 37.29 227.32 37.31 226.66 37.31V46.68L226.64 46.7ZM232.02 47.48L225.99 47.33V36.68H226.32C227.19 36.68 227.99 36.67 228.81 36.65C231.17 36.61 233.64 36.57 235.82 36.81C238.36 37.1 240.46 38.01 242.17 39.6C243.87 41.17 245.17 43.4 246.12 46.32C247.1 49.33 247.03 52.48 246.97 55.4C246.96 55.9 246.95 56.39 246.94 56.87C246.9 60.11 245.65 64.02 243.53 66.93C241.72 69.4 239.29 71.15 236.42 71.15H229.92V61.89H233.77C235.92 61.89 237.04 60.95 237.62 59.64C238.23 58.28 238.28 56.5 238.28 54.92C238.18 52.42 237.54 50.59 236.51 49.37C235.42 48.09 233.86 47.48 232.01 47.48H232.02Z" fill="black"/>
<path d="M232.02 47.48L225.99 47.33V36.68H226.32C227.19 36.68 227.99 36.67 228.81 36.65C231.17 36.61 233.64 36.57 235.82 36.81C238.36 37.1 240.46 38.01 242.17 39.6C243.87 41.17 245.17 43.4 246.12 46.32C247.1 49.33 247.03 52.48 246.97 55.4C246.96 55.9 246.95 56.39 246.94 56.87C246.9 60.11 245.65 64.02 243.53 66.93C241.72 69.4 239.29 71.15 236.42 71.15H229.92V61.89H233.77C235.92 61.89 237.04 60.95 237.62 59.64C238.23 58.28 238.28 56.5 238.28 54.92C238.18 52.42 237.54 50.59 236.51 49.37C235.42 48.09 233.86 47.48 232.01 47.48H232.02Z" fill="black"/>
<path fill-rule="evenodd" clip-rule="evenodd" d="M220.9 66.85C223.81 66.85 226.17 67.55 226.17 68.42V69.43C226.17 70.3 223.81 71 220.9 71C217.99 71 215.63 70.3 215.63 69.43V68.42C215.63 67.55 217.99 66.85 220.9 66.85Z" fill="white"/>
<path d="M220.9 66.53C222.39 66.53 223.74 66.71 224.72 67C225.82 67.33 226.49 67.83 226.49 68.42V69.43C226.49 70.02 225.81 70.52 224.72 70.85C223.74 71.14 222.39 71.32 220.9 71.32C219.41 71.32 218.06 71.14 217.08 70.85C215.98 70.52 215.31 70.02 215.31 69.43V68.42C215.31 67.83 215.99 67.33 217.08 67C218.06 66.71 219.41 66.53 220.9 66.53ZM224.53 67.63C223.6 67.35 222.32 67.18 220.9 67.18C219.48 67.18 218.19 67.35 217.27 67.63C216.46 67.87 215.96 68.16 215.96 68.43V69.44C215.96 69.71 216.46 70 217.27 70.24C218.2 70.52 219.48 70.69 220.9 70.69C222.32 70.69 223.6 70.52 224.53 70.24C225.34 70 225.84 69.71 225.84 69.44V68.43C225.84 68.16 225.34 67.87 224.53 67.63Z" fill="black"/>
<path fill-rule="evenodd" clip-rule="evenodd" d="M220.9 67.77C223.25 67.77 225.16 68.17 225.16 68.66C225.16 69.15 223.25 69.55 220.9 69.55C218.55 69.55 216.64 69.15 216.64 68.66C216.64 68.17 218.55 67.77 220.9 67.77Z" fill="white"/>
<path d="M220.9 67.44C222.09 67.44 223.18 67.54 223.98 67.71C224.91 67.9 225.49 68.24 225.49 68.66C225.49 69.08 224.91 69.41 223.98 69.61C223.19 69.78 222.1 69.88 220.9 69.88C219.7 69.88 218.61 69.78 217.82 69.61C216.89 69.41 216.31 69.08 216.31 68.66C216.31 68.24 216.89 67.91 217.82 67.71C218.61 67.54 219.7 67.44 220.9 67.44ZM223.84 68.34C223.09 68.18 222.05 68.09 220.9 68.09C219.75 68.09 218.71 68.19 217.96 68.34C217.35 68.47 216.97 68.58 216.97 68.65C216.97 68.72 217.35 68.83 217.96 68.96C218.71 69.12 219.75 69.22 220.9 69.22C222.06 69.22 223.1 69.12 223.84 68.96C224.45 68.83 224.83 68.72 224.83 68.65C224.83 68.58 224.45 68.47 223.84 68.34Z" fill="black"/>
<path d="M228.36 68.37H225.88V69.47H228.36V68.37Z" fill="white"/>
<path d="M225.88 68.04H228.68V69.79H225.55V68.04H225.88ZM228.03 68.69H226.2V69.14H228.03V68.69Z" fill="black"/>
<path d="M228.35 67.77H227.51V70.06H228.35V67.77Z" fill="white"/>
<path d="M228.68 67.77V70.38H227.19V67.44H228.68V67.77ZM228.03 69.73V68.09H227.84V69.73H228.03Z" fill="black"/>
<path d="M222.58 24.64H218.92V31.64H222.58V24.64Z" fill="white"/>
<path d="M222.58 31.96H218.59V24.31H222.91V31.96H222.58ZM219.24 31.31H222.25V24.96H219.24V31.31Z" fill="black"/>
<path fill-rule="evenodd" clip-rule="evenodd" d="M224.72 62.22C227.4 62.53 228.07 65.17 228.32 67.09C228.33 67.19 228.34 67.36 228.35 67.37V62.22H224.71H224.72Z" fill="white"/>
<path d="M226.53 62.55C227.03 62.9 227.42 63.37 227.72 63.9C227.84 64.11 227.94 64.32 228.03 64.55V62.56H226.53V62.55ZM227.15 64.22C226.66 63.36 225.9 62.69 224.68 62.55L219.07 61.9H228.67V67.97L228.17 67.65C228.02 67.56 228.01 67.4 228 67.24C228 67.19 228 67.14 228 67.14C227.88 66.21 227.66 65.11 227.15 64.22Z" fill="black"/>
<path d="M218.92 53.02H220.44V53.92H218.59V53.02H218.92Z" fill="black"/>
<path d="M217.73 53.02H219.24V53.92H217.4V53.02H217.73Z" fill="black"/>
<path d="M222.58 53.02H223.8V53.92H222.26V53.02H222.58Z" fill="black"/>
<path d="M221.69 53.02H222.91V53.92H221.36V53.02H221.69Z" fill="black"/>
<path d="M223.15 62.22H218.66V63.92H223.15V62.22Z" fill="white"/>
<path d="M218.98 63.6H222.82V62.55H218.98V63.6ZM223.15 64.25H218.33V61.9H223.47V64.25H223.14H223.15Z" fill="black"/>
<path d="M218.27 63.6H223.86V64.26H217.95V63.6H218.28H218.27Z" fill="black"/>
<path fill-rule="evenodd" clip-rule="evenodd" d="M225.01 34.61C227.01 34.61 228.63 36.23 228.63 38.23C228.63 40.23 227.01 41.85 225.01 41.85C223.01 41.85 221.39 40.23 221.39 38.23C221.39 36.23 223.01 34.61 225.01 34.61Z" fill="white"/>
<path fill-rule="evenodd" clip-rule="evenodd" d="M225.01 36.01C226.23 36.01 227.22 37 227.22 38.22C227.22 39.44 226.23 40.43 225.01 40.43C223.79 40.43 222.79 39.44 222.79 38.22C222.79 37 223.78 36.01 225.01 36.01Z" fill="white"/>
<path fill-rule="evenodd" clip-rule="evenodd" d="M225.01 37.45C225.44 37.45 225.79 37.8 225.79 38.23C225.79 38.66 225.44 39.01 225.01 39.01C224.58 39.01 224.23 38.66 224.23 38.23C224.23 37.8 224.58 37.45 225.01 37.45Z" fill="white"/>
<path fill-rule="evenodd" clip-rule="evenodd" d="M210.53 81.12H249.55C250.16 81.12 250.65 81.62 250.65 82.22V87.95H209.43V82.22C209.43 81.61 209.93 81.12 210.53 81.12Z" fill="white"/>
<path d="M210.53 80.79H249.55C249.94 80.79 250.3 80.95 250.56 81.21C250.82 81.47 250.98 81.83 250.98 82.22V88.28H209.11V82.22C209.11 81.83 209.27 81.47 209.53 81.21C209.79 80.95 210.15 80.79 210.54 80.79H210.53ZM249.55 81.44H210.53C210.32 81.44 210.12 81.53 209.98 81.67C209.84 81.81 209.75 82.01 209.75 82.22V87.63H250.32V82.22C250.32 82.01 250.23 81.81 250.09 81.67C249.95 81.53 249.75 81.44 249.54 81.44H249.55Z" fill="black"/>
<path d="M251.47 87.95H208.6V90.15H251.47V87.95Z" fill="white"/>
<path fill-rule="evenodd" clip-rule="evenodd" d="M238.42 66.14L246.32 81.12H231.8V66.46C231.8 64.69 233.23 63.26 235 63.26C236.24 63.26 237.32 63.97 237.85 65C238.04 65.38 238.22 65.75 238.42 66.14Z" fill="white"/>
<path d="M238.71 65.99L246.86 81.44H231.48V66.46C231.48 65.49 231.87 64.61 232.51 63.97C233.15 63.33 234.03 62.94 235 62.94C235.67 62.94 236.3 63.13 236.83 63.46C237.38 63.8 237.83 64.28 238.13 64.86C238.23 65.06 238.3 65.19 238.37 65.33C238.48 65.55 238.59 65.77 238.7 65.99H238.71ZM245.79 80.79L238.14 66.29C238.02 66.06 237.91 65.84 237.8 65.61C237.71 65.44 237.63 65.26 237.57 65.15C237.33 64.68 236.96 64.28 236.51 64.01C236.07 63.74 235.56 63.59 235.01 63.59C234.22 63.59 233.5 63.91 232.98 64.43C232.46 64.95 232.14 65.67 232.14 66.46V80.79H245.8H245.79Z" fill="black"/>
<path fill-rule="evenodd" clip-rule="evenodd" d="M235 68.9C236.35 68.9 237.45 67.8 237.45 66.45C237.45 65.1 236.35 64 235 64C233.65 64 232.55 65.1 232.55 66.45C232.55 67.8 233.65 68.9 235 68.9Z" fill="white"/>
<path fill-rule="evenodd" clip-rule="evenodd" d="M235 67.91C235.8 67.91 236.45 67.26 236.45 66.46C236.45 65.66 235.8 65.01 235 65.01C234.2 65.01 233.55 65.66 233.55 66.46C233.55 67.26 234.2 67.91 235 67.91Z" fill="white"/>
<path fill-rule="evenodd" clip-rule="evenodd" d="M235 66.96C235.28 66.96 235.5 66.73 235.5 66.46C235.5 66.19 235.27 65.96 235 65.96C234.73 65.96 234.5 66.19 234.5 66.46C234.5 66.73 234.73 66.96 235 66.96Z" fill="white"/>
<path d="M252.11 87.66H208.03V90.15H252.11V87.66Z" fill="black"/>
<path d="M235.17 69.67C236.545 69.67 237.66 68.5552 237.66 67.18C237.66 65.8048 236.545 64.69 235.17 64.69C233.795 64.69 232.68 65.8048 232.68 67.18C232.68 68.5552 233.795 69.67 235.17 69.67Z" fill="black"/>
<path d="M235.17 67.8C235.512 67.8 235.79 67.5224 235.79 67.18C235.79 66.8376 235.512 66.56 235.17 66.56C234.828 66.56 234.55 66.8376 234.55 67.18C234.55 67.5224 234.828 67.8 235.17 67.8Z" fill="white"/>
<path d="M225.77 42.48C228.068 42.48 229.93 40.6175 229.93 38.32C229.93 36.0225 228.068 34.16 225.77 34.16C223.473 34.16 221.61 36.0225 221.61 38.32C221.61 40.6175 223.473 42.48 225.77 42.48Z" fill="black"/>
<path d="M225.77 40.4C226.919 40.4 227.85 39.4688 227.85 38.32C227.85 37.1713 226.919 36.24 225.77 36.24C224.621 36.24 223.69 37.1713 223.69 38.32C223.69 39.4688 224.621 40.4 225.77 40.4Z" fill="white"/>
<path d="M225.77 39.15C226.228 39.15 226.6 38.7784 226.6 38.32C226.6 37.8616 226.228 37.49 225.77 37.49C225.312 37.49 224.94 37.8616 224.94 38.32C224.94 38.7784 225.312 39.15 225.77 39.15Z" fill="black"/>
<path d="M249.07 82.49H224.12V86.65H249.07V82.49Z" fill="#FF6700"/>
</g>
</g>
<defs>
<clipPath id="clip0_524_1790">
<rect width="460" height="460" fill="white"/>
</clipPath>
<clipPath id="clip1_524_1790">
<rect width="460" height="460" fill="white"/>
</clipPath>
</defs>
</svg>
