<svg width="470" height="250" viewBox="0 0 470 250" fill="none" xmlns="http://www.w3.org/2000/svg">
<g clip-path="url(#clip0_562_8732)">
<path d="M113 249.611C113 240.793 120.148 233.645 128.965 233.645H299.36V249.611H113Z" fill="#4A7C88"/>
<path d="M251.64 70.781H131.881C128.07 70.781 124.98 73.8647 124.98 77.6686V152.73C124.98 156.534 128.07 159.617 131.881 159.617H251.64C255.452 159.617 258.541 156.534 258.541 152.73V77.6686C258.541 73.8647 255.452 70.781 251.64 70.781Z" fill="white"/>
<path d="M251.64 160.398H131.881C127.648 160.398 124.198 156.962 124.198 152.73V77.6685C124.198 73.436 127.64 70 131.881 70H251.64C255.873 70 259.324 73.436 259.324 77.6685V152.73C259.324 156.954 255.881 160.398 251.64 160.398ZM131.881 71.5618C128.509 71.5618 125.762 74.3028 125.762 77.6685V152.73C125.762 156.095 128.509 158.836 131.881 158.836H251.64C255.013 158.836 257.759 156.095 257.759 152.73V77.6685C257.759 74.3028 255.013 71.5618 251.64 71.5618H131.881Z" fill="#18292D"/>
<path d="M133.798 81.5186C131.991 81.5186 130.52 80.0505 130.52 78.2466C130.52 76.4427 131.991 74.9746 133.798 74.9746C135.605 74.9746 137.076 76.4427 137.076 78.2466C137.076 80.0505 135.605 81.5186 133.798 81.5186ZM133.798 76.5364C132.851 76.5364 132.084 77.3017 132.084 78.2466C132.084 79.1915 132.851 79.9568 133.798 79.9568C134.745 79.9568 135.512 79.1915 135.512 78.2466C135.512 77.3017 134.745 76.5364 133.798 76.5364Z" fill="#18292D"/>
<path d="M142.194 81.5186C140.386 81.5186 138.915 80.0505 138.915 78.2466C138.915 76.4427 140.386 74.9746 142.194 74.9746C144.001 74.9746 145.472 76.4427 145.472 78.2466C145.472 80.0505 144.001 81.5186 142.194 81.5186ZM142.194 76.5364C141.247 76.5364 140.48 77.3017 140.48 78.2466C140.48 79.1915 141.247 79.9568 142.194 79.9568C143.14 79.9568 143.907 79.1915 143.907 78.2466C143.907 77.3017 143.14 76.5364 142.194 76.5364Z" fill="#18292D"/>
<path d="M150.581 81.5186C148.774 81.5186 147.303 80.0505 147.303 78.2466C147.303 76.4427 148.774 74.9746 150.581 74.9746C152.389 74.9746 153.86 76.4427 153.86 78.2466C153.86 80.0505 152.389 81.5186 150.581 81.5186ZM150.581 76.5364C149.634 76.5364 148.868 77.3017 148.868 78.2466C148.868 79.1915 149.634 79.9568 150.581 79.9568C151.528 79.9568 152.295 79.1915 152.295 78.2466C152.295 77.3017 151.528 76.5364 150.581 76.5364Z" fill="#18292D"/>
<path d="M150.425 103.189H138.454C136.591 103.189 135.066 101.674 135.066 99.8074C135.066 97.941 136.584 96.426 138.454 96.426H150.425C152.295 96.426 153.813 97.941 153.813 99.8074C153.813 101.674 152.295 103.189 150.425 103.189ZM138.454 97.9957C137.452 97.9957 136.63 98.8078 136.63 99.8152C136.63 100.823 137.444 101.635 138.454 101.635H150.425C151.426 101.635 152.248 100.823 152.248 99.8152C152.248 98.8078 151.434 97.9957 150.425 97.9957H138.454Z" fill="#4A7C88"/>
<path d="M161.191 103.189C159.399 103.189 157.936 101.728 157.936 99.9401V99.6824C157.936 97.8941 159.399 96.4338 161.191 96.4338C162.983 96.4338 164.446 97.8941 164.446 99.6824V99.9401C164.446 101.728 162.983 103.189 161.191 103.189ZM161.191 97.9957C160.26 97.9957 159.501 98.7531 159.501 99.6824V99.9401C159.501 100.869 160.26 101.627 161.191 101.627C162.122 101.627 162.881 100.869 162.881 99.9401V99.6824C162.881 98.7531 162.122 97.9957 161.191 97.9957Z" fill="#FFD35C"/>
<path d="M237.165 117.448H164.219C163.789 117.448 163.437 117.097 163.437 116.667C163.437 116.238 163.789 115.886 164.219 115.886H237.173C237.604 115.886 237.956 116.238 237.956 116.667C237.956 117.097 237.604 117.448 237.173 117.448H237.165Z" fill="#4A7C88"/>
<path d="M237.165 124.851H164.219C163.789 124.851 163.437 124.5 163.437 124.07C163.437 123.641 163.789 123.289 164.219 123.289H237.173C237.604 123.289 237.956 123.641 237.956 124.07C237.956 124.5 237.604 124.851 237.173 124.851H237.165Z" fill="#4A7C88"/>
<path d="M190.438 132.262H164.219C163.789 132.262 163.437 131.911 163.437 131.481C163.437 131.052 163.789 130.7 164.219 130.7H190.438C190.869 130.7 191.221 131.052 191.221 131.481C191.221 131.911 190.869 132.262 190.438 132.262Z" fill="#4A7C88"/>
<path d="M152.232 115.457H139.729C137.59 115.457 135.856 117.187 135.856 119.322V131.801C135.856 133.936 137.59 135.667 139.729 135.667H152.232C154.371 135.667 156.105 133.936 156.105 131.801V119.322C156.105 117.187 154.371 115.457 152.232 115.457Z" fill="white"/>
<path d="M152.232 136.44H139.729C137.162 136.44 135.073 134.355 135.073 131.793V119.314C135.073 116.753 137.162 114.668 139.729 114.668H152.232C154.799 114.668 156.888 116.753 156.888 119.314V131.793C156.888 134.355 154.799 136.44 152.232 136.44ZM139.729 116.23C138.023 116.23 136.638 117.612 136.638 119.314V131.793C136.638 133.496 138.023 134.878 139.729 134.878H152.232C153.938 134.878 155.323 133.496 155.323 131.793V119.314C155.323 117.612 153.938 116.23 152.232 116.23H139.729Z" fill="#4A7C88"/>
<path d="M213.403 151.457L214.655 131.59C215.062 125.117 213.505 118.666 210.171 113.091L193.553 85.2512C192.864 84.1032 191.158 84.2204 190.642 85.462C189.844 87.3909 189.953 89.5696 190.947 91.4048L196.268 101.221L188.748 96.426L181.088 104.766C180.282 105.641 180.455 107.023 181.44 107.679L179.484 109.764C178.882 110.404 179.023 111.443 179.774 111.904C181.245 112.802 183.013 113.083 184.688 112.692L185.619 112.474L187.379 120.314C187.637 121.47 188.968 122.024 189.969 121.392L190.039 121.345C191.213 120.603 192.058 119.432 192.379 118.081L192.919 115.808L200.227 123.524L189.5 168.16C190.587 178.203 200.195 185.052 210.062 182.826L265.192 170.386L254.05 148.599L210.79 152.402L213.372 151.449L213.403 151.457Z" fill="white"/>
<path d="M206.361 184.028C202.699 184.028 199.084 182.896 196.056 180.733C191.949 177.805 189.288 173.252 188.748 168.246L188.733 168.113L188.764 167.981L199.39 123.758L193.365 117.401L193.161 118.268C192.794 119.83 191.839 121.157 190.478 122.016L190.399 122.063C189.719 122.493 188.858 122.571 188.107 122.258C187.356 121.946 186.8 121.29 186.628 120.501L185.04 113.426L184.875 113.465C182.982 113.91 181.034 113.598 179.375 112.583C178.812 112.239 178.444 111.669 178.35 111.021C178.264 110.373 178.467 109.725 178.921 109.241L180.353 107.718C180.071 107.343 179.883 106.89 179.829 106.414C179.735 105.625 179.985 104.836 180.525 104.258L185.29 99.0653C187.223 96.9568 190.384 96.5429 192.794 98.0813L194.155 98.9482L190.274 91.7872C189.163 89.7412 189.038 87.3282 189.93 85.1729C190.282 84.3217 191.072 83.7594 191.988 83.6892C192.903 83.6267 193.764 84.0718 194.233 84.8605L210.852 112.7C214.279 118.432 215.86 124.984 215.445 131.653L214.201 151.339L254.543 147.794L266.382 170.94L210.265 183.599C208.974 183.888 207.668 184.036 206.369 184.036L206.361 184.028ZM190.313 168.215C190.838 172.729 193.255 176.821 196.964 179.468C200.704 182.139 205.43 183.091 209.913 182.076L264.066 169.855L253.62 149.434L210.891 153.19L210.75 151.636L213.004 151.441L212.621 151.418L213.872 131.551C214.271 125.202 212.761 118.963 209.499 113.497L192.88 85.657C192.715 85.3759 192.426 85.2119 192.089 85.2432C191.761 85.2666 191.495 85.4618 191.37 85.7664C190.658 87.4844 190.759 89.4054 191.643 91.0375L198.404 103.509L191.949 99.3933C190.172 98.2609 187.856 98.5655 186.44 100.112L181.675 105.305C181.448 105.555 181.339 105.89 181.378 106.218C181.417 106.554 181.605 106.851 181.886 107.038L182.653 107.546L180.063 110.303C179.891 110.49 179.891 110.693 179.899 110.802C179.915 110.912 179.97 111.107 180.189 111.24C181.495 112.036 183.029 112.278 184.515 111.935L186.213 111.536L188.154 120.15C188.224 120.447 188.42 120.689 188.709 120.806C188.991 120.923 189.304 120.9 189.57 120.736L189.648 120.689C190.658 120.056 191.362 119.064 191.643 117.901L192.52 114.223L201.119 123.289L190.329 168.207L190.313 168.215Z" fill="#18292D"/>
<path d="M284.98 220.52L319.908 161.851L320.432 157.438C314.259 149.614 303.86 143.726 294.119 144.827L273.682 147.13C269.511 147.599 265.693 149.419 262.822 152.3L256.171 158.969C252.587 162.561 253.604 207.589 253.604 207.589L284.996 220.528L284.98 220.52Z" fill="white"/>
<path d="M284.98 221.301C284.878 221.301 284.777 221.286 284.683 221.239L253.291 208.299C253.002 208.182 252.814 207.901 252.806 207.596C252.806 207.487 252.556 196.195 252.744 184.606C253.135 160.882 254.927 159.086 255.6 158.407L262.25 151.738C265.231 148.747 269.261 146.834 273.58 146.342L294.017 144.038C304.705 142.835 315.284 149.653 321.035 156.946C321.16 157.11 321.222 157.314 321.199 157.517L320.675 161.929C320.659 162.038 320.628 162.14 320.573 162.233L285.645 220.903C285.504 221.145 285.238 221.286 284.972 221.286L284.98 221.301ZM254.363 207.058L284.651 219.544L319.149 161.593L319.611 157.665C314.087 150.809 304.158 144.475 294.197 145.592L273.76 147.896C269.793 148.341 266.1 150.098 263.361 152.839L256.711 159.508C254.293 161.929 253.988 189.729 254.363 207.05V207.058Z" fill="#18292D"/>
<path d="M317.075 137.256C325.392 128.954 325.392 115.496 317.075 107.195C308.757 98.8934 295.272 98.8934 286.955 107.195C278.637 115.496 278.637 128.954 286.955 137.256C295.272 145.557 308.757 145.557 317.075 137.256Z" fill="#18292D"/>
<path d="M292.508 126.092C299.088 121.944 301.052 113.257 296.896 106.69C292.739 100.123 284.036 98.1624 277.456 102.311C270.877 106.459 268.912 115.145 273.068 121.712C277.225 128.279 285.928 130.24 292.508 126.092Z" fill="#18292D"/>
<path d="M267.305 108.608C266.726 113.224 270.004 117.433 274.621 118.011C279.245 118.588 283.462 115.316 284.041 110.709C284.62 106.102 281.342 101.885 276.725 101.307C272.109 100.729 267.884 104.001 267.305 108.608Z" fill="#18292D"/>
<path d="M330.423 111.628C331.411 103.771 326.025 96.6269 318.393 95.6714C310.76 94.7159 303.773 100.31 302.785 108.167C301.798 116.024 307.184 123.168 314.816 124.123C322.448 125.079 329.436 119.484 330.423 111.628Z" fill="#18292D"/>
<path d="M323.937 124.976C323.64 124.976 323.35 124.804 323.225 124.515C323.045 124.125 323.225 123.656 323.617 123.484C327.529 121.735 330.33 117.682 330.932 112.903C331.816 105.875 327.63 99.5417 321.606 98.792C321.175 98.7374 320.87 98.3469 320.925 97.9174C320.98 97.4879 321.371 97.1834 321.801 97.238C328.687 98.097 333.475 105.211 332.489 113.098C331.824 118.409 328.671 122.93 324.258 124.906C324.156 124.953 324.047 124.976 323.937 124.976Z" fill="#18292D"/>
<path d="M299.771 117.885C305.485 109.005 302.905 97.1834 294.008 91.4804C285.11 85.7774 273.265 88.3528 267.551 97.2327C261.837 106.113 264.418 117.934 273.315 123.637C282.212 129.34 294.057 126.765 299.771 117.885Z" fill="#18292D"/>
<path d="M304.703 120.229C314.24 115.671 318.269 104.259 313.702 94.741C309.134 85.2227 297.701 81.2019 288.164 85.7602C278.627 90.3186 274.598 101.73 279.165 111.248C283.733 120.767 295.166 124.788 304.703 120.229Z" fill="#18292D"/>
<path d="M298.227 122.243C297.405 122.243 296.568 122.188 295.731 122.087C284.824 120.72 277.07 110.756 278.439 99.8775C279.808 88.9916 289.792 81.2527 300.691 82.6193C311.598 83.9859 319.352 93.9503 317.983 104.828C316.723 114.871 308.117 122.243 298.219 122.243H298.227ZM279.988 100.073C278.728 110.1 285.88 119.283 295.926 120.54C305.973 121.798 315.174 114.66 316.434 104.633C317.694 94.6063 310.542 85.4228 300.496 84.1655C290.449 82.9083 281.248 90.0458 279.988 100.073Z" fill="#18292D"/>
<path d="M296.333 131.582C296.333 131.582 296.27 131.582 296.231 131.582C295.081 131.442 293.994 130.989 293.078 130.286C292.648 129.958 292.264 129.568 291.928 129.146C291.662 128.802 291.725 128.318 292.069 128.053C292.413 127.787 292.898 127.85 293.164 128.193C293.415 128.521 293.712 128.81 294.033 129.06C294.721 129.591 295.551 129.935 296.419 130.044C296.849 130.099 297.155 130.489 297.1 130.919C297.053 131.317 296.716 131.606 296.325 131.606L296.333 131.582Z" fill="#18292D"/>
<path d="M275.074 148.63L274.605 137.947C274.237 137.869 273.862 137.775 273.502 137.658C266.538 135.323 263.322 126.218 266.319 117.315C269.316 108.413 277.383 103.079 284.346 105.414C289.886 107.273 293.055 113.418 292.609 120.337C293.876 119.314 295.582 118.783 297.389 119.018C300.605 119.439 303.007 122.235 302.757 125.265C302.483 128.545 299.369 130.88 295.918 130.45C295.183 130.356 294.494 130.138 293.861 129.833L294.76 150.434L275.074 148.638V148.63Z" fill="white"/>
<path d="M294.753 151.199C294.338 151.199 293.994 150.871 293.97 150.449L293.07 129.849C293.055 129.575 293.195 129.31 293.422 129.162C293.657 129.013 293.947 128.998 294.197 129.115C294.776 129.396 295.378 129.583 296.004 129.661C297.515 129.849 299.04 129.427 300.183 128.506C301.223 127.662 301.857 126.483 301.967 125.187C302.186 122.571 300.081 120.15 297.28 119.783C295.77 119.588 294.252 120.009 293.094 120.939C292.851 121.134 292.515 121.165 292.241 121.024C291.967 120.884 291.803 120.587 291.818 120.283C292.257 113.52 289.15 107.843 284.088 106.148C277.547 103.954 269.902 109.077 267.054 117.557C265.662 121.696 265.607 126.007 266.906 129.685C268.181 133.293 270.607 135.862 273.744 136.908C274.104 137.025 274.464 137.111 274.769 137.181C275.113 137.26 275.372 137.556 275.387 137.908L275.857 148.591C275.872 149.02 275.544 149.387 275.106 149.403C274.683 149.418 274.308 149.09 274.292 148.653L273.854 138.556C273.658 138.509 273.463 138.447 273.259 138.376C269.66 137.174 266.882 134.261 265.443 130.185C264.026 126.178 264.073 121.509 265.583 117.042C268.713 107.741 277.242 102.181 284.604 104.649C289.956 106.445 293.391 112.06 293.438 118.877C294.674 118.276 296.091 118.041 297.499 118.221C301.122 118.69 303.829 121.868 303.547 125.304C303.406 127.03 302.569 128.591 301.192 129.708C299.721 130.903 297.773 131.442 295.832 131.2C295.449 131.153 295.073 131.075 294.706 130.965L295.551 150.371C295.566 150.801 295.238 151.168 294.799 151.183C294.792 151.183 294.776 151.183 294.768 151.183L294.753 151.199Z" fill="#18292D"/>
<path d="M292.992 121.142C292.859 121.165 292.726 121.189 292.593 121.204C285.121 122.134 278.071 115.191 276.851 105.695C276.835 105.586 276.827 105.485 276.819 105.375C279.354 104.438 282.038 104.298 284.573 105.141C290.465 107.109 293.743 113.77 292.992 121.142Z" fill="#18292D"/>
<path d="M275.818 138.876C275.442 138.876 275.066 138.861 274.691 138.837C274.261 138.806 273.932 138.439 273.963 138.01C273.995 137.58 274.362 137.252 274.793 137.283C279.26 137.58 283.626 135.909 286.756 132.692C287.053 132.379 287.554 132.371 287.859 132.676C288.172 132.973 288.18 133.473 287.875 133.777C284.69 137.049 280.348 138.876 275.818 138.876Z" fill="#18292D"/>
<path d="M270.09 115.191C270.278 115.628 269.441 116.394 268.236 116.901C267.023 117.409 265.896 117.471 265.709 117.034C265.521 116.597 266.358 115.831 267.563 115.324C268.776 114.816 269.902 114.754 270.09 115.191Z" fill="#18292D"/>
<path d="M281.373 118.502C281.177 119.057 279.777 119.072 278.235 118.534C276.694 117.995 275.606 117.112 275.802 116.558C275.998 116.003 277.398 115.988 278.94 116.527C280.481 117.065 281.569 117.948 281.373 118.502Z" fill="#18292D"/>
<path d="M271.397 124.07C271.178 124.07 270.959 123.976 270.802 123.797C270.176 123.078 269.981 122.063 270.294 121.165L271.538 117.526C271.679 117.12 272.125 116.901 272.531 117.042C272.938 117.182 273.157 117.628 273.017 118.034L271.772 121.673C271.639 122.055 271.726 122.469 271.992 122.782C272.273 123.11 272.234 123.602 271.905 123.883C271.757 124.008 271.577 124.07 271.397 124.07Z" fill="#18292D"/>
<path d="M275.074 131.723C273.799 131.723 272.547 130.825 271.342 129.037C271.154 128.755 271.139 128.404 271.295 128.115C271.514 127.717 271.819 127.178 278.048 127.459C278.298 127.467 278.533 127.608 278.674 127.818C278.814 128.029 278.838 128.295 278.744 128.529C278.627 128.834 277.5 131.473 275.364 131.699C275.27 131.707 275.168 131.715 275.074 131.715V131.723ZM273.275 129.005C273.846 129.677 274.527 130.224 275.2 130.153C275.794 130.091 276.334 129.536 276.725 128.974C275.419 128.943 274.12 128.943 273.275 128.998V129.005Z" fill="#18292D"/>
<path d="M294.494 126.905C294.494 126.905 294.479 126.905 294.471 126.905C294.041 126.889 293.704 126.53 293.712 126.101C293.775 124.336 294.33 122.969 295.363 122.04C296.857 120.705 298.782 120.83 298.86 120.83C299.291 120.861 299.612 121.236 299.588 121.665C299.557 122.095 299.189 122.423 298.759 122.391C298.727 122.391 297.382 122.329 296.404 123.219C295.707 123.852 295.332 124.843 295.285 126.155C295.269 126.577 294.925 126.913 294.502 126.913L294.494 126.905Z" fill="#18292D"/>
<path d="M269.942 120.142C269.769 121.111 269.042 121.79 268.322 121.657C267.602 121.524 267.164 120.642 267.344 119.674C267.524 118.705 268.244 118.026 268.964 118.159C269.683 118.291 270.122 119.174 269.942 120.142Z" fill="#18292D"/>
<path d="M278.126 121.65C277.954 122.618 277.226 123.297 276.506 123.164C275.786 123.032 275.348 122.149 275.528 121.181C275.7 120.213 276.428 119.533 277.148 119.666C277.868 119.799 278.306 120.681 278.126 121.65Z" fill="#18292D"/>
<path d="M309.423 182.974C309.196 182.974 308.977 182.881 308.821 182.693L300.746 173.057C300.472 172.729 300.511 172.237 300.848 171.956C301.176 171.683 301.669 171.722 301.951 172.057L310.026 181.694C310.3 182.022 310.26 182.514 309.924 182.795C309.775 182.92 309.603 182.974 309.423 182.974Z" fill="white"/>
<path d="M267.704 172.042L248.206 173.9L238.863 149.262L252.924 148.029L270.802 146.818L267.704 172.042Z" fill="#18292D"/>
<path d="M251.508 167.458C252.227 164.264 253.816 161.32 256.163 158.961L262.814 152.292C265.396 149.707 268.737 147.982 272.406 147.318C269.777 153.143 270.309 157.985 274.394 159.531C280.317 161.772 291.466 156.244 299.291 147.185C299.94 146.435 300.543 145.678 301.106 144.928C308.383 145.951 315.198 149.778 319.884 155.72L323.515 159.976L333.272 175.103L318.734 193.821L309.314 182.295L298.289 250H266.045H234.302L236.766 234.421C238.918 228.173 242.337 222.441 246.805 217.576L251.476 212.493L251.508 167.465V167.458Z" fill="#18292D"/>
<path d="M252.282 173.955C251.875 173.955 251.531 173.642 251.5 173.229C250.811 163.537 259.277 158.04 259.637 157.813C260.005 157.579 260.482 157.688 260.717 158.055C260.951 158.422 260.842 158.899 260.482 159.133C260.404 159.188 252.439 164.373 253.064 173.119C253.096 173.549 252.767 173.924 252.337 173.955C252.321 173.955 252.298 173.955 252.282 173.955Z" fill="white"/>
<path d="M271.608 219.396C275.106 217.413 279.354 217.327 282.922 219.131C283.869 219.396 284.792 219.771 285.676 220.247L291.286 223.301L330.353 208.034L319.133 193.009L332.662 175.087L353.193 205.98L353.044 206.081L354.03 207.448C359.843 215.531 355.986 226.916 346.456 229.813C327.497 235.584 301.012 243.643 297.522 244.651L297.429 244.737C292.687 246.712 289.111 247.751 284.604 246.134L278.055 243.456L280.325 244.854C281.389 245.51 281.827 246.829 281.373 247.993C281.146 248.586 280.489 248.899 279.886 248.704L274.143 246.907C271.6 246.009 269.762 243.792 269.363 241.137L267.242 227.244C266.788 224.261 268.22 221.301 270.849 219.81L271.608 219.38V219.396Z" fill="white"/>
<path d="M280.246 249.555C280.051 249.555 279.847 249.524 279.652 249.461L273.909 247.665C271.068 246.666 269.034 244.214 268.588 241.262L266.468 227.369C265.967 224.089 267.571 220.778 270.466 219.138L271.225 218.709C274.926 216.608 279.401 216.491 283.212 218.389C284.205 218.678 285.16 219.068 286.052 219.552L291.341 222.426L329.117 207.667L318.507 193.462C318.296 193.181 318.304 192.806 318.507 192.525L332.036 174.603C332.192 174.4 332.427 174.291 332.685 174.291C332.935 174.291 333.17 174.431 333.311 174.642L353.842 205.535C353.944 205.683 353.983 205.855 353.967 206.019L354.664 206.98C357.582 211.04 358.333 216.077 356.737 220.81C355.133 225.542 351.471 229.087 346.683 230.548C326.551 236.678 301.92 244.174 297.914 245.338C297.859 245.385 297.796 245.416 297.734 245.44C293.344 247.267 289.315 248.633 284.346 246.853L282.163 245.963C282.414 246.689 282.406 247.509 282.109 248.266C281.803 249.047 281.052 249.532 280.254 249.532L280.246 249.555ZM271.992 220.068L271.233 220.497C268.901 221.817 267.61 224.488 268.009 227.135L270.129 241.027C270.489 243.401 272.132 245.377 274.402 246.181L280.121 247.97C280.332 248.032 280.567 247.923 280.645 247.72C280.966 246.908 280.653 245.986 279.91 245.525L277.641 244.128C277.297 243.917 277.171 243.472 277.359 243.112C277.547 242.753 277.977 242.589 278.353 242.745L284.902 245.424C288.892 246.853 292.124 246.096 296.998 244.081C297.084 244.003 297.186 243.948 297.303 243.917C300.699 242.933 325.776 235.303 346.221 229.079C350.517 227.768 353.811 224.581 355.25 220.333C356.69 216.085 356.009 211.556 353.388 207.909L352.402 206.542C352.293 206.386 352.238 206.199 352.262 206.011L332.615 176.454L320.104 193.025L330.972 207.581C331.12 207.776 331.167 208.026 331.097 208.26C331.026 208.495 330.854 208.682 330.627 208.776L291.56 224.043C291.349 224.128 291.107 224.113 290.903 224.004L285.293 220.95C284.479 220.505 283.603 220.154 282.703 219.896C282.656 219.88 282.609 219.865 282.562 219.841C279.206 218.147 275.254 218.24 271.992 220.091V220.068Z" fill="#18292D"/>
<path d="M267.242 228.041C266.968 228.041 266.702 227.9 266.561 227.643C266.35 227.268 266.483 226.791 266.859 226.58L273.596 222.777C273.971 222.567 274.448 222.699 274.66 223.074C274.871 223.449 274.738 223.925 274.362 224.136L267.626 227.939C267.5 228.01 267.375 228.041 267.242 228.041Z" fill="#18292D"/>
<path d="M268.22 233.351C267.939 233.351 267.665 233.203 267.532 232.937C267.328 232.554 267.477 232.086 267.86 231.883L274.245 228.517C274.628 228.314 275.098 228.462 275.301 228.845C275.505 229.228 275.356 229.696 274.973 229.899L268.588 233.265C268.471 233.327 268.346 233.359 268.22 233.359V233.351Z" fill="#18292D"/>
<path d="M269.081 238.544C268.799 238.544 268.533 238.395 268.392 238.13C268.189 237.747 268.33 237.279 268.713 237.076L274.816 233.804C275.2 233.601 275.669 233.741 275.873 234.124C276.076 234.507 275.935 234.975 275.552 235.178L269.449 238.45C269.331 238.513 269.206 238.544 269.081 238.544Z" fill="#18292D"/>
<path d="M206.338 120.923L205.954 120.783C202.574 119.525 199.836 117.058 198.247 113.833L196.831 110.967L190.219 107.499C189.14 106.937 188.522 105.789 188.655 104.579C188.748 103.728 189.202 102.954 189.906 102.463C190.611 101.971 191.495 101.807 192.324 102.025L205.586 104.993L205.242 106.515L191.956 103.54C191.542 103.439 191.127 103.509 190.798 103.743C190.47 103.977 190.251 104.337 190.212 104.743C190.149 105.313 190.439 105.852 190.947 106.117L198.013 109.826L199.656 113.145C201.072 116.011 203.505 118.206 206.51 119.322L206.885 119.463L206.338 120.923Z" fill="#18292D"/>
<path d="M183.318 108.663C182.638 108.663 181.957 108.592 181.284 108.452L181.605 106.921C183.905 107.405 186.323 106.89 188.224 105.5L188.811 105.071L189.734 106.336L189.147 106.765C187.442 108.007 185.392 108.663 183.311 108.663H183.318Z" fill="#18292D"/>
<path d="M185.971 113.184L185.29 111.779L185.627 111.615C187.872 110.521 189.86 109.03 191.518 107.171L192.684 108.21C190.885 110.225 188.741 111.841 186.307 113.02L185.971 113.184Z" fill="#18292D"/>
<path d="M192.444 110.616L190.926 110.995L192.179 115.995L193.697 115.616L192.444 110.616Z" fill="#18292D"/>
</g>
<defs>
<clipPath id="clip0_562_8732">
<rect width="470" height="250" fill="white"/>
</clipPath>
</defs>
</svg>
