<svg width="1300" height="400" viewBox="0 0 1300 400" fill="none" xmlns="http://www.w3.org/2000/svg">
<rect x="398" y="348" width="468" height="3" fill="#18292D"/>
<path d="M467.058 171.228C464.808 171.674 463.413 173.138 461.727 174.606C455.862 179.711 449.054 183.747 442.342 187.637C421.08 199.957 398.046 205.502 373.518 202.123C355.581 199.652 327.197 188.232 327.371 166.829C327.501 150.763 337.96 146.558 352.083 147.336C364.543 148.022 366.801 158.437 364.777 169.324C362.905 179.392 359.709 183.343 351.551 189.107C334.026 201.491 317.175 208.08 295.801 211.222C290.252 212.038 239.646 211.32 236 205.5" stroke="black" stroke-width="2" stroke-linecap="round" stroke-linejoin="round" stroke-dasharray="6 6"/>
<path d="M838.577 269.481C840.843 269.133 869.643 241.684 871.392 240.292C877.475 235.447 884.451 231.711 891.327 228.119C913.106 216.737 936.36 212.202 960.717 216.648C978.529 219.899 1006.39 232.547 1005.28 253.921C1004.45 269.967 993.818 273.711 979.742 272.318C967.324 271.089 965.522 260.585 968.019 249.797C970.328 239.82 973.694 236.012 982.095 230.61C1000.14 219.003 1017.27 213.154 1038.76 210.948C1044.34 210.375 1067.76 205.62 1071.15 211.593" stroke="black" stroke-width="2" stroke-linecap="round" stroke-linejoin="round" stroke-dasharray="6 6"/>
<circle cx="182.5" cy="186.5" r="56" fill="white" stroke="#18292D"/>
<g clip-path="url(#clip0_711_9594)">
<path d="M197.651 192.173L205.29 208.162C206.942 212.578 203.683 217.279 198.974 217.279H166.472C161.764 217.279 158.504 212.57 160.157 208.162L166.472 195.146L168.911 194.155C170.232 193.494 173.469 192.47 175.848 193.659C178.821 195.146 182.785 194.155 187.245 191.182C190.813 188.803 195.669 190.851 197.651 192.173Z" fill="#18292D"/>
<path d="M205.29 208.162L193.92 183.515C191.975 179.31 190.811 176.306 190.518 171.687C190.503 171.402 190.488 171.177 190.488 171.057V158.245H174.966V171.049C174.966 171.177 174.958 171.395 174.936 171.68C174.643 176.306 173.471 179.302 171.534 183.508L160.157 208.162C158.504 212.57 161.764 217.279 166.472 217.279H198.974C203.683 217.279 206.942 212.578 205.29 208.162Z" stroke="#18292D" stroke-width="1.28836" stroke-linecap="round" stroke-linejoin="round"/>
<path d="M191.517 156.721H173.937C173.659 156.721 173.434 156.946 173.434 157.224V159.251C173.434 159.529 173.659 159.755 173.937 159.755H191.517C191.795 159.755 192.02 159.529 192.02 159.251V157.224C192.02 156.946 191.795 156.721 191.517 156.721Z" fill="#FFC31F" stroke="#FFC31F" stroke-width="1.3" stroke-linecap="round" stroke-linejoin="round"/>
<path d="M199.184 212.075C199.184 212.908 198.508 213.584 197.675 213.584C196.841 213.584 196.165 212.908 196.165 212.075C196.165 211.241 196.841 210.565 197.675 210.565C198.508 210.565 199.184 211.241 199.184 212.075Z" fill="white" stroke="#18292D" stroke-width="1.28836" stroke-linecap="round" stroke-linejoin="round"/>
<path d="M193.53 198.437C194.363 198.437 195.039 197.761 195.039 196.927C195.039 196.094 194.363 195.418 193.53 195.418C192.696 195.418 192.02 196.094 192.02 196.927C192.02 197.761 192.696 198.437 193.53 198.437Z" fill="white" stroke="#18292D" stroke-width="1.28836" stroke-linecap="round" stroke-linejoin="round"/>
<path d="M178.06 212.074C178.06 212.675 177.572 213.163 176.971 213.163C176.37 213.163 175.882 212.675 175.882 212.074C175.882 211.473 176.37 210.985 176.971 210.985C177.572 210.985 178.06 211.473 178.06 212.074Z" fill="white" stroke="#18292D" stroke-width="1.28836" stroke-linecap="round" stroke-linejoin="round"/>
<path d="M179.149 199.016C179.149 199.616 178.66 200.105 178.06 200.105C177.459 200.105 176.971 199.616 176.971 199.016C176.971 198.415 177.459 197.927 178.06 197.927C178.66 197.927 179.149 198.415 179.149 199.016Z" fill="white" stroke="#18292D" stroke-width="1.28836" stroke-linecap="round" stroke-linejoin="round"/>
<path d="M171.669 204.363C171.669 205.73 170.565 206.834 169.198 206.834C167.831 206.834 166.727 205.73 166.727 204.363C166.727 202.997 167.831 201.893 169.198 201.893C170.565 201.893 171.669 202.997 171.669 204.363Z" fill="white" stroke="#18292D" stroke-width="1.28836" stroke-linecap="round" stroke-linejoin="round"/>
<path d="M190.976 205.925C190.976 207.284 189.872 208.395 188.506 208.395C187.139 208.395 186.035 207.292 186.035 205.925C186.035 204.558 187.139 203.454 188.506 203.454C189.872 203.454 190.976 204.558 190.976 205.925Z" fill="white" stroke="#18292D" stroke-width="1.28836" stroke-linecap="round" stroke-linejoin="round"/>
<path d="M166.164 195.839L170.595 193.751C172.157 193.015 173.952 192.91 175.589 193.474L177.046 193.969C179.088 194.668 181.334 194.45 183.204 193.368L186.275 191.589C188.829 190.117 191.93 189.959 194.619 191.168L197.667 192.542" stroke="#18292D" stroke-width="1.28836" stroke-linecap="round" stroke-linejoin="round"/>
</g>
<circle cx="1118.5" cy="211.5" r="56" fill="white" stroke="#18292D"/>
<g clip-path="url(#clip1_711_9594)">
<path d="M1151.4 232.789C1149.87 233.815 1147.87 233.815 1146.34 232.789C1144.81 231.762 1142.81 231.762 1141.28 232.789C1139.75 233.815 1137.75 233.815 1136.22 232.789C1134.68 231.762 1132.68 231.762 1131.15 232.789C1129.62 233.815 1127.62 233.815 1126.09 232.789C1124.56 231.762 1122.56 231.762 1121.03 232.789C1119.49 233.815 1117.5 233.815 1115.96 232.789C1114.43 231.762 1112.43 231.762 1110.9 232.789C1109.37 233.815 1107.37 233.815 1105.84 232.789C1104.31 231.762 1102.31 231.762 1100.77 232.789C1099.24 233.815 1097.24 233.815 1095.71 232.789C1094.18 231.762 1092.18 231.762 1090.65 232.789C1089.12 233.815 1087.12 233.815 1085.59 232.789V239.724H1151.4V232.789Z" fill="white" stroke="#18292D" stroke-width="1.3" stroke-linecap="round" stroke-linejoin="round"/>
<path d="M1146.34 227.28C1144.81 226.253 1142.81 226.253 1141.28 227.28C1139.75 228.306 1137.75 228.306 1136.22 227.28C1134.68 226.253 1132.68 226.253 1131.15 227.28C1129.62 228.306 1127.62 228.306 1126.09 227.28C1124.56 226.253 1122.56 226.253 1121.03 227.28C1119.49 228.306 1117.5 228.306 1115.96 227.28C1114.43 226.253 1112.43 226.253 1110.9 227.28C1109.37 228.306 1107.37 228.306 1105.84 227.28C1104.31 226.253 1102.31 226.253 1100.77 227.28C1099.24 228.306 1097.24 228.306 1095.71 227.28C1094.18 226.253 1092.18 226.253 1090.65 227.28C1089.12 228.306 1087.12 228.306 1085.59 227.28V232.793C1087.12 233.82 1089.12 233.82 1090.65 232.793C1092.18 231.767 1094.18 231.767 1095.71 232.793C1097.24 233.82 1099.24 233.82 1100.77 232.793C1102.31 231.767 1104.31 231.767 1105.84 232.793C1107.37 233.82 1109.37 233.82 1110.9 232.793C1112.43 231.767 1114.43 231.767 1115.96 232.793C1117.5 233.82 1119.49 233.82 1121.03 232.793C1122.56 231.767 1124.56 231.767 1126.09 232.793C1127.62 233.82 1129.62 233.82 1131.15 232.793C1132.68 231.767 1134.68 231.767 1136.22 232.793C1137.75 233.82 1139.75 233.82 1141.28 232.793C1142.81 231.767 1144.81 231.767 1146.34 232.793C1147.87 233.82 1149.87 233.82 1151.4 232.793V227.28C1149.87 228.306 1147.87 228.306 1146.34 227.28Z" fill="#18292D" stroke="#18292D" stroke-width="1.3" stroke-linecap="round" stroke-linejoin="round"/>
<path d="M1146.34 221.831C1144.81 220.805 1142.81 220.805 1141.28 221.831C1139.75 222.858 1137.75 222.858 1136.22 221.831C1134.68 220.805 1132.68 220.805 1131.15 221.831C1129.62 222.858 1127.62 222.858 1126.09 221.831C1124.56 220.805 1122.56 220.805 1121.03 221.831C1119.49 222.858 1117.5 222.858 1115.96 221.831C1114.43 220.805 1112.43 220.805 1110.9 221.831C1109.37 222.858 1107.37 222.858 1105.84 221.831C1104.31 220.805 1102.31 220.805 1100.77 221.831C1099.24 222.858 1097.24 222.858 1095.71 221.831C1094.18 220.805 1092.18 220.805 1090.65 221.831C1089.12 222.858 1087.12 222.858 1085.59 221.831V227.345C1087.12 228.372 1089.12 228.372 1090.65 227.345C1092.18 226.319 1094.18 226.319 1095.71 227.345C1097.24 228.372 1099.24 228.372 1100.77 227.345C1102.31 226.319 1104.31 226.319 1105.84 227.345C1107.37 228.372 1109.37 228.372 1110.9 227.345C1112.43 226.319 1114.43 226.319 1115.96 227.345C1117.5 228.372 1119.49 228.372 1121.03 227.345C1122.56 226.319 1124.56 226.319 1126.09 227.345C1127.62 228.372 1129.62 228.372 1131.15 227.345C1132.68 226.319 1134.68 226.319 1136.22 227.345C1137.75 228.372 1139.75 228.372 1141.28 227.345C1142.81 226.319 1144.81 226.319 1146.34 227.345C1147.87 228.372 1149.87 228.372 1151.4 227.345V221.831C1149.87 222.858 1147.87 222.858 1146.34 221.831Z" fill="white" stroke="#18292D" stroke-width="1.3" stroke-linecap="round" stroke-linejoin="round"/>
<path d="M1128.18 204.079C1128.18 209.447 1123.85 213.799 1118.5 213.799C1113.15 213.799 1108.82 209.447 1108.82 204.079C1108.82 198.71 1118.5 183.597 1118.5 183.597C1118.5 183.597 1128.18 198.71 1128.18 204.079Z" fill="white" stroke="#18292D" stroke-width="1.3" stroke-linecap="round" stroke-linejoin="round"/>
</g>
<path d="M566.528 79.7799C607.65 76.5508 647.134 89.8971 675.064 108.07C703.271 126.604 719.916 149.969 721.734 174.937C723.566 200.147 710.92 224.09 692.185 247.742C673.197 271.036 648.119 294.04 619.376 308.949C563.822 340.124 500.169 314.889 469.827 239.546C439.452 164.679 481.972 84.0805 566.528 79.7799Z" fill="#F2F7F8"/>
<path d="M580.5 187.951L595.336 176.538L664.048 192.905C673.685 195.195 681.895 201.488 686.617 210.199L688.02 205.991C691.159 196.572 697.657 188.633 706.279 183.705L747.673 159.99L757.375 169.692L737.405 202.208L674.65 227.879L580.513 187.938L580.5 187.951Z" fill="white"/>
<path d="M674.637 229.178C674.47 229.178 674.29 229.139 674.136 229.075L579.998 189.134C579.573 188.954 579.277 188.568 579.226 188.118C579.174 187.668 579.354 187.217 579.715 186.934L594.551 175.521C594.86 175.289 595.258 175.199 595.632 175.289L664.356 191.644C673.402 193.792 681.264 199.377 686.295 207.123L686.81 205.592C690.053 195.864 696.744 187.693 705.648 182.598L747.042 158.883C747.544 158.6 748.175 158.677 748.586 159.089L758.288 168.791C758.713 169.216 758.79 169.872 758.481 170.374L738.511 202.89C738.37 203.121 738.151 203.301 737.906 203.404L675.152 229.075C674.998 229.139 674.83 229.165 674.663 229.165L674.637 229.178ZM583.034 187.629L674.65 226.501L736.53 201.191L755.741 169.898L747.454 161.611L706.909 184.837C698.558 189.623 692.279 197.292 689.242 206.415L687.839 210.623C687.672 211.112 687.247 211.447 686.733 211.498C686.205 211.549 685.729 211.279 685.485 210.829C680.942 202.452 673.029 196.379 663.752 194.166L595.632 177.953L583.034 187.642V187.629Z" fill="#18292D"/>
<path d="M478.977 200.471C478.9 200.471 478.823 200.471 478.733 200.445C464.771 197.808 454.284 192.004 449.215 184.078C446.204 179.369 445.277 174.222 446.538 169.165C447.516 165.24 449.691 162.152 451.428 159.669C453.757 156.349 454.297 155.242 453.384 154.329C442.961 143.842 441.7 134.629 442.485 128.735C443.296 122.662 446.706 117.348 451.608 114.517C457.759 110.966 464.295 111.004 470.06 111.03C473.637 111.043 476.712 111.069 479.028 110.219C481.589 109.28 481.795 102.705 481.988 96.8887C482.194 90.4678 482.413 83.8411 485.256 80.3541C490.03 74.5123 498.291 76.7254 507.864 79.2861C510.476 79.9809 513.179 80.7015 516.022 81.332C528.812 84.1885 547.341 76.288 547.534 76.2108C548.191 75.9277 548.937 76.2236 549.22 76.8799C549.503 77.5361 549.207 78.2824 548.551 78.5655C547.766 78.9129 529.083 86.865 515.469 83.8411C512.574 83.1977 509.846 82.4643 507.208 81.7695C498.137 79.3504 490.969 77.4332 487.251 81.9882C484.96 84.7933 484.742 91.2656 484.561 96.9787C484.33 104.249 484.098 111.12 479.916 112.638C477.163 113.642 473.714 113.629 470.06 113.603C464.617 113.578 458.454 113.539 452.908 116.743C448.7 119.175 445.753 123.782 445.059 129.07C444.351 134.384 445.548 142.761 455.237 152.502C457.81 155.088 455.751 158.022 453.564 161.136C451.865 163.555 449.935 166.308 449.06 169.77C447.979 174.119 448.79 178.571 451.415 182.676C456.099 189.997 465.981 195.401 479.247 197.898C479.942 198.026 480.405 198.695 480.277 199.403C480.161 200.021 479.62 200.445 479.016 200.445L478.977 200.471Z" fill="#18292D"/>
<path d="M447.297 136.584C447.902 140.74 449.704 144.6 451.634 148.177C452.547 149.889 453.731 151.549 454.297 153.44C454.979 155.743 454.169 158.06 453.409 160.26C452.084 164.146 451.415 167.942 451.814 172.046C452.2 175.881 453.474 179.638 455.262 182.932C459.2 190.125 465.556 194.937 472.608 198.18C476.378 199.904 480.315 201.165 484.291 202.208C488.434 203.301 492.681 204.305 496.978 204.549C513.14 205.437 525.274 192.197 533.509 178.506C538.167 170.76 542.143 162.55 547.238 155.087C551.639 148.653 556.773 142.825 562.435 137.652C573.115 127.924 585.725 120.731 599.146 116.794C599.699 117.18 600.445 117.27 601.114 116.691C601.372 116.472 601.603 116.24 601.835 116.022C602.285 115.842 602.568 115.494 602.723 115.095C604.64 112.946 606.068 110.334 606.943 107.516C612 91.1748 599.107 75.3479 587.333 67.4602C580.797 63.0724 573.231 60.2802 565.42 60.0229C561.097 59.8684 556.76 60.5118 552.514 61.4897C548.461 62.4162 544.33 63.497 540.535 65.3242C533.895 68.5282 530.099 74.9619 524.939 80.1475C522.469 82.6309 519.677 84.4966 516.331 85.1014C512.741 85.7448 509.048 85.0757 505.497 84.6382C501.958 84.2007 498.291 83.8533 494.778 84.7668C491.471 85.6418 488.55 87.6363 486.324 90.4285C484.072 93.2593 482.541 96.6949 481.602 100.246C480.637 103.875 480.868 107.98 479.44 111.454C477.78 115.507 473.392 114.864 470.047 115.018C465.929 115.198 461.825 115.829 457.977 117.592C450.849 120.86 446.088 128.233 447.285 136.584H447.297Z" fill="#18292D"/>
<path d="M613.095 89.288C614.297 84.1975 611.144 79.0969 606.053 77.8954C600.963 76.694 595.862 79.8466 594.661 84.9371C593.459 90.0276 596.612 95.1283 601.703 96.3297C606.793 97.5312 611.894 94.3785 613.095 89.288Z" fill="#18292D"/>
<path d="M613.544 112.908C620.821 112.908 626.72 107.009 626.72 99.7319C626.72 92.4549 620.821 86.5557 613.544 86.5557C606.267 86.5557 600.368 92.4549 600.368 99.7319C600.368 107.009 606.267 112.908 613.544 112.908Z" fill="#18292D"/>
<path d="M490.725 348.509L469.648 354.506C443.617 361.904 416.068 348.432 407.537 324.126C403.123 311.567 404.513 297.838 411.359 286.296L471.063 178.377C480.238 161.791 501.713 155.048 519.625 163.116L551.819 177.63L574.247 196.198C592.544 211.343 601.088 234.401 596.752 256.984L579.201 348.509H490.725Z" fill="#96D8E8"/>
<path d="M448.288 297.491C447.593 297.491 447.014 296.938 447.001 296.23C446.989 295.522 447.555 294.93 448.262 294.918L485.025 294.146H485.05C485.745 294.146 486.324 294.699 486.337 295.407C486.35 296.114 485.784 296.706 485.076 296.719L448.314 297.491H448.288Z" fill="white"/>
<path d="M676.755 348L700.206 303.73L697.298 280.17H737.573L725.149 348H676.755Z" fill="white"/>
<path d="M677.145 348.318C676.939 348.318 676.733 348.267 676.54 348.164C675.91 347.829 675.678 347.057 676 346.427L700.808 299.615L697.952 276.454C697.9 276.081 698.016 275.721 698.26 275.437C698.505 275.167 698.852 275 699.225 275H739.5C739.886 275 740.247 275.167 740.491 275.476C740.736 275.772 740.839 276.171 740.761 276.544L726.022 346.989C725.88 347.684 725.211 348.134 724.516 348.005C723.821 347.864 723.371 347.195 723.5 346.5C723.628 345.805 737.943 277.586 737.943 277.586H700.679L703.407 299.705C703.446 299.963 703.394 300.233 703.266 300.465L678.264 347.636C678.033 348.074 677.582 348.318 677.132 348.318H677.145Z" fill="#18292D"/>
<path d="M687.21 210.121L576.344 182.083L536.893 323.921L642.483 347.957C647.282 349.051 652.326 348.021 656.315 345.139L723.354 296.616L760.902 165.78L687.21 210.121Z" fill="#18292D"/>
<path d="M729.224 295.625L726.007 289.899L725.711 278.447L704.377 264.576C702.627 263.444 701.52 261.552 701.392 259.481L701.366 259.146C701.211 256.791 703.682 255.17 705.766 256.277C711.196 259.172 719.766 263.778 723.408 265.889C719.779 263.212 711.261 256.277 706.088 252.056C703.476 249.92 702.215 246.588 702.743 243.255V243.191C703.064 241.222 705.303 240.244 706.963 241.338L731.437 257.654L709.408 236.705C707.812 235.187 707.401 232.82 708.379 230.851L708.893 229.809C709.652 228.29 711.582 227.801 712.972 228.792L739.415 247.527L739.106 236.255L730.06 228.47C727.705 226.45 726.856 223.182 727.924 220.261C728.465 218.755 730.292 218.202 731.578 219.141L744.999 228.946C747.264 230.593 748.602 233.231 748.602 236.036V254.025L748.795 267.42C748.859 272.065 747.663 276.633 745.321 280.648L732.827 302.033L729.211 295.612L729.224 295.625Z" fill="white"/>
<path d="M732.839 303.333C732.621 303.333 732.402 303.282 732.196 303.153C731.578 302.793 731.372 302.008 731.733 301.39L744.227 280.004C746.453 276.196 747.585 271.859 747.521 267.446L747.328 254.051V236.049C747.328 233.669 746.183 231.404 744.253 230.002L730.832 220.197C730.549 219.991 730.201 219.927 729.867 220.03C729.532 220.132 729.275 220.377 729.159 220.699C728.284 223.105 728.992 225.833 730.922 227.493L739.968 235.277C740.238 235.509 740.405 235.856 740.418 236.217L740.727 247.489C740.727 247.978 740.483 248.428 740.045 248.659C739.62 248.891 739.093 248.853 738.694 248.569L712.251 229.835C711.891 229.577 711.467 229.5 711.029 229.603C710.604 229.706 710.257 229.989 710.064 230.375L709.549 231.417C708.816 232.884 709.125 234.634 710.308 235.766L732.337 256.714C732.826 257.178 732.878 257.924 732.453 258.452C732.042 258.979 731.295 259.095 730.729 258.722L706.255 242.406C705.843 242.123 705.342 242.084 704.878 242.29C704.415 242.496 704.106 242.895 704.029 243.384C703.566 246.318 704.673 249.226 706.911 251.053C711.788 255.042 720.512 262.145 724.18 264.847C724.733 265.258 724.861 266.018 724.488 266.584C724.115 267.15 723.356 267.343 722.764 266.996C719.058 264.847 710.141 260.073 705.162 257.409C704.364 256.985 703.682 257.319 703.437 257.474C702.897 257.821 702.601 258.413 702.652 259.043L702.678 259.391C702.794 261.051 703.695 262.582 705.084 263.496L726.418 277.367C726.779 277.598 726.997 277.984 726.997 278.409L727.293 289.539L730.356 294.995C730.703 295.613 730.485 296.398 729.867 296.745C729.249 297.092 728.464 296.874 728.117 296.256L724.9 290.53C724.797 290.35 724.746 290.144 724.733 289.938L724.45 279.168L703.682 265.67C701.61 264.319 700.272 262.042 700.105 259.584L700.079 259.236C699.976 257.654 700.709 256.187 702.035 255.338C703.36 254.488 704.981 254.411 706.371 255.158C707.606 255.814 709.086 256.612 710.669 257.461C708.674 255.852 706.796 254.308 705.277 253.073C702.344 250.667 700.877 246.845 701.469 243.075C701.687 241.647 702.575 240.502 703.836 239.948C705.097 239.395 706.525 239.524 707.671 240.283L719.753 248.338L708.52 237.645C706.513 235.728 705.985 232.768 707.233 230.285L707.748 229.243C708.275 228.187 709.24 227.415 710.386 227.119C711.531 226.836 712.753 227.055 713.718 227.75L738.063 245.005L737.845 236.886L729.224 229.474C726.483 227.119 725.479 223.246 726.714 219.849C727.113 218.743 727.988 217.919 729.108 217.585C730.227 217.25 731.398 217.443 732.337 218.138L745.758 227.943C748.344 229.835 749.889 232.871 749.889 236.075V254.064L750.082 267.433C750.159 272.31 748.885 277.109 746.427 281.33L733.933 302.715C733.689 303.127 733.264 303.359 732.826 303.359L732.839 303.333Z" fill="#18292D"/>
<path d="M738.296 263.907C738.026 263.907 737.756 263.829 737.537 263.649L718.699 249.701C718.133 249.276 718.004 248.466 718.429 247.9C718.854 247.333 719.664 247.205 720.231 247.629L739.068 261.578C739.635 262.002 739.763 262.8 739.339 263.379C739.081 263.714 738.695 263.894 738.309 263.894L738.296 263.907Z" fill="#18292D"/>
<path d="M730.421 271.537C730.189 271.537 729.958 271.473 729.752 271.344L710.219 259.48C709.614 259.107 709.421 258.322 709.782 257.717C710.155 257.113 710.94 256.92 711.544 257.28L731.077 269.144C731.682 269.517 731.875 270.302 731.515 270.906C731.27 271.305 730.845 271.524 730.408 271.524L730.421 271.537Z" fill="#18292D"/>
<path d="M748.398 256.354C748.025 256.354 747.652 256.187 747.394 255.878L745.168 253.125C744.358 252.134 743.393 251.297 742.299 250.654L738.233 248.261C737.615 247.9 737.422 247.116 737.769 246.498C738.13 245.88 738.915 245.674 739.532 246.035L743.598 248.428C744.962 249.226 746.172 250.268 747.163 251.503L749.389 254.257C749.839 254.81 749.749 255.621 749.196 256.071C748.951 256.264 748.668 256.354 748.385 256.354H748.398Z" fill="#18292D"/>
<path d="M643.834 347.853C643.731 347.853 643.615 347.853 643.512 347.814C642.818 347.634 642.406 346.939 642.586 346.245L677.958 209.889C678.139 209.207 678.833 208.782 679.528 208.962C680.223 209.143 680.635 209.837 680.455 210.532L645.082 346.888C644.928 347.467 644.413 347.853 643.834 347.853Z" fill="white"/>
<path d="M657.525 344.418C657.422 344.418 657.319 344.418 657.203 344.38C656.508 344.199 656.096 343.505 656.276 342.823L689.937 209.89C690.118 209.195 690.812 208.783 691.494 208.963C692.189 209.143 692.601 209.838 692.421 210.52L658.76 343.453C658.605 344.032 658.091 344.418 657.512 344.418H657.525Z" fill="white"/>
<path d="M485.062 295.419L545.282 291.932L600.895 242.985L642.16 231.713L641.504 236.268C640.835 240.939 637.528 244.799 632.999 246.176L611.6 252.661L597.639 265.747L630.798 261.385L654.359 267.497L652.377 271.615C650.987 274.497 648.066 276.337 644.863 276.337L647.153 279.284L646.548 280.12C643.859 283.89 639.458 286.039 634.826 285.859L622.538 282.925L599.363 287.146L620.633 290.414L635.032 301.866L634.35 302.381C630.194 305.456 624.609 305.803 620.106 303.256L614.753 300.232L591.849 300.553L571.879 317.242L490.711 348.008L487.7 340.185C482.206 325.902 481.279 310.268 485.037 295.432L485.062 295.419Z" fill="white"/>
<path d="M490.724 349.295C490.209 349.295 489.72 348.986 489.527 348.471L486.516 340.648C480.893 326.031 479.954 310.294 483.801 295.11C483.943 294.57 484.419 294.171 484.972 294.145L544.754 290.684L600.033 242.019C600.187 241.891 600.354 241.801 600.547 241.749L641.813 230.477C642.225 230.362 642.675 230.477 643.01 230.748C643.331 231.031 643.499 231.468 643.434 231.893L642.778 236.448C642.045 241.595 638.352 245.892 633.372 247.398L612.27 253.793L601.448 263.945L630.644 260.098C630.811 260.072 630.979 260.098 631.133 260.124L654.693 266.236C655.066 266.339 655.375 266.596 655.543 266.944C655.71 267.291 655.697 267.69 655.543 268.037L653.561 272.155C652.326 274.728 649.984 276.594 647.282 277.302L648.195 278.473C648.543 278.923 648.556 279.554 648.221 280.017L647.616 280.853C644.67 284.984 639.883 287.351 634.8 287.132C634.723 287.132 634.633 287.12 634.556 287.094L622.525 284.224L607.161 287.017L620.865 289.127C621.084 289.166 621.29 289.256 621.47 289.397L635.868 300.849C636.177 301.094 636.357 301.48 636.357 301.878C636.357 302.277 636.151 302.651 635.83 302.895L635.135 303.397C630.58 306.768 624.429 307.154 619.488 304.362L614.431 301.505L592.325 301.827L572.715 318.22C572.599 318.31 572.484 318.387 572.342 318.439L491.174 349.205C491.02 349.256 490.866 349.282 490.724 349.282V349.295ZM486.066 296.654C482.618 311.027 483.596 325.902 488.91 339.721L491.458 346.361L571.223 316.123L591.025 299.575C591.257 299.382 591.54 299.279 591.836 299.279L614.74 298.958C614.972 298.958 615.19 299.009 615.396 299.125L620.749 302.149C624.571 304.298 629.254 304.156 632.909 301.827L620.119 291.649L599.183 288.432C598.566 288.342 598.103 287.802 598.09 287.184C598.09 286.553 598.527 286.013 599.145 285.897L622.319 281.677C622.499 281.638 622.679 281.651 622.847 281.69L635.006 284.598C639.214 284.713 643.087 282.783 645.506 279.399L645.545 279.335L643.846 277.147C643.55 276.761 643.486 276.234 643.705 275.796C643.923 275.359 644.374 275.076 644.863 275.076C647.552 275.076 650.048 273.506 651.206 271.087L652.506 268.385L630.696 262.736L597.781 267.072C597.228 267.149 596.687 266.853 596.443 266.352C596.198 265.85 596.314 265.245 596.726 264.859L610.687 251.773C610.828 251.631 611.009 251.541 611.189 251.477L632.587 244.992C636.615 243.769 639.587 240.295 640.192 236.139L640.565 233.514L601.474 244.194L546.093 292.949C545.874 293.142 545.604 293.244 545.32 293.27L486.053 296.706L486.066 296.654Z" fill="#18292D"/>
<path d="M644.876 277.624C644.76 277.624 644.631 277.611 644.515 277.572L624.198 271.692L594.821 276.774C594.114 276.89 593.457 276.427 593.329 275.732C593.213 275.037 593.676 274.368 594.371 274.24L624.043 269.105C624.236 269.067 624.429 269.08 624.622 269.131L645.223 275.102C645.905 275.295 646.304 276.015 646.098 276.697C645.931 277.263 645.416 277.624 644.863 277.624H644.876Z" fill="#18292D"/>
<path d="M521.401 163.927C525.223 169.241 527.487 175.25 529.443 179.406C539.711 201.229 544.421 207.328 558.536 205.077C567.196 203.7 566.604 197.922 565.896 189.288L551.807 177.631L521.388 163.927H521.401Z" fill="white"/>
<path d="M547.515 125.504L520.807 162.482L548.47 182.463L575.178 145.485L547.515 125.504Z" fill="white"/>
<path d="M548.486 183.755C548.229 183.755 547.958 183.678 547.74 183.511C547.161 183.099 547.032 182.289 547.456 181.709L573.41 145.784L547.83 127.306L521.876 163.232C521.464 163.811 520.654 163.94 520.075 163.515C519.496 163.103 519.367 162.293 519.792 161.714L546.504 124.746C546.916 124.167 547.727 124.038 548.306 124.462L575.971 144.446C576.241 144.651 576.434 144.947 576.485 145.282C576.537 145.616 576.46 145.964 576.254 146.247L549.541 183.215C549.284 183.562 548.898 183.743 548.499 183.743L548.486 183.755Z" fill="#18292D"/>
<path d="M530.034 148.704L545.822 126.842L571.827 145.628L562.473 164.453C551.87 161.88 534.975 159.255 530.034 148.704Z" fill="#18292D"/>
<path d="M598.746 88.5757L592.505 85.8993C574.8 78.3076 554.533 85.1788 544.857 101.237C541.64 99.8605 537.87 99.8218 534.46 101.443C528.181 104.454 525.53 111.982 528.541 118.261C530.124 121.555 532.942 123.832 536.172 124.836C534.267 141.731 543.467 158.574 559.899 165.613L564.853 167.736C578.711 173.668 594.757 167.247 600.689 153.389L613.106 124.411C619.038 110.553 612.617 94.5076 598.759 88.5757H598.746Z" fill="white"/>
<path d="M575.585 171.236C571.763 171.236 567.954 170.464 564.339 168.907L559.385 166.784C543.262 159.887 533.264 143.095 534.782 125.698C531.552 124.411 528.889 121.941 527.383 118.801C524.077 111.892 526.997 103.579 533.907 100.272C537.176 98.7024 540.907 98.4965 544.33 99.6417C554.637 83.5704 575.353 77.1367 593.02 84.7027L599.261 87.3791C606.273 90.3901 611.703 95.9359 614.547 103.026C617.378 110.116 617.288 117.875 614.29 124.9L601.873 153.878C598.875 160.891 593.316 166.321 586.226 169.164C582.79 170.541 579.2 171.223 575.598 171.223L575.585 171.236ZM539.878 101.495C538.205 101.495 536.545 101.868 535.014 102.601C529.391 105.303 526.997 112.072 529.7 117.695C531.076 120.551 533.508 122.649 536.545 123.601C537.137 123.781 537.51 124.36 537.446 124.978C535.567 141.615 544.999 157.828 560.401 164.429L565.355 166.552C571.737 169.28 578.814 169.37 585.261 166.784C591.708 164.197 596.764 159.269 599.505 152.874L611.922 123.897C614.65 117.515 614.74 110.437 612.154 103.991C609.567 97.5444 604.639 92.4875 598.244 89.7467L592.003 87.0703C575.186 79.8774 555.396 86.2339 545.964 101.881C545.629 102.434 544.947 102.653 544.356 102.395C542.927 101.778 541.409 101.482 539.891 101.482L539.878 101.495Z" fill="#18292D"/>
<path d="M585.724 83.0028L584.09 82.2951C569.382 75.9901 552.346 82.8098 546.041 97.5301L545.346 99.1643C544.921 100.168 545.269 101.365 546.208 101.918C548.331 103.14 550.133 104.993 551.278 107.374C553.131 111.247 552.835 115.583 550.853 119.057C549.541 121.361 552.732 123.561 554.469 121.566C554.804 121.193 555.087 120.769 555.318 120.293L558.754 113.499C559.063 112.881 559.642 112.456 560.311 112.328L561.803 112.045C565.702 111.298 569.202 109.175 571.66 106.061C571.724 105.984 571.789 105.894 571.84 105.804C572.676 104.44 579.921 92.6791 586.354 86.67C587.525 85.5763 587.217 83.6333 585.737 83.0028H585.724Z" fill="#18292D"/>
<path d="M603.12 158.239C602.413 158.239 601.718 158.188 601.01 158.072C597.42 157.518 594.28 155.601 592.132 152.667C589.996 149.734 589.121 146.157 589.674 142.567C590.227 138.977 592.145 135.837 595.078 133.688C598.012 131.552 601.602 130.677 605.179 131.23C608.769 131.784 611.922 133.701 614.058 136.635C616.194 139.568 617.069 143.146 616.515 146.736C615.962 150.326 614.045 153.478 611.111 155.614C608.756 157.325 605.99 158.239 603.133 158.239H603.12ZM603.069 133.649C600.753 133.649 598.501 134.383 596.597 135.773C594.229 137.51 592.672 140.057 592.222 142.965C591.771 145.873 592.479 148.781 594.216 151.149C597.793 156.052 604.69 157.12 609.593 153.542C611.96 151.805 613.517 149.258 613.968 146.35C614.418 143.442 613.71 140.533 611.973 138.166C610.236 135.798 607.688 134.241 604.78 133.791C604.201 133.701 603.635 133.662 603.069 133.662V133.649Z" fill="#FFC31F"/>
<path d="M578.261 144.058C577.553 144.058 576.845 144.007 576.151 143.891C572.561 143.338 569.408 141.421 567.272 138.487C565.136 135.553 564.261 131.976 564.814 128.386C565.368 124.796 567.285 121.643 570.219 119.507C573.152 117.371 576.73 116.496 580.32 117.05C583.91 117.603 587.049 119.52 589.198 122.454C591.334 125.388 592.209 128.965 591.656 132.555C591.102 136.145 589.185 139.285 586.251 141.433C583.897 143.145 581.13 144.058 578.274 144.058H578.261ZM578.209 119.469C575.893 119.469 573.641 120.202 571.737 121.592C569.369 123.329 567.812 125.877 567.362 128.785C566.912 131.693 567.619 134.601 569.357 136.968C571.094 139.336 573.641 140.893 576.549 141.343C579.457 141.794 582.365 141.086 584.733 139.349C587.101 137.612 588.658 135.064 589.108 132.156C589.558 129.248 588.851 126.34 587.114 123.972C585.376 121.605 582.829 120.048 579.921 119.597C579.342 119.507 578.775 119.469 578.209 119.469Z" fill="#FFC31F"/>
<path d="M569.228 123.407C569.035 123.407 568.829 123.355 568.649 123.265L552.397 114.927C551.767 114.606 551.509 113.834 551.844 113.19C552.179 112.547 552.951 112.302 553.581 112.637L569.833 120.975C570.463 121.297 570.72 122.069 570.386 122.712C570.154 123.162 569.704 123.407 569.241 123.407H569.228Z" fill="#FFC31F"/>
<path d="M594.396 137.626C594.229 137.626 594.049 137.587 593.882 137.523L589.803 135.76C589.146 135.477 588.851 134.718 589.134 134.074C589.417 133.418 590.176 133.122 590.819 133.405L594.898 135.168C595.554 135.451 595.85 136.21 595.567 136.854C595.361 137.343 594.885 137.626 594.384 137.626H594.396Z" fill="#FFC31F"/>
<path d="M580.693 133.521C579.741 135.336 579.921 137.304 581.079 137.909C582.237 138.514 583.948 137.523 584.888 135.709C585.84 133.895 585.66 131.926 584.502 131.321C583.344 130.716 581.632 131.707 580.693 133.521Z" fill="#18292D"/>
<path d="M595.915 141.64C594.963 143.454 595.143 145.423 596.301 146.027C597.459 146.632 599.17 145.641 600.11 143.827C601.062 142.013 600.882 140.044 599.724 139.439C598.566 138.835 596.854 139.825 595.915 141.64Z" fill="#18292D"/>
<path d="M580.667 157.493C580.667 157.493 580.538 157.493 580.474 157.48C578.042 157.107 573.371 154.971 573.178 149.489C573.153 148.782 573.706 148.177 574.414 148.164C575.096 148.1 575.726 148.692 575.739 149.399C575.906 154.096 580.641 154.906 580.847 154.932C581.542 155.048 582.031 155.704 581.915 156.399C581.812 157.03 581.272 157.493 580.641 157.493H580.667Z" fill="#18292D"/>
<path d="M591.463 119.688C591.129 119.688 590.781 119.559 590.537 119.289C590.485 119.238 585.531 114.155 579.844 115.39C579.162 115.545 578.467 115.094 578.313 114.4C578.158 113.705 578.609 113.023 579.303 112.868C586.432 111.324 592.171 117.256 592.402 117.501C592.891 118.015 592.866 118.826 592.364 119.315C592.119 119.547 591.798 119.675 591.476 119.675L591.463 119.688Z" fill="#18292D"/>
<path d="M613.376 134.216C612.952 134.216 612.553 134.01 612.295 133.637C609.04 128.67 603.378 128.735 603.134 128.76C602.452 128.786 601.834 128.22 601.821 127.512C601.808 126.804 602.362 126.213 603.069 126.187C603.378 126.187 610.391 126.045 614.444 132.234C614.83 132.826 614.663 133.624 614.071 134.01C613.852 134.152 613.608 134.216 613.363 134.216H613.376Z" fill="#18292D"/>
<path d="M544.111 121.567C543.879 121.567 543.635 121.502 543.416 121.361C542.811 120.975 542.644 120.177 543.017 119.585C543.043 119.534 545.964 114.901 544.973 110.977C544.561 109.317 543.519 108.043 541.795 107.065C541.177 106.718 540.958 105.933 541.306 105.315C541.653 104.698 542.438 104.479 543.056 104.826C545.398 106.152 546.89 108.017 547.469 110.372C548.717 115.377 545.32 120.756 545.179 120.988C544.934 121.374 544.523 121.58 544.098 121.58L544.111 121.567Z" fill="#18292D"/>
<path d="M565.02 84.3029C564.441 84.3029 563.914 83.904 563.772 83.3121C562.46 77.8564 568.019 73.9189 568.263 73.7517C568.855 73.3528 569.653 73.4943 570.052 74.0734C570.463 74.6524 570.309 75.463 569.73 75.8619C569.691 75.8877 565.381 78.963 566.269 82.7074C566.436 83.4022 566.011 84.0971 565.316 84.2643C565.213 84.2901 565.111 84.3029 565.02 84.3029Z" fill="#18292D"/>
<path d="M564.236 82.0511C563.708 82.0511 563.206 81.7165 563.026 81.1889C562.473 79.6063 561.276 79.6449 561.044 79.6706C560.362 79.7349 559.706 79.246 559.629 78.5383C559.552 77.8434 560.028 77.2129 560.723 77.11C561.907 76.9427 564.454 77.4059 565.471 80.3397C565.702 81.0088 565.355 81.7422 564.673 81.9739C564.532 82.0253 564.39 82.0511 564.248 82.0511H564.236Z" fill="#18292D"/>
<path d="M582.933 93.5689C596.044 93.5689 606.673 89.8819 606.673 85.3338C606.673 80.7856 596.044 77.0986 582.933 77.0986C569.821 77.0986 559.192 80.7856 559.192 85.3338C559.192 89.8819 569.821 93.5689 582.933 93.5689Z" fill="#18292D"/>
<path d="M561.675 187.667C561.444 187.667 561.212 187.603 560.993 187.474L551.87 181.774C551.266 181.401 551.085 180.603 551.459 179.998C551.832 179.394 552.63 179.213 553.234 179.587L562.357 185.287C562.962 185.66 563.142 186.458 562.769 187.063C562.525 187.449 562.1 187.667 561.675 187.667Z" fill="#18292D"/>
<path d="M471.257 297.066C471.051 297.066 470.845 297.014 470.652 296.911C470.021 296.577 469.777 295.805 470.111 295.174L494.933 248.105C495.267 247.475 496.039 247.23 496.67 247.565C497.3 247.9 497.545 248.672 497.21 249.302L472.389 296.371C472.157 296.809 471.707 297.053 471.244 297.053L471.257 297.066Z" fill="white"/>
<path d="M776.422 347.101H815.443C820.096 347.101 823.854 343.331 823.854 338.69V292.865C823.854 289.583 824.681 286.345 826.288 283.481C827.273 281.726 828.62 279.734 830.443 277.753C833.771 274.153 838.537 270.814 838.537 270.814C839.51 269.591 838.639 267.791 837.076 267.791H771.826C769.721 267.791 768 269.5 768 271.606V338.679C768 343.331 771.77 347.09 776.411 347.09L776.422 347.101Z" fill="white" stroke="#18292D" stroke-width="1.64545" stroke-linecap="round" stroke-linejoin="round"/>
<path d="M825.066 286.142H808.73" stroke="#18292D" stroke-width="1.64545" stroke-linecap="round" stroke-linejoin="round"/>
<path d="M815.443 347.101H776.422L776.411 347.089C771.77 347.089 768 343.331 768 338.678V294C769.382 293.75 772.946 293.5 780.146 297.5C784.146 300.167 791.246 306.2 799.646 301C804.452 297.833 819.013 290.7 823.646 297.5L823.854 338.69C823.854 343.331 820.096 347.101 815.443 347.101Z" fill="#96D8E8" stroke="#18292D" stroke-width="1.64545" stroke-linecap="round" stroke-linejoin="round"/>
<path d="M823.866 300.609H808.73" stroke="#18292D" stroke-width="1.64545" stroke-linecap="round" stroke-linejoin="round"/>
<rect x="775.646" y="284" width="28" height="23" rx="3" fill="#FFC31F"/>
<path d="M823.866 315.087H808.73" stroke="#18292D" stroke-width="1.64545" stroke-linecap="round" stroke-linejoin="round"/>
<path d="M823.866 329.555H808.73" stroke="#18292D" stroke-width="1.64545" stroke-linecap="round" stroke-linejoin="round"/>
<path d="M823.646 297.5C820.646 295 819.146 294.617 816.69 294.617C810.146 293.021 800.129 301.823 792.646 301.517C785.164 301.212 775.646 292.518 768.646 293.021" stroke="#18292D" stroke-width="1.7" stroke-linecap="round" stroke-linejoin="round"/>
<path d="M788.749 256.122C789.031 255.959 789.489 255.959 789.771 256.122L792.66 257.788C792.942 257.951 792.942 258.215 792.66 258.378C792.378 258.541 791.92 258.541 791.638 258.378L789.981 257.422V279.667C789.981 279.898 789.658 280.084 789.259 280.084C788.86 280.084 788.537 279.898 788.537 279.667V257.422L786.88 258.378C786.598 258.541 786.14 258.541 785.858 258.378C785.576 258.215 785.576 257.951 785.858 257.788L788.747 256.122H788.749Z" fill="#18292D"/>
<path d="M788.749 336.046C789.031 336.209 789.489 336.209 789.771 336.046L792.66 334.38C792.942 334.217 792.942 333.953 792.66 333.79C792.378 333.627 791.92 333.627 791.638 333.79L789.981 334.746V312.501C789.981 312.27 789.658 312.084 789.259 312.084C788.86 312.084 788.537 312.27 788.537 312.501V334.746L786.88 333.79C786.598 333.627 786.14 333.627 785.858 333.79C785.576 333.953 785.576 334.217 785.858 334.38L788.747 336.046H788.749Z" fill="#18292D"/>
<defs>
<clipPath id="clip0_711_9594">
<rect width="47.4537" height="62" fill="white" transform="translate(159 156)"/>
</clipPath>
<clipPath id="clip1_711_9594">
<rect width="67" height="57.3198" fill="white" transform="translate(1085 183)"/>
</clipPath>
</defs>
</svg>
