<svg width="1300" height="400" viewBox="0 0 1300 400" fill="none" xmlns="http://www.w3.org/2000/svg">
<path d="M550.678 363C821.02 363 1040.17 369.268 1040.17 377C1040.17 384.732 821.02 391 550.678 391C280.337 391 61.1823 384.732 61.1823 377C61.1823 369.268 280.337 363 550.678 363Z" fill="#BACCED"/>
<path opacity="0.9" d="M617.458 121.889C591.458 121.789 527.481 109.89 505.319 86.8617C471.358 51.5756 440.399 29 384.212 29C281.947 29 198.132 104.546 199.04 195.869C199.941 286.51 282.5 359.741 384.212 359.741C404.444 359.741 423.917 356.843 442.14 351.488C479.969 340.369 521.049 343.229 556.915 358.686C575.227 366.578 595.764 371.002 617.458 371.002C694.892 371.002 757.589 314.65 756.927 245.362C756.275 176.802 694.232 122.184 617.458 121.889Z" fill="#F2F7F8"/>
<path d="M243 217.5C241.663 216.957 229.888 223.861 228.481 224.068C223.587 224.791 218.581 224.605 213.678 224.372C198.145 223.636 184.101 218.605 172.458 208.21C163.944 200.609 153.151 184.507 160.878 172.956C166.678 164.285 173.657 165.654 180.777 171.005C187.059 175.726 184.526 182.165 179.582 187.365C175.009 192.174 171.925 193.202 165.596 193.482C151.997 194.084 140.82 191.777 128.503 186.022C125.305 184.528 111.095 179.563 111.262 175.134" stroke="black" stroke-width="2" stroke-linecap="round" stroke-linejoin="round" stroke-dasharray="6 6"/>
<g clip-path="url(#clip0_735_70322)">
<path d="M666.939 9H667.075C669.337 9 671.173 10.8779 671.173 13.1921V30.685H662.841V13.1921C662.841 10.8779 664.676 9 666.939 9Z" fill="#4A7C88"/>
<path opacity="0.3" d="M671.171 27.5967H662.839V30.6852H671.171V27.5967Z" fill="white"/>
<path d="M736.857 30.6851H653.415V367H736.857V30.6851Z" fill="#4A7C88"/>
<path d="M695.136 113.681C679.972 113.681 667.633 101.06 667.633 85.5468C667.633 70.0336 679.97 57.4106 695.136 57.4106C710.302 57.4106 722.639 70.0319 722.639 85.5468C722.639 101.062 710.302 113.681 695.136 113.681ZM695.136 59.2765C680.977 59.2765 669.457 71.0614 669.457 85.5468C669.457 100.032 680.977 111.817 695.136 111.817C709.295 111.817 720.815 100.032 720.815 85.5468C720.815 71.0614 709.295 59.2765 695.136 59.2765Z" fill="#FEFEFE"/>
<path d="M694.403 89.5682L691.158 106.701L710.312 83.2516H698.381L704.764 67.5107H691.996L685.192 89.6751L694.403 89.5682Z" fill="#FEFEFF"/>
</g>
<path d="M460.545 86H241.927V379H460.545V86Z" fill="#7CCFE3"/>
<path opacity="0.2" d="M460.545 156.445H241.927V163.275H460.545V156.445Z" fill="#FEFEFF"/>
<path d="M345.804 262.014H176.047V379H345.804V262.014Z" fill="#4A7C88"/>
<path d="M345.804 319.974H176.047V325.664H345.804V319.974Z" fill="#F5F5F5"/>
<path d="M345.804 298.994H176.047V304.684H345.804V298.994Z" fill="#F5F5F5"/>
<path d="M699.95 146.447H345.804V378.997H699.95V146.447Z" fill="#3DA1B9"/>
<g opacity="0.7">
<path d="M438.154 191.101H385.265V235.692H438.154V191.101Z" fill="#7CCFE3"/>
<path d="M512.084 191.101H459.196V235.692H512.084V191.101Z" fill="#7CCFE3"/>
<path d="M586.015 191.101H533.126V235.692H586.015V191.101Z" fill="#7CCFE3"/>
<path d="M659.948 191.101H607.06V235.692H659.948V191.101Z" fill="#7CCFE3"/>
<path d="M438.154 246.35H385.265V290.941H438.154V246.35Z" fill="#7CCFE3"/>
<path d="M512.084 246.35H459.196V290.941H512.084V246.35Z" fill="#7CCFE3"/>
<path d="M586.015 246.35H533.126V290.941H586.015V246.35Z" fill="#7CCFE3"/>
<path d="M659.948 246.35H607.06V290.941H659.948V246.35Z" fill="#7CCFE3"/>
<path d="M438.691 301.599H385.803V346.19H438.691V301.599Z" fill="#7CCFE3"/>
<path d="M512.625 301.599H459.736V346.19H512.625V301.599Z" fill="#7CCFE3"/>
<path d="M586.555 301.599H533.666V346.19H586.555V301.599Z" fill="#7CCFE3"/>
<path d="M660.486 301.599H607.597V346.19H660.486V301.599Z" fill="#7CCFE3"/>
</g>
<path d="M880.456 200.497H699.947V379H880.456V200.497Z" fill="#7CCFE3"/>
<g opacity="0.8">
<path d="M746.901 247.196H732.843V276.828H746.901V247.196Z" fill="white"/>
<path d="M782.047 247.196H767.989V276.828H782.047V247.196Z" fill="white"/>
<path d="M817.194 247.196H803.136V276.828H817.194V247.196Z" fill="white"/>
<path d="M852.339 247.196H838.281V276.828H852.339V247.196Z" fill="white"/>
<path d="M746.902 304.091H732.843V333.722H746.902V304.091Z" fill="white"/>
<path d="M782.047 304.091H767.989V333.722H782.047V304.091Z" fill="white"/>
<path d="M817.194 304.091H803.136V333.722H817.194V304.091Z" fill="white"/>
<path d="M852.339 304.091H838.281V333.722H852.339V304.091Z" fill="white"/>
</g>
<g clip-path="url(#clip1_735_70322)">
<path d="M918.458 345.351C923.888 338.004 930.408 334.718 943.231 336.455C956.054 338.197 962.111 365.486 973.844 363.556C985.581 361.622 991.813 369.81 989.085 379H885.739C885.739 379 881.971 377.364 882.022 372.298C882.053 369.176 885.6 359.068 895.238 357.502C895.424 357.47 913.021 352.702 918.454 345.355L918.458 345.351Z" fill="#91DBA3"/>
</g>
<g clip-path="url(#clip2_735_70322)">
<path opacity="0.85" d="M797.8 100C797.8 100 779.903 84.4645 797.8 76.6375C821.018 66.483 837.961 88.55 849.534 82.1332C861.108 75.7203 855.319 63.1237 886.973 59C886.973 59 906.372 59 921.69 71.3673C937.004 83.7345 955.725 82.3625 948.237 100H797.8Z" fill="#E7E6E6"/>
</g>
<g clip-path="url(#clip3_735_70322)">
<path opacity="0.85" d="M1091.31 163C1091.31 163 1076.67 148.599 1091.31 141.348C1110.31 131.935 1124.17 152.384 1133.64 146.445C1143.11 140.5 1138.38 128.823 1164.28 125.006C1164.28 125.006 1180.15 125.006 1192.68 136.47C1205.21 147.933 1220.53 146.659 1214.4 163.006H1091.31V163Z" fill="white"/>
</g>
<g clip-path="url(#clip4_735_70322)">
<path d="M925.013 379H897.027L904.956 187.691C905.099 184.221 907.875 181.482 911.251 181.482C914.632 181.482 917.41 184.229 917.546 187.707L925.013 379Z" fill="#4A7C88"/>
<path d="M917.224 171.428C917.78 167.903 915.454 164.581 912.029 164.009C908.604 163.437 905.377 165.831 904.821 169.356C904.265 172.881 906.591 176.203 910.016 176.775C913.441 177.347 916.668 174.953 917.224 171.428Z" fill="#FFBE0A"/>
<path d="M909.114 164.606C908.738 164.606 908.371 164.642 908.013 164.709C906.061 165.805 904.737 167.937 904.737 170.387C904.737 173.959 907.549 176.854 911.02 176.854C911.396 176.854 911.763 176.818 912.121 176.752C914.073 175.656 915.397 173.524 915.397 171.073C915.397 167.501 912.585 164.606 909.114 164.606Z" fill="#FFC31F"/>
<path d="M985.081 218.189C986.888 215.506 973.607 202.811 955.416 189.832C937.226 176.854 921.015 168.508 919.208 171.19C917.402 173.873 930.683 186.568 948.873 199.547C967.064 212.525 983.274 220.871 985.081 218.189Z" fill="#4A7C88"/>
<path opacity="0.4" d="M955.413 189.823C937.382 176.96 921.3 168.65 919.259 171.117C919.273 171.1 919.285 171.082 919.299 171.067C925.574 172.824 938.658 180.239 952.924 190.417C970.003 202.599 982.887 214.54 983.664 218.677C984.361 218.688 984.845 218.527 985.08 218.177C986.886 215.495 973.603 202.802 955.413 189.823Z" fill="#5473BB"/>
<path d="M911.188 162.496C914.359 162.496 916.93 144.028 916.93 121.248C916.93 98.4673 914.359 80 911.188 80C908.017 80 905.446 98.4673 905.446 121.248C905.446 144.028 908.017 162.496 911.188 162.496Z" fill="#4A7C88"/>
<path opacity="0.4" d="M911.188 80C910.518 80 909.874 80.8294 909.274 82.3486C909.592 81.5421 909.922 80.9294 910.263 80.5335C912.632 86.2123 914.359 103.822 914.359 124.67C914.359 140.103 913.413 153.764 911.959 162.123C911.838 162.241 911.712 162.331 911.589 162.393C914.573 160.914 916.928 143.058 916.928 121.248C916.928 99.4371 914.361 80 911.188 80Z" fill="#5473BB"/>
<path d="M873.173 199.531C891.364 186.553 904.645 173.857 902.838 171.175C901.032 168.492 884.821 176.838 866.63 189.817C848.44 202.795 835.159 215.491 836.965 218.173C838.772 220.856 854.983 212.509 873.173 199.531Z" fill="#4A7C88"/>
<path opacity="0.4" d="M915.683 189.516C915.944 196.354 919.497 353.357 920.077 379H925.011L917.544 187.707C917.408 184.229 914.63 181.482 911.249 181.482C911.249 181.482 915.397 182.07 915.683 189.516Z" fill="#5473BB"/>
</g>
<path d="M1195.37 289.228C1236.14 247.212 1236.14 179.092 1195.37 137.076C1154.61 95.0604 1088.51 95.0604 1047.75 137.076C1006.98 179.092 1006.98 247.212 1047.75 289.228C1088.51 331.243 1154.61 331.243 1195.37 289.228Z" fill="#F2F7F8"/>
<path d="M1134.91 169.796C1130.04 168.875 1127.64 171.138 1126.48 173.197C1126.32 173.485 1126.18 173.781 1126.05 174.085C1125.06 164.096 1121.67 157.326 1115.93 153.921C1110.94 150.962 1104.06 150.616 1096.05 152.92C1090.04 154.646 1085.43 157.284 1085.39 157.311C1085.25 157.391 1085.15 157.533 1085.13 157.696C1084.95 158.913 1080.8 187.635 1085.41 200.58C1090.03 213.542 1091.47 217.649 1091.47 217.65C1091.52 217.793 1091.63 217.908 1091.77 217.964C1091.86 218.001 1097.58 220.188 1106.05 217.84L1107.96 229.544C1107.98 229.703 1108.08 229.841 1108.22 229.92C1108.39 230.024 1111.03 231.431 1118 229.272C1122.9 227.751 1129.96 224.458 1139.81 217.685C1140 217.56 1140.08 217.332 1140.03 217.114L1133.78 191.251C1137.25 190.482 1140.3 186.765 1141.07 181.891C1142.02 175.94 1139.31 170.627 1134.91 169.795L1134.91 169.796Z" fill="white"/>
<path d="M1120.03 140.716C1115.75 142.044 1112.28 144.826 1109.97 148.382C1122.59 148.12 1134.47 156.795 1138.4 170.266C1138.57 170.86 1138.72 171.455 1138.86 172.05C1143.23 167.245 1145.07 160.256 1143.1 153.5C1140.16 143.403 1129.83 137.68 1120.03 140.717V140.716Z" fill="#18292D"/>
<path d="M1129.5 184.911L1140.17 180.987L1142.68 166.743C1143.92 159.703 1141.28 152.528 1135.81 148.122C1129.72 143.218 1122.47 137.743 1121 138.2C1119.33 138.717 1098.92 141.879 1086.51 145.001C1079.53 146.757 1075.26 154.011 1076.96 161.204L1083.17 175.523L1085.44 157.1C1085.44 157.1 1099.95 165.893 1117.95 158.837L1129.5 184.913V184.911Z" fill="#18292D"/>
<path d="M1109.06 181.863C1111.96 178.872 1111.96 174.023 1109.06 171.033C1106.16 168.042 1101.45 168.042 1098.55 171.033C1095.65 174.023 1095.65 178.872 1098.55 181.863C1101.45 184.854 1106.16 184.854 1109.06 181.863Z" stroke="#FFC31F" stroke-width="1.5" stroke-linecap="round" stroke-linejoin="round"/>
<path d="M1104.05 195.694C1103.66 197.886 1097.07 198.78 1097.07 198.78" stroke="#18292D" stroke-width="1.5" stroke-linecap="round" stroke-linejoin="round"/>
<path d="M1131.56 190.797C1135.63 191.485 1139.66 187.46 1140.56 181.805C1141.46 176.15 1138.89 171.009 1134.82 170.319C1130.75 169.631 1126.72 173.657 1125.82 179.311" fill="white"/>
<path d="M1131.56 190.797C1135.63 191.485 1139.66 187.46 1140.56 181.805C1141.46 176.15 1138.89 171.009 1134.82 170.319C1130.75 169.631 1126.72 173.657 1125.82 179.311" stroke="#18292D" stroke-width="1.5" stroke-linecap="round" stroke-linejoin="round"/>
<path d="M1095.18 175.861L1090.28 177.38" stroke="#FFC31F" stroke-width="1.5" stroke-linecap="round" stroke-linejoin="round"/>
<path d="M1101.85 175.699C1102.28 177.164 1103.24 178.162 1103.99 177.927C1104.75 177.693 1105.02 176.316 1104.59 174.851C1104.16 173.387 1103.2 172.389 1102.45 172.624C1101.69 172.858 1101.42 174.235 1101.85 175.699Z" fill="#18292D"/>
<path d="M1085.49 178.556C1085.92 180.021 1086.88 181.018 1087.64 180.784C1088.39 180.549 1088.66 179.173 1088.23 177.708C1087.8 176.243 1086.84 175.245 1086.09 175.48C1085.33 175.715 1085.06 177.091 1085.49 178.556Z" fill="#18292D"/>
<path d="M1126.91 175.251L1110.92 174.241" stroke="#FFC31F" stroke-width="1.5" stroke-linecap="round" stroke-linejoin="round"/>
<path d="M1085.64 157.776C1085.64 157.776 1081.28 187.431 1085.9 200.397C1090.52 213.363 1091.95 217.47 1091.95 217.47C1091.95 217.47 1106.44 223.318 1123.82 206.362" stroke="#18292D" stroke-width="1.5" stroke-linecap="round" stroke-linejoin="round"/>
<path d="M1133.22 191.14L1139.53 217.243" stroke="#18292D" stroke-width="1.5" stroke-linecap="round" stroke-linejoin="round"/>
<path d="M1106.5 217.391L1108.47 229.456" stroke="#18292D" stroke-width="1.5" stroke-linecap="round" stroke-linejoin="round"/>
<path d="M1090.65 176.327C1089.02 173.191 1085.41 171.567 1081.97 172.633C1078.04 173.852 1075.82 178.122 1077 182.173C1078.18 186.224 1082.32 188.519 1086.26 187.301C1087.24 186.997 1088.11 186.501 1088.86 185.867" stroke="#FFC31F" stroke-width="1.5" stroke-linecap="round" stroke-linejoin="round"/>
<path d="M1091.4 171.373C1091.4 171.373 1089.5 188.204 1088.91 189.862C1088.32 191.522 1095.42 193.752 1095.42 193.752" stroke="#18292D" stroke-width="1.5" stroke-linecap="round" stroke-linejoin="round"/>
<path d="M1145.09 239.852L1114.96 249.192C1112.4 249.986 1109.69 248.489 1108.92 245.847L1104.31 230.054C1103.54 227.412 1104.99 224.627 1107.56 223.832L1137.68 214.492C1140.25 213.697 1142.95 215.194 1143.72 217.836L1148.33 233.629C1149.1 236.271 1147.65 239.058 1145.09 239.852Z" fill="#18292D"/>
<path d="M1081.14 311.5C1108.55 325.286 1138.68 321.32 1163.41 311.5C1192.83 303.592 1211.58 267.564 1211.58 267.564L1203.56 236.913C1197.3 221.734 1176.4 216.358 1156.89 224.904L1088.46 254.872C1073.86 261.264 1063.64 273.978 1062.74 286.871L1068.35 296.562C1068.35 296.562 1073.21 307.512 1081.14 311.5Z" fill="#18292D"/>
<path d="M997.768 211.389L982.904 225.164L984.211 226.662C986.603 229.404 990.698 229.628 993.359 227.162L1002.11 219.049L997.768 211.389Z" fill="white" stroke="#18292D" stroke-width="1.5" stroke-linecap="round" stroke-linejoin="round"/>
<path d="M995.894 210.876L976.637 216.402L977.162 218.343C978.122 221.894 981.694 223.972 985.141 222.983L996.481 219.728L995.894 210.875V210.876Z" fill="white" stroke="#18292D" stroke-width="1.5" stroke-linecap="round" stroke-linejoin="round"/>
<path d="M1015.75 270.181L996.819 244.637C992.552 239.747 990.344 233.308 990.682 226.74L991.962 201.918L975.317 201.007C971.442 200.795 968.469 197.386 968.674 193.393L968.787 191.211L1002.41 193.051L1022.04 207.854L1027.71 243.343L1041.5 263.004" fill="white"/>
<path d="M1015.75 270.181L996.819 244.637C992.552 239.747 990.344 233.308 990.682 226.74L991.962 201.918L975.317 201.007C971.442 200.795 968.469 197.386 968.674 193.393L968.787 191.211L1002.41 193.051L1022.04 207.854L1027.71 243.343L1041.5 263.004" stroke="#18292D" stroke-width="1.5" stroke-linecap="round" stroke-linejoin="round"/>
<path d="M993.998 207.806L974.037 206.714L973.933 208.726C973.743 212.408 976.485 215.552 980.058 215.747L991.814 216.391L993.998 207.807V207.806Z" fill="white" stroke="#18292D" stroke-width="1.5" stroke-linecap="round" stroke-linejoin="round"/>
<path d="M1038.05 203.731L967.385 200.421L955.763 205.196L966.303 211.008L1036.97 214.318L1037.13 214.065C1039.13 211.006 1039.47 207.112 1038.05 203.731H1038.05Z" fill="#18292D"/>
<path d="M1034.29 203.891L1033.55 213.862" stroke="white" stroke-width="1.0101" stroke-linecap="round" stroke-linejoin="round"/>
<path d="M960.859 203.101L955.762 205.194L960.613 207.87L960.859 203.101Z" fill="#18292D"/>
<path d="M1004.14 219.96L985.081 198.11L984.978 198.219C981.707 201.716 981.281 207.106 983.959 211.103L990.965 222.979" fill="white"/>
<path d="M1004.14 219.96L985.081 198.11L984.978 198.219C981.707 201.716 981.281 207.106 983.959 211.103L990.965 222.979" stroke="#18292D" stroke-width="1.5" stroke-linecap="round" stroke-linejoin="round"/>
<path d="M1009.34 276.141L1034.79 342.899C1040.77 358.572 1060.44 362.675 1071.86 350.629L1119.5 300.376L1068.7 270.482L1059.5 286.772L1038.4 251.188L1009.33 276.141H1009.34Z" fill="#18292D"/>
<path d="M1127.27 315.853L1134.81 315.342L1129.62 310.507C1127.61 308.64 1125.02 307.581 1122.32 307.526C1119.91 307.477 1118.74 308.443 1117.19 311.539L1109.7 327.861L1113.33 328.296C1115.91 328.607 1118.47 327.503 1120.07 325.387L1127.27 315.853Z" fill="white" stroke="#18292D" stroke-width="1.5" stroke-linecap="round" stroke-linejoin="round"/>
<path d="M1137.19 315.18L1144.73 314.668L1139.54 309.834C1137.53 307.966 1134.94 306.907 1132.24 306.852C1129.83 306.803 1127.71 308.464 1127.11 310.866L1121.68 331.359L1126.66 331.284C1129.24 331.246 1131.56 329.649 1132.58 327.208L1137.19 315.181V315.18Z" fill="white" stroke="#18292D" stroke-width="1.5" stroke-linecap="round" stroke-linejoin="round"/>
<path d="M1147.11 314.506L1154.66 313.994L1149.46 309.16C1147.46 307.292 1144.86 306.233 1142.16 306.178C1139.75 306.13 1137.63 307.791 1137.03 310.192L1132.14 328.937L1137.12 328.862C1139.7 328.824 1142.02 327.227 1143.04 324.786L1147.11 314.506Z" fill="white" stroke="#18292D" stroke-width="1.5" stroke-linecap="round" stroke-linejoin="round"/>
<path d="M1156.54 313.867L1162.88 311.243L1158.89 308.521C1156.88 306.654 1154.29 305.595 1151.59 305.54C1149.18 305.491 1147.06 307.152 1146.46 309.553L1142.39 325.807L1147.38 325.732C1149.96 325.694 1152.27 324.097 1153.29 321.655L1156.54 313.868V313.867Z" fill="white" stroke="#18292D" stroke-width="1.5" stroke-linecap="round" stroke-linejoin="round"/>
<path d="M654 121C643.39 120.936 638.991 126.026 627.443 140.427C615.417 155.425 613.978 131.776 595.572 129.797C595.38 129.774 595.189 129.756 594.998 129.738C583.541 128.664 574.183 135.601 571 146H654V121Z" fill="#8CD299"/>
<path d="M139.139 134.5C139.139 165.442 114.806 190.5 84.8197 190.5C54.8339 190.5 30.5 165.442 30.5 134.5C30.5 103.558 54.8339 78.5 84.8197 78.5C114.806 78.5 139.139 103.558 139.139 134.5Z" fill="white" stroke="#18292D"/>
<path d="M102.87 146.244L94.8573 131.94L102.488 130.357C102.916 130.265 103.303 130.025 103.577 129.675L107.87 124.195L113.969 135.083C114.481 135.999 114.83 137.007 114.956 138.058C115.156 139.742 114.979 142.117 113.019 143.926C110.985 145.803 108.368 146.076 106.874 146.23L102.87 146.249V146.244Z" fill="#18292D" stroke="#18292D" stroke-width="1.5" stroke-linecap="round" stroke-linejoin="round"/>
<path d="M114.16 142.507L104.16 158.251C103.2 159.748 101.566 160.64 99.8297 160.616L93.0137 160.53L92.8461 166.154L85.6343 153.332L92.8507 139.565L92.86 146.058C92.86 146.058 105.37 146.374 106.864 146.226C108.359 146.077 110.975 145.799 113.01 143.922L114.151 142.507H114.16Z" fill="#FFC31F" stroke="#18292D" stroke-width="1.5" stroke-linecap="round" stroke-linejoin="round"/>
<path d="M85.3363 112.757L77.3704 127.085L72.2072 121.082C71.9185 120.746 71.5181 120.521 71.0851 120.454L64.3297 119.384L70.3961 108.477C70.9082 107.56 71.5786 106.745 72.3934 106.102C73.7063 105.075 75.7874 104.038 78.2875 104.878C80.8808 105.747 82.4311 107.939 83.3064 109.197L85.3363 112.757Z" fill="#18292D" stroke="#18292D" stroke-width="1.5" stroke-linecap="round" stroke-linejoin="round"/>
<path d="M76.523 104.57L94.7595 105.564C96.4961 105.664 98.0651 106.672 98.9218 108.232L102.274 114.345L107.074 111.667L99.946 124.537L84.7683 125.031L90.2062 121.758C90.2062 121.758 84.1817 110.453 83.3018 109.196C82.4265 107.939 80.8761 105.746 78.2829 104.877L76.5184 104.57H76.523Z" fill="#FFC31F" stroke="#18292D" stroke-width="1.5" stroke-linecap="round" stroke-linejoin="round"/>
<path d="M65.6751 145.323L81.7001 145.223L79.2605 152.843C79.1209 153.27 79.1348 153.735 79.2978 154.157L81.7932 160.712L69.5952 160.789C68.571 160.794 67.5467 160.606 66.6016 160.203C65.0792 159.551 63.1657 158.217 62.6116 155.563C62.0343 152.814 63.0958 150.333 63.7104 148.922L65.6751 145.323Z" fill="#18292D" stroke="#18292D" stroke-width="1.5" stroke-linecap="round" stroke-linejoin="round"/>
<path d="M63.2402 157.287L54.9111 140.54C54.1243 138.942 54.1801 137.037 55.0601 135.487L58.5053 129.427L53.8403 126.5L68.2172 126.385L76.2576 139.662L70.7778 136.461C70.7778 136.461 64.3203 147.512 63.7104 148.923C63.0959 150.334 62.0344 152.819 62.6117 155.564L63.2402 157.287Z" fill="#FFC31F" stroke="#18292D" stroke-width="1.5" stroke-linecap="round" stroke-linejoin="round"/>
<defs>
<clipPath id="clip0_735_70322">
<rect width="83.4424" height="358" fill="white" transform="translate(653.415 9)"/>
</clipPath>
<clipPath id="clip1_735_70322">
<rect width="107.699" height="43" fill="white" transform="matrix(-1 0 0 1 989.721 336)"/>
</clipPath>
<clipPath id="clip2_735_70322">
<rect width="160.093" height="41" fill="white" transform="translate(789.848 59)"/>
</clipPath>
<clipPath id="clip3_735_70322">
<rect width="130.985" height="38" fill="white" transform="translate(1084.81 125)"/>
</clipPath>
<clipPath id="clip4_735_70322">
<rect width="148.45" height="299" fill="white" transform="translate(836.794 80)"/>
</clipPath>
</defs>
</svg>
