<svg width="450" height="220" viewBox="0 0 450 220" fill="none" xmlns="http://www.w3.org/2000/svg">
<rect width="450" height="220" fill="white"/>
<mask id="mask0_564_47376" style="mask-type:alpha" maskUnits="userSpaceOnUse" x="115" y="0" width="220" height="220">
<rect x="115" width="220" height="220" fill="#D9D9D9"/>
</mask>
<g mask="url(#mask0_564_47376)">
<path d="M215.184 47.3512C240.136 45.3919 264.093 53.4901 281.041 64.5174C298.157 75.7633 308.257 89.9404 309.36 105.091C310.471 120.388 302.798 134.916 291.43 149.267C279.908 163.401 264.691 177.36 247.251 186.407C213.542 205.323 174.918 190.011 156.507 144.294C138.076 98.8664 163.877 49.9608 215.184 47.3512Z" fill="#EEF9FB"/>
<path d="M320.262 199.037L301.733 139.514C300.92 136.73 299.222 134.29 296.89 132.563L272.087 114.171L241.778 95.9873L133.619 182.768L129.791 199.037H320.262Z" fill="white"/>
<path d="M320.262 199.757C319.953 199.757 319.672 199.563 319.571 199.253L301.042 139.73C300.272 137.104 298.646 134.765 296.459 133.146L271.655 114.754L241.836 96.8653L134.267 183.178L130.496 199.21C130.403 199.599 130.014 199.836 129.633 199.743C129.244 199.649 129.007 199.261 129.1 198.879L132.929 182.61C132.965 182.451 133.051 182.315 133.18 182.214L241.325 95.4261C241.563 95.2391 241.886 95.2175 242.145 95.3686L272.454 113.552L297.322 131.988C299.762 133.801 301.575 136.399 302.424 139.313L320.946 198.822C321.061 199.203 320.852 199.606 320.471 199.721C320.399 199.743 320.327 199.757 320.255 199.757H320.262Z" fill="#18292D"/>
<path d="M246.881 100.456L263.791 122.151L277.218 85.8123L252.875 79.2498L246.881 100.456Z" fill="white"/>
<path d="M263.79 122.87C263.567 122.87 263.359 122.77 263.222 122.59L246.312 100.895C246.168 100.715 246.125 100.477 246.189 100.254L252.184 79.0557C252.291 78.6743 252.687 78.4512 253.061 78.5592L277.405 85.1217C277.599 85.1721 277.764 85.3088 277.858 85.4887C277.951 85.6686 277.966 85.8772 277.894 86.0715L264.467 122.41C264.373 122.655 264.157 122.835 263.898 122.87C263.862 122.87 263.826 122.878 263.79 122.878V122.87ZM247.672 100.297L263.56 120.683L276.26 86.2946L253.364 80.1207L247.665 100.29L247.672 100.297Z" fill="#18292D"/>
<path d="M280.924 36.3778C277.671 35.1905 274.21 35.8165 271.648 37.7378L268.461 36.5793C264.489 35.1329 260.106 37.1765 258.66 41.1486L252.198 58.9004L257.257 60.7425L259.883 53.5252C260.898 50.7333 263.992 49.2941 266.777 50.3087L269.727 51.3809L265.057 49.6827L268.151 50.8052C273.275 52.6689 278.938 50.0353 280.801 44.9047L283.557 37.3348L280.938 36.3778H280.924Z" fill="#18292D"/>
<path d="M257.351 68.2624C256.466 70.6946 253.774 71.9394 251.335 71.0472L250.968 70.9176C248.543 70.0326 247.284 67.3558 248.169 64.9236L250.112 59.5844C250.99 57.1666 253.688 55.9145 256.106 56.7924L256.473 56.9219C258.279 57.5768 259.43 59.2246 259.56 61.0091L257.344 68.2624H257.351Z" fill="white"/>
<path d="M252.947 72.0543C252.328 72.0543 251.702 71.9463 251.09 71.7232L250.723 71.5937C249.371 71.1044 248.291 70.1114 247.68 68.809C247.068 67.4994 247.003 66.0314 247.5 64.6786L249.442 59.3394C249.932 57.9866 250.925 56.9072 252.234 56.3028C253.544 55.6912 255.012 55.6264 256.358 56.1229L256.725 56.2596C258.732 56.9936 260.128 58.8429 260.279 60.9728C260.308 61.3686 260.006 61.714 259.61 61.7428C259.221 61.7716 258.869 61.4693 258.84 61.0736C258.732 59.5121 257.703 58.1521 256.228 57.6124L255.861 57.4757C254.868 57.1159 253.796 57.1591 252.832 57.6052C251.875 58.0514 251.148 58.8429 250.781 59.8359L248.838 65.1751C248.478 66.1681 248.521 67.2475 248.975 68.2045C249.421 69.1616 250.212 69.8883 251.205 70.2481L251.572 70.3776C253.63 71.126 255.919 70.0682 256.66 68.0174C256.796 67.6433 257.207 67.449 257.581 67.5857C257.955 67.7224 258.149 68.1326 258.013 68.5068C257.214 70.6943 255.141 72.0543 252.932 72.0543H252.947Z" fill="#18292D"/>
<path d="M274.419 41.9904L276.988 34.9458L279.902 36.0036L287.58 38.8027L292.214 40.4937C297.338 42.3574 299.978 48.0204 298.115 53.1294L295.546 60.1884L292.624 59.1235L284.954 56.3315L280.32 54.6405C275.203 52.7768 272.57 47.1138 274.433 41.9976L274.419 41.9904Z" fill="#18292D"/>
<path d="M284.141 71.968C285.026 69.5358 287.703 68.291 290.135 69.176L290.502 69.3128C292.927 70.1978 294.193 72.8819 293.308 75.3068L291.365 80.646C290.48 83.071 287.782 84.3159 285.357 83.438L284.99 83.3013C283.198 82.6465 282.04 81.013 281.91 79.2213L284.141 71.9608V71.968Z" fill="white"/>
<path d="M286.954 84.4382C286.343 84.4382 285.716 84.3303 285.105 84.1144L284.738 83.9777C282.73 83.2437 281.334 81.4016 281.19 79.2717C281.162 78.8759 281.464 78.5305 281.86 78.5017C282.248 78.4729 282.601 78.7751 282.63 79.1709C282.737 80.7324 283.759 82.0852 285.234 82.6249L285.601 82.7616C287.659 83.5099 289.94 82.4522 290.689 80.4014L292.632 75.0622C293.38 73.0114 292.308 70.7375 290.257 69.9892L289.89 69.8524C288.897 69.4927 287.818 69.5358 286.861 69.982C285.904 70.4281 285.177 71.2196 284.817 72.2126C284.68 72.5868 284.27 72.7811 283.896 72.6444C283.522 72.5077 283.328 72.0975 283.464 71.7233C283.961 70.3705 284.947 69.284 286.256 68.6795C287.559 68.0751 289.027 68.0103 290.387 68.5068L290.754 68.6436C293.553 69.6654 295.006 72.7667 293.992 75.5587L292.049 80.8979C291.25 83.0854 289.178 84.4454 286.969 84.4454L286.954 84.4382Z" fill="#18292D"/>
<path d="M284.702 85.8629C283.349 89.5327 278.254 94.764 272.872 95.0303C265.568 95.3469 258.056 92.6125 252.666 87.669C248.701 83.9992 248.19 76.7315 249.5 73.0401C253.314 62.5631 257.128 52.1077 260.934 41.6451C262.265 37.9249 267.108 36.1548 271.699 37.7307C277.93 39.9973 284.169 42.2712 290.415 44.545C294.948 46.2936 297.524 50.7621 296.136 54.4607C292.329 64.9233 288.515 75.3787 284.702 85.8557V85.8629Z" fill="white"/>
<path d="M271.749 95.7715C264.64 95.7715 257.401 92.9868 252.184 88.2016C247.903 84.2439 247.485 76.5805 248.824 72.8027L260.258 41.4006C261.726 37.3062 266.964 35.3489 271.929 37.0543L290.66 43.8759C295.589 45.7756 298.338 50.6399 296.805 54.7199L285.371 86.1076C283.989 89.8638 278.758 95.4549 272.901 95.7427C272.519 95.7571 272.131 95.7643 271.742 95.7643L271.749 95.7715ZM268.267 37.8746C265.201 37.8746 262.51 39.3786 261.611 41.8899L250.177 73.2848C248.939 76.7676 249.471 83.7258 253.156 87.1366C258.387 91.929 265.755 94.613 272.836 94.3036C277.873 94.0517 282.745 89.0723 284.018 85.6111L295.452 54.2162C296.711 50.8629 294.33 46.8261 290.149 45.2143L271.447 38.4071C270.382 38.0402 269.303 37.8675 268.267 37.8675V37.8746Z" fill="#18292D"/>
<path d="M286.162 38.2847C289.422 39.472 291.667 42.1704 292.408 45.3006L295.589 46.4591C299.546 47.8982 301.597 52.2876 300.151 56.2597L293.689 74.0115L288.638 72.1694L291.264 64.9521C292.279 62.1602 290.84 59.0732 288.048 58.0586L287.99 58.037L289.775 58.6846L281.586 55.7056C276.455 53.8347 273.836 48.1861 275.7 43.0555L278.456 35.4856L286.155 38.2919L286.162 38.2847Z" fill="#18292D"/>
<path d="M275.239 44.3509C275.563 43.804 275.844 43.2212 276.067 42.5952L278.636 35.5505L275.721 34.4856L272.087 33.1615C266.95 31.2907 261.294 33.9315 259.43 39.0405L256.861 46.0995L258.797 46.8047L259.776 47.1644L263.424 48.4957C264.071 48.7331 264.748 48.8986 265.395 48.9922C267.446 45.6318 271.332 43.804 275.239 44.3653V44.3509Z" fill="#18292D"/>
<path d="M264.719 86.4384C264.582 86.4384 264.445 86.4312 264.309 86.4096C261.121 85.9851 259.308 80.7034 259.113 80.1062C259.027 79.8471 259.099 79.5593 259.293 79.365C259.495 79.1707 259.782 79.1132 260.041 79.2067L268.547 82.3009C268.756 82.3728 268.914 82.5383 268.986 82.747C269.058 82.9557 269.022 83.1859 268.907 83.3658C267.575 85.4022 266.165 86.4312 264.719 86.4312V86.4384ZM261.056 81.1064C261.797 82.7326 263.056 84.7906 264.496 84.9849C265.33 85.1 266.23 84.5387 267.165 83.3371L261.056 81.1136V81.1064Z" fill="#18292D"/>
<path d="M283.651 60.8507C283.471 60.8507 283.291 60.786 283.155 60.6493C281.55 59.1094 279.355 58.2243 277.132 58.2243C276.736 58.2243 276.412 57.9005 276.412 57.5047C276.412 57.109 276.736 56.7852 277.132 56.7852C279.722 56.7852 282.277 57.8213 284.148 59.6131C284.435 59.8865 284.443 60.347 284.169 60.6277C284.025 60.7716 283.838 60.8507 283.651 60.8507Z" fill="#18292D"/>
<path d="M266.771 54.7558C266.605 54.7558 266.44 54.6982 266.303 54.5831C264.547 53.0792 262.698 52.6762 260.64 53.3382C260.266 53.4606 259.856 53.2519 259.733 52.8705C259.611 52.4891 259.82 52.0862 260.201 51.9638C262.734 51.1507 265.101 51.6616 267.238 53.4893C267.541 53.7484 267.577 54.2017 267.318 54.5039C267.174 54.6694 266.972 54.7558 266.771 54.7558Z" fill="#18292D"/>
<path d="M275.57 67.737C275.254 68.6077 275.506 69.4999 276.132 69.7302C276.758 69.9605 277.528 69.4352 277.844 68.5645C278.161 67.6938 277.909 66.8015 277.283 66.5713C276.657 66.341 275.887 66.8663 275.57 67.737Z" fill="#18292D"/>
<path d="M261.2 62.5129C260.884 63.3835 261.135 64.2758 261.762 64.5061C262.388 64.7363 263.158 64.2111 263.474 63.3404C263.791 62.4697 263.539 61.5774 262.913 61.3471C262.287 61.1169 261.517 61.6422 261.2 62.5129Z" fill="#18292D"/>
<path d="M261.545 69.2914C260.581 69.2914 259.61 69.0971 258.667 68.6869C256.918 67.917 255.573 66.5138 254.882 64.7293C254.191 62.9448 254.234 61.0019 255.004 59.2533C256.595 55.6411 260.833 54.0005 264.445 55.5907C268.057 57.181 269.705 61.4121 268.108 65.0243C266.928 67.7011 264.301 69.2986 261.545 69.2986V69.2914ZM261.567 56.411C259.365 56.411 257.264 57.6847 256.321 59.8218C255.702 61.2178 255.673 62.7721 256.228 64.1968C256.782 65.6216 257.854 66.7441 259.257 67.3629C262.142 68.6366 265.524 67.3198 266.798 64.4343C267.417 63.0383 267.446 61.484 266.892 60.0593C266.338 58.6345 265.265 57.512 263.862 56.8931C263.114 56.5621 262.337 56.411 261.567 56.411Z" fill="#FFC31F"/>
<path d="M266.316 77.0337C266.215 77.0337 266.115 77.0121 266.014 76.9689C263.625 75.868 262.495 73.184 262.452 73.0689C262.351 72.8242 262.394 72.5364 262.567 72.3349L269.144 64.4484C269.396 64.1462 269.849 64.103 270.159 64.3548C270.461 64.6067 270.504 65.06 270.252 65.3694L263.97 72.8962C264.33 73.5798 265.215 75.0117 266.618 75.6521C266.978 75.8176 267.136 76.2422 266.971 76.6092C266.849 76.8754 266.59 77.0265 266.316 77.0265V77.0337Z" fill="#18292D"/>
<path d="M277.412 74.5799C276.65 74.5799 275.887 74.4576 275.139 74.2057C273.325 73.6013 271.857 72.3277 271.001 70.6151C270.145 68.9025 270.008 66.9668 270.612 65.1463C271.217 63.333 272.49 61.8651 274.203 61.0088C275.916 60.1525 277.851 60.0158 279.672 60.6202C281.485 61.2246 282.953 62.4983 283.809 64.2109C284.666 65.9235 284.802 67.8591 284.198 69.6796C283.593 71.493 282.32 72.9609 280.607 73.8172C279.6 74.3209 278.506 74.5727 277.412 74.5727V74.5799ZM277.398 61.6924C276.52 61.6924 275.649 61.8939 274.843 62.2968C273.476 62.9804 272.454 64.1533 271.972 65.5997C271.49 67.046 271.598 68.6003 272.282 69.9675C272.965 71.3347 274.138 72.3492 275.585 72.8386C277.031 73.3207 278.585 73.2127 279.952 72.5291C281.32 71.8455 282.341 70.6726 282.824 69.2191C283.306 67.7728 283.198 66.2185 282.514 64.8513C281.831 63.4841 280.658 62.4695 279.211 61.9802C278.614 61.7787 278.002 61.6852 277.398 61.6852V61.6924Z" fill="#FFC31F"/>
<path d="M270.943 66.0459C270.857 66.0459 270.763 66.0315 270.677 65.9956L267.849 64.8802C267.482 64.7363 267.295 64.319 267.446 63.9448C267.59 63.5778 268.015 63.3907 268.382 63.5418L271.209 64.6572C271.576 64.8011 271.764 65.2184 271.612 65.5926C271.497 65.8732 271.231 66.0459 270.943 66.0459Z" fill="#FFC31F"/>
<path d="M256.328 113.041L248.204 93.001L242.052 97.6998L247.204 122.467L256.328 113.041Z" fill="white"/>
<path d="M247.204 123.187C247.139 123.187 247.067 123.18 247.002 123.158C246.743 123.087 246.556 122.878 246.499 122.612L241.346 97.8439C241.289 97.5704 241.397 97.297 241.613 97.1243L247.765 92.4255C247.945 92.2888 248.175 92.2456 248.391 92.3032C248.607 92.3607 248.787 92.519 248.866 92.7277L256.997 112.768C257.105 113.034 257.047 113.336 256.846 113.538L247.715 122.964C247.578 123.108 247.391 123.18 247.197 123.18L247.204 123.187ZM242.85 97.995L247.635 120.985L255.493 112.869L247.895 94.1381L242.85 97.995Z" fill="#18292D"/>
<path d="M272.088 114.171L269.533 107.472L256.329 113.041L260.603 125.339L272.088 114.171Z" fill="white"/>
<path d="M260.603 126.058C260.546 126.058 260.495 126.058 260.438 126.037C260.2 125.979 260.006 125.806 259.927 125.576L255.652 113.279C255.53 112.919 255.703 112.523 256.055 112.379L269.26 106.81C269.439 106.73 269.641 106.73 269.821 106.81C270.001 106.889 270.145 107.033 270.209 107.213L272.764 113.912C272.865 114.178 272.8 114.48 272.591 114.682L261.107 125.85C260.97 125.979 260.79 126.051 260.603 126.051V126.058ZM257.235 113.437L260.912 124.029L271.246 113.977L269.13 108.414L257.235 113.43V113.437Z" fill="#18292D"/>
<path d="M154.969 68.6365L155.631 165.218L185.73 188.834L239.547 181.811V77.1778L185.73 95.8363L154.969 68.6365Z" fill="white"/>
<path d="M185.731 189.553C185.573 189.553 185.414 189.503 185.285 189.402L155.192 165.793C155.02 165.656 154.919 165.448 154.919 165.232L154.257 68.6435C154.257 68.3629 154.422 68.1038 154.681 67.9815C154.94 67.8663 155.243 67.9095 155.459 68.0966L185.904 95.023L239.325 76.5012C239.548 76.4221 239.785 76.458 239.98 76.5948C240.167 76.7315 240.282 76.9474 240.282 77.1776V181.811C240.282 182.171 240.016 182.48 239.656 182.523L185.839 189.539C185.839 189.539 185.774 189.539 185.745 189.539L185.731 189.553ZM156.351 164.872L185.932 188.078L238.821 181.178V78.185L185.961 96.5197C185.717 96.6061 185.443 96.5485 185.249 96.3758L155.703 70.2409L156.358 164.872H156.351Z" fill="#18292D"/>
<path d="M147.975 70.1404L148.932 169.686L185.306 199.038L245.29 189.791V81.9486L185.306 96.6279L147.975 70.1404Z" fill="#18292D"/>
<path d="M149.781 165.362C151.789 159.555 151.875 151.862 149.579 143.99C148.63 140.752 147.356 137.766 145.852 135.103L152.702 131.196C160.323 132.153 164.525 132.686 167.087 131.196C171.152 128.843 170.785 126.404 170.814 126.253C170.864 126.008 170.814 125.763 170.67 125.555C170.526 125.353 170.31 125.217 170.066 125.181L168.526 124.936C172.541 122.144 171.814 118.668 171.778 118.51C171.699 118.165 171.426 117.891 171.08 117.819L150.364 113.595C151.278 112.912 153.516 110.904 153.875 110.717C155.84 111.012 163.733 113.329 168.555 111.106C170.555 110.185 171.656 109.077 171.836 107.817C172.037 106.414 171.016 105.486 170.9 105.385C170.771 105.27 170.641 105.212 170.497 105.184L151.148 101.032C150.889 100.974 150.616 101.032 150.4 101.204C150.385 101.219 150.026 101.499 149.436 101.953L148.392 96.6783C149.594 95.6277 153.091 92.44 154.796 89.4898C157.049 85.5825 154.523 81.3226 154.336 81.0779C154.178 80.8621 153.933 80.7325 153.667 80.7182C153.4 80.7038 153.141 80.8045 152.961 80.9916L139.772 94.6419C139.577 94.8434 139.484 95.1312 139.527 95.4118L139.944 108.436C139.98 108.674 140.11 108.882 140.29 109.019C140.319 109.041 140.362 109.055 140.398 109.069C139.124 110.084 137.937 111.048 136.994 111.832C135.461 113.106 134.728 114.423 134.814 115.747C134.864 116.474 135.152 117.057 135.483 117.496C135.469 117.496 135.454 117.51 135.433 117.517C132.101 118.863 131.036 120.705 131.856 123.691C132.195 124.929 132.022 125.231 131.554 126.044C131.23 126.605 130.82 127.311 130.496 128.462C129.64 131.455 136.541 163.757 136.606 163.937L133.634 182.797L154.372 183.437L149.795 165.39L149.781 165.362Z" fill="white"/>
<path d="M154.358 184.128C154.358 184.128 154.344 184.128 154.336 184.128L133.598 183.488C133.39 183.488 133.195 183.387 133.066 183.229C132.936 183.07 132.879 182.862 132.907 182.66L135.858 163.93C135.203 161.023 128.892 131.347 129.784 128.239C130.137 126.994 130.59 126.224 130.914 125.656C131.353 124.9 131.404 124.807 131.144 123.857C130.295 120.755 131.339 118.604 134.426 117.136C134.224 116.697 134.102 116.236 134.073 115.761C133.972 114.2 134.793 112.682 136.512 111.25C137.311 110.588 138.29 109.789 139.348 108.947C139.29 108.81 139.247 108.666 139.218 108.523C139.218 108.494 139.218 108.465 139.211 108.436L138.794 95.4479C138.736 94.9658 138.901 94.4765 139.24 94.1239L152.437 80.4736C152.768 80.1282 153.228 79.9483 153.703 79.9771C154.185 80.0059 154.624 80.2434 154.912 80.6247C155.452 81.3371 157.733 85.8128 155.423 89.8281C153.811 92.6272 150.724 95.5559 149.184 96.9231L149.925 100.65L149.969 100.622C150.35 100.327 150.839 100.212 151.307 100.312L170.663 104.464C170.958 104.529 171.196 104.651 171.405 104.838C171.635 105.033 172.815 106.162 172.563 107.904C172.347 109.422 171.102 110.717 168.864 111.746C164.619 113.704 158.222 112.344 155.149 111.689C154.718 111.595 154.344 111.516 154.056 111.466C153.753 111.703 153.142 112.221 152.674 112.624C152.451 112.811 152.228 113.006 152.012 113.185L171.239 117.1C171.865 117.229 172.354 117.719 172.498 118.338C172.534 118.489 173.196 121.619 170.239 124.468C170.656 124.547 171.023 124.778 171.275 125.13C171.52 125.483 171.613 125.907 171.556 126.318C171.541 128.354 170.095 130.29 167.469 131.808C164.727 133.398 160.503 132.88 152.868 131.923L146.838 135.363C148.256 137.989 149.414 140.817 150.278 143.774C152.509 151.395 152.602 159.252 150.544 165.383L155.07 183.221C155.128 183.437 155.07 183.675 154.934 183.847C154.797 184.02 154.588 184.114 154.372 184.114L154.358 184.128ZM134.455 182.077L153.422 182.66L149.083 165.534C149.047 165.398 149.055 165.254 149.098 165.124C151.134 159.245 151.055 151.611 148.882 144.185C147.975 141.09 146.745 138.155 145.219 135.449C145.025 135.104 145.147 134.665 145.493 134.47L152.35 130.556C152.487 130.477 152.645 130.448 152.796 130.47L152.904 130.484C160.316 131.412 164.396 131.923 166.735 130.57C168.908 129.311 170.109 127.807 170.102 126.332C170.102 126.217 170.109 126.145 170.117 126.109C170.124 126.059 170.117 126.008 170.088 125.965C170.059 125.929 170.016 125.9 169.965 125.886L168.426 125.634C168.138 125.591 167.9 125.368 167.836 125.08C167.771 124.792 167.886 124.497 168.131 124.332C171.757 121.813 171.124 118.784 171.095 118.654C171.081 118.582 171.023 118.525 170.944 118.51L150.235 114.294C149.954 114.236 149.738 114.02 149.673 113.747C149.609 113.473 149.717 113.185 149.947 113.013C150.357 112.703 151.062 112.106 151.739 111.53C152.868 110.573 153.315 110.199 153.552 110.07C153.689 109.998 153.84 109.976 153.991 109.998C154.322 110.048 154.826 110.156 155.452 110.286C158.373 110.912 164.454 112.2 168.26 110.444C170.023 109.631 170.987 108.71 171.131 107.702C171.275 106.68 170.52 105.99 170.433 105.911C170.404 105.882 170.397 105.882 170.347 105.867L151.005 101.715C150.954 101.701 150.89 101.715 150.846 101.751L149.882 102.5C149.688 102.651 149.422 102.694 149.191 102.608C148.954 102.521 148.788 102.32 148.738 102.075L147.695 96.8007C147.644 96.5489 147.731 96.2898 147.925 96.1171C148.968 95.2033 152.509 92.0012 154.178 89.1085C156.265 85.489 153.782 81.517 153.761 81.481C153.732 81.445 153.682 81.4163 153.624 81.4091C153.581 81.4091 153.516 81.4235 153.48 81.4666L140.283 95.1169C140.247 95.1601 140.225 95.2177 140.233 95.2752C140.233 95.304 140.233 95.3328 140.24 95.3616L140.657 108.328C140.657 108.328 140.679 108.371 140.693 108.393C140.715 108.4 140.736 108.415 140.751 108.422C140.959 108.544 141.089 108.753 141.103 108.99C141.118 109.228 141.017 109.458 140.837 109.602C139.571 110.617 138.383 111.574 137.441 112.358C136.095 113.473 135.448 114.589 135.519 115.668C135.548 116.15 135.721 116.596 136.052 117.042C136.181 117.222 136.225 117.452 136.167 117.661C136.11 117.877 135.951 118.05 135.75 118.136C132.713 119.359 131.828 120.849 132.548 123.475C132.951 124.936 132.713 125.447 132.173 126.375C131.85 126.929 131.49 127.562 131.18 128.635C130.432 131.254 136.966 162.397 137.297 163.728C137.34 163.843 137.333 163.908 137.311 164.023L134.469 182.077H134.455Z" fill="#18292D"/>
<path d="M169.146 125.698C169.11 125.698 169.067 125.698 169.031 125.691L149.321 122.518L139.154 125.317C138.765 125.418 138.377 125.195 138.269 124.813C138.161 124.432 138.391 124.036 138.773 123.928L149.091 121.093C149.192 121.064 149.293 121.064 149.393 121.079L169.254 124.274C169.642 124.338 169.916 124.705 169.851 125.101C169.793 125.454 169.491 125.706 169.139 125.706L169.146 125.698Z" fill="#18292D"/>
<path d="M140.082 116.466C139.794 116.466 139.528 116.294 139.413 116.013C139.262 115.646 139.442 115.229 139.809 115.078C146.817 112.25 149.617 112.739 149.732 112.761L154.74 113.811C155.128 113.89 155.38 114.272 155.294 114.66C155.215 115.049 154.833 115.301 154.445 115.214L149.451 114.164C149.451 114.164 146.861 113.775 140.356 116.409C140.269 116.445 140.176 116.459 140.089 116.459L140.082 116.466Z" fill="#18292D"/>
<path d="M137.952 111.71C137.743 111.71 137.541 111.624 137.398 111.451C137.146 111.149 137.189 110.688 137.491 110.436C140.88 107.623 147.263 102.644 149.853 100.636C150.17 100.391 150.623 100.449 150.861 100.765C151.105 101.082 151.048 101.528 150.731 101.773C148.148 103.78 141.78 108.745 138.405 111.545C138.268 111.66 138.11 111.71 137.944 111.71H137.952Z" fill="#18292D"/>
<path d="M237.893 199.037L242.47 183.862C240.462 178.055 240.376 170.362 242.671 162.49C243.621 159.252 244.895 156.266 246.399 153.603L239.548 149.696C231.928 150.653 227.726 151.186 225.164 149.696C221.098 147.343 221.465 144.904 221.437 144.753C221.386 144.508 221.437 144.263 221.581 144.055C221.725 143.853 221.94 143.717 222.185 143.681L223.725 143.436C219.71 140.644 220.436 137.168 220.472 137.01C220.552 136.665 220.825 136.391 221.17 136.319L241.887 132.095C240.973 131.412 238.735 129.404 238.375 129.217C236.411 129.512 228.517 131.829 223.696 129.606C221.696 128.685 220.595 127.577 220.415 126.317C220.213 124.914 221.235 123.986 221.35 123.885C221.48 123.77 221.609 123.712 221.753 123.684L241.103 119.532C241.362 119.474 241.635 119.532 241.851 119.704C241.865 119.719 242.225 119.999 242.815 120.453L243.859 115.178C242.657 114.128 239.16 110.94 237.454 107.99C235.202 104.082 237.728 99.8226 237.915 99.5779C238.073 99.3621 238.318 99.2325 238.584 99.2182C238.85 99.2038 239.109 99.3045 239.289 99.4916L252.479 113.142C252.673 113.343 252.767 113.631 252.724 113.912L252.306 126.936C252.27 127.174 252.141 127.382 251.961 127.519C251.932 127.541 251.889 127.555 251.853 127.569C253.127 128.584 254.314 129.548 255.257 130.332C256.789 131.606 257.523 132.923 257.437 134.247C257.387 134.974 257.099 135.557 256.768 135.996C256.782 135.996 256.797 136.01 256.818 136.017C260.15 137.363 261.215 139.205 260.394 142.191C260.056 143.429 260.229 143.731 260.697 144.544C261.02 145.105 261.431 145.811 261.754 146.962C262.611 149.955 255.71 182.257 255.645 182.437L258.617 199.066H237.879L237.893 199.037Z" fill="white"/>
<path d="M237.893 199.757C237.821 199.757 237.756 199.75 237.684 199.728C237.303 199.613 237.087 199.21 237.202 198.829L241.714 183.876C239.663 177.752 239.756 169.902 241.98 162.289C242.843 159.324 244.002 156.496 245.419 153.877L239.389 150.437C231.755 151.395 227.538 151.913 224.789 150.322C222.148 148.797 220.702 146.847 220.702 144.839C220.702 144.846 220.709 144.882 220.716 144.904C220.63 144.472 220.724 144.012 220.976 143.652C221.235 143.292 221.594 143.062 222.012 142.983C219.047 140.133 219.716 136.996 219.752 136.852C219.896 136.233 220.385 135.751 221.004 135.614L240.239 131.693C240.023 131.506 239.792 131.318 239.569 131.124C239.102 130.728 238.504 130.217 238.188 129.973C237.9 130.023 237.526 130.102 237.094 130.196C234.021 130.851 227.624 132.211 223.379 130.253C221.141 129.224 219.903 127.929 219.687 126.411C219.443 124.67 220.623 123.54 220.86 123.331C221.062 123.151 221.292 123.029 221.587 122.964L240.936 118.812C241.411 118.712 241.894 118.827 242.275 119.114L242.325 119.15L243.059 115.423C241.519 114.049 238.432 111.113 236.821 108.328C234.511 104.32 236.792 99.8371 237.331 99.1175C237.612 98.7362 238.051 98.5059 238.533 98.4771C239.008 98.4483 239.469 98.6282 239.8 98.9736L252.989 112.624C253.328 112.977 253.493 113.473 253.435 113.955L253.018 126.943C253.018 126.943 253.018 127.001 253.011 127.03C252.989 127.181 252.946 127.325 252.881 127.462C253.939 128.311 254.918 129.102 255.717 129.764C257.436 131.196 258.257 132.714 258.156 134.276C258.127 134.751 258.005 135.211 257.803 135.65C260.905 137.133 261.941 139.277 261.085 142.364C260.825 143.314 260.883 143.407 261.315 144.163C261.646 144.731 262.092 145.508 262.445 146.746C263.33 149.84 257.033 179.479 256.371 182.43L259.322 198.922C259.394 199.311 259.134 199.685 258.739 199.757C258.35 199.829 257.976 199.57 257.904 199.174L254.932 182.545C254.911 182.423 254.918 182.293 254.961 182.178C255.493 180.041 261.811 149.761 261.063 147.142C260.761 146.07 260.394 145.444 260.07 144.89C259.53 143.961 259.293 143.45 259.696 141.99C260.415 139.37 259.53 137.881 256.544 136.672C256.335 136.586 256.155 136.406 256.098 136.19C256.04 135.974 256.055 135.737 256.191 135.557C256.515 135.118 256.688 134.672 256.724 134.19C256.796 133.11 256.148 131.995 254.803 130.879C253.86 130.102 252.673 129.138 251.406 128.124C251.219 127.98 251.118 127.749 251.14 127.512C251.154 127.274 251.284 127.066 251.485 126.943C251.5 126.936 251.529 126.922 251.55 126.907C251.565 126.893 251.579 126.871 251.586 126.843L252.004 113.876C252.004 113.876 252.004 113.818 252.011 113.79C252.018 113.732 252.004 113.674 251.96 113.631L238.771 99.981C238.735 99.9378 238.677 99.9235 238.619 99.9235C238.562 99.9235 238.512 99.9522 238.483 99.9954C238.461 100.031 235.979 103.996 238.065 107.616C239.728 110.501 243.275 113.71 244.318 114.624C244.513 114.79 244.599 115.056 244.549 115.308L243.505 120.582C243.455 120.827 243.282 121.029 243.052 121.115C242.822 121.201 242.556 121.165 242.361 121.007L241.383 120.251C241.383 120.251 241.289 120.215 241.232 120.223L221.889 124.375C221.839 124.382 221.839 124.389 221.817 124.411C221.717 124.497 220.968 125.188 221.112 126.209C221.256 127.21 222.22 128.131 223.983 128.944C227.79 130.7 233.877 129.404 236.799 128.786C237.425 128.656 237.921 128.548 238.252 128.498C238.404 128.476 238.555 128.498 238.691 128.57C238.929 128.692 239.382 129.066 240.505 130.023C241.188 130.606 241.886 131.203 242.304 131.513C242.534 131.685 242.635 131.973 242.577 132.247C242.512 132.52 242.296 132.736 242.016 132.794L221.299 137.017C221.235 137.032 221.177 137.089 221.155 137.161C221.127 137.291 220.486 140.32 224.12 142.839C224.358 143.004 224.48 143.307 224.415 143.587C224.35 143.875 224.12 144.091 223.825 144.141L222.285 144.386C222.235 144.393 222.184 144.422 222.156 144.472C222.134 144.508 222.12 144.559 222.134 144.609C222.148 144.688 222.148 144.76 222.148 144.832C222.148 146.307 223.343 147.811 225.516 149.07C227.855 150.423 231.935 149.912 239.339 148.991L239.454 148.977C239.605 148.955 239.764 148.991 239.9 149.063L246.758 152.97C247.103 153.165 247.226 153.604 247.031 153.949C245.506 156.655 244.275 159.598 243.369 162.685C241.196 170.111 241.116 177.738 243.153 183.624C243.203 183.768 243.203 183.919 243.16 184.07L238.583 199.246C238.49 199.556 238.202 199.757 237.893 199.757Z" fill="#18292D"/>
<path d="M223.098 144.206C222.753 144.206 222.443 143.954 222.386 143.601C222.321 143.213 222.587 142.839 222.983 142.774L242.843 139.579C242.944 139.565 243.052 139.572 243.145 139.593L253.464 142.429C253.845 142.536 254.068 142.932 253.968 143.314C253.86 143.695 253.464 143.925 253.083 143.817L242.915 141.018L223.206 144.191C223.17 144.191 223.127 144.199 223.091 144.199L223.098 144.206Z" fill="#18292D"/>
<path d="M252.162 134.967C252.075 134.967 251.982 134.952 251.896 134.916C245.383 132.29 242.8 132.671 242.779 132.679L237.806 133.722C237.418 133.801 237.036 133.556 236.957 133.168C236.878 132.779 237.123 132.398 237.511 132.319L242.505 131.268C242.635 131.247 245.427 130.757 252.435 133.585C252.802 133.736 252.982 134.154 252.831 134.521C252.716 134.801 252.45 134.974 252.162 134.974V134.967Z" fill="#18292D"/>
<path d="M254.292 130.21C254.133 130.21 253.968 130.153 253.831 130.045C250.478 127.26 244.095 122.288 241.505 120.273C241.188 120.028 241.131 119.575 241.375 119.265C241.62 118.949 242.073 118.891 242.383 119.136C244.973 121.151 251.37 126.137 254.745 128.936C255.047 129.188 255.09 129.642 254.838 129.951C254.694 130.124 254.493 130.21 254.284 130.21H254.292Z" fill="#18292D"/>
<path d="M289.846 199.757C289.537 199.757 289.256 199.556 289.155 199.246L284.147 182.854C284.032 182.473 284.248 182.07 284.622 181.955C284.996 181.84 285.406 182.056 285.522 182.43L290.53 198.822C290.645 199.203 290.429 199.606 290.055 199.721C289.983 199.743 289.911 199.75 289.846 199.75V199.757Z" fill="#18292D"/>
<path d="M158.186 199.757C157.862 199.757 157.567 199.534 157.488 199.21L153.66 183.574C153.566 183.185 153.804 182.797 154.185 182.703C154.574 182.609 154.962 182.847 155.056 183.228L158.884 198.865C158.978 199.253 158.74 199.642 158.359 199.735C158.301 199.75 158.244 199.757 158.186 199.757Z" fill="#18292D"/>
<path d="M185.306 199.757C184.911 199.757 184.587 199.433 184.587 199.037V96.6278C184.587 96.232 184.911 95.9082 185.306 95.9082C185.702 95.9082 186.026 96.232 186.026 96.6278V199.037C186.026 199.433 185.702 199.757 185.306 199.757Z" fill="white"/>
</g>
</svg>
