<svg width="470" height="250" viewBox="0 0 470 250" fill="none" xmlns="http://www.w3.org/2000/svg">
<g clip-path="url(#clip0_542_17421)">
<path d="M219.015 148.654C216.398 151.051 214.847 153.89 214.317 163.887C213.242 184.395 155.095 190.382 136.035 180.923C120.604 173.267 132.713 159.869 136.77 158.209C144.394 155.084 144.758 154.57 139.807 146.804C134.848 139.037 129.027 134.972 141.278 131.587C149.939 129.198 149.923 126.478 148.626 116.275C147.329 106.065 162.965 102.031 169.141 103.692C175.318 105.353 168.461 99.7297 173.523 97.4994C178.585 95.269 180.435 98.1321 181.693 100.18C182.951 102.229 194.118 101.224 197.677 108.778C201.236 116.331 209.896 113.942 209.074 127.68C208.251 141.426 211.755 135.383 215.504 136.103C219.253 136.823 224.504 143.632 219.015 148.647V148.654Z" fill="#18292D"/>
<path d="M166.65 163.848L150.326 167.399C142.346 169.131 135.607 174.453 132.072 181.817L117.314 212.535C107.91 232.11 126.148 253.575 146.988 247.445L170.391 240.564H247.005L233.663 175.561C231.266 163.871 220.17 156.081 208.362 157.797L166.642 163.855L166.65 163.848Z" fill="#4A7C88"/>
<path d="M139.76 249.288C132.333 249.288 125.247 246.069 120.209 240.145C113.494 232.244 112.11 221.536 116.602 212.195L131.352 181.485C135.022 173.845 141.871 168.435 150.152 166.632L166.476 163.081C166.476 163.081 166.516 163.081 166.531 163.073L208.251 157.014C220.455 155.235 231.962 163.318 234.438 175.403L247.78 240.406C247.828 240.644 247.772 240.881 247.622 241.063C247.472 241.245 247.25 241.355 247.005 241.355H170.51L147.218 248.205C144.742 248.932 142.235 249.288 139.767 249.288H139.76ZM166.784 164.631L150.484 168.174C142.686 169.866 136.232 174.968 132.776 182.165L118.034 212.875C113.818 221.646 115.115 231.699 121.419 239.117C127.722 246.528 137.434 249.431 146.767 246.686L170.169 239.805C170.241 239.782 170.32 239.774 170.391 239.774H246.04L232.895 175.719C230.586 164.457 219.861 156.935 208.48 158.58L166.784 164.631Z" fill="#18292D"/>
<path d="M292.83 142.011L289.895 153.479C287.554 162.63 282.081 170.673 274.418 176.202L266.864 181.651L256.923 240.565H210.078L233.852 174.454L272.44 125.466L294.593 133.256L292.837 142.011H292.83Z" fill="white"/>
<path d="M256.923 241.355H210.07C209.809 241.355 209.572 241.229 209.422 241.023C209.271 240.81 209.24 240.541 209.327 240.304L233.101 174.193C233.133 174.113 233.172 174.034 233.228 173.971L271.815 124.983C272.021 124.714 272.377 124.619 272.701 124.73L294.854 132.52C295.226 132.647 295.447 133.034 295.368 133.422L293.612 142.177C293.612 142.177 293.612 142.201 293.605 142.217L290.67 153.685C288.29 163.001 282.682 171.227 274.892 176.85L267.6 182.109L257.714 240.707C257.65 241.087 257.318 241.363 256.931 241.363L256.923 241.355ZM211.201 239.774H256.258L266.089 181.516C266.121 181.311 266.24 181.129 266.406 181.01L273.959 175.561C281.456 170.151 286.842 162.242 289.136 153.281L292.062 141.837L293.684 133.778L272.717 126.407L234.564 174.849L211.217 239.782L211.201 239.774Z" fill="#18292D"/>
<path d="M193.604 243.633L201.204 248.545C205.404 251.258 211.004 250.055 213.716 245.856L292.15 124.509L269.348 109.766L190.915 231.121C188.202 235.321 189.404 240.921 193.604 243.633Z" fill="#18292D"/>
<path d="M197.39 221.6L196.532 222.928L219.121 237.531L219.98 236.202L197.39 221.6Z" fill="#18292D"/>
<path d="M191.553 231.52L195.384 225.594L216.923 239.519L213.094 245.441L213.094 245.441C210.606 249.292 205.471 250.395 201.619 247.907C201.619 247.907 201.619 247.907 201.619 247.907L194.019 242.995L194.019 242.995C190.167 240.508 189.064 235.372 191.553 231.52Z" fill="white" stroke="#18292D" stroke-width="1.5"/>
<path d="M270.922 109.497L297.053 91.9236L291.754 122.958L270.922 109.497Z" fill="white"/>
<path d="M295.962 93.6082L291.185 121.645L272.369 109.482L295.969 93.6082H295.962ZM298.144 90.239L269.49 109.513L292.339 124.279L298.144 90.239Z" fill="#18292D"/>
<path d="M284.114 99.6666L295.298 106.895L298.137 90.2312L284.114 99.6666Z" fill="#18292D"/>
<path d="M283.536 164.765C287.412 159.015 291.627 142.66 291.801 141.972L293.881 133.92C294.016 133.406 293.747 132.908 293.272 132.75L273.144 126.241C272.764 126.122 272.345 126.241 272.06 126.557C270.842 127.917 269.158 130.796 269.806 133.485L265.164 131.919C264.745 131.777 264.262 131.943 263.993 132.323C263.835 132.544 260.197 137.78 263.052 141.568C262.372 142.66 261.265 144.795 261.502 146.978C261.644 148.259 262.23 149.343 263.218 150.221C262.245 151.439 261.391 153.321 262.127 155.425C262.846 157.481 268.573 160.55 271.222 161.791C269.972 162.337 266.856 163.99 265.931 165.872C265.662 166.418 279.289 171.084 283.544 164.773L283.536 164.765Z" fill="white"/>
<path d="M291.762 142.296C291.675 142.296 291.58 142.28 291.493 142.248L264.104 132.425C263.353 133.715 261.668 137.21 263.637 139.717C263.906 140.057 263.851 140.556 263.503 140.825C263.155 141.094 262.665 141.03 262.396 140.69C259.216 136.649 262.957 131.231 263.123 131.002C263.329 130.709 263.701 130.59 264.041 130.709L292.031 140.746C292.442 140.896 292.655 141.347 292.505 141.758C292.386 142.082 292.086 142.28 291.762 142.28V142.296Z" fill="#18292D"/>
<path d="M292.829 142.802C292.766 142.802 292.711 142.802 292.648 142.778C292.22 142.683 291.96 142.256 292.054 141.829L293.921 133.825L272.677 126.478C271.847 127.569 269.878 130.638 271.863 133.161C272.132 133.501 272.076 133.999 271.728 134.268C271.38 134.537 270.89 134.482 270.621 134.134C268.043 130.851 270.281 126.739 271.831 125.023C272.045 124.785 272.377 124.698 272.677 124.801L295.115 132.56C295.495 132.694 295.716 133.09 295.629 133.485L293.605 142.185C293.518 142.549 293.193 142.794 292.837 142.794L292.829 142.802Z" fill="#18292D"/>
<path d="M289.998 151.383C289.903 151.383 289.816 151.367 289.721 151.336L263.843 141.711C263.282 142.588 262.214 144.55 262.483 146.44C262.641 147.547 263.218 148.457 264.254 149.216C264.61 149.477 264.682 149.967 264.428 150.323C264.167 150.679 263.677 150.75 263.321 150.497C261.937 149.485 261.13 148.196 260.917 146.662C260.474 143.466 262.823 140.406 262.918 140.271C263.131 140.002 263.495 139.899 263.819 140.018L290.275 149.857C290.686 150.007 290.892 150.466 290.742 150.877C290.623 151.193 290.322 151.391 289.998 151.391V151.383Z" fill="#18292D"/>
<path d="M266.089 166.608C265.947 166.608 265.804 166.568 265.678 166.489C265.306 166.26 265.187 165.778 265.417 165.398C266.73 163.262 268.446 162.266 269.941 161.823C266.967 160.439 262.744 158.122 261.858 155.796C260.719 152.799 262.704 150.308 263.922 149.414C264.151 149.248 264.444 149.216 264.705 149.319L285.379 158.114C285.782 158.288 285.972 158.746 285.798 159.15C285.624 159.553 285.166 159.743 284.762 159.569L264.547 150.964C263.89 151.589 262.57 153.179 263.353 155.235C264.159 157.347 269.972 160.265 273.444 161.602C273.824 161.744 274.03 162.163 273.919 162.551C273.808 162.946 273.421 163.191 273.017 163.12C272.859 163.096 269.047 162.503 266.769 166.228C266.619 166.474 266.358 166.608 266.097 166.608H266.089Z" fill="#18292D"/>
<path d="M215.132 179.064L225.287 161.064C226.133 159.569 228.071 159.102 229.495 160.059C231.725 161.546 232.777 164.283 232.12 166.877L230.325 173.995L215.132 179.064Z" fill="white"/>
<path d="M215.132 179.855C214.903 179.855 214.673 179.753 214.523 179.571C214.317 179.318 214.286 178.962 214.444 178.677L224.599 160.676C225.113 159.775 225.983 159.118 226.987 158.873C228 158.628 229.075 158.825 229.937 159.403C232.437 161.072 233.623 164.156 232.887 167.075L231.092 174.193C231.029 174.454 230.831 174.667 230.578 174.746L215.385 179.816C215.306 179.848 215.219 179.855 215.132 179.855ZM227.865 160.352C227.699 160.352 227.525 160.368 227.359 160.415C226.766 160.558 226.276 160.929 225.975 161.451L216.824 177.665L229.661 173.386L231.353 166.695C231.923 164.425 231.005 162.029 229.06 160.724C228.696 160.486 228.284 160.36 227.865 160.36V160.352Z" fill="#18292D"/>
<path d="M224.654 172.461L248.84 166.323C250.177 165.983 251.497 166.924 251.616 168.3L251.735 169.645C251.956 172.2 250.612 174.628 248.342 175.806L242.204 178.993L241.888 179.761L250.2 178.764C252.011 178.55 253.664 179.84 253.862 181.651C254.155 184.419 252.407 186.926 249.821 187.685C251.41 187.709 252.787 188.895 252.976 190.517C253.309 193.309 251.553 195.855 248.943 196.63C250.532 196.654 251.909 197.84 252.098 199.462C252.47 202.578 250.248 205.409 247.132 205.781L230.293 207.798L229.202 210.432C227.905 213.563 225.295 215.96 222.068 216.98L170.399 240.549C170.399 240.549 150.033 219.068 172.519 201.344C172.59 201.289 172.685 201.297 172.764 201.273L208.765 190.596L209.208 188.508C210.877 180.646 216.864 174.414 224.654 172.445V172.461Z" fill="white"/>
<path d="M170.391 241.356C170.177 241.356 169.972 241.269 169.814 241.11C169.426 240.699 160.331 230.963 161.201 218.965C161.691 212.148 165.337 206.01 172.02 200.743C172.218 200.585 172.431 200.545 172.534 200.529L208.085 189.987L208.433 188.365C210.173 180.148 216.318 173.766 224.457 171.701L248.642 165.564C249.504 165.35 250.414 165.516 251.141 166.031C251.869 166.545 252.328 167.351 252.407 168.237L252.518 169.582C252.763 172.461 251.268 175.181 248.705 176.518L244.601 178.653L250.097 177.997C251.197 177.87 252.272 178.171 253.134 178.859C253.989 179.539 254.519 180.504 254.637 181.587C254.89 183.968 253.807 186.23 251.924 187.551C252.905 188.176 253.601 189.228 253.751 190.446C254.044 192.866 252.96 195.159 251.054 196.496C252.035 197.121 252.731 198.165 252.873 199.391C253.301 202.934 250.754 206.169 247.211 206.588L230.831 208.549L229.922 210.756C228.538 214.093 225.777 216.64 222.345 217.747L170.723 241.3C170.62 241.348 170.51 241.371 170.391 241.371V241.356ZM172.89 202.072C166.642 207.031 163.241 212.749 162.783 219.068C162.055 229.025 168.904 237.646 170.597 239.608L221.728 216.276C221.728 216.276 221.783 216.252 221.815 216.245C224.828 215.288 227.248 213.065 228.459 210.147L229.55 207.513C229.661 207.252 229.906 207.062 230.183 207.031L247.021 205.022C249.702 204.697 251.616 202.262 251.3 199.58C251.157 198.378 250.129 197.461 248.911 197.445C248.524 197.445 248.191 197.144 248.136 196.765C248.081 196.377 248.318 196.013 248.698 195.903C250.991 195.223 252.454 193.016 252.17 190.643C252.027 189.441 250.999 188.524 249.781 188.508C249.394 188.508 249.061 188.207 249.006 187.828C248.951 187.44 249.188 187.068 249.568 186.966C251.837 186.293 253.301 184.11 253.047 181.769C252.976 181.113 252.652 180.528 252.13 180.109C251.6 179.681 250.928 179.492 250.263 179.579L241.951 180.575C241.666 180.607 241.398 180.488 241.224 180.267C241.057 180.045 241.018 179.745 241.121 179.484L241.437 178.717C241.508 178.543 241.635 178.4 241.801 178.321L247.938 175.134C249.931 174.098 251.102 171.978 250.904 169.74L250.793 168.395C250.754 167.968 250.54 167.589 250.192 167.343C249.844 167.098 249.409 167.011 248.998 167.122L224.812 173.259C217.259 175.173 211.565 181.097 209.944 188.721L209.501 190.809C209.437 191.094 209.232 191.323 208.955 191.403L172.953 202.08C172.953 202.08 172.898 202.095 172.866 202.103L172.89 202.072Z" fill="#18292D"/>
<path d="M228.616 191.126C228.221 191.126 227.881 190.833 227.833 190.43C227.778 189.995 228.094 189.599 228.522 189.552L248.784 187.132C249.227 187.076 249.615 187.393 249.662 187.82C249.718 188.255 249.401 188.65 248.974 188.698L228.711 191.118C228.711 191.118 228.648 191.118 228.616 191.118V191.126Z" fill="#18292D"/>
<path d="M228.727 182.133C228.332 182.133 227.992 181.841 227.944 181.437C227.889 181.002 228.205 180.607 228.632 180.559L250.168 177.989C250.611 177.934 250.999 178.25 251.046 178.677C251.102 179.112 250.785 179.507 250.358 179.555L228.822 182.125C228.822 182.125 228.759 182.125 228.727 182.125V182.133Z" fill="#18292D"/>
<path d="M229.258 199.833C228.862 199.833 228.522 199.541 228.475 199.137C228.419 198.702 228.736 198.307 229.163 198.26L250.699 195.689C251.142 195.634 251.529 195.95 251.577 196.377C251.632 196.812 251.316 197.208 250.889 197.255L229.352 199.826C229.352 199.826 229.289 199.826 229.258 199.826V199.833Z" fill="#18292D"/>
<path d="M136.209 210.566C135.853 210.566 135.52 210.321 135.441 209.957C135.346 209.53 135.607 209.103 136.035 209.008L172.345 200.593C172.772 200.498 173.199 200.759 173.294 201.186C173.389 201.613 173.128 202.04 172.7 202.135L136.39 210.55C136.327 210.566 136.272 210.574 136.209 210.574V210.566Z" fill="#18292D"/>
<path d="M230.199 93.9008C229.653 93.9008 229.107 93.7743 228.609 93.5212C227.755 93.0941 227.114 92.3586 226.814 91.457C226.513 90.5553 226.576 89.5825 227.003 88.7284C227.431 87.8742 228.166 87.2336 229.068 86.933C229.977 86.6325 230.942 86.6958 231.796 87.1228C232.65 87.5499 233.291 88.2855 233.592 89.1871C233.892 90.0966 233.829 91.0615 233.402 91.9157C232.975 92.7698 232.239 93.4105 231.338 93.711C230.966 93.8376 230.578 93.9008 230.199 93.9008ZM230.199 88.325C229.985 88.325 229.772 88.3566 229.566 88.4278C229.06 88.5939 228.649 88.9498 228.411 89.4323C228.174 89.9068 228.134 90.4525 228.308 90.9508C228.475 91.457 228.83 91.8682 229.313 92.1055C229.787 92.3428 230.333 92.3823 230.839 92.2083C231.345 92.0422 231.757 91.6863 231.994 91.2039C232.231 90.7293 232.271 90.1836 232.097 89.6774C231.931 89.1713 231.575 88.76 231.092 88.5227C230.816 88.3804 230.507 88.3092 230.207 88.3092L230.199 88.325Z" fill="#18292D"/>
<path d="M224.449 104.894L223.729 102.735L223.879 102.443C225.469 99.2554 229.321 97.9346 232.524 99.4531L237.008 90.4685C238.693 87.0835 242.829 85.6994 246.214 87.3919L245.51 88.8076C242.908 87.5106 239.729 88.5704 238.424 91.1803L233.236 101.581L231.938 100.932C229.59 99.7615 226.742 100.639 225.445 102.878L225.959 104.404L224.457 104.902L224.449 104.894Z" fill="#18292D"/>
<path d="M230.823 109.371C229.787 109.371 228.759 109.134 227.802 108.651C226.181 107.844 224.971 106.452 224.393 104.728L220.32 92.5406C219.743 90.8243 219.877 88.9815 220.684 87.3602C221.491 85.7389 222.883 84.5288 224.607 83.9514L236.795 79.8783C238.511 79.301 240.354 79.4354 241.975 80.2421C243.596 81.0488 244.806 82.4408 245.384 84.165L249.457 96.3527C250.034 98.0689 249.9 99.9117 249.093 101.533C248.286 103.154 246.894 104.364 245.17 104.942L232.982 109.015C232.279 109.252 231.551 109.371 230.823 109.371ZM238.946 81.1121C238.392 81.1121 237.831 81.1991 237.293 81.381L225.105 85.4541C223.784 85.897 222.717 86.8224 222.1 88.0641C221.475 89.3058 221.38 90.7215 221.823 92.0344L225.896 104.222C226.339 105.543 227.264 106.611 228.506 107.228C229.748 107.852 231.163 107.947 232.476 107.504L244.664 103.431C245.985 102.988 247.052 102.063 247.669 100.821C248.294 99.5795 248.389 98.1638 247.946 96.8509L243.873 84.6632C243.43 83.3424 242.505 82.2747 241.263 81.6578C240.528 81.294 239.737 81.1042 238.946 81.1042V81.1121Z" fill="#18292D"/>
<path d="M239.009 128.914C238.345 128.914 237.736 128.661 237.332 128.178C235.466 125.972 236.407 122.318 238.408 120.064C239.128 119.249 240.061 118.529 241.121 118.11C239.847 113.784 236.739 111.008 236.7 110.976L237.744 109.79C237.917 109.94 241.295 112.962 242.671 117.746C243.802 117.644 245.012 117.913 246.254 118.727C247.82 119.755 248.769 121.029 249.069 122.5C249.52 124.698 248.334 126.51 248.278 126.581L246.965 125.703C247.179 125.371 248.974 122.397 245.384 120.04C244.545 119.486 243.723 119.281 243.035 119.312C243.145 119.953 243.216 120.609 243.232 121.298C243.414 126.968 240.844 128.408 240.053 128.708C239.705 128.843 239.349 128.906 239.017 128.906L239.009 128.914ZM241.477 119.684C240.559 120.103 239.887 120.776 239.586 121.116C238.068 122.832 237.237 125.624 238.534 127.158C238.669 127.316 239.025 127.411 239.476 127.237C240.599 126.802 241.753 125.031 241.643 121.353C241.627 120.783 241.564 120.222 241.477 119.684Z" fill="#FFD35C"/>
<path d="M299.963 132.623L308.299 118.585L304.519 117.533C303.443 117.335 302.478 116.615 301.956 115.579C301.427 114.543 301.411 113.341 301.917 112.289L310.553 94.1619C311.305 92.5959 313.069 91.7496 314.761 92.153L353.657 101.414C354.741 101.675 355.642 102.395 356.133 103.4C356.623 104.404 356.639 105.559 356.172 106.579L347.378 125.75C346.642 127.348 344.87 128.218 343.154 127.814L319.665 122.334C319.435 122.278 319.198 122.286 318.977 122.349L299.963 132.615V132.623ZM311.969 94.8499L303.34 112.977C303.048 113.578 303.056 114.266 303.364 114.868C303.665 115.461 304.218 115.88 304.875 115.998L310.72 117.62L304.25 128.518L318.431 120.87C318.953 120.696 319.506 120.673 320.036 120.799L343.526 126.28C344.507 126.509 345.527 126.011 345.946 125.094L354.741 105.922C355.01 105.337 355.002 104.673 354.717 104.103C354.432 103.526 353.918 103.115 353.293 102.965L314.397 93.7031C313.432 93.4738 312.412 93.9562 311.977 94.8578L311.969 94.8499Z" fill="#18292D"/>
<path d="M327.115 118.395C326.981 118.395 326.838 118.387 326.704 118.371C325.32 118.189 324.339 117.137 324.015 115.484C323.627 113.531 325.003 111.214 327.677 109.284C327.771 109.221 327.858 109.157 327.953 109.086C326.941 107.544 325.177 105.78 322.385 105.78C322.346 105.78 322.306 105.78 322.259 105.78C320.867 105.804 319.617 106.255 318.581 106.911C319.206 108.778 319.356 110.921 318.811 112.234C318.478 113.033 317.901 113.523 317.181 113.618C315.607 113.832 314.824 113.238 314.445 112.701C313.804 111.807 313.867 110.446 314.603 108.983C315.062 108.074 315.758 107.164 316.659 106.381C316.501 106.065 316.319 105.772 316.122 105.511C314.793 103.779 314.018 104.103 314.01 104.103L313.203 102.743C313.282 102.696 315.117 101.588 317.379 104.546C317.585 104.815 317.775 105.116 317.949 105.432C319.166 104.697 320.614 104.214 322.227 104.183C325.035 104.119 327.566 105.575 329.298 108.248C331.813 106.911 334.826 106.271 336.993 107.504C339.255 108.794 340.426 110.518 340.449 112.519C341.604 112.629 342.988 112.898 344.633 113.397L344.175 114.907C342.624 114.441 341.319 114.18 340.244 114.077C340.133 114.504 339.967 114.939 339.761 115.39C339.168 116.655 338.069 117.778 337.08 118.102C336.455 118.316 335.989 118.181 335.712 118.031C334.557 117.422 334.059 115.951 334.573 114.694C334.826 114.069 335.767 112.574 338.868 112.455C338.82 111.04 337.942 109.853 336.21 108.865C334.589 107.939 332.137 108.525 330.073 109.616C331.172 111.91 331.56 114.472 330.919 115.777C330.16 117.327 328.61 118.363 327.107 118.363L327.115 118.395ZM328.728 110.478C328.689 110.51 328.649 110.533 328.61 110.565C326.506 112.076 325.32 113.887 325.573 115.176C325.707 115.856 326.047 116.687 326.917 116.797C327.866 116.932 328.997 116.18 329.519 115.113C329.844 114.448 329.638 112.455 328.736 110.478H328.728ZM338.615 114.069C337.112 114.18 336.305 114.702 336.044 115.326C335.815 115.896 336.076 116.465 336.463 116.663C336.74 116.695 337.76 115.991 338.346 114.741C338.456 114.512 338.543 114.29 338.623 114.069H338.615ZM317.268 107.995C316.738 108.533 316.319 109.118 316.027 109.703C315.52 110.715 315.52 111.483 315.742 111.791C315.987 112.131 316.62 112.099 316.976 112.052C317.118 112.036 317.253 111.886 317.355 111.625C317.68 110.842 317.632 109.387 317.26 107.979L317.268 107.995Z" fill="#18292D"/>
<path d="M279.487 91.6389C273.524 91.6389 268.667 86.7828 268.667 80.8195C268.667 74.8561 273.524 70 279.487 70C285.45 70 290.306 74.8561 290.306 80.8195C290.306 86.7828 285.45 91.6389 279.487 91.6389ZM279.487 71.5818C274.394 71.5818 270.249 75.7261 270.249 80.8195C270.249 85.9128 274.394 90.0571 279.487 90.0571C284.58 90.0571 288.725 85.9128 288.725 80.8195C288.725 75.7261 284.58 71.5818 279.487 71.5818Z" fill="#18292D"/>
<path d="M278.04 85.0349C277.984 85.0349 277.937 85.0349 277.889 85.0191C276.141 84.7265 274.267 81.5866 273.911 80.9618L275.287 80.1788C276.118 81.6261 277.415 83.2396 278.087 83.4452C278.981 83.1051 281.82 79.3563 283.963 75.9871L285.3 76.8333C281.836 82.2747 279.4 85.027 278.048 85.027L278.04 85.0349Z" fill="#18292D"/>
<path d="M205.024 134.437C212.383 124.035 209.917 109.638 199.515 102.279C189.114 94.9195 174.716 97.3857 167.357 107.787C159.998 118.188 162.464 132.586 172.866 139.945C183.267 147.304 197.665 144.838 205.024 134.437Z" fill="#18292D"/>
<path d="M160.117 133.548C161.082 133.169 162.086 133.066 163.043 133.192C159.864 124.675 162.798 115.018 170.328 109.75C179.605 103.265 192.409 105.741 198.602 115.215L201.995 120.404C207.421 128.708 203.782 139.891 194.521 143.419L192.836 144.059L195.344 158.691L204.083 157.196C202.525 165.785 195.383 172.998 185.79 174.643C176.196 176.288 167.069 171.867 162.735 164.283L173.428 162.448C173.428 162.448 168.034 144.692 167.227 142.849L167.085 142.517C166.436 143.411 165.543 144.138 164.435 144.573C161.39 145.76 157.95 144.257 156.764 141.212C155.577 138.167 157.08 134.727 160.125 133.54L160.117 133.548Z" fill="white"/>
<path d="M181.803 175.774C173.618 175.774 165.993 171.614 162.039 164.678C161.912 164.457 161.897 164.18 162.007 163.95C162.118 163.721 162.331 163.555 162.592 163.508L172.4 161.831C170.699 156.247 167.852 147.025 166.8 144.02C166.191 144.581 165.487 145.024 164.704 145.325C161.256 146.669 157.357 144.961 156.012 141.513C155.364 139.844 155.395 138.017 156.115 136.372C156.835 134.727 158.156 133.469 159.824 132.813C160.497 132.552 161.201 132.402 161.912 132.362C159.231 123.749 162.403 114.322 169.869 109.11C174.535 105.851 180.174 104.649 185.766 105.733C191.349 106.816 196.142 110.035 199.258 114.796L202.651 119.985C205.372 124.145 206.044 129.238 204.51 133.96C202.976 138.681 199.432 142.406 194.79 144.17L193.714 144.581L195.976 157.789L203.933 156.429C204.194 156.382 204.447 156.469 204.629 156.65C204.811 156.832 204.89 157.093 204.842 157.346C203.181 166.505 195.573 173.773 185.908 175.426C184.532 175.664 183.156 175.774 181.803 175.774ZM164.008 164.868C168.493 171.749 177.034 175.339 185.647 173.868C194.26 172.389 201.117 166.157 203.055 158.177L195.462 159.474C195.256 159.514 195.043 159.458 194.869 159.34C194.695 159.221 194.584 159.031 194.545 158.825L192.038 144.194C191.974 143.822 192.18 143.458 192.536 143.324L194.22 142.683C198.412 141.086 201.607 137.724 202.999 133.461C204.383 129.198 203.774 124.595 201.323 120.839L197.93 115.65C195.051 111.245 190.622 108.271 185.465 107.275C180.301 106.278 175.081 107.386 170.77 110.399C163.581 115.429 160.702 124.682 163.771 132.916C163.866 133.177 163.818 133.469 163.652 133.683C163.478 133.896 163.209 134.015 162.933 133.975C162.078 133.865 161.201 133.975 160.402 134.284C159.128 134.782 158.116 135.747 157.57 137.005C157.017 138.262 156.993 139.654 157.491 140.935C157.989 142.209 158.954 143.221 160.212 143.767C161.469 144.32 162.861 144.344 164.143 143.846C165.06 143.49 165.859 142.873 166.436 142.066C166.602 141.837 166.879 141.71 167.164 141.742C167.449 141.774 167.694 141.948 167.804 142.209L167.947 142.541C168.761 144.407 173.958 161.499 174.179 162.226C174.242 162.44 174.211 162.677 174.092 162.875C173.973 163.065 173.776 163.199 173.554 163.239L164.008 164.876V164.868Z" fill="#18292D"/>
<path d="M165.203 140.366C164.886 140.366 164.586 140.176 164.467 139.86C163.748 138.017 161.667 137.107 159.825 137.827C159.421 137.985 158.963 137.788 158.804 137.376C158.646 136.973 158.844 136.514 159.255 136.356C161.913 135.32 164.91 136.633 165.946 139.29C166.104 139.694 165.907 140.152 165.495 140.311C165.4 140.35 165.306 140.366 165.211 140.366H165.203Z" fill="#18292D"/>
<path d="M191.144 122.618C190.97 122.618 190.796 122.563 190.654 122.444L186.802 119.36C185.442 118.268 184.627 116.647 184.556 114.907C184.493 113.183 185.173 111.506 186.422 110.32C186.739 109.98 188.882 107.916 193.264 109.094C193.683 109.205 193.936 109.64 193.825 110.067C193.714 110.486 193.279 110.739 192.852 110.628C189.206 109.648 187.648 111.332 187.585 111.403C187.569 111.419 187.545 111.443 187.53 111.459C186.596 112.337 186.082 113.57 186.138 114.852C186.185 116.133 186.786 117.327 187.791 118.126L191.642 121.21C191.982 121.479 192.038 121.978 191.769 122.326C191.611 122.523 191.381 122.626 191.152 122.626L191.144 122.618Z" fill="#18292D"/>
<path d="M174.939 122.587C175.824 123.393 176.916 123.473 177.375 122.777C177.841 122.073 177.501 120.855 176.615 120.048C175.73 119.241 174.638 119.162 174.179 119.858C173.721 120.554 174.053 121.78 174.939 122.587Z" fill="#18292D"/>
<path d="M190.709 115.967C191.595 116.774 192.686 116.853 193.153 116.157C193.62 115.453 193.28 114.235 192.394 113.428C191.508 112.621 190.417 112.542 189.95 113.238C189.483 113.942 189.823 115.16 190.709 115.967Z" fill="#18292D"/>
<path d="M192.544 124.414L181.566 126.351C181.566 126.351 189.657 138.064 192.544 124.414Z" fill="white"/>
<path d="M187.894 131.816C184.485 131.816 181.29 127.348 180.91 126.802C180.76 126.581 180.728 126.296 180.831 126.051C180.934 125.806 181.155 125.624 181.424 125.576L192.402 123.638C192.663 123.591 192.924 123.678 193.106 123.868C193.287 124.058 193.367 124.327 193.311 124.58C192.394 128.898 190.82 131.31 188.629 131.745C188.384 131.793 188.139 131.816 187.894 131.816ZM182.982 126.905C184.279 128.455 186.51 130.551 188.321 130.195C189.649 129.926 190.733 128.281 191.492 125.402L182.982 126.905Z" fill="#18292D"/>
<path d="M162.782 132.41C160.109 124.255 162.917 115.231 169.9 110.075C171.719 117.794 168.88 126.098 162.782 132.41Z" fill="#18292D"/>
<path d="M168.667 123.836C168.667 123.836 168.596 123.836 168.556 123.836C168.121 123.773 167.821 123.377 167.884 122.942C168.865 115.943 176.386 113.997 176.702 113.918C177.122 113.816 177.557 114.069 177.659 114.496C177.762 114.923 177.509 115.35 177.082 115.453C177.011 115.469 170.28 117.224 169.442 123.164C169.387 123.559 169.047 123.844 168.659 123.844L168.667 123.836Z" fill="#18292D"/>
<path d="M185.576 146.337C180.791 146.337 176.489 145.009 176.212 144.922C175.793 144.787 175.563 144.344 175.698 143.933C175.832 143.514 176.275 143.284 176.686 143.419C176.781 143.451 186.454 146.44 192.465 143.371C192.852 143.174 193.327 143.324 193.524 143.719C193.722 144.107 193.572 144.582 193.176 144.779C190.867 145.958 188.146 146.345 185.568 146.345L185.576 146.337Z" fill="#18292D"/>
</g>
<defs>
<clipPath id="clip0_542_17421">
<rect width="242.505" height="180" fill="white" transform="translate(114 70)"/>
</clipPath>
</defs>
</svg>
