<svg width="200" height="200" viewBox="0 0 200 200" fill="none" xmlns="http://www.w3.org/2000/svg">
<path d="M135.896 71.8529L114.933 66.2043L105.603 100.828L126.567 106.476L135.896 71.8529Z" fill="white" stroke="#18292D" stroke-width="1.73524" stroke-linecap="round" stroke-linejoin="round"/>
<path d="M153.739 169.21L165.967 173.811C182.541 180.043 196.744 160.409 185.635 146.618L155.619 109.343C152.3 105.222 148.077 101.908 143.284 99.6671L135.511 96.0316L131.339 90.1662L124.605 96.4888L112.242 79.5872L71.8447 167.787L153.739 169.21Z" fill="#18292D" stroke="#18292D" stroke-width="1.73524" stroke-linecap="round" stroke-linejoin="round"/>
<path d="M117.463 167.924L124.638 96.3318" stroke="white" stroke-width="1.73524" stroke-linecap="round" stroke-linejoin="round"/>
<path d="M47.9422 164.35C43.1099 149.029 32.2148 116.061 32.2148 116.061L34.1341 111.799C34.2301 57.1766 17.0687 97.5904 17.0687 97.5904C17.0687 97.5904 13.4107 125.878 12.626 139.715" fill="white"/>
<path d="M47.9422 164.35C43.1099 149.029 32.2148 116.061 32.2148 116.061L34.1341 111.799C34.2301 57.1766 17.0687 97.5904 17.0687 97.5904C17.0687 97.5904 13.4107 125.878 12.626 139.715" stroke="#18292D" stroke-width="1.73524" stroke-linecap="round" stroke-linejoin="round"/>
<path d="M40.52 171.53H24.9845C16.6748 171.53 10.1038 164.485 10.6852 156.193L12.4917 130.484H31.866L40.52 171.53Z" fill="#18292D" stroke="#18292D" stroke-width="1.73524" stroke-linecap="round" stroke-linejoin="round"/>
<path d="M139.085 29.2893C136.28 28.2675 133.305 28.8038 131.092 30.4635L128.342 29.4643C124.921 28.2167 121.145 29.9837 119.897 33.4046L114.331 48.6918L118.683 50.2781L120.947 44.0571C121.822 41.6523 124.487 40.416 126.886 41.291L129.426 42.2168L125.401 40.749L128.066 41.72C132.475 43.3289 137.352 41.0595 138.961 36.6393L141.338 30.1191L139.08 29.295L139.085 29.2893Z" fill="#18292D"/>
<path d="M118.786 56.7473C118.024 58.8417 115.709 59.9143 113.609 59.1465L113.293 59.0336C111.204 58.2715 110.121 55.9683 110.883 53.8683L112.559 49.2674C113.316 47.1844 115.636 46.1061 117.725 46.8626L118.041 46.9755C119.599 47.54 120.587 48.957 120.7 50.4981" fill="white"/>
<path d="M118.786 56.7473C118.024 58.8417 115.709 59.9143 113.609 59.1465L113.293 59.0336C111.204 58.2715 110.121 55.9683 110.883 53.8683L112.559 49.2674C113.316 47.1844 115.636 46.1061 117.725 46.8626L118.041 46.9755C119.599 47.54 120.587 48.957 120.7 50.4981" stroke="#18292D" stroke-width="1.73524" stroke-linecap="round" stroke-linejoin="round"/>
<path d="M133.486 34.1215L135.693 28.053L138.2 28.9675L144.81 31.378L148.801 32.8344C153.216 34.4433 155.485 39.3151 153.882 43.7184L151.669 49.7982L149.151 48.8837L142.541 46.4788L138.55 45.0224C134.141 43.4192 131.871 38.5417 133.48 34.1328L133.486 34.1215Z" fill="#18292D"/>
<path d="M141.853 59.9423C142.615 57.848 144.918 56.7754 147.012 57.5375L147.329 57.6504C149.417 58.4125 150.507 60.7214 149.745 62.8157L148.068 67.4166C147.306 69.4996 144.98 70.5779 142.897 69.8214L142.581 69.7085C141.034 69.144 140.035 67.7383 139.928 66.1972" fill="white"/>
<path d="M141.853 59.9423C142.615 57.848 144.918 56.7754 147.012 57.5375L147.329 57.6504C149.417 58.4125 150.507 60.7214 149.745 62.8157L148.068 67.4166C147.306 69.4996 144.98 70.5779 142.897 69.8214L142.581 69.7085C141.034 69.144 140.035 67.7383 139.928 66.1972" stroke="#18292D" stroke-width="1.73524" stroke-linecap="round" stroke-linejoin="round"/>
<path d="M142.337 71.9106C141.174 75.0719 136.782 79.5768 132.148 79.8026C125.853 80.0735 119.39 77.7195 114.749 73.463C111.334 70.3017 110.894 64.0412 112.023 60.863C115.308 51.842 118.588 42.8323 121.868 33.8226C123.014 30.6218 127.186 29.0976 131.137 30.4524C136.506 32.4056 141.88 34.3645 147.254 36.3234C151.161 37.8307 153.374 41.6807 152.182 44.8645C148.903 53.8743 145.623 62.8783 142.337 71.905V71.9106Z" fill="white" stroke="#18292D" stroke-width="1.73524" stroke-linecap="round" stroke-linejoin="round"/>
<path d="M143.602 30.9323C146.408 31.954 148.344 34.2798 148.982 36.9726L151.725 37.9718C155.135 39.2137 156.902 42.996 155.655 46.417L150.088 61.7041L145.736 60.1178L148 53.8968C148.875 51.492 147.633 48.8331 145.228 47.9581L145.183 47.9412L146.718 48.5001L139.667 45.9315C135.253 44.3226 132.989 39.4565 134.598 35.0363L136.975 28.5161L143.602 30.9323Z" fill="#18292D"/>
<path d="M134.191 36.1537C134.468 35.6851 134.711 35.1771 134.908 34.6408L137.115 28.5722L134.603 27.6577L131.47 26.5173C127.044 24.9085 122.173 27.1778 120.569 31.5811L118.356 37.6609L120.027 38.2706L120.869 38.5755L124.013 39.7214C124.572 39.9246 125.153 40.0714 125.712 40.1448C127.479 37.2488 130.827 35.6738 134.191 36.1593V36.1537Z" fill="#18292D"/>
<path d="M128.218 69.4262L120.896 66.7617C120.896 66.7617 123.917 75.9972 128.218 69.4262Z" stroke="#18292D" stroke-width="1.73524" stroke-linecap="round" stroke-linejoin="round"/>
<path d="M135.822 47.4834C137.888 47.4834 139.943 48.3132 141.439 49.7471" stroke="#18292D" stroke-width="1.73524" stroke-linecap="round" stroke-linejoin="round"/>
<path d="M126.898 44.4977C124.95 42.8324 123.059 42.7816 121.428 43.3066" stroke="#18292D" stroke-width="1.73524" stroke-linecap="round" stroke-linejoin="round"/>
<path d="M134.475 56.2959C134.204 57.0467 134.418 57.8144 134.96 58.012C135.502 58.2096 136.162 57.758 136.433 57.0072C136.704 56.2564 136.49 55.4886 135.948 55.291C135.406 55.0935 134.746 55.5451 134.475 56.2959Z" fill="#18292D"/>
<path d="M122.1 51.7966C121.829 52.5474 122.043 53.3152 122.585 53.5128C123.127 53.7103 123.787 53.2587 124.058 52.5079C124.329 51.7571 124.115 50.9894 123.573 50.7918C123.031 50.5942 122.371 51.0458 122.1 51.7966Z" fill="#18292D"/>
<path d="M124.645 46.394C127.451 47.6303 128.721 50.9045 127.484 53.7045C126.248 56.5101 122.98 57.7803 120.174 56.544C117.368 55.3077 116.098 52.0391 117.334 49.2335C118.571 46.4278 121.839 45.1577 124.645 46.394Z" stroke="#FFC31F" stroke-width="1.73524" stroke-linecap="round" stroke-linejoin="round"/>
<path d="M129.421 53.863L123.753 60.6542C123.753 60.6542 124.645 62.8276 126.508 63.68" stroke="#18292D" stroke-width="1.73524" stroke-linecap="round" stroke-linejoin="round"/>
<path d="M141.321 57.7804C140.35 60.6877 137.211 62.257 134.304 61.2861C131.396 60.3151 129.827 57.1764 130.798 54.2691C131.769 51.3618 134.908 49.7925 137.815 50.7634C140.722 51.7344 142.292 54.8731 141.321 57.7804Z" stroke="#FFC31F" stroke-width="1.73524" stroke-linecap="round" stroke-linejoin="round"/>
<path d="M128.049 53.2644L130.488 54.2241" stroke="#FFC31F" stroke-width="1.73524" stroke-linecap="round" stroke-linejoin="round"/>
<path d="M124.638 96.3313L110.904 78.0579L105.608 82.1055L118.423 105.55L124.638 96.3313Z" stroke="white" stroke-width="1.73524" stroke-linecap="round" stroke-linejoin="round"/>
<path d="M135.51 96.0267L131.339 90.1614L124.638 96.3316L129.278 106.922L135.51 96.0267Z" stroke="white" stroke-width="1.73524" stroke-linecap="round" stroke-linejoin="round"/>
<path d="M34.1183 171.531C29.8619 171.531 26.4014 168.07 26.4014 163.814V58.2038C26.4014 53.9473 29.8619 50.4868 34.1183 50.4868H83.8862L114.094 80.6942V163.814C114.094 168.07 110.633 171.531 106.377 171.531H34.1183Z" fill="white"/>
<path d="M83.6321 51.1079L113.478 80.954V163.814C113.478 167.726 110.294 170.91 106.382 170.91H34.1182C30.2061 170.91 27.0222 167.726 27.0222 163.814V58.2039C27.0222 54.2918 30.2061 51.1079 34.1182 51.1079H83.6321ZM84.1458 49.866H34.1182C29.5117 49.866 25.7803 53.5974 25.7803 58.2039V163.814C25.7803 168.42 29.5117 172.152 34.1182 172.152H106.377C110.983 172.152 114.714 168.42 114.714 163.814V80.4403L84.1458 49.8716V49.866Z" fill="#18292D"/>
<path d="M84.1406 49.866V72.1023C84.1406 76.7088 87.8721 80.4403 92.4786 80.4403H114.715L84.1463 49.8716L84.1406 49.866Z" fill="#4A7C88"/>
<path d="M98.0383 116.569H56.3486V122.13H98.0383V116.569Z" fill="#4A7C88"/>
<path d="M98.0383 127.684H56.3486V133.245H98.0383V127.684Z" fill="#4A7C88"/>
<path d="M98.0383 138.8H56.3486V144.36H98.0383V138.8Z" fill="#4A7C88"/>
<path d="M48.0166 116.569H42.4561V122.13H48.0166V116.569Z" fill="#4A7C88"/>
<path d="M48.0166 127.684H42.4561V133.245H48.0166V127.684Z" fill="#4A7C88"/>
<path d="M48.0166 138.8H42.4561V144.36H48.0166V138.8Z" fill="#4A7C88"/>
<path d="M84.1457 99.8933H42.4561V105.454H84.1457V99.8933Z" fill="#4A7C88"/>
<path d="M121.364 124.196L113.11 108.864C112.422 107.588 110.801 107.17 109.582 107.949C107.68 109.168 106.748 111.449 107.256 113.651L108.651 119.674L121.364 124.202V124.196Z" fill="white" stroke="#18292D" stroke-width="1.73524" stroke-linecap="round" stroke-linejoin="round"/>
<path d="M113.454 118.478L93.1826 112.906C92.0592 112.595 90.9302 113.369 90.8117 114.526L90.6931 115.655C90.4673 117.8 91.5512 119.872 93.448 120.905L98.5681 123.694L98.8222 124.343L91.8391 123.366C90.3205 123.152 88.898 124.219 88.706 125.737C88.4125 128.063 89.8463 130.203 92.0141 130.891C90.6705 130.886 89.4963 131.857 89.3044 133.223C88.977 135.571 90.4165 137.745 92.6012 138.439C91.2576 138.433 90.0834 139.404 89.8915 140.77C89.5246 143.39 91.3536 145.812 93.973 146.179L108.125 148.154L109 150.39C110.039 153.049 112.201 155.109 114.9 156.029L153.744 169.205C153.744 169.205 164.182 155.008 156.894 143.695C156.855 143.633 156.759 143.649 156.685 143.627L126.534 134.03L126.196 132.269C124.92 125.619 119.98 120.273 113.454 118.478Z" fill="white" stroke="#18292D" stroke-width="1.73524" stroke-linecap="round" stroke-linejoin="round"/>
<path d="M109.819 133.466L92.7871 131.089" stroke="#18292D" stroke-width="1.73524" stroke-linecap="round" stroke-linejoin="round"/>
<path d="M91.7832 123.361L109.876 125.89" stroke="#18292D" stroke-width="1.73524" stroke-linecap="round" stroke-linejoin="round"/>
<path d="M91.0322 138.264L109.131 140.793" stroke="#18292D" stroke-width="1.73524" stroke-linecap="round" stroke-linejoin="round"/>
<path d="M26.6887 115.643C28.4161 110.642 28.4951 104.014 26.5137 97.2345C25.7008 94.4457 24.6 91.8772 23.3072 89.5796L29.2121 86.2094C35.7774 87.0336 39.396 87.4909 41.6032 86.2094C45.1033 84.1828 44.7871 82.0828 44.8154 81.9473C44.8549 81.7384 44.8154 81.5239 44.6912 81.3489C44.567 81.1739 44.3807 81.0554 44.1718 81.0271L42.8452 80.8126C46.3057 78.4078 45.6791 75.4158 45.6452 75.2747C45.5774 74.9755 45.3404 74.7441 45.0412 74.682L27.1967 71.0465C27.9871 70.4537 29.9064 68.7263 30.2169 68.5682C31.9105 68.8223 38.7073 70.8207 42.8565 68.9013C44.5783 68.1053 45.5323 67.1513 45.6847 66.0674C45.8541 64.8594 44.9791 64.0577 44.8774 63.9731C44.7645 63.8714 44.6573 63.8263 44.5274 63.7981L27.8629 60.2247C27.6371 60.1795 27.4 60.2247 27.2193 60.3714C27.2024 60.3827 26.8919 60.6255 26.3838 61.0206L25.4863 56.4763C26.5193 55.573 29.5282 52.8295 31.0016 50.2835C32.9435 46.919 30.7645 43.2496 30.6008 43.0407C30.4653 42.8601 30.2508 42.7415 30.025 42.7302C29.7992 42.719 29.5734 42.8036 29.4153 42.9673L18.0628 54.715C17.8935 54.89 17.8145 55.1327 17.854 55.3754L18.2153 66.5924C18.2491 66.8013 18.3564 66.9763 18.5088 67.0948C18.537 67.1174 18.5709 67.1231 18.5991 67.14C17.504 68.015 16.4765 68.8448 15.6636 69.5166C14.3427 70.6118 13.7104 71.7465 13.7838 72.8868C13.8233 73.5134 14.0773 74.0158 14.3596 74.3941C14.3483 74.3941 14.3314 74.4053 14.3201 74.411C11.4523 75.5683 10.5322 77.1602 11.2378 79.7288C11.5314 80.7957 11.379 81.0554 10.9781 81.7554C10.6959 82.2409 10.3459 82.8449 10.0636 83.8384C9.32411 86.4183 15.2741 114.238 15.3306 114.39" fill="white"/>
<path d="M26.6887 115.643C28.4161 110.642 28.4951 104.014 26.5137 97.2345C25.7008 94.4457 24.6 91.8772 23.3072 89.5796L29.2121 86.2094C35.7774 87.0336 39.396 87.4909 41.6032 86.2094C45.1033 84.1828 44.7871 82.0828 44.8154 81.9473C44.8549 81.7384 44.8154 81.5239 44.6912 81.3489C44.567 81.1739 44.3807 81.0554 44.1718 81.0271L42.8452 80.8126C46.3057 78.4078 45.6791 75.4158 45.6452 75.2747C45.5774 74.9755 45.3404 74.7441 45.0412 74.682L27.1967 71.0465C27.9871 70.4537 29.9064 68.7263 30.2169 68.5682C31.9105 68.8223 38.7073 70.8207 42.8565 68.9013C44.5783 68.1053 45.5323 67.1513 45.6847 66.0674C45.8541 64.8594 44.9791 64.0577 44.8774 63.9731C44.7645 63.8714 44.6573 63.8263 44.5274 63.7981L27.8629 60.2247C27.6371 60.1795 27.4 60.2247 27.2193 60.3714C27.2024 60.3827 26.8919 60.6255 26.3838 61.0206L25.4863 56.4763C26.5193 55.573 29.5282 52.8295 31.0016 50.2835C32.9435 46.919 30.7645 43.2496 30.6008 43.0407C30.4653 42.8601 30.2508 42.7415 30.025 42.7302C29.7992 42.719 29.5734 42.8036 29.4153 42.9673L18.0628 54.715C17.8935 54.89 17.8145 55.1327 17.854 55.3754L18.2153 66.5924C18.2491 66.8013 18.3564 66.9763 18.5088 67.0948C18.537 67.1174 18.5709 67.1231 18.5991 67.14C17.504 68.015 16.4765 68.8448 15.6636 69.5166C14.3427 70.6118 13.7104 71.7465 13.7838 72.8868C13.8233 73.5134 14.0773 74.0158 14.3596 74.3941C14.3483 74.3941 14.3314 74.4053 14.3201 74.411C11.4523 75.5683 10.5322 77.1602 11.2378 79.7288C11.5314 80.7957 11.379 81.0554 10.9781 81.7554C10.6959 82.2409 10.3459 82.8449 10.0636 83.8384C9.32411 86.4183 15.2741 114.238 15.3306 114.39" stroke="#18292D" stroke-width="1.73524" stroke-linecap="round" stroke-linejoin="round"/>
<path d="M43.3642 80.8696L26.2593 78.1147L17.3682 80.5591" stroke="#18292D" stroke-width="1.73524" stroke-linecap="round" stroke-linejoin="round"/>
<path d="M30.8324 71.8537L26.5308 70.9504C26.5308 70.9504 24.2727 70.5158 18.334 72.915" stroke="#18292D" stroke-width="1.73524" stroke-linecap="round" stroke-linejoin="round"/>
<path d="M16.498 68.8167C19.4053 66.4005 24.9489 62.082 27.1279 60.3884" stroke="#18292D" stroke-width="1.73524" stroke-linecap="round" stroke-linejoin="round"/>
<path d="M177.641 151.439C177.641 151.439 174.067 147.042 156.895 143.7Z" fill="white"/>
<path d="M177.641 151.439C177.641 151.439 174.067 147.042 156.895 143.7" stroke="#18292D" stroke-width="1.73524" stroke-linecap="round" stroke-linejoin="round"/>
</svg>
