<svg width="470" height="250" viewBox="0 0 470 250" fill="none" xmlns="http://www.w3.org/2000/svg">
<g clip-path="url(#clip0_542_17308)">
<path d="M164.135 110.831C169.678 108.789 172.94 110.887 174.703 112.993C174.95 113.288 175.173 113.599 175.389 113.918C174.575 102.337 177.223 93.9382 183.301 88.8894C188.581 84.5107 196.581 82.7161 206.447 83.721C213.849 84.4708 219.775 86.5365 219.838 86.5605C220.014 86.6243 220.158 86.7678 220.213 86.9433C220.66 88.2912 231.18 120.179 228.317 135.859C225.446 151.564 224.568 156.533 224.568 156.533C224.536 156.708 224.433 156.86 224.281 156.948C224.185 157.012 217.892 160.657 207.484 159.699L207.548 173.426C207.548 173.609 207.468 173.785 207.316 173.904C207.125 174.056 204.301 176.194 195.703 175.149C189.642 174.407 180.709 172.086 167.804 166.375C167.564 166.272 167.421 166.024 167.437 165.769L169.686 135.038C165.459 134.862 161.152 131.249 159.285 125.85C157.004 119.262 159.134 112.658 164.135 110.823V110.831Z" fill="white"/>
<path d="M175.891 74.6765C181.179 75.3225 185.805 77.7871 189.211 81.3682C174.336 83.6254 162.101 95.9242 160.131 112.067C160.043 112.777 159.987 113.487 159.939 114.189C153.87 109.603 150.32 102.01 151.309 93.9143C152.785 81.8149 163.784 73.2009 175.891 74.6685V74.6765Z" fill="#18292D"/>
<path d="M173.466 126.95L160.163 124.645L154.412 108.925C151.573 101.156 153.255 92.4466 158.815 86.3132C165.004 79.4938 172.437 71.7891 174.256 72.0044C176.322 72.2517 200.911 71.7173 216.09 72.7621C224.632 73.3444 231.076 80.746 230.486 89.2882L226.012 106.859L219.727 86.3291C219.727 86.3291 204.421 99.29 181.897 94.9032L173.466 126.958V126.95Z" fill="#18292D"/>
<path d="M201.98 121.75C201.589 121.75 201.199 121.726 200.808 121.678C198.247 121.367 195.966 120.075 194.371 118.049C192.784 116.016 192.074 113.495 192.393 110.935C192.704 108.375 193.996 106.094 196.022 104.498C198.048 102.911 200.576 102.201 203.137 102.52C205.697 102.831 207.978 104.123 209.573 106.149C211.16 108.175 211.87 110.704 211.551 113.264C210.953 118.153 206.782 121.75 201.98 121.75ZM201.956 104.036C200.162 104.036 198.439 104.626 197.003 105.751C195.312 107.075 194.236 108.981 193.972 111.118C193.709 113.256 194.299 115.362 195.623 117.06C196.947 118.751 198.854 119.828 200.991 120.091C205.402 120.626 209.422 117.475 209.964 113.064C210.227 110.927 209.637 108.821 208.313 107.122C206.989 105.432 205.083 104.355 202.945 104.092C202.61 104.052 202.283 104.028 201.956 104.028V104.036Z" fill="#FFC31F"/>
<path d="M214.279 136.976C214.215 136.976 214.151 136.976 214.095 136.952L205.29 134.854C204.859 134.751 204.596 134.32 204.7 133.889C204.804 133.459 205.234 133.195 205.665 133.299L214.47 135.397C214.901 135.501 215.164 135.931 215.061 136.354C214.973 136.721 214.646 136.968 214.287 136.968L214.279 136.976Z" fill="#18292D"/>
<path d="M172.206 134.073C167.564 135.684 162.037 131.911 159.867 125.65C157.698 119.389 159.708 113.008 164.35 111.397C168.992 109.786 174.519 113.559 176.689 119.82L172.206 134.073Z" fill="white"/>
<path d="M169.997 135.237C165.594 135.237 161.048 131.52 159.11 125.913C156.797 119.246 159.03 112.402 164.087 110.648C169.136 108.893 175.126 112.897 177.439 119.557C177.582 119.971 177.359 120.426 176.944 120.57C176.529 120.713 176.075 120.49 175.931 120.075C173.913 114.245 168.833 110.687 164.605 112.147C160.386 113.607 158.592 119.549 160.617 125.379C162.643 131.209 167.716 134.775 171.943 133.307C172.358 133.164 172.813 133.387 172.956 133.802C173.1 134.216 172.876 134.671 172.462 134.815C171.656 135.094 170.827 135.229 169.997 135.229V135.237Z" fill="#18292D"/>
<path d="M206.51 114.045C206.295 115.8 205.37 117.132 204.437 117.02C203.503 116.909 202.921 115.393 203.137 113.639C203.352 111.884 204.277 110.552 205.21 110.664C206.143 110.775 206.726 112.291 206.51 114.045Z" fill="#18292D"/>
<path d="M223.89 113.982C223.674 115.736 222.749 117.068 221.816 116.957C220.883 116.845 220.301 115.33 220.516 113.575C220.731 111.82 221.657 110.488 222.59 110.6C223.523 110.711 224.105 112.227 223.89 113.982Z" fill="#18292D"/>
<path d="M174.599 116.223C174.24 116.223 173.913 115.976 173.825 115.609C173.722 115.178 173.993 114.747 174.416 114.652L192.999 110.257C193.43 110.161 193.861 110.424 193.957 110.847C194.06 111.278 193.789 111.709 193.366 111.804L174.782 116.199C174.719 116.215 174.655 116.223 174.599 116.223Z" fill="#FFC31F"/>
<path d="M210.969 160.17C204.078 160.17 194.833 158.16 183.922 150.902C183.556 150.655 183.46 150.16 183.699 149.793C183.946 149.426 184.441 149.331 184.808 149.57C206.04 163.687 220.955 157.083 223.244 155.911C223.499 154.483 224.512 148.812 226.928 135.604C229.736 120.275 218.984 87.717 218.873 87.3899C218.737 86.9752 218.961 86.5206 219.375 86.385C219.798 86.2414 220.245 86.4727 220.38 86.8875C220.827 88.2354 231.363 120.163 228.492 135.891C225.652 151.412 224.751 156.517 224.735 156.565C224.695 156.788 224.56 156.988 224.36 157.107C224.001 157.323 219.144 160.162 210.961 160.162L210.969 160.17Z" fill="#18292D"/>
<path d="M168.051 166.622C168.051 166.622 168.011 166.622 167.995 166.622C167.557 166.59 167.23 166.208 167.261 165.769L169.527 134.751C169.558 134.312 169.933 133.993 170.38 134.017C170.819 134.049 171.146 134.432 171.114 134.87L168.849 165.889C168.817 166.311 168.466 166.63 168.051 166.63V166.622Z" fill="#18292D"/>
<path d="M206.925 174.239C206.487 174.239 206.128 173.888 206.128 173.442L206.064 159.301C206.064 158.862 206.415 158.503 206.862 158.503C207.3 158.503 207.659 158.854 207.659 159.301L207.723 173.442C207.723 173.88 207.372 174.239 206.925 174.239Z" fill="#18292D"/>
<path d="M225.788 121.766C225.398 121.766 225.007 121.742 224.616 121.694C223.324 121.535 222.096 121.128 220.979 120.49C220.596 120.275 220.468 119.78 220.684 119.397C220.899 119.015 221.386 118.879 221.776 119.102C222.71 119.637 223.731 119.98 224.815 120.107C229.226 120.642 233.246 117.491 233.788 113.08C234.323 108.67 231.172 104.642 226.761 104.108C222.989 103.645 219.36 105.934 218.147 109.539C218.012 109.954 217.557 110.185 217.135 110.042C216.72 109.898 216.488 109.451 216.632 109.029C218.076 104.706 222.415 101.962 226.953 102.52C232.233 103.166 236.013 107.984 235.367 113.272C234.769 118.161 230.598 121.758 225.796 121.758L225.788 121.766Z" fill="#FFC31F"/>
<path d="M215.22 130.914C214.925 130.914 214.646 130.755 214.51 130.476C214.311 130.085 214.47 129.606 214.861 129.407C218.251 127.7 221.37 125.459 221.394 124.717C220.373 122.97 215.348 105.966 214.782 104.036C214.654 103.613 214.901 103.166 215.324 103.047C215.747 102.927 216.193 103.166 216.313 103.589C218.53 111.11 222.079 122.739 222.789 123.975C222.941 124.231 223.076 124.653 222.909 125.22C222.263 127.381 216.688 130.276 215.579 130.843C215.467 130.898 215.34 130.93 215.22 130.93V130.914Z" fill="#18292D"/>
<path d="M218.036 111.214C218.036 111.214 217.972 111.214 217.94 111.214L211.894 110.48C211.456 110.424 211.144 110.025 211.2 109.595C211.256 109.156 211.647 108.845 212.086 108.901L218.131 109.635C218.57 109.69 218.881 110.089 218.825 110.52C218.777 110.927 218.434 111.222 218.036 111.222V111.214Z" fill="#FFC31F"/>
<path d="M164.637 192.549L204.517 197.403C206.948 197.699 209.159 195.968 209.455 193.537L212.083 171.946C212.379 169.515 210.648 167.304 208.217 167.008L168.336 162.154C165.905 161.858 163.694 163.589 163.398 166.02L160.77 187.611C160.474 190.042 162.205 192.253 164.637 192.549Z" fill="#18292D"/>
<path d="M300.602 248.814L261.959 176.832C251.295 165.586 232.336 160.601 214.638 164.389L148.582 178.538C138.955 180.604 130.572 185.095 124.853 191.26L116 248.814C116 248.814 300.602 247.02 300.602 248.814Z" fill="#18292D"/>
<path d="M183.333 164.804L196.812 152.84C198.296 151.524 200.569 151.644 201.901 153.119L202.076 153.311C203.703 155.113 204.349 157.594 203.791 159.955L202.762 164.349L183.333 164.804Z" fill="white"/>
<path d="M183.333 165.602C183.109 165.602 182.894 165.514 182.735 165.33C182.439 165.003 182.471 164.493 182.798 164.206L196.278 152.242C198.08 150.639 200.864 150.79 202.483 152.585L202.658 152.776C204.461 154.77 205.171 157.522 204.565 160.138L203.536 164.533C203.432 164.964 203.009 165.227 202.579 165.131C202.148 165.035 201.885 164.605 201.98 164.174L203.009 159.779C203.504 157.674 202.929 155.456 201.478 153.853L201.302 153.662C200.274 152.521 198.495 152.425 197.338 153.446L183.859 165.41C183.708 165.546 183.516 165.61 183.333 165.61V165.602Z" fill="#18292D"/>
<path d="M168.441 246.822L183.332 162.812L217.461 153.368L225.597 151.191C228.699 150.361 231.507 153.265 230.574 156.335C230.207 157.556 229.29 158.537 228.093 158.983L219.631 162.158L224.209 180.694C224.775 182.999 224.592 185.423 223.682 187.617L221.585 192.658C220.349 195.617 217.9 197.898 214.861 198.911L205.489 202.037L213.481 246.83H168.457L168.441 246.822Z" fill="white"/>
<path d="M168.441 247.62C168.393 247.62 168.346 247.62 168.298 247.604C167.867 247.524 167.572 247.109 167.652 246.678L182.543 162.668C182.599 162.365 182.822 162.118 183.117 162.038L217.246 152.595L225.389 150.417C227.128 149.955 228.915 150.449 230.175 151.741C231.427 153.033 231.866 154.836 231.339 156.567C230.901 158.018 229.792 159.199 228.372 159.733L220.572 162.652L224.982 180.494C225.589 182.943 225.389 185.583 224.416 187.912L222.318 192.953C220.994 196.127 218.37 198.568 215.108 199.653L206.383 202.564L214.247 246.678C214.327 247.109 214.04 247.524 213.601 247.604C213.162 247.683 212.755 247.388 212.676 246.958L204.684 202.165C204.612 201.774 204.843 201.391 205.218 201.272L214.59 198.145C217.413 197.204 219.686 195.09 220.835 192.347L222.933 187.306C223.77 185.288 223.946 183.007 223.427 180.885L218.849 162.349C218.753 161.958 218.961 161.552 219.343 161.408L227.806 158.234C228.763 157.875 229.505 157.077 229.808 156.104C230.159 154.94 229.864 153.727 229.018 152.85C228.173 151.981 226.968 151.646 225.796 151.957L217.661 154.134L184.018 163.442L169.215 246.958C169.143 247.34 168.808 247.62 168.433 247.62H168.441Z" fill="#18292D"/>
<path d="M209.111 203.367C208.8 203.367 208.505 203.184 208.377 202.881C207.555 200.927 207.531 199.052 208.297 197.306C209.964 193.509 214.813 191.723 215.021 191.651C215.436 191.499 215.89 191.715 216.042 192.129C216.193 192.544 215.978 192.999 215.563 193.15C215.515 193.166 211.145 194.785 209.757 197.952C209.175 199.284 209.206 200.727 209.852 202.259C210.02 202.666 209.837 203.136 209.43 203.304C209.326 203.343 209.222 203.367 209.119 203.367H209.111Z" fill="#18292D"/>
<path d="M213.059 181.585C212.74 181.585 212.437 181.394 212.317 181.075C212.158 180.668 212.357 180.205 212.772 180.038C213.689 179.679 221.8 176.624 223.906 179.998C224.137 180.373 224.026 180.859 223.651 181.099C223.276 181.33 222.781 181.218 222.55 180.843C221.441 179.073 215.874 180.54 213.346 181.529C213.25 181.569 213.155 181.585 213.059 181.585Z" fill="#18292D"/>
<path d="M211.974 173.952C211.655 173.952 211.352 173.761 211.232 173.442C211.073 173.035 211.272 172.572 211.687 172.405C212.604 172.046 220.715 168.991 222.821 172.365C223.052 172.74 222.941 173.226 222.566 173.466C222.191 173.697 221.696 173.585 221.465 173.21C220.357 171.44 214.789 172.907 212.261 173.896C212.165 173.936 212.07 173.952 211.974 173.952Z" fill="#18292D"/>
<path d="M209.653 166.606C209.334 166.606 209.031 166.415 208.911 166.096C208.752 165.689 208.951 165.227 209.366 165.059C210.283 164.7 218.395 161.645 220.5 165.019C220.732 165.394 220.62 165.881 220.245 166.12C219.87 166.351 219.376 166.24 219.144 165.865C218.036 164.094 212.469 165.562 209.94 166.551C209.844 166.59 209.749 166.606 209.653 166.606Z" fill="#18292D"/>
<path d="M327.481 161.887L350.604 130.605L344.239 124.376L331.501 138.206C326.899 143.207 325.001 150.122 326.405 156.774L327.489 161.887H327.481Z" fill="white"/>
<path d="M327.481 162.684C327.425 162.684 327.369 162.684 327.314 162.668C327.011 162.605 326.771 162.357 326.699 162.054L325.615 156.942C324.155 150.05 326.133 142.848 330.903 137.672L343.64 123.842C343.784 123.682 343.991 123.586 344.207 123.586C344.406 123.57 344.629 123.666 344.789 123.81L351.154 130.039C351.441 130.318 351.473 130.765 351.233 131.084L328.111 162.365C327.96 162.573 327.72 162.692 327.473 162.692L327.481 162.684ZM344.262 125.525L332.083 138.749C327.665 143.55 325.83 150.226 327.178 156.607L327.896 159.98L349.55 130.685L344.27 125.517L344.262 125.525Z" fill="#18292D"/>
<path d="M239.252 244.437L232.735 238.679L262.262 140.32L306.815 146.852C314.01 147.905 320.654 151.319 325.702 156.543L325.758 156.599L294.134 246.918L239.244 244.429L239.252 244.437Z" fill="white"/>
<path d="M294.142 247.723C294.142 247.723 294.118 247.723 294.11 247.723L239.22 245.235C239.036 245.227 238.861 245.155 238.725 245.035L232.209 239.277C231.978 239.069 231.882 238.75 231.97 238.447L261.496 140.089C261.608 139.706 261.983 139.474 262.374 139.53L306.927 146.063C314.257 147.139 321.124 150.665 326.277 155.992L326.332 156.048C326.54 156.264 326.612 156.583 326.516 156.87L294.891 247.189C294.78 247.508 294.477 247.723 294.142 247.723ZM239.571 243.656L293.583 246.104L324.841 156.806C319.968 151.893 313.539 148.647 306.696 147.642L262.828 141.213L233.645 238.423L239.571 243.656Z" fill="#18292D"/>
<path d="M353.347 125.557L323.198 215.955L296.582 249.207L236.436 246.328L267.997 148.041L326.556 155.865L353.347 125.557Z" fill="#4A7C88"/>
<path d="M296.582 250.004C296.503 250.004 296.423 249.988 296.335 249.965C295.912 249.829 295.681 249.382 295.817 248.96L325.79 155.618C325.926 155.195 326.38 154.972 326.795 155.099C327.218 155.235 327.449 155.681 327.313 156.104L297.34 249.446C297.228 249.781 296.917 249.996 296.582 249.996V250.004Z" fill="white"/>
<path d="M268.005 148.838C267.758 148.838 267.518 148.726 267.367 148.519L261.632 140.798C261.369 140.448 261.441 139.945 261.8 139.682C262.151 139.419 262.653 139.49 262.916 139.849L268.651 147.57C268.914 147.921 268.842 148.423 268.484 148.687C268.34 148.79 268.172 148.846 268.005 148.846V148.838Z" fill="#18292D"/>
<path d="M302.795 225.157L310.181 233.604C310.181 233.604 303.649 242.258 304.263 243.095C305.746 245.121 319.218 243.43 323.277 238.948C331.221 230.174 340.577 214.534 334.013 206.893C327.449 199.252 315.254 189.537 315.254 189.537C315.254 189.537 309.774 194.865 313.666 198.813C319.122 204.332 323.461 211.423 323.461 211.423L303.17 200.536C303.17 200.536 300.394 203.638 299.685 207.411C298.967 211.176 296.239 216.52 302.795 225.165V225.157Z" fill="white"/>
<path d="M323.277 239.745C323.094 239.745 322.91 239.682 322.767 239.562C322.432 239.275 322.384 238.772 322.671 238.437C328.071 232.025 339.923 216.153 333.375 207.371C328.071 200.249 317.527 192.345 314.855 190.399C313.906 191.755 311.888 195.168 313.778 197.705C314.807 199.092 316.338 200.751 317.949 202.506C321.116 205.952 324.394 209.517 324.896 212.037C324.984 212.468 324.705 212.891 324.274 212.978C323.836 213.066 323.421 212.787 323.333 212.356C322.918 210.267 319.656 206.717 316.777 203.591C315.134 201.804 313.579 200.113 312.502 198.662C309.343 194.426 313.89 189.011 314.081 188.787C314.344 188.476 314.807 188.413 315.15 188.652C315.692 189.035 328.422 198.063 334.651 206.422C337.642 210.434 340.218 220.061 323.891 239.466C323.732 239.65 323.509 239.753 323.277 239.753V239.745Z" fill="#18292D"/>
<path d="M329.897 216.87C329.762 216.87 329.618 216.831 329.49 216.759L303.481 201.23C302.516 201.972 300.235 204.061 301.631 206.446C301.854 206.829 301.726 207.315 301.343 207.539C300.961 207.762 300.474 207.634 300.251 207.252C298.265 203.87 301.184 200.775 303.01 199.611C303.266 199.451 303.593 199.443 303.848 199.595L330.304 215.395C330.679 215.618 330.806 216.113 330.583 216.488C330.432 216.735 330.168 216.878 329.897 216.878V216.87Z" fill="#18292D"/>
<path d="M319.72 231.259C319.553 231.259 319.385 231.203 319.234 231.092C318.492 230.525 301.001 217.142 298.528 214.558C295.689 211.599 298.624 206.183 298.751 205.952C298.855 205.76 299.047 205.617 299.262 205.561C299.477 205.505 299.709 205.545 299.892 205.672L326.077 223.092C326.444 223.339 326.54 223.834 326.3 224.2C326.053 224.567 325.558 224.663 325.192 224.424L299.764 207.507C299.055 209.134 298.265 211.981 299.677 213.449C302.069 215.945 320.023 229.688 320.207 229.823C320.558 230.095 320.621 230.589 320.358 230.94C320.199 231.147 319.967 231.251 319.728 231.251L319.72 231.259Z" fill="#18292D"/>
<path d="M313.746 236.204C313.594 236.204 313.435 236.156 313.299 236.068C312.518 235.542 294.285 223.076 298.544 213.983C298.727 213.584 299.206 213.409 299.605 213.6C300.003 213.784 300.171 214.262 299.988 214.661C296.295 222.533 314.009 234.625 314.193 234.744C314.559 234.992 314.655 235.486 314.408 235.853C314.256 236.084 314.001 236.204 313.746 236.204Z" fill="#18292D"/>
<path d="M309.758 244.834C307.804 244.834 305.89 244.659 304.143 244.411C303.704 244.347 303.401 243.941 303.465 243.51C303.529 243.071 303.936 242.776 304.366 242.832C310.3 243.685 318.292 243.622 322.663 238.437C328.063 232.025 339.915 216.153 333.367 207.371C333.103 207.02 333.175 206.518 333.526 206.255C333.877 205.991 334.38 206.063 334.643 206.414C337.634 210.426 340.21 220.053 323.883 239.458C320.374 243.622 314.91 244.834 309.75 244.834H309.758Z" fill="#18292D"/>
</g>
<defs>
<clipPath id="clip0_542_17308">
<rect width="470" height="250" fill="white"/>
</clipPath>
</defs>
</svg>
