<svg width="1300" height="400" viewBox="0 0 1300 400" fill="none" xmlns="http://www.w3.org/2000/svg">
<ellipse cx="616.183" cy="175.212" rx="167.816" ry="79.8463" transform="rotate(-165.945 616.183 175.212)" fill="#F2F7F8"/>
<path d="M443.172 251.033C440.989 250.332 439.058 250.937 436.872 251.403C429.267 253.025 421.356 253.254 413.6 253.402C389.03 253.869 366.196 247.552 346.382 232.705C331.892 221.848 312.604 198.099 323.131 179.464C331.035 165.475 342.221 166.868 354.196 174.395C364.761 181.036 361.687 191.241 354.638 199.781C348.12 207.68 343.409 209.585 333.48 210.672C312.148 213.006 294.215 210.6 273.998 202.986C268.749 201.009 245.662 194.812 245.295 187.954" stroke="black" stroke-width="2" stroke-linecap="round" stroke-linejoin="round" stroke-dasharray="6 6"/>
<path d="M1049.44 112.922C1047.18 113.253 1045.37 112.338 1043.29 111.517C1036.06 108.662 1028.29 107.13 1020.67 105.704C996.513 101.188 972.95 103.65 950.957 115.023C934.874 123.34 911.93 143.58 919.238 163.697C924.724 178.798 935.987 179.271 949.04 173.823C960.556 169.017 959.208 158.445 953.666 148.858C948.541 139.992 944.208 137.335 934.595 134.625C913.941 128.802 895.857 128.215 874.66 132.388C869.158 133.472 845.364 135.774 843.87 142.476" stroke="black" stroke-width="2" stroke-linecap="round" stroke-linejoin="round" stroke-dasharray="6 6"/>
<circle cx="203.5" cy="184.5" r="56" fill="white" stroke="#18292D"/>
<path d="M216.07 196.842L213.738 199.174C213.236 199.676 213.236 200.492 213.738 200.994L228.949 216.204C229.451 216.707 230.266 216.707 230.769 216.204L233.101 213.873C233.604 213.37 233.604 212.555 233.101 212.052L217.891 196.842C217.388 196.339 216.573 196.339 216.07 196.842Z" fill="#FFC31F" stroke="#18292D" stroke-width="1.72074" stroke-linecap="round" stroke-linejoin="round"/>
<path d="M227.257 214.523L231.413 210.367" stroke="#18292D" stroke-width="1.72074" stroke-linecap="round" stroke-linejoin="round"/>
<path d="M214.901 198.01L211.865 194.975" stroke="#18292D" stroke-width="1.72074" stroke-linecap="round" stroke-linejoin="round"/>
<path d="M233.102 213.873C233.604 213.37 233.604 212.555 233.102 212.052L231.35 210.725L227.379 214.696L228.949 216.205C229.452 216.707 230.267 216.707 230.77 216.205L233.102 213.873Z" fill="#18292D"/>
<path d="M219.137 183.374C221.827 171.978 214.769 160.56 203.373 157.87C191.978 155.181 180.56 162.238 177.87 173.634C175.18 185.03 182.238 196.448 193.634 199.138C205.029 201.827 216.447 194.77 219.137 183.374Z" stroke="#18292D" stroke-width="1.72074" stroke-linecap="round" stroke-linejoin="round"/>
<path d="M198.5 196.42C208.391 196.42 216.41 188.401 216.41 178.509C216.41 168.618 208.391 160.599 198.5 160.599C188.608 160.599 180.589 168.618 180.589 178.509C180.589 188.401 188.608 196.42 198.5 196.42Z" stroke="#18292D" stroke-width="1.72074" stroke-linecap="round" stroke-linejoin="round"/>
<path d="M198.499 158.048C187.224 158.048 178.054 167.234 178.054 178.509C178.054 189.785 187.224 198.955 198.499 198.955C209.775 198.955 218.945 189.785 218.945 178.509C218.945 167.234 209.775 158.048 198.499 158.048ZM198.499 197.127C188.352 197.127 179.826 188.649 179.826 178.493C179.826 168.338 188.352 159.891 198.499 159.891C208.647 159.891 217.165 168.092 217.165 178.239C217.165 188.386 208.647 197.119 198.499 197.119V197.127Z" fill="#18292D"/>
<circle cx="1099.5" cy="116.5" r="56" fill="white" stroke="#18292D"/>
<g clip-path="url(#clip0_711_9872)">
<path d="M1083.38 113.422H1116.52" stroke="#18292D" stroke-width="1.25844" stroke-linecap="round" stroke-linejoin="round"/>
<path d="M1100.41 85.626V91.2661" stroke="#18292D" stroke-width="1.25844" stroke-linecap="round" stroke-linejoin="round"/>
<path d="M1122.23 148C1122.05 148 1121.87 147.896 1121.78 147.72L1119.62 143.599C1119.55 143.468 1119.54 143.318 1119.59 143.182C1119.65 143.045 1119.75 142.934 1119.88 142.882L1120.73 142.529C1120.87 142.471 1121.02 142.477 1121.16 142.543C1121.29 142.608 1121.39 142.725 1121.43 142.862L1122.72 147.263C1122.75 147.328 1122.77 147.407 1122.77 147.485C1122.77 147.772 1122.54 148 1122.25 148H1122.24H1122.23Z" fill="#18292D"/>
<path d="M1119.53 143.585L1121.43 142.797L1121.58 138.017C1121.6 137.404 1121.49 136.791 1121.26 136.224L1120.2 133.681L1103.79 94.0762L1099.72 95.765L1112.17 125.811L1119.53 143.585Z" fill="white" stroke="#18292D" stroke-width="1.25844" stroke-linecap="round" stroke-linejoin="round"/>
<path d="M1081.29 143.585L1079.39 142.797L1079.24 138.017C1079.22 137.404 1079.33 136.791 1079.56 136.224L1080.62 133.681L1097.03 94.0762L1101.1 95.765L1088.65 125.804L1081.29 143.579V143.585Z" fill="white" stroke="#18292D" stroke-width="1.25844" stroke-linecap="round" stroke-linejoin="round"/>
<path d="M1080.29 143.168L1078.63 147.178" stroke="#18292D" stroke-width="1.25844" stroke-linecap="round" stroke-linejoin="round"/>
<path d="M1102.63 85.626H1098.19V91.2661H1102.63V85.626Z" stroke="#18292D" stroke-width="1.25844" stroke-linecap="round" stroke-linejoin="round"/>
<path d="M1100.41 102.775C1103.84 102.775 1106.62 99.9925 1106.62 96.5606C1106.62 93.1288 1103.84 90.3467 1100.41 90.3467C1096.98 90.3467 1094.2 93.1288 1094.2 96.5606C1094.2 99.9925 1096.98 102.775 1100.41 102.775Z" fill="#18292D" stroke="#18292D" stroke-width="1.25844" stroke-linecap="round" stroke-linejoin="round"/>
<path d="M1104.22 96.5612C1104.22 98.6673 1102.52 100.382 1100.4 100.382C1098.29 100.382 1096.58 98.6738 1096.58 96.5612C1096.58 94.4486 1098.29 92.7402 1100.4 92.7402C1102.52 92.7402 1104.22 94.4486 1104.22 96.5612Z" fill="white" stroke="#18292D" stroke-width="1.25844" stroke-linecap="round" stroke-linejoin="round"/>
<path d="M1118.83 136.003C1118.83 137.352 1117.74 138.448 1116.39 138.448C1115.04 138.448 1113.94 137.352 1113.94 136.003C1113.94 134.653 1115.04 133.558 1116.39 133.558C1117.74 133.558 1118.83 134.653 1118.83 136.003Z" fill="#18292D" stroke="#18292D" stroke-width="1.25844" stroke-linecap="round" stroke-linejoin="round"/>
<path d="M1100.42 109.334H1100.39C1099.61 109.334 1098.97 109.97 1098.97 110.755V116.083C1098.97 116.868 1099.61 117.504 1100.39 117.504H1100.42C1101.21 117.504 1101.85 116.868 1101.85 116.083V110.755C1101.85 109.97 1101.21 109.334 1100.42 109.334Z" fill="#FFC31F" stroke="#FFC31F" stroke-width="1.25844" stroke-linecap="round" stroke-linejoin="round"/>
</g>
<path d="M701.5 124.743L712.421 105.877L704.705 105.971L690.343 125.433L701.345 125.265C701.356 125.086 701.404 124.909 701.5 124.743Z" fill="#96D8E8"/>
<path d="M743.358 70.4775L730.085 71.5862L722.642 81.6692L740.809 81.142L743.358 70.4775Z" fill="#96D8E8"/>
<path d="M705.8 148.752C696.788 148.862 686.6 149.003 679.269 149.151C679.262 149.151 679.253 149.151 679.246 149.151C678.608 149.151 678.087 148.64 678.072 148.001C678.059 147.353 678.574 146.816 679.222 146.804C693.908 146.509 720.045 146.24 725.257 146.188L729.802 127.179L723.372 127.277C723.372 127.277 723.359 127.277 723.353 127.277C722.714 127.277 722.191 126.762 722.18 126.121C722.171 125.473 722.687 124.94 723.335 124.929L730.365 124.823L740.242 83.5068L720.869 84.0702L706.452 103.602L728.94 103.326C728.94 103.326 728.949 103.326 728.955 103.326C729.596 103.326 730.119 103.843 730.128 104.485C730.136 105.134 729.617 105.666 728.969 105.674L715.033 105.845C715.015 106.002 714.966 106.159 714.883 106.306L703.931 125.226L715.589 125.049C716.237 125.038 716.77 125.556 716.781 126.204C716.79 126.852 716.273 127.385 715.625 127.396L688.588 127.808L658.191 168.992L697.785 168.206L705.798 148.756L705.8 148.752Z" fill="#96D8E8"/>
<path d="M770.38 170.091H740.367V184.836H804.684V170.212C804.684 170.17 804.686 170.131 804.69 170.091H770.394C770.394 170.091 770.385 170.091 770.38 170.091Z" fill="#96D8E8"/>
<path d="M718.433 184.834H738.019V170.091H721.957L718.433 184.834Z" fill="#96D8E8"/>
<path d="M656.436 171.372L646.501 184.834H716.02L719.539 170.119L656.436 171.372Z" fill="#96D8E8"/>
<path d="M749.325 45.5156L731.937 69.0763L743.932 68.0741L749.325 45.5156Z" fill="#96D8E8"/>
<path d="M727.697 146.087H748.974V126.775H744.877C744.228 126.775 743.703 126.25 743.703 125.601C743.703 124.953 744.228 124.428 744.877 124.428H769.932V105.304L737.37 105.623L727.697 146.087Z" fill="#96D8E8"/>
<path d="M770.886 67.9979L752.363 42.9023L746.364 67.9979H770.886Z" fill="#96D8E8"/>
<path d="M787.768 145.649V126.776H776.829C776.829 126.776 776.819 126.776 776.813 126.776H751.32V146.088H787.853C787.799 145.953 787.768 145.805 787.768 145.649Z" fill="#96D8E8"/>
<path d="M700.348 168.153L720.102 167.761L724.695 148.541C721.944 148.568 715.7 148.633 708.352 148.722L700.346 168.153H700.348Z" fill="#96D8E8"/>
<path d="M870.954 171.385V184.834H898.695L888.769 171.385H870.954Z" fill="#96D8E8"/>
<path d="M859.333 170.209C859.333 169.56 859.858 169.035 860.507 169.035H887.038L869.188 144.851H848.277C847.628 144.851 847.103 144.326 847.103 143.678C847.103 143.029 847.628 142.504 848.277 142.504H867.455L857.278 128.716C857.262 128.716 857.246 128.717 857.229 128.717H836.87V138.874C836.87 139.523 836.345 140.048 835.696 140.048C835.048 140.048 834.523 139.523 834.523 138.874V128.717H830.781C830.133 128.717 829.608 128.192 829.608 127.544C829.608 126.896 830.133 126.37 830.781 126.37H840.433V116.693H823.255L820.066 130.677L838.701 155.926H859.028C859.676 155.926 860.202 156.451 860.202 157.099C860.202 157.748 859.676 158.273 859.028 158.273H840.433L860.034 184.831H868.605V171.381H860.505C859.857 171.381 859.331 170.855 859.331 170.207L859.333 170.209Z" fill="#96D8E8"/>
<path d="M821.419 170.09C820.771 170.09 820.245 169.564 820.245 168.916C820.245 168.268 820.771 167.742 821.419 167.742H844.503L814.268 126.776H790.116V145.649C790.116 145.805 790.085 145.953 790.031 146.088H814.861C815.509 146.088 816.034 146.614 816.034 147.262C816.034 147.91 815.509 148.436 814.861 148.436H778.003V167.742H813.227C813.875 167.742 814.4 168.268 814.4 168.916C814.4 169.564 813.875 170.09 813.227 170.09H807.024C807.028 170.129 807.029 170.169 807.029 170.211V184.835H857.118L846.235 170.091H821.417L821.419 170.09Z" fill="#96D8E8"/>
<path d="M742.668 83.4609L737.932 103.271L750.635 103.147V83.4609H742.668Z" fill="#96D8E8"/>
<path d="M770.407 167.742H775.656V148.436H727.135L722.52 167.742H770.392C770.392 167.742 770.401 167.742 770.407 167.742Z" fill="#96D8E8"/>
<path d="M846.674 114.35L829.193 90.6631L823.79 114.35H846.674Z" fill="#96D8E8"/>
<path d="M842.779 126.374H855.549L848.408 116.697H842.779V126.374Z" fill="#96D8E8"/>
<path d="M820.784 116.978L810.896 118.256L818.228 128.189L820.784 116.978Z" fill="#96D8E8"/>
<path d="M743.228 81.1146H769.222C769.871 81.1146 770.396 81.64 770.396 82.2883C770.396 82.9365 769.871 83.462 769.222 83.462H752.982V103.124L770.483 102.953C770.663 102.839 770.876 102.772 771.106 102.772C771.335 102.772 771.532 102.833 771.709 102.94L788.931 102.772C789.585 102.759 790.111 103.287 790.116 103.935C790.123 104.583 789.601 105.114 788.953 105.119L772.279 105.282V124.428H776.83C776.83 124.428 776.841 124.428 776.846 124.428H812.537L806.887 116.772C806.887 116.772 806.882 116.764 806.878 116.761L782.53 83.7707H776.83C776.181 83.7707 775.656 83.2453 775.656 82.597C775.656 81.9488 776.181 81.4233 776.83 81.4233H780.797L772.619 70.3418H745.802L743.228 81.111V81.1146Z" fill="#96D8E8"/>
<path d="M821.339 114.538L826.222 93.1279L809.286 116.075L809.301 116.096L821.339 114.538Z" fill="#96D8E8"/>
<path d="M829.561 87.2102C829.561 87.2102 829.557 87.2048 829.555 87.203C829.503 87.1344 829.445 87.0712 829.378 87.0152C829.371 87.008 829.362 87.0025 829.355 86.9971C829.33 86.9773 829.303 86.9574 829.276 86.9375C829.265 86.9303 829.256 86.9249 829.245 86.9177C829.22 86.9014 829.192 86.8852 829.165 86.8707C829.155 86.8653 829.142 86.8581 829.131 86.8527C829.104 86.84 829.075 86.8274 829.048 86.8166C829.035 86.8111 829.023 86.8057 829.01 86.8021C828.981 86.7913 828.951 86.7822 828.92 86.775C828.909 86.7714 828.896 86.7678 828.885 86.766C828.884 86.766 828.88 86.766 828.878 86.7642C828.839 86.7552 828.797 86.7479 828.757 86.7425C828.752 86.7425 828.746 86.7425 828.739 86.7425C828.701 86.7389 828.663 86.7353 828.627 86.7353C828.624 86.7353 828.62 86.7353 828.616 86.7353C828.607 86.7353 828.597 86.7353 828.588 86.7353C828.557 86.7353 828.528 86.7371 828.497 86.7407C828.481 86.7407 828.467 86.7443 828.45 86.7461C828.423 86.7497 828.396 86.7552 828.371 86.7606C828.355 86.7642 828.338 86.7678 828.324 86.7714C828.299 86.7786 828.272 86.7859 828.246 86.7949C828.232 86.8003 828.216 86.8039 828.201 86.8093C828.169 86.822 828.136 86.8364 828.105 86.8509C828.089 86.8581 828.073 86.8671 828.057 86.8761C828.031 86.8906 828.006 86.9032 827.983 86.9195C827.968 86.9285 827.954 86.9393 827.939 86.9502C827.919 86.9646 827.9 86.9791 827.88 86.9935C827.865 87.0043 827.853 87.0152 827.84 87.0278C827.82 87.0459 827.8 87.0639 827.782 87.082C827.771 87.0928 827.761 87.1037 827.75 87.1145C827.726 87.1398 827.705 87.1669 827.683 87.1939C827.679 87.1994 827.676 87.203 827.67 87.2084L827.665 87.2174C827.665 87.2174 827.663 87.221 827.661 87.2228L807.826 114.099L752.752 39.4767C752.752 39.4767 752.75 39.4749 752.748 39.4731C752.723 39.4388 752.694 39.4045 752.665 39.3738C752.66 39.3684 752.655 39.3629 752.649 39.3575C752.626 39.3322 752.599 39.3088 752.573 39.2853C752.564 39.2781 752.555 39.269 752.544 39.2618C752.521 39.242 752.496 39.2239 752.47 39.2058C752.46 39.1986 752.449 39.1914 752.438 39.1842C752.413 39.1679 752.386 39.1517 752.358 39.1372C752.348 39.1318 752.337 39.1246 752.326 39.1192C752.297 39.1047 752.268 39.0921 752.237 39.0813C752.227 39.0776 752.218 39.0722 752.207 39.0686C752.169 39.0542 752.129 39.0433 752.089 39.0325C752.088 39.0325 752.086 39.0325 752.082 39.0307C752.039 39.0199 751.997 39.0126 751.954 39.0072C751.945 39.0072 751.934 39.0072 751.925 39.0054C751.891 39.0018 751.856 39 751.822 39C751.819 39 751.815 39 751.811 39C751.804 39 751.797 39 751.791 39C751.757 39 751.723 39.0018 751.69 39.0054C751.679 39.0054 751.67 39.0072 751.66 39.009C751.624 39.0144 751.589 39.0199 751.555 39.0271C751.548 39.0271 751.54 39.0307 751.531 39.0325C751.447 39.0542 751.363 39.0831 751.286 39.1228C751.282 39.1246 751.279 39.1264 751.275 39.1282C751.241 39.1463 751.208 39.1643 751.176 39.186C751.167 39.1914 751.159 39.1968 751.15 39.204C751.123 39.2221 751.096 39.242 751.071 39.2636C751.062 39.2709 751.055 39.2781 751.046 39.2853C751.019 39.3088 750.993 39.3322 750.968 39.3593C750.963 39.3647 750.957 39.3702 750.954 39.3738C750.921 39.4099 750.889 39.446 750.862 39.4857L643.23 185.31C642.966 185.666 642.926 186.14 643.127 186.536C643.327 186.931 643.732 187.181 644.174 187.181H716.942C716.942 187.181 716.945 187.181 716.947 187.181H716.951H901.021C901.464 187.181 901.87 186.931 902.068 186.536C902.269 186.14 902.227 185.667 901.966 185.31L829.561 87.2084V87.2102ZM855.548 126.374H842.78V116.697H848.407L855.548 126.374ZM829.192 90.6627L846.675 114.35H823.792L829.194 90.6627H829.192ZM826.222 93.1275L821.34 114.538L809.301 116.094L809.285 116.072L826.22 93.1256L826.222 93.1275ZM820.783 116.977L818.226 128.189L810.895 118.257L820.783 116.979V116.977ZM780.796 81.4266H776.829C776.181 81.4266 775.655 81.952 775.655 82.6003C775.655 83.2485 776.181 83.774 776.829 83.774H782.53L806.878 116.764C806.878 116.764 806.883 116.771 806.887 116.775L812.537 124.431H776.845C776.845 124.431 776.835 124.431 776.829 124.431H772.279V105.285L788.953 105.123C789.601 105.115 790.121 104.586 790.115 103.938C790.108 103.29 789.585 102.764 788.931 102.775L771.708 102.943C771.531 102.837 771.325 102.775 771.105 102.775C770.885 102.775 770.663 102.842 770.482 102.956L752.981 103.127V83.4652H769.222C769.87 83.4652 770.396 82.9397 770.396 82.2915C770.396 81.6432 769.87 81.1178 769.222 81.1178H743.227L745.802 70.3486H772.618L780.796 81.4302V81.4266ZM727.135 148.436H775.655V167.742H770.406C770.406 167.742 770.397 167.742 770.392 167.742H722.519L727.135 148.436ZM720.102 167.76L700.347 168.152L708.354 148.721C715.701 148.633 721.945 148.568 724.697 148.541L720.103 167.76H720.102ZM769.931 105.305V124.429H744.876C744.227 124.429 743.702 124.955 743.702 125.603C743.702 126.251 744.227 126.777 744.876 126.777H748.973V146.088H727.696L737.369 105.625L769.931 105.305ZM737.931 103.27L742.667 83.4616H750.636V103.147L737.933 103.272L737.931 103.27ZM751.32 146.087V126.775H776.813C776.813 126.775 776.824 126.775 776.829 126.775H787.768V145.648C787.768 145.803 787.799 145.951 787.853 146.087H751.32ZM752.362 42.9003L770.885 67.9976H746.362L752.362 42.9003ZM749.323 45.5149L743.931 68.0735L731.934 69.0756L749.323 45.5149ZM730.082 71.5855L743.357 70.4768L740.807 81.1413L722.64 81.6685L730.082 71.5855ZM704.704 105.97L712.42 105.876L701.499 124.742C701.404 124.906 701.355 125.085 701.344 125.263L690.342 125.431L704.704 105.97ZM688.589 127.804L715.625 127.392C716.273 127.383 716.792 126.849 716.781 126.201C716.772 125.552 716.237 125.034 715.589 125.045L703.932 125.222L714.883 106.302C714.968 106.156 715.017 105.998 715.033 105.841L728.969 105.67C729.618 105.663 730.136 105.13 730.129 104.482C730.121 103.839 729.596 103.322 728.955 103.322C728.949 103.322 728.946 103.322 728.94 103.322L706.452 103.599L720.869 84.0665L740.242 83.5031L730.365 124.819L723.336 124.926C722.687 124.935 722.171 125.469 722.18 126.117C722.189 126.76 722.713 127.273 723.354 127.273C723.359 127.273 723.366 127.273 723.372 127.273L729.802 127.176L725.257 146.184C720.046 146.236 693.908 146.506 679.222 146.8C678.574 146.813 678.06 147.349 678.072 147.997C678.085 148.636 678.609 149.147 679.246 149.147C679.253 149.147 679.262 149.147 679.269 149.147C686.601 149.001 696.788 148.86 705.8 148.748L697.787 168.199L658.193 168.985L688.59 127.8L688.589 127.804ZM716.019 184.833H646.5L656.435 171.372L719.538 170.119L716.021 184.833H716.019ZM738.018 184.833H718.433L721.958 170.088H738.018V184.833ZM804.682 170.209V184.833H740.365V170.088H770.377C770.377 170.088 770.386 170.088 770.392 170.088H804.687C804.684 170.128 804.682 170.167 804.682 170.209ZM807.029 184.833V170.209C807.029 170.167 807.028 170.128 807.024 170.088H813.227C813.875 170.088 814.4 169.562 814.4 168.914C814.4 168.266 813.875 167.74 813.227 167.74H778.003V148.434H814.861C815.509 148.434 816.034 147.909 816.034 147.26C816.034 146.612 815.509 146.087 814.861 146.087H790.031C790.085 145.951 790.115 145.803 790.115 145.648V126.775H814.268L844.503 167.74H821.419C820.771 167.74 820.245 168.266 820.245 168.914C820.245 169.562 820.771 170.088 821.419 170.088H846.236L857.119 184.831H807.031L807.029 184.833ZM868.607 184.833H860.035L840.435 158.275H859.03C859.678 158.275 860.203 157.75 860.203 157.101C860.203 156.453 859.678 155.928 859.03 155.928H838.703L820.068 130.679L823.257 116.695H840.435V126.372H830.783C830.135 126.372 829.61 126.898 829.61 127.546C829.61 128.194 830.135 128.719 830.783 128.719H834.525V138.876C834.525 139.525 835.05 140.05 835.698 140.05C836.347 140.05 836.872 139.525 836.872 138.876V128.719H857.231C857.248 128.719 857.264 128.718 857.28 128.718L867.457 142.506H848.279C847.63 142.506 847.105 143.031 847.105 143.68C847.105 144.328 847.63 144.853 848.279 144.853H869.19L887.04 169.037H860.509C859.86 169.037 859.335 169.562 859.335 170.211C859.335 170.859 859.86 171.384 860.509 171.384H868.609V184.835L868.607 184.833ZM870.955 184.833V171.383H888.769L898.697 184.833H870.955Z" fill="#18292D"/>
<g clip-path="url(#clip1_711_9872)">
<path d="M580.617 359.77H422.016C400.523 359.77 382.33 343.903 379.4 322.605C377.881 311.576 380.704 300.381 387.275 291.387L415.679 252.489C422.377 243.319 432.198 236.933 443.296 234.548L480.432 226.537L532.656 244.653L580.617 359.77Z" fill="#080717"/>
<path d="M609.109 218.048L598.573 221.534L615.359 272.26L625.894 268.774L609.109 218.048Z" fill="white" stroke="#080717" stroke-width="2.14154" stroke-linecap="round" stroke-linejoin="round"/>
<path d="M493.076 204.149L480.197 203.078C465.391 201.852 454.284 188.73 455.521 173.934L455.939 168.833C457.477 150.299 473.899 136.389 492.433 137.927L493.416 143.144C505.039 144.108 513.751 154.407 512.788 166.02L510.88 189.071C510.13 198.114 502.119 204.899 493.076 204.149Z" fill="#080717"/>
<path d="M517.231 185.368C522.815 170.668 514.651 153.93 498.996 147.984C483.34 142.037 466.123 149.133 460.539 163.833C454.955 178.533 463.119 195.271 478.774 201.218C494.429 207.165 511.647 200.069 517.231 185.368Z" fill="#080717"/>
<path d="M480.294 175.725C481.9 166.137 489.22 158.067 498.458 156.597C504.221 155.682 509.575 157.513 513.478 161.163C510.908 160.462 503.578 158.914 500.483 162.973C496.696 167.938 492.433 178.539 480.294 175.716V175.725Z" fill="#080717"/>
<path d="M528.187 164.211C527.564 171.677 521.013 177.225 513.557 176.602C506.09 175.979 500.542 169.428 501.165 161.972C501.788 154.506 508.339 148.957 515.796 149.58C523.262 150.203 528.81 156.754 528.187 164.211Z" fill="#080717"/>
<path d="M486.71 141.674C471.943 142.316 459.551 153.598 457.77 168.54C460.885 171.003 464.788 172.619 469.11 172.979C480.353 173.914 490.175 166 491.061 155.302C491.479 150.211 489.795 145.402 486.71 141.664V141.674Z" fill="#080717"/>
<path d="M504.643 156.514C507.407 149.554 504.006 141.671 497.046 138.907C490.086 136.142 482.203 139.544 479.439 146.504C476.674 153.464 480.076 161.347 487.036 164.111C493.996 166.876 501.879 163.474 504.643 156.514Z" fill="#080717"/>
<path d="M516.367 164.107C522.246 159.128 522.976 150.326 517.997 144.447C513.018 138.568 504.216 137.839 498.337 142.817C492.458 147.796 491.728 156.598 496.707 162.477C501.686 168.356 510.488 169.086 516.367 164.107Z" fill="#080717"/>
<path d="M465.47 144.438C465.47 144.438 470.376 145.849 471.213 150.21" stroke="#080717" stroke-width="2.14154" stroke-linecap="round" stroke-linejoin="round"/>
<path d="M469.187 142.21C469.187 142.21 468.253 147.233 471.786 149.929" stroke="#080717" stroke-width="2.14154" stroke-linecap="round" stroke-linejoin="round"/>
<path d="M523.495 179.161L523.242 176.844C521.967 165.28 511.551 156.938 499.987 158.213C490.233 159.293 482.767 166.867 481.443 176.153C477.472 175.851 473.714 178.392 472.624 182.383C471.67 185.858 473.033 189.421 475.768 191.436L460.923 230.509L451.384 233.78C451.131 241.772 455.015 250.942 462.5 258.145C474.405 269.592 490.905 271.753 499.345 262.973C505.954 256.101 505.643 244.585 499.52 234.403L495.879 233.361L501.194 219.373C502.995 219.656 504.864 219.724 506.762 219.519C518.326 218.244 526.669 207.828 525.393 196.264L524.498 188.194C526.747 187.698 528.314 185.605 528.08 183.259C527.837 180.894 525.832 179.151 523.505 179.151L523.495 179.161Z" fill="white" stroke="#080717" stroke-width="2.14154" stroke-linecap="round" stroke-linejoin="round"/>
<path d="M478.366 192.906C473.839 191.67 471.182 186.997 472.418 182.48" stroke="#080717" stroke-width="2.14154" stroke-linecap="round" stroke-linejoin="round"/>
<path d="M478.98 181.946C478.98 181.946 481.969 183.65 481.453 187.203" stroke="#080717" stroke-width="2.14154" stroke-linecap="round" stroke-linejoin="round"/>
<path d="M519.445 190.998C519.445 190.998 515.824 192.78 513.128 188.029" stroke="#080717" stroke-width="2.14154" stroke-linecap="round" stroke-linejoin="round"/>
<path d="M518.122 179.277C518.063 180.455 517.226 181.37 516.253 181.331C515.279 181.292 514.53 180.29 514.588 179.112C514.647 177.934 515.484 177.019 516.457 177.058C517.431 177.107 518.18 178.099 518.122 179.277Z" fill="#080717"/>
<path d="M513.472 174.647C515.341 173.807 516.609 172.578 516.305 171.901C516 171.225 514.239 171.357 512.371 172.196C510.503 173.036 509.235 174.265 509.539 174.942C509.843 175.619 511.604 175.487 513.472 174.647Z" fill="#080717"/>
<path d="M493.164 159.167C484.685 158.748 477.005 164.54 475.194 172.989C476.849 174.566 478.991 175.696 481.444 176.134C487.82 177.263 493.855 173.262 494.935 167.198C495.451 164.307 494.741 161.474 493.164 159.177V159.167Z" fill="#080717"/>
<path d="M501.495 219.481C492.55 217.875 485.346 210.545 484.295 201.054" stroke="#080717" stroke-width="2.14154" stroke-linecap="round" stroke-linejoin="round"/>
<path d="M486.924 207.858C486.496 207.05 486.116 206.233 485.785 205.396C485.503 215.227 490.409 224.007 498.05 229.089L501.282 220.591C495.276 218.235 490.117 213.884 486.934 207.858H486.924Z" fill="#080717"/>
<path d="M607.044 283.027C608.222 274.684 606.285 266.196 601.613 259.178L598.926 255.148L609.517 248.09C613.586 245.374 616.156 240.916 616.467 236.029C616.574 234.258 614.91 232.895 613.196 233.362L591.917 239.164C583.594 241.432 578.036 249.258 578.62 257.863L579.74 274.334L601.934 359.772H665.888L626.454 299.02L633.755 296.002C641.533 294.406 648.444 289.996 653.175 283.63L655.774 280.379L646.702 244.547L613.303 248.811" fill="white"/>
<path d="M607.044 283.027C608.222 274.684 606.285 266.196 601.613 259.178L598.926 255.148L609.517 248.09C613.586 245.374 616.156 240.916 616.467 236.029C616.574 234.258 614.91 232.895 613.196 233.362L591.917 239.164C583.594 241.432 578.036 249.258 578.62 257.863L579.74 274.334L601.934 359.772H665.888L626.454 299.02L633.755 296.002C641.533 294.406 648.444 289.996 653.175 283.63L655.774 280.379L646.702 244.547L613.303 248.811" stroke="#080717" stroke-width="2.14154" stroke-linecap="round" stroke-linejoin="round"/>
<path d="M593.731 233.943L620.402 225.118L635.203 269.846C637.277 276.112 633.876 282.877 627.61 284.95L623.637 286.265C617.371 288.339 610.606 284.938 608.533 278.672L593.731 233.943Z" fill="#080717"/>
<path d="M601.952 221.726C619.245 214.976 623.968 185.685 612.5 156.302C601.032 126.919 577.717 108.571 560.424 115.32C543.13 122.07 538.408 151.361 549.876 180.744C561.343 210.127 584.659 228.475 601.952 221.726Z" fill="#080717" stroke="#080717" stroke-width="2.14154" stroke-linecap="round" stroke-linejoin="round"/>
<path d="M608.539 219.313C624.565 213.059 628.26 184.168 616.792 154.785C605.325 125.402 583.036 106.653 567.01 112.908C550.984 119.163 547.289 148.053 558.756 177.436C570.224 206.819 592.512 225.568 608.539 219.313Z" fill="white" stroke="#080717" stroke-width="2.14154" stroke-linecap="round" stroke-linejoin="round"/>
<path d="M606.648 210.935C619.629 205.869 622.239 181.486 612.478 156.475C602.716 131.464 584.28 115.296 571.298 120.363C558.317 125.429 555.707 149.811 565.468 174.822C575.23 199.833 593.666 216.001 606.648 210.935Z" fill="white" stroke="#080717" stroke-width="2.14154" stroke-linecap="round" stroke-linejoin="round"/>
<path d="M579.74 274.331L578.62 257.861C578.036 249.256 583.594 241.429 591.917 239.161L613.196 233.36C614.91 232.892 616.574 234.246 616.467 236.027C616.165 240.914 613.595 245.372 609.517 248.088L598.926 255.145L601.613 259.175C606.285 266.184 608.222 274.672 607.044 283.024" fill="white"/>
<path d="M579.74 274.331L578.62 257.861C578.036 249.256 583.594 241.429 591.917 239.161L613.196 233.36C614.91 232.892 616.574 234.246 616.467 236.027C616.165 240.914 613.595 245.372 609.517 248.088L598.926 255.145L601.613 259.175C606.285 266.184 608.222 274.672 607.044 283.024" stroke="#080717" stroke-width="2.14154" stroke-linecap="round" stroke-linejoin="round"/>
<path d="M647.959 256.228C645.876 256.228 643.802 255.362 642.323 253.678C639.987 251.01 633.796 249.385 631.333 249.064C627.235 248.518 624.363 244.761 624.908 240.663C625.453 236.565 629.211 233.693 633.309 234.238C634.681 234.423 646.947 236.253 653.585 243.836C656.301 246.942 655.99 251.672 652.885 254.388C651.463 255.634 649.711 256.238 647.959 256.238V256.228Z" fill="white" stroke="#080717" stroke-width="2.14154" stroke-linecap="round" stroke-linejoin="round"/>
<path d="M648.667 270.439C646.584 270.439 644.511 269.573 643.031 267.889C640.715 265.241 634.611 263.635 632.012 263.265C627.933 262.69 625.072 258.923 625.626 254.845C626.181 250.766 629.929 247.894 634.008 248.439C635.38 248.624 647.645 250.454 654.284 258.037C657 261.143 656.689 265.874 653.583 268.589C652.162 269.835 650.41 270.439 648.658 270.439H648.667Z" fill="white" stroke="#080717" stroke-width="2.14154" stroke-linecap="round" stroke-linejoin="round"/>
<path d="M643.752 281.391C641.415 278.723 635.224 277.098 632.762 276.777C628.663 276.231 625.792 272.474 626.337 268.376C626.882 264.278 630.639 261.396 634.738 261.951C636.11 262.136 648.375 263.966 655.014 271.549C657.73 274.654 657.418 279.385 654.313 282.101" fill="white"/>
<path d="M643.752 281.391C641.415 278.723 635.224 277.098 632.762 276.777C628.663 276.231 625.792 272.474 626.337 268.376C626.882 264.278 630.639 261.396 634.738 261.951C636.11 262.136 648.375 263.966 655.014 271.549C657.73 274.654 657.418 279.385 654.313 282.101" stroke="#080717" stroke-width="2.14154" stroke-linecap="round" stroke-linejoin="round"/>
<path d="M424.868 290.91C424.868 290.91 462.355 275.131 479.857 266.964C497.359 258.807 526.27 253.686 526.27 253.686C555.697 245.87 581.717 254.806 582.817 255.186C586.749 256.568 588.813 260.861 587.44 264.793C586.068 268.726 581.765 270.799 577.833 269.446C577.755 269.417 574.737 268.405 569.763 267.422C578.806 272.25 583.81 277.438 584.17 277.818C587.032 280.835 586.895 285.576 583.897 288.448C581.775 290.482 578.767 291.027 576.158 290.112C575.088 289.733 574.075 289.11 573.228 288.233C573.189 288.194 571.807 286.802 569.257 284.924C571.262 287.192 572.362 288.769 572.498 288.983C574.815 292.429 573.89 297.092 570.454 299.418C568.4 300.81 565.889 301.053 563.708 300.284C562.238 299.769 560.924 298.805 559.98 297.423C559.892 297.296 552.232 286.394 536.764 280.358C548.435 286.072 553.945 294.093 554.247 294.541C556.554 297.977 555.639 302.601 552.222 304.947C550.168 306.359 547.647 306.602 545.447 305.823C543.996 305.317 542.682 304.363 541.738 303.01C541.524 302.708 537.601 297.238 529.093 293.412C523.467 302.553 509.41 301.268 509.41 301.268C509.41 301.268 459.181 350.504 456.008 350.056C452.835 349.608 440.141 350.221 427.107 331.921C413.508 312.842 424.888 290.881 424.888 290.881L424.868 290.91Z" fill="white" stroke="black" stroke-width="2.14154" stroke-linecap="round" stroke-linejoin="round"/>
<path d="M546.03 257.601C546.03 257.601 561.06 261.212 569.753 267.422Z" fill="white"/>
<path d="M546.03 257.601C546.03 257.601 561.06 261.212 569.753 267.422" stroke="black" stroke-width="2.14154" stroke-linecap="round" stroke-linejoin="round"/>
<path d="M543.587 267.392C543.587 267.392 559.814 273.524 569.237 284.933Z" fill="white"/>
<path d="M543.587 267.392C543.587 267.392 559.814 273.524 569.237 284.933" stroke="black" stroke-width="2.14154" stroke-linecap="round" stroke-linejoin="round"/>
<path d="M393.027 302.213L424.868 290.911" stroke="white" stroke-width="2.14154" stroke-linecap="round" stroke-linejoin="round"/>
</g>
<defs>
<clipPath id="clip0_711_9872">
<rect width="44.7625" height="63" fill="white" transform="translate(1078 85)"/>
</clipPath>
<clipPath id="clip1_711_9872">
<rect width="287.96" height="250.21" fill="white" transform="translate(379 110.622)"/>
</clipPath>
</defs>
</svg>
