<svg width="1300" height="400" viewBox="0 0 1300 400" fill="none" xmlns="http://www.w3.org/2000/svg">
<ellipse cx="670.096" cy="166.704" rx="208.265" ry="99.0921" transform="rotate(-165.945 670.096 166.704)" fill="#F2F7F8"/>
<path d="M452.567 205.579C450.284 205.788 448.743 207.098 446.913 208.382C440.546 212.846 433.354 216.149 426.272 219.315C403.838 229.346 380.351 232.453 356.31 226.528C338.73 222.195 311.696 207.871 314.105 186.604C315.914 170.639 326.756 167.55 340.72 169.8C353.04 171.785 354.197 182.38 351.046 192.995C348.132 202.813 344.54 206.408 335.825 211.287C317.101 221.771 299.653 226.563 278.068 227.454C272.465 227.685 248.792 231.001 245.774 224.832" stroke="black" stroke-width="2" stroke-linecap="round" stroke-linejoin="round" stroke-dasharray="6 6"/>
<path d="M1065 145.437C1062.06 145.137 1060.09 143.394 1057.75 141.685C1049.61 135.738 1040.38 131.311 1031.3 127.064C1002.54 113.61 972.334 109.252 941.318 116.771C918.638 122.269 883.674 140.805 886.537 168.812C888.687 189.836 902.608 194.024 920.611 191.225C936.493 188.755 938.102 174.83 934.165 160.828C930.524 147.878 925.94 143.107 914.775 136.587C890.788 122.579 868.381 116.074 840.604 114.655C833.392 114.286 802.954 109.652 799 117.733" stroke="black" stroke-width="2" stroke-linecap="round" stroke-linejoin="round" stroke-dasharray="6 6"/>
<circle cx="189.5" cy="223.5" r="56" fill="white" stroke="#18292D"/>
<g clip-path="url(#clip0_711_9504)">
<path d="M197.617 196.193H211.542C212.067 196.193 212.488 196.615 212.488 197.14V255.39C212.488 255.915 212.067 256.336 211.542 256.336H166.616C166.091 256.336 165.67 255.915 165.67 255.39V197.14C165.67 196.615 166.091 196.193 166.616 196.193H180.535" fill="#18292D"/>
<path d="M197.617 196.193H211.542C212.067 196.193 212.488 196.615 212.488 197.14V255.39C212.488 255.915 212.067 256.336 211.542 256.336H166.616C166.091 256.336 165.67 255.915 165.67 255.39V197.14C165.67 196.615 166.091 196.193 166.616 196.193H180.535" stroke="#18292D" stroke-width="1.33312" stroke-linecap="round" stroke-linejoin="round"/>
<path d="M198.984 200.464H207.764V252.069H170.388V200.464H179.167" fill="white"/>
<path d="M198.984 200.464H207.764V252.069H170.388V200.464H179.167" stroke="#18292D" stroke-width="1.33312" stroke-linecap="round" stroke-linejoin="round"/>
<path d="M183.208 215.734H201.768" stroke="#18292D" stroke-width="1.33312" stroke-linecap="round" stroke-linejoin="round"/>
<path d="M180.984 213.331H176.183V218.132H180.984V213.331Z" stroke="#18292D" stroke-width="1.33312" stroke-linecap="round" stroke-linejoin="round"/>
<path d="M183.208 224.452H201.768" stroke="#18292D" stroke-width="1.33312" stroke-linecap="round" stroke-linejoin="round"/>
<path d="M183.208 233.163H201.768" stroke="#18292D" stroke-width="1.33312" stroke-linecap="round" stroke-linejoin="round"/>
<path d="M180.984 230.766H176.183V235.566H180.984V230.766Z" stroke="#18292D" stroke-width="1.33312" stroke-linecap="round" stroke-linejoin="round"/>
<path d="M183.208 241.88H201.768" stroke="#18292D" stroke-width="1.33312" stroke-linecap="round" stroke-linejoin="round"/>
<path d="M180.984 224.302V226.796H176.183V221.995H178.849" stroke="#18292D" stroke-width="1.33312" stroke-linecap="round" stroke-linejoin="round"/>
<path d="M177.413 224.143L178.822 224.889L181.661 220.834" stroke="#FFC31F" stroke-width="1.33312" stroke-linecap="round" stroke-linejoin="round"/>
<path d="M180.984 241.79V244.284H176.183V239.483H178.849" stroke="#18292D" stroke-width="1.33312" stroke-linecap="round" stroke-linejoin="round"/>
<path d="M177.413 241.631L178.822 242.377L181.661 238.315" stroke="#FFC31F" stroke-width="1.33312" stroke-linecap="round" stroke-linejoin="round"/>
<path d="M186.199 194.081H181.219L180.535 196.195L179.167 200.463L178.414 202.805H199.73L198.984 200.463L197.617 196.195L196.94 194.081H191.953" fill="white"/>
<path d="M186.199 194.081H181.219L180.535 196.195L179.167 200.463L178.414 202.805H199.73L198.984 200.463L197.617 196.195L196.94 194.081H191.953" stroke="#18292D" stroke-width="1.33312" stroke-linecap="round" stroke-linejoin="round"/>
<path d="M189.079 196.491C190.666 196.491 191.953 195.412 191.953 194.081C191.953 192.749 190.666 191.67 189.079 191.67C187.492 191.67 186.206 192.749 186.206 194.081C186.206 195.412 187.492 196.491 189.079 196.491Z" stroke="#18292D" stroke-width="1.33312" stroke-linecap="round" stroke-linejoin="round"/>
</g>
<circle cx="1109.5" cy="160.5" r="56" fill="white" stroke="#18292D"/>
<path d="M1099.91 168.828C1109.81 168.828 1117.83 160.807 1117.83 150.914C1117.83 141.02 1109.81 133 1099.91 133C1090.02 133 1082 141.02 1082 150.914C1082 160.807 1090.02 168.828 1099.91 168.828Z" fill="white" stroke="#18292D" stroke-width="1.0461" stroke-linecap="round" stroke-linejoin="round"/>
<path d="M1099.77 147.933C1102.27 147.933 1104.29 145.836 1104.29 143.249C1104.29 140.663 1102.27 138.566 1099.77 138.566C1097.27 138.566 1095.24 140.663 1095.24 143.249C1095.24 145.836 1097.27 147.933 1099.77 147.933Z" fill="white" stroke="#18292D" stroke-width="1.0461" stroke-linecap="round" stroke-linejoin="round"/>
<path d="M1108.43 160.317C1108.43 160.317 1108.01 151.222 1102.64 151.054C1100.44 150.984 1098.54 151.011 1096.94 151.043C1091.34 151.152 1091.39 160.371 1091.39 160.377C1091.39 161.201 1095.21 161.867 1099.91 161.867C1104.62 161.867 1108.43 161.201 1108.43 160.377C1108.43 160.355 1108.43 160.339 1108.42 160.317H1108.43Z" fill="white" stroke="#18292D" stroke-width="1.0461" stroke-linecap="round" stroke-linejoin="round"/>
<path d="M1095.45 186.357H1089.97C1085.64 186.357 1082.12 182.855 1082.12 178.535V166.096" stroke="#FFC31F" stroke-width="1.0461" stroke-linecap="round" stroke-linejoin="round"/>
<path d="M1101.39 186.356L1095.45 182.931V189.776L1101.39 186.356Z" fill="#FFC31F" stroke="#FFC31F" stroke-width="1.0461" stroke-linecap="round" stroke-linejoin="round"/>
<path d="M1125.42 136.615H1130.9C1135.23 136.615 1138.74 140.117 1138.74 144.437V156.876" stroke="#FFC31F" stroke-width="1.0461" stroke-linecap="round" stroke-linejoin="round"/>
<path d="M1119.47 136.615L1125.42 140.041V133.195L1119.47 136.615Z" fill="#FFC31F" stroke="#FFC31F" stroke-width="1.0461" stroke-linecap="round" stroke-linejoin="round"/>
<path d="M1128.22 188.86C1137.36 185.074 1141.7 174.595 1137.92 165.455C1134.13 156.314 1123.65 151.974 1114.51 155.76C1105.37 159.546 1101.03 170.025 1104.82 179.165C1108.6 188.306 1119.08 192.646 1128.22 188.86Z" fill="white" stroke="#18292D" stroke-width="1.0461" stroke-linecap="round" stroke-linejoin="round"/>
<path d="M1121.22 169.001C1123.71 169.001 1125.74 166.904 1125.74 164.318C1125.74 161.731 1123.71 159.635 1121.22 159.635C1118.72 159.635 1116.69 161.731 1116.69 164.318C1116.69 166.904 1118.72 169.001 1121.22 169.001Z" fill="#18292D" stroke="#18292D" stroke-width="1.0461" stroke-linecap="round" stroke-linejoin="round"/>
<path d="M1129.88 181.386C1129.88 181.386 1129.46 172.29 1124.09 172.122C1121.89 172.052 1119.98 172.079 1118.39 172.112C1112.79 172.22 1112.84 181.44 1112.84 181.445C1112.84 182.269 1116.66 182.936 1121.36 182.936C1126.07 182.936 1129.88 182.269 1129.88 181.445C1129.88 181.424 1129.88 181.407 1129.87 181.386H1129.88Z" fill="#18292D" stroke="#18292D" stroke-width="1.0461" stroke-linecap="round" stroke-linejoin="round"/>
<path d="M768.737 336.824L791.089 371.849L852.256 338.875C849.65 334.543 844.888 331.981 839.839 332.199L813.822 333.303C808.667 329.65 804.167 325.156 800.501 320.007L797.771 316.174L768.743 336.831L768.737 336.824Z" fill="white"/>
<path d="M791.083 372.603C790.834 372.603 790.591 372.478 790.453 372.26L768.101 337.235C767.889 336.899 767.97 336.456 768.301 336.226L797.329 315.569C797.491 315.457 797.696 315.407 797.89 315.438C798.083 315.469 798.257 315.581 798.376 315.743L801.106 319.577C804.678 324.601 809.028 328.964 814.04 332.548L839.802 331.457C845.1 331.239 850.143 333.932 852.891 338.494C852.997 338.669 853.029 338.881 852.973 339.08C852.916 339.28 852.786 339.442 852.605 339.542L791.438 372.515C791.326 372.578 791.201 372.603 791.083 372.603ZM769.747 337.023L791.339 370.863L851.177 338.607C848.64 334.91 844.396 332.766 839.858 332.953L813.84 334.056C813.678 334.069 813.51 334.013 813.379 333.919C808.143 330.204 803.599 325.673 799.884 320.443L797.59 317.221L769.747 337.03V337.023Z" fill="#18292D"/>
<path d="M852.249 338.883C852.075 338.59 851.882 338.303 851.688 338.029C851.632 337.948 851.564 337.867 851.502 337.786C851.358 337.592 851.215 337.405 851.065 337.218C850.99 337.131 850.916 337.05 850.847 336.963C850.697 336.788 850.542 336.62 850.386 336.452C850.311 336.377 850.236 336.296 850.161 336.221C849.987 336.053 849.812 335.884 849.638 335.722C849.569 335.66 849.501 335.604 849.432 335.542C849.226 335.361 849.008 335.193 848.79 335.024C848.746 334.993 848.703 334.956 848.659 334.925C847.824 334.307 846.926 333.784 845.979 333.366C844.078 332.531 841.99 332.12 839.839 332.207L819.656 333.061L813.822 333.31C813.579 333.136 813.336 332.949 813.092 332.774C810.543 333.678 808.96 334.937 808.661 336.533C808.399 337.929 809.153 339.45 810.724 340.983C806.404 343.863 801.119 346.512 795.209 348.6C789.419 350.645 783.759 351.897 778.673 352.396L791.089 371.85L852.256 338.876L852.249 338.883Z" fill="#18292D"/>
<path d="M488.442 205.317L451.268 186.761L415.751 246.487C420.214 248.862 425.612 248.613 429.832 245.833L451.585 231.515C457.887 232.001 464.058 233.541 469.849 236.072L474.162 237.96L488.449 205.323L488.442 205.317Z" fill="white"/>
<path d="M422.24 248.855C419.896 248.855 417.546 248.288 415.395 247.148C415.215 247.054 415.084 246.886 415.028 246.686C414.972 246.487 415.003 246.281 415.103 246.1L450.619 186.38C450.819 186.043 451.249 185.919 451.598 186.093L488.773 204.65C489.128 204.83 489.284 205.254 489.122 205.616L474.835 238.253C474.754 238.434 474.605 238.577 474.424 238.652C474.237 238.726 474.031 238.72 473.85 238.639L469.537 236.751C463.89 234.282 457.912 232.774 451.772 232.275L430.237 246.456C427.818 248.051 425.026 248.855 422.233 248.855H422.24ZM416.804 246.175C420.881 248.039 425.643 247.69 429.42 245.209L451.174 230.891C451.311 230.798 451.467 230.754 451.642 230.773C458.037 231.265 464.264 232.817 470.142 235.392L473.769 236.981L487.47 205.678L451.554 187.751L416.804 246.175Z" fill="#18292D"/>
<path d="M662.754 143.221L666.213 159.639L725.74 212.834C740.164 225.724 753.173 240.116 764.542 255.768L813.978 323.822L764.723 342.833L746.41 317.003C713.897 271.151 674.186 230.866 628.814 197.693C610.651 184.416 608.369 158.168 623.958 141.95L637.696 127.663L662.754 143.215V143.221Z" fill="#18292D"/>
<path d="M682.625 155.32L634.112 237.686C618.853 263.591 588.23 276.201 559.158 268.546L460.549 242.597L476.101 195.936L557.008 225.063C572.803 230.748 590.418 224.583 599.213 210.284L646.329 133.716L682.625 155.32Z" fill="#18292D"/>
<path d="M415.751 246.487C416.056 246.649 416.362 246.792 416.673 246.929C416.767 246.973 416.86 247.004 416.96 247.048C417.178 247.141 417.403 247.228 417.627 247.309C417.733 247.347 417.839 247.378 417.951 247.415C418.169 247.484 418.387 247.553 418.612 247.615C418.718 247.646 418.817 247.671 418.923 247.696C419.16 247.752 419.391 247.808 419.628 247.852C419.715 247.87 419.809 247.889 419.896 247.902C420.164 247.951 420.438 247.989 420.712 248.014C420.768 248.014 420.825 248.026 420.874 248.033C421.909 248.138 422.95 248.12 423.979 247.989C426.036 247.727 428.043 247.01 429.838 245.826L446.711 234.718L451.592 231.508C451.891 231.533 452.19 231.571 452.489 231.596C454.21 229.507 454.92 227.613 454.359 226.092C453.861 224.758 452.439 223.841 450.301 223.337C452.527 218.643 455.699 213.656 459.695 208.826C463.609 204.095 467.817 200.112 471.924 197.064L451.274 186.754L415.751 246.487Z" fill="#18292D"/>
<path d="M648.38 212.753C648.224 212.753 648.075 212.703 647.938 212.609L628.365 198.298C622.743 194.19 618.373 188.643 615.731 182.266C615.575 181.886 615.756 181.449 616.136 181.287C616.516 181.132 616.959 181.312 617.114 181.693C619.651 187.82 623.846 193.143 629.25 197.089L648.823 211.394C649.159 211.637 649.228 212.104 648.985 212.441C648.835 212.64 648.611 212.746 648.38 212.746V212.753Z" fill="white"/>
<path d="M840.419 90.3324C840.138 89.896 839.789 89.5283 839.403 89.2166C839.97 87.8515 839.877 86.2371 839.01 84.897C838.156 83.5818 836.754 82.8463 835.301 82.7839C835.981 81.369 835.931 79.6549 835.015 78.2399C834.155 76.9123 832.727 76.1705 831.25 76.1269C831.705 74.8179 831.58 73.3157 830.764 72.0628C829.367 69.9061 826.488 69.2953 824.331 70.6915L815.305 76.5445C812.345 78.4643 810.836 81.7866 811.092 85.0778L755.971 110.771L701.094 83.7688C692.094 79.3432 681.223 83.4197 677.365 92.6823C674.092 100.53 676.972 109.593 684.171 114.112L726.875 140.902C745.55 152.621 769.61 151.15 786.714 137.25L828.295 103.466C828.763 103.335 829.212 103.142 829.642 102.861L839.035 96.7713C841.192 95.375 841.803 92.4953 840.406 90.3386L840.419 90.3324Z" fill="white"/>
<path d="M754.251 149.523C744.652 149.523 735.022 146.88 726.488 141.532L683.785 114.742C676.243 110.011 673.257 100.611 676.685 92.3894C678.63 87.7207 682.314 84.1678 687.051 82.3913C691.788 80.6148 696.899 80.8642 701.437 83.0957L755.99 109.936L810.325 84.6103C810.238 81.1197 811.958 77.8286 814.906 75.915L823.932 70.062C826.432 68.4414 829.779 69.1582 831.399 71.6515C832.147 72.7984 832.415 74.1572 832.191 75.4787C833.6 75.7654 834.853 76.6069 835.644 77.8286C836.492 79.1313 836.723 80.6959 836.324 82.1669C837.676 82.4786 838.873 83.3076 839.64 84.4857C840.506 85.8258 840.737 87.4714 840.276 88.986C840.568 89.2665 840.824 89.5782 841.042 89.921C842.663 92.4205 841.946 95.7678 839.453 97.3884L830.059 103.478C829.635 103.752 829.168 103.971 828.682 104.114L787.206 137.817C777.657 145.577 765.982 149.517 754.257 149.517L754.251 149.523ZM693.446 82.7092C691.47 82.7092 689.494 83.0645 687.581 83.7875C683.236 85.4206 679.858 88.6806 678.069 92.9628C674.921 100.505 677.664 109.132 684.583 113.47L727.286 140.26C745.693 151.81 769.391 150.358 786.259 136.658L827.772 102.93C827.865 102.83 827.984 102.755 828.121 102.718C828.526 102.612 828.906 102.444 829.249 102.219L838.642 96.1293C840.45 94.9574 840.961 92.539 839.796 90.7313C839.565 90.376 839.278 90.0644 838.942 89.7964C838.68 89.5907 838.586 89.2291 838.717 88.9237C839.21 87.7332 839.091 86.3806 838.393 85.3022C837.707 84.2488 836.542 83.5818 835.276 83.532C835.027 83.5195 834.797 83.3824 834.666 83.1705C834.535 82.9523 834.522 82.6905 834.634 82.4599C835.227 81.2195 835.139 79.7921 834.398 78.6514C833.699 77.5793 832.521 76.9186 831.237 76.8749C831 76.8687 830.776 76.7503 830.645 76.5508C830.508 76.3576 830.477 76.1082 830.558 75.8776C830.957 74.7245 830.813 73.4841 830.153 72.468C828.981 70.6604 826.562 70.1431 824.755 71.3149L815.729 77.1679C813.099 78.8758 811.615 81.8802 811.852 85.0155C811.877 85.3271 811.702 85.6201 811.422 85.751L756.302 111.438C756.096 111.532 755.859 111.532 755.654 111.432L700.776 84.4296C698.445 83.2827 695.952 82.703 693.446 82.703V82.7092Z" fill="#18292D"/>
<path d="M699.954 80.8399L654.495 59.0424C634.617 49.5119 610.875 53.6943 595.448 69.4394L557.955 107.711C557.506 107.892 557.076 108.141 556.683 108.459L548.038 115.578C546.056 117.211 545.769 120.14 547.402 122.122C547.733 122.521 548.119 122.852 548.537 123.114C548.125 124.535 548.4 126.13 549.416 127.358C550.413 128.568 551.89 129.141 553.342 129.035C552.831 130.512 553.074 132.22 554.14 133.517C555.15 134.738 556.652 135.318 558.117 135.193C557.812 136.546 558.105 138.023 559.058 139.176C560.691 141.159 563.621 141.445 565.603 139.812L573.906 132.981C576.63 130.737 577.752 127.265 577.128 124.03L628.989 92.2779L686.565 112.904C696.008 116.288 706.349 111.002 709.135 101.366C711.504 93.2004 707.614 84.5175 699.947 80.8399H699.954Z" fill="white"/>
<path d="M562.661 141.626C562.487 141.626 562.306 141.62 562.131 141.601C560.698 141.464 559.401 140.772 558.485 139.656C557.618 138.603 557.188 137.282 557.263 135.941C555.83 135.817 554.489 135.125 553.561 133.997C552.57 132.794 552.164 131.266 552.395 129.764C551.017 129.608 549.733 128.923 548.842 127.838C547.826 126.604 547.421 124.996 547.701 123.444C547.377 123.195 547.091 122.914 546.829 122.602C544.94 120.302 545.27 116.893 547.564 115.004L556.21 107.886C556.602 107.562 557.039 107.3 557.512 107.094L594.918 68.922C610.576 52.9401 634.642 48.7015 654.819 58.3754L700.278 80.1729C708.306 84.0251 712.339 93.0258 709.858 101.578C708.449 106.44 705.196 110.385 700.689 112.685C696.183 114.992 691.078 115.316 686.315 113.608L629.076 93.1006L577.951 124.404C578.437 127.857 577.097 131.329 574.386 133.56L566.083 140.392C565.105 141.196 563.908 141.62 562.661 141.62V141.626ZM558.117 134.452C558.335 134.452 558.541 134.545 558.684 134.707C558.84 134.888 558.902 135.131 558.846 135.362C558.578 136.552 558.865 137.768 559.632 138.703C560.292 139.507 561.227 140.005 562.268 140.105C563.303 140.205 564.319 139.899 565.123 139.233L573.426 132.401C575.851 130.406 576.985 127.252 576.387 124.167C576.324 123.861 576.461 123.55 576.729 123.388L628.59 91.6296C628.783 91.5111 629.02 91.4862 629.232 91.561L686.808 112.187C691.177 113.751 695.865 113.452 699.997 111.339C704.13 109.226 707.122 105.604 708.412 101.148C710.687 93.3001 706.985 85.0411 699.617 81.5068L654.158 59.7093C634.561 50.3159 611.18 54.4298 595.971 69.9505L558.541 108.154C558.46 108.26 558.354 108.347 558.217 108.397C557.83 108.546 557.469 108.758 557.151 109.02L548.506 116.139C546.841 117.504 546.604 119.972 547.969 121.63C548.237 121.954 548.555 122.235 548.923 122.459C549.21 122.634 549.341 122.983 549.247 123.3C548.892 124.541 549.166 125.869 549.983 126.866C550.781 127.838 552.009 128.368 553.274 128.275C553.523 128.256 553.766 128.368 553.922 128.568C554.072 128.767 554.115 129.029 554.034 129.266C553.586 130.562 553.835 131.971 554.701 133.024C555.512 134.009 556.758 134.539 558.042 134.433C558.061 134.433 558.086 134.433 558.105 134.433L558.117 134.452Z" fill="#18292D"/>
<path d="M744.228 103.59C744.228 103.59 681.229 62.4881 631.656 52.2158C628.92 64.4703 628.147 77.0738 629.363 89.5714L630.628 102.568L639.604 106.17C627.792 122.863 606.917 153.717 606.917 153.717L679.559 172.623L704.971 137.043L716.353 146.749L744.241 103.596L744.228 103.59Z" fill="#96D8E8"/>
<path d="M679.552 173.365C679.49 173.365 679.428 173.359 679.365 173.34L606.724 154.435C606.487 154.372 606.3 154.204 606.213 153.974C606.125 153.743 606.156 153.494 606.294 153.288C606.499 152.982 626.676 123.175 638.444 106.501L630.347 103.254C630.086 103.148 629.911 102.911 629.88 102.631L628.615 89.6344C627.387 77.0433 628.166 64.3962 630.927 52.0482C631.014 51.6493 631.413 51.3937 631.806 51.481C680.949 61.666 744.004 102.55 744.633 102.961C744.976 103.185 745.076 103.647 744.851 103.996L716.964 147.154C716.846 147.335 716.659 147.46 716.447 147.491C716.235 147.522 716.017 147.46 715.855 147.323L705.096 138.147L680.157 173.06C680.014 173.259 679.783 173.371 679.546 173.371L679.552 173.365ZM608.126 153.257L679.241 171.769L704.354 136.614C704.473 136.446 704.666 136.334 704.872 136.309C705.084 136.284 705.289 136.346 705.445 136.483L716.179 145.633L743.193 103.827C736.524 99.5577 678.356 62.9314 632.23 53.1141C629.637 65.0818 628.92 77.3238 630.104 89.5097L631.326 102.051L639.878 105.485C640.09 105.573 640.252 105.747 640.314 105.965C640.377 106.184 640.339 106.42 640.208 106.607C629.649 121.53 611.61 148.114 608.12 153.263L608.126 153.257Z" fill="#18292D"/>
<path d="M652.824 107.986C648.592 107.986 643.942 107.555 638.874 106.683C638.469 106.614 638.195 106.228 638.264 105.816C638.332 105.411 638.712 105.137 639.13 105.206C655.617 108.035 667.553 106.184 674.603 99.7078C681.896 93.0071 681.179 83.5202 681.173 83.4267C681.136 83.0153 681.441 82.6538 681.852 82.6164C682.264 82.579 682.625 82.8844 682.663 83.2958C682.7 83.7134 683.467 93.5868 675.638 100.792C670.439 105.579 662.798 107.979 652.831 107.979L652.824 107.986Z" fill="#18292D"/>
<path d="M704.429 138.036C704.279 138.036 704.13 137.992 703.999 137.899C703.662 137.662 703.575 137.194 703.812 136.858C711.13 126.361 714.633 116.731 714.664 116.637C714.801 116.251 715.231 116.045 715.624 116.188C716.01 116.325 716.216 116.756 716.073 117.148C716.035 117.248 712.47 127.065 705.034 137.724C704.89 137.93 704.653 138.042 704.417 138.042L704.429 138.036Z" fill="#18292D"/>
<path d="M722.63 69.751L715.948 65.4812C708.269 60.5694 706.006 50.2722 710.918 42.5929L712.613 39.9438C718.765 30.3322 731.662 27.4961 741.274 33.642L740.314 36.7586C746.341 40.6107 748.118 48.6952 744.259 54.7227L736.611 66.678C733.613 71.3716 727.317 72.7491 722.63 69.751Z" fill="#18292D"/>
<path d="M741.121 66.4796C748.366 60.106 748.737 48.6847 741.949 40.9696C735.162 33.2544 723.786 32.1669 716.542 38.5406C709.297 44.9142 708.926 56.3354 715.714 64.0506C722.501 71.7657 733.877 72.8533 741.121 66.4796Z" fill="#18292D"/>
<path d="M723.852 50.6648C727.473 45.9214 733.756 43.6463 739.192 45.4975C742.582 46.6507 744.964 49.1813 746.029 52.2855C744.839 51.1697 741.305 48.2277 738.456 49.5429C734.978 51.151 729.624 55.6763 723.852 50.6648Z" fill="#18292D"/>
<path d="M753.129 58.1575C750.655 62.0283 745.506 63.1565 741.635 60.682C737.764 58.2074 736.636 53.0588 739.111 49.1879C741.585 45.3171 746.734 44.1889 750.605 46.6635C754.475 49.1381 755.604 54.2867 753.129 58.1575Z" fill="#18292D"/>
<path d="M737.097 34.0278C728.901 30.1445 718.946 32.7063 713.698 40.3046C714.683 42.5361 716.334 44.5307 718.578 45.9644C724.406 49.6918 732.011 48.2208 735.558 42.6732C737.247 40.0304 737.708 36.9449 737.104 34.0278H737.097Z" fill="#18292D"/>
<path d="M744.178 45.3851C741.704 49.2559 736.555 50.3841 732.684 47.9095C728.813 45.4349 727.685 40.2863 730.16 36.4155C732.634 32.5447 737.783 31.4165 741.654 33.891C745.525 36.3656 746.653 41.5142 744.178 45.3851Z" fill="#18292D"/>
<path d="M752.126 50.9572C749.576 54.9403 744.29 56.0996 740.307 53.5565C736.324 51.0071 735.165 45.7214 737.708 41.7383C740.257 37.7553 745.543 36.5959 749.526 39.1391C753.509 41.6885 754.669 46.9742 752.126 50.9572Z" fill="#18292D"/>
<path d="M726.239 34.9687C726.164 34.9687 726.096 34.9563 726.021 34.9376C725.628 34.8191 725.404 34.4015 725.522 34.0026C726.177 31.8646 724.276 30.0009 724.257 29.9822C723.958 29.6954 723.951 29.2217 724.238 28.9225C724.525 28.6233 724.999 28.6171 725.298 28.9038C725.404 29.0036 727.878 31.4283 726.956 34.4389C726.856 34.763 726.563 34.9687 726.239 34.9687Z" fill="#18292D"/>
<path d="M726.632 34.9817C726.351 34.9817 726.077 34.8196 725.952 34.5454C724.631 31.6906 726.763 28.9542 726.85 28.8358C727.105 28.5116 727.579 28.4555 727.903 28.7111C728.227 28.9667 728.284 29.4341 728.028 29.7583C727.997 29.8019 726.389 31.9087 727.317 33.9096C727.492 34.2836 727.33 34.7324 726.95 34.9007C726.85 34.9505 726.744 34.9692 726.638 34.9692L726.632 34.9817Z" fill="#18292D"/>
<path d="M746.304 64.9193L746.827 63.5916C749.451 56.9532 746.198 49.4422 739.553 46.818C733.949 44.6053 727.735 46.575 724.35 51.2312C722.281 49.9284 719.513 50.2276 717.781 52.0789C716.266 53.6933 715.985 56.012 716.889 57.8944L697.635 74.8301L691.52 73.8701C689.089 78.1337 688.566 84.2173 690.566 90.2759C693.739 99.9 702.073 105.803 709.173 103.459C714.726 101.627 717.868 95.2874 717.456 88.0133L715.78 86.4051L722.674 80.3402C723.571 81.0134 724.562 81.5869 725.653 82.0169C732.291 84.6411 739.802 81.3812 742.427 74.7428L744.259 70.1115C745.618 70.4855 747.077 69.7999 747.619 68.4597C748.167 67.1071 747.575 65.5862 746.31 64.9193H746.304Z" fill="white"/>
<path d="M705.931 104.718C703.27 104.718 700.527 103.783 697.953 101.957C694.313 99.3763 691.433 95.306 689.843 90.5002C687.849 84.4602 688.229 78.1024 690.859 73.4898C691.015 73.2218 691.314 73.0722 691.626 73.1221L697.392 74.0259L715.979 57.6762C715.2 55.5694 715.668 53.2194 717.226 51.5552C719.015 49.6478 721.826 49.1492 724.138 50.2524C727.872 45.6025 734.224 43.8946 739.821 46.1074C743.218 47.4475 745.892 50.0343 747.345 53.3877C748.797 56.7412 748.859 60.4562 747.519 63.8533L747.22 64.6137C748.435 65.5799 748.903 67.2379 748.305 68.7214C747.712 70.18 746.266 71.0526 744.727 70.9342L743.119 75.0045C741.778 78.4016 739.192 81.0756 735.838 82.528C732.485 83.9803 728.77 84.0426 725.373 82.7025C724.456 82.341 723.565 81.8672 722.717 81.2813L716.883 86.4175L717.974 87.4647C718.111 87.5956 718.192 87.7763 718.204 87.9633C718.641 95.7735 715.107 102.281 709.409 104.163C708.287 104.537 707.122 104.718 705.944 104.718H705.931ZM691.919 74.6866C689.725 78.9002 689.476 84.5911 691.271 90.0327C692.754 94.5393 695.441 98.3354 698.825 100.735C702.141 103.085 705.732 103.796 708.929 102.742C713.91 101.103 717.014 95.331 716.715 88.3373L715.256 86.9348C715.107 86.7915 715.019 86.5858 715.025 86.3801C715.025 86.1681 715.125 85.9749 715.281 85.8316L722.175 79.7666C722.443 79.5298 722.836 79.5173 723.116 79.7292C724.008 80.3962 724.949 80.926 725.927 81.3125C728.957 82.5093 732.26 82.4532 735.246 81.1567C738.232 79.8601 740.532 77.4853 741.729 74.456L743.561 69.8247C743.704 69.4694 744.078 69.2762 744.452 69.3759C745.468 69.6564 746.528 69.1328 746.921 68.1667C747.32 67.1818 746.902 66.0661 745.961 65.5674C745.624 65.3867 745.475 64.9877 745.612 64.6324L746.135 63.3048C747.332 60.2817 747.276 56.9656 745.98 53.9861C744.683 51.0004 742.308 48.7004 739.279 47.5036C734.105 45.4591 728.215 47.1732 724.955 51.6611C724.724 51.979 724.282 52.0663 723.951 51.8544C722.15 50.7199 719.781 51.0254 718.323 52.5774C717.058 53.93 716.758 55.881 717.556 57.5577C717.7 57.8569 717.625 58.2185 717.375 58.4429L698.121 75.3785C697.953 75.5281 697.728 75.5904 697.51 75.553L691.919 74.6741V74.6866Z" fill="#18292D"/>
<path d="M717.88 60.1826C717.7 60.1826 717.513 60.114 717.369 59.9831C714.969 57.7392 714.851 53.9618 717.095 51.5621C717.375 51.2566 717.849 51.2442 718.155 51.5247C718.454 51.8052 718.472 52.2789 718.192 52.5843C716.509 54.3795 716.603 57.2093 718.398 58.8923C718.697 59.1728 718.716 59.6465 718.435 59.952C718.285 60.1078 718.086 60.1888 717.887 60.1888L717.88 60.1826Z" fill="#18292D"/>
<path d="M721.19 57.9761C721.034 57.9761 720.885 57.9325 720.748 57.8328C720.411 57.5897 720.342 57.1222 720.586 56.7856C721.558 55.4517 720.754 54.1178 720.723 54.0617C720.504 53.7126 720.61 53.2514 720.96 53.0332C721.309 52.815 721.764 52.9148 721.988 53.2638C722.044 53.3511 723.378 55.5015 721.801 57.6645C721.651 57.8639 721.427 57.9699 721.196 57.9699L721.19 57.9761Z" fill="#18292D"/>
<path d="M740.706 70.9219C740.706 70.9219 740.694 70.9219 740.681 70.9219C739.578 70.8907 737.478 69.9806 737.384 66.7768C737.372 66.3654 737.696 66.0163 738.113 66.0101C738.506 65.9852 738.874 66.3217 738.88 66.7394C738.955 69.2638 740.557 69.4259 740.737 69.4321C741.149 69.4571 741.467 69.7999 741.448 70.2113C741.429 70.6102 741.105 70.9281 740.706 70.9281V70.9219Z" fill="#18292D"/>
<path d="M743.355 63.4427C742.988 64.066 742.271 64.3216 741.754 64.0224C741.236 63.717 741.118 62.9627 741.485 62.3394C741.853 61.7161 742.57 61.4605 743.087 61.7597C743.605 62.0589 743.723 62.8194 743.355 63.4427Z" fill="#18292D"/>
<path d="M744.484 58.9227C744.452 59.3778 743.418 59.677 742.159 59.5959C740.906 59.5149 739.915 59.0848 739.94 58.6298C739.971 58.1748 741.006 57.8756 742.265 57.9566C743.524 58.0376 744.509 58.4677 744.484 58.9227Z" fill="#18292D"/>
<path d="M735.583 45.3789C731.101 42.7236 725.279 43.6586 721.87 47.7226C722.312 49.0503 723.154 50.2782 724.357 51.2194C727.492 53.6566 731.911 53.2203 734.236 50.2408C735.34 48.8196 735.77 47.0806 735.576 45.3789H735.583Z" fill="#18292D"/>
<path d="M824.456 82.9654C823.19 82.9654 821.925 82.5166 820.928 81.6315L819.718 80.5531C819.413 80.2789 819.382 79.8051 819.656 79.4997C819.93 79.188 820.404 79.1631 820.709 79.4374L821.919 80.5157C823.321 81.7686 825.453 81.7998 826.893 80.5905C827.005 80.497 827.074 80.3599 827.086 80.2165C827.098 80.0669 827.055 79.9298 826.955 79.8176L823.396 75.6227C822.399 74.4508 820.672 74.1952 819.376 75.0305L818.921 75.3235C818.571 75.5479 818.11 75.4481 817.886 75.1053C817.661 74.7562 817.761 74.295 818.104 74.0706L818.559 73.7776C820.479 72.531 823.047 72.905 824.53 74.6565L828.09 78.8515C828.445 79.2691 828.613 79.7989 828.57 80.3474C828.526 80.8959 828.27 81.3884 827.846 81.7437C826.868 82.5664 825.652 82.9778 824.437 82.9778L824.456 82.9654Z" fill="#18292D"/>
<path d="M819.151 93.1441C818.877 93.1441 818.615 92.9945 818.484 92.739C818.297 92.3712 818.441 91.9224 818.808 91.7292C819.058 91.5983 824.724 88.569 822.43 82.6349C822.28 82.2485 822.473 81.8184 822.86 81.6688C823.246 81.5192 823.676 81.7124 823.826 82.0989C826.612 89.3045 819.569 93.0257 819.494 93.0631C819.382 93.1192 819.27 93.1441 819.151 93.1441Z" fill="#18292D"/>
<path d="M829.592 92.6443C828.351 92.6443 827.342 92.1457 826.575 91.1421L826.07 90.4253C826.045 90.3941 826.026 90.363 826.014 90.3256C825.278 88.8234 825.871 87.2339 827.603 86.0745L834.423 82.0853C834.784 81.8796 835.239 81.998 835.445 82.3533C835.651 82.7086 835.532 83.1698 835.177 83.3755L828.395 87.3399C827.678 87.8198 826.887 88.6301 827.335 89.615L827.784 90.257C828.308 90.9426 829.237 91.6345 831.593 90.6808C831.973 90.525 832.409 90.712 832.565 91.0922C832.721 91.4725 832.534 91.9088 832.154 92.0646C831.212 92.4448 830.352 92.6381 829.592 92.6381V92.6443Z" fill="#18292D"/>
<path d="M826.974 87.2848C825.497 87.2848 824.088 86.5866 823.103 85.2964C822.854 84.966 822.916 84.4985 823.246 84.2492C823.577 83.9999 824.044 84.0622 824.294 84.3926C825.285 85.6891 826.799 86.1254 828.258 85.5332C828.638 85.3774 829.074 85.5644 829.23 85.9446C829.386 86.3248 829.199 86.7612 828.819 86.917C828.208 87.1663 827.591 87.2848 826.974 87.2848Z" fill="#18292D"/>
<path d="M827.292 79.3879C827.03 79.3879 826.774 79.2508 826.637 79.0015C826.438 78.6399 826.562 78.1849 826.924 77.9854L830.396 76.0469C830.757 75.8475 831.212 75.9721 831.412 76.3336C831.611 76.6952 831.487 77.1502 831.125 77.3497L827.653 79.2882C827.535 79.3505 827.41 79.3817 827.292 79.3817V79.3879Z" fill="#18292D"/>
<path d="M833.051 98.3416C831.437 98.3416 829.866 97.5625 828.919 96.1787C827.952 94.77 828.295 92.9063 829.704 91.9401L834.909 88.356C835.245 88.1192 835.713 88.2064 835.95 88.5493C836.187 88.8921 836.099 89.3533 835.756 89.5902L830.552 93.1743C829.835 93.6667 829.66 94.6142 830.153 95.3372C831.069 96.6711 832.895 97.2072 834.404 96.5776L836.61 95.6551C836.991 95.4993 837.427 95.6738 837.589 96.0603C837.751 96.4405 837.57 96.8768 837.19 97.0389L834.984 97.9614C834.36 98.2232 833.699 98.3479 833.051 98.3479V98.3416Z" fill="#18292D"/>
<path d="M722.805 81.2327C722.642 81.2327 722.48 81.1829 722.343 81.0707C717.612 77.3682 715.855 70.8732 718.061 65.282C718.211 64.8955 718.647 64.7085 719.033 64.8581C719.42 65.0077 719.607 65.444 719.457 65.8305C717.488 70.8108 719.058 76.5952 723.266 79.8926C723.59 80.1482 723.646 80.6157 723.397 80.9398C723.247 81.1268 723.029 81.2265 722.805 81.2265V81.2327Z" fill="#18292D"/>
<defs>
<clipPath id="clip0_711_9504">
<rect width="48.1513" height="66" fill="white" transform="translate(165 191)"/>
</clipPath>
</defs>
</svg>
