<svg width="470" height="250" viewBox="0 0 470 250" fill="none" xmlns="http://www.w3.org/2000/svg">
<g clip-path="url(#clip0_542_17367)">
<mask id="mask0_542_17367" style="mask-type:alpha" maskUnits="userSpaceOnUse" x="0" y="0" width="470" height="250">
<path d="M0 20C0 8.9543 8.9543 0 20 0H450C461.046 0 470 8.9543 470 20V250H0V20Z" fill="#F9F9FB"/>
</mask>
<g mask="url(#mask0_542_17367)">
<path d="M328.467 130.708C328.467 130.708 341.345 119.094 340.359 110.06C339.374 101.027 327.818 99.8985 324.843 96.1273C321.869 92.3561 322.124 84.5163 319.321 82.4434C316.518 80.3704 309.186 82.7919 305.552 78.9378C301.909 75.0804 297.873 66.7717 289.862 64.7713C281.86 62.7743 273.464 63.1191 267.813 67.0712C262.161 71.0233 252.506 79.1387 254.053 89.4161C255.603 99.6855 264.959 126.384 258.978 131.84C252.998 137.297 296.606 154.239 328.467 130.708Z" fill="#18292D"/>
<path d="M269.854 141.568C267.617 140.618 265.932 139.564 264.943 138.506C263.706 137.173 263.596 135.726 264.655 134.626C268.405 130.749 263.599 115.556 260.082 104.452C258.673 100.002 257.457 96.16 256.857 93.3685C255.183 85.5831 259.552 77.2816 269.497 69.3458C274.677 65.2215 282.894 63.8145 292.051 65.5031C298.413 66.6723 302.614 71.5839 305.983 75.532C307.062 76.7978 308.086 77.9935 309.036 78.8759C311.019 80.7325 314.057 80.6596 317.001 80.5846C319.272 80.5245 321.424 80.4796 322.877 81.416C324.646 82.5613 325.489 85.2679 326.38 88.1265C327.165 90.6584 327.991 93.273 329.416 94.8738C330.386 95.9526 332.438 96.7859 334.613 97.6811C339.186 99.5469 344.884 101.881 345.982 108.238C347.591 117.527 335.682 129.825 335.171 130.341C335.153 130.361 335.127 130.378 335.109 130.399C313.015 148.962 282.547 146.946 269.85 141.556L269.854 141.568ZM294.638 68.0856C293.722 67.697 292.758 67.4005 291.739 67.2121C283.076 65.6205 275.366 66.8953 270.57 70.7127C264.013 75.9341 256.614 84.0485 258.54 93.0118C259.12 95.7193 260.333 99.5227 261.72 103.935C265.764 116.719 270.352 131.209 265.881 135.832C265.684 136.03 265.328 136.405 266.187 137.324C269.036 140.375 279.857 143.634 292.377 143.574C303.542 143.522 319.818 140.97 333.944 129.115C334.585 128.448 345.683 116.755 344.257 108.539C343.323 103.126 338.336 101.084 333.938 99.2926C331.473 98.2836 329.334 97.4132 328.105 96.0366C326.422 94.1574 325.543 91.3601 324.703 88.6456C323.909 86.091 323.15 83.6737 321.91 82.8751C320.901 82.2211 319.009 82.2731 317.016 82.3197C313.882 82.3987 310.326 82.4769 307.829 80.1486C306.812 79.2005 305.759 77.9641 304.647 76.6654C302.018 73.5857 298.87 69.8912 294.619 68.0868L294.638 68.0856Z" fill="#18292D"/>
<path d="M282.074 189.869L308.248 206.87C322.852 216.357 342.13 205.712 341.882 188.301L336.522 141.944C335.569 133.741 329.683 126.959 321.698 124.875L299.693 119.124L273.541 119.203C265.308 120.603 257.774 124.696 252.107 130.831L220.775 164.76C213.982 172.108 216.242 183.938 225.266 188.266C230.075 190.571 235.748 190.132 240.144 187.103L259.842 170.445L260.811 179.782C261.651 187.852 269.505 193.252 277.338 191.156L282.079 189.88L282.074 189.869Z" fill="#4A7C88"/>
<path d="M297.841 92.4319L276.292 96.9141L282.937 128.86L304.486 124.378L297.841 92.4319Z" fill="white"/>
<path d="M273.024 72.722L273.128 72.8976C277.794 80.985 285.511 86.8633 294.539 89.211L293.206 104.57L279.244 109.485C277.143 110.228 274.898 110.45 272.693 110.134C265.19 109.063 259.942 102.147 260.935 94.6295L262.291 84.3728C263.053 78.6173 267.346 73.9476 273.024 72.722Z" fill="white"/>
<path d="M301.451 91.299C301.845 94.4636 299.596 97.3513 296.431 97.7461C293.266 98.1409 290.379 95.8911 289.984 92.7264C289.589 89.5618 291.839 86.6742 295.004 86.2794C298.168 85.8846 301.056 88.1344 301.451 91.299Z" fill="white"/>
<path d="M275.3 111.851C275.029 111.736 274.819 111.478 274.776 111.159C274.715 110.682 275.057 110.254 275.525 110.19C288.58 108.563 290.652 101.381 290.733 101.077C290.852 100.621 291.327 100.343 291.792 100.465C292.249 100.584 292.53 101.051 292.408 101.516C292.317 101.862 290.03 110.127 275.737 111.905C275.579 111.923 275.43 111.897 275.295 111.839L275.3 111.851Z" fill="#18292D"/>
<path d="M293.752 93.6118C293.402 93.4631 293.177 93.0858 293.233 92.687C293.254 92.5268 293.852 88.6842 296.53 87.8857C296.991 87.7523 297.472 88.013 297.609 88.4656C297.742 88.9262 297.481 89.4074 297.029 89.5441C295.686 89.9417 295.062 92.1855 294.95 92.9365C294.882 93.4058 294.442 93.7355 293.965 93.6644C293.886 93.6499 293.819 93.6309 293.755 93.6038L293.752 93.6118Z" fill="#18292D"/>
<path d="M276.092 102.924C274.077 102.069 272.387 100.252 272.108 99.9361C271.916 99.7233 271.84 99.4373 271.912 99.1577C271.972 98.8827 272.172 98.6572 272.432 98.5518L280.603 95.2837C280.841 95.1875 281.106 95.2058 281.33 95.3198C281.551 95.4416 281.715 95.6523 281.769 95.9008C281.817 96.1187 282.868 101.347 279.626 102.986C278.476 103.569 277.229 103.388 276.09 102.904L276.092 102.924ZM274.308 99.6673C275.558 100.771 277.545 102.112 278.848 101.454C280.235 100.755 280.307 98.6154 280.202 97.3121L274.308 99.6673Z" fill="#18292D"/>
<path d="M265.121 89.1723C264.889 88.8109 264.388 88.7297 264.038 88.9569C263.564 89.2538 263.233 89.7898 263.151 90.3374C263.142 90.3806 263.149 90.4306 263.14 90.4737C263.056 90.6069 262.999 90.7615 262.986 90.9251C262.962 91.1591 262.97 91.4066 263.073 91.6289C263.194 91.8964 263.372 92.1411 263.644 92.2753C263.936 92.4276 264.254 92.431 264.568 92.3573C264.819 92.2951 265.035 92.1422 265.221 91.9678C265.569 91.6361 265.739 91.1256 265.713 90.6545C265.679 90.114 265.417 89.6267 265.129 89.1757L265.121 89.1723Z" fill="#18292D"/>
<path d="M275.974 86.8452C275.789 86.6823 275.538 86.6321 275.301 86.6817C275.201 86.6957 275.102 86.729 275.017 86.7963C274.91 86.8727 274.819 86.9752 274.757 87.0992C274.498 87.4874 274.406 87.993 274.446 88.4517C274.462 88.6367 274.504 88.8239 274.566 89.0099C274.584 89.1019 274.609 89.1972 274.646 89.2879C274.764 89.6293 274.999 89.9828 275.306 90.1884C275.409 90.2789 275.533 90.3409 275.666 90.3598C275.768 90.3844 275.872 90.3817 275.979 90.3519C276.227 90.2976 276.401 90.1551 276.523 89.9343C277.088 88.9342 276.819 87.5986 275.982 86.8486L275.974 86.8452Z" fill="#18292D"/>
<path d="M269.14 95.5754C269.092 95.5551 269.044 95.5348 269.003 95.4986C268.607 95.2366 268.496 94.701 268.762 94.2969C268.762 94.2969 269.733 92.5391 267.915 88.3005C267.254 86.7607 266.074 84.6901 265 84.4974C262.88 84.1141 261.111 83.7921 260.249 84.6945C259.914 85.0409 259.372 85.0553 259.026 84.7203C258.676 84.3934 258.665 83.8438 259 83.4974C259.153 83.3367 261.035 82.8725 264.5 83.4976C266.177 83.7961 268.594 85.5069 269.501 87.6205C271.703 92.7457 270.364 95.0147 270.197 95.2538C269.963 95.6055 269.514 95.7342 269.14 95.5754Z" fill="#18292D"/>
<path d="M200.31 103.301L190.541 80.1668L195.484 77.2199L201.38 87.8307C203.51 91.6662 203.659 96.2954 201.763 100.254L200.31 103.301Z" fill="white"/>
<path d="M199.972 104.097C199.773 104.012 199.6 103.845 199.509 103.637L189.74 80.5032C189.572 80.1029 189.722 79.6402 190.095 79.4231L195.039 76.4762C195.24 76.3551 195.479 76.3248 195.707 76.3842C195.936 76.4436 196.124 76.5985 196.237 76.7968L202.133 87.4077C204.398 91.4789 204.547 96.4181 202.546 100.623L201.092 103.671C200.945 103.974 200.635 104.172 200.29 104.166C200.178 104.165 200.068 104.137 199.972 104.097ZM191.629 80.525L200.349 101.194L200.973 99.8804C202.742 96.178 202.603 91.8349 200.612 88.2465L195.148 78.4109L191.616 80.5103L191.629 80.525Z" fill="#18292D"/>
<path d="M243.16 168.485L248.124 165.866L244.507 99.6636L215.561 97.0068C210.884 96.5812 206.196 97.7104 202.237 100.22L202.196 100.25L208.344 161.729L243.168 168.488L243.16 168.485Z" fill="white"/>
<path d="M208.001 162.514C207.715 162.392 207.508 162.126 207.476 161.803L201.329 100.323C201.297 99.9995 201.452 99.6798 201.723 99.504C205.876 96.8698 210.797 95.6797 215.634 96.1263L244.58 98.7831C245.005 98.8225 245.337 99.17 245.363 99.5946L248.98 165.797C248.997 166.133 248.815 166.45 248.523 166.608L243.559 169.227C243.387 169.323 243.187 169.351 242.987 169.313L208.163 162.554C208.104 162.539 208.044 162.523 207.989 162.499L208.001 162.514ZM203.107 100.693L209.135 160.994L243.03 167.574L247.232 165.355L243.684 100.451L215.479 97.8642C211.176 97.4658 206.802 98.4746 203.104 100.701L203.107 100.693Z" fill="#18292D"/>
<path d="M189.592 76.5791L194.802 137.877L206.46 162.781L244.64 170.09L239.74 103.634L201.807 99.6618L189.592 76.5791Z" fill="#18292D"/>
<path d="M206.123 163.577C205.836 163.455 205.625 163.178 205.597 162.846L200.943 99.7273C200.91 99.2527 201.264 98.8393 201.742 98.7979C202.216 98.7644 202.63 99.1184 202.671 99.5964L207.324 162.715C207.358 163.19 207.004 163.603 206.526 163.645C206.38 163.658 206.25 163.631 206.123 163.577Z" fill="white"/>
<path d="M239.402 104.43C239.283 104.38 239.169 104.294 239.073 104.187C238.768 103.823 238.823 103.273 239.187 102.967L243.958 98.9887C244.322 98.6831 244.864 98.7346 245.178 99.1026C245.483 99.4672 245.428 100.017 245.064 100.323L240.293 104.301C240.035 104.511 239.689 104.552 239.402 104.43Z" fill="#18292D"/>
<path d="M291.21 169.563L256.681 153.188L251.61 126.711L235.913 116.525L226.175 110.005C224.107 111.269 222.514 113.12 224.341 116.207L228.482 119.289L217.816 116.218C216.588 116.279 215.722 119.67 218.63 121.872L225.644 125.178L216.315 125.841C215.796 125.892 215.443 126.391 215.575 126.898C216.2 129.343 218.311 131.122 220.82 131.342L229.889 132.11L220.472 135.638L220.672 136.117C221.533 138.183 223.625 139.475 225.859 139.324L234.565 138.736L236.911 151.889C237.685 156.22 240.087 160.077 243.629 162.689L249.327 166.883L279.834 187.001L291.202 169.56L291.21 169.563Z" fill="white"/>
<path d="M279.504 187.801C279.456 187.78 279.409 187.76 279.368 187.724L248.857 167.614L243.123 163.395C239.386 160.644 236.884 156.622 236.069 152.058L233.859 139.667L225.926 140.208C223.321 140.39 220.887 138.886 219.881 136.477L219.68 135.997C219.593 135.782 219.594 135.538 219.685 135.323C219.776 135.108 219.951 134.938 220.175 134.854L225.995 132.674L220.752 132.234C217.869 131.987 215.459 129.94 214.738 127.144C214.615 126.66 214.711 126.146 214.999 125.733C215.287 125.32 215.736 125.059 216.237 125.009L222.29 124.581L218.266 122.685C218.21 122.661 218.158 122.63 218.109 122.59C215.961 120.965 215.491 118.642 215.982 117.065C216.292 116.069 216.98 115.422 217.776 115.384C217.873 115.378 217.962 115.388 218.053 115.417L224.141 117.165L223.82 116.926C223.727 116.858 223.652 116.769 223.591 116.669C221.833 113.705 222.55 111.219 225.72 109.286C226.011 109.109 226.372 109.121 226.651 109.305L236.381 115.821L252.07 126.004C252.268 126.135 252.4 126.332 252.45 126.57L257.44 152.617L291.573 168.797C292.004 168.999 292.188 169.518 291.986 169.949C291.784 170.38 291.231 170.578 290.834 170.362L256.305 153.986C256.054 153.87 255.88 153.637 255.825 153.369L250.815 127.257L235.428 117.268L226.16 111.06C224.258 112.376 223.916 113.734 224.992 115.647L228.991 118.622C229.328 118.869 229.434 119.327 229.248 119.699C229.062 120.071 228.632 120.264 228.233 120.142L217.816 117.148C217.745 117.25 217.578 117.555 217.537 118.073C217.501 118.49 217.525 119.937 219.074 121.158L226.001 124.428C226.352 124.596 226.554 124.982 226.485 125.366C226.416 125.75 226.086 126.042 225.696 126.074L216.368 126.737C216.938 128.801 218.734 130.325 220.884 130.505L229.953 131.273C230.354 131.302 230.68 131.619 230.736 132.018C230.792 132.418 230.564 132.8 230.182 132.948L221.624 136.155C222.424 137.679 224.048 138.612 225.792 138.488L234.497 137.899C234.941 137.871 235.328 138.177 235.406 138.614L237.752 151.767C238.49 155.894 240.751 159.532 244.13 162.018L249.828 166.213L280.302 186.298C280.698 186.56 280.809 187.096 280.547 187.492C280.313 187.843 279.864 187.972 279.489 187.813L279.504 187.801Z" fill="#18292D"/>
<path d="M243.362 127.175C243.362 127.175 243.314 127.154 243.29 127.144L234.102 122.229L227.627 119.866C227.182 119.696 226.95 119.203 227.112 118.755C227.274 118.307 227.775 118.078 228.223 118.24L234.757 120.619C234.757 120.619 234.829 120.65 234.869 120.667L244.113 125.605C244.534 125.831 244.694 126.359 244.469 126.78C244.253 127.177 243.779 127.342 243.365 127.167L243.362 127.175Z" fill="#18292D"/>
<path d="M224.889 125.985C224.587 125.856 224.374 125.56 224.361 125.216C224.347 124.74 224.732 124.34 225.2 124.322L231.002 124.155C231.173 124.152 231.334 124.192 231.475 124.28L240.029 129.517C240.439 129.767 240.562 130.298 240.312 130.709C240.062 131.12 239.531 131.242 239.121 130.992L230.785 125.885L225.241 126.04C225.118 126.044 224.988 126.017 224.877 125.97L224.889 125.985Z" fill="#18292D"/>
<path d="M229.273 132.919C229.042 132.821 228.852 132.628 228.785 132.365C228.652 131.904 228.912 131.423 229.373 131.289L232.585 130.341C232.725 130.298 232.876 130.296 233.014 130.326L237.292 131.269C237.764 131.375 238.056 131.837 237.954 132.301C237.851 132.765 237.393 133.068 236.921 132.962L232.855 132.072L229.86 132.952C229.658 133.008 229.456 132.997 229.281 132.923L229.273 132.919Z" fill="#18292D"/>
<path d="M227.478 158.267L227.216 165.502C227.216 165.502 234.012 167.175 234.046 167.848C234.128 169.47 226.69 174.111 222.836 173.518C215.285 172.361 204.223 168.342 204.399 161.84C204.575 155.338 206.726 145.512 206.726 145.512C206.726 145.512 211.644 145.946 211.296 149.509C210.813 154.5 211.527 159.811 211.527 159.811L217.256 146.092C217.256 146.092 219.914 146.516 221.8 148.115C223.686 149.714 227.236 151.268 227.474 158.275L227.478 158.267Z" fill="white"/>
<path d="M212.53 171.436C207.785 169.422 203.721 166.381 203.529 161.875C203.242 155.092 205.955 145.336 206.068 144.914C206.185 144.484 206.618 144.217 207.053 144.298C207.253 144.336 212.003 145.253 212.162 148.929C212.213 150.115 212.119 151.597 212.032 153.176C211.874 155.74 211.685 158.929 212.278 160.055C212.502 160.479 212.337 161 211.913 161.224C211.489 161.448 210.967 161.283 210.743 160.859C209.921 159.299 210.105 156.276 210.301 153.071C210.395 151.542 210.483 150.095 210.431 149.002C210.362 147.394 208.574 146.56 207.509 146.211C206.864 148.728 205.025 156.403 205.253 161.798C205.537 168.608 217.749 171.669 222.98 172.668C223.451 172.755 223.754 173.213 223.667 173.683C223.58 174.153 223.123 174.457 222.652 174.37C219.715 173.809 215.934 172.89 212.511 171.437L212.53 171.436Z" fill="#18292D"/>
<path d="M209.858 165.557C209.436 165.378 209.224 164.903 209.383 164.463L216.198 145.775C216.31 145.465 216.591 145.246 216.914 145.215C218.415 145.044 221.366 145.441 221.794 148.216C221.866 148.688 221.545 149.134 221.073 149.206C220.601 149.278 220.155 148.958 220.083 148.485C219.879 147.15 218.42 146.934 217.626 146.926L211.013 165.07C210.851 165.518 210.35 165.747 209.902 165.585C209.886 165.578 209.871 165.572 209.863 165.568L209.858 165.557Z" fill="#18292D"/>
<path d="M215.124 167.67C214.718 167.498 214.504 167.05 214.64 166.619L220.655 147.225C220.726 146.992 220.892 146.8 221.111 146.705C221.333 146.602 221.581 146.594 221.807 146.681C221.966 146.748 225.876 148.361 225.645 151.251C225.454 153.584 222.139 167.435 222.001 168.025C221.891 168.485 221.42 168.774 220.96 168.663C220.495 168.541 220.211 168.082 220.322 167.622C221.506 162.684 223.782 152.874 223.92 151.11C223.998 150.129 222.9 149.24 222.007 148.71L216.292 167.132C216.154 167.591 215.662 167.842 215.212 167.707C215.188 167.697 215.156 167.684 215.132 167.674L215.124 167.67Z" fill="#18292D"/>
<path d="M225.828 168.662C225.43 168.493 225.208 168.042 225.341 167.619C226.435 163.978 228.428 154.104 224.449 152.189C224.021 151.979 223.838 151.46 224.048 151.032C224.257 150.605 224.773 150.429 225.205 150.631C227.849 151.904 228.933 155.304 228.429 160.718C228.075 164.542 227.041 167.974 226.996 168.124C226.858 168.582 226.374 168.837 225.916 168.699C225.884 168.685 225.86 168.675 225.828 168.662Z" fill="#18292D"/>
<path d="M212.53 171.435C207.785 169.421 203.721 166.381 203.529 161.874C203.507 161.395 203.885 160.992 204.353 160.974C204.832 160.952 205.239 161.322 205.253 161.798C205.537 168.608 217.749 171.668 222.98 172.668C227.126 173.46 231.049 170.305 233.611 167.522C233.93 167.169 234.483 167.15 234.836 167.469C235.186 167.796 235.208 168.341 234.889 168.694C232.029 171.802 227.585 175.299 222.664 174.365C219.726 173.804 215.945 172.885 212.522 171.432L212.53 171.435Z" fill="#18292D"/>
<path d="M290.902 171.839C290.473 171.656 290.26 171.162 290.438 170.721C290.615 170.279 291.113 170.058 291.562 170.24L320.425 181.702C320.828 181.882 321.088 182.378 320.906 182.827C320.728 183.268 320.231 183.489 319.781 183.308L290.918 171.845L290.902 171.839Z" fill="white"/>
<path d="M311.308 180.096C311.037 179.981 310.827 179.723 310.792 179.407L308.67 162.826C308.609 162.349 308.943 161.917 309.42 161.857C309.896 161.796 310.328 162.13 310.389 162.606L312.51 179.188C312.571 179.664 312.238 180.096 311.761 180.156C311.603 180.174 311.451 180.156 311.316 180.099L311.308 180.096Z" fill="white"/>
<path d="M304.932 132.566C307.442 129.178 308.715 125.293 308.852 121.518L299.685 119.121L274.842 119.192C272.891 126.068 274.882 133.396 280.468 137.523C287.89 143.013 298.846 140.796 304.936 132.558L304.932 132.566Z" fill="white"/>
<path d="M99.7814 244.481H172.539L165.335 179.896C164.479 172.242 158.892 165.946 151.394 164.199C148.29 163.473 145.055 163.577 142.002 164.502L119.05 171.438C119.05 171.438 104.45 178.706 98.3458 186.676C84.6159 204.604 100.075 244.767 99.7814 244.481Z" fill="#4A7C88"/>
<path d="M110.885 176.403L106.406 127.462L131.166 125.196L134.988 166.967L137.738 166.483C145.098 171.248 149.033 178.79 146.871 185.483C144.112 194.045 132.471 197.954 120.874 194.218C113.575 191.866 108.031 187.049 105.61 181.661L110.877 176.403H110.885Z" fill="white"/>
<path d="M129.696 196.501C126.721 196.501 123.642 196.008 120.615 195.039C113.342 192.696 107.444 187.827 104.832 182.015C104.685 181.686 104.754 181.306 105.014 181.046L109.995 176.074L105.558 127.539C105.515 127.064 105.87 126.64 106.345 126.597L131.105 124.331C131.572 124.288 132.005 124.642 132.048 125.118L135.784 165.955L137.609 165.635C137.825 165.592 138.05 165.635 138.232 165.756C146.119 170.859 149.933 178.893 147.719 185.751C146.3 190.162 142.668 193.543 137.488 195.282C135.066 196.094 132.429 196.501 129.713 196.501H129.696ZM106.657 181.842C109.191 186.979 114.561 191.269 121.143 193.388C126.582 195.135 132.178 195.23 136.917 193.638C141.561 192.082 144.804 189.089 146.05 185.215C147.987 179.196 144.579 172.07 137.548 167.391L135.135 167.823C134.893 167.866 134.651 167.806 134.461 167.659C134.271 167.512 134.15 167.296 134.124 167.054L130.379 126.138L107.34 128.249L111.733 176.324C111.759 176.584 111.664 176.835 111.482 177.016L106.648 181.842H106.657Z" fill="#18292D"/>
<path d="M106.32 107.761L108.741 110.848C109.252 110.632 109.77 110.45 110.289 110.295C112.944 113.33 115.236 116.859 116.992 120.82C122.449 133.1 121.048 152.602 110.687 157.627C109.987 157.938 97.8963 152.395 94.3419 143.885L92.889 140.399C87.6049 127.73 93.65 113.045 106.32 107.761Z" fill="#18292D"/>
<path d="M111.198 136.646C108.992 129.814 111.051 122.048 116.612 117.949C120.071 115.389 124.205 114.775 128.001 115.847C126.081 116.262 120.754 117.732 120.097 121.451C119.301 125.992 120.106 134.38 111.198 136.655V136.646Z" fill="#18292D"/>
<path d="M131.534 126.488C136.939 125.334 140.384 120.017 139.229 114.613C138.074 109.208 132.757 105.763 127.353 106.918C121.949 108.073 118.504 113.39 119.658 118.794C120.813 124.198 126.13 127.643 131.534 126.488Z" fill="#18292D"/>
<path d="M103.837 112.163C94.3756 117.594 90.086 129.191 93.9951 139.586C96.8749 140.14 99.9797 139.88 102.929 138.644C110.608 135.444 114.362 126.917 111.318 119.609C109.865 116.132 107.132 113.555 103.837 112.154V112.163Z" fill="#18292D"/>
<path d="M113.387 126.436C118.708 124.944 121.812 119.421 120.321 114.1C118.829 108.779 113.306 105.675 107.985 107.166C102.664 108.658 99.5598 114.181 101.052 119.502C102.543 124.823 108.066 127.927 113.387 126.436Z" fill="#18292D"/>
<path d="M130.872 108.92C133.06 114.169 130.578 120.189 125.338 122.377C120.088 124.565 114.069 122.083 111.881 116.842C109.693 111.592 112.175 105.573 117.416 103.385C122.665 101.197 128.684 103.679 130.872 108.92Z" fill="#18292D"/>
<path d="M96.5902 123.881C96.3307 123.881 96.0799 123.769 95.907 123.553C94.2292 121.425 91.0726 122.031 91.038 122.031C90.571 122.126 90.1126 121.823 90.0175 121.356C89.9224 120.889 90.225 120.431 90.6921 120.336C90.865 120.301 94.9297 119.523 97.2648 122.48C97.5588 122.852 97.4983 123.397 97.1177 123.691C96.9621 123.812 96.7718 123.873 96.5815 123.873L96.5902 123.881Z" fill="#18292D"/>
<path d="M96.8675 123.501C96.8156 123.501 96.7637 123.501 96.7205 123.483C93.0104 122.835 91.7737 118.874 91.7218 118.71C91.5834 118.251 91.8429 117.767 92.3012 117.629C92.7596 117.49 93.2439 117.75 93.3823 118.208C93.3996 118.269 94.3855 121.321 97.0232 121.788C97.4902 121.875 97.8102 122.316 97.7237 122.792C97.6545 123.215 97.2826 123.509 96.8762 123.509L96.8675 123.501Z" fill="#18292D"/>
<path d="M118.981 147.768L115.867 148.434C112.486 149.16 109.156 147.007 108.43 143.617C107.79 140.633 109.39 137.693 112.097 136.542C109.813 130.004 112.131 122.506 118.159 118.493C125.303 113.728 134.954 115.665 139.719 122.809L140.671 124.236C142.193 123.44 144.095 123.899 145.064 125.369C146.015 126.822 145.695 128.733 144.389 129.814L146.275 132.642C144.943 133.766 143.343 134.795 141.509 135.608C140.671 135.98 139.823 136.292 138.993 136.534C141.423 137.494 144.917 137.399 148.523 136.17C152.207 143.132 150.089 151.893 143.395 156.356C138.076 159.901 131.374 159.737 126.332 156.477L118.981 147.751V147.768Z" fill="white"/>
<path d="M134.772 159.85C131.676 159.85 128.58 158.976 125.865 157.221C125.467 156.961 125.346 156.425 125.605 156.027C125.865 155.629 126.401 155.508 126.799 155.768C131.719 158.942 138.041 158.898 142.919 155.647C149.007 151.591 151.161 143.781 148.091 137.226C144.597 138.289 141.207 138.333 138.69 137.347C138.344 137.208 138.128 136.871 138.145 136.508C138.162 136.136 138.405 135.825 138.759 135.712C139.589 135.462 140.402 135.167 141.172 134.822C142.616 134.182 143.948 133.395 145.133 132.478L143.68 130.298C143.438 129.935 143.507 129.442 143.844 129.157C144.83 128.335 145.046 126.908 144.346 125.845C143.637 124.764 142.227 124.4 141.077 125.006C140.688 125.213 140.203 125.084 139.961 124.72L139.01 123.293C136.831 120.033 133.518 117.81 129.67 117.041C125.821 116.271 121.912 117.041 118.643 119.22C113.065 122.939 110.713 129.944 112.918 136.266C113.065 136.698 112.858 137.165 112.442 137.347C110.073 138.359 108.741 140.919 109.277 143.444C109.58 144.854 110.41 146.064 111.621 146.843C112.832 147.63 114.276 147.889 115.686 147.586L118.799 146.92C119.275 146.817 119.724 147.119 119.828 147.586C119.932 148.053 119.629 148.512 119.162 148.616L116.049 149.281C114.189 149.679 112.278 149.333 110.678 148.296C109.078 147.258 107.98 145.666 107.582 143.807C106.925 140.737 108.36 137.624 111.041 136.11C109 129.243 111.655 121.797 117.675 117.784C121.324 115.354 125.7 114.489 129.998 115.346C134.297 116.21 138.007 118.692 140.437 122.333L140.999 123.172C142.781 122.627 144.735 123.293 145.782 124.902C146.819 126.476 146.664 128.517 145.496 129.935L146.992 132.184C147.234 132.547 147.165 133.04 146.828 133.325C145.436 134.51 143.836 135.513 142.089 136.318C143.957 136.421 146.11 136.101 148.246 135.375C148.653 135.237 149.094 135.41 149.293 135.79C153.236 143.254 150.91 152.412 143.879 157.1C141.12 158.933 137.946 159.858 134.772 159.858V159.85Z" fill="#18292D"/>
<path d="M114.146 150.267C110.86 150.267 107.893 147.975 107.176 144.628C107.072 144.161 107.375 143.703 107.842 143.599C108.309 143.495 108.767 143.798 108.871 144.265C109.493 147.18 112.373 149.039 115.279 148.416C115.746 148.313 116.204 148.615 116.308 149.082C116.412 149.549 116.109 150.008 115.642 150.111C115.141 150.215 114.639 150.267 114.146 150.267Z" fill="#18292D"/>
<path d="M115.85 144.646C115.496 144.646 115.158 144.421 115.037 144.066C114.38 142.172 112.486 142.051 112.408 142.043C111.932 142.017 111.569 141.61 111.587 141.135C111.612 140.659 111.993 140.287 112.486 140.313C112.616 140.313 115.625 140.477 116.672 143.496C116.827 143.945 116.594 144.438 116.136 144.594C116.04 144.629 115.945 144.646 115.85 144.646Z" fill="#18292D"/>
<path d="M137.194 126.147C137.558 126.943 137.324 127.825 136.667 128.127C136.01 128.43 135.188 128.032 134.825 127.237C134.462 126.441 134.695 125.559 135.352 125.256C136.01 124.953 136.831 125.351 137.194 126.147Z" fill="#18292D"/>
<path d="M133.501 121.926C133.925 122.264 133.51 123.5 132.576 124.685C131.633 125.87 130.526 126.553 130.102 126.216C129.678 125.879 130.094 124.642 131.028 123.457C131.97 122.272 133.077 121.589 133.501 121.926Z" fill="#18292D"/>
<path d="M114.008 121.434C108.343 124.15 105.506 131.276 107.461 138.316C109.113 138.912 110.929 139.007 112.685 138.463C117.242 137.036 119.681 131.855 118.133 126.883C117.389 124.513 115.884 122.619 114.008 121.443V121.434Z" fill="#18292D"/>
<path d="M180.429 175.026C189.149 174.861 196.107 168.873 195.969 161.652C195.832 154.432 188.651 148.713 179.931 148.879C171.212 149.045 164.254 155.033 164.391 162.253C164.529 169.474 171.709 175.192 180.429 175.026Z" fill="#18292D"/>
<path d="M149.647 173.142C163.562 152.767 183.704 162.574 186.956 165.808C187.717 166.569 188.452 167.296 189.178 168.005C190.527 169.043 191.755 170.176 192.871 171.386C195.613 173.669 198.095 175.062 200.464 174.776C202.142 174.578 205.394 180.069 206.561 186.728C203.137 186.651 199.816 186.166 196.702 185.267C199.106 188.544 202.756 190.784 206.985 191.831C206.899 198.231 204.269 204.674 196.227 207.614C196.227 207.614 191.747 209.958 186.385 210.39L186.29 235.375L159.411 235.271L157.897 212.509C157.474 212.232 157.05 211.955 156.635 211.653C144.008 202.607 141.163 185.552 149.647 173.133V173.142Z" fill="white"/>
<path d="M186.282 236.24L159.403 236.136C158.945 236.136 158.573 235.781 158.547 235.332L157.068 213.002C156.757 212.794 156.445 212.578 156.134 212.362C143.213 203.1 140.057 185.656 148.939 172.649C154.231 164.891 160.925 160.585 168.821 159.841C177.452 159.028 185.296 162.928 187.57 165.194C188.314 165.938 189.041 166.656 189.75 167.348C191.09 168.385 192.344 169.527 193.469 170.755C196.366 173.168 198.493 174.136 200.361 173.92C203.016 173.618 206.337 180.467 207.41 186.581C207.453 186.832 207.384 187.1 207.211 187.291C207.046 187.489 206.796 187.593 206.536 187.593C204.002 187.541 201.537 187.265 199.168 186.772C201.278 188.769 204.002 190.205 207.185 190.992C207.574 191.087 207.851 191.442 207.842 191.84C207.764 197.539 205.741 205.028 196.565 208.401C196.046 208.669 192.102 210.606 187.242 211.168L187.147 235.375C187.147 235.851 186.758 236.24 186.282 236.24ZM160.216 234.415L185.417 234.51L185.512 210.39C185.512 209.94 185.858 209.569 186.308 209.534C191.41 209.119 195.769 206.87 195.812 206.853C195.847 206.836 195.882 206.818 195.916 206.81C203.855 203.913 205.87 197.573 206.086 192.505C201.832 191.312 198.346 189.003 195.994 185.794C195.778 185.5 195.769 185.094 195.985 184.791C196.201 184.488 196.573 184.35 196.937 184.454C199.644 185.232 202.523 185.699 205.498 185.838C204.218 179.792 201.425 175.71 200.543 175.65C198.173 175.935 195.622 174.828 192.301 172.061C192.275 172.035 192.241 172.009 192.215 171.983C191.134 170.798 189.923 169.7 188.634 168.705C188.608 168.688 188.582 168.662 188.556 168.636C187.839 167.936 187.095 167.201 186.334 166.439C184.803 164.917 177.556 160.766 168.968 161.588C161.608 162.28 155.347 166.344 150.357 173.652C142.011 185.872 144.986 202.269 157.137 210.978C157.544 211.264 157.95 211.54 158.365 211.808C158.599 211.955 158.746 212.206 158.763 212.483L160.216 234.441V234.415Z" fill="#18292D"/>
<path d="M195.74 240.576C203.01 237.983 206.801 229.988 204.208 222.718C201.615 215.448 193.62 211.657 186.35 214.25C179.08 216.843 175.289 224.838 177.882 232.108C180.475 239.378 188.47 243.169 195.74 240.576Z" fill="#18292D"/>
<path d="M152.813 159.469C161.539 154.479 171.814 154.583 180.375 158.803C177.746 159.486 175.186 160.489 172.739 161.89C156.169 171.369 151.395 194.166 162.058 212.811C162.655 213.849 163.286 214.844 163.944 215.804C155.235 214.351 147.131 209.041 142.314 200.617C133.943 185.993 138.647 167.572 152.805 159.469H152.813Z" fill="#18292D"/>
<path d="M182.234 156.866C182.234 156.866 180.038 164.874 173.456 168.861C169.98 170.971 176.708 170.201 176.276 174.396C172.989 205.824 170.602 211.8 170.602 211.8C170.066 214.507 167.835 216.539 165.093 216.833L156.834 217.698L154.093 210.156L149.258 177.544C149.258 177.544 165.759 152.74 182.234 156.857V156.866Z" fill="#18292D"/>
<path d="M182.001 174.906C181.716 174.906 181.448 174.768 181.275 174.517C180.522 173.367 180.514 171.343 181.266 169.596C182.079 167.702 183.575 166.474 185.486 166.128C185.962 166.042 186.403 166.353 186.49 166.829C186.576 167.296 186.265 167.745 185.789 167.832C184.008 168.152 183.186 169.501 182.849 170.279C182.287 171.585 182.347 173.004 182.71 173.574C182.97 173.972 182.857 174.508 182.46 174.776C182.312 174.872 182.148 174.915 181.984 174.915L182.001 174.906Z" fill="#18292D"/>
<path d="M189.317 175.477C190.052 175.884 190.891 175.788 191.185 175.261C191.479 174.733 191.125 173.972 190.381 173.566C189.646 173.159 188.807 173.254 188.513 173.782C188.219 174.31 188.573 175.071 189.317 175.477Z" fill="#18292D"/>
<path d="M175.178 171.603C175.178 171.603 186.645 179.637 185.339 185.553C184.033 191.468 173.69 192.843 175.065 202.953C176.432 213.063 178.213 218.001 190.502 218.399C206.891 218.926 210.238 221.867 210.411 231.051C210.584 240.236 171.104 230.368 171.104 230.368C171.104 230.368 156.445 215.796 175.178 171.594V171.603Z" fill="#18292D"/>
<path d="M184.267 195.887C184.353 200.35 180.808 204.034 176.345 204.12C171.883 204.207 168.198 200.661 168.112 196.198C168.025 191.736 171.571 188.052 176.034 187.965C180.496 187.879 184.18 191.424 184.267 195.887Z" fill="white"/>
<path d="M179.847 198.784C179.38 198.784 178.991 198.404 178.983 197.937C178.939 195.732 175.333 194.235 173.949 193.846C173.491 193.717 173.223 193.241 173.353 192.782C173.482 192.324 173.949 192.056 174.416 192.186C174.667 192.255 180.634 193.967 180.712 197.911C180.721 198.387 180.34 198.784 179.865 198.793H179.847V198.784Z" fill="#18292D"/>
<path d="M145.298 234.093C152.214 230.854 155.194 222.621 151.955 215.704C148.715 208.788 140.482 205.808 133.566 209.048C126.65 212.287 123.669 220.52 126.909 227.437C130.149 234.353 138.382 237.333 145.298 234.093Z" fill="#18292D"/>
<path d="M112.243 244.862C116.031 239.569 122.094 235.617 129.41 234.199L193.624 221.737C205.731 219.384 218.211 223.976 224.861 233.239C227.438 236.828 230.318 240.763 233.354 244.862H112.243Z" fill="white"/>
<path d="M112.235 245.727C112.062 245.727 111.88 245.675 111.733 245.563C111.344 245.286 111.257 244.741 111.534 244.352C115.599 238.679 121.886 234.769 129.237 233.343L193.451 220.88C205.835 218.476 218.738 223.233 225.553 232.728C227.975 236.101 230.751 239.898 234.037 244.334C234.323 244.715 234.245 245.26 233.856 245.545C233.475 245.831 232.93 245.753 232.645 245.364C229.35 240.918 226.574 237.113 224.144 233.732C217.709 224.781 205.507 220.301 193.771 222.575L129.557 235.038C122.639 236.378 116.732 240.045 112.927 245.355C112.754 245.588 112.494 245.718 112.226 245.718L112.235 245.727Z" fill="#18292D"/>
<path d="M166.607 154.799C158.754 150.942 131.581 159.702 135.17 187.455C136.952 201.249 140.541 222.005 136.433 229.148C132.325 236.3 132.792 231.258 138.318 236.811C143.845 242.363 165.068 240.365 168.994 236.041C172.92 231.717 183.212 235.098 167.411 209.698C151.611 184.298 167.152 171.282 168.786 170.305C170.421 169.328 178.127 160.446 166.607 154.79V154.799Z" fill="#18292D"/>
<path d="M175.528 235.821C180.932 227.99 178.965 217.261 171.134 211.857C163.303 206.453 152.574 208.42 147.17 216.251C141.766 224.082 143.733 234.811 151.564 240.215C159.395 245.619 170.124 243.652 175.528 235.821Z" fill="#18292D"/>
<path d="M347.226 151.366C346.335 157.039 340.048 160.766 333.198 159.685C326.349 158.604 321.514 153.13 322.414 147.448C323.305 141.775 329.592 138.047 336.441 139.128C343.291 140.209 348.125 145.684 347.226 151.366Z" fill="#18292D"/>
<path d="M295.406 176.108C299.739 175.65 303.657 173.938 306.493 171.015C303.293 171.473 299.938 171.499 296.531 171.11C298.597 164.675 302.576 159.677 304.202 160.109C306.511 160.715 309.166 159.677 312.193 157.791C313.455 156.745 314.839 155.794 316.309 154.946C317.122 154.349 317.952 153.727 318.809 153.078C322.467 150.319 343.759 143.357 354.759 165.454C360.908 177.804 357.069 192.705 345.783 200.67L353.436 228.863L320.443 223.008L314.614 197.574C308.742 196.674 303.899 193.215 303.899 193.215C296.332 189.202 294.611 182.465 295.406 176.108Z" fill="white"/>
<path d="M353.445 229.728C353.393 229.728 353.341 229.728 353.298 229.711L320.304 223.856C319.958 223.795 319.69 223.536 319.613 223.199L313.913 198.326C308.422 197.323 303.994 194.331 303.458 193.95C294.835 189.349 293.858 181.652 294.558 176.005C294.61 175.607 294.922 175.296 295.328 175.253C298.589 174.907 301.486 173.851 303.847 172.165C301.434 172.329 298.952 172.26 296.435 171.966C296.176 171.94 295.951 171.793 295.804 171.577C295.665 171.361 295.631 171.093 295.709 170.842C297.611 164.935 301.832 158.579 304.426 159.27C306.242 159.746 308.491 159.072 311.691 157.082C312.971 156.027 314.372 155.059 315.842 154.22C316.638 153.632 317.451 153.018 318.298 152.386C320.867 150.449 329.16 147.664 337.601 149.654C345.315 151.478 351.352 156.659 355.538 165.065C361.799 177.657 358.115 192.67 346.777 201.016L354.275 228.63C354.353 228.915 354.275 229.218 354.076 229.443C353.912 229.624 353.678 229.728 353.436 229.728H353.445ZM321.169 222.256L352.251 227.774L344.952 200.903C344.857 200.549 344.987 200.177 345.289 199.969C356.299 192.195 359.957 177.847 353.99 165.843C350.046 157.921 344.399 153.044 337.203 151.34C328.797 149.36 321.057 152.473 319.336 153.77C318.471 154.419 317.641 155.041 316.828 155.647C316.802 155.664 316.776 155.681 316.741 155.699C315.323 156.512 313.974 157.437 312.746 158.458C312.72 158.483 312.685 158.501 312.651 158.527C308.984 160.81 306.311 161.562 303.985 160.948C303.985 160.948 303.976 160.948 303.968 160.948C303.068 160.948 299.782 164.598 297.698 170.366C300.673 170.634 303.587 170.565 306.372 170.167C306.744 170.115 307.098 170.306 307.263 170.634C307.427 170.963 307.367 171.361 307.116 171.629C304.34 174.483 300.578 176.299 296.193 176.896C295.717 181.946 296.842 188.502 304.305 192.463C304.34 192.48 304.374 192.497 304.4 192.523C304.443 192.558 309.157 195.87 314.744 196.726C315.09 196.778 315.375 197.046 315.453 197.383L321.152 222.256H321.169Z" fill="#18292D"/>
<path d="M353.497 151.478C345.54 145.338 335.344 144.032 326.289 147.042C328.797 148.071 331.201 149.429 333.424 151.141C348.532 162.799 350.15 186.037 337.022 203.048C336.295 203.991 335.525 204.89 334.747 205.755C343.577 205.513 352.329 201.353 358.253 193.673C368.545 180.338 366.417 161.441 353.497 151.47V151.478Z" fill="#18292D"/>
<path d="M324.706 144.862C324.706 144.862 325.778 153.095 331.754 157.947C334.911 160.515 328.347 158.829 328.208 163.04C327.153 194.624 328.701 200.868 328.701 200.868C328.866 203.618 330.794 205.945 333.467 206.611L347.295 207.657L346.526 203.056L354.525 169.864C354.525 169.864 341.579 143.037 324.697 144.853L324.706 144.862Z" fill="#18292D"/>
<path d="M322.311 163.88C322.078 163.88 321.844 163.784 321.672 163.594C321.352 163.24 321.377 162.695 321.732 162.375C322.078 162.063 322.502 160.905 322.415 159.547C322.363 158.82 322.113 157.48 320.997 156.719C320.599 156.451 320.495 155.915 320.772 155.517C321.04 155.119 321.576 155.015 321.974 155.292C323.254 156.157 324.024 157.627 324.145 159.434C324.266 161.155 323.756 162.894 322.9 163.663C322.735 163.81 322.528 163.888 322.32 163.888L322.311 163.88Z" fill="#18292D"/>
<path d="M315.141 162.332C314.354 162.635 313.541 162.427 313.325 161.856C313.109 161.294 313.567 160.585 314.354 160.282C315.141 159.98 315.954 160.187 316.17 160.758C316.386 161.329 315.928 162.029 315.141 162.332Z" fill="#18292D"/>
<path d="M317.346 183.243C316.654 187.654 319.664 191.788 324.066 192.479C328.476 193.171 332.61 190.162 333.302 185.76C333.994 181.349 330.984 177.215 326.582 176.523C322.172 175.831 318.038 178.841 317.346 183.243Z" fill="white"/>
<path d="M321.447 186.728C321.403 186.728 321.36 186.728 321.308 186.719C320.841 186.641 320.513 186.2 320.591 185.733C321.205 181.842 327.353 180.959 327.613 180.925C328.08 180.864 328.521 181.193 328.582 181.669C328.642 182.144 328.313 182.577 327.846 182.646C326.419 182.845 322.64 183.831 322.294 186.01C322.225 186.434 321.862 186.737 321.438 186.737L321.447 186.728Z" fill="#18292D"/>
<path d="M143.6 246.207C152.453 245.998 159.46 238.653 159.252 229.8C159.043 220.947 151.697 213.939 142.844 214.148C133.992 214.357 126.984 221.703 127.193 230.555C127.401 239.408 134.747 246.416 143.6 246.207Z" fill="#18292D"/>
<path d="M332.611 168.359L320.607 175.408L322.614 178.729L332.378 175.287L332.611 168.359Z" fill="#18292D"/>
<path d="M357.656 169.034C357.405 169.034 357.163 168.93 356.99 168.723C356.687 168.36 356.73 167.806 357.102 167.503C359.662 165.367 365.629 166.777 366.304 166.95C366.771 167.062 367.048 167.538 366.935 167.996C366.823 168.463 366.347 168.731 365.889 168.628C363.675 168.074 359.645 167.65 358.218 168.835C358.053 168.974 357.863 169.034 357.664 169.034H357.656Z" fill="#18292D"/>
<path d="M357.734 167.944C357.267 167.944 356.938 167.927 356.8 167.927C356.324 167.901 355.952 167.495 355.978 167.019C356.004 166.543 356.385 166.172 356.886 166.197C359.161 166.31 363.208 165.955 364.376 164.511C364.679 164.139 365.223 164.079 365.595 164.381C365.967 164.684 366.019 165.229 365.725 165.601C364.021 167.694 359.697 167.944 357.734 167.944Z" fill="#18292D"/>
<path d="M361.098 244.862C361.098 239.247 361.098 230.484 361.098 230.484C361.098 222.544 354.661 216.106 346.72 216.106H327.621C312.72 216.106 298.433 222.022 287.89 232.564L275.394 245.061C275.394 245.061 360.328 244.871 361.098 244.871C361.098 244.871 361.098 244.865 361.098 244.862Z" fill="#18292D"/>
<path d="M266.869 95.6935C265.782 96.5817 264.457 97.1431 263.027 97.2867C261.095 97.4894 259.193 96.9275 257.677 95.6994C256.165 94.477 255.223 92.7321 255.016 90.7947C254.813 88.863 255.375 86.9611 256.603 85.4448C257.825 83.933 259.566 82.9851 261.508 82.7834C263.439 82.5806 265.341 83.1425 266.858 84.3706C268.369 85.5931 269.311 87.338 269.519 89.2754C269.722 91.2071 269.16 93.1089 267.932 94.6253C267.61 95.0212 267.256 95.3772 266.869 95.6935ZM258.594 85.5352C257.126 86.735 256.273 88.6284 256.482 90.6496C256.814 93.8424 259.682 96.1672 262.876 95.8249C266.069 95.493 268.394 92.6246 268.051 89.4308C267.72 86.238 264.851 83.9132 261.657 84.2554C260.486 84.3779 259.437 84.8365 258.589 85.5295L258.594 85.5352Z" fill="#FFC31F"/>
<path d="M282.001 92.2822C280.937 93.1519 279.626 93.7303 278.159 93.8858C274.163 94.3042 270.57 91.3947 270.152 87.3995C269.734 83.4042 272.643 79.8113 276.638 79.3928C280.634 78.9744 284.227 81.8839 284.645 85.8791C284.913 88.4127 283.839 90.7801 281.996 92.2869L282.001 92.2822ZM273.727 82.1239C272.259 83.3237 271.405 85.2172 271.615 87.2383C271.952 90.4265 274.821 92.7514 278.009 92.4137C281.202 92.0818 283.527 89.2134 283.184 86.0196C282.847 82.8314 279.978 80.5066 276.79 80.8442C275.619 80.9667 274.57 81.4253 273.722 82.1182L273.727 82.1239Z" fill="#FFC31F"/>
</g>
</g>
<defs>
<clipPath id="clip0_542_17367">
<rect width="470" height="250" fill="white"/>
</clipPath>
</defs>
</svg>
