<svg width="60" height="61" viewBox="0 0 60 61" fill="none" xmlns="http://www.w3.org/2000/svg">
<path d="M52.6575 33.8784C52.6575 32.997 51.9434 32.2788 51.0579 32.2788H45.1003V30.8425C45.1003 29.447 43.97 28.3167 42.5745 28.3167H42.5215C41.1259 28.3167 39.9956 29.447 39.9956 30.8425V32.2788H34.038C33.1566 32.2788 32.4385 32.9929 32.4385 33.8784V39.836H34.2747C35.6703 39.836 36.8006 40.9663 36.8006 42.3618V42.4149C36.8006 43.8104 35.6703 44.9407 34.2747 44.9407H32.4385V50.8983C32.4385 51.7797 33.1526 52.4978 34.038 52.4978H51.0579C51.9393 52.4978 52.6575 51.7837 52.6575 50.8983V33.8784Z" fill="white" stroke="#18292D" stroke-linecap="round" stroke-linejoin="round"/>
<path d="M35.2617 52.3184L35.7759 47.2096C35.8208 46.7648 36.0166 46.3404 36.3512 46.0425C36.5675 45.8507 36.8246 45.7079 37.1143 45.6345C38.0446 45.3978 39.5381 45.2183 40.3746 44.9734C40.8194 44.8469 41.1254 44.4389 41.1254 43.9737V43.0148L40.9989 42.872C40.6603 42.4925 40.4399 42.0191 40.3624 41.5172C40.3624 41.5172 40.0237 41.5172 39.9706 41.2112C39.8197 40.2645 39.7095 40.2237 39.7095 39.8116C39.7095 39.3994 39.8645 39.2974 40.0482 39.4035" fill="white"/>
<path d="M35.2617 52.3184L35.7759 47.2096C35.8208 46.7648 36.0166 46.3404 36.3512 46.0425C36.5675 45.8507 36.8246 45.7079 37.1143 45.6345C38.0446 45.3978 39.5381 45.2183 40.3746 44.9734C40.8194 44.8469 41.1254 44.4389 41.1254 43.9737V43.0148L40.9989 42.872C40.6603 42.4925 40.4399 42.0191 40.3624 41.5172C40.3624 41.5172 40.0237 41.5172 39.9706 41.2112C39.8197 40.2645 39.7095 40.2237 39.7095 39.8116C39.7095 39.3994 39.8645 39.2974 40.0482 39.4035" stroke="#18292D" stroke-linecap="round" stroke-linejoin="round"/>
<path d="M46.128 39.4036C46.3117 39.2975 46.4667 39.3954 46.4667 39.8116C46.4667 40.2278 46.3565 40.2686 46.2056 41.2112C46.1566 41.5214 45.8138 41.5173 45.8138 41.5173C45.7404 42.0233 45.52 42.4925 45.1773 42.872L45.0508 43.0148V43.9738C45.0508 44.4349 45.3568 44.8429 45.8016 44.9735C46.6381 45.2142 47.9153 45.4632 48.8457 45.6998C49.0987 45.7651 49.3272 45.8794 49.523 46.0344C49.9107 46.3405 50.1351 46.8056 50.18 47.2953L50.637 52.3266" fill="white"/>
<path d="M46.128 39.4036C46.3117 39.2975 46.4667 39.3954 46.4667 39.8116C46.4667 40.2278 46.3565 40.2686 46.2056 41.2112C46.1566 41.5214 45.8138 41.5173 45.8138 41.5173C45.7404 42.0233 45.52 42.4925 45.1773 42.872L45.0508 43.0148V43.9738C45.0508 44.4349 45.3568 44.8429 45.8016 44.9735C46.6381 45.2142 47.9153 45.4632 48.8457 45.6998C49.0987 45.7651 49.3272 45.8794 49.523 46.0344C49.9107 46.3405 50.1351 46.8056 50.18 47.2953L50.637 52.3266" stroke="#18292D" stroke-linecap="round" stroke-linejoin="round"/>
<path d="M45.0514 43.019L43.7008 43.7535C43.2397 43.9372 42.7215 43.929 42.2685 43.725L41.126 43.019" fill="white"/>
<path d="M45.0514 43.019L43.7008 43.7535C43.2397 43.9372 42.7215 43.929 42.2685 43.725L41.126 43.019" stroke="#18292D" stroke-linecap="round" stroke-linejoin="round"/>
<path d="M41.2597 36.6898L42.1697 37.4978C42.5614 37.8446 43.0633 38.0364 43.5856 38.0364H44.4303C44.924 38.0364 45.4014 38.2119 45.7728 38.5342L45.7809 38.5424C45.9156 38.6607 46.0094 38.8198 46.0462 38.9953L46.1727 39.636L46.3604 39.5992C46.3604 39.5992 47.5111 34.6577 43.198 34.6577C39.6887 34.6577 39.7907 37.7059 39.8438 39.3585L40.0723 39.4972V39.485C40.1906 38.5832 40.5293 37.7263 41.0516 36.9877L41.2597 36.6939V36.6898Z" fill="#18292D" stroke="#18292D" stroke-linecap="round" stroke-linejoin="round"/>
<path d="M43.4632 46.9605H42.7165C42.5166 46.9605 42.3574 46.8218 42.3574 46.6463V45.8669C42.3574 45.6956 42.5166 45.5527 42.7165 45.5527H43.4632C43.6632 45.5527 43.8223 45.6915 43.8223 45.8669V46.6463C43.8223 46.8177 43.6632 46.9605 43.4632 46.9605Z" fill="white" stroke="#18292D" stroke-linecap="round" stroke-linejoin="round"/>
<path d="M42.6962 46.9604L42.2065 52.4936H43.9693L43.4797 46.9604" fill="white"/>
<path d="M42.6962 46.9604L42.2065 52.4936H43.9693L43.4797 46.9604" stroke="#18292D" stroke-linecap="round" stroke-linejoin="round"/>
<path d="M45.4143 44.7736L44.7328 46.818L43.0884 45.4061L45.0634 44.1289C45.0634 44.1289 45.096 44.5982 45.4143 44.7736Z" fill="white" stroke="#18292D" stroke-linecap="round" stroke-linejoin="round"/>
<path d="M40.7666 44.7614L41.3705 46.818L43.0925 45.4061L41.1175 44.1289C41.1175 44.1289 41.0155 44.5084 40.7707 44.7614H40.7666Z" fill="white" stroke="#18292D" stroke-linecap="round" stroke-linejoin="round"/>
<path d="M38.7139 48.842V52.4982" stroke="#18292D" stroke-linecap="round" stroke-linejoin="round"/>
<path d="M47.6177 48.842V52.4982" stroke="#18292D" stroke-linecap="round" stroke-linejoin="round"/>
<path d="M14.5571 32.7851H8.59957C7.71817 32.7851 7 33.4992 7 34.3847V51.4004C7 52.2818 7.71409 53 8.59957 53H25.6194C26.5008 53 27.219 52.2859 27.219 51.4004V45.4429H28.6553C30.0509 45.4429 31.1812 44.3126 31.1812 42.917V42.864C31.1812 41.4684 30.0509 40.3381 28.6553 40.3381H27.219V34.3806C27.219 33.4992 26.5049 32.781 25.6194 32.781H19.6578V31.3487C19.6578 29.9573 18.5316 28.8311 17.1401 28.8311H17.0911C15.6997 28.8311 14.5735 29.9573 14.5735 31.3487V32.781" fill="white"/>
<path d="M14.5571 32.7851H8.59957C7.71817 32.7851 7 33.4992 7 34.3847V51.4004C7 52.2818 7.71409 53 8.59957 53H25.6194C26.5008 53 27.219 52.2859 27.219 51.4004V45.4429H28.6553C30.0509 45.4429 31.1812 44.3126 31.1812 42.917V42.864C31.1812 41.4684 30.0509 40.3381 28.6553 40.3381H27.219V34.3806C27.219 33.4992 26.5049 32.781 25.6194 32.781H19.6578V31.3487C19.6578 29.9573 18.5316 28.8311 17.1401 28.8311H17.0911C15.6997 28.8311 14.5735 29.9573 14.5735 31.3487V32.781" stroke="#18292D" stroke-linecap="round" stroke-linejoin="round"/>
<path d="M9.08887 52.8206L9.60301 47.7118C9.6479 47.267 9.84376 46.8426 10.1784 46.5447C10.3946 46.3529 10.6517 46.2101 10.9414 46.1367C11.8718 45.9 13.3653 45.7205 14.2018 45.4756C14.6465 45.3491 14.9526 44.9411 14.9526 44.4759V43.517L14.8261 43.3742C14.4874 42.9947 14.2671 42.5213 14.1895 42.0194C14.1895 42.0194 13.8508 42.0194 13.7978 41.7134C13.6468 40.7667 13.5366 40.7259 13.5366 40.3138C13.5366 39.9016 13.6917 39.7996 13.8753 39.9057" fill="white"/>
<path d="M9.08887 52.8206L9.60301 47.7118C9.6479 47.267 9.84376 46.8426 10.1784 46.5447C10.3946 46.3529 10.6517 46.2101 10.9414 46.1367C11.8718 45.9 13.3653 45.7205 14.2018 45.4756C14.6465 45.3491 14.9526 44.9411 14.9526 44.4759V43.517L14.8261 43.3742C14.4874 42.9947 14.2671 42.5213 14.1895 42.0194C14.1895 42.0194 13.8508 42.0194 13.7978 41.7134C13.6468 40.7667 13.5366 40.7259 13.5366 40.3138C13.5366 39.9016 13.6917 39.7996 13.8753 39.9057" stroke="#18292D" stroke-linecap="round" stroke-linejoin="round"/>
<path d="M19.9557 39.9058C20.1393 39.7997 20.2944 39.8976 20.2944 40.3138C20.2944 40.73 20.1842 40.7708 20.0332 41.7134C19.9842 42.0236 19.6415 42.0195 19.6415 42.0195C19.568 42.5255 19.3477 42.9947 19.0049 43.3742L18.8784 43.517V44.476C18.8784 44.9371 19.1845 45.3451 19.6292 45.4757C20.4657 45.7164 21.7429 45.9654 22.6733 46.202C22.9263 46.2673 23.1548 46.3816 23.3507 46.5366C23.7383 46.8427 23.9628 47.3078 24.0076 47.7975L24.4647 52.8288" fill="white"/>
<path d="M19.9557 39.9058C20.1393 39.7997 20.2944 39.8976 20.2944 40.3138C20.2944 40.73 20.1842 40.7708 20.0332 41.7134C19.9842 42.0236 19.6415 42.0195 19.6415 42.0195C19.568 42.5255 19.3477 42.9947 19.0049 43.3742L18.8784 43.517V44.476C18.8784 44.9371 19.1845 45.3451 19.6292 45.4757C20.4657 45.7164 21.7429 45.9653 22.6733 46.202C22.9263 46.2673 23.1548 46.3816 23.3507 46.5366C23.7383 46.8427 23.9628 47.3078 24.0076 47.7975L24.4647 52.8288" stroke="#18292D" stroke-linecap="round" stroke-linejoin="round"/>
<path d="M18.8786 43.5208L17.5279 44.2552C17.0668 44.4389 16.5486 44.4307 16.0957 44.2267L14.9531 43.5208" fill="white"/>
<path d="M18.8786 43.5208L17.5279 44.2552C17.0668 44.4389 16.5486 44.4307 16.0957 44.2267L14.9531 43.5208" stroke="#18292D" stroke-linecap="round" stroke-linejoin="round"/>
<path d="M15.0834 37.192L15.9934 38C16.3851 38.3468 16.887 38.5386 17.4093 38.5386H18.254C18.7478 38.5386 19.2252 38.714 19.5965 39.0364L19.6047 39.0446C19.7393 39.1629 19.8332 39.322 19.8699 39.4975L19.9964 40.1382L20.1841 40.1014C20.1841 40.1014 21.3348 35.1599 17.0217 35.1599C13.5124 35.1599 13.6145 38.2081 13.6675 39.8607L13.896 39.9994V39.9872C14.0143 39.0854 14.353 38.2285 14.8753 37.4899L15.0834 37.1961V37.192Z" fill="#18292D" stroke="#18292D" stroke-linecap="round" stroke-linejoin="round"/>
<path d="M17.2865 47.4625H16.5398C16.3398 47.4625 16.1807 47.3237 16.1807 47.1483V46.3689C16.1807 46.1975 16.3398 46.0547 16.5398 46.0547H17.2865C17.4864 46.0547 17.6456 46.1934 17.6456 46.3689V47.1483C17.6456 47.3197 17.4864 47.4625 17.2865 47.4625Z" fill="white" stroke="#18292D" stroke-linecap="round" stroke-linejoin="round"/>
<path d="M16.5199 47.4624L16.0303 52.9956H17.7931L17.3075 47.4624" fill="white"/>
<path d="M16.5199 47.4624L16.0303 52.9956H17.7931L17.3075 47.4624" stroke="#18292D" stroke-linecap="round" stroke-linejoin="round"/>
<path d="M19.2409 45.2753L18.5595 47.3197L16.915 45.9078L18.89 44.6306C18.89 44.6306 18.9227 45.0999 19.2409 45.2753Z" fill="white" stroke="#18292D" stroke-linecap="round" stroke-linejoin="round"/>
<path d="M14.5898 45.2631L15.1938 47.3197L16.9157 45.9078L14.9408 44.6306C14.9408 44.6306 14.8388 45.0101 14.5939 45.2631H14.5898Z" fill="white" stroke="#18292D" stroke-linecap="round" stroke-linejoin="round"/>
<path d="M12.5415 49.3477V52.9997" stroke="#18292D" stroke-linecap="round" stroke-linejoin="round"/>
<path d="M21.4409 49.3477V52.9997" stroke="#18292D" stroke-linecap="round" stroke-linejoin="round"/>
<path d="M21.0495 8C20.164 8 19.4418 8.71817 19.4418 9.60773V15.5939H17.9972C16.5935 15.5939 15.4551 16.7323 15.4551 18.136V18.1891C15.4551 19.5928 16.5935 20.7312 17.9972 20.7312H19.4418V26.7174C19.4418 27.6028 20.1599 28.3251 21.0495 28.3251H27.0356V26.4807C27.0356 25.077 28.1741 23.9385 29.5778 23.9385H29.6308C31.0345 23.9385 32.173 25.077 32.173 26.4807V28.3251H38.1591C39.0446 28.3251 39.7668 27.6069 39.7668 26.7174V9.60773C39.7668 8.72225 39.0487 8 38.1591 8H21.0495Z" fill="white" stroke="#18292D" stroke-linecap="round" stroke-linejoin="round"/>
<path d="M21.7183 28.1418L22.2365 23.0045C22.2814 22.5556 22.4772 22.1312 22.8118 21.8293C23.0281 21.6375 23.2893 21.4947 23.579 21.4212C24.5175 21.1846 26.0151 21.0009 26.8556 20.7602C27.3045 20.6296 27.6105 20.2216 27.6105 19.7564V18.7934L27.48 18.6505C27.1372 18.267 26.9169 17.7936 26.8393 17.2877C26.8393 17.2877 26.4966 17.2877 26.4476 16.9816C26.2925 16.0309 26.1824 15.99 26.1824 15.5738C26.1824 15.1576 26.3374 15.0597 26.5251 15.1658" stroke="#18292D" stroke-linecap="round" stroke-linejoin="round"/>
<path d="M32.6382 15.1616C32.8259 15.0555 32.9809 15.1535 32.9809 15.5697C32.9809 15.9859 32.8707 16.0267 32.7157 16.9775C32.6667 17.2876 32.324 17.2835 32.324 17.2835C32.2505 17.7895 32.0261 18.2628 31.6833 18.6464L31.5527 18.7892V19.7522C31.5527 20.2174 31.8588 20.6255 32.3076 20.756C33.1482 20.9968 34.4295 21.2498 35.368 21.4864C35.621 21.5517 35.8536 21.666 36.0495 21.8251C36.4371 22.1312 36.6656 22.6004 36.7105 23.0901L37.1675 28.1459" stroke="#18292D" stroke-linecap="round" stroke-linejoin="round"/>
<path d="M31.5562 18.7935L30.1974 19.532C29.7322 19.7157 29.214 19.7075 28.757 19.5035L27.6104 18.7935" stroke="#18292D" stroke-linecap="round" stroke-linejoin="round"/>
<path d="M27.7452 12.4356L28.6633 13.2477C29.055 13.5945 29.5651 13.7863 30.0874 13.7863H30.9362C31.4299 13.7863 31.9114 13.9658 32.2868 14.2882L32.295 14.2963C32.4337 14.4147 32.5235 14.5738 32.5602 14.7493L32.6867 15.394L32.8744 15.3573C32.8744 15.3573 34.0333 10.3872 29.6957 10.3872C26.1701 10.3872 26.2721 13.4517 26.3252 15.1125L26.5578 15.2512V15.239C26.6802 14.3331 27.0148 13.4721 27.5412 12.7253L27.7493 12.4315L27.7452 12.4356Z" fill="#18292D" stroke="#18292D" stroke-linecap="round" stroke-linejoin="round"/>
<path d="M31.9192 20.5599L31.2337 22.6165L29.5811 21.1965L31.5642 19.9111C31.5642 19.9111 31.5968 20.3804 31.9151 20.5599H31.9192Z" stroke="#18292D" stroke-linecap="round" stroke-linejoin="round"/>
<path d="M27.2471 20.5477L27.851 22.6165L29.5811 21.1965L27.598 19.9111C27.598 19.9111 27.496 20.2947 27.2471 20.5477Z" stroke="#18292D" stroke-linecap="round" stroke-linejoin="round"/>
</svg>
