<svg width="1300" height="400" viewBox="0 0 1300 400" fill="none" xmlns="http://www.w3.org/2000/svg">
<g clip-path="url(#clip0_563_27701)">
<ellipse cx="232.221" cy="110.49" rx="232.221" ry="110.49" transform="matrix(0.930064 -0.367398 -0.367398 -0.930064 460.188 394.161)" fill="#F2F7F8"/>
<path d="M472.425 259.806C470.165 259.416 468.338 260.283 466.238 261.049C458.932 263.714 451.131 265.042 443.471 266.268C419.205 270.15 395.714 267.072 374.026 255.127C358.166 246.392 335.761 225.559 343.592 205.64C349.472 190.688 360.743 190.51 373.649 196.298C385.036 201.403 383.411 211.936 377.62 221.374C372.265 230.103 367.864 232.646 358.183 235.104C337.384 240.384 319.291 240.497 298.211 235.771C292.738 234.544 269.013 231.62 267.695 224.88" stroke="black" stroke-width="2" stroke-linecap="round" stroke-linejoin="round" stroke-dasharray="6 6"/>
<path d="M1033.25 270.82C1030.98 271.15 1029.18 270.235 1027.1 269.415C1019.86 266.56 1012.1 265.028 1004.47 263.602C980.319 259.086 956.756 261.547 934.763 272.921C918.68 281.237 895.736 301.477 903.044 321.594C908.53 336.695 919.792 337.168 932.846 331.72C944.362 326.914 943.014 316.342 937.472 306.756C932.346 297.89 928.014 295.233 918.401 292.522C897.747 286.699 879.663 286.113 858.466 290.286C852.964 291.369 829.17 293.671 827.676 300.374" stroke="black" stroke-width="2" stroke-linecap="round" stroke-linejoin="round" stroke-dasharray="6 6"/>
<circle cx="219.5" cy="190.5" r="56" fill="white" stroke="#18292D"/>
<path d="M222.438 221.288V222.18C222.438 223.301 221.811 223.989 221.042 223.989H217.779C217.01 223.989 216.383 223.301 216.383 222.18V221.288" fill="white"/>
<path d="M222.438 221.288V222.18C222.438 223.301 221.811 223.989 221.042 223.989H217.779C217.01 223.989 216.383 223.301 216.383 222.18V221.288" stroke="#18292D" stroke-width="1.3" stroke-linecap="round" stroke-linejoin="round"/>
<path d="M213.497 211.878C213.497 211.878 211.346 210.884 210.541 205.95C209.985 202.545 208.864 199.247 207.08 196.296C207.003 196.168 206.927 196.046 206.861 195.934C206.295 195.026 205.693 194.145 205.031 193.309C202.533 190.153 201.04 186.137 201.04 181.799C201.04 171.859 208.869 163.759 218.676 163.372C228.784 162.974 237.46 171.059 237.771 181.213C237.909 185.709 236.466 189.965 233.928 193.258C233.051 194.394 232.195 195.541 231.45 196.77C231.318 196.984 231.18 197.213 231.043 197.453C229.61 199.874 228.739 202.576 228.372 205.369C227.648 210.808 225.328 211.883 225.328 211.883H213.497V211.878Z" fill="white" stroke="#18292D" stroke-width="1.3" stroke-linecap="round" stroke-linejoin="round"/>
<path d="M225.935 211.878H212.896V216.45H225.935V211.878Z" fill="#18292D" stroke="#18292D" stroke-width="1.3" stroke-linecap="round" stroke-linejoin="round"/>
<path d="M212.896 216.45V219.345C212.896 220.294 213.666 221.063 214.614 221.063H224.661C225.364 221.063 225.935 220.492 225.935 219.789V216.45H212.896Z" fill="#18292D" stroke="#18292D" stroke-width="1.3" stroke-linecap="round" stroke-linejoin="round"/>
<path d="M213.92 198.62L217.025 203.442L217.876 211.878" stroke="#18292D" stroke-width="1.3" stroke-linecap="round" stroke-linejoin="round"/>
<path d="M225.002 198.62L221.898 203.442L221.047 211.878" stroke="#18292D" stroke-width="1.3" stroke-linecap="round" stroke-linejoin="round"/>
<path d="M219.415 191.193C223.121 194.364 228.535 190.724 228.535 185.678C228.535 177.986 218.926 169.147 218.926 169.147C218.926 169.147 210.296 177.986 210.296 185.678C210.296 190.724 215.71 194.364 219.415 191.193Z" fill="#FFC31F" stroke="#18292D" stroke-width="1.3" stroke-linecap="round" stroke-linejoin="round"/>
<path d="M218.926 169.147C220.501 174.989 221.296 184.47 219.415 191.193C218.197 195.551 219.415 199.339 219.415 199.339" stroke="#18292D" stroke-width="1.3" stroke-linecap="round" stroke-linejoin="round"/>
<path d="M238.729 170.63L243.898 168.163" stroke="#18292D" stroke-width="1.3" stroke-linecap="round" stroke-linejoin="round"/>
<path d="M241.375 180.866H244.831" stroke="#18292D" stroke-width="1.3" stroke-linecap="round" stroke-linejoin="round"/>
<path d="M231.624 163.02L233.566 160.15" stroke="#18292D" stroke-width="1.3" stroke-linecap="round" stroke-linejoin="round"/>
<path d="M200.102 170.63L194.928 168.163" stroke="#18292D" stroke-width="1.3" stroke-linecap="round" stroke-linejoin="round"/>
<path d="M197.456 180.866H194" stroke="#18292D" stroke-width="1.3" stroke-linecap="round" stroke-linejoin="round"/>
<path d="M207.202 163.02L205.26 160.15" stroke="#18292D" stroke-width="1.3" stroke-linecap="round" stroke-linejoin="round"/>
<path d="M219.706 160.033V157" stroke="#18292D" stroke-width="1.3" stroke-linecap="round" stroke-linejoin="round"/>
<circle cx="1080.5" cy="279.5" r="56" fill="white" stroke="#18292D"/>
<path d="M1052 252.851V296.951C1052 298.523 1053.27 299.797 1054.85 299.797H1075.33C1076.9 299.797 1078.18 298.523 1078.18 296.951V252.851C1078.18 251.28 1076.9 250.005 1075.33 250.005H1054.85C1053.27 250.005 1052 251.28 1052 252.851Z" fill="#18292D" stroke="#18292D" stroke-width="1.3" stroke-linecap="round" stroke-linejoin="round"/>
<path d="M1054.95 273.416V252.955L1075.22 252.961L1075.21 273.416H1054.95Z" fill="white" stroke="#18292D" stroke-width="1.3" stroke-linecap="round" stroke-linejoin="round"/>
<path d="M1073.79 278.608H1068.81C1068.02 278.608 1067.37 277.965 1067.37 277.174C1067.37 276.382 1068.01 275.739 1068.81 275.739H1073.79C1074.57 275.739 1075.22 276.382 1075.22 277.174C1075.22 277.965 1074.58 278.608 1073.79 278.608Z" fill="white" stroke="white" stroke-width="1.3" stroke-linecap="round" stroke-linejoin="round"/>
<path d="M1056.38 278.608H1061.36C1062.15 278.608 1062.8 277.965 1062.8 277.174C1062.8 276.382 1062.16 275.739 1061.36 275.739H1056.38C1055.6 275.739 1054.95 276.382 1054.95 277.174C1054.95 277.965 1055.59 278.608 1056.38 278.608Z" fill="white" stroke="white" stroke-width="1.3" stroke-linecap="round" stroke-linejoin="round"/>
<path d="M1065.08 296.843C1069.47 296.843 1073.03 293.282 1073.03 288.89C1073.03 284.498 1069.47 280.938 1065.08 280.938C1060.69 280.938 1057.13 284.498 1057.13 288.89C1057.13 293.282 1060.69 296.843 1065.08 296.843Z" fill="white" stroke="#18292D" stroke-width="1.3" stroke-linecap="round" stroke-linejoin="round"/>
<path d="M1067.73 288.89C1067.73 290.353 1066.55 291.535 1065.08 291.535C1063.62 291.535 1062.44 290.353 1062.44 288.89C1062.44 287.427 1063.62 286.245 1065.08 286.245C1066.55 286.245 1067.73 287.427 1067.73 288.89Z" fill="#FFC31F" stroke="#FFC31F" stroke-width="1.3" stroke-linecap="round" stroke-linejoin="round"/>
<path d="M1065.08 282.653V284.535" stroke="#18292D" stroke-width="1.3" stroke-linecap="round" stroke-linejoin="round"/>
<path d="M1066.02 283.594H1064.14" stroke="#18292D" stroke-width="1.3" stroke-linecap="round" stroke-linejoin="round"/>
<path d="M1066.02 294.192H1064.14" stroke="#18292D" stroke-width="1.3" stroke-linecap="round" stroke-linejoin="round"/>
<path d="M1060.43 290.193L1059.14 288.89L1060.43 287.594" stroke="#18292D" stroke-width="1.3" stroke-linecap="round" stroke-linejoin="round"/>
<path d="M1069.74 290.193L1071.03 288.89L1069.74 287.594" stroke="#18292D" stroke-width="1.3" stroke-linecap="round" stroke-linejoin="round"/>
<path d="M1065.08 299.797V301.989C1065.08 308.014 1069.96 309.046 1075.99 309.046H1084.73" stroke="#18292D" stroke-width="1.3" stroke-linecap="round" stroke-linejoin="round"/>
<path d="M1095.65 275.596V298.133C1095.65 304.158 1090.76 309.041 1084.74 309.041" stroke="#18292D" stroke-width="1.3" stroke-linecap="round" stroke-linejoin="round"/>
<path d="M1090.14 261.573H1094.25C1096.05 261.573 1097.52 263.036 1097.52 264.837V275.596H1093.82V269.881C1093.82 269.204 1093.27 268.659 1092.59 268.659H1090.14V261.573H1090.14Z" fill="white" stroke="#18292D" stroke-width="1.3" stroke-linecap="round" stroke-linejoin="round"/>
<path d="M1090.14 261.573C1087.11 261.573 1086.24 262.336 1085.01 263.569V266.668C1086.24 267.901 1087.11 268.665 1090.14 268.665V261.578V261.573Z" fill="#18292D" stroke="#18292D" stroke-width="1.3" stroke-linecap="round" stroke-linejoin="round"/>
<path d="M1084.73 309.046H1095.08C1102.34 309.069 1108.2 303.205 1108.2 295.965V264.023" stroke="#18292D" stroke-width="1.3" stroke-linecap="round" stroke-linejoin="round"/>
<path d="M1102.56 250H1106.67C1108.48 250 1109.94 251.463 1109.94 253.259V264.023H1106.24V258.314C1106.24 257.637 1105.69 257.092 1105.02 257.092H1102.57V250H1102.56Z" fill="white" stroke="#18292D" stroke-width="1.3" stroke-linecap="round" stroke-linejoin="round"/>
<path d="M1102.56 250C1099.54 250 1098.66 250.763 1097.43 251.997V255.095C1098.66 256.329 1099.54 257.092 1102.56 257.092V250Z" fill="#18292D" stroke="#18292D" stroke-width="1.3" stroke-linecap="round" stroke-linejoin="round"/>
<path d="M1083.7 307.457H1077.03C1076.46 307.457 1075.99 307.919 1075.99 308.49V309.597C1075.99 310.168 1076.46 310.63 1077.03 310.63H1083.7C1084.27 310.63 1084.73 310.168 1084.73 309.597V308.49C1084.73 307.919 1084.27 307.457 1083.7 307.457Z" fill="#18292D" stroke="#18292D" stroke-width="1.3" stroke-linecap="round" stroke-linejoin="round"/>
<path fill-rule="evenodd" clip-rule="evenodd" d="M476.33 120.623C476.226 139.828 470 374.127 470 374.127L838.653 374.135L836.854 247.66L602.426 237.106C602.426 237.106 584.326 118.574 587.259 118.574L476.334 120.623H476.33Z" fill="#7CCFE3"/>
<path fill-rule="evenodd" clip-rule="evenodd" d="M541.51 154.252C531.635 153.805 513.457 161.294 513.156 180.449C512.977 191.807 518.428 202.737 532.061 206.631C544.886 210.297 559.363 199.568 562.12 186.886C566.101 168.586 552.425 154.749 541.51 154.252Z" fill="#4A7C88"/>
<path fill-rule="evenodd" clip-rule="evenodd" d="M541.474 161.991C531.721 161.133 520.427 168.207 520.924 180.974C521.246 189.2 524.744 197.129 534.625 199.951C543.92 202.604 554.413 194.833 556.413 185.638C559.295 172.373 549.364 162.685 541.474 161.987V161.991Z" fill="white"/>
<path fill-rule="evenodd" clip-rule="evenodd" d="M540.955 158.835H536.971V200.583H540.955V158.835Z" fill="#4A7C88"/>
<path fill-rule="evenodd" clip-rule="evenodd" d="M560.125 182.748L560.132 178.764L518.385 178.671L518.378 182.655L560.125 182.748Z" fill="#4A7C88"/>
<path fill-rule="evenodd" clip-rule="evenodd" d="M592.913 124.975C592.212 126.846 470.969 127.186 470.833 125.34C468.333 90.9855 499.541 49.2062 538.277 50.6189C584.483 52.3033 594.547 120.626 592.913 124.975Z" fill="#4A7C88"/>
<path fill-rule="evenodd" clip-rule="evenodd" d="M593.002 172.187C593.002 172.187 810.07 171.825 812.641 176.328C824.919 197.804 840.083 229.373 846.592 249.751C846.978 250.956 603.61 246.804 603.61 246.804L592.999 172.187H593.002Z" fill="#4A7C88"/>
<path fill-rule="evenodd" clip-rule="evenodd" d="M504.076 99.272C504.155 99.3507 504.233 99.4401 504.294 99.5188C504.62 99.9265 504.959 100.424 505.342 100.953C507.109 103.392 509.648 106.31 514.498 106.368C516.304 106.389 518.024 105.724 519.601 104.569C521.65 103.067 523.467 100.706 524.926 98.2599C525.427 97.4195 525.152 96.3287 524.311 95.828C523.471 95.3273 522.38 95.6027 521.879 96.4431C520.86 98.1562 519.655 99.8335 518.285 101.071C517.148 102.097 515.91 102.834 514.548 102.82C510.478 102.77 508.829 99.6869 507.513 97.8844C506.998 97.1834 506.511 96.6076 506.039 96.2357C505.485 95.7994 504.909 95.5741 504.319 95.5276C503.725 95.4811 503.1 95.6313 502.463 96.0318C501.944 96.3573 501.379 96.9009 500.775 97.5911C499.906 98.5818 498.901 99.9301 497.628 101.028C496.594 101.922 495.367 102.659 493.826 102.67C492.438 102.68 491.323 101.89 490.382 100.785C489.213 99.4115 488.318 97.5554 487.635 95.6778C487.299 94.7586 486.28 94.283 485.361 94.6192C484.442 94.9553 483.966 95.9746 484.302 96.8937C485.311 99.6654 486.759 102.366 488.651 104.093C490.124 105.438 491.859 106.235 493.855 106.217C497.849 106.185 500.618 103.278 502.642 100.871C503.078 100.356 503.472 99.8764 503.843 99.4902C503.911 99.4187 503.997 99.34 504.083 99.2685L504.076 99.272Z" fill="white"/>
<path fill-rule="evenodd" clip-rule="evenodd" d="M564.227 95.967C564.431 96.2317 564.677 96.55 564.871 96.8182C566.272 98.7566 568.3 101.053 572.152 101.099C573.611 101.117 575.006 100.588 576.279 99.6543C577.874 98.4848 579.294 96.6537 580.431 94.7439C580.932 93.9034 580.657 92.8126 579.816 92.3119C578.976 91.8112 577.885 92.0866 577.384 92.9271C576.633 94.186 575.75 95.4234 574.738 96.3354C573.962 97.0363 573.128 97.5621 572.199 97.5478C569.295 97.512 568.146 95.2696 567.206 93.9821C566.308 92.7518 565.35 92.0866 564.474 92.0223C563.941 91.9793 563.376 92.1081 562.803 92.4693C562.381 92.734 561.92 93.1703 561.43 93.7282C560.783 94.4649 560.035 95.4735 559.088 96.2925C558.379 96.904 557.543 97.4226 556.484 97.4333C555.558 97.4405 554.832 96.8897 554.206 96.1565C553.347 95.1516 552.7 93.789 552.199 92.4192C551.863 91.5001 550.844 91.0244 549.925 91.357C549.006 91.6932 548.53 92.7125 548.863 93.6316C549.653 95.7989 550.794 97.909 552.275 99.2573C553.473 100.352 554.889 100.995 556.513 100.981C559.678 100.956 561.891 98.6851 563.497 96.7753C563.715 96.5142 563.994 96.2102 564.227 95.9598V95.967Z" fill="white"/>
<path fill-rule="evenodd" clip-rule="evenodd" d="M509.079 374.428C508.657 354.98 507.96 333.292 508.367 308.848C508.932 275.119 526.757 259.547 540.201 259.63C568.747 259.801 571.058 291.188 571.78 320.979C572.056 332.337 570.189 375.211 570.189 374.088L509.079 374.428Z" fill="#4A7C88"/>
<path fill-rule="evenodd" clip-rule="evenodd" d="M505.284 67.1454C506.364 71.1688 509.14 73.5757 512.158 74.4376C516.832 75.7752 522.154 73.4684 523.299 67.5746C523.485 66.6125 522.859 65.6791 521.897 65.4931C520.935 65.3071 520.005 65.933 519.815 66.895C519.128 70.4321 515.938 71.8269 513.131 71.0258C511.164 70.4643 509.415 68.8477 508.711 66.2263C508.457 65.2821 507.484 64.717 506.536 64.971C505.588 65.2249 505.027 66.1977 505.281 67.1454H505.284Z" fill="white"/>
<path fill-rule="evenodd" clip-rule="evenodd" d="M520.234 67.7787C521.096 70.9867 523.313 72.8965 525.72 73.5867C529.475 74.6596 533.753 72.8071 534.675 68.072C534.861 67.1099 534.235 66.1765 533.273 65.9905C532.311 65.8045 531.378 66.4304 531.192 67.3924C530.731 69.7743 528.585 70.7113 526.696 70.1713C525.341 69.785 524.146 68.6621 523.664 66.8596C523.41 65.9154 522.437 65.3503 521.489 65.6043C520.541 65.8582 519.98 66.831 520.234 67.7787Z" fill="white"/>
<path fill-rule="evenodd" clip-rule="evenodd" d="M507.105 114.761C508.185 118.785 510.96 121.188 513.979 122.054C518.653 123.387 523.975 121.081 525.123 115.187C525.309 114.225 524.683 113.291 523.721 113.105C522.759 112.919 521.829 113.545 521.639 114.507C520.953 118.044 517.762 119.439 514.955 118.638C512.988 118.077 511.239 116.46 510.535 113.839C510.281 112.894 509.308 112.329 508.36 112.583C507.412 112.837 506.851 113.81 507.105 114.758V114.761Z" fill="white"/>
<path fill-rule="evenodd" clip-rule="evenodd" d="M552.986 67.7886C553.931 72.2304 556.874 74.2976 559.556 74.387C562.346 74.4764 565.246 72.5094 565.919 68.1391C566.069 67.1699 565.404 66.265 564.434 66.1148C563.465 65.9646 562.56 66.6298 562.41 67.599C562.092 69.6769 560.998 70.8822 559.671 70.8392C558.24 70.7927 556.96 69.423 556.459 67.0519C556.255 66.0934 555.311 65.4818 554.353 65.6857C553.394 65.8895 552.783 66.8337 552.986 67.7886Z" fill="white"/>
<path fill-rule="evenodd" clip-rule="evenodd" d="M526.761 83.0351C527.919 87.0371 530.741 89.3832 533.778 90.1879C538.477 91.4289 543.752 89.0184 544.778 83.1031C544.947 82.1375 544.299 81.2183 543.334 81.0502C542.368 80.8821 541.449 81.5295 541.281 82.4951C540.662 86.0464 537.504 87.502 534.682 86.7581C532.705 86.236 530.92 84.6552 530.165 82.048C529.894 81.1075 528.906 80.5638 527.966 80.8356C527.025 81.1075 526.482 82.0945 526.753 83.0351H526.761Z" fill="white"/>
<path fill-rule="evenodd" clip-rule="evenodd" d="M541.857 107.969C542.937 111.993 545.712 114.396 548.731 115.262C553.405 116.596 558.727 114.289 559.871 108.395C560.057 107.433 559.431 106.503 558.469 106.313C557.507 106.128 556.574 106.753 556.388 107.715C555.701 111.252 552.511 112.647 549.703 111.846C547.736 111.285 545.984 109.668 545.283 107.05C545.029 106.102 544.056 105.541 543.109 105.795C542.164 106.049 541.599 107.022 541.853 107.969H541.857Z" fill="white"/>
<path fill-rule="evenodd" clip-rule="evenodd" d="M625.083 190.609C625.404 191.099 625.812 191.707 626.163 192.19C627.45 193.974 629.295 195.63 632.353 195.623C636.173 195.612 638.379 193.266 639.946 191.249C640.171 190.956 640.45 190.623 640.686 190.341C641.012 190.838 641.452 191.503 641.806 192.018C643.186 194.035 645.142 195.87 648.147 195.619C652.048 195.29 655.117 191.836 656.383 188.749C656.755 187.844 656.322 186.807 655.417 186.432C654.513 186.06 653.475 186.493 653.1 187.397C652.267 189.422 650.407 191.864 647.846 192.079C646.866 192.161 646.165 191.689 645.6 191.102C644.767 190.237 644.177 189.125 643.651 188.313C643.225 187.651 642.8 187.136 642.403 186.825C641.802 186.357 641.173 186.196 640.547 186.267C639.681 186.367 638.705 187.065 637.754 188.277C636.663 189.672 635.318 192.065 632.343 192.072C629.818 192.079 628.881 189.904 628.065 188.61C627.293 187.387 626.449 186.628 625.687 186.442C625.04 186.285 624.374 186.385 623.713 186.832C623.298 187.111 622.837 187.612 622.368 188.27C621.789 189.082 621.123 190.219 620.24 191.135C619.629 191.764 618.903 192.304 617.923 192.268C616.964 192.233 616.041 192.158 615.158 191.617C614.21 191.035 613.345 189.951 612.447 188.073C612.025 187.19 610.963 186.814 610.08 187.24C609.196 187.662 608.821 188.724 609.246 189.608C610.548 192.329 611.925 193.795 613.302 194.643C614.743 195.53 616.224 195.759 617.787 195.816C621.077 195.941 623.234 193.316 624.721 191.117C624.829 190.956 624.957 190.781 625.083 190.605V190.609Z" fill="white"/>
<path fill-rule="evenodd" clip-rule="evenodd" d="M697.419 214.331C698.664 216.405 700.86 218.93 704.751 219.005C707.383 219.055 709.246 217.961 710.702 216.348C711.925 215 712.833 213.244 713.709 211.627C714.178 210.765 713.856 209.689 712.998 209.22C712.136 208.752 711.059 209.074 710.591 209.932C709.979 211.059 709.368 212.271 708.602 213.312C707.712 214.517 706.596 215.49 704.819 215.454C702.036 215.4 700.752 213.197 700.048 211.788C699.543 210.783 699.179 210.021 698.971 209.796C698.503 209.288 697.991 209.177 697.598 209.174C697.061 209.17 696.446 209.331 695.992 210.086C695.327 211.198 694.547 212.41 693.585 213.333C692.863 214.027 692.037 214.563 691.024 214.542C687.477 214.456 686.186 211.684 685.449 209.324C685.156 208.391 684.161 207.868 683.224 208.162C682.291 208.455 681.769 209.449 682.062 210.386C683.199 214.023 685.478 217.961 690.942 218.093C692.562 218.133 693.989 217.557 695.23 216.602C696.042 215.98 696.768 215.186 697.423 214.327L697.419 214.331Z" fill="white"/>
<path fill-rule="evenodd" clip-rule="evenodd" d="M758.687 195.562C759.188 196.192 759.814 196.907 760.457 197.472C761.738 198.595 763.34 199.432 765.21 199.421C769.663 199.403 772.163 195.63 773.257 193.198C773.658 192.304 773.257 191.253 772.367 190.852C771.473 190.451 770.421 190.852 770.021 191.743C769.338 193.262 767.979 195.862 765.196 195.873C763.948 195.88 762.986 195.058 762.235 194.257C761.14 193.098 760.407 191.861 760.06 191.524C759.091 190.584 758.165 190.916 757.671 191.245C757.317 191.481 756.809 192.111 756.216 192.941C755.479 193.963 754.37 195.533 752.278 195.444C749.921 195.34 748.169 194.071 747.625 191.374C747.432 190.412 746.495 189.79 745.537 189.987C744.575 190.18 743.952 191.117 744.149 192.079C745.075 196.678 748.101 198.817 752.128 198.992C755.268 199.128 757.274 197.361 758.583 195.705L758.691 195.569L758.687 195.562Z" fill="white"/>
<path fill-rule="evenodd" clip-rule="evenodd" d="M770.564 233.701C771.065 234.33 771.691 235.045 772.334 235.61C773.615 236.733 775.217 237.57 777.087 237.559C781.54 237.542 784.04 233.769 785.134 231.337C785.535 230.442 785.134 229.391 784.244 228.99C783.35 228.59 782.298 228.99 781.898 229.881C781.215 231.401 779.856 234.001 777.073 234.012C775.825 234.019 774.863 233.196 774.112 232.395C773.021 231.236 772.284 229.999 771.941 229.663C770.972 228.722 770.045 229.055 769.552 229.384C769.198 229.62 768.694 230.249 768.096 231.079C767.36 232.102 766.251 233.672 764.159 233.583C761.802 233.479 760.05 232.209 759.506 229.513C759.313 228.554 758.376 227.932 757.414 228.125C756.455 228.318 755.833 229.255 756.026 230.217C756.952 234.816 759.978 236.955 764.005 237.13C767.145 237.266 769.151 235.499 770.46 233.844L770.568 233.704L770.564 233.701Z" fill="white"/>
<path fill-rule="evenodd" clip-rule="evenodd" d="M799.912 213.537C800.996 217.468 803.464 219.696 806.171 220.5C810.273 221.716 815.119 219.66 817.125 214.649C817.49 213.741 817.047 212.707 816.138 212.343C815.23 211.978 814.196 212.421 813.831 213.33C812.598 216.413 809.704 217.847 807.183 217.096C805.473 216.588 804.021 215.082 803.335 212.597C803.074 211.652 802.097 211.098 801.153 211.356C800.209 211.617 799.655 212.593 799.912 213.537Z" fill="white"/>
<path fill-rule="evenodd" clip-rule="evenodd" d="M782.112 230.854C783.192 234.785 785.663 237.013 788.371 237.814C792.473 239.03 797.319 236.974 799.325 231.963C799.69 231.055 799.247 230.021 798.338 229.656C797.43 229.291 796.396 229.735 796.031 230.643C794.798 233.726 791.908 235.16 789.383 234.409C787.67 233.901 786.221 232.392 785.535 229.907C785.274 228.962 784.297 228.408 783.353 228.666C782.409 228.927 781.855 229.903 782.112 230.847V230.854Z" fill="white"/>
<path fill-rule="evenodd" clip-rule="evenodd" d="M631.037 228.572C631.638 229.244 632.464 230.121 633.233 230.757C634.52 231.823 636.026 232.567 637.568 232.545C640.904 232.499 643.122 230.521 645.146 226.637C645.597 225.768 645.26 224.695 644.391 224.245C643.522 223.794 642.449 224.13 641.999 224.999C640.736 227.428 639.606 228.969 637.521 228.998C636.677 229.008 635.919 228.404 635.239 227.796C634.274 226.938 633.491 225.929 632.986 225.368C632.528 224.86 632.117 224.581 631.888 224.481C631.481 224.305 631.116 224.295 630.815 224.345C630.154 224.456 629.295 225.067 628.433 226.133C627.525 227.259 626.348 229.201 624.045 229.187C623.623 229.187 623.151 228.947 622.679 228.601C621.724 227.892 620.855 226.684 620.447 225.089C620.204 224.141 619.235 223.569 618.287 223.812C617.34 224.055 616.767 225.024 617.011 225.972C618.137 230.353 621.663 232.721 624.024 232.735C627.2 232.756 629.242 230.771 630.662 229.026C630.78 228.883 630.912 228.722 631.044 228.565L631.037 228.572Z" fill="white"/>
<path fill-rule="evenodd" clip-rule="evenodd" d="M630.973 274.253C630.186 274.285 629.703 322.169 630.826 322.345C637.861 323.439 678.442 322.262 678.439 321.99C678.381 319.094 679.154 274.764 678.474 274.636C675.517 274.078 638.737 273.938 630.976 274.253H630.973Z" fill="#4A7C88"/>
<path fill-rule="evenodd" clip-rule="evenodd" d="M700.963 275.108C700.176 275.14 699.693 323.024 700.812 323.2C707.847 324.294 748.428 323.117 748.425 322.845C748.367 319.949 749.14 275.619 748.46 275.491C745.503 274.936 708.723 274.797 700.963 275.108Z" fill="#4A7C88"/>
<path fill-rule="evenodd" clip-rule="evenodd" d="M634.46 279.164C633.784 279.2 633.931 317.267 634.303 317.299C639.596 317.739 674.73 316.998 674.726 316.766C674.676 314.273 675.37 279.883 674.787 279.775C672.244 279.296 640.247 278.87 634.46 279.164Z" fill="white"/>
<path fill-rule="evenodd" clip-rule="evenodd" d="M704.45 280.018C703.774 280.054 703.92 318.121 704.292 318.153C709.585 318.593 744.72 317.853 744.716 317.62C744.666 315.131 745.36 280.741 744.777 280.63C742.234 280.151 710.236 279.725 704.45 280.018Z" fill="white"/>
<path fill-rule="evenodd" clip-rule="evenodd" d="M656.773 276.331H651.333V319.781H656.773V276.331Z" fill="#4A7C88"/>
<path fill-rule="evenodd" clip-rule="evenodd" d="M726.763 277.182H721.323V320.632H726.763V277.182Z" fill="#4A7C88"/>
<path fill-rule="evenodd" clip-rule="evenodd" d="M677.248 296.509H632.107V300.869H677.248V296.509Z" fill="#4A7C88"/>
<path fill-rule="evenodd" clip-rule="evenodd" d="M747.237 297.36H702.096V301.724H747.237V297.36Z" fill="#4A7C88"/>
<path d="M636.419 175.095L635.094 124.886L699.739 108.942C711.041 106.155 722.965 107.654 733.226 113.136L797.323 147.4C801.014 150.89 803.298 155.614 803.755 160.667C804.998 174.574 792.453 185.73 778.784 182.879L741.459 175.095H636.419Z" fill="#18292D"/>
<path d="M653.633 95.2645L656.173 109.299L651.888 115.32L666.014 125.134C674.904 131.31 686.883 123.937 685.384 113.219L683.931 102.885L653.624 95.2554L653.633 95.2645Z" fill="white" stroke="#18292D" stroke-width="1.3" stroke-linecap="round" stroke-linejoin="round"/>
<path d="M635.605 47.8883C642.33 38.9248 655.177 35.4162 658.759 38.002C659.645 35.4619 661.372 33.0588 663.866 31.2405C669.678 27.01 677.38 27.6131 681.071 32.5745C684.269 36.8781 683.401 43.0365 679.335 47.3584C682.332 49.8802 685.174 52.868 687.714 56.2853C697.838 69.9087 676.357 87.2235 672.172 90.2661C660.833 98.5169 644.231 95.2276 635.084 82.9199C625.938 70.6122 627.492 58.7158 635.614 47.8883H635.605Z" fill="#18292D"/>
<path d="M637.506 51.6528C641.362 50.6112 644.962 50.73 647.858 52.265C656.008 56.596 659.206 74.6418 647.091 84.0073C646.332 84.592 645.282 84.7931 644.697 85.5332C636.437 74.3585 634.043 61.4478 637.515 51.6437L637.506 51.6528Z" fill="#18292D"/>
<path d="M679.783 46.9383C675.991 52.0916 669.814 57.0074 662.112 60.4886C649.156 66.3363 635.998 66.2632 629.657 60.9454C629.922 52.5759 633.193 45.2662 639.488 40.789C650.252 33.1413 666.589 36.12 679.774 46.9383H679.783Z" fill="#18292D"/>
<path d="M644.496 81.2938C646.497 80.3893 648.626 80.17 650.627 80.5263C654.757 75.3273 655.753 68.7851 654.711 63.2024C657.151 62.508 659.636 61.6125 662.121 60.4887C669.669 57.0805 675.745 52.2927 679.555 47.249C682.47 49.7709 685.238 52.7404 687.723 56.1211C699.921 72.705 700.817 92.7609 689.724 100.911C681.419 107.015 668.746 104.721 657.781 96.2056C656.721 97.969 655.141 99.4492 653.121 100.363C647.849 102.739 641.654 100.399 639.279 95.1365C636.903 89.8644 639.242 83.6695 644.505 81.2938H644.496Z" fill="white" stroke="#18292D" stroke-width="1.3" stroke-linecap="round" stroke-linejoin="round"/>
<path d="M672.601 25C672.601 25 658.887 26.4254 658.43 37.6731" stroke="#18292D" stroke-width="2.01016" stroke-linecap="round" stroke-linejoin="round"/>
<path d="M690.355 63.9331C690.775 65.4955 690.3 66.9757 689.313 67.2407C688.317 67.5057 687.175 66.4549 686.755 64.8925C686.335 63.33 686.81 61.8498 687.797 61.5848C688.783 61.3199 689.935 62.3706 690.355 63.9331Z" fill="#18292D"/>
<path d="M683.849 59.2182C683.849 59.2182 686.736 57.2812 690.181 57.2446" stroke="#18292D" stroke-width="1.3" stroke-linecap="round" stroke-linejoin="round"/>
<path d="M676.393 70.7221C676.814 72.2846 676.338 73.7648 675.352 74.0298C674.356 74.2947 673.214 73.244 672.793 71.6815C672.373 70.1191 672.848 68.6389 673.835 68.3739C674.831 68.1089 675.973 69.1597 676.393 70.7221Z" fill="#18292D"/>
<path d="M667.037 70.0735C667.037 70.0735 669.404 64.3719 674.575 63.5679" stroke="#18292D" stroke-width="1.3" stroke-linecap="round" stroke-linejoin="round"/>
<path d="M681.994 63.6772C681.994 63.6772 686.481 69.8631 688.226 71.6631C690.401 73.8925 685.795 75.9758 685.795 75.9758" stroke="#18292D" stroke-width="1.3" stroke-linecap="round" stroke-linejoin="round"/>
<path d="M689.788 82.9383C689.788 82.9383 683.767 88.0825 676.613 80.4165" stroke="#18292D" stroke-width="1.3" stroke-linecap="round" stroke-linejoin="round"/>
<path d="M651.943 86.8671C651.943 86.8671 647.895 84.5371 644.304 86.8853" stroke="#18292D" stroke-width="2.01016" stroke-linecap="round" stroke-linejoin="round"/>
<path d="M767.554 152.106L739.403 152.59" stroke="white" stroke-width="2.01016" stroke-linecap="round" stroke-linejoin="round"/>
<path d="M703.449 160.631L686.7 170.417C685.805 171.084 686.125 172.491 687.212 172.719C688.199 172.929 690.017 173.405 691.991 171.97C693.179 171.111 697.299 167.676 697.299 167.676L703.439 160.64L703.449 160.631Z" fill="white"/>
<path d="M738.453 154.81L733.957 154.436L709.104 160.612L717.218 171.924C718.068 173.112 719.201 174.08 720.498 174.747L722.746 175.899H734.944C738.507 172.865 740.289 168.233 739.65 163.591L738.443 154.81H738.453Z" fill="white"/>
<path d="M738.443 154.217L725.487 154.701L706.18 160.293C704.399 160.814 702.763 161.764 701.447 163.071L691.177 173.195C690.145 174.218 690.83 175.981 692.283 176.027C693.781 176.073 695.243 175.57 696.395 174.611L708.191 164.779" fill="white"/>
<path d="M738.443 154.217L725.487 154.701L706.18 160.293C704.399 160.814 702.763 161.764 701.447 163.071L691.177 173.195C690.145 174.218 690.83 175.981 692.283 176.027C693.781 176.073 695.243 175.57 696.395 174.611L708.191 164.779" stroke="#18292D" stroke-width="1.3" stroke-linecap="round" stroke-linejoin="round"/>
<path d="M710.868 162.321L698.588 174.437C697.555 175.46 698.24 177.224 699.693 177.27C701.192 177.315 702.654 176.813 703.805 175.853L715.601 166.022" fill="white"/>
<path d="M710.868 162.321L698.588 174.437C697.555 175.46 698.24 177.224 699.693 177.27C701.192 177.315 702.654 176.813 703.805 175.853L715.601 166.022" stroke="#18292D" stroke-width="1.3" stroke-linecap="round" stroke-linejoin="round"/>
<path d="M717.044 164.578L707.231 174.428C706.199 175.451 706.884 177.215 708.337 177.26C709.835 177.306 711.297 176.804 712.448 175.844L724.244 166.013" fill="white"/>
<path d="M717.044 164.578L707.231 174.428C706.199 175.451 706.884 177.215 708.337 177.26C709.835 177.306 711.297 176.804 712.448 175.844L719.923 169.722" stroke="#18292D" stroke-width="1.3" stroke-linecap="round" stroke-linejoin="round"/>
<path d="M727.104 154.244L711.562 154.308C710.448 154.308 709.863 155.633 710.612 156.464C711.078 156.976 711.772 157.826 712.942 158.31C713.49 158.538 721.787 155.633 721.787 155.633L727.095 154.235L727.104 154.244Z" fill="white"/>
<path d="M701.438 163.071C702.763 161.764 704.39 160.814 706.171 160.293L725.478 154.701L738.763 154.18C738.763 154.18 746.713 175.698 731.856 175.698H724.162C721.385 175.698 718.78 174.309 717.236 171.998" stroke="#18292D" stroke-width="1.3" stroke-linecap="round" stroke-linejoin="round"/>
<path d="M670.39 93.4002C670.39 93.4002 657.873 87.8449 656.849 79.8499L656.648 79.0367C655.999 76.4692 653.395 74.9068 650.828 75.5555C649.832 75.8022 649 76.3504 648.379 77.0723C647.255 76.5058 645.921 76.3596 644.642 76.8073C642.138 77.6753 640.814 80.3982 641.672 82.9017L641.947 83.6966C643.482 88.1373 646.588 91.8378 650.709 94.1038C652.646 95.1728 654.135 96.8906 654.93 98.9556L655.342 100.034L609.227 146.514C598.719 157.104 606.221 175.104 621.132 175.104H626.048C632.407 175.104 638.219 171.504 641.06 165.821L670.135 107.544C672.492 102.821 674.063 97.2104 670.409 93.4002H670.39Z" fill="white" stroke="#18292D" stroke-width="1.3" stroke-linecap="round" stroke-linejoin="round"/>
<path d="M656.091 93.309C652.18 90.6958 649.403 86.7486 648.26 82.1892L648.059 81.376C647.411 78.8085 648.973 76.2044 651.541 75.5557" stroke="#18292D" stroke-width="1.3" stroke-linecap="round" stroke-linejoin="round"/>
<path d="M648.553 106.859L609.218 146.505C598.71 157.095 606.212 175.095 621.123 175.095H626.039C632.398 175.095 638.21 171.495 641.051 165.811L665.283 117.239C660.276 112.889 654.647 109.372 648.553 106.859Z" fill="#18292D"/>
<path d="M626.039 175.095C632.398 175.095 638.21 171.495 641.051 165.812L665.283 117.239" stroke="white" stroke-width="2.01016" stroke-linecap="round" stroke-linejoin="round"/>
</g>
<defs>
<clipPath id="clip0_563_27701">
<rect width="1300" height="400" fill="white"/>
</clipPath>
</defs>
</svg>
