<svg width="1300" height="400" viewBox="0 0 1300 400" fill="none" xmlns="http://www.w3.org/2000/svg">
<ellipse cx="647.095" cy="186.704" rx="208.265" ry="99.0921" transform="rotate(-165.945 647.095 186.704)" fill="#F2F7F8"/>
<path d="M501.017 149.413C498.852 150.168 497.674 151.812 496.208 153.5C491.11 159.372 484.931 164.317 478.826 169.102C459.485 184.262 437.447 192.959 412.687 193.026C394.581 193.075 364.884 185.716 362.077 164.498C359.97 148.57 369.742 142.95 383.836 141.755C396.27 140.701 399.956 150.7 399.467 161.763C399.015 171.994 396.399 176.351 389.123 183.194C373.492 197.896 357.722 206.767 336.993 212.853C331.612 214.433 309.444 223.377 305.024 218.122" stroke="black" stroke-width="2" stroke-linecap="round" stroke-linejoin="round" stroke-dasharray="6 6"/>
<path d="M959 110.437C956.063 110.137 954.094 108.394 951.752 106.685C943.606 100.738 934.384 96.311 925.303 92.0638C896.535 78.6098 866.334 74.2524 835.318 81.7712C812.638 87.2694 777.674 105.805 780.537 133.812C782.687 154.836 796.608 159.024 814.611 156.225C830.493 153.755 832.102 139.83 828.165 125.828C824.524 112.878 819.94 108.107 808.775 101.587C784.788 87.5794 762.381 81.0743 734.604 79.6549C727.392 79.2864 696.954 74.652 693 82.7331" stroke="black" stroke-width="2" stroke-linecap="round" stroke-linejoin="round" stroke-dasharray="6 6"/>
<circle cx="254.5" cy="216.788" r="56" fill="white" stroke="#18292D"/>
<path d="M240.921 236.665C240.41 238.527 238.724 239.869 236.702 239.869C234.452 239.869 232.598 238.237 232.346 236.047" stroke="#18292D" stroke-width="1.3" stroke-linecap="round" stroke-linejoin="round"/>
<path d="M249.565 237.101C248.962 238.733 247.383 239.832 245.483 239.87C243.454 239.908 241.768 238.542 241.257 236.673" stroke="#18292D" stroke-width="1.3" stroke-linecap="round" stroke-linejoin="round"/>
<path d="M248.451 226.862C248.451 226.862 247.261 220.996 241.455 219.928C241.173 219.874 241.089 215.755 241.089 215.755" stroke="#18292D" stroke-width="1.3" stroke-linecap="round" stroke-linejoin="round"/>
<path d="M241.089 215.747L232.361 222.781L232.316 222.857C230.5 225.459 226.838 230.783 222.917 228.182C220.598 226.641 220.46 224.375 222.352 221.568C223.672 219.035 234.284 209.171 238.457 205.891C241.913 203.175 245.788 200.512 248.664 200.955C252.715 201.58 255.317 202.358 256.85 203.526C265.463 210.102 268.362 211.444 273.618 213.138C275.411 213.718 278.775 213.237 278.775 213.237L277.692 239.953L272.802 239.374V239.389C262.144 242.562 252.784 238.595 250.282 237.367C249.816 237.138 249.313 237.016 248.794 236.993L234.124 236.368" stroke="#18292D" stroke-width="1.3" stroke-linecap="round" stroke-linejoin="round"/>
<path d="M259.452 191.717C257.941 190.549 255.744 190.839 254.562 192.358L225.023 230.281C224.885 230.456 224.771 230.639 224.679 230.822L220.041 242.098C219.934 242.311 220.049 242.403 220.232 242.25L230.05 235.01C230.21 234.873 230.355 234.713 230.493 234.545L260.047 196.592C261.229 195.073 260.962 192.884 259.452 191.717Z" fill="#FFC31F" stroke="#18292D" stroke-width="1.3" stroke-linecap="round" stroke-linejoin="round"/>
<path d="M251.167 196.767L256.53 200.94" stroke="#18292D" stroke-width="1.3" stroke-linecap="round" stroke-linejoin="round"/>
<path d="M222.528 236.04L225.518 238.344" stroke="#18292D" stroke-width="1.3" stroke-linecap="round" stroke-linejoin="round"/>
<path d="M253.883 193.402L259.261 197.552" stroke="#18292D" stroke-width="1.3" stroke-linecap="round" stroke-linejoin="round"/>
<path d="M227.701 232.668L253.799 198.834" stroke="#18292D" stroke-width="1.3" stroke-linecap="round" stroke-linejoin="round"/>
<path d="M224.863 230.479L230.348 234.713" stroke="#18292D" stroke-width="1.3" stroke-linecap="round" stroke-linejoin="round"/>
<path d="M233.941 236.345C230.462 235.918 228.379 234.217 228.44 231.844C228.509 229.082 229.981 226.389 233.643 226.428C234.154 226.428 234.658 226.374 235.169 226.389L248.428 226.855" fill="white"/>
<path d="M233.941 236.345C230.462 235.918 228.379 234.217 228.44 231.844C228.509 229.082 229.981 226.389 233.643 226.428C234.154 226.428 234.658 226.374 235.169 226.389L248.428 226.855" stroke="#18292D" stroke-width="1.3" stroke-linecap="round" stroke-linejoin="round"/>
<path d="M290.882 211.429L279.248 210.681C277.814 210.689 276.609 211.879 276.548 213.344L275.495 238.404C275.434 239.869 276.54 241.052 277.974 241.044L289.715 240.983L290.89 211.436L290.882 211.429Z" fill="#18292D" stroke="#18292D" stroke-width="1.3" stroke-linecap="round" stroke-linejoin="round"/>
<path d="M233.758 236.315L234.879 236.399" stroke="#18292D" stroke-width="1.3" stroke-linecap="round" stroke-linejoin="round"/>
<circle cx="1003.5" cy="125.5" r="56" fill="white" stroke="#18292D"/>
<path d="M1036.96 120.609C1037.81 121.372 1037.81 122.704 1036.96 123.467C1032.63 127.333 1019.55 137.719 1004.09 137.719C988.622 137.719 975.553 127.333 971.218 123.467C970.366 122.704 970.366 121.372 971.218 120.609C975.553 116.743 988.628 106.357 1004.09 106.357C1019.56 106.357 1032.63 116.743 1036.97 120.609H1036.96Z" fill="white" stroke="#18292D" stroke-width="1.3" stroke-linecap="round" stroke-linejoin="round"/>
<path d="M1004.65 137.712C1013.31 137.712 1020.33 130.695 1020.33 122.038C1020.33 113.381 1013.31 106.363 1004.65 106.363C995.994 106.363 988.976 113.381 988.976 122.038C988.976 130.695 995.994 137.712 1004.65 137.712Z" fill="white" stroke="#18292D" stroke-width="1.3" stroke-linecap="round" stroke-linejoin="round"/>
<path d="M1024.46 143.512L1022.7 145.273C1022.32 145.653 1022.32 146.269 1022.7 146.649L1034.19 158.14C1034.57 158.52 1035.18 158.52 1035.56 158.14L1037.32 156.378C1037.7 155.998 1037.7 155.382 1037.32 155.003L1025.83 143.512C1025.45 143.132 1024.84 143.132 1024.46 143.512Z" fill="white" stroke="#18292D" stroke-width="1.3" stroke-linecap="round" stroke-linejoin="round"/>
<path d="M1032.91 156.869L1036.05 153.729" stroke="#18292D" stroke-width="1.3" stroke-linecap="round" stroke-linejoin="round"/>
<path d="M1023.57 144.394L1021.28 142.101" stroke="#18292D" stroke-width="1.3" stroke-linecap="round" stroke-linejoin="round"/>
<path d="M1037.32 156.378C1037.7 155.998 1037.7 155.382 1037.32 155.003L1036 154L1033 157L1034.19 158.14C1034.57 158.519 1035.18 158.519 1035.56 158.14L1037.32 156.378Z" fill="#18292D"/>
<path d="M1026.77 133.337C1028.81 124.728 1023.47 116.101 1014.86 114.069C1006.26 112.037 997.629 117.369 995.597 125.978C993.565 134.588 998.897 143.214 1007.51 145.246C1016.12 147.278 1024.74 141.946 1026.77 133.337Z" stroke="#18292D" stroke-width="1.3" stroke-linecap="round" stroke-linejoin="round"/>
<path d="M1011.18 143.194C1018.66 143.194 1024.71 137.135 1024.71 129.662C1024.71 122.189 1018.66 116.131 1011.18 116.131C1003.71 116.131 997.651 122.189 997.651 129.662C997.651 137.135 1003.71 143.194 1011.18 143.194Z" stroke="#18292D" stroke-width="1.3" stroke-linecap="round" stroke-linejoin="round"/>
<path d="M1011.18 114.204C1002.66 114.204 995.736 121.143 995.736 129.662C995.736 138.181 1002.66 145.108 1011.18 145.108C1019.7 145.108 1026.63 138.181 1026.63 129.662C1026.63 121.143 1019.7 114.204 1011.18 114.204ZM1011.18 143.728C1003.52 143.728 997.075 137.322 997.075 129.65C997.075 121.978 1003.52 115.596 1011.18 115.596C1018.85 115.596 1025.28 121.792 1025.28 129.458C1025.28 137.124 1018.85 143.722 1011.18 143.722V143.728Z" fill="#18292D"/>
<path d="M1004.65 137.719V137.719C1004.35 129.15 1011.21 122.038 1019.78 122.038H1020.33" fill="#FFC31F"/>
<path d="M1004.65 137.719V137.719C1004.35 129.15 1011.21 122.038 1019.78 122.038H1020.33C1019.8 134.469 1009.65 137.671 1004.65 137.719Z" fill="#FFC31F"/>
<path d="M1004.65 137.719V137.719C1004.35 129.15 1011.21 122.038 1019.78 122.038H1020.33" stroke="#18292D" stroke-width="1.3" stroke-linecap="round" stroke-linejoin="round"/>
<path d="M1004.65 137.719V137.719C1004.35 129.15 1011.21 122.038 1019.78 122.038H1020.33C1019.8 134.469 1009.65 137.671 1004.65 137.719Z" stroke="#18292D" stroke-width="1.3" stroke-linecap="round" stroke-linejoin="round"/>
<path d="M1004.88 93.5762V102.305" stroke="#18292D" stroke-width="1.3" stroke-linecap="round" stroke-linejoin="round"/>
<path d="M1026.66 97.9404L1020.49 104.112" stroke="#18292D" stroke-width="1.3" stroke-linecap="round" stroke-linejoin="round"/>
<path d="M985.296 97.9404L991.468 104.112" stroke="#18292D" stroke-width="1.3" stroke-linecap="round" stroke-linejoin="round"/>
<path d="M598.925 157.22C598.925 157.22 577.243 143.997 576.212 130.734C575.182 117.47 591.497 112.719 594.762 106.482C598.028 100.245 595.525 89.0298 599.005 85.2957C602.485 81.5616 613.674 83.0472 617.876 76.5159C622.065 69.9846 625.625 56.922 636.613 51.8897C647.588 46.844 659.754 45.0639 668.949 49.2129C678.143 53.3619 694.244 62.4227 694.806 77.6268C695.355 92.8308 689.132 133.772 699.223 140.009C709.314 146.246 651.162 182.435 598.938 157.22H598.925Z" fill="#18292D"/>
<path d="M635.342 170.269C620.393 170.269 604.279 167.124 589.235 158.666C589.195 158.639 589.155 158.626 589.128 158.599C588.258 157.983 567.754 143.502 567.553 129.663C567.406 120.174 574.995 115.275 581.084 111.341C583.962 109.48 586.692 107.713 587.776 105.92C589.396 103.243 589.864 99.2683 590.306 95.4138C590.814 91.0372 591.296 86.9016 593.545 84.7602C595.405 82.9936 598.51 82.485 601.816 81.9496C606.045 81.2537 610.435 80.5443 612.764 77.359C613.875 75.8332 615.026 73.839 616.244 71.7244C620.031 65.1262 624.742 56.9085 633.603 53.4956C646.344 48.5838 658.563 48.3696 667.156 52.9201C683.645 61.6464 692.197 72.4337 691.889 84.1178C691.782 88.2936 691.073 94.1557 690.256 100.941C688.209 117.845 685.411 140.986 691.836 145.523C693.696 146.834 693.937 148.989 692.491 151.278C687.513 159.147 663.489 170.296 635.342 170.296V170.269ZM590.614 156.364C614.129 169.573 638.22 168.837 654.294 165.893C672.309 162.587 686.977 154.985 690.243 149.832C691.193 148.333 690.618 147.918 690.296 147.691C682.587 142.23 685.251 120.12 687.62 100.607C688.436 93.888 689.132 88.0794 689.239 84.0375C689.587 70.6537 676.752 61.004 665.924 55.2757C658.015 51.0999 646.598 51.3542 634.593 55.985C626.616 59.0633 622.173 66.8125 618.599 73.0494C617.341 75.231 616.163 77.2921 614.959 78.9383C611.974 83.007 606.821 83.8501 602.284 84.5862C599.407 85.0547 596.69 85.4963 595.432 86.7009C593.879 88.1731 593.451 91.8403 592.996 95.7216C592.514 99.8572 592.019 104.127 590.092 107.299C588.686 109.627 585.849 111.461 582.557 113.589C576.735 117.35 570.123 121.619 570.244 129.636C570.431 141.802 589.489 155.574 590.627 156.377L590.614 156.364Z" fill="#18292D"/>
<path d="M502.789 160.78L502.401 123.68C499.242 121.512 496.619 118.487 494.973 114.713C492.109 108.195 489.686 102.507 489.753 102.172L470.28 79.9152C468.66 78.0682 468.473 75.5788 469.838 74.1467C471.324 72.5808 474.107 72.795 476.048 74.6419L487.759 85.7371L479.822 66.17C478.792 63.6404 479.595 60.6425 481.91 59.197C484.627 57.5106 488.16 58.4609 489.673 61.218L500.085 80.2498L489.807 54.8874C488.656 52.0367 490.048 48.7309 493.046 47.6334C495.629 46.6831 498.52 47.9412 499.845 50.3637L503.953 57.8854L503.338 55.9849C502.495 53.3884 503.498 50.444 505.907 49.1725C508.731 47.6735 512.198 48.8781 513.509 51.7422L527.549 82.351L532.073 92.2015L535.218 78.2556C536.021 74.6955 538.256 71.6306 541.401 69.797C543.462 68.5924 546.059 70.2387 545.979 72.621L545.483 87.2495C545.216 95.0656 543.288 102.748 539.809 109.761C539.287 110.805 538.711 111.795 538.096 112.772L544.025 181.726L502.802 160.78H502.789Z" fill="white"/>
<path d="M544.024 183.078C543.342 183.078 542.753 182.556 542.686 181.86L536.757 112.92C536.73 112.625 536.797 112.331 536.958 112.09C537.627 111.046 538.162 110.096 538.604 109.199C542.017 102.306 543.877 94.9184 544.132 87.2361L544.627 72.6076C544.653 71.9518 544.319 71.3495 543.743 71.0016C543.489 70.8543 542.807 70.5465 542.07 70.9748C539.26 72.621 537.225 75.3915 536.516 78.5768L533.371 92.5227C533.25 93.0849 532.769 93.4998 532.207 93.5533C531.644 93.6202 531.096 93.299 530.855 92.777L512.305 52.3178C511.823 51.2604 510.953 50.4708 509.856 50.1094C508.758 49.7347 507.594 49.8284 506.55 50.3771C504.783 51.314 503.953 53.5491 504.622 55.5968L505.238 57.4973C505.452 58.1531 505.131 58.8624 504.502 59.1435C503.873 59.4246 503.123 59.1703 502.802 58.5546L498.693 51.0329C497.65 49.1324 495.441 48.2223 493.527 48.9183C492.443 49.3198 491.587 50.1094 491.118 51.1534C490.65 52.1973 490.636 53.3617 491.065 54.419L501.343 79.7814C501.611 80.4372 501.317 81.1867 500.674 81.4945C500.032 81.8023 499.269 81.548 498.921 80.9324L488.508 61.9006C487.946 60.8834 487.023 60.1607 485.899 59.8662C484.774 59.5718 483.61 59.7458 482.619 60.3614C480.933 61.4188 480.251 63.7074 481.067 65.7016L489.004 85.2687C489.244 85.8576 489.044 86.5268 488.522 86.8748C488 87.2228 487.304 87.1692 486.849 86.7409L475.138 75.6458C474.415 74.9632 473.545 74.5483 472.675 74.4814C471.912 74.4278 471.257 74.642 470.815 75.097C469.945 76.0205 470.146 77.7604 471.283 79.072L490.757 101.329C490.944 101.543 491.051 101.811 491.078 102.079C491.212 102.534 491.988 104.635 496.191 114.218C497.676 117.604 500.085 120.508 503.15 122.623C503.512 122.864 503.726 123.279 503.726 123.707L504.114 160.807C504.114 161.543 503.525 162.145 502.789 162.159H502.776C502.039 162.159 501.451 161.57 501.437 160.834L501.049 124.416C497.837 122.061 495.307 118.916 493.728 115.289C490.061 106.924 488.87 104.033 488.522 102.855L469.249 80.8253C467.175 78.4564 467.001 75.1907 468.848 73.25C469.851 72.1927 471.27 71.6841 472.863 71.8046C474.335 71.9251 475.794 72.5942 476.958 73.6917L484.185 80.5442L478.578 66.692C477.293 63.52 478.417 59.8127 481.201 58.0728C482.82 57.069 484.721 56.7746 486.568 57.2564C488.08 57.6579 489.405 58.5546 490.329 59.7993L488.549 55.4094C487.839 53.6695 487.879 51.769 488.642 50.0559C489.405 48.3428 490.797 47.0445 492.577 46.3887C495.722 45.2511 499.349 46.6832 501.009 49.7347L502.12 51.7556C502.682 50.1763 503.779 48.8112 505.292 48.0082C506.978 47.1114 508.905 46.9642 510.699 47.5665C512.479 48.1688 513.951 49.4938 514.727 51.1935L531.631 88.0526L533.906 77.9745C534.79 74.0665 537.266 70.667 540.719 68.646C542.084 67.843 543.73 67.8564 545.109 68.6728C546.514 69.516 547.357 71.0417 547.303 72.6745L546.808 87.3031C546.541 95.3735 544.587 103.136 541 110.363C540.571 111.233 540.063 112.13 539.447 113.12L545.336 181.619C545.403 182.355 544.854 183.011 544.118 183.064C544.078 183.064 544.038 183.064 543.998 183.064L544.024 183.078Z" fill="#18292D"/>
<path d="M513.135 78.7506C512.626 78.7506 512.144 78.4561 511.917 77.9743L502.093 56.5602C501.785 55.891 502.093 55.088 502.749 54.7802C503.418 54.4723 504.221 54.7802 504.529 55.436L514.353 76.8501C514.661 77.5193 514.353 78.3223 513.697 78.6301C513.523 78.7104 513.322 78.7506 513.135 78.7506Z" fill="#18292D"/>
<path d="M518.074 115.57C517.525 115.57 517.016 115.235 516.815 114.686C516.615 114.124 511.957 100.754 520.67 89.0832C521.112 88.4944 521.955 88.3739 522.544 88.8156C523.133 89.2572 523.253 90.1004 522.811 90.6893C514.982 101.182 519.291 113.656 519.332 113.79C519.586 114.486 519.211 115.249 518.515 115.503C518.368 115.556 518.221 115.583 518.06 115.583L518.074 115.57Z" fill="#18292D"/>
<path d="M492.885 95.3469C492.658 95.3469 492.43 95.2934 492.216 95.1729C491.574 94.7982 491.36 93.9818 491.721 93.3393C498.52 81.575 519.077 78.3227 519.947 78.1889C520.684 78.0818 521.366 78.577 521.473 79.3131C521.58 80.0492 521.085 80.7318 520.349 80.8389C520.148 80.8656 500.18 84.0376 494.036 94.6777C493.782 95.106 493.34 95.3469 492.872 95.3469H492.885Z" fill="#18292D"/>
<path d="M617.421 269.818L716.916 263.715C729.403 262.952 740.552 255.645 746.254 244.509C750.697 235.837 751.353 225.705 748.087 216.524L724.759 151.023C719.125 135.204 703.037 125.608 686.441 128.177L653.397 133.29L624.501 123.158C607.905 117.336 589.435 122.462 578.193 135.993L543.301 178.059L541.628 151.706L502.534 160.66L500.513 206.847C499.871 221.663 512.786 233.454 527.482 231.447C530.172 231.085 532.795 230.256 535.204 228.998L594.187 200.517L603.676 256.889L590.265 260.249L617.421 269.791V269.818Z" fill="#96D8E8"/>
<path d="M653.396 133.29L695.5 127.44C690 137.94 675.4 158.54 661 156.94C643 154.94 623.002 148.876 624.501 123.158L653.396 133.29Z" fill="white"/>
<path d="M617.421 271.156C617.274 271.156 617.127 271.13 616.979 271.076L589.824 261.533C589.261 261.333 588.9 260.797 588.927 260.208C588.954 259.62 589.369 259.111 589.944 258.977L602.15 255.926L593.156 202.524L535.78 230.229C533.25 231.54 530.507 232.41 527.656 232.798C520.255 233.802 512.853 231.5 507.326 226.468C501.812 221.436 498.827 214.275 499.162 206.807L501.183 160.619C501.209 160.017 501.638 159.509 502.227 159.375L541.321 150.421C541.709 150.341 542.11 150.421 542.418 150.649C542.739 150.889 542.927 151.251 542.953 151.639L544.412 174.632L577.149 135.163C588.686 121.258 607.878 115.931 624.929 121.913L653.517 131.938L686.227 126.879C703.425 124.202 720.169 134.186 726.017 150.595L749.345 216.095C752.731 225.585 752.036 236.171 747.445 245.138C741.556 256.635 729.899 264.277 717.01 265.067L617.515 271.17C617.515 271.17 617.461 271.17 617.434 271.17L617.421 271.156ZM594.923 260.49L617.622 268.466L716.849 262.377C728.801 261.641 739.615 254.561 745.076 243.907C749.332 235.596 749.974 225.785 746.843 216.979L723.515 151.478C718.108 136.274 702.596 127.039 686.656 129.502L653.611 134.615C653.397 134.641 653.169 134.615 652.968 134.561L624.073 124.43C608.079 118.822 590.065 123.814 579.237 136.863L544.345 178.929C543.997 179.343 543.422 179.517 542.9 179.343C542.378 179.169 542.017 178.701 541.976 178.152L540.397 153.365L503.833 161.744L501.852 206.914C501.557 213.579 504.221 219.977 509.146 224.474C514.071 228.971 520.696 231.032 527.308 230.135C529.864 229.787 532.313 229.011 534.602 227.82L593.625 199.325C593.999 199.138 594.454 199.152 594.816 199.339C595.191 199.526 595.445 199.888 595.525 200.303L605.014 256.675C605.135 257.358 604.693 258.027 604.024 258.201L594.936 260.476L594.923 260.49Z" fill="#18292D"/>
<path d="M610.382 304.776L477.788 257.277C477.788 257.277 412.127 238.125 414.041 295.059C415.246 331.075 432.203 350.107 476.517 350.107H609.11L610.382 304.776Z" fill="#4A7C88"/>
<path d="M612.255 350.107H442.053C442.053 350.107 438.226 334.461 461.179 329.603C484.132 324.745 480.304 328.786 489.86 324.745C499.416 320.703 511.85 310.17 526.197 319.886L540.545 329.603L610.984 304.776L612.255 350.107Z" fill="white"/>
<path d="M612.255 351.445H442.053C441.438 351.445 440.902 351.03 440.755 350.428C440.702 350.187 439.377 344.566 443.004 338.797C446.242 333.658 452.252 330.125 460.898 328.291C472.769 325.775 477.547 325.628 480.719 325.521C483.597 325.427 484.908 325.387 489.338 323.513C491.105 322.764 492.992 321.773 494.986 320.729C503.753 316.152 514.661 310.464 526.947 318.775L540.732 328.117L610.542 303.518C610.944 303.37 611.385 303.437 611.747 303.678C612.095 303.919 612.309 304.321 612.322 304.749L613.594 350.08C613.594 350.441 613.473 350.789 613.219 351.057C612.965 351.311 612.617 351.458 612.255 351.458V351.445ZM443.204 348.768H610.89L609.699 306.649L540.987 330.861C540.598 331.008 540.143 330.941 539.795 330.7L525.448 320.983C514.487 313.569 504.797 318.628 496.231 323.098C494.183 324.169 492.243 325.173 490.382 325.962C485.484 328.037 483.824 328.09 480.8 328.184C477.721 328.278 473.09 328.438 461.447 330.901C453.537 332.574 448.103 335.706 445.265 340.216C443.071 343.696 443.044 347.122 443.191 348.768H443.204Z" fill="#18292D"/>
<path d="M605.992 305.003L741.958 253.342C741.958 253.342 809.292 232.503 807.325 294.43C806.08 333.605 788.694 354.309 743.256 354.309H607.29L605.979 305.003H605.992Z" fill="#4A7C88"/>
<path d="M463.748 264.036L568.316 309.622L686.107 299.664L739.294 270.808C742.787 268.908 741.596 263.621 737.621 263.407L610.22 256.595L556.016 223.885L464.002 256.715C460.643 257.92 460.482 262.604 463.748 264.036Z" fill="#18292D"/>
<path d="M568.436 285.009L618.318 255.136L729.055 242.006L679.375 268.225L568.436 285.009Z" fill="white"/>
<path d="M568.436 286.347C567.874 286.347 567.365 285.999 567.178 285.464C566.964 284.862 567.204 284.192 567.753 283.858L617.635 253.985C617.795 253.891 617.983 253.824 618.17 253.798L728.908 240.682C729.537 240.601 730.152 241.003 730.34 241.618C730.527 242.234 730.26 242.903 729.684 243.198L680.003 269.417C679.869 269.484 679.722 269.537 679.575 269.55L568.637 286.334C568.637 286.334 568.503 286.347 568.436 286.347ZM618.759 256.434L574.94 282.68L678.946 266.954L722.055 244.202L618.759 256.434Z" fill="#18292D"/>
<path d="M733.07 267.248L729.055 242.006L679.375 268.225L683.724 291.62L733.07 267.248Z" fill="white"/>
<path d="M683.725 292.958C683.524 292.958 683.31 292.905 683.122 292.811C682.748 292.624 682.48 292.276 682.4 291.861L678.05 268.466C677.943 267.891 678.224 267.315 678.746 267.034L728.427 240.815C728.815 240.614 729.27 240.614 729.645 240.815C730.033 241.002 730.3 241.377 730.367 241.806L734.382 267.047C734.476 267.623 734.182 268.198 733.66 268.453L684.314 292.825C684.126 292.918 683.925 292.958 683.725 292.958ZM680.874 268.948L684.715 289.639L731.599 266.485L728.025 244.067L680.874 268.948Z" fill="#18292D"/>
<path d="M569.627 302.247L568.436 285.008L679.375 268.225L683.724 291.62L569.627 302.247Z" fill="white"/>
<path d="M569.627 303.585C569.306 303.585 568.998 303.478 568.757 303.264C568.476 303.036 568.316 302.702 568.289 302.34L567.098 285.102C567.044 284.406 567.539 283.791 568.235 283.683L679.174 266.9C679.897 266.793 680.552 267.275 680.686 267.984L685.036 291.379C685.103 291.754 685.009 292.129 684.782 292.436C684.554 292.731 684.206 292.932 683.845 292.958L569.748 303.572C569.748 303.572 569.667 303.572 569.627 303.572V303.585ZM569.855 286.146L570.859 300.775L682.132 290.416L678.29 269.738L569.855 286.133V286.146Z" fill="#18292D"/>
<path d="M559.322 219.107L618.318 255.136L568.436 285.009L470.413 238.018L559.322 219.107Z" fill="white"/>
<path d="M568.437 286.347C568.236 286.347 568.048 286.307 567.861 286.213L469.838 239.223C469.316 238.982 469.022 238.433 469.089 237.857C469.155 237.282 469.584 236.827 470.146 236.706L559.068 217.808C559.403 217.742 559.75 217.808 560.045 217.969L619.041 253.998C619.442 254.239 619.683 254.681 619.683 255.149C619.683 255.618 619.429 256.046 619.027 256.287L569.146 286.16C568.932 286.28 568.704 286.347 568.463 286.347H568.437ZM474.536 238.5L568.37 283.483L615.735 255.109L559.081 220.512L474.536 238.486V238.5Z" fill="#18292D"/>
<path d="M471.015 259.847L470.413 238.018L568.436 285.009L569.627 302.247L471.015 259.847Z" fill="white"/>
<path d="M569.627 303.586C569.453 303.586 569.266 303.546 569.105 303.479L470.48 261.079C469.998 260.878 469.69 260.41 469.663 259.888L469.061 238.059C469.061 237.59 469.275 237.149 469.677 236.894C470.065 236.64 470.56 236.613 470.988 236.814L569.011 283.805C569.44 284.019 569.734 284.434 569.774 284.915L570.965 302.154C570.992 302.622 570.791 303.064 570.403 303.332C570.176 303.492 569.908 303.573 569.627 303.573V303.586ZM472.327 258.964L568.141 300.16L567.151 285.892L471.805 240.187L472.313 258.978L472.327 258.964Z" fill="#18292D"/>
<path d="M694.793 221.101C694.793 221.101 707.722 211.05 710.774 209.899C713.825 208.748 731.84 201.092 740.446 210.942C749.051 220.793 753.134 227.819 748.034 240.427C743.35 252.017 737.916 256.956 735.213 259.686C733.165 261.761 712.875 273.07 712.875 273.07C712.875 273.07 719.661 269.831 722.819 266.405C734.758 253.463 716.649 224.688 694.807 221.101H694.793Z" fill="white"/>
<path d="M676.913 258.816C676.913 258.816 682.802 269.965 693.014 273.365C703.212 276.751 716.529 273.043 726.433 262.952C731.666 257.625 719.861 236.907 713.437 230.63C702.248 219.682 689.427 223.577 689.427 223.577L685.907 228.087L676.899 258.816H676.913Z" fill="white"/>
<path d="M700.937 275.948C698.059 275.948 695.248 275.519 692.585 274.636C681.998 271.116 675.976 259.927 675.721 259.445C675.373 258.79 675.628 257.987 676.284 257.639C676.939 257.291 677.742 257.545 678.09 258.201C678.144 258.308 683.872 268.921 693.428 272.093C703.413 275.412 716.288 271.357 725.469 262.015C726.098 261.386 726.406 260.315 726.393 258.857C726.326 251.362 717.814 236.773 712.5 231.58C702.984 222.265 692.398 224.219 690.203 224.755L686.964 228.917C686.509 229.492 685.666 229.6 685.09 229.145C684.501 228.689 684.408 227.846 684.863 227.271L688.383 222.76C688.557 222.546 688.784 222.386 689.052 222.305C689.6 222.145 702.77 218.304 714.387 229.68C719.5 234.685 729.002 250.077 729.083 258.843C729.109 261.038 728.534 262.738 727.396 263.902C719.768 271.665 710.051 275.961 700.95 275.961L700.937 275.948Z" fill="#18292D"/>
<path d="M648.525 225.785C648.525 225.785 672.643 220.9 682.708 226.24C696.881 233.748 696.814 248.792 696.881 250.438L648.525 225.798V225.785Z" fill="white"/>
<path d="M720.611 269.323C720.075 269.323 719.567 268.988 719.353 268.453C719.085 267.757 719.446 266.994 720.129 266.727C728.025 263.742 755.275 242.689 747.833 221.623C745.317 214.489 740.178 209.845 732.562 207.784C723.743 205.402 714.213 207.289 706.41 212.937L690.216 224.648C689.614 225.076 688.784 224.942 688.342 224.353C687.914 223.751 688.048 222.921 688.637 222.48L704.831 210.769C713.303 204.639 723.649 202.618 733.258 205.201C741.784 207.503 747.539 212.723 750.363 220.74C758.393 243.519 729.471 266.071 721.079 269.243C720.919 269.296 720.758 269.323 720.611 269.323Z" fill="#18292D"/>
<path d="M659.915 228.636C658.884 225.906 656.047 224.193 653.062 224.675C632.478 228.034 626.737 243.533 626.509 244.202C625.345 247.454 627.044 251.041 630.297 252.205C633.522 253.356 637.069 251.697 638.26 248.498C638.461 247.976 642.128 239.156 655.097 237.041C658.496 236.479 660.812 233.267 660.25 229.854C660.183 229.439 660.076 229.024 659.928 228.65L659.915 228.636Z" fill="white"/>
<path d="M632.385 253.905C631.542 253.905 630.685 253.757 629.842 253.463C625.907 252.058 623.846 247.695 625.251 243.76C625.492 243.064 631.515 226.856 652.849 223.363C656.395 222.774 659.902 224.808 661.173 228.168C661.347 228.636 661.481 229.131 661.561 229.626C661.896 231.634 661.414 233.642 660.236 235.301C659.059 236.947 657.305 238.031 655.311 238.353C643.038 240.36 639.639 248.631 639.505 248.979C638.394 252.004 635.476 253.905 632.385 253.905ZM654.067 225.932C653.812 225.932 653.545 225.959 653.277 225.999C633.469 229.238 627.995 244.014 627.767 244.643C626.857 247.199 628.196 250.023 630.739 250.933C633.255 251.83 636.065 250.532 636.989 248.016C637.163 247.574 641.111 237.951 654.87 235.703C656.154 235.489 657.292 234.793 658.055 233.722C658.818 232.651 659.126 231.353 658.911 230.055C658.858 229.733 658.778 229.412 658.657 229.104C657.934 227.177 656.074 225.919 654.053 225.919L654.067 225.932Z" fill="#18292D"/>
<path d="M664.626 224.528C645.086 231.809 642.449 248.137 642.342 248.819C641.833 252.232 644.189 255.418 647.602 255.94C650.988 256.448 654.147 254.133 654.695 250.76C654.789 250.211 656.689 240.843 669.003 236.252L664.626 224.528Z" fill="white"/>
<path d="M648.526 257.358C648.151 257.358 647.776 257.331 647.401 257.278C643.266 256.649 640.402 252.781 641.017 248.632C641.124 247.909 643.895 230.831 664.158 223.283C664.854 223.029 665.617 223.376 665.885 224.072C666.139 224.768 665.791 225.531 665.095 225.799C646.291 232.812 643.761 248.377 643.667 249.033C643.266 251.71 645.126 254.226 647.803 254.628C650.44 255.043 652.942 253.196 653.371 250.559C653.571 249.448 655.713 239.798 668.534 235.02C669.23 234.766 669.993 235.114 670.261 235.81C670.515 236.506 670.167 237.269 669.471 237.537C657.827 241.873 656.074 250.653 656.007 251.027C655.418 254.708 652.179 257.371 648.526 257.371V257.358Z" fill="#18292D"/>
<path d="M673.486 227.592C656.302 235.328 653.879 250.197 653.785 250.866C653.277 254.293 655.632 257.491 659.059 258C662.458 258.508 665.63 256.18 666.179 252.794C666.286 252.245 668.186 242.849 680.553 238.245L673.473 227.592H673.486Z" fill="white"/>
<path d="M659.982 259.405C659.607 259.405 659.233 259.379 658.858 259.325C654.709 258.696 651.831 254.815 652.46 250.666C652.554 250.01 655.07 234.418 672.938 226.374C673.607 226.066 674.396 226.374 674.704 227.043C675.012 227.713 674.704 228.516 674.035 228.81C657.479 236.265 655.191 250.452 655.11 251.054C654.709 253.744 656.569 256.26 659.259 256.662C661.923 257.063 664.439 255.23 664.867 252.566C664.947 252.111 666.968 241.873 680.098 236.974C680.794 236.72 681.557 237.068 681.824 237.764C682.079 238.46 681.731 239.223 681.035 239.49C669.311 243.853 667.571 252.66 667.504 253.021C666.901 256.715 663.649 259.392 659.982 259.392V259.405Z" fill="#18292D"/>
<path d="M682.52 235.489C670.823 240.615 667.704 250.572 667.383 251.683C666.433 255.016 668.373 258.482 671.706 259.432C675.012 260.369 678.451 258.469 679.428 255.19C679.549 254.828 681.316 249.716 687.552 246.985L682.52 235.489Z" fill="white"/>
<path d="M673.406 261.012C672.723 261.012 672.027 260.918 671.345 260.731C669.391 260.182 667.771 258.897 666.768 257.117C665.777 255.337 665.536 253.289 666.085 251.335C666.42 250.158 669.699 239.651 681.972 234.271C682.654 233.977 683.444 234.271 683.738 234.954C684.033 235.636 683.738 236.426 683.056 236.72C671.907 241.605 668.976 251.001 668.668 252.058C668.307 253.33 668.467 254.655 669.11 255.806C669.752 256.957 670.81 257.786 672.068 258.148C674.651 258.884 677.381 257.385 678.144 254.802C678.358 254.146 680.312 248.685 687.004 245.754C687.687 245.46 688.476 245.754 688.771 246.437C689.065 247.119 688.771 247.909 688.088 248.204C682.36 250.706 680.767 255.404 680.7 255.605C679.737 258.857 676.685 261.012 673.393 261.012H673.406Z" fill="#18292D"/>
<path d="M696.881 251.764C696.172 251.764 695.57 251.201 695.543 250.479V250.238C695.396 245.446 693.803 233.615 682.079 227.405C672.563 222.359 649.021 227.03 648.78 227.084C648.057 227.218 647.348 226.763 647.2 226.04C647.053 225.317 647.522 224.608 648.244 224.461C649.248 224.26 672.951 219.549 683.323 225.036C696.292 231.902 698.046 244.884 698.206 250.157V250.358C698.246 251.094 697.671 251.723 696.935 251.75C696.921 251.75 696.895 251.75 696.881 251.75V251.764Z" fill="#18292D"/>
<path d="M591.818 162.493L595.539 168.863C595.539 168.863 575.972 193.142 598.724 209.376L591.818 162.493Z" fill="#96D8E8"/>
<path d="M598.724 210.715C598.456 210.715 598.189 210.634 597.948 210.46C591.35 205.749 587.535 199.927 586.598 193.128C585.059 181.886 591.872 171.58 593.933 168.756L590.667 163.162C590.292 162.52 590.506 161.703 591.149 161.328C591.791 160.954 592.608 161.168 592.982 161.81L596.703 168.181C596.984 168.663 596.944 169.265 596.596 169.693C596.502 169.8 587.642 180.989 589.262 192.78C590.091 198.803 593.545 204.023 599.514 208.279C600.116 208.707 600.25 209.55 599.822 210.153C599.554 210.514 599.152 210.715 598.724 210.715Z" fill="#18292D"/>
<path d="M544.747 196.287C544.065 196.287 543.476 195.765 543.409 195.069L541.937 178.192C541.87 177.456 542.419 176.8 543.155 176.747C543.864 176.667 544.547 177.229 544.6 177.965L546.072 194.842C546.139 195.578 545.59 196.234 544.854 196.287C544.814 196.287 544.774 196.287 544.734 196.287H544.747Z" fill="#18292D"/>
<path d="M659.754 157.702C658.791 157.702 657.84 157.661 656.863 157.568L651.389 157.046C634.245 155.44 621.584 140.182 623.136 123.038C623.203 122.301 623.845 121.766 624.595 121.82C625.331 121.887 625.88 122.542 625.813 123.278C624.381 138.951 635.971 152.91 651.644 154.382L657.118 154.904C667.048 155.828 676.899 151.438 682.828 143.421L695.128 126.798C695.569 126.209 696.399 126.076 697.001 126.517C697.59 126.959 697.724 127.789 697.283 128.391L684.983 145.014C679.081 153.004 669.605 157.702 659.768 157.702H659.754Z" fill="#18292D"/>
<path d="M675.373 90.8496H643.145V138.616H675.373V90.8496Z" fill="white"/>
<path d="M645.982 60.4146L646.102 60.6956C651.416 73.2898 661.561 83.2206 674.262 88.2797L669.551 110.35L648.377 114.967C645.192 115.663 641.886 115.583 638.741 114.726C628.034 111.808 621.663 100.82 624.461 90.0731L628.288 75.4178C630.43 67.1868 637.523 61.1908 645.995 60.4279L645.982 60.4146Z" fill="white"/>
<path d="M677.702 102.333C682.373 102.333 686.16 98.5456 686.16 93.8741C686.16 89.2026 682.373 85.4155 677.702 85.4155C673.03 85.4155 669.243 89.2026 669.243 93.8741C669.243 98.5456 673.03 102.333 677.702 102.333Z" fill="white"/>
<path d="M642.837 117.911C642.101 117.911 641.499 117.309 641.499 116.573C641.499 115.837 642.101 115.235 642.837 115.235C662.03 115.235 666.339 105.224 666.513 104.795C666.794 104.113 667.571 103.778 668.253 104.059C668.936 104.327 669.27 105.103 669.003 105.786C668.802 106.281 663.97 117.911 642.837 117.911Z" fill="#18292D"/>
<path d="M675.186 96.5514C675.066 96.5514 674.945 96.538 674.825 96.4979C674.115 96.2971 673.7 95.561 673.901 94.8516C673.968 94.5973 675.668 88.6817 680.018 87.959C680.754 87.8385 681.436 88.3337 681.557 89.0564C681.677 89.7792 681.182 90.4751 680.459 90.5956C678.238 90.9703 676.832 94.3163 676.484 95.5744C676.324 96.1633 675.775 96.5514 675.199 96.5514H675.186Z" fill="#18292D"/>
<path d="M648.418 105.959C644.069 105.959 640.147 100.526 639.665 99.8297C639.411 99.4683 639.358 99.0133 639.505 98.5984C639.652 98.1835 640 97.8756 640.428 97.7686L652.889 94.5029C653.263 94.4092 653.678 94.4761 653.999 94.7037C654.321 94.9312 654.521 95.2925 654.562 95.6807C654.588 96.0153 655.177 103.845 650.118 105.652C649.556 105.852 648.981 105.946 648.418 105.946V105.959ZM643.105 99.843C644.711 101.636 647.267 103.845 649.221 103.149C651.283 102.413 651.791 99.4415 651.898 97.541L643.118 99.843H643.105Z" fill="#18292D"/>
<path d="M638.527 81.1996C638.447 80.5706 637.831 80.1557 637.229 80.236C636.413 80.3297 635.636 80.8249 635.181 81.5075C635.141 81.561 635.114 81.6279 635.088 81.6814C634.887 81.8153 634.726 81.9759 634.592 82.19C634.418 82.4845 634.271 82.8191 634.258 83.1671C634.258 83.6087 634.338 84.0236 634.606 84.385C634.9 84.7597 635.315 84.9739 635.784 85.0676C636.158 85.1479 636.533 85.0676 636.894 84.9605C637.564 84.7463 638.099 84.1708 638.367 83.5284C638.661 82.7923 638.621 81.9759 638.527 81.1996Z" fill="#18292D"/>
<path d="M659.112 83.4084C659.072 83.0471 658.845 82.7526 658.537 82.5786C658.416 82.4983 658.269 82.4448 658.108 82.4314C657.908 82.4047 657.72 82.4314 657.533 82.5117C656.877 82.6991 656.288 83.1675 655.887 83.7029C655.726 83.9304 655.592 84.1713 655.485 84.439C655.418 84.5595 655.351 84.6933 655.298 84.8137C655.097 85.3089 655.017 85.9246 655.164 86.4466C655.191 86.6473 655.271 86.8213 655.391 86.9819C655.485 87.1158 655.606 87.2094 655.739 87.2764C656.061 87.4504 656.395 87.4637 656.743 87.3433C658.323 86.7812 659.313 85.0547 659.112 83.4084Z" fill="#18292D"/>
<path d="M640.763 92.6959C640.308 92.6959 639.866 92.4684 639.612 92.0401C639.237 91.4111 639.438 90.5813 640.067 90.2065C640.067 90.2065 642.423 88.4934 642.677 81.8015C642.771 79.379 642.168 77.6793 640.897 76.7692C638.367 74.949 633.429 76.2338 631.729 76.8763C631.046 77.1439 630.27 76.796 630.002 76.1C629.735 75.404 630.083 74.6412 630.779 74.3735C631.073 74.253 638.233 71.5629 642.449 74.5876C644.497 76.0598 645.474 78.5225 645.354 81.9086C645.032 90.1129 641.807 92.281 641.446 92.4952C641.231 92.629 640.99 92.6825 640.763 92.6825V92.6959Z" fill="#18292D"/>
<path d="M701.592 213.151C701.003 213.151 700.468 212.763 700.307 212.174L693.776 188.431C693.575 187.722 694.004 186.986 694.713 186.785C695.422 186.584 696.158 187.012 696.359 187.722L702.891 211.465C703.091 212.174 702.663 212.91 701.954 213.111C701.833 213.138 701.713 213.164 701.592 213.164V213.151Z" fill="#18292D"/>
</svg>
